# Editable closed quad source; millimetres
v 4.914392129 63.914392129 298.400000000
v 4.674669185 64.285623189 298.400000000
v 4.606854249 64.656854249 298.400000000
v 4.674669185 65.028085310 298.400000000
v 4.914392129 65.399316370 298.400000000
v 5.285623189 65.639039314 298.400000000
v 5.656854249 65.706854249 298.400000000
v 6.028085310 65.639039314 298.400000000
v 6.399316370 65.399316370 298.400000000
v 6.639039314 65.028085310 298.400000000
v 6.706854249 64.656854249 298.400000000
v 6.639039314 64.285623189 298.400000000
v 6.399316370 63.914392129 298.400000000
v 6.028085310 63.674669185 298.400000000
v 5.656854249 63.606854249 298.400000000
v 5.285623189 63.674669185 298.400000000
v 4.914392129 63.914392129 299.200000000
v 4.674669185 64.285623189 299.200000000
v 4.606854249 64.656854249 299.200000000
v 4.674669185 65.028085310 299.200000000
v 4.914392129 65.399316370 299.200000000
v 5.285623189 65.639039314 299.200000000
v 5.656854249 65.706854249 299.200000000
v 6.028085310 65.639039314 299.200000000
v 6.399316370 65.399316370 299.200000000
v 6.639039314 65.028085310 299.200000000
v 6.706854249 64.656854249 299.200000000
v 6.639039314 64.285623189 299.200000000
v 6.399316370 63.914392129 299.200000000
v 6.028085310 63.674669185 299.200000000
v 5.656854249 63.606854249 299.200000000
v 5.285623189 63.674669185 299.200000000
v 5.165761717 64.165761717 298.400000000
v 5.656854249 64.131854249 298.400000000
v 6.147946782 64.165761717 298.400000000
v 5.131854249 64.656854249 298.400000000
v 5.656854249 64.656854249 298.400000000
v 6.181854249 64.656854249 298.400000000
v 5.165761717 65.147946782 298.400000000
v 5.656854249 65.181854249 298.400000000
v 6.147946782 65.147946782 298.400000000
v 5.165761717 64.165761717 299.200000000
v 5.656854249 64.131854249 299.200000000
v 6.147946782 64.165761717 299.200000000
v 5.131854249 64.656854249 299.200000000
v 5.656854249 64.656854249 299.200000000
v 6.181854249 64.656854249 299.200000000
v 5.165761717 65.147946782 299.200000000
v 5.656854249 65.181854249 299.200000000
v 6.147946782 65.147946782 299.200000000
f 17 18 2 1
f 18 19 3 2
f 19 20 4 3
f 20 21 5 4
f 21 22 6 5
f 22 23 7 6
f 23 24 8 7
f 24 25 9 8
f 25 26 10 9
f 26 27 11 10
f 27 28 12 11
f 28 29 13 12
f 29 30 14 13
f 30 31 15 14
f 31 32 16 15
f 32 17 1 16
f 1 2 33 16
f 16 33 34 15
f 15 34 35 14
f 14 35 12 13
f 2 3 36 33
f 33 36 37 34
f 34 37 38 35
f 35 38 11 12
f 3 4 39 36
f 36 39 40 37
f 37 40 41 38
f 38 41 10 11
f 4 5 6 39
f 39 6 7 40
f 40 7 8 41
f 41 8 9 10
f 32 42 18 17
f 31 43 42 32
f 30 44 43 31
f 29 28 44 30
f 42 45 19 18
f 43 46 45 42
f 44 47 46 43
f 28 27 47 44
f 45 48 20 19
f 46 49 48 45
f 47 50 49 46
f 27 26 50 47
f 48 22 21 20
f 49 23 22 48
f 50 24 23 49
f 26 25 24 50
