# Editable closed quad source; millimetres
v 34.267231252 22.000000000 399.267231252
v 35.722692710 22.000000000 398.021858960
v 37.178154168 22.000000000 397.108323769
v 38.633615626 22.000000000 396.447632818
v 40.089077084 22.000000000 395.997957350
v 41.544538542 22.000000000 395.736063766
v 43.000000000 22.000000000 395.650000000
v 44.455461458 22.000000000 395.736063766
v 45.910922916 22.000000000 395.997957350
v 47.366384374 22.000000000 396.447632818
v 48.821845832 22.000000000 397.108323769
v 50.277307290 22.000000000 398.021858960
v 51.732768748 22.000000000 399.267231252
v 52.978141040 22.000000000 400.722692710
v 53.891676231 22.000000000 402.178154168
v 54.552367182 22.000000000 403.633615626
v 55.002042650 22.000000000 405.089077084
v 55.263936234 22.000000000 406.544538542
v 55.350000000 22.000000000 408.000000000
v 55.263936234 22.000000000 409.455461458
v 55.002042650 22.000000000 410.910922916
v 54.552367182 22.000000000 412.366384374
v 53.891676231 22.000000000 413.821845832
v 52.978141040 22.000000000 415.277307290
v 51.732768748 22.000000000 416.732768748
v 50.277307290 22.000000000 417.978141040
v 48.821845832 22.000000000 418.891676231
v 47.366384374 22.000000000 419.552367182
v 45.910922916 22.000000000 420.002042650
v 44.455461458 22.000000000 420.263936234
v 43.000000000 22.000000000 420.350000000
v 41.544538542 22.000000000 420.263936234
v 40.089077084 22.000000000 420.002042650
v 38.633615626 22.000000000 419.552367182
v 37.178154168 22.000000000 418.891676231
v 35.722692710 22.000000000 417.978141040
v 34.267231252 22.000000000 416.732768748
v 33.021858960 22.000000000 415.277307290
v 32.108323769 22.000000000 413.821845832
v 31.447632818 22.000000000 412.366384374
v 30.997957350 22.000000000 410.910922916
v 30.736063766 22.000000000 409.455461458
v 30.650000000 22.000000000 408.000000000
v 30.736063766 22.000000000 406.544538542
v 30.997957350 22.000000000 405.089077084
v 31.447632818 22.000000000 403.633615626
v 32.108323769 22.000000000 402.178154168
v 33.021858960 22.000000000 400.722692710
v 33.945497667 22.195000000 398.945497667
v 35.454581389 22.195000000 397.654243238
v 36.963665111 22.195000000 396.707051487
v 38.472748833 22.195000000 396.022019291
v 39.981832556 22.195000000 395.555776831
v 41.490916278 22.195000000 395.284234537
v 43.000000000 22.195000000 395.195000000
v 44.509083722 22.195000000 395.284234537
v 46.018167444 22.195000000 395.555776831
v 47.527251167 22.195000000 396.022019291
v 49.036334889 22.195000000 396.707051487
v 50.545418611 22.195000000 397.654243238
v 52.054502333 22.195000000 398.945497667
v 53.345756762 22.195000000 400.454581389
v 54.292948513 22.195000000 401.963665111
v 54.977980709 22.195000000 403.472748833
v 55.444223169 22.195000000 404.981832556
v 55.715765463 22.195000000 406.490916278
v 55.805000000 22.195000000 408.000000000
v 55.715765463 22.195000000 409.509083722
v 55.444223169 22.195000000 411.018167444
v 54.977980709 22.195000000 412.527251167
v 54.292948513 22.195000000 414.036334889
v 53.345756762 22.195000000 415.545418611
v 52.054502333 22.195000000 417.054502333
v 50.545418611 22.195000000 418.345756762
v 49.036334889 22.195000000 419.292948513
v 47.527251167 22.195000000 419.977980709
v 46.018167444 22.195000000 420.444223169
v 44.509083722 22.195000000 420.715765463
v 43.000000000 22.195000000 420.805000000
v 41.490916278 22.195000000 420.715765463
v 39.981832556 22.195000000 420.444223169
v 38.472748833 22.195000000 419.977980709
v 36.963665111 22.195000000 419.292948513
v 35.454581389 22.195000000 418.345756762
v 33.945497667 22.195000000 417.054502333
v 32.654243238 22.195000000 415.545418611
v 31.707051487 22.195000000 414.036334889
v 31.022019291 22.195000000 412.527251167
v 30.555776831 22.195000000 411.018167444
v 30.284234537 22.195000000 409.509083722
v 30.195000000 22.195000000 408.000000000
v 30.284234537 22.195000000 406.490916278
v 30.555776831 22.195000000 404.981832556
v 31.022019291 22.195000000 403.472748833
v 31.707051487 22.195000000 401.963665111
v 32.654243238 22.195000000 400.454581389
v 33.807611845 22.650000000 398.807611845
v 35.339676537 22.650000000 397.496693642
v 36.871741230 22.650000000 396.535077652
v 38.403805922 22.650000000 395.839613493
v 39.935870615 22.650000000 395.366270895
v 41.467935307 22.650000000 395.090593438
v 43.000000000 22.650000000 395.000000000
v 44.532064693 22.650000000 395.090593438
v 46.064129385 22.650000000 395.366270895
v 47.596194078 22.650000000 395.839613493
v 49.128258770 22.650000000 396.535077652
v 50.660323463 22.650000000 397.496693642
v 52.192388155 22.650000000 398.807611845
v 53.503306358 22.650000000 400.339676537
v 54.464922348 22.650000000 401.871741230
v 55.160386507 22.650000000 403.403805922
v 55.633729105 22.650000000 404.935870615
v 55.909406562 22.650000000 406.467935307
v 56.000000000 22.650000000 408.000000000
v 55.909406562 22.650000000 409.532064693
v 55.633729105 22.650000000 411.064129385
v 55.160386507 22.650000000 412.596194078
v 54.464922348 22.650000000 414.128258770
v 53.503306358 22.650000000 415.660323463
v 52.192388155 22.650000000 417.192388155
v 50.660323463 22.650000000 418.503306358
v 49.128258770 22.650000000 419.464922348
v 47.596194078 22.650000000 420.160386507
v 46.064129385 22.650000000 420.633729105
v 44.532064693 22.650000000 420.909406562
v 43.000000000 22.650000000 421.000000000
v 41.467935307 22.650000000 420.909406562
v 39.935870615 22.650000000 420.633729105
v 38.403805922 22.650000000 420.160386507
v 36.871741230 22.650000000 419.464922348
v 35.339676537 22.650000000 418.503306358
v 33.807611845 22.650000000 417.192388155
v 32.496693642 22.650000000 415.660323463
v 31.535077652 22.650000000 414.128258770
v 30.839613493 22.650000000 412.596194078
v 30.366270895 22.650000000 411.064129385
v 30.090593438 22.650000000 409.532064693
v 30.000000000 22.650000000 408.000000000
v 30.090593438 22.650000000 406.467935307
v 30.366270895 22.650000000 404.935870615
v 30.839613493 22.650000000 403.403805922
v 31.535077652 22.650000000 401.871741230
v 32.496693642 22.650000000 400.339676537
v 33.807611845 24.950000000 398.807611845
v 35.339676537 24.950000000 397.496693642
v 36.871741230 24.950000000 396.535077652
v 38.403805922 24.950000000 395.839613493
v 39.935870615 24.950000000 395.366270895
v 41.467935307 24.950000000 395.090593438
v 43.000000000 24.950000000 395.000000000
v 44.532064693 24.950000000 395.090593438
v 46.064129385 24.950000000 395.366270895
v 47.596194078 24.950000000 395.839613493
v 49.128258770 24.950000000 396.535077652
v 50.660323463 24.950000000 397.496693642
v 52.192388155 24.950000000 398.807611845
v 53.503306358 24.950000000 400.339676537
v 54.464922348 24.950000000 401.871741230
v 55.160386507 24.950000000 403.403805922
v 55.633729105 24.950000000 404.935870615
v 55.909406562 24.950000000 406.467935307
v 56.000000000 24.950000000 408.000000000
v 55.909406562 24.950000000 409.532064693
v 55.633729105 24.950000000 411.064129385
v 55.160386507 24.950000000 412.596194078
v 54.464922348 24.950000000 414.128258770
v 53.503306358 24.950000000 415.660323463
v 52.192388155 24.950000000 417.192388155
v 50.660323463 24.950000000 418.503306358
v 49.128258770 24.950000000 419.464922348
v 47.596194078 24.950000000 420.160386507
v 46.064129385 24.950000000 420.633729105
v 44.532064693 24.950000000 420.909406562
v 43.000000000 24.950000000 421.000000000
v 41.467935307 24.950000000 420.909406562
v 39.935870615 24.950000000 420.633729105
v 38.403805922 24.950000000 420.160386507
v 36.871741230 24.950000000 419.464922348
v 35.339676537 24.950000000 418.503306358
v 33.807611845 24.950000000 417.192388155
v 32.496693642 24.950000000 415.660323463
v 31.535077652 24.950000000 414.128258770
v 30.839613493 24.950000000 412.596194078
v 30.366270895 24.950000000 411.064129385
v 30.090593438 24.950000000 409.532064693
v 30.000000000 24.950000000 408.000000000
v 30.090593438 24.950000000 406.467935307
v 30.366270895 24.950000000 404.935870615
v 30.839613493 24.950000000 403.403805922
v 31.535077652 24.950000000 401.871741230
v 32.496693642 24.950000000 400.339676537
v 33.945497667 25.405000000 398.945497667
v 35.454581389 25.405000000 397.654243238
v 36.963665111 25.405000000 396.707051487
v 38.472748833 25.405000000 396.022019291
v 39.981832556 25.405000000 395.555776831
v 41.490916278 25.405000000 395.284234537
v 43.000000000 25.405000000 395.195000000
v 44.509083722 25.405000000 395.284234537
v 46.018167444 25.405000000 395.555776831
v 47.527251167 25.405000000 396.022019291
v 49.036334889 25.405000000 396.707051487
v 50.545418611 25.405000000 397.654243238
v 52.054502333 25.405000000 398.945497667
v 53.345756762 25.405000000 400.454581389
v 54.292948513 25.405000000 401.963665111
v 54.977980709 25.405000000 403.472748833
v 55.444223169 25.405000000 404.981832556
v 55.715765463 25.405000000 406.490916278
v 55.805000000 25.405000000 408.000000000
v 55.715765463 25.405000000 409.509083722
v 55.444223169 25.405000000 411.018167444
v 54.977980709 25.405000000 412.527251167
v 54.292948513 25.405000000 414.036334889
v 53.345756762 25.405000000 415.545418611
v 52.054502333 25.405000000 417.054502333
v 50.545418611 25.405000000 418.345756762
v 49.036334889 25.405000000 419.292948513
v 47.527251167 25.405000000 419.977980709
v 46.018167444 25.405000000 420.444223169
v 44.509083722 25.405000000 420.715765463
v 43.000000000 25.405000000 420.805000000
v 41.490916278 25.405000000 420.715765463
v 39.981832556 25.405000000 420.444223169
v 38.472748833 25.405000000 419.977980709
v 36.963665111 25.405000000 419.292948513
v 35.454581389 25.405000000 418.345756762
v 33.945497667 25.405000000 417.054502333
v 32.654243238 25.405000000 415.545418611
v 31.707051487 25.405000000 414.036334889
v 31.022019291 25.405000000 412.527251167
v 30.555776831 25.405000000 411.018167444
v 30.284234537 25.405000000 409.509083722
v 30.195000000 25.405000000 408.000000000
v 30.284234537 25.405000000 406.490916278
v 30.555776831 25.405000000 404.981832556
v 31.022019291 25.405000000 403.472748833
v 31.707051487 25.405000000 401.963665111
v 32.654243238 25.405000000 400.454581389
v 34.267231252 25.600000000 399.267231252
v 35.722692710 25.600000000 398.021858960
v 37.178154168 25.600000000 397.108323769
v 38.633615626 25.600000000 396.447632818
v 40.089077084 25.600000000 395.997957350
v 41.544538542 25.600000000 395.736063766
v 43.000000000 25.600000000 395.650000000
v 44.455461458 25.600000000 395.736063766
v 45.910922916 25.600000000 395.997957350
v 47.366384374 25.600000000 396.447632818
v 48.821845832 25.600000000 397.108323769
v 50.277307290 25.600000000 398.021858960
v 51.732768748 25.600000000 399.267231252
v 52.978141040 25.600000000 400.722692710
v 53.891676231 25.600000000 402.178154168
v 54.552367182 25.600000000 403.633615626
v 55.002042650 25.600000000 405.089077084
v 55.263936234 25.600000000 406.544538542
v 55.350000000 25.600000000 408.000000000
v 55.263936234 25.600000000 409.455461458
v 55.002042650 25.600000000 410.910922916
v 54.552367182 25.600000000 412.366384374
v 53.891676231 25.600000000 413.821845832
v 52.978141040 25.600000000 415.277307290
v 51.732768748 25.600000000 416.732768748
v 50.277307290 25.600000000 417.978141040
v 48.821845832 25.600000000 418.891676231
v 47.366384374 25.600000000 419.552367182
v 45.910922916 25.600000000 420.002042650
v 44.455461458 25.600000000 420.263936234
v 43.000000000 25.600000000 420.350000000
v 41.544538542 25.600000000 420.263936234
v 40.089077084 25.600000000 420.002042650
v 38.633615626 25.600000000 419.552367182
v 37.178154168 25.600000000 418.891676231
v 35.722692710 25.600000000 417.978141040
v 34.267231252 25.600000000 416.732768748
v 33.021858960 25.600000000 415.277307290
v 32.108323769 25.600000000 413.821845832
v 31.447632818 25.600000000 412.366384374
v 30.997957350 25.600000000 410.910922916
v 30.736063766 25.600000000 409.455461458
v 30.650000000 25.600000000 408.000000000
v 30.736063766 25.600000000 406.544538542
v 30.997957350 25.600000000 405.089077084
v 31.447632818 25.600000000 403.633615626
v 32.108323769 25.600000000 402.178154168
v 33.021858960 25.600000000 400.722692710
v 34.684882467 22.000000000 399.684882467
v 33.923603141 22.000000000 401.347905973
v 33.373027349 22.000000000 403.010929480
v 32.998297791 22.000000000 404.673952987
v 32.780053139 22.000000000 406.336976493
v 32.708333333 22.000000000 408.000000000
v 32.780053139 22.000000000 409.663023507
v 32.998297791 22.000000000 411.326047013
v 33.373027349 22.000000000 412.989070520
v 33.923603141 22.000000000 414.652094027
v 34.684882467 22.000000000 416.315117533
v 36.347905973 22.000000000 398.923603141
v 35.738882513 22.000000000 400.738882513
v 35.298421879 22.000000000 402.554161885
v 34.998638233 22.000000000 404.369441256
v 34.824042511 22.000000000 406.184720628
v 34.766666667 22.000000000 408.000000000
v 34.824042511 22.000000000 409.815279372
v 34.998638233 22.000000000 411.630558744
v 35.298421879 22.000000000 413.445838115
v 35.738882513 22.000000000 415.261117487
v 36.347905973 22.000000000 417.076396859
v 38.010929480 22.000000000 398.373027349
v 37.554161885 22.000000000 400.298421879
v 37.223816409 22.000000000 402.223816409
v 36.998978675 22.000000000 404.149210939
v 36.868031883 22.000000000 406.074605470
v 36.825000000 22.000000000 408.000000000
v 36.868031883 22.000000000 409.925394530
v 36.998978675 22.000000000 411.850789061
v 37.223816409 22.000000000 413.776183591
v 37.554161885 22.000000000 415.701578121
v 38.010929480 22.000000000 417.626972651
v 39.673952987 22.000000000 397.998297791
v 39.369441256 22.000000000 399.998638233
v 39.149210939 22.000000000 401.998978675
v 38.999319117 22.000000000 403.999319117
v 38.912021255 22.000000000 405.999659558
v 38.883333333 22.000000000 408.000000000
v 38.912021255 22.000000000 410.000340442
v 38.999319117 22.000000000 412.000680883
v 39.149210939 22.000000000 414.001021325
v 39.369441256 22.000000000 416.001361767
v 39.673952987 22.000000000 418.001702209
v 41.336976493 22.000000000 397.780053139
v 41.184720628 22.000000000 399.824042511
v 41.074605470 22.000000000 401.868031883
v 40.999659558 22.000000000 403.912021255
v 40.956010628 22.000000000 405.956010628
v 40.941666667 22.000000000 408.000000000
v 40.956010628 22.000000000 410.043989372
v 40.999659558 22.000000000 412.087978745
v 41.074605470 22.000000000 414.131968117
v 41.184720628 22.000000000 416.175957489
v 41.336976493 22.000000000 418.219946861
v 43.000000000 22.000000000 397.708333333
v 43.000000000 22.000000000 399.766666667
v 43.000000000 22.000000000 401.825000000
v 43.000000000 22.000000000 403.883333333
v 43.000000000 22.000000000 405.941666667
v 43.000000000 22.000000000 408.000000000
v 43.000000000 22.000000000 410.058333333
v 43.000000000 22.000000000 412.116666667
v 43.000000000 22.000000000 414.175000000
v 43.000000000 22.000000000 416.233333333
v 43.000000000 22.000000000 418.291666667
v 44.663023507 22.000000000 397.780053139
v 44.815279372 22.000000000 399.824042511
v 44.925394530 22.000000000 401.868031883
v 45.000340442 22.000000000 403.912021255
v 45.043989372 22.000000000 405.956010628
v 45.058333333 22.000000000 408.000000000
v 45.043989372 22.000000000 410.043989372
v 45.000340442 22.000000000 412.087978745
v 44.925394530 22.000000000 414.131968117
v 44.815279372 22.000000000 416.175957489
v 44.663023507 22.000000000 418.219946861
v 46.326047013 22.000000000 397.998297791
v 46.630558744 22.000000000 399.998638233
v 46.850789061 22.000000000 401.998978675
v 47.000680883 22.000000000 403.999319117
v 47.087978745 22.000000000 405.999659558
v 47.116666667 22.000000000 408.000000000
v 47.087978745 22.000000000 410.000340442
v 47.000680883 22.000000000 412.000680883
v 46.850789061 22.000000000 414.001021325
v 46.630558744 22.000000000 416.001361767
v 46.326047013 22.000000000 418.001702209
v 47.989070520 22.000000000 398.373027349
v 48.445838115 22.000000000 400.298421879
v 48.776183591 22.000000000 402.223816409
v 49.001021325 22.000000000 404.149210939
v 49.131968117 22.000000000 406.074605470
v 49.175000000 22.000000000 408.000000000
v 49.131968117 22.000000000 409.925394530
v 49.001021325 22.000000000 411.850789061
v 48.776183591 22.000000000 413.776183591
v 48.445838115 22.000000000 415.701578121
v 47.989070520 22.000000000 417.626972651
v 49.652094027 22.000000000 398.923603141
v 50.261117487 22.000000000 400.738882513
v 50.701578121 22.000000000 402.554161885
v 51.001361767 22.000000000 404.369441256
v 51.175957489 22.000000000 406.184720628
v 51.233333333 22.000000000 408.000000000
v 51.175957489 22.000000000 409.815279372
v 51.001361767 22.000000000 411.630558744
v 50.701578121 22.000000000 413.445838115
v 50.261117487 22.000000000 415.261117487
v 49.652094027 22.000000000 417.076396859
v 51.315117533 22.000000000 399.684882467
v 52.076396859 22.000000000 401.347905973
v 52.626972651 22.000000000 403.010929480
v 53.001702209 22.000000000 404.673952987
v 53.219946861 22.000000000 406.336976493
v 53.291666667 22.000000000 408.000000000
v 53.219946861 22.000000000 409.663023507
v 53.001702209 22.000000000 411.326047013
v 52.626972651 22.000000000 412.989070520
v 52.076396859 22.000000000 414.652094027
v 51.315117533 22.000000000 416.315117533
v 34.684882467 25.600000000 399.684882467
v 33.923603141 25.600000000 401.347905973
v 33.373027349 25.600000000 403.010929480
v 32.998297791 25.600000000 404.673952987
v 32.780053139 25.600000000 406.336976493
v 32.708333333 25.600000000 408.000000000
v 32.780053139 25.600000000 409.663023507
v 32.998297791 25.600000000 411.326047013
v 33.373027349 25.600000000 412.989070520
v 33.923603141 25.600000000 414.652094027
v 34.684882467 25.600000000 416.315117533
v 36.347905973 25.600000000 398.923603141
v 35.738882513 25.600000000 400.738882513
v 35.298421879 25.600000000 402.554161885
v 34.998638233 25.600000000 404.369441256
v 34.824042511 25.600000000 406.184720628
v 34.766666667 25.600000000 408.000000000
v 34.824042511 25.600000000 409.815279372
v 34.998638233 25.600000000 411.630558744
v 35.298421879 25.600000000 413.445838115
v 35.738882513 25.600000000 415.261117487
v 36.347905973 25.600000000 417.076396859
v 38.010929480 25.600000000 398.373027349
v 37.554161885 25.600000000 400.298421879
v 37.223816409 25.600000000 402.223816409
v 36.998978675 25.600000000 404.149210939
v 36.868031883 25.600000000 406.074605470
v 36.825000000 25.600000000 408.000000000
v 36.868031883 25.600000000 409.925394530
v 36.998978675 25.600000000 411.850789061
v 37.223816409 25.600000000 413.776183591
v 37.554161885 25.600000000 415.701578121
v 38.010929480 25.600000000 417.626972651
v 39.673952987 25.600000000 397.998297791
v 39.369441256 25.600000000 399.998638233
v 39.149210939 25.600000000 401.998978675
v 38.999319117 25.600000000 403.999319117
v 38.912021255 25.600000000 405.999659558
v 38.883333333 25.600000000 408.000000000
v 38.912021255 25.600000000 410.000340442
v 38.999319117 25.600000000 412.000680883
v 39.149210939 25.600000000 414.001021325
v 39.369441256 25.600000000 416.001361767
v 39.673952987 25.600000000 418.001702209
v 41.336976493 25.600000000 397.780053139
v 41.184720628 25.600000000 399.824042511
v 41.074605470 25.600000000 401.868031883
v 40.999659558 25.600000000 403.912021255
v 40.956010628 25.600000000 405.956010628
v 40.941666667 25.600000000 408.000000000
v 40.956010628 25.600000000 410.043989372
v 40.999659558 25.600000000 412.087978745
v 41.074605470 25.600000000 414.131968117
v 41.184720628 25.600000000 416.175957489
v 41.336976493 25.600000000 418.219946861
v 43.000000000 25.600000000 397.708333333
v 43.000000000 25.600000000 399.766666667
v 43.000000000 25.600000000 401.825000000
v 43.000000000 25.600000000 403.883333333
v 43.000000000 25.600000000 405.941666667
v 43.000000000 25.600000000 408.000000000
v 43.000000000 25.600000000 410.058333333
v 43.000000000 25.600000000 412.116666667
v 43.000000000 25.600000000 414.175000000
v 43.000000000 25.600000000 416.233333333
v 43.000000000 25.600000000 418.291666667
v 44.663023507 25.600000000 397.780053139
v 44.815279372 25.600000000 399.824042511
v 44.925394530 25.600000000 401.868031883
v 45.000340442 25.600000000 403.912021255
v 45.043989372 25.600000000 405.956010628
v 45.058333333 25.600000000 408.000000000
v 45.043989372 25.600000000 410.043989372
v 45.000340442 25.600000000 412.087978745
v 44.925394530 25.600000000 414.131968117
v 44.815279372 25.600000000 416.175957489
v 44.663023507 25.600000000 418.219946861
v 46.326047013 25.600000000 397.998297791
v 46.630558744 25.600000000 399.998638233
v 46.850789061 25.600000000 401.998978675
v 47.000680883 25.600000000 403.999319117
v 47.087978745 25.600000000 405.999659558
v 47.116666667 25.600000000 408.000000000
v 47.087978745 25.600000000 410.000340442
v 47.000680883 25.600000000 412.000680883
v 46.850789061 25.600000000 414.001021325
v 46.630558744 25.600000000 416.001361767
v 46.326047013 25.600000000 418.001702209
v 47.989070520 25.600000000 398.373027349
v 48.445838115 25.600000000 400.298421879
v 48.776183591 25.600000000 402.223816409
v 49.001021325 25.600000000 404.149210939
v 49.131968117 25.600000000 406.074605470
v 49.175000000 25.600000000 408.000000000
v 49.131968117 25.600000000 409.925394530
v 49.001021325 25.600000000 411.850789061
v 48.776183591 25.600000000 413.776183591
v 48.445838115 25.600000000 415.701578121
v 47.989070520 25.600000000 417.626972651
v 49.652094027 25.600000000 398.923603141
v 50.261117487 25.600000000 400.738882513
v 50.701578121 25.600000000 402.554161885
v 51.001361767 25.600000000 404.369441256
v 51.175957489 25.600000000 406.184720628
v 51.233333333 25.600000000 408.000000000
v 51.175957489 25.600000000 409.815279372
v 51.001361767 25.600000000 411.630558744
v 50.701578121 25.600000000 413.445838115
v 50.261117487 25.600000000 415.261117487
v 49.652094027 25.600000000 417.076396859
v 51.315117533 25.600000000 399.684882467
v 52.076396859 25.600000000 401.347905973
v 52.626972651 25.600000000 403.010929480
v 53.001702209 25.600000000 404.673952987
v 53.219946861 25.600000000 406.336976493
v 53.291666667 25.600000000 408.000000000
v 53.219946861 25.600000000 409.663023507
v 53.001702209 25.600000000 411.326047013
v 52.626972651 25.600000000 412.989070520
v 52.076396859 25.600000000 414.652094027
v 51.315117533 25.600000000 416.315117533
f 49 50 2 1
f 50 51 3 2
f 51 52 4 3
f 52 53 5 4
f 53 54 6 5
f 54 55 7 6
f 55 56 8 7
f 56 57 9 8
f 57 58 10 9
f 58 59 11 10
f 59 60 12 11
f 60 61 13 12
f 61 62 14 13
f 62 63 15 14
f 63 64 16 15
f 64 65 17 16
f 65 66 18 17
f 66 67 19 18
f 67 68 20 19
f 68 69 21 20
f 69 70 22 21
f 70 71 23 22
f 71 72 24 23
f 72 73 25 24
f 73 74 26 25
f 74 75 27 26
f 75 76 28 27
f 76 77 29 28
f 77 78 30 29
f 78 79 31 30
f 79 80 32 31
f 80 81 33 32
f 81 82 34 33
f 82 83 35 34
f 83 84 36 35
f 84 85 37 36
f 85 86 38 37
f 86 87 39 38
f 87 88 40 39
f 88 89 41 40
f 89 90 42 41
f 90 91 43 42
f 91 92 44 43
f 92 93 45 44
f 93 94 46 45
f 94 95 47 46
f 95 96 48 47
f 96 49 1 48
f 97 98 50 49
f 98 99 51 50
f 99 100 52 51
f 100 101 53 52
f 101 102 54 53
f 102 103 55 54
f 103 104 56 55
f 104 105 57 56
f 105 106 58 57
f 106 107 59 58
f 107 108 60 59
f 108 109 61 60
f 109 110 62 61
f 110 111 63 62
f 111 112 64 63
f 112 113 65 64
f 113 114 66 65
f 114 115 67 66
f 115 116 68 67
f 116 117 69 68
f 117 118 70 69
f 118 119 71 70
f 119 120 72 71
f 120 121 73 72
f 121 122 74 73
f 122 123 75 74
f 123 124 76 75
f 124 125 77 76
f 125 126 78 77
f 126 127 79 78
f 127 128 80 79
f 128 129 81 80
f 129 130 82 81
f 130 131 83 82
f 131 132 84 83
f 132 133 85 84
f 133 134 86 85
f 134 135 87 86
f 135 136 88 87
f 136 137 89 88
f 137 138 90 89
f 138 139 91 90
f 139 140 92 91
f 140 141 93 92
f 141 142 94 93
f 142 143 95 94
f 143 144 96 95
f 144 97 49 96
f 145 146 98 97
f 146 147 99 98
f 147 148 100 99
f 148 149 101 100
f 149 150 102 101
f 150 151 103 102
f 151 152 104 103
f 152 153 105 104
f 153 154 106 105
f 154 155 107 106
f 155 156 108 107
f 156 157 109 108
f 157 158 110 109
f 158 159 111 110
f 159 160 112 111
f 160 161 113 112
f 161 162 114 113
f 162 163 115 114
f 163 164 116 115
f 164 165 117 116
f 165 166 118 117
f 166 167 119 118
f 167 168 120 119
f 168 169 121 120
f 169 170 122 121
f 170 171 123 122
f 171 172 124 123
f 172 173 125 124
f 173 174 126 125
f 174 175 127 126
f 175 176 128 127
f 176 177 129 128
f 177 178 130 129
f 178 179 131 130
f 179 180 132 131
f 180 181 133 132
f 181 182 134 133
f 182 183 135 134
f 183 184 136 135
f 184 185 137 136
f 185 186 138 137
f 186 187 139 138
f 187 188 140 139
f 188 189 141 140
f 189 190 142 141
f 190 191 143 142
f 191 192 144 143
f 192 145 97 144
f 193 194 146 145
f 194 195 147 146
f 195 196 148 147
f 196 197 149 148
f 197 198 150 149
f 198 199 151 150
f 199 200 152 151
f 200 201 153 152
f 201 202 154 153
f 202 203 155 154
f 203 204 156 155
f 204 205 157 156
f 205 206 158 157
f 206 207 159 158
f 207 208 160 159
f 208 209 161 160
f 209 210 162 161
f 210 211 163 162
f 211 212 164 163
f 212 213 165 164
f 213 214 166 165
f 214 215 167 166
f 215 216 168 167
f 216 217 169 168
f 217 218 170 169
f 218 219 171 170
f 219 220 172 171
f 220 221 173 172
f 221 222 174 173
f 222 223 175 174
f 223 224 176 175
f 224 225 177 176
f 225 226 178 177
f 226 227 179 178
f 227 228 180 179
f 228 229 181 180
f 229 230 182 181
f 230 231 183 182
f 231 232 184 183
f 232 233 185 184
f 233 234 186 185
f 234 235 187 186
f 235 236 188 187
f 236 237 189 188
f 237 238 190 189
f 238 239 191 190
f 239 240 192 191
f 240 193 145 192
f 241 242 194 193
f 242 243 195 194
f 243 244 196 195
f 244 245 197 196
f 245 246 198 197
f 246 247 199 198
f 247 248 200 199
f 248 249 201 200
f 249 250 202 201
f 250 251 203 202
f 251 252 204 203
f 252 253 205 204
f 253 254 206 205
f 254 255 207 206
f 255 256 208 207
f 256 257 209 208
f 257 258 210 209
f 258 259 211 210
f 259 260 212 211
f 260 261 213 212
f 261 262 214 213
f 262 263 215 214
f 263 264 216 215
f 264 265 217 216
f 265 266 218 217
f 266 267 219 218
f 267 268 220 219
f 268 269 221 220
f 269 270 222 221
f 270 271 223 222
f 271 272 224 223
f 272 273 225 224
f 273 274 226 225
f 274 275 227 226
f 275 276 228 227
f 276 277 229 228
f 277 278 230 229
f 278 279 231 230
f 279 280 232 231
f 280 281 233 232
f 281 282 234 233
f 282 283 235 234
f 283 284 236 235
f 284 285 237 236
f 285 286 238 237
f 286 287 239 238
f 287 288 240 239
f 288 241 193 240
f 1 2 289 48
f 48 289 290 47
f 47 290 291 46
f 46 291 292 45
f 45 292 293 44
f 44 293 294 43
f 43 294 295 42
f 42 295 296 41
f 41 296 297 40
f 40 297 298 39
f 39 298 299 38
f 38 299 36 37
f 2 3 300 289
f 289 300 301 290
f 290 301 302 291
f 291 302 303 292
f 292 303 304 293
f 293 304 305 294
f 294 305 306 295
f 295 306 307 296
f 296 307 308 297
f 297 308 309 298
f 298 309 310 299
f 299 310 35 36
f 3 4 311 300
f 300 311 312 301
f 301 312 313 302
f 302 313 314 303
f 303 314 315 304
f 304 315 316 305
f 305 316 317 306
f 306 317 318 307
f 307 318 319 308
f 308 319 320 309
f 309 320 321 310
f 310 321 34 35
f 4 5 322 311
f 311 322 323 312
f 312 323 324 313
f 313 324 325 314
f 314 325 326 315
f 315 326 327 316
f 316 327 328 317
f 317 328 329 318
f 318 329 330 319
f 319 330 331 320
f 320 331 332 321
f 321 332 33 34
f 5 6 333 322
f 322 333 334 323
f 323 334 335 324
f 324 335 336 325
f 325 336 337 326
f 326 337 338 327
f 327 338 339 328
f 328 339 340 329
f 329 340 341 330
f 330 341 342 331
f 331 342 343 332
f 332 343 32 33
f 6 7 344 333
f 333 344 345 334
f 334 345 346 335
f 335 346 347 336
f 336 347 348 337
f 337 348 349 338
f 338 349 350 339
f 339 350 351 340
f 340 351 352 341
f 341 352 353 342
f 342 353 354 343
f 343 354 31 32
f 7 8 355 344
f 344 355 356 345
f 345 356 357 346
f 346 357 358 347
f 347 358 359 348
f 348 359 360 349
f 349 360 361 350
f 350 361 362 351
f 351 362 363 352
f 352 363 364 353
f 353 364 365 354
f 354 365 30 31
f 8 9 366 355
f 355 366 367 356
f 356 367 368 357
f 357 368 369 358
f 358 369 370 359
f 359 370 371 360
f 360 371 372 361
f 361 372 373 362
f 362 373 374 363
f 363 374 375 364
f 364 375 376 365
f 365 376 29 30
f 9 10 377 366
f 366 377 378 367
f 367 378 379 368
f 368 379 380 369
f 369 380 381 370
f 370 381 382 371
f 371 382 383 372
f 372 383 384 373
f 373 384 385 374
f 374 385 386 375
f 375 386 387 376
f 376 387 28 29
f 10 11 388 377
f 377 388 389 378
f 378 389 390 379
f 379 390 391 380
f 380 391 392 381
f 381 392 393 382
f 382 393 394 383
f 383 394 395 384
f 384 395 396 385
f 385 396 397 386
f 386 397 398 387
f 387 398 27 28
f 11 12 399 388
f 388 399 400 389
f 389 400 401 390
f 390 401 402 391
f 391 402 403 392
f 392 403 404 393
f 393 404 405 394
f 394 405 406 395
f 395 406 407 396
f 396 407 408 397
f 397 408 409 398
f 398 409 26 27
f 12 13 14 399
f 399 14 15 400
f 400 15 16 401
f 401 16 17 402
f 402 17 18 403
f 403 18 19 404
f 404 19 20 405
f 405 20 21 406
f 406 21 22 407
f 407 22 23 408
f 408 23 24 409
f 409 24 25 26
f 288 410 242 241
f 287 411 410 288
f 286 412 411 287
f 285 413 412 286
f 284 414 413 285
f 283 415 414 284
f 282 416 415 283
f 281 417 416 282
f 280 418 417 281
f 279 419 418 280
f 278 420 419 279
f 277 276 420 278
f 410 421 243 242
f 411 422 421 410
f 412 423 422 411
f 413 424 423 412
f 414 425 424 413
f 415 426 425 414
f 416 427 426 415
f 417 428 427 416
f 418 429 428 417
f 419 430 429 418
f 420 431 430 419
f 276 275 431 420
f 421 432 244 243
f 422 433 432 421
f 423 434 433 422
f 424 435 434 423
f 425 436 435 424
f 426 437 436 425
f 427 438 437 426
f 428 439 438 427
f 429 440 439 428
f 430 441 440 429
f 431 442 441 430
f 275 274 442 431
f 432 443 245 244
f 433 444 443 432
f 434 445 444 433
f 435 446 445 434
f 436 447 446 435
f 437 448 447 436
f 438 449 448 437
f 439 450 449 438
f 440 451 450 439
f 441 452 451 440
f 442 453 452 441
f 274 273 453 442
f 443 454 246 245
f 444 455 454 443
f 445 456 455 444
f 446 457 456 445
f 447 458 457 446
f 448 459 458 447
f 449 460 459 448
f 450 461 460 449
f 451 462 461 450
f 452 463 462 451
f 453 464 463 452
f 273 272 464 453
f 454 465 247 246
f 455 466 465 454
f 456 467 466 455
f 457 468 467 456
f 458 469 468 457
f 459 470 469 458
f 460 471 470 459
f 461 472 471 460
f 462 473 472 461
f 463 474 473 462
f 464 475 474 463
f 272 271 475 464
f 465 476 248 247
f 466 477 476 465
f 467 478 477 466
f 468 479 478 467
f 469 480 479 468
f 470 481 480 469
f 471 482 481 470
f 472 483 482 471
f 473 484 483 472
f 474 485 484 473
f 475 486 485 474
f 271 270 486 475
f 476 487 249 248
f 477 488 487 476
f 478 489 488 477
f 479 490 489 478
f 480 491 490 479
f 481 492 491 480
f 482 493 492 481
f 483 494 493 482
f 484 495 494 483
f 485 496 495 484
f 486 497 496 485
f 270 269 497 486
f 487 498 250 249
f 488 499 498 487
f 489 500 499 488
f 490 501 500 489
f 491 502 501 490
f 492 503 502 491
f 493 504 503 492
f 494 505 504 493
f 495 506 505 494
f 496 507 506 495
f 497 508 507 496
f 269 268 508 497
f 498 509 251 250
f 499 510 509 498
f 500 511 510 499
f 501 512 511 500
f 502 513 512 501
f 503 514 513 502
f 504 515 514 503
f 505 516 515 504
f 506 517 516 505
f 507 518 517 506
f 508 519 518 507
f 268 267 519 508
f 509 520 252 251
f 510 521 520 509
f 511 522 521 510
f 512 523 522 511
f 513 524 523 512
f 514 525 524 513
f 515 526 525 514
f 516 527 526 515
f 517 528 527 516
f 518 529 528 517
f 519 530 529 518
f 267 266 530 519
f 520 254 253 252
f 521 255 254 520
f 522 256 255 521
f 523 257 256 522
f 524 258 257 523
f 525 259 258 524
f 526 260 259 525
f 527 261 260 526
f 528 262 261 527
f 529 263 262 528
f 530 264 263 529
f 266 265 264 530
