# https://github.com/mikedh/trimesh

o beak_native_input_flange_053.obj
v -0.00806909 0.02807819 -0.00822154
v -0.01082890 0.02909009 -0.00809709
v -0.00806909 0.02789582 -0.00822154
v -0.00806909 0.02807819 -0.01608012
v -0.01257251 0.02909009 -0.00808378
v -0.01082890 0.02807831 -0.00809709
v -0.01082890 0.02909009 -0.01436360
v -0.01257328 0.02807831 -0.00808378
v -0.01599917 0.02789582 -0.00822154
v -0.00806909 0.02789582 -0.01608012
v -0.00817389 0.02807819 -0.01602533
v -0.01257251 0.02888259 -0.00808378
v -0.01334339 0.02909009 -0.00808378
v -0.00858767 0.02807819 -0.01580695
v -0.00900144 0.02807819 -0.01558700
v -0.00904259 0.02807819 -0.01556195
v -0.01014108 0.02807819 -0.01487159
v -0.01083976 0.02888259 -0.01435577
v -0.01108819 0.02869952 -0.01417261
v -0.01118833 0.02909009 -0.01409825
v -0.01334339 0.02807831 -0.00808378
v -0.01598830 0.02789582 -0.00824268
v -0.01599917 0.02807819 -0.00822154
v -0.00813740 0.02789582 -0.01604411
v -0.00867461 0.02789582 -0.01576077
v -0.01334339 0.02909009 -0.01207021
v -0.00900144 0.02789582 -0.01558700
v -0.00915748 0.02789582 -0.01548994
v -0.01084753 0.02807819 -0.01435029
v -0.01014108 0.02789582 -0.01487159
v -0.01122404 0.02789582 -0.01407164
v -0.01122404 0.02888259 -0.01407164
v -0.01122327 0.02909009 -0.01407164
v -0.01561024 0.02807819 -0.00895809
v -0.01567390 0.02789582 -0.00883755
v -0.01319434 0.02909009 -0.01224163
v -0.01319434 0.02807819 -0.01224241
v -0.01335969 0.02807819 -0.01205142
v -0.01407235 0.02807819 -0.01122408
v -0.01443567 0.02807819 -0.01073175
v -0.01487118 0.02807819 -0.01014079
v -0.01487739 0.02807819 -0.01013140
v -0.01551164 0.02807819 -0.00912168
v -0.01558695 0.02807819 -0.00900114
v -0.01092671 0.02789582 -0.01429159
v -0.01136378 0.02789582 -0.01395188
v -0.01126519 0.02807831 -0.01403720
v -0.01167120 0.02888259 -0.01368732
v -0.01224257 0.02909009 -0.01319421
v -0.01558695 0.02789582 -0.00900114
v -0.01246770 0.02909009 -0.01296956
v -0.01272622 0.02869952 -0.01271126
v -0.01319434 0.02789582 -0.01224241
v -0.01407235 0.02789582 -0.01122408
v -0.01331467 0.02789582 -0.01210308
v -0.01487118 0.02789582 -0.01014079
v -0.01506759 0.02789582 -0.00982848
v -0.01548913 0.02789582 -0.00915768
v -0.01187382 0.02789582 -0.01351277
v -0.01199881 0.02807819 -0.01340554
v -0.01224257 0.02789582 -0.01319421
v -0.01237299 0.02789582 -0.01306427
v -0.01272622 0.02869941 -0.01271126
v -0.01297309 0.02807819 -0.01246392
f 1 2 6
f 1 6 3
f 1 3 10
f 1 10 4
f 1 4 7
f 1 7 2
f 2 5 12
f 2 12 6
f 2 7 20
f 2 20 33
f 2 33 49
f 2 49 51
f 2 51 36
f 2 36 26
f 2 26 13
f 2 13 5
f 3 6 8
f 3 8 21
f 3 21 9
f 3 9 22
f 3 22 35
f 3 35 50
f 3 50 58
f 3 58 57
f 3 57 56
f 3 56 54
f 3 54 55
f 3 55 53
f 3 53 62
f 3 62 61
f 3 61 59
f 3 59 46
f 3 46 31
f 3 31 45
f 3 45 30
f 3 30 28
f 3 28 27
f 3 27 25
f 3 25 24
f 3 24 10
f 4 10 11
f 4 11 7
f 5 13 21
f 5 21 8
f 5 8 12
f 6 12 8
f 7 11 14
f 7 14 15
f 7 15 16
f 7 16 17
f 7 17 18
f 7 18 19
f 7 19 20
f 9 21 13
f 9 13 23
f 9 23 22
f 10 24 11
f 11 24 25
f 11 25 14
f 13 26 23
f 14 25 15
f 15 27 16
f 15 25 27
f 16 27 28
f 16 28 17
f 17 29 19
f 17 19 18
f 17 28 30
f 17 30 29
f 19 31 20
f 19 29 31
f 20 32 33
f 20 31 32
f 22 23 34
f 22 34 35
f 23 26 34
f 26 36 37
f 26 37 38
f 26 38 39
f 26 39 40
f 26 40 41
f 26 41 42
f 26 42 43
f 26 43 44
f 26 44 34
f 29 30 45
f 29 45 31
f 31 46 47
f 31 47 32
f 32 47 48
f 32 48 33
f 33 48 49
f 34 44 50
f 34 50 35
f 36 51 52
f 36 52 37
f 37 53 38
f 37 52 63
f 37 63 53
f 38 54 39
f 38 53 55
f 38 55 54
f 39 54 40
f 40 54 56
f 40 56 41
f 41 56 42
f 42 57 58
f 42 58 43
f 42 56 57
f 43 58 50
f 43 50 44
f 46 59 47
f 47 59 60
f 47 60 48
f 48 60 49
f 49 60 61
f 49 61 62
f 49 62 51
f 51 62 52
f 52 62 63
f 53 63 64
f 53 64 62
f 59 61 60
f 62 64 63

