# https://github.com/mikedh/trimesh

o beak_native_input_flange_082.obj
v 0.01076670 0.03081556 0.01440906
v 0.01076358 0.03138325 0.01440906
v 0.01015527 0.03138325 0.01485904
v 0.01016528 0.03081556 0.01485266
v 0.01020875 0.03062339 0.01482075
v 0.01076670 0.03062339 0.01440906
v 0.01076670 0.03081556 -0.01440906
v 0.01076358 0.03138325 -0.00544449
v 0.00999107 0.03138325 0.01496436
v 0.01012900 0.03062339 0.01487819
v 0.01014620 0.02999891 0.01486542
v 0.01067444 0.02999891 0.01447608
v 0.01076670 0.03062339 -0.01440906
v 0.01016528 0.03081556 -0.01485266
v 0.01063316 0.03138325 -0.00794652
v 0.01007864 0.03062339 0.01491010
v 0.00916509 0.03138325 0.01548136
v 0.00909847 0.03062339 0.01552604
v 0.00943343 0.03081583 0.01531541
v 0.01010241 0.02999891 0.01489415
v 0.00903092 0.02999877 0.01169958
v 0.00903092 0.02999877 -0.00876352
v 0.01067350 0.02999891 -0.00876032
v 0.01013869 0.03062339 -0.01487181
v 0.01013869 0.03081556 -0.01487181
v 0.00838070 0.03138325 -0.00794652
v 0.00902841 0.03081556 -0.01557072
v 0.00898525 0.03081556 -0.01559625
v 0.00873223 0.03081556 -0.01573029
v 0.00781086 0.03081556 -0.01621538
v 0.00761851 0.03081556 -0.01630154
v 0.00903092 0.02999891 0.01556753
v 0.00900027 0.03138325 0.01558348
v 0.00900027 0.03081556 0.01558668
v 0.00757692 0.02999877 0.01169958
v 0.00757160 0.02999877 -0.00876352
v 0.00761851 0.03062339 -0.01630154
v 0.00770515 0.03062339 -0.01626325
v 0.00781086 0.03062339 -0.01621538
v 0.00785433 0.03062339 -0.01619304
v 0.00794597 0.03062339 -0.01614517
v 0.00897962 0.03062339 -0.01559944
v 0.00900746 0.03062339 -0.01558348
v 0.00905875 0.03062339 -0.01555157
v 0.00989099 0.03062339 -0.01502819
v 0.01003298 0.03062339 -0.01493883
v 0.00838070 0.03138325 0.01591539
v 0.00757160 0.03062339 -0.00876352
v 0.00761851 0.03081556 0.01630154
v 0.00801384 0.03062339 0.01611006
v 0.00783181 0.03062339 0.01620580
v 0.00777708 0.03062339 0.01623133
v 0.00769139 0.03062339 0.01626963
v 0.00761851 0.03062339 0.01630154
v 0.00757692 0.03062339 0.01169958
v 0.00757160 0.02999877 0.00907627
v 0.00782618 0.03081556 0.01620899
v 0.00795316 0.03081556 0.01614197
v 0.00757160 0.03062339 0.00907627
f 1 2 3
f 1 3 4
f 1 4 5
f 1 5 6
f 1 6 13
f 1 13 7
f 1 7 8
f 1 8 2
f 2 8 15
f 2 15 26
f 2 26 47
f 2 47 33
f 2 33 17
f 2 17 9
f 2 9 3
f 3 9 10
f 3 10 4
f 4 10 11
f 4 11 5
f 5 12 6
f 5 11 12
f 6 12 13
f 7 13 14
f 7 14 15
f 7 15 8
f 9 16 10
f 9 17 18
f 9 18 19
f 9 19 16
f 10 20 11
f 10 16 20
f 11 20 21
f 11 21 12
f 12 21 22
f 12 22 23
f 12 23 13
f 13 23 24
f 13 24 14
f 14 24 25
f 14 25 15
f 15 25 27
f 15 27 28
f 15 28 29
f 15 29 30
f 15 30 31
f 15 31 26
f 16 19 18
f 16 18 32
f 16 32 20
f 17 33 34
f 17 34 18
f 18 34 32
f 20 32 21
f 21 32 35
f 21 35 56
f 21 56 36
f 21 36 22
f 22 36 37
f 22 37 23
f 23 37 38
f 23 38 39
f 23 39 40
f 23 40 41
f 23 41 42
f 23 42 43
f 23 43 44
f 23 44 45
f 23 45 46
f 23 46 24
f 24 46 25
f 25 46 27
f 26 31 49
f 26 49 47
f 27 45 44
f 27 44 43
f 27 43 28
f 27 46 45
f 28 43 42
f 28 42 29
f 29 42 41
f 29 41 30
f 30 41 40
f 30 40 39
f 30 39 38
f 30 38 31
f 31 38 37
f 31 37 36
f 31 36 48
f 31 48 59
f 31 59 49
f 32 34 50
f 32 50 51
f 32 51 52
f 32 52 53
f 32 53 54
f 32 54 35
f 33 47 34
f 34 47 50
f 35 55 59
f 35 59 56
f 35 54 49
f 35 49 55
f 36 56 59
f 36 59 48
f 47 49 57
f 47 57 58
f 47 58 50
f 49 54 53
f 49 53 57
f 49 59 55
f 50 58 57
f 50 57 51
f 51 57 52
f 52 57 53

