# https://github.com/mikedh/trimesh

o beak_native_input_flange_054.obj
v 0.01231727 0.02807816 0.00527836
v 0.01009396 0.02807816 0.00683762
v 0.01231727 0.02789582 0.00527836
v 0.01231727 0.02807816 -0.00527813
v 0.00554120 0.02807816 0.00683762
v 0.01009396 0.02789582 0.00683762
v 0.01231727 0.02789582 -0.00527813
v 0.01025248 0.02807816 -0.00605018
v 0.00554120 0.02789582 0.00683762
v 0.00554120 0.02807816 -0.00318146
v 0.01025248 0.02789582 -0.00605018
v 0.00554187 0.02807816 -0.00605018
v 0.00554120 0.02789582 -0.00605018
v 0.00554120 0.02790569 -0.00605018
f 1 2 6
f 1 6 3
f 1 3 7
f 1 7 4
f 1 4 8
f 1 8 12
f 1 12 10
f 1 10 5
f 1 5 2
f 2 5 9
f 2 9 6
f 3 6 9
f 3 9 13
f 3 13 11
f 3 11 7
f 4 7 11
f 4 11 8
f 5 10 14
f 5 14 13
f 5 13 9
f 8 11 13
f 8 13 14
f 8 14 12
f 10 12 14

