# https://github.com/mikedh/trimesh

o beak_retained_d_shaft_009.obj
v -0.00080717 0.02954190 0.00391541
v -0.00089024 0.02954190 0.00389948
v -0.00087457 0.02775650 0.00390254
v -0.00080717 0.02775650 0.00391541
v -0.00080717 0.02954190 0.00143844
v -0.00092501 0.02954190 0.00389029
v -0.00091707 0.02775650 0.00389243
v -0.00089024 0.02775650 0.00389948
v -0.00080717 0.02775650 0.00143844
v -0.00144939 0.02954190 0.00078635
v -0.00109995 0.02954190 0.00384343
v -0.00108299 0.02775650 0.00384802
v -0.00144939 0.02775650 0.00078635
v -0.00300000 0.02954190 0.00078635
v -0.00117916 0.02954190 0.00382199
v -0.00114417 0.02775650 0.00383148
v -0.00300000 0.02775650 0.00078635
v -0.00300000 0.02954190 0.00264553
v -0.00124849 0.02954190 0.00379779
v -0.00124763 0.02775650 0.00379810
v -0.00117916 0.02775650 0.00382199
v -0.00300000 0.02775650 0.00264553
v -0.00296866 0.02775650 0.00268014
v -0.00296222 0.02954190 0.00268718
v -0.00146142 0.02954190 0.00372336
v -0.00142729 0.02775650 0.00373531
v -0.00272053 0.02775650 0.00293191
v -0.00272053 0.02954190 0.00293191
v -0.00149469 0.02954190 0.00370897
v -0.00148696 0.02775650 0.00371234
v -0.00146142 0.02775650 0.00372336
v -0.00269306 0.02775650 0.00295580
v -0.00252134 0.02954190 0.00310374
v -0.00166039 0.02954190 0.00363668
v -0.00170246 0.02775650 0.00361830
v -0.00252713 0.02775650 0.00309853
v -0.00249386 0.02775650 0.00312702
v -0.00249386 0.02954190 0.00312702
v -0.00173573 0.02954190 0.00360360
v -0.00173573 0.02775650 0.00360360
v -0.00246467 0.02775650 0.00314876
v -0.00242775 0.02954190 0.00317602
v -0.00177437 0.02775650 0.00358339
v -0.00199996 0.02954190 0.00346393
v -0.00228845 0.02775650 0.00327894
v -0.00231227 0.02954190 0.00326117
v -0.00181429 0.02775650 0.00356225
v -0.00218370 0.02954190 0.00334846
v -0.00202336 0.02775650 0.00344923
v -0.00199996 0.02775650 0.00346393
v -0.00225325 0.02954190 0.00330466
v -0.00225325 0.02775650 0.00330466
v -0.00206135 0.02775650 0.00342534
f 1 2 3
f 1 3 4
f 1 4 9
f 1 9 5
f 1 5 10
f 1 10 14
f 1 14 18
f 1 18 24
f 1 24 28
f 1 28 33
f 1 33 38
f 1 38 42
f 1 42 46
f 1 46 51
f 1 51 48
f 1 48 44
f 1 44 39
f 1 39 34
f 1 34 29
f 1 29 25
f 1 25 19
f 1 19 15
f 1 15 11
f 1 11 6
f 1 6 2
f 2 6 7
f 2 7 8
f 2 8 3
f 3 8 7
f 3 7 12
f 3 12 16
f 3 16 21
f 3 21 20
f 3 20 26
f 3 26 31
f 3 31 30
f 3 30 35
f 3 35 40
f 3 40 43
f 3 43 47
f 3 47 50
f 3 50 49
f 3 49 53
f 3 53 52
f 3 52 45
f 3 45 41
f 3 41 37
f 3 37 36
f 3 36 32
f 3 32 27
f 3 27 23
f 3 23 22
f 3 22 17
f 3 17 13
f 3 13 9
f 3 9 4
f 5 9 13
f 5 13 10
f 6 11 12
f 6 12 7
f 10 13 17
f 10 17 14
f 11 15 16
f 11 16 12
f 14 17 22
f 14 22 18
f 15 19 20
f 15 20 21
f 15 21 16
f 18 22 23
f 18 23 24
f 19 25 26
f 19 26 20
f 23 27 24
f 24 27 28
f 25 29 30
f 25 30 31
f 25 31 26
f 27 32 28
f 28 32 33
f 29 34 30
f 30 34 35
f 32 36 33
f 33 36 37
f 33 37 38
f 34 39 35
f 35 39 40
f 37 41 38
f 38 41 42
f 39 43 40
f 39 44 43
f 41 45 42
f 42 45 46
f 43 44 47
f 44 48 49
f 44 49 50
f 44 50 47
f 45 51 46
f 45 52 51
f 48 53 49
f 48 51 52
f 48 52 53

