# https://github.com/mikedh/trimesh

o fixed_upper_bill_022.obj
v 0.12124887 -0.02117829 -0.01799388
v 0.13492225 -0.02113000 -0.01799388
v 0.13414837 -0.02117829 -0.01774610
v 0.12124887 -0.02117829 -0.01723737
v 0.12124887 0.01677005 -0.01799388
v 0.13582446 -0.02044651 -0.01799388
v 0.13424861 -0.02016792 -0.01731431
v 0.13268479 -0.02117829 -0.01723737
v 0.12124887 0.01677005 -0.01723737
v 0.13889796 0.01677005 -0.01799388
v 0.13695722 -0.01955501 -0.01799388
v 0.13400000 -0.02015306 -0.01723737
v 0.13608309 -0.01727053 -0.01723737
v 0.13424861 -0.01981131 -0.01723737
v 0.13640989 0.01677005 -0.01723737
v 0.13693517 0.01602713 -0.01723737
v 0.13978813 0.01549595 -0.01799388
v 0.13806994 -0.01800602 -0.01799388
v 0.13693517 -0.01602242 -0.01723737
v 0.13846089 -0.01743397 -0.01799388
v 0.13826642 0.01217138 -0.01723737
v 0.13999865 0.01380209 -0.01788998
v 0.13999664 0.01487932 -0.01799388
v 0.13981219 -0.01542066 -0.01799388
v 0.13754666 -0.01429514 -0.01723737
v 0.13880573 0.00873538 -0.01723737
v 0.13999865 0.01192250 -0.01770848
v 0.14101513 0.01176277 -0.01799388
v 0.14034950 0.01380209 -0.01799388
v 0.13999865 -0.01487833 -0.01799388
v 0.13776720 -0.01364879 -0.01723737
v 0.13893004 0.00671092 -0.01723737
v 0.13999865 0.00860908 -0.01756519
v 0.14150833 0.00843449 -0.01799388
v 0.14073244 -0.01265328 -0.01799388
v 0.13999865 -0.01192151 -0.01770848
v 0.13826642 -0.01217410 -0.01723737
v 0.13899620 0.00562997 -0.01723737
v 0.13999865 0.00556311 -0.01751417
v 0.14168276 0.00544053 -0.01799388
v 0.14082466 -0.01236726 -0.01799388
v 0.14101513 -0.01176178 -0.01799388
v 0.14137801 -0.00935100 -0.01799388
v 0.13999865 -0.00860437 -0.01756519
v 0.13852906 -0.01052853 -0.01723737
v 0.13842681 -0.01117859 -0.01723737
v 0.13902828 0.00372438 -0.01723737
v 0.13904432 0.00275487 -0.01723737
v 0.13999865 0.00272144 -0.01750121
v 0.14172687 0.00266201 -0.01799388
v 0.14150833 -0.00843721 -0.01799388
v 0.13880573 -0.00873067 -0.01723737
v 0.14162462 -0.00646848 -0.01799388
v 0.13999865 -0.00556211 -0.01751417
v 0.13888192 -0.00753085 -0.01723737
v 0.13884784 -0.00807690 -0.01723737
v 0.13904833 -0.00000136 -0.01723737
v 0.13999865 -0.00000136 -0.01750003
v 0.14173088 -0.00000136 -0.01799388
v 0.14168276 -0.00543582 -0.01799388
v 0.13899620 -0.00562898 -0.01723737
v 0.13999865 -0.00272787 -0.01750121
v 0.13904432 -0.00276131 -0.01723737
v 0.14172687 -0.00266473 -0.01799388
f 1 2 3
f 1 3 8
f 1 8 4
f 1 4 9
f 1 9 5
f 1 5 10
f 1 10 17
f 1 17 23
f 1 23 29
f 1 29 28
f 1 28 34
f 1 34 40
f 1 40 50
f 1 50 59
f 1 59 64
f 1 64 60
f 1 60 53
f 1 53 51
f 1 51 43
f 1 43 42
f 1 42 41
f 1 41 35
f 1 35 30
f 1 30 24
f 1 24 20
f 1 20 18
f 1 18 11
f 1 11 6
f 1 6 2
f 2 6 7
f 2 7 3
f 3 7 8
f 4 8 12
f 4 12 14
f 4 14 13
f 4 13 19
f 4 19 25
f 4 25 31
f 4 31 37
f 4 37 46
f 4 46 45
f 4 45 52
f 4 52 56
f 4 56 55
f 4 55 61
f 4 61 63
f 4 63 57
f 4 57 48
f 4 48 47
f 4 47 38
f 4 38 32
f 4 32 26
f 4 26 21
f 4 21 16
f 4 16 15
f 4 15 9
f 5 9 15
f 5 15 10
f 6 11 7
f 7 12 8
f 7 11 13
f 7 13 14
f 7 14 12
f 10 15 16
f 10 16 17
f 11 18 13
f 13 18 20
f 13 20 19
f 16 21 17
f 17 21 22
f 17 22 23
f 19 20 24
f 19 24 25
f 21 26 27
f 21 27 22
f 22 27 28
f 22 28 29
f 22 29 23
f 24 30 25
f 25 30 31
f 26 32 33
f 26 33 27
f 27 33 28
f 28 33 34
f 30 35 36
f 30 36 37
f 30 37 31
f 32 38 33
f 33 38 39
f 33 39 34
f 34 39 40
f 35 41 36
f 36 41 42
f 36 42 43
f 36 43 44
f 36 44 45
f 36 45 46
f 36 46 37
f 38 47 39
f 39 47 48
f 39 48 49
f 39 49 40
f 40 49 50
f 43 51 44
f 44 52 45
f 44 51 53
f 44 53 54
f 44 54 55
f 44 55 56
f 44 56 52
f 48 57 58
f 48 58 49
f 49 58 50
f 50 58 59
f 53 60 54
f 54 61 55
f 54 60 62
f 54 62 63
f 54 63 61
f 57 63 58
f 58 63 62
f 58 62 64
f 58 64 59
f 60 64 62

