# https://github.com/mikedh/trimesh

o goose_head_shell_left_090.obj
v 0.05535890 0.03957934 -0.01189609
v 0.05523294 0.03957934 -0.00986853
v 0.04990634 0.03957934 -0.01141721
v 0.05127481 0.03966084 -0.01189609
v 0.05535890 0.04107678 -0.01189609
v 0.05535890 0.04560072 -0.00148621
v 0.05535783 0.04603353 0.00048349
v 0.05461755 0.03957934 -0.00958784
v 0.05492711 0.04377598 0.00068046
v 0.04990634 0.04001846 -0.01090877
v 0.05213785 0.03997613 -0.01189609
v 0.04993943 0.03957934 -0.00782004
v 0.04990634 0.04349481 0.00068046
v 0.05535890 0.04138449 -0.01138150
v 0.05280608 0.04021117 -0.01189609
v 0.04990634 0.04048855 -0.01033264
v 0.04990634 0.04093462 -0.00975650
v 0.04990634 0.04135416 -0.00918159
v 0.04990634 0.04174842 -0.00860915
v 0.04990634 0.04211994 -0.00803917
v 0.04990634 0.04246935 -0.00747411
v 0.05535890 0.04537579 -0.00226548
v 0.05275964 0.04552174 -0.00114767
v 0.05286799 0.04572140 -0.00040165
v 0.05535730 0.04585535 -0.00045705
v 0.05291709 0.04591853 0.00051673
v 0.05232839 0.04589768 0.00058320
v 0.05149418 0.04586609 0.00068046
v 0.05270147 0.03957934 -0.00881966
v 0.05065302 0.03957934 -0.00806009
v 0.05134260 0.03957934 -0.00830261
v 0.05191422 0.03957934 -0.00851436
v 0.04990634 0.04575931 0.00061029
v 0.05535890 0.04178570 -0.01067980
v 0.04990634 0.04279790 -0.00691274
v 0.05535890 0.04521088 -0.00278376
v 0.05275964 0.04536947 -0.00166595
v 0.04990634 0.04534419 -0.00102333
v 0.04990634 0.04556534 -0.00022561
v 0.05535890 0.04215596 -0.00999779
v 0.04990634 0.04310560 -0.00635507
v 0.05535890 0.04502891 -0.00332912
v 0.05261607 0.04520266 -0.00215345
v 0.04990634 0.04518244 -0.00154161
v 0.05535890 0.04250094 -0.00933178
v 0.04990634 0.04339688 -0.00580355
v 0.05535890 0.04483936 -0.00387448
v 0.05275964 0.04502575 -0.00271482
v 0.04990634 0.04500679 -0.00206235
v 0.04990634 0.04367173 -0.00525696
v 0.05535890 0.04282507 -0.00867563
v 0.05535890 0.04463717 -0.00442969
v 0.05275964 0.04483683 -0.00324664
v 0.04990634 0.04481914 -0.00258555
v 0.04990634 0.04394405 -0.00468821
v 0.05535890 0.04313593 -0.00802070
v 0.05535890 0.04442424 -0.00499228
v 0.04990634 0.04462896 -0.00308660
v 0.04990634 0.04417467 -0.00417732
v 0.05535890 0.04342847 -0.00738055
v 0.05535890 0.04419552 -0.00557581
v 0.04990634 0.04440339 -0.00364304
v 0.05535890 0.04369637 -0.00677117
v 0.05535890 0.04395353 -0.00616549
f 1 2 8
f 1 8 29
f 1 29 32
f 1 32 31
f 1 31 30
f 1 30 12
f 1 12 3
f 1 3 4
f 1 4 11
f 1 11 15
f 1 15 5
f 1 5 14
f 1 14 34
f 1 34 40
f 1 40 45
f 1 45 51
f 1 51 56
f 1 56 60
f 1 60 63
f 1 63 64
f 1 64 61
f 1 61 57
f 1 57 52
f 1 52 47
f 1 47 42
f 1 42 36
f 1 36 22
f 1 22 6
f 1 6 7
f 1 7 2
f 2 7 9
f 2 9 8
f 3 10 11
f 3 11 4
f 3 12 13
f 3 13 33
f 3 33 39
f 3 39 38
f 3 38 44
f 3 44 49
f 3 49 54
f 3 54 58
f 3 58 62
f 3 62 59
f 3 59 55
f 3 55 50
f 3 50 46
f 3 46 41
f 3 41 35
f 3 35 21
f 3 21 20
f 3 20 19
f 3 19 18
f 3 18 17
f 3 17 16
f 3 16 10
f 5 15 16
f 5 16 17
f 5 17 18
f 5 18 19
f 5 19 20
f 5 20 21
f 5 21 14
f 6 22 23
f 6 23 24
f 6 24 25
f 6 25 7
f 7 25 26
f 7 26 27
f 7 27 28
f 7 28 9
f 8 9 29
f 9 28 13
f 9 13 12
f 9 12 30
f 9 30 31
f 9 31 32
f 9 32 29
f 10 15 11
f 10 16 15
f 13 28 33
f 14 21 35
f 14 35 34
f 22 36 37
f 22 37 23
f 23 38 39
f 23 39 24
f 23 37 38
f 24 39 33
f 24 33 27
f 24 27 26
f 24 26 25
f 27 33 28
f 34 35 41
f 34 41 40
f 36 42 43
f 36 43 37
f 37 44 38
f 37 43 44
f 40 41 46
f 40 46 45
f 42 47 48
f 42 48 43
f 43 48 44
f 44 48 49
f 45 46 50
f 45 50 51
f 47 52 53
f 47 53 48
f 48 53 49
f 49 53 54
f 50 55 51
f 51 55 56
f 52 57 54
f 52 54 53
f 54 57 58
f 55 59 60
f 55 60 56
f 57 61 58
f 58 61 62
f 59 62 63
f 59 63 60
f 61 64 62
f 62 64 63

