# https://github.com/mikedh/trimesh

o goose_head_shell_right_127.obj
v 0.00150622 -0.00925406 0.04684860
v 0.00350746 -0.01524517 0.04684860
v -0.00289951 -0.01524517 0.04238562
v -0.00289763 -0.00925406 0.04409435
v -0.00289951 -0.00925406 0.04437091
v -0.00282049 -0.00928045 0.04680272
v -0.00268377 -0.00957602 0.04684860
v -0.00115540 -0.01442591 0.04684860
v -0.00088573 -0.01506631 0.04684380
v -0.00112467 -0.01524517 0.04662534
v -0.00289951 -0.01524517 0.04534652
v -0.00289951 -0.00953966 0.04404717
v -0.00289951 -0.00952793 0.04671928
v -0.00258530 -0.01001350 0.04684816
v -0.00234511 -0.01094888 0.04684860
v -0.00128020 -0.01411627 0.04684860
v -0.00143323 -0.01429103 0.04669787
v -0.00114474 -0.01486105 0.04672976
v -0.00143323 -0.01473848 0.04656767
v -0.00136801 -0.01523051 0.04646019
v -0.00200958 -0.01524517 0.04599707
v -0.00229054 -0.01524341 0.04579478
v -0.00258656 -0.01517362 0.04560211
v -0.00289951 -0.01497247 0.04544351
v -0.00289951 -0.00993316 0.04665942
v -0.00252949 -0.01044395 0.04681539
v -0.00289951 -0.01034074 0.04659476
v -0.00258656 -0.01083980 0.04671185
v -0.00226671 -0.01134884 0.04682719
v -0.00206916 -0.01189658 0.04684860
v -0.00141630 -0.01378844 0.04684511
v -0.00173740 -0.01290350 0.04684860
v -0.00172109 -0.01372804 0.04665461
v -0.00172109 -0.01417022 0.04653359
v -0.00172109 -0.01461357 0.04640427
v -0.00200958 -0.01492966 0.04610193
v -0.00172109 -0.01515193 0.04623519
v -0.00289951 -0.01452326 0.04559425
v -0.00289951 -0.01073366 0.04652747
v -0.00222595 -0.01169894 0.04678569
v -0.00289951 -0.01116293 0.04644839
v -0.00258656 -0.01167431 0.04655325
v -0.00196882 -0.01232585 0.04682501
v -0.00163517 -0.01335623 0.04680797
v -0.00200958 -0.01274164 0.04670486
v -0.00200958 -0.01317502 0.04660044
v -0.00200958 -0.01361075 0.04648859
v -0.00200958 -0.01404765 0.04636844
v -0.00200958 -0.01448807 0.04623956
v -0.00258656 -0.01423297 0.04590882
v -0.00289951 -0.01409281 0.04572969
v -0.00289951 -0.01157755 0.04636626
v -0.00229744 -0.01220446 0.04663321
v -0.00289951 -0.01199510 0.04627756
v -0.00289951 -0.01241265 0.04618232
v -0.00289951 -0.01283430 0.04607965
v -0.00258656 -0.01337090 0.04615479
v -0.00289951 -0.01323953 0.04597392
v -0.00229744 -0.01392509 0.04620242
v -0.00289951 -0.01368347 0.04585071
f 1 2 3
f 1 3 4
f 1 4 5
f 1 5 6
f 1 6 7
f 1 7 15
f 1 15 30
f 1 30 32
f 1 32 16
f 1 16 8
f 1 8 2
f 2 8 9
f 2 9 10
f 2 10 21
f 2 21 11
f 2 11 3
f 3 11 24
f 3 24 38
f 3 38 51
f 3 51 60
f 3 60 58
f 3 58 56
f 3 56 55
f 3 55 54
f 3 54 52
f 3 52 41
f 3 41 39
f 3 39 27
f 3 27 25
f 3 25 13
f 3 13 5
f 3 5 12
f 3 12 4
f 4 12 5
f 5 13 6
f 6 13 7
f 7 13 14
f 7 14 15
f 8 16 17
f 8 17 18
f 8 18 9
f 9 18 10
f 10 18 19
f 10 19 20
f 10 20 21
f 11 21 22
f 11 22 23
f 11 23 24
f 13 25 14
f 14 26 15
f 14 25 27
f 14 27 26
f 15 26 28
f 15 28 29
f 15 29 30
f 16 31 17
f 16 32 31
f 17 19 18
f 17 31 33
f 17 33 34
f 17 34 19
f 19 34 35
f 19 35 20
f 20 35 36
f 20 36 37
f 20 37 21
f 21 37 36
f 21 36 22
f 22 36 38
f 22 38 24
f 22 24 23
f 26 27 28
f 27 39 28
f 28 39 29
f 29 40 30
f 29 39 41
f 29 41 40
f 30 40 42
f 30 42 43
f 30 43 32
f 31 44 33
f 31 32 44
f 32 43 45
f 32 45 46
f 32 46 44
f 33 44 46
f 33 46 47
f 33 47 34
f 34 47 48
f 34 48 35
f 35 48 49
f 35 49 36
f 36 49 50
f 36 50 51
f 36 51 38
f 40 41 42
f 41 52 42
f 42 52 53
f 42 53 43
f 43 53 45
f 45 53 54
f 45 54 55
f 45 55 46
f 46 55 56
f 46 56 47
f 47 56 57
f 47 57 48
f 48 57 58
f 48 58 59
f 48 59 49
f 49 59 60
f 49 60 50
f 50 60 51
f 52 54 53
f 56 58 57
f 58 60 59

