# https://github.com/mikedh/trimesh

o goose_head_shell_right_126.obj
v 0.01254976 -0.01639784 0.04993668
v 0.01132144 -0.01645999 0.05198360
v 0.01226138 -0.01654326 0.05213465
v 0.01249426 -0.01750259 0.05196187
v 0.01251235 -0.01858037 0.05169909
v 0.01254976 -0.02238836 0.04807080
v 0.00377900 -0.01640253 0.04685051
v 0.01010761 -0.01661011 0.05167064
v 0.01142883 -0.01738590 0.05179686
v 0.00712731 -0.01649518 0.05073900
v 0.00913026 -0.01651394 0.05142286
v 0.01247495 -0.01958778 0.05141820
v 0.01142883 -0.01852173 0.05151338
v 0.01231327 -0.02071716 0.05103334
v 0.01168101 -0.02213798 0.05039344
v 0.00707422 -0.02225467 0.04874328
v 0.00527518 -0.02228223 0.04780388
v 0.00884912 -0.02238836 0.04684999
v 0.00253983 -0.02061220 0.04696173
v 0.00022316 -0.01653036 0.04711381
v 0.00210304 -0.01651805 0.04829014
v 0.01031273 -0.01772718 0.05146062
v 0.00937520 -0.01752135 0.05125318
v 0.00706819 -0.01748793 0.05046121
v 0.00825789 -0.01683528 0.05106541
v 0.00295852 -0.01655323 0.04876604
v 0.00510385 -0.01657317 0.04985546
v 0.00616807 -0.01683235 0.05026309
v 0.01142883 -0.01966694 0.05118749
v 0.01031273 -0.01885480 0.05115800
v 0.01076279 -0.02081098 0.05065364
v 0.01009554 -0.02208872 0.04998737
v 0.00895289 -0.02193685 0.04966096
v 0.00790315 -0.02180022 0.04930765
v 0.00642024 -0.02094233 0.04901021
v 0.00620064 -0.02208872 0.04839515
v 0.00566612 -0.02127482 0.04849136
v 0.00462121 -0.02146129 0.04783492
v 0.00403360 -0.02222359 0.04709519
v 0.00328792 -0.02107075 0.04721675
v 0.00346770 -0.01994899 0.04784371
v 0.00202220 -0.01930631 0.04721831
v 0.00074441 -0.01755302 0.04708950
v 0.00169642 -0.01718008 0.04782975
v 0.00281976 -0.01778523 0.04829582
v 0.00822170 -0.01834405 0.05065468
v 0.00937520 -0.01863549 0.05095212
v 0.00534154 -0.01750845 0.04970545
v 0.00595450 -0.01856336 0.04966148
v 0.00692460 -0.01893396 0.04996823
v 0.00361249 -0.01782921 0.04872570
v 0.00424837 -0.01689275 0.04935007
v 0.00998815 -0.01976780 0.05078969
v 0.00937520 -0.02088604 0.05021912
v 0.00822170 -0.02055942 0.04992840
v 0.00706819 -0.02020466 0.04959009
v 0.00591830 -0.01982351 0.04920833
v 0.00462121 -0.02041107 0.04830721
v 0.00361249 -0.01898204 0.04831755
v 0.00245898 -0.01852056 0.04781371
v 0.00159506 -0.01815817 0.04741384
v 0.00840268 -0.01956608 0.05033861
v 0.00462121 -0.01831649 0.04909866
v 0.00476479 -0.01941597 0.04878311
f 1 2 3
f 1 3 4
f 1 4 5
f 1 5 6
f 1 6 7
f 1 7 2
f 2 8 9
f 2 9 3
f 2 7 10
f 2 10 11
f 2 11 8
f 3 9 4
f 4 9 5
f 5 12 6
f 5 9 13
f 5 13 12
f 6 12 14
f 6 14 15
f 6 15 16
f 6 16 17
f 6 17 18
f 6 18 7
f 7 19 20
f 7 20 21
f 7 21 10
f 7 18 19
f 8 22 9
f 8 11 23
f 8 23 22
f 9 22 13
f 10 24 25
f 10 25 11
f 10 21 26
f 10 26 27
f 10 27 28
f 10 28 24
f 11 25 23
f 12 13 29
f 12 29 14
f 13 22 30
f 13 30 29
f 14 29 31
f 14 31 15
f 15 31 32
f 15 32 16
f 16 32 33
f 16 33 34
f 16 34 35
f 16 35 36
f 16 36 17
f 17 36 37
f 17 37 38
f 17 38 39
f 17 39 18
f 18 39 19
f 19 39 40
f 19 40 41
f 19 41 42
f 19 42 43
f 19 43 20
f 20 43 44
f 20 44 21
f 21 44 45
f 21 45 26
f 22 23 30
f 23 25 46
f 23 46 47
f 23 47 30
f 24 46 25
f 24 28 48
f 24 48 49
f 24 49 50
f 24 50 46
f 26 45 51
f 26 51 52
f 26 52 27
f 27 52 48
f 27 48 28
f 29 30 53
f 29 53 31
f 30 47 53
f 31 53 54
f 31 54 32
f 32 54 33
f 33 54 55
f 33 55 34
f 34 55 56
f 34 56 35
f 35 56 57
f 35 57 37
f 35 37 36
f 37 57 58
f 37 58 38
f 38 58 41
f 38 41 40
f 38 40 39
f 41 59 60
f 41 60 42
f 41 58 59
f 42 60 61
f 42 61 43
f 43 61 44
f 44 61 60
f 44 60 45
f 45 59 51
f 45 60 59
f 46 62 47
f 46 50 62
f 47 62 53
f 48 52 63
f 48 63 49
f 49 63 57
f 49 57 50
f 50 57 56
f 50 56 55
f 50 55 62
f 51 59 63
f 51 63 52
f 53 62 54
f 54 62 55
f 57 63 64
f 57 64 58
f 58 64 59
f 59 64 63

