# https://github.com/mikedh/trimesh

o goose_head_shell_right_158.obj
v 0.08940376 -0.03493644 0.03220705
v 0.08980243 -0.03460387 0.03272074
v 0.08932774 -0.03474748 0.03286449
v 0.08931357 -0.03253728 0.03200200
v 0.09014088 -0.03464229 0.03207810
v 0.09037866 -0.03439413 0.03252414
v 0.09037866 -0.03405337 0.03358640
v 0.08980243 -0.03442625 0.03325028
v 0.08980243 -0.03423666 0.03378088
v 0.08932774 -0.03455726 0.03339403
v 0.09082147 -0.03160886 0.03200200
v 0.08932774 -0.03391102 0.03498688
v 0.08931357 -0.02850172 0.03943249
v 0.09081881 -0.03428138 0.03209819
v 0.09059933 -0.03412391 0.03302409
v 0.09081881 -0.03376111 0.03379779
v 0.09081881 -0.03357467 0.03433156
v 0.09037866 -0.03386567 0.03412017
v 0.09037866 -0.03366600 0.03465394
v 0.08980243 -0.03382032 0.03484736
v 0.08956863 -0.03413399 0.03426708
v 0.09082147 -0.03337878 0.03485899
v 0.09082147 -0.02850172 0.03913654
v 0.08980243 -0.03359231 0.03538113
v 0.08941394 -0.03347515 0.03587579
v 0.08934176 -0.03281127 0.03717903
v 0.08932774 -0.03186332 0.03871269
v 0.08932774 -0.03149422 0.03924435
v 0.08932774 -0.03110307 0.03977495
v 0.08932774 -0.03069051 0.04030131
v 0.08932774 -0.03025968 0.04082134
v 0.08939165 -0.02869698 0.04248712
v 0.09066811 -0.02853763 0.04279893
v 0.09081881 -0.03316652 0.03540438
v 0.09037866 -0.03345374 0.03518982
v 0.09081881 -0.02936905 0.04183392
v 0.09081881 -0.02979106 0.04131072
v 0.09081881 -0.03019355 0.04077906
v 0.09081881 -0.03057651 0.04024424
v 0.09081881 -0.03093931 0.03970518
v 0.09023461 -0.03319990 0.03591278
v 0.09009054 -0.03291646 0.03663469
v 0.08957571 -0.03310416 0.03654274
v 0.08994649 -0.03258956 0.03734392
v 0.09023461 -0.03211653 0.03805526
v 0.08965837 -0.03198426 0.03848544
v 0.08941040 -0.03231872 0.03798867
v 0.08980243 -0.03118244 0.03965445
v 0.08980243 -0.03079255 0.04018716
v 0.08980243 -0.03038251 0.04071459
v 0.08964774 -0.02982444 0.04136251
v 0.08949306 -0.02922859 0.04198823
v 0.09009542 -0.02869194 0.04263721
v 0.09023461 -0.02948684 0.04177473
v 0.09066944 -0.02902199 0.04226939
v 0.09074413 -0.03287363 0.03617280
v 0.09074413 -0.03180034 0.03832161
v 0.09037866 -0.03005372 0.04108136
v 0.09037866 -0.03045935 0.04055182
v 0.09037866 -0.03084546 0.04001699
v 0.09052405 -0.03129392 0.03928451
v 0.09066944 -0.03255303 0.03694121
v 0.09066944 -0.03228533 0.03747710
v 0.08994649 -0.03163972 0.03894734
f 1 2 3
f 1 3 4
f 1 4 5
f 1 5 2
f 2 5 6
f 2 6 7
f 2 7 8
f 2 8 3
f 3 8 9
f 3 9 10
f 3 10 4
f 4 11 5
f 4 10 12
f 4 12 13
f 4 13 11
f 5 14 6
f 5 11 14
f 6 14 15
f 6 15 7
f 7 15 16
f 7 16 17
f 7 17 18
f 7 18 8
f 8 18 9
f 9 18 19
f 9 19 20
f 9 20 21
f 9 21 10
f 10 21 12
f 11 22 14
f 11 13 23
f 11 23 22
f 12 20 24
f 12 24 25
f 12 25 26
f 12 26 27
f 12 27 13
f 12 21 20
f 13 27 28
f 13 28 29
f 13 29 30
f 13 30 31
f 13 31 32
f 13 32 33
f 13 33 23
f 14 22 16
f 14 16 15
f 16 22 17
f 17 22 18
f 18 22 19
f 19 22 34
f 19 34 35
f 19 35 20
f 20 35 24
f 22 23 36
f 22 36 37
f 22 37 38
f 22 38 39
f 22 39 40
f 22 40 34
f 23 33 36
f 24 35 41
f 24 41 42
f 24 42 25
f 25 42 43
f 25 43 26
f 26 43 44
f 26 44 45
f 26 45 46
f 26 46 47
f 26 47 27
f 27 47 46
f 27 46 48
f 27 48 28
f 28 48 49
f 28 49 29
f 29 49 50
f 29 50 30
f 30 50 31
f 31 50 51
f 31 51 52
f 31 52 32
f 32 52 53
f 32 53 33
f 33 53 54
f 33 54 55
f 33 55 36
f 34 56 35
f 34 40 57
f 34 57 56
f 35 56 41
f 36 55 58
f 36 58 37
f 37 58 59
f 37 59 38
f 38 59 60
f 38 60 39
f 39 60 40
f 40 60 61
f 40 61 57
f 41 56 62
f 41 62 42
f 42 62 63
f 42 63 44
f 42 44 43
f 44 63 45
f 45 63 57
f 45 57 61
f 45 61 64
f 45 64 46
f 46 64 48
f 48 60 59
f 48 59 49
f 48 64 60
f 49 59 58
f 49 58 50
f 50 58 54
f 50 54 51
f 51 54 53
f 51 53 52
f 54 58 55
f 56 57 62
f 57 63 62
f 60 64 61

