# https://github.com/mikedh/trimesh

o goose_head_shell_left_058.obj
v 0.04990634 0.03776761 -0.01326895
v 0.04990634 0.03402493 -0.01326895
v 0.04990634 0.03731799 -0.01367563
v 0.03604364 0.03329175 -0.01326895
v 0.04829513 0.03292829 -0.01326895
v 0.04591499 0.02963680 -0.01408024
v 0.04616668 0.02981226 -0.01408024
v 0.04647584 0.03004569 -0.01408024
v 0.04679689 0.03028852 -0.01408024
v 0.04752619 0.03086817 -0.01408024
v 0.04990634 0.03278886 -0.01408024
v 0.04990634 0.03684330 -0.01408024
v 0.03575628 0.03319305 -0.01326895
v 0.04798993 0.03272149 -0.01326895
v 0.04549485 0.02935167 -0.01408024
v 0.03558188 0.03152929 -0.01408024
v 0.03560963 0.03194445 -0.01388798
v 0.03560963 0.03260243 -0.01355515
v 0.03534010 0.03301915 -0.01326895
v 0.04737161 0.03230947 -0.01326895
v 0.04509254 0.02909005 -0.01408024
v 0.04706443 0.03210581 -0.01326895
v 0.03517958 0.03134443 -0.01408024
v 0.03517958 0.03178935 -0.01386900
v 0.03517958 0.03244733 -0.01353610
v 0.03488825 0.03279356 -0.01326895
v 0.04457926 0.02877985 -0.01408024
v 0.04644215 0.03171102 -0.01326895
v 0.04613101 0.03152146 -0.01326895
v 0.03488825 0.03119246 -0.01408024
v 0.03488825 0.03166089 -0.01385724
v 0.03488825 0.03231887 -0.01352426
v 0.03460089 0.03217631 -0.01351306
v 0.03460089 0.03262906 -0.01326895
v 0.04581788 0.03133973 -0.01326895
v 0.04408777 0.02849629 -0.01408024
v 0.03460089 0.03102640 -0.01408024
v 0.02968008 0.02819550 -0.01407651
v 0.03460089 0.03151832 -0.01384621
v 0.02966026 0.02890362 -0.01372891
v 0.02966026 0.02966970 -0.01332811
v 0.02973161 0.02436823 -0.01326895
v 0.04546908 0.03114703 -0.01326895
v 0.04371717 0.02829263 -0.01408024
v 0.02966026 0.02757982 -0.01408024
v 0.02969792 0.02176292 -0.01408024
v 0.03003284 0.02186319 -0.01408024
v 0.03005860 0.02447162 -0.01326895
v 0.04519361 0.03099820 -0.01326895
v 0.04335450 0.02809837 -0.01408024
v 0.03032218 0.02196972 -0.01408024
v 0.03034795 0.02458129 -0.01326895
v 0.04488049 0.03083997 -0.01326895
v 0.04293436 0.02787748 -0.01408024
v 0.03061747 0.02209348 -0.01408024
v 0.04334261 0.03013186 -0.01326895
v 0.04459709 0.03070368 -0.01326895
v 0.04184437 0.02733699 -0.01408024
v 0.04214561 0.02748425 -0.01408024
v 0.04249242 0.02765501 -0.01408024
v 0.04154116 0.02719443 -0.01408024
v 0.04419281 0.03051098 -0.01326895
v 0.04383608 0.03034805 -0.01326895
f 1 2 11
f 1 11 12
f 1 12 3
f 1 3 4
f 1 4 13
f 1 13 19
f 1 19 26
f 1 26 34
f 1 34 42
f 1 42 48
f 1 48 52
f 1 52 56
f 1 56 63
f 1 63 62
f 1 62 57
f 1 57 53
f 1 53 49
f 1 49 43
f 1 43 35
f 1 35 29
f 1 29 28
f 1 28 22
f 1 22 20
f 1 20 14
f 1 14 5
f 1 5 2
f 2 5 6
f 2 6 7
f 2 7 8
f 2 8 9
f 2 9 10
f 2 10 11
f 3 12 4
f 4 12 13
f 5 14 15
f 5 15 6
f 6 15 21
f 6 21 27
f 6 27 36
f 6 36 44
f 6 44 50
f 6 50 54
f 6 54 60
f 6 60 59
f 6 59 58
f 6 58 61
f 6 61 55
f 6 55 51
f 6 51 47
f 6 47 46
f 6 46 45
f 6 45 37
f 6 37 30
f 6 30 23
f 6 23 16
f 6 16 12
f 6 12 11
f 6 11 10
f 6 10 9
f 6 9 8
f 6 8 7
f 12 16 17
f 12 17 18
f 12 18 13
f 13 18 19
f 14 20 15
f 15 20 22
f 15 22 21
f 16 23 24
f 16 24 17
f 17 24 18
f 18 24 25
f 18 25 19
f 19 25 26
f 21 22 28
f 21 28 29
f 21 29 27
f 23 30 24
f 24 30 31
f 24 31 25
f 25 31 32
f 25 32 26
f 26 32 33
f 26 33 34
f 27 29 35
f 27 35 36
f 30 37 38
f 30 38 39
f 30 39 31
f 31 39 32
f 32 39 33
f 33 39 40
f 33 40 41
f 33 41 34
f 34 41 42
f 35 43 36
f 36 43 44
f 37 45 38
f 38 45 40
f 38 40 39
f 40 45 41
f 41 45 46
f 41 46 42
f 42 46 47
f 42 47 48
f 43 49 44
f 44 49 50
f 47 51 48
f 48 51 52
f 49 53 54
f 49 54 50
f 51 55 52
f 52 55 56
f 53 57 58
f 53 58 59
f 53 59 60
f 53 60 54
f 55 61 62
f 55 62 63
f 55 63 56
f 57 62 58
f 58 62 61

