# https://github.com/mikedh/trimesh

o goose_head_shell_right_169.obj
v 0.02358543 -0.03979809 0.02398003
v 0.01814619 -0.03880211 0.02393988
v 0.02054203 -0.04135345 0.02377691
v 0.02295492 -0.04192756 0.02371786
v 0.02319775 -0.04206399 0.02164415
v 0.02347094 -0.04216524 0.01844501
v 0.02358543 -0.03985841 0.01191565
v 0.01814513 -0.03849765 0.01191565
v 0.01825962 -0.04084864 0.02163824
v 0.01837731 -0.04080699 0.02368716
v 0.01953076 -0.04112941 0.02312149
v 0.02069114 -0.04143926 0.02267156
v 0.02167366 -0.04164104 0.02349703
v 0.02305344 -0.04199901 0.02263259
v 0.02234784 -0.04186796 0.02168548
v 0.02319775 -0.04208374 0.02073483
v 0.02333408 -0.04212790 0.01963775
v 0.02263594 -0.04197280 0.01893982
v 0.02263594 -0.04197531 0.01803641
v 0.02341396 -0.04215375 0.01755931
v 0.02319829 -0.04204640 0.01245533
v 0.02011069 -0.04128488 0.01192864
v 0.01833684 -0.04081920 0.01230181
v 0.01950201 -0.04116783 0.02178114
v 0.01837784 -0.04084757 0.02273178
v 0.01837678 -0.04088814 0.01370239
v 0.01837784 -0.04090645 0.01496599
v 0.01837837 -0.04091435 0.01638429
v 0.01836133 -0.04091040 0.01826551
v 0.01834110 -0.04089963 0.01962830
v 0.01837305 -0.04089604 0.02075491
v 0.02065493 -0.04146691 0.02140206
v 0.02155490 -0.04166618 0.02217675
v 0.02155490 -0.04169023 0.02125680
v 0.02234784 -0.04188771 0.02076908
v 0.02193353 -0.04180010 0.01992944
v 0.02155490 -0.04171716 0.01897761
v 0.02187921 -0.04179651 0.01665236
v 0.02321160 -0.04210672 0.01630753
v 0.02319775 -0.04209918 0.01529665
v 0.02319775 -0.04207441 0.01347684
v 0.02234784 -0.04185108 0.01248249
v 0.01933639 -0.04109997 0.01229945
v 0.02104155 -0.04153477 0.01244943
v 0.02069114 -0.04147876 0.01355360
v 0.01936675 -0.04115993 0.02029316
v 0.01950201 -0.04117860 0.01357721
v 0.01950201 -0.04119368 0.01449480
v 0.01950201 -0.04120266 0.01540766
v 0.01961011 -0.04123497 0.01665354
v 0.01950201 -0.04120768 0.01779077
v 0.01937580 -0.04117358 0.01881228
v 0.02069114 -0.04149420 0.02036992
v 0.02056493 -0.04147481 0.01878157
v 0.02123059 -0.04164033 0.01808364
v 0.02061872 -0.04148881 0.01629099
v 0.02058304 -0.04147625 0.01538404
v 0.02149207 -0.04169454 0.01484908
v 0.02234784 -0.04190350 0.01533562
v 0.02277280 -0.04199255 0.01441095
v 0.02195164 -0.04178466 0.01352407
v 0.02069114 -0.04149420 0.01447000
v 0.02015063 -0.04136674 0.01958815
v 0.02058304 -0.04148127 0.01719795
f 1 2 3
f 1 3 4
f 1 4 5
f 1 5 6
f 1 6 7
f 1 7 8
f 1 8 2
f 2 9 10
f 2 10 3
f 2 8 9
f 3 10 11
f 3 11 12
f 3 12 13
f 3 13 4
f 4 13 14
f 4 14 5
f 5 14 15
f 5 15 16
f 5 16 17
f 5 17 6
f 6 17 18
f 6 18 19
f 6 19 20
f 6 20 21
f 6 21 7
f 7 21 22
f 7 22 8
f 8 22 23
f 8 23 9
f 9 24 25
f 9 25 10
f 9 23 26
f 9 26 27
f 9 27 28
f 9 28 29
f 9 29 30
f 9 30 31
f 9 31 24
f 10 25 11
f 11 25 24
f 11 24 12
f 12 24 32
f 12 32 33
f 12 33 13
f 13 33 14
f 14 33 15
f 15 33 34
f 15 34 35
f 15 35 16
f 16 35 17
f 17 35 36
f 17 36 18
f 18 37 19
f 18 36 37
f 19 38 39
f 19 39 20
f 19 37 38
f 20 39 40
f 20 40 41
f 20 41 21
f 21 42 22
f 21 41 42
f 22 43 23
f 22 42 44
f 22 44 45
f 22 45 43
f 23 43 26
f 24 31 46
f 24 46 32
f 26 43 47
f 26 47 48
f 26 48 27
f 27 48 49
f 27 49 28
f 28 49 50
f 28 50 51
f 28 51 29
f 29 52 30
f 29 51 52
f 30 52 46
f 30 46 31
f 32 46 53
f 32 53 34
f 32 34 33
f 34 53 36
f 34 36 35
f 36 53 37
f 37 53 54
f 37 54 55
f 37 55 38
f 38 55 56
f 38 56 57
f 38 57 58
f 38 58 59
f 38 59 39
f 39 59 40
f 40 59 60
f 40 60 41
f 41 60 61
f 41 61 42
f 42 61 44
f 43 45 47
f 44 61 45
f 45 61 62
f 45 62 47
f 46 52 63
f 46 63 53
f 47 62 48
f 48 62 57
f 48 57 49
f 49 57 50
f 50 64 51
f 50 57 56
f 50 56 64
f 51 64 54
f 51 54 52
f 52 54 63
f 53 63 54
f 54 64 55
f 55 64 56
f 57 62 58
f 58 62 61
f 58 61 60
f 58 60 59

