# https://github.com/mikedh/trimesh

o goose_head_shell_right_150.obj
v 0.05783725 -0.01826263 -0.02124738
v 0.05755953 -0.01826263 -0.02102606
v 0.05758268 -0.01892743 -0.02107552
v 0.06018573 -0.01829417 -0.02312061
v 0.05735829 -0.01826263 -0.02312061
v 0.05727478 -0.01826263 -0.02080535
v 0.05730195 -0.01890953 -0.02085234
v 0.05786240 -0.01894533 -0.02130302
v 0.05733213 -0.01960672 -0.02096733
v 0.06009517 -0.01907062 -0.02312061
v 0.05552599 -0.02320942 -0.02312061
v 0.04990734 -0.01826263 -0.02017290
v 0.05702121 -0.01889078 -0.02063534
v 0.05684211 -0.01826263 -0.02048202
v 0.05691254 -0.01957007 -0.02063658
v 0.05405693 -0.02696980 -0.01940012
v 0.05435879 -0.02696980 -0.01963505
v 0.05990600 -0.01982065 -0.02312061
v 0.05465965 -0.02696980 -0.01988543
v 0.05496050 -0.02696980 -0.02015250
v 0.05535997 -0.02371314 -0.02312061
v 0.05510741 -0.02503848 -0.02312061
v 0.05507320 -0.02565384 -0.02312061
v 0.05509031 -0.02633228 -0.02312061
v 0.04990734 -0.02247900 -0.02000166
v 0.04990734 -0.02696639 -0.01937168
v 0.04993451 -0.01826263 -0.01789288
v 0.05519797 -0.02440777 -0.02312061
v 0.05659961 -0.01886266 -0.02032437
v 0.05649195 -0.01953427 -0.02032066
v 0.05627863 -0.01826263 -0.02009068
v 0.05375406 -0.02696980 -0.01917694
v 0.05692361 -0.02696980 -0.02235277
v 0.05723352 -0.02696980 -0.02275524
v 0.05750822 -0.02696980 -0.02312061
v 0.05525935 -0.02696980 -0.02044122
v 0.05556020 -0.02696980 -0.02074909
v 0.05586106 -0.02696980 -0.02107614
v 0.05627562 -0.02696980 -0.02155403
v 0.05661672 -0.02696980 -0.02196638
v 0.04990734 -0.02308669 -0.01997013
v 0.05515269 -0.02696554 -0.02312061
v 0.04997778 -0.02696980 -0.01680542
v 0.04990734 -0.02633910 -0.01952129
v 0.05343812 -0.01826263 -0.01880848
v 0.05603513 -0.01882430 -0.01994478
v 0.05301350 -0.02696980 -0.01867061
v 0.05344918 -0.02696980 -0.01896365
v 0.05570711 -0.01826263 -0.01973953
v 0.04990734 -0.02373189 -0.01992314
v 0.04990734 -0.02568452 -0.01965607
v 0.04990734 -0.02503166 -0.01976673
v 0.04990734 -0.02438049 -0.01985575
v 0.05034102 -0.02696980 -0.01700634
v 0.05546964 -0.01878595 -0.01961032
v 0.05513458 -0.01826263 -0.01943598
v 0.05456104 -0.01826263 -0.01917941
v 0.05398549 -0.01826263 -0.01897045
v 0.05065193 -0.02696980 -0.01718439
v 0.05098801 -0.02696980 -0.01738284
v 0.05132710 -0.02696980 -0.01758871
v 0.05164003 -0.02696980 -0.01778284
v 0.05208779 -0.02696980 -0.01806722
v 0.05257278 -0.02696980 -0.01838066
f 1 2 3
f 1 3 4
f 1 4 5
f 1 5 12
f 1 12 27
f 1 27 45
f 1 45 58
f 1 58 57
f 1 57 56
f 1 56 49
f 1 49 31
f 1 31 14
f 1 14 6
f 1 6 2
f 2 6 7
f 2 7 3
f 3 8 4
f 3 7 9
f 3 9 8
f 4 8 10
f 4 10 18
f 4 18 35
f 4 35 42
f 4 42 24
f 4 24 23
f 4 23 22
f 4 22 28
f 4 28 21
f 4 21 11
f 4 11 5
f 5 11 12
f 6 13 7
f 6 14 13
f 7 13 15
f 7 15 9
f 8 9 10
f 9 15 16
f 9 16 17
f 9 17 10
f 10 17 19
f 10 19 20
f 10 20 18
f 11 21 12
f 12 22 23
f 12 23 24
f 12 24 25
f 12 25 41
f 12 41 50
f 12 50 53
f 12 53 52
f 12 52 51
f 12 51 44
f 12 44 26
f 12 26 27
f 12 21 28
f 12 28 22
f 13 14 29
f 13 29 30
f 13 30 16
f 13 16 15
f 14 31 29
f 16 32 48
f 16 48 47
f 16 47 64
f 16 64 63
f 16 63 62
f 16 62 61
f 16 61 60
f 16 60 59
f 16 59 54
f 16 54 43
f 16 43 35
f 16 35 34
f 16 34 33
f 16 33 40
f 16 40 39
f 16 39 38
f 16 38 37
f 16 37 36
f 16 36 20
f 16 20 19
f 16 19 17
f 16 30 32
f 18 33 34
f 18 34 35
f 18 20 36
f 18 36 37
f 18 37 38
f 18 38 39
f 18 39 40
f 18 40 33
f 24 41 25
f 24 42 41
f 26 43 27
f 26 44 42
f 26 42 35
f 26 35 43
f 27 43 45
f 29 31 46
f 29 46 47
f 29 47 48
f 29 48 32
f 29 32 30
f 31 49 46
f 41 42 50
f 42 44 51
f 42 51 52
f 42 52 53
f 42 53 50
f 43 54 55
f 43 55 56
f 43 56 57
f 43 57 58
f 43 58 45
f 46 49 55
f 46 55 59
f 46 59 60
f 46 60 61
f 46 61 62
f 46 62 63
f 46 63 64
f 46 64 47
f 49 56 55
f 54 59 55

