# https://github.com/mikedh/trimesh

o goose_head_shell_left_167.obj
v 0.06240410 0.01826263 -0.02448913
v 0.06240410 0.01836917 -0.02449046
v 0.06240410 0.01826263 -0.02668212
v 0.06405265 0.01826263 -0.02493652
v 0.06405265 0.01836320 -0.02493918
v 0.06240410 0.01915926 -0.02458833
v 0.06243670 0.01826263 -0.02669610
v 0.06240410 0.02586095 -0.03021925
v 0.06256129 0.02591806 -0.03032577
v 0.06284952 0.02601692 -0.03050153
v 0.06405265 0.01826263 -0.02713283
v 0.06405265 0.01917630 -0.02505169
v 0.06240410 0.01998685 -0.02478939
v 0.06256129 0.01826263 -0.02674936
v 0.06240410 0.02689054 -0.03065066
v 0.06256129 0.02695787 -0.03076250
v 0.06259034 0.02696980 -0.03078181
v 0.06284952 0.02696980 -0.03090431
v 0.06288132 0.02696980 -0.03091762
v 0.06313776 0.02696980 -0.03102414
v 0.06313776 0.02611238 -0.03065931
v 0.06405265 0.02637575 -0.03103280
v 0.06400246 0.01826263 -0.02712750
v 0.06405265 0.02003884 -0.02527738
v 0.06240410 0.02085365 -0.02510562
v 0.06284952 0.01826263 -0.02685588
v 0.06240410 0.02696384 -0.03067662
v 0.06256129 0.02696980 -0.03076716
v 0.06342599 0.02696980 -0.03112600
v 0.06342599 0.02620188 -0.03079846
v 0.06400246 0.02636296 -0.03101882
v 0.06405265 0.02696980 -0.03128978
v 0.06371422 0.01826263 -0.02708290
v 0.06405265 0.02095337 -0.02562956
v 0.06240410 0.02175027 -0.02551639
v 0.06313776 0.01826263 -0.02694709
v 0.06240410 0.02696980 -0.03067862
v 0.06371422 0.02696980 -0.03121189
v 0.06371422 0.02628540 -0.03091762
v 0.06400246 0.02696980 -0.03128046
v 0.06342599 0.01826263 -0.02702298
v 0.06405265 0.02696980 -0.02885380
v 0.06405265 0.02191392 -0.02608627
v 0.06240410 0.02266906 -0.02599440
v 0.06240410 0.02696980 -0.02827726
v 0.06405265 0.02290771 -0.02661754
f 1 2 6
f 1 6 13
f 1 13 25
f 1 25 35
f 1 35 44
f 1 44 45
f 1 45 37
f 1 37 27
f 1 27 15
f 1 15 8
f 1 8 3
f 1 3 7
f 1 7 14
f 1 14 26
f 1 26 36
f 1 36 41
f 1 41 33
f 1 33 23
f 1 23 11
f 1 11 4
f 1 4 2
f 2 5 6
f 2 4 5
f 3 8 9
f 3 9 10
f 3 10 7
f 4 11 22
f 4 22 32
f 4 32 42
f 4 42 46
f 4 46 43
f 4 43 34
f 4 34 24
f 4 24 12
f 4 12 5
f 5 12 6
f 6 12 13
f 7 10 14
f 8 15 16
f 8 16 9
f 9 16 17
f 9 17 18
f 9 18 10
f 10 18 19
f 10 19 20
f 10 20 21
f 10 21 14
f 11 23 22
f 12 24 13
f 13 24 25
f 14 21 26
f 15 27 28
f 15 28 16
f 16 28 17
f 17 28 37
f 17 37 45
f 17 45 42
f 17 42 32
f 17 32 40
f 17 40 38
f 17 38 29
f 17 29 20
f 17 20 19
f 17 19 18
f 20 29 21
f 21 29 30
f 21 30 26
f 22 31 32
f 22 23 33
f 22 33 31
f 24 34 25
f 25 34 35
f 26 30 36
f 27 37 28
f 29 38 30
f 30 38 39
f 30 39 36
f 31 39 40
f 31 40 32
f 31 33 41
f 31 41 39
f 34 43 35
f 35 43 44
f 36 39 41
f 38 40 39
f 42 45 46
f 43 46 45
f 43 45 44

