# https://github.com/mikedh/trimesh

o goose_head_shell_left_201.obj
v 0.06289699 0.04408631 -0.02233085
v 0.06293400 0.04398413 -0.02257747
v 0.06289167 0.04356986 -0.02320253
v 0.06256115 0.04331441 -0.02296438
v 0.06256115 0.04368425 -0.02233085
v 0.06293400 0.04061553 -0.02233085
v 0.06293400 0.04343658 -0.02348592
v 0.06289167 0.04300565 -0.02407307
v 0.06256115 0.04275020 -0.02383550
v 0.06227304 0.04332107 -0.02233085
v 0.06227304 0.04308339 -0.02273755
v 0.06212271 0.03929275 -0.02233085
v 0.06292328 0.04049114 -0.02233311
v 0.06293400 0.03462469 -0.02810961
v 0.06293400 0.04286571 -0.02434006
v 0.06289167 0.04241923 -0.02488536
v 0.06227304 0.04251919 -0.02360810
v 0.06256115 0.04216378 -0.02464778
v 0.06212271 0.04296011 -0.02261085
v 0.06214772 0.04315559 -0.02233085
v 0.06212271 0.04269022 -0.02302774
v 0.06212271 0.03273992 -0.02810961
v 0.06293400 0.03938493 -0.02810961
v 0.06293400 0.04227262 -0.02513425
v 0.06284934 0.04178060 -0.02560771
v 0.06227304 0.04193276 -0.02441982
v 0.06212271 0.04239590 -0.02348083
v 0.06256115 0.04155736 -0.02539671
v 0.06212271 0.03833870 -0.02780642
v 0.06213390 0.03800328 -0.02810452
v 0.06225239 0.03822097 -0.02810961
v 0.06293400 0.03993804 -0.02761749
v 0.06282750 0.03921945 -0.02810961
v 0.06284934 0.03987362 -0.02755923
v 0.06293400 0.04184391 -0.02566427
v 0.06284934 0.04115642 -0.02630346
v 0.06212271 0.04180948 -0.02429198
v 0.06227304 0.04132524 -0.02516932
v 0.06212271 0.04120307 -0.02504091
v 0.06256115 0.04093318 -0.02609134
v 0.06212271 0.03864746 -0.02754509
v 0.06227304 0.03877074 -0.02767801
v 0.06243107 0.03854195 -0.02810961
v 0.06284934 0.04052001 -0.02695114
v 0.06293400 0.04058332 -0.02700884
v 0.06263342 0.03889514 -0.02810961
v 0.06256115 0.03900065 -0.02791616
v 0.06256115 0.03965149 -0.02734258
v 0.06256115 0.04029566 -0.02673676
v 0.06293400 0.04121972 -0.02636003
v 0.06227304 0.04070216 -0.02586055
v 0.06212271 0.04090430 -0.02537126
v 0.06212271 0.03898510 -0.02724868
v 0.06227304 0.03942047 -0.02710783
v 0.06256115 0.03877296 -0.02810961
v 0.06227304 0.04006465 -0.02650427
v 0.06212271 0.04057888 -0.02573102
v 0.06212271 0.03929608 -0.02697547
v 0.06212271 0.03963372 -0.02666266
v 0.06212271 0.03994248 -0.02637361
f 1 2 3
f 1 3 4
f 1 4 5
f 1 5 10
f 1 10 20
f 1 20 12
f 1 12 6
f 1 6 2
f 2 7 3
f 2 6 14
f 2 14 23
f 2 23 32
f 2 32 45
f 2 45 50
f 2 50 35
f 2 35 24
f 2 24 15
f 2 15 7
f 3 7 8
f 3 8 9
f 3 9 4
f 4 10 5
f 4 9 11
f 4 11 10
f 6 12 13
f 6 13 14
f 7 15 8
f 8 15 16
f 8 16 18
f 8 18 9
f 9 17 11
f 9 18 17
f 10 11 19
f 10 19 20
f 11 17 21
f 11 21 19
f 12 22 13
f 12 20 19
f 12 19 21
f 12 21 27
f 12 27 37
f 12 37 39
f 12 39 52
f 12 52 57
f 12 57 60
f 12 60 59
f 12 59 58
f 12 58 53
f 12 53 41
f 12 41 29
f 12 29 22
f 13 22 14
f 14 22 31
f 14 31 43
f 14 43 55
f 14 55 46
f 14 46 33
f 14 33 23
f 15 24 16
f 16 24 25
f 16 25 18
f 17 18 26
f 17 26 27
f 17 27 21
f 18 25 28
f 18 28 26
f 22 29 30
f 22 30 31
f 23 33 34
f 23 34 32
f 24 35 25
f 25 35 50
f 25 50 36
f 25 36 28
f 26 37 27
f 26 28 38
f 26 38 39
f 26 39 37
f 28 36 40
f 28 40 38
f 29 41 42
f 29 42 31
f 29 31 30
f 31 42 43
f 32 34 44
f 32 44 45
f 33 46 47
f 33 47 48
f 33 48 34
f 34 48 49
f 34 49 44
f 36 50 45
f 36 45 44
f 36 44 40
f 38 40 51
f 38 51 39
f 39 51 52
f 40 44 49
f 40 49 51
f 41 53 54
f 41 54 42
f 42 47 55
f 42 55 43
f 42 54 47
f 46 55 47
f 47 54 48
f 48 54 56
f 48 56 49
f 49 56 51
f 51 56 57
f 51 57 52
f 53 58 54
f 54 59 60
f 54 60 56
f 54 58 59
f 56 60 57

