# https://github.com/mikedh/trimesh

o goose_head_shell_left_039.obj
v 0.09136422 0.03234466 0.02520166
v 0.09434417 0.02910083 0.02520166
v 0.09432148 0.02836751 0.02956391
v 0.09136558 0.03190998 0.02956349
v 0.09136422 0.03514718 0.02520166
v 0.09600000 0.02983547 0.02953232
v 0.09294109 0.03389358 0.02521148
v 0.09413498 0.03268710 0.02524266
v 0.09600000 0.03053361 0.02541687
v 0.09354552 0.03271430 0.02953488
v 0.09210886 0.03401569 0.02943710
v 0.09146768 0.03449616 0.02936621
v 0.09137057 0.03467467 0.02874663
v 0.09137057 0.03475896 0.02823850
v 0.09137057 0.03497331 0.02673332
v 0.09137647 0.03503105 0.02621793
v 0.09137647 0.03508546 0.02572474
v 0.09182072 0.03475497 0.02578580
v 0.09182072 0.03480873 0.02524863
v 0.09239701 0.03435679 0.02524863
v 0.09600000 0.02994961 0.02900796
v 0.09412590 0.03210244 0.02939610
v 0.09355278 0.03329498 0.02536307
v 0.09239701 0.03430370 0.02578537
v 0.09297376 0.03381660 0.02569528
v 0.09355006 0.03323194 0.02601254
v 0.09412590 0.03261476 0.02600955
v 0.09600000 0.03041216 0.02634475
v 0.09412590 0.03252650 0.02674143
v 0.09355006 0.03280788 0.02899942
v 0.09298465 0.03328901 0.02937817
v 0.09254131 0.03367193 0.02942258
v 0.09239701 0.03390154 0.02878506
v 0.09182072 0.03434817 0.02878933
v 0.09137647 0.03483195 0.02773506
v 0.09137647 0.03490363 0.02723419
v 0.09182072 0.03443046 0.02828120
v 0.09182072 0.03457778 0.02727476
v 0.09182072 0.03464216 0.02677559
v 0.09182072 0.03470122 0.02627942
v 0.09239701 0.03425061 0.02627814
v 0.09600000 0.03004849 0.02851776
v 0.09600000 0.03014074 0.02802970
v 0.09412590 0.03222587 0.02872528
v 0.09297376 0.03376417 0.02618633
v 0.09355006 0.03317553 0.02650316
v 0.09600000 0.03026550 0.02730379
v 0.09412590 0.03246013 0.02723334
v 0.09412590 0.03238846 0.02772738
v 0.09355006 0.03311315 0.02699678
v 0.09355006 0.03289349 0.02849427
v 0.09297376 0.03342041 0.02868386
v 0.09239701 0.03398383 0.02827736
v 0.09182072 0.03450744 0.02777648
v 0.09239701 0.03405882 0.02777307
v 0.09239701 0.03412850 0.02727220
v 0.09239701 0.03419221 0.02677388
v 0.09297376 0.03370643 0.02667994
v 0.09412590 0.03231015 0.02822484
v 0.09297376 0.03364405 0.02717697
v 0.09355006 0.03304612 0.02749295
v 0.09355006 0.03297246 0.02799212
v 0.09297376 0.03350137 0.02817872
v 0.09297376 0.03357570 0.02767571
f 1 2 3
f 1 3 4
f 1 4 5
f 1 5 2
f 2 6 3
f 2 5 7
f 2 7 8
f 2 8 9
f 2 9 6
f 3 6 10
f 3 10 4
f 4 10 11
f 4 11 12
f 4 12 13
f 4 13 5
f 5 13 14
f 5 14 15
f 5 15 16
f 5 16 17
f 5 17 18
f 5 18 19
f 5 19 20
f 5 20 7
f 6 9 28
f 6 28 47
f 6 47 43
f 6 43 42
f 6 42 21
f 6 21 22
f 6 22 10
f 7 23 8
f 7 20 24
f 7 24 25
f 7 25 23
f 8 23 26
f 8 26 27
f 8 27 9
f 9 27 29
f 9 29 28
f 10 30 31
f 10 31 32
f 10 32 11
f 10 22 30
f 11 32 33
f 11 33 34
f 11 34 12
f 12 34 13
f 13 34 14
f 14 35 36
f 14 36 15
f 14 34 37
f 14 37 35
f 15 36 38
f 15 38 39
f 15 39 16
f 16 39 40
f 16 40 17
f 17 40 18
f 18 40 41
f 18 41 24
f 18 24 19
f 19 24 20
f 21 42 22
f 22 42 43
f 22 43 44
f 22 44 30
f 23 25 26
f 24 41 45
f 24 45 25
f 25 45 26
f 26 46 27
f 26 45 46
f 27 46 29
f 28 29 48
f 28 48 49
f 28 49 47
f 29 46 50
f 29 50 48
f 30 51 52
f 30 52 31
f 30 44 51
f 31 52 32
f 32 52 33
f 33 52 53
f 33 53 34
f 34 53 37
f 35 37 54
f 35 54 36
f 36 54 38
f 37 53 54
f 38 54 55
f 38 55 56
f 38 56 39
f 39 56 57
f 39 57 40
f 40 57 41
f 41 57 58
f 41 58 45
f 43 47 44
f 44 47 59
f 44 59 51
f 45 58 46
f 46 58 60
f 46 60 50
f 47 49 59
f 48 50 61
f 48 61 49
f 49 61 62
f 49 62 51
f 49 51 59
f 50 60 61
f 51 62 63
f 51 63 52
f 52 63 53
f 53 55 54
f 53 63 55
f 55 63 64
f 55 64 56
f 56 64 60
f 56 60 57
f 57 60 58
f 60 64 61
f 61 64 62
f 62 64 63

