# https://github.com/mikedh/trimesh

o goose_head_shell_right_115.obj
v 0.02967881 -0.02816528 -0.01408894
v 0.02967881 -0.02748319 -0.01408860
v 0.02967881 -0.02756306 -0.01436426
v 0.03478823 -0.03107413 -0.01410910
v 0.03603964 -0.03168433 -0.01408860
v 0.02971849 -0.02173737 -0.01408860
v 0.02967881 -0.02549124 -0.01519789
v 0.02967881 -0.02691452 -0.01464352
v 0.03488692 -0.03034572 -0.01446576
v 0.03533051 -0.03129617 -0.01413862
v 0.03575172 -0.03145590 -0.01414830
v 0.03603964 -0.03140479 -0.01422187
v 0.03650765 -0.03181851 -0.01408860
v 0.03004915 -0.02183960 -0.01408860
v 0.03017836 -0.01629186 -0.01523934
v 0.02975715 -0.01616567 -0.01523934
v 0.03489913 -0.02840648 -0.01523934
v 0.03488692 -0.02902947 -0.01500356
v 0.02967881 -0.02624042 -0.01491513
v 0.03488692 -0.02968759 -0.01474277
v 0.03517485 -0.03047191 -0.01447736
v 0.03546277 -0.03058373 -0.01448964
v 0.03575172 -0.03067318 -0.01450260
v 0.03647204 -0.03148146 -0.01424406
v 0.03603964 -0.03074506 -0.01451634
v 0.03647204 -0.03082334 -0.01453853
v 0.03702042 -0.03193672 -0.01408860
v 0.03704891 -0.03154696 -0.01427695
v 0.03033911 -0.02194503 -0.01408860
v 0.03064026 -0.01646917 -0.01523934
v 0.03517485 -0.02855664 -0.01523934
v 0.03517485 -0.02915726 -0.01501505
v 0.03517485 -0.02981378 -0.01475426
v 0.03546277 -0.02992560 -0.01476654
v 0.03575172 -0.03001506 -0.01477949
v 0.03603964 -0.03008694 -0.01479313
v 0.03632757 -0.03014445 -0.01480766
v 0.03676098 -0.03020195 -0.01483131
v 0.03704891 -0.03088723 -0.01457131
v 0.04007163 -0.03222904 -0.01422885
v 0.03748131 -0.03202458 -0.01408860
v 0.04007163 -0.03091119 -0.01483638
v 0.04007163 -0.03156133 -0.01454597
v 0.03062805 -0.02206643 -0.01408860
v 0.03105028 -0.01666245 -0.01523934
v 0.03546277 -0.02869881 -0.01523934
v 0.03546277 -0.02926748 -0.01502722
v 0.03575172 -0.02935693 -0.01504017
v 0.03603964 -0.02942881 -0.01505380
v 0.03647204 -0.02950549 -0.01507600
v 0.04007163 -0.03025147 -0.01511340
v 0.03704891 -0.02956938 -0.01510855
v 0.03998006 -0.03248462 -0.01408927
v 0.04007163 -0.03198304 -0.01408860
v 0.04007163 -0.02652955 -0.01408860
v 0.03146436 -0.01688449 -0.01523934
v 0.03575172 -0.02882340 -0.01523934
v 0.03607729 -0.02894321 -0.01523934
v 0.03649544 -0.02907419 -0.01523934
v 0.03690444 -0.02918441 -0.01523934
v 0.04007163 -0.02993359 -0.01523934
v 0.04005535 -0.02188912 -0.01523934
v 0.03979286 -0.02172938 -0.01523934
f 1 2 7
f 1 7 19
f 1 19 8
f 1 8 3
f 1 3 4
f 1 4 5
f 1 5 2
f 2 6 7
f 2 5 13
f 2 13 27
f 2 27 41
f 2 41 54
f 2 54 55
f 2 55 44
f 2 44 29
f 2 29 14
f 2 14 6
f 3 8 9
f 3 9 4
f 4 9 10
f 4 10 5
f 5 10 11
f 5 11 12
f 5 12 13
f 6 14 15
f 6 15 16
f 6 16 7
f 7 16 17
f 7 17 18
f 7 18 19
f 8 19 20
f 8 20 9
f 9 20 21
f 9 21 10
f 10 21 22
f 10 22 11
f 11 22 23
f 11 23 12
f 12 24 13
f 12 23 25
f 12 25 26
f 12 26 24
f 13 24 28
f 13 28 27
f 14 29 15
f 15 29 30
f 15 30 45
f 15 45 56
f 15 56 63
f 15 63 62
f 15 62 61
f 15 61 60
f 15 60 59
f 15 59 58
f 15 58 57
f 15 57 46
f 15 46 31
f 15 31 17
f 15 17 16
f 17 31 32
f 17 32 18
f 18 32 20
f 18 20 19
f 20 33 21
f 20 32 33
f 21 33 34
f 21 34 22
f 22 34 35
f 22 35 23
f 23 35 25
f 24 26 28
f 25 35 36
f 25 36 37
f 25 37 26
f 26 37 38
f 26 38 39
f 26 39 28
f 27 40 41
f 27 28 40
f 28 39 42
f 28 42 43
f 28 43 40
f 29 44 30
f 30 44 45
f 31 46 47
f 31 47 32
f 32 47 34
f 32 34 33
f 34 47 48
f 34 48 35
f 35 48 49
f 35 49 36
f 36 49 37
f 37 49 50
f 37 50 38
f 38 51 39
f 38 50 52
f 38 52 51
f 39 51 42
f 40 53 41
f 40 43 42
f 40 42 51
f 40 51 61
f 40 61 55
f 40 55 54
f 40 54 53
f 41 53 54
f 44 55 45
f 45 55 56
f 46 57 47
f 47 57 48
f 48 57 49
f 49 57 58
f 49 58 50
f 50 58 59
f 50 59 60
f 50 60 52
f 51 52 61
f 52 60 61
f 55 61 62
f 55 62 63
f 55 63 56

