# https://github.com/mikedh/trimesh

o goose_head_shell_right_066.obj
v 0.00245189 -0.02416187 0.04123139
v 0.00241574 -0.02238895 0.04272725
v 0.00584996 -0.02238895 0.04526738
v 0.00918909 -0.02533881 0.04526738
v 0.00438118 -0.02533881 0.04193941
v 0.00119451 -0.02533881 0.04250797
v 0.00172811 -0.02238895 0.04393311
v 0.00210532 -0.02238895 0.04326855
v 0.00116229 -0.02238895 0.04494261
v 0.00152457 -0.02240830 0.04522037
v 0.00173832 -0.02259223 0.04526738
v 0.00342400 -0.02446881 0.04526738
v 0.00405741 -0.02511589 0.04526462
v 0.00425701 -0.02531109 0.04526225
v 0.00404405 -0.02533881 0.04508208
v 0.00144991 -0.02533881 0.04285606
v 0.00116229 -0.02496748 0.04292480
v 0.00133675 -0.02238895 0.04463008
v 0.00116229 -0.02260176 0.04480155
v 0.00144991 -0.02275884 0.04492917
v 0.00173832 -0.02291447 0.04505482
v 0.00202674 -0.02300023 0.04522274
v 0.00226485 -0.02321044 0.04526738
v 0.00313559 -0.02416909 0.04526738
v 0.00317960 -0.02467209 0.04493154
v 0.00346801 -0.02482108 0.04504217
v 0.00375563 -0.02488836 0.04520891
v 0.00375563 -0.02533881 0.04486279
v 0.00144991 -0.02514130 0.04304373
v 0.00174618 -0.02533881 0.04314409
v 0.00116229 -0.02451039 0.04333216
v 0.00116229 -0.02308714 0.04446018
v 0.00144991 -0.02324827 0.04458582
v 0.00173832 -0.02340650 0.04471028
v 0.00202674 -0.02356300 0.04483237
v 0.00231515 -0.02371748 0.04495288
v 0.00260277 -0.02386936 0.04507141
v 0.00260277 -0.02358812 0.04526738
v 0.00289119 -0.02396234 0.04522748
v 0.00289119 -0.02452078 0.04481854
v 0.00317960 -0.02516960 0.04454355
v 0.00347665 -0.02533881 0.04464588
v 0.00144991 -0.02468133 0.04345266
v 0.00202674 -0.02533881 0.04340249
v 0.00173832 -0.02484967 0.04357159
v 0.00116229 -0.02404377 0.04372450
v 0.00116229 -0.02356878 0.04410103
v 0.00144991 -0.02373307 0.04422509
v 0.00173832 -0.02389391 0.04434758
v 0.00202674 -0.02405387 0.04446808
v 0.00231515 -0.02421153 0.04458701
v 0.00260277 -0.02436717 0.04470396
v 0.00289119 -0.02501512 0.04443252
v 0.00317960 -0.02533881 0.04440368
v 0.00144991 -0.02421095 0.04384698
v 0.00202674 -0.02501570 0.04368894
v 0.00231515 -0.02533881 0.04366365
v 0.00173832 -0.02437612 0.04396788
v 0.00202674 -0.02453926 0.04408681
v 0.00231515 -0.02470009 0.04420376
v 0.00260277 -0.02485862 0.04431913
v 0.00289119 -0.02533881 0.04416425
v 0.00231515 -0.02517971 0.04380431
v 0.00260199 -0.02533881 0.04391928
f 1 2 3
f 1 3 4
f 1 4 5
f 1 5 6
f 1 6 7
f 1 7 8
f 1 8 2
f 2 8 7
f 2 7 18
f 2 18 9
f 2 9 3
f 3 9 10
f 3 10 11
f 3 11 23
f 3 23 38
f 3 38 24
f 3 24 12
f 3 12 4
f 4 12 13
f 4 13 14
f 4 14 15
f 4 15 28
f 4 28 42
f 4 42 54
f 4 54 62
f 4 62 64
f 4 64 57
f 4 57 44
f 4 44 30
f 4 30 16
f 4 16 6
f 4 6 5
f 6 16 17
f 6 17 9
f 6 9 18
f 6 18 7
f 9 17 31
f 9 31 46
f 9 46 47
f 9 47 32
f 9 32 19
f 9 19 20
f 9 20 10
f 10 20 21
f 10 21 11
f 11 21 22
f 11 22 23
f 12 24 25
f 12 25 26
f 12 26 27
f 12 27 13
f 13 27 26
f 13 26 28
f 13 28 15
f 13 15 14
f 16 29 17
f 16 30 29
f 17 29 31
f 19 32 33
f 19 33 20
f 20 33 34
f 20 34 21
f 21 34 35
f 21 35 23
f 21 23 22
f 23 35 36
f 23 36 37
f 23 37 38
f 24 38 39
f 24 39 37
f 24 37 40
f 24 40 25
f 25 41 42
f 25 42 26
f 25 40 41
f 26 42 28
f 29 30 43
f 29 43 31
f 30 44 45
f 30 45 43
f 31 43 46
f 32 47 48
f 32 48 33
f 33 48 34
f 34 49 50
f 34 50 35
f 34 48 49
f 35 50 51
f 35 51 36
f 36 51 52
f 36 52 37
f 37 52 40
f 37 39 38
f 40 52 53
f 40 53 41
f 41 54 42
f 41 53 54
f 43 45 55
f 43 55 46
f 44 56 45
f 44 57 56
f 45 56 58
f 45 58 55
f 46 55 47
f 47 55 48
f 48 55 58
f 48 58 49
f 49 58 59
f 49 59 50
f 50 59 60
f 50 60 51
f 51 60 61
f 51 61 52
f 52 61 53
f 53 62 54
f 53 61 62
f 56 59 58
f 56 57 63
f 56 63 59
f 57 64 63
f 59 63 60
f 60 63 64
f 60 64 61
f 61 64 62

