# https://github.com/mikedh/trimesh

o head_retention_access_shell_right_005.obj
v 0.09218087 -0.01869731 0.04910373
v 0.09343407 -0.01869731 0.04839947
v 0.09156122 -0.01869731 0.04678520
v 0.09159511 -0.01897556 0.04905934
v 0.09196490 -0.02012486 0.04856422
v 0.09219434 -0.01945068 0.04879642
v 0.09246940 -0.01989390 0.04851556
v 0.09284570 -0.01872370 0.04881947
v 0.09589788 -0.01869731 0.04541252
v 0.09297389 -0.01964534 0.04835678
v 0.09347274 -0.02114548 0.04720520
v 0.09156122 -0.01946608 0.04886471
v 0.09431922 -0.01869731 0.04366594
v 0.09429184 -0.02291838 0.04038364
v 0.09156122 -0.02699647 0.04038364
v 0.09169593 -0.02083754 0.04826117
v 0.09163075 -0.02178117 0.04780105
v 0.09234251 -0.02177237 0.04764057
v 0.09287569 -0.02081554 0.04785227
v 0.09600000 -0.01947047 0.04485935
v 0.09290741 -0.02147323 0.04748947
v 0.09328546 -0.02303386 0.04620045
v 0.09387295 -0.02264012 0.04582569
v 0.09423188 -0.02237947 0.04552606
v 0.09156122 -0.02475176 0.04598704
v 0.09159946 -0.02262803 0.04734605
v 0.09600000 -0.02420295 0.04104522
v 0.09586703 -0.02497502 0.04038364
v 0.09192623 -0.02993076 0.04038364
v 0.09157078 -0.02952053 0.04128937
v 0.09156122 -0.02853730 0.04246826
v 0.09213090 -0.02256534 0.04727349
v 0.09269318 -0.02249165 0.04703533
v 0.09600000 -0.02026674 0.04437277
v 0.09250155 -0.02350347 0.04649155
v 0.09267537 -0.02475286 0.04546460
v 0.09335324 -0.02409847 0.04535960
v 0.09423579 -0.02401819 0.04425411
v 0.09600000 -0.02214191 0.04300009
v 0.09600000 -0.02106300 0.04383070
v 0.09156122 -0.02667202 0.04443509
v 0.09164335 -0.02624310 0.04477997
v 0.09199793 -0.02537425 0.04537752
v 0.09209874 -0.02486614 0.04573094
v 0.09174459 -0.02386421 0.04656325
v 0.09184280 -0.02340119 0.04684837
v 0.09454561 -0.02543914 0.04236668
v 0.09600000 -0.02319773 0.04206876
v 0.09390206 -0.02598904 0.04289936
v 0.09466250 -0.02665773 0.04038364
v 0.09263843 -0.02939845 0.04038364
v 0.09235642 -0.02931927 0.04088046
v 0.09165030 -0.02908831 0.04179302
v 0.09156122 -0.02790931 0.04319387
v 0.09224474 -0.02410287 0.04622093
v 0.09247331 -0.02575808 0.04477314
v 0.09335498 -0.02507180 0.04454606
v 0.09423579 -0.02457359 0.04376241
v 0.09184410 -0.02741550 0.04359082
v 0.09226821 -0.02674131 0.04400484
v 0.09321463 -0.02590876 0.04393570
v 0.09331848 -0.02644326 0.04326643
v 0.09263496 -0.02770695 0.04265948
v 0.09268145 -0.02688759 0.04350546
f 1 2 9
f 1 9 13
f 1 13 3
f 1 3 4
f 1 4 5
f 1 5 6
f 1 6 7
f 1 7 8
f 1 8 2
f 2 8 10
f 2 10 11
f 2 11 9
f 3 12 4
f 3 13 14
f 3 14 15
f 3 15 31
f 3 31 54
f 3 54 41
f 3 41 25
f 3 25 12
f 4 12 5
f 5 16 17
f 5 17 18
f 5 18 7
f 5 7 6
f 5 12 16
f 7 19 10
f 7 10 8
f 7 18 19
f 9 11 20
f 9 20 13
f 10 19 11
f 11 21 22
f 11 22 23
f 11 23 24
f 11 24 20
f 11 19 21
f 12 25 26
f 12 26 17
f 12 17 16
f 13 20 27
f 13 27 14
f 14 27 28
f 14 28 50
f 14 50 51
f 14 51 29
f 14 29 15
f 15 29 30
f 15 30 31
f 17 26 32
f 17 32 18
f 18 21 19
f 18 32 33
f 18 33 21
f 20 24 34
f 20 34 40
f 20 40 39
f 20 39 48
f 20 48 27
f 21 33 22
f 22 33 35
f 22 35 36
f 22 36 37
f 22 37 23
f 23 37 38
f 23 38 24
f 24 39 40
f 24 40 34
f 24 38 39
f 25 41 42
f 25 42 43
f 25 43 44
f 25 44 45
f 25 45 26
f 26 46 32
f 26 45 46
f 27 47 28
f 27 48 47
f 28 47 49
f 28 49 50
f 29 51 52
f 29 52 30
f 30 52 53
f 30 53 31
f 31 53 54
f 32 46 55
f 32 55 35
f 32 35 33
f 35 55 36
f 36 55 44
f 36 44 56
f 36 56 57
f 36 57 37
f 37 57 38
f 38 57 58
f 38 58 48
f 38 48 39
f 41 54 59
f 41 59 60
f 41 60 42
f 42 60 43
f 43 56 44
f 43 60 56
f 44 55 45
f 45 55 46
f 47 48 58
f 47 58 49
f 49 58 57
f 49 57 61
f 49 61 62
f 49 62 51
f 49 51 50
f 51 62 63
f 51 63 52
f 52 63 53
f 53 63 59
f 53 59 54
f 56 61 57
f 56 60 64
f 56 64 61
f 59 63 60
f 60 63 64
f 61 64 62
f 62 64 63

