# https://github.com/mikedh/trimesh

o head_motor_jaw_frame_133.obj
v 0.06630427 -0.03096245 0.03574140
v 0.06630427 -0.03175000 0.03574140
v 0.06630427 -0.03081858 0.03526803
v 0.06630115 -0.03081858 0.03574241
v 0.06620848 -0.03081858 0.03578364
v 0.06609397 -0.03175000 0.03583393
v 0.06630427 -0.03175000 0.03269230
v 0.06630427 -0.03081858 0.03269230
v 0.06609397 -0.03081858 0.03583393
v 0.06601978 -0.03081858 0.03586042
v 0.06595448 -0.03175000 0.03588355
v 0.06610957 -0.03175000 0.03269230
v 0.06610957 -0.03081858 0.03269230
v 0.06585221 -0.03081858 0.03591976
v 0.06581500 -0.03175000 0.03593283
v 0.06385167 -0.03175000 0.03352138
v 0.06385167 -0.03081858 0.03352138
v 0.06581500 -0.03081858 0.03593283
v 0.06567264 -0.03175000 0.03597205
v 0.06385167 -0.03175000 0.03604044
v 0.06385167 -0.03081858 0.03604044
v 0.06552979 -0.03081858 0.03601128
v 0.06552979 -0.03175000 0.03601128
v 0.06405982 -0.03175000 0.03607766
v 0.06392370 -0.03081858 0.03605352
v 0.06527795 -0.03081858 0.03606056
v 0.06538431 -0.03175000 0.03603977
v 0.06435415 -0.03175000 0.03610816
v 0.06409895 -0.03081858 0.03608202
v 0.06405982 -0.03081858 0.03607766
v 0.06523906 -0.03081858 0.03606793
v 0.06523906 -0.03175000 0.03606793
v 0.06464992 -0.03175000 0.03611688
v 0.06435415 -0.03081858 0.03610816
v 0.06498506 -0.03081858 0.03609878
v 0.06509214 -0.03175000 0.03608570
v 0.06464992 -0.03081858 0.03611688
v 0.06494593 -0.03175000 0.03610314
v 0.06494593 -0.03081858 0.03610314
f 1 2 7
f 1 7 8
f 1 8 3
f 1 3 4
f 1 4 5
f 1 5 2
f 2 5 6
f 2 6 11
f 2 11 15
f 2 15 19
f 2 19 23
f 2 23 27
f 2 27 32
f 2 32 36
f 2 36 38
f 2 38 33
f 2 33 28
f 2 28 24
f 2 24 20
f 2 20 16
f 2 16 12
f 2 12 7
f 3 8 13
f 3 13 17
f 3 17 21
f 3 21 25
f 3 25 30
f 3 30 29
f 3 29 34
f 3 34 37
f 3 37 39
f 3 39 35
f 3 35 31
f 3 31 26
f 3 26 22
f 3 22 18
f 3 18 14
f 3 14 10
f 3 10 9
f 3 9 5
f 3 5 4
f 5 9 6
f 6 9 10
f 6 10 11
f 7 12 13
f 7 13 8
f 10 14 11
f 11 14 15
f 12 16 17
f 12 17 13
f 14 18 15
f 15 18 19
f 16 20 21
f 16 21 17
f 18 22 19
f 19 22 23
f 20 24 25
f 20 25 21
f 22 26 27
f 22 27 23
f 24 28 29
f 24 29 30
f 24 30 25
f 26 31 32
f 26 32 27
f 28 33 37
f 28 37 34
f 28 34 29
f 31 35 32
f 32 35 36
f 33 38 39
f 33 39 37
f 35 39 38
f 35 38 36

