# https://github.com/mikedh/trimesh

o head_motor_jaw_frame_078.obj
v 0.01753591 0.01146624 0.00802438
v 0.01700032 0.01156527 0.00788558
v 0.01700032 0.01146356 0.00802438
v 0.01864769 0.01146089 0.00802438
v 0.01865222 0.01165092 0.00776051
v 0.01700032 0.01184363 0.00744269
v 0.01700032 -0.01146356 0.00802438
v 0.01864769 -0.01146089 0.00802438
v 0.01865222 0.01182489 0.00748193
v 0.01824972 0.01190787 0.00734803
v 0.01700032 0.01212199 0.00699932
v 0.01865222 -0.01165092 0.00776051
v 0.01700032 -0.01156527 0.00788558
v 0.01753591 -0.01146624 0.00802438
v 0.01865222 0.01202028 0.00716313
v 0.01824972 0.01217284 0.00691005
v 0.01865222 0.01224243 0.00678400
v 0.01700032 0.01236823 0.00653681
v 0.01700032 -0.01184363 0.00744269
v 0.01700032 -0.01212199 0.00699932
v 0.01824972 -0.01190787 0.00734803
v 0.01865222 -0.01189181 0.00737501
v 0.01865222 0.01216214 0.00692379
v 0.01865222 0.01233343 0.00661234
v 0.01700032 0.01261179 0.00607382
v 0.01824972 -0.01217284 0.00691005
v 0.01865222 -0.01202028 0.00716313
v 0.01700032 -0.01236823 0.00653681
v 0.01824972 0.01241908 0.00644706
v 0.01865222 0.01266532 0.00596396
v 0.01700032 0.01303201 0.00511546
v 0.01865222 -0.01219961 0.00685855
v 0.01824972 -0.01241908 0.00644706
v 0.01865222 -0.01230399 0.00666433
v 0.01700032 -0.01261179 0.00607382
v 0.01865222 0.01280718 0.00563878
v 0.01865222 0.01293565 0.00533568
v 0.01865222 0.01306948 0.00501541
v 0.01865222 0.01310695 0.00491192
v 0.01700032 0.01337728 0.00412718
v 0.01865222 -0.01235485 0.00656722
v 0.01865222 -0.01266532 0.00596396
v 0.01700032 -0.01303201 0.00511546
v 0.01865222 0.01318725 0.00468042
v 0.01865222 0.01340404 0.00403841
v 0.01865222 0.01352716 0.00357247
v 0.01744018 0.01367170 0.00301384
v 0.01700032 0.01365564 0.00306485
v 0.01865222 -0.01280718 0.00563878
v 0.01865222 -0.01293565 0.00533568
v 0.01700032 -0.01337728 0.00412718
v 0.01865222 -0.01312836 0.00484816
v 0.01865222 -0.01306948 0.00501541
v 0.01865222 0.01363423 0.00315166
v 0.01865222 0.01366902 0.00301384
v 0.01744018 -0.01367170 0.00301384
v 0.01700032 -0.01365564 0.00306485
v 0.01865222 -0.01320330 0.00463285
v 0.01865222 -0.01352716 0.00357247
v 0.01865222 -0.01341207 0.00400849
v 0.01865222 -0.01366902 0.00301384
v 0.01865222 -0.01363423 0.00315166
f 1 2 3
f 1 3 7
f 1 7 14
f 1 14 8
f 1 8 4
f 1 4 5
f 1 5 2
f 2 5 6
f 2 6 11
f 2 11 18
f 2 18 25
f 2 25 31
f 2 31 40
f 2 40 48
f 2 48 57
f 2 57 51
f 2 51 43
f 2 43 35
f 2 35 28
f 2 28 20
f 2 20 19
f 2 19 13
f 2 13 7
f 2 7 3
f 4 8 12
f 4 12 5
f 5 9 10
f 5 10 11
f 5 11 6
f 5 12 22
f 5 22 27
f 5 27 32
f 5 32 34
f 5 34 41
f 5 41 42
f 5 42 49
f 5 49 50
f 5 50 53
f 5 53 52
f 5 52 58
f 5 58 60
f 5 60 59
f 5 59 62
f 5 62 61
f 5 61 55
f 5 55 54
f 5 54 46
f 5 46 45
f 5 45 44
f 5 44 39
f 5 39 38
f 5 38 37
f 5 37 36
f 5 36 30
f 5 30 24
f 5 24 17
f 5 17 23
f 5 23 15
f 5 15 9
f 7 13 14
f 8 14 12
f 9 15 10
f 10 15 11
f 11 15 16
f 11 16 17
f 11 17 18
f 12 14 13
f 12 13 19
f 12 19 20
f 12 20 21
f 12 21 22
f 15 23 16
f 16 23 17
f 17 24 18
f 18 24 25
f 20 26 27
f 20 27 22
f 20 22 21
f 20 28 26
f 24 29 25
f 24 30 29
f 25 30 31
f 25 29 30
f 26 32 27
f 26 28 33
f 26 33 34
f 26 34 32
f 28 35 33
f 30 36 31
f 31 36 37
f 31 37 38
f 31 38 39
f 31 39 40
f 33 41 34
f 33 35 42
f 33 42 41
f 35 43 42
f 39 44 40
f 40 44 45
f 40 45 46
f 40 46 47
f 40 47 48
f 42 43 49
f 43 50 49
f 43 51 52
f 43 52 53
f 43 53 50
f 46 54 47
f 47 54 55
f 47 55 61
f 47 61 56
f 47 56 57
f 47 57 48
f 51 58 52
f 51 57 56
f 51 56 59
f 51 59 60
f 51 60 58
f 56 61 62
f 56 62 59

