# https://github.com/mikedh/trimesh

o head_motor_jaw_frame_162.obj
v 0.06381954 -0.03004155 -0.00250443
v 0.06381954 -0.03081826 -0.00268026
v 0.06381954 -0.02916636 -0.00276981
v 0.06381771 -0.02916636 -0.00250350
v 0.06326079 -0.02916636 -0.00026948
v 0.06326079 -0.03081826 -0.00026948
v 0.06381650 -0.03081826 -0.00250303
v 0.06381954 -0.03081826 -0.00503413
v 0.06381954 -0.02916636 -0.00503413
v 0.06071558 -0.02916636 -0.00026948
v 0.06071558 -0.03081826 -0.00026948
v 0.06365061 -0.03081826 -0.00499776
v 0.06375938 -0.02916636 -0.00502108
v 0.06071558 -0.02916636 -0.00246292
v 0.06071558 -0.03081826 -0.00246292
v 0.06357647 -0.03081826 -0.00497723
v 0.06363572 -0.02916636 -0.00499402
v 0.06132719 -0.02916636 -0.00339104
v 0.06132142 -0.03081826 -0.00338311
v 0.06347408 -0.03081826 -0.00494785
v 0.06354761 -0.02916636 -0.00496884
v 0.06143019 -0.02916636 -0.00353002
v 0.06149400 -0.03081826 -0.00361537
v 0.06340845 -0.02916636 -0.00492826
v 0.06335407 -0.03081826 -0.00491147
v 0.06150038 -0.02916636 -0.00362330
v 0.06155689 -0.03058313 -0.00368906
v 0.06167022 -0.03081826 -0.00382012
v 0.06335771 -0.02916636 -0.00491241
v 0.06320002 -0.03081826 -0.00485504
v 0.06163346 -0.02916636 -0.00377721
v 0.06168997 -0.02916636 -0.00384204
v 0.06175803 -0.03081826 -0.00391060
v 0.06315688 -0.02916636 -0.00483872
v 0.06310006 -0.03081826 -0.00481820
v 0.06173646 -0.02916636 -0.00388868
v 0.06186589 -0.02916636 -0.00401834
v 0.06187379 -0.03081826 -0.00402626
v 0.06308608 -0.02916636 -0.00481167
v 0.06294632 -0.03081826 -0.00474870
v 0.06284545 -0.02916636 -0.00470300
v 0.06189840 -0.02916636 -0.00404958
v 0.06196767 -0.03081826 -0.00410975
v 0.06283633 -0.03081826 -0.00469833
v 0.06275126 -0.02941686 -0.00465216
v 0.06259053 -0.02916636 -0.00456495
v 0.06200201 -0.02916636 -0.00413960
v 0.06210622 -0.03081826 -0.00423008
v 0.06267500 -0.03081826 -0.00461065
v 0.06255559 -0.02916636 -0.00454396
v 0.06256562 -0.03081826 -0.00454955
v 0.06210622 -0.02916636 -0.00423008
v 0.06230675 -0.03081826 -0.00438072
v 0.06245168 -0.03081826 -0.00447726
v 0.06241887 -0.03058313 -0.00445628
v 0.06233774 -0.02916636 -0.00440357
v 0.06227698 -0.02916636 -0.00435833
v 0.06233774 -0.03081826 -0.00440357
f 1 2 8
f 1 8 9
f 1 9 3
f 1 3 4
f 1 4 5
f 1 5 6
f 1 6 7
f 1 7 2
f 2 7 6
f 2 6 11
f 2 11 15
f 2 15 19
f 2 19 23
f 2 23 28
f 2 28 33
f 2 33 38
f 2 38 43
f 2 43 48
f 2 48 53
f 2 53 58
f 2 58 54
f 2 54 51
f 2 51 49
f 2 49 44
f 2 44 40
f 2 40 35
f 2 35 30
f 2 30 25
f 2 25 20
f 2 20 16
f 2 16 12
f 2 12 8
f 3 9 13
f 3 13 17
f 3 17 21
f 3 21 24
f 3 24 29
f 3 29 34
f 3 34 39
f 3 39 41
f 3 41 46
f 3 46 50
f 3 50 56
f 3 56 57
f 3 57 52
f 3 52 47
f 3 47 42
f 3 42 37
f 3 37 36
f 3 36 32
f 3 32 31
f 3 31 26
f 3 26 22
f 3 22 18
f 3 18 14
f 3 14 10
f 3 10 5
f 3 5 4
f 5 10 11
f 5 11 6
f 8 12 9
f 9 12 13
f 10 14 15
f 10 15 11
f 12 16 17
f 12 17 13
f 14 18 19
f 14 19 15
f 16 20 21
f 16 21 17
f 18 22 19
f 19 22 23
f 20 24 21
f 20 25 24
f 22 26 23
f 23 26 27
f 23 27 28
f 24 25 29
f 25 30 29
f 26 31 27
f 27 31 28
f 28 31 32
f 28 32 33
f 29 30 34
f 30 35 34
f 32 36 33
f 33 36 37
f 33 37 38
f 34 35 39
f 35 40 41
f 35 41 39
f 37 42 38
f 38 42 43
f 40 44 41
f 41 44 45
f 41 45 46
f 42 47 43
f 43 47 48
f 44 49 46
f 44 46 45
f 46 49 51
f 46 51 50
f 47 52 48
f 48 52 53
f 50 54 55
f 50 55 56
f 50 51 54
f 52 57 53
f 53 57 56
f 53 56 58
f 54 58 55
f 55 58 56

