# https://github.com/mikedh/trimesh

o head_motor_jaw_frame_026.obj
v 0.08431581 0.02524336 -0.02025421
v 0.08431581 0.02656872 -0.02025315
v 0.08461720 0.02524336 -0.02009779
v 0.08431581 0.02524336 -0.01737177
v 0.08431581 0.02750000 -0.02025209
v 0.08454544 0.02750000 -0.02013226
v 0.08494357 0.02750000 -0.01992440
v 0.08484151 0.02524336 -0.01998060
v 0.08431581 0.02687664 -0.01737124
v 0.08685873 0.02524336 -0.01483770
v 0.08431581 0.02750000 -0.01737124
v 0.08570581 0.02750000 -0.01945141
v 0.08533319 0.02524336 -0.01968578
v 0.08505945 0.02524336 -0.01985547
v 0.08974502 0.02524336 -0.01483770
v 0.08685873 0.02750000 -0.01483770
v 0.08560694 0.02524336 -0.01951557
v 0.08643083 0.02750000 -0.01892222
v 0.08607523 0.02524336 -0.01918523
v 0.08581477 0.02524336 -0.01937506
v 0.08972269 0.02524336 -0.01488277
v 0.08974608 0.02610793 -0.01483770
v 0.08974395 0.02750000 -0.01483770
v 0.08633515 0.02524336 -0.01899487
v 0.08677262 0.02750000 -0.01863165
v 0.08653236 0.02524336 -0.01883897
v 0.08960363 0.02524336 -0.01510600
v 0.08957067 0.02750000 -0.01516168
v 0.08711387 0.02750000 -0.01834054
v 0.08702297 0.02524336 -0.01842167
v 0.08677740 0.02524336 -0.01863058
v 0.08941865 0.02524336 -0.01545067
v 0.08935911 0.02750000 -0.01555672
v 0.08775172 0.02750000 -0.01770954
v 0.08743651 0.02524336 -0.01802504
v 0.08720742 0.02524336 -0.01825145
v 0.08711493 0.02524336 -0.01833682
v 0.08935539 0.02524336 -0.01555884
v 0.08929161 0.02524336 -0.01566754
v 0.08915606 0.02524336 -0.01588123
v 0.08887754 0.02750000 -0.01631392
v 0.08783730 0.02524336 -0.01761515
v 0.08766508 0.02524336 -0.01779862
v 0.08804620 0.02750000 -0.01737177
v 0.08894610 0.02524336 -0.01621105
v 0.08880312 0.02524336 -0.01641785
v 0.08861070 0.02524336 -0.01667608
v 0.08860910 0.02750000 -0.01667396
v 0.08800314 0.02524336 -0.01742479
v 0.08834067 0.02750000 -0.01703347
v 0.08841775 0.02524336 -0.01693378
v 0.08809404 0.02524336 -0.01732033
v 0.08833908 0.02524336 -0.01703188
v 0.08825988 0.02524336 -0.01712944
f 1 2 3
f 1 3 8
f 1 8 14
f 1 14 13
f 1 13 17
f 1 17 20
f 1 20 19
f 1 19 24
f 1 24 26
f 1 26 31
f 1 31 30
f 1 30 37
f 1 37 36
f 1 36 35
f 1 35 43
f 1 43 42
f 1 42 49
f 1 49 52
f 1 52 54
f 1 54 53
f 1 53 51
f 1 51 47
f 1 47 46
f 1 46 45
f 1 45 40
f 1 40 39
f 1 39 38
f 1 38 32
f 1 32 27
f 1 27 21
f 1 21 15
f 1 15 10
f 1 10 4
f 1 4 9
f 1 9 11
f 1 11 5
f 1 5 2
f 2 5 3
f 3 5 6
f 3 6 7
f 3 7 8
f 4 10 9
f 5 11 16
f 5 16 23
f 5 23 28
f 5 28 33
f 5 33 41
f 5 41 48
f 5 48 50
f 5 50 44
f 5 44 34
f 5 34 29
f 5 29 25
f 5 25 18
f 5 18 12
f 5 12 7
f 5 7 6
f 7 12 13
f 7 13 14
f 7 14 8
f 9 10 16
f 9 16 11
f 10 15 22
f 10 22 23
f 10 23 16
f 12 17 13
f 12 18 19
f 12 19 20
f 12 20 17
f 15 21 22
f 18 24 19
f 18 25 26
f 18 26 24
f 21 27 22
f 22 27 28
f 22 28 23
f 25 29 30
f 25 30 31
f 25 31 26
f 27 32 33
f 27 33 28
f 29 34 35
f 29 35 36
f 29 36 37
f 29 37 30
f 32 38 33
f 33 38 39
f 33 39 40
f 33 40 41
f 34 42 43
f 34 43 35
f 34 44 42
f 40 45 41
f 41 45 46
f 41 46 47
f 41 47 48
f 42 44 49
f 44 50 49
f 47 51 50
f 47 50 48
f 49 50 52
f 50 53 54
f 50 54 52
f 50 51 53

