# https://github.com/mikedh/trimesh

o head_pitch_to_roll_stator_bracket_054.obj
v -0.00107136 0.02260000 -0.01520015
v 0.00188534 0.02260000 -0.01520015
v -0.00107136 0.02260000 -0.01432027
v -0.00107136 0.02559971 -0.01520015
v 0.00188534 0.02260000 -0.01431551
v 0.00188534 0.02559971 -0.01520015
v 0.00107489 0.02260000 -0.01431551
v -0.00107136 0.02559971 -0.01432027
v 0.00188534 0.02559971 -0.01431551
v 0.00107489 0.02559971 -0.01431551
f 1 2 5
f 1 5 7
f 1 7 3
f 1 3 8
f 1 8 4
f 1 4 6
f 1 6 2
f 2 6 9
f 2 9 5
f 3 7 10
f 3 10 8
f 4 8 10
f 4 10 9
f 4 9 6
f 5 9 10
f 5 10 7

