# https://github.com/mikedh/trimesh

o head_frame_with_jaw_retention_069.obj
v 0.08774286 -0.02950000 -0.00580043
v 0.08774286 -0.02823820 -0.00580043
v 0.09040809 -0.02950000 -0.00580043
v 0.08253267 -0.02950000 -0.00068376
v 0.09040809 -0.02823820 -0.00580043
v 0.08253267 -0.02823820 -0.00068376
v 0.09037725 -0.02823820 -0.00570016
v 0.09032945 -0.02950000 -0.00554520
v 0.08253267 -0.02950000 0.00195965
v 0.08253267 -0.02823820 0.00195965
v 0.09032945 -0.02823820 -0.00554520
v 0.09000179 -0.02950000 -0.00470812
v 0.08295516 -0.02950000 0.00182900
v 0.08295516 -0.02823820 0.00182900
v 0.09000179 -0.02823820 -0.00470812
v 0.08961168 -0.02950000 -0.00389763
v 0.08379166 -0.02950000 0.00150161
v 0.08310550 -0.02823820 0.00177051
v 0.08961168 -0.02823820 -0.00389763
v 0.08916298 -0.02950000 -0.00311904
v 0.08379166 -0.02823820 0.00150161
v 0.08460195 -0.02950000 0.00111193
v 0.08916298 -0.02823820 -0.00311904
v 0.08874820 -0.02823820 -0.00250984
v 0.08865646 -0.02950000 -0.00237615
v 0.08460195 -0.02823820 0.00111193
v 0.08538062 -0.02950000 0.00066301
v 0.08865646 -0.02823820 -0.00237615
v 0.08809596 -0.02950000 -0.00167428
v 0.08538062 -0.02823820 0.00066301
v 0.08612383 -0.02950000 0.00015636
v 0.08551477 -0.02823820 0.00057186
v 0.08809596 -0.02823820 -0.00167428
v 0.08748459 -0.02950000 -0.00101495
v 0.08612383 -0.02823820 0.00015636
v 0.08682618 -0.02950000 -0.00040347
v 0.08748459 -0.02823820 -0.00101495
v 0.08694491 -0.02823820 -0.00051361
v 0.08682618 -0.02823820 -0.00040347
f 1 2 5
f 1 5 3
f 1 3 8
f 1 8 12
f 1 12 16
f 1 16 20
f 1 20 25
f 1 25 29
f 1 29 34
f 1 34 36
f 1 36 31
f 1 31 27
f 1 27 22
f 1 22 17
f 1 17 13
f 1 13 9
f 1 9 4
f 1 4 6
f 1 6 2
f 2 6 10
f 2 10 14
f 2 14 18
f 2 18 21
f 2 21 26
f 2 26 30
f 2 30 32
f 2 32 35
f 2 35 39
f 2 39 38
f 2 38 37
f 2 37 33
f 2 33 28
f 2 28 24
f 2 24 23
f 2 23 19
f 2 19 15
f 2 15 11
f 2 11 7
f 2 7 5
f 3 5 7
f 3 7 8
f 4 9 10
f 4 10 6
f 7 11 8
f 8 11 15
f 8 15 12
f 9 13 14
f 9 14 10
f 12 15 19
f 12 19 16
f 13 17 18
f 13 18 14
f 16 19 23
f 16 23 20
f 17 21 18
f 17 22 26
f 17 26 21
f 20 23 24
f 20 24 25
f 22 27 30
f 22 30 26
f 24 28 25
f 25 28 33
f 25 33 29
f 27 31 32
f 27 32 30
f 29 33 37
f 29 37 34
f 31 35 32
f 31 36 39
f 31 39 35
f 34 37 38
f 34 38 36
f 36 38 39

