# https://github.com/mikedh/trimesh

o head_frame_with_jaw_retention_173.obj
v 0.06083712 -0.02825000 0.03342110
v 0.05947821 -0.02825000 0.03426717
v 0.06083712 -0.03174966 0.03342110
v 0.06083712 -0.02825000 0.02180287
v 0.05807582 -0.02825000 0.03505654
v 0.05947821 -0.03174966 0.03426717
v 0.06083712 -0.03174966 0.02180287
v 0.05575606 -0.02825000 0.02180287
v 0.05807582 -0.03174966 0.03505654
v 0.05661853 -0.02825000 0.03574014
v 0.05575606 -0.03174966 0.02180287
v 0.04915135 -0.02825000 0.02543395
v 0.05661853 -0.03174966 0.03574014
v 0.05511549 -0.02825000 0.03631646
v 0.04915135 -0.03174966 0.02543395
v 0.04915135 -0.02825000 0.03745989
v 0.05511549 -0.03174966 0.03631646
v 0.05357470 -0.02825000 0.03678088
v 0.04915135 -0.03174966 0.03745989
v 0.05041075 -0.02825000 0.03736639
v 0.05357470 -0.03174966 0.03678088
v 0.05200416 -0.02825000 0.03713188
v 0.05041075 -0.03174966 0.03736639
v 0.05200416 -0.03174966 0.03713188
f 1 2 6
f 1 6 3
f 1 3 7
f 1 7 4
f 1 4 8
f 1 8 12
f 1 12 16
f 1 16 20
f 1 20 22
f 1 22 18
f 1 18 14
f 1 14 10
f 1 10 5
f 1 5 2
f 2 5 9
f 2 9 6
f 3 6 9
f 3 9 13
f 3 13 17
f 3 17 21
f 3 21 24
f 3 24 23
f 3 23 19
f 3 19 15
f 3 15 11
f 3 11 7
f 4 7 11
f 4 11 8
f 5 10 13
f 5 13 9
f 8 11 15
f 8 15 12
f 10 14 17
f 10 17 13
f 12 15 19
f 12 19 16
f 14 18 21
f 14 21 17
f 16 19 23
f 16 23 20
f 18 22 24
f 18 24 21
f 20 23 24
f 20 24 22

