# https://github.com/mikedh/trimesh

o head_bill_access_shell_left_024.obj
v 0.08975049 0.01869740 0.04845859
v 0.08975049 0.01874917 0.04844315
v 0.08957700 0.01869740 0.04833400
v 0.08975049 0.01869740 0.04545210
v 0.08975049 0.01894260 0.04838251
v 0.08914091 0.01933656 0.04781583
v 0.08907449 0.01869740 0.04795144
v 0.08784674 0.01869740 0.04341029
v 0.08975049 0.02426349 0.04306962
v 0.08975049 0.01975885 0.04808484
v 0.08975049 0.02103227 0.04757770
v 0.08792802 0.02172646 0.04585451
v 0.08176741 0.02343252 0.03994957
v 0.08176741 0.01918944 0.04114136
v 0.08176741 0.01869740 0.04123066
v 0.08635250 0.01869740 0.04181829
v 0.08975049 0.02426349 0.04593830
v 0.08580779 0.01869740 0.04127035
v 0.08615400 0.02426349 0.03965631
v 0.08975049 0.02160441 0.04730207
v 0.08894554 0.02426349 0.04540910
v 0.08839458 0.02426349 0.04498905
v 0.08176741 0.02426349 0.03958575
v 0.08176741 0.01869740 0.03895954
v 0.08940975 0.02426349 0.04574095
v 0.08975049 0.02216456 0.04702425
v 0.08535061 0.01869740 0.04085031
v 0.08571010 0.02426349 0.03923736
v 0.08176741 0.02426349 0.03719665
v 0.08220036 0.02426349 0.03724737
v 0.08233087 0.02426349 0.03726721
v 0.08210267 0.01869740 0.03901797
v 0.08490672 0.01869740 0.04047767
v 0.08543110 0.02426349 0.03899371
v 0.08244184 0.02426349 0.03729257
v 0.08242075 0.01869740 0.03909514
v 0.08455035 0.01869740 0.04020535
v 0.08522635 0.02426349 0.03882724
v 0.08257939 0.02426349 0.03733337
v 0.08271537 0.01869740 0.03918885
v 0.08448861 0.01869740 0.04016015
v 0.08502238 0.02426349 0.03867289
v 0.08270834 0.02426349 0.03738077
v 0.08298421 0.01869740 0.03929028
v 0.08412755 0.01869740 0.03990878
v 0.08411427 0.02426349 0.03804447
v 0.08353205 0.02426349 0.03773467
v 0.08324758 0.01869740 0.03940825
v 0.08366412 0.02426349 0.03779200
v 0.08379307 0.01869740 0.03969820
v 0.08393296 0.02426349 0.03793312
v 0.08326868 0.01869740 0.03941817
v 0.08379776 0.02426349 0.03785815
v 0.08353439 0.01869740 0.03955267
f 1 2 3
f 1 3 7
f 1 7 15
f 1 15 24
f 1 24 32
f 1 32 36
f 1 36 40
f 1 40 44
f 1 44 48
f 1 48 52
f 1 52 54
f 1 54 50
f 1 50 45
f 1 45 41
f 1 41 37
f 1 37 33
f 1 33 27
f 1 27 18
f 1 18 16
f 1 16 8
f 1 8 4
f 1 4 9
f 1 9 17
f 1 17 26
f 1 26 20
f 1 20 11
f 1 11 10
f 1 10 5
f 1 5 2
f 2 5 3
f 3 5 6
f 3 6 7
f 4 8 9
f 5 10 6
f 6 10 11
f 6 11 12
f 6 12 13
f 6 13 7
f 7 13 14
f 7 14 15
f 8 16 9
f 9 16 18
f 9 18 19
f 9 19 28
f 9 28 34
f 9 34 38
f 9 38 42
f 9 42 46
f 9 46 51
f 9 51 53
f 9 53 49
f 9 49 47
f 9 47 43
f 9 43 39
f 9 39 35
f 9 35 31
f 9 31 30
f 9 30 29
f 9 29 23
f 9 23 22
f 9 22 21
f 9 21 25
f 9 25 17
f 11 20 21
f 11 21 12
f 12 21 22
f 12 22 23
f 12 23 13
f 13 23 29
f 13 29 24
f 13 24 15
f 13 15 14
f 17 25 26
f 18 27 28
f 18 28 19
f 20 26 25
f 20 25 21
f 24 29 30
f 24 30 31
f 24 31 32
f 27 33 34
f 27 34 28
f 31 35 32
f 32 35 36
f 33 37 38
f 33 38 34
f 35 39 36
f 36 39 40
f 37 41 42
f 37 42 38
f 39 43 40
f 40 43 44
f 41 45 42
f 42 45 46
f 43 47 44
f 44 47 49
f 44 49 48
f 45 50 46
f 46 50 51
f 48 49 52
f 49 53 52
f 50 54 51
f 51 54 53
f 52 53 54

