# https://github.com/mikedh/trimesh

o head_pitch_to_roll_stator_bracket_075.obj
v 0.02502363 0.00776598 -0.02215182
v 0.02537301 0.00929825 -0.02215291
v 0.02537301 0.00776598 -0.02215182
v 0.02502363 0.00776598 -0.01307542
v 0.02502363 0.00978035 -0.02215182
v 0.02656395 0.00929825 -0.02215291
v 0.02537301 0.00978015 -0.02215291
v 0.02537301 0.00776598 -0.01307542
v 0.02502363 0.00884316 -0.01129608
v 0.02537301 0.00978035 -0.02215182
v 0.02502363 0.00978035 -0.01129608
v 0.02656395 0.00978015 -0.02215291
v 0.02656395 0.00929825 -0.01102929
v 0.02537301 0.00884336 -0.01129608
v 0.02653184 0.00929825 -0.01102820
v 0.02537301 0.00929825 -0.01102820
v 0.02537301 0.00978035 -0.01129608
v 0.02537301 0.00978015 -0.01102820
v 0.02656395 0.00978015 -0.01102820
v 0.02656395 0.00930022 -0.01102820
f 1 2 6
f 1 6 3
f 1 3 8
f 1 8 4
f 1 4 9
f 1 9 11
f 1 11 5
f 1 5 7
f 1 7 2
f 2 7 12
f 2 12 6
f 3 6 13
f 3 13 8
f 4 8 9
f 5 10 12
f 5 12 7
f 5 11 17
f 5 17 10
f 6 12 19
f 6 19 20
f 6 20 13
f 8 13 14
f 8 14 9
f 9 14 15
f 9 15 16
f 9 16 18
f 9 18 11
f 10 17 19
f 10 19 12
f 11 18 19
f 11 19 17
f 13 20 15
f 13 15 14
f 15 20 19
f 15 19 18
f 15 18 16

