# https://github.com/mikedh/trimesh

o head_frame_with_jaw_retention_243.obj
v 0.08009591 -0.02823820 0.00832223
v 0.08008776 -0.02823820 0.00832536
v 0.08009591 -0.02950000 0.00832223
v 0.08009591 -0.02823820 0.00559970
v 0.08004341 -0.02823820 0.00834069
v 0.08004727 -0.02950000 0.00833955
v 0.08009591 -0.02950000 0.00559970
v 0.07790711 -0.02823820 0.00560566
v 0.07983816 -0.02823820 0.00839661
v 0.07979681 -0.02950000 0.00840797
v 0.07790711 -0.02950000 0.00560566
v 0.07790711 -0.02823820 0.00832280
v 0.07979295 -0.02823820 0.00840882
v 0.07958406 -0.02823820 0.00844970
v 0.07954207 -0.02950000 0.00845765
v 0.07790711 -0.02950000 0.00832252
v 0.07800096 -0.02950000 0.00835431
v 0.07799603 -0.02823820 0.00835289
v 0.07953800 -0.02823820 0.00845822
v 0.07932674 -0.02823820 0.00848348
v 0.07928432 -0.02950000 0.00848831
v 0.07825227 -0.02950000 0.00841904
v 0.07824735 -0.02823820 0.00841790
v 0.07804145 -0.02823820 0.00836482
v 0.07928004 -0.02823820 0.00848859
v 0.07906750 -0.02823820 0.00849796
v 0.07902508 -0.02950000 0.00849967
v 0.07829362 -0.02823820 0.00842671
v 0.07850766 -0.02950000 0.00846503
v 0.07850295 -0.02823820 0.00846446
v 0.07902058 -0.02823820 0.00849995
v 0.07876583 -0.02950000 0.00849200
v 0.07876112 -0.02823820 0.00849172
v 0.07854965 -0.02823820 0.00846957
v 0.07880804 -0.02823820 0.00849342
f 1 2 3
f 1 3 7
f 1 7 4
f 1 4 8
f 1 8 12
f 1 12 18
f 1 18 24
f 1 24 23
f 1 23 28
f 1 28 30
f 1 30 34
f 1 34 33
f 1 33 35
f 1 35 31
f 1 31 26
f 1 26 25
f 1 25 20
f 1 20 19
f 1 19 14
f 1 14 13
f 1 13 9
f 1 9 5
f 1 5 2
f 2 5 6
f 2 6 3
f 3 6 10
f 3 10 15
f 3 15 21
f 3 21 27
f 3 27 32
f 3 32 29
f 3 29 22
f 3 22 17
f 3 17 16
f 3 16 11
f 3 11 7
f 4 7 11
f 4 11 8
f 5 9 10
f 5 10 6
f 8 11 16
f 8 16 12
f 9 13 10
f 10 13 14
f 10 14 15
f 12 16 17
f 12 17 18
f 14 19 15
f 15 19 20
f 15 20 21
f 17 22 23
f 17 23 24
f 17 24 18
f 20 25 21
f 21 25 26
f 21 26 27
f 22 28 23
f 22 29 30
f 22 30 28
f 26 31 27
f 27 31 32
f 29 32 33
f 29 33 34
f 29 34 30
f 31 35 32
f 32 35 33

