# https://github.com/mikedh/trimesh

o head_bill_access_shell_left_104.obj
v 0.05435578 0.01821828 -0.01911938
v 0.05435578 0.01811080 -0.01912406
v 0.05616094 0.01832441 -0.02000878
v 0.05435578 0.01936287 -0.01913475
v 0.05435578 0.00844754 -0.01960651
v 0.05612060 0.00846501 -0.02042041
v 0.05811915 0.01720130 -0.02151496
v 0.05813075 0.01842785 -0.02148689
v 0.05621177 0.01950931 -0.02012372
v 0.05810202 0.00845695 -0.02184172
v 0.05435578 0.01949722 -0.01914878
v 0.05435578 0.00794779 -0.01963324
v 0.05612613 0.00796391 -0.02045649
v 0.06000000 0.01786495 -0.02297436
v 0.06000000 0.00827693 -0.02331448
v 0.06000000 0.01846144 -0.02298705
v 0.06000000 0.01901090 -0.02303917
v 0.05816888 0.01967724 -0.02166397
v 0.05730304 0.02075063 -0.02128776
v 0.05632891 0.02075063 -0.02054336
v 0.05547081 0.02075063 -0.01992525
v 0.05531997 0.02058136 -0.01977156
v 0.05810589 0.00795585 -0.02188315
v 0.05517741 0.02075063 -0.01972813
v 0.05436407 0.02075063 -0.01933989
v 0.05435578 0.02066465 -0.01932319
v 0.05435578 0.00747893 -0.01968670
v 0.05614215 0.00743460 -0.02054804
v 0.06000000 0.00802974 -0.02333787
v 0.06000000 0.01950125 -0.02312203
v 0.06000000 0.01998622 -0.02324031
v 0.06000000 0.02075063 -0.02349891
v 0.06000000 0.02046717 -0.02339267
v 0.05811694 0.00743057 -0.02199006
v 0.06000000 0.00778523 -0.02337596
v 0.05435578 0.02075063 -0.01933722
v 0.05435578 0.00742520 -0.01969539
v 0.05471494 0.00702620 -0.01993995
v 0.05483870 0.00702620 -0.02000143
v 0.05616370 0.00702620 -0.02066297
v 0.06000000 0.02075063 -0.02594527
v 0.06000000 0.00728548 -0.02350559
v 0.06000000 0.00754342 -0.02343008
v 0.05670353 0.00702620 -0.02105723
v 0.05813185 0.00702620 -0.02212571
v 0.05435578 0.02075063 -0.02169538
v 0.05435578 0.00702620 -0.01976822
v 0.05435578 0.01290100 -0.02201746
v 0.06000000 0.01188940 -0.02588514
v 0.05435578 0.00702620 -0.02209832
v 0.06000000 0.00702620 -0.02360182
v 0.06000000 0.00702620 -0.02584037
f 1 2 3
f 1 3 4
f 1 4 11
f 1 11 26
f 1 26 36
f 1 36 46
f 1 46 48
f 1 48 50
f 1 50 47
f 1 47 37
f 1 37 27
f 1 27 12
f 1 12 5
f 1 5 2
f 2 5 6
f 2 6 3
f 3 7 8
f 3 8 9
f 3 9 4
f 3 6 10
f 3 10 7
f 4 9 11
f 5 12 6
f 6 12 13
f 6 13 10
f 7 14 8
f 7 10 15
f 7 15 14
f 8 14 16
f 8 16 17
f 8 17 18
f 8 18 9
f 9 18 19
f 9 19 20
f 9 20 21
f 9 21 22
f 9 22 11
f 10 13 23
f 10 23 15
f 11 22 24
f 11 24 25
f 11 25 26
f 12 27 13
f 13 27 28
f 13 28 23
f 14 15 29
f 14 29 35
f 14 35 43
f 14 43 42
f 14 42 51
f 14 51 52
f 14 52 49
f 14 49 41
f 14 41 32
f 14 32 33
f 14 33 31
f 14 31 30
f 14 30 17
f 14 17 16
f 15 23 29
f 17 30 18
f 18 30 31
f 18 31 19
f 19 32 41
f 19 41 46
f 19 46 36
f 19 36 25
f 19 25 24
f 19 24 21
f 19 21 20
f 19 31 33
f 19 33 32
f 21 24 22
f 23 28 34
f 23 34 35
f 23 35 29
f 25 36 26
f 27 37 28
f 28 37 38
f 28 38 39
f 28 39 40
f 28 40 34
f 34 42 43
f 34 43 35
f 34 40 44
f 34 44 45
f 34 45 42
f 37 47 38
f 38 47 50
f 38 50 52
f 38 52 51
f 38 51 45
f 38 45 44
f 38 44 40
f 38 40 39
f 41 48 46
f 41 49 50
f 41 50 48
f 42 45 51
f 49 52 50

