# https://github.com/mikedh/trimesh

o head_motor_jaw_frame_118.obj
v 0.06952035 0.02525000 0.02408061
v 0.06952035 0.02924922 0.02408061
v 0.06969150 0.02658386 0.02412220
v 0.06991959 0.02525000 0.02419137
v 0.06943241 0.02525000 0.02603834
v 0.06991959 0.02924922 0.02419137
v 0.06977497 0.02791615 0.02414540
v 0.06943241 0.02924922 0.02603834
v 0.06993969 0.02658386 0.02419881
v 0.07016193 0.02525000 0.02428462
v 0.06998827 0.02525000 0.02855248
v 0.07016193 0.02924922 0.02428462
v 0.06998827 0.02924922 0.02855248
v 0.07033977 0.02525000 0.02436473
v 0.07214276 0.02525000 0.02847805
v 0.07033977 0.02924922 0.02436473
v 0.07214276 0.02924922 0.02847805
v 0.07041571 0.02658386 0.02440588
v 0.07056787 0.02525000 0.02448862
v 0.07220698 0.02525000 0.02822152
v 0.07217236 0.02791615 0.02836905
v 0.07215002 0.02658386 0.02845310
v 0.07056787 0.02924922 0.02448862
v 0.07220698 0.02924922 0.02822152
v 0.07071388 0.02791615 0.02458230
v 0.07078647 0.02525000 0.02462958
v 0.07224411 0.02525000 0.02803021
v 0.07221145 0.02658386 0.02820051
v 0.07078647 0.02924922 0.02462958
v 0.07224411 0.02924922 0.02803021
v 0.07092439 0.02791615 0.02473333
v 0.07099335 0.02525000 0.02478587
v 0.07227398 0.02525000 0.02777193
v 0.07099335 0.02924922 0.02478587
v 0.07227398 0.02924922 0.02777193
v 0.07105896 0.02658386 0.02484278
v 0.07118906 0.02525000 0.02495748
v 0.07228459 0.02525000 0.02751233
v 0.07118906 0.02924922 0.02495748
v 0.07228459 0.02924922 0.02751233
v 0.07131051 0.02791615 0.02508093
v 0.07137109 0.02525000 0.02514265
v 0.07227566 0.02525000 0.02725272
v 0.07137109 0.02924922 0.02514265
v 0.07227566 0.02924922 0.02725272
v 0.07142721 0.02658386 0.02520876
v 0.07153860 0.02525000 0.02534097
v 0.07222987 0.02525000 0.02689813
v 0.07225695 0.02791615 0.02708024
v 0.07153860 0.02924922 0.02534097
v 0.07222987 0.02924922 0.02689813
v 0.07164051 0.02791615 0.02548105
v 0.07169160 0.02525000 0.02555154
v 0.07213495 0.02525000 0.02648750
v 0.07169160 0.02924922 0.02555154
v 0.07213495 0.02924922 0.02648750
v 0.07182812 0.02525000 0.02577261
v 0.07207129 0.02525000 0.02630319
v 0.07182812 0.02924922 0.02577261
v 0.07207129 0.02924922 0.02630319
v 0.07194789 0.02525000 0.02600332
v 0.07194789 0.02924922 0.02600332
f 1 2 3
f 1 3 4
f 1 4 10
f 1 10 14
f 1 14 19
f 1 19 26
f 1 26 32
f 1 32 37
f 1 37 42
f 1 42 47
f 1 47 53
f 1 53 57
f 1 57 61
f 1 61 58
f 1 58 54
f 1 54 48
f 1 48 43
f 1 43 38
f 1 38 33
f 1 33 27
f 1 27 20
f 1 20 15
f 1 15 11
f 1 11 5
f 1 5 8
f 1 8 2
f 2 6 7
f 2 7 3
f 2 8 13
f 2 13 17
f 2 17 24
f 2 24 30
f 2 30 35
f 2 35 40
f 2 40 45
f 2 45 51
f 2 51 56
f 2 56 60
f 2 60 62
f 2 62 59
f 2 59 55
f 2 55 50
f 2 50 44
f 2 44 39
f 2 39 34
f 2 34 29
f 2 29 23
f 2 23 16
f 2 16 12
f 2 12 6
f 3 7 4
f 4 7 6
f 4 6 9
f 4 9 10
f 5 11 13
f 5 13 8
f 6 12 9
f 9 12 10
f 10 12 16
f 10 16 14
f 11 15 17
f 11 17 13
f 14 16 18
f 14 18 19
f 15 20 21
f 15 21 22
f 15 22 17
f 16 23 18
f 17 22 21
f 17 21 24
f 18 23 19
f 19 23 25
f 19 25 26
f 20 24 21
f 20 27 28
f 20 28 24
f 23 29 25
f 24 28 30
f 25 29 26
f 26 29 31
f 26 31 32
f 27 33 35
f 27 35 30
f 27 30 28
f 29 34 31
f 31 34 32
f 32 34 36
f 32 36 37
f 33 38 40
f 33 40 35
f 34 39 36
f 36 39 37
f 37 39 41
f 37 41 42
f 38 43 45
f 38 45 40
f 39 44 41
f 41 44 42
f 42 44 46
f 42 46 47
f 43 48 49
f 43 49 45
f 44 50 46
f 45 49 51
f 46 50 47
f 47 50 52
f 47 52 53
f 48 54 56
f 48 56 51
f 48 51 49
f 50 55 52
f 52 55 53
f 53 55 59
f 53 59 57
f 54 58 60
f 54 60 56
f 57 59 62
f 57 62 61
f 58 61 62
f 58 62 60

