# https://github.com/mikedh/trimesh

o head_roll_horn_adapter_028.obj
v 0.01450002 0.00912246 0.00130136
v 0.01450002 0.01221830 0.00103619
v 0.01471269 0.00982068 0.00108023
v 0.01471269 0.00912246 0.00130136
v 0.01450002 0.00912246 0.01060732
v 0.01471269 0.01395841 0.00106805
v 0.01471248 0.01221830 0.00103619
v 0.01450002 0.01221830 0.00217555
v 0.01554757 0.00982068 0.00108023
v 0.01471269 0.00912246 0.01060732
v 0.01471269 0.00951204 0.01027095
v 0.01450002 0.00952293 0.01026064
v 0.01554757 0.01395841 0.00106805
v 0.01450002 0.01221736 0.00681916
v 0.01471269 0.01386137 0.00192631
v 0.01554757 0.01386658 0.00188134
v 0.01554757 0.01218990 0.00106805
v 0.01554757 0.00982068 0.00996456
v 0.01471269 0.00952293 0.01026064
v 0.01471269 0.00953334 0.01025034
v 0.01471279 0.00982068 0.00996456
v 0.01450002 0.00989358 0.00989054
v 0.01450002 0.01212316 0.00699812
v 0.01471279 0.01260647 0.00608645
v 0.01471279 0.01268410 0.00591124
v 0.01471279 0.01283984 0.00555613
v 0.01471279 0.01303108 0.00511763
v 0.01471279 0.01304292 0.00508483
v 0.01471279 0.01337238 0.00414224
v 0.01471279 0.01337712 0.00412819
v 0.01471279 0.01364836 0.00311720
v 0.01471279 0.01384291 0.00208935
v 0.01554757 0.01384291 0.00208935
v 0.01554757 0.01026328 0.00952044
v 0.01471279 0.01020032 0.00958415
v 0.01450002 0.01026328 0.00951950
v 0.01471279 0.01211606 0.00701124
v 0.01471279 0.01214020 0.00696814
v 0.01450002 0.01156600 0.00788356
v 0.01471279 0.01158493 0.00785638
v 0.01554757 0.01220316 0.00684821
v 0.01554757 0.01261262 0.00607240
v 0.01554757 0.01289712 0.00542402
v 0.01554757 0.01303108 0.00511763
v 0.01554757 0.01337712 0.00412819
v 0.01554757 0.01343108 0.00392862
v 0.01554757 0.01364836 0.00311720
v 0.01554757 0.01080340 0.00889361
v 0.01471279 0.01026328 0.00952044
v 0.01450002 0.01094588 0.00872683
v 0.01554757 0.01208529 0.00705903
v 0.01554757 0.01212316 0.00699812
v 0.01554757 0.01167677 0.00770928
v 0.01471279 0.01128387 0.00827052
v 0.01471279 0.01154659 0.00791260
v 0.01471279 0.01156647 0.00788356
v 0.01554757 0.01156647 0.00788356
v 0.01554757 0.01094636 0.00872683
v 0.01471279 0.01094636 0.00872683
v 0.01471279 0.01097334 0.00869122
v 0.01533326 0.01136150 0.00816558
v 0.01554757 0.01120766 0.00837453
v 0.01554757 0.01133026 0.00820775
f 1 2 3
f 1 3 9
f 1 9 4
f 1 4 10
f 1 10 5
f 1 5 12
f 1 12 22
f 1 22 36
f 1 36 50
f 1 50 39
f 1 39 23
f 1 23 14
f 1 14 8
f 1 8 2
f 2 6 13
f 2 13 7
f 2 7 9
f 2 9 3
f 2 8 6
f 4 9 18
f 4 18 10
f 5 10 11
f 5 11 12
f 6 8 14
f 6 14 15
f 6 15 16
f 6 16 13
f 7 13 17
f 7 17 9
f 9 17 13
f 9 13 16
f 9 16 33
f 9 33 47
f 9 47 46
f 9 46 45
f 9 45 44
f 9 44 43
f 9 43 42
f 9 42 41
f 9 41 52
f 9 52 51
f 9 51 53
f 9 53 57
f 9 57 63
f 9 63 62
f 9 62 58
f 9 58 48
f 9 48 34
f 9 34 18
f 10 18 11
f 11 18 19
f 11 19 12
f 12 19 20
f 12 20 21
f 12 21 22
f 14 23 24
f 14 24 25
f 14 25 26
f 14 26 27
f 14 27 28
f 14 28 29
f 14 29 30
f 14 30 31
f 14 31 32
f 14 32 15
f 15 32 16
f 16 32 33
f 18 34 35
f 18 35 21
f 18 21 20
f 18 20 19
f 21 35 22
f 22 35 36
f 23 37 38
f 23 38 24
f 23 39 40
f 23 40 37
f 24 38 41
f 24 41 42
f 24 42 25
f 25 43 26
f 25 42 43
f 26 43 44
f 26 44 27
f 27 44 28
f 28 44 45
f 28 45 29
f 29 45 30
f 30 45 46
f 30 46 31
f 31 46 47
f 31 47 33
f 31 33 32
f 34 48 49
f 34 49 35
f 35 49 36
f 36 49 50
f 37 51 52
f 37 52 38
f 37 40 53
f 37 53 51
f 38 52 41
f 39 54 55
f 39 55 56
f 39 56 40
f 39 50 54
f 40 56 57
f 40 57 53
f 48 58 59
f 48 59 49
f 49 59 50
f 50 59 60
f 50 60 54
f 54 61 55
f 54 60 62
f 54 62 61
f 55 57 56
f 55 61 57
f 57 61 63
f 58 62 60
f 58 60 59
f 61 62 63

