# https://github.com/mikedh/trimesh

o head_frame_with_jaw_retention_139.obj
v 0.06907726 0.02525039 0.02263354
v 0.06907726 0.02925000 0.02263354
v 0.06986267 0.02525039 0.02263354
v 0.06907726 0.02525039 0.02592774
v 0.06986267 0.02925000 0.02263354
v 0.06907726 0.02925000 0.02592774
v 0.07029910 0.02525039 0.02434627
v 0.07029910 0.02525039 0.02698716
v 0.07029910 0.02925000 0.02434627
v 0.07029910 0.02925000 0.02698716
f 1 2 5
f 1 5 3
f 1 3 7
f 1 7 8
f 1 8 4
f 1 4 6
f 1 6 2
f 2 6 10
f 2 10 9
f 2 9 5
f 3 5 9
f 3 9 7
f 4 8 10
f 4 10 6
f 7 9 10
f 7 10 8

