# https://github.com/mikedh/trimesh

o head_frame_with_jaw_retention_119.obj
v 0.02609831 -0.03174966 0.01742667
v 0.02615099 -0.03174966 0.01807117
v 0.02609831 -0.02825000 0.01742667
v 0.03818665 -0.03174966 0.01742667
v 0.02615099 -0.02825000 0.01807117
v 0.02639356 -0.03174966 0.01964033
v 0.03818665 -0.02825000 0.01742667
v 0.04025750 -0.03174966 0.02181990
v 0.02639356 -0.02825000 0.01964033
v 0.02674840 -0.03174966 0.02118606
v 0.04025750 -0.02825000 0.02181990
v 0.04025750 -0.03174966 0.02830854
v 0.02674840 -0.02825000 0.02118606
v 0.02721275 -0.03174966 0.02270409
v 0.04025750 -0.02825000 0.02830854
v 0.03011390 -0.03174966 0.02830854
v 0.02721275 -0.02825000 0.02270409
v 0.02778660 -0.03174966 0.02418164
v 0.03011390 -0.02825000 0.02830854
v 0.02924480 -0.03174966 0.02699825
v 0.02778660 -0.02825000 0.02418164
v 0.02846442 -0.03174966 0.02561657
v 0.02924480 -0.02825000 0.02699825
v 0.02846442 -0.02825000 0.02561657
f 1 2 5
f 1 5 3
f 1 3 7
f 1 7 4
f 1 4 8
f 1 8 12
f 1 12 16
f 1 16 20
f 1 20 22
f 1 22 18
f 1 18 14
f 1 14 10
f 1 10 6
f 1 6 2
f 2 6 9
f 2 9 5
f 3 5 9
f 3 9 13
f 3 13 17
f 3 17 21
f 3 21 24
f 3 24 23
f 3 23 19
f 3 19 15
f 3 15 11
f 3 11 7
f 4 7 11
f 4 11 8
f 6 10 13
f 6 13 9
f 8 11 15
f 8 15 12
f 10 14 17
f 10 17 13
f 12 15 19
f 12 19 16
f 14 18 21
f 14 21 17
f 16 19 23
f 16 23 20
f 18 22 24
f 18 24 21
f 20 23 24
f 20 24 22

