# https://github.com/mikedh/trimesh

o head_frame_with_jaw_retention_021.obj
v 0.01949985 0.01366991 0.00301384
v 0.01951017 0.01806292 0.00299967
v 0.01744007 0.01366991 0.00301384
v 0.01949985 -0.01366930 0.00301384
v 0.01951017 0.01806292 -0.00299949
v 0.01750002 0.01806292 0.00299967
v 0.01951017 -0.01406237 0.00299967
v 0.01700000 0.01366676 0.00301384
v 0.01744007 -0.01366930 0.00301384
v 0.01949985 0.01366991 -0.00301661
v 0.01750002 0.01806292 -0.00299949
v 0.01951017 -0.01406237 -0.00299949
v 0.01700000 0.01399695 -0.00000020
v 0.01700000 0.01395921 0.00104580
v 0.01700000 0.01384286 0.00208649
v 0.01750002 -0.01406237 0.00299967
v 0.01700000 -0.01366615 0.00301384
v 0.01742802 0.01366991 -0.00301661
v 0.01949985 -0.01366930 -0.00301661
v 0.01700000 0.01395921 -0.00104562
v 0.01700000 0.01366676 -0.00301661
v 0.01700000 0.01384286 -0.00208630
v 0.01750002 -0.01406237 -0.00299949
v 0.01700000 -0.01395860 0.00104580
v 0.01700000 -0.01399948 -0.00000020
v 0.01700000 -0.01384225 0.00208649
v 0.01742802 -0.01366930 -0.00301661
v 0.01700000 -0.01366615 -0.00301661
v 0.01700000 -0.01395860 -0.00104562
v 0.01700000 -0.01384225 -0.00208630
f 1 2 6
f 1 6 3
f 1 3 8
f 1 8 17
f 1 17 9
f 1 9 4
f 1 4 7
f 1 7 2
f 2 5 11
f 2 11 6
f 2 7 12
f 2 12 5
f 3 6 8
f 4 9 16
f 4 16 7
f 5 10 18
f 5 18 11
f 5 12 19
f 5 19 10
f 6 11 13
f 6 13 14
f 6 14 15
f 6 15 8
f 7 16 23
f 7 23 12
f 8 15 14
f 8 14 13
f 8 13 20
f 8 20 22
f 8 22 21
f 8 21 28
f 8 28 30
f 8 30 29
f 8 29 25
f 8 25 24
f 8 24 26
f 8 26 17
f 9 17 16
f 10 19 27
f 10 27 28
f 10 28 21
f 10 21 18
f 11 20 13
f 11 18 21
f 11 21 22
f 11 22 20
f 12 23 27
f 12 27 19
f 16 24 25
f 16 25 23
f 16 17 26
f 16 26 24
f 23 25 29
f 23 29 30
f 23 30 28
f 23 28 27

