# https://github.com/mikedh/trimesh

o head_motor_jaw_frame_169.obj
v 0.01865222 -0.00743091 -0.00835011
v 0.01865222 -0.00366980 -0.00835011
v 0.01902864 -0.00743091 -0.00835011
v 0.01865222 -0.00743091 -0.00301761
v 0.01902864 -0.00366980 -0.00835011
v 0.01865222 -0.00366980 -0.00301761
v 0.01950000 -0.00720891 -0.00786824
v 0.01902864 -0.00743091 -0.00301761
v 0.01902864 -0.00366980 -0.00301761
v 0.01950000 -0.00376810 -0.00786824
v 0.01950000 -0.00720891 -0.00301761
v 0.01950000 -0.00376810 -0.00301761
f 1 2 5
f 1 5 3
f 1 3 8
f 1 8 4
f 1 4 6
f 1 6 2
f 2 6 9
f 2 9 5
f 3 5 10
f 3 10 7
f 3 7 11
f 3 11 8
f 4 8 11
f 4 11 12
f 4 12 9
f 4 9 6
f 5 9 12
f 5 12 10
f 7 10 12
f 7 12 11

