# https://github.com/mikedh/trimesh

o head_frame_with_jaw_retention_151.obj
v 0.02652891 0.02525078 0.00494416
v 0.02652891 0.02925000 0.00494416
v 0.02786417 0.02525078 0.00496281
v 0.02652891 0.02525078 0.01615158
v 0.02786417 0.02925000 0.00496281
v 0.02652891 0.02925000 0.01615158
v 0.02786417 0.02525078 0.00955395
v 0.02702336 0.02525078 0.01615158
v 0.02786417 0.02925000 0.00954407
v 0.02702087 0.02925000 0.01615158
f 1 2 5
f 1 5 3
f 1 3 7
f 1 7 8
f 1 8 4
f 1 4 6
f 1 6 2
f 2 6 10
f 2 10 9
f 2 9 5
f 3 5 9
f 3 9 7
f 4 8 10
f 4 10 6
f 7 9 8
f 8 9 10

