# https://github.com/mikedh/trimesh

o head_bill_access_shell_left_153.obj
v 0.06671140 0.05183962 -0.00405127
v 0.06668059 0.04971223 -0.00404983
v 0.06671140 0.05184197 -0.00335026
v 0.06775123 0.05181996 -0.00349219
v 0.06775123 0.05180216 -0.00405127
v 0.07979400 0.04742842 -0.00405127
v 0.06668059 0.04705848 0.00003448
v 0.06669599 0.05068578 -0.00076884
v 0.06671140 0.05167572 -0.00250155
v 0.06775123 0.05167713 -0.00261899
v 0.06976927 0.05155397 -0.00285098
v 0.07178731 0.05135121 -0.00305415
v 0.06976927 0.05162890 -0.00388700
v 0.07162042 0.05140553 -0.00401957
v 0.07328928 0.05116483 -0.00405127
v 0.07783758 0.05029804 -0.00405127
v 0.07979400 0.04965603 -0.00377461
v 0.07979400 0.04705848 -0.00273642
v 0.06680768 0.04705848 0.00330899
v 0.06671140 0.04996416 0.00007051
v 0.06775123 0.05003581 -0.00007287
v 0.06775123 0.05076352 -0.00092950
v 0.06671140 0.05130110 -0.00165717
v 0.06775123 0.05133060 -0.00177821
v 0.06976927 0.05126130 -0.00201740
v 0.07178731 0.05110489 -0.00222633
v 0.07380278 0.05086747 -0.00239997
v 0.07380278 0.05107633 -0.00322490
v 0.07386183 0.05107586 -0.00405127
v 0.07604804 0.05067922 -0.00405127
v 0.07783758 0.05031912 -0.00345040
v 0.07979400 0.04950852 -0.00267014
v 0.07979400 0.04708705 0.00054961
v 0.07877984 0.04705848 0.00092281
v 0.06775123 0.04705848 0.00317643
v 0.06976927 0.05005501 -0.00033151
v 0.06976927 0.05074432 -0.00117806
v 0.07178731 0.05063240 -0.00139492
v 0.07380278 0.05043244 -0.00157720
v 0.07581954 0.05015194 -0.00172201
v 0.07581954 0.05055747 -0.00253685
v 0.07581954 0.05073729 -0.00335746
v 0.07783758 0.05015756 -0.00263340
v 0.07979400 0.04913905 -0.00187547
v 0.07979400 0.04788500 -0.00027100
v 0.07783758 0.04850032 -0.00020976
v 0.07783758 0.04772203 0.00058852
v 0.07783758 0.04705848 0.00124054
v 0.06976927 0.04705848 0.00285438
v 0.07178731 0.04921444 0.00027584
v 0.07178731 0.04997961 -0.00055846
v 0.07380278 0.04981384 -0.00075154
v 0.07581954 0.04956097 -0.00090500
v 0.07783758 0.04920227 -0.00101307
v 0.07783758 0.04977263 -0.00182287
v 0.07979400 0.04857149 -0.00106351
v 0.07581954 0.04884310 -0.00009232
v 0.07581954 0.04805311 0.00071316
v 0.07581954 0.04705848 0.00170092
v 0.07178731 0.04705848 0.00249847
v 0.07380278 0.04907349 0.00007123
v 0.07380278 0.04826945 0.00088751
v 0.07380278 0.04705848 0.00211302
v 0.07512246 0.04705848 0.00184717
f 1 2 3
f 1 3 4
f 1 4 5
f 1 5 15
f 1 15 29
f 1 29 30
f 1 30 16
f 1 16 6
f 1 6 2
f 2 7 8
f 2 8 3
f 2 6 7
f 3 9 10
f 3 10 4
f 3 8 9
f 4 10 11
f 4 11 12
f 4 12 13
f 4 13 5
f 5 13 14
f 5 14 15
f 6 16 17
f 6 17 32
f 6 32 44
f 6 44 56
f 6 56 45
f 6 45 33
f 6 33 18
f 6 18 7
f 7 19 20
f 7 20 8
f 7 18 34
f 7 34 48
f 7 48 59
f 7 59 64
f 7 64 63
f 7 63 60
f 7 60 49
f 7 49 35
f 7 35 19
f 8 20 21
f 8 21 22
f 8 22 23
f 8 23 9
f 9 23 24
f 9 24 10
f 10 24 25
f 10 25 11
f 11 25 26
f 11 26 12
f 12 14 13
f 12 26 27
f 12 27 28
f 12 28 14
f 14 28 15
f 15 28 29
f 16 30 31
f 16 31 17
f 17 31 32
f 18 33 34
f 19 35 36
f 19 36 21
f 19 21 20
f 21 36 22
f 22 36 37
f 22 37 24
f 22 24 23
f 24 37 25
f 25 37 38
f 25 38 26
f 26 38 39
f 26 39 27
f 27 39 40
f 27 40 41
f 27 41 28
f 28 41 42
f 28 42 29
f 29 42 30
f 30 42 31
f 31 43 32
f 31 42 43
f 32 43 44
f 33 45 46
f 33 46 47
f 33 47 34
f 34 47 48
f 35 49 50
f 35 50 36
f 36 50 51
f 36 51 37
f 37 51 38
f 38 51 52
f 38 52 39
f 39 52 53
f 39 53 40
f 40 53 54
f 40 54 55
f 40 55 41
f 41 55 43
f 41 43 42
f 43 55 44
f 44 55 56
f 45 56 54
f 45 54 46
f 46 54 53
f 46 53 57
f 46 57 47
f 47 57 58
f 47 58 59
f 47 59 48
f 49 60 61
f 49 61 50
f 50 61 51
f 51 61 52
f 52 61 57
f 52 57 53
f 54 56 55
f 57 61 58
f 58 61 62
f 58 62 63
f 58 63 64
f 58 64 59
f 60 63 62
f 60 62 61

