# https://github.com/mikedh/trimesh

o head_retention_access_shell_right_004.obj
v 0.09154911 -0.01464195 0.05031535
v 0.09139494 -0.01464195 0.05030535
v 0.09154911 -0.01539081 0.05015865
v 0.09154911 -0.01464195 0.04806927
v 0.09136622 -0.01464195 0.05030202
v 0.09145048 -0.01553011 0.05011419
v 0.09154911 -0.01549836 0.05013420
v 0.09154911 -0.01869581 0.04678897
v 0.08742201 -0.01464195 0.04383050
v 0.09133749 -0.01464195 0.05029646
v 0.09132025 -0.01557217 0.05008085
v 0.09129631 -0.01671432 0.04977412
v 0.09152900 -0.01640795 0.04989414
v 0.09154911 -0.01643097 0.04988970
v 0.08580851 -0.01869581 0.04127101
v 0.08735402 -0.01464195 0.04376271
v 0.09154911 -0.01869581 0.04915841
v 0.09063081 -0.01464195 0.05005529
v 0.09060878 -0.01636906 0.04964408
v 0.09085009 -0.01686552 0.04960741
v 0.09108565 -0.01678655 0.04970410
v 0.09130302 -0.01774455 0.04946404
v 0.09143420 -0.01735246 0.04960630
v 0.09148783 -0.01664923 0.04982190
v 0.09154911 -0.01662780 0.04983302
v 0.08535175 -0.01869581 0.04085092
v 0.08401882 -0.01464195 0.04059308
v 0.09154911 -0.01855175 0.04920954
v 0.09126376 -0.01868946 0.04913730
v 0.09075625 -0.01869581 0.04899504
v 0.09058676 -0.01464195 0.05002528
v 0.08989731 -0.01717626 0.04902950
v 0.09027459 -0.01705442 0.04929178
v 0.09058867 -0.01695203 0.04947738
v 0.09076678 -0.01828547 0.04914508
v 0.09086349 -0.01825134 0.04918953
v 0.09151177 -0.01732428 0.04962408
v 0.09154911 -0.01731079 0.04963075
v 0.08490744 -0.01869581 0.04047860
v 0.08455027 -0.01869581 0.04020521
v 0.08448994 -0.01869581 0.04016186
v 0.08412798 -0.01869581 0.03990958
v 0.08379379 -0.01869581 0.03969953
v 0.08353525 -0.01869581 0.03955283
v 0.08326905 -0.01869581 0.03941836
v 0.08259013 -0.01464195 0.03987513
v 0.09013000 -0.01869581 0.04869608
v 0.08965505 -0.01464195 0.04938847
v 0.08940704 -0.01733341 0.04863163
v 0.08991072 -0.01869581 0.04857606
v 0.08994998 -0.01869581 0.04860384
v 0.08997392 -0.01869581 0.04861829
v 0.08298561 -0.01869581 0.03929166
v 0.08176663 -0.01464195 0.03973065
v 0.08271557 -0.01869581 0.03918941
v 0.08242160 -0.01869581 0.03909717
v 0.08210273 -0.01869581 0.03901937
v 0.08176663 -0.01464195 0.04194450
v 0.08176663 -0.01507015 0.04190227
v 0.08894645 -0.01747866 0.04820819
v 0.08907381 -0.01869581 0.04795147
v 0.08922510 -0.01869581 0.04807594
v 0.08177333 -0.01869581 0.03896158
v 0.08176663 -0.01869581 0.04123100
f 1 2 3
f 1 3 7
f 1 7 14
f 1 14 25
f 1 25 38
f 1 38 28
f 1 28 17
f 1 17 8
f 1 8 4
f 1 4 9
f 1 9 16
f 1 16 27
f 1 27 46
f 1 46 54
f 1 54 58
f 1 58 48
f 1 48 31
f 1 31 18
f 1 18 10
f 1 10 5
f 1 5 2
f 2 5 3
f 3 6 7
f 3 5 6
f 4 8 9
f 5 10 11
f 5 11 6
f 6 11 12
f 6 12 13
f 6 13 7
f 7 13 14
f 8 15 16
f 8 16 9
f 8 17 30
f 8 30 47
f 8 47 52
f 8 52 51
f 8 51 50
f 8 50 62
f 8 62 61
f 8 61 64
f 8 64 63
f 8 63 57
f 8 57 56
f 8 56 55
f 8 55 53
f 8 53 45
f 8 45 44
f 8 44 43
f 8 43 42
f 8 42 41
f 8 41 40
f 8 40 39
f 8 39 26
f 8 26 15
f 10 18 11
f 11 18 19
f 11 19 20
f 11 20 21
f 11 21 12
f 12 21 22
f 12 22 23
f 12 23 24
f 12 24 13
f 13 24 14
f 14 24 25
f 15 26 27
f 15 27 16
f 17 28 29
f 17 29 30
f 18 31 32
f 18 32 33
f 18 33 19
f 19 33 34
f 19 34 20
f 20 34 35
f 20 35 36
f 20 36 21
f 21 36 22
f 22 36 29
f 22 29 28
f 22 28 37
f 22 37 23
f 23 37 24
f 24 37 25
f 25 37 38
f 26 39 27
f 27 39 40
f 27 40 41
f 27 41 42
f 27 42 43
f 27 43 44
f 27 44 45
f 27 45 46
f 28 38 37
f 29 36 30
f 30 36 35
f 30 35 47
f 31 48 32
f 32 48 49
f 32 49 50
f 32 50 51
f 32 51 52
f 32 52 33
f 33 35 34
f 33 52 35
f 35 52 47
f 45 53 46
f 46 53 55
f 46 55 56
f 46 56 57
f 46 57 63
f 46 63 54
f 48 58 59
f 48 59 60
f 48 60 49
f 49 60 61
f 49 61 62
f 49 62 50
f 54 63 64
f 54 64 59
f 54 59 58
f 59 64 60
f 60 64 61

