# https://github.com/mikedh/trimesh

o head_retention_access_shell_right_072.obj
v 0.07261474 -0.03172000 0.03533028
v 0.07187426 -0.02271649 0.04006862
v 0.07495646 -0.02271649 0.03892922
v 0.07341536 -0.03118592 0.03533028
v 0.07541754 -0.03172000 0.03533028
v 0.06261763 -0.03172000 0.03932183
v 0.06261763 -0.02271649 0.04360525
v 0.07532482 -0.02271649 0.03881081
v 0.07395036 -0.03083604 0.03533028
v 0.07541754 -0.02999438 0.03533028
v 0.07541754 -0.03172000 0.03693812
v 0.06261763 -0.03172000 0.04200676
v 0.06261763 -0.02271649 0.04594015
v 0.07541754 -0.02271649 0.03878692
v 0.07538872 -0.03001025 0.03533028
v 0.07541754 -0.02873058 0.03886275
v 0.06741133 -0.02963481 0.04172528
v 0.06686505 -0.03172000 0.04057964
v 0.06285568 -0.03172000 0.04194340
v 0.06261763 -0.03088010 0.04256140
v 0.06261763 -0.02525027 0.04517466
v 0.06299601 -0.02271649 0.04586329
v 0.07541754 -0.02271649 0.04117583
v 0.07541754 -0.02429580 0.04074479
v 0.06775087 -0.02503963 0.04356370
v 0.06570609 -0.02975026 0.04232978
v 0.06594039 -0.03172000 0.04094837
v 0.06261763 -0.02987276 0.04322302
v 0.06392067 -0.03172000 0.04164530
v 0.06261763 -0.02893152 0.04363433
v 0.06371519 -0.02523969 0.04494927
v 0.06400963 -0.02271649 0.04558077
v 0.06762182 -0.02271649 0.04427414
v 0.06672598 -0.02271649 0.04462002
v 0.06484408 -0.02271649 0.04529410
v 0.06416750 -0.02982693 0.04281795
v 0.06506961 -0.03172000 0.04125269
f 1 2 3
f 1 3 4
f 1 4 9
f 1 9 15
f 1 15 10
f 1 10 5
f 1 5 11
f 1 11 18
f 1 18 27
f 1 27 37
f 1 37 29
f 1 29 19
f 1 19 12
f 1 12 6
f 1 6 7
f 1 7 2
f 2 7 13
f 2 13 22
f 2 22 32
f 2 32 35
f 2 35 34
f 2 34 33
f 2 33 23
f 2 23 14
f 2 14 8
f 2 8 3
f 3 8 4
f 4 8 9
f 5 10 14
f 5 14 23
f 5 23 24
f 5 24 16
f 5 16 11
f 6 12 20
f 6 20 28
f 6 28 30
f 6 30 21
f 6 21 13
f 6 13 7
f 8 14 10
f 8 10 15
f 8 15 9
f 11 16 17
f 11 17 18
f 12 19 20
f 13 21 22
f 16 24 25
f 16 25 17
f 17 25 26
f 17 26 18
f 18 26 27
f 19 28 20
f 19 29 28
f 21 30 31
f 21 31 22
f 22 31 32
f 23 33 24
f 24 33 25
f 25 33 34
f 25 34 35
f 25 35 31
f 25 31 26
f 26 31 36
f 26 36 27
f 27 36 37
f 28 29 36
f 28 36 31
f 28 31 30
f 29 37 36
f 31 35 32

