# https://github.com/mikedh/trimesh

o head_frame_with_jaw_retention_081.obj
v 0.01897219 0.00952448 -0.01025005
v 0.01897219 0.00923221 -0.01052092
v 0.01704522 0.00953161 -0.01025335
v 0.01700019 -0.00407166 -0.01025005
v 0.01897219 -0.00407166 -0.01025005
v 0.01950000 -0.00439779 -0.01068829
v 0.01950000 -0.00439779 -0.01328031
v 0.01897219 0.00906469 -0.01066480
v 0.01700019 0.00872786 -0.01094595
v 0.01700019 -0.00867143 -0.01098779
v 0.01738705 -0.00867499 -0.01098779
v 0.01897219 -0.00866252 -0.01098779
v 0.01950000 -0.00711916 -0.01084318
v 0.01950000 -0.00488432 -0.01311845
v 0.01897219 -0.00439779 -0.01328178
v 0.01700019 -0.00412334 -0.01337721
v 0.01897219 -0.00386849 -0.01345025
v 0.01897219 -0.00299879 -0.01367378
v 0.01897219 -0.00277959 -0.01371488
v 0.01897219 -0.00189741 -0.01386647
v 0.01897219 -0.00100633 -0.01396337
v 0.01897219 0.00000237 -0.01399971
v 0.01897219 0.00100573 -0.01396337
v 0.01897219 0.00189682 -0.01386647
v 0.01897219 0.00278255 -0.01371488
v 0.01897219 0.00299998 -0.01367378
v 0.01897219 0.00386967 -0.01345025
v 0.01897219 0.00472333 -0.01317350
v 0.01897219 0.00493184 -0.01310083
v 0.01897219 0.00576233 -0.01275508
v 0.01897219 0.00656609 -0.01235941
v 0.01897219 0.00676213 -0.01225628
v 0.01897219 0.00743757 -0.01185584
v 0.01897219 0.00762826 -0.01173839
v 0.01897219 0.00836251 -0.01122417
v 0.01738705 0.00867439 -0.01098779
v 0.01700019 0.00788489 -0.01156845
v 0.01700019 -0.00788193 -0.01156845
v 0.01897219 -0.00836311 -0.01122417
v 0.01950000 -0.00711916 -0.01204303
v 0.01897219 -0.00493244 -0.01310083
v 0.01950000 -0.00580570 -0.01273746
v 0.01700019 -0.00511244 -0.01303183
v 0.01700019 -0.00311107 -0.01364845
v 0.01700019 -0.00208454 -0.01384261
v 0.01700019 -0.00104554 -0.01396007
v 0.01700019 0.00000237 -0.01399971
v 0.01700019 0.00104494 -0.01396007
v 0.01700019 0.00208394 -0.01384261
v 0.01700019 0.00311225 -0.01364845
v 0.01700019 0.00412274 -0.01337721
v 0.01700019 0.00511184 -0.01303183
v 0.01700019 0.00607065 -0.01261267
v 0.01700019 0.00699559 -0.01212488
v 0.01897219 -0.00762708 -0.01173839
v 0.01700019 -0.00699619 -0.01212488
v 0.01897219 -0.00743817 -0.01185584
v 0.01897219 -0.00676273 -0.01225628
v 0.01950000 -0.00669679 -0.01229115
v 0.01897219 -0.00656669 -0.01235941
v 0.01897219 -0.00586273 -0.01271104
v 0.01700019 -0.00607125 -0.01261267
f 1 2 3
f 1 3 4
f 1 4 5
f 1 5 6
f 1 6 7
f 1 7 2
f 2 8 9
f 2 9 3
f 2 7 8
f 3 9 4
f 4 10 11
f 4 11 5
f 4 9 37
f 4 37 54
f 4 54 53
f 4 53 52
f 4 52 51
f 4 51 50
f 4 50 49
f 4 49 48
f 4 48 47
f 4 47 46
f 4 46 45
f 4 45 44
f 4 44 16
f 4 16 43
f 4 43 62
f 4 62 56
f 4 56 38
f 4 38 10
f 5 11 12
f 5 12 13
f 5 13 6
f 6 13 40
f 6 40 59
f 6 59 42
f 6 42 14
f 6 14 7
f 7 14 15
f 7 15 16
f 7 16 17
f 7 17 18
f 7 18 19
f 7 19 20
f 7 20 21
f 7 21 22
f 7 22 23
f 7 23 24
f 7 24 25
f 7 25 26
f 7 26 27
f 7 27 28
f 7 28 29
f 7 29 30
f 7 30 31
f 7 31 32
f 7 32 33
f 7 33 34
f 7 34 35
f 7 35 8
f 8 35 36
f 8 36 9
f 9 36 37
f 10 38 11
f 11 38 39
f 11 39 12
f 12 39 40
f 12 40 13
f 14 41 16
f 14 16 15
f 14 42 41
f 16 41 43
f 16 44 17
f 17 44 18
f 18 44 45
f 18 45 19
f 19 45 20
f 20 45 46
f 20 46 21
f 21 47 22
f 21 46 47
f 22 47 23
f 23 48 24
f 23 47 48
f 24 49 25
f 24 48 49
f 25 49 50
f 25 50 26
f 26 50 27
f 27 51 28
f 27 50 51
f 28 51 29
f 29 52 30
f 29 51 52
f 30 52 53
f 30 53 31
f 31 53 32
f 32 54 33
f 32 53 54
f 33 54 34
f 34 37 35
f 34 54 37
f 35 37 36
f 38 55 39
f 38 56 55
f 39 55 40
f 40 55 57
f 40 57 58
f 40 58 59
f 41 42 43
f 42 59 60
f 42 60 61
f 42 61 43
f 43 61 62
f 55 56 57
f 56 62 58
f 56 58 57
f 58 62 60
f 58 60 59
f 60 62 61

