# https://github.com/mikedh/trimesh

o head_bill_access_shell_left_107.obj
v 0.04553437 0.03111766 -0.01332132
v 0.04553437 0.03111766 -0.01580374
v 0.04479596 0.03111766 -0.01312111
v 0.04553437 0.02308587 -0.01602791
v 0.04553437 0.03058855 -0.01604331
v 0.03546481 0.03111766 -0.01424709
v 0.04326549 0.03111766 -0.01279027
v 0.04348007 0.02308587 -0.01559041
v 0.04553437 0.02308587 -0.01830669
v 0.04553437 0.02943205 -0.01651104
v 0.03546481 0.03025441 -0.01463041
v 0.02941550 0.02717173 -0.01450549
v 0.02941550 0.02830700 -0.01398984
v 0.02941550 0.02944463 -0.01341544
v 0.03335213 0.03111766 -0.01364075
v 0.04185651 0.02308587 -0.01524531
v 0.04180602 0.03111766 -0.01254671
v 0.04553437 0.02370146 -0.01818976
v 0.03492836 0.02308587 -0.01676830
v 0.04553437 0.02827949 -0.01692858
v 0.03546481 0.02910342 -0.01509016
v 0.02941550 0.02603804 -0.01496923
v 0.02941550 0.03057676 -0.01277829
v 0.02941550 0.03059248 -0.01276859
v 0.02941550 0.03105555 -0.01247940
v 0.02955750 0.03111766 -0.01247940
v 0.02950070 0.02632736 -0.01247940
v 0.03149347 0.02308587 -0.01392481
v 0.04130585 0.03111766 -0.01247940
v 0.04553437 0.02598615 -0.01763418
v 0.02941550 0.02308587 -0.01596745
v 0.04553437 0.02712849 -0.01730220
v 0.03546481 0.02680379 -0.01587732
v 0.03546481 0.02795243 -0.01550370
v 0.02941550 0.02490670 -0.01538563
v 0.02941550 0.02631714 -0.01247940
v 0.02942812 0.02631792 -0.01247940
v 0.02946757 0.02308587 -0.01367440
v 0.03546481 0.02565673 -0.01621329
v 0.02941550 0.02308587 -0.01367269
v 0.02941550 0.02376750 -0.01576324
v 0.02945179 0.02308587 -0.01367383
f 1 2 6
f 1 6 15
f 1 15 26
f 1 26 29
f 1 29 17
f 1 17 7
f 1 7 3
f 1 3 4
f 1 4 9
f 1 9 18
f 1 18 30
f 1 30 32
f 1 32 20
f 1 20 10
f 1 10 5
f 1 5 2
f 2 5 6
f 3 7 4
f 4 7 8
f 4 8 16
f 4 16 28
f 4 28 38
f 4 38 42
f 4 42 40
f 4 40 31
f 4 31 19
f 4 19 9
f 5 10 11
f 5 11 6
f 6 11 12
f 6 12 13
f 6 13 14
f 6 14 15
f 7 16 8
f 7 17 16
f 9 19 18
f 10 20 21
f 10 21 11
f 11 21 22
f 11 22 12
f 12 22 35
f 12 35 41
f 12 41 31
f 12 31 40
f 12 40 36
f 12 36 25
f 12 25 24
f 12 24 23
f 12 23 14
f 12 14 13
f 14 23 15
f 15 23 24
f 15 24 25
f 15 25 26
f 16 17 27
f 16 27 28
f 17 29 27
f 18 19 31
f 18 31 30
f 20 32 33
f 20 33 34
f 20 34 21
f 21 34 35
f 21 35 22
f 25 36 37
f 25 37 27
f 25 27 29
f 25 29 26
f 27 37 38
f 27 38 28
f 30 31 39
f 30 39 32
f 31 41 33
f 31 33 39
f 32 39 33
f 33 41 34
f 34 41 35
f 36 40 37
f 37 42 38
f 37 40 42

