# https://github.com/mikedh/trimesh

o head_bill_access_shell_left_092.obj
v 0.03664105 0.04558093 0.00344833
v 0.03664105 0.04552861 0.00293110
v 0.03647313 0.04556458 0.00344833
v 0.03664105 0.04327014 0.00344833
v 0.03664105 0.04551390 0.00278672
v 0.03647313 0.04549755 0.00279724
v 0.03546371 0.04531527 0.00344833
v 0.03023992 0.04027030 0.00344833
v 0.03023992 0.03723121 -0.00371155
v 0.03165975 0.03791537 -0.00371155
v 0.03664105 0.04065038 -0.00371155
v 0.03664105 0.04537494 0.00190646
v 0.03647313 0.04535859 0.00191767
v 0.03546371 0.04525070 0.00285681
v 0.03344612 0.04429026 0.00344833
v 0.03023992 0.04255737 0.00344833
v 0.03023992 0.03987876 -0.00371155
v 0.03664105 0.04320475 -0.00371155
v 0.03664105 0.04521392 0.00116636
v 0.03647313 0.04516569 0.00102899
v 0.03546371 0.04510684 0.00197654
v 0.03344612 0.04421832 0.00296194
v 0.03023992 0.04257290 0.00344482
v 0.03023992 0.04016158 -0.00326160
v 0.03344612 0.04197212 -0.00336182
v 0.03344612 0.04173998 -0.00371155
v 0.03647313 0.04318268 -0.00371155
v 0.03664105 0.04322028 -0.00368842
v 0.03664105 0.04518122 0.00101848
v 0.03664105 0.04497033 0.00027138
v 0.03647313 0.04491229 0.00013261
v 0.03546371 0.04491066 0.00108787
v 0.03344612 0.04404585 0.00208027
v 0.03023992 0.04250261 0.00309229
v 0.03023992 0.04104192 -0.00141767
v 0.03344612 0.04286717 -0.00152630
v 0.03546371 0.04396657 -0.00162302
v 0.03546371 0.04306253 -0.00345504
v 0.03531960 0.04280995 -0.00371155
v 0.03546371 0.04289169 -0.00371155
v 0.03647313 0.04331674 -0.00351040
v 0.03664105 0.04333227 -0.00352092
v 0.03664105 0.04492783 0.00012210
v 0.03664105 0.04466544 -0.00063062
v 0.03664105 0.04461313 -0.00078060
v 0.03647313 0.04459678 -0.00077008
v 0.03546371 0.04434012 -0.00071332
v 0.03546371 0.04465563 0.00019078
v 0.03344612 0.04382843 0.00118949
v 0.03023992 0.04228436 0.00220572
v 0.03023992 0.04141383 -0.00050166
v 0.03344612 0.04324072 -0.00061450
v 0.03647313 0.04422241 -0.00167979
v 0.03664105 0.04408754 -0.00199517
v 0.03664105 0.04430088 -0.00153962
v 0.03344612 0.04356114 0.00029100
v 0.03023992 0.04203260 0.00131144
v 0.03023992 0.04174325 0.00040804
v 0.03664105 0.04423794 -0.00169030
v 0.03023992 0.04191572 0.00094069
f 1 2 3
f 1 3 7
f 1 7 15
f 1 15 16
f 1 16 8
f 1 8 4
f 1 4 11
f 1 11 18
f 1 18 28
f 1 28 42
f 1 42 54
f 1 54 59
f 1 59 55
f 1 55 45
f 1 45 44
f 1 44 43
f 1 43 30
f 1 30 29
f 1 29 19
f 1 19 12
f 1 12 5
f 1 5 2
f 2 5 3
f 3 5 6
f 3 6 7
f 4 8 9
f 4 9 10
f 4 10 11
f 5 12 6
f 6 12 13
f 6 13 14
f 6 14 7
f 7 14 15
f 8 16 23
f 8 23 34
f 8 34 50
f 8 50 57
f 8 57 60
f 8 60 58
f 8 58 51
f 8 51 35
f 8 35 24
f 8 24 17
f 8 17 9
f 9 17 26
f 9 26 39
f 9 39 40
f 9 40 27
f 9 27 18
f 9 18 11
f 9 11 10
f 12 19 20
f 12 20 13
f 13 20 21
f 13 21 14
f 14 21 22
f 14 22 15
f 15 22 23
f 15 23 16
f 17 24 25
f 17 25 26
f 18 27 28
f 19 29 20
f 20 29 30
f 20 30 31
f 20 31 32
f 20 32 21
f 21 32 33
f 21 33 22
f 22 33 23
f 23 33 34
f 24 35 36
f 24 36 25
f 25 36 37
f 25 37 38
f 25 38 26
f 26 38 39
f 27 40 41
f 27 41 42
f 27 42 28
f 30 43 31
f 31 43 44
f 31 44 45
f 31 45 46
f 31 46 47
f 31 47 48
f 31 48 32
f 32 48 49
f 32 49 33
f 33 49 34
f 34 49 50
f 35 51 52
f 35 52 36
f 36 52 47
f 36 47 37
f 37 47 46
f 37 46 53
f 37 53 38
f 38 53 41
f 38 41 40
f 38 40 39
f 41 53 54
f 41 54 42
f 45 55 46
f 46 55 53
f 47 52 56
f 47 56 48
f 48 56 49
f 49 56 57
f 49 57 50
f 51 58 52
f 52 58 56
f 53 55 59
f 53 59 54
f 56 58 60
f 56 60 57

