# https://github.com/mikedh/trimesh

o head_motor_jaw_frame_123.obj
v 0.09026946 0.02524280 -0.00538996
v 0.08756409 0.02524280 -0.00538996
v 0.09027080 0.02414315 -0.00538996
v 0.09035048 0.02524280 -0.00562449
v 0.08847148 0.02524280 -0.01022976
v 0.08847148 0.01950000 -0.01022976
v 0.08756443 0.01950000 -0.00538996
v 0.09026777 0.02125517 -0.00538996
v 0.09037670 0.01950000 -0.00568372
v 0.09045504 0.02524280 -0.00592914
v 0.09097345 0.02524280 -0.01022976
v 0.09097278 0.01950000 -0.01022976
v 0.09026576 0.01950000 -0.00538996
v 0.09062851 0.01950000 -0.00653797
v 0.09049067 0.02524280 -0.00604996
v 0.09098219 0.02524280 -0.01002982
v 0.09097379 0.02508651 -0.01022976
v 0.09098623 0.01950000 -0.01007009
v 0.09097614 0.02275229 -0.01022976
v 0.09055724 0.02350000 -0.00628212
v 0.09081611 0.01950000 -0.00740880
v 0.09074248 0.02524280 -0.00703924
v 0.09068936 0.02524280 -0.00679381
v 0.09060935 0.02483296 -0.00648585
v 0.09052597 0.02524280 -0.00617030
v 0.09099598 0.02524280 -0.00970764
v 0.09098253 0.02483296 -0.01003266
v 0.09099396 0.02216704 -0.00960530
v 0.09099564 0.01950000 -0.00917936
v 0.09087764 0.01950000 -0.00784942
v 0.09085881 0.02524280 -0.00767270
v 0.09078821 0.02524280 -0.00728798
v 0.09059019 0.02524280 -0.00641525
v 0.09099732 0.02524280 -0.00958208
v 0.09093882 0.01950000 -0.00829052
v 0.09099766 0.02350000 -0.00937267
v 0.09098824 0.02524280 -0.00913435
v 0.09097782 0.02524280 -0.00881265
v 0.09096202 0.02524280 -0.00856201
v 0.09090722 0.02350000 -0.00803326
v 0.09089344 0.02524280 -0.00792144
v 0.09099833 0.02524280 -0.00945653
f 1 2 7
f 1 7 13
f 1 13 8
f 1 8 3
f 1 3 4
f 1 4 10
f 1 10 15
f 1 15 25
f 1 25 33
f 1 33 23
f 1 23 22
f 1 22 32
f 1 32 31
f 1 31 41
f 1 41 39
f 1 39 38
f 1 38 37
f 1 37 42
f 1 42 34
f 1 34 26
f 1 26 16
f 1 16 11
f 1 11 5
f 1 5 2
f 2 5 6
f 2 6 7
f 3 8 9
f 3 9 4
f 4 9 10
f 5 11 17
f 5 17 19
f 5 19 12
f 5 12 6
f 6 12 18
f 6 18 29
f 6 29 35
f 6 35 30
f 6 30 21
f 6 21 14
f 6 14 9
f 6 9 13
f 6 13 7
f 8 13 9
f 9 14 15
f 9 15 10
f 11 16 17
f 12 19 18
f 14 20 15
f 14 21 22
f 14 22 23
f 14 23 24
f 14 24 20
f 15 20 25
f 16 26 27
f 16 27 17
f 17 27 19
f 18 28 29
f 18 19 27
f 18 27 26
f 18 26 28
f 20 24 25
f 21 30 31
f 21 31 32
f 21 32 22
f 23 33 24
f 24 33 25
f 26 34 28
f 28 34 29
f 29 34 36
f 29 36 37
f 29 37 38
f 29 38 39
f 29 39 35
f 30 35 40
f 30 40 41
f 30 41 31
f 34 42 36
f 35 39 40
f 36 42 37
f 39 41 40

