# https://github.com/mikedh/trimesh

o head_frame_with_jaw_retention_012.obj
v 0.06282889 0.02525039 0.03034919
v 0.06282985 0.02925000 0.03034919
v 0.06554676 0.02525039 0.03034919
v 0.05570423 0.02525039 0.03503234
v 0.05570423 0.02925000 0.03503100
v 0.06554676 0.02925000 0.03034919
v 0.06505058 0.02525039 0.03093567
v 0.05570423 0.02525039 0.03716407
v 0.05570423 0.02925000 0.03716407
v 0.06505058 0.02925000 0.03093567
v 0.06394263 0.02525039 0.03207793
v 0.05589885 0.02525039 0.03710069
v 0.05589885 0.02925000 0.03710069
v 0.06394263 0.02925000 0.03207793
v 0.06275759 0.02525039 0.03314147
v 0.05737388 0.02525039 0.03650287
v 0.05737388 0.02925000 0.03650287
v 0.06275759 0.02925000 0.03314147
v 0.06150223 0.02525039 0.03411893
v 0.05880459 0.02525039 0.03580430
v 0.05880459 0.02925000 0.03580430
v 0.06150223 0.02925000 0.03411893
v 0.06018328 0.02525039 0.03500832
v 0.06018328 0.02925000 0.03500832
f 1 2 6
f 1 6 3
f 1 3 7
f 1 7 11
f 1 11 15
f 1 15 19
f 1 19 23
f 1 23 20
f 1 20 16
f 1 16 12
f 1 12 8
f 1 8 4
f 1 4 5
f 1 5 2
f 2 5 9
f 2 9 13
f 2 13 17
f 2 17 21
f 2 21 24
f 2 24 22
f 2 22 18
f 2 18 14
f 2 14 10
f 2 10 6
f 3 6 10
f 3 10 7
f 4 8 9
f 4 9 5
f 7 10 14
f 7 14 11
f 8 12 13
f 8 13 9
f 11 14 18
f 11 18 15
f 12 16 17
f 12 17 13
f 15 18 22
f 15 22 19
f 16 20 21
f 16 21 17
f 19 22 24
f 19 24 23
f 20 23 24
f 20 24 21

