# https://github.com/mikedh/trimesh

o head_motor_jaw_frame_067.obj
v 0.07083295 -0.03117447 -0.01062198
v 0.07083295 -0.03100003 -0.01062198
v 0.07083295 -0.03175000 -0.01062167
v 0.06958391 -0.03175000 -0.00961438
v 0.06690106 -0.03138308 -0.00745080
v 0.07083295 -0.03100003 -0.00745080
v 0.06690106 -0.03135024 -0.00745080
v 0.06690145 -0.03099775 -0.00745111
v 0.06949461 -0.03099775 -0.00954236
v 0.06950000 -0.03099775 -0.00954360
v 0.06972556 -0.03099775 -0.00745080
v 0.07083295 -0.03175000 -0.00745080
v 0.06690145 -0.03175000 -0.00745080
v 0.06690145 -0.03099812 -0.00745080
v 0.06719321 -0.03099775 -0.00745080
f 1 2 6
f 1 6 12
f 1 12 3
f 1 3 4
f 1 4 5
f 1 5 7
f 1 7 2
f 2 7 8
f 2 8 9
f 2 9 10
f 2 10 11
f 2 11 6
f 3 12 13
f 3 13 4
f 4 13 5
f 5 13 12
f 5 12 6
f 5 6 11
f 5 11 15
f 5 15 14
f 5 14 7
f 7 14 8
f 8 14 15
f 8 15 11
f 8 11 10
f 8 10 9

