# https://github.com/mikedh/trimesh

o head_bill_access_shell_left_039.obj
v 0.01838938 0.02273714 0.05040987
v 0.01838938 0.01834026 0.05040987
v 0.01838938 0.02273714 0.04839934
v 0.01355295 0.02273714 0.05040987
v 0.01838938 0.01834026 0.04971659
v 0.01255033 0.01834026 0.05040987
v 0.01255033 0.02273714 0.04780746
v 0.01255033 0.02273714 0.05024374
v 0.01322427 0.02261877 0.05040987
v 0.01255033 0.01834026 0.04943352
v 0.01255033 0.02233683 0.05040987
v 0.01255033 0.02248533 0.05035942
v 0.01300991 0.02252924 0.05040987
v 0.01255033 0.02239623 0.05038974
f 1 2 5
f 1 5 3
f 1 3 7
f 1 7 8
f 1 8 4
f 1 4 9
f 1 9 13
f 1 13 11
f 1 11 6
f 1 6 2
f 2 6 10
f 2 10 5
f 3 5 7
f 4 8 9
f 5 10 7
f 6 11 14
f 6 14 12
f 6 12 8
f 6 8 7
f 6 7 10
f 8 12 9
f 9 12 13
f 11 13 14
f 12 14 13

