# https://github.com/mikedh/trimesh

o head_bill_access_shell_left_113.obj
v 0.09121005 0.02426468 0.04636948
v 0.09100154 0.02427451 0.04635874
v 0.09071282 0.02426468 0.04631326
v 0.09142909 0.02426468 0.04635242
v 0.09132554 0.02505378 0.04581299
v 0.09122742 0.02510420 0.04578456
v 0.09112949 0.02515397 0.04575298
v 0.09061612 0.02494049 0.04586541
v 0.09070229 0.02442774 0.04622420
v 0.09039199 0.02426468 0.04621788
v 0.09038918 0.02457574 0.04605618
v 0.09154054 0.02426468 0.04633537
v 0.09154352 0.02473356 0.04600754
v 0.09142330 0.02500270 0.04583699
v 0.09122058 0.02591360 0.04516427
v 0.09044429 0.02642896 0.04473347
v 0.09010239 0.02470998 0.04587615
v 0.09014557 0.02658023 0.04455282
v 0.09008379 0.02426468 0.04609976
v 0.09154352 0.02426468 0.04333623
v 0.09154352 0.02609695 0.04493182
v 0.09154072 0.02494114 0.04585973
v 0.09154352 0.02655077 0.04454903
v 0.09140329 0.02682122 0.04435384
v 0.09129710 0.02688015 0.04432668
v 0.09119074 0.02693844 0.04429573
v 0.09095012 0.02662345 0.04460019
v 0.09033512 0.02694368 0.04429510
v 0.08977980 0.02676294 0.04429699
v 0.08975435 0.02490447 0.04560327
v 0.08977225 0.02426468 0.04595069
v 0.08975049 0.02426468 0.04307030
v 0.09154352 0.02735950 0.03991704
v 0.09154352 0.02667322 0.04444417
v 0.09152650 0.02676556 0.04436585
v 0.09152825 0.02760442 0.04355858
v 0.09127710 0.02774849 0.04349983
v 0.09101488 0.02789583 0.04341456
v 0.09108473 0.02699672 0.04426036
v 0.09097837 0.02705434 0.04422056
v 0.09086043 0.02711721 0.04417319
v 0.09049923 0.02818003 0.04318021
v 0.09018839 0.02834767 0.04300145
v 0.08985229 0.02852776 0.04277595
v 0.08975049 0.02858145 0.04269762
v 0.08975049 0.02814336 0.03991704
v 0.09154352 0.03045367 0.03991704
v 0.09154352 0.02780349 0.04332234
v 0.09084358 0.02957421 0.04157705
v 0.09073178 0.02805299 0.04329644
v 0.09072704 0.02964166 0.04152589
v 0.08989950 0.03011380 0.04104898
v 0.08975049 0.03019762 0.04094223
v 0.08975049 0.02941180 0.04180003
v 0.08975049 0.03065209 0.04032889
v 0.08978700 0.03095463 0.03991704
v 0.09102260 0.03071561 0.03991704
v 0.09154352 0.02959778 0.04119679
v 0.09154352 0.02849043 0.04252897
v 0.09154352 0.02915183 0.04176402
v 0.09154352 0.02948384 0.04135281
v 0.09093379 0.03074639 0.03991704
v 0.09018225 0.03091534 0.03991704
v 0.08992864 0.03095136 0.03991704
f 1 2 3
f 1 3 10
f 1 10 19
f 1 19 31
f 1 31 32
f 1 32 20
f 1 20 12
f 1 12 4
f 1 4 5
f 1 5 6
f 1 6 7
f 1 7 2
f 2 7 8
f 2 8 9
f 2 9 3
f 3 9 11
f 3 11 10
f 4 12 13
f 4 13 14
f 4 14 5
f 5 14 15
f 5 15 6
f 6 15 7
f 7 15 16
f 7 16 8
f 8 17 11
f 8 11 9
f 8 16 18
f 8 18 17
f 10 11 19
f 11 17 19
f 12 20 13
f 13 20 33
f 13 33 47
f 13 47 58
f 13 58 61
f 13 61 60
f 13 60 59
f 13 59 48
f 13 48 34
f 13 34 23
f 13 23 21
f 13 21 22
f 13 22 14
f 14 22 15
f 15 22 21
f 15 21 23
f 15 23 24
f 15 24 25
f 15 25 26
f 15 26 27
f 15 27 16
f 16 27 28
f 16 28 18
f 17 18 29
f 17 29 30
f 17 30 31
f 17 31 19
f 18 28 29
f 20 32 33
f 23 34 24
f 24 35 36
f 24 36 37
f 24 37 25
f 24 34 35
f 25 37 26
f 26 37 38
f 26 38 39
f 26 39 27
f 27 39 40
f 27 40 41
f 27 41 28
f 28 41 42
f 28 42 43
f 28 43 44
f 28 44 29
f 29 44 45
f 29 45 30
f 30 32 31
f 30 45 32
f 32 45 54
f 32 54 53
f 32 53 55
f 32 55 46
f 32 46 33
f 33 46 56
f 33 56 64
f 33 64 63
f 33 63 62
f 33 62 57
f 33 57 47
f 34 48 36
f 34 36 35
f 36 48 37
f 37 48 49
f 37 49 38
f 38 50 40
f 38 40 39
f 38 49 51
f 38 51 50
f 40 50 41
f 41 50 42
f 42 50 51
f 42 51 52
f 42 52 43
f 43 52 44
f 44 52 53
f 44 53 54
f 44 54 45
f 46 55 56
f 47 57 58
f 48 59 49
f 49 60 61
f 49 61 58
f 49 58 57
f 49 57 62
f 49 62 51
f 49 59 60
f 51 62 63
f 51 63 52
f 52 63 64
f 52 64 55
f 52 55 53
f 55 64 56

