# https://github.com/mikedh/trimesh

o head_frame_with_jaw_retention_212.obj
v 0.09700000 -0.02500777 -0.00950037
v 0.09700000 -0.02823819 -0.00950037
v 0.09699031 -0.02500777 -0.00976041
v 0.09699031 -0.02500777 -0.00924032
v 0.09699031 -0.02823819 -0.00976041
v 0.09699031 -0.02823819 -0.00924032
v 0.09696092 -0.02500777 -0.01001918
v 0.09696092 -0.02500777 -0.00898155
v 0.09696092 -0.02823819 -0.01001918
v 0.09696092 -0.02823819 -0.00898155
v 0.09691313 -0.02500777 -0.01027540
v 0.09690182 -0.02500777 -0.00868405
v 0.09691313 -0.02823819 -0.01027540
v 0.09690182 -0.02823819 -0.00868405
v 0.09684595 -0.02500777 -0.01052651
v 0.09440832 -0.02500777 -0.00864234
v 0.09684595 -0.02823819 -0.01052651
v 0.09440832 -0.02823819 -0.00864234
v 0.09679105 -0.02500777 -0.01068441
v 0.09370074 -0.02500777 -0.01073335
v 0.09675100 -0.02823819 -0.01079422
v 0.09676005 -0.02500777 -0.01077251
v 0.09370074 -0.02823819 -0.01073335
v 0.09374563 -0.02500777 -0.01298993
v 0.09665670 -0.02823819 -0.01101043
v 0.09667543 -0.02500777 -0.01096786
v 0.09374563 -0.02823819 -0.01298993
v 0.09388256 -0.02500777 -0.01297631
v 0.09653560 -0.02823819 -0.01124110
v 0.09658856 -0.02500777 -0.01114024
v 0.09404855 -0.02823819 -0.01295631
v 0.09404855 -0.02500777 -0.01295631
v 0.09639802 -0.02823819 -0.01146157
v 0.09645809 -0.02500777 -0.01136538
v 0.09653560 -0.02500777 -0.01124110
v 0.09428108 -0.02823819 -0.01291034
v 0.09430433 -0.02500777 -0.01290566
v 0.09639802 -0.02500777 -0.01146157
v 0.09624430 -0.02823819 -0.01167182
v 0.09455494 -0.02823819 -0.01283671
v 0.09455494 -0.02500777 -0.01283671
v 0.09624430 -0.02500777 -0.01167182
v 0.09607507 -0.02823819 -0.01186973
v 0.09466216 -0.02500777 -0.01279840
v 0.09480006 -0.02823819 -0.01274903
v 0.09607507 -0.02500777 -0.01186973
v 0.09589196 -0.02823819 -0.01205444
v 0.09592457 -0.02500777 -0.01202167
v 0.09480006 -0.02500777 -0.01274903
v 0.09488564 -0.02500777 -0.01271158
v 0.09501676 -0.02823819 -0.01265327
v 0.09567622 -0.02823819 -0.01223916
v 0.09569528 -0.02500777 -0.01222511
v 0.09578086 -0.02500777 -0.01215063
v 0.09507941 -0.02500777 -0.01262135
v 0.09524702 -0.02823819 -0.01253155
v 0.09546695 -0.02823819 -0.01239365
v 0.09548665 -0.02500777 -0.01238088
v 0.09556125 -0.02500777 -0.01232555
v 0.09526769 -0.02500777 -0.01252048
v 0.09534617 -0.02500777 -0.01247069
f 1 2 5
f 1 5 3
f 1 3 7
f 1 7 11
f 1 11 15
f 1 15 19
f 1 19 22
f 1 22 26
f 1 26 30
f 1 30 35
f 1 35 34
f 1 34 38
f 1 38 42
f 1 42 46
f 1 46 48
f 1 48 54
f 1 54 53
f 1 53 59
f 1 59 58
f 1 58 61
f 1 61 60
f 1 60 55
f 1 55 50
f 1 50 49
f 1 49 44
f 1 44 41
f 1 41 37
f 1 37 32
f 1 32 28
f 1 28 24
f 1 24 20
f 1 20 16
f 1 16 12
f 1 12 8
f 1 8 4
f 1 4 6
f 1 6 2
f 2 6 10
f 2 10 14
f 2 14 18
f 2 18 23
f 2 23 27
f 2 27 31
f 2 31 36
f 2 36 40
f 2 40 45
f 2 45 51
f 2 51 56
f 2 56 57
f 2 57 52
f 2 52 47
f 2 47 43
f 2 43 39
f 2 39 33
f 2 33 29
f 2 29 25
f 2 25 21
f 2 21 17
f 2 17 13
f 2 13 9
f 2 9 5
f 3 5 9
f 3 9 7
f 4 8 10
f 4 10 6
f 7 9 13
f 7 13 11
f 8 12 14
f 8 14 10
f 11 13 17
f 11 17 15
f 12 16 18
f 12 18 14
f 15 17 19
f 16 20 23
f 16 23 18
f 17 21 22
f 17 22 19
f 20 24 27
f 20 27 23
f 21 25 26
f 21 26 22
f 24 28 27
f 25 29 30
f 25 30 26
f 27 28 31
f 28 32 31
f 29 33 34
f 29 34 35
f 29 35 30
f 31 32 36
f 32 37 36
f 33 38 34
f 33 39 42
f 33 42 38
f 36 37 40
f 37 41 40
f 39 43 46
f 39 46 42
f 40 41 44
f 40 44 45
f 43 47 48
f 43 48 46
f 44 49 45
f 45 49 50
f 45 50 51
f 47 52 53
f 47 53 54
f 47 54 48
f 50 55 51
f 51 55 56
f 52 57 58
f 52 58 59
f 52 59 53
f 55 60 56
f 56 60 57
f 57 60 61
f 57 61 58

