# https://github.com/mikedh/trimesh

o head_frame_with_jaw_retention_118.obj
v 0.04025840 -0.02825000 0.03607701
v 0.03938097 -0.02825000 0.03574088
v 0.04025840 -0.03174966 0.03607701
v 0.04025840 -0.02825000 0.02830854
v 0.03792354 -0.02825000 0.03505643
v 0.03938097 -0.03174966 0.03574088
v 0.04025840 -0.03174966 0.02830854
v 0.03520317 -0.02825000 0.02830854
v 0.03652104 -0.02825000 0.03426704
v 0.03792354 -0.03174966 0.03505643
v 0.03520317 -0.03174966 0.02830854
v 0.03520317 -0.02825000 0.03339399
v 0.03652104 -0.03174966 0.03426704
v 0.03520317 -0.03174966 0.03339399
f 1 2 6
f 1 6 3
f 1 3 7
f 1 7 4
f 1 4 8
f 1 8 12
f 1 12 9
f 1 9 5
f 1 5 2
f 2 5 10
f 2 10 6
f 3 6 10
f 3 10 13
f 3 13 14
f 3 14 11
f 3 11 7
f 4 7 11
f 4 11 8
f 5 9 13
f 5 13 10
f 8 11 14
f 8 14 12
f 9 12 14
f 9 14 13

