# https://github.com/mikedh/trimesh

o head_motor_jaw_frame_145.obj
v 0.01700016 -0.01146497 0.00802487
v 0.01753581 -0.01146710 0.00802487
v 0.01700016 -0.01094535 0.00872886
v 0.01700016 -0.00605076 0.00802487
v 0.01851540 -0.01146392 0.00802487
v 0.01865222 -0.01131598 0.00823199
v 0.01865222 -0.01125765 0.00831331
v 0.01865222 -0.01115267 0.00845613
v 0.01783323 -0.01120410 0.00838262
v 0.01865222 -0.01104715 0.00859886
v 0.01865222 -0.01082551 0.00886657
v 0.01865222 -0.01067864 0.00904364
v 0.01834607 -0.01067599 0.00904795
v 0.01819259 -0.01067546 0.00904795
v 0.01700016 -0.01067069 0.00904795
v 0.01865222 -0.00605076 0.00802487
v 0.01700016 -0.00702692 0.00904795
v 0.01865222 -0.01146338 0.00802487
v 0.01865222 -0.01145967 0.00803018
v 0.01865222 -0.01067493 0.00904795
v 0.01865222 -0.00702692 0.00904795
f 1 2 3
f 1 3 15
f 1 15 17
f 1 17 4
f 1 4 16
f 1 16 18
f 1 18 5
f 1 5 2
f 2 5 6
f 2 6 7
f 2 7 8
f 2 8 9
f 2 9 3
f 3 10 11
f 3 11 12
f 3 12 13
f 3 13 14
f 3 14 15
f 3 9 8
f 3 8 10
f 4 17 21
f 4 21 16
f 5 18 19
f 5 19 6
f 6 19 18
f 6 18 16
f 6 16 21
f 6 21 20
f 6 20 12
f 6 12 11
f 6 11 10
f 6 10 8
f 6 8 7
f 12 20 13
f 13 20 21
f 13 21 17
f 13 17 15
f 13 15 14

