# https://github.com/mikedh/trimesh

o head_frame_with_jaw_retention_234.obj
v 0.08839934 0.02549978 -0.02050665
v 0.08726019 0.02549978 -0.02050665
v 0.08839934 0.02150003 -0.02050665
v 0.08839934 0.02649944 -0.02084265
v 0.08827880 0.02649944 -0.02081030
v 0.08802156 0.02649944 -0.02076178
v 0.08776163 0.02649944 -0.02073251
v 0.08750004 0.02649944 -0.02072247
v 0.08726019 0.02150003 -0.02050665
v 0.08726019 0.02649944 -0.02073167
v 0.08749491 0.02080740 -0.02072247
v 0.08766618 0.02080740 -0.02072860
v 0.08775673 0.02080740 -0.02073195
v 0.08801698 0.02080740 -0.02076095
v 0.08818547 0.02080740 -0.02079246
v 0.08827445 0.02080740 -0.02080947
v 0.08839934 0.02080740 -0.02084265
v 0.08839934 0.02649944 -0.02335521
v 0.08726019 0.02080740 -0.02073167
v 0.08726019 0.02649944 -0.02299635
v 0.08839934 0.02080740 -0.02335521
v 0.08726019 0.02080740 -0.02299635
f 1 2 9
f 1 9 3
f 1 3 17
f 1 17 21
f 1 21 18
f 1 18 4
f 1 4 5
f 1 5 6
f 1 6 7
f 1 7 8
f 1 8 2
f 2 8 10
f 2 10 20
f 2 20 22
f 2 22 19
f 2 19 9
f 3 9 11
f 3 11 12
f 3 12 13
f 3 13 14
f 3 14 15
f 3 15 16
f 3 16 17
f 4 18 20
f 4 20 10
f 4 10 8
f 4 8 7
f 4 7 6
f 4 6 5
f 9 19 11
f 11 19 22
f 11 22 21
f 11 21 17
f 11 17 16
f 11 16 15
f 11 15 14
f 11 14 13
f 11 13 12
f 18 21 22
f 18 22 20

