# https://github.com/mikedh/trimesh

o head_frame_with_jaw_retention_078.obj
v 0.02989552 -0.02825446 0.00300170
v 0.02989552 -0.02825000 0.00300170
v 0.02990006 -0.03174966 0.00300170
v 0.02904299 -0.03174966 0.00433797
v 0.02904299 -0.02825000 0.00433797
v 0.04239117 -0.02825000 0.00300170
v 0.04239117 -0.03174966 0.00300170
v 0.02828738 -0.03174966 0.00573354
v 0.02828738 -0.02825000 0.00573354
v 0.04239117 -0.02825000 0.00722813
v 0.04239117 -0.03174966 0.00722813
v 0.02763473 -0.03174966 0.00717923
v 0.02763473 -0.02825000 0.00717923
v 0.04020307 -0.02825000 0.00924660
v 0.04020307 -0.03174966 0.00924660
v 0.02708809 -0.03174966 0.00866894
v 0.02708809 -0.02825000 0.00866894
v 0.02692152 -0.02825000 0.00924660
v 0.02692152 -0.03174966 0.00924660
f 1 2 6
f 1 6 7
f 1 7 3
f 1 3 4
f 1 4 5
f 1 5 2
f 2 5 9
f 2 9 13
f 2 13 17
f 2 17 18
f 2 18 14
f 2 14 10
f 2 10 6
f 3 7 11
f 3 11 15
f 3 15 19
f 3 19 16
f 3 16 12
f 3 12 8
f 3 8 4
f 4 8 9
f 4 9 5
f 6 10 11
f 6 11 7
f 8 12 13
f 8 13 9
f 10 14 15
f 10 15 11
f 12 16 17
f 12 17 13
f 14 18 19
f 14 19 15
f 16 19 18
f 16 18 17

