# https://github.com/mikedh/trimesh

o hinged_lower_bill_004.obj
v 0.02652163 0.02164534 -0.02721414
v 0.02603040 0.01425612 -0.03354626
v 0.02639718 0.01074393 -0.02408777
v 0.04100974 0.01384732 -0.02422840
v 0.03400803 0.02128929 -0.02712995
v 0.05500661 0.02022112 -0.02832003
v 0.04100974 0.02075740 -0.03023431
v 0.02603040 0.00150851 -0.03377395
v 0.02603040 -0.01539307 -0.03351087
v 0.02627929 -0.00150696 -0.02400359
v 0.03400803 0.01511329 -0.03326022
v 0.03750561 0.00779000 -0.03336546
v 0.04100974 0.00598776 -0.02401028
v 0.05150903 0.01010216 -0.02410595
v 0.06899693 0.01244508 -0.02430207
v 0.04800490 0.02011563 -0.02695966
v 0.06199522 0.01749138 -0.02669658
v 0.06899693 0.01610672 -0.02788093
v 0.07705316 0.01138131 -0.02949099
v 0.06199522 0.00942522 -0.03207875
v 0.03400803 -0.00153334 -0.03351565
v 0.02603040 -0.00808737 -0.03374716
v 0.02653473 -0.02326143 -0.02975311
v 0.02652163 -0.01435128 -0.02423510
v 0.03400803 -0.01420183 -0.03328510
v 0.04800490 -0.01341939 -0.03277902
v 0.04100974 -0.02075586 -0.03023431
v 0.03400803 -0.00795550 -0.02405046
v 0.04100974 -0.00598621 -0.02401028
v 0.04450732 -0.00288722 -0.02400167
v 0.04450732 0.00288877 -0.02400167
v 0.05150903 0.01056371 -0.03268623
v 0.04800490 -0.00144982 -0.03299618
v 0.05500661 0.00269535 -0.02400167
v 0.07599210 -0.00047836 -0.02400072
v 0.06811927 0.00518334 -0.02403994
v 0.07758369 0.00685371 -0.02411456
v 0.09294292 0.00386901 -0.02538500
v 0.08661584 0.00758341 -0.02793067
v 0.07705316 0.00187335 -0.03085040
v 0.06899693 0.00765374 -0.03159564
v 0.05850419 -0.00131795 -0.03241645
v 0.04100974 -0.00775769 -0.03324013
v 0.04800490 -0.02011848 -0.02695966
v 0.03400803 -0.02129214 -0.02712995
v 0.05500661 -0.01898878 -0.02860512
v 0.04100974 -0.01384577 -0.02422840
v 0.05150903 -0.01010061 -0.02410595
v 0.05500661 -0.01016655 -0.03255325
v 0.06199522 -0.01166549 -0.03200030
v 0.06899693 -0.01610518 -0.02788093
v 0.06811927 -0.00518179 -0.02403994
v 0.05500661 -0.00269820 -0.02400167
v 0.07758369 -0.00685217 -0.02411456
v 0.08661584 -0.00958192 -0.02667362
v 0.09188841 -0.00345427 -0.02662866
v 0.08343264 -0.00289601 -0.02991670
v 0.07599210 -0.00713789 -0.03093076
v 0.06899693 -0.00111574 -0.03166165
v 0.06899693 -0.00826759 -0.03158894
v 0.06199522 -0.01749423 -0.02669658
v 0.06899693 -0.01244793 -0.02430207
v 0.07705316 -0.01334906 -0.02749826
f 1 2 3
f 1 3 4
f 1 4 5
f 1 5 6
f 1 6 7
f 1 7 2
f 2 8 22
f 2 22 9
f 2 9 10
f 2 10 3
f 2 7 11
f 2 11 12
f 2 12 8
f 3 10 13
f 3 13 14
f 3 14 4
f 4 14 15
f 4 15 16
f 4 16 5
f 5 16 6
f 6 17 18
f 6 18 19
f 6 19 7
f 6 16 17
f 7 19 20
f 7 20 11
f 8 21 22
f 8 12 21
f 9 23 24
f 9 24 10
f 9 22 25
f 9 25 26
f 9 26 27
f 9 27 23
f 10 24 28
f 10 28 29
f 10 29 30
f 10 30 31
f 10 31 13
f 11 20 32
f 11 32 12
f 12 33 21
f 12 32 33
f 13 31 34
f 13 34 35
f 13 35 36
f 13 36 14
f 14 36 37
f 14 37 15
f 15 37 38
f 15 38 18
f 15 18 17
f 15 17 16
f 18 38 39
f 18 39 19
f 19 39 40
f 19 40 41
f 19 41 20
f 20 41 42
f 20 42 32
f 21 33 43
f 21 43 22
f 22 43 25
f 23 44 45
f 23 45 24
f 23 27 46
f 23 46 44
f 24 45 47
f 24 47 48
f 24 48 28
f 25 43 26
f 26 43 49
f 26 49 50
f 26 50 27
f 27 50 51
f 27 51 46
f 28 48 29
f 29 48 52
f 29 52 35
f 29 35 53
f 29 53 30
f 30 53 35
f 30 35 31
f 31 35 34
f 32 42 33
f 33 42 49
f 33 49 43
f 35 54 37
f 35 37 36
f 35 52 54
f 37 54 38
f 38 54 55
f 38 55 56
f 38 56 39
f 39 56 57
f 39 57 40
f 40 58 59
f 40 59 41
f 40 57 58
f 41 59 42
f 42 59 60
f 42 60 49
f 44 46 61
f 44 61 62
f 44 62 47
f 44 47 45
f 46 51 61
f 47 62 48
f 48 62 54
f 48 54 52
f 49 60 50
f 50 60 58
f 50 58 63
f 50 63 51
f 51 63 61
f 54 62 55
f 55 62 61
f 55 61 63
f 55 63 58
f 55 58 57
f 55 57 56
f 58 60 59

