# https://github.com/mikedh/trimesh

o hinged_lower_bill_001.obj
v 0.01852286 -0.00307383 -0.02400205
v 0.01010338 -0.00455878 -0.02400716
v 0.01499881 -0.00464292 -0.02400614
v 0.01852286 -0.00773656 -0.02402660
v 0.01852286 0.01344369 -0.02415143
v 0.01676084 0.00967193 -0.02404809
v 0.01676084 0.00465777 -0.02400614
v 0.01010338 0.00452413 -0.02400716
v 0.01010338 -0.00943929 -0.02405116
v 0.01499881 -0.00964223 -0.02404911
v 0.01852286 -0.01289426 -0.02413609
v 0.01852286 0.01741839 -0.02439598
v 0.01499881 0.01335459 -0.02415348
v 0.01010338 0.00936504 -0.02404911
v 0.01010338 -0.01306255 -0.02415962
v 0.01499881 -0.01335459 -0.02415348
v 0.01852286 -0.01683431 -0.02435915
v 0.01852286 0.02126439 -0.02490554
v 0.01499881 0.01730454 -0.02440212
v 0.01010338 0.01302295 -0.02415757
v 0.01010338 -0.01691846 -0.02441747
v 0.01499881 -0.01730454 -0.02440212
v 0.01852286 -0.02070506 -0.02482880
v 0.01852286 0.02528364 -0.02748606
v 0.01499881 0.02451642 -0.02633802
v 0.01499881 0.02112580 -0.02491884
v 0.01010338 0.01683431 -0.02440928
v 0.01010338 -0.02063081 -0.02494851
v 0.01499881 -0.02112580 -0.02491884
v 0.01852286 -0.02442237 -0.02619171
v 0.01499881 0.02511534 -0.03069381
v 0.01010338 0.02449662 -0.03084524
v 0.01010338 0.02390759 -0.02639123
v 0.01852286 0.02442237 -0.03187459
v 0.01010338 0.02060112 -0.02494033
v 0.01010338 -0.02391254 -0.02639737
v 0.01499881 -0.02451642 -0.02633802
v 0.01852286 -0.02528364 -0.03058023
v 0.01010338 0.02063081 -0.03351172
v 0.01852286 0.02070506 -0.03323647
v 0.01499881 0.02112580 -0.03330298
v 0.01010338 -0.02449167 -0.03085343
v 0.01499881 -0.02511534 -0.03069381
v 0.01499881 -0.02112580 -0.03330298
v 0.01852286 -0.02126439 -0.03316076
v 0.01010338 0.01691846 -0.03404276
v 0.01499881 0.01730454 -0.03381970
v 0.01852286 0.01683431 -0.03370613
v 0.01010338 -0.02060112 -0.03351990
v 0.01010338 -0.01683431 -0.03405095
v 0.01499881 -0.01730454 -0.03381970
v 0.01852286 -0.01741839 -0.03366929
v 0.01010338 0.01306255 -0.03430061
v 0.01852286 0.01289426 -0.03393021
v 0.01010338 -0.01302295 -0.03430265
v 0.01852286 -0.01344369 -0.03391486
v 0.01010338 0.00943929 -0.03440907
v 0.01852286 0.00920170 -0.03402332
v 0.01010338 -0.00936504 -0.03441111
v 0.01852286 -0.00823649 -0.03403355
v 0.01010338 0.00455878 -0.03445307
v 0.01852286 0.00421229 -0.03406015
v 0.01010338 -0.00452413 -0.03445307
v 0.01852286 -0.00221752 -0.03406322
f 1 2 3
f 1 3 4
f 1 4 11
f 1 11 17
f 1 17 23
f 1 23 30
f 1 30 38
f 1 38 45
f 1 45 52
f 1 52 56
f 1 56 60
f 1 60 64
f 1 64 62
f 1 62 58
f 1 58 54
f 1 54 48
f 1 48 40
f 1 40 34
f 1 34 24
f 1 24 18
f 1 18 12
f 1 12 5
f 1 5 6
f 1 6 7
f 1 7 8
f 1 8 2
f 2 9 4
f 2 4 3
f 2 8 14
f 2 14 20
f 2 20 27
f 2 27 35
f 2 35 33
f 2 33 32
f 2 32 39
f 2 39 46
f 2 46 53
f 2 53 57
f 2 57 61
f 2 61 63
f 2 63 59
f 2 59 55
f 2 55 50
f 2 50 49
f 2 49 42
f 2 42 36
f 2 36 28
f 2 28 21
f 2 21 15
f 2 15 9
f 4 9 10
f 4 10 11
f 5 12 13
f 5 13 6
f 6 13 14
f 6 14 8
f 6 8 7
f 9 15 16
f 9 16 10
f 10 16 11
f 11 16 17
f 12 18 19
f 12 19 13
f 13 20 14
f 13 19 20
f 15 21 22
f 15 22 16
f 16 22 17
f 17 22 23
f 18 24 25
f 18 25 26
f 18 26 19
f 19 26 27
f 19 27 20
f 21 28 29
f 21 29 22
f 22 29 23
f 23 29 30
f 24 31 32
f 24 32 33
f 24 33 25
f 24 34 31
f 25 33 35
f 25 35 26
f 26 35 27
f 28 36 37
f 28 37 29
f 29 37 30
f 30 37 38
f 31 34 32
f 32 34 39
f 34 40 41
f 34 41 39
f 36 42 43
f 36 43 37
f 37 43 38
f 38 43 44
f 38 44 45
f 39 41 46
f 40 47 41
f 40 48 47
f 41 47 46
f 42 49 43
f 43 49 44
f 44 49 50
f 44 50 51
f 44 51 45
f 45 51 52
f 46 47 53
f 47 48 53
f 48 54 53
f 50 55 52
f 50 52 51
f 52 55 56
f 53 54 57
f 54 58 57
f 55 59 56
f 56 59 60
f 57 58 61
f 58 62 61
f 59 63 60
f 60 63 64
f 61 62 64
f 61 64 63

