# https://github.com/mikedh/trimesh

o jaw_rear_outer_race_cap_019.obj
v 0.08297570 -0.02950000 0.00182164
v 0.08212216 -0.02950000 0.00208601
v 0.08297570 -0.03150000 0.00182164
v 0.08297570 -0.02950000 -0.00556164
v 0.08212216 -0.03150000 0.00208601
v 0.08125009 -0.02950000 0.00228890
v 0.08297570 -0.03150000 -0.00556164
v 0.07971111 -0.02950000 -0.00394849
v 0.08125009 -0.03150000 0.00228890
v 0.07971111 -0.02950000 0.00228890
v 0.07971111 -0.03150000 -0.00394849
v 0.07971111 -0.03150000 0.00228890
f 1 2 5
f 1 5 3
f 1 3 7
f 1 7 4
f 1 4 8
f 1 8 10
f 1 10 6
f 1 6 2
f 2 6 9
f 2 9 5
f 3 5 9
f 3 9 12
f 3 12 11
f 3 11 7
f 4 7 11
f 4 11 8
f 6 10 12
f 6 12 9
f 8 11 12
f 8 12 10

