# https://github.com/mikedh/trimesh

o jaw_front_axial_stop_washer_001.obj
v -0.00140241 0.03900000 0.00583165
v -0.00176877 0.03900000 0.00573321
v -0.00140241 0.03800000 0.00583165
v -0.00140241 0.03900000 0.00162804
v -0.00219230 0.03900000 0.00558519
v -0.00176877 0.03800000 0.00573321
v -0.00140241 0.03800000 0.00162804
v -0.00141456 0.03900000 -0.00161745
v -0.00260368 0.03900000 0.00540582
v -0.00219230 0.03800000 0.00558519
v -0.00141456 0.03800000 -0.00161745
v -0.00577361 0.03900000 -0.00161745
v -0.00260368 0.03800000 0.00540582
v -0.00300020 0.03900000 0.00519582
v -0.00577361 0.03800000 -0.00161745
v -0.00584922 0.03900000 -0.00133453
v -0.00300020 0.03800000 0.00519582
v -0.00338007 0.03900000 0.00495739
v -0.00584922 0.03800000 -0.00133453
v -0.00593294 0.03900000 -0.00089412
v -0.00338007 0.03800000 0.00495739
v -0.00374059 0.03900000 0.00469051
v -0.00593294 0.03800000 -0.00089412
v -0.00598290 0.03900000 -0.00044787
v -0.00374059 0.03800000 0.00469051
v -0.00408085 0.03900000 0.00439812
v -0.00598290 0.03800000 -0.00044787
v -0.00600000 0.03900000 0.00000056
v -0.00408085 0.03800000 0.00439812
v -0.00439816 0.03900000 0.00408094
v -0.00600000 0.03800000 0.00000056
v -0.00598290 0.03900000 0.00044899
v -0.00439816 0.03800000 0.00408094
v -0.00469071 0.03900000 0.00374042
v -0.00598290 0.03800000 0.00044899
v -0.00593294 0.03900000 0.00089451
v -0.00469071 0.03800000 0.00374042
v -0.00495716 0.03900000 0.00337948
v -0.00593294 0.03800000 0.00089451
v -0.00584922 0.03900000 0.00133565
v -0.00495716 0.03800000 0.00337948
v -0.00519570 0.03900000 0.00299959
v -0.00584922 0.03800000 0.00133565
v -0.00573310 0.03900000 0.00176877
v -0.00519570 0.03800000 0.00299959
v -0.00540544 0.03900000 0.00260293
v -0.00573310 0.03800000 0.00176877
v -0.00558502 0.03900000 0.00219168
v -0.00540544 0.03800000 0.00260293
v -0.00558502 0.03800000 0.00219168
f 1 2 6
f 1 6 3
f 1 3 7
f 1 7 4
f 1 4 8
f 1 8 12
f 1 12 16
f 1 16 20
f 1 20 24
f 1 24 28
f 1 28 32
f 1 32 36
f 1 36 40
f 1 40 44
f 1 44 48
f 1 48 46
f 1 46 42
f 1 42 38
f 1 38 34
f 1 34 30
f 1 30 26
f 1 26 22
f 1 22 18
f 1 18 14
f 1 14 9
f 1 9 5
f 1 5 2
f 2 5 10
f 2 10 6
f 3 6 10
f 3 10 13
f 3 13 17
f 3 17 21
f 3 21 25
f 3 25 29
f 3 29 33
f 3 33 37
f 3 37 41
f 3 41 45
f 3 45 49
f 3 49 50
f 3 50 47
f 3 47 43
f 3 43 39
f 3 39 35
f 3 35 31
f 3 31 27
f 3 27 23
f 3 23 19
f 3 19 15
f 3 15 11
f 3 11 7
f 4 7 11
f 4 11 8
f 5 9 13
f 5 13 10
f 8 11 15
f 8 15 12
f 9 14 17
f 9 17 13
f 12 15 19
f 12 19 16
f 14 18 21
f 14 21 17
f 16 19 23
f 16 23 20
f 18 22 25
f 18 25 21
f 20 23 27
f 20 27 24
f 22 26 29
f 22 29 25
f 24 27 31
f 24 31 28
f 26 30 33
f 26 33 29
f 28 31 35
f 28 35 32
f 30 34 37
f 30 37 33
f 32 35 39
f 32 39 36
f 34 38 41
f 34 41 37
f 36 39 43
f 36 43 40
f 38 42 45
f 38 45 41
f 40 43 47
f 40 47 44
f 42 46 49
f 42 49 45
f 44 47 50
f 44 50 48
f 46 48 50
f 46 50 49

