# https://github.com/mikedh/trimesh

o jaw_rear_cap_washer_0_002.obj
v 0.09468296 -0.03150000 -0.00620852
v 0.09453146 -0.03150000 -0.00615562
v 0.09468296 -0.03200000 -0.00620852
v 0.09468296 -0.03150000 -0.00842322
v 0.09427881 -0.03150000 -0.00608777
v 0.09453146 -0.03200000 -0.00615562
v 0.09468296 -0.03200000 -0.00842322
v 0.09242682 -0.03150000 -0.00831409
v 0.09427881 -0.03200000 -0.00608777
v 0.09402153 -0.03150000 -0.00603914
v 0.09242682 -0.03200000 -0.00831409
v 0.09242682 -0.03150000 -0.00617009
v 0.09402153 -0.03200000 -0.00603914
v 0.09376138 -0.03150000 -0.00600996
v 0.09242682 -0.03200000 -0.00617009
v 0.09246855 -0.03150000 -0.00615562
v 0.09376138 -0.03200000 -0.00600996
v 0.09350012 -0.03150000 -0.00600000
v 0.09246855 -0.03200000 -0.00615562
v 0.09272120 -0.03150000 -0.00608777
v 0.09350012 -0.03200000 -0.00600000
v 0.09323864 -0.03150000 -0.00600996
v 0.09272120 -0.03200000 -0.00608777
v 0.09297848 -0.03150000 -0.00603914
v 0.09323864 -0.03200000 -0.00600996
v 0.09297848 -0.03200000 -0.00603914
f 1 2 6
f 1 6 3
f 1 3 7
f 1 7 4
f 1 4 8
f 1 8 12
f 1 12 16
f 1 16 20
f 1 20 24
f 1 24 22
f 1 22 18
f 1 18 14
f 1 14 10
f 1 10 5
f 1 5 2
f 2 5 9
f 2 9 6
f 3 6 9
f 3 9 13
f 3 13 17
f 3 17 21
f 3 21 25
f 3 25 26
f 3 26 23
f 3 23 19
f 3 19 15
f 3 15 11
f 3 11 7
f 4 7 11
f 4 11 8
f 5 10 13
f 5 13 9
f 8 11 15
f 8 15 12
f 10 14 17
f 10 17 13
f 12 15 19
f 12 19 16
f 14 18 21
f 14 21 17
f 16 19 23
f 16 23 20
f 18 22 25
f 18 25 21
f 20 23 26
f 20 26 24
f 22 24 26
f 22 26 25

