# https://github.com/mikedh/trimesh

o jaw_front_outer_race_cap_002.obj
v 0.07312061 0.02850000 0.00095213
v 0.07264991 0.02850000 0.00068185
v 0.07312061 0.02650000 0.00095213
v 0.07312061 0.02850000 -0.00295992
v 0.07264991 0.02650000 0.00068185
v 0.07191666 0.02850000 0.00018647
v 0.07312061 0.02650000 -0.00295992
v 0.07073067 0.02850000 -0.00649023
v 0.07191666 0.02650000 0.00018647
v 0.07122197 0.02850000 -0.00036209
v 0.07073067 0.02650000 -0.00649023
v 0.06772369 0.02850000 -0.00539530
v 0.07122197 0.02650000 -0.00036209
v 0.07056901 0.02850000 -0.00096092
v 0.06772369 0.02650000 -0.00539530
v 0.06805704 0.02850000 -0.00457501
v 0.07056901 0.02650000 -0.00096092
v 0.06996308 0.02850000 -0.00160564
v 0.06805704 0.02650000 -0.00457501
v 0.06845008 0.02850000 -0.00378167
v 0.06996308 0.02650000 -0.00160564
v 0.06940574 0.02850000 -0.00229334
v 0.06845008 0.02650000 -0.00378167
v 0.06890018 0.02850000 -0.00301966
v 0.06940574 0.02650000 -0.00229334
v 0.06890018 0.02650000 -0.00301966
f 1 2 5
f 1 5 3
f 1 3 7
f 1 7 4
f 1 4 8
f 1 8 12
f 1 12 16
f 1 16 20
f 1 20 24
f 1 24 22
f 1 22 18
f 1 18 14
f 1 14 10
f 1 10 6
f 1 6 2
f 2 6 9
f 2 9 5
f 3 5 9
f 3 9 13
f 3 13 17
f 3 17 21
f 3 21 25
f 3 25 26
f 3 26 23
f 3 23 19
f 3 19 15
f 3 15 11
f 3 11 7
f 4 7 11
f 4 11 8
f 6 10 13
f 6 13 9
f 8 11 15
f 8 15 12
f 10 14 17
f 10 17 13
f 12 15 19
f 12 19 16
f 14 18 21
f 14 21 17
f 16 19 23
f 16 23 20
f 18 22 25
f 18 25 21
f 20 23 26
f 20 26 24
f 22 24 26
f 22 26 25

