# https://github.com/mikedh/trimesh

o left_ankle_pitch_stationary_spider_005.obj
v 0.05800417 -0.02925000 -0.07875451
v 0.05332165 -0.02925000 -0.08339760
v 0.05800417 -0.03124987 -0.07875451
v 0.05800417 -0.02925000 -0.08723717
v 0.05332165 -0.03124987 -0.08339760
v 0.05332165 -0.02925000 -0.09232119
v 0.05800417 -0.03124987 -0.08723717
v 0.05332165 -0.03128169 -0.08419978
v 0.05349722 -0.03128169 -0.08427548
v 0.05371037 -0.03128169 -0.08436845
v 0.05412431 -0.03128169 -0.08458759
v 0.05412660 -0.03128169 -0.08458891
v 0.05432325 -0.03128169 -0.08471243
v 0.05452174 -0.03128169 -0.08483727
v 0.05489762 -0.03128169 -0.08511485
v 0.05525013 -0.03128169 -0.08541766
v 0.05541698 -0.03128169 -0.08558367
v 0.05558292 -0.03128169 -0.08574969
v 0.05588684 -0.03128169 -0.08610296
v 0.05616417 -0.03128169 -0.08647882
v 0.05641262 -0.03128169 -0.08687460
v 0.05662990 -0.03128169 -0.08728631
v 0.05663128 -0.03128169 -0.08728897
v 0.05672433 -0.03128169 -0.08750147
v 0.05681784 -0.03128169 -0.08771662
v 0.05689485 -0.03128169 -0.08793576
v 0.05697232 -0.03128169 -0.08815756
v 0.05709288 -0.03128169 -0.08860646
v 0.05717952 -0.03128169 -0.08906599
v 0.05717998 -0.03128169 -0.08906864
v 0.05723223 -0.03128169 -0.08953083
v 0.05724965 -0.03128169 -0.08999832
v 0.05799959 -0.02925000 -0.08999965
v 0.05760262 -0.02925000 -0.09232119
v 0.05332165 -0.03128169 -0.09232119
v 0.05799959 -0.03124987 -0.08999965
v 0.05723223 -0.03128169 -0.09046715
v 0.05798355 -0.03124987 -0.09047910
v 0.05798905 -0.03058324 -0.09031840
v 0.05798355 -0.02925000 -0.09047910
v 0.05760262 -0.03124987 -0.09232119
v 0.05773876 -0.02925000 -0.09189354
v 0.05769017 -0.02991682 -0.09204627
v 0.05680134 -0.03128169 -0.09232119
v 0.05717998 -0.03128169 -0.09093199
v 0.05793404 -0.03124987 -0.09095589
v 0.05793404 -0.02925000 -0.09095589
v 0.05681739 -0.03128169 -0.09228401
v 0.05773876 -0.03124987 -0.09189354
v 0.05697232 -0.03128169 -0.09184042
v 0.05697141 -0.03128169 -0.09184307
v 0.05779560 -0.02925000 -0.09166112
v 0.05777681 -0.03058324 -0.09173815
v 0.05709288 -0.03128169 -0.09139151
v 0.05785245 -0.03124987 -0.09142737
v 0.05787995 -0.03058324 -0.09127066
v 0.05785245 -0.02925000 -0.09142737
v 0.05779560 -0.03124987 -0.09166112
v 0.05703283 -0.03128169 -0.09161596
f 1 2 5
f 1 5 3
f 1 3 7
f 1 7 4
f 1 4 33
f 1 33 40
f 1 40 47
f 1 47 57
f 1 57 52
f 1 52 42
f 1 42 34
f 1 34 6
f 1 6 2
f 2 6 35
f 2 35 8
f 2 8 5
f 3 5 8
f 3 8 9
f 3 9 10
f 3 10 11
f 3 11 12
f 3 12 13
f 3 13 14
f 3 14 15
f 3 15 16
f 3 16 17
f 3 17 18
f 3 18 19
f 3 19 20
f 3 20 21
f 3 21 22
f 3 22 23
f 3 23 24
f 3 24 25
f 3 25 26
f 3 26 27
f 3 27 28
f 3 28 29
f 3 29 30
f 3 30 31
f 3 31 32
f 3 32 7
f 4 7 36
f 4 36 33
f 6 34 41
f 6 41 44
f 6 44 35
f 7 32 36
f 8 35 44
f 8 44 48
f 8 48 51
f 8 51 50
f 8 50 59
f 8 59 54
f 8 54 45
f 8 45 37
f 8 37 32
f 8 32 31
f 8 31 30
f 8 30 29
f 8 29 28
f 8 28 27
f 8 27 26
f 8 26 25
f 8 25 24
f 8 24 23
f 8 23 22
f 8 22 21
f 8 21 20
f 8 20 19
f 8 19 18
f 8 18 17
f 8 17 16
f 8 16 15
f 8 15 14
f 8 14 13
f 8 13 12
f 8 12 11
f 8 11 10
f 8 10 9
f 32 37 38
f 32 38 36
f 33 36 39
f 33 39 40
f 34 42 43
f 34 43 41
f 36 38 39
f 37 45 46
f 37 46 38
f 38 40 39
f 38 46 47
f 38 47 40
f 41 48 44
f 41 43 49
f 41 49 50
f 41 50 51
f 41 51 48
f 42 52 53
f 42 53 49
f 42 49 43
f 45 54 55
f 45 55 46
f 46 55 56
f 46 56 47
f 47 56 57
f 49 53 58
f 49 58 54
f 49 54 59
f 49 59 50
f 52 58 53
f 52 57 55
f 52 55 58
f 54 58 55
f 55 57 56

