# https://github.com/mikedh/trimesh

o left_foot_upper_fore_033.obj
v 0.03500174 -0.03500095 -0.01559390
v 0.03500174 -0.02564495 -0.01559390
v 0.03500174 -0.03361798 -0.01601518
v 0.03635564 -0.03565910 -0.01560321
v 0.04052684 -0.03757547 -0.01559390
v 0.05275541 -0.03253828 -0.01559390
v 0.03981774 -0.01856665 -0.01678200
v 0.03500174 -0.01676427 -0.01678200
v 0.03644775 -0.03402234 -0.01609648
v 0.03644775 -0.03482028 -0.01586363
v 0.03500174 -0.03106713 -0.01668942
v 0.03572475 -0.03170807 -0.01661463
v 0.03644775 -0.03234686 -0.01653996
v 0.03644775 -0.03318567 -0.01631805
v 0.04052684 -0.03660760 -0.01589224
v 0.04460245 -0.03798412 -0.01584095
v 0.04104303 -0.03772602 -0.01559390
v 0.05275715 -0.02419315 -0.01678200
v 0.05131982 -0.02305753 -0.01678200
v 0.05260073 -0.03577309 -0.01559390
v 0.05275715 -0.03538810 -0.01581547
v 0.03500174 -0.03065848 -0.01678200
v 0.04052684 -0.03529561 -0.01626059
v 0.04052684 -0.03595161 -0.01607659
v 0.03549533 -0.03090582 -0.01678200
v 0.04052684 -0.03332547 -0.01675630
v 0.04460245 -0.03689581 -0.01616987
v 0.04460245 -0.03873475 -0.01559390
v 0.04868154 -0.03595591 -0.01647995
v 0.04868154 -0.03673235 -0.01623523
v 0.05275715 -0.03353625 -0.01676421
v 0.05237826 -0.03364379 -0.01678200
v 0.05236088 -0.03598387 -0.01559390
v 0.05207064 -0.03622476 -0.01559390
v 0.05168828 -0.03653017 -0.01559390
v 0.05275715 -0.03493858 -0.01612707
v 0.04460245 -0.03558167 -0.01652787
v 0.04460245 -0.03454713 -0.01678200
v 0.04460245 -0.03488051 -0.01670024
v 0.04868154 -0.03550854 -0.01660742
v 0.04868154 -0.03731092 -0.01603623
v 0.04572867 -0.03867668 -0.01559390
v 0.05010322 -0.03445034 -0.01678200
v 0.05098612 -0.03415999 -0.01678200
v 0.05178734 -0.03387393 -0.01678200
v 0.05275715 -0.03383521 -0.01665022
v 0.04868154 -0.03772387 -0.01588503
v 0.05128854 -0.03682484 -0.01559390
v 0.05094789 -0.03706788 -0.01559390
v 0.05067328 -0.03725284 -0.01559390
v 0.05037782 -0.03744427 -0.01559390
v 0.05275715 -0.03451917 -0.01635143
v 0.04880320 -0.03489126 -0.01677025
v 0.04670891 -0.03861430 -0.01559390
v 0.05275715 -0.03412342 -0.01653229
v 0.04870587 -0.03828523 -0.01565380
v 0.04825573 -0.03848741 -0.01559390
v 0.04755531 -0.03855193 -0.01559390
v 0.05008236 -0.03762923 -0.01559390
v 0.04970696 -0.03785722 -0.01559390
v 0.04925160 -0.03812177 -0.01559390
f 1 2 8
f 1 8 22
f 1 22 11
f 1 11 3
f 1 3 4
f 1 4 5
f 1 5 17
f 1 17 28
f 1 28 42
f 1 42 54
f 1 54 58
f 1 58 57
f 1 57 61
f 1 61 60
f 1 60 59
f 1 59 51
f 1 51 50
f 1 50 49
f 1 49 48
f 1 48 35
f 1 35 34
f 1 34 33
f 1 33 20
f 1 20 6
f 1 6 2
f 2 6 7
f 2 7 8
f 3 9 10
f 3 10 4
f 3 11 12
f 3 12 13
f 3 13 14
f 3 14 9
f 4 15 5
f 4 10 15
f 5 15 16
f 5 16 17
f 6 18 19
f 6 19 7
f 6 20 21
f 6 21 18
f 7 19 18
f 7 18 32
f 7 32 45
f 7 45 44
f 7 44 43
f 7 43 38
f 7 38 25
f 7 25 22
f 7 22 8
f 9 14 23
f 9 23 24
f 9 24 15
f 9 15 10
f 11 22 25
f 11 25 26
f 11 26 12
f 12 26 13
f 13 26 23
f 13 23 14
f 15 24 27
f 15 27 16
f 16 28 17
f 16 27 29
f 16 29 30
f 16 30 28
f 18 31 32
f 18 21 36
f 18 36 52
f 18 52 55
f 18 55 46
f 18 46 31
f 20 33 21
f 21 33 34
f 21 34 35
f 21 35 36
f 23 37 27
f 23 27 24
f 23 26 37
f 25 38 26
f 26 38 39
f 26 39 37
f 27 37 40
f 27 40 29
f 28 30 41
f 28 41 42
f 29 40 43
f 29 43 44
f 29 44 45
f 29 45 30
f 30 45 32
f 30 32 41
f 31 46 47
f 31 47 41
f 31 41 32
f 35 48 36
f 36 48 49
f 36 49 50
f 36 50 51
f 36 51 52
f 37 39 53
f 37 53 40
f 38 43 53
f 38 53 39
f 40 53 43
f 41 47 42
f 42 47 54
f 46 55 56
f 46 56 47
f 47 56 57
f 47 57 58
f 47 58 54
f 51 59 52
f 52 59 60
f 52 60 61
f 52 61 55
f 55 61 56
f 56 61 57

