# https://github.com/mikedh/trimesh

o left_foot_upper_fore_009.obj
v 0.03500000 -0.00251850 -0.01800000
v 0.05621813 -0.00251850 -0.01800000
v 0.03500000 -0.00251850 -0.01757552
v 0.03500000 0.02477791 -0.01800000
v 0.05621813 -0.00251850 -0.01757636
v 0.05621813 0.02658546 -0.01800000
v 0.03644763 -0.00251850 -0.01757085
v 0.03500000 0.01066313 -0.01727797
v 0.03500000 0.02652670 -0.01767906
v 0.04052676 0.02995517 -0.01747975
v 0.04052676 0.02850360 -0.01773984
v 0.04052676 0.02704858 -0.01800000
v 0.05276208 -0.00251850 -0.01755947
v 0.05621813 0.01694289 -0.01727797
v 0.05276208 0.01502129 -0.01727797
v 0.04566306 0.01270915 -0.01727797
v 0.05573212 0.02690342 -0.01800000
v 0.05276208 0.03042520 -0.01763771
v 0.05276208 0.03169706 -0.01732900
v 0.05442364 0.02938491 -0.01761601
v 0.05621813 0.02685849 -0.01793067
v 0.03644763 0.01084976 -0.01727797
v 0.03500000 0.02848978 -0.01727797
v 0.03500000 0.02826859 -0.01732751
v 0.03644763 0.02868332 -0.01737550
v 0.04052676 0.03091597 -0.01727797
v 0.04384158 0.03205304 -0.01727797
v 0.04460590 0.03190788 -0.01736335
v 0.04460590 0.02837573 -0.01800000
v 0.05621813 0.02893216 -0.01728553
v 0.05612466 0.02903585 -0.01727797
v 0.05516719 0.02724903 -0.01800000
v 0.04868295 0.03197700 -0.01745989
v 0.04868295 0.03278919 -0.01727797
v 0.05460018 0.02759464 -0.01800000
v 0.05368217 0.02811997 -0.01800000
v 0.05276208 0.02864530 -0.01800000
v 0.05248792 0.03196318 -0.01727797
v 0.05276208 0.03187677 -0.01727797
v 0.05348901 0.03132725 -0.01727797
v 0.05368217 0.03082611 -0.01737762
v 0.05621813 0.02755317 -0.01775412
v 0.04460590 0.03229842 -0.01727797
v 0.04868295 0.02905313 -0.01800000
v 0.05621813 0.02869023 -0.01738363
v 0.05573627 0.02940911 -0.01727797
v 0.04756555 0.03266822 -0.01727797
v 0.05461057 0.03041138 -0.01727797
v 0.05368217 0.03117172 -0.01727959
v 0.05621813 0.02771907 -0.01770655
v 0.05621813 0.02763612 -0.01773037
v 0.05621813 0.02824439 -0.01754124
v 0.05526481 0.02975126 -0.01731034
v 0.05591489 0.02907732 -0.01734193
v 0.05551612 0.02960956 -0.01727797
v 0.05475803 0.03028696 -0.01727797
v 0.05494288 0.02998628 -0.01732589
v 0.05621813 0.02782620 -0.01767418
v 0.05621813 0.02815799 -0.01756873
v 0.05521911 0.02987914 -0.01727797
f 1 2 5
f 1 5 13
f 1 13 7
f 1 7 3
f 1 3 8
f 1 8 23
f 1 23 24
f 1 24 9
f 1 9 4
f 1 4 12
f 1 12 29
f 1 29 44
f 1 44 37
f 1 37 36
f 1 36 35
f 1 35 32
f 1 32 17
f 1 17 6
f 1 6 2
f 2 6 21
f 2 21 42
f 2 42 51
f 2 51 50
f 2 50 58
f 2 58 59
f 2 59 52
f 2 52 45
f 2 45 30
f 2 30 14
f 2 14 5
f 3 7 8
f 4 9 10
f 4 10 11
f 4 11 12
f 5 14 15
f 5 15 16
f 5 16 13
f 6 17 18
f 6 18 19
f 6 19 20
f 6 20 21
f 7 13 8
f 8 13 22
f 8 22 16
f 8 16 15
f 8 15 14
f 8 14 31
f 8 31 46
f 8 46 55
f 8 55 60
f 8 60 56
f 8 56 48
f 8 48 40
f 8 40 39
f 8 39 38
f 8 38 34
f 8 34 47
f 8 47 43
f 8 43 27
f 8 27 26
f 8 26 23
f 9 24 25
f 9 25 10
f 10 26 27
f 10 27 28
f 10 28 29
f 10 29 11
f 10 25 26
f 11 29 12
f 13 16 22
f 14 30 31
f 17 32 18
f 18 33 34
f 18 34 19
f 18 32 35
f 18 35 36
f 18 36 37
f 18 37 33
f 19 34 38
f 19 38 39
f 19 39 40
f 19 40 41
f 19 41 42
f 19 42 20
f 20 42 21
f 23 26 24
f 24 26 25
f 27 43 28
f 28 43 33
f 28 33 44
f 28 44 29
f 30 45 46
f 30 46 31
f 33 43 47
f 33 47 34
f 33 37 44
f 40 48 49
f 40 49 50
f 40 50 51
f 40 51 42
f 40 42 41
f 45 52 53
f 45 53 54
f 45 54 46
f 46 54 55
f 48 56 57
f 48 57 49
f 49 57 58
f 49 58 50
f 52 59 57
f 52 57 53
f 53 57 56
f 53 56 60
f 53 60 54
f 54 60 55
f 57 59 58

