# https://github.com/mikedh/trimesh

o left_hip_yaw_to_roll_u_carrier_002.obj
v 0.03875000 0.01200000 -0.02546659
v 0.03875000 0.01200000 -0.03099946
v 0.03324805 0.01200000 -0.02546659
v 0.03875000 -0.01200000 -0.02546659
v 0.03875000 -0.01200000 -0.03099946
v -0.00370314 0.01200000 -0.03099946
v 0.03324805 -0.01200000 -0.02546659
v -0.00370314 0.01200000 -0.02550018
v 0.01750265 -0.01200000 -0.03099946
v -0.00370314 -0.01198825 -0.03099946
v -0.00370314 -0.01200000 -0.02550018
v -0.00370314 -0.01200000 -0.03099675
f 1 2 6
f 1 6 8
f 1 8 3
f 1 3 7
f 1 7 4
f 1 4 5
f 1 5 2
f 2 5 9
f 2 9 10
f 2 10 6
f 3 8 11
f 3 11 7
f 4 7 11
f 4 11 12
f 4 12 9
f 4 9 5
f 6 10 12
f 6 12 11
f 6 11 8
f 9 12 10

