# https://github.com/mikedh/trimesh

o left_hip_pitch_static_front_carrier_015.obj
v 0.06511395 0.04025000 -0.03833178
v 0.06510368 0.04025000 -0.03397966
v 0.06511395 0.03625000 -0.03833178
v 0.06511395 0.04025000 -0.04298548
v 0.05855331 0.04025000 -0.03261391
v 0.06510368 0.03625000 -0.03397966
v 0.06511395 0.03625000 -0.04298548
v 0.06509983 0.04025000 -0.04298649
v 0.05855331 0.03625000 -0.03261391
v 0.05855331 0.04025000 -0.04202793
v 0.06509983 0.03625000 -0.04298649
v 0.06243986 0.04025000 -0.04278646
v 0.05855331 0.03625000 -0.04202793
v 0.05980944 0.04025000 -0.04235185
v 0.05894954 0.03758438 -0.04213049
v 0.06243986 0.03625000 -0.04278646
v 0.05980944 0.03625000 -0.04235185
f 1 2 6
f 1 6 3
f 1 3 7
f 1 7 4
f 1 4 8
f 1 8 12
f 1 12 14
f 1 14 10
f 1 10 5
f 1 5 2
f 2 5 9
f 2 9 6
f 3 6 9
f 3 9 13
f 3 13 17
f 3 17 16
f 3 16 11
f 3 11 7
f 4 7 11
f 4 11 8
f 5 10 13
f 5 13 9
f 8 11 16
f 8 16 12
f 10 14 15
f 10 15 13
f 12 16 17
f 12 17 14
f 13 15 17
f 14 17 15

