# https://github.com/mikedh/trimesh

o left_foot_upper_fore_071.obj
v 0.04467907 0.04462928 -0.01124230
v 0.04481181 0.04451284 -0.01124230
v 0.04596369 0.04351237 -0.01181989
v 0.04596369 0.04351282 -0.01187125
v 0.04635096 0.04317616 -0.01206568
v 0.04460398 0.04469200 -0.01128655
v 0.04460346 0.04236522 -0.01124230
v 0.04495207 0.04438694 -0.01124230
v 0.04635096 0.04317391 -0.01195904
v 0.04635096 0.04317165 -0.01215756
v 0.04460415 0.04467847 -0.01144365
v 0.04460363 0.04461529 -0.01173067
v 0.04460346 0.04048204 -0.01305772
v 0.04461612 0.04228399 -0.01124247
v 0.04635096 0.04035613 -0.01124230
v 0.04508002 0.04427006 -0.01124230
v 0.04596369 0.04350514 -0.01170402
v 0.04635096 0.04316217 -0.01183428
v 0.04635096 0.04315450 -0.01228978
v 0.04460415 0.04466538 -0.01152558
v 0.04460415 0.04464417 -0.01162511
v 0.04635096 0.04312788 -0.01241668
v 0.04635096 0.04309177 -0.01253842
v 0.04460381 0.04457151 -0.01185952
v 0.04460381 0.04448803 -0.01205217
v 0.04460381 0.04443252 -0.01215791
v 0.04460381 0.04418296 -0.01253415
v 0.04635096 0.04008221 -0.01305772
v 0.04460398 0.04371770 -0.01303568
v 0.04472919 0.04363917 -0.01305772
v 0.04635096 0.04300739 -0.01133507
v 0.04632804 0.04298888 -0.01124834
v 0.04616844 0.04316669 -0.01124230
v 0.04516983 0.04418612 -0.01124230
v 0.04635096 0.04313826 -0.01170526
v 0.04524851 0.04411166 -0.01124230
v 0.04534002 0.04402457 -0.01124230
v 0.04596369 0.04348619 -0.01213996
v 0.04635096 0.04303627 -0.01268006
v 0.04460398 0.04453090 -0.01196064
v 0.04635096 0.04297399 -0.01280997
v 0.04460398 0.04436212 -0.01227894
v 0.04460398 0.04430345 -0.01236905
v 0.04635096 0.04291758 -0.01291181
v 0.04460398 0.04407240 -0.01267011
v 0.04460398 0.04397357 -0.01278083
v 0.04460398 0.04386797 -0.01289119
v 0.04460415 0.04425562 -0.01243676
v 0.04613543 0.04294421 -0.01305772
v 0.04588894 0.04307778 -0.01305772
v 0.04634394 0.04284989 -0.01302324
v 0.04460449 0.04380479 -0.01295251
v 0.04505642 0.04349070 -0.01305772
v 0.04635096 0.04304755 -0.01142446
v 0.04606034 0.04328537 -0.01124230
v 0.04596369 0.04344513 -0.01140082
v 0.04635096 0.04309042 -0.01153714
v 0.04544933 0.04391806 -0.01124230
v 0.04556701 0.04380073 -0.01124230
v 0.04562209 0.04321588 -0.01305772
v 0.04535508 0.04334855 -0.01305772
v 0.04595018 0.04340451 -0.01124230
v 0.04568504 0.04368159 -0.01124230
v 0.04583677 0.04352410 -0.01124230
f 1 2 3
f 1 3 4
f 1 4 5
f 1 5 6
f 1 6 7
f 1 7 15
f 1 15 33
f 1 33 55
f 1 55 62
f 1 62 64
f 1 64 63
f 1 63 59
f 1 59 58
f 1 58 37
f 1 37 36
f 1 36 34
f 1 34 16
f 1 16 8
f 1 8 2
f 2 8 9
f 2 9 3
f 3 9 5
f 3 5 4
f 5 9 18
f 5 18 35
f 5 35 57
f 5 57 54
f 5 54 31
f 5 31 15
f 5 15 28
f 5 28 44
f 5 44 41
f 5 41 39
f 5 39 23
f 5 23 22
f 5 22 19
f 5 19 10
f 5 10 6
f 6 10 11
f 6 11 12
f 6 12 7
f 7 13 14
f 7 14 15
f 7 12 13
f 8 16 17
f 8 17 9
f 9 17 18
f 10 19 11
f 11 20 12
f 11 19 20
f 12 20 21
f 12 21 22
f 12 22 23
f 12 23 24
f 12 24 25
f 12 25 26
f 12 26 27
f 12 27 13
f 13 28 15
f 13 15 14
f 13 27 29
f 13 29 30
f 13 30 53
f 13 53 61
f 13 61 60
f 13 60 50
f 13 50 49
f 13 49 28
f 15 31 32
f 15 32 33
f 16 34 18
f 16 18 17
f 18 34 36
f 18 36 37
f 18 37 35
f 19 22 38
f 19 38 20
f 20 38 21
f 21 38 22
f 23 39 24
f 24 40 25
f 24 39 40
f 25 40 39
f 25 39 41
f 25 41 26
f 26 42 43
f 26 43 27
f 26 41 44
f 26 44 42
f 27 45 46
f 27 46 47
f 27 47 29
f 27 43 48
f 27 48 49
f 27 49 50
f 27 50 45
f 28 49 51
f 28 51 44
f 29 47 52
f 29 52 30
f 30 52 53
f 31 54 33
f 31 33 32
f 33 54 55
f 35 56 57
f 35 37 58
f 35 58 59
f 35 59 56
f 42 44 51
f 42 51 43
f 43 51 48
f 45 50 60
f 45 60 46
f 46 60 61
f 46 61 47
f 47 61 53
f 47 53 52
f 48 51 49
f 54 57 62
f 54 62 55
f 56 59 63
f 56 63 57
f 57 63 64
f 57 64 62

