# https://github.com/mikedh/trimesh

o left_ankle_cross_axis_carrier_066.obj
v 0.01237777 0.04874960 0.01138859
v 0.01237777 0.04457908 0.01138859
v 0.01237777 0.04874960 0.00956642
v 0.00198698 0.04874960 0.01138859
v 0.01237777 0.04457908 0.00956642
v 0.00198698 0.04457908 0.01138859
v 0.00913974 0.04874960 0.00812562
v -0.00032927 0.04874960 0.01062076
v 0.00914098 0.04457908 0.00812754
v 0.00913974 0.04493346 0.00812562
v -0.00032927 0.04457908 0.01062076
v -0.00032927 0.04874960 0.00812562
v 0.00872799 0.04457908 0.00812562
v -0.00032927 0.04457908 0.00812562
f 1 2 5
f 1 5 3
f 1 3 7
f 1 7 12
f 1 12 8
f 1 8 4
f 1 4 6
f 1 6 2
f 2 6 11
f 2 11 14
f 2 14 13
f 2 13 9
f 2 9 5
f 3 5 10
f 3 10 7
f 4 8 11
f 4 11 6
f 5 9 10
f 7 10 13
f 7 13 14
f 7 14 12
f 8 12 14
f 8 14 11
f 9 13 10

