# https://github.com/mikedh/trimesh

o left_shin_output_fork_plate_124.obj
v 0.02892043 0.04018733 -0.05040412
v 0.02581261 0.04018733 -0.05040412
v 0.02892043 0.03779312 -0.05040412
v 0.02892043 0.04018733 -0.07002672
v 0.02580651 0.04018733 -0.05041180
v 0.02580651 0.04013390 -0.05040412
v 0.02580651 0.03779312 -0.05040412
v 0.02892043 0.03779312 -0.07002672
v 0.02588911 0.04018733 -0.07002672
v 0.02580651 0.04018733 -0.06988074
v 0.02580651 0.03779312 -0.06988074
v 0.02588911 0.03779312 -0.07002672
f 1 2 6
f 1 6 7
f 1 7 3
f 1 3 8
f 1 8 4
f 1 4 9
f 1 9 10
f 1 10 5
f 1 5 2
f 2 5 6
f 3 7 11
f 3 11 12
f 3 12 8
f 4 8 12
f 4 12 9
f 5 10 11
f 5 11 7
f 5 7 6
f 9 12 11
f 9 11 10

