# https://github.com/mikedh/trimesh

o left_foot_upper_fore_035.obj
v 0.04157761 0.02913980 -0.01559379
v 0.04157761 0.03570875 -0.01426976
v 0.04157761 0.03783598 -0.01559379
v 0.04565570 0.03099488 -0.01559379
v 0.04635049 0.03736284 -0.01427079
v 0.04634629 0.03736659 -0.01426976
v 0.04157761 0.04135140 -0.01426976
v 0.04157761 0.03862121 -0.01534868
v 0.04317932 0.03833408 -0.01559379
v 0.04601081 0.03119213 -0.01559379
v 0.04635049 0.03779229 -0.01426976
v 0.04635049 0.03138188 -0.01559379
v 0.04236398 0.04151868 -0.01426976
v 0.04157761 0.04111796 -0.01437734
v 0.04157761 0.03987457 -0.01489477
v 0.04460394 0.03925912 -0.01541025
v 0.04460394 0.03871858 -0.01559379
v 0.04635049 0.04144128 -0.01426976
v 0.04635049 0.03862745 -0.01559379
v 0.04375075 0.04176212 -0.01426976
v 0.04460394 0.04152118 -0.01446224
v 0.04256489 0.04146376 -0.01431292
v 0.04157761 0.04089200 -0.01448142
v 0.04256489 0.04065356 -0.01467234
v 0.04460394 0.04016045 -0.01506664
v 0.04460394 0.03970979 -0.01523851
v 0.04635049 0.03906937 -0.01543566
v 0.04552861 0.03869860 -0.01559379
v 0.04635049 0.04144128 -0.01427014
v 0.04627480 0.04146625 -0.01426976
v 0.04621079 0.03863993 -0.01559379
v 0.04460394 0.04189320 -0.01426976
v 0.04460394 0.04121283 -0.01460676
v 0.04635049 0.04061236 -0.01474247
v 0.04635049 0.04010677 -0.01498705
v 0.04635049 0.04001938 -0.01502840
v 0.04635049 0.03975598 -0.01515218
v 0.04460394 0.04090448 -0.01475115
v 0.04608089 0.03865117 -0.01559379
v 0.04635049 0.04136389 -0.01432212
v 0.04610846 0.04151993 -0.01426976
v 0.04483195 0.04184451 -0.01426976
v 0.04635049 0.04100685 -0.01453340
v 0.04635049 0.04132394 -0.01434830
v 0.04551366 0.04167848 -0.01426976
f 1 2 7
f 1 7 14
f 1 14 23
f 1 23 15
f 1 15 8
f 1 8 3
f 1 3 9
f 1 9 17
f 1 17 28
f 1 28 39
f 1 39 31
f 1 31 19
f 1 19 12
f 1 12 10
f 1 10 4
f 1 4 5
f 1 5 2
f 2 5 6
f 2 6 11
f 2 11 18
f 2 18 30
f 2 30 41
f 2 41 45
f 2 45 42
f 2 42 32
f 2 32 20
f 2 20 13
f 2 13 7
f 3 8 9
f 4 10 5
f 5 11 6
f 5 10 12
f 5 12 19
f 5 19 27
f 5 27 37
f 5 37 36
f 5 36 35
f 5 35 34
f 5 34 43
f 5 43 44
f 5 44 40
f 5 40 29
f 5 29 18
f 5 18 11
f 7 13 14
f 8 15 16
f 8 16 9
f 9 16 17
f 13 20 21
f 13 21 22
f 13 22 23
f 13 23 14
f 15 23 24
f 15 24 25
f 15 25 26
f 15 26 16
f 16 26 27
f 16 27 28
f 16 28 17
f 18 29 30
f 19 31 27
f 20 32 21
f 21 33 22
f 21 32 34
f 21 34 35
f 21 35 36
f 21 36 37
f 21 37 33
f 22 33 38
f 22 38 23
f 23 38 24
f 24 38 25
f 25 38 37
f 25 37 27
f 25 27 26
f 27 31 39
f 27 39 28
f 29 40 41
f 29 41 30
f 32 42 34
f 33 37 38
f 34 42 43
f 40 44 41
f 41 44 45
f 42 45 43
f 43 45 44

