# https://github.com/mikedh/trimesh

o left_foot_upper_fore_113.obj
v 0.02869108 0.04946370 -0.00218213
v 0.02869108 0.04945949 -0.00240344
v 0.02869108 0.04945401 -0.00185016
v 0.03065237 0.04910356 -0.00314980
v 0.03023071 0.04918486 -0.00314980
v 0.02993910 0.04923287 -0.00314980
v 0.02869108 0.04945443 -0.00256465
v 0.02869108 0.04942031 -0.00145708
v 0.03032765 0.04915747 -0.00279692
v 0.03092783 0.04904880 -0.00314980
v 0.02973877 0.04926531 -0.00314980
v 0.02869108 0.04941947 -0.00297438
v 0.02869108 0.04938999 -0.00125283
v 0.03149085 0.04891654 -0.00314980
v 0.03111442 0.04900500 -0.00314980
v 0.02906186 0.04935460 -0.00314980
v 0.02869108 0.04939209 -0.00314980
v 0.02869108 0.04693514 -0.00107558
v 0.02877106 0.04930996 -0.00107598
v 0.02927511 0.04918359 -0.00107558
v 0.03032765 0.04907281 -0.00209685
v 0.03202237 0.04877080 -0.00314980
v 0.02869108 0.04697642 -0.00314980
v 0.03216050 0.04516098 -0.00107558
v 0.02983490 0.04898857 -0.00107558
v 0.03032765 0.04899868 -0.00174722
v 0.03234306 0.04865876 -0.00309924
v 0.03250461 0.04860695 -0.00314980
v 0.03411048 0.04516267 -0.00314980
v 0.03393842 0.04516098 -0.00297295
v 0.03409917 0.04516098 -0.00107558
v 0.03036561 0.04878049 -0.00107558
v 0.03236729 0.04855093 -0.00273398
v 0.03236729 0.04859557 -0.00289133
v 0.03275018 0.04849743 -0.00314980
v 0.03694255 0.04517236 -0.00314980
v 0.03507739 0.04516098 -0.00121486
v 0.03493199 0.04517825 -0.00107558
v 0.03086967 0.04856019 -0.00107558
v 0.03236729 0.04844225 -0.00241988
v 0.03236729 0.04849659 -0.00257663
v 0.03294889 0.04840813 -0.00314980
v 0.03667518 0.04550512 -0.00314980
v 0.03480194 0.04535600 -0.00107558
v 0.03134787 0.04832852 -0.00107558
v 0.03236729 0.04831378 -0.00210680
v 0.03336651 0.04819963 -0.00314980
v 0.03623736 0.04599836 -0.00314980
v 0.03437139 0.04587958 -0.00107558
v 0.03180346 0.04808506 -0.00107558
v 0.03236729 0.04816593 -0.00179412
v 0.03376717 0.04797807 -0.00314980
v 0.03585286 0.04639430 -0.00314980
v 0.03391499 0.04638040 -0.00107558
v 0.03262012 0.04755475 -0.00107558
v 0.03230509 0.04780242 -0.00109974
v 0.03236729 0.04799787 -0.00148246
v 0.03414925 0.04774556 -0.00314980
v 0.03552571 0.04670010 -0.00314980
v 0.03344325 0.04684627 -0.00107558
v 0.03299978 0.04724305 -0.00107558
v 0.03520340 0.04697895 -0.00314980
v 0.03486656 0.04724600 -0.00314980
v 0.03451598 0.04750126 -0.00314980
f 1 2 7
f 1 7 12
f 1 12 17
f 1 17 23
f 1 23 18
f 1 18 13
f 1 13 8
f 1 8 3
f 1 3 4
f 1 4 5
f 1 5 2
f 2 5 6
f 2 6 7
f 3 8 9
f 3 9 4
f 4 10 15
f 4 15 14
f 4 14 22
f 4 22 28
f 4 28 35
f 4 35 42
f 4 42 47
f 4 47 52
f 4 52 58
f 4 58 64
f 4 64 63
f 4 63 62
f 4 62 59
f 4 59 53
f 4 53 48
f 4 48 43
f 4 43 36
f 4 36 29
f 4 29 23
f 4 23 17
f 4 17 16
f 4 16 11
f 4 11 6
f 4 6 5
f 4 9 10
f 6 11 7
f 7 11 12
f 8 13 14
f 8 14 15
f 8 15 10
f 8 10 9
f 11 16 12
f 12 16 17
f 13 18 19
f 13 19 20
f 13 20 21
f 13 21 14
f 14 21 22
f 18 24 31
f 18 31 38
f 18 38 44
f 18 44 49
f 18 49 54
f 18 54 60
f 18 60 61
f 18 61 55
f 18 55 50
f 18 50 45
f 18 45 39
f 18 39 32
f 18 32 25
f 18 25 20
f 18 20 19
f 18 23 24
f 20 25 26
f 20 26 22
f 20 22 21
f 22 26 27
f 22 27 28
f 23 29 30
f 23 30 24
f 24 30 37
f 24 37 31
f 25 32 33
f 25 33 34
f 25 34 26
f 26 34 27
f 27 34 28
f 28 34 35
f 29 36 30
f 30 36 37
f 31 37 38
f 32 39 40
f 32 40 41
f 32 41 33
f 33 41 42
f 33 42 35
f 33 35 34
f 36 43 44
f 36 44 38
f 36 38 37
f 39 45 46
f 39 46 40
f 40 46 47
f 40 47 42
f 40 42 41
f 43 48 49
f 43 49 44
f 45 50 51
f 45 51 46
f 46 51 52
f 46 52 47
f 48 53 54
f 48 54 49
f 50 55 56
f 50 56 57
f 50 57 51
f 51 57 58
f 51 58 52
f 53 59 60
f 53 60 54
f 55 61 62
f 55 62 63
f 55 63 56
f 56 63 64
f 56 64 57
f 57 64 58
f 59 62 61
f 59 61 60

