# https://github.com/mikedh/trimesh

o left_foot_upper_fore_088.obj
v -0.03120837 -0.04112105 0.00609998
v -0.03290000 -0.04379334 0.00135376
v -0.03290000 -0.04263863 0.00384999
v -0.03120837 -0.04297688 0.00609998
v -0.01801482 -0.04324773 0.00609998
v -0.01801482 -0.04540229 0.00135376
v -0.02990140 -0.04665420 0.00135376
v -0.03282569 -0.04625180 0.00135748
v -0.03290000 -0.04602695 0.00214031
v -0.03290000 -0.04554355 0.00335242
v -0.03229970 -0.04497332 0.00460727
v -0.03118360 -0.04413289 0.00609998
v -0.01956657 -0.04586884 0.00609998
v -0.01831934 -0.04613970 0.00590857
v -0.01801482 -0.04733135 0.00353175
v -0.01850001 -0.04774023 0.00160975
v -0.02250252 -0.04742595 0.00136491
v -0.02568179 -0.04712594 0.00135376
v -0.02768086 -0.04691534 0.00135376
v -0.02881881 -0.04672029 0.00173426
v -0.03086014 -0.04650322 0.00145690
v -0.03153912 -0.04632178 0.00181835
v -0.03086014 -0.04626800 0.00235727
v -0.02881881 -0.04637038 0.00295612
v -0.03086014 -0.04594854 0.00321583
v -0.03017824 -0.04591679 0.00355126
v -0.02881881 -0.04598872 0.00388762
v -0.02881881 -0.04555133 0.00472574
v -0.03038951 -0.04491436 0.00526698
v -0.03172999 -0.04457676 0.00536408
v -0.02881881 -0.04507765 0.00547837
v -0.02982417 -0.04441411 0.00609998
v -0.02066373 -0.04584292 0.00595364
v -0.02370167 -0.04535434 0.00609998
v -0.02254623 -0.04553513 0.00605167
v -0.01831934 -0.04657515 0.00517220
v -0.02066373 -0.04638982 0.00505885
v -0.01930285 -0.04633669 0.00539985
v -0.01831934 -0.04756203 0.00265275
v -0.01831934 -0.04699634 0.00431086
v -0.02066373 -0.04708187 0.00352524
v -0.02066373 -0.04737476 0.00255147
v -0.01930285 -0.04759897 0.00209525
v -0.02042477 -0.04759637 0.00149639
v -0.02202461 -0.04735273 0.00208410
v -0.02474346 -0.04715833 0.00172776
v -0.02745939 -0.04683175 0.00191963
v -0.02745939 -0.04666975 0.00254032
v -0.02474346 -0.04695033 0.00264485
v -0.02474346 -0.04662569 0.00357170
v -0.02678041 -0.04632697 0.00370783
v -0.02474346 -0.04612674 0.00465698
v -0.02474346 -0.04570037 0.00539195
v -0.02881881 -0.04462147 0.00609998
v -0.02506109 -0.04522798 0.00602379
v -0.02606791 -0.04502970 0.00609998
v -0.02202461 -0.04601205 0.00541936
v -0.01930285 -0.04672548 0.00467510
v -0.02202461 -0.04641704 0.00469833
v -0.02066373 -0.04673326 0.00437962
v -0.02270213 -0.04687581 0.00350898
v -0.02304308 -0.04717259 0.00243672
v -0.02236264 -0.04666522 0.00410365
f 1 2 3
f 1 3 4
f 1 4 12
f 1 12 32
f 1 32 54
f 1 54 56
f 1 56 34
f 1 34 13
f 1 13 5
f 1 5 6
f 1 6 2
f 2 7 8
f 2 8 9
f 2 9 10
f 2 10 3
f 2 6 18
f 2 18 19
f 2 19 7
f 3 10 11
f 3 11 4
f 4 11 12
f 5 13 14
f 5 14 15
f 5 15 6
f 6 15 16
f 6 16 17
f 6 17 18
f 7 19 20
f 7 20 21
f 7 21 8
f 8 22 9
f 8 21 22
f 9 22 23
f 9 23 24
f 9 24 25
f 9 25 10
f 10 25 26
f 10 26 27
f 10 27 28
f 10 28 11
f 11 29 30
f 11 30 12
f 11 28 31
f 11 31 29
f 12 30 32
f 13 33 14
f 13 34 35
f 13 35 33
f 14 36 15
f 14 33 37
f 14 37 38
f 14 38 36
f 15 39 16
f 15 36 40
f 15 40 41
f 15 41 42
f 15 42 39
f 16 39 43
f 16 43 44
f 16 44 17
f 17 44 45
f 17 45 46
f 17 46 18
f 18 46 19
f 19 46 47
f 19 47 20
f 20 24 23
f 20 23 22
f 20 22 21
f 20 47 48
f 20 48 24
f 24 48 49
f 24 49 50
f 24 50 51
f 24 51 27
f 24 27 26
f 24 26 25
f 27 51 52
f 27 52 28
f 28 52 53
f 28 53 31
f 29 31 30
f 30 31 54
f 30 54 32
f 31 55 56
f 31 56 54
f 31 53 55
f 33 35 34
f 33 34 53
f 33 53 57
f 33 57 37
f 34 56 55
f 34 55 53
f 36 38 37
f 36 37 58
f 36 58 40
f 37 57 53
f 37 53 52
f 37 52 59
f 37 59 60
f 37 60 58
f 39 42 43
f 40 58 60
f 40 60 41
f 41 61 49
f 41 49 42
f 41 60 61
f 42 49 62
f 42 62 45
f 42 45 43
f 43 45 44
f 45 62 46
f 46 62 49
f 46 49 47
f 47 49 48
f 49 61 50
f 50 61 63
f 50 63 51
f 51 63 52
f 52 63 60
f 52 60 59
f 60 63 61

