# https://github.com/mikedh/trimesh

o left_foot_rear_saddle_042.obj
v -0.03175000 0.00622071 -0.02445494
v -0.02675916 0.00622071 -0.02445494
v -0.03175000 0.00622071 -0.01952902
v -0.03175000 0.01860663 -0.02445494
v -0.02675916 0.00622071 -0.01952902
v -0.02675916 0.01659142 -0.02445494
v -0.03175000 0.01860663 -0.01952902
v -0.02747981 0.01860663 -0.02445494
v -0.02675916 0.01659142 -0.01952902
v -0.02747933 0.01860663 -0.01952902
f 1 2 5
f 1 5 3
f 1 3 7
f 1 7 4
f 1 4 8
f 1 8 6
f 1 6 2
f 2 6 9
f 2 9 5
f 3 5 9
f 3 9 10
f 3 10 7
f 4 7 10
f 4 10 8
f 6 8 10
f 6 10 9

