# https://github.com/mikedh/trimesh

o left_shin_stationary_idler_spider_021.obj
v -0.06564425 -0.04280356 -0.11392990
v -0.06564425 -0.04072419 -0.11392990
v -0.06466425 -0.04119075 -0.11379610
v -0.06466425 -0.04280356 -0.11379559
v -0.06564425 -0.04280356 -0.10878894
v -0.06466425 -0.04072419 -0.11379559
v -0.06564425 -0.04072419 -0.10878894
v -0.06466425 -0.04280356 -0.10876461
v -0.06515578 -0.04280356 -0.10875194
v -0.06551983 -0.04072419 -0.10877931
v -0.06466425 -0.04072419 -0.10876461
v -0.06483289 -0.04280356 -0.10876005
v -0.06515578 -0.04072419 -0.10875194
v -0.06477888 -0.04072419 -0.10876157
v -0.06489361 -0.04072419 -0.10875853
f 1 2 3
f 1 3 4
f 1 4 8
f 1 8 12
f 1 12 9
f 1 9 5
f 1 5 7
f 1 7 2
f 2 6 3
f 2 7 10
f 2 10 13
f 2 13 15
f 2 15 14
f 2 14 11
f 2 11 6
f 3 6 11
f 3 11 8
f 3 8 4
f 5 9 10
f 5 10 7
f 8 11 12
f 9 12 13
f 9 13 10
f 11 14 12
f 12 14 15
f 12 15 13

