# https://github.com/mikedh/trimesh

o left_hip_roll_output_adapter_053.obj
v 0.03004656 0.01293513 0.00775609
v 0.03004656 0.01293788 0.00575049
v 0.03024998 0.01293513 0.00775609
v 0.03004656 0.01293513 0.01522919
v 0.03024998 0.01293788 0.00575049
v 0.03004656 0.01337287 0.00073009
v 0.03024998 0.01293513 0.01522919
v 0.03004656 0.01311133 0.01507590
v 0.03024998 0.01337287 0.00073009
v 0.03004656 0.01996663 0.00073009
v 0.03024998 0.01337287 0.01484738
v 0.03004656 0.01378722 0.01448543
v 0.03024998 0.01996663 0.00073009
v 0.03004656 0.01993222 0.00150508
v 0.03024998 0.01382164 0.01445420
v 0.03004656 0.01382164 0.01445420
v 0.03024998 0.01995906 0.00089758
v 0.03004656 0.01992120 0.00174780
v 0.03024998 0.01991845 0.00179322
v 0.03024998 0.01444178 0.01380696
v 0.03004656 0.01499929 0.01322359
v 0.03004656 0.01991845 0.00179322
v 0.03004656 0.01990262 0.00191387
v 0.03024998 0.01979869 0.00268318
v 0.03024998 0.01506261 0.01315688
v 0.03004656 0.01506261 0.01315688
v 0.03004656 0.01968444 0.00352630
v 0.03024998 0.01967755 0.00357172
v 0.03024998 0.01618107 0.01175452
v 0.03004656 0.01509083 0.01312281
v 0.03004656 0.01967755 0.00357172
v 0.03004656 0.01965759 0.00366256
v 0.03024998 0.01927904 0.00532183
v 0.03024998 0.01716876 0.01025706
v 0.03004656 0.01618107 0.01175452
v 0.03004656 0.01927904 0.00532183
v 0.03024998 0.01872428 0.00702936
v 0.03024998 0.01801879 0.00867586
v 0.03004656 0.01761545 0.00942671
v 0.03004656 0.01716876 0.01025706
v 0.03004656 0.01872428 0.00702936
v 0.03004656 0.01864100 0.00722382
v 0.03004656 0.01801879 0.00867586
f 1 2 5
f 1 5 3
f 1 3 7
f 1 7 4
f 1 4 8
f 1 8 12
f 1 12 16
f 1 16 21
f 1 21 26
f 1 26 30
f 1 30 35
f 1 35 40
f 1 40 39
f 1 39 43
f 1 43 42
f 1 42 41
f 1 41 36
f 1 36 32
f 1 32 31
f 1 31 27
f 1 27 23
f 1 23 22
f 1 22 18
f 1 18 14
f 1 14 10
f 1 10 6
f 1 6 2
f 2 6 9
f 2 9 5
f 3 5 9
f 3 9 13
f 3 13 17
f 3 17 19
f 3 19 24
f 3 24 28
f 3 28 33
f 3 33 37
f 3 37 38
f 3 38 34
f 3 34 29
f 3 29 25
f 3 25 20
f 3 20 15
f 3 15 11
f 3 11 7
f 4 7 8
f 6 10 13
f 6 13 9
f 7 11 8
f 8 11 12
f 10 14 13
f 11 15 12
f 12 15 16
f 13 14 17
f 14 18 19
f 14 19 17
f 15 20 16
f 16 20 21
f 18 22 19
f 19 23 24
f 19 22 23
f 20 25 21
f 21 25 26
f 23 27 24
f 24 27 28
f 25 29 30
f 25 30 26
f 27 31 28
f 28 31 32
f 28 32 33
f 29 34 40
f 29 40 35
f 29 35 30
f 32 36 33
f 33 36 41
f 33 41 37
f 34 38 39
f 34 39 40
f 37 41 42
f 37 42 38
f 38 43 39
f 38 42 43

