# https://github.com/mikedh/trimesh

o left_foot_upper_fore_069.obj
v 0.04751890 0.03827074 -0.01124212
v 0.04884631 0.03438044 -0.01124212
v 0.04762675 0.04129374 -0.01124212
v 0.04751890 0.04150923 -0.01129877
v 0.04751890 0.03965812 -0.01295452
v 0.05017325 0.03438044 -0.01246172
v 0.05133980 0.03438044 -0.01198870
v 0.05070929 0.03441242 -0.01137152
v 0.05046224 0.03480534 -0.01124212
v 0.04780512 0.04102494 -0.01124212
v 0.04868407 0.04049801 -0.01193690
v 0.04868407 0.04070818 -0.01214978
v 0.04751890 0.04174072 -0.01155490
v 0.04751890 0.04215952 -0.01260151
v 0.04759034 0.04206967 -0.01290155
v 0.04790836 0.04181077 -0.01295452
v 0.05097200 0.03438044 -0.01295452
v 0.05070698 0.03439339 -0.01295251
v 0.05052631 0.03438044 -0.01278590
v 0.05177490 0.03438044 -0.01243456
v 0.05017464 0.03569853 -0.01124212
v 0.04800331 0.04071351 -0.01124212
v 0.04868407 0.04028328 -0.01175151
v 0.05068762 0.03793494 -0.01295452
v 0.05048713 0.03830577 -0.01295452
v 0.05029447 0.03864843 -0.01295452
v 0.05011287 0.03896291 -0.01295452
v 0.04990454 0.03931166 -0.01295452
v 0.04868407 0.04086504 -0.01234606
v 0.04751890 0.04198286 -0.01192400
v 0.04751890 0.04211992 -0.01227818
v 0.04839093 0.04140263 -0.01295452
v 0.04816693 0.04159756 -0.01295452
v 0.05222751 0.03448552 -0.01295452
v 0.05209431 0.03438044 -0.01277014
v 0.04989118 0.03652243 -0.01124212
v 0.04815587 0.04046299 -0.01124212
v 0.04868407 0.03999012 -0.01153629
v 0.05085032 0.03762198 -0.01295452
v 0.04973447 0.03958731 -0.01295452
v 0.04868407 0.04101124 -0.01259531
v 0.04959113 0.03981270 -0.01295452
v 0.04864028 0.04116581 -0.01292150
v 0.04879284 0.04098383 -0.01295452
v 0.05196157 0.03517084 -0.01295452
v 0.04941368 0.03779407 -0.01124212
v 0.04963860 0.03721003 -0.01124212
v 0.04830658 0.04020638 -0.01124212
v 0.04845638 0.03994291 -0.01124212
v 0.04866379 0.03966726 -0.01130565
v 0.05121213 0.03688869 -0.01295452
v 0.05108400 0.03715444 -0.01295452
v 0.05095910 0.03740572 -0.01295452
v 0.04945516 0.04002286 -0.01295452
v 0.04932242 0.04022313 -0.01295452
v 0.04911179 0.04053228 -0.01295452
v 0.04893111 0.04079041 -0.01295452
v 0.05179748 0.03557137 -0.01295452
v 0.04925144 0.03819764 -0.01124212
v 0.04880252 0.03925759 -0.01124212
v 0.05133658 0.03662370 -0.01295452
v 0.05170669 0.03579143 -0.01295452
v 0.04903067 0.03872838 -0.01124212
v 0.05147992 0.03630846 -0.01295452
f 1 2 9
f 1 9 21
f 1 21 36
f 1 36 47
f 1 47 46
f 1 46 59
f 1 59 63
f 1 63 60
f 1 60 49
f 1 49 48
f 1 48 37
f 1 37 22
f 1 22 10
f 1 10 3
f 1 3 4
f 1 4 13
f 1 13 30
f 1 30 31
f 1 31 14
f 1 14 5
f 1 5 2
f 2 6 19
f 2 19 17
f 2 17 35
f 2 35 20
f 2 20 7
f 2 7 8
f 2 8 9
f 2 5 6
f 3 10 11
f 3 11 4
f 4 11 12
f 4 12 13
f 5 14 15
f 5 15 16
f 5 16 33
f 5 33 32
f 5 32 44
f 5 44 57
f 5 57 56
f 5 56 55
f 5 55 54
f 5 54 42
f 5 42 40
f 5 40 28
f 5 28 27
f 5 27 26
f 5 26 25
f 5 25 24
f 5 24 39
f 5 39 53
f 5 53 52
f 5 52 51
f 5 51 61
f 5 61 64
f 5 64 62
f 5 62 58
f 5 58 45
f 5 45 34
f 5 34 17
f 5 17 18
f 5 18 19
f 5 19 6
f 7 20 21
f 7 21 9
f 7 9 8
f 10 22 23
f 10 23 11
f 11 23 24
f 11 24 25
f 11 25 26
f 11 26 12
f 12 26 27
f 12 27 28
f 12 28 29
f 12 29 13
f 13 29 30
f 14 31 32
f 14 32 33
f 14 33 16
f 14 16 15
f 17 34 35
f 17 19 18
f 20 35 36
f 20 36 21
f 22 37 23
f 23 37 38
f 23 38 39
f 23 39 24
f 28 40 29
f 29 41 30
f 29 40 42
f 29 42 41
f 30 41 31
f 31 41 43
f 31 43 32
f 32 43 44
f 34 45 46
f 34 46 47
f 34 47 36
f 34 36 35
f 37 48 38
f 38 48 49
f 38 49 50
f 38 50 51
f 38 51 52
f 38 52 53
f 38 53 39
f 41 42 54
f 41 54 55
f 41 55 56
f 41 56 57
f 41 57 44
f 41 44 43
f 45 58 59
f 45 59 46
f 49 60 50
f 50 60 61
f 50 61 51
f 58 62 59
f 59 62 63
f 60 63 62
f 60 62 64
f 60 64 61

