# https://github.com/mikedh/trimesh

o left_ankle_tapped_load_plate_153.obj
v 0.06140387 0.01925598 -0.02945695
v 0.06168215 0.01845983 -0.02945695
v 0.06140387 0.01925598 -0.03154068
v 0.05035571 0.01925598 -0.02945695
v 0.06205279 0.01688072 -0.03154068
v 0.06168215 0.01845983 -0.03154068
v 0.06208476 0.01674403 -0.02945695
v 0.05035571 0.01925598 -0.03154068
v 0.05035571 0.01517371 -0.02945695
v 0.06245303 0.01517371 -0.02945695
v 0.06245303 0.01517371 -0.03153823
v 0.06226949 0.01595587 -0.03154068
v 0.05035571 0.01517371 -0.03154068
v 0.06241277 0.01517371 -0.03154068
f 1 2 6
f 1 6 3
f 1 3 8
f 1 8 4
f 1 4 9
f 1 9 10
f 1 10 7
f 1 7 2
f 2 5 6
f 2 7 5
f 3 6 5
f 3 5 12
f 3 12 14
f 3 14 13
f 3 13 8
f 4 8 13
f 4 13 9
f 5 7 10
f 5 10 11
f 5 11 12
f 9 13 14
f 9 14 11
f 9 11 10
f 11 14 12

