# https://github.com/mikedh/trimesh

o left_foot_upper_fore_119.obj
v -0.00026848 -0.02103284 0.01996546
v -0.00230757 -0.02108113 0.01991483
v -0.00026848 -0.02675746 0.01859019
v 0.00177246 -0.02394172 0.01925219
v 0.00177246 -0.02105814 0.01993888
v -0.01335803 -0.02396011 0.01633710
v -0.00434479 -0.02112827 0.01986419
v -0.00026848 -0.03149904 0.01708201
v 0.00177246 -0.03156343 0.01705670
v 0.00381154 -0.03162781 0.01703138
v 0.00381154 -0.02684944 0.01853892
v -0.00434479 -0.02396126 0.01917498
v -0.00434479 -0.02679310 0.01848576
v 0.00381154 -0.02396701 0.01922561
v 0.00381154 -0.02108343 0.01991229
v -0.01335803 -0.03277872 0.01350049
v -0.01335803 -0.02171350 0.01922181
v -0.00842482 -0.02133753 0.01964015
v 0.00563129 -0.02353815 0.01694024
v -0.00230757 -0.03149214 0.01702948
v -0.00156034 -0.03277872 0.01653962
v -0.00026848 -0.03277872 0.01657443
v 0.00115534 -0.03277872 0.01657823
v 0.00245277 -0.03276377 0.01658456
v 0.00381154 -0.03277872 0.01657886
v 0.00563129 -0.03173934 0.01693328
v 0.00563129 -0.02695292 0.01843956
v -0.00842482 -0.02413143 0.01894840
v -0.00842482 -0.02692417 0.01825665
v -0.00434479 -0.03148409 0.01697695
v 0.00563129 -0.02117656 0.01981230
v -0.01335803 -0.03277872 0.01588585
v 0.00563129 -0.03277872 0.01416882
v -0.01250299 -0.02163647 0.01930978
v -0.01335803 -0.02388653 0.01867310
v -0.00284847 -0.03277872 0.01650418
v 0.00563129 -0.03277872 0.01652443
v -0.01046390 -0.02428090 0.01878322
v -0.00842482 -0.02923633 0.01750288
v -0.00706419 -0.02998597 0.01732757
v -0.01250299 -0.02713113 0.01792122
v -0.00638388 -0.03151629 0.01686303
v -0.00563665 -0.03277872 0.01639469
v -0.00434479 -0.03277872 0.01645861
v -0.01335803 -0.03170944 0.01632697
v -0.01250299 -0.03277872 0.01595990
v -0.01335803 -0.02490866 0.01841488
v -0.01250299 -0.02438437 0.01861550
v -0.00842482 -0.03154848 0.01674848
v -0.01046390 -0.02933981 0.01733517
v -0.01335803 -0.02605841 0.01812438
v -0.01335803 -0.02662294 0.01797818
v -0.01335803 -0.02718517 0.01783199
v -0.01335803 -0.02982730 0.01695670
v -0.01335803 -0.03077815 0.01664152
v -0.01250299 -0.03167495 0.01641495
v -0.00695080 -0.03277872 0.01632950
v -0.01182639 -0.03277872 0.01601053
v -0.01046390 -0.03161172 0.01658203
v -0.00842482 -0.03277872 0.01624976
v -0.00768874 -0.03277872 0.01628963
v -0.01113678 -0.03277872 0.01606179
v -0.00966091 -0.03277872 0.01616432
f 1 2 3
f 1 3 4
f 1 4 5
f 1 5 6
f 1 6 7
f 1 7 2
f 2 7 3
f 3 8 9
f 3 9 10
f 3 10 11
f 3 11 4
f 3 7 12
f 3 12 13
f 3 13 8
f 4 11 14
f 4 14 15
f 4 15 5
f 5 15 6
f 6 16 32
f 6 32 45
f 6 45 55
f 6 55 54
f 6 54 53
f 6 53 52
f 6 52 51
f 6 51 47
f 6 47 35
f 6 35 17
f 6 17 18
f 6 18 7
f 6 15 19
f 6 19 16
f 7 18 12
f 8 20 21
f 8 21 22
f 8 22 23
f 8 23 24
f 8 24 25
f 8 25 10
f 8 10 9
f 8 13 20
f 10 25 26
f 10 26 11
f 11 26 27
f 11 27 14
f 12 18 13
f 13 18 28
f 13 28 29
f 13 29 30
f 13 30 20
f 14 27 15
f 15 27 31
f 15 31 19
f 16 19 33
f 16 33 37
f 16 37 25
f 16 25 23
f 16 23 22
f 16 22 21
f 16 21 36
f 16 36 44
f 16 44 43
f 16 43 57
f 16 57 61
f 16 61 60
f 16 60 63
f 16 63 62
f 16 62 58
f 16 58 46
f 16 46 32
f 17 34 18
f 17 35 34
f 18 34 38
f 18 38 28
f 19 31 27
f 19 27 26
f 19 26 37
f 19 37 33
f 20 30 21
f 21 30 36
f 23 25 24
f 25 37 26
f 28 38 29
f 29 39 40
f 29 40 30
f 29 38 48
f 29 48 41
f 29 41 50
f 29 50 39
f 30 40 42
f 30 42 43
f 30 43 44
f 30 44 36
f 32 46 45
f 34 35 47
f 34 47 48
f 34 48 38
f 39 49 42
f 39 42 40
f 39 50 49
f 41 48 51
f 41 51 52
f 41 52 53
f 41 53 54
f 41 54 55
f 41 55 56
f 41 56 59
f 41 59 50
f 42 57 43
f 42 49 57
f 45 46 56
f 45 56 55
f 46 58 56
f 47 51 48
f 49 50 59
f 49 59 60
f 49 60 61
f 49 61 57
f 56 58 62
f 56 62 63
f 56 63 59
f 59 63 60

