# https://github.com/mikedh/trimesh

o left_foot_upper_fore_149.obj
v 0.04909284 0.03173927 -0.01569867
v 0.04909284 0.03796086 -0.01569867
v 0.04982169 0.03168062 -0.01569867
v 0.05139412 0.03501479 -0.01395935
v 0.04909352 0.03781511 -0.01395918
v 0.04909284 0.04044035 -0.01396531
v 0.04909284 0.03806607 -0.01566067
v 0.04922698 0.03790652 -0.01569867
v 0.05044953 0.03163060 -0.01569867
v 0.05082196 0.03183845 -0.01569867
v 0.05139570 0.03215927 -0.01569867
v 0.05139570 0.03762710 -0.01409755
v 0.05135625 0.03763572 -0.01396259
v 0.05121196 0.03784615 -0.01395781
v 0.04932144 0.04020232 -0.01395781
v 0.05072254 0.03840501 -0.01453702
v 0.05072254 0.03835585 -0.01462358
v 0.04909284 0.04037135 -0.01407437
v 0.05026760 0.03730886 -0.01569867
v 0.04909284 0.03882501 -0.01529344
v 0.05108437 0.03679485 -0.01569867
v 0.05139570 0.03658873 -0.01568742
v 0.05139570 0.03766246 -0.01427034
v 0.05093400 0.03824028 -0.01395781
v 0.05101696 0.03812386 -0.01395781
v 0.05110285 0.03800312 -0.01395781
v 0.04942627 0.04008761 -0.01395781
v 0.05139570 0.03757794 -0.01474338
v 0.05139570 0.03749600 -0.01489197
v 0.04909284 0.04028856 -0.01418684
v 0.05139570 0.03743736 -0.01497803
v 0.05063642 0.03709411 -0.01569867
v 0.04909284 0.03924588 -0.01505198
v 0.05087944 0.03693197 -0.01569867
v 0.05139570 0.03672672 -0.01560903
v 0.05139570 0.03766590 -0.01439695
v 0.05072254 0.03853179 -0.01405546
v 0.05062470 0.03865598 -0.01395781
v 0.05069368 0.03856456 -0.01395781
v 0.05079423 0.03843088 -0.01395781
v 0.04952185 0.03998240 -0.01395781
v 0.05139570 0.03762968 -0.01460774
v 0.04971753 0.03976334 -0.01395781
v 0.04909284 0.04018852 -0.01430527
v 0.05072254 0.03821700 -0.01481478
v 0.05139570 0.03736060 -0.01507328
v 0.04909284 0.03960120 -0.01481870
v 0.05139570 0.03696475 -0.01543982
v 0.05139570 0.03765297 -0.01451606
v 0.05027775 0.03909754 -0.01395781
v 0.05072254 0.03853006 -0.01410590
v 0.05038573 0.03896214 -0.01395781
v 0.05051694 0.03879569 -0.01395781
v 0.05004329 0.03935886 -0.01405375
v 0.04990104 0.03955118 -0.01395781
v 0.04981492 0.03965122 -0.01395781
v 0.04909284 0.04004794 -0.01445079
v 0.05072254 0.03811868 -0.01492435
v 0.05139570 0.03726573 -0.01517740
v 0.04909284 0.03986338 -0.01461609
v 0.05139570 0.03713551 -0.01530009
v 0.04999031 0.03944596 -0.01395781
v 0.05006629 0.03935368 -0.01396821
v 0.05016525 0.03923639 -0.01395781
f 1 2 8
f 1 8 19
f 1 19 32
f 1 32 34
f 1 34 21
f 1 21 11
f 1 11 10
f 1 10 9
f 1 9 3
f 1 3 4
f 1 4 5
f 1 5 6
f 1 6 18
f 1 18 30
f 1 30 44
f 1 44 57
f 1 57 60
f 1 60 47
f 1 47 33
f 1 33 20
f 1 20 7
f 1 7 2
f 2 7 8
f 3 9 4
f 4 9 10
f 4 10 11
f 4 11 12
f 4 12 13
f 4 13 14
f 4 14 5
f 5 14 15
f 5 15 6
f 6 15 16
f 6 16 17
f 6 17 18
f 7 19 8
f 7 20 19
f 11 21 22
f 11 22 35
f 11 35 48
f 11 48 61
f 11 61 59
f 11 59 46
f 11 46 31
f 11 31 29
f 11 29 28
f 11 28 42
f 11 42 49
f 11 49 36
f 11 36 23
f 11 23 12
f 12 23 24
f 12 24 25
f 12 25 26
f 12 26 14
f 12 14 13
f 14 26 25
f 14 25 24
f 14 24 40
f 14 40 39
f 14 39 38
f 14 38 53
f 14 53 52
f 14 52 50
f 14 50 64
f 14 64 62
f 14 62 55
f 14 55 56
f 14 56 43
f 14 43 41
f 14 41 27
f 14 27 15
f 15 27 28
f 15 28 16
f 16 28 29
f 16 29 17
f 17 29 18
f 18 29 31
f 18 31 30
f 19 20 32
f 20 33 32
f 21 34 33
f 21 33 35
f 21 35 22
f 23 36 37
f 23 37 38
f 23 38 39
f 23 39 40
f 23 40 24
f 27 41 28
f 28 41 43
f 28 43 42
f 30 31 45
f 30 45 44
f 31 46 45
f 32 33 34
f 33 47 35
f 35 47 48
f 36 49 50
f 36 50 51
f 36 51 37
f 37 51 52
f 37 52 53
f 37 53 38
f 42 43 54
f 42 54 55
f 42 55 49
f 43 56 54
f 44 45 46
f 44 46 58
f 44 58 57
f 46 59 58
f 47 60 48
f 48 60 61
f 49 55 62
f 49 62 63
f 49 63 64
f 49 64 50
f 50 52 51
f 54 56 55
f 57 58 59
f 57 59 61
f 57 61 60
f 62 64 63

