# https://github.com/mikedh/trimesh

o left_ankle_pitch_stationary_spider_030.obj
v 0.03414715 -0.02925000 -0.07496574
v 0.03280470 -0.02925000 -0.07312379
v 0.03414715 -0.03125000 -0.07496574
v 0.03414715 -0.02925000 -0.07738937
v 0.03039087 -0.02925000 -0.07316263
v 0.03280470 -0.03125000 -0.07312379
v 0.03414715 -0.03125000 -0.07738937
v 0.03383778 -0.02925000 -0.07734511
v 0.03039087 -0.03125000 -0.07316263
v 0.03038461 -0.02925000 -0.07349711
v 0.03383778 -0.03125000 -0.07734511
v 0.03354645 -0.02925000 -0.07729416
v 0.03038461 -0.03125000 -0.07349711
v 0.03040450 -0.02925000 -0.07379234
v 0.03354645 -0.03125000 -0.07729416
v 0.03345033 -0.02991699 -0.07726994
v 0.03325955 -0.02925000 -0.07722150
v 0.03040450 -0.03125000 -0.07379234
v 0.03044538 -0.02925000 -0.07408548
v 0.03325955 -0.03125000 -0.07722150
v 0.03307245 -0.03058301 -0.07715928
v 0.03297854 -0.02925000 -0.07712797
v 0.03044538 -0.03125000 -0.07408548
v 0.03050799 -0.02925000 -0.07437444
v 0.03046600 -0.03058301 -0.07418194
v 0.03297854 -0.03125000 -0.07712797
v 0.03270563 -0.03125000 -0.07701397
v 0.03263970 -0.02925000 -0.07698056
v 0.03050799 -0.03125000 -0.07437444
v 0.03059196 -0.02925000 -0.07465840
v 0.03257378 -0.03125000 -0.07694715
v 0.03244156 -0.02925000 -0.07687992
v 0.03059196 -0.03125000 -0.07465840
v 0.03069656 -0.02925000 -0.07493525
v 0.03244156 -0.03125000 -0.07687992
v 0.03227325 -0.02991699 -0.07677803
v 0.03218927 -0.02925000 -0.07672709
v 0.03069656 -0.03125000 -0.07493525
v 0.03082141 -0.02925000 -0.07520334
v 0.03073781 -0.03058301 -0.07502462
v 0.03218927 -0.03125000 -0.07672709
v 0.03200844 -0.02925000 -0.07659889
v 0.03082141 -0.03125000 -0.07520334
v 0.03096578 -0.02925000 -0.07546057
v 0.03091717 -0.03058301 -0.07537455
v 0.03200844 -0.03125000 -0.07659889
v 0.03183423 -0.02925000 -0.07646151
v 0.03096578 -0.03125000 -0.07546057
v 0.03104718 -0.02925000 -0.07558417
v 0.03183423 -0.03125000 -0.07646151
v 0.03172043 -0.02925000 -0.07636713
v 0.03104718 -0.03125000 -0.07558417
v 0.03112894 -0.02925000 -0.07570778
v 0.03107443 -0.02991699 -0.07562551
v 0.03172043 -0.03125000 -0.07636713
v 0.03157790 -0.03058301 -0.07623059
v 0.03150681 -0.02925000 -0.07616210
v 0.03112894 -0.03125000 -0.07570778
v 0.03130941 -0.02925000 -0.07594204
v 0.03118860 -0.03058301 -0.07578586
v 0.03150681 -0.03125000 -0.07616210
v 0.03130941 -0.03125000 -0.07594204
f 1 2 6
f 1 6 3
f 1 3 7
f 1 7 4
f 1 4 8
f 1 8 12
f 1 12 17
f 1 17 22
f 1 22 28
f 1 28 32
f 1 32 37
f 1 37 42
f 1 42 47
f 1 47 51
f 1 51 57
f 1 57 59
f 1 59 53
f 1 53 49
f 1 49 44
f 1 44 39
f 1 39 34
f 1 34 30
f 1 30 24
f 1 24 19
f 1 19 14
f 1 14 10
f 1 10 5
f 1 5 2
f 2 5 9
f 2 9 6
f 3 6 9
f 3 9 13
f 3 13 18
f 3 18 23
f 3 23 29
f 3 29 33
f 3 33 38
f 3 38 43
f 3 43 48
f 3 48 52
f 3 52 58
f 3 58 62
f 3 62 61
f 3 61 55
f 3 55 50
f 3 50 46
f 3 46 41
f 3 41 35
f 3 35 31
f 3 31 27
f 3 27 26
f 3 26 20
f 3 20 15
f 3 15 11
f 3 11 7
f 4 7 11
f 4 11 8
f 5 10 13
f 5 13 9
f 8 11 15
f 8 15 12
f 10 14 18
f 10 18 13
f 12 15 16
f 12 16 17
f 14 19 23
f 14 23 18
f 15 20 16
f 16 20 17
f 17 21 22
f 17 20 21
f 19 24 25
f 19 25 23
f 20 26 21
f 21 26 22
f 22 26 27
f 22 27 28
f 23 25 29
f 24 30 33
f 24 33 29
f 24 29 25
f 27 31 28
f 28 31 32
f 30 34 38
f 30 38 33
f 31 35 32
f 32 36 37
f 32 35 36
f 34 39 40
f 34 40 38
f 35 41 36
f 36 41 37
f 37 41 46
f 37 46 42
f 38 40 43
f 39 43 40
f 39 44 45
f 39 45 43
f 42 46 50
f 42 50 47
f 43 45 48
f 44 49 52
f 44 52 48
f 44 48 45
f 47 50 55
f 47 55 51
f 49 53 54
f 49 54 52
f 51 55 56
f 51 56 57
f 52 54 58
f 53 58 54
f 53 59 60
f 53 60 58
f 55 61 56
f 56 61 57
f 57 61 62
f 57 62 59
f 58 60 62
f 59 62 60

