# https://github.com/mikedh/trimesh

o left_thigh_idler_fork_plate_002.obj
v -0.00474973 -0.03740515 -0.01523152
v -0.00474973 -0.03740515 -0.00823270
v -0.00474973 -0.03625011 -0.01523152
v 0.00517443 -0.03740515 -0.01523152
v -0.00474973 -0.03675007 -0.00666660
v 0.00676425 -0.03740515 -0.00666660
v -0.00474973 -0.03625011 -0.00666660
v 0.00516310 -0.03625011 -0.01523152
v 0.00517443 -0.03625396 -0.01523152
v 0.00671705 -0.03740515 -0.01451973
v 0.01453591 -0.03740515 -0.00666660
v 0.01453591 -0.03625011 -0.00666660
v 0.00671705 -0.03625011 -0.01451973
v 0.00686621 -0.03740515 -0.01444260
v 0.01447927 -0.03740515 -0.00680829
v 0.01447927 -0.03625011 -0.00680829
v 0.00742322 -0.03625011 -0.01415001
v 0.00757239 -0.03740515 -0.01407204
v 0.01418283 -0.03740515 -0.00736413
v 0.01372778 -0.03625011 -0.00821593
v 0.00812939 -0.03625011 -0.01377944
v 0.00812939 -0.03740515 -0.01377944
v 0.01380709 -0.03740515 -0.00806754
v 0.01372778 -0.03740515 -0.00821593
v 0.01354274 -0.03740515 -0.00849428
v 0.01293664 -0.03740515 -0.00940224
v 0.01284223 -0.03625011 -0.00954142
v 0.00946243 -0.03625011 -0.01290166
v 0.00918299 -0.03740515 -0.01308610
v 0.01284223 -0.03740515 -0.00954142
v 0.01225502 -0.03740515 -0.01025572
v 0.01183018 -0.03625011 -0.01077216
v 0.01069918 -0.03625011 -0.01189559
v 0.00946243 -0.03740515 -0.01290166
v 0.01183018 -0.03740515 -0.01077216
v 0.01069918 -0.03740515 -0.01189559
f 1 2 5
f 1 5 7
f 1 7 3
f 1 3 8
f 1 8 9
f 1 9 4
f 1 4 10
f 1 10 14
f 1 14 18
f 1 18 22
f 1 22 29
f 1 29 34
f 1 34 36
f 1 36 35
f 1 35 31
f 1 31 30
f 1 30 26
f 1 26 25
f 1 25 24
f 1 24 23
f 1 23 19
f 1 19 15
f 1 15 11
f 1 11 6
f 1 6 2
f 2 6 5
f 3 7 12
f 3 12 16
f 3 16 20
f 3 20 27
f 3 27 32
f 3 32 33
f 3 33 28
f 3 28 21
f 3 21 17
f 3 17 13
f 3 13 8
f 4 9 13
f 4 13 10
f 5 6 11
f 5 11 12
f 5 12 7
f 8 13 9
f 10 13 14
f 11 15 16
f 11 16 12
f 13 17 14
f 14 17 21
f 14 21 18
f 15 19 16
f 16 19 20
f 18 21 22
f 19 23 20
f 20 24 25
f 20 25 26
f 20 26 27
f 20 23 24
f 21 28 29
f 21 29 22
f 26 30 27
f 27 30 31
f 27 31 32
f 28 33 36
f 28 36 34
f 28 34 29
f 31 35 32
f 32 35 36
f 32 36 33

