# https://github.com/mikedh/trimesh

o left_foot_front_saddle_075.obj
v 0.03059127 -0.00915330 0.01496493
v 0.03095925 -0.00915330 0.01496493
v 0.03059127 -0.00915330 0.01776752
v 0.02974305 -0.00914749 0.01497039
v 0.03059127 -0.00657296 0.01457849
v 0.03095925 -0.00657296 0.01457849
v 0.03095925 -0.00915330 0.01776752
v 0.02974305 -0.00881383 0.01794708
v 0.02974305 -0.00914749 0.01777047
v 0.02974305 -0.00733524 0.01531099
v 0.03059127 -0.00657296 0.01887385
v 0.03095925 -0.00657296 0.01887385
v 0.03095925 -0.00904039 0.01782723
v 0.02974305 -0.00867744 0.01801898
v 0.03095925 -0.00867744 0.01801898
v 0.02974305 -0.00733524 0.01860515
v 0.03059127 -0.00730720 0.01861692
v 0.03095925 -0.00716071 0.01866822
v 0.03095925 -0.00839329 0.01814303
v 0.03059127 -0.00733524 0.01860515
v 0.03095925 -0.00730720 0.01861692
v 0.03095925 -0.00768329 0.01845293
f 1 2 7
f 1 7 3
f 1 3 9
f 1 9 4
f 1 4 5
f 1 5 6
f 1 6 2
f 2 6 12
f 2 12 18
f 2 18 21
f 2 21 22
f 2 22 19
f 2 19 15
f 2 15 13
f 2 13 7
f 3 7 8
f 3 8 9
f 4 10 5
f 4 9 8
f 4 8 14
f 4 14 16
f 4 16 10
f 5 10 16
f 5 16 11
f 5 11 12
f 5 12 6
f 7 13 8
f 8 13 15
f 8 15 14
f 11 16 17
f 11 17 18
f 11 18 12
f 14 15 20
f 14 20 16
f 15 19 20
f 16 20 21
f 16 21 17
f 17 21 18
f 19 22 20
f 20 22 21

