# https://github.com/mikedh/trimesh

o left_shin_stationary_idler_spider_014.obj
v -0.06564432 -0.04072419 -0.11393045
v -0.06597364 -0.04072419 -0.10883710
v -0.06564432 -0.04280346 -0.11393045
v -0.06564486 -0.04072419 -0.11606846
v -0.06693201 -0.04072419 -0.10906001
v -0.06674680 -0.04308477 -0.10900848
v -0.06606131 -0.04288818 -0.10885148
v -0.06595775 -0.04326965 -0.11420010
v -0.06564486 -0.04280346 -0.11606846
v -0.06603610 -0.04326965 -0.11011823
v -0.06642734 -0.04072419 -0.12108031
v -0.06754298 -0.04072419 -0.10929371
v -0.06755997 -0.04297314 -0.10930090
v -0.06812765 -0.04302646 -0.10959092
v -0.06806354 -0.04326965 -0.11106260
v -0.06750079 -0.04326965 -0.11067790
v -0.06683612 -0.04326965 -0.11036271
v -0.06596158 -0.04326965 -0.11579521
v -0.06655721 -0.04295072 -0.12104076
v -0.06729421 -0.04072419 -0.12080347
v -0.06830190 -0.04072419 -0.10970597
v -0.06886136 -0.04299980 -0.11009905
v -0.06957973 -0.04302646 -0.11075220
v -0.06866136 -0.04326965 -0.11160309
v -0.06689256 -0.04326965 -0.11961462
v -0.06788162 -0.04305811 -0.12053622
v -0.06845752 -0.04072419 -0.12019107
v -0.06934247 -0.04072419 -0.11051971
v -0.06998139 -0.04072419 -0.11122798
v -0.06997810 -0.04302646 -0.11122558
v -0.06912219 -0.04326965 -0.11219392
v -0.06750079 -0.04326965 -0.11932220
v -0.06801587 -0.04326965 -0.11897586
v -0.06913644 -0.04302646 -0.11968174
v -0.06865040 -0.04297314 -0.12006883
v -0.06915562 -0.04072419 -0.11966376
v -0.07038304 -0.04072419 -0.11183918
v -0.07033153 -0.04302646 -0.11174331
v -0.07063071 -0.04302646 -0.11229219
v -0.06959617 -0.04326965 -0.11306518
v -0.06852821 -0.04326965 -0.11852525
v -0.06898246 -0.04326965 -0.11801232
v -0.07033153 -0.04302646 -0.11825680
v -0.06977974 -0.04299980 -0.11901061
v -0.06960056 -0.04072419 -0.11922513
v -0.07074633 -0.04072419 -0.11256663
v -0.07097483 -0.04302646 -0.11319940
v -0.06988988 -0.04326965 -0.11401793
v -0.06938083 -0.04326965 -0.11738314
v -0.07063071 -0.04302646 -0.11770672
v -0.07064112 -0.04072419 -0.11768155
v -0.07014632 -0.04072419 -0.11852884
v -0.07112168 -0.04072419 -0.11379143
v -0.07117867 -0.04302646 -0.11407666
v -0.07124168 -0.04302646 -0.11469145
v -0.06998851 -0.04326965 -0.11499945
v -0.06976604 -0.04326965 -0.11646993
v -0.07097483 -0.04302646 -0.11679950
v -0.07095565 -0.04072419 -0.11686182
v -0.07124223 -0.04072419 -0.11469026
v -0.07124168 -0.04302646 -0.11530865
v -0.06993810 -0.04326965 -0.11574128
v -0.07117757 -0.04302646 -0.11593303
v -0.07121374 -0.04072419 -0.11558669
f 1 2 3
f 1 3 9
f 1 9 4
f 1 4 11
f 1 11 20
f 1 20 27
f 1 27 36
f 1 36 45
f 1 45 52
f 1 52 51
f 1 51 59
f 1 59 64
f 1 64 60
f 1 60 53
f 1 53 46
f 1 46 37
f 1 37 29
f 1 29 28
f 1 28 21
f 1 21 12
f 1 12 5
f 1 5 2
f 2 5 6
f 2 6 7
f 2 7 3
f 3 8 9
f 3 7 10
f 3 10 8
f 4 9 11
f 5 12 13
f 5 13 6
f 6 13 14
f 6 14 15
f 6 15 16
f 6 16 17
f 6 17 10
f 6 10 7
f 8 10 17
f 8 17 16
f 8 16 15
f 8 15 24
f 8 24 31
f 8 31 40
f 8 40 48
f 8 48 56
f 8 56 62
f 8 62 57
f 8 57 49
f 8 49 42
f 8 42 41
f 8 41 33
f 8 33 32
f 8 32 25
f 8 25 18
f 8 18 9
f 9 18 19
f 9 19 11
f 11 19 20
f 12 21 14
f 12 14 13
f 14 21 22
f 14 22 23
f 14 23 15
f 15 23 24
f 18 25 19
f 19 26 20
f 19 25 26
f 20 26 27
f 21 28 22
f 22 28 23
f 23 28 29
f 23 29 30
f 23 30 24
f 24 30 31
f 25 32 26
f 26 32 33
f 26 33 34
f 26 34 35
f 26 35 27
f 27 35 36
f 29 37 38
f 29 38 30
f 30 38 31
f 31 39 40
f 31 38 39
f 33 41 34
f 34 36 35
f 34 41 42
f 34 42 43
f 34 43 44
f 34 44 45
f 34 45 36
f 37 46 39
f 37 39 38
f 39 46 47
f 39 47 40
f 40 47 48
f 42 49 43
f 43 50 51
f 43 51 52
f 43 52 44
f 43 49 50
f 44 52 45
f 46 53 47
f 47 53 54
f 47 54 48
f 48 54 55
f 48 55 56
f 49 57 50
f 50 57 58
f 50 58 59
f 50 59 51
f 53 60 54
f 54 60 55
f 55 61 56
f 55 60 61
f 56 61 62
f 57 62 58
f 58 62 63
f 58 63 59
f 59 63 64
f 60 64 61
f 61 64 63
f 61 63 62

