# https://github.com/mikedh/trimesh

o left_foot_front_saddle_033.obj
v 0.02660000 -0.00435874 -0.02447760
v 0.02660000 0.00158625 -0.02447760
v 0.03209946 -0.00435874 -0.02447760
v 0.02660000 -0.00435874 -0.01559285
v 0.03209946 0.00158625 -0.02447760
v 0.02660000 0.00158625 -0.01562068
v 0.03209946 -0.00435874 -0.01559285
v 0.02660000 -0.00162483 -0.01559285
v 0.03209946 0.00158625 -0.01562068
v 0.03209946 -0.00162483 -0.01559285
f 1 2 5
f 1 5 3
f 1 3 7
f 1 7 4
f 1 4 8
f 1 8 6
f 1 6 2
f 2 6 9
f 2 9 5
f 3 5 9
f 3 9 10
f 3 10 7
f 4 7 10
f 4 10 8
f 6 8 10
f 6 10 9

