# https://github.com/mikedh/trimesh

o left_ankle_pitch_base_disc_072.obj
v -0.01099559 0.02925000 0.00530903
v -0.01316754 0.02925000 0.00613568
v -0.01099559 0.02865563 0.00530903
v -0.01099559 0.02925000 0.00175805
v -0.01316754 0.02775034 0.00613568
v -0.01316754 0.02925000 0.00165319
v -0.01099580 0.02775034 0.00530903
v -0.01099559 0.02865563 0.00175805
v -0.01316754 0.02775034 0.00165319
v -0.01099580 0.02775034 0.00175805
f 1 2 5
f 1 5 3
f 1 3 8
f 1 8 4
f 1 4 6
f 1 6 2
f 2 6 9
f 2 9 5
f 3 5 7
f 3 7 10
f 3 10 8
f 4 8 9
f 4 9 6
f 5 9 10
f 5 10 7
f 8 10 9

