# https://github.com/mikedh/trimesh

o left_thigh_output_adapter_016.obj
v -0.00089213 0.02624434 -0.00390015
v -0.00393286 0.02624434 -0.00070628
v -0.00089213 0.02495000 -0.00390015
v -0.00089213 0.02624434 -0.00892713
v -0.00401697 0.02624434 -0.00070628
v -0.00393286 0.02495000 -0.00070628
v -0.00089213 0.02495000 -0.00892713
v -0.00111664 0.02624434 -0.00891023
v -0.00401697 0.02495000 -0.00070628
v -0.00401697 0.02624434 -0.00801862
v -0.00111664 0.02495000 -0.00891023
v -0.00155772 0.02559983 -0.00883218
v -0.00199818 0.02624434 -0.00875412
v -0.00401697 0.02495000 -0.00801862
v -0.00369672 0.02624434 -0.00818278
v -0.00155772 0.02495000 -0.00883218
v -0.00199818 0.02495000 -0.00875412
v -0.00242916 0.02495000 -0.00863341
v -0.00264664 0.02624434 -0.00857226
v -0.00369305 0.02495000 -0.00818439
v -0.00368601 0.02624434 -0.00818761
v -0.00264664 0.02495000 -0.00857226
v -0.00285984 0.02624434 -0.00851190
v -0.00285984 0.02495000 -0.00851190
f 1 2 6
f 1 6 3
f 1 3 7
f 1 7 4
f 1 4 8
f 1 8 13
f 1 13 19
f 1 19 23
f 1 23 21
f 1 21 15
f 1 15 10
f 1 10 5
f 1 5 2
f 2 5 9
f 2 9 6
f 3 6 9
f 3 9 14
f 3 14 20
f 3 20 24
f 3 24 22
f 3 22 18
f 3 18 17
f 3 17 16
f 3 16 11
f 3 11 7
f 4 7 11
f 4 11 8
f 5 10 14
f 5 14 9
f 8 12 13
f 8 11 16
f 8 16 12
f 10 15 14
f 12 16 17
f 12 17 13
f 13 17 18
f 13 18 19
f 14 15 20
f 15 21 20
f 18 22 19
f 19 22 24
f 19 24 23
f 20 21 24
f 21 23 24

