# https://github.com/mikedh/trimesh

o left_foot_upper_fore_105.obj
v 0.03233624 -0.04868689 -0.00538157
v 0.03233624 -0.04824169 -0.00666493
v 0.03235197 -0.04847154 -0.00612458
v 0.03235197 -0.04859106 -0.00575916
v 0.03236733 -0.04868116 -0.00539884
v 0.03235197 -0.04874951 -0.00502490
v 0.03235197 -0.04876402 -0.00489255
v 0.03233624 -0.04635666 -0.00489255
v 0.03235197 -0.04795266 -0.00721745
v 0.03235197 -0.04805269 -0.00703595
v 0.03235197 -0.04815196 -0.00685446
v 0.03235197 -0.04832531 -0.00649001
v 0.03233624 -0.04514171 -0.00737802
v 0.03235197 -0.04785262 -0.00737802
v 0.03457271 -0.04791409 -0.00737802
v 0.03485944 -0.04790531 -0.00737802
v 0.03440593 -0.04806797 -0.00696808
v 0.03544023 -0.04786713 -0.00737802
v 0.03236733 -0.04871400 -0.00521515
v 0.03558726 -0.04785186 -0.00737802
v 0.03564907 -0.04784536 -0.00737802
v 0.03508583 -0.04800306 -0.00698073
v 0.03596945 -0.04781062 -0.00737802
v 0.03603638 -0.04780107 -0.00737802
v 0.03440593 -0.04824398 -0.00620219
v 0.03273599 -0.04869300 -0.00489255
v 0.03607222 -0.04486375 -0.00489255
v 0.03268003 -0.04787820 -0.00737802
v 0.03336908 -0.04791027 -0.00737802
v 0.03399814 -0.04792134 -0.00737802
v 0.03607222 -0.04536928 -0.00737802
v 0.03508949 -0.04789080 -0.00737802
v 0.03526066 -0.04787935 -0.00737802
v 0.03607222 -0.04781215 -0.00727998
v 0.03607222 -0.04779573 -0.00737705
v 0.03440593 -0.04826345 -0.00601826
v 0.03607222 -0.04783429 -0.00714227
v 0.03300956 -0.04863038 -0.00489255
v 0.03607222 -0.04785758 -0.00689557
v 0.03607222 -0.04786026 -0.00682526
v 0.03602614 -0.04746775 -0.00489255
v 0.03606893 -0.04744178 -0.00489425
v 0.03607222 -0.04745744 -0.00492880
v 0.03313391 -0.04860175 -0.00489255
v 0.03607222 -0.04786446 -0.00662017
v 0.03327764 -0.04856815 -0.00489255
v 0.03323449 -0.04857846 -0.00489255
v 0.03607222 -0.04758802 -0.00523267
v 0.03561834 -0.04769416 -0.00489255
v 0.03440593 -0.04828446 -0.00556793
v 0.03607222 -0.04786255 -0.00656616
v 0.03332519 -0.04855669 -0.00489255
v 0.03607222 -0.04767965 -0.00549518
v 0.03522408 -0.04788851 -0.00489255
v 0.03356804 -0.04848987 -0.00489255
v 0.03607222 -0.04784842 -0.00632019
v 0.03440593 -0.04826995 -0.00525043
v 0.03371945 -0.04844787 -0.00489255
v 0.03607222 -0.04775716 -0.00577400
v 0.03480093 -0.04807331 -0.00489255
v 0.03607222 -0.04781253 -0.00604624
v 0.03433462 -0.04825047 -0.00489255
v 0.03385550 -0.04840855 -0.00489255
v 0.03378419 -0.04842916 -0.00489255
f 1 2 3
f 1 3 4
f 1 4 5
f 1 5 6
f 1 6 7
f 1 7 8
f 1 8 13
f 1 13 2
f 2 9 10
f 2 10 11
f 2 11 12
f 2 12 3
f 2 13 14
f 2 14 9
f 3 12 15
f 3 15 16
f 3 16 17
f 3 17 4
f 4 17 18
f 4 18 5
f 5 19 6
f 5 18 20
f 5 20 21
f 5 21 22
f 5 22 23
f 5 23 24
f 5 24 19
f 6 19 24
f 6 24 25
f 6 25 7
f 7 25 26
f 7 26 38
f 7 38 44
f 7 44 47
f 7 47 46
f 7 46 52
f 7 52 55
f 7 55 58
f 7 58 64
f 7 64 63
f 7 63 62
f 7 62 60
f 7 60 54
f 7 54 49
f 7 49 41
f 7 41 27
f 7 27 8
f 8 27 13
f 9 14 28
f 9 28 29
f 9 29 10
f 10 29 11
f 11 29 30
f 11 30 12
f 12 30 15
f 13 27 31
f 13 31 24
f 13 24 23
f 13 23 21
f 13 21 20
f 13 20 18
f 13 18 33
f 13 33 32
f 13 32 16
f 13 16 15
f 13 15 30
f 13 30 29
f 13 29 28
f 13 28 14
f 16 32 17
f 17 32 33
f 17 33 18
f 21 23 22
f 24 34 25
f 24 31 35
f 24 35 34
f 25 36 26
f 25 34 37
f 25 37 36
f 26 36 39
f 26 39 40
f 26 40 38
f 27 41 42
f 27 42 43
f 27 43 48
f 27 48 53
f 27 53 59
f 27 59 61
f 27 61 56
f 27 56 51
f 27 51 45
f 27 45 40
f 27 40 39
f 27 39 37
f 27 37 34
f 27 34 35
f 27 35 31
f 36 37 39
f 38 40 44
f 40 45 46
f 40 46 47
f 40 47 44
f 41 48 43
f 41 43 42
f 41 49 48
f 45 50 46
f 45 51 50
f 46 50 52
f 48 49 53
f 49 54 53
f 50 55 52
f 50 51 55
f 51 56 57
f 51 57 58
f 51 58 55
f 53 54 59
f 54 60 59
f 56 61 62
f 56 62 57
f 57 62 63
f 57 63 64
f 57 64 58
f 59 60 61
f 60 62 61

