# https://github.com/mikedh/trimesh

o left_hip_roll_carrier_arm_036.obj
v 0.03471417 0.03230484 -0.01829043
v 0.03471417 0.03405736 -0.01838169
v 0.03246664 0.03420587 -0.01828309
v 0.03246664 0.03230484 -0.01829043
v 0.03471417 0.03230484 -0.02899791
v 0.03471417 0.03405736 -0.02899791
v 0.03175874 0.03420587 -0.01828309
v 0.03246664 0.03420587 -0.02899686
v 0.03175874 0.03243921 -0.01837959
v 0.03246664 0.03230484 -0.02899791
v 0.03246664 0.03243921 -0.02899896
v 0.03246664 0.03286687 -0.02899896
v 0.03246664 0.03405736 -0.02899791
v 0.03175874 0.03420587 -0.02899686
v 0.03175874 0.03243921 -0.02899896
v 0.03175874 0.03286687 -0.02899896
f 1 2 3
f 1 3 7
f 1 7 4
f 1 4 10
f 1 10 5
f 1 5 6
f 1 6 2
f 2 6 8
f 2 8 3
f 3 8 14
f 3 14 7
f 4 7 9
f 4 9 15
f 4 15 10
f 5 10 15
f 5 15 11
f 5 11 12
f 5 12 6
f 6 12 16
f 6 16 13
f 6 13 14
f 6 14 8
f 7 14 16
f 7 16 15
f 7 15 9
f 11 15 16
f 11 16 12
f 13 16 14

