# https://github.com/mikedh/trimesh

o left_hip_roll_carrier_arm_056.obj
v 0.03025000 -0.00314431 0.01488586
v 0.03025000 -0.00314431 0.01973297
v 0.03025000 -0.00254667 0.01488586
v 0.03575000 -0.00314431 0.01488586
v 0.03025000 -0.00254263 0.01983728
v 0.03575000 -0.00314431 0.01973297
v 0.03025000 -0.00192880 0.01566449
v 0.03575000 -0.00254667 0.01488586
v 0.03025000 -0.00192880 0.01988870
v 0.03575000 -0.00254263 0.01983728
v 0.03575000 -0.00192880 0.01566449
v 0.03575000 -0.00192880 0.01988870
f 1 2 5
f 1 5 9
f 1 9 7
f 1 7 3
f 1 3 8
f 1 8 4
f 1 4 6
f 1 6 2
f 2 6 10
f 2 10 5
f 3 7 11
f 3 11 8
f 4 8 11
f 4 11 12
f 4 12 10
f 4 10 6
f 5 10 12
f 5 12 9
f 7 9 12
f 7 12 11

