# https://github.com/mikedh/trimesh

o left_hip_roll_output_adapter_094.obj
v 0.03024961 0.00411898 -0.01113870
v 0.02625039 0.00411898 -0.01113870
v 0.03024961 0.00250183 -0.01113870
v 0.03024961 0.00494936 -0.01212193
v 0.02625039 0.00250183 -0.01113870
v 0.02625039 0.00494936 -0.01212193
v 0.03024961 0.00250183 -0.01983545
v 0.03024961 0.00494936 -0.01936044
v 0.02625039 0.00250183 -0.01983545
v 0.02625039 0.00494936 -0.01936044
v 0.03024961 0.00268487 -0.01981843
v 0.03024961 0.00445032 -0.01949834
v 0.02625039 0.00268487 -0.01981843
v 0.02625039 0.00445032 -0.01949834
v 0.02891641 0.00327327 -0.01971202
v 0.03024961 0.00356771 -0.01965839
v 0.02625039 0.00356771 -0.01965839
f 1 2 5
f 1 5 3
f 1 3 7
f 1 7 11
f 1 11 16
f 1 16 12
f 1 12 8
f 1 8 4
f 1 4 6
f 1 6 2
f 2 6 10
f 2 10 14
f 2 14 17
f 2 17 13
f 2 13 9
f 2 9 5
f 3 5 9
f 3 9 7
f 4 8 10
f 4 10 6
f 7 9 13
f 7 13 11
f 8 12 14
f 8 14 10
f 11 13 15
f 11 15 16
f 12 16 15
f 12 15 14
f 13 17 15
f 14 15 17

