# https://github.com/mikedh/trimesh

o left_hip_roll_output_adapter_069.obj
v 0.03004654 -0.00989296 0.00851835
v 0.02838975 -0.00989296 0.00851835
v 0.03004654 -0.01082769 0.00851835
v 0.03004654 -0.00989296 -0.00121987
v 0.02838975 -0.01082769 0.00851835
v 0.02838975 -0.00989296 -0.00121987
v 0.02674781 -0.00991823 0.00761754
v 0.02838975 -0.01085626 0.00538603
v 0.03004654 -0.01082769 0.00164936
v 0.03004654 -0.01038517 -0.00121987
v 0.02674781 -0.01034896 0.00761754
v 0.02674781 -0.01085626 0.00538603
v 0.02838975 -0.01038517 -0.00121987
v 0.02674781 -0.00991823 -0.00121796
v 0.02838975 -0.01085626 0.00167128
v 0.02674781 -0.01085626 0.00167128
v 0.02674781 -0.01038536 -0.00121796
f 1 2 5
f 1 5 3
f 1 3 9
f 1 9 10
f 1 10 4
f 1 4 6
f 1 6 2
f 2 6 14
f 2 14 7
f 2 7 11
f 2 11 5
f 3 5 12
f 3 12 8
f 3 8 15
f 3 15 9
f 4 10 13
f 4 13 6
f 5 11 12
f 6 13 17
f 6 17 14
f 7 14 17
f 7 17 16
f 7 16 12
f 7 12 11
f 8 12 16
f 8 16 15
f 9 15 10
f 10 15 16
f 10 16 13
f 13 16 17

