# https://github.com/mikedh/trimesh

o left_ankle_tapped_load_plate_127.obj
v 0.03887474 0.04055773 -0.02850009
v 0.04140694 0.03963698 -0.02850009
v 0.03887474 0.04055773 -0.02945675
v 0.00455520 0.04055773 -0.02850009
v 0.04781447 0.03622931 -0.02850009
v 0.04628360 0.03704471 -0.02945675
v 0.04140694 0.03963698 -0.02945675
v 0.00455520 0.04055773 -0.02945675
v 0.00455520 0.03151400 -0.02850009
v 0.05264299 0.03263661 -0.02850009
v 0.04896985 0.03537053 -0.02945675
v 0.04781447 0.03622931 -0.02945675
v 0.04704904 0.03663745 -0.02945675
v 0.00455520 0.03151400 -0.02945675
v 0.05373578 0.03151400 -0.02850009
v 0.05264299 0.03263661 -0.02945675
v 0.05373578 0.03151400 -0.02945675
f 1 2 7
f 1 7 3
f 1 3 8
f 1 8 4
f 1 4 9
f 1 9 15
f 1 15 10
f 1 10 5
f 1 5 2
f 2 5 6
f 2 6 7
f 3 7 6
f 3 6 13
f 3 13 12
f 3 12 11
f 3 11 16
f 3 16 17
f 3 17 14
f 3 14 8
f 4 8 14
f 4 14 9
f 5 10 11
f 5 11 12
f 5 12 13
f 5 13 6
f 9 14 17
f 9 17 15
f 10 15 17
f 10 17 16
f 10 16 11

