# https://github.com/mikedh/trimesh

o left_foot_front_saddle_019.obj
v 0.03210155 -0.01295528 -0.02447772
v 0.03210155 -0.01295528 -0.02449996
v 0.02660127 -0.01295528 -0.02447772
v 0.03210155 -0.01704772 -0.02447772
v 0.05068133 -0.01300014 -0.02472450
v 0.05068133 -0.01300014 -0.02549374
v 0.05039665 -0.01300014 -0.02573929
v 0.03209633 -0.01295528 -0.02450008
v 0.02660127 -0.01295528 -0.02450008
v 0.02400000 -0.01300014 -0.02472450
v 0.02400261 -0.01300014 -0.02450008
v 0.02660127 -0.01704772 -0.02447772
v 0.03213028 -0.01704772 -0.02450008
v 0.05068133 -0.01665193 -0.02472450
v 0.05068133 -0.01665193 -0.02549374
v 0.05039665 -0.01646766 -0.02573929
v 0.02400000 -0.01300014 -0.02573929
v 0.02400000 -0.01665193 -0.02472450
v 0.02400261 -0.01704772 -0.02450008
v 0.03213028 -0.01704772 -0.02472438
v 0.02400000 -0.01665193 -0.02549374
v 0.02400000 -0.01646766 -0.02573929
v 0.02400261 -0.01704772 -0.02472438
f 1 2 8
f 1 8 9
f 1 9 3
f 1 3 12
f 1 12 4
f 1 4 14
f 1 14 5
f 1 5 6
f 1 6 2
f 2 6 7
f 2 7 8
f 3 9 17
f 3 17 10
f 3 10 11
f 3 11 19
f 3 19 12
f 4 13 14
f 4 12 19
f 4 19 23
f 4 23 20
f 4 20 13
f 5 14 15
f 5 15 6
f 6 15 16
f 6 16 7
f 7 16 22
f 7 22 17
f 7 17 9
f 7 9 8
f 10 17 22
f 10 22 21
f 10 21 18
f 10 18 19
f 10 19 11
f 13 20 15
f 13 15 14
f 15 20 23
f 15 23 21
f 15 21 22
f 15 22 16
f 18 21 23
f 18 23 19

