# https://github.com/mikedh/trimesh

o left_ankle_tapped_load_plate_116.obj
v -0.09127578 -0.00445237 -0.02850000
v -0.09127578 -0.00976037 -0.02850000
v -0.09127578 -0.00445237 -0.03154089
v -0.12596779 -0.00445237 -0.02850000
v -0.09127578 -0.00976037 -0.03154089
v -0.09339500 -0.00979225 -0.02850000
v -0.12596779 -0.00445237 -0.03154089
v -0.12596100 -0.00474508 -0.02850000
v -0.09339500 -0.00979225 -0.03154089
v -0.12565195 -0.00979225 -0.02850000
v -0.12596100 -0.00474508 -0.03154089
v -0.12594062 -0.00532737 -0.03154089
v -0.12586930 -0.00717249 -0.02850000
v -0.12565195 -0.00979225 -0.03154089
v -0.12566893 -0.00966263 -0.02850000
v -0.12586930 -0.00717249 -0.03154089
v -0.12582175 -0.00776994 -0.03154089
v -0.12573685 -0.00883258 -0.02983351
v -0.12566893 -0.00966263 -0.03154089
f 1 2 5
f 1 5 3
f 1 3 7
f 1 7 4
f 1 4 8
f 1 8 13
f 1 13 15
f 1 15 10
f 1 10 6
f 1 6 2
f 2 6 9
f 2 9 5
f 3 5 9
f 3 9 14
f 3 14 19
f 3 19 17
f 3 17 16
f 3 16 12
f 3 12 11
f 3 11 7
f 4 7 11
f 4 11 8
f 6 10 14
f 6 14 9
f 8 11 12
f 8 12 13
f 10 15 19
f 10 19 14
f 12 16 13
f 13 16 17
f 13 17 18
f 13 18 15
f 15 18 19
f 17 19 18

