# https://github.com/mikedh/trimesh

o left_shin_bearing_outer_retainer_006.obj
v 0.00107722 -0.04825000 -0.00842124
v -0.00399250 -0.04825000 -0.00749323
v 0.00107722 -0.04925000 -0.00842124
v 0.00107722 -0.04825000 -0.01395682
v -0.00399250 -0.04925000 -0.00749323
v -0.00399250 -0.04825000 -0.01340180
v 0.00107722 -0.04925000 -0.01395682
v 0.00104596 -0.04825000 -0.01396064
v -0.00399250 -0.04925000 -0.01340180
v -0.00378705 -0.04825000 -0.01345972
v 0.00104596 -0.04925000 -0.01396064
v 0.00011598 -0.04891660 -0.01398356
v -0.00034951 -0.04825000 -0.01399501
v -0.00378705 -0.04925000 -0.01345972
v -0.00311513 -0.04825000 -0.01364876
v -0.00034951 -0.04925000 -0.01399501
v -0.00104525 -0.04825000 -0.01394346
v -0.00311513 -0.04925000 -0.01364876
v -0.00174050 -0.04825000 -0.01389126
v -0.00265708 -0.04858340 -0.01372959
v -0.00104525 -0.04925000 -0.01394346
v -0.00174050 -0.04925000 -0.01389126
f 1 2 5
f 1 5 3
f 1 3 7
f 1 7 4
f 1 4 8
f 1 8 13
f 1 13 17
f 1 17 19
f 1 19 15
f 1 15 10
f 1 10 6
f 1 6 2
f 2 6 9
f 2 9 5
f 3 5 9
f 3 9 14
f 3 14 18
f 3 18 22
f 3 22 21
f 3 21 16
f 3 16 11
f 3 11 7
f 4 7 11
f 4 11 8
f 6 10 14
f 6 14 9
f 8 11 12
f 8 12 13
f 10 15 18
f 10 18 14
f 11 16 12
f 12 16 13
f 13 16 21
f 13 21 17
f 15 19 20
f 15 20 18
f 17 21 22
f 17 22 19
f 18 20 22
f 19 22 20

