# https://github.com/mikedh/trimesh

o left_hip_yaw_output_adapter_041.obj
v -0.00923018 -0.01370898 0.02284341
v -0.00921225 -0.01574870 0.02284341
v -0.00923018 -0.01370898 0.02153104
v -0.01717818 -0.01370898 0.02284341
v -0.00921225 -0.01574870 0.02153104
v -0.00921225 -0.01807465 0.02284341
v -0.01717818 -0.01370898 0.02153104
v -0.01697778 -0.01396035 0.02276659
v -0.01698948 -0.01394567 0.02284341
v -0.00921225 -0.01995657 0.02153104
v -0.00921225 -0.01995657 0.02284251
v -0.00972298 -0.01971132 0.02284341
v -0.01678752 -0.01419888 0.02153104
v -0.01692554 -0.01402579 0.02284341
v -0.00921770 -0.01995413 0.02153104
v -0.00928320 -0.01992294 0.02153104
v -0.00981577 -0.01966667 0.02284341
v -0.00978926 -0.01967952 0.02153104
v -0.01667368 -0.01434138 0.02153104
v -0.01656685 -0.01447472 0.02284341
v -0.01042554 -0.01937310 0.02284341
v -0.01042554 -0.01937310 0.02153104
v -0.01656685 -0.01447472 0.02153104
v -0.01647016 -0.01457624 0.02153104
v -0.01642104 -0.01462762 0.02284341
v -0.01158815 -0.01867831 0.02284341
v -0.01127313 -0.01886669 0.02210012
v -0.01096201 -0.01905262 0.02153104
v -0.01607951 -0.01498541 0.02153104
v -0.01606001 -0.01500559 0.02284341
v -0.01193903 -0.01846853 0.02284341
v -0.01211994 -0.01836027 0.02153104
v -0.01166066 -0.01863489 0.02153104
v -0.01562647 -0.01545941 0.02153104
v -0.01588535 -0.01518846 0.02210012
v -0.01541750 -0.01567775 0.02284341
v -0.01211994 -0.01836027 0.02284341
v -0.01240610 -0.01815294 0.02153104
v -0.01559138 -0.01549610 0.02153104
v -0.01520307 -0.01590160 0.02153104
v -0.01520307 -0.01590160 0.02284341
v -0.01271411 -0.01792909 0.02284341
v -0.01314609 -0.01761533 0.02153104
v -0.01509780 -0.01599395 0.02153104
v -0.01469311 -0.01634746 0.02284341
v -0.01304472 -0.01768872 0.02284341
v -0.01346578 -0.01738231 0.02284341
v -0.01371608 -0.01720005 0.02284341
v -0.01371608 -0.01720005 0.02153104
v -0.01413949 -0.01683125 0.02153104
v -0.01418316 -0.01679272 0.02284341
f 1 2 5
f 1 5 3
f 1 3 7
f 1 7 4
f 1 4 9
f 1 9 14
f 1 14 20
f 1 20 25
f 1 25 30
f 1 30 36
f 1 36 41
f 1 41 45
f 1 45 51
f 1 51 48
f 1 48 47
f 1 47 46
f 1 46 42
f 1 42 37
f 1 37 31
f 1 31 26
f 1 26 21
f 1 21 17
f 1 17 12
f 1 12 6
f 1 6 2
f 2 6 11
f 2 11 10
f 2 10 5
f 3 5 10
f 3 10 15
f 3 15 16
f 3 16 18
f 3 18 22
f 3 22 28
f 3 28 33
f 3 33 32
f 3 32 38
f 3 38 43
f 3 43 49
f 3 49 50
f 3 50 44
f 3 44 40
f 3 40 39
f 3 39 34
f 3 34 29
f 3 29 24
f 3 24 23
f 3 23 19
f 3 19 13
f 3 13 7
f 4 7 8
f 4 8 9
f 6 12 11
f 7 13 8
f 8 13 14
f 8 14 9
f 10 11 15
f 11 16 15
f 11 12 16
f 12 17 18
f 12 18 16
f 13 19 14
f 14 19 20
f 17 21 18
f 18 21 22
f 19 23 20
f 20 23 24
f 20 24 25
f 21 26 27
f 21 27 28
f 21 28 22
f 24 29 25
f 25 29 30
f 26 31 27
f 27 31 32
f 27 32 33
f 27 33 28
f 29 34 35
f 29 35 30
f 30 35 34
f 30 34 36
f 31 37 32
f 32 37 38
f 34 39 36
f 36 39 40
f 36 40 41
f 37 42 38
f 38 42 43
f 40 44 41
f 41 44 45
f 42 46 43
f 43 46 47
f 43 47 48
f 43 48 49
f 44 50 45
f 45 50 51
f 48 51 50
f 48 50 49

