# https://github.com/mikedh/trimesh

o left_thigh_output_fork_plate_086.obj
v -0.06352430 0.03568217 -0.09161782
v -0.06352430 0.03575000 -0.09162331
v -0.06352568 0.03575000 -0.09162164
v -0.06553515 0.03575000 -0.09250674
v -0.06352430 0.03038513 -0.09161782
v -0.06352430 0.03575000 -0.09405615
v -0.06553515 0.03575000 -0.09400292
v -0.06553515 0.03025000 -0.09250674
v -0.06352568 0.03025000 -0.09162164
v -0.06352430 0.03025000 -0.09162331
v -0.06553515 0.03573439 -0.09400722
v -0.06447717 0.03575000 -0.09403252
v -0.06352430 0.03025000 -0.09405615
v -0.06552354 0.03575000 -0.09400650
v -0.06553515 0.03025000 -0.09399910
v -0.06553515 0.03025861 -0.09400722
v -0.06447717 0.03025000 -0.09403252
v -0.06552354 0.03025000 -0.09400650
f 1 2 3
f 1 3 4
f 1 4 8
f 1 8 5
f 1 5 10
f 1 10 13
f 1 13 6
f 1 6 2
f 2 6 12
f 2 12 14
f 2 14 7
f 2 7 4
f 2 4 3
f 4 7 11
f 4 11 16
f 4 16 15
f 4 15 8
f 5 8 9
f 5 9 10
f 6 11 12
f 6 13 16
f 6 16 11
f 7 14 11
f 8 15 18
f 8 18 17
f 8 17 13
f 8 13 10
f 8 10 9
f 11 14 12
f 13 17 16
f 15 16 18
f 16 17 18

