# https://github.com/mikedh/trimesh

o left_foot_front_saddle_142.obj
v 0.04664858 -0.02300000 -0.02472434
v 0.04864625 -0.02300000 -0.02472434
v 0.04664858 -0.02300000 -0.02450000
v 0.04664858 -0.01702495 -0.02472434
v 0.04864625 -0.02300000 -0.02450000
v 0.04864625 -0.01956037 -0.02472434
v 0.04664858 -0.01702495 -0.02450000
v 0.04773239 -0.01702495 -0.02472434
v 0.04864625 -0.01956154 -0.02450000
v 0.04864625 -0.01956037 -0.02450922
v 0.04773239 -0.01702495 -0.02450000
f 1 2 5
f 1 5 3
f 1 3 7
f 1 7 4
f 1 4 8
f 1 8 6
f 1 6 2
f 2 6 10
f 2 10 9
f 2 9 5
f 3 5 9
f 3 9 11
f 3 11 7
f 4 7 11
f 4 11 8
f 6 8 11
f 6 11 10
f 9 10 11

