# https://github.com/mikedh/trimesh

o left_foot_upper_fore_111.obj
v 0.04690733 0.03071933 -0.01569867
v 0.04909262 0.03174049 -0.01569867
v 0.04909262 0.03815588 -0.01358571
v 0.04690797 0.03910243 -0.01358571
v 0.04690733 0.03904230 -0.01361177
v 0.04690733 0.03833406 -0.01569867
v 0.04909262 0.03796100 -0.01569867
v 0.04909262 0.04059019 -0.01359874
v 0.04904919 0.04064476 -0.01358571
v 0.04690733 0.03919820 -0.01358571
v 0.04698647 0.03833517 -0.01569867
v 0.04690733 0.03837749 -0.01568439
v 0.04909262 0.03806568 -0.01566061
v 0.04868320 0.03816813 -0.01569867
v 0.04909262 0.04056346 -0.01369202
v 0.04883764 0.04088975 -0.01358571
v 0.04690733 0.04209576 -0.01358571
v 0.04690733 0.03968262 -0.01515016
v 0.04868320 0.03855121 -0.01554458
v 0.04909262 0.03881179 -0.01530238
v 0.04909262 0.04053340 -0.01377517
v 0.04868320 0.04106458 -0.01358571
v 0.04710562 0.04200111 -0.01358571
v 0.04690733 0.04199443 -0.01369347
v 0.04765665 0.03998885 -0.01493113
v 0.04868320 0.03926836 -0.01519628
v 0.04690733 0.04051335 -0.01473816
v 0.04877389 0.03966814 -0.01493113
v 0.04909262 0.03927170 -0.01503702
v 0.04909262 0.04049331 -0.01386576
v 0.04868320 0.04105456 -0.01361094
v 0.04862245 0.04110690 -0.01358571
v 0.04751953 0.04178396 -0.01358571
v 0.04868320 0.04080734 -0.01402936
v 0.04862373 0.04075055 -0.01413546
v 0.04690733 0.04177616 -0.01389513
v 0.04868320 0.04063251 -0.01422874
v 0.04820105 0.04095211 -0.01413546
v 0.04868320 0.03977950 -0.01490134
v 0.04868320 0.03952449 -0.01504861
v 0.04690733 0.04107683 -0.01440765
v 0.04909262 0.03959910 -0.01481799
v 0.04868320 0.04011135 -0.01467756
v 0.04909262 0.04043540 -0.01397289
v 0.04868320 0.04098551 -0.01375738
v 0.04868320 0.04101224 -0.01370505
v 0.04841346 0.04124721 -0.01358571
v 0.04785965 0.04159019 -0.01358571
v 0.04868320 0.04089197 -0.01391395
v 0.04868320 0.04071937 -0.01413525
v 0.04895807 0.04045879 -0.01413525
v 0.04868320 0.04070043 -0.01415800
v 0.04690733 0.04146881 -0.01413898
v 0.04868320 0.04056346 -0.01429968
v 0.04868320 0.04037750 -0.01446949
v 0.04909262 0.04018150 -0.01431147
v 0.04909262 0.04004676 -0.01445067
v 0.04909262 0.03986190 -0.01461613
v 0.04909262 0.04037081 -0.01407424
v 0.04868320 0.04095656 -0.01380950
v 0.04813217 0.04142650 -0.01358571
v 0.04838479 0.04126614 -0.01358571
v 0.04909262 0.04028729 -0.01418717
f 1 2 3
f 1 3 4
f 1 4 5
f 1 5 10
f 1 10 17
f 1 17 24
f 1 24 36
f 1 36 53
f 1 53 41
f 1 41 27
f 1 27 18
f 1 18 12
f 1 12 6
f 1 6 11
f 1 11 14
f 1 14 7
f 1 7 2
f 2 7 13
f 2 13 20
f 2 20 29
f 2 29 42
f 2 42 58
f 2 58 57
f 2 57 56
f 2 56 63
f 2 63 59
f 2 59 44
f 2 44 30
f 2 30 21
f 2 21 15
f 2 15 8
f 2 8 3
f 3 8 9
f 3 9 16
f 3 16 22
f 3 22 32
f 3 32 47
f 3 47 62
f 3 62 61
f 3 61 48
f 3 48 33
f 3 33 23
f 3 23 17
f 3 17 10
f 3 10 4
f 4 10 5
f 6 12 11
f 7 14 13
f 8 15 9
f 9 15 16
f 11 12 18
f 11 18 19
f 11 19 14
f 13 14 19
f 13 19 20
f 15 21 22
f 15 22 16
f 17 23 24
f 18 25 26
f 18 26 19
f 18 27 25
f 19 26 20
f 20 26 28
f 20 28 29
f 21 30 31
f 21 31 22
f 22 31 32
f 23 33 34
f 23 34 35
f 23 35 24
f 24 35 37
f 24 37 38
f 24 38 36
f 25 39 40
f 25 40 26
f 25 27 39
f 26 40 28
f 27 41 39
f 28 42 29
f 28 40 39
f 28 39 43
f 28 43 42
f 30 44 45
f 30 45 46
f 30 46 31
f 31 46 32
f 32 46 47
f 33 48 49
f 33 49 34
f 34 50 35
f 34 49 51
f 34 51 50
f 35 50 52
f 35 52 37
f 36 38 54
f 36 54 55
f 36 55 53
f 37 54 38
f 37 52 56
f 37 56 57
f 37 57 54
f 39 41 43
f 41 53 43
f 42 43 58
f 43 55 58
f 43 53 55
f 44 59 49
f 44 49 60
f 44 60 45
f 45 60 61
f 45 61 62
f 45 62 46
f 46 62 47
f 48 61 49
f 49 61 60
f 49 59 51
f 50 51 52
f 51 59 63
f 51 63 52
f 52 63 56
f 54 57 55
f 55 57 58

