# https://github.com/mikedh/trimesh

o left_thigh_output_fork_plate_055.obj
v -0.02893195 0.03470450 -0.05403548
v -0.02979939 0.03470450 -0.05259519
v -0.02893195 0.03574990 -0.05403548
v -0.01675847 0.03470450 -0.05403548
v -0.02979939 0.03470450 -0.05058068
v -0.02979939 0.03574990 -0.05259519
v -0.01675847 0.03574990 -0.05403548
v -0.01562977 0.03470450 -0.05203991
v -0.02979939 0.03574990 -0.05058068
v -0.01480636 0.03470450 -0.05058068
v -0.01480636 0.03574990 -0.05058068
f 1 2 6
f 1 6 3
f 1 3 7
f 1 7 4
f 1 4 8
f 1 8 10
f 1 10 5
f 1 5 2
f 2 5 9
f 2 9 6
f 3 6 9
f 3 9 11
f 3 11 7
f 4 7 8
f 5 10 11
f 5 11 9
f 7 11 8
f 8 11 10

