# https://github.com/mikedh/trimesh

o left_ankle_tapped_load_plate_191.obj
v 0.02998449 0.02087161 -0.02945695
v 0.02998449 0.01876962 -0.02945695
v 0.02998449 0.02087161 -0.03154068
v -0.02807060 0.02087161 -0.02945695
v 0.02998449 0.01876962 -0.03153415
v 0.02801238 0.01876756 -0.02945695
v 0.02998449 0.01880936 -0.03154068
v -0.02807060 0.02087161 -0.03154068
v -0.02807060 0.01876756 -0.02945695
v 0.02997880 0.01877044 -0.03154068
v 0.02801238 0.01876756 -0.03154068
v -0.02807060 0.01876756 -0.03154068
f 1 2 5
f 1 5 7
f 1 7 3
f 1 3 8
f 1 8 4
f 1 4 9
f 1 9 6
f 1 6 2
f 2 6 11
f 2 11 5
f 3 7 10
f 3 10 11
f 3 11 12
f 3 12 8
f 4 8 12
f 4 12 9
f 5 10 7
f 5 11 10
f 6 9 12
f 6 12 11

