# https://github.com/mikedh/trimesh

o left_ankle_roll_output_adapter_020.obj
v 0.02260011 -0.01999926 0.00000000
v 0.02260011 -0.01994250 -0.00149030
v 0.02359526 -0.01994914 -0.00132370
v 0.02369694 -0.01999926 0.00000000
v 0.02359526 -0.01994914 0.00132370
v 0.02260011 -0.01994250 0.00149030
v 0.02260011 -0.01977443 -0.00297757
v 0.02359526 -0.01977517 -0.00298060
v 0.02369694 -0.01944418 -0.00464659
v 0.02420063 -0.01866575 0.00716374
v 0.02359526 -0.01977517 0.00298060
v 0.02260011 -0.01977443 0.00297757
v 0.02260011 -0.01963585 -0.00371363
v 0.02260011 -0.01949652 -0.00444970
v 0.02260011 -0.01910952 -0.00588547
v 0.02359526 -0.01909698 -0.00592788
v 0.02359526 -0.01868860 -0.00709710
v 0.02364618 -0.01720986 -0.01017160
v 0.02369694 -0.01569943 -0.01238585
v 0.02420063 -0.01261591 0.00576128
v 0.02420063 -0.01837752 0.00785134
v 0.02260011 -0.01861636 0.00730308
v 0.02260011 -0.01910952 0.00588547
v 0.02389795 -0.01910141 0.00590971
v 0.02369694 -0.01944418 0.00464659
v 0.02260011 -0.01949652 0.00444970
v 0.02260011 -0.01963585 0.00371363
v 0.02260011 -0.01861636 -0.00730308
v 0.02351897 -0.01806718 -0.00854802
v 0.02359526 -0.01764552 -0.00938102
v 0.02260011 -0.01731896 -0.00999592
v 0.02260011 -0.01692164 -0.01062899
v 0.02260011 -0.01652284 -0.01126207
v 0.02364618 -0.01644617 -0.01135597
v 0.02260011 -0.01608128 -0.01186485
v 0.02260011 -0.01563751 -0.01246763
v 0.02349359 -0.01525935 -0.01290988
v 0.02364618 -0.01481042 -0.01342785
v 0.02359526 -0.01266161 -0.01547247
v 0.02394887 -0.01246848 0.00785134
v 0.02359526 -0.01266161 0.01547247
v 0.02260011 -0.01801779 0.00867524
v 0.02364618 -0.01483991 0.01339453
v 0.02369694 -0.01560213 0.01250398
v 0.02369694 -0.01642922 0.01138626
v 0.02364618 -0.01720986 0.01017160
v 0.02356988 -0.01787036 0.00895392
v 0.02260011 -0.01801779 -0.00867524
v 0.02260011 -0.01466299 -0.01360050
v 0.02354435 -0.01424060 -0.01402457
v 0.02359526 -0.01357274 -0.01468794
v 0.02260011 -0.01269700 -0.01543915
v 0.02260011 -0.01269700 0.01543915
v 0.02260011 -0.01360444 0.01465765
v 0.02354435 -0.01372238 0.01454254
v 0.02260011 -0.01731896 0.00999592
v 0.02349359 -0.01418974 0.01407607
v 0.02260011 -0.01466299 0.01360050
v 0.02260011 -0.01563751 0.01246763
v 0.02260011 -0.01608128 0.01186485
v 0.02260011 -0.01652284 0.01126207
v 0.02260011 -0.01692164 0.01062899
v 0.02260011 -0.01360444 -0.01465765
f 1 2 3
f 1 3 4
f 1 4 5
f 1 5 6
f 1 6 12
f 1 12 27
f 1 27 26
f 1 26 23
f 1 23 22
f 1 22 42
f 1 42 56
f 1 56 62
f 1 62 61
f 1 61 60
f 1 60 59
f 1 59 58
f 1 58 54
f 1 54 53
f 1 53 52
f 1 52 63
f 1 63 49
f 1 49 36
f 1 36 35
f 1 35 33
f 1 33 32
f 1 32 31
f 1 31 48
f 1 48 28
f 1 28 15
f 1 15 14
f 1 14 13
f 1 13 7
f 1 7 2
f 2 7 8
f 2 8 3
f 3 8 4
f 4 8 9
f 4 9 10
f 4 10 11
f 4 11 5
f 5 11 6
f 6 11 12
f 7 13 8
f 8 13 14
f 8 14 9
f 9 14 15
f 9 15 16
f 9 16 17
f 9 17 18
f 9 18 19
f 9 19 10
f 10 20 21
f 10 21 22
f 10 22 23
f 10 23 24
f 10 24 11
f 10 19 20
f 11 24 25
f 11 25 26
f 11 26 27
f 11 27 12
f 15 28 16
f 16 28 17
f 17 28 29
f 17 29 30
f 17 30 18
f 18 31 32
f 18 32 33
f 18 33 34
f 18 34 19
f 18 30 31
f 19 34 33
f 19 33 35
f 19 35 36
f 19 36 37
f 19 37 38
f 19 38 39
f 19 39 20
f 20 40 41
f 20 41 21
f 20 39 40
f 21 42 22
f 21 41 43
f 21 43 44
f 21 44 45
f 21 45 46
f 21 46 47
f 21 47 42
f 23 26 25
f 23 25 24
f 28 48 29
f 29 48 30
f 30 48 31
f 36 49 37
f 37 49 38
f 38 49 50
f 38 50 51
f 38 51 39
f 39 51 52
f 39 52 40
f 40 52 53
f 40 53 41
f 41 53 54
f 41 54 55
f 41 55 43
f 42 47 56
f 43 55 57
f 43 57 58
f 43 58 59
f 43 59 44
f 44 59 45
f 45 59 60
f 45 60 61
f 45 61 46
f 46 62 56
f 46 56 47
f 46 61 62
f 49 63 50
f 50 63 51
f 51 63 52
f 54 58 57
f 54 57 55

