# https://github.com/mikedh/trimesh

o left_ankle_pitch_output_adapter_055.obj
v -0.00102093 0.04324998 -0.01473086
v -0.00102093 0.04304656 -0.01473086
v -0.00102093 0.04324998 -0.01996120
v -0.00157175 0.04324998 -0.01379525
v -0.00102093 0.04304656 -0.01996120
v -0.00157175 0.04304656 -0.01379525
v -0.00134280 0.04304656 -0.01994973
v -0.00149473 0.04324998 -0.01994369
v -0.00529689 0.04324998 -0.01379525
v -0.00529689 0.04304656 -0.01379525
v -0.00141897 0.04304656 -0.01994671
v -0.00149473 0.04304656 -0.01994369
v -0.00157049 0.04304656 -0.01993524
v -0.00164583 0.04304656 -0.01992679
v -0.00298102 0.04324998 -0.01977649
v -0.00529689 0.04324998 -0.01927126
v -0.00529689 0.04304656 -0.01927126
v -0.00298102 0.04304656 -0.01977649
v -0.00441290 0.04304656 -0.01950547
v -0.00445016 0.04324998 -0.01949822
v -0.00513575 0.04304656 -0.01931472
v -0.00520314 0.04304656 -0.01929662
v -0.00445016 0.04304656 -0.01949822
v -0.00454726 0.04304656 -0.01947227
f 1 2 5
f 1 5 3
f 1 3 8
f 1 8 15
f 1 15 20
f 1 20 16
f 1 16 9
f 1 9 4
f 1 4 6
f 1 6 2
f 2 6 10
f 2 10 17
f 2 17 22
f 2 22 21
f 2 21 24
f 2 24 23
f 2 23 19
f 2 19 18
f 2 18 14
f 2 14 13
f 2 13 12
f 2 12 11
f 2 11 7
f 2 7 5
f 3 5 7
f 3 7 8
f 4 9 10
f 4 10 6
f 7 11 8
f 8 11 12
f 8 12 13
f 8 13 14
f 8 14 15
f 9 16 17
f 9 17 10
f 14 18 15
f 15 18 19
f 15 19 20
f 16 20 21
f 16 21 22
f 16 22 17
f 19 23 20
f 20 24 21
f 20 23 24

