# https://github.com/mikedh/trimesh

o left_shin_idler_fork_plate_057.obj
v -0.00552684 -0.04342754 0.01499500
v -0.00552684 -0.04342754 0.01155117
v -0.00581045 -0.04342754 0.01488653
v -0.00571867 -0.04550031 0.01492178
v -0.00552684 -0.04825000 0.01499500
v -0.00699095 -0.04401382 0.01153218
v -0.00699135 -0.04342754 0.01153218
v -0.00552684 -0.04825000 0.01155117
v -0.00646333 -0.04342754 0.01463635
v -0.00571867 -0.04825000 0.01492178
v -0.00699135 -0.04825000 0.01153218
v -0.00753886 -0.04342754 0.01153218
v -0.00726333 -0.04342754 0.01423430
v -0.00717569 -0.04550031 0.01427837
v -0.00646333 -0.04825000 0.01463635
v -0.00753630 -0.04825000 0.01153218
v -0.00753886 -0.04342754 0.01409565
v -0.00753886 -0.04734319 0.01153218
v -0.00741301 -0.04458359 0.01415905
v -0.00717569 -0.04825000 0.01427837
v -0.00753886 -0.04825000 0.01153489
v -0.00753886 -0.04825000 0.01409565
f 1 2 7
f 1 7 12
f 1 12 17
f 1 17 13
f 1 13 9
f 1 9 3
f 1 3 4
f 1 4 10
f 1 10 5
f 1 5 8
f 1 8 2
f 2 6 7
f 2 8 6
f 3 9 4
f 4 9 15
f 4 15 10
f 5 10 15
f 5 15 20
f 5 20 22
f 5 22 21
f 5 21 16
f 5 16 11
f 5 11 8
f 6 8 11
f 6 11 16
f 6 16 18
f 6 18 12
f 6 12 7
f 9 13 14
f 9 14 20
f 9 20 15
f 12 18 21
f 12 21 22
f 12 22 17
f 13 17 19
f 13 19 14
f 14 19 20
f 16 21 18
f 17 22 19
f 19 22 20

