# https://github.com/mikedh/trimesh

o left_thigh_idler_fork_plate_016.obj
v -0.02214287 -0.03625011 -0.02062062
v -0.02543887 -0.03625011 -0.02062062
v -0.02214287 -0.03740515 -0.02062062
v -0.02214287 -0.03625011 -0.06355890
v -0.02543887 -0.03740515 -0.02062062
v -0.02832628 -0.03625011 -0.02573144
v -0.02214287 -0.03740515 -0.06355890
v -0.02357023 -0.03740515 -0.06608530
v -0.02832628 -0.03625011 -0.07450312
v -0.02832628 -0.03740515 -0.02573144
v -0.02832628 -0.03740515 -0.07450312
f 1 2 5
f 1 5 3
f 1 3 7
f 1 7 4
f 1 4 9
f 1 9 6
f 1 6 2
f 2 6 10
f 2 10 5
f 3 5 10
f 3 10 11
f 3 11 8
f 3 8 7
f 4 7 8
f 4 8 9
f 6 9 11
f 6 11 10
f 8 11 9

