# https://github.com/mikedh/trimesh

o left_ankle_pitch_base_disc_080.obj
v 0.00769196 0.02845299 -0.00928101
v 0.00485859 0.02845299 -0.00871965
v 0.00769196 0.02924992 -0.00928101
v 0.01769943 0.02845299 -0.00928101
v 0.00485859 0.02845299 -0.00807061
v 0.00485859 0.02924150 -0.00871965
v 0.00485990 0.02924992 -0.00871906
v 0.01769943 0.02924992 -0.00928101
v 0.01776251 0.02845299 -0.00916313
v 0.00485859 0.02924992 -0.00807061
v 0.01828424 0.02845299 -0.00807061
v 0.00485859 0.02924992 -0.00871799
v 0.01801877 0.02924992 -0.00867759
v 0.01783347 0.02845299 -0.00902889
v 0.01828424 0.02924992 -0.00807061
v 0.01801877 0.02845299 -0.00867759
f 1 2 6
f 1 6 3
f 1 3 8
f 1 8 4
f 1 4 9
f 1 9 14
f 1 14 16
f 1 16 11
f 1 11 5
f 1 5 2
f 2 5 10
f 2 10 12
f 2 12 6
f 3 6 7
f 3 7 12
f 3 12 10
f 3 10 15
f 3 15 13
f 3 13 8
f 4 8 9
f 5 11 15
f 5 15 10
f 6 12 7
f 8 13 9
f 9 13 14
f 11 16 13
f 11 13 15
f 13 16 14

