# https://github.com/mikedh/trimesh

o left_ankle_tapped_load_plate_097.obj
v 0.03835653 0.03151400 -0.03012069
v 0.03835653 0.02939915 -0.03012069
v 0.03835653 0.03151400 -0.03154089
v 0.03592655 0.03151400 -0.03012069
v 0.03835653 0.02939915 -0.03154089
v 0.03814835 0.02939915 -0.03012069
v 0.03591772 0.03151400 -0.03154089
v 0.03591772 0.03081719 -0.03012069
v 0.03809511 0.02939915 -0.03154089
v 0.03810012 0.02940868 -0.03012069
v 0.03809511 0.02939915 -0.03016197
v 0.03591772 0.03066897 -0.03154089
v 0.03591772 0.03062529 -0.03012069
v 0.03591772 0.03062529 -0.03153519
v 0.03592942 0.03064392 -0.03154089
f 1 2 5
f 1 5 3
f 1 3 7
f 1 7 4
f 1 4 8
f 1 8 13
f 1 13 10
f 1 10 6
f 1 6 2
f 2 6 11
f 2 11 9
f 2 9 5
f 3 5 9
f 3 9 15
f 3 15 12
f 3 12 7
f 4 7 8
f 6 10 11
f 7 12 14
f 7 14 13
f 7 13 8
f 9 11 13
f 9 13 14
f 9 14 15
f 10 13 11
f 12 15 14

