# https://github.com/mikedh/trimesh

o left_ankle_tapped_load_plate_136.obj
v -0.04978030 -0.01653790 -0.03058414
v -0.04977466 -0.01665020 -0.02983319
v -0.04978030 -0.01653790 -0.02850000
v -0.04729088 -0.01653790 -0.03058414
v -0.04971845 -0.01776400 -0.03058414
v -0.04971673 -0.01779754 -0.02850000
v -0.04727271 -0.01653790 -0.02850000
v -0.04727271 -0.01653790 -0.02955023
v -0.04727271 -0.01654705 -0.03058414
v -0.04959277 -0.02024720 -0.03058414
v -0.04954147 -0.02125836 -0.02850000
v -0.04727271 -0.02172888 -0.02850000
v -0.04727271 -0.02172888 -0.03058414
v -0.04954319 -0.02122483 -0.03058414
v -0.04954147 -0.02125836 -0.03058414
v -0.04953362 -0.02140470 -0.03058414
v -0.04951570 -0.02172888 -0.02850000
v -0.04951570 -0.02172888 -0.03058414
v -0.04951791 -0.02169027 -0.03058414
f 1 2 3
f 1 3 7
f 1 7 8
f 1 8 4
f 1 4 9
f 1 9 13
f 1 13 18
f 1 18 19
f 1 19 16
f 1 16 15
f 1 15 14
f 1 14 10
f 1 10 5
f 1 5 2
f 2 5 6
f 2 6 3
f 3 6 11
f 3 11 17
f 3 17 12
f 3 12 7
f 4 8 9
f 5 10 6
f 6 10 11
f 7 12 13
f 7 13 9
f 7 9 8
f 10 14 11
f 11 14 15
f 11 15 16
f 11 16 17
f 12 17 18
f 12 18 13
f 16 19 17
f 17 19 18

