# https://github.com/mikedh/trimesh

o left_hip_yaw_output_adapter_031.obj
v 0.00093033 0.02197784 0.02409990
v 0.00093033 0.01358826 0.02409990
v 0.00093033 0.02197784 0.02300279
v -0.00098769 0.02197784 0.02409990
v 0.00093033 0.01358826 0.02300279
v -0.00797826 0.01358826 0.02409990
v -0.00098769 0.02197784 0.02300279
v -0.00268406 0.02182508 0.02300279
v -0.00295370 0.02180044 0.02409990
v -0.00797826 0.01358826 0.02300279
v -0.00798437 0.01586080 0.02409990
v -0.00295370 0.02180044 0.02300279
v -0.00401830 0.02160744 0.02300279
v -0.00489529 0.02144810 0.02409990
v -0.00798437 0.01586080 0.02300279
v -0.00798437 0.02047733 0.02409990
v -0.00436212 0.02154502 0.02300279
v -0.00489529 0.02144810 0.02300279
v -0.00627577 0.02106702 0.02300279
v -0.00679760 0.02092247 0.02409990
v -0.00798437 0.02047733 0.02300279
v -0.00797564 0.02048061 0.02300279
v -0.00772171 0.02057588 0.02409990
v -0.00705153 0.02082802 0.02300279
v -0.00679760 0.02092247 0.02300279
f 1 2 5
f 1 5 3
f 1 3 7
f 1 7 4
f 1 4 9
f 1 9 14
f 1 14 20
f 1 20 23
f 1 23 16
f 1 16 11
f 1 11 6
f 1 6 2
f 2 6 10
f 2 10 5
f 3 5 10
f 3 10 15
f 3 15 21
f 3 21 22
f 3 22 24
f 3 24 25
f 3 25 19
f 3 19 18
f 3 18 17
f 3 17 13
f 3 13 12
f 3 12 8
f 3 8 7
f 4 7 8
f 4 8 9
f 6 11 15
f 6 15 10
f 8 12 9
f 9 12 13
f 9 13 14
f 11 16 21
f 11 21 15
f 13 17 14
f 14 17 18
f 14 18 19
f 14 19 20
f 16 22 21
f 16 23 24
f 16 24 22
f 19 25 20
f 20 25 24
f 20 24 23

