# https://github.com/mikedh/trimesh

o left_thigh_stationary_idler_spider_033.obj
v 0.04914616 -0.02025000 -0.03461142
v 0.04882003 -0.01958320 -0.03457977
v 0.04914616 -0.01825020 -0.03461142
v 0.04931046 -0.01958320 -0.03461101
v 0.04963843 -0.02025000 -0.03461019
v 0.04865696 -0.02025000 -0.03456374
v 0.04865696 -0.01825020 -0.03456374
v 0.04963843 -0.01825020 -0.03461019
v 0.05012764 -0.02025000 -0.03456086
v 0.04817389 -0.02025000 -0.03446838
v 0.04849573 -0.01958320 -0.03453209
v 0.04833512 -0.01891680 -0.03450044
v 0.04817389 -0.01825020 -0.03446838
v 0.05012764 -0.01825020 -0.03456086
v 0.05028825 -0.01958320 -0.03452880
v 0.05060948 -0.02025000 -0.03446386
v 0.04770308 -0.02025000 -0.03432617
v 0.04786001 -0.01958320 -0.03437385
v 0.04770308 -0.01825020 -0.03432617
v 0.05060948 -0.01825020 -0.03446386
v 0.05071186 -0.02025000 -0.03443263
v 0.04724943 -0.02025000 -0.03413834
v 0.04740085 -0.01958320 -0.03420122
v 0.04724943 -0.01825020 -0.03413834
v 0.05071186 -0.01825020 -0.03443263
v 0.05071186 -0.02025000 -0.03050617
v 0.04703241 -0.02025000 -0.03402284
v 0.04710475 -0.01891680 -0.03406148
v 0.04703241 -0.01825020 -0.03402284
v 0.05071186 -0.01825020 -0.03050617
v 0.04799611 -0.02025000 -0.03041246
v 0.04681540 -0.02025000 -0.03390693
v 0.04681540 -0.01825020 -0.03390693
v 0.04799611 -0.01825020 -0.03041246
v 0.04444969 -0.02025000 -0.03041246
v 0.04667869 -0.01958320 -0.03381610
v 0.04661065 -0.02025000 -0.03377047
v 0.04661065 -0.01825020 -0.03377047
v 0.04444969 -0.01825020 -0.03041246
v 0.04453184 -0.02025000 -0.03082594
v 0.04640650 -0.02025000 -0.03363402
v 0.04640650 -0.01825020 -0.03363402
v 0.04453184 -0.01825020 -0.03082594
v 0.04462625 -0.01958320 -0.03113955
v 0.04467406 -0.02025000 -0.03129656
v 0.04621585 -0.02025000 -0.03347783
v 0.04621585 -0.01825020 -0.03347783
v 0.04467406 -0.01825020 -0.03129656
v 0.04479912 -0.01891680 -0.03159989
v 0.04486165 -0.02025000 -0.03175114
v 0.04602581 -0.02025000 -0.03332205
v 0.04602581 -0.01825020 -0.03332205
v 0.04486165 -0.01825020 -0.03175114
v 0.04509338 -0.02025000 -0.03218518
v 0.04567822 -0.02025000 -0.03297433
v 0.04567822 -0.01825020 -0.03297433
v 0.04509338 -0.01825020 -0.03218518
v 0.04522947 -0.02025000 -0.03238987
v 0.04552189 -0.02025000 -0.03278403
v 0.04552189 -0.01825020 -0.03278403
v 0.04522947 -0.01825020 -0.03238987
v 0.04536618 -0.02025000 -0.03259373
v 0.04536618 -0.01825020 -0.03259373
f 1 2 3
f 1 3 4
f 1 4 5
f 1 5 9
f 1 9 16
f 1 16 21
f 1 21 26
f 1 26 31
f 1 31 35
f 1 35 40
f 1 40 45
f 1 45 50
f 1 50 54
f 1 54 58
f 1 58 62
f 1 62 59
f 1 59 55
f 1 55 51
f 1 51 46
f 1 46 41
f 1 41 37
f 1 37 32
f 1 32 27
f 1 27 22
f 1 22 17
f 1 17 10
f 1 10 6
f 1 6 2
f 2 7 3
f 2 6 7
f 3 7 13
f 3 13 19
f 3 19 24
f 3 24 29
f 3 29 33
f 3 33 38
f 3 38 42
f 3 42 47
f 3 47 52
f 3 52 56
f 3 56 60
f 3 60 63
f 3 63 61
f 3 61 57
f 3 57 53
f 3 53 48
f 3 48 43
f 3 43 39
f 3 39 34
f 3 34 30
f 3 30 25
f 3 25 20
f 3 20 14
f 3 14 8
f 3 8 4
f 4 8 5
f 5 8 14
f 5 14 9
f 6 10 11
f 6 11 7
f 7 11 12
f 7 12 13
f 9 14 15
f 9 15 16
f 10 13 12
f 10 12 11
f 10 17 18
f 10 18 13
f 13 18 19
f 14 20 15
f 15 20 16
f 16 20 25
f 16 25 21
f 17 22 23
f 17 23 19
f 17 19 18
f 19 23 24
f 21 25 30
f 21 30 26
f 22 24 23
f 22 27 28
f 22 28 24
f 24 28 29
f 26 30 34
f 26 34 31
f 27 32 33
f 27 33 29
f 27 29 28
f 31 34 39
f 31 39 35
f 32 36 33
f 32 37 36
f 33 36 38
f 35 39 43
f 35 43 40
f 36 37 41
f 36 41 42
f 36 42 38
f 40 43 44
f 40 44 45
f 41 46 47
f 41 47 42
f 43 48 44
f 44 48 45
f 45 48 49
f 45 49 50
f 46 51 52
f 46 52 47
f 48 53 49
f 49 53 50
f 50 53 57
f 50 57 54
f 51 55 56
f 51 56 52
f 54 57 61
f 54 61 58
f 55 59 60
f 55 60 56
f 58 61 63
f 58 63 62
f 59 62 63
f 59 63 60

