# https://github.com/mikedh/trimesh

o left_hip_roll_carrier_arm_049.obj
v 0.03452620 -0.00958773 -0.01404945
v 0.03424133 -0.00958773 -0.01404945
v 0.03452620 -0.01286421 -0.01404945
v 0.03452620 -0.00905185 -0.01506192
v 0.03424133 -0.01286421 -0.01404945
v 0.03451278 -0.00905185 -0.01506192
v 0.03424133 -0.00905185 -0.01506228
v 0.03452620 -0.01286421 -0.01530905
v 0.03452620 -0.00905185 -0.01781168
v 0.03424133 -0.01286421 -0.01530905
v 0.03424133 -0.00905185 -0.01781168
v 0.03452620 -0.01279928 -0.01536835
v 0.03452620 -0.00915522 -0.01775938
v 0.03424133 -0.01279928 -0.01536835
v 0.03424133 -0.00943287 -0.01761795
v 0.03424133 -0.01240968 -0.01566446
v 0.03452620 -0.01211301 -0.01588987
v 0.03452620 -0.00985903 -0.01740065
v 0.03424133 -0.00986873 -0.01739550
v 0.03424133 -0.01137897 -0.01644711
v 0.03452620 -0.01137897 -0.01644711
v 0.03452620 -0.00986873 -0.01739550
v 0.03452620 -0.01003666 -0.01729016
v 0.03424133 -0.01069756 -0.01687545
v 0.03424133 -0.01096475 -0.01670750
v 0.03452620 -0.01052254 -0.01698520
f 1 2 5
f 1 5 3
f 1 3 8
f 1 8 12
f 1 12 17
f 1 17 21
f 1 21 26
f 1 26 23
f 1 23 22
f 1 22 18
f 1 18 13
f 1 13 9
f 1 9 4
f 1 4 6
f 1 6 2
f 2 6 7
f 2 7 11
f 2 11 15
f 2 15 19
f 2 19 24
f 2 24 25
f 2 25 20
f 2 20 16
f 2 16 14
f 2 14 10
f 2 10 5
f 3 5 10
f 3 10 8
f 4 9 11
f 4 11 7
f 4 7 6
f 8 10 14
f 8 14 12
f 9 13 11
f 11 13 15
f 12 16 17
f 12 14 16
f 13 18 15
f 15 18 19
f 16 20 17
f 17 20 21
f 18 22 19
f 19 22 23
f 19 23 24
f 20 25 21
f 21 25 24
f 21 24 26
f 23 26 24

