# https://github.com/mikedh/trimesh

o left_hip_roll_output_adapter_070.obj
v 0.02915116 0.01888443 0.00653354
v 0.02891660 0.01909407 0.00588862
v 0.02838962 0.01888443 0.00653354
v 0.02915116 0.01327598 0.00653354
v 0.02915116 0.01927859 0.00532040
v 0.02838962 0.01927859 0.00532040
v 0.02838962 0.01327598 0.00653354
v 0.02804434 0.01907328 0.00595169
v 0.02838962 0.01111716 0.00525790
v 0.02915116 0.01140910 0.00517608
v 0.02838962 0.01945619 0.00454309
v 0.02915116 0.01967796 0.00357144
v 0.02804434 0.01952203 0.00425330
v 0.02804434 0.01931931 0.00514028
v 0.02804434 0.01927773 0.00532040
v 0.02804434 0.01924567 0.00541984
v 0.02804434 0.01307847 0.00595169
v 0.02804434 0.01111716 0.00525790
v 0.02838962 0.01111716 0.00072868
v 0.02915116 0.01140910 0.00072868
v 0.02838962 0.01967796 0.00357144
v 0.02915116 0.01981050 0.00259525
v 0.02891660 0.01983909 0.00238558
v 0.02838962 0.01978538 0.00278276
v 0.02804434 0.01965544 0.00366690
v 0.02804434 0.01111716 0.00072868
v 0.02915116 0.01996644 0.00072868
v 0.02804434 0.01967709 0.00357144
v 0.02804434 0.01968143 0.00354133
v 0.02915116 0.01991793 0.00179351
v 0.02838962 0.01990840 0.00186908
v 0.02838962 0.01985469 0.00226853
v 0.02804434 0.01973427 0.00315324
v 0.02804434 0.01986681 0.00217478
v 0.02804434 0.01982696 0.00246968
v 0.02804434 0.01996557 0.00072868
v 0.02838962 0.01996644 0.00072868
v 0.02838962 0.01996211 0.00083436
v 0.02915116 0.01996297 0.00080822
v 0.02915116 0.01993005 0.00154747
v 0.02804434 0.01991966 0.00176282
v 0.02804434 0.01991793 0.00179351
v 0.02804434 0.01990493 0.00189124
v 0.02804434 0.01996297 0.00080482
v 0.02838962 0.01993785 0.00137644
v 0.02804434 0.01993005 0.00153724
f 1 2 3
f 1 3 7
f 1 7 4
f 1 4 10
f 1 10 20
f 1 20 27
f 1 27 39
f 1 39 40
f 1 40 30
f 1 30 22
f 1 22 12
f 1 12 5
f 1 5 2
f 2 5 6
f 2 6 3
f 3 6 8
f 3 8 17
f 3 17 7
f 4 7 18
f 4 18 9
f 4 9 10
f 5 11 6
f 5 12 11
f 6 11 13
f 6 13 14
f 6 14 15
f 6 15 16
f 6 16 8
f 7 17 18
f 8 16 15
f 8 15 14
f 8 14 13
f 8 13 25
f 8 25 28
f 8 28 29
f 8 29 33
f 8 33 35
f 8 35 34
f 8 34 43
f 8 43 42
f 8 42 41
f 8 41 46
f 8 46 44
f 8 44 36
f 8 36 26
f 8 26 18
f 8 18 17
f 9 18 26
f 9 26 19
f 9 19 20
f 9 20 10
f 11 12 21
f 11 21 13
f 12 22 23
f 12 23 24
f 12 24 21
f 13 21 25
f 19 26 36
f 19 36 37
f 19 37 27
f 19 27 20
f 21 28 25
f 21 24 29
f 21 29 28
f 22 30 23
f 23 30 31
f 23 31 32
f 23 32 24
f 24 33 29
f 24 32 34
f 24 34 35
f 24 35 33
f 27 37 38
f 27 38 39
f 30 40 41
f 30 41 42
f 30 42 31
f 31 42 43
f 31 43 34
f 31 34 32
f 36 44 37
f 37 44 38
f 38 44 45
f 38 45 40
f 38 40 39
f 40 45 41
f 41 45 46
f 44 46 45

