# https://github.com/mikedh/trimesh

o left_shin_output_adapter_057.obj
v -0.00836887 0.03386838 -0.01815593
v -0.00836887 0.03437161 -0.01815593
v -0.00836887 0.03386838 -0.01504935
v -0.00926722 0.03386838 -0.01769642
v -0.00923027 0.03467507 -0.01407369
v -0.00887216 0.03467507 -0.01296373
v -0.00836887 0.03437161 -0.01504935
v -0.00926722 0.03437154 -0.01769642
v -0.01417607 0.03467507 -0.01407369
v -0.00926722 0.03386838 -0.00989194
v -0.00975820 0.03386838 -0.01744401
v -0.01519761 0.03467507 -0.01296373
v -0.00926722 0.03437154 -0.00989194
v -0.01000104 0.03437154 -0.01731861
v -0.01167633 0.03437154 -0.01623778
v -0.01289497 0.03437154 -0.01526536
v -0.01323372 0.03437154 -0.01499434
v -0.01418575 0.03467507 -0.01406560
v -0.01038115 0.03437154 -0.01707429
v -0.01735683 0.03386838 -0.00989194
v -0.01000104 0.03386838 -0.01731861
v -0.01492485 0.03467507 -0.01328896
v -0.01566218 0.03437154 -0.01241038
v -0.01594111 0.03437154 -0.01207706
v -0.01637577 0.03437154 -0.01144038
v -0.01706471 0.03437154 -0.01042993
v -0.01735683 0.03437154 -0.00989194
v -0.01167633 0.03386838 -0.01623778
v -0.01224209 0.03386838 -0.01578716
v -0.01323372 0.03386838 -0.01499434
v -0.01466000 0.03437154 -0.01360447
v -0.01466000 0.03467507 -0.01360366
v -0.01075686 0.03386838 -0.01683159
v -0.01706471 0.03386838 -0.01042993
v -0.01466000 0.03386838 -0.01360447
v -0.01558915 0.03386838 -0.01249694
v -0.01594111 0.03386838 -0.01207706
v -0.01675675 0.03386838 -0.01088216
f 1 2 7
f 1 7 3
f 1 3 10
f 1 10 20
f 1 20 34
f 1 34 38
f 1 38 37
f 1 37 36
f 1 36 35
f 1 35 30
f 1 30 29
f 1 29 28
f 1 28 33
f 1 33 21
f 1 21 11
f 1 11 4
f 1 4 8
f 1 8 2
f 2 5 6
f 2 6 7
f 2 8 9
f 2 9 5
f 3 7 13
f 3 13 10
f 4 11 8
f 5 9 18
f 5 18 32
f 5 32 22
f 5 22 12
f 5 12 6
f 6 12 27
f 6 27 13
f 6 13 7
f 8 11 14
f 8 14 9
f 9 15 16
f 9 16 17
f 9 17 18
f 9 14 19
f 9 19 15
f 10 13 27
f 10 27 20
f 11 21 14
f 12 22 23
f 12 23 24
f 12 24 25
f 12 25 26
f 12 26 27
f 14 21 19
f 15 28 29
f 15 29 16
f 15 19 28
f 16 29 30
f 16 30 17
f 17 30 35
f 17 35 31
f 17 31 32
f 17 32 18
f 19 21 33
f 19 33 28
f 20 27 26
f 20 26 34
f 22 32 31
f 22 31 35
f 22 35 23
f 23 35 36
f 23 36 37
f 23 37 24
f 24 37 25
f 25 37 38
f 25 38 26
f 26 38 34

