# https://github.com/mikedh/trimesh

o left_hip_roll_output_adapter_031.obj
v 0.03025000 -0.00902466 0.01783009
v 0.03025000 -0.00902466 0.01457228
v 0.03004647 -0.00898240 0.01510934
v 0.03004647 -0.00902466 0.01783009
v 0.03004647 -0.00947793 0.01761116
v 0.03025000 -0.00947793 0.01761065
v 0.03004647 -0.00898240 0.01462779
v 0.03025000 -0.00907907 0.01322630
v 0.02915278 -0.00898240 0.01510934
v 0.02915278 -0.00926346 0.01771446
v 0.02915278 -0.00947793 0.01761116
v 0.03004647 -0.01083713 0.01680018
v 0.03025000 -0.01024877 0.01715119
v 0.02915278 -0.00898240 0.01462779
v 0.03004647 -0.00926346 0.01257977
v 0.03004712 -0.00907907 0.01322630
v 0.03025000 -0.01499667 0.01322630
v 0.02915278 -0.01101896 0.01669122
v 0.03004647 -0.01101896 0.01669122
v 0.03025000 -0.01101896 0.01669071
v 0.02915278 -0.00908740 0.01324172
v 0.02915278 -0.00926346 0.01257977
v 0.03004647 -0.01552230 0.01257977
v 0.03025000 -0.01382058 0.01445665
v 0.03004647 -0.01493457 0.01329208
v 0.03004647 -0.01506006 0.01315949
v 0.03004647 -0.01510103 0.01310912
v 0.02915278 -0.01246907 0.01563561
v 0.03004647 -0.01178210 0.01613669
v 0.03004647 -0.01105609 0.01666450
v 0.03025000 -0.01174497 0.01616341
v 0.02915278 -0.01552230 0.01257977
v 0.03004647 -0.01382058 0.01445665
v 0.03004647 -0.01388396 0.01439087
v 0.03025000 -0.01314450 0.01504664
v 0.03004647 -0.01310993 0.01507748
v 0.02915278 -0.01489040 0.01333731
v 0.02915278 -0.01506006 0.01315949
v 0.02915278 -0.01416054 0.01410101
v 0.02915278 -0.01527645 0.01288864
v 0.02915278 -0.01307920 0.01510420
v 0.03004647 -0.01255998 0.01555646
v 0.03025000 -0.01246907 0.01563561
v 0.02915278 -0.01381994 0.01445665
f 1 2 7
f 1 7 3
f 1 3 9
f 1 9 4
f 1 4 11
f 1 11 5
f 1 5 6
f 1 6 13
f 1 13 20
f 1 20 31
f 1 31 43
f 1 43 35
f 1 35 24
f 1 24 17
f 1 17 8
f 1 8 2
f 2 8 7
f 3 7 14
f 3 14 9
f 4 9 10
f 4 10 11
f 5 11 12
f 5 12 13
f 5 13 6
f 7 8 16
f 7 16 14
f 8 15 22
f 8 22 16
f 8 17 23
f 8 23 15
f 9 14 21
f 9 21 22
f 9 22 32
f 9 32 40
f 9 40 38
f 9 38 37
f 9 37 39
f 9 39 44
f 9 44 41
f 9 41 28
f 9 28 18
f 9 18 11
f 9 11 10
f 11 18 12
f 12 18 19
f 12 19 20
f 12 20 13
f 14 16 21
f 15 23 32
f 15 32 22
f 16 22 21
f 17 24 25
f 17 25 26
f 17 26 27
f 17 27 23
f 18 28 29
f 18 29 30
f 18 30 19
f 19 30 20
f 20 30 31
f 23 27 32
f 24 33 34
f 24 34 25
f 24 35 36
f 24 36 33
f 25 37 38
f 25 38 26
f 25 34 39
f 25 39 37
f 26 38 27
f 27 40 32
f 27 38 40
f 28 41 36
f 28 36 42
f 28 42 43
f 28 43 29
f 29 31 30
f 29 43 31
f 33 36 41
f 33 41 44
f 33 44 34
f 34 44 39
f 35 43 36
f 36 43 42

