# https://github.com/mikedh/trimesh

o left_foot_upper_aft_075.obj
v -0.12243039 -0.02065223 -0.01424316
v -0.12238815 -0.02068481 -0.01446166
v -0.12233969 -0.02083520 -0.01429898
v -0.12233969 -0.02085901 -0.01418473
v -0.12233969 -0.02087593 -0.01407030
v -0.12241673 -0.02071301 -0.01400094
v -0.12128410 -0.02065223 -0.01397802
v -0.12100887 -0.02065223 -0.01446371
v -0.12209241 -0.02130015 -0.01446371
v -0.12109772 -0.02354657 -0.01397802
v -0.12136177 -0.02299201 -0.01397802
v -0.12152020 -0.02265615 -0.01397802
v -0.12164943 -0.02238106 -0.01397802
v -0.12174697 -0.02217240 -0.01397802
v -0.12193274 -0.02177324 -0.01397802
v -0.12220611 -0.02117796 -0.01397802
v -0.12231546 -0.02093796 -0.01398610
v -0.11608325 -0.02390312 -0.01397802
v -0.11608325 -0.02294752 -0.01446371
v -0.12197747 -0.02153764 -0.01446371
v -0.12100763 -0.02371513 -0.01402661
v -0.12090077 -0.02381664 -0.01397802
v -0.11641315 -0.02692404 -0.01397802
v -0.11608325 -0.02705375 -0.01400826
v -0.11608325 -0.02662639 -0.01443067
v -0.11629759 -0.02649606 -0.01446371
v -0.12174448 -0.02201449 -0.01446371
v -0.12100763 -0.02365247 -0.01417513
v -0.12066405 -0.02399961 -0.01397802
v -0.11701333 -0.02663517 -0.01397802
v -0.11701333 -0.02653428 -0.01409906
v -0.11701333 -0.02639392 -0.01425277
v -0.11608325 -0.02694910 -0.01412074
v -0.11608325 -0.02675986 -0.01431048
v -0.11702699 -0.02617586 -0.01446190
v -0.11805275 -0.02551415 -0.01446371
v -0.12155375 -0.02240174 -0.01446371
v -0.12100763 -0.02357226 -0.01433040
v -0.11972838 -0.02470769 -0.01397802
v -0.12014279 -0.02439689 -0.01397802
v -0.12042175 -0.02418509 -0.01397802
v -0.12147236 -0.02256654 -0.01446371
v -0.11719350 -0.02651360 -0.01397802
v -0.11901079 -0.02496711 -0.01435940
v -0.11893437 -0.02493077 -0.01446371
v -0.11874363 -0.02505922 -0.01446371
v -0.11853301 -0.02519833 -0.01446371
v -0.11823728 -0.02539321 -0.01446371
v -0.12118843 -0.02313551 -0.01446371
v -0.12100763 -0.02349393 -0.01446371
v -0.11920836 -0.02509118 -0.01397802
v -0.11791607 -0.02601419 -0.01397802
v -0.11834476 -0.02557242 -0.01416938
v -0.11901079 -0.02505484 -0.01424459
v -0.12023474 -0.02404160 -0.01446371
v -0.11974764 -0.02437809 -0.01446371
v -0.11951155 -0.02454101 -0.01446371
v -0.12079080 -0.02364996 -0.01446371
v -0.11857837 -0.02554548 -0.01397802
v -0.11840192 -0.02567080 -0.01397802
f 1 2 3
f 1 3 4
f 1 4 5
f 1 5 6
f 1 6 7
f 1 7 8
f 1 8 2
f 2 8 9
f 2 9 10
f 2 10 11
f 2 11 3
f 3 11 12
f 3 12 13
f 3 13 14
f 3 14 4
f 4 14 15
f 4 15 5
f 5 15 16
f 5 16 17
f 5 17 6
f 6 17 7
f 7 17 16
f 7 16 15
f 7 15 14
f 7 14 13
f 7 13 12
f 7 12 11
f 7 11 10
f 7 10 22
f 7 22 29
f 7 29 41
f 7 41 40
f 7 40 39
f 7 39 51
f 7 51 59
f 7 59 60
f 7 60 52
f 7 52 43
f 7 43 30
f 7 30 23
f 7 23 18
f 7 18 19
f 7 19 8
f 8 19 26
f 8 26 36
f 8 36 48
f 8 48 47
f 8 47 46
f 8 46 45
f 8 45 57
f 8 57 56
f 8 56 55
f 8 55 58
f 8 58 50
f 8 50 49
f 8 49 42
f 8 42 37
f 8 37 27
f 8 27 20
f 8 20 9
f 9 20 21
f 9 21 10
f 10 21 22
f 18 23 24
f 18 24 33
f 18 33 34
f 18 34 25
f 18 25 19
f 19 25 26
f 20 27 28
f 20 28 21
f 21 28 29
f 21 29 22
f 23 30 31
f 23 31 24
f 24 31 32
f 24 32 33
f 25 34 26
f 26 34 35
f 26 35 36
f 27 37 28
f 28 38 39
f 28 39 40
f 28 40 41
f 28 41 29
f 28 37 42
f 28 42 38
f 30 43 31
f 31 43 44
f 31 44 45
f 31 45 46
f 31 46 47
f 31 47 32
f 32 35 34
f 32 34 33
f 32 47 48
f 32 48 36
f 32 36 35
f 38 42 49
f 38 49 50
f 38 50 51
f 38 51 39
f 43 52 53
f 43 53 44
f 44 54 55
f 44 55 56
f 44 56 57
f 44 57 45
f 44 53 54
f 50 58 59
f 50 59 51
f 52 60 58
f 52 58 55
f 52 55 54
f 52 54 53
f 58 60 59

