# https://github.com/mikedh/trimesh

o left_foot_upper_aft_035.obj
v -0.10902389 -0.02654164 -0.01363229
v -0.10778868 -0.03048780 -0.01363229
v -0.10902174 -0.03020161 -0.01362428
v -0.10902174 -0.03073422 -0.01312129
v -0.10902174 -0.03140690 -0.01227308
v -0.10902174 -0.02899545 -0.01191286
v -0.08707794 -0.02827435 -0.01363229
v -0.10675969 -0.03073249 -0.01363229
v -0.10701962 -0.03086046 -0.01347930
v -0.10768556 -0.03086305 -0.01333313
v -0.10768556 -0.03158761 -0.01258402
v -0.10502180 -0.03211244 -0.01279228
v -0.10635368 -0.03201214 -0.01252637
v -0.10814957 -0.03192741 -0.01189000
v -0.10701962 -0.03204500 -0.01224801
v -0.10706903 -0.03224473 -0.01192991
v -0.08947103 -0.03192568 -0.01189000
v -0.08707794 -0.03315086 -0.01363229
v -0.10355888 -0.03137491 -0.01363229
v -0.10477261 -0.03126770 -0.01355963
v -0.10495091 -0.03286726 -0.01194322
v -0.10302398 -0.03257415 -0.01273258
v -0.10236019 -0.03329784 -0.01212708
v -0.10272538 -0.03336702 -0.01195379
v -0.10361474 -0.03321311 -0.01189785
v -0.09995421 -0.03397053 -0.01189000
v -0.09303918 -0.03499165 -0.01189000
v -0.09120892 -0.03518965 -0.01190996
v -0.08941518 -0.03537468 -0.01193128
v -0.08830241 -0.03441494 -0.01276993
v -0.08759780 -0.03371200 -0.01327531
v -0.08904354 -0.03322695 -0.01350011
v -0.09097906 -0.03284132 -0.01363229
v -0.10284998 -0.03149163 -0.01363229
v -0.10102831 -0.03203462 -0.01345866
v -0.10236019 -0.03199053 -0.01332750
v -0.10102831 -0.03260874 -0.01302748
v -0.10102831 -0.03314221 -0.01256116
v -0.10135269 -0.03367482 -0.01193964
v -0.09890375 -0.03414345 -0.01189478
v -0.09625073 -0.03456107 -0.01189000
v -0.09391994 -0.03487666 -0.01189000
v -0.09503700 -0.03435615 -0.01223948
v -0.09303918 -0.03440457 -0.01240544
v -0.08895117 -0.03490000 -0.01235956
v -0.08904354 -0.03431032 -0.01279944
v -0.09104136 -0.03368606 -0.01309144
v -0.09292532 -0.03286899 -0.01350778
v -0.09394142 -0.03256896 -0.01363229
v -0.10037956 -0.03186861 -0.01363229
v -0.09903049 -0.03263295 -0.01321561
v -0.09703482 -0.03354426 -0.01271979
v -0.09903049 -0.03365148 -0.01237031
v -0.09703482 -0.03424288 -0.01209519
v -0.09548167 -0.03459479 -0.01196027
v -0.09503700 -0.03355723 -0.01288643
v -0.09104136 -0.03398695 -0.01288796
v -0.09303918 -0.03351314 -0.01307831
v -0.09529693 -0.03261306 -0.01352245
v -0.09477492 -0.03249028 -0.01363229
v -0.09927539 -0.03201646 -0.01362513
v -0.09703482 -0.03291914 -0.01319071
v -0.09730549 -0.03229487 -0.01359187
f 1 2 3
f 1 3 4
f 1 4 5
f 1 5 6
f 1 6 7
f 1 7 18
f 1 18 33
f 1 33 49
f 1 49 60
f 1 60 50
f 1 50 34
f 1 34 19
f 1 19 8
f 1 8 2
f 2 8 9
f 2 9 3
f 3 9 10
f 3 10 4
f 4 11 5
f 4 10 12
f 4 12 13
f 4 13 11
f 5 14 6
f 5 11 15
f 5 15 16
f 5 16 14
f 6 14 17
f 6 17 7
f 7 17 18
f 8 19 20
f 8 20 9
f 9 20 12
f 9 12 10
f 11 13 15
f 12 21 13
f 12 20 22
f 12 22 23
f 12 23 24
f 12 24 25
f 12 25 21
f 13 21 15
f 14 21 25
f 14 25 26
f 14 26 41
f 14 41 42
f 14 42 27
f 14 27 17
f 14 16 21
f 15 21 16
f 17 27 28
f 17 28 29
f 17 29 18
f 18 29 30
f 18 30 31
f 18 31 32
f 18 32 33
f 19 34 35
f 19 35 36
f 19 36 20
f 20 36 37
f 20 37 22
f 22 37 38
f 22 38 23
f 23 38 39
f 23 39 24
f 24 39 25
f 25 39 26
f 26 40 41
f 26 39 38
f 26 38 40
f 27 42 43
f 27 43 28
f 28 43 44
f 28 44 29
f 29 44 45
f 29 45 30
f 30 45 46
f 30 46 31
f 31 46 47
f 31 47 48
f 31 48 32
f 32 48 33
f 33 48 49
f 34 50 35
f 35 37 36
f 35 50 51
f 35 51 37
f 37 51 52
f 37 52 38
f 38 52 53
f 38 53 40
f 40 54 41
f 40 53 54
f 41 54 55
f 41 55 42
f 42 55 43
f 43 55 54
f 43 54 52
f 43 52 44
f 44 52 56
f 44 56 57
f 44 57 45
f 45 57 46
f 46 57 58
f 46 58 47
f 47 58 48
f 48 58 59
f 48 59 60
f 48 60 49
f 50 61 62
f 50 62 51
f 50 60 61
f 51 62 52
f 52 62 56
f 52 54 53
f 56 62 58
f 56 58 57
f 58 62 59
f 59 62 63
f 59 63 60
f 60 63 61
f 61 63 62

