# https://github.com/mikedh/trimesh

o lower_neck_idler_fork_plate_001.obj
v -0.08262228 -0.03625000 0.08881372
v -0.08598480 -0.03625000 0.09155163
v -0.08262228 -0.04175000 0.08881372
v -0.09588468 -0.03625000 0.08881372
v -0.08598480 -0.04175000 0.09155163
v -0.09748519 -0.03625000 0.09155163
v -0.09588468 -0.04175000 0.08881372
v -0.09589050 -0.03625000 0.08882203
v -0.09748519 -0.04175000 0.09155163
v -0.09664710 -0.03625000 0.08996330
v -0.09707342 -0.03808369 0.09077033
v -0.09589050 -0.04175000 0.08882203
v -0.09664710 -0.04175000 0.08996330
f 1 2 5
f 1 5 3
f 1 3 7
f 1 7 4
f 1 4 8
f 1 8 10
f 1 10 6
f 1 6 2
f 2 6 9
f 2 9 5
f 3 5 9
f 3 9 13
f 3 13 12
f 3 12 7
f 4 7 12
f 4 12 8
f 6 10 11
f 6 11 9
f 8 12 13
f 8 13 10
f 9 11 13
f 10 13 11

