# https://github.com/mikedh/trimesh

o lower_bill_backbone_shell_054.obj
v 0.05493168 -0.01794368 -0.02671006
v 0.05440945 -0.01719666 -0.02661747
v 0.05493168 -0.01719666 -0.02661472
v 0.05493168 -0.01794368 -0.02464839
v 0.00853948 -0.01794368 -0.02667706
v 0.00853948 -0.01768000 -0.02664680
v 0.00853948 -0.01720010 -0.02659157
v 0.05438221 -0.01719666 -0.02661724
v 0.05493168 -0.01719666 -0.02453997
v 0.05493168 -0.01792064 -0.02464449
v 0.05267928 -0.01794368 -0.02460415
v 0.00853948 -0.01794368 -0.02455671
v 0.00853948 -0.01720339 -0.02446502
v 0.01662270 -0.01720010 -0.02438182
v 0.04549975 -0.01719666 -0.02443798
v 0.04549975 -0.01719666 -0.02653450
v 0.05493168 -0.01737698 -0.02456404
v 0.05480453 -0.01719666 -0.02453768
v 0.05445486 -0.01729669 -0.02454433
v 0.05493168 -0.01770888 -0.02461171
v 0.05192091 -0.01794368 -0.02458994
v 0.05270653 -0.01772102 -0.02457137
v 0.00893456 -0.01794368 -0.02454639
v 0.00853948 -0.01726774 -0.02447259
v 0.01249935 -0.01794368 -0.02448817
v 0.01249935 -0.01786288 -0.02447924
v 0.01500151 -0.01754735 -0.02442331
v 0.01717671 -0.01794368 -0.02444967
v 0.01978786 -0.01794368 -0.02443683
v 0.02036913 -0.01794368 -0.02443546
v 0.02350705 -0.01750765 -0.02439214
v 0.02700827 -0.01720010 -0.02436876
v 0.03624947 -0.01720010 -0.02439351
v 0.03399707 -0.01785673 -0.02444600
v 0.03399707 -0.01794368 -0.02445494
v 0.04224376 -0.01794368 -0.02450261
v 0.04799738 -0.01749727 -0.02448794
v 0.04799738 -0.01723541 -0.02445907
v 0.04799738 -0.01719666 -0.02445494
v 0.05445486 -0.01746831 -0.02456748
v 0.05493168 -0.01754845 -0.02458811
v 0.05459110 -0.01719666 -0.02453401
v 0.05270653 -0.01754699 -0.02454823
v 0.05150313 -0.01794368 -0.02458329
v 0.05150313 -0.01787158 -0.02457344
v 0.01291713 -0.01794368 -0.02448336
v 0.01459281 -0.01794368 -0.02446617
v 0.01500151 -0.01794368 -0.02446205
v 0.01503784 -0.01794368 -0.02446182
v 0.02700827 -0.01794368 -0.02443523
v 0.02350705 -0.01793256 -0.02443042
v 0.02700827 -0.01779955 -0.02442125
v 0.02700827 -0.01738824 -0.02438480
v 0.03399707 -0.01747482 -0.02440956
v 0.04748877 -0.01794368 -0.02453676
v 0.04799738 -0.01777067 -0.02451980
v 0.04860135 -0.01767488 -0.02451407
v 0.05035422 -0.01748769 -0.02450972
v 0.05089008 -0.01719666 -0.02448244
v 0.05150313 -0.01719666 -0.02448886
v 0.05150313 -0.01738787 -0.02451132
v 0.05150313 -0.01762984 -0.02454158
v 0.04812907 -0.01794368 -0.02454249
v 0.05126699 -0.01719666 -0.02448611
f 1 2 3
f 1 3 9
f 1 9 17
f 1 17 41
f 1 41 20
f 1 20 10
f 1 10 4
f 1 4 11
f 1 11 21
f 1 21 44
f 1 44 63
f 1 63 55
f 1 55 36
f 1 36 35
f 1 35 50
f 1 50 30
f 1 30 29
f 1 29 28
f 1 28 49
f 1 49 48
f 1 48 47
f 1 47 46
f 1 46 25
f 1 25 23
f 1 23 12
f 1 12 5
f 1 5 6
f 1 6 7
f 1 7 2
f 2 8 16
f 2 16 15
f 2 15 39
f 2 39 59
f 2 59 64
f 2 64 60
f 2 60 42
f 2 42 18
f 2 18 9
f 2 9 3
f 2 7 8
f 4 10 11
f 5 12 24
f 5 24 13
f 5 13 7
f 5 7 6
f 7 13 14
f 7 14 15
f 7 15 16
f 7 16 8
f 9 18 19
f 9 19 17
f 10 20 11
f 11 20 22
f 11 22 21
f 12 23 24
f 13 24 25
f 13 25 26
f 13 26 27
f 13 27 14
f 14 27 28
f 14 28 29
f 14 29 30
f 14 30 31
f 14 31 32
f 14 32 15
f 15 32 33
f 15 33 34
f 15 34 35
f 15 35 36
f 15 36 37
f 15 37 38
f 15 38 39
f 17 19 40
f 17 40 41
f 18 42 19
f 19 42 43
f 19 43 22
f 19 22 40
f 20 41 22
f 21 22 44
f 22 41 40
f 22 43 45
f 22 45 44
f 23 25 24
f 25 46 26
f 26 46 47
f 26 47 48
f 26 48 27
f 27 49 28
f 27 48 49
f 30 50 51
f 30 51 31
f 31 51 52
f 31 52 53
f 31 53 32
f 32 53 54
f 32 54 33
f 33 54 34
f 34 54 52
f 34 52 50
f 34 50 35
f 36 55 56
f 36 56 37
f 37 56 57
f 37 57 58
f 37 58 59
f 37 59 38
f 38 59 39
f 42 60 61
f 42 61 43
f 43 61 62
f 43 62 45
f 44 45 63
f 45 62 63
f 50 52 51
f 52 54 53
f 55 63 56
f 56 63 57
f 57 63 58
f 58 63 62
f 58 62 61
f 58 61 64
f 58 64 59
f 60 64 61

