# https://github.com/mikedh/trimesh

o lower_bill_backbone_shell_068.obj
v 0.06176614 -0.01746919 -0.02934537
v 0.05278410 -0.01746919 -0.03014439
v 0.05230923 -0.02079329 -0.02934537
v 0.06785040 -0.01874794 -0.02934623
v 0.07118527 -0.01747700 -0.02935577
v 0.04362129 -0.02079329 -0.03014439
v 0.06923723 -0.01760812 -0.03004365
v 0.06864904 -0.01774283 -0.03012859
v 0.06715968 -0.01835943 -0.03013814
v 0.06110780 -0.02069568 -0.03007478
v 0.06195770 -0.02072041 -0.02954943
v 0.06260256 -0.02055088 -0.02943970
v 0.06315837 -0.02036997 -0.02942226
v 0.06554351 -0.01957539 -0.02935742
v 0.06828480 -0.01854848 -0.02942343
v 0.06828480 -0.01858362 -0.02935312
v 0.07025172 -0.01783622 -0.02936000
v 0.06599949 -0.01936942 -0.02945714
v 0.06674687 -0.01907007 -0.02951423
v 0.06890536 -0.01824067 -0.02954435
v 0.07062946 -0.01762700 -0.02945604
v 0.07008984 -0.01763513 -0.02971274
v 0.06975257 -0.01761301 -0.02986916
v 0.06505784 -0.01920771 -0.03013415
v 0.06834685 -0.01806268 -0.02998460
v 0.06827400 -0.01798654 -0.03006790
v 0.06737553 -0.01841345 -0.03002434
v 0.06629358 -0.01879610 -0.03006821
v 0.06552462 -0.01903883 -0.03012249
v 0.06254859 -0.02020338 -0.03006829
v 0.06206833 -0.02041683 -0.03001026
v 0.06157187 -0.02067648 -0.02987542
v 0.06235163 -0.02052095 -0.02970554
v 0.06285078 -0.02036054 -0.02969436
v 0.06370609 -0.02017442 -0.02944775
v 0.06423762 -0.01997561 -0.02947966
v 0.06790166 -0.01866301 -0.02947403
v 0.06847096 -0.01845152 -0.02947184
v 0.06886759 -0.01835943 -0.02936508
v 0.06942610 -0.01813199 -0.02939371
v 0.06468550 -0.01975467 -0.02961552
v 0.06507403 -0.01956563 -0.02971532
v 0.06738362 -0.01878731 -0.02959159
v 0.06794483 -0.01855108 -0.02962991
v 0.06845478 -0.01837473 -0.02960089
v 0.06843319 -0.01830835 -0.02970054
v 0.06973368 -0.01790715 -0.02955318
v 0.06791785 -0.01841605 -0.02980886
v 0.06837383 -0.01819154 -0.02985446
v 0.06943689 -0.01778220 -0.02983569
v 0.06504435 -0.01928222 -0.03007025
v 0.06746727 -0.01851562 -0.02989341
v 0.06603726 -0.01903916 -0.02992939
v 0.06368180 -0.01986237 -0.02998038
v 0.06506054 -0.01933395 -0.03001206
v 0.06605615 -0.01915792 -0.02977898
v 0.06795562 -0.01849805 -0.02969631
v 0.06652562 -0.01896855 -0.02979064
f 1 2 3
f 1 3 4
f 1 4 5
f 1 5 2
f 2 6 3
f 2 5 7
f 2 7 8
f 2 8 9
f 2 9 6
f 3 6 10
f 3 10 11
f 3 11 12
f 3 12 13
f 3 13 14
f 3 14 4
f 4 15 16
f 4 16 17
f 4 17 5
f 4 14 18
f 4 18 19
f 4 19 15
f 5 17 20
f 5 20 21
f 5 21 22
f 5 22 23
f 5 23 7
f 6 9 24
f 6 24 10
f 7 23 25
f 7 25 26
f 7 26 8
f 8 26 9
f 9 26 25
f 9 25 27
f 9 27 28
f 9 28 29
f 9 29 24
f 10 30 31
f 10 31 32
f 10 32 11
f 10 24 30
f 11 32 33
f 11 33 34
f 11 34 12
f 12 34 35
f 12 35 13
f 13 35 14
f 14 35 36
f 14 36 18
f 15 19 37
f 15 37 38
f 15 38 39
f 15 39 16
f 16 39 17
f 17 39 40
f 17 40 38
f 17 38 20
f 18 36 34
f 18 34 41
f 18 41 42
f 18 42 19
f 19 42 43
f 19 43 37
f 20 38 44
f 20 44 45
f 20 45 46
f 20 46 47
f 20 47 21
f 21 47 22
f 22 47 46
f 22 46 48
f 22 48 49
f 22 49 50
f 22 50 23
f 23 50 25
f 24 29 51
f 24 51 30
f 25 50 27
f 27 50 49
f 27 49 52
f 27 52 28
f 28 53 51
f 28 51 29
f 28 52 53
f 30 54 42
f 30 42 31
f 30 51 55
f 30 55 54
f 31 34 32
f 31 42 34
f 32 34 33
f 34 42 41
f 34 36 35
f 37 43 38
f 38 40 39
f 38 43 44
f 42 56 43
f 42 54 56
f 43 56 44
f 44 56 57
f 44 57 45
f 45 57 46
f 46 57 48
f 48 57 53
f 48 53 52
f 48 52 49
f 51 53 55
f 53 57 58
f 53 58 56
f 53 56 55
f 54 55 56
f 56 58 57

