# https://github.com/mikedh/trimesh

o lower_bill_backbone_shell_030.obj
v 0.04543680 0.01825046 -0.02663577
v 0.04543680 0.01825046 -0.02456650
v 0.04543680 0.01721790 -0.02653633
v 0.02639097 0.01720000 -0.02648684
v 0.02639097 0.01825046 -0.02657362
v 0.04543680 0.01723692 -0.02444198
v 0.04375316 0.01825046 -0.02454785
v 0.04543680 0.01720000 -0.02653456
v 0.02639097 0.01720000 -0.02436829
v 0.02639097 0.01825046 -0.02446573
v 0.04543680 0.01722047 -0.02443999
v 0.03934363 0.01825046 -0.02451634
v 0.04543680 0.01720000 -0.02443777
v 0.02639843 0.01825046 -0.02446551
v 0.02700067 0.01720000 -0.02436874
v 0.02700067 0.01736258 -0.02438228
v 0.02700067 0.01781588 -0.02442267
v 0.04543680 0.01721049 -0.02443888
v 0.03419389 0.01825046 -0.02448815
v 0.03624856 0.01720000 -0.02439337
v 0.02700067 0.01825046 -0.02446662
f 1 2 6
f 1 6 11
f 1 11 18
f 1 18 13
f 1 13 8
f 1 8 3
f 1 3 4
f 1 4 5
f 1 5 10
f 1 10 14
f 1 14 21
f 1 21 19
f 1 19 12
f 1 12 7
f 1 7 2
f 2 7 6
f 3 8 4
f 4 9 10
f 4 10 5
f 4 8 13
f 4 13 20
f 4 20 15
f 4 15 9
f 6 7 11
f 7 12 11
f 9 14 10
f 9 15 16
f 9 16 17
f 9 17 14
f 11 12 18
f 12 19 18
f 13 18 19
f 13 19 20
f 14 17 21
f 15 20 16
f 16 20 17
f 17 20 19
f 17 19 21

