# https://github.com/mikedh/trimesh

o lower_neck_stationary_idler_spider_004.obj
v -0.00103421 -0.04214895 0.06111617
v -0.00147170 -0.04214895 0.06123108
v -0.00147170 -0.03675180 0.06123108
v -0.00103421 -0.03675180 0.06111713
v -0.00095603 -0.03859364 0.06110277
v -0.00103421 -0.04214895 0.07088333
v -0.00216584 -0.04214895 0.06150399
v -0.00190050 -0.04034937 0.06138620
v -0.00216584 -0.03675180 0.06150399
v -0.00103381 -0.03675180 0.07088333
v -0.00111199 -0.03945064 0.07086992
v -0.00147170 -0.04214895 0.07076842
v -0.00276008 -0.04214895 0.06184296
v -0.00263768 -0.03855085 0.06176348
v -0.00276008 -0.03675180 0.06184296
v -0.00147130 -0.03675180 0.07076842
v -0.00159134 -0.03945064 0.07073491
v -0.00216584 -0.04214895 0.07049552
v -0.00352846 -0.04214895 0.06247208
v -0.00339460 -0.03675180 0.06234185
v -0.00205489 -0.03675180 0.07055393
v -0.00190050 -0.03855085 0.07061425
v -0.00265505 -0.03675180 0.07022453
v -0.00276008 -0.04214895 0.07015654
v -0.00376892 -0.04034937 0.06272967
v -0.00366192 -0.03675180 0.06260327
v -0.00405203 -0.04214895 0.06308684
v -0.00320784 -0.03675180 0.06982235
v -0.00339460 -0.04214895 0.06965860
v -0.00415745 -0.03675180 0.06324196
v -0.00432250 -0.04214895 0.06350529
v -0.00374168 -0.03675180 0.06930143
v -0.00339460 -0.03945064 0.06965860
v -0.00366192 -0.04214895 0.06939719
v -0.00450097 -0.03675180 0.06383374
v -0.00454914 -0.04214895 0.06394769
v -0.00415745 -0.03675180 0.06875849
v -0.00387553 -0.03855085 0.06914248
v -0.00376892 -0.04034937 0.06927079
v -0.00366192 -0.03945064 0.06939719
v -0.00405203 -0.04214895 0.06891266
v -0.00469444 -0.03675180 0.06429146
v -0.00469444 -0.04214895 0.06429241
v -0.00432250 -0.04214895 0.06849421
v -0.00450097 -0.03675180 0.06816672
v -0.00438212 -0.03945064 0.06838504
v -0.00479237 -0.04034937 0.06460937
v -0.00486581 -0.03675180 0.06488993
v -0.00486581 -0.04214895 0.06488993
v -0.00454914 -0.04214895 0.06805181
v -0.00469444 -0.03675180 0.06770805
v -0.00490727 -0.04034937 0.06509294
v -0.00495228 -0.03675180 0.06538021
v -0.00497084 -0.04214895 0.06556597
v -0.00469444 -0.04214895 0.06770709
v -0.00484133 -0.03675180 0.06723214
v -0.00479237 -0.03855085 0.06739109
v -0.00498939 -0.03675180 0.06606199
v -0.00497084 -0.04214895 0.06643353
v -0.00498979 -0.03945064 0.06624776
v -0.00486581 -0.04214895 0.06710957
v -0.00495228 -0.03675180 0.06662025
v -0.00490727 -0.03855085 0.06690656
f 1 2 3
f 1 3 4
f 1 4 5
f 1 5 6
f 1 6 12
f 1 12 18
f 1 18 24
f 1 24 29
f 1 29 34
f 1 34 41
f 1 41 44
f 1 44 50
f 1 50 55
f 1 55 61
f 1 61 59
f 1 59 54
f 1 54 49
f 1 49 43
f 1 43 36
f 1 36 31
f 1 31 27
f 1 27 19
f 1 19 13
f 1 13 7
f 1 7 2
f 2 7 8
f 2 8 3
f 3 8 9
f 3 9 15
f 3 15 20
f 3 20 26
f 3 26 30
f 3 30 35
f 3 35 42
f 3 42 48
f 3 48 53
f 3 53 58
f 3 58 62
f 3 62 56
f 3 56 51
f 3 51 45
f 3 45 37
f 3 37 32
f 3 32 28
f 3 28 23
f 3 23 21
f 3 21 16
f 3 16 10
f 3 10 4
f 4 10 5
f 5 10 6
f 6 10 11
f 6 11 12
f 7 9 8
f 7 13 14
f 7 14 9
f 9 14 15
f 10 16 11
f 11 16 17
f 11 17 12
f 12 17 18
f 13 19 20
f 13 20 15
f 13 15 14
f 16 21 17
f 17 21 22
f 17 22 18
f 18 23 24
f 18 22 21
f 18 21 23
f 19 25 26
f 19 26 20
f 19 27 25
f 23 28 24
f 24 28 29
f 25 27 26
f 26 27 30
f 27 31 30
f 28 32 33
f 28 33 29
f 29 33 40
f 29 40 34
f 30 31 35
f 31 36 35
f 32 37 38
f 32 38 39
f 32 39 40
f 32 40 33
f 34 40 39
f 34 39 41
f 35 36 42
f 36 43 42
f 37 44 41
f 37 41 38
f 37 45 46
f 37 46 44
f 38 41 39
f 42 43 47
f 42 47 48
f 43 49 47
f 44 46 45
f 44 45 50
f 45 51 50
f 47 49 48
f 48 49 52
f 48 52 53
f 49 54 52
f 50 51 55
f 51 56 57
f 51 57 55
f 52 54 53
f 53 54 58
f 54 59 60
f 54 60 58
f 55 57 61
f 56 61 57
f 56 62 63
f 56 63 61
f 58 60 62
f 59 61 63
f 59 63 62
f 59 62 60

