# https://github.com/mikedh/trimesh

o lower_grip_carrier_028.obj
v 0.03859045 0.00759823 -0.02465522
v 0.03859045 0.00621358 -0.02465522
v 0.03859045 0.00759823 -0.02496035
v 0.02702749 0.00759823 -0.02465522
v 0.03859045 0.00621358 -0.02496035
v 0.03671686 0.00457920 -0.02465522
v 0.02678214 0.00759823 -0.02496035
v 0.02695926 0.00759823 -0.02473937
v 0.02518802 0.00618137 -0.02496035
v 0.02518802 0.00616245 -0.02493633
v 0.02518802 0.00593991 -0.02465537
v 0.02518802 0.00586543 -0.02465522
v 0.03671686 0.00457920 -0.02496035
v 0.02518802 0.00457920 -0.02465522
v 0.02518802 0.00457920 -0.02496035
f 1 2 5
f 1 5 3
f 1 3 7
f 1 7 8
f 1 8 4
f 1 4 12
f 1 12 14
f 1 14 6
f 1 6 2
f 2 6 13
f 2 13 5
f 3 5 13
f 3 13 15
f 3 15 9
f 3 9 7
f 4 8 9
f 4 9 10
f 4 10 11
f 4 11 12
f 6 14 15
f 6 15 13
f 7 9 8
f 9 15 14
f 9 14 12
f 9 12 11
f 9 11 10

