# https://github.com/mikedh/trimesh

o lower_neck_bridge_027.obj
v -0.03877815 -0.03540866 0.05402467
v -0.03997931 -0.03540866 0.05674624
v -0.03877815 -0.03574549 0.05402467
v -0.03877815 -0.03540866 0.04185035
v -0.04192417 -0.03540866 0.05674624
v -0.03997931 -0.03574549 0.05674624
v -0.04002925 -0.03625000 0.05548730
v -0.03953969 -0.03625000 0.05426665
v -0.03877815 -0.03574549 0.04185035
v -0.03984555 -0.03540866 0.04109989
v -0.04192417 -0.03574549 0.05674624
v -0.04788805 -0.03540866 0.05255744
v -0.04371298 -0.03625000 0.05548730
v -0.03953969 -0.03625000 0.05247780
v -0.03984555 -0.03574549 0.04109989
v -0.04095575 -0.03540866 0.04268045
v -0.04788805 -0.03625000 0.05255744
v -0.04618485 -0.03540866 0.05012993
v -0.04788270 -0.03574549 0.05254978
v -0.04783009 -0.03625000 0.05247780
f 1 2 6
f 1 6 3
f 1 3 9
f 1 9 4
f 1 4 10
f 1 10 16
f 1 16 18
f 1 18 12
f 1 12 5
f 1 5 2
f 2 5 11
f 2 11 6
f 3 6 7
f 3 7 8
f 3 8 14
f 3 14 9
f 4 9 15
f 4 15 10
f 5 12 17
f 5 17 11
f 6 11 13
f 6 13 7
f 7 13 17
f 7 17 20
f 7 20 14
f 7 14 8
f 9 14 15
f 10 15 16
f 11 17 13
f 12 18 19
f 12 19 17
f 14 20 15
f 15 20 17
f 15 17 16
f 16 17 18
f 17 19 18

