# https://github.com/mikedh/trimesh

o lower_grip_backbone_068.obj
v 0.02155968 -0.01500000 -0.02788988
v 0.02409976 -0.01500000 -0.02788988
v 0.02155968 -0.01500000 -0.02747202
v 0.02155968 0.00900342 -0.02788988
v 0.02409976 0.00699217 -0.02788988
v 0.02409976 -0.01500000 -0.02747202
v 0.02155993 -0.01500000 -0.02629999
v 0.02155968 0.00900342 -0.02747202
v 0.02409752 0.00900342 -0.02788988
v 0.02409976 0.00699217 -0.02747202
v 0.02407265 -0.01325895 -0.02629999
v 0.02407265 -0.01500000 -0.02630061
v 0.02155993 0.00897757 -0.02629999
v 0.02409752 0.00900342 -0.02747202
v 0.02407166 0.00897757 -0.02629999
v 0.02407265 0.00701566 -0.02629999
f 1 2 6
f 1 6 12
f 1 12 7
f 1 7 3
f 1 3 8
f 1 8 4
f 1 4 9
f 1 9 5
f 1 5 2
f 2 5 10
f 2 10 6
f 3 7 13
f 3 13 8
f 4 8 14
f 4 14 9
f 5 9 14
f 5 14 10
f 6 11 12
f 6 10 16
f 6 16 11
f 7 12 11
f 7 11 16
f 7 16 15
f 7 15 13
f 8 13 15
f 8 15 14
f 10 14 15
f 10 15 16

