# https://github.com/mikedh/trimesh

o lower_neck_idler_fork_plate_075.obj
v -0.00510361 -0.03878730 0.01158963
v -0.00556927 -0.03878730 0.01158963
v -0.00510361 -0.03999537 0.01158963
v -0.00510361 -0.03878730 0.00975589
v -0.00678558 -0.03878730 0.00995266
v -0.00678756 -0.03889540 0.00995391
v -0.00556927 -0.04063099 0.01158963
v -0.00510542 -0.04063099 0.01158963
v -0.00510361 -0.04063099 0.01157599
v -0.00678756 -0.03878730 0.00975589
v -0.00510361 -0.04063099 0.00975589
v -0.00678756 -0.03878730 0.00984153
v -0.00678756 -0.04063099 0.00995391
v -0.00678756 -0.04062522 0.00975589
v -0.00678080 -0.04063099 0.00975589
v -0.00678756 -0.04063099 0.00989198
f 1 2 7
f 1 7 8
f 1 8 3
f 1 3 9
f 1 9 11
f 1 11 4
f 1 4 10
f 1 10 12
f 1 12 5
f 1 5 2
f 2 5 6
f 2 6 13
f 2 13 7
f 3 8 9
f 4 11 15
f 4 15 14
f 4 14 10
f 5 12 6
f 6 12 10
f 6 10 14
f 6 14 16
f 6 16 13
f 7 13 16
f 7 16 15
f 7 15 11
f 7 11 9
f 7 9 8
f 14 15 16

