# https://github.com/mikedh/trimesh

o lower_bill_backbone_shell_072.obj
v 0.01902168 -0.02057089 -0.03119068
v 0.01902168 -0.02350796 -0.03014445
v 0.01902168 -0.02057089 -0.03325512
v 0.00640324 -0.02057089 -0.03140499
v 0.00640324 -0.02220539 -0.03014445
v 0.01549158 -0.02574790 -0.03029111
v 0.01868325 -0.02580271 -0.03062540
v 0.01892534 -0.02348440 -0.03257520
v 0.00672809 -0.02448067 -0.03026811
v 0.01889570 -0.02159226 -0.03308914
v 0.01752343 -0.02057089 -0.03331678
v 0.00879452 -0.02057089 -0.03354943
v 0.00789779 -0.02064568 -0.03354609
v 0.00669844 -0.02078449 -0.03352210
v 0.00671697 -0.02338964 -0.03240055
v 0.01256424 -0.02543442 -0.03038276
v 0.01385376 -0.02546055 -0.03078105
v 0.01651059 -0.02563419 -0.03088071
v 0.01848439 -0.02474395 -0.03196059
v 0.01729245 -0.02536732 -0.03141632
v 0.01772105 -0.02374051 -0.03250320
v 0.01654271 -0.02353409 -0.03260353
v 0.01594983 -0.02294503 -0.03282950
v 0.01805331 -0.02245842 -0.03291816
v 0.00810406 -0.02468966 -0.03061840
v 0.00911072 -0.02488686 -0.03055441
v 0.01002474 -0.02505999 -0.03043509
v 0.00721227 -0.02420766 -0.03153831
v 0.01646613 -0.02213982 -0.03304415
v 0.01775070 -0.02142015 -0.03316113
v 0.01637596 -0.02121783 -0.03324546
v 0.01289527 -0.02088744 -0.03340277
v 0.01143160 -0.02062006 -0.03348810
v 0.01152918 -0.02149186 -0.03330578
v 0.00920089 -0.02117173 -0.03340877
v 0.00812136 -0.02113741 -0.03342677
v 0.00682690 -0.02193698 -0.03315847
v 0.00775822 -0.02165424 -0.03327545
v 0.00768164 -0.02272836 -0.03284683
v 0.00906749 -0.02374717 -0.03235122
v 0.00771499 -0.02362424 -0.03230889
v 0.00886493 -0.02444020 -0.03160797
v 0.01130931 -0.02519522 -0.03070573
v 0.01279398 -0.02507843 -0.03140965
v 0.01478630 -0.02511634 -0.03157497
v 0.01673416 -0.02466712 -0.03203292
v 0.01548294 -0.02397306 -0.03242455
v 0.01327940 -0.02333586 -0.03270951
v 0.01452198 -0.02303109 -0.03281750
v 0.01342268 -0.02244767 -0.03302381
v 0.01408473 -0.02174336 -0.03319946
v 0.01505681 -0.02112716 -0.03329845
v 0.01270135 -0.02186425 -0.03319346
v 0.01018037 -0.02284720 -0.03287883
v 0.01135625 -0.02255933 -0.03299115
v 0.01006180 -0.02343830 -0.03259319
v 0.01119074 -0.02385371 -0.03240721
v 0.01325347 -0.02457441 -0.03201726
v 0.01168357 -0.02473627 -0.03172095
v 0.01033106 -0.02460411 -0.03165396
v 0.01412178 -0.02409036 -0.03236322
v 0.01234068 -0.02363807 -0.03255420
f 1 2 3
f 1 3 11
f 1 11 12
f 1 12 4
f 1 4 5
f 1 5 2
f 2 6 7
f 2 7 8
f 2 8 3
f 2 5 9
f 2 9 6
f 3 8 10
f 3 10 11
f 4 12 13
f 4 13 14
f 4 14 15
f 4 15 5
f 5 15 9
f 6 9 16
f 6 16 17
f 6 17 18
f 6 18 7
f 7 19 8
f 7 18 20
f 7 20 19
f 8 19 21
f 8 21 22
f 8 22 23
f 8 23 24
f 8 24 10
f 9 25 26
f 9 26 27
f 9 27 16
f 9 15 28
f 9 28 25
f 10 24 29
f 10 29 30
f 10 30 11
f 11 30 31
f 11 31 32
f 11 32 33
f 11 33 12
f 12 33 34
f 12 34 13
f 13 34 35
f 13 35 36
f 13 36 14
f 14 37 15
f 14 36 38
f 14 38 37
f 15 37 39
f 15 39 40
f 15 40 41
f 15 41 42
f 15 42 28
f 16 27 43
f 16 43 17
f 17 44 18
f 17 43 44
f 18 44 45
f 18 45 20
f 19 20 46
f 19 46 47
f 19 47 21
f 20 45 46
f 21 47 22
f 22 47 48
f 22 48 49
f 22 49 23
f 23 49 50
f 23 50 29
f 23 29 24
f 25 28 26
f 26 43 27
f 26 28 43
f 28 42 43
f 29 50 51
f 29 51 31
f 29 31 30
f 31 51 52
f 31 52 32
f 32 52 51
f 32 51 34
f 32 34 33
f 34 36 35
f 34 51 53
f 34 53 36
f 36 53 50
f 36 50 38
f 37 38 54
f 37 54 39
f 38 50 55
f 38 55 54
f 39 54 56
f 39 56 40
f 40 56 57
f 40 57 58
f 40 58 59
f 40 59 41
f 41 59 42
f 42 59 60
f 42 60 44
f 42 44 43
f 44 60 59
f 44 59 45
f 45 59 58
f 45 58 46
f 46 58 61
f 46 61 47
f 47 61 48
f 48 61 62
f 48 62 54
f 48 54 55
f 48 55 49
f 49 55 50
f 50 53 51
f 54 62 56
f 56 62 57
f 57 62 61
f 57 61 58

