# https://github.com/mikedh/trimesh

o lower_bill_backbone_shell_055.obj
v 0.04689168 0.02410595 -0.02753632
v 0.04670038 0.02177663 -0.02767943
v 0.04687716 0.02405681 -0.02724264
v 0.04793275 0.02393920 -0.02729349
v 0.04793275 0.02397213 -0.02749707
v 0.04798911 0.02398311 -0.02767943
v 0.04670038 0.01976356 -0.02686767
v 0.05542262 0.02040810 -0.02767856
v 0.04700698 0.02395122 -0.02694753
v 0.04734517 0.02393083 -0.02699568
v 0.04778500 0.02389372 -0.02705090
v 0.04836745 0.02390940 -0.02746171
v 0.04937436 0.02370031 -0.02712051
v 0.04892086 0.02379440 -0.02724709
v 0.04872615 0.02387908 -0.02762548
v 0.05067847 0.02358949 -0.02764288
v 0.05177675 0.02340653 -0.02766823
v 0.05542518 0.01876617 -0.02686846
v 0.05513993 0.01880747 -0.02686767
v 0.05542518 0.02001552 -0.02686767
v 0.04912839 0.02366267 -0.02689206
v 0.04737336 0.02388954 -0.02689723
v 0.05499902 0.02276513 -0.02764264
v 0.05541323 0.02266371 -0.02752138
v 0.04809929 0.02383047 -0.02698225
v 0.04858779 0.02377088 -0.02699592
v 0.04975526 0.02368724 -0.02729286
v 0.04920697 0.02380067 -0.02752679
v 0.04967071 0.02362555 -0.02700561
v 0.05068444 0.02351369 -0.02714101
v 0.04962971 0.02374317 -0.02756096
v 0.05039493 0.02361405 -0.02745734
v 0.05094236 0.02351108 -0.02733426
v 0.05113281 0.02351421 -0.02763628
v 0.05178017 0.02339084 -0.02748603
v 0.05262566 0.02324186 -0.02753775
v 0.05322605 0.02312895 -0.02755698
v 0.05396478 0.02298520 -0.02760251
v 0.05516214 0.02263235 -0.02698805
v 0.05453955 0.02274892 -0.02693187
v 0.05076387 0.02343162 -0.02691765
v 0.05273754 0.02310177 -0.02693140
v 0.05461812 0.02283883 -0.02750271
v 0.05511175 0.02270553 -0.02729206
v 0.05031038 0.02354401 -0.02705376
v 0.05109523 0.02340914 -0.02701403
v 0.05231052 0.02321207 -0.02704264
v 0.05193560 0.02329780 -0.02712861
v 0.05262054 0.02319848 -0.02721062
v 0.05145734 0.02342691 -0.02736525
v 0.05340710 0.02305316 -0.02724804
v 0.05400065 0.02293083 -0.02721658
v 0.05364367 0.02304741 -0.02757113
v 0.05427053 0.02291411 -0.02751980
v 0.05478209 0.02277401 -0.02725583
v 0.05442767 0.02284981 -0.02725488
v 0.05484956 0.02269246 -0.02696382
v 0.05408947 0.02285033 -0.02695841
v 0.05141037 0.02333073 -0.02692520
v 0.05368210 0.02293554 -0.02697033
v 0.05319530 0.02303800 -0.02700585
f 1 2 3
f 1 3 4
f 1 4 5
f 1 5 6
f 1 6 2
f 2 7 3
f 2 6 8
f 2 8 7
f 3 7 9
f 3 9 10
f 3 10 11
f 3 11 4
f 4 12 5
f 4 11 13
f 4 13 14
f 4 14 12
f 5 12 15
f 5 15 6
f 6 15 16
f 6 16 17
f 6 17 8
f 7 18 19
f 7 19 20
f 7 20 21
f 7 21 22
f 7 22 9
f 7 8 18
f 8 17 23
f 8 23 24
f 8 24 20
f 8 20 18
f 9 22 10
f 10 22 25
f 10 25 11
f 11 25 26
f 11 26 13
f 12 14 27
f 12 27 28
f 12 28 15
f 13 29 30
f 13 30 27
f 13 27 14
f 13 26 29
f 15 28 31
f 15 31 16
f 16 31 32
f 16 32 33
f 16 33 34
f 16 34 17
f 17 35 36
f 17 36 37
f 17 37 38
f 17 38 23
f 17 34 35
f 18 20 19
f 20 24 39
f 20 39 40
f 20 40 21
f 21 41 29
f 21 29 26
f 21 26 25
f 21 25 22
f 21 40 42
f 21 42 41
f 23 43 24
f 23 38 43
f 24 43 44
f 24 44 39
f 27 31 28
f 27 30 33
f 27 33 32
f 27 32 31
f 29 41 45
f 29 45 30
f 30 45 41
f 30 41 46
f 30 46 47
f 30 47 48
f 30 48 33
f 33 48 49
f 33 49 50
f 33 50 35
f 33 35 34
f 35 50 49
f 35 49 36
f 36 51 37
f 36 49 51
f 37 51 52
f 37 52 53
f 37 53 38
f 38 53 54
f 38 54 43
f 39 44 55
f 39 55 56
f 39 56 52
f 39 52 57
f 39 57 40
f 40 57 58
f 40 58 42
f 41 42 59
f 41 59 46
f 42 60 61
f 42 61 47
f 42 47 59
f 42 58 60
f 43 54 56
f 43 56 55
f 43 55 44
f 46 59 47
f 47 49 48
f 47 61 49
f 49 61 60
f 49 60 52
f 49 52 51
f 52 58 57
f 52 56 53
f 52 60 58
f 53 56 54

