# https://github.com/mikedh/trimesh

o lower_bill_keyed_backbone_005.obj
v 0.02508489 0.01248845 -0.02630036
v 0.02508489 0.00934722 -0.02630036
v 0.02508489 0.01248845 -0.02985113
v 0.01700000 0.01248845 -0.02630036
v 0.02508489 0.00934673 -0.02985113
v 0.02376880 0.00744798 -0.02630036
v 0.02474696 0.00932650 -0.02986155
v 0.02376880 0.00744798 -0.02989167
v 0.01700000 0.01248845 -0.03009998
v 0.01700000 0.00744798 -0.02630036
v 0.01700000 0.00744798 -0.03009998
f 1 2 5
f 1 5 3
f 1 3 9
f 1 9 4
f 1 4 10
f 1 10 6
f 1 6 2
f 2 6 5
f 3 5 7
f 3 7 8
f 3 8 9
f 4 9 11
f 4 11 10
f 5 6 8
f 5 8 7
f 6 10 11
f 6 11 8
f 8 11 9

