# https://github.com/mikedh/trimesh

o lower_grip_shell_095.obj
v 0.07552156 0.01564159 -0.02728531
v 0.07552156 0.01564159 -0.02852883
v 0.07551781 0.01564159 -0.02727289
v 0.07552156 0.01562842 -0.02727289
v 0.07552156 0.01219318 -0.02852883
v 0.07007394 0.01564159 -0.02852883
v 0.07080297 0.01564159 -0.02727289
v 0.07552156 0.01398338 -0.02727289
v 0.07080938 0.01563923 -0.02727289
v 0.07005790 0.01564125 -0.02852883
v 0.07005897 0.01564159 -0.02852821
f 1 2 6
f 1 6 11
f 1 11 7
f 1 7 3
f 1 3 4
f 1 4 8
f 1 8 5
f 1 5 2
f 2 5 10
f 2 10 6
f 3 7 9
f 3 9 8
f 3 8 4
f 5 8 9
f 5 9 7
f 5 7 10
f 6 10 11
f 7 11 10

