# https://github.com/mikedh/trimesh

o lower_grip_cassette_pad_001.obj
v 0.03580485 -0.00504077 -0.02629986
v 0.03687562 -0.00465916 -0.02439062
v 0.03592728 -0.00429647 -0.02629986
v 0.03592728 -0.00429647 -0.02689986
v 0.03583727 -0.00528443 -0.02689986
v 0.03586927 -0.00552809 -0.02629986
v 0.03692169 -0.00547051 -0.02439062
v 0.03736066 -0.00401112 -0.02439062
v 0.03632786 -0.00358783 -0.02629986
v 0.03695881 -0.00442453 -0.02690997
v 0.03681248 -0.00501112 -0.02690997
v 0.03632786 -0.00358783 -0.02689986
v 0.03695881 -0.00557536 -0.02690997
v 0.03604033 -0.00598920 -0.02689986
v 0.03604033 -0.00598920 -0.02629986
v 0.03633853 -0.00642968 -0.02629986
v 0.03732696 -0.00597674 -0.02439062
v 0.03801081 -0.00381258 -0.02439062
v 0.03729668 -0.00292732 -0.02629986
v 0.03672972 -0.00320966 -0.02629986
v 0.03741228 -0.00396986 -0.02690997
v 0.03672972 -0.00320966 -0.02689986
v 0.03741228 -0.00603003 -0.02690997
v 0.03633853 -0.00642968 -0.02689986
v 0.03672972 -0.00679023 -0.02629986
v 0.03729668 -0.00707257 -0.02629986
v 0.03801081 -0.00618774 -0.02439062
v 0.03870361 -0.00292732 -0.02629986
v 0.03804067 -0.00280528 -0.02629986
v 0.03859482 -0.00396986 -0.02439062
v 0.03729668 -0.00292732 -0.02689986
v 0.03801081 -0.00381258 -0.02690997
v 0.03801081 -0.00618774 -0.02690997
v 0.03729668 -0.00707257 -0.02689986
v 0.03672972 -0.00679023 -0.02689986
v 0.03804067 -0.00719505 -0.02629986
v 0.03870361 -0.00707257 -0.02629986
v 0.03863962 -0.00598877 -0.02439062
v 0.03870361 -0.00292732 -0.02689986
v 0.03927013 -0.00320966 -0.02629986
v 0.03804067 -0.00280528 -0.02689986
v 0.03903038 -0.00441249 -0.02439062
v 0.03967242 -0.00358783 -0.02629986
v 0.03858757 -0.00396986 -0.02690997
v 0.03870361 -0.00707257 -0.02689986
v 0.03804067 -0.00719505 -0.02689986
v 0.03858757 -0.00603003 -0.02690997
v 0.03927013 -0.00679023 -0.02629986
v 0.03906025 -0.00554786 -0.02439062
v 0.03966133 -0.00642968 -0.02629986
v 0.03927013 -0.00320966 -0.02689986
v 0.03918780 -0.00501112 -0.02439062
v 0.04007257 -0.00429647 -0.02629986
v 0.03967242 -0.00358783 -0.02689986
v 0.03904148 -0.00442453 -0.02690997
v 0.03927013 -0.00679023 -0.02689986
v 0.03904148 -0.00557536 -0.02690997
v 0.03966133 -0.00642968 -0.02689986
v 0.03995952 -0.00598920 -0.02629986
v 0.04016301 -0.00528443 -0.02629986
v 0.04007257 -0.00429647 -0.02689986
v 0.03918737 -0.00501112 -0.02690997
v 0.04016301 -0.00528443 -0.02689986
v 0.03995952 -0.00598920 -0.02689986
f 1 2 3
f 1 3 4
f 1 4 5
f 1 5 6
f 1 6 7
f 1 7 2
f 2 8 9
f 2 9 3
f 2 7 17
f 2 17 27
f 2 27 38
f 2 38 49
f 2 49 52
f 2 52 42
f 2 42 30
f 2 30 18
f 2 18 8
f 3 9 12
f 3 12 4
f 4 10 11
f 4 11 5
f 4 12 10
f 5 13 14
f 5 14 6
f 5 11 13
f 6 14 15
f 6 15 7
f 7 15 16
f 7 16 17
f 8 18 19
f 8 19 20
f 8 20 9
f 9 20 22
f 9 22 12
f 10 12 21
f 10 21 32
f 10 32 44
f 10 44 55
f 10 55 62
f 10 62 57
f 10 57 47
f 10 47 33
f 10 33 23
f 10 23 13
f 10 13 11
f 12 22 21
f 13 23 24
f 13 24 14
f 14 24 16
f 14 16 15
f 16 24 35
f 16 35 25
f 16 25 17
f 17 25 26
f 17 26 27
f 18 28 29
f 18 29 19
f 18 30 28
f 19 29 41
f 19 41 31
f 19 31 22
f 19 22 20
f 21 22 31
f 21 31 32
f 23 33 34
f 23 34 35
f 23 35 24
f 25 35 34
f 25 34 26
f 26 34 46
f 26 46 36
f 26 36 27
f 27 36 37
f 27 37 38
f 28 39 41
f 28 41 29
f 28 30 40
f 28 40 51
f 28 51 39
f 30 42 43
f 30 43 40
f 31 41 32
f 32 41 39
f 32 39 44
f 33 45 46
f 33 46 34
f 33 47 45
f 36 46 45
f 36 45 37
f 37 45 56
f 37 56 48
f 37 48 38
f 38 48 50
f 38 50 49
f 39 51 44
f 40 43 54
f 40 54 51
f 42 52 53
f 42 53 43
f 43 53 61
f 43 61 54
f 44 51 54
f 44 54 55
f 45 47 56
f 47 57 58
f 47 58 56
f 48 56 58
f 48 58 50
f 49 50 59
f 49 59 60
f 49 60 52
f 50 58 64
f 50 64 59
f 52 60 53
f 53 60 63
f 53 63 61
f 54 61 55
f 55 61 62
f 57 63 64
f 57 64 58
f 57 62 63
f 59 64 63
f 59 63 60
f 61 63 62

