# https://github.com/mikedh/trimesh

o lower_neck_output_fork_plate_074.obj
v -0.07140397 0.03575000 0.07992216
v -0.07140397 0.03575000 0.07655013
v -0.07229627 0.03575000 0.07856421
v -0.07140397 0.03025000 0.07992216
v -0.07229627 0.03575000 0.07654053
v -0.07140397 0.03025000 0.07655013
v -0.07224097 0.03208369 0.07654086
v -0.07229627 0.03025000 0.07856421
v -0.07229627 0.03025000 0.07654053
f 1 2 5
f 1 5 3
f 1 3 8
f 1 8 4
f 1 4 6
f 1 6 2
f 2 6 7
f 2 7 5
f 3 5 9
f 3 9 8
f 4 8 9
f 4 9 6
f 5 7 9
f 6 9 7

