# https://github.com/mikedh/trimesh

o lower_grip_shell_120.obj
v 0.02481619 0.02586628 -0.02766490
v 0.02678909 0.02570193 -0.02729969
v 0.02744757 0.02572434 -0.02750924
v 0.02652316 0.02580901 -0.02771984
v 0.02810604 0.02574376 -0.02778007
v 0.02361826 0.02349409 -0.02784466
v 0.02381581 0.02585383 -0.02749017
v 0.02437298 0.02582395 -0.02744489
v 0.02759446 0.02563818 -0.02720906
v 0.02824281 0.02562224 -0.02725478
v 0.02889622 0.02564963 -0.02751067
v 0.02964587 0.02563320 -0.02762011
v 0.03012707 0.02561278 -0.02765101
v 0.03313327 0.02544095 -0.02782822
v 0.02361826 0.02231173 -0.02720838
v 0.03971299 0.02487069 -0.02784466
v 0.04949139 0.02152282 -0.02784466
v 0.02957496 0.02554454 -0.02722264
v 0.04167069 0.02458232 -0.02720838
v 0.03231777 0.02543697 -0.02745498
v 0.03160358 0.02549723 -0.02753733
v 0.03378922 0.02532690 -0.02744084
v 0.03527839 0.02526763 -0.02778306
v 0.03912542 0.02492498 -0.02782990
v 0.04941541 0.02077824 -0.02720844
v 0.04949139 0.02165231 -0.02720838
v 0.04110846 0.02472327 -0.02768221
v 0.04123255 0.02472476 -0.02784466
v 0.04287368 0.02456539 -0.02784466
v 0.04556331 0.02428001 -0.02778107
v 0.04925079 0.02378594 -0.02751740
v 0.03503273 0.02519342 -0.02727085
v 0.04116164 0.02463113 -0.02721386
v 0.04767298 0.02396424 -0.02726082
v 0.04305097 0.02445880 -0.02723342
v 0.04194168 0.02456788 -0.02724949
v 0.04063486 0.02468293 -0.02722202
v 0.03307502 0.02537222 -0.02741549
v 0.03450595 0.02527112 -0.02744638
v 0.03564056 0.02516155 -0.02735955
v 0.03665360 0.02507489 -0.02734697
v 0.03651430 0.02515707 -0.02774357
v 0.03738805 0.02507937 -0.02775559
v 0.03921153 0.02490057 -0.02765817
v 0.04182772 0.02466251 -0.02778649
v 0.04187330 0.02463013 -0.02752387
v 0.04355749 0.02449317 -0.02778848
v 0.04409693 0.02442593 -0.02767667
v 0.04625218 0.02416396 -0.02745249
v 0.04731841 0.02405987 -0.02764515
v 0.04806806 0.02395528 -0.02755564
v 0.04857458 0.02387908 -0.02747896
v 0.04012327 0.02473821 -0.02725073
v 0.04558104 0.02421675 -0.02730474
v 0.04364613 0.02440850 -0.02727353
v 0.04087292 0.02471380 -0.02746227
v 0.03868728 0.02490555 -0.02740085
v 0.04482632 0.02432383 -0.02749858
f 1 2 3
f 1 3 4
f 1 4 5
f 1 5 6
f 1 6 7
f 1 7 8
f 1 8 2
f 2 8 9
f 2 9 10
f 2 10 3
f 3 10 11
f 3 11 12
f 3 12 5
f 3 5 4
f 5 12 13
f 5 13 14
f 5 14 6
f 6 15 7
f 6 14 16
f 6 16 28
f 6 28 29
f 6 29 17
f 6 17 15
f 7 15 8
f 8 15 9
f 9 18 10
f 9 15 19
f 9 19 18
f 10 18 11
f 11 18 12
f 12 18 13
f 13 18 20
f 13 20 21
f 13 21 14
f 14 21 20
f 14 20 22
f 14 22 23
f 14 23 24
f 14 24 16
f 15 25 26
f 15 26 19
f 15 17 25
f 16 27 28
f 16 24 27
f 17 29 30
f 17 30 31
f 17 31 26
f 17 26 25
f 18 32 20
f 18 19 33
f 18 33 32
f 19 26 34
f 19 34 35
f 19 35 36
f 19 36 37
f 19 37 33
f 20 32 38
f 20 38 22
f 22 38 32
f 22 32 39
f 22 39 23
f 23 40 41
f 23 41 42
f 23 42 43
f 23 43 24
f 23 39 40
f 24 43 44
f 24 44 27
f 26 31 34
f 27 45 28
f 27 44 46
f 27 46 47
f 27 47 45
f 28 45 29
f 29 45 47
f 29 47 30
f 30 47 48
f 30 48 49
f 30 49 50
f 30 50 31
f 31 50 51
f 31 51 52
f 31 52 34
f 32 41 40
f 32 40 39
f 32 33 37
f 32 37 53
f 32 53 41
f 34 52 51
f 34 51 50
f 34 50 49
f 34 49 54
f 34 54 35
f 35 54 55
f 35 55 46
f 35 46 56
f 35 56 36
f 36 53 37
f 36 56 57
f 36 57 53
f 41 53 57
f 41 57 42
f 42 57 44
f 42 44 43
f 44 56 46
f 44 57 56
f 46 55 54
f 46 54 48
f 46 48 47
f 48 54 58
f 48 58 49
f 49 58 54

