# https://github.com/mikedh/trimesh

o lower_bill_keyed_backbone_031.obj
v -0.00215247 -0.01650000 0.00342790
v -0.00215247 -0.01250000 0.00342790
v 0.00138657 -0.01650000 0.00380534
v -0.00215247 -0.01650000 0.00717884
v 0.00138657 -0.01250000 0.00380534
v -0.00215247 -0.01250000 0.00717884
v 0.00138657 -0.01650000 0.00736955
v -0.00192521 -0.01650000 0.00724851
v 0.00138657 -0.01250000 0.00736955
v -0.00192521 -0.01250000 0.00724851
v 0.00085585 -0.01650000 0.00745077
v -0.00137822 -0.01650000 0.00737194
v 0.00085585 -0.01250000 0.00745077
v -0.00137822 -0.01250000 0.00737194
v 0.00029638 -0.01650000 0.00749377
v -0.00082325 -0.01650000 0.00745435
v 0.00029638 -0.01250000 0.00749377
v -0.00082325 -0.01250000 0.00745435
v -0.00026447 -0.01650000 0.00749536
v -0.00026447 -0.01250000 0.00749536
f 1 2 5
f 1 5 3
f 1 3 7
f 1 7 11
f 1 11 15
f 1 15 19
f 1 19 16
f 1 16 12
f 1 12 8
f 1 8 4
f 1 4 6
f 1 6 2
f 2 6 10
f 2 10 14
f 2 14 18
f 2 18 20
f 2 20 17
f 2 17 13
f 2 13 9
f 2 9 5
f 3 5 9
f 3 9 7
f 4 8 10
f 4 10 6
f 7 9 13
f 7 13 11
f 8 12 14
f 8 14 10
f 11 13 17
f 11 17 15
f 12 16 18
f 12 18 14
f 15 17 20
f 15 20 19
f 16 19 20
f 16 20 18

