# https://github.com/mikedh/trimesh

o lower_grip_backbone_078.obj
v 0.03000167 0.01499922 -0.02788988
v 0.04506807 0.01258861 -0.02788988
v 0.03584502 0.01406515 -0.02891739
v 0.03000167 0.01499922 -0.02891739
v 0.02499579 0.01499922 -0.02788988
v 0.05268394 0.01137002 -0.02788988
v 0.04874320 0.01200081 -0.02891739
v 0.02499579 0.01499922 -0.02891739
v 0.02499579 0.00935024 -0.02788988
v 0.05268394 0.00701467 -0.02788988
v 0.05268394 0.01137002 -0.02891739
v 0.02499579 0.00935024 -0.02891739
v 0.02592271 0.00701467 -0.02788988
v 0.05268394 0.00701467 -0.02891739
v 0.02592271 0.00701467 -0.02891739
f 1 2 3
f 1 3 4
f 1 4 8
f 1 8 5
f 1 5 9
f 1 9 13
f 1 13 10
f 1 10 6
f 1 6 2
f 2 6 3
f 3 6 7
f 3 7 11
f 3 11 14
f 3 14 15
f 3 15 12
f 3 12 8
f 3 8 4
f 5 8 12
f 5 12 9
f 6 10 14
f 6 14 11
f 6 11 7
f 9 12 15
f 9 15 13
f 10 13 15
f 10 15 14

