# https://github.com/mikedh/trimesh

o lower_bill_backbone_shell_056.obj
v 0.02482439 0.02583565 -0.02751321
v 0.02362262 0.02331462 -0.02767928
v 0.02390499 0.02577977 -0.02727999
v 0.02569862 0.02575005 -0.02734157
v 0.02717374 0.02572746 -0.02745242
v 0.02638535 0.02579285 -0.02758481
v 0.02362262 0.02075733 -0.02686767
v 0.02801182 0.02572033 -0.02760586
v 0.04070730 0.02475911 -0.02766101
v 0.02584094 0.02326647 -0.02767936
v 0.04669812 0.02177799 -0.02767928
v 0.02446296 0.02566861 -0.02702079
v 0.02633791 0.02559728 -0.02700347
v 0.02731831 0.02557766 -0.02704566
v 0.02802763 0.02553248 -0.02701547
v 0.03107952 0.02542548 -0.02714292
v 0.02991388 0.02560144 -0.02752418
v 0.04669812 0.01976283 -0.02686767
v 0.04048818 0.02455998 -0.02686767
v 0.02528071 0.02561214 -0.02695190
v 0.03080166 0.02555923 -0.02755477
v 0.03252527 0.02545461 -0.02759839
v 0.03931577 0.02488989 -0.02765330
v 0.03995054 0.02482985 -0.02765386
v 0.04154764 0.02467411 -0.02762120
v 0.04496548 0.02433647 -0.02764798
v 0.03389195 0.02287889 -0.02767936
v 0.03323685 0.02292229 -0.02767936
v 0.02845232 0.02317433 -0.02767936
v 0.04661680 0.02414268 -0.02758250
v 0.03007653 0.02540587 -0.02697359
v 0.03271502 0.02526736 -0.02702476
v 0.03363894 0.02518473 -0.02697208
v 0.03323233 0.02538031 -0.02748770
v 0.04622373 0.02405470 -0.02699814
v 0.04059661 0.02456949 -0.02690684
v 0.03648752 0.02493150 -0.02690772
v 0.04320573 0.02434063 -0.02693418
v 0.03429631 0.02530362 -0.02750813
v 0.03586630 0.02519365 -0.02759569
v 0.03864711 0.02494399 -0.02758520
v 0.04154538 0.02465687 -0.02749644
v 0.04339323 0.02448032 -0.02754309
v 0.04566802 0.02423422 -0.02747483
v 0.03448832 0.02510865 -0.02694332
v 0.03584371 0.02504088 -0.02703454
v 0.04509198 0.02420985 -0.02709103
v 0.04044977 0.02461169 -0.02697081
v 0.03867421 0.02475079 -0.02693275
v 0.03799878 0.02489702 -0.02713990
v 0.04079314 0.02464439 -0.02714372
v 0.04112069 0.02456116 -0.02699663
v 0.03498981 0.02524656 -0.02749907
v 0.03796038 0.02499273 -0.02750638
v 0.03933158 0.02486136 -0.02746919
v 0.04150924 0.02463607 -0.02736859
v 0.04451368 0.02431507 -0.02729724
v 0.04048818 0.02463547 -0.02703899
v 0.03988955 0.02471275 -0.02710224
f 1 2 3
f 1 3 4
f 1 4 5
f 1 5 6
f 1 6 2
f 2 7 3
f 2 6 8
f 2 8 9
f 2 9 10
f 2 10 11
f 2 11 7
f 3 12 4
f 3 7 12
f 4 12 13
f 4 13 14
f 4 14 5
f 5 8 6
f 5 14 15
f 5 15 16
f 5 16 17
f 5 17 8
f 7 18 19
f 7 19 20
f 7 20 12
f 7 11 18
f 8 17 21
f 8 21 22
f 8 22 23
f 8 23 9
f 9 23 24
f 9 24 25
f 9 25 26
f 9 26 11
f 9 11 27
f 9 27 28
f 9 28 29
f 9 29 10
f 10 29 28
f 10 28 27
f 10 27 11
f 11 26 30
f 11 30 18
f 12 20 13
f 13 15 14
f 13 20 15
f 15 20 31
f 15 31 16
f 16 21 17
f 16 31 32
f 16 32 33
f 16 33 34
f 16 34 21
f 18 30 35
f 18 35 19
f 19 36 37
f 19 37 20
f 19 35 38
f 19 38 36
f 20 37 31
f 21 34 22
f 22 34 39
f 22 39 40
f 22 40 23
f 23 41 24
f 23 40 41
f 24 41 25
f 25 42 43
f 25 43 26
f 25 41 42
f 26 44 30
f 26 43 44
f 30 44 35
f 31 45 33
f 31 33 32
f 31 37 45
f 33 45 46
f 33 46 34
f 34 46 39
f 35 44 47
f 35 47 38
f 36 48 49
f 36 49 37
f 36 38 48
f 37 49 48
f 37 48 50
f 37 50 46
f 37 46 45
f 38 47 51
f 38 51 52
f 38 52 48
f 39 46 53
f 39 53 40
f 40 53 54
f 40 54 41
f 41 54 55
f 41 55 42
f 42 56 43
f 42 55 56
f 43 56 57
f 43 57 44
f 44 57 47
f 46 50 53
f 47 57 56
f 47 56 51
f 48 52 58
f 48 58 50
f 50 58 59
f 50 59 51
f 50 51 55
f 50 55 54
f 50 54 53
f 51 56 55
f 51 59 58
f 51 58 52

