# https://github.com/mikedh/trimesh

o lower_grip_backbone_055.obj
v 0.05270000 0.00799947 -0.03100000
v 0.05270897 0.00776268 -0.03058220
v 0.05270050 0.00798939 -0.03058220
v 0.05270099 0.00803497 -0.03058220
v 0.05270972 0.00824594 -0.03100000
v 0.05270972 0.00775260 -0.03100000
v 0.05271296 0.00771669 -0.03058220
v 0.05270972 0.00824473 -0.03058220
v 0.05273217 0.00845006 -0.03058220
v 0.05273690 0.00849120 -0.03100000
v 0.05273690 0.00750774 -0.03100000
v 0.05273740 0.00750653 -0.03058220
v 0.05273865 0.00850129 -0.03058220
v 0.05277755 0.00870863 -0.03058220
v 0.05278279 0.00873364 -0.03100000
v 0.05278279 0.00726490 -0.03100000
v 0.05277930 0.00728385 -0.03058220
v 0.05278803 0.00875341 -0.03058220
v 0.05282917 0.00890791 -0.03058220
v 0.05282942 0.00890791 -0.03100000
v 0.05279052 0.00723464 -0.03058220
v 0.05284688 0.00702689 -0.03100000
v 0.05500150 0.00890791 -0.03058220
v 0.05500150 0.00890791 -0.03100000
v 0.05284563 0.00703174 -0.03058220
v 0.05292843 0.00679494 -0.03100000
v 0.05293117 0.00678809 -0.03058220
v 0.05524764 0.00687925 -0.03058220
v 0.05524764 0.00687925 -0.03100000
v 0.05302693 0.00656864 -0.03100000
v 0.05302269 0.00657873 -0.03058220
v 0.05524764 0.00478767 -0.03058220
v 0.05524764 0.00478807 -0.03100000
v 0.05304514 0.00653355 -0.03058220
v 0.05314214 0.00635041 -0.03100000
v 0.05506484 0.00483688 -0.03058220
v 0.05502719 0.00484737 -0.03100000
v 0.05314613 0.00634436 -0.03058220
v 0.05327356 0.00614105 -0.03100000
v 0.05326783 0.00615033 -0.03058220
v 0.05502170 0.00484899 -0.03058220
v 0.05484240 0.00491151 -0.03058220
v 0.05479402 0.00492886 -0.03100000
v 0.05342020 0.00594298 -0.03100000
v 0.05329800 0.00610797 -0.03058220
v 0.05479277 0.00492926 -0.03058220
v 0.05475237 0.00494661 -0.03058220
v 0.05456784 0.00502688 -0.03100000
v 0.05342718 0.00593451 -0.03058220
v 0.05358105 0.00575621 -0.03100000
v 0.05457183 0.00502567 -0.03058220
v 0.05453392 0.00504503 -0.03058220
v 0.05436260 0.00513539 -0.03058220
v 0.05434988 0.00514266 -0.03100000
v 0.05357806 0.00575944 -0.03058220
v 0.05375586 0.00558154 -0.03100000
v 0.05374289 0.00559405 -0.03058220
v 0.05432344 0.00515879 -0.03058220
v 0.05414090 0.00527416 -0.03100000
v 0.05378529 0.00555573 -0.03058220
v 0.05394289 0.00542059 -0.03100000
v 0.05393417 0.00542745 -0.03058220
v 0.05413990 0.00527456 -0.03058220
v 0.05396833 0.00540083 -0.03058220
f 1 2 3
f 1 3 4
f 1 4 5
f 1 5 10
f 1 10 15
f 1 15 20
f 1 20 24
f 1 24 29
f 1 29 33
f 1 33 37
f 1 37 43
f 1 43 48
f 1 48 54
f 1 54 59
f 1 59 61
f 1 61 56
f 1 56 50
f 1 50 44
f 1 44 39
f 1 39 35
f 1 35 30
f 1 30 26
f 1 26 22
f 1 22 16
f 1 16 11
f 1 11 6
f 1 6 2
f 2 6 7
f 2 7 12
f 2 12 17
f 2 17 21
f 2 21 25
f 2 25 27
f 2 27 31
f 2 31 34
f 2 34 38
f 2 38 40
f 2 40 45
f 2 45 49
f 2 49 55
f 2 55 57
f 2 57 60
f 2 60 62
f 2 62 64
f 2 64 63
f 2 63 58
f 2 58 53
f 2 53 52
f 2 52 51
f 2 51 47
f 2 47 46
f 2 46 42
f 2 42 41
f 2 41 36
f 2 36 32
f 2 32 28
f 2 28 23
f 2 23 19
f 2 19 18
f 2 18 14
f 2 14 13
f 2 13 9
f 2 9 8
f 2 8 4
f 2 4 3
f 4 8 5
f 5 8 9
f 5 9 10
f 6 11 7
f 7 11 12
f 9 13 10
f 10 13 14
f 10 14 15
f 11 16 17
f 11 17 12
f 14 18 15
f 15 18 19
f 15 19 20
f 16 21 17
f 16 22 21
f 19 23 24
f 19 24 20
f 21 22 25
f 22 26 27
f 22 27 25
f 23 28 29
f 23 29 24
f 26 30 27
f 27 30 31
f 28 32 33
f 28 33 29
f 30 34 31
f 30 35 34
f 32 36 37
f 32 37 33
f 34 35 38
f 35 39 40
f 35 40 38
f 36 41 37
f 37 41 42
f 37 42 43
f 39 44 45
f 39 45 40
f 42 46 43
f 43 46 47
f 43 47 48
f 44 49 45
f 44 50 49
f 47 51 48
f 48 51 52
f 48 52 53
f 48 53 54
f 49 50 55
f 50 56 57
f 50 57 55
f 53 58 54
f 54 58 59
f 56 60 57
f 56 61 62
f 56 62 60
f 58 63 59
f 59 63 64
f 59 64 61
f 61 64 62

