# https://github.com/mikedh/trimesh

o lower_neck_idler_fork_plate_086.obj
v -0.02567902 -0.04063099 0.01569805
v -0.02966890 -0.04063099 0.02138041
v -0.02584079 -0.03732513 0.01592780
v -0.02567902 -0.03732513 0.01569805
v -0.01542192 -0.04063099 0.01569805
v -0.02966890 -0.03732513 0.02138041
v -0.01542192 -0.04063099 0.02138041
v -0.01542192 -0.03732513 0.01569805
v -0.01542192 -0.03732513 0.02138041
f 1 2 3
f 1 3 4
f 1 4 8
f 1 8 5
f 1 5 7
f 1 7 2
f 2 6 3
f 2 7 9
f 2 9 6
f 3 6 9
f 3 9 8
f 3 8 4
f 5 8 9
f 5 9 7

