# https://github.com/mikedh/trimesh

o lower_neck_bridge_001.obj
v -0.03198385 -0.02627069 0.04661721
v -0.03198385 -0.02627069 0.04906095
v -0.03198385 -0.01800880 0.04661721
v -0.02713282 -0.01800880 0.05002226
v -0.02511195 -0.02627069 0.05144082
v -0.02626164 -0.02627069 0.05307821
v -0.03164412 -0.01800880 0.04930001
v -0.03198385 -0.01800880 0.04906095
v -0.02511195 -0.01800880 0.05144082
v -0.02620782 -0.02627069 0.05300168
v -0.02626164 -0.01800880 0.05307821
v -0.02598447 -0.01800880 0.05268356
f 1 2 8
f 1 8 3
f 1 3 4
f 1 4 5
f 1 5 10
f 1 10 6
f 1 6 2
f 2 6 7
f 2 7 8
f 3 8 7
f 3 7 11
f 3 11 12
f 3 12 9
f 3 9 4
f 4 9 5
f 5 9 10
f 6 10 11
f 6 11 7
f 9 12 10
f 10 12 11

