# https://github.com/mikedh/trimesh

o lower_neck_stationary_idler_spider_019.obj
v 0.01585094 -0.02925039 0.04797974
v 0.01585094 -0.03125000 0.04797974
v 0.01182449 -0.02925039 0.04797974
v 0.01518002 -0.02925039 0.04867890
v 0.01503306 -0.02925059 0.04915528
v 0.01503306 -0.03125000 0.04915528
v 0.01182449 -0.03125000 0.04797974
v 0.01118871 -0.02925059 0.04915528
v 0.01176105 -0.02925039 0.04819308
v 0.01166474 -0.02925039 0.04867890
v 0.01118871 -0.03125000 0.04915528
f 1 2 7
f 1 7 3
f 1 3 9
f 1 9 10
f 1 10 4
f 1 4 5
f 1 5 6
f 1 6 2
f 2 6 11
f 2 11 7
f 3 7 11
f 3 11 8
f 3 8 9
f 4 10 8
f 4 8 5
f 5 8 11
f 5 11 6
f 8 10 9

