# https://github.com/mikedh/trimesh

o lower_bill_backbone_shell_003.obj
v 0.07599458 0.01156900 -0.02686759
v 0.07599458 0.01208051 -0.02686759
v 0.08622718 0.01167364 -0.02686759
v 0.08630303 0.01161005 -0.02610314
v 0.07943533 0.01156900 -0.02450042
v 0.01674344 0.01156900 -0.02408919
v 0.01586084 0.01170749 -0.02627498
v 0.07875959 0.01208051 -0.02456633
v 0.08540664 0.01207100 -0.02681830
v 0.04551055 0.01208051 -0.02628642
v 0.08575141 0.01187948 -0.02614671
v 0.08539975 0.01197101 -0.02580057
v 0.08594448 0.01162302 -0.02558624
v 0.07800800 0.01204511 -0.02451840
v 0.07889060 0.01165021 -0.02448871
v 0.07713920 0.01156900 -0.02440402
v 0.08184178 0.01163369 -0.02467282
v 0.07977320 0.01205378 -0.02462107
v 0.01881892 0.01156900 -0.02408702
v 0.01770188 0.01168456 -0.02409083
v 0.01586084 0.01165667 -0.02409273
v 0.04551055 0.01208051 -0.02411833
v 0.08141427 0.01202218 -0.02474444
v 0.07571188 0.01208051 -0.02442880
v 0.08464816 0.01191744 -0.02527278
v 0.08546870 0.01165522 -0.02534767
v 0.08196590 0.01200571 -0.02479673
v 0.07678754 0.01196620 -0.02445168
v 0.07599458 0.01156900 -0.02436725
v 0.08352423 0.01171245 -0.02489341
v 0.08261405 0.01184989 -0.02482342
v 0.08071096 0.01188584 -0.02464994
v 0.02047378 0.01156900 -0.02408647
v 0.02534875 0.01156900 -0.02408538
v 0.02701051 0.01168456 -0.02408892
v 0.04659311 0.01208051 -0.02411888
v 0.03625708 0.01180007 -0.02409736
v 0.07109204 0.01208051 -0.02430570
v 0.07416733 0.01187728 -0.02435554
v 0.08401379 0.01183517 -0.02504265
v 0.07471896 0.01156900 -0.02433294
v 0.02924458 0.01156900 -0.02408674
v 0.05150255 0.01208051 -0.02412896
v 0.04572430 0.01168456 -0.02410417
v 0.03553997 0.01156900 -0.02409083
v 0.06899587 0.01208051 -0.02427057
v 0.07316062 0.01156900 -0.02429699
v 0.05243341 0.01156900 -0.02411479
v 0.05252994 0.01208051 -0.02413168
v 0.05150255 0.01156900 -0.02411289
v 0.06887865 0.01156900 -0.02422727
v 0.06820981 0.01208051 -0.02425886
v 0.05687397 0.01156900 -0.02412732
v 0.05404001 0.01208051 -0.02413658
v 0.06091461 0.01156900 -0.02414884
v 0.06199716 0.01183963 -0.02417144
v 0.05929421 0.01208051 -0.02416273
v 0.05592932 0.01208051 -0.02414421
v 0.05850815 0.01156900 -0.02413467
v 0.05868053 0.01202308 -0.02415592
v 0.06023887 0.01156900 -0.02414475
v 0.05756350 0.01208051 -0.02415238
v 0.05683949 0.01208051 -0.02414856
f 1 2 3
f 1 3 4
f 1 4 5
f 1 5 16
f 1 16 29
f 1 29 41
f 1 41 47
f 1 47 51
f 1 51 55
f 1 55 61
f 1 61 59
f 1 59 53
f 1 53 48
f 1 48 50
f 1 50 45
f 1 45 42
f 1 42 34
f 1 34 33
f 1 33 19
f 1 19 6
f 1 6 7
f 1 7 2
f 2 8 9
f 2 9 3
f 2 7 10
f 2 10 22
f 2 22 36
f 2 36 43
f 2 43 49
f 2 49 54
f 2 54 58
f 2 58 63
f 2 63 62
f 2 62 57
f 2 57 52
f 2 52 46
f 2 46 38
f 2 38 24
f 2 24 8
f 3 9 4
f 4 9 11
f 4 11 12
f 4 12 13
f 4 13 5
f 5 8 14
f 5 14 15
f 5 15 16
f 5 13 17
f 5 17 18
f 5 18 8
f 6 19 20
f 6 20 21
f 6 21 7
f 7 21 20
f 7 20 22
f 7 22 10
f 8 18 23
f 8 23 9
f 8 24 14
f 9 23 12
f 9 12 11
f 12 25 26
f 12 26 13
f 12 23 27
f 12 27 25
f 13 26 17
f 14 28 15
f 14 24 28
f 15 28 16
f 16 28 24
f 16 24 29
f 17 26 30
f 17 30 31
f 17 31 27
f 17 27 23
f 17 23 32
f 17 32 18
f 18 32 23
f 19 33 20
f 20 33 34
f 20 34 35
f 20 35 22
f 22 35 37
f 22 37 36
f 24 38 39
f 24 39 29
f 25 27 40
f 25 40 26
f 26 40 30
f 27 31 30
f 27 30 40
f 29 39 41
f 34 42 35
f 35 42 37
f 36 37 44
f 36 44 43
f 37 42 45
f 37 45 44
f 38 46 47
f 38 47 41
f 38 41 39
f 43 44 48
f 43 48 49
f 44 45 50
f 44 50 48
f 46 51 47
f 46 52 51
f 48 53 49
f 49 53 54
f 51 52 56
f 51 56 55
f 52 57 56
f 53 58 54
f 53 59 58
f 55 56 57
f 55 57 60
f 55 60 61
f 57 62 60
f 58 59 63
f 59 61 60
f 59 60 62
f 59 62 63

