# https://github.com/mikedh/trimesh

o lower_bill_backbone_shell_081.obj
v 0.04286467 0.02457799 -0.02888374
v 0.04341276 0.02452295 -0.02904208
v 0.04284013 0.02251295 -0.02917006
v 0.04284013 0.02237909 -0.02767983
v 0.04344344 0.02450418 -0.02781234
v 0.04384837 0.02447707 -0.02823290
v 0.04538016 0.02431652 -0.02856241
v 0.04429625 0.02442995 -0.02904923
v 0.04590985 0.02425147 -0.02910045
v 0.04714714 0.02410176 -0.02915459
v 0.04704693 0.02184949 -0.02917020
v 0.05567733 0.02031780 -0.02895817
v 0.04840080 0.02393663 -0.02916436
v 0.05577141 0.02031864 -0.02768013
v 0.05837279 0.02031780 -0.02767940
v 0.06070423 0.02126108 -0.02767954
v 0.05641562 0.02243497 -0.02768844
v 0.04416536 0.02442703 -0.02772668
v 0.04469096 0.02438825 -0.02819671
v 0.04583418 0.02425939 -0.02804130
v 0.04647226 0.02419059 -0.02874424
v 0.04493024 0.02436281 -0.02900078
v 0.04775863 0.02402879 -0.02883690
v 0.05784106 0.02205507 -0.02904631
v 0.06220739 0.02078569 -0.02886682
v 0.06315223 0.02048794 -0.02878291
v 0.06373305 0.02031780 -0.02827055
v 0.04892640 0.02386865 -0.02891891
v 0.04985283 0.02373146 -0.02893818
v 0.05076087 0.02358717 -0.02889804
v 0.05190000 0.02339243 -0.02885733
v 0.05285711 0.02321436 -0.02886638
v 0.05385104 0.02301545 -0.02889206
v 0.05583889 0.02256633 -0.02902529
v 0.06372896 0.02031780 -0.02767954
v 0.06287410 0.02059261 -0.02779322
v 0.06211945 0.02083114 -0.02792105
v 0.06140161 0.02105258 -0.02792456
v 0.06006411 0.02145249 -0.02800321
v 0.05919084 0.02170228 -0.02773266
v 0.05711914 0.02226024 -0.02769019
v 0.05675511 0.02235782 -0.02815819
v 0.05563643 0.02262429 -0.02778257
v 0.05475498 0.02282446 -0.02784765
v 0.05200225 0.02337408 -0.02787567
v 0.04773205 0.02402128 -0.02779993
v 0.04663996 0.02416098 -0.02787319
v 0.04899798 0.02385448 -0.02790661
v 0.05658741 0.02239368 -0.02879692
v 0.05784924 0.02207425 -0.02836132
v 0.05872455 0.02182446 -0.02889265
v 0.06008660 0.02143414 -0.02887470
v 0.06161431 0.02097418 -0.02882245
v 0.06107439 0.02114765 -0.02861071
v 0.04974444 0.02374855 -0.02804393
v 0.05039070 0.02364722 -0.02798205
v 0.05122306 0.02351294 -0.02818095
v 0.05276508 0.02323480 -0.02796191
v 0.05336635 0.02311720 -0.02803940
v 0.05476930 0.02282196 -0.02874657
v 0.05587571 0.02257217 -0.02833476
v 0.05927674 0.02167184 -0.02879925
v 0.05868570 0.02184615 -0.02805093
v 0.05787992 0.02206341 -0.02779643
f 1 2 3
f 1 3 4
f 1 4 5
f 1 5 6
f 1 6 2
f 2 6 7
f 2 7 8
f 2 8 9
f 2 9 10
f 2 10 3
f 3 11 12
f 3 12 4
f 3 10 13
f 3 13 11
f 4 12 14
f 4 14 15
f 4 15 16
f 4 16 17
f 4 17 18
f 4 18 5
f 5 18 6
f 6 18 19
f 6 19 7
f 7 20 21
f 7 21 9
f 7 9 22
f 7 22 8
f 7 19 20
f 8 22 9
f 9 21 10
f 10 23 13
f 10 21 23
f 11 13 24
f 11 24 12
f 12 24 25
f 12 25 26
f 12 26 27
f 12 27 35
f 12 35 15
f 12 15 14
f 13 23 28
f 13 28 29
f 13 29 30
f 13 30 31
f 13 31 32
f 13 32 33
f 13 33 34
f 13 34 24
f 15 35 16
f 16 35 36
f 16 36 37
f 16 37 38
f 16 38 39
f 16 39 40
f 16 40 41
f 16 41 17
f 17 41 42
f 17 42 43
f 17 43 44
f 17 44 45
f 17 45 46
f 17 46 18
f 18 46 47
f 18 47 20
f 18 20 19
f 20 47 21
f 21 47 23
f 23 47 46
f 23 46 48
f 23 48 28
f 24 34 49
f 24 49 50
f 24 50 51
f 24 51 52
f 24 52 25
f 25 52 53
f 25 53 27
f 25 27 26
f 27 53 54
f 27 54 37
f 27 37 36
f 27 36 35
f 28 48 55
f 28 55 29
f 29 55 56
f 29 56 30
f 30 56 57
f 30 57 31
f 31 57 45
f 31 45 58
f 31 58 32
f 32 58 59
f 32 59 33
f 33 60 34
f 33 59 60
f 34 60 61
f 34 61 49
f 37 54 38
f 38 54 39
f 39 52 62
f 39 62 63
f 39 63 40
f 39 54 52
f 40 63 64
f 40 64 41
f 41 64 42
f 42 64 50
f 42 50 49
f 42 49 61
f 42 61 43
f 43 61 44
f 44 61 60
f 44 60 59
f 44 59 58
f 44 58 45
f 45 57 56
f 45 56 48
f 45 48 46
f 48 56 55
f 50 64 63
f 50 63 51
f 51 63 62
f 51 62 52
f 52 54 53

