# https://github.com/mikedh/trimesh

o neck_yaw_to_pitch_front_cradle_011.obj
v -0.02997902 0.02525000 0.06601424
v -0.02997790 0.02525000 0.06712432
v -0.02997902 0.02925000 0.06601424
v -0.02100012 0.02525000 0.06601424
v -0.02989471 0.02525000 0.06824312
v -0.02992281 0.02791641 0.06786986
v -0.02997790 0.02925000 0.06712432
v -0.02100012 0.02925000 0.06601424
v -0.01849430 0.02525000 0.07591769
v -0.02981039 0.02525000 0.06936095
v -0.02989471 0.02925000 0.06824312
v -0.01849430 0.02925000 0.07591769
v -0.02831185 0.02525000 0.07591769
v -0.02947651 0.02525000 0.07157820
v -0.02958780 0.02791641 0.07084041
v -0.02981039 0.02925000 0.06936095
v -0.02831185 0.02925000 0.07591769
v -0.02831522 0.02525000 0.07590896
v -0.02922694 0.02525000 0.07267180
v -0.02947651 0.02925000 0.07157820
v -0.02831522 0.02925000 0.07590896
v -0.02864573 0.02525000 0.07483766
v -0.02897625 0.02525000 0.07376539
v -0.02914375 0.02658360 0.07303633
v -0.02922694 0.02925000 0.07267180
v -0.02864573 0.02925000 0.07483766
v -0.02897625 0.02925000 0.07376539
f 1 2 7
f 1 7 3
f 1 3 8
f 1 8 4
f 1 4 9
f 1 9 13
f 1 13 18
f 1 18 22
f 1 22 23
f 1 23 19
f 1 19 14
f 1 14 10
f 1 10 5
f 1 5 2
f 2 5 6
f 2 6 7
f 3 7 11
f 3 11 16
f 3 16 20
f 3 20 25
f 3 25 27
f 3 27 26
f 3 26 21
f 3 21 17
f 3 17 12
f 3 12 8
f 4 8 12
f 4 12 9
f 5 10 16
f 5 16 11
f 5 11 6
f 6 11 7
f 9 12 17
f 9 17 13
f 10 14 15
f 10 15 16
f 13 17 21
f 13 21 18
f 14 19 24
f 14 24 25
f 14 25 20
f 14 20 15
f 15 20 16
f 18 21 26
f 18 26 22
f 19 23 24
f 22 26 27
f 22 27 23
f 23 27 24
f 24 27 25

