# https://github.com/mikedh/trimesh

o neck_yaw_output_adapter_047.obj
v 0.00593063 0.00536469 0.02043382
v 0.00779636 0.00179295 0.02043382
v 0.00593063 0.00536469 0.02142001
v 0.00593063 0.02117104 0.02043382
v 0.01051087 0.00179295 0.02043382
v 0.00779636 0.00179295 0.02142001
v 0.00593063 0.02117104 0.02142001
v 0.00624047 0.02108758 0.02142001
v 0.00633194 0.02106292 0.02043382
v 0.01051087 0.00179295 0.02142001
v 0.01051087 0.01931024 0.02043382
v 0.00648484 0.02102119 0.02142001
v 0.00648484 0.02102119 0.02043382
v 0.01051087 0.01931024 0.02142001
v 0.00954506 0.01982049 0.02043382
v 0.00976880 0.01970289 0.02142001
v 0.01029610 0.01942405 0.02142001
v 0.00649874 0.02101740 0.02142001
v 0.00654044 0.02100222 0.02043382
v 0.00952533 0.01982998 0.02043382
v 0.00954506 0.01982049 0.02142001
v 0.00670499 0.02094532 0.02142001
v 0.00777842 0.02056974 0.02043382
v 0.00930696 0.01992482 0.02142001
v 0.00803759 0.02047869 0.02043382
v 0.00805104 0.02047300 0.02142001
v 0.00884692 0.02012588 0.02142001
v 0.00795643 0.02050715 0.02142001
v 0.00801696 0.02048628 0.02043382
v 0.00803759 0.02047869 0.02142001
f 1 2 6
f 1 6 3
f 1 3 7
f 1 7 4
f 1 4 9
f 1 9 13
f 1 13 19
f 1 19 23
f 1 23 29
f 1 29 25
f 1 25 20
f 1 20 15
f 1 15 11
f 1 11 5
f 1 5 2
f 2 5 10
f 2 10 6
f 3 6 10
f 3 10 14
f 3 14 17
f 3 17 16
f 3 16 21
f 3 21 24
f 3 24 27
f 3 27 26
f 3 26 30
f 3 30 28
f 3 28 22
f 3 22 18
f 3 18 12
f 3 12 8
f 3 8 7
f 4 7 8
f 4 8 9
f 5 11 14
f 5 14 10
f 8 12 9
f 9 12 18
f 9 18 13
f 11 15 16
f 11 16 17
f 11 17 14
f 13 18 19
f 15 20 21
f 15 21 16
f 18 22 23
f 18 23 19
f 20 24 21
f 20 25 26
f 20 26 27
f 20 27 24
f 22 28 29
f 22 29 23
f 25 29 30
f 25 30 26
f 28 30 29

