# https://github.com/mikedh/trimesh

o neck_yaw_to_pitch_front_cradle_055.obj
v 0.01091082 0.00179750 0.02410054
v 0.01091082 0.00421693 0.02410054
v 0.01358370 0.00179750 0.02410054
v 0.01091082 0.00179750 0.02959947
v 0.01091082 0.00421754 0.02410862
v 0.01358370 0.00489758 0.02410054
v 0.01358370 0.00179750 0.02959947
v 0.01091082 0.00421693 0.02959947
v 0.01091082 0.00421754 0.02958278
v 0.01358370 0.00489758 0.02959947
f 1 2 6
f 1 6 3
f 1 3 7
f 1 7 4
f 1 4 8
f 1 8 9
f 1 9 5
f 1 5 2
f 2 5 6
f 3 6 10
f 3 10 7
f 4 7 10
f 4 10 8
f 5 9 10
f 5 10 6
f 8 10 9

