# https://github.com/mikedh/trimesh

o right_foot_rear_saddle_030.obj
v -0.02675867 -0.01543562 0.00416951
v -0.02675867 -0.00853940 0.00416951
v -0.02625005 -0.01543562 0.00416951
v -0.02675867 -0.01534632 0.00450268
v -0.02674996 -0.00699000 0.00416951
v -0.02675867 -0.00699000 0.00643965
v -0.02625005 -0.00699000 0.00416951
v -0.02625005 -0.01528845 0.00471679
v -0.02675867 -0.01530333 0.00466276
v -0.02675867 -0.00699000 0.01439064
v -0.02625005 -0.00699000 0.01439064
v -0.02625005 -0.01489325 0.00584635
v -0.02675867 -0.01493045 0.00574130
v -0.02675867 -0.01496683 0.00563725
v -0.02675867 -0.01528845 0.00471679
v -0.02675867 -0.00800033 0.01385638
v -0.02625005 -0.00800033 0.01385638
v -0.02625005 -0.01441536 0.00694290
v -0.02675867 -0.01487175 0.00589638
v -0.02675867 -0.01489325 0.00584635
v -0.02675867 -0.00891972 0.01327808
v -0.02625005 -0.00901314 0.01321906
v -0.02675867 -0.01441536 0.00694290
v -0.02625005 -0.01413591 0.00747117
v -0.02675867 -0.01416154 0.00742314
v -0.02675867 -0.00901314 0.01321906
v -0.02675867 -0.00910244 0.01315402
v -0.02625005 -0.00949516 0.01286388
v -0.02625005 -0.01385563 0.00800043
v -0.02675867 -0.01388209 0.00795141
v -0.02675867 -0.00988706 0.01257473
v -0.02625005 -0.00997635 0.01250870
v -0.02675867 -0.01382669 0.00804746
v -0.02675867 -0.01385563 0.00800043
v -0.02625005 -0.01321900 0.00901394
v -0.02675867 -0.00997635 0.01250870
v -0.02675867 -0.01038809 0.01215452
v -0.02625005 -0.01088333 0.01172831
v -0.02675867 -0.01327853 0.00891990
v -0.02625005 -0.01286431 0.00949418
v -0.02675867 -0.01315369 0.00910299
v -0.02675867 -0.01321900 0.00901394
v -0.02675867 -0.01088333 0.01172831
v -0.02675867 -0.01157205 0.01103896
v -0.02625005 -0.01172831 0.01088188
v -0.02625005 -0.01250879 0.00997543
v -0.02675867 -0.01257494 0.00988638
v -0.02675867 -0.01164976 0.01096092
v -0.02675867 -0.01172831 0.01088188
v -0.02675867 -0.01180024 0.01079884
v -0.02675867 -0.01236493 0.01014351
v -0.02675867 -0.01250879 0.00997543
f 1 2 5
f 1 5 7
f 1 7 3
f 1 3 4
f 1 4 9
f 1 9 15
f 1 15 14
f 1 14 13
f 1 13 20
f 1 20 19
f 1 19 23
f 1 23 25
f 1 25 30
f 1 30 34
f 1 34 33
f 1 33 39
f 1 39 42
f 1 42 41
f 1 41 47
f 1 47 52
f 1 52 51
f 1 51 50
f 1 50 49
f 1 49 48
f 1 48 44
f 1 44 43
f 1 43 37
f 1 37 36
f 1 36 31
f 1 31 27
f 1 27 26
f 1 26 21
f 1 21 16
f 1 16 10
f 1 10 6
f 1 6 2
f 2 6 5
f 3 7 11
f 3 11 17
f 3 17 22
f 3 22 28
f 3 28 32
f 3 32 38
f 3 38 45
f 3 45 46
f 3 46 40
f 3 40 35
f 3 35 29
f 3 29 24
f 3 24 18
f 3 18 12
f 3 12 8
f 3 8 9
f 3 9 4
f 5 6 10
f 5 10 11
f 5 11 7
f 8 12 13
f 8 13 14
f 8 14 15
f 8 15 9
f 10 16 17
f 10 17 11
f 12 18 19
f 12 19 20
f 12 20 13
f 16 21 17
f 17 21 22
f 18 23 19
f 18 24 30
f 18 30 25
f 18 25 23
f 21 26 22
f 22 26 27
f 22 27 28
f 24 29 30
f 27 31 32
f 27 32 28
f 29 33 34
f 29 34 30
f 29 35 33
f 31 36 32
f 32 36 37
f 32 37 38
f 33 35 39
f 35 40 41
f 35 41 42
f 35 42 39
f 37 43 38
f 38 43 44
f 38 44 45
f 40 46 41
f 41 46 47
f 44 48 45
f 45 48 49
f 45 49 50
f 45 50 51
f 45 51 46
f 46 51 52
f 46 52 47

