# https://github.com/mikedh/trimesh

o right_shin_output_adapter_015.obj
v -0.01104442 -0.03675000 0.00178365
v -0.00998278 -0.03675000 0.00016451
v -0.00376055 -0.03675000 0.00178365
v -0.01104442 -0.02625097 0.00178365
v -0.00399512 -0.03675000 0.00016451
v -0.00998278 -0.02625097 0.00016451
v -0.00376055 -0.03675000 0.00136223
v -0.00376055 -0.02624480 0.00178365
v -0.00878924 -0.02624480 0.00178365
v -0.00887979 -0.02624480 0.00133481
v -0.00896820 -0.02624480 0.00045122
v -0.00896820 -0.02624480 0.00016451
v -0.00399512 -0.02624480 0.00016451
v -0.00376055 -0.02624480 0.00136223
f 1 2 5
f 1 5 7
f 1 7 3
f 1 3 8
f 1 8 9
f 1 9 4
f 1 4 6
f 1 6 2
f 2 6 12
f 2 12 13
f 2 13 5
f 3 7 14
f 3 14 8
f 4 9 10
f 4 10 11
f 4 11 12
f 4 12 6
f 5 13 14
f 5 14 7
f 8 14 13
f 8 13 12
f 8 12 11
f 8 11 10
f 8 10 9

