# https://github.com/mikedh/trimesh

o right_ankle_tapped_load_plate_071.obj
v 0.03636587 -0.02892335 -0.03154098
v 0.03707881 -0.03124692 -0.03154098
v 0.03636587 -0.02892335 -0.03250000
v 0.03443055 -0.02892335 -0.03154098
v 0.03707881 -0.03127527 -0.03154098
v 0.03707881 -0.03124692 -0.03250000
v 0.03443055 -0.02892335 -0.03250000
v 0.03443055 -0.03127780 -0.03154098
v 0.03705678 -0.03127780 -0.03154098
v 0.03707881 -0.03127780 -0.03157806
v 0.03707881 -0.03127780 -0.03250000
v 0.03443055 -0.03127780 -0.03250000
f 1 2 6
f 1 6 3
f 1 3 7
f 1 7 4
f 1 4 8
f 1 8 9
f 1 9 5
f 1 5 2
f 2 5 10
f 2 10 11
f 2 11 6
f 3 6 11
f 3 11 12
f 3 12 7
f 4 7 12
f 4 12 8
f 5 9 10
f 8 12 11
f 8 11 10
f 8 10 9

