# https://github.com/mikedh/trimesh

o right_hip_roll_carrier_arm_052.obj
v 0.03320550 -0.03625000 -0.00854261
v 0.03320550 -0.03478137 -0.00854261
v 0.03424127 -0.03625000 -0.00854261
v 0.03320550 -0.03625000 0.00300000
v 0.03424127 -0.03478137 -0.00854261
v 0.03320550 -0.03242159 -0.00763082
v 0.03452620 -0.03408621 -0.00763533
v 0.03424127 -0.03625000 0.00300000
v 0.03320550 -0.03242159 0.00300000
v 0.03424127 -0.03242159 -0.00763082
v 0.03452620 -0.03243133 -0.00762404
v 0.03452620 -0.03408621 0.00300000
v 0.03424127 -0.03242159 0.00300000
v 0.03452620 -0.03243133 0.00300000
f 1 2 5
f 1 5 3
f 1 3 8
f 1 8 4
f 1 4 9
f 1 9 6
f 1 6 2
f 2 6 10
f 2 10 5
f 3 5 7
f 3 7 12
f 3 12 8
f 4 8 12
f 4 12 14
f 4 14 13
f 4 13 9
f 5 10 11
f 5 11 7
f 6 9 13
f 6 13 10
f 7 11 14
f 7 14 12
f 10 13 14
f 10 14 11

