# https://github.com/mikedh/trimesh

o right_shin_idler_fork_plate_013.obj
v -0.00487402 0.04742227 -0.01048025
v -0.00528620 0.04742227 -0.01048025
v -0.00487402 0.04674333 -0.01048025
v -0.00487402 0.04742227 -0.01235877
v -0.00528620 0.04674333 -0.01048025
v -0.00620951 0.04742227 -0.01184827
v -0.00487402 0.04674333 -0.01235877
v -0.00620951 0.04742227 -0.01235877
v -0.00620951 0.04674333 -0.01184827
v -0.00620951 0.04674333 -0.01235877
f 1 2 5
f 1 5 3
f 1 3 7
f 1 7 4
f 1 4 8
f 1 8 6
f 1 6 2
f 2 6 9
f 2 9 5
f 3 5 9
f 3 9 10
f 3 10 7
f 4 7 10
f 4 10 8
f 6 8 10
f 6 10 9

