# https://github.com/mikedh/trimesh

o right_thigh_idler_fork_plate_064.obj
v -0.03560302 0.03978876 -0.05936381
v -0.03560302 0.03978876 -0.05985679
v -0.03769695 0.03978876 -0.05936381
v -0.03560302 0.03705278 -0.05936381
v -0.03594172 0.03978876 -0.06160117
v -0.03560302 0.03705278 -0.05985679
v -0.03772689 0.03978876 -0.05936863
v -0.03772689 0.03973814 -0.05936381
v -0.03772689 0.03705278 -0.05936381
v -0.03772689 0.03978876 -0.06160117
v -0.03594172 0.03705278 -0.06160117
v -0.03772689 0.03705278 -0.06160117
f 1 2 5
f 1 5 10
f 1 10 7
f 1 7 3
f 1 3 8
f 1 8 9
f 1 9 4
f 1 4 6
f 1 6 2
f 2 6 11
f 2 11 5
f 3 7 8
f 4 9 12
f 4 12 11
f 4 11 6
f 5 11 12
f 5 12 10
f 7 10 12
f 7 12 9
f 7 9 8

