# https://github.com/mikedh/trimesh

o right_foot_upper_aft_092.obj
v -0.05068755 -0.01639901 -0.01642106
v -0.05068755 -0.02062607 -0.01569849
v -0.05068755 -0.01639901 -0.01690092
v -0.05161260 -0.01639901 -0.01642094
v -0.05068755 -0.02934914 -0.01569849
v -0.05308081 -0.01639901 -0.01642094
v -0.07958768 -0.02086827 -0.01569849
v -0.05068755 -0.02542675 -0.01690092
v -0.07958768 -0.01639901 -0.01690092
v -0.05068755 -0.02915156 -0.01576864
v -0.05518551 -0.02941416 -0.01569849
v -0.07305573 -0.01639901 -0.01645060
v -0.07958768 -0.01639901 -0.01646955
v -0.07958768 -0.02899349 -0.01569849
v -0.05068755 -0.02554786 -0.01687009
v -0.05448112 -0.02549941 -0.01690092
v -0.07958768 -0.02524829 -0.01690092
v -0.05108360 -0.02906232 -0.01580183
v -0.05068755 -0.02867480 -0.01592318
v -0.05861698 -0.02942053 -0.01569849
v -0.05308081 -0.02860724 -0.01597026
v -0.07804875 -0.02905850 -0.01569849
v -0.07958768 -0.02890043 -0.01573427
v -0.05068755 -0.02593028 -0.01676180
v -0.05108360 -0.02564473 -0.01684619
v -0.05308081 -0.02613296 -0.01672531
v -0.06107247 -0.02593793 -0.01679535
v -0.06009367 -0.02554276 -0.01690092
v -0.07958768 -0.02547009 -0.01684031
v -0.07905302 -0.02526741 -0.01690092
v -0.05068755 -0.02770090 -0.01623803
v -0.05108360 -0.02785004 -0.01619401
v -0.06107247 -0.02827708 -0.01608690
v -0.06356757 -0.02936571 -0.01569849
v -0.06506689 -0.02870412 -0.01592695
v -0.06306968 -0.02849124 -0.01600687
v -0.05907526 -0.02788829 -0.01621308
v -0.05507801 -0.02805273 -0.01615482
v -0.07635141 -0.02910567 -0.01569849
v -0.07958768 -0.02871814 -0.01580360
v -0.05068755 -0.02670787 -0.01654111
v -0.05507801 -0.02681623 -0.01653228
v -0.05907526 -0.02671807 -0.01656736
v -0.06506689 -0.02633437 -0.01667141
v -0.07105852 -0.02583977 -0.01678970
v -0.07305573 -0.02546245 -0.01688845
v -0.07326224 -0.02541401 -0.01690092
v -0.06180233 -0.02553128 -0.01690092
v -0.07958768 -0.02637516 -0.01657830
v -0.05707522 -0.02749821 -0.01633925
v -0.07305573 -0.02828601 -0.01601911
v -0.07705298 -0.02698449 -0.01641246
v -0.06906131 -0.02621709 -0.01669083
v -0.06834560 -0.02928668 -0.01569849
v -0.06906131 -0.02893485 -0.01582443
v -0.07003728 -0.02925354 -0.01569849
v -0.07958768 -0.02829875 -0.01594672
v -0.07958768 -0.02724326 -0.01629641
v -0.07958768 -0.02787809 -0.01608985
v -0.07905019 -0.02768942 -0.01615811
f 1 2 5
f 1 5 10
f 1 10 19
f 1 19 31
f 1 31 41
f 1 41 24
f 1 24 15
f 1 15 8
f 1 8 3
f 1 3 9
f 1 9 13
f 1 13 12
f 1 12 6
f 1 6 4
f 1 4 2
f 2 4 6
f 2 6 7
f 2 7 14
f 2 14 22
f 2 22 39
f 2 39 56
f 2 56 54
f 2 54 34
f 2 34 20
f 2 20 11
f 2 11 5
f 3 8 16
f 3 16 28
f 3 28 48
f 3 48 47
f 3 47 30
f 3 30 17
f 3 17 9
f 5 11 10
f 6 12 7
f 7 12 13
f 7 13 9
f 7 9 17
f 7 17 29
f 7 29 49
f 7 49 58
f 7 58 59
f 7 59 57
f 7 57 40
f 7 40 23
f 7 23 14
f 8 15 16
f 10 11 18
f 10 18 19
f 11 20 21
f 11 21 18
f 14 23 22
f 15 24 25
f 15 25 16
f 16 26 27
f 16 27 28
f 16 25 26
f 17 30 29
f 18 21 19
f 19 21 32
f 19 32 31
f 20 33 21
f 20 34 35
f 20 35 36
f 20 36 33
f 21 33 37
f 21 37 38
f 21 38 32
f 22 23 40
f 22 40 39
f 24 41 26
f 24 26 25
f 26 42 27
f 26 41 42
f 27 42 43
f 27 43 44
f 27 44 45
f 27 45 46
f 27 46 47
f 27 47 48
f 27 48 28
f 29 30 47
f 29 47 46
f 29 46 49
f 31 32 50
f 31 50 41
f 32 38 50
f 33 36 51
f 33 51 52
f 33 52 53
f 33 53 44
f 33 44 37
f 34 54 55
f 34 55 35
f 35 55 51
f 35 51 36
f 37 50 38
f 37 44 50
f 39 40 51
f 39 51 55
f 39 55 56
f 40 57 51
f 41 50 42
f 42 50 43
f 43 50 44
f 44 53 45
f 45 53 49
f 45 49 46
f 49 52 58
f 49 53 52
f 51 57 59
f 51 59 60
f 51 60 52
f 52 60 58
f 54 56 55
f 58 60 59

