# https://github.com/mikedh/trimesh

o right_ankle_tapped_load_plate_219.obj
v 0.03208328 -0.01679837 -0.02978710
v 0.03208328 -0.01915657 -0.02978710
v 0.03208328 -0.01679837 -0.03154071
v 0.02934172 -0.01679837 -0.02978710
v 0.03208167 -0.01916537 -0.02978710
v 0.03208328 -0.01916537 -0.02980856
v 0.03208328 -0.01916537 -0.03154071
v 0.02934172 -0.01679837 -0.03154071
v 0.02945175 -0.01916537 -0.02978710
v 0.02945175 -0.01916537 -0.03154071
f 1 2 6
f 1 6 7
f 1 7 3
f 1 3 8
f 1 8 4
f 1 4 9
f 1 9 5
f 1 5 2
f 2 5 6
f 3 7 10
f 3 10 8
f 4 8 10
f 4 10 9
f 5 9 10
f 5 10 7
f 5 7 6

