# https://github.com/mikedh/trimesh

o right_foot_front_saddle_088.obj
v 0.02949732 0.01242231 0.01080453
v 0.02949732 0.01242231 0.00929590
v 0.02880305 0.01242231 0.01080453
v 0.02949732 -0.01228754 0.01080453
v 0.02880305 0.01242231 0.00929590
v 0.02949732 0.00925860 0.00779963
v 0.02880305 -0.01228754 0.01080453
v 0.02949732 -0.01228754 0.00933179
v 0.02880305 0.00925860 0.00779963
v 0.02949732 -0.00925928 0.00779963
v 0.02880305 -0.01228754 0.00933179
v 0.02880305 -0.00925928 0.00779963
f 1 2 5
f 1 5 3
f 1 3 7
f 1 7 4
f 1 4 8
f 1 8 10
f 1 10 6
f 1 6 2
f 2 6 9
f 2 9 5
f 3 5 9
f 3 9 12
f 3 12 11
f 3 11 7
f 4 7 11
f 4 11 8
f 6 10 12
f 6 12 9
f 8 11 12
f 8 12 10

