# https://github.com/mikedh/trimesh

o right_ankle_roll_bearing_cover_009.obj
v -0.03275000 -0.00536443 -0.01292260
v -0.03175000 -0.00536443 -0.01292260
v -0.03275000 -0.00536443 -0.01184307
v -0.03275000 -0.00511468 -0.01303192
v -0.03175000 -0.00511468 -0.01303192
v -0.03175000 -0.00536443 -0.01184307
v -0.03275000 -0.00491526 -0.00692989
v -0.03275000 -0.00491526 -0.01310161
v -0.03175000 -0.00491526 -0.01310161
v -0.03175000 -0.00491526 -0.00692989
v -0.03275000 -0.00149933 -0.00836196
v -0.03275000 -0.00412627 -0.01337695
v -0.03175000 -0.00412627 -0.01337695
v -0.03175000 -0.00149933 -0.00836196
v -0.03275000 -0.00149933 -0.01390988
v -0.03208340 -0.00345194 -0.01355801
v -0.03275000 -0.00311553 -0.01364820
v -0.03175000 -0.00311553 -0.01364820
v -0.03175000 -0.00149933 -0.01390988
v -0.03275000 -0.00208701 -0.01384292
v -0.03175000 -0.00208701 -0.01384292
f 1 2 6
f 1 6 3
f 1 3 7
f 1 7 11
f 1 11 15
f 1 15 20
f 1 20 17
f 1 17 12
f 1 12 8
f 1 8 4
f 1 4 5
f 1 5 2
f 2 5 9
f 2 9 13
f 2 13 18
f 2 18 21
f 2 21 19
f 2 19 14
f 2 14 10
f 2 10 6
f 3 6 10
f 3 10 7
f 4 8 9
f 4 9 5
f 7 10 14
f 7 14 11
f 8 12 13
f 8 13 9
f 11 14 19
f 11 19 15
f 12 16 13
f 12 17 16
f 13 16 18
f 15 19 21
f 15 21 20
f 16 17 18
f 17 20 21
f 17 21 18

