# https://github.com/mikedh/trimesh

o right_shin_output_adapter_017.obj
v -0.00987227 -0.02735904 0.00806264
v -0.01077950 -0.02735904 0.00806264
v -0.00987227 -0.02865495 0.00806264
v -0.00987227 -0.02735904 0.00691115
v -0.01009963 -0.02735904 0.00691115
v -0.01009892 -0.02865495 0.00690092
v -0.01077950 -0.02865495 0.00806264
v -0.00988497 -0.02915831 0.00804979
v -0.00987227 -0.02865495 0.00691115
v -0.00988497 -0.02865495 0.00690092
v -0.01009892 -0.02915831 0.00690092
v -0.01076174 -0.02915831 0.00804979
v -0.00988497 -0.02915831 0.00690092
f 1 2 7
f 1 7 3
f 1 3 9
f 1 9 4
f 1 4 5
f 1 5 2
f 2 5 6
f 2 6 11
f 2 11 7
f 3 7 12
f 3 12 8
f 3 8 13
f 3 13 9
f 4 9 13
f 4 13 10
f 4 10 6
f 4 6 5
f 6 10 13
f 6 13 11
f 7 11 12
f 8 12 11
f 8 11 13

