# https://github.com/mikedh/trimesh

o right_ankle_pitch_base_disc_034.obj
v -0.01133413 -0.02795347 0.01647389
v -0.01156925 -0.02795347 0.01630050
v -0.01133413 -0.02924997 0.01647389
v -0.01133413 -0.02795347 0.00831125
v -0.01180750 -0.02894653 0.01612441
v -0.01234682 -0.02795347 0.01572616
v -0.01244087 -0.02894653 0.01565663
v -0.01186830 -0.02924997 0.01607925
v -0.01133413 -0.02924997 0.00831125
v -0.01321071 -0.02795347 0.00724927
v -0.01246952 -0.02795347 0.01563496
v -0.01246952 -0.02924997 0.01563496
v -0.01321071 -0.02924997 0.00724927
v -0.01321071 -0.02795347 0.01499740
v -0.01268756 -0.02795347 0.01544803
v -0.01250553 -0.02894653 0.01560425
v -0.01258433 -0.02894653 0.01553652
v -0.01297908 -0.02894653 0.01519698
v -0.01321071 -0.02924997 0.01499740
v -0.01295942 -0.02795347 0.01521414
f 1 2 3
f 1 3 9
f 1 9 4
f 1 4 10
f 1 10 14
f 1 14 20
f 1 20 15
f 1 15 11
f 1 11 6
f 1 6 2
f 2 5 3
f 2 6 7
f 2 7 5
f 3 5 7
f 3 7 8
f 3 8 12
f 3 12 19
f 3 19 13
f 3 13 9
f 4 9 13
f 4 13 10
f 6 11 7
f 7 11 12
f 7 12 8
f 10 13 19
f 10 19 14
f 11 15 16
f 11 16 12
f 12 16 17
f 12 17 18
f 12 18 19
f 14 19 20
f 15 20 18
f 15 18 17
f 15 17 16
f 18 20 19

