# https://github.com/mikedh/trimesh

o right_shin_stationary_idler_spider_037.obj
v -0.06515578 0.04072419 -0.12124806
v -0.06515578 0.04280356 -0.12124806
v -0.06483289 0.04280356 -0.12123995
v -0.06489361 0.04072419 -0.12124147
v -0.06551983 0.04072419 -0.12122069
v -0.06564425 0.04280356 -0.12121106
v -0.06466425 0.04280356 -0.12123539
v -0.06466425 0.04072419 -0.12123539
v -0.06477888 0.04072419 -0.12123843
v -0.06564425 0.04072419 -0.12121106
v -0.06564425 0.04280356 -0.11607010
v -0.06466425 0.04280356 -0.11620441
v -0.06466425 0.04072419 -0.11620441
v -0.06564425 0.04072419 -0.11607010
v -0.06466425 0.04119075 -0.11620390
f 1 2 3
f 1 3 4
f 1 4 9
f 1 9 8
f 1 8 13
f 1 13 14
f 1 14 10
f 1 10 5
f 1 5 2
f 2 5 6
f 2 6 11
f 2 11 12
f 2 12 7
f 2 7 3
f 3 7 8
f 3 8 9
f 3 9 4
f 5 10 6
f 6 10 14
f 6 14 11
f 7 12 15
f 7 15 13
f 7 13 8
f 11 14 15
f 11 15 12
f 13 15 14

