# https://github.com/mikedh/trimesh

o right_foot_upper_aft_055.obj
v -0.12604346 0.01144886 -0.01441467
v -0.12500391 0.01142342 -0.01441467
v -0.12599824 0.01142342 -0.01419436
v -0.12500391 0.01446575 -0.01376010
v -0.12500391 0.01458933 -0.01392385
v -0.12571365 0.01254839 -0.01441467
v -0.12422339 0.01142342 -0.01299822
v -0.12240872 0.02065855 -0.01441467
v -0.12102217 0.02070489 -0.01441453
v -0.12586946 0.01142342 -0.01376939
v -0.12500391 0.01412499 -0.01340239
v -0.12500391 0.01423494 -0.01350887
v -0.12500391 0.01437306 -0.01365196
v -0.12354019 0.01763712 -0.01299822
v -0.12329689 0.01826957 -0.01299822
v -0.12500391 0.01472019 -0.01413030
v -0.12307227 0.01884478 -0.01299822
v -0.12283241 0.01944998 -0.01299822
v -0.12537746 0.01365064 -0.01441467
v -0.12548019 0.01178054 -0.01299822
v -0.12559127 0.01143159 -0.01305215
v -0.12566696 0.01142342 -0.01321923
v -0.12129250 0.02070580 -0.01299822
v -0.12260631 0.02024055 -0.01441467
v -0.12240332 0.02070580 -0.01427464
v -0.12578001 0.01142342 -0.01350956
v -0.12500391 0.01379422 -0.01312716
v -0.12500391 0.01398868 -0.01328356
v -0.12427893 0.01566160 -0.01299822
v -0.12399926 0.01641855 -0.01299822
v -0.12376235 0.01705101 -0.01299822
v -0.12499949 0.01484286 -0.01436254
v -0.12520002 0.01422676 -0.01441467
v -0.12258272 0.02007335 -0.01299822
v -0.12239988 0.02052497 -0.01299822
v -0.12536566 0.01223580 -0.01299822
v -0.12509337 0.01328262 -0.01299822
v -0.12232566 0.02070580 -0.01299836
v -0.12272575 0.01998611 -0.01441467
v -0.12241905 0.02070580 -0.01405044
v -0.12294546 0.01951540 -0.01441467
v -0.12500391 0.01362702 -0.01300474
v -0.12484761 0.01407046 -0.01299822
v -0.12456941 0.01485649 -0.01299822
v -0.12474046 0.01547804 -0.01441467
v -0.12235564 0.02070580 -0.01315697
v -0.12237874 0.02070580 -0.01330602
v -0.12315779 0.01905560 -0.01441467
v -0.12323102 0.01889567 -0.01441467
v -0.12335538 0.01862397 -0.01441467
v -0.12341436 0.01849402 -0.01441467
v -0.12350086 0.01830320 -0.01441467
v -0.12242150 0.02070580 -0.01389681
v -0.12462102 0.01575701 -0.01441467
v -0.12240381 0.02070580 -0.01351913
v -0.12383853 0.01754807 -0.01441467
v -0.12241659 0.02070580 -0.01369729
v -0.12450404 0.01602963 -0.01441467
v -0.12420668 0.01671388 -0.01441467
v -0.12430793 0.01648125 -0.01441467
v -0.12395158 0.01729363 -0.01441467
v -0.12406856 0.01702829 -0.01441467
f 1 2 3
f 1 3 4
f 1 4 5
f 1 5 6
f 1 6 19
f 1 19 33
f 1 33 45
f 1 45 54
f 1 54 58
f 1 58 60
f 1 60 59
f 1 59 62
f 1 62 61
f 1 61 56
f 1 56 52
f 1 52 51
f 1 51 50
f 1 50 49
f 1 49 48
f 1 48 41
f 1 41 39
f 1 39 24
f 1 24 8
f 1 8 2
f 2 7 22
f 2 22 26
f 2 26 10
f 2 10 3
f 2 8 9
f 2 9 7
f 3 10 11
f 3 11 12
f 3 12 13
f 3 13 4
f 4 13 14
f 4 14 15
f 4 15 5
f 5 16 6
f 5 15 17
f 5 17 18
f 5 18 16
f 6 16 19
f 7 20 21
f 7 21 22
f 7 9 23
f 7 23 35
f 7 35 34
f 7 34 18
f 7 18 17
f 7 17 15
f 7 15 14
f 7 14 31
f 7 31 30
f 7 30 29
f 7 29 44
f 7 44 43
f 7 43 37
f 7 37 36
f 7 36 20
f 8 24 25
f 8 25 9
f 9 25 23
f 10 26 27
f 10 27 28
f 10 28 11
f 11 29 30
f 11 30 12
f 11 28 29
f 12 30 31
f 12 31 13
f 13 31 14
f 16 32 33
f 16 33 19
f 16 18 34
f 16 34 35
f 16 35 32
f 20 36 22
f 20 22 21
f 22 36 37
f 22 37 26
f 23 25 40
f 23 40 53
f 23 53 57
f 23 57 55
f 23 55 47
f 23 47 46
f 23 46 38
f 23 38 35
f 24 39 25
f 25 39 41
f 25 41 40
f 26 37 42
f 26 42 27
f 27 42 43
f 27 43 44
f 27 44 28
f 28 44 29
f 32 45 33
f 32 35 38
f 32 38 46
f 32 46 47
f 32 47 45
f 37 43 42
f 40 41 48
f 40 48 49
f 40 49 50
f 40 50 51
f 40 51 52
f 40 52 53
f 45 47 55
f 45 55 54
f 52 56 53
f 53 56 57
f 54 55 58
f 55 57 59
f 55 59 60
f 55 60 58
f 56 61 57
f 57 61 62
f 57 62 59

