# https://github.com/mikedh/trimesh

o right_foot_upper_fore_082.obj
v 0.04578122 -0.04116439 -0.01135077
v 0.04578122 -0.03972940 -0.01334892
v 0.04458795 -0.03984501 -0.01334892
v 0.04458971 -0.04231956 -0.01135156
v 0.04459613 -0.04469210 -0.01135077
v 0.04578122 -0.04361514 -0.01135077
v 0.04578122 -0.04298557 -0.01322198
v 0.04577993 -0.04288355 -0.01332525
v 0.04569467 -0.04289910 -0.01334892
v 0.04471854 -0.04330569 -0.01334892
v 0.04459415 -0.04337225 -0.01332994
v 0.04459204 -0.04361805 -0.01312575
v 0.04459204 -0.04404893 -0.01269780
v 0.04459204 -0.04412229 -0.01261154
v 0.04459204 -0.04421167 -0.01249908
v 0.04459415 -0.04456386 -0.01188591
v 0.04459613 -0.04467996 -0.01145092
v 0.04578122 -0.04366274 -0.01193363
v 0.04471282 -0.04459738 -0.01135077
v 0.04578122 -0.04363311 -0.01142314
v 0.04564175 -0.04375358 -0.01135077
v 0.04578122 -0.04305941 -0.01314237
v 0.04459613 -0.04399015 -0.01276352
v 0.04459613 -0.04390903 -0.01284938
v 0.04460022 -0.04384345 -0.01291549
v 0.04547963 -0.04299382 -0.01334892
v 0.04459613 -0.04371132 -0.01304204
v 0.04502643 -0.04318279 -0.01334892
v 0.04459613 -0.04354275 -0.01319108
v 0.04578122 -0.04312887 -0.01306238
v 0.04578122 -0.04318716 -0.01299118
v 0.04578122 -0.04322894 -0.01293779
v 0.04459812 -0.04426705 -0.01242221
v 0.04459415 -0.04433749 -0.01232012
v 0.04459415 -0.04452743 -0.01197294
v 0.04459613 -0.04458815 -0.01182175
v 0.04459613 -0.04461438 -0.01174176
v 0.04459613 -0.04464499 -0.01163281
v 0.04578122 -0.04353692 -0.01241537
v 0.04459812 -0.04466198 -0.01155380
v 0.04578122 -0.04365157 -0.01201774
v 0.04578122 -0.04367051 -0.01182547
v 0.04483277 -0.04449536 -0.01135077
v 0.04578122 -0.04365060 -0.01151468
v 0.04552519 -0.04386628 -0.01135077
v 0.04525876 -0.04308758 -0.01334892
v 0.04578122 -0.04328772 -0.01285740
v 0.04578122 -0.04335962 -0.01275022
v 0.04459812 -0.04438072 -0.01224970
v 0.04459613 -0.04442881 -0.01216932
v 0.04459812 -0.04447739 -0.01207602
v 0.04578122 -0.04348835 -0.01252294
v 0.04578122 -0.04358113 -0.01229782
v 0.04578122 -0.04361271 -0.01219513
v 0.04578122 -0.04363845 -0.01208795
v 0.04578122 -0.04367051 -0.01171751
v 0.04493661 -0.04440550 -0.01135077
v 0.04578122 -0.04366371 -0.01161521
v 0.04539565 -0.04398967 -0.01135077
v 0.04578122 -0.04342422 -0.01264303
v 0.04517898 -0.04418981 -0.01135077
v 0.04507596 -0.04428259 -0.01135077
v 0.04530011 -0.04407857 -0.01135077
f 1 2 3
f 1 3 4
f 1 4 5
f 1 5 19
f 1 19 43
f 1 43 57
f 1 57 62
f 1 62 61
f 1 61 63
f 1 63 59
f 1 59 45
f 1 45 21
f 1 21 6
f 1 6 20
f 1 20 44
f 1 44 58
f 1 58 56
f 1 56 42
f 1 42 18
f 1 18 41
f 1 41 55
f 1 55 54
f 1 54 53
f 1 53 39
f 1 39 52
f 1 52 60
f 1 60 48
f 1 48 47
f 1 47 32
f 1 32 31
f 1 31 30
f 1 30 22
f 1 22 7
f 1 7 2
f 2 7 8
f 2 8 9
f 2 9 26
f 2 26 46
f 2 46 28
f 2 28 10
f 2 10 3
f 3 10 11
f 3 11 12
f 3 12 13
f 3 13 14
f 3 14 15
f 3 15 4
f 4 15 16
f 4 16 5
f 5 16 17
f 5 17 18
f 5 18 19
f 6 21 20
f 7 22 23
f 7 23 24
f 7 24 25
f 7 25 8
f 8 25 9
f 9 25 27
f 9 27 26
f 10 28 29
f 10 29 11
f 11 29 12
f 12 29 27
f 12 27 24
f 12 24 13
f 13 24 23
f 13 23 30
f 13 30 14
f 14 30 31
f 14 31 15
f 15 31 32
f 15 32 33
f 15 33 34
f 15 34 35
f 15 35 16
f 16 36 37
f 16 37 38
f 16 38 17
f 16 35 39
f 16 39 36
f 17 38 40
f 17 40 41
f 17 41 18
f 18 42 19
f 19 42 43
f 20 21 45
f 20 45 44
f 22 30 23
f 24 27 25
f 26 27 46
f 27 29 46
f 28 46 29
f 32 47 33
f 33 47 48
f 33 48 34
f 34 48 49
f 34 49 50
f 34 50 35
f 35 50 51
f 35 51 52
f 35 52 39
f 36 39 53
f 36 53 37
f 37 53 54
f 37 54 38
f 38 54 55
f 38 55 40
f 40 55 41
f 42 56 57
f 42 57 43
f 44 45 59
f 44 59 58
f 48 60 49
f 49 60 50
f 50 60 51
f 51 60 52
f 56 61 62
f 56 62 57
f 56 58 61
f 58 59 63
f 58 63 61

