# https://github.com/mikedh/trimesh

o right_ankle_pitch_stationary_spider_014.obj
v 0.03052712 0.02925000 -0.10556933
v 0.03055137 0.02925000 -0.10548396
v 0.03053751 0.03058301 -0.10553083
v 0.03052712 0.03125000 -0.10556933
v 0.03967278 0.02925000 -0.10556933
v 0.03059295 0.02925000 -0.10534168
v 0.03055137 0.03125000 -0.10548396
v 0.03059295 0.03125000 -0.10534168
v 0.03967278 0.03125000 -0.10556933
v 0.04522359 0.03058301 -0.10001962
v 0.04822248 0.02925000 -0.09701922
v 0.03069690 0.02925000 -0.10506466
v 0.03069690 0.03125000 -0.10506466
v 0.04822248 0.03125000 -0.09701922
v 0.03973861 0.02925000 -0.09701922
v 0.03082164 0.02925000 -0.10479684
v 0.03082164 0.03125000 -0.10479684
v 0.03973861 0.03125000 -0.09701922
v 0.03194947 0.02925000 -0.10344268
v 0.03096716 0.02925000 -0.10453823
v 0.03087015 0.02991699 -0.10470980
v 0.03096716 0.03125000 -0.10453823
v 0.03194947 0.03125000 -0.10344268
v 0.03172252 0.02925000 -0.10363183
v 0.03113002 0.02925000 -0.10429049
v 0.03102087 0.03058301 -0.10445621
v 0.03113002 0.03125000 -0.10429049
v 0.03172252 0.03125000 -0.10363183
v 0.03161510 0.02925000 -0.10373393
v 0.03122010 0.02925000 -0.10417332
v 0.03122010 0.03125000 -0.10417332
v 0.03161510 0.03125000 -0.10373393
v 0.03150769 0.02925000 -0.10383688
v 0.03131019 0.02925000 -0.10405699
v 0.03131019 0.03125000 -0.10405699
v 0.03150769 0.03125000 -0.10383688
v 0.03137602 0.02991699 -0.10398334
f 1 2 3
f 1 3 4
f 1 4 9
f 1 9 5
f 1 5 11
f 1 11 15
f 1 15 19
f 1 19 24
f 1 24 29
f 1 29 33
f 1 33 34
f 1 34 30
f 1 30 25
f 1 25 20
f 1 20 16
f 1 16 12
f 1 12 6
f 1 6 2
f 2 6 3
f 3 7 4
f 3 6 8
f 3 8 7
f 4 7 8
f 4 8 13
f 4 13 17
f 4 17 22
f 4 22 27
f 4 27 31
f 4 31 35
f 4 35 36
f 4 36 32
f 4 32 28
f 4 28 23
f 4 23 18
f 4 18 14
f 4 14 9
f 5 9 10
f 5 10 11
f 6 12 13
f 6 13 8
f 9 14 10
f 10 14 11
f 11 14 18
f 11 18 15
f 12 16 17
f 12 17 13
f 15 18 23
f 15 23 19
f 16 20 21
f 16 21 17
f 17 21 22
f 19 23 28
f 19 28 24
f 20 25 26
f 20 26 22
f 20 22 21
f 22 26 27
f 24 28 32
f 24 32 29
f 25 27 26
f 25 30 31
f 25 31 27
f 29 32 36
f 29 36 33
f 30 34 35
f 30 35 31
f 33 37 34
f 33 36 37
f 34 37 35
f 35 37 36

