# https://github.com/mikedh/trimesh

o right_shin_output_adapter_008.obj
v -0.01997445 -0.03675000 0.00018370
v -0.01401452 -0.03675000 0.00018370
v -0.01997445 -0.03675000 0.00099691
v -0.01997445 -0.02625000 0.00018370
v -0.01295407 -0.03675000 0.00178365
v -0.01401452 -0.02625000 0.00018370
v -0.01989610 -0.03675000 0.00178365
v -0.01997445 -0.02625000 0.00099691
v -0.01295407 -0.02625000 0.00178365
v -0.01989610 -0.02625000 0.00178365
f 1 2 5
f 1 5 7
f 1 7 3
f 1 3 8
f 1 8 4
f 1 4 6
f 1 6 2
f 2 6 9
f 2 9 5
f 3 7 10
f 3 10 8
f 4 8 10
f 4 10 9
f 4 9 6
f 5 9 10
f 5 10 7

