# https://github.com/mikedh/trimesh

o right_shin_idler_fork_plate_045.obj
v -0.00233259 0.04342615 0.00920563
v -0.00233259 0.04825000 0.00920563
v 0.00070793 0.04342615 0.00947825
v -0.00233259 0.04342615 0.01581219
v 0.00070793 0.04825000 0.00947825
v -0.00233259 0.04825000 0.01581219
v 0.00070793 0.04342615 0.01596512
v -0.00186234 0.04342615 0.01589065
v 0.00070793 0.04825000 0.01596512
v -0.00186234 0.04825000 0.01589065
v -0.00027155 0.04342615 0.01599770
v -0.00176472 0.04342615 0.01589730
v -0.00027155 0.04825000 0.01599770
v -0.00147127 0.04342615 0.01591724
v -0.00133198 0.04641650 0.01592655
f 1 2 5
f 1 5 3
f 1 3 7
f 1 7 11
f 1 11 14
f 1 14 12
f 1 12 8
f 1 8 4
f 1 4 6
f 1 6 2
f 2 6 10
f 2 10 13
f 2 13 9
f 2 9 5
f 3 5 9
f 3 9 7
f 4 8 10
f 4 10 6
f 7 9 13
f 7 13 11
f 8 12 10
f 10 12 14
f 10 14 15
f 10 15 13
f 11 13 14
f 13 15 14

