# https://github.com/mikedh/trimesh

o right_hip_yaw_to_roll_u_carrier_066.obj
v 0.00806355 0.00926763 0.02699157
v 0.00954751 0.00821713 0.02699157
v 0.00806355 0.00926763 0.02641127
v -0.01105053 0.00926763 0.02699157
v 0.00954751 0.00821713 0.02641127
v 0.00909990 0.00655301 0.02699157
v -0.01105053 0.00926763 0.02641127
v -0.00909073 0.00679378 0.02699157
v 0.00909990 0.00655301 0.02641127
v 0.00806355 0.00655301 0.02699157
v -0.00909073 0.00679378 0.02641127
v 0.00806355 0.00655301 0.02641127
f 1 2 5
f 1 5 3
f 1 3 7
f 1 7 4
f 1 4 8
f 1 8 10
f 1 10 6
f 1 6 2
f 2 6 9
f 2 9 5
f 3 5 9
f 3 9 12
f 3 12 11
f 3 11 7
f 4 7 11
f 4 11 8
f 6 10 12
f 6 12 9
f 8 11 12
f 8 12 10

