# https://github.com/mikedh/trimesh

o right_ankle_pitch_rear_fork_030.obj
v 0.02080209 0.05083231 0.03468916
v 0.02269881 0.05083231 0.03676865
v 0.02080209 0.05221114 0.03468916
v 0.02555530 0.05083231 0.03468916
v 0.02269881 0.05221114 0.03676865
v 0.02364860 0.05083231 0.03780977
v 0.02555530 0.05221114 0.03468916
v 0.02807501 0.05083231 0.03518376
v 0.02364860 0.05221114 0.03780977
v 0.02807501 0.05083231 0.03780977
v 0.02807501 0.05221114 0.03518376
v 0.02807572 0.05083231 0.03676895
v 0.02807501 0.05221114 0.03780977
v 0.02807572 0.05083231 0.03721467
v 0.02807572 0.05221114 0.03676895
v 0.02807572 0.05221114 0.03721467
f 1 2 5
f 1 5 3
f 1 3 7
f 1 7 4
f 1 4 8
f 1 8 12
f 1 12 14
f 1 14 10
f 1 10 6
f 1 6 2
f 2 6 9
f 2 9 5
f 3 5 9
f 3 9 13
f 3 13 16
f 3 16 15
f 3 15 11
f 3 11 7
f 4 7 11
f 4 11 8
f 6 10 13
f 6 13 9
f 8 11 15
f 8 15 12
f 10 14 16
f 10 16 13
f 12 15 16
f 12 16 14

