# https://github.com/mikedh/trimesh

o right_foot_trim_002.obj
v 0.05723546 -0.03438283 -0.02400000
v 0.05620389 -0.03438283 -0.02286971
v 0.05406609 -0.03752111 -0.02400000
v 0.05344090 -0.03438283 -0.02400000
v 0.05540851 -0.03438283 -0.02199976
v 0.05273582 -0.03702954 -0.02199976
v 0.04472643 -0.04319861 -0.02400000
v 0.03949567 -0.04244613 -0.02400000
v 0.03949567 -0.03886743 -0.01950000
v 0.04725324 -0.03438283 -0.01950000
v 0.05398447 -0.03438283 -0.02109500
v 0.05332454 -0.03438283 -0.02069328
v 0.05040872 -0.03530751 -0.01950000
v 0.04351946 -0.04262772 -0.02199976
v 0.03949567 -0.04504484 -0.02400000
v 0.03949567 -0.04127514 -0.01950000
v 0.05136388 -0.03438283 -0.01950000
v 0.04140945 -0.04062808 -0.01950000
v 0.03949567 -0.04403771 -0.02199976
v 0.03949567 -0.04442073 -0.02274814
v 0.03949567 -0.04183872 -0.01999378
f 1 2 3
f 1 3 7
f 1 7 15
f 1 15 8
f 1 8 4
f 1 4 10
f 1 10 17
f 1 17 12
f 1 12 11
f 1 11 5
f 1 5 2
f 2 5 6
f 2 6 3
f 3 6 7
f 4 8 9
f 4 9 10
f 5 11 6
f 6 11 12
f 6 12 13
f 6 13 14
f 6 14 7
f 7 14 15
f 8 15 20
f 8 20 19
f 8 19 21
f 8 21 16
f 8 16 9
f 9 16 18
f 9 18 13
f 9 13 17
f 9 17 10
f 12 17 13
f 13 18 14
f 14 18 19
f 14 19 20
f 14 20 15
f 16 21 18
f 18 21 19

