# https://github.com/mikedh/trimesh

o right_hip_yaw_output_adapter_059.obj
v -0.01095033 0.00787902 0.02227277
v -0.01034107 0.00675510 0.02227277
v -0.01095033 0.00787902 0.02300279
v -0.01095033 0.01367946 0.02227277
v -0.00913076 0.01334423 0.02174619
v -0.01034107 0.00675510 0.02300279
v -0.00794179 0.00675510 0.02227277
v -0.01095033 0.01367946 0.02300279
v -0.00759679 0.01386029 0.02174619
v -0.00913076 0.01364399 0.02174619
v -0.00759679 0.01334423 0.02174619
v -0.00794179 0.00675510 0.02300279
v -0.00918952 0.01367946 0.02300279
v -0.00759679 0.01386029 0.02227277
v -0.00759679 0.01334423 0.02227277
v -0.00794179 0.01360504 0.02300279
f 1 2 6
f 1 6 3
f 1 3 8
f 1 8 4
f 1 4 10
f 1 10 5
f 1 5 2
f 2 5 11
f 2 11 7
f 2 7 12
f 2 12 6
f 3 6 12
f 3 12 16
f 3 16 13
f 3 13 8
f 4 8 14
f 4 14 9
f 4 9 10
f 5 10 9
f 5 9 11
f 7 11 15
f 7 15 12
f 8 13 14
f 9 14 15
f 9 15 11
f 12 15 14
f 12 14 16
f 13 16 14

