# https://github.com/mikedh/trimesh

o right_ankle_cross_axis_carrier_018.obj
v 0.08160000 -0.00615937 -0.05278169
v 0.08160000 -0.00526948 -0.05299017
v 0.08560000 -0.00615937 -0.05278169
v 0.08160000 -0.00615937 -0.04607508
v 0.08160000 -0.00324989 -0.05330685
v 0.08293359 -0.00392293 -0.05320153
v 0.08560000 -0.00526948 -0.05299017
v 0.08560000 -0.00615937 -0.04607508
v 0.08160744 -0.00156367 -0.04694217
v 0.08160000 -0.00156952 -0.04694145
v 0.08560000 -0.00324989 -0.05330685
v 0.08160000 -0.00156367 -0.05344463
v 0.08293359 -0.00189164 -0.05341794
v 0.08560000 -0.00156952 -0.04694145
v 0.08558551 -0.00156367 -0.04694217
v 0.08160000 -0.00156367 -0.04694505
v 0.08560000 -0.00156367 -0.05344463
v 0.08560000 -0.00156367 -0.04694505
f 1 2 7
f 1 7 3
f 1 3 8
f 1 8 4
f 1 4 10
f 1 10 16
f 1 16 12
f 1 12 5
f 1 5 2
f 2 5 6
f 2 6 7
f 3 7 11
f 3 11 17
f 3 17 18
f 3 18 14
f 3 14 8
f 4 8 15
f 4 15 9
f 4 9 10
f 5 11 6
f 5 12 13
f 5 13 11
f 6 11 7
f 8 14 15
f 9 16 10
f 9 15 18
f 9 18 17
f 9 17 12
f 9 12 16
f 11 13 17
f 12 17 13
f 14 18 15

