# https://github.com/mikedh/trimesh

o right_hip_yaw_to_roll_u_carrier_123.obj
v 0.01327155 0.00468755 0.02699157
v 0.01476940 0.00468755 0.02699157
v 0.01327155 0.00468755 0.02757172
v 0.01370481 0.00839073 0.02699157
v 0.01476940 0.00468755 0.02734667
v 0.01476940 0.00839073 0.02699157
v 0.01476442 0.00468755 0.02757172
v 0.01370481 0.00839073 0.02757172
v 0.01476940 0.00554855 0.02757172
v 0.01476940 0.00839073 0.02757172
f 1 2 5
f 1 5 7
f 1 7 3
f 1 3 8
f 1 8 4
f 1 4 6
f 1 6 2
f 2 6 10
f 2 10 9
f 2 9 5
f 3 7 9
f 3 9 10
f 3 10 8
f 4 8 10
f 4 10 6
f 5 9 7

