# https://github.com/mikedh/trimesh

o right_thigh_output_fork_plate_062.obj
v -0.04500352 -0.03025000 -0.12138368
v -0.04500352 -0.03025000 -0.12560816
v -0.04582656 -0.03025000 -0.12352620
v -0.04500352 -0.03575000 -0.12138368
v -0.04580714 -0.03025000 -0.12685841
v -0.04500352 -0.03575000 -0.12560816
v -0.04582656 -0.03025000 -0.12685841
v -0.04582656 -0.03575000 -0.12352620
v -0.04580714 -0.03575000 -0.12685841
v -0.04582656 -0.03149956 -0.12685841
v -0.04582656 -0.03575000 -0.12684072
v -0.04582358 -0.03575000 -0.12685841
f 1 2 5
f 1 5 7
f 1 7 3
f 1 3 8
f 1 8 4
f 1 4 6
f 1 6 2
f 2 6 9
f 2 9 5
f 3 7 10
f 3 10 11
f 3 11 8
f 4 8 11
f 4 11 12
f 4 12 9
f 4 9 6
f 5 9 12
f 5 12 10
f 5 10 7
f 10 12 11

