# https://github.com/mikedh/trimesh

o right_ankle_pitch_rear_fork_025.obj
v 0.01596721 0.05475000 -0.00098241
v 0.01596721 0.04975867 -0.00098241
v 0.01596442 0.05475000 -0.00105658
v 0.00944793 0.05475000 -0.00098241
v 0.01596442 0.04975867 -0.00105658
v 0.00944793 0.04975867 -0.00098241
v 0.01595327 0.04975867 -0.00116662
v 0.01590308 0.05475000 -0.00165164
v 0.00884640 0.05475000 -0.00347463
v 0.00884640 0.04975965 -0.00347463
v 0.00884849 0.04975867 -0.00347000
v 0.01585289 0.04975867 -0.00213667
v 0.01584105 0.05475000 -0.00224646
v 0.01561591 0.05475000 -0.00347463
v 0.00887568 0.04975867 -0.00347463
v 0.00884780 0.04975867 -0.00347293
v 0.01584105 0.04975867 -0.00224646
v 0.01577065 0.05108370 -0.00263901
v 0.01562915 0.05475000 -0.00342413
v 0.01561591 0.04975867 -0.00347463
v 0.01582153 0.04975867 -0.00235527
v 0.01562915 0.04975867 -0.00342413
f 1 2 5
f 1 5 3
f 1 3 8
f 1 8 13
f 1 13 19
f 1 19 14
f 1 14 9
f 1 9 4
f 1 4 6
f 1 6 2
f 2 6 11
f 2 11 16
f 2 16 15
f 2 15 20
f 2 20 22
f 2 22 21
f 2 21 17
f 2 17 12
f 2 12 7
f 2 7 5
f 3 5 7
f 3 7 8
f 4 9 10
f 4 10 6
f 6 10 11
f 7 12 8
f 8 12 13
f 9 14 20
f 9 20 15
f 9 15 10
f 10 15 16
f 10 16 11
f 12 17 13
f 13 17 18
f 13 18 19
f 14 19 22
f 14 22 20
f 17 21 18
f 18 21 22
f 18 22 19

