# https://github.com/mikedh/trimesh

o right_ankle_pitch_bearing_005.obj
v -0.00258432 0.05475000 0.00427756
v -0.00258432 0.04975000 0.00427756
v -0.00465268 0.05475000 0.00183195
v -0.00847641 0.05475000 0.00427756
v -0.00465268 0.04975000 0.00183195
v -0.00847641 0.04975000 0.00427756
v -0.00931522 0.05475000 0.00183195
v -0.00855877 0.05475000 0.00412170
v -0.00931522 0.04975000 0.00183195
v -0.00855877 0.04975000 0.00412170
v -0.00926119 0.05475000 0.00211398
v -0.00870110 0.05475000 0.00379610
v -0.00865366 0.05141699 0.00390479
v -0.00926119 0.04975000 0.00211398
v -0.00870110 0.04975000 0.00379610
v -0.00916960 0.05475000 0.00245730
v -0.00884277 0.05475000 0.00347074
v -0.00874854 0.05308301 0.00368764
v -0.00916960 0.04975000 0.00245730
v -0.00884277 0.04975000 0.00347074
v -0.00907735 0.05475000 0.00280038
v -0.00899959 0.05141699 0.00302375
v -0.00907735 0.04975000 0.00280038
f 1 2 5
f 1 5 3
f 1 3 7
f 1 7 11
f 1 11 16
f 1 16 21
f 1 21 17
f 1 17 12
f 1 12 8
f 1 8 4
f 1 4 6
f 1 6 2
f 2 6 10
f 2 10 15
f 2 15 20
f 2 20 23
f 2 23 19
f 2 19 14
f 2 14 9
f 2 9 5
f 3 5 9
f 3 9 7
f 4 8 10
f 4 10 6
f 7 9 14
f 7 14 11
f 8 12 13
f 8 13 10
f 10 13 15
f 11 14 19
f 11 19 16
f 12 17 18
f 12 18 13
f 13 18 15
f 15 18 20
f 16 19 23
f 16 23 21
f 17 22 20
f 17 20 18
f 17 21 22
f 20 22 23
f 21 23 22

