# https://github.com/mikedh/trimesh

o right_ankle_cross_axis_carrier_020.obj
v 0.08160000 -0.02245457 -0.04185053
v 0.08293359 -0.02291689 -0.04117054
v 0.08160000 -0.02272536 -0.04145218
v 0.08160000 -0.02157247 -0.04185053
v 0.08560000 -0.02245457 -0.04185053
v 0.08160000 -0.02329964 -0.04060691
v 0.08560000 -0.02272536 -0.04145218
v 0.08560000 -0.02329964 -0.04060691
v 0.08160000 -0.02157247 -0.03877639
v 0.08560000 -0.02157247 -0.04185053
v 0.08160000 -0.02381027 -0.03972150
v 0.08426640 -0.02364016 -0.04001664
v 0.08560000 -0.02381027 -0.03972150
v 0.08160000 -0.02180913 -0.03840469
v 0.08560000 -0.02157247 -0.03877639
v 0.08160000 -0.02432061 -0.03883575
v 0.08560000 -0.02432061 -0.03883575
v 0.08160000 -0.02452804 -0.03840469
v 0.08560000 -0.02180913 -0.03840469
v 0.08560000 -0.02452804 -0.03840469
f 1 2 3
f 1 3 6
f 1 6 11
f 1 11 16
f 1 16 18
f 1 18 14
f 1 14 9
f 1 9 4
f 1 4 10
f 1 10 5
f 1 5 2
f 2 6 3
f 2 5 7
f 2 7 8
f 2 8 6
f 4 9 15
f 4 15 10
f 5 10 15
f 5 15 19
f 5 19 20
f 5 20 17
f 5 17 13
f 5 13 8
f 5 8 7
f 6 8 12
f 6 12 11
f 8 13 12
f 9 14 19
f 9 19 15
f 11 12 13
f 11 13 17
f 11 17 16
f 14 18 20
f 14 20 19
f 16 17 20
f 16 20 18

