# https://github.com/mikedh/trimesh

o right_shin_idler_fork_plate_061.obj
v -0.01587287 0.04275000 0.00184302
v -0.01580121 0.04275000 0.00251400
v -0.01587287 0.04342615 0.00184302
v -0.00622596 0.04275000 0.00184302
v -0.01561663 0.04342615 0.00339004
v -0.01580121 0.04342615 0.00251400
v -0.01547223 0.04275000 0.00407454
v -0.00931276 0.04342615 0.00184302
v -0.00622596 0.04324996 0.00184302
v -0.00478192 0.04275000 0.00440077
v -0.01547223 0.04342615 0.00407454
v -0.01536799 0.04275000 0.00440077
v -0.00841267 0.04342615 0.00440077
v -0.00478192 0.04324996 0.00440077
v -0.01536799 0.04342615 0.00440077
f 1 2 6
f 1 6 3
f 1 3 8
f 1 8 9
f 1 9 4
f 1 4 10
f 1 10 12
f 1 12 7
f 1 7 2
f 2 5 6
f 2 7 5
f 3 6 5
f 3 5 11
f 3 11 15
f 3 15 13
f 3 13 8
f 4 9 14
f 4 14 10
f 5 7 11
f 7 12 15
f 7 15 11
f 8 13 14
f 8 14 9
f 10 14 13
f 10 13 15
f 10 15 12

