# https://github.com/mikedh/trimesh

o right_hip_yaw_output_adapter_012.obj
v 0.00593063 0.00536501 0.02010011
v 0.00771103 0.00213133 0.02010011
v 0.00593063 0.00536501 0.02153090
v 0.00593063 0.02116086 0.02010011
v 0.00771103 0.00213133 0.02119712
v 0.01054232 0.00213133 0.02010011
v 0.00771148 0.00213133 0.02153090
v 0.00593063 0.02116086 0.02153090
v 0.00653779 0.02099322 0.02119712
v 0.00679871 0.02092057 0.02010011
v 0.01054232 0.00213133 0.02119712
v 0.01054232 0.01930001 0.02010011
v 0.01051795 0.00213133 0.02153090
v 0.00679871 0.02092057 0.02153090
v 0.00711832 0.02080136 0.02153090
v 0.00772276 0.02057411 0.02010011
v 0.01054232 0.01930001 0.02119712
v 0.01042496 0.01937079 0.02010011
v 0.01051795 0.01931491 0.02119712
v 0.01051795 0.01931491 0.02153090
v 0.00814574 0.02041578 0.02153090
v 0.00864637 0.02022764 0.02010011
v 0.00984533 0.01965020 0.02153090
v 0.01042496 0.01937079 0.02119712
v 0.01042450 0.01937079 0.02153090
v 0.00864592 0.02022764 0.02153090
v 0.00864637 0.02022764 0.02119712
v 0.00889013 0.02011029 0.02119712
f 1 2 5
f 1 5 3
f 1 3 8
f 1 8 4
f 1 4 10
f 1 10 16
f 1 16 22
f 1 22 18
f 1 18 12
f 1 12 6
f 1 6 2
f 2 6 11
f 2 11 13
f 2 13 7
f 2 7 5
f 3 5 7
f 3 7 13
f 3 13 20
f 3 20 25
f 3 25 23
f 3 23 26
f 3 26 21
f 3 21 15
f 3 15 14
f 3 14 8
f 4 8 9
f 4 9 10
f 6 12 17
f 6 17 11
f 8 14 9
f 9 14 10
f 10 15 16
f 10 14 15
f 11 17 20
f 11 20 13
f 12 18 19
f 12 19 20
f 12 20 17
f 15 21 22
f 15 22 16
f 18 23 24
f 18 24 20
f 18 20 19
f 18 22 23
f 20 24 25
f 21 26 27
f 21 27 22
f 22 28 23
f 22 27 28
f 23 25 24
f 23 28 26
f 26 28 27

