# https://github.com/mikedh/trimesh

o right_hip_roll_output_adapter_016.obj
v 0.02625039 -0.01329895 -0.01491222
v 0.02625039 -0.01246944 -0.01563677
v 0.02758359 -0.01292021 -0.01524335
v 0.03024961 -0.01329895 -0.01491222
v 0.02625039 -0.00866795 -0.01491222
v 0.03024961 -0.01246944 -0.01563677
v 0.02625039 -0.01101750 -0.01669176
v 0.03024961 -0.00866795 -0.01491222
v 0.02625039 -0.00755029 -0.01502130
v 0.03024961 -0.01101750 -0.01669176
v 0.02625039 -0.00947777 -0.01761162
v 0.03024961 -0.00755029 -0.01502130
v 0.02625039 -0.00755029 -0.01850720
v 0.03024961 -0.00947777 -0.01761162
v 0.02625039 -0.00866907 -0.01800117
v 0.03024961 -0.00755029 -0.01850720
v 0.02625039 -0.00786094 -0.01839037
v 0.03024961 -0.00866907 -0.01800117
v 0.03024961 -0.00786094 -0.01839037
f 1 2 3
f 1 3 4
f 1 4 8
f 1 8 5
f 1 5 9
f 1 9 13
f 1 13 17
f 1 17 15
f 1 15 11
f 1 11 7
f 1 7 2
f 2 6 3
f 2 7 10
f 2 10 6
f 3 6 4
f 4 6 10
f 4 10 14
f 4 14 18
f 4 18 19
f 4 19 16
f 4 16 12
f 4 12 8
f 5 8 12
f 5 12 9
f 7 11 14
f 7 14 10
f 9 12 16
f 9 16 13
f 11 15 18
f 11 18 14
f 13 16 19
f 13 19 17
f 15 17 19
f 15 19 18

