# https://github.com/mikedh/trimesh

o right_ankle_roll_bearing_cover_014.obj
v -0.03275000 0.01253582 0.00134846
v -0.03275000 0.01373252 -0.00054846
v -0.03175000 0.01253582 0.00134846
v -0.03275000 0.01253582 0.00158394
v -0.03275000 0.01397945 -0.00054846
v -0.03175000 0.01373252 -0.00054846
v -0.03175000 0.01253582 0.00158394
v -0.03273590 0.01347698 0.00158414
v -0.03275000 0.01347741 0.00158414
v -0.03175000 0.01397945 -0.00054846
v -0.03275000 0.01399995 0.00000014
v -0.03175000 0.01347741 0.00158414
v -0.03176410 0.01347698 0.00158414
v -0.03275000 0.01390020 0.00158414
v -0.03175000 0.01399995 0.00000014
v -0.03275000 0.01396082 0.00104619
v -0.03175000 0.01390020 0.00158414
v -0.03175000 0.01396082 0.00104619
f 1 2 6
f 1 6 3
f 1 3 7
f 1 7 4
f 1 4 9
f 1 9 14
f 1 14 16
f 1 16 11
f 1 11 5
f 1 5 2
f 2 5 10
f 2 10 6
f 3 6 10
f 3 10 15
f 3 15 18
f 3 18 17
f 3 17 12
f 3 12 7
f 4 7 13
f 4 13 8
f 4 8 9
f 5 11 15
f 5 15 10
f 7 12 13
f 8 13 12
f 8 12 17
f 8 17 14
f 8 14 9
f 11 16 18
f 11 18 15
f 14 17 18
f 14 18 16

