# https://github.com/mikedh/trimesh

o right_ankle_pitch_bearing_cover_013.obj
v -0.00736636 0.05475000 0.01158431
v -0.00736636 0.05475000 0.01189424
v -0.00736636 0.05575000 0.01158431
v -0.00536485 0.05475000 0.01184353
v -0.00729544 0.05508340 0.01193880
v -0.00736636 0.05575000 0.01189424
v -0.00699999 0.05475000 0.01212437
v -0.00536485 0.05575000 0.01184353
v -0.00536485 0.05475000 0.01292299
v -0.00699999 0.05575000 0.01212437
v -0.00607447 0.05475000 0.01261345
v -0.00536485 0.05575000 0.01292299
v -0.00543480 0.05508340 0.01289259
v -0.00559467 0.05475000 0.01282287
v -0.00607447 0.05575000 0.01261345
v -0.00559467 0.05575000 0.01282287
f 1 2 6
f 1 6 3
f 1 3 8
f 1 8 4
f 1 4 9
f 1 9 14
f 1 14 11
f 1 11 7
f 1 7 2
f 2 5 6
f 2 7 5
f 3 6 10
f 3 10 15
f 3 15 16
f 3 16 12
f 3 12 8
f 4 8 12
f 4 12 9
f 5 7 10
f 5 10 6
f 7 11 15
f 7 15 10
f 9 13 14
f 9 12 13
f 11 14 16
f 11 16 15
f 12 16 13
f 13 16 14

