# https://github.com/mikedh/trimesh

o right_thigh_stationary_idler_spider_018.obj
v 0.06733332 0.03114947 -0.01327266
v 0.06733332 0.03114947 -0.01781373
v 0.06721881 0.03114947 -0.01327266
v 0.06733332 0.02575180 -0.01327266
v 0.06686743 0.03114947 -0.01792003
v 0.06733332 0.02575180 -0.01781373
v 0.06686765 0.02575180 -0.01792003
v 0.06504397 0.03114947 -0.01380326
v 0.06721881 0.02575180 -0.01327266
v 0.06637330 0.03114947 -0.01798197
v 0.06637330 0.02575180 -0.01798197
v 0.06504397 0.03114947 -0.01789785
v 0.06504397 0.02575180 -0.01380326
v 0.06587559 0.03114947 -0.01799445
v 0.06587581 0.02575180 -0.01799399
v 0.06587559 0.02845037 -0.01799445
v 0.06537900 0.03114947 -0.01795701
v 0.06521541 0.02934972 -0.01792835
v 0.06504397 0.02575180 -0.01789785
v 0.06554438 0.02755049 -0.01796949
v 0.06562707 0.02575180 -0.01797550
v 0.06537900 0.02575180 -0.01795701
f 1 2 5
f 1 5 10
f 1 10 14
f 1 14 17
f 1 17 12
f 1 12 8
f 1 8 3
f 1 3 9
f 1 9 4
f 1 4 6
f 1 6 2
f 2 6 7
f 2 7 5
f 3 8 13
f 3 13 9
f 4 9 13
f 4 13 19
f 4 19 22
f 4 22 21
f 4 21 15
f 4 15 11
f 4 11 7
f 4 7 6
f 5 7 10
f 7 11 10
f 8 12 19
f 8 19 13
f 10 11 16
f 10 16 14
f 11 15 16
f 12 17 18
f 12 18 19
f 14 16 20
f 14 20 17
f 15 21 16
f 16 21 22
f 16 22 20
f 17 20 22
f 17 22 18
f 18 22 19

