# https://github.com/mikedh/trimesh

o right_foot_front_saddle_133.obj
v 0.02721036 0.01382950 0.01443449
v 0.02721036 0.01383936 0.01442540
v 0.02660000 0.01382950 0.01443449
v 0.02721036 0.01168731 0.01443449
v 0.02757831 0.01490093 0.01332587
v 0.02721036 0.01466167 0.01360254
v 0.02660000 0.01466167 0.01360254
v 0.02660000 0.01168731 0.01443449
v 0.02721036 0.01168731 0.00940054
v 0.02757831 0.01261741 0.01332587
v 0.02757831 0.01546360 0.01267056
v 0.02721045 0.01490093 0.01332587
v 0.02660000 0.01563581 0.01246923
v 0.02660000 0.01168731 0.00940054
v 0.02757831 0.01261741 0.00923233
v 0.02757831 0.01412333 0.00779963
v 0.02757831 0.01563581 0.01246923
v 0.02721036 0.01642591 0.01139957
v 0.02660000 0.01652451 0.01126578
v 0.02660000 0.01412333 0.00780028
v 0.02721045 0.01412333 0.00779963
v 0.02757831 0.01840181 0.00779963
v 0.02757831 0.01652385 0.01126578
v 0.02721036 0.01652451 0.01126578
v 0.02721036 0.01724098 0.01012729
v 0.02660000 0.01692153 0.01063386
v 0.02660000 0.01840246 0.00780028
v 0.02721045 0.01840181 0.00779963
v 0.02721036 0.01840246 0.00780028
v 0.02757831 0.01811456 0.00845948
v 0.02757831 0.01721929 0.01016041
v 0.02757831 0.01731920 0.01000129
v 0.02721045 0.01731066 0.01001558
v 0.02660000 0.01731920 0.01000064
v 0.02660000 0.01831833 0.00799317
v 0.02721036 0.01815203 0.00837440
v 0.02757831 0.01802977 0.00865366
v 0.02721045 0.01731920 0.01000129
v 0.02757831 0.01738165 0.00988374
v 0.02721036 0.01735864 0.00992790
v 0.02660000 0.01801859 0.00867834
v 0.02721036 0.01802582 0.00866341
v 0.02757831 0.01801793 0.00867899
v 0.02757831 0.01786215 0.00897515
v 0.02721045 0.01798047 0.00875173
v 0.02721036 0.01801136 0.00869328
v 0.02757831 0.01801202 0.00869133
f 1 2 3
f 1 3 8
f 1 8 4
f 1 4 10
f 1 10 5
f 1 5 2
f 2 6 7
f 2 7 3
f 2 5 6
f 3 7 13
f 3 13 19
f 3 19 26
f 3 26 34
f 3 34 41
f 3 41 35
f 3 35 27
f 3 27 20
f 3 20 14
f 3 14 8
f 4 8 14
f 4 14 9
f 4 9 15
f 4 15 10
f 5 11 12
f 5 12 7
f 5 7 6
f 5 10 15
f 5 15 16
f 5 16 22
f 5 22 30
f 5 30 37
f 5 37 43
f 5 43 47
f 5 47 44
f 5 44 39
f 5 39 32
f 5 32 31
f 5 31 23
f 5 23 17
f 5 17 11
f 7 12 13
f 9 14 21
f 9 21 16
f 9 16 15
f 11 13 12
f 11 17 13
f 13 17 18
f 13 18 19
f 14 20 21
f 16 21 28
f 16 28 22
f 17 23 18
f 18 23 24
f 18 24 19
f 19 24 25
f 19 25 26
f 20 27 28
f 20 28 21
f 22 28 27
f 22 27 29
f 22 29 30
f 23 31 25
f 23 25 24
f 25 31 32
f 25 32 33
f 25 33 34
f 25 34 26
f 27 35 29
f 29 35 36
f 29 36 30
f 30 36 37
f 32 38 33
f 32 39 40
f 32 40 38
f 33 38 34
f 34 38 40
f 34 40 41
f 35 41 42
f 35 42 36
f 36 42 37
f 37 42 43
f 39 44 40
f 40 44 45
f 40 45 41
f 41 45 46
f 41 46 42
f 42 46 47
f 42 47 43
f 44 47 46
f 44 46 45

