# https://github.com/mikedh/trimesh

o right_foot_front_saddle_026.obj
v 0.02974312 -0.00942858 0.01314086
v 0.02949739 -0.00942858 0.01314086
v 0.02974312 -0.01505814 0.01314086
v 0.03059111 0.01538346 0.01275597
v 0.02974323 0.01538346 0.01275597
v 0.02949750 0.01462345 0.01239679
v 0.02949739 -0.00865137 0.01239719
v 0.02949739 -0.01505814 0.01314086
v 0.03059111 -0.01538484 0.01275597
v 0.02949739 -0.01540548 0.01273789
v 0.02974312 -0.01563589 0.01246951
v 0.03059111 0.01563107 0.01246911
v 0.02974323 0.01563107 0.01246911
v 0.02949750 0.01462345 0.00903644
v 0.02974323 0.01566889 0.01241929
v 0.02974323 0.01608501 0.01185562
v 0.02974323 0.01648049 0.01131846
v 0.02974323 0.01651832 0.01126623
v 0.02974323 0.01730584 0.01001876
v 0.02949739 -0.01568747 0.01239719
v 0.03059111 -0.01562901 0.01246911
v 0.02949739 -0.01563589 0.01246951
v 0.03059111 -0.01651970 0.01126623
v 0.03059111 0.01587523 0.01213886
v 0.02974312 0.01462345 0.00903644
v 0.02949750 -0.01782650 0.00903644
v 0.03059111 0.01651832 0.01126623
v 0.03026658 0.01705135 0.01042293
v 0.03059111 0.01730584 0.01001876
v 0.02949750 -0.01731409 0.01000027
v 0.02949750 -0.01693925 0.01060011
v 0.02949750 -0.01651970 0.01126543
v 0.02974323 -0.01651970 0.01126623
v 0.02974312 -0.01660223 0.01113526
v 0.02974312 -0.01714559 0.01027187
v 0.03059111 -0.01730378 0.01001876
v 0.02974312 -0.01782650 0.00903644
v 0.02974312 -0.01734505 0.00994322
v 0.02974312 -0.01731409 0.01000027
v 0.02974323 -0.01730378 0.01001876
f 1 2 8
f 1 8 3
f 1 3 9
f 1 9 4
f 1 4 5
f 1 5 2
f 2 5 6
f 2 6 7
f 2 7 20
f 2 20 22
f 2 22 10
f 2 10 8
f 3 8 10
f 3 10 11
f 3 11 9
f 4 12 13
f 4 13 5
f 4 9 21
f 4 21 23
f 4 23 36
f 4 36 29
f 4 29 27
f 4 27 24
f 4 24 12
f 5 13 6
f 6 14 7
f 6 13 15
f 6 15 16
f 6 16 17
f 6 17 18
f 6 18 19
f 6 19 14
f 7 14 26
f 7 26 20
f 9 11 21
f 10 22 11
f 11 22 33
f 11 33 23
f 11 23 21
f 12 24 15
f 12 15 13
f 14 19 29
f 14 29 25
f 14 25 37
f 14 37 26
f 15 24 16
f 16 24 27
f 16 27 17
f 17 27 18
f 18 27 28
f 18 28 19
f 19 28 29
f 20 26 30
f 20 30 31
f 20 31 32
f 20 32 22
f 22 32 33
f 23 33 34
f 23 34 31
f 23 31 35
f 23 35 36
f 25 29 36
f 25 36 37
f 26 37 38
f 26 38 30
f 27 29 28
f 30 38 39
f 30 39 36
f 30 36 40
f 30 40 31
f 31 34 33
f 31 33 32
f 31 40 35
f 35 40 36
f 36 39 38
f 36 38 37

