# https://github.com/mikedh/trimesh

o right_shin_output_adapter_024.obj
v -0.00376055 -0.03336523 0.01043602
v -0.01070180 -0.03336523 0.01043602
v -0.00376055 -0.03462061 0.01043602
v -0.00376055 -0.03336523 0.00178365
v -0.01070180 -0.03386853 0.01043602
v -0.01070180 -0.03336523 0.00178365
v -0.00985996 -0.03462061 0.01043602
v -0.00376055 -0.03495056 0.01043517
v -0.00376055 -0.03495056 0.00178365
v -0.01070180 -0.03386853 0.00178365
v -0.01030636 -0.03462061 0.00595230
v -0.00999925 -0.03495056 0.01043517
v -0.00999925 -0.03495056 0.00178365
v -0.01030636 -0.03462061 0.00178365
f 1 2 5
f 1 5 7
f 1 7 3
f 1 3 8
f 1 8 9
f 1 9 4
f 1 4 6
f 1 6 2
f 2 6 10
f 2 10 5
f 3 7 12
f 3 12 8
f 4 9 13
f 4 13 14
f 4 14 10
f 4 10 6
f 5 10 14
f 5 14 11
f 5 11 12
f 5 12 7
f 8 12 13
f 8 13 9
f 11 14 13
f 11 13 12

