# https://github.com/mikedh/trimesh

o right_thigh_idler_fork_plate_047.obj
v 0.00753139 0.03705278 0.00577903
v 0.00753139 0.04175000 0.00577903
v 0.01491122 0.03705278 0.00577903
v 0.00247229 0.03705278 0.00917301
v 0.01491122 0.04175000 0.00577903
v 0.00247229 0.04175000 0.00917301
v 0.01456177 0.03808363 0.00658735
v 0.01444245 0.03705278 0.00686169
v 0.00247229 0.03705278 0.01578854
v 0.01434991 0.04175000 0.00707529
v 0.00247229 0.04175000 0.01578854
v 0.01434991 0.03705278 0.00707529
v 0.00274747 0.03705278 0.01574249
v 0.00289480 0.03808363 0.01571799
v 0.01429390 0.03705278 0.00717718
v 0.01396272 0.04175000 0.00777192
v 0.00341836 0.04175000 0.01562982
v 0.00341836 0.03705278 0.01562982
v 0.01383365 0.03808363 0.00800413
v 0.01368754 0.03705278 0.00826573
v 0.01357431 0.04175000 0.00846855
v 0.00353160 0.03705278 0.01559944
v 0.00393218 0.03991635 0.01549068
v 0.00495740 0.04175000 0.01521242
v 0.01357431 0.03705278 0.00846855
v 0.01311892 0.04175000 0.00912402
v 0.01279748 0.03705278 0.00958746
v 0.01327112 0.03808363 0.00890553
v 0.00386765 0.03705278 0.01550832
v 0.00430112 0.03705278 0.01539075
v 0.00495740 0.03705278 0.01521242
v 0.00595096 0.03808363 0.01483324
v 0.00644773 0.04175000 0.01464317
v 0.01293020 0.03705278 0.00939640
v 0.01266354 0.04175000 0.00977852
v 0.01266354 0.03705278 0.00977852
v 0.00622978 0.03705278 0.01472645
v 0.00644773 0.03705278 0.01464317
v 0.00739868 0.03808363 0.01416699
v 0.00787353 0.04175000 0.01392890
v 0.01214607 0.04175000 0.01038403
v 0.01231897 0.03991635 0.01018219
v 0.01207058 0.03705278 0.01047319
v 0.00787353 0.03705278 0.01392890
v 0.00807079 0.03705278 0.01380447
v 0.00922019 0.04175000 0.01307551
v 0.01197317 0.03808363 0.01058685
v 0.01162737 0.04175000 0.01098954
v 0.01162737 0.03705278 0.01098954
v 0.00844946 0.03705278 0.01356442
v 0.00912157 0.03705278 0.01313821
v 0.00922019 0.03705278 0.01307551
v 0.00963905 0.03991635 0.01274826
v 0.01047553 0.04175000 0.01209278
v 0.01086029 0.03808363 0.01172536
v 0.01129132 0.03705278 0.01131189
v 0.01029289 0.03705278 0.01223583
v 0.01047553 0.03705278 0.01209278
v 0.01064356 0.03705278 0.01193209
f 1 2 5
f 1 5 3
f 1 3 8
f 1 8 12
f 1 12 15
f 1 15 20
f 1 20 25
f 1 25 34
f 1 34 27
f 1 27 36
f 1 36 43
f 1 43 49
f 1 49 56
f 1 56 59
f 1 59 58
f 1 58 57
f 1 57 52
f 1 52 51
f 1 51 50
f 1 50 45
f 1 45 44
f 1 44 38
f 1 38 37
f 1 37 31
f 1 31 30
f 1 30 29
f 1 29 22
f 1 22 18
f 1 18 13
f 1 13 9
f 1 9 4
f 1 4 6
f 1 6 2
f 2 6 11
f 2 11 17
f 2 17 24
f 2 24 33
f 2 33 40
f 2 40 46
f 2 46 54
f 2 54 48
f 2 48 41
f 2 41 35
f 2 35 26
f 2 26 21
f 2 21 16
f 2 16 10
f 2 10 5
f 3 5 7
f 3 7 8
f 4 9 11
f 4 11 6
f 5 10 7
f 7 10 12
f 7 12 8
f 9 13 14
f 9 14 11
f 10 15 12
f 10 16 15
f 11 14 17
f 13 18 14
f 14 18 17
f 15 19 20
f 15 16 19
f 16 21 19
f 17 18 22
f 17 22 23
f 17 23 24
f 19 21 25
f 19 25 20
f 21 26 27
f 21 27 28
f 21 28 25
f 22 29 23
f 23 29 30
f 23 30 24
f 24 31 32
f 24 32 33
f 24 30 31
f 25 28 34
f 26 35 27
f 27 35 36
f 27 34 28
f 31 37 32
f 32 37 38
f 32 38 33
f 33 38 39
f 33 39 40
f 35 41 42
f 35 42 43
f 35 43 36
f 38 44 39
f 39 44 40
f 40 44 45
f 40 45 46
f 41 47 43
f 41 43 42
f 41 48 47
f 43 47 49
f 45 50 46
f 46 51 52
f 46 52 53
f 46 53 54
f 46 50 51
f 47 48 49
f 48 55 49
f 48 54 55
f 49 55 56
f 52 57 53
f 53 57 58
f 53 58 54
f 54 58 55
f 55 58 59
f 55 59 56

