# https://github.com/mikedh/trimesh

o right_thigh_stationary_idler_spider_005.obj
v 0.06587559 0.03114947 -0.00800555
v 0.06637330 0.03114947 -0.00801832
v 0.06537900 0.03114947 -0.00804302
v 0.06537855 0.02575180 -0.00804302
v 0.06587559 0.02845037 -0.00800555
v 0.06637330 0.02845037 -0.00801832
v 0.06686743 0.03114947 -0.00808008
v 0.06504397 0.03114947 -0.00810191
v 0.06504397 0.02575180 -0.00810191
v 0.06587536 0.02575180 -0.00800596
v 0.06612456 0.02575180 -0.00801214
v 0.06637308 0.02575180 -0.00801832
v 0.06653801 0.02755049 -0.00803891
v 0.06686743 0.02845037 -0.00808008
v 0.06719124 0.02755049 -0.00815379
v 0.06733332 0.03114947 -0.00818632
v 0.06504397 0.03114947 -0.01219700
v 0.06504397 0.02575180 -0.01219700
v 0.06662025 0.02575180 -0.00804920
v 0.06686720 0.02575180 -0.00808008
v 0.06733332 0.02575180 -0.00818632
v 0.06733332 0.03114947 -0.01221223
v 0.06696939 0.03114947 -0.01221223
v 0.06696939 0.02575180 -0.01221223
v 0.06733332 0.02575180 -0.01221223
f 1 2 7
f 1 7 16
f 1 16 22
f 1 22 23
f 1 23 17
f 1 17 8
f 1 8 3
f 1 3 4
f 1 4 5
f 1 5 6
f 1 6 2
f 2 6 13
f 2 13 14
f 2 14 7
f 3 8 4
f 4 9 18
f 4 18 24
f 4 24 25
f 4 25 21
f 4 21 20
f 4 20 19
f 4 19 12
f 4 12 11
f 4 11 10
f 4 10 5
f 4 8 9
f 5 10 11
f 5 11 12
f 5 12 6
f 6 12 13
f 7 14 15
f 7 15 16
f 8 17 18
f 8 18 9
f 12 19 13
f 13 19 14
f 14 19 20
f 14 20 15
f 15 20 21
f 15 21 16
f 16 21 25
f 16 25 22
f 17 23 24
f 17 24 18
f 22 25 24
f 22 24 23

