# https://github.com/mikedh/trimesh

o right_ankle_pitch_output_post_2_002.obj
v -0.01287408 -0.02925000 -0.00782657
v -0.01061838 -0.02925000 -0.00793593
v -0.01287408 -0.02925000 -0.01004148
v -0.01287408 -0.03925000 -0.00782657
v -0.01061838 -0.02925000 -0.01007991
v -0.01061838 -0.03925000 -0.00793593
v -0.01284647 -0.02925000 -0.01005121
v -0.01287408 -0.03925000 -0.01004148
v -0.01065990 -0.02925000 -0.01009438
v -0.01061838 -0.03925000 -0.01007991
v -0.01272280 -0.02925000 -0.01009438
v -0.01280518 -0.03258399 -0.01006568
v -0.01284647 -0.03925000 -0.01005121
v -0.01091254 -0.02925000 -0.01016223
v -0.01065990 -0.03925000 -0.01009438
v -0.01247016 -0.02925000 -0.01016223
v -0.01272280 -0.03925000 -0.01009438
v -0.01116983 -0.02925000 -0.01021086
v -0.01091254 -0.03925000 -0.01016223
v -0.01221287 -0.02925000 -0.01021086
v -0.01247016 -0.03925000 -0.01016223
v -0.01142998 -0.02925000 -0.01024004
v -0.01116983 -0.03925000 -0.01021086
v -0.01125640 -0.03591601 -0.01022058
v -0.01195272 -0.02925000 -0.01024004
v -0.01203951 -0.03258399 -0.01023031
v -0.01221287 -0.03925000 -0.01021086
v -0.01151699 -0.03258399 -0.01024336
v -0.01169146 -0.02925000 -0.01025000
v -0.01142998 -0.03925000 -0.01024004
v -0.01186571 -0.03591601 -0.01024336
v -0.01195272 -0.03925000 -0.01024004
v -0.01169146 -0.03925000 -0.01025000
f 1 2 5
f 1 5 9
f 1 9 14
f 1 14 18
f 1 18 22
f 1 22 29
f 1 29 25
f 1 25 20
f 1 20 16
f 1 16 11
f 1 11 7
f 1 7 3
f 1 3 8
f 1 8 4
f 1 4 6
f 1 6 2
f 2 6 10
f 2 10 5
f 3 7 13
f 3 13 8
f 4 8 13
f 4 13 17
f 4 17 21
f 4 21 27
f 4 27 32
f 4 32 33
f 4 33 30
f 4 30 23
f 4 23 19
f 4 19 15
f 4 15 10
f 4 10 6
f 5 10 15
f 5 15 9
f 7 11 12
f 7 12 13
f 9 15 19
f 9 19 14
f 11 16 21
f 11 21 17
f 11 17 12
f 12 17 13
f 14 19 23
f 14 23 18
f 16 20 27
f 16 27 21
f 18 23 24
f 18 24 22
f 20 25 26
f 20 26 27
f 22 28 29
f 22 24 30
f 22 30 28
f 23 30 24
f 25 29 31
f 25 31 32
f 25 32 26
f 26 32 27
f 28 30 33
f 28 33 29
f 29 33 31
f 31 33 32

