# https://github.com/mikedh/trimesh

o right_ankle_roll_bearing_cover_003.obj
v -0.03175000 -0.00386388 0.01028222
v -0.03275000 -0.00386388 0.01028222
v -0.03175000 -0.00501508 0.01028222
v -0.03175000 -0.00386388 0.00756495
v -0.03275000 -0.00386388 0.00756495
v -0.03275000 -0.00501508 0.01028222
v -0.03175000 -0.01021195 0.00957014
v -0.03175000 -0.00765971 0.00368757
v -0.03275000 -0.00765971 0.00368757
v -0.03275000 -0.01021195 0.00957014
v -0.03175000 -0.01026192 0.00952107
v -0.03175000 -0.01349582 0.00368757
v -0.03275000 -0.01349582 0.00368757
v -0.03275000 -0.01026192 0.00952107
v -0.03175000 -0.01094453 0.00872829
v -0.03175000 -0.01337797 0.00412721
v -0.03275000 -0.01337797 0.00412721
v -0.03275000 -0.01094453 0.00872829
v -0.03175000 -0.01156680 0.00788581
v -0.03175000 -0.01303195 0.00511496
v -0.03275000 -0.01303195 0.00511496
v -0.03275000 -0.01156680 0.00788581
v -0.03175000 -0.01212212 0.00699942
v -0.03175000 -0.01261334 0.00607494
v -0.03275000 -0.01261334 0.00607494
v -0.03275000 -0.01212212 0.00699942
v -0.03208340 -0.01228712 0.00669148
v -0.03175000 -0.01248323 0.00632091
v -0.03275000 -0.01248323 0.00632091
f 1 2 6
f 1 6 3
f 1 3 7
f 1 7 11
f 1 11 15
f 1 15 19
f 1 19 23
f 1 23 28
f 1 28 24
f 1 24 20
f 1 20 16
f 1 16 12
f 1 12 8
f 1 8 4
f 1 4 5
f 1 5 2
f 2 5 9
f 2 9 13
f 2 13 17
f 2 17 21
f 2 21 25
f 2 25 29
f 2 29 26
f 2 26 22
f 2 22 18
f 2 18 14
f 2 14 10
f 2 10 6
f 3 6 10
f 3 10 7
f 4 8 9
f 4 9 5
f 7 10 14
f 7 14 11
f 8 12 13
f 8 13 9
f 11 14 18
f 11 18 15
f 12 16 17
f 12 17 13
f 15 18 22
f 15 22 19
f 16 20 21
f 16 21 17
f 19 22 26
f 19 26 23
f 20 24 25
f 20 25 21
f 23 26 27
f 23 27 28
f 24 28 29
f 24 29 25
f 26 29 27
f 27 29 28

