# https://github.com/mikedh/trimesh

o right_thigh_output_adapter_076.obj
v -0.01270285 -0.02735179 0.01410901
v -0.01270285 -0.02735179 0.01541888
v -0.01270285 -0.02700605 0.01410901
v -0.00922361 -0.02735179 0.01410901
v -0.01270285 -0.02700605 0.01541888
v -0.01241495 -0.02735179 0.01564864
v -0.01226380 -0.02700605 0.01576935
v -0.00925295 -0.02625007 0.01464840
v -0.00922361 -0.02700605 0.01410901
v -0.00704659 -0.02680341 0.01466545
v -0.00709864 -0.02700594 0.01472109
v -0.00742142 -0.02735179 0.01496431
v -0.00925295 -0.02625007 0.01770298
v -0.01177269 -0.02735179 0.01616065
v -0.01167414 -0.02735179 0.01623918
v -0.01167414 -0.02700605 0.01623918
v -0.00896505 -0.02625007 0.01464840
v -0.00704659 -0.02625007 0.01466545
v -0.00704659 -0.02680341 0.01869245
v -0.00709864 -0.02700594 0.01867226
v -0.00742142 -0.02735179 0.01854571
v -0.00999985 -0.02700605 0.01732020
v -0.00928119 -0.02700605 0.01768907
v -0.00822646 -0.02700605 0.01822980
v -0.00911288 -0.02625007 0.01777478
v -0.00999985 -0.02735179 0.01732020
v -0.00704659 -0.02625007 0.01869245
v -0.00767556 -0.02680341 0.01844609
v -0.00822646 -0.02735179 0.01822980
v -0.00822590 -0.02625007 0.01822935
f 1 2 5
f 1 5 3
f 1 3 9
f 1 9 4
f 1 4 12
f 1 12 21
f 1 21 29
f 1 29 26
f 1 26 15
f 1 15 14
f 1 14 6
f 1 6 2
f 2 6 7
f 2 7 5
f 3 5 13
f 3 13 8
f 3 8 17
f 3 17 9
f 4 9 18
f 4 18 10
f 4 10 11
f 4 11 12
f 5 7 13
f 6 14 7
f 7 14 15
f 7 15 16
f 7 16 13
f 8 13 25
f 8 25 30
f 8 30 27
f 8 27 18
f 8 18 17
f 9 17 18
f 10 18 27
f 10 27 19
f 10 19 20
f 10 20 11
f 11 20 21
f 11 21 12
f 13 16 22
f 13 22 23
f 13 23 24
f 13 24 25
f 15 26 22
f 15 22 16
f 19 27 20
f 20 27 28
f 20 28 21
f 21 28 29
f 22 26 23
f 23 26 29
f 23 29 24
f 24 29 28
f 24 28 30
f 24 30 25
f 27 30 28

