# https://github.com/mikedh/trimesh

o right_ankle_cross_axis_carrier_059.obj
v -0.01062665 -0.04742052 -0.01360926
v -0.00958021 -0.04742052 -0.01360926
v -0.01063668 -0.04742052 -0.01360683
v -0.01063668 -0.04740541 -0.01360926
v -0.00958021 -0.04325000 -0.01360926
v -0.00722263 -0.04742052 -0.01245862
v -0.01063668 -0.04742052 -0.00945130
v -0.01063668 -0.04325000 -0.01360926
v -0.00722263 -0.04325000 -0.01245862
v -0.00722263 -0.04742052 -0.00741266
v -0.00886899 -0.04742052 -0.00741266
v -0.01063668 -0.04325000 -0.00945130
v -0.00722263 -0.04325000 -0.00741266
v -0.00886899 -0.04325000 -0.00741266
f 1 2 6
f 1 6 10
f 1 10 11
f 1 11 7
f 1 7 3
f 1 3 4
f 1 4 8
f 1 8 5
f 1 5 2
f 2 5 9
f 2 9 6
f 3 7 12
f 3 12 8
f 3 8 4
f 5 8 12
f 5 12 14
f 5 14 13
f 5 13 9
f 6 9 13
f 6 13 10
f 7 11 14
f 7 14 12
f 10 13 14
f 10 14 11

