# https://github.com/mikedh/trimesh

o right_hip_roll_output_adapter_028.obj
v 0.03004640 -0.00076184 -0.01997926
v 0.02915134 -0.00076132 -0.01997986
v 0.03024987 -0.00076184 -0.01997926
v 0.03004640 -0.00076184 -0.01493607
v 0.03004640 -0.00076132 -0.01997986
v 0.02915134 -0.00076132 -0.01520112
v 0.02915134 0.00089708 -0.01997986
v 0.03024987 0.00089708 -0.01997926
v 0.03024998 0.00078828 -0.01489099
v 0.03024987 -0.00076184 -0.01490722
v 0.03013125 -0.00076184 -0.01490722
v 0.02915134 -0.00075976 -0.01490902
v 0.03004640 0.00089708 -0.01997986
v 0.02915134 0.00115361 -0.01995582
v 0.03004640 0.00174536 -0.01990293
v 0.03024987 0.00189077 -0.01988910
v 0.03024998 0.00189077 -0.01489099
v 0.03024998 0.00156179 -0.01383980
v 0.03004651 0.00156179 -0.01383980
v 0.03001253 -0.00076132 -0.01490722
v 0.02915134 0.00115361 -0.01460671
v 0.03004640 0.00189077 -0.01988910
v 0.03024998 0.00189077 -0.01383980
v 0.03004651 0.00189077 -0.01383980
v 0.03004640 0.00189077 -0.01489219
f 1 2 5
f 1 5 3
f 1 3 10
f 1 10 11
f 1 11 4
f 1 4 6
f 1 6 2
f 2 6 12
f 2 12 21
f 2 21 14
f 2 14 7
f 2 7 13
f 2 13 5
f 3 5 13
f 3 13 8
f 3 8 17
f 3 17 9
f 3 9 10
f 4 11 12
f 4 12 6
f 7 14 15
f 7 15 13
f 8 13 15
f 8 15 16
f 8 16 17
f 9 17 23
f 9 23 18
f 9 18 10
f 10 18 19
f 10 19 11
f 11 19 20
f 11 20 12
f 12 20 19
f 12 19 21
f 14 22 15
f 14 21 25
f 14 25 22
f 15 22 16
f 16 22 25
f 16 25 24
f 16 24 23
f 16 23 17
f 18 23 24
f 18 24 19
f 19 24 21
f 21 24 25

