# https://github.com/mikedh/trimesh

o torso_shell_right_aft_092.obj
v -0.12533293 -0.09044602 0.27826096
v -0.12855331 -0.09044602 0.27827234
v -0.12909102 -0.08976398 0.27826096
v -0.12753906 -0.08770634 0.27826096
v -0.12977139 -0.09044602 0.29487353
v -0.12880761 -0.09044602 0.27900255
v -0.12909102 -0.09021188 0.27927739
v -0.12978692 -0.08887650 0.27826096
v -0.13067500 -0.08770634 0.27826096
v -0.13211049 -0.08770634 0.29487353
v -0.13297042 -0.09044602 0.29487353
v -0.12909005 -0.09044602 0.27984985
v -0.13008780 -0.08936249 0.28024504
v -0.13008780 -0.08862573 0.27856345
v -0.13008780 -0.08848305 0.27826096
v -0.13108750 -0.08771036 0.27942864
v -0.13183096 -0.08770634 0.28163552
v -0.13524837 -0.08770634 0.29487353
v -0.13314222 -0.09024594 0.29487353
v -0.13274719 -0.09044602 0.29366357
v -0.12939287 -0.09044602 0.28078171
v -0.13008101 -0.09005686 0.28194776
v -0.13107585 -0.08912486 0.28275766
v -0.13108265 -0.08844470 0.28109071
v -0.13208040 -0.08770634 0.28241939
v -0.13522411 -0.08770634 0.29473855
v -0.13511346 -0.08783213 0.29468976
v -0.13511832 -0.08786673 0.29487353
v -0.13361780 -0.08967950 0.29487353
v -0.13311601 -0.09005149 0.29383271
v -0.13238322 -0.09044602 0.29189742
v -0.12963454 -0.09044602 0.28153143
v -0.12982672 -0.09044602 0.28215756
v -0.13007421 -0.09044602 0.28297558
v -0.13023824 -0.09044602 0.28351876
v -0.13106712 -0.08976371 0.28444412
v -0.13206681 -0.08876198 0.28511253
v -0.13207652 -0.08813198 0.28345534
v -0.13248513 -0.08770634 0.28371067
v -0.13510084 -0.08770634 0.29412544
v -0.13488441 -0.08770634 0.29305697
v -0.13407980 -0.08860857 0.29269105
v -0.13411474 -0.08895401 0.29426205
v -0.13413027 -0.08906907 0.29487353
v -0.13307913 -0.08970390 0.29223569
v -0.13206196 -0.09044602 0.29046466
v -0.13034500 -0.09044602 0.28388468
v -0.13062259 -0.09044602 0.28486696
v -0.13096229 -0.09044602 0.28607367
v -0.13105547 -0.09035617 0.28614197
v -0.13205517 -0.08934586 0.28677622
v -0.13306651 -0.08771010 0.28569799
v -0.13305778 -0.08829317 0.28734380
v -0.13359839 -0.08770634 0.28763166
v -0.13450200 -0.08770634 0.29131358
v -0.13405941 -0.08820064 0.29110053
v -0.13305778 -0.08929329 0.29061915
v -0.13201925 -0.09040096 0.29011175
v -0.13149320 -0.09044602 0.28810816
v -0.13105450 -0.09044602 0.28642495
v -0.13205031 -0.08987931 0.28844480
v -0.13305098 -0.08882179 0.28898636
v -0.13406038 -0.08771895 0.28948563
f 1 2 3
f 1 3 8
f 1 8 15
f 1 15 9
f 1 9 4
f 1 4 5
f 1 5 11
f 1 11 20
f 1 20 31
f 1 31 46
f 1 46 59
f 1 59 60
f 1 60 49
f 1 49 48
f 1 48 47
f 1 47 35
f 1 35 34
f 1 34 33
f 1 33 32
f 1 32 21
f 1 21 12
f 1 12 6
f 1 6 2
f 2 6 7
f 2 7 3
f 3 7 8
f 4 9 17
f 4 17 25
f 4 25 39
f 4 39 54
f 4 54 55
f 4 55 41
f 4 41 40
f 4 40 26
f 4 26 18
f 4 18 10
f 4 10 5
f 5 10 18
f 5 18 28
f 5 28 44
f 5 44 29
f 5 29 19
f 5 19 11
f 6 12 7
f 7 12 13
f 7 13 14
f 7 14 8
f 8 14 15
f 9 14 16
f 9 16 17
f 9 15 14
f 11 19 20
f 12 21 13
f 13 21 22
f 13 22 23
f 13 23 24
f 13 24 16
f 13 16 14
f 16 24 17
f 17 24 25
f 18 26 27
f 18 27 28
f 19 29 30
f 19 30 20
f 20 30 31
f 21 32 22
f 22 32 33
f 22 33 34
f 22 34 35
f 22 35 36
f 22 36 23
f 23 36 37
f 23 37 38
f 23 38 24
f 24 38 25
f 25 38 39
f 26 40 27
f 27 40 41
f 27 41 42
f 27 42 43
f 27 43 28
f 28 43 44
f 29 44 30
f 30 44 43
f 30 43 45
f 30 45 31
f 31 45 46
f 35 47 36
f 36 47 48
f 36 48 49
f 36 49 50
f 36 50 51
f 36 51 37
f 37 52 38
f 37 51 53
f 37 53 52
f 38 52 39
f 39 52 54
f 41 55 56
f 41 56 42
f 42 56 57
f 42 57 45
f 42 45 43
f 45 57 46
f 46 57 58
f 46 58 59
f 49 60 50
f 50 60 59
f 50 59 61
f 50 61 51
f 51 61 62
f 51 62 53
f 52 53 54
f 53 62 63
f 53 63 54
f 54 63 55
f 55 63 56
f 56 63 62
f 56 62 57
f 57 62 61
f 57 61 58
f 58 61 59

