# https://github.com/mikedh/trimesh

o torso_shell_left_fore_114.obj
v 0.01786028 0.09515456 0.37050976
v 0.01786028 0.09515456 0.37387682
v 0.01558719 0.09515456 0.37100893
v 0.01558719 0.10617834 0.36044917
v 0.01786028 0.10606249 0.36040588
v 0.01786028 0.09568920 0.37345070
v 0.01670349 0.09515456 0.37403915
v 0.01558719 0.09515456 0.37408515
v 0.01558719 0.10638073 0.36026654
v 0.01654440 0.10629545 0.36032335
v 0.01786028 0.10786245 0.36200756
v 0.01786028 0.09607108 0.37314497
v 0.01672975 0.09714036 0.37245099
v 0.01558719 0.09556954 0.37375371
v 0.01558719 0.10639474 0.36027736
v 0.01558719 0.10641510 0.36029359
v 0.01558719 0.10645584 0.36033012
v 0.01558719 0.10728835 0.36107821
v 0.01661494 0.10718142 0.36112961
v 0.01668547 0.10806613 0.36193722
v 0.01786028 0.10749966 0.36239175
v 0.01672886 0.10038767 0.36960611
v 0.01786028 0.10156515 0.36829932
v 0.01558719 0.09661973 0.37291364
v 0.01558719 0.10000196 0.36995783
v 0.01558719 0.10811195 0.36181953
v 0.01663407 0.10784972 0.36217260
v 0.01658290 0.10763205 0.36240933
v 0.01558719 0.10815778 0.36186146
v 0.01654863 0.10739146 0.36266772
v 0.01786028 0.10711141 0.36280029
v 0.01647209 0.10527199 0.36487544
v 0.01558719 0.10465715 0.36545444
v 0.01558719 0.10039531 0.36957770
v 0.01786028 0.10562842 0.36433569
v 0.01651436 0.10715087 0.36292474
v 0.01558719 0.10672189 0.36334951
v 0.01646742 0.10644438 0.36366877
v 0.01786028 0.10683136 0.36309249
v 0.01786028 0.10587664 0.36408001
v 0.01786028 0.10655258 0.36338198
v 0.01786028 0.10670152 0.36322776
f 1 2 7
f 1 7 8
f 1 8 3
f 1 3 4
f 1 4 5
f 1 5 11
f 1 11 21
f 1 21 31
f 1 31 39
f 1 39 42
f 1 42 41
f 1 41 40
f 1 40 35
f 1 35 23
f 1 23 12
f 1 12 6
f 1 6 2
f 2 6 7
f 3 8 14
f 3 14 24
f 3 24 25
f 3 25 34
f 3 34 33
f 3 33 37
f 3 37 29
f 3 29 26
f 3 26 18
f 3 18 17
f 3 17 16
f 3 16 15
f 3 15 9
f 3 9 4
f 4 9 5
f 5 9 10
f 5 10 11
f 6 12 13
f 6 13 7
f 7 14 8
f 7 13 14
f 9 15 10
f 10 15 16
f 10 16 17
f 10 17 18
f 10 18 19
f 10 19 11
f 11 20 21
f 11 19 20
f 12 22 13
f 12 23 22
f 13 24 14
f 13 22 25
f 13 25 24
f 18 26 19
f 19 26 20
f 20 27 28
f 20 28 21
f 20 26 29
f 20 29 27
f 21 28 30
f 21 30 31
f 22 32 33
f 22 33 34
f 22 34 25
f 22 23 35
f 22 35 32
f 27 29 28
f 28 29 30
f 29 36 30
f 29 37 38
f 29 38 36
f 30 36 31
f 31 36 38
f 31 38 39
f 32 35 38
f 32 38 37
f 32 37 33
f 35 40 38
f 38 40 41
f 38 41 42
f 38 42 39

