# https://github.com/mikedh/trimesh

o torso_shell_right_aft_215.obj
v -0.11166431 -0.08340934 0.23936216
v -0.11536945 -0.07975216 0.23961770
v -0.11254956 -0.08141529 0.23831283
v -0.11254956 -0.08056566 0.23748369
v -0.11254901 -0.07970681 0.23666543
v -0.11112336 -0.07837957 0.23806681
v -0.11158113 -0.08340934 0.23947634
v -0.11536945 -0.08340934 0.24338688
v -0.11536945 -0.08262490 0.24254279
v -0.11536945 -0.08168244 0.24155598
v -0.11536945 -0.08072439 0.24058140
v -0.11557492 -0.07992082 0.24001868
v -0.11557492 -0.07892662 0.23905226
v -0.11536945 -0.07876364 0.23866487
v -0.11349264 -0.07726208 0.23540949
v -0.11349209 -0.07632387 0.23458308
v -0.11349209 -0.07617081 0.23445123
v -0.11331857 -0.07617081 0.23430035
v -0.11220141 -0.07617081 0.23573027
v -0.11536945 -0.07776095 0.23772428
v -0.11536945 -0.07674408 0.23679728
v -0.11158334 -0.07617081 0.23656757
v -0.10994726 -0.08340934 0.24186317
v -0.11024693 -0.08223303 0.24091713
v -0.11034499 -0.08340934 0.24125286
v -0.11539974 -0.08340934 0.24342493
v -0.11557492 -0.08281410 0.24298590
v -0.11557492 -0.08186526 0.24198550
v -0.11557492 -0.08090083 0.24099597
v -0.11557492 -0.07791614 0.23809807
v -0.11536945 -0.07617081 0.23628756
v -0.11557492 -0.07689077 0.23715748
v -0.11550110 -0.07617081 0.23643164
v -0.11235896 -0.07617081 0.23735457
v -0.11557492 -0.08340934 0.24818499
v -0.11148749 -0.08340934 0.24360979
v -0.11557492 -0.08340934 0.24364513
v -0.11557492 -0.07617081 0.23651999
v -0.11557492 -0.07617081 0.24060315
f 1 2 3
f 1 3 4
f 1 4 5
f 1 5 6
f 1 6 7
f 1 7 25
f 1 25 23
f 1 23 36
f 1 36 35
f 1 35 37
f 1 37 26
f 1 26 8
f 1 8 9
f 1 9 10
f 1 10 11
f 1 11 2
f 2 12 13
f 2 13 14
f 2 14 4
f 2 4 3
f 2 11 12
f 4 14 5
f 5 15 16
f 5 16 17
f 5 17 18
f 5 18 19
f 5 19 6
f 5 14 20
f 5 20 21
f 5 21 15
f 6 19 22
f 6 22 23
f 6 23 24
f 6 24 25
f 6 25 7
f 8 26 27
f 8 27 9
f 9 27 28
f 9 28 10
f 10 28 29
f 10 29 11
f 11 29 12
f 12 29 28
f 12 28 27
f 12 27 37
f 12 37 35
f 12 35 39
f 12 39 38
f 12 38 32
f 12 32 30
f 12 30 13
f 13 30 14
f 14 30 20
f 15 21 31
f 15 31 16
f 16 31 17
f 17 31 33
f 17 33 38
f 17 38 39
f 17 39 34
f 17 34 22
f 17 22 19
f 17 19 18
f 20 30 32
f 20 32 21
f 21 32 33
f 21 33 31
f 22 34 35
f 22 35 36
f 22 36 23
f 23 25 24
f 26 37 27
f 32 38 33
f 34 39 35

