# https://github.com/mikedh/trimesh

o torso_shell_left_aft_010.obj
v -0.09535607 0.11233416 0.27024009
v -0.09565622 0.11233416 0.27050049
v -0.09485495 0.11312033 0.27148725
v -0.09400540 0.11396471 0.27264487
v -0.09466703 0.11304832 0.27124330
v -0.09373135 0.11397551 0.27257817
v -0.08860534 0.11846448 0.27957414
v -0.08849964 0.11795737 0.27957414
v -0.08815773 0.11628361 0.27957414
v -0.08809639 0.11598294 0.27957414
v -0.09229978 0.11233416 0.27393040
v -0.09585588 0.11233416 0.27076179
v -0.09572016 0.11245839 0.27089336
v -0.09490454 0.11329737 0.27199708
v -0.09407718 0.11410934 0.27309987
v -0.09311540 0.11480489 0.27385365
v -0.09278393 0.11487511 0.27391030
v -0.09181823 0.11575549 0.27525339
v -0.09083296 0.11662148 0.27661476
v -0.08984770 0.11745866 0.27795511
v -0.08888331 0.11824723 0.27922603
v -0.09003431 0.11746946 0.27814333
v -0.08900076 0.11830604 0.27957414
v -0.09587415 0.11233416 0.27957414
v -0.09770114 0.11233416 0.27342240
v -0.09801043 0.11233416 0.27387193
v -0.09832232 0.11233416 0.27432785
v -0.09320022 0.11492552 0.27427120
v -0.09863682 0.11233416 0.27479930
v -0.09895394 0.11233416 0.27528355
v -0.09927366 0.11233416 0.27578150
v -0.09215753 0.11566607 0.27517025
v -0.09111876 0.11656507 0.27662573
v -0.09118009 0.11667969 0.27706794
v -0.09006302 0.11759969 0.27864037
v -0.08938573 0.11813860 0.27957414
v -0.10142820 0.11233416 0.27957414
v -0.09224105 0.11577590 0.27558140
v -0.09939241 0.11233416 0.27597337
v -0.09959860 0.11233416 0.27630777
v -0.09939502 0.11246559 0.27640462
v -0.09939633 0.11267263 0.27710175
v -0.09846456 0.11327696 0.27758782
v -0.09109527 0.11690474 0.27779157
v -0.09215362 0.11601535 0.27631965
v -0.09367915 0.11605496 0.27926349
v -0.09367393 0.11613778 0.27957414
v -0.09342860 0.11625420 0.27957414
v -0.09318065 0.11637122 0.27957414
v -0.08999125 0.11780313 0.27933019
v -0.08969110 0.11799997 0.27957414
v -0.09849066 0.11380568 0.27957414
v -0.10124942 0.11234196 0.27926166
v -0.10092970 0.11233416 0.27864128
v -0.09846587 0.11346900 0.27826850
v -0.09750931 0.11408654 0.27881397
v -0.09751061 0.11427618 0.27952663
v -0.09992746 0.11233416 0.27686054
v -0.10028372 0.11233416 0.27748001
v -0.09939241 0.11287728 0.27780801
v -0.09735923 0.11436200 0.27957414
v -0.09846195 0.11365924 0.27896015
v -0.09938458 0.11307952 0.27852616
v -0.10059431 0.11233416 0.27803186
f 1 2 3
f 1 3 4
f 1 4 5
f 1 5 6
f 1 6 7
f 1 7 8
f 1 8 9
f 1 9 10
f 1 10 11
f 1 11 24
f 1 24 37
f 1 37 54
f 1 54 64
f 1 64 59
f 1 59 58
f 1 58 40
f 1 40 39
f 1 39 31
f 1 31 30
f 1 30 29
f 1 29 27
f 1 27 26
f 1 26 25
f 1 25 12
f 1 12 2
f 2 12 13
f 2 13 3
f 3 13 14
f 3 14 4
f 4 6 5
f 4 14 15
f 4 15 16
f 4 16 6
f 6 16 17
f 6 17 7
f 7 17 18
f 7 18 19
f 7 19 20
f 7 20 21
f 7 21 22
f 7 22 23
f 7 23 36
f 7 36 51
f 7 51 49
f 7 49 48
f 7 48 47
f 7 47 61
f 7 61 52
f 7 52 37
f 7 37 24
f 7 24 10
f 7 10 9
f 7 9 8
f 10 24 11
f 12 25 13
f 13 25 14
f 14 25 26
f 14 26 27
f 14 27 15
f 15 28 16
f 15 27 29
f 15 29 30
f 15 30 31
f 15 31 28
f 16 32 18
f 16 18 17
f 16 28 32
f 18 32 19
f 19 32 20
f 20 32 33
f 20 33 21
f 21 33 22
f 22 33 34
f 22 34 35
f 22 35 23
f 23 35 36
f 28 38 32
f 28 31 39
f 28 39 40
f 28 40 41
f 28 41 42
f 28 42 43
f 28 43 38
f 32 38 33
f 33 38 34
f 34 44 35
f 34 38 45
f 34 45 46
f 34 46 47
f 34 47 48
f 34 48 44
f 35 44 49
f 35 49 50
f 35 50 51
f 35 51 36
f 37 52 53
f 37 53 54
f 38 43 55
f 38 55 56
f 38 56 57
f 38 57 45
f 40 58 41
f 41 58 42
f 42 58 59
f 42 59 60
f 42 60 43
f 43 60 55
f 44 48 49
f 45 57 61
f 45 61 46
f 46 61 47
f 49 51 50
f 52 61 57
f 52 57 62
f 52 62 53
f 53 62 63
f 53 63 54
f 54 63 60
f 54 60 64
f 55 60 63
f 55 63 62
f 55 62 56
f 56 62 57
f 59 64 60

