# https://github.com/mikedh/trimesh

o torso_shell_right_fore_152.obj
v 0.11807863 -0.00806076 0.25175064
v 0.12082738 -0.00806154 0.25175064
v 0.12016420 -0.00806154 0.25536251
v 0.11848447 -0.00011792 0.25175064
v 0.12342442 -0.00336193 0.25444402
v 0.12441919 -0.00470245 0.25586934
v 0.12434046 -0.00541315 0.25586934
v 0.12427900 -0.00596678 0.25586934
v 0.12411513 -0.00704682 0.25586934
v 0.12402743 -0.00751258 0.25586934
v 0.12400950 -0.00759733 0.25586934
v 0.12398198 -0.00772719 0.25586934
v 0.12395957 -0.00783060 0.25586934
v 0.12393653 -0.00793091 0.25586934
v 0.12390452 -0.00806154 0.25586934
v 0.12154561 -0.00078818 0.25175064
v 0.12053227 -0.00806154 0.25586934
v 0.12165636 -0.00012258 0.25586934
v 0.12330791 -0.00012181 0.25586934
v 0.12460931 -0.00012181 0.25586934
v 0.12356525 -0.00012181 0.25445289
v 0.12157122 -0.00012258 0.25175064
v 0.12342442 -0.00309289 0.25441378
v 0.12443712 -0.00449873 0.25586934
v 0.12155522 -0.00066455 0.25175064
v 0.12342442 -0.00282463 0.25438596
v 0.12461763 -0.00052536 0.25586934
v 0.12157186 -0.00015291 0.25175064
v 0.12342442 -0.00039162 0.25425492
v 0.12446080 -0.00421881 0.25586934
v 0.12444928 -0.00435955 0.25586934
v 0.12155842 -0.00060701 0.25175064
v 0.12342442 -0.00228500 0.25433838
v 0.12342442 -0.00255403 0.25436056
v 0.12448769 -0.00386812 0.25586934
v 0.12447744 -0.00400731 0.25586934
v 0.12446657 -0.00414649 0.25586934
v 0.12461251 -0.00093048 0.25586934
v 0.12342442 -0.00066299 0.25425855
v 0.12342442 -0.00052692 0.25425653
v 0.12157250 -0.00019256 0.25175064
v 0.12156930 -0.00036985 0.25175064
v 0.12456066 -0.00251127 0.25586934
v 0.12452674 -0.00327639 0.25586934
v 0.12451521 -0.00346146 0.25586934
v 0.12342442 -0.00120340 0.25427468
v 0.12450305 -0.00364652 0.25586934
v 0.12449345 -0.00378570 0.25586934
v 0.12460931 -0.00113186 0.25586934
v 0.12342442 -0.00079829 0.25426177
v 0.12157186 -0.00024621 0.25175064
v 0.12156994 -0.00033953 0.25175064
v 0.12342442 -0.00093359 0.25426540
v 0.12342442 -0.00106810 0.25426984
v 0.12459459 -0.00173059 0.25586934
v 0.12459779 -0.00163106 0.25586934
v 0.12460291 -0.00143123 0.25586934
v 0.12460035 -0.00153153 0.25586934
f 1 2 3
f 1 3 4
f 1 4 22
f 1 22 28
f 1 28 41
f 1 41 51
f 1 51 52
f 1 52 42
f 1 42 32
f 1 32 25
f 1 25 16
f 1 16 2
f 2 5 6
f 2 6 7
f 2 7 8
f 2 8 9
f 2 9 10
f 2 10 11
f 2 11 12
f 2 12 13
f 2 13 14
f 2 14 15
f 2 15 17
f 2 17 3
f 2 16 5
f 3 17 4
f 4 18 19
f 4 19 20
f 4 20 21
f 4 21 22
f 4 17 18
f 5 23 24
f 5 24 6
f 5 16 23
f 6 24 31
f 6 31 30
f 6 30 37
f 6 37 36
f 6 36 35
f 6 35 48
f 6 48 47
f 6 47 45
f 6 45 44
f 6 44 43
f 6 43 55
f 6 55 56
f 6 56 58
f 6 58 57
f 6 57 49
f 6 49 38
f 6 38 27
f 6 27 20
f 6 20 19
f 6 19 18
f 6 18 17
f 6 17 15
f 6 15 14
f 6 14 13
f 6 13 12
f 6 12 11
f 6 11 10
f 6 10 9
f 6 9 8
f 6 8 7
f 16 25 26
f 16 26 23
f 20 27 21
f 21 28 22
f 21 27 29
f 21 29 28
f 23 26 30
f 23 30 31
f 23 31 24
f 25 32 33
f 25 33 34
f 25 34 26
f 26 34 35
f 26 35 36
f 26 36 37
f 26 37 30
f 27 38 39
f 27 39 40
f 27 40 29
f 28 29 41
f 29 40 41
f 32 42 33
f 33 43 44
f 33 44 45
f 33 45 34
f 33 42 46
f 33 46 43
f 34 45 47
f 34 47 48
f 34 48 35
f 38 49 39
f 39 49 50
f 39 50 51
f 39 51 41
f 39 41 40
f 42 52 53
f 42 53 54
f 42 54 46
f 43 46 55
f 46 54 56
f 46 56 55
f 49 57 53
f 49 53 50
f 50 53 51
f 51 53 52
f 53 57 54
f 54 57 58
f 54 58 56

