# https://github.com/mikedh/trimesh

o torso_shell_right_fore_011.obj
v 0.00257583 -0.06034614 0.39435477
v 0.00257583 -0.05277908 0.39435477
v 0.00431188 -0.06042554 0.39435477
v 0.00961950 -0.05702066 0.39557240
v 0.01253779 -0.04940131 0.39815847
v 0.00589878 -0.04909336 0.39815847
v 0.00257583 -0.04893842 0.39815847
v 0.01665212 -0.05324972 0.39435477
v 0.00257583 -0.04136555 0.39815810
v 0.01666455 -0.04064313 0.39815847
v 0.01668388 -0.06012340 0.39435477
v 0.01668388 -0.05661781 0.39565767
v 0.01668388 -0.05248662 0.39719293
v 0.01668388 -0.04934708 0.39815847
v 0.00257583 -0.04880478 0.39815847
v 0.01668250 -0.05970506 0.39435477
v 0.00381883 -0.04131326 0.39815847
f 1 2 8
f 1 8 16
f 1 16 11
f 1 11 3
f 1 3 4
f 1 4 5
f 1 5 6
f 1 6 7
f 1 7 15
f 1 15 9
f 1 9 2
f 2 9 10
f 2 10 8
f 3 11 4
f 4 11 12
f 4 12 13
f 4 13 5
f 5 14 10
f 5 10 17
f 5 17 15
f 5 15 7
f 5 7 6
f 5 13 14
f 8 10 16
f 9 15 17
f 9 17 10
f 10 14 11
f 10 11 16
f 11 14 13
f 11 13 12

