# https://github.com/mikedh/trimesh

o torso_shell_left_aft_349.obj
v -0.12776442 0.08995572 0.33569321
v -0.12768679 0.08995572 0.33586366
v -0.12717555 0.09040875 0.33597984
v -0.12716131 0.09055104 0.33569321
v -0.12307183 0.08995572 0.33569321
v -0.12718703 0.08995572 0.33688093
v -0.12619854 0.09042846 0.33788650
v -0.12650584 0.09099917 0.33610300
v -0.12663307 0.09099917 0.33582763
v -0.12669508 0.09099917 0.33569321
v -0.12307183 0.09099917 0.33569321
v -0.12307183 0.08995572 0.33799323
v -0.12673918 0.08995572 0.33777302
v -0.12619716 0.09037361 0.33799323
v -0.12554995 0.09099917 0.33798354
v -0.12618384 0.09099917 0.33674471
v -0.12307183 0.09099917 0.33799323
v -0.12662067 0.08995572 0.33799323
v -0.12554444 0.09099917 0.33799323
f 1 2 3
f 1 3 4
f 1 4 10
f 1 10 11
f 1 11 5
f 1 5 12
f 1 12 18
f 1 18 13
f 1 13 6
f 1 6 2
f 2 6 3
f 3 6 7
f 3 7 8
f 3 8 4
f 4 8 9
f 4 9 10
f 5 11 17
f 5 17 12
f 6 13 7
f 7 13 14
f 7 14 15
f 7 15 16
f 7 16 8
f 8 16 15
f 8 15 19
f 8 19 17
f 8 17 11
f 8 11 10
f 8 10 9
f 12 17 19
f 12 19 14
f 12 14 18
f 13 18 14
f 14 19 15

