# https://github.com/mikedh/trimesh

o torso_shell_left_fore_153.obj
v 0.12908630 0.04178983 0.29586602
v 0.12360113 0.05209433 0.29586602
v 0.13175948 0.04178983 0.29586602
v 0.13019850 0.04178983 0.30695223
v 0.12433581 0.05209433 0.30695223
v 0.12415168 0.05209433 0.30423359
v 0.12396662 0.05209433 0.30149866
v 0.12396199 0.05209433 0.30142920
v 0.12637887 0.05209433 0.29586602
v 0.12885312 0.04766327 0.29586602
v 0.12952118 0.04721240 0.29806481
v 0.13212312 0.04178983 0.29775767
v 0.13305304 0.04178983 0.30695223
v 0.12729954 0.05209433 0.30695223
v 0.12641403 0.05209433 0.29601687
v 0.12696736 0.05209433 0.29905893
v 0.12806013 0.05032110 0.29972204
v 0.13028363 0.04671110 0.30107106
v 0.13272456 0.04178983 0.30144005
v 0.13069446 0.04636714 0.30695223
v 0.13290315 0.04178983 0.30296488
v 0.13014853 0.04734655 0.30695223
v 0.12711356 0.05209433 0.30252643
v 0.13042150 0.04685735 0.30695223
v 0.13250805 0.04253221 0.30267945
v 0.13281710 0.04178983 0.30222797
f 1 2 9
f 1 9 10
f 1 10 3
f 1 3 12
f 1 12 19
f 1 19 26
f 1 26 21
f 1 21 13
f 1 13 4
f 1 4 5
f 1 5 6
f 1 6 7
f 1 7 8
f 1 8 2
f 2 8 7
f 2 7 6
f 2 6 5
f 2 5 14
f 2 14 23
f 2 23 16
f 2 16 15
f 2 15 9
f 3 10 11
f 3 11 12
f 4 13 20
f 4 20 24
f 4 24 22
f 4 22 14
f 4 14 5
f 9 15 10
f 10 15 11
f 11 15 16
f 11 16 17
f 11 17 18
f 11 18 12
f 12 18 19
f 13 21 20
f 14 22 18
f 14 18 17
f 14 17 23
f 16 23 17
f 18 22 24
f 18 24 20
f 18 20 25
f 18 25 26
f 18 26 19
f 20 21 25
f 21 26 25

