# https://github.com/mikedh/trimesh

o torso_shell_left_aft_020.obj
v -0.05011098 0.11427749 0.35539812
v -0.05124005 0.11250893 0.35375879
v -0.05077301 0.11330087 0.35662142
v -0.04889856 0.11322511 0.35684598
v -0.04800694 0.11404665 0.35582953
v -0.03670520 0.11274924 0.35772652
v -0.03517513 0.11069539 0.35645122
v -0.05124005 0.10218408 0.36583218
v -0.05080918 0.10676527 0.36452852
v -0.05080131 0.10814437 0.36297192
v -0.05078716 0.10958620 0.36126521
v -0.03517513 0.10237230 0.36583218
v -0.05077301 0.11097476 0.35956915
v -0.05053084 0.11208396 0.35819220
v -0.04794718 0.11196203 0.35849123
v -0.04702096 0.11300138 0.35721356
v -0.04612305 0.11382292 0.35619238
v -0.03858908 0.11295758 0.35745468
v -0.03857493 0.11200109 0.35863424
v -0.03669733 0.11178801 0.35890136
v -0.03570035 0.11053559 0.36039768
v -0.03520501 0.11207331 0.35843686
v -0.03520343 0.10919556 0.36196137
v -0.05075414 0.10555783 0.36583218
v -0.04886868 0.10608106 0.36535941
v -0.04894888 0.10793247 0.36330876
v -0.04892529 0.10936128 0.36163279
v -0.04889856 0.11076405 0.35993436
v -0.03520501 0.10778805 0.36356879
v -0.03531823 0.10603134 0.36549651
v -0.03924797 0.10574605 0.36583218
v -0.04702096 0.11053322 0.36028303
v -0.04607273 0.11172882 0.35884108
v -0.04514337 0.11276936 0.35756223
v -0.04329880 0.11348909 0.35670061
v -0.04141648 0.11327365 0.35701500
v -0.04000121 0.11311502 0.35723957
v -0.04115702 0.11229704 0.35823711
v -0.03833590 0.11080312 0.36008092
v -0.04232383 0.11126834 0.35948168
v -0.04044780 0.11104816 0.35977362
v -0.03857493 0.10950689 0.36161625
v -0.03669733 0.10928789 0.36186563
v -0.03858122 0.10809465 0.36324848
v -0.03670205 0.10787565 0.36348606
v -0.04531320 0.10581234 0.36572935
v -0.04717664 0.10615090 0.36533813
v -0.04137874 0.10574723 0.36583218
v -0.04706499 0.10769690 0.36363143
v -0.04704298 0.10912927 0.36196846
v -0.03929515 0.10673805 0.36476726
v -0.03695680 0.10608342 0.36545869
v -0.04514337 0.11029646 0.36061043
v -0.04419671 0.11149444 0.35917084
v -0.04326577 0.11254326 0.35789081
v -0.04115702 0.10981112 0.36124512
v -0.04326577 0.11006326 0.36092009
v -0.04116802 0.10839888 0.36289391
v -0.04141648 0.10699019 0.36448715
v -0.04330509 0.10580287 0.36576481
v -0.04329880 0.10721866 0.36421885
v -0.04518111 0.10745541 0.36393519
v -0.04328307 0.10865457 0.36258070
v -0.04516381 0.10888896 0.36228404
f 1 2 3
f 1 3 4
f 1 4 5
f 1 5 6
f 1 6 7
f 1 7 2
f 2 8 9
f 2 9 10
f 2 10 11
f 2 11 3
f 2 7 12
f 2 12 8
f 3 11 13
f 3 13 14
f 3 14 4
f 4 14 15
f 4 15 16
f 4 16 5
f 5 16 17
f 5 17 6
f 6 18 19
f 6 19 20
f 6 20 21
f 6 21 22
f 6 22 7
f 6 17 18
f 7 22 23
f 7 23 12
f 8 12 31
f 8 31 48
f 8 48 24
f 8 24 9
f 9 24 25
f 9 25 26
f 9 26 10
f 10 26 27
f 10 27 11
f 11 27 28
f 11 28 13
f 12 23 29
f 12 29 30
f 12 30 31
f 13 28 15
f 13 15 14
f 15 32 33
f 15 33 34
f 15 34 16
f 15 28 32
f 16 34 35
f 16 35 17
f 17 35 36
f 17 36 37
f 17 37 18
f 18 37 38
f 18 38 19
f 19 39 20
f 19 38 40
f 19 40 41
f 19 41 39
f 20 39 21
f 21 39 42
f 21 42 43
f 21 43 23
f 21 23 22
f 23 43 44
f 23 44 45
f 23 45 29
f 24 46 47
f 24 47 25
f 24 48 46
f 25 47 26
f 26 47 49
f 26 49 50
f 26 50 27
f 27 50 32
f 27 32 28
f 29 45 51
f 29 51 52
f 29 52 30
f 30 52 31
f 31 51 48
f 31 52 51
f 32 50 53
f 32 53 54
f 32 54 33
f 33 54 55
f 33 55 34
f 34 55 35
f 35 55 36
f 36 55 37
f 37 55 38
f 38 55 54
f 38 54 40
f 39 41 56
f 39 56 42
f 40 57 41
f 40 54 53
f 40 53 57
f 41 57 56
f 42 44 43
f 42 56 58
f 42 58 44
f 44 58 59
f 44 59 51
f 44 51 45
f 46 60 47
f 46 48 60
f 47 60 61
f 47 61 62
f 47 62 49
f 48 51 59
f 48 59 60
f 49 62 63
f 49 63 64
f 49 64 50
f 50 64 57
f 50 57 53
f 56 57 64
f 56 64 63
f 56 63 58
f 58 63 62
f 58 62 61
f 58 61 59
f 59 61 60

