# https://github.com/mikedh/trimesh

o torso_shell_left_aft_090.obj
v -0.16214529 0.02705040 0.31804281
v -0.16236792 0.02705040 0.31007717
v -0.16465133 0.02705040 0.31804281
v -0.16519393 0.01518778 0.31804281
v -0.16512513 0.01518778 0.31690988
v -0.16518554 0.01519010 0.31007795
v -0.16489746 0.02687041 0.31007717
v -0.16487285 0.02705040 0.31050056
v -0.16640780 0.01518778 0.31007717
v -0.16490250 0.02705040 0.31150952
v -0.16495284 0.02704111 0.31413484
v -0.16489299 0.02673456 0.31691377
v -0.16501885 0.02622016 0.31707518
v -0.16477160 0.02662076 0.31804281
v -0.16736155 0.01652778 0.31804281
v -0.16768320 0.01518778 0.31797420
v -0.16537965 0.02501950 0.31007717
v -0.16509157 0.02617951 0.31016684
v -0.16508989 0.02627589 0.31070797
v -0.16489019 0.02705040 0.31101440
v -0.16766418 0.01518778 0.31022376
v -0.16747958 0.01600525 0.31007717
v -0.16507926 0.02637111 0.31118750
v -0.16506080 0.02648258 0.31169432
v -0.16506248 0.02664166 0.31400775
v -0.16518443 0.02616790 0.31410054
v -0.16518443 0.02562215 0.31698317
v -0.16605260 0.02191798 0.31783151
v -0.16571416 0.02311980 0.31804281
v -0.16503899 0.02566279 0.31804281
v -0.16617006 0.02136991 0.31804281
v -0.16705277 0.01788985 0.31792897
v -0.16772795 0.01518778 0.31749311
v -0.16580814 0.02330559 0.31007717
v -0.16608895 0.02236271 0.31089276
v -0.16608336 0.02250554 0.31167872
v -0.16770334 0.01518778 0.31068068
v -0.16727653 0.01696438 0.31007717
v -0.16606434 0.02264953 0.31232121
v -0.16604476 0.02276564 0.31296682
v -0.16606378 0.02268901 0.31367637
v -0.16533098 0.02558151 0.31422607
v -0.16533098 0.02507639 0.31689428
v -0.16706788 0.01800016 0.31743619
v -0.16785717 0.01518778 0.31454732
v -0.16649674 0.02042006 0.31007717
v -0.16611972 0.02205964 0.31014267
v -0.16708410 0.01827884 0.31150952
v -0.16708634 0.01838567 0.31214110
v -0.16707403 0.01852966 0.31282959
v -0.16773802 0.01518778 0.31113759
v -0.16707068 0.01798506 0.31025651
v -0.16678707 0.01916366 0.31007717
v -0.16705333 0.01867480 0.31354849
v -0.16552341 0.02479423 0.31440151
v -0.16706788 0.01860629 0.31414186
v -0.16552341 0.02434485 0.31677342
v -0.16565990 0.02381651 0.31668142
v -0.16785941 0.01518778 0.31403738
v -0.16707851 0.01814879 0.31089432
v -0.16777662 0.01518778 0.31172161
v -0.16780626 0.01518778 0.31227521
v -0.16782752 0.01518778 0.31281010
v -0.16784654 0.01518778 0.31341516
f 1 2 8
f 1 8 20
f 1 20 10
f 1 10 3
f 1 3 14
f 1 14 30
f 1 30 29
f 1 29 31
f 1 31 15
f 1 15 4
f 1 4 5
f 1 5 6
f 1 6 2
f 2 7 8
f 2 6 9
f 2 9 22
f 2 22 38
f 2 38 53
f 2 53 46
f 2 46 34
f 2 34 17
f 2 17 7
f 3 10 11
f 3 11 12
f 3 12 13
f 3 13 14
f 4 15 16
f 4 16 33
f 4 33 45
f 4 45 59
f 4 59 64
f 4 64 63
f 4 63 62
f 4 62 61
f 4 61 51
f 4 51 37
f 4 37 21
f 4 21 9
f 4 9 5
f 5 9 6
f 7 17 18
f 7 18 8
f 8 18 19
f 8 19 20
f 9 21 22
f 10 20 23
f 10 23 24
f 10 24 25
f 10 25 11
f 11 25 26
f 11 26 27
f 11 27 12
f 12 27 13
f 13 27 28
f 13 28 29
f 13 29 30
f 13 30 14
f 15 31 32
f 15 32 16
f 16 32 33
f 17 34 35
f 17 35 18
f 18 35 19
f 19 23 20
f 19 35 36
f 19 36 23
f 21 37 22
f 22 37 38
f 23 36 39
f 23 39 24
f 24 39 25
f 25 39 40
f 25 40 26
f 26 40 41
f 26 41 42
f 26 42 43
f 26 43 27
f 27 43 28
f 28 44 32
f 28 32 31
f 28 31 29
f 28 43 44
f 32 44 33
f 33 44 45
f 34 46 47
f 34 47 35
f 35 47 48
f 35 48 49
f 35 49 36
f 36 49 50
f 36 50 39
f 37 51 38
f 38 52 53
f 38 51 52
f 39 50 54
f 39 54 40
f 40 54 41
f 41 55 42
f 41 54 56
f 41 56 55
f 42 55 43
f 43 55 57
f 43 57 44
f 44 57 58
f 44 58 55
f 44 55 56
f 44 56 45
f 45 56 59
f 46 53 60
f 46 60 47
f 47 60 48
f 48 60 61
f 48 61 62
f 48 62 49
f 49 62 63
f 49 63 64
f 49 64 50
f 50 64 59
f 50 59 54
f 51 61 60
f 51 60 52
f 52 60 53
f 54 59 56
f 55 58 57

