# https://github.com/mikedh/trimesh

o torso_shell_right_aft_161.obj
v -0.06702719 -0.07229523 0.38629006
v -0.06670228 -0.07847331 0.38553106
v -0.06670310 -0.07721942 0.38629006
v -0.05861234 -0.07426585 0.38629006
v -0.05860739 -0.08420559 0.38009633
v -0.06702389 -0.08238777 0.38007198
v -0.06543642 -0.07846386 0.38574835
v -0.06670228 -0.08032263 0.38436974
v -0.06543642 -0.08031318 0.38459311
v -0.06543642 -0.07756282 0.38629006
v -0.05860326 -0.08633689 0.38007198
v -0.05872366 -0.07902622 0.38629006
v -0.06670228 -0.08214046 0.38318224
v -0.06670310 -0.08661098 0.38007198
v -0.06670310 -0.08570207 0.38073360
v -0.06670228 -0.08393465 0.38197040
v -0.06355289 -0.07823230 0.38617320
v -0.06449465 -0.07812676 0.38609651
v -0.06449465 -0.08030058 0.38475319
v -0.06355206 -0.08028168 0.38490962
v -0.06543642 -0.08213416 0.38341170
v -0.06449383 -0.08212313 0.38357665
v -0.06261195 -0.07833154 0.38624684
v -0.06185903 -0.07842605 0.38629006
v -0.05872366 -0.08009580 0.38564123
v -0.05872366 -0.08192308 0.38449086
v -0.05872366 -0.08372672 0.38331493
v -0.05872366 -0.08550359 0.38211708
v -0.05872366 -0.08725210 0.38089428
v -0.05872449 -0.08838784 0.38007198
v -0.05978583 -0.07883719 0.38629006
v -0.06543642 -0.08392993 0.38220595
v -0.06543724 -0.08694965 0.38007198
v -0.06543642 -0.08570049 0.38097462
v -0.06261195 -0.08025648 0.38506117
v -0.06355206 -0.08210580 0.38373673
v -0.06261195 -0.08208217 0.38389316
v -0.06449383 -0.08392047 0.38237516
v -0.06355206 -0.08390472 0.38253949
v -0.06167018 -0.08022655 0.38520847
v -0.06072759 -0.08019032 0.38535151
v -0.06072842 -0.07865761 0.38629006
v -0.05978583 -0.08014936 0.38549028
v -0.05978583 -0.08197663 0.38433443
v -0.05978583 -0.08378028 0.38315607
v -0.05978665 -0.08555715 0.38195152
v -0.05978748 -0.08730408 0.38072446
v -0.05978748 -0.08819882 0.38007198
v -0.06449465 -0.08569104 0.38114870
v -0.06449548 -0.08718909 0.38007198
v -0.06167018 -0.08205224 0.38404532
v -0.06261195 -0.08388267 0.38270018
v -0.06167018 -0.08385431 0.38285660
v -0.06355289 -0.08567686 0.38131791
v -0.06261277 -0.08565638 0.38148286
v -0.06072759 -0.08201759 0.38419200
v -0.06072759 -0.08381966 0.38300938
v -0.06072842 -0.08559495 0.38179997
v -0.06072924 -0.08734189 0.38056743
v -0.06072924 -0.08801924 0.38007198
v -0.06355371 -0.08741750 0.38007198
v -0.06167018 -0.08562803 0.38164416
v -0.06261360 -0.08751516 0.38015658
v -0.06167101 -0.08760180 0.38023936
f 1 2 3
f 1 3 10
f 1 10 24
f 1 24 42
f 1 42 31
f 1 31 12
f 1 12 4
f 1 4 5
f 1 5 6
f 1 6 2
f 2 7 3
f 2 6 8
f 2 8 9
f 2 9 7
f 3 7 10
f 4 11 5
f 4 12 11
f 5 11 6
f 6 13 8
f 6 11 30
f 6 30 48
f 6 48 60
f 6 60 61
f 6 61 50
f 6 50 33
f 6 33 14
f 6 14 15
f 6 15 16
f 6 16 13
f 7 17 18
f 7 18 10
f 7 9 19
f 7 19 20
f 7 20 17
f 8 13 21
f 8 21 9
f 9 21 22
f 9 22 19
f 10 18 17
f 10 17 23
f 10 23 24
f 11 12 25
f 11 25 26
f 11 26 27
f 11 27 28
f 11 28 29
f 11 29 30
f 12 31 25
f 13 16 32
f 13 32 21
f 14 33 15
f 15 33 34
f 15 34 16
f 16 34 32
f 17 20 35
f 17 35 23
f 19 22 36
f 19 36 20
f 20 36 37
f 20 37 35
f 21 32 38
f 21 38 22
f 22 38 39
f 22 39 36
f 23 35 40
f 23 40 24
f 24 40 41
f 24 41 42
f 25 31 43
f 25 43 26
f 26 43 44
f 26 44 27
f 27 45 28
f 27 44 45
f 28 45 46
f 28 46 29
f 29 47 30
f 29 46 47
f 30 47 48
f 31 42 43
f 32 34 49
f 32 49 38
f 33 50 34
f 34 50 49
f 35 37 51
f 35 51 40
f 36 39 52
f 36 52 37
f 37 52 53
f 37 53 51
f 38 49 54
f 38 54 39
f 39 54 55
f 39 55 52
f 40 51 56
f 40 56 41
f 41 43 42
f 41 56 44
f 41 44 43
f 44 56 45
f 45 56 57
f 45 57 46
f 46 57 58
f 46 58 47
f 47 59 48
f 47 58 59
f 48 59 60
f 49 50 61
f 49 61 54
f 51 53 57
f 51 57 56
f 52 55 62
f 52 62 53
f 53 62 58
f 53 58 57
f 54 61 63
f 54 63 55
f 55 63 64
f 55 64 59
f 55 59 62
f 58 62 59
f 59 64 60
f 60 64 63
f 60 63 61

