# https://github.com/mikedh/trimesh

o torso_shell_right_aft_123.obj
v -0.16848429 -0.00789874 0.32237083
v -0.16838723 -0.00885122 0.32206059
v -0.16807949 -0.00913113 0.32304174
v -0.16811267 -0.00804574 0.32357338
v -0.16783644 -0.00789874 0.32450747
v -0.16604220 -0.00789874 0.32206059
v -0.16791359 -0.01122941 0.32206059
v -0.16811930 -0.00980370 0.32239821
v -0.16707909 -0.01251013 0.32429424
v -0.16707909 -0.01126364 0.32508809
v -0.16707909 -0.00993057 0.32579598
v -0.16744823 -0.00789874 0.32562357
v -0.16436327 -0.00789874 0.32696683
v -0.16115553 -0.02847077 0.32206443
v -0.16460382 -0.02513406 0.32206059
v -0.16760003 -0.01270747 0.32206059
v -0.16707909 -0.01366398 0.32341826
v -0.16607953 -0.01632207 0.32505351
v -0.16607953 -0.01561929 0.32557843
v -0.16607953 -0.01488630 0.32607933
v -0.16611686 -0.01321493 0.32695771
v -0.16632673 -0.01199663 0.32696683
v -0.16652996 -0.01078036 0.32696683
v -0.16667595 -0.00986009 0.32696683
v -0.16693808 -0.00896600 0.32661769
v -0.16701107 -0.00811018 0.32674880
v -0.16001081 -0.02847077 0.32696683
v -0.16360094 -0.02847077 0.32252691
v -0.16407874 -0.02696250 0.32225461
v -0.16407708 -0.02637450 0.32308257
v -0.16508328 -0.02319083 0.32226230
v -0.16555030 -0.02148723 0.32206059
v -0.16732463 -0.01398416 0.32206059
v -0.16708407 -0.01469298 0.32246256
v -0.16607953 -0.01763300 0.32393885
v -0.16607953 -0.01699465 0.32450651
v -0.16507914 -0.01947957 0.32611679
v -0.16494807 -0.01908085 0.32686694
v -0.16521683 -0.01771153 0.32696683
v -0.16547232 -0.01648116 0.32696683
v -0.16588376 -0.01460035 0.32686358
v -0.16335872 -0.02555693 0.32696683
v -0.16304102 -0.02681349 0.32693946
v -0.16266940 -0.02847077 0.32663834
v -0.16338112 -0.02847077 0.32362045
v -0.16407957 -0.02544014 0.32424141
v -0.16507831 -0.02238937 0.32329628
v -0.16313475 -0.02847077 0.32475720
v -0.16601317 -0.01960442 0.32211246
v -0.16624875 -0.01866603 0.32206059
v -0.16687421 -0.01599787 0.32206059
v -0.16607953 -0.01851903 0.32304607
v -0.16507997 -0.02097172 0.32480234
v -0.16507914 -0.02024679 0.32547133
v -0.16425543 -0.02195039 0.32696683
v -0.16456069 -0.02064349 0.32696683
v -0.16374943 -0.02401846 0.32696683
v -0.16408123 -0.02382716 0.32594342
v -0.16408206 -0.02460848 0.32516061
v -0.16308167 -0.02739142 0.32620227
v -0.16298876 -0.02824322 0.32564326
v -0.16507997 -0.02165840 0.32411030
v -0.16660378 -0.01715978 0.32206059
v -0.16406796 -0.02301765 0.32673007
f 1 2 3
f 1 3 4
f 1 4 5
f 1 5 12
f 1 12 13
f 1 13 6
f 1 6 2
f 2 6 15
f 2 15 32
f 2 32 50
f 2 50 63
f 2 63 51
f 2 51 33
f 2 33 16
f 2 16 7
f 2 7 8
f 2 8 3
f 3 8 9
f 3 9 10
f 3 10 4
f 4 10 11
f 4 11 5
f 5 11 12
f 6 13 14
f 6 14 15
f 7 16 17
f 7 17 8
f 8 17 9
f 9 17 18
f 9 18 19
f 9 19 20
f 9 20 10
f 10 20 21
f 10 21 11
f 11 21 22
f 11 22 23
f 11 23 24
f 11 24 25
f 11 25 12
f 12 25 26
f 12 26 13
f 13 27 14
f 13 26 24
f 13 24 23
f 13 23 22
f 13 22 40
f 13 40 39
f 13 39 56
f 13 56 55
f 13 55 57
f 13 57 42
f 13 42 27
f 14 27 44
f 14 44 48
f 14 48 45
f 14 45 28
f 14 28 29
f 14 29 15
f 15 29 30
f 15 30 31
f 15 31 32
f 16 33 34
f 16 34 17
f 17 34 35
f 17 35 36
f 17 36 18
f 18 36 37
f 18 37 38
f 18 38 19
f 19 38 39
f 19 39 20
f 20 39 40
f 20 40 41
f 20 41 21
f 21 41 40
f 21 40 22
f 24 26 25
f 27 42 43
f 27 43 44
f 28 45 29
f 29 45 30
f 30 46 47
f 30 47 31
f 30 45 48
f 30 48 46
f 31 47 49
f 31 49 32
f 32 49 50
f 33 51 34
f 34 51 52
f 34 52 35
f 35 52 53
f 35 53 54
f 35 54 36
f 36 54 37
f 37 54 55
f 37 55 56
f 37 56 38
f 38 56 39
f 42 57 58
f 42 58 43
f 43 58 59
f 43 59 60
f 43 60 44
f 44 60 61
f 44 61 48
f 46 48 61
f 46 61 59
f 46 59 62
f 46 62 47
f 47 62 52
f 47 52 49
f 49 52 50
f 50 52 63
f 51 63 52
f 52 62 53
f 53 62 59
f 53 59 58
f 53 58 54
f 54 58 64
f 54 64 55
f 55 64 57
f 57 64 58
f 59 61 60

