# https://github.com/mikedh/trimesh

o torso_shell_left_fore_160.obj
v 0.08970400 0.07738124 0.25889113
v 0.08993245 0.07734757 0.25417722
v 0.08532371 0.07738124 0.24966895
v 0.08785559 0.07738124 0.25657994
v 0.09096144 0.06174635 0.24533715
v 0.10186684 0.06174635 0.25889113
v 0.09606674 0.07393930 0.25889113
v 0.09342724 0.07669101 0.25830869
v 0.09199987 0.07696037 0.25657862
v 0.08741190 0.07716238 0.25064278
v 0.09138625 0.07529067 0.25384288
v 0.09012503 0.07558145 0.25248828
v 0.08532371 0.07738124 0.25288762
v 0.08689835 0.07624566 0.24902150
v 0.08532371 0.07374952 0.24533715
v 0.08665479 0.06776554 0.24533715
v 0.09242091 0.06482864 0.24533715
v 0.09417491 0.06240138 0.24545788
v 0.09648589 0.06174635 0.24766027
v 0.10461207 0.06174635 0.25889113
v 0.10357741 0.06405577 0.25882744
v 0.09984473 0.06909395 0.25883938
v 0.09813793 0.07074376 0.25823306
v 0.09476209 0.07489276 0.25810304
v 0.09279663 0.07512385 0.25560214
v 0.09054796 0.07378931 0.25114561
v 0.09287026 0.07392705 0.25436030
v 0.08532371 0.06999385 0.24533847
v 0.08689269 0.07408622 0.24687882
v 0.08829173 0.07496775 0.24948188
v 0.08733449 0.07182118 0.24535307
v 0.08879396 0.06991579 0.24533715
v 0.09086704 0.06782369 0.24597266
v 0.09303263 0.06631622 0.24723040
v 0.09480174 0.06501994 0.24826128
v 0.09662560 0.06400527 0.24963711
v 0.09801710 0.06174635 0.24949913
v 0.10057730 0.06177237 0.25263422
v 0.10357552 0.06232332 0.25710533
v 0.10201599 0.06471080 0.25730169
v 0.10078687 0.06723448 0.25817999
v 0.09939726 0.06825375 0.25730832
v 0.09445245 0.07172017 0.25417457
v 0.09406729 0.07373881 0.25582105
v 0.09505474 0.07340365 0.25683335
v 0.09003441 0.07269047 0.24939830
v 0.09294578 0.07147377 0.25190318
v 0.08828985 0.07209054 0.24670501
v 0.09107661 0.07129012 0.24934523
v 0.08985693 0.07048971 0.24711100
v 0.09399365 0.06685799 0.24889414
v 0.09480552 0.06760178 0.25056052
v 0.09906308 0.06383692 0.25255329
v 0.09890448 0.06256207 0.25122389
v 0.10080386 0.06442461 0.25535138
v 0.10172901 0.06236771 0.25467607
v 0.10219347 0.06324005 0.25610232
v 0.09992969 0.06661618 0.25633184
v 0.09836450 0.06783441 0.25543762
v 0.09662560 0.06893020 0.25421171
v 0.09293446 0.06969541 0.25016118
v 0.09475454 0.06952553 0.25233172
v 0.09663126 0.06773034 0.25303489
v 0.09841925 0.06586780 0.25358947
f 1 2 3
f 1 3 13
f 1 13 4
f 1 4 5
f 1 5 6
f 1 6 20
f 1 20 7
f 1 7 8
f 1 8 9
f 1 9 2
f 2 10 3
f 2 9 11
f 2 11 12
f 2 12 10
f 3 10 14
f 3 14 15
f 3 15 28
f 3 28 13
f 4 13 16
f 4 16 5
f 5 16 15
f 5 15 32
f 5 32 17
f 5 17 18
f 5 18 19
f 5 19 37
f 5 37 20
f 5 20 6
f 7 20 21
f 7 21 22
f 7 22 23
f 7 23 24
f 7 24 8
f 8 24 9
f 9 24 25
f 9 25 11
f 10 12 26
f 10 26 14
f 11 26 12
f 11 25 27
f 11 27 26
f 13 28 16
f 14 29 15
f 14 26 30
f 14 30 29
f 15 29 31
f 15 31 32
f 15 16 28
f 17 32 33
f 17 33 34
f 17 34 35
f 17 35 18
f 18 35 19
f 19 35 36
f 19 36 37
f 20 37 38
f 20 38 39
f 20 39 21
f 21 39 40
f 21 40 41
f 21 41 22
f 22 41 42
f 22 42 23
f 23 43 27
f 23 27 44
f 23 44 45
f 23 45 24
f 23 42 43
f 24 45 44
f 24 44 25
f 25 44 27
f 26 46 30
f 26 27 47
f 26 47 46
f 27 43 47
f 29 48 31
f 29 30 46
f 29 46 49
f 29 49 48
f 31 48 32
f 32 48 50
f 32 50 34
f 32 34 33
f 34 51 35
f 34 50 51
f 35 51 52
f 35 52 36
f 36 52 53
f 36 53 54
f 36 54 37
f 37 54 38
f 38 54 53
f 38 53 55
f 38 55 56
f 38 56 39
f 39 57 55
f 39 55 40
f 39 56 57
f 40 55 58
f 40 58 41
f 41 58 42
f 42 58 59
f 42 59 43
f 43 59 60
f 43 60 47
f 46 47 49
f 47 61 49
f 47 60 62
f 47 62 61
f 48 49 50
f 49 61 50
f 50 61 51
f 51 61 52
f 52 62 63
f 52 63 64
f 52 64 53
f 52 61 62
f 53 64 55
f 55 57 56
f 55 64 59
f 55 59 58
f 59 63 60
f 59 64 63
f 60 63 62

