# https://github.com/mikedh/trimesh

o torso_shell_right_fore_006.obj
v 0.12639789 -0.03573337 0.35740245
v 0.12612783 -0.03573337 0.35789905
v 0.12508819 -0.03683888 0.35864835
v 0.12516739 -0.03787900 0.35740245
v 0.12335005 -0.03573337 0.35740245
v 0.12557552 -0.03573337 0.35870859
v 0.12536232 -0.03573337 0.35902080
v 0.12500697 -0.03573337 0.35948434
v 0.12456635 -0.03573337 0.36004705
v 0.12369727 -0.03822155 0.35950270
v 0.12160176 -0.04354201 0.35740245
v 0.11697416 -0.03573337 0.36490650
v 0.11228767 -0.05164027 0.35740245
v 0.10565390 -0.05164027 0.36490650
v 0.12291349 -0.03573337 0.36215245
v 0.12230636 -0.03960266 0.36035779
v 0.12119362 -0.04066146 0.36097560
v 0.12089513 -0.04459614 0.35740245
v 0.12052963 -0.03573337 0.36490650
v 0.11586955 -0.05164027 0.35740245
v 0.10953426 -0.05164027 0.36490650
v 0.12027988 -0.03618647 0.36490650
v 0.11999966 -0.03669408 0.36490650
v 0.12007886 -0.04171870 0.36159267
v 0.12009510 -0.04578885 0.35740245
v 0.11584518 -0.05164027 0.35743477
v 0.11646449 -0.05084617 0.35740245
v 0.11655993 -0.05049739 0.35762430
v 0.11859453 -0.04307334 0.36234124
v 0.11270393 -0.05164027 0.36128634
v 0.11154652 -0.04934672 0.36490650
v 0.11955091 -0.03745703 0.36490650
v 0.11933771 -0.04239602 0.36196732
v 0.11959762 -0.04554283 0.35837067
v 0.11926867 -0.04695041 0.35740245
v 0.11541064 -0.05164027 0.35800997
v 0.11905546 -0.03829784 0.36490650
v 0.11581472 -0.04549456 0.36360477
v 0.11412531 -0.05164027 0.35961510
v 0.11340650 -0.05125879 0.36083896
v 0.11194654 -0.04889050 0.36490650
v 0.11519946 -0.05164027 0.35828913
v 0.11600153 -0.04314185 0.36490650
v 0.11482585 -0.04631513 0.36401322
v 0.11468980 -0.05164027 0.35891942
v 0.11517916 -0.05164027 0.35831557
v 0.11383494 -0.04713726 0.36442166
v 0.11284607 -0.04792513 0.36480439
v 0.11258210 -0.04813533 0.36490650
v 0.11378824 -0.04641790 0.36490650
f 1 2 3
f 1 3 4
f 1 4 11
f 1 11 18
f 1 18 25
f 1 25 35
f 1 35 27
f 1 27 20
f 1 20 13
f 1 13 5
f 1 5 12
f 1 12 19
f 1 19 15
f 1 15 9
f 1 9 8
f 1 8 7
f 1 7 6
f 1 6 2
f 2 6 3
f 3 6 7
f 3 7 8
f 3 8 9
f 3 9 10
f 3 10 11
f 3 11 4
f 5 13 14
f 5 14 12
f 9 15 10
f 10 15 16
f 10 16 11
f 11 16 17
f 11 17 18
f 12 14 21
f 12 21 31
f 12 31 41
f 12 41 49
f 12 49 50
f 12 50 43
f 12 43 37
f 12 37 32
f 12 32 23
f 12 23 22
f 12 22 19
f 13 20 26
f 13 26 36
f 13 36 42
f 13 42 46
f 13 46 45
f 13 45 39
f 13 39 30
f 13 30 21
f 13 21 14
f 15 17 16
f 15 19 22
f 15 22 23
f 15 23 24
f 15 24 17
f 17 24 25
f 17 25 18
f 20 27 28
f 20 28 29
f 20 29 26
f 21 30 31
f 23 32 33
f 23 33 24
f 24 33 25
f 25 33 34
f 25 34 35
f 26 29 36
f 27 35 28
f 28 35 29
f 29 35 33
f 29 33 37
f 29 37 38
f 29 38 36
f 30 39 40
f 30 40 41
f 30 41 31
f 32 37 33
f 33 35 34
f 36 38 42
f 37 43 38
f 38 43 44
f 38 44 45
f 38 45 46
f 38 46 42
f 39 45 44
f 39 44 47
f 39 47 41
f 39 41 40
f 41 47 48
f 41 48 49
f 43 50 47
f 43 47 44
f 47 50 48
f 48 50 49

