# https://github.com/mikedh/trimesh

o torso_shell_right_fore_120.obj
v 0.13920505 -0.00012378 0.28566606
v 0.13677123 -0.00012378 0.28566606
v 0.13921864 -0.00063411 0.28566606
v 0.13866395 -0.00040284 0.28400835
v 0.13666406 -0.00012378 0.27802483
v 0.13390271 -0.00012378 0.27762084
v 0.13150888 -0.01964801 0.27762084
v 0.13443476 -0.01964801 0.28566606
v 0.13921336 -0.00112723 0.28566606
v 0.13695462 -0.00113870 0.27881785
v 0.13680972 -0.00062646 0.27842095
v 0.13650106 -0.00012378 0.27762084
v 0.13680972 -0.00079466 0.27842725
v 0.13433514 -0.01859678 0.27762084
v 0.13419099 -0.01964801 0.27770195
v 0.13698329 -0.01964801 0.28550698
v 0.13715913 -0.01899816 0.28566606
v 0.13919902 -0.00177708 0.28566606
v 0.13876055 -0.00146363 0.28431154
v 0.13695462 -0.00297166 0.27893047
v 0.13680972 -0.00146363 0.27846977
v 0.13639163 -0.00341700 0.27762084
v 0.13695462 -0.00859288 0.27995581
v 0.13695462 -0.00972439 0.28030546
v 0.13695462 -0.01068770 0.28061102
v 0.13695462 -0.01321065 0.28161667
v 0.13619239 -0.00568957 0.27762084
v 0.13450192 -0.01964801 0.27849182
v 0.13501661 -0.01780167 0.27890290
v 0.13666709 -0.01964801 0.28457063
v 0.13695462 -0.01914724 0.28503605
v 0.13749119 -0.01729708 0.28566606
v 0.13914846 -0.00348772 0.28566606
v 0.13695462 -0.00359667 0.27899347
v 0.13695462 -0.00414140 0.27905805
v 0.13695462 -0.00546977 0.27925650
v 0.13632899 -0.00433826 0.27762084
v 0.13881112 -0.00821253 0.28566606
v 0.13695462 -0.00789907 0.27977153
v 0.13893186 -0.00692621 0.28566606
v 0.13884432 -0.00743653 0.28553139
v 0.13870848 -0.00922553 0.28566606
v 0.13863678 -0.00982187 0.28566606
v 0.13838774 -0.01181920 0.28566606
v 0.13695462 -0.01443390 0.28222384
v 0.13626635 -0.00504163 0.27762084
v 0.13695462 -0.00744991 0.27966049
v 0.13467701 -0.01964801 0.27894779
v 0.13695462 -0.01565524 0.28283180
v 0.13501661 -0.01902301 0.27951086
v 0.13635842 -0.01964801 0.28367601
v 0.13580524 -0.01964801 0.28209390
v 0.13695462 -0.01800809 0.28425247
v 0.13799003 -0.01446257 0.28566606
v 0.13912883 -0.00389866 0.28566606
v 0.13909337 -0.00462305 0.28566606
v 0.13695462 -0.00679241 0.27951165
v 0.13897186 -0.00643117 0.28566606
v 0.13902092 -0.00576985 0.28566606
v 0.13504227 -0.01964801 0.27995423
v 0.13695462 -0.01683262 0.28354214
v 0.13525433 -0.01964801 0.28054014
v 0.13550715 -0.01964801 0.28124260
f 1 2 8
f 1 8 17
f 1 17 32
f 1 32 54
f 1 54 44
f 1 44 43
f 1 43 42
f 1 42 38
f 1 38 40
f 1 40 58
f 1 58 59
f 1 59 56
f 1 56 55
f 1 55 33
f 1 33 18
f 1 18 9
f 1 9 3
f 1 3 4
f 1 4 5
f 1 5 12
f 1 12 6
f 1 6 2
f 2 6 7
f 2 7 8
f 3 9 10
f 3 10 4
f 4 10 11
f 4 11 5
f 5 11 13
f 5 13 12
f 6 12 22
f 6 22 37
f 6 37 46
f 6 46 27
f 6 27 14
f 6 14 7
f 7 14 15
f 7 15 28
f 7 28 48
f 7 48 60
f 7 60 62
f 7 62 63
f 7 63 52
f 7 52 51
f 7 51 30
f 7 30 16
f 7 16 8
f 8 16 17
f 9 18 19
f 9 19 10
f 10 19 20
f 10 20 13
f 10 13 11
f 12 13 21
f 12 21 20
f 12 20 22
f 13 20 21
f 14 23 24
f 14 24 25
f 14 25 26
f 14 26 15
f 14 27 23
f 15 26 29
f 15 29 28
f 16 30 31
f 16 31 17
f 17 31 32
f 18 20 19
f 18 33 20
f 20 33 34
f 20 34 22
f 22 34 35
f 22 35 36
f 22 36 37
f 23 38 24
f 23 27 39
f 23 39 40
f 23 40 41
f 23 41 38
f 24 38 25
f 25 38 42
f 25 42 43
f 25 43 26
f 26 43 44
f 26 44 45
f 26 45 28
f 26 28 29
f 27 46 47
f 27 47 39
f 28 45 49
f 28 49 50
f 28 50 48
f 30 51 31
f 31 51 52
f 31 52 53
f 31 53 32
f 32 53 54
f 33 55 35
f 33 35 34
f 35 55 36
f 36 55 56
f 36 56 57
f 36 57 37
f 37 57 46
f 38 41 40
f 39 47 58
f 39 58 40
f 44 54 49
f 44 49 45
f 46 57 47
f 47 57 59
f 47 59 58
f 48 50 49
f 48 49 60
f 49 54 61
f 49 61 62
f 49 62 60
f 52 63 53
f 53 61 54
f 53 63 62
f 53 62 61
f 56 59 57

