# https://github.com/mikedh/trimesh

o torso_shell_left_aft_086.obj
v -0.14523936 0.07027595 0.31804281
v -0.14523936 0.07087370 0.30406163
v -0.14523936 0.07582853 0.30605288
v -0.14529744 0.07513116 0.31708345
v -0.14618886 0.07352985 0.31771846
v -0.15168521 0.06285981 0.31769520
v -0.14990991 0.06086147 0.31804281
v -0.15011127 0.06086147 0.30406163
v -0.14719115 0.07231678 0.30415195
v -0.14559608 0.07510333 0.30428196
v -0.15004113 0.06678178 0.30412321
v -0.14534118 0.07576993 0.31155448
v -0.14599051 0.07459641 0.30600635
v -0.14556818 0.07536557 0.30755692
v -0.14555536 0.07543003 0.30943458
v -0.14589624 0.07471655 0.31314474
v -0.14602294 0.07413639 0.31589554
v -0.14691437 0.07240468 0.31705745
v -0.14793777 0.07056603 0.31707661
v -0.14876584 0.06898377 0.31719020
v -0.14957431 0.06731213 0.31758708
v -0.15183981 0.06282758 0.31614873
v -0.15256005 0.06101530 0.31724768
v -0.15068972 0.06509403 0.31719567
v -0.15294316 0.06088052 0.31027761
v -0.15292053 0.06086147 0.30807834
v -0.15276518 0.06086147 0.30450367
v -0.15132472 0.06405091 0.30419848
v -0.14815271 0.07058654 0.30454746
v -0.14699431 0.07286764 0.30621710
v -0.15104342 0.06491236 0.30643060
v -0.15004189 0.06699861 0.30619384
v -0.14914518 0.06866731 0.30467337
v -0.14609987 0.07451877 0.31133277
v -0.14690456 0.07309912 0.30766093
v -0.14688043 0.07318849 0.30959470
v -0.14695434 0.07303026 0.31162428
v -0.14696490 0.07285299 0.31346909
v -0.14701316 0.07255705 0.31514421
v -0.14827035 0.07030232 0.31491292
v -0.14930733 0.06827761 0.31506894
v -0.15013088 0.06646972 0.31605567
v -0.15247935 0.06167312 0.31449688
v -0.15110300 0.06467795 0.31439560
v -0.15280816 0.06114569 0.31250563
v -0.15192277 0.06316308 0.31015855
v -0.15194163 0.06308250 0.30851491
v -0.15285869 0.06086147 0.30613773
v -0.15204495 0.06274554 0.30667420
v -0.15216185 0.06224156 0.30448725
v -0.14795511 0.07115792 0.30712993
v -0.14896117 0.06924162 0.30731879
v -0.15093407 0.06525812 0.30833837
v -0.14992574 0.06735023 0.30816730
v -0.14788875 0.07136156 0.30971103
v -0.14798754 0.07109785 0.31235645
v -0.14900566 0.06915518 0.31237698
v -0.15010222 0.06680083 0.31407947
v -0.15196878 0.06299606 0.31269038
v -0.15084281 0.06547934 0.31190483
v -0.15091370 0.06534016 0.31004496
v -0.14889782 0.06944233 0.30982189
v -0.14990463 0.06743666 0.30993411
v -0.14988955 0.06745717 0.31168449
f 1 2 3
f 1 3 4
f 1 4 5
f 1 5 6
f 1 6 7
f 1 7 8
f 1 8 2
f 2 9 10
f 2 10 3
f 2 8 11
f 2 11 9
f 3 12 4
f 3 10 13
f 3 13 14
f 3 14 15
f 3 15 12
f 4 12 16
f 4 16 17
f 4 17 5
f 5 17 18
f 5 18 19
f 5 19 20
f 5 20 21
f 5 21 6
f 6 22 23
f 6 23 7
f 6 21 24
f 6 24 22
f 7 23 25
f 7 25 26
f 7 26 48
f 7 48 27
f 7 27 8
f 8 27 28
f 8 28 11
f 9 29 30
f 9 30 13
f 9 13 10
f 9 11 29
f 11 28 31
f 11 31 32
f 11 32 33
f 11 33 29
f 12 15 34
f 12 34 16
f 13 30 35
f 13 35 14
f 14 35 36
f 14 36 15
f 15 36 34
f 16 34 37
f 16 37 38
f 16 38 39
f 16 39 17
f 17 39 18
f 18 39 19
f 19 40 20
f 19 39 40
f 20 40 41
f 20 41 21
f 21 41 42
f 21 42 24
f 22 43 23
f 22 24 42
f 22 42 44
f 22 44 43
f 23 45 25
f 23 43 45
f 25 45 46
f 25 46 47
f 25 47 26
f 26 47 49
f 26 49 48
f 27 48 50
f 27 50 28
f 28 50 49
f 28 49 31
f 29 51 30
f 29 33 52
f 29 52 51
f 30 51 35
f 31 53 32
f 31 49 47
f 31 47 53
f 32 54 52
f 32 52 33
f 32 53 54
f 34 36 37
f 35 51 55
f 35 55 36
f 36 55 37
f 37 55 56
f 37 56 38
f 38 56 40
f 38 40 39
f 40 57 41
f 40 56 57
f 41 58 42
f 41 57 58
f 42 58 44
f 43 44 59
f 43 59 45
f 44 58 60
f 44 60 59
f 45 59 46
f 46 59 60
f 46 60 61
f 46 61 53
f 46 53 47
f 48 49 50
f 51 52 62
f 51 62 55
f 52 54 62
f 53 61 63
f 53 63 54
f 54 63 62
f 55 62 56
f 56 62 57
f 57 62 64
f 57 64 58
f 58 64 60
f 60 64 63
f 60 63 61
f 62 63 64

