# https://github.com/mikedh/trimesh

o torso_shell_left_aft_348.obj
v -0.12307183 0.09327155 0.33799323
v -0.12307183 0.09326201 0.33801358
v -0.12307183 0.08803749 0.33799323
v -0.12318070 0.09317724 0.33799323
v -0.12307183 0.09316824 0.33821251
v -0.12307183 0.08785947 0.33833778
v -0.12509260 0.08785947 0.33799323
v -0.12418862 0.09226649 0.33799323
v -0.12318345 0.09307764 0.33819821
v -0.12307183 0.09228503 0.33992436
v -0.12307183 0.08785947 0.34024322
v -0.12868931 0.08785947 0.33799323
v -0.12419027 0.09220291 0.33812310
v -0.12519598 0.09133136 0.33799323
v -0.12519653 0.09131017 0.33803660
v -0.12315816 0.09221562 0.33991127
v -0.12308448 0.09197244 0.34046832
v -0.12307183 0.09198356 0.34046832
v -0.12307183 0.08844333 0.34046832
v -0.12334236 0.08785947 0.34046832
v -0.12816528 0.08785947 0.33901331
v -0.12862332 0.08792835 0.33799323
v -0.12416552 0.09134672 0.33980999
v -0.12548631 0.09105533 0.33799323
v -0.12517234 0.09046087 0.33969708
v -0.12314166 0.09192105 0.34046832
v -0.12735312 0.08785947 0.34046832
v -0.12714032 0.08807881 0.34046832
v -0.12717441 0.08872095 0.33928735
v -0.12818508 0.08838505 0.33799323
v -0.12414628 0.09099652 0.34046832
v -0.12619674 0.09037398 0.33799323
v -0.12617475 0.08958561 0.33952165
v -0.12515034 0.09004655 0.34046832
v -0.12614781 0.08907381 0.34046832
v -0.12719256 0.08939170 0.33799323
f 1 2 5
f 1 5 10
f 1 10 18
f 1 18 19
f 1 19 11
f 1 11 6
f 1 6 3
f 1 3 7
f 1 7 12
f 1 12 22
f 1 22 30
f 1 30 36
f 1 36 32
f 1 32 24
f 1 24 14
f 1 14 8
f 1 8 4
f 1 4 2
f 2 4 5
f 3 6 7
f 4 8 9
f 4 9 5
f 5 9 10
f 6 11 20
f 6 20 27
f 6 27 21
f 6 21 12
f 6 12 7
f 8 13 9
f 8 14 15
f 8 15 13
f 9 13 16
f 9 16 10
f 10 16 17
f 10 17 18
f 11 19 20
f 12 21 22
f 13 23 16
f 13 15 23
f 14 24 15
f 15 25 23
f 15 24 25
f 16 26 17
f 16 23 26
f 17 26 31
f 17 31 34
f 17 34 35
f 17 35 28
f 17 28 27
f 17 27 20
f 17 20 19
f 17 19 18
f 21 27 28
f 21 28 29
f 21 29 30
f 21 30 22
f 23 25 31
f 23 31 26
f 24 32 25
f 25 32 33
f 25 33 34
f 25 34 31
f 28 35 29
f 29 35 33
f 29 33 36
f 29 36 30
f 32 36 33
f 33 35 34

