# https://github.com/mikedh/trimesh

o torso_shell_left_fore_201.obj
v 0.14410167 0.00740891 0.30304949
v 0.14392202 0.00854521 0.30304949
v 0.14159386 0.00740891 0.30304949
v 0.14401466 0.00740891 0.30271259
v 0.14391155 0.00860697 0.30304949
v 0.14251707 0.01063082 0.29889610
v 0.14079955 0.01173031 0.30304949
v 0.13621091 0.00740891 0.28566685
v 0.14396149 0.00740891 0.30251011
v 0.14251707 0.00924916 0.29805385
v 0.14390430 0.00864927 0.30304949
v 0.14168893 0.01173031 0.29671646
v 0.14216020 0.01173031 0.29839245
v 0.14251707 0.01129923 0.29936231
v 0.14378426 0.00933715 0.30304949
v 0.14314382 0.01173031 0.30304949
v 0.13587256 0.01173031 0.28567365
v 0.13605785 0.00934307 0.28566685
v 0.13889111 0.00740891 0.28566685
v 0.14395747 0.00740891 0.30249480
v 0.14301734 0.00740891 0.29899138
v 0.14251707 0.00781207 0.29733071
v 0.13974020 0.01173031 0.29009248
v 0.14036373 0.01173031 0.29216151
v 0.14221175 0.01173031 0.29857621
v 0.14224317 0.01173031 0.29868851
v 0.14244940 0.01173031 0.29943548
v 0.14251707 0.01162709 0.29960563
v 0.14372143 0.00967897 0.30304949
v 0.14331460 0.01172819 0.30304949
v 0.14331299 0.01173031 0.30304609
v 0.13590479 0.01173031 0.28566685
v 0.13888144 0.00752144 0.28566685
v 0.13905706 0.00740891 0.28618581
v 0.14289328 0.00740891 0.29853027
v 0.14287878 0.00740891 0.29847753
v 0.14251707 0.00740891 0.29716906
v 0.13973698 0.01051194 0.28947483
v 0.13848187 0.01173031 0.28593058
v 0.14251707 0.01173031 0.29968560
v 0.14255332 0.01173031 0.29983363
v 0.14366745 0.00996749 0.30304949
v 0.14337663 0.01142064 0.30304949
v 0.14327755 0.01173031 0.30289295
v 0.13840051 0.01173031 0.28566685
v 0.13881217 0.00820889 0.28566685
v 0.13973698 0.00794110 0.28849135
v 0.14027431 0.00740891 0.29001761
v 0.13979498 0.00740891 0.28850837
v 0.13941071 0.00740891 0.28729859
v 0.14148994 0.00740891 0.29386813
v 0.13973698 0.00850925 0.28867342
v 0.14265161 0.01173031 0.30023689
v 0.14364893 0.01006521 0.30304949
v 0.14348056 0.01090495 0.30304949
v 0.14265885 0.01173031 0.30026752
v 0.14363523 0.01013713 0.30304949
v 0.13848751 0.01103060 0.28566685
v 0.13871952 0.00912647 0.28566685
v 0.14114032 0.00740891 0.29274513
v 0.13869938 0.00932234 0.28566685
f 1 2 5
f 1 5 11
f 1 11 15
f 1 15 29
f 1 29 42
f 1 42 54
f 1 54 57
f 1 57 55
f 1 55 43
f 1 43 30
f 1 30 16
f 1 16 7
f 1 7 3
f 1 3 8
f 1 8 19
f 1 19 34
f 1 34 50
f 1 50 49
f 1 49 48
f 1 48 60
f 1 60 51
f 1 51 37
f 1 37 36
f 1 36 35
f 1 35 21
f 1 21 20
f 1 20 9
f 1 9 4
f 1 4 2
f 2 4 6
f 2 6 5
f 3 7 8
f 4 9 10
f 4 10 6
f 5 6 11
f 6 10 12
f 6 12 13
f 6 13 14
f 6 14 15
f 6 15 11
f 7 16 31
f 7 31 44
f 7 44 56
f 7 56 53
f 7 53 41
f 7 41 40
f 7 40 27
f 7 27 26
f 7 26 25
f 7 25 13
f 7 13 12
f 7 12 24
f 7 24 23
f 7 23 39
f 7 39 45
f 7 45 32
f 7 32 17
f 7 17 18
f 7 18 8
f 8 18 32
f 8 32 45
f 8 45 58
f 8 58 61
f 8 61 59
f 8 59 46
f 8 46 33
f 8 33 19
f 9 20 10
f 10 20 21
f 10 21 22
f 10 22 23
f 10 23 24
f 10 24 12
f 13 25 14
f 14 25 26
f 14 26 27
f 14 27 28
f 14 28 15
f 15 28 29
f 16 30 31
f 17 32 18
f 19 33 34
f 21 35 22
f 22 35 36
f 22 36 37
f 22 37 38
f 22 38 23
f 23 38 39
f 27 40 28
f 28 40 41
f 28 41 42
f 28 42 29
f 30 43 44
f 30 44 31
f 33 46 47
f 33 47 48
f 33 48 49
f 33 49 50
f 33 50 34
f 37 51 52
f 37 52 38
f 38 52 45
f 38 45 39
f 41 53 42
f 42 53 54
f 43 55 44
f 44 55 57
f 44 57 56
f 45 52 58
f 46 59 47
f 47 59 52
f 47 52 60
f 47 60 48
f 51 60 52
f 52 59 61
f 52 61 58
f 53 56 57
f 53 57 54

