# https://github.com/mikedh/trimesh

o torso_shell_left_fore_074.obj
v -0.00628015 0.08006953 0.38501183
v -0.00628015 0.06687910 0.39161561
v -0.00628015 0.08006953 0.38214087
v -0.01818161 0.08006953 0.38549250
v -0.02099837 0.07859969 0.38646219
v -0.02570889 0.07614271 0.38808269
v -0.02570889 0.06931794 0.39161561
v -0.00628015 0.06153144 0.39161561
v -0.00628015 0.08006227 0.38212135
v -0.00629926 0.08006953 0.38211762
v -0.02570889 0.08006953 0.38576677
v -0.02579297 0.07498317 0.38598525
v -0.02579870 0.06817837 0.38950516
v -0.02580252 0.06348396 0.39161561
v -0.00715537 0.06159495 0.39161561
v -0.00694516 0.08006953 0.38214273
v -0.02578723 0.08006953 0.38298226
v -0.01638913 0.06250044 0.39161561
v -0.01180856 0.06205042 0.39161561
f 1 2 8
f 1 8 9
f 1 9 3
f 1 3 10
f 1 10 16
f 1 16 17
f 1 17 11
f 1 11 4
f 1 4 5
f 1 5 6
f 1 6 7
f 1 7 2
f 2 7 14
f 2 14 18
f 2 18 19
f 2 19 15
f 2 15 8
f 3 9 10
f 4 11 5
f 5 11 6
f 6 11 12
f 6 12 13
f 6 13 7
f 7 13 14
f 8 10 9
f 8 15 10
f 10 15 16
f 11 17 12
f 12 17 14
f 12 14 13
f 14 17 18
f 15 19 17
f 15 17 16
f 17 19 18

