# https://github.com/mikedh/trimesh

o torso_shell_right_fore_148.obj
v 0.14581427 -0.00040899 0.30695123
v 0.14334029 -0.00012136 0.30695123
v 0.14580488 -0.00098353 0.30695123
v 0.14529788 -0.00085019 0.30520306
v 0.14437120 -0.00049067 0.30201092
v 0.14529788 -0.00024423 0.30518014
v 0.14522558 -0.00012136 0.30494677
v 0.14261641 -0.00725186 0.30695123
v 0.13721967 -0.00011997 0.28566685
v 0.13677369 -0.00011997 0.28566685
v 0.14578516 -0.00154760 0.30695123
v 0.14529788 -0.00150433 0.30526348
v 0.14437120 -0.00161672 0.30208802
v 0.14251689 -0.00181917 0.29574125
v 0.14251689 -0.00061354 0.29567040
v 0.14237136 -0.00012136 0.29519533
v 0.14482562 -0.00725186 0.30575314
v 0.14514954 -0.00707803 0.30692415
v 0.14524248 -0.00658308 0.30695123
v 0.13622350 -0.00725186 0.28566685
v 0.13920636 -0.00012136 0.28566685
v 0.14574761 -0.00228551 0.30695123
v 0.14529788 -0.00206700 0.30534891
v 0.14437120 -0.00215636 0.30215886
v 0.14251689 -0.00233438 0.29579751
v 0.13915003 -0.00348556 0.28566685
v 0.13920073 -0.00176053 0.28566685
v 0.13921763 -0.00099610 0.28566685
v 0.13966454 -0.00070848 0.28700871
v 0.13966454 -0.00054024 0.28700663
v 0.13922044 -0.00056048 0.28566685
v 0.14450733 -0.00725186 0.30451962
v 0.14547908 -0.00499069 0.30695123
v 0.14408859 -0.00725186 0.30290272
v 0.14534576 -0.00565808 0.30679288
v 0.13894535 -0.00677925 0.28566685
v 0.13895474 -0.00725186 0.28582312
v 0.14571381 -0.00276860 0.30695123
v 0.14529788 -0.00262689 0.30545935
v 0.14437120 -0.00316234 0.30234639
v 0.14437120 -0.00277488 0.30226721
v 0.14251689 -0.00306739 0.29590377
v 0.13912749 -0.00395190 0.28566685
v 0.14302858 -0.00725186 0.29895630
v 0.14554011 -0.00452644 0.30695123
v 0.13900168 -0.00604693 0.28566685
v 0.14251689 -0.00454459 0.29620173
v 0.14251689 -0.00509610 0.29634342
v 0.13930213 -0.00725186 0.28690869
v 0.13973683 -0.00697262 0.28818597
v 0.14564339 -0.00358329 0.30695123
v 0.14529788 -0.00315815 0.30559270
v 0.14437120 -0.00348346 0.30242557
v 0.14251689 -0.00413480 0.29610588
v 0.14251689 -0.00365101 0.29601004
v 0.13909463 -0.00461929 0.28566685
v 0.14559363 -0.00404614 0.30695123
v 0.14251689 -0.00725186 0.29710395
v 0.14251689 -0.00576000 0.29655178
v 0.14083627 -0.00725186 0.29173232
v 0.14251689 -0.00632897 0.29673306
v 0.14133952 -0.00725186 0.29332422
f 1 2 8
f 1 8 19
f 1 19 33
f 1 33 45
f 1 45 57
f 1 57 51
f 1 51 38
f 1 38 22
f 1 22 11
f 1 11 3
f 1 3 4
f 1 4 5
f 1 5 6
f 1 6 7
f 1 7 2
f 2 7 9
f 2 9 10
f 2 10 8
f 3 11 12
f 3 12 13
f 3 13 14
f 3 14 4
f 4 14 15
f 4 15 5
f 5 15 6
f 6 15 16
f 6 16 7
f 7 16 9
f 8 17 18
f 8 18 19
f 8 10 20
f 8 20 37
f 8 37 49
f 8 49 60
f 8 60 62
f 8 62 58
f 8 58 44
f 8 44 34
f 8 34 32
f 8 32 17
f 9 21 31
f 9 31 28
f 9 28 27
f 9 27 26
f 9 26 43
f 9 43 56
f 9 56 46
f 9 46 36
f 9 36 20
f 9 20 10
f 9 16 21
f 11 22 23
f 11 23 24
f 11 24 12
f 12 24 25
f 12 25 13
f 13 25 14
f 14 16 15
f 14 25 26
f 14 26 27
f 14 27 28
f 14 28 16
f 16 28 29
f 16 29 30
f 16 30 31
f 16 31 21
f 17 19 18
f 17 32 19
f 19 32 34
f 19 34 35
f 19 35 33
f 20 36 37
f 22 38 39
f 22 39 40
f 22 40 41
f 22 41 23
f 23 41 42
f 23 42 24
f 24 42 25
f 25 42 26
f 26 42 43
f 28 31 29
f 29 31 30
f 33 35 34
f 33 34 44
f 33 44 45
f 36 46 47
f 36 47 48
f 36 48 37
f 37 48 50
f 37 50 49
f 38 51 52
f 38 52 53
f 38 53 39
f 39 53 40
f 40 53 47
f 40 47 54
f 40 54 41
f 41 54 55
f 41 55 42
f 42 55 56
f 42 56 43
f 44 57 45
f 44 58 57
f 46 56 54
f 46 54 47
f 47 53 48
f 48 59 60
f 48 60 50
f 48 53 52
f 48 52 59
f 49 50 60
f 51 57 61
f 51 61 59
f 51 59 52
f 54 56 55
f 57 58 61
f 58 62 61
f 59 61 60
f 60 61 62

