# https://github.com/mikedh/trimesh

o torso_shell_right_fore_090.obj
v 0.09979416 -0.07855336 0.34457771
v 0.09682045 -0.07855336 0.34941461
v 0.09589661 -0.08218967 0.34457771
v 0.09593556 -0.07855336 0.34457771
v 0.09450900 -0.07855336 0.35317315
v 0.09163916 -0.08597696 0.34457771
v 0.09205285 -0.08188611 0.34457771
v 0.08518529 -0.07986665 0.35740245
v 0.08674357 -0.07855336 0.35740245
v 0.09116426 -0.07855336 0.35715388
v 0.09358145 -0.07924978 0.35338781
v 0.09097875 -0.08120267 0.35398787
v 0.08274955 -0.09365707 0.34457771
v 0.08084622 -0.09175936 0.34457771
v 0.08084251 -0.09175774 0.34458399
v 0.08084251 -0.09066684 0.34627496
v 0.08084251 -0.08814739 0.35018540
v 0.08263639 -0.08206468 0.35740245
v 0.09095278 -0.07855336 0.35740245
v 0.09100472 -0.07855336 0.35734344
v 0.08982117 -0.08139910 0.35509761
v 0.08835936 -0.08304031 0.35460677
v 0.08573625 -0.08487958 0.35522566
v 0.08309089 -0.08658897 0.35583199
v 0.08084251 -0.08804025 0.35634795
v 0.08084251 -0.09513757 0.34457771
v 0.08084251 -0.09286974 0.34457771
v 0.08084251 -0.08363933 0.35740245
v 0.09092495 -0.07857933 0.35740245
v 0.08957816 -0.08017347 0.35694173
v 0.08865988 -0.08159390 0.35620609
v 0.08334133 -0.08522535 0.35740245
v 0.08814417 -0.08159066 0.35678858
v 0.08760619 -0.08158092 0.35740245
v 0.08084251 -0.08736006 0.35715012
v 0.08084251 -0.08714578 0.35740245
v 0.09014952 -0.07928549 0.35740245
v 0.08976552 -0.07963289 0.35740245
v 0.08892702 -0.08064586 0.35708484
v 0.08792526 -0.08129358 0.35740245
f 1 2 3
f 1 3 6
f 1 6 13
f 1 13 26
f 1 26 27
f 1 27 14
f 1 14 7
f 1 7 4
f 1 4 9
f 1 9 19
f 1 19 20
f 1 20 10
f 1 10 5
f 1 5 2
f 2 5 3
f 3 5 6
f 4 7 8
f 4 8 9
f 5 10 11
f 5 11 6
f 6 11 12
f 6 12 13
f 7 14 15
f 7 15 16
f 7 16 17
f 7 17 18
f 7 18 8
f 8 18 28
f 8 28 36
f 8 36 32
f 8 32 34
f 8 34 40
f 8 40 38
f 8 38 37
f 8 37 29
f 8 29 19
f 8 19 9
f 10 20 12
f 10 12 11
f 12 20 21
f 12 21 22
f 12 22 13
f 13 22 23
f 13 23 24
f 13 24 25
f 13 25 26
f 14 27 15
f 15 27 26
f 15 26 25
f 15 25 35
f 15 35 36
f 15 36 28
f 15 28 17
f 15 17 16
f 17 28 18
f 19 29 20
f 20 29 30
f 20 30 31
f 20 31 21
f 21 31 23
f 21 23 22
f 23 32 24
f 23 31 33
f 23 33 34
f 23 34 32
f 24 32 25
f 25 32 35
f 29 37 30
f 30 37 38
f 30 38 39
f 30 39 33
f 30 33 31
f 32 36 35
f 33 39 40
f 33 40 34
f 38 40 39

