# https://github.com/mikedh/trimesh

o torso_open_chassis_plate_105.obj
v 0.00586513 0.06629829 0.31559999
v 0.00666337 0.06431556 0.31559999
v 0.00586513 0.06629829 0.31859999
v 0.01395401 0.06629829 0.31559999
v 0.00666337 0.06431556 0.31859999
v 0.01397863 0.06431556 0.31559999
v 0.01395401 0.06629829 0.31859999
v 0.01395957 0.06587480 0.31660019
v 0.01397863 0.06431556 0.31859999
v 0.01397148 0.06492633 0.31759980
f 1 2 5
f 1 5 3
f 1 3 7
f 1 7 4
f 1 4 6
f 1 6 2
f 2 6 9
f 2 9 5
f 3 5 9
f 3 9 7
f 4 7 8
f 4 8 6
f 6 8 10
f 6 10 9
f 7 9 10
f 7 10 8

