# https://github.com/mikedh/trimesh

o torso_open_chassis_plate_126.obj
v -0.11121739 0.03503720 0.31762080
v -0.11117357 0.03291458 0.31762080
v -0.11121739 0.03503720 0.31559999
v -0.11499963 0.03503720 0.31762080
v -0.11117357 0.03291458 0.31559999
v -0.11117357 0.03240396 0.31762080
v -0.11499963 0.03503720 0.31559999
v -0.11499963 0.03240396 0.31762080
v -0.11117357 0.03240396 0.31559999
v -0.11499963 0.03240396 0.31559999
f 1 2 5
f 1 5 3
f 1 3 7
f 1 7 4
f 1 4 8
f 1 8 6
f 1 6 2
f 2 6 9
f 2 9 5
f 3 5 9
f 3 9 10
f 3 10 7
f 4 7 10
f 4 10 8
f 6 8 10
f 6 10 9

