# https://github.com/mikedh/trimesh

o torso_shell_left_aft_277.obj
v -0.15381465 0.00070449 0.26661262
v -0.15307939 0.00150894 0.26519766
v -0.15307939 0.00012395 0.26518550
v -0.15111491 0.00012395 0.26661262
v -0.15378193 0.00328426 0.26661262
v -0.15207927 0.00012593 0.26329844
v -0.15307939 0.00289194 0.26523278
v -0.15207927 0.00156045 0.26331127
v -0.15107914 0.00012395 0.26145865
v -0.15010869 0.00012197 0.25971274
v -0.14734729 0.00011603 0.25971274
v -0.14977988 0.02035581 0.26661262
v -0.15370048 0.00605422 0.26661262
v -0.15307939 0.00427098 0.26529154
v -0.15107914 0.00160999 0.26147148
v -0.15207927 0.00442751 0.26340852
v -0.15207927 0.00299497 0.26334774
v -0.15010107 0.00168528 0.25971274
v -0.14603966 0.02035581 0.25971274
v -0.14894567 0.02028448 0.25993022
v -0.15246136 0.01968214 0.26638501
v -0.15286932 0.01721731 0.26661262
v -0.15331231 0.00914715 0.26614862
v -0.15307939 0.00702510 0.26547930
v -0.15307939 0.00565002 0.26537393
v -0.15308092 0.01520225 0.26660924
v -0.15314714 0.01379349 0.26648429
v -0.15322706 0.01178833 0.26632354
v -0.15107914 0.00309404 0.26150930
v -0.15207927 0.00585608 0.26349430
v -0.15107914 0.00605422 0.26166127
v -0.15107914 0.00457413 0.26157279
v -0.15007976 0.00317527 0.25971342
v -0.14934907 0.01563220 0.25971274
v -0.14912378 0.01786126 0.25972895
v -0.15007976 0.02004870 0.26193278
v -0.15007976 0.01827140 0.26153632
v -0.15114764 0.01974356 0.26385902
v -0.15207927 0.01849530 0.26534759
v -0.15207927 0.01711824 0.26504637
v -0.15207927 0.00870530 0.26373812
v -0.15207927 0.01012397 0.26389616
v -0.15207927 0.00728268 0.26360372
v -0.15207927 0.01573326 0.26476878
v -0.15207927 0.01434034 0.26451483
v -0.15207927 0.01293951 0.26428452
v -0.15207927 0.01153273 0.26407852
v -0.15006073 0.00470292 0.25974651
v -0.15107914 0.00753035 0.26177473
v -0.15003410 0.00625038 0.25979244
v -0.15007976 0.01679131 0.26123847
v -0.15000061 0.00778198 0.25985120
v -0.14996407 0.00922839 0.25992279
v -0.14991840 0.01072631 0.26000789
v -0.14986513 0.01222424 0.26010515
v -0.14980500 0.01372017 0.26021591
v -0.15007976 0.01530329 0.26096628
v -0.15107914 0.01770671 0.26326939
v -0.15107914 0.00900251 0.26191386
v -0.15107914 0.01192703 0.26226710
v -0.15107914 0.01046477 0.26207799
v -0.15107914 0.01627417 0.26298302
v -0.15107914 0.01483173 0.26271961
v -0.15107914 0.01338334 0.26248053
f 1 2 3
f 1 3 4
f 1 4 12
f 1 12 22
f 1 22 13
f 1 13 5
f 1 5 2
f 2 6 3
f 2 5 7
f 2 7 8
f 2 8 6
f 3 6 9
f 3 9 10
f 3 10 11
f 3 11 4
f 4 11 12
f 5 13 14
f 5 14 7
f 6 8 15
f 6 15 9
f 7 14 16
f 7 16 17
f 7 17 8
f 8 17 15
f 9 15 10
f 10 15 18
f 10 18 34
f 10 34 19
f 10 19 11
f 11 19 12
f 12 19 20
f 12 20 21
f 12 21 22
f 13 23 24
f 13 24 25
f 13 25 14
f 13 22 26
f 13 26 27
f 13 27 28
f 13 28 23
f 14 25 16
f 15 17 29
f 15 29 18
f 16 25 30
f 16 30 31
f 16 31 32
f 16 32 29
f 16 29 17
f 18 29 33
f 18 33 34
f 19 34 35
f 19 35 20
f 20 36 21
f 20 35 37
f 20 37 36
f 21 38 39
f 21 39 22
f 21 36 38
f 22 39 40
f 22 40 26
f 23 41 24
f 23 28 42
f 23 42 41
f 24 41 43
f 24 43 30
f 24 30 25
f 26 40 44
f 26 44 45
f 26 45 27
f 27 45 46
f 27 46 28
f 28 46 47
f 28 47 42
f 29 32 33
f 30 43 31
f 31 48 32
f 31 43 49
f 31 49 50
f 31 50 48
f 32 48 33
f 33 48 34
f 34 51 35
f 34 48 50
f 34 50 52
f 34 52 53
f 34 53 54
f 34 54 55
f 34 55 56
f 34 56 57
f 34 57 51
f 35 51 37
f 36 37 58
f 36 58 38
f 37 51 58
f 38 58 39
f 39 58 40
f 40 58 44
f 41 42 59
f 41 59 49
f 41 49 43
f 42 47 60
f 42 60 61
f 42 61 59
f 44 58 62
f 44 62 63
f 44 63 45
f 45 63 64
f 45 64 46
f 46 64 60
f 46 60 47
f 49 59 52
f 49 52 50
f 51 57 62
f 51 62 58
f 52 59 53
f 53 59 54
f 54 59 61
f 54 61 60
f 54 60 55
f 55 60 64
f 55 64 56
f 56 64 57
f 57 64 63
f 57 63 62

