# https://github.com/mikedh/trimesh

o torso_shell_left_fore_027.obj
v 0.05844304 0.08730812 0.37116708
v 0.05840900 0.08366391 0.37116708
v 0.05917970 0.08705994 0.37116708
v 0.05840900 0.09398769 0.36517133
v 0.06863424 0.07865021 0.37116708
v 0.05840900 0.09408589 0.36150516
v 0.05880536 0.09438407 0.36096083
v 0.05925577 0.09461262 0.36047443
v 0.06408513 0.09490901 0.35740245
v 0.06782751 0.09279676 0.35740245
v 0.05975222 0.08683853 0.37116708
v 0.05853812 0.09482866 0.36437234
v 0.05840900 0.09599638 0.36299265
v 0.06863424 0.08244977 0.37116708
v 0.06863324 0.09246109 0.35740380
v 0.06863424 0.09566071 0.35740649
v 0.05985031 0.09478046 0.35997860
v 0.06043083 0.09486259 0.35957978
v 0.06097632 0.09489651 0.35924563
v 0.06140171 0.09491794 0.35899368
v 0.06646828 0.09688735 0.35745499
v 0.06787255 0.09611958 0.35740245
v 0.06033274 0.08661178 0.37116708
v 0.05874030 0.09506792 0.36402337
v 0.05861119 0.09543217 0.36365959
v 0.06145375 0.09370380 0.36427668
v 0.05915168 0.09590354 0.36288081
v 0.05943393 0.09614280 0.36246987
v 0.05978525 0.09633027 0.36208048
v 0.06031473 0.09650525 0.36161160
v 0.06863424 0.09062916 0.36366902
v 0.06423827 0.09263249 0.36417024
v 0.06509705 0.08450131 0.37116708
v 0.06791059 0.09606959 0.35744152
v 0.06863424 0.09510542 0.35817448
v 0.06069006 0.09658203 0.36133000
v 0.06042382 0.09571070 0.36054180
v 0.06092127 0.09576784 0.36021573
v 0.06129061 0.09665523 0.36093118
v 0.06218041 0.09669630 0.36040302
v 0.06317831 0.09669452 0.35982904
v 0.06603689 0.09683021 0.35784169
v 0.06683061 0.09434122 0.36048251
v 0.06268086 0.08561011 0.37116708
v 0.06438040 0.09319136 0.36344536
v 0.06863424 0.09113981 0.36309774
v 0.06655736 0.09217005 0.36324190
v 0.06359669 0.08521551 0.37116708
v 0.06400206 0.08503339 0.37116708
v 0.06458258 0.08476199 0.37116708
v 0.06863424 0.09427694 0.35924563
v 0.06448249 0.09370558 0.36277707
v 0.06417521 0.09669273 0.35925102
v 0.06454054 0.09670701 0.35900446
v 0.06490687 0.09671951 0.35875789
v 0.06565555 0.09678022 0.35817718
v 0.06542234 0.09411982 0.36169648
v 0.06863424 0.09192722 0.36220713
v 0.06863424 0.09353239 0.36018609
v 0.06503699 0.09396091 0.36213437
v 0.06648730 0.09328063 0.36200099
f 1 2 5
f 1 5 14
f 1 14 33
f 1 33 50
f 1 50 49
f 1 49 48
f 1 48 44
f 1 44 23
f 1 23 11
f 1 11 3
f 1 3 4
f 1 4 2
f 2 4 13
f 2 13 6
f 2 6 7
f 2 7 8
f 2 8 9
f 2 9 10
f 2 10 5
f 3 11 12
f 3 12 4
f 4 12 13
f 5 10 15
f 5 15 16
f 5 16 35
f 5 35 51
f 5 51 59
f 5 59 58
f 5 58 46
f 5 46 31
f 5 31 14
f 6 13 7
f 7 13 8
f 8 13 17
f 8 17 9
f 9 17 18
f 9 18 19
f 9 19 20
f 9 20 21
f 9 21 22
f 9 22 10
f 10 22 15
f 11 23 12
f 12 24 25
f 12 25 13
f 12 23 26
f 12 26 24
f 13 25 27
f 13 27 28
f 13 28 29
f 13 29 30
f 13 30 17
f 14 31 32
f 14 32 33
f 15 22 16
f 16 22 34
f 16 34 35
f 17 30 36
f 17 36 37
f 17 37 18
f 18 37 38
f 18 38 21
f 18 21 19
f 19 21 20
f 21 39 40
f 21 40 41
f 21 41 42
f 21 42 43
f 21 43 35
f 21 35 34
f 21 34 22
f 21 38 39
f 23 44 26
f 24 27 25
f 24 26 32
f 24 32 27
f 26 44 32
f 27 32 28
f 28 32 29
f 29 32 30
f 30 32 45
f 30 45 36
f 31 46 47
f 31 47 32
f 32 44 48
f 32 48 49
f 32 49 50
f 32 50 33
f 32 47 45
f 35 43 51
f 36 39 37
f 36 45 39
f 37 39 38
f 39 45 52
f 39 52 40
f 40 52 41
f 41 53 54
f 41 54 42
f 41 52 53
f 42 54 55
f 42 55 56
f 42 56 43
f 43 57 58
f 43 58 59
f 43 59 51
f 43 56 55
f 43 55 57
f 45 47 58
f 45 58 60
f 45 60 52
f 46 58 47
f 52 60 53
f 53 60 57
f 53 57 54
f 54 57 55
f 57 60 61
f 57 61 58
f 58 61 60

