# https://github.com/mikedh/trimesh

o torso_shell_left_aft_066.obj
v -0.12250302 0.03464678 0.38280456
v -0.12216704 0.03509896 0.38628742
v -0.12227874 0.03744673 0.38542365
v -0.12231206 0.04766041 0.38135762
v -0.12250302 0.04769618 0.37769791
v -0.11330177 0.03464678 0.39003337
v -0.11949719 0.03464678 0.38865952
v -0.12105911 0.03779928 0.38636343
v -0.12105911 0.03516283 0.38722136
v -0.12227874 0.03952881 0.38469726
v -0.12227874 0.04158917 0.38392849
v -0.12227874 0.04363293 0.38312171
v -0.12227874 0.04565370 0.38227694
v -0.12105911 0.04608416 0.38317287
v -0.12064025 0.04769618 0.38281771
v -0.11330177 0.04769618 0.38519126
v -0.11334951 0.04245011 0.39028914
v -0.11334951 0.04034759 0.39105207
v -0.11334951 0.03822463 0.39177700
v -0.11339725 0.03586409 0.39250631
v -0.11379989 0.03464678 0.39262762
v -0.11750922 0.03464678 0.39017222
v -0.11817037 0.03594840 0.38929091
v -0.11911707 0.03594201 0.38856452
v -0.12007908 0.03585898 0.38782059
v -0.12105911 0.03990179 0.38562535
v -0.12007908 0.03799088 0.38711758
v -0.12105911 0.04198132 0.38484926
v -0.12105911 0.04404296 0.38403080
v -0.12007908 0.04632047 0.38390803
v -0.12007908 0.04426777 0.38477180
v -0.11929092 0.04769618 0.38394895
v -0.11361884 0.04769618 0.38801351
v -0.11335041 0.04660405 0.38864490
v -0.11334951 0.04453602 0.38948529
v -0.11490242 0.04426011 0.38862444
v -0.11490242 0.04217675 0.38942683
v -0.11490242 0.04007679 0.39019122
v -0.11490242 0.03795639 0.39091469
v -0.11490242 0.03582066 0.39160015
v -0.11562573 0.03464678 0.39147884
v -0.11676879 0.03588325 0.39032861
v -0.11676879 0.03802026 0.38963583
v -0.11817037 0.03808796 0.38859082
v -0.11911707 0.03807902 0.38786151
v -0.12007908 0.04010361 0.38637512
v -0.11911707 0.04019814 0.38711758
v -0.12007908 0.04219464 0.38559173
v -0.11911707 0.04643416 0.38465049
v -0.11911707 0.04229555 0.38633420
v -0.11911707 0.04437507 0.38551134
v -0.11835413 0.04769618 0.38469872
v -0.11505645 0.04769618 0.38708835
v -0.11490242 0.04632303 0.38778259
v -0.11676879 0.04432270 0.38731636
v -0.11676879 0.04224062 0.38812897
v -0.11676879 0.04014066 0.38890214
v -0.11817037 0.04020836 0.38784982
v -0.11817037 0.04230832 0.38706789
v -0.11817037 0.04645204 0.38538858
v -0.11817037 0.04439040 0.38624796
v -0.11741283 0.04769618 0.38541927
v -0.11646704 0.04769618 0.38611350
v -0.11676879 0.04638434 0.38646427
f 1 2 3
f 1 3 4
f 1 4 5
f 1 5 6
f 1 6 21
f 1 21 41
f 1 41 22
f 1 22 7
f 1 7 2
f 2 8 3
f 2 7 9
f 2 9 8
f 3 8 10
f 3 10 4
f 4 10 11
f 4 11 12
f 4 12 13
f 4 13 14
f 4 14 15
f 4 15 5
f 5 15 32
f 5 32 52
f 5 52 62
f 5 62 63
f 5 63 53
f 5 53 33
f 5 33 16
f 5 16 6
f 6 17 18
f 6 18 19
f 6 19 20
f 6 20 21
f 6 16 17
f 7 22 23
f 7 23 24
f 7 24 25
f 7 25 9
f 8 26 10
f 8 9 25
f 8 25 27
f 8 27 26
f 10 26 11
f 11 26 28
f 11 28 12
f 12 28 29
f 12 29 13
f 13 29 14
f 14 30 15
f 14 29 31
f 14 31 30
f 15 30 32
f 16 33 34
f 16 34 35
f 16 35 17
f 17 35 36
f 17 36 37
f 17 37 38
f 17 38 18
f 18 38 19
f 19 38 39
f 19 39 20
f 20 39 40
f 20 40 21
f 21 40 41
f 22 41 42
f 22 42 23
f 23 42 43
f 23 43 44
f 23 44 24
f 24 44 45
f 24 45 25
f 25 45 27
f 26 27 46
f 26 46 28
f 27 45 47
f 27 47 46
f 28 31 29
f 28 46 48
f 28 48 31
f 30 31 49
f 30 49 32
f 31 48 50
f 31 50 51
f 31 51 49
f 32 49 52
f 33 53 54
f 33 54 34
f 34 54 36
f 34 36 35
f 36 54 55
f 36 55 56
f 36 56 37
f 37 56 57
f 37 57 38
f 38 57 43
f 38 43 39
f 39 42 40
f 39 43 42
f 40 42 41
f 43 57 44
f 44 57 58
f 44 58 45
f 45 58 47
f 46 50 48
f 46 47 50
f 47 58 59
f 47 59 50
f 49 51 60
f 49 60 52
f 50 59 61
f 50 61 51
f 51 61 60
f 52 60 62
f 53 63 54
f 54 63 64
f 54 64 55
f 55 64 61
f 55 61 59
f 55 59 56
f 56 59 58
f 56 58 57
f 60 61 64
f 60 64 62
f 62 64 63

