# https://github.com/mikedh/trimesh

o torso_shell_right_fore_134.obj
v 0.07839611 -0.09285986 0.25870704
v 0.08125116 -0.09025837 0.25871418
v 0.07835548 -0.08917960 0.25871418
v 0.07836926 -0.09261138 0.25818377
v 0.08123883 -0.09009019 0.25844273
v 0.08133098 -0.09017352 0.25871418
v 0.07835548 -0.09241744 0.25788017
v 0.08426802 -0.08195240 0.25871418
v 0.08462209 -0.07738124 0.25382267
v 0.07835548 -0.07738124 0.24473437
v 0.07835548 -0.09199017 0.25724976
v 0.08128236 -0.08931293 0.25737656
v 0.08170826 -0.08975686 0.25871418
v 0.07837144 -0.09126442 0.25621396
v 0.08576774 -0.08143422 0.25871418
v 0.08576774 -0.08114483 0.25836415
v 0.08576774 -0.07738124 0.25347979
v 0.07835548 -0.07738124 0.24047149
v 0.07835548 -0.09150533 0.25654434
v 0.08265584 -0.08866293 0.25871418
v 0.07838668 -0.09057807 0.25524780
v 0.08133025 -0.08851294 0.25631754
v 0.08576774 -0.08437510 0.25870347
v 0.08576774 -0.07738124 0.25036522
v 0.07851437 -0.07738124 0.24062507
v 0.07851510 -0.07783881 0.24103761
v 0.07835548 -0.07805396 0.24107869
v 0.07835548 -0.08931293 0.25347800
v 0.08135492 -0.08694932 0.25425486
v 0.07858040 -0.08901596 0.25335299
v 0.08133025 -0.08537964 0.25224754
v 0.08132735 -0.08497358 0.25175106
v 0.08132372 -0.08456601 0.25125459
v 0.08576774 -0.07980848 0.25325655
v 0.08132372 -0.08372965 0.25027058
v 0.08132735 -0.08286754 0.24930263
v 0.08133025 -0.08200391 0.24833290
v 0.08196584 -0.07738124 0.24437362
v 0.08576774 -0.07913576 0.25245470
v 0.07881620 -0.07738124 0.24094117
v 0.07942132 -0.07738124 0.24158587
v 0.08133025 -0.07738124 0.24363427
v 0.08133025 -0.07839335 0.24457721
v 0.07852090 -0.07871304 0.24186269
v 0.07835548 -0.07897667 0.24194841
v 0.07835548 -0.08856597 0.25249220
v 0.07862756 -0.08825688 0.25241898
v 0.07864860 -0.08750689 0.25149211
v 0.07864280 -0.08600236 0.24966159
v 0.07861523 -0.08444631 0.24788822
v 0.07858765 -0.08288572 0.24611128
v 0.07855863 -0.08123120 0.24440220
v 0.07992993 -0.07898577 0.24363606
v 0.07853034 -0.07957667 0.24269490
v 0.07835548 -0.07981757 0.24275562
v 0.07835548 -0.08777961 0.25149033
v 0.07835548 -0.08762810 0.25130459
v 0.07835548 -0.08642205 0.24984196
v 0.07835548 -0.08326602 0.24627736
v 0.07835548 -0.08302663 0.24600948
v 0.07835548 -0.08275845 0.24573625
f 1 2 3
f 1 3 4
f 1 4 2
f 2 4 5
f 2 5 6
f 2 6 13
f 2 13 20
f 2 20 15
f 2 15 8
f 2 8 3
f 3 7 4
f 3 8 9
f 3 9 10
f 3 10 18
f 3 18 27
f 3 27 45
f 3 45 55
f 3 55 61
f 3 61 60
f 3 60 59
f 3 59 58
f 3 58 57
f 3 57 56
f 3 56 46
f 3 46 28
f 3 28 19
f 3 19 11
f 3 11 7
f 4 7 11
f 4 11 5
f 5 12 13
f 5 13 6
f 5 11 14
f 5 14 12
f 8 15 9
f 9 15 16
f 9 16 17
f 9 17 24
f 9 24 38
f 9 38 42
f 9 42 41
f 9 41 40
f 9 40 25
f 9 25 18
f 9 18 10
f 11 19 14
f 12 20 13
f 12 14 21
f 12 21 22
f 12 22 20
f 14 19 21
f 15 20 23
f 15 23 34
f 15 34 39
f 15 39 24
f 15 24 17
f 15 17 16
f 18 25 26
f 18 26 27
f 19 28 21
f 20 22 29
f 20 29 23
f 21 28 30
f 21 30 22
f 22 30 29
f 23 29 31
f 23 31 32
f 23 32 33
f 23 33 34
f 24 33 35
f 24 35 36
f 24 36 37
f 24 37 38
f 24 39 33
f 25 40 26
f 26 40 41
f 26 41 42
f 26 42 43
f 26 43 44
f 26 44 27
f 27 44 45
f 28 46 30
f 29 30 47
f 29 47 48
f 29 48 31
f 30 46 47
f 31 48 32
f 32 48 49
f 32 49 33
f 33 49 35
f 33 39 34
f 35 49 36
f 36 49 37
f 37 50 51
f 37 51 43
f 37 43 38
f 37 49 50
f 38 43 42
f 43 51 52
f 43 52 53
f 43 53 44
f 44 53 54
f 44 54 45
f 45 54 55
f 46 56 47
f 47 56 48
f 48 56 57
f 48 57 58
f 48 58 49
f 49 58 59
f 49 59 50
f 50 59 60
f 50 60 51
f 51 60 61
f 51 61 52
f 52 54 53
f 52 61 54
f 54 61 55

