# https://github.com/mikedh/trimesh

o torso_shell_left_fore_187.obj
v 0.07889684 0.05917249 0.22763421
v 0.07895705 0.05908322 0.22763421
v 0.07873364 0.05917249 0.22746935
v 0.07473405 0.05917249 0.22763421
v 0.07915603 0.05878462 0.22763421
v 0.07856259 0.05917249 0.22730124
v 0.07462845 0.05917249 0.22755016
v 0.07759302 0.05131125 0.22600383
v 0.07986466 0.05131125 0.22763421
v 0.08132993 0.05542003 0.22763421
v 0.07856259 0.05912016 0.22727107
v 0.07576820 0.05917249 0.22494403
v 0.07328624 0.05917249 0.22631417
v 0.07327490 0.05915325 0.22629424
v 0.07560762 0.05131125 0.22408681
v 0.08218692 0.05131125 0.22763421
v 0.08132993 0.05365153 0.22666978
v 0.07856085 0.05586330 0.22545750
v 0.07856259 0.05804275 0.22665469
v 0.07576820 0.05837213 0.22449037
v 0.07513986 0.05917249 0.22443649
v 0.07327228 0.05917249 0.22629748
v 0.07412665 0.05631197 0.22544511
v 0.07333511 0.05917249 0.22621935
v 0.07479776 0.05917249 0.22441979
v 0.07497928 0.05347145 0.22459651
v 0.07596282 0.05131125 0.22366278
v 0.08151494 0.05131125 0.22589823
v 0.08132993 0.05304742 0.22635943
v 0.07855735 0.05365307 0.22430772
v 0.07855910 0.05475896 0.22488261
v 0.07751011 0.05495674 0.22411429
v 0.07576820 0.05812432 0.22435351
v 0.07508139 0.05917249 0.22438961
v 0.07571846 0.05376081 0.22368326
v 0.07491994 0.05917249 0.22427269
v 0.07645851 0.05404941 0.22277001
v 0.07655101 0.05131125 0.22296289
v 0.08143029 0.05131125 0.22570157
v 0.08132993 0.05244330 0.22604963
v 0.08132993 0.05214008 0.22589715
v 0.07855735 0.05337449 0.22416763
v 0.07567046 0.05726624 0.22384274
v 0.07562159 0.05683759 0.22358789
v 0.07855648 0.05309590 0.22402700
v 0.07855648 0.05253565 0.22374953
v 0.07855735 0.05225475 0.22361213
v 0.07855735 0.05197385 0.22347528
v 0.07855823 0.05140898 0.22320319
v 0.07725703 0.05131125 0.22213046
v 0.07688351 0.05131125 0.22257065
v 0.08142156 0.05131125 0.22568217
v 0.08132993 0.05183610 0.22574467
v 0.08132993 0.05153135 0.22559381
v 0.08132993 0.05131125 0.22548498
v 0.07854077 0.05131125 0.22314446
v 0.08137356 0.05131125 0.22557711
v 0.08134913 0.05131125 0.22552539
f 1 2 3
f 1 3 6
f 1 6 12
f 1 12 21
f 1 21 34
f 1 34 36
f 1 36 25
f 1 25 24
f 1 24 22
f 1 22 13
f 1 13 7
f 1 7 4
f 1 4 9
f 1 9 16
f 1 16 10
f 1 10 5
f 1 5 2
f 2 5 3
f 3 5 6
f 4 7 8
f 4 8 9
f 5 10 6
f 6 10 11
f 6 11 12
f 7 13 14
f 7 14 8
f 8 14 15
f 8 15 27
f 8 27 38
f 8 38 51
f 8 51 50
f 8 50 56
f 8 56 55
f 8 55 58
f 8 58 57
f 8 57 52
f 8 52 39
f 8 39 28
f 8 28 16
f 8 16 9
f 10 16 17
f 10 17 18
f 10 18 19
f 10 19 11
f 11 19 12
f 12 20 21
f 12 19 20
f 13 22 14
f 14 23 15
f 14 22 24
f 14 24 25
f 14 25 23
f 15 23 26
f 15 26 27
f 16 28 17
f 17 28 29
f 17 29 30
f 17 30 31
f 17 31 18
f 18 31 32
f 18 32 33
f 18 33 19
f 19 33 20
f 20 33 34
f 20 34 21
f 23 25 26
f 25 35 26
f 25 36 37
f 25 37 35
f 26 35 27
f 27 35 37
f 27 37 38
f 28 39 29
f 29 39 40
f 29 40 30
f 30 40 41
f 30 41 42
f 30 42 37
f 30 37 31
f 31 37 32
f 32 37 33
f 33 43 34
f 33 37 43
f 34 43 37
f 34 37 44
f 34 44 36
f 36 44 37
f 37 42 45
f 37 45 46
f 37 46 47
f 37 47 48
f 37 48 49
f 37 49 50
f 37 50 51
f 37 51 38
f 39 52 40
f 40 52 41
f 41 52 53
f 41 53 45
f 41 45 42
f 45 53 46
f 46 53 54
f 46 54 55
f 46 55 47
f 47 55 48
f 48 55 49
f 49 56 50
f 49 55 56
f 52 57 53
f 53 57 58
f 53 58 54
f 54 58 55

