# https://github.com/mikedh/trimesh

o torso_shell_left_aft_047.obj
v -0.10880799 0.03543418 0.39215285
v -0.10880799 0.02718805 0.39433224
v -0.10879845 0.03173049 0.39585781
v -0.10878891 0.03396255 0.39525490
v -0.10838827 0.03543418 0.39496819
v -0.08931784 0.03543418 0.39699842
v -0.08931784 0.02718805 0.39890271
v -0.10878891 0.02727039 0.39693768
v -0.10878891 0.02956865 0.39640623
v -0.10783119 0.03179911 0.39617668
v -0.10783119 0.03399162 0.39558360
v -0.10705090 0.03543418 0.39541479
v -0.09008478 0.03543418 0.39937163
v -0.08947238 0.03414661 0.39982180
v -0.08947238 0.03190808 0.40035771
v -0.08947238 0.02965987 0.40085612
v -0.08962691 0.02746333 0.40127770
v -0.10408998 0.02731883 0.39826407
v -0.10548841 0.02730430 0.39792466
v -0.10736950 0.02728654 0.39740036
v -0.10783119 0.02959368 0.39672778
v -0.10688874 0.03182090 0.39646608
v -0.10688874 0.03401583 0.39587657
v -0.10611607 0.03543418 0.39569436
v -0.09141261 0.03543418 0.39910188
v -0.09134775 0.03448323 0.39936448
v -0.09134775 0.03225117 0.39991022
v -0.09134775 0.03000780 0.40042024
v -0.09093566 0.02747544 0.40102582
v -0.09237415 0.02746010 0.40074804
v -0.09425143 0.02743749 0.40037647
v -0.09615160 0.02741570 0.39998704
v -0.09802698 0.02739229 0.39958778
v -0.10266485 0.02733578 0.39858205
v -0.10264768 0.02971235 0.39805596
v -0.10453260 0.02966552 0.39762901
v -0.10594819 0.02963323 0.39727620
v -0.10688874 0.02961386 0.39701450
v -0.10594819 0.03184189 0.39672957
v -0.10594819 0.03403924 0.39614363
v -0.10471002 0.03543418 0.39607218
v -0.09302089 0.03543418 0.39876515
v -0.09323075 0.03442753 0.39898755
v -0.09323075 0.03219950 0.39953866
v -0.09323075 0.02996098 0.40005224
v -0.09464444 0.02992465 0.39976999
v -0.09605812 0.02988752 0.39947881
v -0.09794113 0.02983747 0.39907777
v -0.10264768 0.03192907 0.39751736
v -0.10406328 0.03188952 0.39719849
v -0.09794113 0.03206469 0.39855168
v -0.10500573 0.03186530 0.39697252
v -0.10500573 0.03406427 0.39638926
v -0.10406328 0.03409091 0.39661881
v -0.10293385 0.03543418 0.39650984
v -0.09477989 0.03543418 0.39838733
v -0.09464444 0.03438475 0.39869727
v -0.09464444 0.03215995 0.39925283
v -0.09605812 0.03211959 0.39895719
v -0.09794113 0.03428142 0.39798808
v -0.10264768 0.03413369 0.39694036
v -0.09605812 0.03434035 0.39839895
v -0.09838564 0.03543418 0.39757095
v -0.09641107 0.03543418 0.39802470
f 1 2 3
f 1 3 4
f 1 4 5
f 1 5 12
f 1 12 24
f 1 24 41
f 1 41 55
f 1 55 63
f 1 63 64
f 1 64 56
f 1 56 42
f 1 42 25
f 1 25 13
f 1 13 6
f 1 6 7
f 1 7 2
f 2 8 3
f 2 7 8
f 3 8 9
f 3 9 10
f 3 10 11
f 3 11 4
f 4 11 5
f 5 11 12
f 6 13 14
f 6 14 15
f 6 15 7
f 7 15 16
f 7 16 17
f 7 17 18
f 7 18 19
f 7 19 20
f 7 20 8
f 8 20 21
f 8 21 9
f 9 21 10
f 10 21 22
f 10 22 23
f 10 23 11
f 11 23 12
f 12 23 24
f 13 25 26
f 13 26 14
f 14 26 27
f 14 27 15
f 15 27 28
f 15 28 16
f 16 28 29
f 16 29 17
f 17 29 30
f 17 30 31
f 17 31 32
f 17 32 33
f 17 33 34
f 17 34 18
f 18 34 35
f 18 35 36
f 18 36 19
f 19 36 37
f 19 37 20
f 20 38 21
f 20 37 38
f 21 38 22
f 22 38 39
f 22 39 40
f 22 40 23
f 23 40 24
f 24 40 41
f 25 42 43
f 25 43 26
f 26 44 27
f 26 43 44
f 27 44 45
f 27 45 28
f 28 45 31
f 28 31 30
f 28 30 29
f 31 46 32
f 31 45 46
f 32 46 47
f 32 47 33
f 33 47 48
f 33 48 34
f 34 48 35
f 35 49 50
f 35 50 36
f 35 48 51
f 35 51 49
f 36 52 37
f 36 50 52
f 37 52 39
f 37 39 38
f 39 52 53
f 39 53 40
f 40 53 41
f 41 53 54
f 41 54 55
f 42 56 57
f 42 57 43
f 43 57 58
f 43 58 44
f 44 58 46
f 44 46 45
f 46 58 47
f 47 58 59
f 47 59 48
f 48 59 51
f 49 51 60
f 49 60 61
f 49 61 50
f 50 61 54
f 50 54 52
f 51 59 62
f 51 62 60
f 52 54 53
f 54 61 55
f 55 61 63
f 56 64 62
f 56 62 57
f 57 62 59
f 57 59 58
f 60 63 61
f 60 62 64
f 60 64 63

