# https://github.com/mikedh/trimesh

o torso_shell_left_fore_175.obj
v 0.05767863 0.10423752 0.25866344
v 0.06114774 0.10550746 0.25866344
v 0.06312826 0.10130143 0.25866344
v 0.06276278 0.10428791 0.26374733
v 0.06204570 0.10467782 0.26374733
v 0.05838718 0.10667033 0.26374733
v 0.05858886 0.10715071 0.26374733
v 0.05888551 0.10713468 0.25952892
v 0.05880975 0.10686500 0.25897400
v 0.05882789 0.10668923 0.25867489
v 0.06122084 0.10568438 0.25903920
v 0.06262833 0.10469557 0.25867190
v 0.06290791 0.10453124 0.25866344
v 0.05986883 0.10620770 0.25870724
v 0.06312826 0.10401365 0.25866344
v 0.06312826 0.10409152 0.26374733
v 0.06308184 0.10710891 0.26374733
v 0.06286149 0.10715071 0.26368163
v 0.05927286 0.10715071 0.25989174
v 0.05914215 0.10697264 0.25945178
v 0.05890525 0.10695948 0.25922533
v 0.05913734 0.10658846 0.25875302
v 0.06272650 0.10516965 0.25960855
v 0.06005504 0.10633767 0.25910589
v 0.06017722 0.10641955 0.25936568
v 0.06026046 0.10647738 0.25954634
v 0.06034262 0.10652547 0.25971058
v 0.06045360 0.10658731 0.25992856
v 0.06087884 0.10654723 0.26026898
v 0.06135369 0.10643444 0.26052927
v 0.06182908 0.10632107 0.26078956
v 0.06312826 0.10441043 0.25867240
v 0.05924139 0.10663598 0.25892721
v 0.05993019 0.10627870 0.25888790
v 0.06312826 0.10691997 0.26340293
v 0.06278679 0.10715071 0.26344323
v 0.05947241 0.10715071 0.26006891
v 0.05931982 0.10698810 0.25963543
v 0.05939451 0.10671728 0.25920741
v 0.06312826 0.10504025 0.25979668
v 0.06289030 0.10555956 0.26048548
v 0.05977386 0.10673904 0.25958367
v 0.06005397 0.10676767 0.25988925
v 0.06007105 0.10691023 0.26016795
v 0.06013347 0.10700929 0.26040933
v 0.06021831 0.10710834 0.26067310
v 0.06047014 0.10713411 0.26095978
v 0.06076199 0.10672072 0.26047204
v 0.06257551 0.10625981 0.26146393
v 0.06104050 0.10713697 0.26152067
v 0.06129180 0.10715071 0.26180037
v 0.06142358 0.10715071 0.26193425
v 0.06159645 0.10715071 0.26211142
v 0.06180454 0.10715071 0.26233040
v 0.06312826 0.10622946 0.26199745
v 0.06263633 0.10715071 0.26325959
v 0.05983469 0.10715071 0.26039490
v 0.05939238 0.10685584 0.25945825
v 0.06312826 0.10547883 0.26059248
v 0.06312826 0.10591226 0.26139774
v 0.06199661 0.10715071 0.26253745
v 0.06217802 0.10715071 0.26273752
v 0.06239784 0.10715071 0.26298785
f 1 2 13
f 1 13 15
f 1 15 3
f 1 3 4
f 1 4 5
f 1 5 6
f 1 6 7
f 1 7 8
f 1 8 9
f 1 9 10
f 1 10 2
f 2 11 12
f 2 12 13
f 2 10 14
f 2 14 11
f 3 15 32
f 3 32 40
f 3 40 59
f 3 59 60
f 3 60 55
f 3 55 35
f 3 35 16
f 3 16 4
f 4 16 17
f 4 17 7
f 4 7 6
f 4 6 5
f 7 17 18
f 7 18 36
f 7 36 56
f 7 56 63
f 7 63 62
f 7 62 61
f 7 61 54
f 7 54 53
f 7 53 52
f 7 52 51
f 7 51 57
f 7 57 37
f 7 37 19
f 7 19 8
f 8 19 20
f 8 20 21
f 8 21 9
f 9 21 22
f 9 22 10
f 10 22 14
f 11 23 12
f 11 14 24
f 11 24 25
f 11 25 26
f 11 26 27
f 11 27 28
f 11 28 29
f 11 29 30
f 11 30 31
f 11 31 23
f 12 23 13
f 13 32 15
f 13 23 32
f 14 22 33
f 14 33 34
f 14 34 24
f 16 35 17
f 17 35 36
f 17 36 18
f 19 37 38
f 19 38 20
f 20 38 39
f 20 39 33
f 20 33 21
f 21 33 22
f 23 40 32
f 23 31 41
f 23 41 40
f 24 26 25
f 24 34 42
f 24 42 26
f 26 42 43
f 26 43 27
f 27 43 44
f 27 44 45
f 27 45 28
f 28 45 46
f 28 46 47
f 28 47 48
f 28 48 29
f 29 48 30
f 30 48 31
f 31 49 41
f 31 48 50
f 31 50 51
f 31 51 52
f 31 52 53
f 31 53 54
f 31 54 49
f 33 39 34
f 34 39 42
f 35 55 36
f 36 55 56
f 37 57 42
f 37 42 38
f 38 42 58
f 38 58 39
f 39 58 42
f 40 41 59
f 41 60 59
f 41 49 60
f 42 57 43
f 43 57 44
f 44 57 45
f 45 57 46
f 46 57 47
f 47 57 51
f 47 51 50
f 47 50 48
f 49 54 55
f 49 55 60
f 54 61 55
f 55 61 62
f 55 62 63
f 55 63 56

