# https://github.com/mikedh/trimesh

o torso_open_chassis_plate_001.obj
v -0.02560066 -0.04006907 0.31859999
v -0.02560066 -0.04868357 0.31859999
v -0.02560066 -0.04006907 0.31559999
v -0.03801851 -0.04006907 0.31859999
v -0.02560066 -0.04868357 0.31559999
v -0.02866057 -0.05050989 0.31859999
v -0.03801851 -0.04006907 0.31559999
v -0.03849163 -0.04046356 0.31859999
v -0.02866057 -0.05050989 0.31559999
v -0.04652443 -0.05050989 0.31859999
v -0.03849163 -0.04046356 0.31559999
v -0.03885620 -0.04076812 0.31759980
v -0.03958329 -0.04137621 0.31859999
v -0.04652443 -0.05050989 0.31559999
v -0.04646298 -0.05037703 0.31859999
v -0.03958329 -0.04137621 0.31559999
v -0.04059097 -0.04238187 0.31859999
v -0.04646298 -0.05037703 0.31559999
v -0.04504977 -0.04790582 0.31859999
v -0.04059097 -0.04238187 0.31559999
v -0.04092687 -0.04271709 0.31759980
v -0.04159661 -0.04338752 0.31859999
v -0.04504977 -0.04790582 0.31559999
v -0.04450906 -0.04712705 0.31759980
v -0.04342560 -0.04556951 0.31859999
v -0.04159661 -0.04338752 0.31559999
v -0.04220695 -0.04411519 0.31660019
v -0.04342560 -0.04556951 0.31559999
f 1 2 5
f 1 5 3
f 1 3 7
f 1 7 4
f 1 4 8
f 1 8 13
f 1 13 17
f 1 17 22
f 1 22 25
f 1 25 19
f 1 19 15
f 1 15 10
f 1 10 6
f 1 6 2
f 2 6 9
f 2 9 5
f 3 5 9
f 3 9 14
f 3 14 18
f 3 18 23
f 3 23 28
f 3 28 26
f 3 26 20
f 3 20 16
f 3 16 11
f 3 11 7
f 4 7 11
f 4 11 8
f 6 10 14
f 6 14 9
f 8 11 12
f 8 12 13
f 10 15 18
f 10 18 14
f 11 16 12
f 12 16 13
f 13 16 20
f 13 20 21
f 13 21 17
f 15 19 23
f 15 23 18
f 17 21 22
f 19 24 23
f 19 25 24
f 20 26 21
f 21 26 22
f 22 26 27
f 22 27 25
f 23 24 28
f 24 25 28
f 25 27 28
f 26 28 27

