# https://github.com/mikedh/trimesh

o upper_grip_shell_022.obj
v 0.14486283 0.01831044 -0.02270911
v 0.13466923 0.01235962 -0.01844300
v 0.13206146 0.01831044 -0.01844300
v 0.14288681 0.01831044 -0.01954251
v 0.14645648 0.01830403 -0.02081951
v 0.14926851 0.01822307 -0.02194617
v 0.15065077 0.01814210 -0.02254583
v 0.15164115 0.01756251 -0.02263561
v 0.15255791 0.01689671 -0.02266735
v 0.15363380 0.01602063 -0.02270911
v 0.14926376 0.01235962 -0.02270911
v 0.14235718 0.01235962 -0.01844300
v 0.14031941 0.01721301 -0.01844300
v 0.13989191 0.01796677 -0.01848058
v 0.14069942 0.01831044 -0.01882384
v 0.14162093 0.01817006 -0.01908400
v 0.14356845 0.01747747 -0.01953500
v 0.14408145 0.01791085 -0.01982982
v 0.14474646 0.01781998 -0.02003068
v 0.14471083 0.01827782 -0.02016389
v 0.14592685 0.01807628 -0.02053680
v 0.14686736 0.01787531 -0.02081324
v 0.14907375 0.01720486 -0.02140038
v 0.14971976 0.01724447 -0.02166471
v 0.14764636 0.01815666 -0.02122624
v 0.14527609 0.01816715 -0.02032967
v 0.14980526 0.01768367 -0.02189146
v 0.15157703 0.01719554 -0.02239925
v 0.14994539 0.01812346 -0.02219088
v 0.15157703 0.01716000 -0.02238171
v 0.15308042 0.01645401 -0.02267236
v 0.14949651 0.01757416 -0.02171357
v 0.15031589 0.01707671 -0.02183091
v 0.15425843 0.01537814 -0.02270911
v 0.15631995 0.01248020 -0.02270911
v 0.14434746 0.01235962 -0.01901092
v 0.14222893 0.01303940 -0.01844300
v 0.14105092 0.01596937 -0.01844300
v 0.14076592 0.01680584 -0.01849854
v 0.14327394 0.01659265 -0.01923684
v 0.14111980 0.01743436 -0.01873865
v 0.14262319 0.01748387 -0.01923016
v 0.14467283 0.01643479 -0.01965526
v 0.14474646 0.01715709 -0.01984777
v 0.14697898 0.01701962 -0.02057981
v 0.14757274 0.01748213 -0.02093476
v 0.15491869 0.01460399 -0.02270911
v 0.14831374 0.01711690 -0.02108802
v 0.15560269 0.01366617 -0.02270911
v 0.14653485 0.01619713 -0.02022026
v 0.14623797 0.01538687 -0.01996178
v 0.14489608 0.01568278 -0.01958135
v 0.14474646 0.01465467 -0.01937423
v 0.14549222 0.01429585 -0.01955838
v 0.14474646 0.01326832 -0.01920969
v 0.14319794 0.01340055 -0.01875410
v 0.14154018 0.01521795 -0.01847432
v 0.14149268 0.01633868 -0.01863342
v 0.14208406 0.01621228 -0.01879294
v 0.14541859 0.01693865 -0.02002024
v 0.14771999 0.01603694 -0.02058607
v 0.14401258 0.01474845 -0.01915750
f 1 2 3
f 1 3 15
f 1 15 4
f 1 4 5
f 1 5 6
f 1 6 7
f 1 7 8
f 1 8 9
f 1 9 10
f 1 10 34
f 1 34 47
f 1 47 49
f 1 49 35
f 1 35 11
f 1 11 2
f 2 12 37
f 2 37 38
f 2 38 13
f 2 13 3
f 2 11 36
f 2 36 12
f 3 13 14
f 3 14 15
f 4 15 16
f 4 16 17
f 4 17 18
f 4 18 19
f 4 19 20
f 4 20 5
f 5 21 22
f 5 22 23
f 5 23 24
f 5 24 25
f 5 25 6
f 5 20 26
f 5 26 21
f 6 25 27
f 6 27 28
f 6 28 9
f 6 9 29
f 6 29 7
f 7 29 8
f 8 29 9
f 9 28 30
f 9 30 31
f 9 31 10
f 10 31 32
f 10 32 33
f 10 33 24
f 10 24 23
f 10 23 34
f 11 35 36
f 12 36 37
f 13 38 39
f 13 39 40
f 13 40 41
f 13 41 14
f 14 41 15
f 15 41 42
f 15 42 16
f 16 42 17
f 17 40 43
f 17 43 44
f 17 44 19
f 17 19 18
f 17 42 40
f 19 26 20
f 19 44 45
f 19 45 46
f 19 46 26
f 21 46 22
f 21 26 46
f 22 46 23
f 23 46 34
f 24 33 32
f 24 32 25
f 25 32 27
f 27 31 30
f 27 30 28
f 27 32 31
f 34 46 48
f 34 48 47
f 35 49 50
f 35 50 51
f 35 51 52
f 35 52 53
f 35 53 54
f 35 54 55
f 35 55 36
f 36 55 56
f 36 56 37
f 37 57 38
f 37 56 57
f 38 57 58
f 38 58 39
f 39 58 40
f 40 52 43
f 40 42 41
f 40 58 59
f 40 59 52
f 43 52 51
f 43 51 50
f 43 50 60
f 43 60 44
f 44 60 45
f 45 61 47
f 45 47 48
f 45 48 46
f 45 60 61
f 47 61 49
f 49 61 50
f 50 61 60
f 52 59 62
f 52 62 53
f 53 62 54
f 54 62 55
f 55 62 56
f 56 62 57
f 57 62 59
f 57 59 58

