# https://github.com/mikedh/trimesh

o upper_grip_shell_039.obj
v 0.13029704 0.02342190 -0.02255074
v 0.13443824 0.02044882 -0.01991938
v 0.12837290 0.02342190 -0.01991938
v 0.13588353 0.02337912 -0.01993406
v 0.13829353 0.02336515 -0.02201576
v 0.13945994 0.02307908 -0.02246599
v 0.14121218 0.02253748 -0.02254327
v 0.14024222 0.02044882 -0.02255074
v 0.13925472 0.02179945 -0.01993225
v 0.14494820 0.02053293 -0.02156887
v 0.14267502 0.02053787 -0.02047470
v 0.14212426 0.02056814 -0.02026195
v 0.14156123 0.02065021 -0.02008371
v 0.13873027 0.02207913 -0.01993792
v 0.13734286 0.02276099 -0.01995131
v 0.13820407 0.02267950 -0.02031604
v 0.13761298 0.02301039 -0.02044405
v 0.13748669 0.02323070 -0.02073691
v 0.13778838 0.02336340 -0.02133886
v 0.13892146 0.02314077 -0.02186894
v 0.13916000 0.02311691 -0.02211673
v 0.14204358 0.02222551 -0.02241345
v 0.14304336 0.02188501 -0.02245724
v 0.14629177 0.02055446 -0.02247037
v 0.13990721 0.02288380 -0.02216489
v 0.14037026 0.02268096 -0.02195343
v 0.14086665 0.02104222 -0.02005563
v 0.13987388 0.02155471 -0.02001133
v 0.14144020 0.02112749 -0.02036729
v 0.14098416 0.02145983 -0.02043813
v 0.14565156 0.02064846 -0.02215253
v 0.14473948 0.02093745 -0.02193179
v 0.14405542 0.02085567 -0.02141896
v 0.14309072 0.02118482 -0.02123609
v 0.14367129 0.02070114 -0.02106377
v 0.14320824 0.02064875 -0.02079976
v 0.13806200 0.02242370 -0.01995106
v 0.14049304 0.02177413 -0.02049479
v 0.13866362 0.02232708 -0.02015016
v 0.13815847 0.02258812 -0.02017901
v 0.14009138 0.02240769 -0.02108438
v 0.13894251 0.02267368 -0.02076730
v 0.14055619 0.02201335 -0.02079718
v 0.14107011 0.02192809 -0.02098341
v 0.13813567 0.02301156 -0.02079744
v 0.13877237 0.02301709 -0.02131722
v 0.14128410 0.02215043 -0.02148233
v 0.14064038 0.02242370 -0.02153745
v 0.13941784 0.02288264 -0.02157505
v 0.14107537 0.02245163 -0.02201679
v 0.14245402 0.02197901 -0.02209741
v 0.14401683 0.02142724 -0.02225710
v 0.14508852 0.02105880 -0.02241113
v 0.14012997 0.02265593 -0.02163223
v 0.14254347 0.02103261 -0.02080208
v 0.14325910 0.02150494 -0.02179090
v 0.14230317 0.02158148 -0.02126365
v 0.14159631 0.02160622 -0.02089274
v 0.13972830 0.02217138 -0.02053549
v 0.14178750 0.02193653 -0.02145966
f 1 2 3
f 1 3 4
f 1 4 5
f 1 5 6
f 1 6 7
f 1 7 8
f 1 8 2
f 2 9 3
f 2 8 10
f 2 10 11
f 2 11 12
f 2 12 13
f 2 13 9
f 3 9 4
f 4 14 15
f 4 15 16
f 4 16 17
f 4 17 18
f 4 18 19
f 4 19 5
f 4 9 14
f 5 19 20
f 5 20 21
f 5 21 6
f 6 21 7
f 7 22 23
f 7 23 24
f 7 24 8
f 7 21 25
f 7 25 26
f 7 26 22
f 8 24 10
f 9 13 27
f 9 27 28
f 9 28 29
f 9 29 30
f 9 30 14
f 10 24 31
f 10 31 32
f 10 32 33
f 10 33 34
f 10 34 35
f 10 35 36
f 10 36 11
f 11 36 29
f 11 29 27
f 11 27 12
f 12 27 13
f 14 37 15
f 14 30 38
f 14 38 37
f 15 37 39
f 15 39 40
f 15 40 16
f 16 41 42
f 16 42 17
f 16 40 43
f 16 43 44
f 16 44 41
f 17 42 41
f 17 41 45
f 17 45 18
f 18 46 19
f 18 45 41
f 18 41 47
f 18 47 48
f 18 48 46
f 19 46 49
f 19 49 26
f 19 26 20
f 20 26 25
f 20 25 21
f 22 26 50
f 22 50 23
f 23 51 52
f 23 52 53
f 23 53 24
f 23 50 51
f 24 53 32
f 24 32 31
f 26 49 54
f 26 54 50
f 27 29 28
f 29 36 55
f 29 55 30
f 30 55 38
f 32 53 56
f 32 56 57
f 32 57 34
f 32 34 33
f 34 57 58
f 34 58 38
f 34 38 55
f 34 55 35
f 35 55 36
f 37 38 39
f 38 59 39
f 38 58 43
f 38 43 59
f 39 59 40
f 40 59 43
f 41 44 60
f 41 60 47
f 43 58 44
f 44 58 57
f 44 57 60
f 46 54 49
f 46 48 54
f 47 60 52
f 47 52 51
f 47 51 48
f 48 51 54
f 50 54 51
f 52 60 56
f 52 56 53
f 56 60 57

