# https://github.com/mikedh/trimesh

o upper_bill_retention_shell_037.obj
v 0.09800666 0.02829409 -0.02539801
v 0.10325743 0.02823386 -0.02532848
v 0.10149177 0.02820525 -0.02547493
v 0.10310336 0.02812243 -0.02560483
v 0.10050262 0.02809232 -0.02575460
v 0.10050262 0.02793497 -0.02604751
v 0.09460783 0.02807049 -0.02579433
v 0.09331671 0.02795454 -0.02590538
v 0.09268810 0.02538043 -0.02532848
v 0.12276910 0.02464637 -0.02532848
v 0.11280373 0.02791464 -0.02540183
v 0.11052654 0.02800574 -0.02538884
v 0.11043410 0.02786118 -0.02578465
v 0.10425274 0.02798164 -0.02585291
v 0.09775706 0.02755250 -0.02663843
v 0.10394459 0.02768727 -0.02639034
v 0.09245699 0.02741924 -0.02666619
v 0.09128912 0.02060339 -0.02793055
v 0.12276910 0.02087970 -0.02793055
v 0.12234078 0.02602339 -0.02765521
v 0.12249177 0.02702473 -0.02573753
v 0.12036250 0.02736880 -0.02548104
v 0.11586668 0.02771437 -0.02555975
v 0.11418421 0.02772265 -0.02574976
v 0.11181459 0.02785968 -0.02566647
v 0.11171290 0.02775503 -0.02593238
v 0.11069294 0.02761273 -0.02628490
v 0.10946345 0.02774147 -0.02608572
v 0.10619712 0.02784236 -0.02604191
v 0.09464173 0.02698558 -0.02726398
v 0.10754679 0.02734621 -0.02681316
v 0.10758685 0.02711357 -0.02710811
v 0.11166976 0.02731760 -0.02673318
v 0.09364334 0.02680564 -0.02742521
v 0.09232140 0.02643070 -0.02770870
v 0.09734415 0.02643146 -0.02782587
v 0.10600299 0.02629217 -0.02793055
v 0.11422427 0.02621387 -0.02793055
v 0.12014063 0.02606556 -0.02782918
v 0.12126228 0.02615967 -0.02761522
v 0.12209118 0.02660763 -0.02687607
v 0.12149955 0.02712938 -0.02583559
v 0.11932713 0.02730405 -0.02598740
v 0.11743513 0.02760144 -0.02559439
v 0.11838729 0.02722349 -0.02639315
v 0.11604540 0.02727469 -0.02655488
v 0.10760226 0.02673863 -0.02750901
v 0.10574723 0.02656321 -0.02769648
v 0.11158348 0.02713766 -0.02698916
v 0.11111202 0.02694643 -0.02723750
v 0.11115208 0.02672960 -0.02747819
v 0.11460637 0.02675595 -0.02736128
v 0.10892112 0.02637349 -0.02784675
v 0.11109969 0.02647061 -0.02773545
v 0.11299786 0.02650223 -0.02767228
v 0.11566947 0.02644124 -0.02767483
v 0.11783880 0.02635466 -0.02766489
v 0.11890498 0.02651955 -0.02740968
v 0.12046418 0.02684328 -0.02674158
v 0.11739199 0.02717305 -0.02661780
f 1 2 3
f 1 3 4
f 1 4 5
f 1 5 6
f 1 6 7
f 1 7 8
f 1 8 9
f 1 9 2
f 2 4 3
f 2 9 10
f 2 10 11
f 2 11 12
f 2 12 13
f 2 13 4
f 4 13 14
f 4 14 5
f 5 14 6
f 6 15 7
f 6 14 16
f 6 16 15
f 7 17 8
f 7 15 17
f 8 17 9
f 9 17 18
f 9 18 10
f 10 19 20
f 10 20 21
f 10 21 22
f 10 22 11
f 10 18 19
f 11 23 24
f 11 24 25
f 11 25 12
f 11 22 23
f 12 25 13
f 13 25 26
f 13 26 27
f 13 27 28
f 13 28 14
f 14 28 29
f 14 29 16
f 15 30 17
f 15 16 31
f 15 31 32
f 15 32 30
f 16 29 27
f 16 27 33
f 16 33 31
f 17 30 34
f 17 34 35
f 17 35 18
f 18 35 36
f 18 36 37
f 18 37 38
f 18 38 19
f 19 38 39
f 19 39 20
f 20 39 40
f 20 40 41
f 20 41 21
f 21 41 42
f 21 42 22
f 22 43 44
f 22 44 23
f 22 42 43
f 23 44 45
f 23 45 24
f 24 45 46
f 24 46 26
f 24 26 25
f 26 46 27
f 27 29 28
f 27 46 33
f 30 32 47
f 30 47 48
f 30 48 36
f 30 36 34
f 31 33 49
f 31 49 32
f 32 49 50
f 32 50 51
f 32 51 47
f 33 46 52
f 33 52 49
f 34 36 35
f 36 48 37
f 37 48 53
f 37 53 38
f 38 54 55
f 38 55 56
f 38 56 39
f 38 53 54
f 39 57 58
f 39 58 40
f 39 56 57
f 40 58 41
f 41 58 59
f 41 59 45
f 41 45 43
f 41 43 42
f 43 45 44
f 45 60 46
f 45 59 60
f 46 60 52
f 47 51 54
f 47 54 48
f 48 54 53
f 49 52 50
f 50 52 51
f 51 52 56
f 51 56 55
f 51 55 54
f 52 60 58
f 52 58 57
f 52 57 56
f 58 60 59

