# https://github.com/mikedh/trimesh

o upper_neck_idler_fork_plate_040.obj
v 0.05454773 -0.04275000 0.08855899
v 0.05402221 -0.04275000 0.09232331
v 0.05455656 -0.04275108 0.08855899
v 0.04486286 -0.04275000 0.08855899
v 0.05402221 -0.04825000 0.09232331
v 0.04454029 -0.04275000 0.09232331
v 0.05455656 -0.04550000 0.08855899
v 0.04486286 -0.04825000 0.08855899
v 0.04485894 -0.04275000 0.08857705
v 0.05455558 -0.04825000 0.08855899
v 0.04454029 -0.04825000 0.09232331
v 0.04455304 -0.04275000 0.09129848
v 0.04485894 -0.04825000 0.08857705
v 0.04455304 -0.04825000 0.09129848
f 1 2 3
f 1 3 7
f 1 7 10
f 1 10 8
f 1 8 4
f 1 4 9
f 1 9 12
f 1 12 6
f 1 6 2
f 2 5 7
f 2 7 3
f 2 6 11
f 2 11 5
f 4 8 13
f 4 13 9
f 5 10 7
f 5 11 14
f 5 14 13
f 5 13 8
f 5 8 10
f 6 12 14
f 6 14 11
f 9 13 14
f 9 14 12

