# https://github.com/mikedh/trimesh

o upper_bill_retention_shell_078.obj
v 0.13953016 -0.01919978 -0.02112002
v 0.13131560 -0.01919978 -0.01844445
v 0.13308479 -0.01663599 -0.01844445
v 0.14210181 -0.01663599 -0.02112002
v 0.14635880 -0.01902109 -0.02112002
v 0.14602002 -0.01915385 -0.02105141
v 0.14497973 -0.01919978 -0.02064363
v 0.13874310 -0.01919978 -0.01846121
v 0.13900146 -0.01886625 -0.01844445
v 0.14061836 -0.01674566 -0.01844445
v 0.14162444 -0.01663599 -0.01873254
v 0.14754624 -0.01663599 -0.02067348
v 0.14879528 -0.01664929 -0.02112002
v 0.14811258 -0.01742977 -0.02112002
v 0.14728446 -0.01823911 -0.02111610
v 0.14653503 -0.01881857 -0.02108598
v 0.14556831 -0.01904744 -0.02080417
v 0.14469057 -0.01917067 -0.02051582
v 0.14385730 -0.01919978 -0.02021018
v 0.13973719 -0.01919978 -0.01877549
v 0.14000240 -0.01873651 -0.01871944
v 0.13941894 -0.01841804 -0.01844445
v 0.14037882 -0.01712862 -0.01844445
v 0.14089212 -0.01683550 -0.01854292
v 0.14327556 -0.01663599 -0.01924796
v 0.14480691 -0.01665782 -0.01974688
v 0.14474703 -0.01696574 -0.01979821
v 0.14653503 -0.01699963 -0.02041656
v 0.14779605 -0.01728647 -0.02095188
v 0.14712704 -0.01769854 -0.02084398
v 0.14750689 -0.01799718 -0.02110117
v 0.14683104 -0.01824312 -0.02093931
v 0.14653503 -0.01834903 -0.02086808
v 0.14593960 -0.01872797 -0.02080155
v 0.14474703 -0.01882510 -0.02038408
v 0.14354248 -0.01909839 -0.02004990
v 0.14314381 -0.01919978 -0.01994697
v 0.14000240 -0.01915661 -0.01884856
v 0.14252272 -0.01919978 -0.01972645
v 0.14177501 -0.01919601 -0.01946036
v 0.14059441 -0.01860701 -0.01887449
v 0.14178356 -0.01815052 -0.01913115
v 0.14000240 -0.01822179 -0.01857775
v 0.13964651 -0.01814098 -0.01844445
v 0.13997331 -0.01772389 -0.01844628
v 0.14089212 -0.01717128 -0.01861101
v 0.14282385 -0.01780169 -0.01937550
v 0.14415673 -0.01754847 -0.01975055
v 0.14474703 -0.01732587 -0.01988988
v 0.14623732 -0.01768650 -0.02051372
v 0.14534417 -0.01750882 -0.02014497
v 0.14653503 -0.01790659 -0.02069705
v 0.14593960 -0.01842256 -0.02066956
v 0.14545710 -0.01849433 -0.02051477
v 0.14237899 -0.01900277 -0.01959838
v 0.14474703 -0.01839947 -0.02021882
v 0.14056703 -0.01907706 -0.01901041
v 0.14148584 -0.01892372 -0.01926681
v 0.14319514 -0.01838341 -0.01966936
v 0.14415673 -0.01801626 -0.01988490
v 0.14474703 -0.01767872 -0.01998704
v 0.14534417 -0.01786167 -0.02025078
v 0.14474703 -0.01802203 -0.02009180
v 0.14386073 -0.01819569 -0.01983802
f 1 2 3
f 1 3 4
f 1 4 13
f 1 13 14
f 1 14 5
f 1 5 6
f 1 6 7
f 1 7 19
f 1 19 37
f 1 37 39
f 1 39 20
f 1 20 8
f 1 8 2
f 2 8 9
f 2 9 22
f 2 22 44
f 2 44 23
f 2 23 10
f 2 10 3
f 3 10 11
f 3 11 25
f 3 25 12
f 3 12 4
f 4 12 13
f 5 14 15
f 5 15 16
f 5 16 17
f 5 17 6
f 6 17 7
f 7 17 18
f 7 18 19
f 8 20 21
f 8 21 9
f 9 21 22
f 10 23 24
f 10 24 11
f 11 24 25
f 12 26 27
f 12 27 28
f 12 28 13
f 12 25 26
f 13 28 29
f 13 29 14
f 14 29 30
f 14 30 31
f 14 31 15
f 15 31 32
f 15 32 33
f 15 33 34
f 15 34 16
f 16 34 17
f 17 34 18
f 18 34 35
f 18 35 19
f 19 36 37
f 19 35 36
f 20 38 21
f 20 39 40
f 20 40 38
f 21 38 41
f 21 41 42
f 21 42 43
f 21 43 22
f 22 43 44
f 23 44 45
f 23 45 46
f 23 46 24
f 24 46 25
f 25 46 47
f 25 47 27
f 25 27 26
f 27 47 48
f 27 48 49
f 27 49 28
f 28 50 29
f 28 49 51
f 28 51 50
f 29 50 30
f 30 50 52
f 30 52 31
f 31 52 53
f 31 53 32
f 32 53 33
f 33 53 34
f 34 53 35
f 35 53 54
f 35 54 36
f 36 55 37
f 36 54 56
f 36 56 55
f 37 55 39
f 38 57 41
f 38 40 57
f 39 55 40
f 40 55 58
f 40 58 57
f 41 57 58
f 41 58 59
f 41 59 42
f 42 59 47
f 42 47 43
f 43 45 44
f 43 47 45
f 45 47 46
f 47 59 60
f 47 60 48
f 48 60 61
f 48 61 49
f 49 61 51
f 50 51 62
f 50 62 56
f 50 56 52
f 51 61 62
f 52 56 54
f 52 54 53
f 55 59 58
f 55 56 59
f 56 62 63
f 56 63 64
f 56 64 59
f 59 64 60
f 60 63 61
f 60 64 63
f 61 63 62

