# https://github.com/mikedh/trimesh

o upper_neck_output_adapter_010.obj
v 0.01996085 0.03675000 0.00078459
v 0.01989967 0.03675000 0.00199121
v 0.01996085 0.02625097 0.00078459
v 0.00392241 0.03675000 0.00078459
v 0.01981368 0.03675000 0.00256660
v 0.01989967 0.02625097 0.00199121
v 0.00893618 0.02624480 0.00089782
v 0.00894114 0.02624480 0.00078459
v 0.00392241 0.02624480 0.00078459
v 0.00306749 0.03675000 0.00256660
v 0.01981368 0.02625097 0.00256660
v 0.00887004 0.02624480 0.00133852
v 0.00306749 0.02624480 0.00256660
v 0.00860215 0.02624480 0.00256660
v 0.00880224 0.02624480 0.00178272
v 0.00880389 0.02624480 0.00177574
f 1 2 6
f 1 6 3
f 1 3 8
f 1 8 9
f 1 9 4
f 1 4 10
f 1 10 5
f 1 5 2
f 2 5 11
f 2 11 6
f 3 6 7
f 3 7 8
f 4 9 13
f 4 13 10
f 5 10 13
f 5 13 14
f 5 14 11
f 6 11 7
f 7 12 16
f 7 16 15
f 7 15 14
f 7 14 13
f 7 13 9
f 7 9 8
f 7 11 12
f 11 14 15
f 11 15 16
f 11 16 12

