# https://github.com/mikedh/trimesh

o upper_bill_retention_shell_015.obj
v 0.09200000 -0.01180000 -0.00985119
v 0.09898576 -0.01180000 -0.01009216
v 0.09200000 -0.01180000 -0.00763800
v 0.09200000 0.01180000 -0.00985119
v 0.09898576 0.01180000 -0.01009241
v 0.09898576 -0.01178845 -0.00788051
v 0.09677844 -0.01180000 -0.00771620
v 0.09433657 -0.01180000 -0.00763851
v 0.09262363 -0.01027995 -0.00757616
v 0.09246773 -0.00872294 -0.00753553
v 0.09231182 -0.00610791 -0.00749874
v 0.09200000 0.01180000 -0.00763800
v 0.09666834 0.01180000 -0.00771058
v 0.09898576 0.01179307 -0.00789354
v 0.09778705 -0.01120168 -0.00775581
v 0.09898576 -0.00924734 -0.00781611
v 0.09775217 -0.00942984 -0.00769601
v 0.09500054 -0.00947142 -0.00756927
v 0.09500054 -0.01075352 -0.00760811
v 0.09550245 -0.01180000 -0.00766305
v 0.09500054 -0.00788669 -0.00753732
v 0.09262363 -0.00736922 -0.00751126
v 0.09262363 -0.00487894 -0.00748928
v 0.09262363 -0.00351829 -0.00748417
v 0.09262363 -0.00229393 -0.00748264
v 0.09246773 0.00327572 -0.00748494
v 0.09246773 0.00769957 -0.00751739
v 0.09246773 0.01036312 -0.00757974
v 0.09338608 0.01180000 -0.00763213
v 0.09527065 0.01171222 -0.00765385
v 0.09500054 0.01038853 -0.00759635
v 0.09775217 0.00997502 -0.00771058
v 0.09777337 0.01123172 -0.00775529
v 0.09898576 0.00952224 -0.00782276
v 0.09775217 -0.00784742 -0.00766432
v 0.09898576 -0.00712204 -0.00777778
v 0.09500054 -0.00614487 -0.00751535
v 0.09500054 -0.00486738 -0.00750692
v 0.09500054 -0.00350442 -0.00750232
v 0.09500054 -0.00180881 -0.00750027
v 0.09262363 -0.00079236 -0.00748187
v 0.09262363 0.00148540 -0.00748213
v 0.09500054 0.00311171 -0.00750155
v 0.09500054 0.00447005 -0.00750538
v 0.09262363 0.00535944 -0.00749209
v 0.09500054 0.00782894 -0.00753630
v 0.09500054 0.00597161 -0.00751407
v 0.09775217 0.00784742 -0.00766458
v 0.09898576 0.00830713 -0.00779567
v 0.09775217 -0.00610560 -0.00764286
v 0.09898576 -0.00566668 -0.00776398
v 0.09775217 -0.00483273 -0.00763468
v 0.09775217 -0.00346977 -0.00763034
v 0.09775217 -0.00177647 -0.00762829
v 0.09500054 0.00151081 -0.00750027
v 0.09775217 0.00189197 -0.00762829
v 0.09775217 0.00313712 -0.00762983
v 0.09775217 0.00449084 -0.00763315
v 0.09775217 0.00599009 -0.00764209
v 0.09898576 0.00617028 -0.00776807
v 0.09898576 -0.00412815 -0.00775606
v 0.09898576 -0.00246488 -0.00775299
v 0.09898576 0.00229162 -0.00775274
v 0.09898576 0.00429448 -0.00775683
f 1 2 7
f 1 7 20
f 1 20 8
f 1 8 3
f 1 3 12
f 1 12 4
f 1 4 5
f 1 5 2
f 2 6 7
f 2 5 14
f 2 14 34
f 2 34 49
f 2 49 60
f 2 60 64
f 2 64 63
f 2 63 62
f 2 62 61
f 2 61 51
f 2 51 36
f 2 36 16
f 2 16 6
f 3 8 9
f 3 9 10
f 3 10 11
f 3 11 12
f 4 12 29
f 4 29 13
f 4 13 5
f 5 13 14
f 6 15 7
f 6 16 17
f 6 17 15
f 7 15 17
f 7 17 18
f 7 18 19
f 7 19 20
f 8 20 19
f 8 19 9
f 9 19 18
f 9 18 10
f 10 18 21
f 10 21 22
f 10 22 11
f 11 22 23
f 11 23 24
f 11 24 25
f 11 25 26
f 11 26 12
f 12 26 27
f 12 27 28
f 12 28 29
f 13 29 30
f 13 30 31
f 13 31 32
f 13 32 33
f 13 33 14
f 14 33 32
f 14 32 34
f 16 35 17
f 16 36 35
f 17 35 21
f 17 21 18
f 21 35 37
f 21 37 22
f 22 37 23
f 23 37 38
f 23 38 24
f 24 39 25
f 24 38 39
f 25 39 40
f 25 40 41
f 25 41 26
f 26 41 42
f 26 42 43
f 26 43 44
f 26 44 45
f 26 45 27
f 27 46 28
f 27 45 47
f 27 47 46
f 28 46 31
f 28 31 29
f 29 31 30
f 31 46 32
f 32 46 48
f 32 48 49
f 32 49 34
f 35 36 50
f 35 50 37
f 36 51 50
f 37 50 38
f 38 50 52
f 38 52 39
f 39 52 53
f 39 53 54
f 39 54 40
f 40 54 56
f 40 56 55
f 40 55 41
f 41 55 42
f 42 55 43
f 43 55 56
f 43 56 57
f 43 57 58
f 43 58 44
f 44 58 47
f 44 47 45
f 46 47 59
f 46 59 48
f 47 58 59
f 48 59 60
f 48 60 49
f 50 51 52
f 51 61 52
f 52 61 53
f 53 61 62
f 53 62 54
f 54 63 56
f 54 62 63
f 56 63 57
f 57 63 64
f 57 64 58
f 58 64 59
f 59 64 60

