# https://github.com/mikedh/trimesh

o upper_bill_retention_backbone_001.obj
v 0.10910542 -0.01200000 -0.02829999
v 0.10910542 -0.01200000 -0.02540059
v 0.10910542 -0.00969521 -0.02829999
v 0.13399764 -0.01200000 -0.02829999
v 0.10910542 -0.00969521 -0.02540059
v 0.13399764 -0.01200000 -0.02540059
v 0.14552036 -0.00969521 -0.02829999
v 0.13466790 -0.01186622 -0.02540059
v 0.13686406 -0.00969521 -0.02540059
v 0.14552036 -0.00969521 -0.02570344
v 0.13686406 -0.01142674 -0.02540059
f 1 2 5
f 1 5 3
f 1 3 7
f 1 7 4
f 1 4 6
f 1 6 2
f 2 6 8
f 2 8 11
f 2 11 9
f 2 9 5
f 3 5 9
f 3 9 10
f 3 10 7
f 4 7 8
f 4 8 6
f 7 10 8
f 8 10 11
f 9 11 10

