# https://github.com/mikedh/trimesh

o upper_bill_retention_shell_068.obj
v 0.14668033 0.02087072 -0.02660768
v 0.14668033 0.01734606 -0.02793038
v 0.14679358 0.01863506 -0.02619204
v 0.14685020 0.02082308 -0.02619085
v 0.14713192 0.02071340 -0.02663901
v 0.14712226 0.02066853 -0.02712038
v 0.14699797 0.02055331 -0.02778803
v 0.15431598 0.01521233 -0.02793038
v 0.15562104 0.01521233 -0.02619085
v 0.14764704 0.02030681 -0.02789922
v 0.14933465 0.01972907 -0.02793038
v 0.15286315 0.01854587 -0.02619085
v 0.14968957 0.01978723 -0.02626679
v 0.14836241 0.02027967 -0.02638002
v 0.14846599 0.02021043 -0.02702979
v 0.14772576 0.02048463 -0.02689868
v 0.14772576 0.02040818 -0.02744527
v 0.15508797 0.01758979 -0.02792136
v 0.15728931 0.01670129 -0.02790041
v 0.15895896 0.01600500 -0.02784320
v 0.16078191 0.01521233 -0.02771754
v 0.16077362 0.01521233 -0.02671904
v 0.16050294 0.01529597 -0.02620447
v 0.15979724 0.01561504 -0.02619085
v 0.14835413 0.02014064 -0.02765232
v 0.14890101 0.01996282 -0.02760430
v 0.14978900 0.01962659 -0.02770885
v 0.15071567 0.01927152 -0.02780693
v 0.15183153 0.01883946 -0.02791352
v 0.15306478 0.01846888 -0.02673675
v 0.15187848 0.01894027 -0.02635976
v 0.15066595 0.01941444 -0.02634239
v 0.15669271 0.01697438 -0.02619085
v 0.15473581 0.01779087 -0.02622780
v 0.15424831 0.01799084 -0.02629199
v 0.15069081 0.01939782 -0.02680742
v 0.14935398 0.01987475 -0.02716176
v 0.15288525 0.01844506 -0.02790586
v 0.15336170 0.01829051 -0.02775823
v 0.15465709 0.01780250 -0.02754964
v 0.15587101 0.01728125 -0.02788696
v 0.15780029 0.01649468 -0.02782719
v 0.15686948 0.01687523 -0.02788389
v 0.15662366 0.01700484 -0.02740457
v 0.15899901 0.01600057 -0.02723378
v 0.15721750 0.01675502 -0.02747728
v 0.16078881 0.01521233 -0.02717402
v 0.15890096 0.01603602 -0.02651658
v 0.15812621 0.01636450 -0.02627156
v 0.15054166 0.01941222 -0.02736558
v 0.15142137 0.01902447 -0.02774240
v 0.15306478 0.01845171 -0.02729457
v 0.15187848 0.01892698 -0.02713009
v 0.15424831 0.01798807 -0.02698178
v 0.15766771 0.01656115 -0.02625675
v 0.15725479 0.01673840 -0.02625453
v 0.15721750 0.01675945 -0.02668975
v 0.15558514 0.01744245 -0.02660802
v 0.15128465 0.01914855 -0.02720841
v 0.15233422 0.01870430 -0.02758813
v 0.15543599 0.01748288 -0.02759000
v 0.15639579 0.01707187 -0.02785018
v 0.15840518 0.01625482 -0.02685237
f 1 2 3
f 1 3 4
f 1 4 5
f 1 5 6
f 1 6 7
f 1 7 2
f 2 8 9
f 2 9 3
f 2 7 10
f 2 10 11
f 2 11 8
f 3 9 4
f 4 9 24
f 4 24 33
f 4 33 12
f 4 12 13
f 4 13 14
f 4 14 5
f 5 14 15
f 5 15 16
f 5 16 6
f 6 16 15
f 6 15 17
f 6 17 7
f 7 17 10
f 8 18 19
f 8 19 20
f 8 20 21
f 8 21 47
f 8 47 22
f 8 22 9
f 8 11 18
f 9 22 23
f 9 23 24
f 10 17 25
f 10 25 11
f 11 25 26
f 11 26 27
f 11 27 28
f 11 28 29
f 11 29 18
f 12 30 31
f 12 31 32
f 12 32 13
f 12 33 34
f 12 34 35
f 12 35 30
f 13 32 36
f 13 36 14
f 14 36 15
f 15 37 17
f 15 36 37
f 17 37 26
f 17 26 25
f 18 29 38
f 18 38 39
f 18 39 40
f 18 40 41
f 18 41 19
f 19 42 20
f 19 41 43
f 19 43 44
f 19 44 42
f 20 45 21
f 20 42 46
f 20 46 45
f 21 45 47
f 22 47 48
f 22 48 24
f 22 24 23
f 24 48 49
f 24 49 33
f 26 37 27
f 27 50 28
f 27 37 50
f 28 50 51
f 28 51 29
f 29 51 38
f 30 52 53
f 30 53 31
f 30 35 54
f 30 54 52
f 31 53 36
f 31 36 32
f 33 49 55
f 33 55 56
f 33 56 57
f 33 57 58
f 33 58 34
f 34 58 35
f 35 58 54
f 36 53 59
f 36 59 37
f 37 59 50
f 38 51 39
f 39 51 60
f 39 60 59
f 39 59 53
f 39 53 52
f 39 52 40
f 40 52 54
f 40 54 44
f 40 44 61
f 40 61 62
f 40 62 41
f 41 62 43
f 42 44 46
f 43 62 61
f 43 61 44
f 44 54 58
f 44 58 57
f 44 57 46
f 45 46 63
f 45 63 48
f 45 48 47
f 46 57 63
f 48 63 49
f 49 63 55
f 50 59 60
f 50 60 51
f 55 63 56
f 56 63 57

