# https://github.com/mikedh/trimesh

o upper_neck_idler_fork_plate_047.obj
v 0.03514374 -0.04824990 0.04348817
v 0.03514374 -0.04721466 0.04348817
v 0.03566596 -0.04824990 0.04348817
v 0.03305487 -0.04824990 0.04485735
v 0.03567211 -0.04721466 0.04348817
v 0.03305487 -0.04721466 0.04485735
v 0.03567211 -0.04823652 0.04348817
v 0.03567211 -0.04824990 0.04349619
v 0.03305487 -0.04824990 0.04570117
v 0.03567211 -0.04721466 0.04570117
v 0.03305487 -0.04721466 0.04570117
v 0.03567211 -0.04824990 0.04570117
f 1 2 5
f 1 5 7
f 1 7 3
f 1 3 8
f 1 8 12
f 1 12 9
f 1 9 4
f 1 4 6
f 1 6 2
f 2 6 11
f 2 11 10
f 2 10 5
f 3 7 8
f 4 9 11
f 4 11 6
f 5 10 12
f 5 12 8
f 5 8 7
f 9 12 10
f 9 10 11

