# https://github.com/mikedh/trimesh

o upper_neck_output_adapter_100.obj
v -0.00376055 0.03005457 -0.01294252
v -0.00376055 0.02915845 -0.01294252
v -0.00376055 0.03056299 -0.01295559
v -0.00714872 0.03005457 -0.01294252
v -0.00714872 0.02915845 -0.01294252
v -0.00376055 0.02915845 -0.01962020
v -0.00713413 0.03056299 -0.01295559
v -0.00376055 0.03056299 -0.01962020
v -0.00714574 0.03056299 -0.01476882
v -0.00714872 0.03005457 -0.01865149
v -0.00714872 0.02915845 -0.01865149
v -0.00445072 0.02915845 -0.01949797
v -0.00397214 0.03005457 -0.01958294
v -0.00410049 0.03056299 -0.01956007
v -0.00714574 0.03056299 -0.01865215
v -0.00713181 0.03056299 -0.01865803
v -0.00688340 0.02915845 -0.01875673
v -0.00451075 0.03005457 -0.01948163
v -0.00445072 0.03056299 -0.01949797
v -0.00438837 0.03005457 -0.01950908
v -0.00471670 0.02915845 -0.01942345
v -0.00638890 0.03056299 -0.01895021
v -0.00644031 0.03025956 -0.01893060
v -0.00642704 0.03005457 -0.01893583
v -0.00636934 0.02915845 -0.01895740
v -0.00498236 0.02915845 -0.01934894
v -0.00630798 0.03005457 -0.01897570
v -0.00598628 0.03056299 -0.01906591
v -0.00453032 0.03056299 -0.01947574
v -0.00636900 0.03056299 -0.01895675
v -0.00636934 0.03025956 -0.01895740
v -0.00604034 0.02915845 -0.01905087
f 1 2 6
f 1 6 8
f 1 8 3
f 1 3 7
f 1 7 4
f 1 4 5
f 1 5 2
f 2 5 11
f 2 11 17
f 2 17 25
f 2 25 32
f 2 32 26
f 2 26 21
f 2 21 12
f 2 12 6
f 3 8 14
f 3 14 19
f 3 19 29
f 3 29 28
f 3 28 30
f 3 30 22
f 3 22 16
f 3 16 15
f 3 15 9
f 3 9 7
f 4 7 9
f 4 9 15
f 4 15 10
f 4 10 11
f 4 11 5
f 6 12 13
f 6 13 8
f 8 13 14
f 10 15 16
f 10 16 17
f 10 17 11
f 12 18 19
f 12 19 20
f 12 20 13
f 12 21 18
f 13 20 19
f 13 19 14
f 16 22 23
f 16 23 17
f 17 23 24
f 17 24 25
f 18 26 27
f 18 27 28
f 18 28 29
f 18 29 19
f 18 21 26
f 22 30 31
f 22 31 25
f 22 25 24
f 22 24 23
f 25 31 27
f 25 27 32
f 26 32 27
f 27 31 30
f 27 30 28

