# https://github.com/mikedh/trimesh

o upper_bill_retention_shell_030.obj
v 0.14017245 -0.01742676 -0.01844436
v 0.13999808 -0.01742676 -0.01839036
v 0.13998286 -0.01769653 -0.01844436
v 0.13266089 -0.01742676 -0.01844436
v 0.13974899 -0.01742676 -0.01831353
v 0.13927986 -0.01777445 -0.01824452
v 0.13927986 -0.01794652 -0.01828410
v 0.13964105 -0.01814192 -0.01844436
v 0.12880133 -0.02146734 -0.01844436
v 0.13100719 -0.01742676 -0.01796923
v 0.13794583 -0.01742676 -0.01777599
v 0.13766491 -0.01819453 -0.01784414
v 0.13838312 -0.01816684 -0.01805856
v 0.13927986 -0.01819176 -0.01834348
v 0.13950543 -0.01830924 -0.01844436
v 0.13487229 -0.02146734 -0.01801689
v 0.12603639 -0.02146734 -0.01755748
v 0.12961642 -0.01742676 -0.01755748
v 0.13035401 -0.01742676 -0.01777964
v 0.13607763 -0.02145943 -0.01844436
v 0.13750299 -0.01742676 -0.01764464
v 0.13649140 -0.01850465 -0.01755748
v 0.13927986 -0.01840853 -0.01839878
v 0.13943485 -0.01839626 -0.01844436
v 0.13514768 -0.02138546 -0.01807541
v 0.13424817 -0.02146734 -0.01779934
v 0.13568738 -0.02145943 -0.01830311
v 0.13568738 -0.02132929 -0.01823931
v 0.13354241 -0.02146734 -0.01755748
v 0.13717917 -0.01742676 -0.01755748
v 0.13627137 -0.02132138 -0.01844436
v 0.13668929 -0.01820165 -0.01755748
v 0.13661733 -0.01831478 -0.01755748
v 0.13635024 -0.01867315 -0.01755748
v 0.13939611 -0.01844096 -0.01844436
v 0.13572336 -0.01942035 -0.01755748
v 0.13640698 -0.02115050 -0.01840911
v 0.13568738 -0.02120351 -0.01818054
v 0.13390083 -0.02146734 -0.01767902
v 0.13568738 -0.02107693 -0.01812376
v 0.13632118 -0.02128539 -0.01844436
v 0.13640698 -0.02122289 -0.01844436
v 0.13424817 -0.02123673 -0.01769821
v 0.13384962 -0.02122289 -0.01755748
v 0.13604718 -0.01945516 -0.01766912
v 0.13712520 -0.01966164 -0.01807532
v 0.13833192 -0.01959123 -0.01844436
v 0.13565693 -0.01949432 -0.01755748
v 0.13654122 -0.02112400 -0.01844436
v 0.13568738 -0.02094600 -0.01806751
v 0.13698405 -0.02077591 -0.01844436
v 0.13731341 -0.02050456 -0.01844002
v 0.13694530 -0.02060345 -0.01835503
v 0.13568738 -0.02081428 -0.01801334
v 0.13407104 -0.02103698 -0.01755748
v 0.13640698 -0.01985942 -0.01790708
v 0.13798873 -0.01991361 -0.01844436
v 0.13568738 -0.02038076 -0.01784952
v 0.13449311 -0.02066199 -0.01755748
v 0.13768428 -0.02019564 -0.01844436
v 0.13748500 -0.02020948 -0.01838220
v 0.13640698 -0.02051366 -0.01813696
v 0.13411671 -0.02099782 -0.01755748
v 0.13568738 -0.02061848 -0.01793685
f 1 2 3
f 1 3 8
f 1 8 15
f 1 15 24
f 1 24 35
f 1 35 47
f 1 47 57
f 1 57 60
f 1 60 51
f 1 51 49
f 1 49 42
f 1 42 41
f 1 41 31
f 1 31 20
f 1 20 9
f 1 9 4
f 1 4 10
f 1 10 19
f 1 19 18
f 1 18 30
f 1 30 21
f 1 21 11
f 1 11 5
f 1 5 2
f 2 5 3
f 3 5 6
f 3 6 7
f 3 7 8
f 4 9 10
f 5 11 12
f 5 12 6
f 6 13 7
f 6 12 13
f 7 13 14
f 7 14 8
f 8 14 15
f 9 16 26
f 9 26 39
f 9 39 29
f 9 29 17
f 9 17 18
f 9 18 19
f 9 19 10
f 9 20 16
f 11 21 12
f 12 21 22
f 12 22 13
f 13 23 14
f 13 22 23
f 14 23 24
f 14 24 15
f 16 25 26
f 16 20 27
f 16 27 28
f 16 28 25
f 17 29 44
f 17 44 55
f 17 55 63
f 17 63 59
f 17 59 48
f 17 48 36
f 17 36 34
f 17 34 22
f 17 22 33
f 17 33 32
f 17 32 30
f 17 30 18
f 20 31 27
f 21 30 32
f 21 32 33
f 21 33 22
f 22 34 23
f 23 35 24
f 23 34 36
f 23 36 35
f 25 28 37
f 25 37 38
f 25 38 26
f 26 38 40
f 26 40 39
f 27 31 41
f 27 41 42
f 27 42 28
f 28 42 37
f 29 39 43
f 29 43 44
f 35 36 45
f 35 45 46
f 35 46 47
f 36 48 45
f 37 49 40
f 37 40 38
f 37 42 49
f 39 40 43
f 40 50 43
f 40 49 51
f 40 51 52
f 40 52 53
f 40 53 50
f 43 50 54
f 43 54 44
f 44 54 55
f 45 48 56
f 45 56 46
f 46 56 47
f 47 56 58
f 47 58 57
f 48 59 56
f 50 53 54
f 51 60 52
f 52 60 61
f 52 61 62
f 52 62 54
f 52 54 53
f 54 62 55
f 55 62 63
f 56 59 58
f 57 58 61
f 57 61 60
f 58 59 64
f 58 64 61
f 59 63 64
f 61 64 62
f 62 64 63

