# https://github.com/mikedh/trimesh

o upper_grip_backbone_083.obj
v 0.13678066 0.00708597 -0.02545014
v 0.13678066 0.00708597 -0.02829999
v 0.13599318 0.00708597 -0.02545014
v 0.13678066 0.00351270 -0.02545014
v 0.13599318 0.00708597 -0.02829999
v 0.13678066 0.00351270 -0.02829999
v 0.13401229 0.00707967 -0.02545014
v 0.13401229 0.00351270 -0.02545014
v 0.13401229 0.00707967 -0.02829999
v 0.13401229 0.00351270 -0.02829999
f 1 2 5
f 1 5 3
f 1 3 7
f 1 7 8
f 1 8 4
f 1 4 6
f 1 6 2
f 2 6 10
f 2 10 9
f 2 9 5
f 3 5 9
f 3 9 7
f 4 8 10
f 4 10 6
f 7 9 10
f 7 10 8

