# https://github.com/mikedh/trimesh

o upper_neck_idler_fork_plate_022.obj
v -0.00782300 -0.04344157 0.00537787
v -0.00782300 -0.04825000 0.00537787
v -0.00937467 -0.04344157 0.00153671
v -0.01504801 -0.04344157 0.00537787
v -0.00937467 -0.04825000 0.00153671
v -0.01504801 -0.04825000 0.00537787
v -0.01591816 -0.04344157 0.00153671
v -0.01506624 -0.04344157 0.00532635
v -0.01591816 -0.04825000 0.00153671
v -0.01509398 -0.04825000 0.00524588
v -0.01572717 -0.04344157 0.00294194
v -0.01512727 -0.04344157 0.00515113
v -0.01572717 -0.04825000 0.00294194
v -0.01535550 -0.04825000 0.00449269
v -0.01560354 -0.04458343 0.00345861
v -0.01537927 -0.04344157 0.00439530
v -0.01535550 -0.04344157 0.00449269
f 1 2 5
f 1 5 3
f 1 3 7
f 1 7 11
f 1 11 16
f 1 16 17
f 1 17 12
f 1 12 8
f 1 8 4
f 1 4 6
f 1 6 2
f 2 6 10
f 2 10 14
f 2 14 13
f 2 13 9
f 2 9 5
f 3 5 9
f 3 9 7
f 4 8 6
f 6 8 10
f 7 9 13
f 7 13 11
f 8 12 10
f 10 12 14
f 11 13 15
f 11 15 16
f 12 17 14
f 13 14 16
f 13 16 15
f 14 17 16

