# https://github.com/mikedh/trimesh

o upper_neck_output_adapter_175.obj
v 0.01852338 0.03117336 0.00751010
v 0.01310056 0.03117336 0.00751010
v 0.01844294 0.03127468 0.00772825
v 0.01841386 0.03107214 0.00779616
v 0.01823649 0.03086940 0.00816454
v 0.01094693 0.03026286 0.00816454
v 0.00862273 0.03086940 0.00816454
v 0.00862370 0.03107214 0.00816454
v 0.01080930 0.03127468 0.00808427
v 0.00862370 0.03026286 0.00816454
v 0.00862273 0.03056633 0.00816454
v 0.01816768 0.03107214 0.00831168
v 0.01756288 0.03127468 0.00956704
v 0.01780422 0.03086940 0.00906490
v 0.01174848 0.03026286 0.01615358
v 0.01174848 0.03026286 0.00835078
v 0.00862273 0.03086940 0.01802222
v 0.00866634 0.03107214 0.01800267
v 0.01083063 0.03127468 0.01681111
v 0.00870123 0.03026286 0.01798621
v 0.00862273 0.03056633 0.01802222
v 0.01756288 0.03107214 0.00956704
v 0.01671965 0.03127468 0.01094794
v 0.01766562 0.03086940 0.00935199
v 0.01343106 0.03056633 0.01478606
v 0.01247153 0.03056633 0.01563395
v 0.01194814 0.03086940 0.01601158
v 0.01120959 0.03086940 0.01654254
v 0.01085292 0.03056633 0.01679773
v 0.01081899 0.03026286 0.01681728
v 0.01756094 0.03086940 0.00956807
v 0.01728859 0.03086940 0.01001568
v 0.01653162 0.03086940 0.01125355
v 0.00912672 0.03026286 0.01779482
v 0.00912188 0.03107214 0.01779688
v 0.01060867 0.03107214 0.01693973
v 0.01093336 0.03107214 0.01674113
v 0.01220984 0.03127468 0.01582328
v 0.01715193 0.03107214 0.01024000
v 0.01650254 0.03127468 0.01129471
v 0.01652290 0.03107214 0.01126796
v 0.01312963 0.03086940 0.01505463
v 0.01637848 0.03086940 0.01145935
v 0.01582311 0.03086940 0.01219302
v 0.01533172 0.03086940 0.01283922
v 0.01514563 0.03086940 0.01304193
v 0.01397771 0.03086940 0.01429935
v 0.01396414 0.03107214 0.01431582
v 0.01277393 0.03107214 0.01536847
v 0.01272837 0.03127468 0.01540860
v 0.01247056 0.03107214 0.01563497
v 0.01229319 0.03107214 0.01576360
v 0.01019287 0.03026286 0.01717948
v 0.01247056 0.03127468 0.01563497
v 0.01589290 0.03127468 0.01210144
v 0.01624182 0.03107214 0.01164045
v 0.01395929 0.03127468 0.01432096
v 0.01543155 0.03107214 0.01271060
v 0.01533850 0.03127468 0.01282996
v 0.01526096 0.03107214 0.01291845
v 0.01433923 0.03107214 0.01391245
v 0.01419675 0.03127468 0.01406577
v 0.01554689 0.03127468 0.01255728
v 0.01518827 0.03127468 0.01299666
f 1 2 3
f 1 3 4
f 1 4 5
f 1 5 6
f 1 6 10
f 1 10 2
f 2 7 8
f 2 8 9
f 2 9 3
f 2 10 11
f 2 11 7
f 3 12 4
f 3 9 19
f 3 19 38
f 3 38 54
f 3 54 50
f 3 50 57
f 3 57 62
f 3 62 64
f 3 64 59
f 3 59 63
f 3 63 55
f 3 55 40
f 3 40 23
f 3 23 13
f 3 13 12
f 4 12 5
f 5 12 14
f 5 14 15
f 5 15 16
f 5 16 6
f 6 16 15
f 6 15 30
f 6 30 53
f 6 53 34
f 6 34 20
f 6 20 10
f 7 17 8
f 7 11 21
f 7 21 17
f 8 17 18
f 8 18 19
f 8 19 9
f 10 20 21
f 10 21 11
f 12 22 14
f 12 13 22
f 13 23 22
f 14 22 24
f 14 24 15
f 15 25 26
f 15 26 27
f 15 27 28
f 15 28 29
f 15 29 30
f 15 24 31
f 15 31 32
f 15 32 33
f 15 33 25
f 17 21 18
f 18 21 34
f 18 34 35
f 18 35 19
f 19 35 36
f 19 36 30
f 19 30 29
f 19 29 37
f 19 37 38
f 20 34 21
f 22 23 39
f 22 39 32
f 22 32 31
f 22 31 24
f 23 33 32
f 23 32 39
f 23 40 41
f 23 41 33
f 25 42 26
f 25 33 43
f 25 43 44
f 25 44 45
f 25 45 46
f 25 46 47
f 25 47 48
f 25 48 42
f 26 42 49
f 26 49 50
f 26 50 51
f 26 51 52
f 26 52 27
f 27 52 28
f 28 52 37
f 28 37 29
f 30 36 53
f 33 41 43
f 34 53 36
f 34 36 35
f 37 52 38
f 38 52 54
f 40 55 56
f 40 56 41
f 41 56 43
f 42 48 57
f 42 57 50
f 42 50 49
f 43 56 44
f 44 56 58
f 44 58 45
f 45 58 59
f 45 59 60
f 45 60 46
f 46 60 61
f 46 61 47
f 47 61 48
f 48 61 62
f 48 62 57
f 50 54 51
f 51 54 52
f 55 63 58
f 55 58 56
f 58 63 59
f 59 64 60
f 60 64 61
f 61 64 62

