# https://github.com/mikedh/trimesh

o upper_grip_backbone_040.obj
v 0.13566216 -0.00468511 -0.02535815
v 0.13492250 -0.00470133 -0.02449579
v 0.13508238 -0.00470159 -0.02449579
v 0.13515573 -0.00470446 -0.02449579
v 0.13531367 -0.00471545 -0.02449579
v 0.13538702 -0.00472355 -0.02449579
v 0.13551663 -0.00474081 -0.02449579
v 0.13563034 -0.00476226 -0.02449579
v 0.13566216 -0.00476827 -0.02449579
v 0.13566216 -0.00468511 -0.02544976
v 0.13169761 -0.00468511 -0.02520788
v 0.13484993 -0.00470420 -0.02449579
v 0.13566216 -0.00682393 -0.02449579
v 0.13566216 -0.00682393 -0.02544976
v 0.13169761 -0.00468511 -0.02544976
v 0.13169761 -0.00727998 -0.02520779
v 0.13176552 -0.00735660 -0.02449579
v 0.13178454 -0.00725906 -0.02449579
v 0.13180123 -0.00719604 -0.02449579
v 0.13184469 -0.00703417 -0.02449579
v 0.13189902 -0.00687570 -0.02449579
v 0.13192075 -0.00681399 -0.02449579
v 0.13198556 -0.00665997 -0.02449579
v 0.13201195 -0.00659982 -0.02449579
v 0.13208763 -0.00645077 -0.02449579
v 0.13211828 -0.00639245 -0.02449579
v 0.13220366 -0.00624941 -0.02449579
v 0.13223897 -0.00619319 -0.02449579
v 0.13233405 -0.00605642 -0.02449579
v 0.13237363 -0.00600308 -0.02449579
v 0.13247725 -0.00587363 -0.02449579
v 0.13252110 -0.00582264 -0.02449579
v 0.13263364 -0.00570078 -0.02449579
v 0.13268099 -0.00565319 -0.02449579
v 0.13280129 -0.00553970 -0.02449579
v 0.13285290 -0.00549524 -0.02449579
v 0.13298058 -0.00539064 -0.02449579
v 0.13303530 -0.00535011 -0.02449579
v 0.13316957 -0.00525466 -0.02449579
v 0.13322778 -0.00521805 -0.02449579
v 0.13336788 -0.00513202 -0.02449579
v 0.13342919 -0.00509985 -0.02449579
v 0.13357433 -0.00502402 -0.02449579
v 0.13378777 -0.00493066 -0.02449579
v 0.13394067 -0.00487627 -0.02449579
v 0.13400781 -0.00485274 -0.02449579
v 0.13416110 -0.00480959 -0.02449579
v 0.13423017 -0.00479128 -0.02449579
v 0.13438734 -0.00475833 -0.02449579
v 0.13445797 -0.00474500 -0.02449579
v 0.13461747 -0.00472303 -0.02449579
v 0.13468926 -0.00471492 -0.02449579
v 0.13381416 -0.00735660 -0.02449579
v 0.13381416 -0.00735660 -0.02544976
v 0.13169761 -0.00735660 -0.02544976
v 0.13169761 -0.00735660 -0.02520788
f 1 2 3
f 1 3 4
f 1 4 5
f 1 5 6
f 1 6 7
f 1 7 8
f 1 8 9
f 1 9 13
f 1 13 14
f 1 14 10
f 1 10 15
f 1 15 11
f 1 11 2
f 2 12 52
f 2 52 51
f 2 51 50
f 2 50 49
f 2 49 48
f 2 48 47
f 2 47 46
f 2 46 45
f 2 45 44
f 2 44 43
f 2 43 42
f 2 42 41
f 2 41 40
f 2 40 39
f 2 39 38
f 2 38 37
f 2 37 36
f 2 36 35
f 2 35 34
f 2 34 33
f 2 33 32
f 2 32 31
f 2 31 30
f 2 30 29
f 2 29 28
f 2 28 27
f 2 27 26
f 2 26 25
f 2 25 24
f 2 24 23
f 2 23 22
f 2 22 21
f 2 21 20
f 2 20 19
f 2 19 18
f 2 18 17
f 2 17 53
f 2 53 13
f 2 13 9
f 2 9 8
f 2 8 7
f 2 7 6
f 2 6 5
f 2 5 4
f 2 4 3
f 2 11 12
f 10 14 54
f 10 54 55
f 10 55 15
f 11 15 55
f 11 55 56
f 11 56 16
f 11 16 17
f 11 17 18
f 11 18 19
f 11 19 20
f 11 20 21
f 11 21 22
f 11 22 23
f 11 23 24
f 11 24 25
f 11 25 26
f 11 26 27
f 11 27 28
f 11 28 29
f 11 29 30
f 11 30 31
f 11 31 32
f 11 32 33
f 11 33 34
f 11 34 35
f 11 35 36
f 11 36 37
f 11 37 38
f 11 38 39
f 11 39 40
f 11 40 41
f 11 41 42
f 11 42 43
f 11 43 44
f 11 44 45
f 11 45 46
f 11 46 47
f 11 47 48
f 11 48 49
f 11 49 50
f 11 50 51
f 11 51 52
f 11 52 12
f 13 53 54
f 13 54 14
f 16 56 17
f 17 56 55
f 17 55 54
f 17 54 53

