# https://github.com/mikedh/trimesh

o upper_grip_shell_064.obj
v 0.13035500 0.02342153 -0.02388479
v 0.13029697 0.02342153 -0.02255099
v 0.13849612 0.02341561 -0.02313719
v 0.13868706 0.02337236 -0.02384144
v 0.14014156 0.02295570 -0.02388505
v 0.14367207 0.01964537 -0.02388505
v 0.14213894 0.01964537 -0.02255099
v 0.13991506 0.02295016 -0.02255099
v 0.13844745 0.02339861 -0.02260271
v 0.13916441 0.02320858 -0.02286257
v 0.13928421 0.02319527 -0.02331792
v 0.13987949 0.02302521 -0.02342539
v 0.14118799 0.02264404 -0.02361187
v 0.14148937 0.02255679 -0.02388505
v 0.14297757 0.02210279 -0.02388505
v 0.14640886 0.02093897 -0.02387657
v 0.14942083 0.01972116 -0.02379286
v 0.14918496 0.01964537 -0.02331361
v 0.14875254 0.01966829 -0.02297670
v 0.14833697 0.01970933 -0.02272180
v 0.14797381 0.01984538 -0.02264606
v 0.14717074 0.02020806 -0.02259069
v 0.14670837 0.02041214 -0.02255987
v 0.14112996 0.02258008 -0.02265089
v 0.14045231 0.02280560 -0.02273577
v 0.13999742 0.02294239 -0.02269633
v 0.13952382 0.02308362 -0.02266826
v 0.14356349 0.02173124 -0.02257789
v 0.14222130 0.02221444 -0.02261328
v 0.14007230 0.02294794 -0.02301274
v 0.14044482 0.02284664 -0.02316631
v 0.14115055 0.02263480 -0.02320261
v 0.14237855 0.02228765 -0.02380644
v 0.14361965 0.02189021 -0.02371373
v 0.14440026 0.02164251 -0.02385646
v 0.14494312 0.02146025 -0.02387970
v 0.14579860 0.02114970 -0.02379169
v 0.14555899 0.02117706 -0.02337447
v 0.14694049 0.02072823 -0.02379234
v 0.14766307 0.02044615 -0.02378085
v 0.14835756 0.02017405 -0.02381506
v 0.14782031 0.02034226 -0.02358810
v 0.14880870 0.01991636 -0.02358601
v 0.14819844 0.02008014 -0.02329089
v 0.14778474 0.02016924 -0.02306054
v 0.14750769 0.02015556 -0.02277965
v 0.14627595 0.02068794 -0.02272115
v 0.14581919 0.02085874 -0.02265389
v 0.14188810 0.02235752 -0.02280785
v 0.14237855 0.02224291 -0.02312583
v 0.14268180 0.02206435 -0.02265820
v 0.14537741 0.02107132 -0.02272310
v 0.14486263 0.02128686 -0.02275418
v 0.14407266 0.02158891 -0.02275366
v 0.14439838 0.02153604 -0.02301771
v 0.14358221 0.02183476 -0.02308901
v 0.14297196 0.02206435 -0.02325132
v 0.14403710 0.02170277 -0.02323147
v 0.14472597 0.02147652 -0.02334208
v 0.14512096 0.02129832 -0.02314672
v 0.14720444 0.02055817 -0.02345203
v 0.14671024 0.02070309 -0.02325080
v 0.14694424 0.02051713 -0.02299394
v 0.14595959 0.02096743 -0.02311969
f 1 2 3
f 1 3 4
f 1 4 5
f 1 5 6
f 1 6 7
f 1 7 2
f 2 7 8
f 2 8 9
f 2 9 3
f 3 9 10
f 3 10 11
f 3 11 4
f 4 11 5
f 5 11 12
f 5 12 13
f 5 13 14
f 5 14 15
f 5 15 6
f 6 15 16
f 6 16 17
f 6 17 18
f 6 18 7
f 7 18 19
f 7 19 20
f 7 20 21
f 7 21 22
f 7 22 23
f 7 23 8
f 8 24 25
f 8 25 26
f 8 26 27
f 8 27 9
f 8 23 28
f 8 28 29
f 8 29 24
f 9 27 10
f 10 27 30
f 10 30 31
f 10 31 11
f 11 31 12
f 12 31 13
f 13 32 33
f 13 33 14
f 13 31 32
f 14 33 15
f 15 34 35
f 15 35 36
f 15 36 16
f 15 33 34
f 16 36 37
f 16 37 38
f 16 38 39
f 16 39 40
f 16 40 41
f 16 41 17
f 17 41 42
f 17 42 43
f 17 43 44
f 17 44 18
f 18 44 45
f 18 45 46
f 18 46 19
f 19 21 20
f 19 46 22
f 19 22 21
f 22 46 23
f 23 46 45
f 23 45 47
f 23 47 48
f 23 48 28
f 24 29 49
f 24 49 50
f 24 50 25
f 25 50 32
f 25 32 26
f 26 32 30
f 26 30 27
f 28 51 29
f 28 48 52
f 28 52 53
f 28 53 54
f 28 54 55
f 28 55 51
f 29 51 56
f 29 56 49
f 30 32 31
f 32 50 57
f 32 57 33
f 33 57 34
f 34 57 35
f 35 57 58
f 35 58 36
f 36 58 59
f 36 59 37
f 37 59 38
f 38 59 60
f 38 60 61
f 38 61 39
f 39 61 40
f 40 61 42
f 40 42 41
f 42 61 62
f 42 62 63
f 42 63 44
f 42 44 43
f 44 63 45
f 45 63 47
f 47 63 48
f 48 63 52
f 49 56 57
f 49 57 50
f 51 55 56
f 52 63 62
f 52 62 64
f 52 64 53
f 53 64 60
f 53 60 54
f 54 60 55
f 55 60 59
f 55 59 58
f 55 58 56
f 56 58 57
f 60 64 61
f 61 64 62

