# https://github.com/mikedh/trimesh

o upper_bill_retention_shell_075.obj
v 0.13932512 0.01180976 -0.02910579
v 0.13932512 0.00850648 -0.02919045
v 0.13932512 0.01139944 -0.03132655
v 0.13819077 0.01180976 -0.03131184
v 0.10626787 0.01180976 -0.02899893
v 0.13634358 0.00850648 -0.03145246
v 0.13932512 0.00870405 -0.03143509
v 0.10732783 0.00850648 -0.02909083
v 0.13932512 0.01002782 -0.03139047
v 0.13424225 0.01165456 -0.03134778
v 0.13535800 0.01180976 -0.03133234
v 0.09900309 0.01180976 -0.02913932
v 0.07600000 0.01179974 -0.02901051
v 0.13215331 0.00850648 -0.03146283
v 0.13424225 0.00903612 -0.03144740
v 0.13424225 0.01050734 -0.03139940
v 0.10621828 0.00850648 -0.02909252
v 0.13054167 0.01180976 -0.03135140
v 0.13232687 0.01180976 -0.03134585
v 0.09900309 0.01180976 -0.03135067
v 0.07600000 0.01179974 -0.03124551
v 0.07600000 0.00850648 -0.02920806
v 0.12848993 0.00873315 -0.03146018
v 0.09292224 0.00850648 -0.03145198
v 0.12848993 0.00987552 -0.03143051
v 0.12848993 0.01132863 -0.03137817
v 0.12958089 0.01180976 -0.03135405
v 0.09500498 0.01163936 -0.03135743
v 0.09262470 0.01163387 -0.03135574
v 0.09025063 0.01160218 -0.03135308
v 0.12641959 0.01180976 -0.03135815
v 0.12244007 0.01179360 -0.03136056
v 0.11149331 0.01179715 -0.03135670
v 0.07837407 0.01126622 -0.03130750
v 0.07718394 0.01122613 -0.03129930
v 0.07600000 0.01082842 -0.03131280
v 0.07600000 0.00850648 -0.03141604
v 0.09500498 0.00981376 -0.03142183
v 0.09262470 0.00947393 -0.03142979
v 0.08075435 0.00850648 -0.03143461
v 0.08796954 0.00880202 -0.03144161
v 0.09033741 0.00881237 -0.03144402
v 0.09500498 0.01075437 -0.03139168
v 0.12273761 0.01092833 -0.03139457
v 0.11699149 0.01178325 -0.03135936
v 0.11149331 0.01127398 -0.03137817
v 0.09262470 0.01075114 -0.03139047
v 0.09025063 0.01072462 -0.03138830
v 0.08787036 0.01112234 -0.03136635
v 0.08550249 0.01107513 -0.03135960
v 0.07837407 0.01045528 -0.03135212
v 0.07718394 0.01042391 -0.03134561
v 0.08075435 0.01094999 -0.03134078
v 0.07600000 0.00985612 -0.03136611
v 0.07692980 0.00861869 -0.03141966
v 0.07903113 0.00850648 -0.03143027
v 0.09025063 0.00979210 -0.03141917
v 0.08550249 0.00973584 -0.03141170
v 0.08560787 0.00879200 -0.03143799
v 0.08787036 0.00976526 -0.03141628
v 0.07837407 0.00959324 -0.03139095
v 0.07718394 0.00957158 -0.03138613
v 0.07837407 0.00896984 -0.03141387
v 0.08075435 0.00933877 -0.03140953
f 1 2 7
f 1 7 9
f 1 9 3
f 1 3 4
f 1 4 11
f 1 11 19
f 1 19 18
f 1 18 27
f 1 27 31
f 1 31 20
f 1 20 12
f 1 12 5
f 1 5 2
f 2 6 7
f 2 5 8
f 2 8 17
f 2 17 22
f 2 22 37
f 2 37 56
f 2 56 40
f 2 40 24
f 2 24 14
f 2 14 6
f 3 9 10
f 3 10 11
f 3 11 4
f 5 12 13
f 5 13 8
f 6 14 15
f 6 15 7
f 7 15 16
f 7 16 9
f 8 13 17
f 9 16 10
f 10 16 18
f 10 18 19
f 10 19 11
f 12 20 21
f 12 21 13
f 13 21 36
f 13 36 54
f 13 54 37
f 13 37 22
f 13 22 17
f 14 23 15
f 14 24 23
f 15 23 25
f 15 25 16
f 16 25 26
f 16 26 27
f 16 27 18
f 20 28 29
f 20 29 30
f 20 30 21
f 20 31 32
f 20 32 33
f 20 33 28
f 21 30 34
f 21 34 35
f 21 35 36
f 23 38 25
f 23 24 39
f 23 39 38
f 24 40 41
f 24 41 42
f 24 42 39
f 25 38 43
f 25 43 44
f 25 44 26
f 26 44 32
f 26 32 31
f 26 31 27
f 28 33 45
f 28 45 46
f 28 46 43
f 28 43 47
f 28 47 29
f 29 47 48
f 29 48 30
f 30 48 49
f 30 49 50
f 30 50 34
f 32 45 33
f 32 44 46
f 32 46 45
f 34 51 52
f 34 52 36
f 34 36 35
f 34 50 53
f 34 53 51
f 36 52 54
f 37 54 55
f 37 55 56
f 38 39 57
f 38 57 47
f 38 47 43
f 39 42 57
f 40 56 58
f 40 58 59
f 40 59 41
f 41 59 60
f 41 60 57
f 41 57 42
f 43 46 44
f 47 57 48
f 48 57 60
f 48 60 58
f 48 58 49
f 49 58 50
f 50 58 61
f 50 61 62
f 50 62 51
f 50 51 53
f 51 62 54
f 51 54 52
f 54 62 55
f 55 62 63
f 55 63 56
f 56 63 58
f 58 64 61
f 58 60 59
f 58 63 64
f 61 63 62
f 61 64 63

