# https://github.com/mikedh/trimesh

o upper_neck_stationary_idler_spider_005.obj
v -0.07098296 -0.03127627 0.10192011
v -0.07098296 -0.03127627 0.10602982
v -0.07098296 -0.02925000 0.10192011
v -0.06711418 -0.03127627 0.10192011
v -0.07098296 -0.02925000 0.10602982
v -0.06709603 -0.03127627 0.10602982
v -0.06526354 -0.02925000 0.10192011
v -0.06702868 -0.03127627 0.10215544
v -0.06526764 -0.03124989 0.10192011
v -0.06526588 -0.02925000 0.10602982
v -0.06702809 -0.03127627 0.10584196
v -0.06526413 -0.03124989 0.10602982
v -0.06512181 -0.02925000 0.10261083
v -0.06526354 -0.03124791 0.10192011
v -0.06687465 -0.03127627 0.10275927
v -0.06512181 -0.03124989 0.10261083
v -0.06687407 -0.03127627 0.10276168
v -0.06526413 -0.02936961 0.10602982
v -0.06519736 -0.02925000 0.10572972
v -0.06695079 -0.03127627 0.10553944
v -0.06687465 -0.03127627 0.10523974
v -0.06519736 -0.03124989 0.10572972
v -0.06522255 -0.02991670 0.10584316
v -0.06507613 -0.02925000 0.10295679
v -0.06507613 -0.03124989 0.10295679
v -0.06678095 -0.03127627 0.10338079
v -0.06678153 -0.03127627 0.10337637
v -0.06517218 -0.03058319 0.10561628
v -0.06512181 -0.02925000 0.10538899
v -0.06687407 -0.03127627 0.10523692
v -0.06512181 -0.03124989 0.10538899
v -0.06503045 -0.02925000 0.10330315
v -0.06503045 -0.03124989 0.10330315
v -0.06676572 -0.03127627 0.10368975
v -0.06509136 -0.02991670 0.10515848
v -0.06503045 -0.02925000 0.10469706
v -0.06682780 -0.03127627 0.10493079
v -0.06503045 -0.03124989 0.10469706
v -0.06678153 -0.03127627 0.10462344
v -0.06500000 -0.02925000 0.10399991
v -0.06500000 -0.03124989 0.10399991
v -0.06675049 -0.03127627 0.10400031
v -0.06676572 -0.03127627 0.10431168
f 1 2 5
f 1 5 3
f 1 3 7
f 1 7 14
f 1 14 9
f 1 9 4
f 1 4 8
f 1 8 15
f 1 15 17
f 1 17 27
f 1 27 26
f 1 26 34
f 1 34 42
f 1 42 43
f 1 43 39
f 1 39 37
f 1 37 30
f 1 30 21
f 1 21 20
f 1 20 11
f 1 11 6
f 1 6 2
f 2 6 12
f 2 12 18
f 2 18 10
f 2 10 5
f 3 5 10
f 3 10 19
f 3 19 29
f 3 29 36
f 3 36 40
f 3 40 32
f 3 32 24
f 3 24 13
f 3 13 7
f 4 9 8
f 6 11 12
f 7 13 16
f 7 16 14
f 8 9 15
f 9 14 16
f 9 16 17
f 9 17 15
f 10 18 19
f 11 20 12
f 12 20 21
f 12 21 22
f 12 22 23
f 12 23 18
f 13 24 25
f 13 25 16
f 16 25 26
f 16 26 27
f 16 27 17
f 18 23 19
f 19 28 29
f 19 23 22
f 19 22 28
f 21 30 31
f 21 31 22
f 22 31 28
f 24 32 33
f 24 33 25
f 25 33 26
f 26 33 34
f 28 31 29
f 29 31 35
f 29 35 36
f 30 37 31
f 31 38 35
f 31 37 39
f 31 39 38
f 32 40 41
f 32 41 33
f 33 41 42
f 33 42 34
f 35 38 36
f 36 38 41
f 36 41 40
f 38 39 43
f 38 43 42
f 38 42 41

