# https://github.com/mikedh/trimesh

o upper_grip_shell_018.obj
v 0.15645693 -0.01234150 -0.02273041
v 0.15587541 -0.01335952 -0.02273041
v 0.15662274 -0.01454255 -0.02327983
v 0.15025247 -0.01426385 -0.02328125
v 0.14927927 -0.01234150 -0.02271715
v 0.13471249 -0.01234150 -0.01845205
v 0.14234912 -0.01257997 -0.01844258
v 0.14469201 -0.01259630 -0.01913125
v 0.14394228 -0.01300153 -0.01893800
v 0.14474728 -0.01370703 -0.01925724
v 0.14563878 -0.01470814 -0.01966220
v 0.14563878 -0.01517109 -0.01973324
v 0.14474728 -0.01582995 -0.01956131
v 0.14653268 -0.01579846 -0.02013678
v 0.14534562 -0.01652729 -0.01989712
v 0.14638370 -0.01665381 -0.02027792
v 0.14712621 -0.01657335 -0.02051237
v 0.14671771 -0.01726194 -0.02055737
v 0.14772215 -0.01754414 -0.02101301
v 0.15609649 -0.01508596 -0.02328125
v 0.14607131 -0.01829746 -0.02328125
v 0.13207403 -0.01829746 -0.01844258
v 0.14183969 -0.01417056 -0.01844258
v 0.14312527 -0.01480493 -0.01889396
v 0.14463674 -0.01492387 -0.01937896
v 0.14297629 -0.01593607 -0.01901994
v 0.14386539 -0.01620078 -0.01934817
v 0.14467278 -0.01651388 -0.01967262
v 0.14416095 -0.01729576 -0.01968540
v 0.14593674 -0.01743103 -0.02033192
v 0.14474728 -0.01755872 -0.01995680
v 0.14575892 -0.01811962 -0.02048964
v 0.14679701 -0.01796511 -0.02082213
v 0.14729442 -0.01829746 -0.02114752
v 0.14793121 -0.01811671 -0.02132277
v 0.15553900 -0.01559731 -0.02328125
v 0.15471238 -0.01628940 -0.02328125
v 0.15235267 -0.01791905 -0.02327178
v 0.15161736 -0.01811962 -0.02304491
v 0.15075469 -0.01822399 -0.02265984
v 0.14226021 -0.01829746 -0.01932970
v 0.14063820 -0.01829513 -0.01880018
v 0.13977554 -0.01827413 -0.01852073
v 0.14066223 -0.01667888 -0.01844258
v 0.14151048 -0.01505040 -0.01844258
v 0.14104671 -0.01598154 -0.01844258
v 0.14149126 -0.01687887 -0.01873671
v 0.14342084 -0.01670979 -0.01930744
v 0.14316372 -0.01743978 -0.01939175
v 0.14289699 -0.01811904 -0.01948884
v 0.14432916 -0.01815519 -0.01999043
v 0.14874822 -0.01810097 -0.02165857
v 0.15037743 -0.01770449 -0.02214831
v 0.15091089 -0.01776921 -0.02242113
v 0.15246801 -0.01726952 -0.02283746
v 0.15407559 -0.01675876 -0.02327178
v 0.15316006 -0.01736281 -0.02324289
v 0.15246801 -0.01771790 -0.02315716
v 0.15246801 -0.01758846 -0.02305438
v 0.15239352 -0.01746368 -0.02292792
v 0.15127854 -0.01777504 -0.02259827
v 0.14128941 -0.01813945 -0.01896832
v 0.14017443 -0.01766367 -0.01849657
v 0.14227222 -0.01732316 -0.01907915
f 1 2 3
f 1 3 4
f 1 4 5
f 1 5 6
f 1 6 7
f 1 7 8
f 1 8 9
f 1 9 10
f 1 10 11
f 1 11 12
f 1 12 13
f 1 13 14
f 1 14 2
f 2 14 15
f 2 15 16
f 2 16 17
f 2 17 3
f 3 17 18
f 3 18 19
f 3 19 20
f 3 20 4
f 4 21 5
f 4 20 36
f 4 36 37
f 4 37 21
f 5 21 6
f 6 22 7
f 6 21 22
f 7 22 44
f 7 44 46
f 7 46 45
f 7 45 23
f 7 23 9
f 7 9 8
f 9 24 10
f 9 23 24
f 10 24 11
f 11 24 25
f 11 25 12
f 12 25 26
f 12 26 13
f 13 26 27
f 13 27 28
f 13 28 14
f 14 28 15
f 15 28 29
f 15 29 16
f 16 30 17
f 16 29 31
f 16 31 30
f 17 30 18
f 18 30 32
f 18 32 19
f 19 32 33
f 19 33 34
f 19 34 20
f 20 34 35
f 20 35 36
f 21 37 38
f 21 38 39
f 21 39 40
f 21 40 34
f 21 34 41
f 21 41 22
f 22 41 42
f 22 42 43
f 22 43 44
f 23 45 24
f 24 45 46
f 24 46 26
f 24 26 25
f 26 46 44
f 26 44 47
f 26 47 27
f 27 48 28
f 27 47 48
f 28 48 29
f 29 48 49
f 29 49 50
f 29 50 31
f 30 31 51
f 30 51 32
f 31 50 51
f 32 34 33
f 32 51 34
f 34 40 52
f 34 52 35
f 34 51 41
f 35 52 53
f 35 53 36
f 36 53 37
f 37 53 54
f 37 54 55
f 37 55 56
f 37 56 38
f 38 56 57
f 38 57 58
f 38 58 40
f 38 40 39
f 40 58 59
f 40 59 60
f 40 60 61
f 40 61 54
f 40 54 52
f 41 50 62
f 41 62 42
f 41 51 50
f 42 62 43
f 43 63 44
f 43 62 63
f 44 63 47
f 47 64 48
f 47 63 64
f 48 64 49
f 49 64 62
f 49 62 50
f 52 54 53
f 54 61 55
f 55 61 56
f 56 61 60
f 56 60 59
f 56 59 57
f 57 59 58
f 62 64 63

