# https://github.com/mikedh/trimesh

o upper_bill_retention_backbone_041.obj
v 0.15400000 0.00691848 -0.02619312
v 0.15400000 -0.00799891 -0.02619312
v 0.15400000 0.00691848 -0.02730515
v 0.10910186 0.00691848 -0.02619312
v 0.14736812 -0.00932610 -0.02730515
v 0.15288809 -0.00822170 -0.02730515
v 0.15400000 -0.00799891 -0.02730515
v 0.14730220 -0.00933883 -0.02619312
v 0.10910186 0.00691848 -0.02730515
v 0.10910186 -0.00933883 -0.02619312
v 0.14730220 -0.00933883 -0.02730515
v 0.10910186 -0.00933565 -0.02730515
v 0.10910186 -0.00933883 -0.02730232
v 0.10910625 -0.00933883 -0.02730515
f 1 2 7
f 1 7 3
f 1 3 9
f 1 9 4
f 1 4 10
f 1 10 8
f 1 8 2
f 2 5 6
f 2 6 7
f 2 8 5
f 3 7 6
f 3 6 5
f 3 5 11
f 3 11 14
f 3 14 12
f 3 12 9
f 4 9 12
f 4 12 13
f 4 13 10
f 5 8 11
f 8 10 13
f 8 13 14
f 8 14 11
f 12 14 13

