# https://github.com/mikedh/trimesh

o upper_neck_output_fork_plate_047.obj
v -0.00512415 0.04225000 -0.00476792
v -0.00683662 0.04225000 -0.00146766
v -0.00512415 0.03675000 -0.00476792
v -0.00957892 0.04225000 -0.00476792
v -0.00683662 0.03675000 -0.00146766
v -0.01314839 0.04225000 -0.00146766
v -0.00957892 0.03675000 -0.00476792
v -0.01314839 0.04225000 -0.00424356
v -0.01314839 0.03675000 -0.00146766
v -0.01314839 0.03675000 -0.00424356
f 1 2 5
f 1 5 3
f 1 3 7
f 1 7 4
f 1 4 8
f 1 8 6
f 1 6 2
f 2 6 9
f 2 9 5
f 3 5 9
f 3 9 10
f 3 10 7
f 4 7 10
f 4 10 8
f 6 8 10
f 6 10 9

