# https://github.com/mikedh/trimesh

o upper_bill_retention_shell_010.obj
v 0.12469949 0.02362881 -0.01844445
v 0.11983701 0.02503508 -0.01844279
v 0.13211452 0.02372087 -0.01841551
v 0.12841042 0.02364123 -0.01685450
v 0.11625251 0.02362881 -0.01337449
v 0.09798489 0.02362881 -0.01232776
v 0.09720922 0.02503881 -0.01328685
v 0.12758691 0.02499492 -0.01762178
v 0.12935695 0.02472233 -0.01815589
v 0.13018046 0.02447073 -0.01827082
v 0.11727763 0.02503881 -0.01432201
v 0.13101423 0.02396268 -0.01815093
v 0.12935012 0.02419828 -0.01763170
v 0.13010871 0.02394736 -0.01773836
v 0.12952097 0.02368360 -0.01730098
v 0.12542733 0.02363902 -0.01582514
v 0.12769284 0.02406150 -0.01686773
v 0.12665747 0.02399787 -0.01645103
v 0.11716829 0.02367463 -0.01360931
v 0.10837960 0.02367160 -0.01153073
v 0.10600474 0.02362881 -0.01097594
v 0.12300805 0.02369189 -0.01511243
v 0.12148062 0.02373067 -0.01470565
v 0.10071854 0.02365296 -0.01002595
v 0.09894167 0.02407296 -0.00999783
v 0.09894167 0.02484075 -0.01036411
v 0.10083814 0.02503467 -0.01068821
v 0.10187693 0.02503881 -0.01084448
v 0.12361628 0.02485925 -0.01598223
v 0.12577587 0.02485318 -0.01674950
v 0.12692742 0.02474000 -0.01710006
v 0.12850269 0.02484517 -0.01788387
v 0.10514706 0.02503881 -0.01145714
v 0.11459865 0.02502832 -0.01366388
v 0.11545292 0.02495558 -0.01382676
v 0.11843943 0.02480970 -0.01447579
v 0.11979601 0.02477243 -0.01480569
v 0.12835917 0.02426729 -0.01728031
v 0.12544783 0.02427363 -0.01619885
v 0.12438854 0.02392873 -0.01565233
v 0.12470291 0.02481812 -0.01632618
v 0.11527865 0.02423596 -0.01341170
v 0.10944231 0.02436335 -0.01208468
v 0.11871963 0.02384329 -0.01405578
v 0.10738182 0.02380934 -0.01135710
v 0.10405360 0.02369092 -0.01059892
v 0.10600474 0.02432429 -0.01127194
v 0.12203077 0.02417426 -0.01507357
v 0.12040766 0.02390485 -0.01450473
v 0.10073905 0.02439012 -0.01034840
v 0.10287471 0.02397496 -0.01049970
v 0.10193502 0.02396489 -0.01033930
v 0.10003855 0.02480556 -0.01046911
v 0.10291230 0.02487139 -0.01093212
v 0.12123801 0.02470701 -0.01516287
v 0.12291920 0.02447445 -0.01551012
v 0.10410827 0.02478127 -0.01110906
v 0.10632594 0.02492798 -0.01164730
v 0.10944231 0.02487015 -0.01234513
v 0.11459865 0.02453394 -0.01339434
v 0.11671723 0.02467665 -0.01397971
v 0.11940305 0.02427557 -0.01443115
v 0.10875548 0.02451627 -0.01199456
v 0.10776794 0.02463304 -0.01182424
f 1 2 3
f 1 3 4
f 1 4 5
f 1 5 21
f 1 21 6
f 1 6 7
f 1 7 2
f 2 8 9
f 2 9 10
f 2 10 3
f 2 7 11
f 2 11 8
f 3 10 12
f 3 12 13
f 3 13 14
f 3 14 15
f 3 15 4
f 4 16 5
f 4 15 17
f 4 17 18
f 4 18 16
f 5 19 20
f 5 20 21
f 5 16 22
f 5 22 23
f 5 23 19
f 6 21 24
f 6 24 25
f 6 25 7
f 7 25 26
f 7 26 27
f 7 27 28
f 7 28 33
f 7 33 11
f 8 29 30
f 8 30 31
f 8 31 13
f 8 13 32
f 8 32 9
f 8 11 29
f 9 32 10
f 10 32 13
f 10 13 12
f 11 33 34
f 11 34 35
f 11 35 36
f 11 36 37
f 11 37 29
f 13 31 38
f 13 38 14
f 14 38 15
f 15 38 17
f 16 18 39
f 16 39 40
f 16 40 22
f 17 38 31
f 17 31 30
f 17 30 41
f 17 41 39
f 17 39 18
f 19 42 43
f 19 43 20
f 19 23 44
f 19 44 42
f 20 43 45
f 20 45 21
f 21 46 24
f 21 45 47
f 21 47 46
f 22 40 48
f 22 48 23
f 23 48 49
f 23 49 44
f 24 50 25
f 24 46 51
f 24 51 52
f 24 52 50
f 25 50 26
f 26 50 53
f 26 53 27
f 27 53 50
f 27 50 28
f 28 54 33
f 28 50 54
f 29 37 55
f 29 55 56
f 29 56 39
f 29 39 41
f 29 41 30
f 33 54 57
f 33 57 47
f 33 47 58
f 33 58 34
f 34 58 59
f 34 59 35
f 35 59 60
f 35 60 61
f 35 61 36
f 36 62 37
f 36 61 62
f 37 62 48
f 37 48 55
f 39 56 40
f 40 56 48
f 42 60 63
f 42 63 43
f 42 44 62
f 42 62 60
f 43 63 45
f 44 49 62
f 45 63 47
f 46 47 57
f 46 57 51
f 47 63 64
f 47 64 58
f 48 56 55
f 48 62 49
f 50 52 54
f 51 54 52
f 51 57 54
f 58 64 59
f 59 64 63
f 59 63 60
f 60 62 61

