# https://github.com/mikedh/trimesh

o upper_grip_carrier_069.obj
v 0.11544446 -0.00611836 -0.03038958
v 0.11587795 -0.00611836 -0.03038958
v 0.11544446 -0.00611836 -0.03008571
v 0.11544446 0.00574209 -0.03038958
v 0.11587795 -0.00611836 -0.03013908
v 0.11587795 0.00424909 -0.03038958
v 0.11587239 -0.00611836 -0.03008571
v 0.11544446 0.00574209 -0.03008571
v 0.11587303 0.00574209 -0.03038958
v 0.11587795 -0.00611488 -0.03008571
v 0.11587311 0.00574209 -0.03008571
v 0.11587795 0.00424909 -0.03008571
f 1 2 5
f 1 5 7
f 1 7 3
f 1 3 8
f 1 8 4
f 1 4 9
f 1 9 6
f 1 6 2
f 2 6 12
f 2 12 10
f 2 10 5
f 3 7 10
f 3 10 12
f 3 12 11
f 3 11 8
f 4 8 11
f 4 11 9
f 5 10 7
f 6 9 11
f 6 11 12

