# https://github.com/mikedh/trimesh

o upper_bill_retention_shell_062.obj
v 0.14126656 0.01161127 -0.01805711
v 0.14011615 0.01161127 -0.01772463
v 0.13999749 0.00935655 -0.01758802
v 0.14301228 0.00900738 -0.01844445
v 0.14261808 0.01150424 -0.01844445
v 0.13484076 0.01161127 -0.01844445
v 0.13424745 0.01161127 -0.01608256
v 0.13999749 0.00736678 -0.01753700
v 0.13424745 0.00993208 -0.01600850
v 0.14319932 0.00676845 -0.01844445
v 0.13537976 -0.00631418 -0.01844445
v 0.12276348 -0.00631418 -0.01505606
v 0.12438451 0.01161127 -0.01561019
v 0.12473647 0.01161127 -0.01349354
v 0.12850144 0.01098837 -0.01445640
v 0.12850144 0.00950745 -0.01440538
v 0.13424745 0.00733520 -0.01594485
v 0.13999749 0.00618240 -0.01751999
v 0.14327173 0.00490853 -0.01844445
v 0.14328983 -0.00401209 -0.01844445
v 0.14316312 -0.00590008 -0.01842195
v 0.13858763 -0.00631418 -0.01713101
v 0.12719014 -0.00631418 -0.01400871
v 0.12276348 -0.00581235 -0.01285273
v 0.12276348 0.01160776 -0.01516908
v 0.12320997 0.01131474 -0.01308261
v 0.12276348 0.00985838 -0.01291692
v 0.12276348 0.00844765 -0.01288510
v 0.12850144 0.00768788 -0.01436807
v 0.13424745 0.00584726 -0.01592675
v 0.12850144 0.00609818 -0.01434832
v 0.13999749 0.00495239 -0.01750902
v 0.14330189 0.00286086 -0.01844445
v 0.13999749 0.00381363 -0.01750353
v 0.14330592 -0.00228201 -0.01844445
v 0.13999749 -0.00388751 -0.01750353
v 0.13999749 -0.00581060 -0.01751615
v 0.13424745 -0.00598957 -0.01592785
v 0.12850144 -0.00577901 -0.01434612
v 0.12276348 -0.00465253 -0.01284560
v 0.12276348 0.00701410 -0.01286371
v 0.12850144 0.00481378 -0.01433954
v 0.13424745 0.00410315 -0.01591632
v 0.12276348 0.00551914 -0.01284999
v 0.14330994 0.00110270 -0.01844445
v 0.13999749 0.00200108 -0.01749969
v 0.13424745 0.00237307 -0.01591248
v 0.14330994 -0.00093268 -0.01844445
v 0.13999749 -0.00210654 -0.01749969
v 0.13424745 -0.00365063 -0.01591413
v 0.13424745 -0.00482449 -0.01591907
v 0.12850144 -0.00425949 -0.01433735
v 0.12276348 -0.00350324 -0.01284231
v 0.12276348 0.00413999 -0.01284396
v 0.12850144 0.00312230 -0.01433460
v 0.13424745 0.00100620 -0.01591139
v 0.12850144 0.00139924 -0.01433241
v 0.13424745 -0.00094672 -0.01591139
v 0.13424745 -0.00241711 -0.01591248
v 0.12850144 -0.00273120 -0.01433405
v 0.12276348 -0.00145908 -0.01284012
v 0.12276348 0.00256783 -0.01284066
v 0.12276348 0.00081319 -0.01283957
v 0.12850144 -0.00116079 -0.01433241
f 1 2 3
f 1 3 4
f 1 4 5
f 1 5 6
f 1 6 13
f 1 13 14
f 1 14 7
f 1 7 2
f 2 7 3
f 3 8 4
f 3 7 9
f 3 9 8
f 4 8 10
f 4 10 19
f 4 19 33
f 4 33 45
f 4 45 48
f 4 48 35
f 4 35 20
f 4 20 11
f 4 11 6
f 4 6 5
f 6 11 12
f 6 12 13
f 7 14 15
f 7 15 9
f 8 9 16
f 8 16 17
f 8 17 18
f 8 18 10
f 9 15 16
f 10 18 19
f 11 20 21
f 11 21 22
f 11 22 23
f 11 23 12
f 12 23 24
f 12 24 40
f 12 40 53
f 12 53 61
f 12 61 63
f 12 63 62
f 12 62 54
f 12 54 44
f 12 44 41
f 12 41 28
f 12 28 27
f 12 27 25
f 12 25 13
f 13 25 14
f 14 25 26
f 14 26 15
f 15 26 16
f 16 26 27
f 16 27 28
f 16 28 29
f 16 29 17
f 17 30 18
f 17 29 31
f 17 31 30
f 18 30 32
f 18 32 19
f 19 32 34
f 19 34 33
f 20 35 36
f 20 36 37
f 20 37 21
f 21 37 22
f 22 37 38
f 22 38 23
f 23 38 39
f 23 39 24
f 24 39 40
f 25 27 26
f 28 41 29
f 29 41 31
f 30 31 42
f 30 42 43
f 30 43 32
f 31 41 44
f 31 44 42
f 32 43 34
f 33 34 46
f 33 46 45
f 34 43 47
f 34 47 46
f 35 48 49
f 35 49 36
f 36 49 50
f 36 50 51
f 36 51 37
f 37 51 38
f 38 51 39
f 39 52 40
f 39 51 52
f 40 52 53
f 42 44 54
f 42 54 55
f 42 55 43
f 43 55 47
f 45 46 49
f 45 49 48
f 46 47 56
f 46 56 58
f 46 58 49
f 47 55 57
f 47 57 56
f 49 58 59
f 49 59 50
f 50 59 60
f 50 60 52
f 50 52 51
f 52 60 53
f 53 60 61
f 54 62 55
f 55 62 57
f 56 57 64
f 56 64 58
f 57 62 63
f 57 63 64
f 58 64 59
f 59 64 60
f 60 64 61
f 61 64 63

