# https://github.com/mikedh/trimesh

o wing_access_cover_left_182.obj
v -0.02503238 0.12999706 0.32017258
v -0.02500757 0.12712334 0.32936501
v -0.02468509 0.13091810 0.32516195
v -0.02405251 0.13213802 0.32081527
v -0.02057337 0.13227453 0.32037591
v -0.00800875 0.13230650 0.32030908
v 0.00664585 0.12977835 0.32017258
v 0.00580552 0.12712232 0.32826448
v -0.01990358 0.12734459 0.33434726
v -0.02325250 0.12744253 0.33413540
v -0.02414244 0.12851478 0.33172248
v -0.02454245 0.12973318 0.32861852
v -0.01259489 0.12712232 0.33469846
v -0.02315637 0.13051315 0.32643595
v -0.02109431 0.13118553 0.32436285
v -0.02404631 0.13161382 0.32282012
v -0.02078112 0.13176859 0.32232957
v -0.01844309 0.13196904 0.32162716
v -0.01632521 0.13229381 0.32037591
v -0.01101346 0.13213802 0.32098163
v -0.00514977 0.13213701 0.32091196
v -0.00180706 0.13212178 0.32090059
v 0.00664585 0.13195940 0.32127596
v -0.01371120 0.13220145 0.32075413
v 0.00664585 0.12748617 0.33346285
v -0.02068500 0.12828744 0.33224999
v -0.01519340 0.12729283 0.33438849
v -0.01764617 0.12741665 0.33416242
v -0.01551589 0.12818443 0.33243057
v -0.01749423 0.12855893 0.33158313
v -0.02032220 0.12934092 0.32968066
v -0.01710042 0.12985498 0.32830713
v -0.01881209 0.13029494 0.32709712
v -0.02084004 0.13034315 0.32694782
v -0.01049252 0.12742933 0.33399748
v -0.01558411 0.13078362 0.32563970
v -0.01847099 0.13123221 0.32421782
v -0.01612055 0.13166203 0.32275755
v -0.01378562 0.13168233 0.32269784
v -0.00824751 0.13176098 0.32234948
v -0.00329236 0.13175641 0.32226843
v 0.00663964 0.13111144 0.32415810
v 0.00664585 0.13039237 0.32632646
v -0.00156519 0.13145346 0.32327938
v 0.00664585 0.12855335 0.33106699
v -0.00781339 0.12778100 0.33317706
v -0.01297010 0.12784342 0.33315288
v -0.00913435 0.12861069 0.33131440
v -0.01170805 0.12877358 0.33097599
v -0.01455773 0.12912119 0.33018543
v -0.01506317 0.12994835 0.32804124
v -0.00876845 0.13063595 0.32598948
v -0.01325227 0.13087039 0.32534110
v -0.01147549 0.13132406 0.32389505
v -0.00363965 0.13104902 0.32462590
v 0.00664585 0.12958907 0.32850477
v -0.00485519 0.13053700 0.32619991
v -0.00594668 0.12986106 0.32810096
v -0.00667848 0.13130427 0.32386662
v -0.00761184 0.12924755 0.32974038
v -0.00654205 0.12860257 0.33127316
v -0.01216698 0.12991485 0.32808816
v -0.00350942 0.12964336 0.32861568
f 1 2 3
f 1 3 4
f 1 4 5
f 1 5 6
f 1 6 7
f 1 7 8
f 1 8 2
f 2 9 10
f 2 10 11
f 2 11 12
f 2 12 3
f 2 8 13
f 2 13 9
f 3 12 14
f 3 14 15
f 3 15 16
f 3 16 4
f 4 16 17
f 4 17 18
f 4 18 5
f 5 18 19
f 5 19 6
f 6 20 21
f 6 21 22
f 6 22 23
f 6 23 7
f 6 19 24
f 6 24 20
f 7 23 43
f 7 43 56
f 7 56 45
f 7 45 25
f 7 25 8
f 8 25 13
f 9 26 10
f 9 13 27
f 9 27 28
f 9 28 29
f 9 29 26
f 10 26 11
f 11 26 30
f 11 30 31
f 11 31 12
f 12 31 32
f 12 32 33
f 12 33 34
f 12 34 14
f 13 25 35
f 13 35 27
f 14 34 33
f 14 33 36
f 14 36 15
f 15 17 16
f 15 36 37
f 15 37 38
f 15 38 17
f 17 38 18
f 18 38 39
f 18 39 24
f 18 24 19
f 20 40 21
f 20 24 39
f 20 39 40
f 21 41 22
f 21 40 41
f 22 41 23
f 23 42 43
f 23 41 44
f 23 44 42
f 25 45 46
f 25 46 35
f 26 29 30
f 27 35 47
f 27 47 28
f 28 47 29
f 29 47 48
f 29 48 49
f 29 49 30
f 30 49 50
f 30 50 31
f 31 50 51
f 31 51 32
f 32 51 33
f 33 51 52
f 33 52 36
f 35 46 47
f 36 53 54
f 36 54 37
f 36 52 53
f 37 39 38
f 37 54 39
f 39 54 40
f 40 54 44
f 40 44 41
f 42 44 55
f 42 55 43
f 43 55 57
f 43 57 58
f 43 58 56
f 44 54 59
f 44 59 55
f 45 56 60
f 45 60 61
f 45 61 46
f 46 61 48
f 46 48 47
f 48 61 60
f 48 60 49
f 49 60 50
f 50 60 62
f 50 62 51
f 51 62 52
f 52 62 57
f 52 57 55
f 52 55 53
f 53 55 54
f 54 55 59
f 56 58 63
f 56 63 60
f 57 62 58
f 58 62 60
f 58 60 63

