# https://github.com/mikedh/trimesh

o wing_access_cover_left_060.obj
v 0.02773941 0.12581346 0.28014998
v 0.02294087 0.12716900 0.28022723
v 0.02513267 0.12658861 0.28017894
v 0.02623130 0.12627326 0.28016325
v 0.02812280 0.12776101 0.27981682
v 0.02814585 0.12831754 0.29214713
v 0.02194840 0.13000520 0.29214713
v 0.02194840 0.12765396 0.28019947
v 0.02403707 0.12688719 0.28020067
v 0.02692226 0.12857163 0.27986993
v 0.02814585 0.12860258 0.28129187
v 0.02352749 0.12949575 0.27993028
v 0.02465949 0.12920426 0.27990373
v 0.02579087 0.12889729 0.27988442
v 0.02814585 0.13052692 0.29001543
v 0.02776731 0.13094609 0.29203488
v 0.02606265 0.13144910 0.29209040
v 0.02375074 0.13205722 0.29209402
v 0.02227356 0.13240030 0.29207712
v 0.02195265 0.13092287 0.28386778
v 0.02229601 0.12979949 0.27999185
v 0.02605598 0.12921458 0.28128704
v 0.02719282 0.12888633 0.28127497
v 0.02778733 0.12908237 0.28265587
v 0.02789592 0.12934549 0.28380501
v 0.02798691 0.12960280 0.28498795
v 0.02806093 0.12983302 0.28614433
v 0.02814100 0.13012773 0.28774612
v 0.02814585 0.13033087 0.28885905
v 0.02229662 0.13015933 0.28128342
v 0.02378228 0.12982399 0.28132808
v 0.02491974 0.12952799 0.28130394
v 0.02771817 0.13080486 0.29095333
v 0.02715157 0.13068943 0.28920065
v 0.02613059 0.13123822 0.29075899
v 0.02490578 0.13176316 0.29209161
v 0.02497069 0.13155486 0.29076503
v 0.02381079 0.13185280 0.29077589
v 0.02229965 0.13219781 0.29071795
v 0.02216316 0.13171995 0.28776302
v 0.02208429 0.13144716 0.28629280
v 0.02201695 0.13121114 0.28512917
v 0.02240642 0.13049209 0.28259793
v 0.02306523 0.13068169 0.28391123
v 0.02521881 0.12991234 0.28302282
v 0.02636172 0.12959377 0.28300954
v 0.02662258 0.12993104 0.28466204
v 0.02682581 0.13020963 0.28617692
v 0.02699566 0.13045598 0.28766766
v 0.02400553 0.13011806 0.28260879
v 0.02599410 0.13102154 0.28920428
v 0.02487302 0.13139364 0.28960019
v 0.02371495 0.13169029 0.28961227
v 0.02237002 0.13193018 0.28917651
v 0.02360818 0.13151359 0.28845951
v 0.02345470 0.13126595 0.28695669
v 0.02328119 0.13099768 0.28547681
v 0.02421057 0.13039600 0.28388830
v 0.02547542 0.13025413 0.28467290
v 0.02567379 0.13053594 0.28618658
v 0.02584122 0.13078616 0.28767491
v 0.02476443 0.13121823 0.28844502
v 0.02460731 0.13097318 0.28693859
v 0.02443139 0.13070813 0.28545629
f 1 2 3
f 1 3 4
f 1 4 5
f 1 5 6
f 1 6 7
f 1 7 2
f 2 8 9
f 2 9 3
f 2 7 8
f 3 9 8
f 3 8 4
f 4 8 5
f 5 10 11
f 5 11 6
f 5 8 12
f 5 12 13
f 5 13 14
f 5 14 10
f 6 15 16
f 6 16 17
f 6 17 18
f 6 18 7
f 6 11 29
f 6 29 15
f 7 18 19
f 7 19 20
f 7 20 8
f 8 20 21
f 8 21 12
f 10 14 22
f 10 22 23
f 10 23 11
f 11 23 24
f 11 24 25
f 11 25 26
f 11 26 27
f 11 27 28
f 11 28 29
f 12 21 30
f 12 30 31
f 12 31 13
f 13 31 32
f 13 32 14
f 14 32 22
f 15 33 16
f 15 29 34
f 15 34 33
f 16 33 35
f 16 35 17
f 17 36 18
f 17 35 37
f 17 37 36
f 18 36 38
f 18 38 19
f 19 39 40
f 19 40 41
f 19 41 42
f 19 42 20
f 19 38 39
f 20 43 30
f 20 30 21
f 20 42 44
f 20 44 43
f 22 32 45
f 22 45 46
f 22 46 23
f 23 46 24
f 24 46 25
f 25 46 47
f 25 47 26
f 26 47 48
f 26 48 27
f 27 48 49
f 27 49 28
f 28 49 29
f 29 49 34
f 30 43 31
f 31 43 50
f 31 50 32
f 32 50 45
f 33 34 35
f 34 49 51
f 34 51 35
f 35 51 52
f 35 52 37
f 36 37 38
f 37 52 38
f 38 52 53
f 38 53 39
f 39 53 54
f 39 54 40
f 40 54 55
f 40 55 56
f 40 56 41
f 41 56 57
f 41 57 42
f 42 57 44
f 43 44 50
f 44 58 50
f 44 57 58
f 45 50 58
f 45 58 59
f 45 59 46
f 46 59 47
f 47 59 60
f 47 60 48
f 48 60 61
f 48 61 49
f 49 61 51
f 51 61 62
f 51 62 52
f 52 62 53
f 53 62 55
f 53 55 54
f 55 62 63
f 55 63 56
f 56 63 64
f 56 64 57
f 57 64 58
f 58 64 59
f 59 64 60
f 60 63 61
f 60 64 63
f 61 63 62

