# https://github.com/mikedh/trimesh

o wing_access_cover_left_155.obj
v -0.01442032 0.13171362 0.28382058
v -0.01488490 0.13209828 0.28543463
v -0.01346243 0.13220993 0.28570037
v -0.01269134 0.13186317 0.28423256
v -0.01268894 0.12985921 0.28392670
v -0.01435806 0.12936779 0.28430658
v -0.01661867 0.12938532 0.28467843
v -0.01887689 0.12939958 0.28505742
v -0.01668572 0.13173318 0.28420135
v -0.01837879 0.13174541 0.28449028
v -0.01658993 0.13210684 0.28571285
v -0.01314154 0.13264552 0.28751595
v -0.01534708 0.13251594 0.28726893
v -0.01308886 0.13307500 0.28964899
v -0.01303378 0.13351710 0.29227070
v -0.01270091 0.13120347 0.29292969
v -0.03715337 0.13035673 0.29292969
v -0.03715337 0.12939835 0.28818832
v -0.02057474 0.12940854 0.28534456
v -0.02007904 0.13175559 0.28478277
v -0.01886492 0.13211580 0.28608916
v -0.01764361 0.13247845 0.28744461
v -0.02161405 0.13264144 0.28884285
v -0.01524171 0.13294460 0.28927089
v -0.01517466 0.13323554 0.29087691
v -0.01629060 0.13341402 0.29217617
v -0.01446103 0.13352974 0.29259351
v -0.02033048 0.13340872 0.29292969
v -0.03679895 0.13274657 0.29260064
v -0.03682529 0.13240185 0.29074226
v -0.03681571 0.13191492 0.28841928
v -0.03478020 0.13177149 0.28736346
v -0.02233965 0.13176700 0.28517691
v -0.02085971 0.13209909 0.28633082
v -0.02165716 0.13238962 0.28770588
v -0.01993056 0.13247845 0.28781290
v -0.01755261 0.13289163 0.28939573
v -0.02307483 0.13246093 0.28827481
v -0.02504807 0.13262555 0.28939752
v -0.02243544 0.13287289 0.29015817
v -0.01984196 0.13292423 0.28996377
v -0.02035682 0.13327344 0.29205846
v -0.01860629 0.13337123 0.29234204
v -0.02456674 0.13319683 0.29247580
v -0.03498136 0.13255302 0.29109895
v -0.02809415 0.13294990 0.29175349
v -0.03011050 0.13288715 0.29184891
v -0.03269201 0.13274494 0.29162062
v -0.03381753 0.13243119 0.29022505
v -0.03535493 0.13231139 0.28996555
v -0.03535254 0.13215451 0.28922719
v -0.03150184 0.13230487 0.28914694
v -0.02508878 0.13229468 0.28788869
v -0.03251720 0.13177800 0.28696842
v -0.03081934 0.13178086 0.28667058
v -0.02912388 0.13178167 0.28637185
v -0.02686087 0.13178004 0.28597235
v -0.02460026 0.13177515 0.28557374
v -0.02313230 0.13210195 0.28671606
v -0.02913825 0.13244015 0.28931726
v -0.03192331 0.13249923 0.29015103
v -0.02699737 0.13262800 0.28980682
v -0.02443982 0.13290060 0.29068786
v -0.02243544 0.13318012 0.29191400
f 1 2 3
f 1 3 4
f 1 4 5
f 1 5 6
f 1 6 7
f 1 7 8
f 1 8 9
f 1 9 2
f 2 9 10
f 2 10 11
f 2 11 3
f 3 12 4
f 3 11 13
f 3 13 12
f 4 12 14
f 4 14 15
f 4 15 16
f 4 16 5
f 5 16 6
f 6 16 17
f 6 17 18
f 6 18 7
f 7 18 8
f 8 18 19
f 8 19 9
f 9 19 18
f 9 18 10
f 10 20 11
f 10 18 20
f 11 20 21
f 11 21 22
f 11 22 13
f 12 13 22
f 12 22 23
f 12 23 24
f 12 24 14
f 14 24 25
f 14 25 15
f 15 25 26
f 15 26 27
f 15 27 16
f 16 27 28
f 16 28 17
f 17 29 30
f 17 30 18
f 17 28 29
f 18 30 31
f 18 31 32
f 18 32 33
f 18 33 20
f 20 33 21
f 21 33 34
f 21 34 22
f 22 34 35
f 22 35 36
f 22 36 23
f 23 37 24
f 23 36 35
f 23 35 38
f 23 38 39
f 23 39 40
f 23 40 37
f 24 37 41
f 24 41 25
f 25 41 42
f 25 42 26
f 26 42 43
f 26 43 28
f 26 28 27
f 28 43 42
f 28 42 44
f 28 44 29
f 29 45 30
f 29 44 46
f 29 46 47
f 29 47 48
f 29 48 45
f 30 45 49
f 30 49 50
f 30 50 31
f 31 50 51
f 31 51 52
f 31 52 32
f 32 52 53
f 32 53 54
f 32 54 55
f 32 55 56
f 32 56 57
f 32 57 58
f 32 58 33
f 33 58 34
f 34 58 59
f 34 59 35
f 35 59 53
f 35 53 38
f 37 40 41
f 38 53 39
f 39 53 60
f 39 60 61
f 39 61 62
f 39 62 63
f 39 63 40
f 40 63 41
f 41 63 42
f 42 63 64
f 42 64 44
f 44 64 46
f 45 48 61
f 45 61 49
f 46 64 63
f 46 63 48
f 46 48 47
f 48 63 61
f 49 61 50
f 50 61 52
f 50 52 51
f 52 61 60
f 52 60 53
f 53 56 55
f 53 55 54
f 53 59 56
f 56 59 57
f 57 59 58
f 61 63 62

