# https://github.com/mikedh/trimesh

o wing_access_cover_left_094.obj
v 0.02194734 0.12740829 0.28025689
v 0.01648235 0.12845632 0.28050942
v 0.02075322 0.12768042 0.28029791
v 0.01658560 0.13079771 0.27997744
v 0.02012996 0.13026417 0.28004410
v 0.02171247 0.13001466 0.28030304
v 0.02192540 0.13093467 0.28389103
v 0.02194734 0.13123657 0.28518060
v 0.02194734 0.13012780 0.29307187
v 0.01648235 0.13110378 0.29307187
v 0.01648235 0.13210119 0.28488449
v 0.01748547 0.12830447 0.28045045
v 0.01966130 0.12790908 0.28034278
v 0.01857258 0.12811750 0.28039405
v 0.01665997 0.13104483 0.28089911
v 0.01786638 0.13067564 0.28015177
v 0.01899844 0.13048092 0.28009409
v 0.01923277 0.13082510 0.28147852
v 0.02036963 0.13060418 0.28143109
v 0.02176223 0.13039755 0.28171695
v 0.02183445 0.13062383 0.28261299
v 0.02088323 0.13136698 0.28477296
v 0.02071364 0.13110735 0.28356671
v 0.02106727 0.13166114 0.28627533
v 0.02194734 0.13148667 0.28634583
v 0.02174618 0.13243763 0.29151182
v 0.02146638 0.13269071 0.29297317
v 0.02024016 0.13294080 0.29299368
v 0.01909901 0.13314743 0.29300137
v 0.01677713 0.13349102 0.29299624
v 0.01669100 0.13334513 0.29180281
v 0.01654280 0.13273060 0.28794434
v 0.01648449 0.13243584 0.28640608
v 0.01744106 0.13198686 0.28490884
v 0.01688252 0.13175463 0.28366029
v 0.01678622 0.13143486 0.28239251
v 0.01809643 0.13102458 0.28153236
v 0.01836232 0.13143724 0.28322829
v 0.01943820 0.13113296 0.28274887
v 0.02057989 0.13090906 0.28270400
v 0.01973566 0.13159623 0.28481270
v 0.01991542 0.13189337 0.28631122
v 0.01956981 0.13133423 0.28360901
v 0.02006682 0.13215597 0.28778539
v 0.02158461 0.13185467 0.28781743
v 0.02165523 0.13210953 0.28931211
v 0.02170338 0.13227031 0.29033634
v 0.02038301 0.13273239 0.29161053
v 0.01922153 0.13294914 0.29164257
v 0.01813709 0.13329809 0.29294881
v 0.01806059 0.13314207 0.29167975
v 0.01665194 0.13317959 0.29064014
v 0.01798141 0.13298368 0.29052862
v 0.01660754 0.13299142 0.28945184
v 0.01775831 0.13255613 0.28786871
v 0.01761333 0.13228936 0.28640224
v 0.01858863 0.13180346 0.28485757
v 0.01876464 0.13210298 0.28635352
v 0.01891284 0.13236796 0.28782384
v 0.01904819 0.13261746 0.28933775
v 0.02020539 0.13240310 0.28930186
v 0.02029955 0.13257638 0.29045555
v 0.01914075 0.13279194 0.29049016
v 0.01789046 0.13280801 0.28937877
f 1 2 3
f 1 3 4
f 1 4 5
f 1 5 6
f 1 6 7
f 1 7 8
f 1 8 25
f 1 25 9
f 1 9 10
f 1 10 2
f 2 11 4
f 2 4 12
f 2 12 3
f 2 10 11
f 3 12 13
f 3 13 4
f 4 13 14
f 4 14 12
f 4 11 15
f 4 15 16
f 4 16 17
f 4 17 5
f 5 17 18
f 5 18 19
f 5 19 6
f 6 19 20
f 6 20 21
f 6 21 7
f 7 22 8
f 7 21 23
f 7 23 22
f 8 22 24
f 8 24 25
f 9 25 26
f 9 26 27
f 9 27 28
f 9 28 29
f 9 29 10
f 10 29 30
f 10 30 31
f 10 31 32
f 10 32 33
f 10 33 11
f 11 34 35
f 11 35 36
f 11 36 15
f 11 33 34
f 12 14 13
f 15 37 16
f 15 36 37
f 16 37 17
f 17 37 18
f 18 37 38
f 18 38 39
f 18 39 19
f 19 39 40
f 19 40 20
f 20 40 21
f 21 40 23
f 22 23 41
f 22 41 42
f 22 42 24
f 23 40 43
f 23 43 41
f 24 42 44
f 24 44 45
f 24 45 25
f 25 45 46
f 25 46 47
f 25 47 26
f 26 48 27
f 26 47 48
f 27 48 28
f 28 48 49
f 28 49 29
f 29 50 30
f 29 49 50
f 30 50 51
f 30 51 31
f 31 52 32
f 31 51 53
f 31 53 52
f 32 52 54
f 32 54 55
f 32 55 56
f 32 56 33
f 33 56 34
f 34 57 38
f 34 38 35
f 34 56 57
f 35 38 36
f 36 38 37
f 38 57 43
f 38 43 39
f 39 43 40
f 41 43 57
f 41 57 58
f 41 58 42
f 42 58 59
f 42 59 44
f 44 59 60
f 44 60 61
f 44 61 45
f 45 61 46
f 46 61 62
f 46 62 47
f 47 62 48
f 48 62 49
f 49 51 50
f 49 62 63
f 49 63 51
f 51 63 53
f 52 53 64
f 52 64 54
f 53 63 60
f 53 60 64
f 54 64 55
f 55 64 59
f 55 59 58
f 55 58 56
f 56 58 57
f 59 64 60
f 60 63 61
f 61 63 62

