# https://github.com/mikedh/trimesh

o wing_access_cover_right_023.obj
v 0.08161657 -0.10372237 0.30982162
v 0.08024795 -0.10191544 0.31021038
v 0.07931515 -0.10550436 0.31019688
v 0.08057235 -0.10453706 0.30999035
v 0.08056742 -0.10460772 0.30860538
v 0.08160770 -0.10379600 0.30826656
v 0.08158995 -0.10384588 0.30671016
v 0.08155741 -0.10387557 0.30514971
v 0.07194941 -0.10798168 0.31021038
v 0.08150417 -0.10388923 0.30358791
v 0.08003496 -0.10200630 0.30363920
v 0.07995706 -0.10200926 0.30210845
v 0.07985156 -0.10200333 0.30057094
v 0.07971351 -0.10199026 0.29902669
v 0.07958828 -0.10197779 0.29786445
v 0.07944629 -0.10196592 0.29675350
v 0.07729376 -0.10705595 0.31015638
v 0.07823149 -0.10635645 0.30993770
v 0.07943052 -0.10548238 0.30894285
v 0.07941869 -0.10554592 0.30738915
v 0.08055264 -0.10466413 0.30705033
v 0.08052404 -0.10469917 0.30549258
v 0.08049150 -0.10471401 0.30432224
v 0.07618151 -0.10798168 0.30840695
v 0.07610460 -0.10796624 0.30983511
v 0.07154316 -0.10798168 0.29642144
v 0.08044713 -0.10471936 0.30315190
v 0.08142824 -0.10388923 0.30202070
v 0.08132372 -0.10387913 0.30044810
v 0.08118765 -0.10386251 0.29886605
v 0.08106242 -0.10384766 0.29767682
v 0.08093522 -0.10383460 0.29665091
v 0.07699598 -0.10735403 0.30883621
v 0.07822656 -0.10643187 0.30850279
v 0.07821768 -0.10647878 0.30733650
v 0.07820092 -0.10651025 0.30617021
v 0.07939502 -0.10558630 0.30583274
v 0.07935558 -0.10560768 0.30427364
v 0.07624659 -0.10798168 0.30685730
v 0.07698513 -0.10741876 0.30728251
v 0.07879748 -0.10553939 0.29661312
v 0.07566186 -0.10798049 0.29677510
v 0.07580977 -0.10798168 0.29786985
v 0.07929543 -0.10561361 0.30271319
v 0.08036627 -0.10471639 0.30158470
v 0.08025781 -0.10470332 0.30001209
v 0.08011681 -0.10468313 0.29843274
v 0.07994622 -0.10465166 0.29683450
v 0.07697034 -0.10745201 0.30611622
v 0.07816740 -0.10653637 0.30461246
v 0.07811513 -0.10654469 0.30305336
v 0.07657789 -0.10773288 0.30356901
v 0.07660846 -0.10772694 0.30512676
v 0.07651479 -0.10773050 0.30200856
v 0.07895327 -0.10556433 0.29799404
v 0.07768620 -0.10643187 0.29678860
v 0.07647239 -0.10739619 0.29703563
v 0.07780848 -0.10649481 0.29834365
v 0.07628800 -0.10770794 0.29887010
v 0.07641914 -0.10772219 0.30044270
v 0.07804118 -0.10653875 0.30148885
v 0.07921161 -0.10560589 0.30114599
v 0.07909822 -0.10558867 0.29957339
v 0.07793962 -0.10652153 0.29991895
f 1 2 3
f 1 3 4
f 1 4 5
f 1 5 6
f 1 6 7
f 1 7 8
f 1 8 2
f 2 9 3
f 2 8 10
f 2 10 11
f 2 11 12
f 2 12 13
f 2 13 14
f 2 14 15
f 2 15 16
f 2 16 9
f 3 17 18
f 3 18 19
f 3 19 4
f 3 9 17
f 4 19 5
f 5 19 20
f 5 20 21
f 5 21 6
f 6 21 7
f 7 21 22
f 7 22 8
f 8 22 23
f 8 23 10
f 9 24 25
f 9 25 17
f 9 16 26
f 9 26 43
f 9 43 39
f 9 39 24
f 10 23 27
f 10 27 28
f 10 28 11
f 11 28 12
f 12 28 29
f 12 29 13
f 13 29 30
f 13 30 14
f 14 30 31
f 14 31 15
f 15 31 32
f 15 32 16
f 16 32 26
f 17 25 33
f 17 33 18
f 18 33 34
f 18 34 19
f 19 34 20
f 20 34 35
f 20 35 36
f 20 36 37
f 20 37 21
f 21 37 22
f 22 37 38
f 22 38 23
f 23 38 27
f 24 33 25
f 24 39 40
f 24 40 33
f 26 32 41
f 26 41 42
f 26 42 43
f 27 44 45
f 27 45 28
f 27 38 44
f 28 45 29
f 29 45 46
f 29 46 30
f 30 47 31
f 30 46 47
f 31 47 48
f 31 48 32
f 32 48 41
f 33 40 34
f 34 40 35
f 35 40 49
f 35 49 36
f 36 49 50
f 36 50 37
f 37 50 38
f 38 50 51
f 38 51 44
f 39 52 53
f 39 53 49
f 39 49 40
f 39 43 54
f 39 54 52
f 41 48 55
f 41 55 56
f 41 56 42
f 42 56 57
f 42 57 43
f 43 58 59
f 43 59 60
f 43 60 54
f 43 57 58
f 44 51 61
f 44 61 62
f 44 62 45
f 45 62 46
f 46 62 63
f 46 63 47
f 47 55 48
f 47 63 55
f 49 53 50
f 50 53 52
f 50 52 51
f 51 54 61
f 51 52 54
f 54 60 61
f 55 63 58
f 55 58 56
f 56 58 57
f 58 63 64
f 58 64 59
f 59 64 60
f 60 64 61
f 61 64 62
f 62 64 63

