# https://github.com/mikedh/trimesh
v 0.03184530 -0.03065470 -0.00815470
v 0.03168592 -0.03081408 -0.00773917
v 0.03159128 -0.03090872 -0.00717609
v 0.03158579 -0.03091421 -0.00637500
v 0.03158579 -0.03091421 -0.00550000
v 0.03158579 -0.03091421 -0.00462500
v 0.03159128 -0.03090872 -0.00382391
v 0.03168592 -0.03081408 -0.00326083
v 0.03184530 -0.03065470 -0.00284530
v 0.03158579 -0.02362500 -0.00841421
v 0.03125685 -0.02362500 -0.00798052
v 0.03101544 -0.02362500 -0.00724807
v 0.03100000 -0.02362500 -0.00637500
v 0.03100000 -0.02362500 -0.00550000
v 0.03100000 -0.02362500 -0.00462500
v 0.03101544 -0.02362500 -0.00375193
v 0.03125685 -0.02362500 -0.00301948
v 0.03158579 -0.02362500 -0.00258579
v 0.03158579 -0.01575000 -0.00841421
v 0.03125685 -0.01575000 -0.00798052
v 0.03101544 -0.01575000 -0.00724807
v 0.03100000 -0.01575000 -0.00637500
v 0.03100000 -0.01575000 -0.00550000
v 0.03100000 -0.01575000 -0.00462500
v 0.03101544 -0.01575000 -0.00375193
v 0.03125685 -0.01575000 -0.00301948
v 0.03158579 -0.01575000 -0.00258579
v 0.03158579 -0.00787500 -0.00841421
v 0.03125685 -0.00787500 -0.00798052
v 0.03101544 -0.00787500 -0.00724807
v 0.03100000 -0.00787500 -0.00637500
v 0.03100000 -0.00787500 -0.00550000
v 0.03100000 -0.00787500 -0.00462500
v 0.03101544 -0.00787500 -0.00375193
v 0.03125685 -0.00787500 -0.00301948
v 0.03158579 -0.00787500 -0.00258579
v 0.03158579 0.00000000 -0.00841421
v 0.03125685 0.00000000 -0.00798052
v 0.03101544 0.00000000 -0.00724807
v 0.03100000 0.00000000 -0.00637500
v 0.03100000 0.00000000 -0.00550000
v 0.03100000 0.00000000 -0.00462500
v 0.03101544 0.00000000 -0.00375193
v 0.03125685 0.00000000 -0.00301948
v 0.03158579 0.00000000 -0.00258579
v 0.03158579 0.00787500 -0.00841421
v 0.03125685 0.00787500 -0.00798052
v 0.03101544 0.00787500 -0.00724807
v 0.03100000 0.00787500 -0.00637500
v 0.03100000 0.00787500 -0.00550000
v 0.03100000 0.00787500 -0.00462500
v 0.03101544 0.00787500 -0.00375193
v 0.03125685 0.00787500 -0.00301948
v 0.03158579 0.00787500 -0.00258579
v 0.03158579 0.01575000 -0.00841421
v 0.03125685 0.01575000 -0.00798052
v 0.03101544 0.01575000 -0.00724807
v 0.03100000 0.01575000 -0.00637500
v 0.03100000 0.01575000 -0.00550000
v 0.03100000 0.01575000 -0.00462500
v 0.03101544 0.01575000 -0.00375193
v 0.03125685 0.01575000 -0.00301948
v 0.03158579 0.01575000 -0.00258579
v 0.03158579 0.02362500 -0.00841421
v 0.03125685 0.02362500 -0.00798052
v 0.03101544 0.02362500 -0.00724807
v 0.03100000 0.02362500 -0.00637500
v 0.03100000 0.02362500 -0.00550000
v 0.03100000 0.02362500 -0.00462500
v 0.03101544 0.02362500 -0.00375193
v 0.03125685 0.02362500 -0.00301948
v 0.03158579 0.02362500 -0.00258579
v 0.03184530 0.03065470 -0.00815470
v 0.03168592 0.03081408 -0.00773917
v 0.03159128 0.03090872 -0.00717609
v 0.03158579 0.03091421 -0.00637500
v 0.03158579 0.03091421 -0.00550000
v 0.03158579 0.03091421 -0.00462500
v 0.03159128 0.03090872 -0.00382391
v 0.03168592 0.03081408 -0.00326083
v 0.03184530 0.03065470 -0.00284530
v 0.04615470 -0.03065470 -0.00815470
v 0.04631408 -0.03081408 -0.00773917
v 0.04640872 -0.03090872 -0.00717609
v 0.04641421 -0.03091421 -0.00637500
v 0.04641421 -0.03091421 -0.00550000
v 0.04641421 -0.03091421 -0.00462500
v 0.04640872 -0.03090872 -0.00382391
v 0.04631408 -0.03081408 -0.00326083
v 0.04615470 -0.03065470 -0.00284530
v 0.04641421 -0.02362500 -0.00841421
v 0.04674315 -0.02362500 -0.00798052
v 0.04698456 -0.02362500 -0.00724807
v 0.04700000 -0.02362500 -0.00637500
v 0.04700000 -0.02362500 -0.00550000
v 0.04700000 -0.02362500 -0.00462500
v 0.04698456 -0.02362500 -0.00375193
v 0.04674315 -0.02362500 -0.00301948
v 0.04641421 -0.02362500 -0.00258579
v 0.04641421 -0.01575000 -0.00841421
v 0.04674315 -0.01575000 -0.00798052
v 0.04698456 -0.01575000 -0.00724807
v 0.04700000 -0.01575000 -0.00637500
v 0.04700000 -0.01575000 -0.00550000
v 0.04700000 -0.01575000 -0.00462500
v 0.04698456 -0.01575000 -0.00375193
v 0.04674315 -0.01575000 -0.00301948
v 0.04641421 -0.01575000 -0.00258579
v 0.04641421 -0.00787500 -0.00841421
v 0.04674315 -0.00787500 -0.00798052
v 0.04698456 -0.00787500 -0.00724807
v 0.04700000 -0.00787500 -0.00637500
v 0.04700000 -0.00787500 -0.00550000
v 0.04700000 -0.00787500 -0.00462500
v 0.04698456 -0.00787500 -0.00375193
v 0.04674315 -0.00787500 -0.00301948
v 0.04641421 -0.00787500 -0.00258579
v 0.04641421 0.00000000 -0.00841421
v 0.04674315 0.00000000 -0.00798052
v 0.04698456 0.00000000 -0.00724807
v 0.04700000 0.00000000 -0.00637500
v 0.04700000 0.00000000 -0.00550000
v 0.04700000 0.00000000 -0.00462500
v 0.04698456 0.00000000 -0.00375193
v 0.04674315 0.00000000 -0.00301948
v 0.04641421 0.00000000 -0.00258579
v 0.04641421 0.00787500 -0.00841421
v 0.04674315 0.00787500 -0.00798052
v 0.04698456 0.00787500 -0.00724807
v 0.04700000 0.00787500 -0.00637500
v 0.04700000 0.00787500 -0.00550000
v 0.04700000 0.00787500 -0.00462500
v 0.04698456 0.00787500 -0.00375193
v 0.04674315 0.00787500 -0.00301948
v 0.04641421 0.00787500 -0.00258579
v 0.04641421 0.01575000 -0.00841421
v 0.04674315 0.01575000 -0.00798052
v 0.04698456 0.01575000 -0.00724807
v 0.04700000 0.01575000 -0.00637500
v 0.04700000 0.01575000 -0.00550000
v 0.04700000 0.01575000 -0.00462500
v 0.04698456 0.01575000 -0.00375193
v 0.04674315 0.01575000 -0.00301948
v 0.04641421 0.01575000 -0.00258579
v 0.04641421 0.02362500 -0.00841421
v 0.04674315 0.02362500 -0.00798052
v 0.04698456 0.02362500 -0.00724807
v 0.04700000 0.02362500 -0.00637500
v 0.04700000 0.02362500 -0.00550000
v 0.04700000 0.02362500 -0.00462500
v 0.04698456 0.02362500 -0.00375193
v 0.04674315 0.02362500 -0.00301948
v 0.04641421 0.02362500 -0.00258579
v 0.04615470 0.03065470 -0.00815470
v 0.04631408 0.03081408 -0.00773917
v 0.04640872 0.03090872 -0.00717609
v 0.04641421 0.03091421 -0.00637500
v 0.04641421 0.03091421 -0.00550000
v 0.04641421 0.03091421 -0.00462500
v 0.04640872 0.03090872 -0.00382391
v 0.04631408 0.03081408 -0.00326083
v 0.04615470 0.03065470 -0.00284530
v 0.03300000 -0.03091421 -0.00841421
v 0.03300000 -0.03124315 -0.00798052
v 0.03300000 -0.03148456 -0.00724807
v 0.03300000 -0.03150000 -0.00637500
v 0.03300000 -0.03150000 -0.00550000
v 0.03300000 -0.03150000 -0.00462500
v 0.03300000 -0.03148456 -0.00375193
v 0.03300000 -0.03124315 -0.00301948
v 0.03300000 -0.03091421 -0.00258579
v 0.03500000 -0.03091421 -0.00841421
v 0.03500000 -0.03124315 -0.00798052
v 0.03500000 -0.03148456 -0.00724807
v 0.03500000 -0.03150000 -0.00637500
v 0.03500000 -0.03150000 -0.00550000
v 0.03500000 -0.03150000 -0.00462500
v 0.03500000 -0.03148456 -0.00375193
v 0.03500000 -0.03124315 -0.00301948
v 0.03500000 -0.03091421 -0.00258579
v 0.03700000 -0.03091421 -0.00841421
v 0.03700000 -0.03124315 -0.00798052
v 0.03700000 -0.03148456 -0.00724807
v 0.03700000 -0.03150000 -0.00637500
v 0.03700000 -0.03150000 -0.00550000
v 0.03700000 -0.03150000 -0.00462500
v 0.03700000 -0.03148456 -0.00375193
v 0.03700000 -0.03124315 -0.00301948
v 0.03700000 -0.03091421 -0.00258579
v 0.03900000 -0.03091421 -0.00841421
v 0.03900000 -0.03124315 -0.00798052
v 0.03900000 -0.03148456 -0.00724807
v 0.03900000 -0.03150000 -0.00637500
v 0.03900000 -0.03150000 -0.00550000
v 0.03900000 -0.03150000 -0.00462500
v 0.03900000 -0.03148456 -0.00375193
v 0.03900000 -0.03124315 -0.00301948
v 0.03900000 -0.03091421 -0.00258579
v 0.04100000 -0.03091421 -0.00841421
v 0.04100000 -0.03124315 -0.00798052
v 0.04100000 -0.03148456 -0.00724807
v 0.04100000 -0.03150000 -0.00637500
v 0.04100000 -0.03150000 -0.00550000
v 0.04100000 -0.03150000 -0.00462500
v 0.04100000 -0.03148456 -0.00375193
v 0.04100000 -0.03124315 -0.00301948
v 0.04100000 -0.03091421 -0.00258579
v 0.04300000 -0.03091421 -0.00841421
v 0.04300000 -0.03124315 -0.00798052
v 0.04300000 -0.03148456 -0.00724807
v 0.04300000 -0.03150000 -0.00637500
v 0.04300000 -0.03150000 -0.00550000
v 0.04300000 -0.03150000 -0.00462500
v 0.04300000 -0.03148456 -0.00375193
v 0.04300000 -0.03124315 -0.00301948
v 0.04300000 -0.03091421 -0.00258579
v 0.04500000 -0.03091421 -0.00841421
v 0.04500000 -0.03124315 -0.00798052
v 0.04500000 -0.03148456 -0.00724807
v 0.04500000 -0.03150000 -0.00637500
v 0.04500000 -0.03150000 -0.00550000
v 0.04500000 -0.03150000 -0.00462500
v 0.04500000 -0.03148456 -0.00375193
v 0.04500000 -0.03124315 -0.00301948
v 0.04500000 -0.03091421 -0.00258579
v 0.03300000 0.03091421 -0.00841421
v 0.03300000 0.03124315 -0.00798052
v 0.03300000 0.03148456 -0.00724807
v 0.03300000 0.03150000 -0.00637500
v 0.03300000 0.03150000 -0.00550000
v 0.03300000 0.03150000 -0.00462500
v 0.03300000 0.03148456 -0.00375193
v 0.03300000 0.03124315 -0.00301948
v 0.03300000 0.03091421 -0.00258579
v 0.03500000 0.03091421 -0.00841421
v 0.03500000 0.03124315 -0.00798052
v 0.03500000 0.03148456 -0.00724807
v 0.03500000 0.03150000 -0.00637500
v 0.03500000 0.03150000 -0.00550000
v 0.03500000 0.03150000 -0.00462500
v 0.03500000 0.03148456 -0.00375193
v 0.03500000 0.03124315 -0.00301948
v 0.03500000 0.03091421 -0.00258579
v 0.03700000 0.03091421 -0.00841421
v 0.03700000 0.03124315 -0.00798052
v 0.03700000 0.03148456 -0.00724807
v 0.03700000 0.03150000 -0.00637500
v 0.03700000 0.03150000 -0.00550000
v 0.03700000 0.03150000 -0.00462500
v 0.03700000 0.03148456 -0.00375193
v 0.03700000 0.03124315 -0.00301948
v 0.03700000 0.03091421 -0.00258579
v 0.03900000 0.03091421 -0.00841421
v 0.03900000 0.03124315 -0.00798052
v 0.03900000 0.03148456 -0.00724807
v 0.03900000 0.03150000 -0.00637500
v 0.03900000 0.03150000 -0.00550000
v 0.03900000 0.03150000 -0.00462500
v 0.03900000 0.03148456 -0.00375193
v 0.03900000 0.03124315 -0.00301948
v 0.03900000 0.03091421 -0.00258579
v 0.04100000 0.03091421 -0.00841421
v 0.04100000 0.03124315 -0.00798052
v 0.04100000 0.03148456 -0.00724807
v 0.04100000 0.03150000 -0.00637500
v 0.04100000 0.03150000 -0.00550000
v 0.04100000 0.03150000 -0.00462500
v 0.04100000 0.03148456 -0.00375193
v 0.04100000 0.03124315 -0.00301948
v 0.04100000 0.03091421 -0.00258579
v 0.04300000 0.03091421 -0.00841421
v 0.04300000 0.03124315 -0.00798052
v 0.04300000 0.03148456 -0.00724807
v 0.04300000 0.03150000 -0.00637500
v 0.04300000 0.03150000 -0.00550000
v 0.04300000 0.03150000 -0.00462500
v 0.04300000 0.03148456 -0.00375193
v 0.04300000 0.03124315 -0.00301948
v 0.04300000 0.03091421 -0.00258579
v 0.04500000 0.03091421 -0.00841421
v 0.04500000 0.03124315 -0.00798052
v 0.04500000 0.03148456 -0.00724807
v 0.04500000 0.03150000 -0.00637500
v 0.04500000 0.03150000 -0.00550000
v 0.04500000 0.03150000 -0.00462500
v 0.04500000 0.03148456 -0.00375193
v 0.04500000 0.03124315 -0.00301948
v 0.04500000 0.03091421 -0.00258579
v 0.03300000 -0.02362500 -0.00900000
v 0.03300000 -0.01575000 -0.00900000
v 0.03300000 -0.00787500 -0.00900000
v 0.03300000 0.00000000 -0.00900000
v 0.03300000 0.00787500 -0.00900000
v 0.03300000 0.01575000 -0.00900000
v 0.03300000 0.02362500 -0.00900000
v 0.03500000 -0.02362500 -0.00900000
v 0.03500000 -0.01575000 -0.00900000
v 0.03500000 -0.00787500 -0.00900000
v 0.03500000 0.00000000 -0.00900000
v 0.03500000 0.00787500 -0.00900000
v 0.03500000 0.01575000 -0.00900000
v 0.03500000 0.02362500 -0.00900000
v 0.03700000 -0.02362500 -0.00900000
v 0.03700000 -0.01575000 -0.00900000
v 0.03700000 -0.00787500 -0.00900000
v 0.03700000 0.00000000 -0.00900000
v 0.03700000 0.00787500 -0.00900000
v 0.03700000 0.01575000 -0.00900000
v 0.03700000 0.02362500 -0.00900000
v 0.03900000 -0.02362500 -0.00900000
v 0.03900000 -0.01575000 -0.00900000
v 0.03900000 -0.00787500 -0.00900000
v 0.03900000 0.00000000 -0.00900000
v 0.03900000 0.00787500 -0.00900000
v 0.03900000 0.01575000 -0.00900000
v 0.03900000 0.02362500 -0.00900000
v 0.04100000 -0.02362500 -0.00900000
v 0.04100000 -0.01575000 -0.00900000
v 0.04100000 -0.00787500 -0.00900000
v 0.04100000 0.00000000 -0.00900000
v 0.04100000 0.00787500 -0.00900000
v 0.04100000 0.01575000 -0.00900000
v 0.04100000 0.02362500 -0.00900000
v 0.04300000 -0.02362500 -0.00900000
v 0.04300000 -0.01575000 -0.00900000
v 0.04300000 -0.00787500 -0.00900000
v 0.04300000 0.00000000 -0.00900000
v 0.04300000 0.00787500 -0.00900000
v 0.04300000 0.01575000 -0.00900000
v 0.04300000 0.02362500 -0.00900000
v 0.04500000 -0.02362500 -0.00900000
v 0.04500000 -0.01575000 -0.00900000
v 0.04500000 -0.00787500 -0.00900000
v 0.04500000 0.00000000 -0.00900000
v 0.04500000 0.00787500 -0.00900000
v 0.04500000 0.01575000 -0.00900000
v 0.04500000 0.02362500 -0.00900000
v 0.03300000 -0.02362500 -0.00200000
v 0.03300000 -0.01575000 -0.00200000
v 0.03300000 -0.00787500 -0.00200000
v 0.03300000 0.00000000 -0.00200000
v 0.03300000 0.00787500 -0.00200000
v 0.03300000 0.01575000 -0.00200000
v 0.03300000 0.02362500 -0.00200000
v 0.03500000 -0.02362500 -0.00200000
v 0.03500000 -0.01575000 -0.00200000
v 0.03500000 -0.00787500 -0.00200000
v 0.03500000 0.00000000 -0.00200000
v 0.03500000 0.00787500 -0.00200000
v 0.03500000 0.01575000 -0.00200000
v 0.03500000 0.02362500 -0.00200000
v 0.03700000 -0.02362500 -0.00200000
v 0.03700000 -0.01575000 -0.00200000
v 0.03700000 -0.00787500 -0.00200000
v 0.03700000 0.00000000 -0.00200000
v 0.03700000 0.00787500 -0.00200000
v 0.03700000 0.01575000 -0.00200000
v 0.03700000 0.02362500 -0.00200000
v 0.03900000 -0.02362500 -0.00200000
v 0.03900000 -0.01575000 -0.00200000
v 0.03900000 -0.00787500 -0.00200000
v 0.03900000 0.00000000 -0.00200000
v 0.03900000 0.00787500 -0.00200000
v 0.03900000 0.01575000 -0.00200000
v 0.03900000 0.02362500 -0.00200000
v 0.04100000 -0.02362500 -0.00200000
v 0.04100000 -0.01575000 -0.00200000
v 0.04100000 -0.00787500 -0.00200000
v 0.04100000 0.00000000 -0.00200000
v 0.04100000 0.00787500 -0.00200000
v 0.04100000 0.01575000 -0.00200000
v 0.04100000 0.02362500 -0.00200000
v 0.04300000 -0.02362500 -0.00200000
v 0.04300000 -0.01575000 -0.00200000
v 0.04300000 -0.00787500 -0.00200000
v 0.04300000 0.00000000 -0.00200000
v 0.04300000 0.00787500 -0.00200000
v 0.04300000 0.01575000 -0.00200000
v 0.04300000 0.02362500 -0.00200000
v 0.04500000 -0.02362500 -0.00200000
v 0.04500000 -0.01575000 -0.00200000
v 0.04500000 -0.00787500 -0.00200000
v 0.04500000 0.00000000 -0.00200000
v 0.04500000 0.00787500 -0.00200000
v 0.04500000 0.01575000 -0.00200000
v 0.04500000 0.02362500 -0.00200000
vn -0.59623732 -0.37315343 -0.71081473
vn -0.76549978 -0.54567366 -0.34095505
vn -0.80255106 -0.58501188 -0.11693116
vn -0.80854026 -0.58841955 -0.00500774
vn -0.80853141 -0.58845302 0.00000000
vn -0.80795826 -0.58921407 0.00549822
vn -0.79622806 -0.59278684 0.12093239
vn -0.74989101 -0.56589942 0.34266794
vn -0.58352509 -0.41081445 0.70052121
vn -0.60983516 -0.03569620 -0.79172398
vn -0.88546383 -0.03664902 -0.46326089
vn -0.98519073 -0.03981869 -0.16677438
vn -0.99915765 -0.04007423 -0.00883467
vn -0.99919628 -0.04008482 0.00000000
vn -0.99916963 -0.03981343 0.00865668
vn -0.98555410 -0.03696603 0.16527744
vn -0.88603208 -0.03015337 0.46264232
vn -0.61121064 -0.02575712 0.79104875
vn -0.61098227 0.00000000 -0.79164428
vn -0.88531142 0.00000000 -0.46499859
vn -0.98591615 0.00000000 -0.16724041
vn -0.99996089 0.00000000 -0.00884376
vn -1.00000000 0.00000000 0.00000000
vn -0.99996089 0.00000000 0.00884376
vn -0.98591615 0.00000000 0.16724041
vn -0.88531142 0.00000000 0.46499859
vn -0.61098227 0.00000000 0.79164428
vn -0.61098227 0.00000000 -0.79164428
vn -0.88531142 0.00000000 -0.46499859
vn -0.98591615 0.00000000 -0.16724041
vn -0.99996089 0.00000000 -0.00884376
vn -1.00000000 0.00000000 0.00000000
vn -0.99996089 0.00000000 0.00884376
vn -0.98591615 0.00000000 0.16724041
vn -0.88531142 0.00000000 0.46499859
vn -0.61098227 0.00000000 0.79164428
vn -0.61098227 0.00000000 -0.79164428
vn -0.88531142 0.00000000 -0.46499859
vn -0.98591615 0.00000000 -0.16724041
vn -0.99996089 0.00000000 -0.00884376
vn -1.00000000 0.00000000 0.00000000
vn -0.99996089 0.00000000 0.00884376
vn -0.98591615 0.00000000 0.16724041
vn -0.88531142 0.00000000 0.46499859
vn -0.61098227 0.00000000 0.79164428
vn -0.61098227 0.00000000 -0.79164428
vn -0.88531142 0.00000000 -0.46499859
vn -0.98591615 0.00000000 -0.16724041
vn -0.99996089 0.00000000 -0.00884376
vn -1.00000000 0.00000000 0.00000000
vn -0.99996089 0.00000000 0.00884376
vn -0.98591615 0.00000000 0.16724041
vn -0.88531142 0.00000000 0.46499859
vn -0.61098227 0.00000000 0.79164428
vn -0.61098227 0.00000000 -0.79164428
vn -0.88531142 0.00000000 -0.46499859
vn -0.98591615 0.00000000 -0.16724041
vn -0.99996089 0.00000000 -0.00884376
vn -1.00000000 0.00000000 0.00000000
vn -0.99996089 0.00000000 0.00884376
vn -0.98591615 0.00000000 0.16724041
vn -0.88531142 0.00000000 0.46499859
vn -0.61098227 0.00000000 0.79164428
vn -0.61121064 0.02575712 -0.79104875
vn -0.88603208 0.03015337 -0.46264232
vn -0.98555410 0.03696603 -0.16527744
vn -0.99916963 0.03981343 -0.00865668
vn -0.99919628 0.04008482 0.00000000
vn -0.99915765 0.04007423 0.00883467
vn -0.98519073 0.03981869 0.16677438
vn -0.88546383 0.03664902 0.46326089
vn -0.60983516 0.03569620 0.79172398
vn -0.58352509 0.41081445 -0.70052121
vn -0.74989101 0.56589942 -0.34266794
vn -0.79622806 0.59278684 -0.12093239
vn -0.80795826 0.58921407 -0.00549822
vn -0.80853141 0.58845302 0.00000000
vn -0.80854026 0.58841955 0.00500774
vn -0.80255106 0.58501188 0.11693116
vn -0.76549978 0.54567366 0.34095505
vn -0.59623732 0.37315343 0.71081473
vn 0.58352509 -0.41081445 -0.70052121
vn 0.74989101 -0.56589942 -0.34266794
vn 0.79622806 -0.59278684 -0.12093239
vn 0.80795826 -0.58921407 -0.00549822
vn 0.80853141 -0.58845302 0.00000000
vn 0.80854026 -0.58841955 0.00500774
vn 0.80255106 -0.58501188 0.11693116
vn 0.76549978 -0.54567366 0.34095505
vn 0.59623732 -0.37315343 0.71081473
vn 0.61121064 -0.02575712 -0.79104875
vn 0.88603208 -0.03015337 -0.46264232
vn 0.98555410 -0.03696603 -0.16527744
vn 0.99916963 -0.03981343 -0.00865668
vn 0.99919628 -0.04008482 0.00000000
vn 0.99915765 -0.04007423 0.00883467
vn 0.98519073 -0.03981869 0.16677438
vn 0.88546383 -0.03664902 0.46326089
vn 0.60983516 -0.03569620 0.79172398
vn 0.61098227 0.00000000 -0.79164428
vn 0.88531142 0.00000000 -0.46499859
vn 0.98591615 0.00000000 -0.16724041
vn 0.99996089 0.00000000 -0.00884376
vn 1.00000000 0.00000000 0.00000000
vn 0.99996089 0.00000000 0.00884376
vn 0.98591615 0.00000000 0.16724041
vn 0.88531142 0.00000000 0.46499859
vn 0.61098227 0.00000000 0.79164428
vn 0.61098227 0.00000000 -0.79164428
vn 0.88531142 0.00000000 -0.46499859
vn 0.98591615 0.00000000 -0.16724041
vn 0.99996089 0.00000000 -0.00884376
vn 1.00000000 0.00000000 0.00000000
vn 0.99996089 0.00000000 0.00884376
vn 0.98591615 0.00000000 0.16724041
vn 0.88531142 0.00000000 0.46499859
vn 0.61098227 0.00000000 0.79164428
vn 0.61098227 0.00000000 -0.79164428
vn 0.88531142 0.00000000 -0.46499859
vn 0.98591615 0.00000000 -0.16724041
vn 0.99996089 0.00000000 -0.00884376
vn 1.00000000 0.00000000 0.00000000
vn 0.99996089 0.00000000 0.00884376
vn 0.98591615 0.00000000 0.16724041
vn 0.88531142 0.00000000 0.46499859
vn 0.61098227 0.00000000 0.79164428
vn 0.61098227 0.00000000 -0.79164428
vn 0.88531142 0.00000000 -0.46499859
vn 0.98591615 0.00000000 -0.16724041
vn 0.99996089 0.00000000 -0.00884376
vn 1.00000000 0.00000000 0.00000000
vn 0.99996089 0.00000000 0.00884376
vn 0.98591615 0.00000000 0.16724041
vn 0.88531142 0.00000000 0.46499859
vn 0.61098227 0.00000000 0.79164428
vn 0.61098227 0.00000000 -0.79164428
vn 0.88531142 0.00000000 -0.46499859
vn 0.98591615 0.00000000 -0.16724041
vn 0.99996089 0.00000000 -0.00884376
vn 1.00000000 0.00000000 0.00000000
vn 0.99996089 0.00000000 0.00884376
vn 0.98591615 0.00000000 0.16724041
vn 0.88531142 0.00000000 0.46499859
vn 0.61098227 0.00000000 0.79164428
vn 0.60983516 0.03569620 -0.79172398
vn 0.88546383 0.03664902 -0.46326089
vn 0.98519073 0.03981869 -0.16677438
vn 0.99915765 0.04007423 -0.00883467
vn 0.99919628 0.04008482 0.00000000
vn 0.99916963 0.03981343 0.00865668
vn 0.98555410 0.03696603 0.16527744
vn 0.88603208 0.03015337 0.46264232
vn 0.61121064 0.02575712 0.79104875
vn 0.59623732 0.37315343 -0.71081473
vn 0.76549978 0.54567366 -0.34095505
vn 0.80255106 0.58501188 -0.11693116
vn 0.80854026 0.58841955 -0.00500774
vn 0.80853141 0.58845302 0.00000000
vn 0.80795826 0.58921407 0.00549822
vn 0.79622806 0.59278684 0.12093239
vn 0.74989101 0.56589942 0.34266794
vn 0.58352509 0.41081445 0.70052121
vn -0.14766720 -0.47786712 -0.86593153
vn -0.16551489 -0.87624689 -0.45254415
vn -0.18501301 -0.96975522 -0.15920110
vn -0.19421983 -0.98092468 -0.00808949
vn -0.19509032 -0.98078528 0.00000000
vn -0.19487375 -0.98079006 0.00866527
vn -0.19120940 -0.96793179 0.16293257
vn -0.18080215 -0.87261609 0.45370888
vn -0.15420193 -0.48852723 0.85881483
vn 0.00000000 -0.48034395 -0.87708021
vn 0.00000000 -0.88531142 -0.46499859
vn 0.00000000 -0.98591615 -0.16724041
vn 0.00000000 -0.99996089 -0.00884376
vn 0.00000000 -1.00000000 0.00000000
vn 0.00000000 -0.99996089 0.00884376
vn 0.00000000 -0.98591615 0.16724041
vn 0.00000000 -0.88531142 0.46499859
vn 0.00000000 -0.48034395 0.87708021
vn 0.00000000 -0.48034395 -0.87708021
vn 0.00000000 -0.88531142 -0.46499859
vn 0.00000000 -0.98591615 -0.16724041
vn 0.00000000 -0.99996089 -0.00884376
vn 0.00000000 -1.00000000 0.00000000
vn 0.00000000 -0.99996089 0.00884376
vn 0.00000000 -0.98591615 0.16724041
vn 0.00000000 -0.88531142 0.46499859
vn 0.00000000 -0.48034395 0.87708021
vn 0.00000000 -0.48034395 -0.87708021
vn 0.00000000 -0.88531142 -0.46499859
vn 0.00000000 -0.98591615 -0.16724041
vn 0.00000000 -0.99996089 -0.00884376
vn 0.00000000 -1.00000000 0.00000000
vn 0.00000000 -0.99996089 0.00884376
vn 0.00000000 -0.98591615 0.16724041
vn 0.00000000 -0.88531142 0.46499859
vn 0.00000000 -0.48034395 0.87708021
vn 0.00000000 -0.48034395 -0.87708021
vn 0.00000000 -0.88531142 -0.46499859
vn 0.00000000 -0.98591615 -0.16724041
vn 0.00000000 -0.99996089 -0.00884376
vn 0.00000000 -1.00000000 0.00000000
vn 0.00000000 -0.99996089 0.00884376
vn 0.00000000 -0.98591615 0.16724041
vn 0.00000000 -0.88531142 0.46499859
vn 0.00000000 -0.48034395 0.87708021
vn 0.00000000 -0.48034395 -0.87708021
vn 0.00000000 -0.88531142 -0.46499859
vn 0.00000000 -0.98591615 -0.16724041
vn 0.00000000 -0.99996089 -0.00884376
vn 0.00000000 -1.00000000 0.00000000
vn 0.00000000 -0.99996089 0.00884376
vn 0.00000000 -0.98591615 0.16724041
vn 0.00000000 -0.88531142 0.46499859
vn 0.00000000 -0.48034395 0.87708021
vn 0.15420193 -0.48852723 -0.85881483
vn 0.18080215 -0.87261609 -0.45370888
vn 0.19120940 -0.96793179 -0.16293257
vn 0.19487375 -0.98079006 -0.00866527
vn 0.19509032 -0.98078528 0.00000000
vn 0.19421983 -0.98092468 0.00808949
vn 0.18501301 -0.96975522 0.15920110
vn 0.16551489 -0.87624689 0.45254415
vn 0.14766720 -0.47786712 0.86593153
vn -0.15420193 0.48852723 -0.85881483
vn -0.18080215 0.87261609 -0.45370888
vn -0.19120940 0.96793179 -0.16293257
vn -0.19487375 0.98079006 -0.00866527
vn -0.19509032 0.98078528 0.00000000
vn -0.19421983 0.98092468 0.00808949
vn -0.18501301 0.96975522 0.15920110
vn -0.16551489 0.87624689 0.45254415
vn -0.14766720 0.47786712 0.86593153
vn 0.00000000 0.48034395 -0.87708021
vn 0.00000000 0.88531142 -0.46499859
vn 0.00000000 0.98591615 -0.16724041
vn 0.00000000 0.99996089 -0.00884376
vn 0.00000000 1.00000000 0.00000000
vn 0.00000000 0.99996089 0.00884376
vn 0.00000000 0.98591615 0.16724041
vn 0.00000000 0.88531142 0.46499859
vn 0.00000000 0.48034395 0.87708021
vn 0.00000000 0.48034395 -0.87708021
vn 0.00000000 0.88531142 -0.46499859
vn 0.00000000 0.98591615 -0.16724041
vn 0.00000000 0.99996089 -0.00884376
vn 0.00000000 1.00000000 0.00000000
vn 0.00000000 0.99996089 0.00884376
vn 0.00000000 0.98591615 0.16724041
vn 0.00000000 0.88531142 0.46499859
vn 0.00000000 0.48034395 0.87708021
vn 0.00000000 0.48034395 -0.87708021
vn 0.00000000 0.88531142 -0.46499859
vn 0.00000000 0.98591615 -0.16724041
vn 0.00000000 0.99996089 -0.00884376
vn 0.00000000 1.00000000 0.00000000
vn 0.00000000 0.99996089 0.00884376
vn 0.00000000 0.98591615 0.16724041
vn 0.00000000 0.88531142 0.46499859
vn 0.00000000 0.48034395 0.87708021
vn 0.00000000 0.48034395 -0.87708021
vn 0.00000000 0.88531142 -0.46499859
vn 0.00000000 0.98591615 -0.16724041
vn 0.00000000 0.99996089 -0.00884376
vn 0.00000000 1.00000000 0.00000000
vn 0.00000000 0.99996089 0.00884376
vn 0.00000000 0.98591615 0.16724041
vn 0.00000000 0.88531142 0.46499859
vn 0.00000000 0.48034395 0.87708021
vn 0.00000000 0.48034395 -0.87708021
vn 0.00000000 0.88531142 -0.46499859
vn 0.00000000 0.98591615 -0.16724041
vn 0.00000000 0.99996089 -0.00884376
vn 0.00000000 1.00000000 0.00000000
vn 0.00000000 0.99996089 0.00884376
vn 0.00000000 0.98591615 0.16724041
vn 0.00000000 0.88531142 0.46499859
vn 0.00000000 0.48034395 0.87708021
vn 0.14766720 0.47786712 -0.86593153
vn 0.16551489 0.87624689 -0.45254415
vn 0.18501301 0.96975522 -0.15920110
vn 0.19421983 0.98092468 -0.00808949
vn 0.19509032 0.98078528 0.00000000
vn 0.19487375 0.98079006 0.00866527
vn 0.19120940 0.96793179 0.16293257
vn 0.18080215 0.87261609 0.45370888
vn 0.15420193 0.48852723 0.85881483
vn -0.19400901 -0.03914243 -0.98021853
vn -0.19509032 0.00000000 -0.98078528
vn -0.19509032 0.00000000 -0.98078528
vn -0.19509032 0.00000000 -0.98078528
vn -0.19509032 0.00000000 -0.98078528
vn -0.19509032 0.00000000 -0.98078528
vn -0.19011214 0.03343133 -0.98119301
vn 0.00000000 -0.04008482 -0.99919628
vn 0.00000000 0.00000000 -1.00000000
vn 0.00000000 0.00000000 -1.00000000
vn 0.00000000 0.00000000 -1.00000000
vn 0.00000000 0.00000000 -1.00000000
vn 0.00000000 0.00000000 -1.00000000
vn 0.00000000 0.04008482 -0.99919628
vn 0.00000000 -0.04008482 -0.99919628
vn 0.00000000 0.00000000 -1.00000000
vn 0.00000000 0.00000000 -1.00000000
vn 0.00000000 0.00000000 -1.00000000
vn 0.00000000 0.00000000 -1.00000000
vn 0.00000000 0.00000000 -1.00000000
vn 0.00000000 0.04008482 -0.99919628
vn 0.00000000 -0.04008482 -0.99919628
vn 0.00000000 0.00000000 -1.00000000
vn 0.00000000 0.00000000 -1.00000000
vn 0.00000000 0.00000000 -1.00000000
vn 0.00000000 0.00000000 -1.00000000
vn 0.00000000 0.00000000 -1.00000000
vn 0.00000000 0.04008482 -0.99919628
vn 0.00000000 -0.04008482 -0.99919628
vn 0.00000000 0.00000000 -1.00000000
vn 0.00000000 0.00000000 -1.00000000
vn 0.00000000 0.00000000 -1.00000000
vn 0.00000000 0.00000000 -1.00000000
vn 0.00000000 0.00000000 -1.00000000
vn 0.00000000 0.04008482 -0.99919628
vn 0.00000000 -0.04008482 -0.99919628
vn 0.00000000 0.00000000 -1.00000000
vn 0.00000000 0.00000000 -1.00000000
vn 0.00000000 0.00000000 -1.00000000
vn 0.00000000 0.00000000 -1.00000000
vn 0.00000000 0.00000000 -1.00000000
vn 0.00000000 0.04008482 -0.99919628
vn 0.19011214 -0.03343133 -0.98119301
vn 0.19509032 0.00000000 -0.98078528
vn 0.19509032 0.00000000 -0.98078528
vn 0.19509032 0.00000000 -0.98078528
vn 0.19509032 0.00000000 -0.98078528
vn 0.19509032 0.00000000 -0.98078528
vn 0.19400901 0.03914243 -0.98021853
vn -0.19011214 -0.03343133 0.98119301
vn -0.19509032 0.00000000 0.98078528
vn -0.19509032 0.00000000 0.98078528
vn -0.19509032 0.00000000 0.98078528
vn -0.19509032 0.00000000 0.98078528
vn -0.19509032 0.00000000 0.98078528
vn -0.19400901 0.03914243 0.98021853
vn 0.00000000 -0.04008482 0.99919628
vn 0.00000000 0.00000000 1.00000000
vn 0.00000000 0.00000000 1.00000000
vn 0.00000000 0.00000000 1.00000000
vn 0.00000000 0.00000000 1.00000000
vn 0.00000000 0.00000000 1.00000000
vn 0.00000000 0.04008482 0.99919628
vn 0.00000000 -0.04008482 0.99919628
vn 0.00000000 0.00000000 1.00000000
vn 0.00000000 0.00000000 1.00000000
vn 0.00000000 0.00000000 1.00000000
vn 0.00000000 0.00000000 1.00000000
vn 0.00000000 0.00000000 1.00000000
vn 0.00000000 0.04008482 0.99919628
vn 0.00000000 -0.04008482 0.99919628
vn 0.00000000 0.00000000 1.00000000
vn 0.00000000 0.00000000 1.00000000
vn 0.00000000 0.00000000 1.00000000
vn 0.00000000 0.00000000 1.00000000
vn 0.00000000 0.00000000 1.00000000
vn 0.00000000 0.04008482 0.99919628
vn 0.00000000 -0.04008482 0.99919628
vn 0.00000000 0.00000000 1.00000000
vn 0.00000000 0.00000000 1.00000000
vn 0.00000000 0.00000000 1.00000000
vn 0.00000000 0.00000000 1.00000000
vn 0.00000000 0.00000000 1.00000000
vn 0.00000000 0.04008482 0.99919628
vn 0.00000000 -0.04008482 0.99919628
vn 0.00000000 0.00000000 1.00000000
vn 0.00000000 0.00000000 1.00000000
vn 0.00000000 0.00000000 1.00000000
vn 0.00000000 0.00000000 1.00000000
vn 0.00000000 0.00000000 1.00000000
vn 0.00000000 0.04008482 0.99919628
vn 0.19400901 -0.03914243 0.98021853
vn 0.19509032 0.00000000 0.98078528
vn 0.19509032 0.00000000 0.98078528
vn 0.19509032 0.00000000 0.98078528
vn 0.19509032 0.00000000 0.98078528
vn 0.19509032 0.00000000 0.98078528
vn 0.19011214 0.03343133 0.98119301
f 2//2 11//11 10//10
f 3//3 12//12 11//11
f 4//4 13//13 12//12
f 5//5 14//14 13//13
f 6//6 15//15 14//14
f 7//7 16//16 15//15
f 8//8 17//17 16//16
f 9//9 18//18 17//17
f 11//11 20//20 19//19
f 12//12 21//21 20//20
f 13//13 22//22 21//21
f 14//14 23//23 22//22
f 15//15 24//24 23//23
f 16//16 25//25 24//24
f 17//17 26//26 25//25
f 18//18 27//27 26//26
f 20//20 29//29 28//28
f 21//21 30//30 29//29
f 22//22 31//31 30//30
f 23//23 32//32 31//31
f 24//24 33//33 32//32
f 25//25 34//34 33//33
f 26//26 35//35 34//34
f 27//27 36//36 35//35
f 29//29 38//38 37//37
f 30//30 39//39 38//38
f 31//31 40//40 39//39
f 32//32 41//41 40//40
f 33//33 42//42 41//41
f 34//34 43//43 42//42
f 35//35 44//44 43//43
f 36//36 45//45 44//44
f 38//38 47//47 46//46
f 39//39 48//48 47//47
f 40//40 49//49 48//48
f 41//41 50//50 49//49
f 42//42 51//51 50//50
f 43//43 52//52 51//51
f 44//44 53//53 52//52
f 45//45 54//54 53//53
f 47//47 56//56 55//55
f 48//48 57//57 56//56
f 49//49 58//58 57//57
f 50//50 59//59 58//58
f 51//51 60//60 59//59
f 52//52 61//61 60//60
f 53//53 62//62 61//61
f 54//54 63//63 62//62
f 56//56 65//65 64//64
f 57//57 66//66 65//65
f 58//58 67//67 66//66
f 59//59 68//68 67//67
f 60//60 69//69 68//68
f 61//61 70//70 69//69
f 62//62 71//71 70//70
f 63//63 72//72 71//71
f 65//65 74//74 73//73
f 66//66 75//75 74//74
f 67//67 76//76 75//75
f 68//68 77//77 76//76
f 69//69 78//78 77//77
f 70//70 79//79 78//78
f 71//71 80//80 79//79
f 72//72 81//81 80//80
f 82//82 91//91 92//92
f 83//83 92//92 93//93
f 84//84 93//93 94//94
f 85//85 94//94 95//95
f 86//86 95//95 96//96
f 87//87 96//96 97//97
f 88//88 97//97 98//98
f 89//89 98//98 99//99
f 91//91 100//100 101//101
f 92//92 101//101 102//102
f 93//93 102//102 103//103
f 94//94 103//103 104//104
f 95//95 104//104 105//105
f 96//96 105//105 106//106
f 97//97 106//106 107//107
f 98//98 107//107 108//108
f 100//100 109//109 110//110
f 101//101 110//110 111//111
f 102//102 111//111 112//112
f 103//103 112//112 113//113
f 104//104 113//113 114//114
f 105//105 114//114 115//115
f 106//106 115//115 116//116
f 107//107 116//116 117//117
f 109//109 118//118 119//119
f 110//110 119//119 120//120
f 111//111 120//120 121//121
f 112//112 121//121 122//122
f 113//113 122//122 123//123
f 114//114 123//123 124//124
f 115//115 124//124 125//125
f 116//116 125//125 126//126
f 118//118 127//127 128//128
f 119//119 128//128 129//129
f 120//120 129//129 130//130
f 121//121 130//130 131//131
f 122//122 131//131 132//132
f 123//123 132//132 133//133
f 124//124 133//133 134//134
f 125//125 134//134 135//135
f 127//127 136//136 137//137
f 128//128 137//137 138//138
f 129//129 138//138 139//139
f 130//130 139//139 140//140
f 131//131 140//140 141//141
f 132//132 141//141 142//142
f 133//133 142//142 143//143
f 134//134 143//143 144//144
f 136//136 145//145 146//146
f 137//137 146//146 147//147
f 138//138 147//147 148//148
f 139//139 148//148 149//149
f 140//140 149//149 150//150
f 141//141 150//150 151//151
f 142//142 151//151 152//152
f 143//143 152//152 153//153
f 145//145 154//154 155//155
f 146//146 155//155 156//156
f 147//147 156//156 157//157
f 148//148 157//157 158//158
f 149//149 158//158 159//159
f 150//150 159//159 160//160
f 151//151 160//160 161//161
f 152//152 161//161 162//162
f 1//1 163//163 164//164
f 2//2 164//164 165//165
f 3//3 165//165 166//166
f 4//4 166//166 167//167
f 5//5 167//167 168//168
f 6//6 168//168 169//169
f 7//7 169//169 170//170
f 8//8 170//170 171//171
f 163//163 172//172 173//173
f 164//164 173//173 174//174
f 165//165 174//174 175//175
f 166//166 175//175 176//176
f 167//167 176//176 177//177
f 168//168 177//177 178//178
f 169//169 178//178 179//179
f 170//170 179//179 180//180
f 172//172 181//181 182//182
f 173//173 182//182 183//183
f 174//174 183//183 184//184
f 175//175 184//184 185//185
f 176//176 185//185 186//186
f 177//177 186//186 187//187
f 178//178 187//187 188//188
f 179//179 188//188 189//189
f 181//181 190//190 191//191
f 182//182 191//191 192//192
f 183//183 192//192 193//193
f 184//184 193//193 194//194
f 185//185 194//194 195//195
f 186//186 195//195 196//196
f 187//187 196//196 197//197
f 188//188 197//197 198//198
f 190//190 199//199 200//200
f 191//191 200//200 201//201
f 192//192 201//201 202//202
f 193//193 202//202 203//203
f 194//194 203//203 204//204
f 195//195 204//204 205//205
f 196//196 205//205 206//206
f 197//197 206//206 207//207
f 199//199 208//208 209//209
f 200//200 209//209 210//210
f 201//201 210//210 211//211
f 202//202 211//211 212//212
f 203//203 212//212 213//213
f 204//204 213//213 214//214
f 205//205 214//214 215//215
f 206//206 215//215 216//216
f 208//208 217//217 218//218
f 209//209 218//218 219//219
f 210//210 219//219 220//220
f 211//211 220//220 221//221
f 212//212 221//221 222//222
f 213//213 222//222 223//223
f 214//214 223//223 224//224
f 215//215 224//224 225//225
f 217//217 82//82 83//83
f 218//218 83//83 84//84
f 219//219 84//84 85//85
f 220//220 85//85 86//86
f 221//221 86//86 87//87
f 222//222 87//87 88//88
f 223//223 88//88 89//89
f 224//224 89//89 90//90
f 74//74 227//227 226//226
f 75//75 228//228 227//227
f 76//76 229//229 228//228
f 77//77 230//230 229//229
f 78//78 231//231 230//230
f 79//79 232//232 231//231
f 80//80 233//233 232//232
f 81//81 234//234 233//233
f 227//227 236//236 235//235
f 228//228 237//237 236//236
f 229//229 238//238 237//237
f 230//230 239//239 238//238
f 231//231 240//240 239//239
f 232//232 241//241 240//240
f 233//233 242//242 241//241
f 234//234 243//243 242//242
f 236//236 245//245 244//244
f 237//237 246//246 245//245
f 238//238 247//247 246//246
f 239//239 248//248 247//247
f 240//240 249//249 248//248
f 241//241 250//250 249//249
f 242//242 251//251 250//250
f 243//243 252//252 251//251
f 245//245 254//254 253//253
f 246//246 255//255 254//254
f 247//247 256//256 255//255
f 248//248 257//257 256//256
f 249//249 258//258 257//257
f 250//250 259//259 258//258
f 251//251 260//260 259//259
f 252//252 261//261 260//260
f 254//254 263//263 262//262
f 255//255 264//264 263//263
f 256//256 265//265 264//264
f 257//257 266//266 265//265
f 258//258 267//267 266//266
f 259//259 268//268 267//267
f 260//260 269//269 268//268
f 261//261 270//270 269//269
f 263//263 272//272 271//271
f 264//264 273//273 272//272
f 265//265 274//274 273//273
f 266//266 275//275 274//274
f 267//267 276//276 275//275
f 268//268 277//277 276//276
f 269//269 278//278 277//277
f 270//270 279//279 278//278
f 272//272 281//281 280//280
f 273//273 282//282 281//281
f 274//274 283//283 282//282
f 275//275 284//284 283//283
f 276//276 285//285 284//284
f 277//277 286//286 285//285
f 278//278 287//287 286//286
f 279//279 288//288 287//287
f 281//281 155//155 154//154
f 282//282 156//156 155//155
f 283//283 157//157 156//156
f 284//284 158//158 157//157
f 285//285 159//159 158//158
f 286//286 160//160 159//159
f 287//287 161//161 160//160
f 288//288 162//162 161//161
f 10//10 289//289 163//163
f 19//19 290//290 289//289
f 28//28 291//291 290//290
f 37//37 292//292 291//291
f 46//46 293//293 292//292
f 55//55 294//294 293//293
f 64//64 295//295 294//294
f 73//73 226//226 295//295
f 289//289 296//296 172//172
f 290//290 297//297 296//296
f 291//291 298//298 297//297
f 292//292 299//299 298//298
f 293//293 300//300 299//299
f 294//294 301//301 300//300
f 295//295 302//302 301//301
f 226//226 235//235 302//302
f 296//296 303//303 181//181
f 297//297 304//304 303//303
f 298//298 305//305 304//304
f 299//299 306//306 305//305
f 300//300 307//307 306//306
f 301//301 308//308 307//307
f 302//302 309//309 308//308
f 235//235 244//244 309//309
f 303//303 310//310 190//190
f 304//304 311//311 310//310
f 305//305 312//312 311//311
f 306//306 313//313 312//312
f 307//307 314//314 313//313
f 308//308 315//315 314//314
f 309//309 316//316 315//315
f 244//244 253//253 316//316
f 310//310 317//317 199//199
f 311//311 318//318 317//317
f 312//312 319//319 318//318
f 313//313 320//320 319//319
f 314//314 321//321 320//320
f 315//315 322//322 321//321
f 316//316 323//323 322//322
f 253//253 262//262 323//323
f 317//317 324//324 208//208
f 318//318 325//325 324//324
f 319//319 326//326 325//325
f 320//320 327//327 326//326
f 321//321 328//328 327//327
f 322//322 329//329 328//328
f 323//323 330//330 329//329
f 262//262 271//271 330//330
f 324//324 331//331 217//217
f 325//325 332//332 331//331
f 326//326 333//333 332//332
f 327//327 334//334 333//333
f 328//328 335//335 334//334
f 329//329 336//336 335//335
f 330//330 337//337 336//336
f 271//271 280//280 337//337
f 331//331 91//91 82//82
f 332//332 100//100 91//91
f 333//333 109//109 100//100
f 334//334 118//118 109//109
f 335//335 127//127 118//118
f 336//336 136//136 127//127
f 337//337 145//145 136//136
f 280//280 154//154 145//145
f 9//9 171//171 338//338
f 18//18 338//338 339//339
f 27//27 339//339 340//340
f 36//36 340//340 341//341
f 45//45 341//341 342//342
f 54//54 342//342 343//343
f 63//63 343//343 344//344
f 72//72 344//344 234//234
f 171//171 180//180 345//345
f 338//338 345//345 346//346
f 339//339 346//346 347//347
f 340//340 347//347 348//348
f 341//341 348//348 349//349
f 342//342 349//349 350//350
f 343//343 350//350 351//351
f 344//344 351//351 243//243
f 180//180 189//189 352//352
f 345//345 352//352 353//353
f 346//346 353//353 354//354
f 347//347 354//354 355//355
f 348//348 355//355 356//356
f 349//349 356//356 357//357
f 350//350 357//357 358//358
f 351//351 358//358 252//252
f 189//189 198//198 359//359
f 352//352 359//359 360//360
f 353//353 360//360 361//361
f 354//354 361//361 362//362
f 355//355 362//362 363//363
f 356//356 363//363 364//364
f 357//357 364//364 365//365
f 358//358 365//365 261//261
f 198//198 207//207 366//366
f 359//359 366//366 367//367
f 360//360 367//367 368//368
f 361//361 368//368 369//369
f 362//362 369//369 370//370
f 363//363 370//370 371//371
f 364//364 371//371 372//372
f 365//365 372//372 270//270
f 207//207 216//216 373//373
f 366//366 373//373 374//374
f 367//367 374//374 375//375
f 368//368 375//375 376//376
f 369//369 376//376 377//377
f 370//370 377//377 378//378
f 371//371 378//378 379//379
f 372//372 379//379 279//279
f 216//216 225//225 380//380
f 373//373 380//380 381//381
f 374//374 381//381 382//382
f 375//375 382//382 383//383
f 376//376 383//383 384//384
f 377//377 384//384 385//385
f 378//378 385//385 386//386
f 379//379 386//386 288//288
f 225//225 90//90 99//99
f 380//380 99//99 108//108
f 381//381 108//108 117//117
f 382//382 117//117 126//126
f 383//383 126//126 135//135
f 384//384 135//135 144//144
f 385//385 144//144 153//153
f 386//386 153//153 162//162
f 2//2 10//10 1//1
f 3//3 11//11 2//2
f 4//4 12//12 3//3
f 5//5 13//13 4//4
f 6//6 14//14 5//5
f 7//7 15//15 6//6
f 8//8 16//16 7//7
f 9//9 17//17 8//8
f 11//11 19//19 10//10
f 12//12 20//20 11//11
f 13//13 21//21 12//12
f 14//14 22//22 13//13
f 15//15 23//23 14//14
f 16//16 24//24 15//15
f 17//17 25//25 16//16
f 18//18 26//26 17//17
f 20//20 28//28 19//19
f 21//21 29//29 20//20
f 22//22 30//30 21//21
f 23//23 31//31 22//22
f 24//24 32//32 23//23
f 25//25 33//33 24//24
f 26//26 34//34 25//25
f 27//27 35//35 26//26
f 29//29 37//37 28//28
f 30//30 38//38 29//29
f 31//31 39//39 30//30
f 32//32 40//40 31//31
f 33//33 41//41 32//32
f 34//34 42//42 33//33
f 35//35 43//43 34//34
f 36//36 44//44 35//35
f 38//38 46//46 37//37
f 39//39 47//47 38//38
f 40//40 48//48 39//39
f 41//41 49//49 40//40
f 42//42 50//50 41//41
f 43//43 51//51 42//42
f 44//44 52//52 43//43
f 45//45 53//53 44//44
f 47//47 55//55 46//46
f 48//48 56//56 47//47
f 49//49 57//57 48//48
f 50//50 58//58 49//49
f 51//51 59//59 50//50
f 52//52 60//60 51//51
f 53//53 61//61 52//52
f 54//54 62//62 53//53
f 56//56 64//64 55//55
f 57//57 65//65 56//56
f 58//58 66//66 57//57
f 59//59 67//67 58//58
f 60//60 68//68 59//59
f 61//61 69//69 60//60
f 62//62 70//70 61//61
f 63//63 71//71 62//62
f 65//65 73//73 64//64
f 66//66 74//74 65//65
f 67//67 75//75 66//66
f 68//68 76//76 67//67
f 69//69 77//77 68//68
f 70//70 78//78 69//69
f 71//71 79//79 70//70
f 72//72 80//80 71//71
f 82//82 92//92 83//83
f 83//83 93//93 84//84
f 84//84 94//94 85//85
f 85//85 95//95 86//86
f 86//86 96//96 87//87
f 87//87 97//97 88//88
f 88//88 98//98 89//89
f 89//89 99//99 90//90
f 91//91 101//101 92//92
f 92//92 102//102 93//93
f 93//93 103//103 94//94
f 94//94 104//104 95//95
f 95//95 105//105 96//96
f 96//96 106//106 97//97
f 97//97 107//107 98//98
f 98//98 108//108 99//99
f 100//100 110//110 101//101
f 101//101 111//111 102//102
f 102//102 112//112 103//103
f 103//103 113//113 104//104
f 104//104 114//114 105//105
f 105//105 115//115 106//106
f 106//106 116//116 107//107
f 107//107 117//117 108//108
f 109//109 119//119 110//110
f 110//110 120//120 111//111
f 111//111 121//121 112//112
f 112//112 122//122 113//113
f 113//113 123//123 114//114
f 114//114 124//124 115//115
f 115//115 125//125 116//116
f 116//116 126//126 117//117
f 118//118 128//128 119//119
f 119//119 129//129 120//120
f 120//120 130//130 121//121
f 121//121 131//131 122//122
f 122//122 132//132 123//123
f 123//123 133//133 124//124
f 124//124 134//134 125//125
f 125//125 135//135 126//126
f 127//127 137//137 128//128
f 128//128 138//138 129//129
f 129//129 139//139 130//130
f 130//130 140//140 131//131
f 131//131 141//141 132//132
f 132//132 142//142 133//133
f 133//133 143//143 134//134
f 134//134 144//144 135//135
f 136//136 146//146 137//137
f 137//137 147//147 138//138
f 138//138 148//148 139//139
f 139//139 149//149 140//140
f 140//140 150//150 141//141
f 141//141 151//151 142//142
f 142//142 152//152 143//143
f 143//143 153//153 144//144
f 145//145 155//155 146//146
f 146//146 156//156 147//147
f 147//147 157//157 148//148
f 148//148 158//158 149//149
f 149//149 159//159 150//150
f 150//150 160//160 151//151
f 151//151 161//161 152//152
f 152//152 162//162 153//153
f 1//1 164//164 2//2
f 2//2 165//165 3//3
f 3//3 166//166 4//4
f 4//4 167//167 5//5
f 5//5 168//168 6//6
f 6//6 169//169 7//7
f 7//7 170//170 8//8
f 8//8 171//171 9//9
f 163//163 173//173 164//164
f 164//164 174//174 165//165
f 165//165 175//175 166//166
f 166//166 176//176 167//167
f 167//167 177//177 168//168
f 168//168 178//178 169//169
f 169//169 179//179 170//170
f 170//170 180//180 171//171
f 172//172 182//182 173//173
f 173//173 183//183 174//174
f 174//174 184//184 175//175
f 175//175 185//185 176//176
f 176//176 186//186 177//177
f 177//177 187//187 178//178
f 178//178 188//188 179//179
f 179//179 189//189 180//180
f 181//181 191//191 182//182
f 182//182 192//192 183//183
f 183//183 193//193 184//184
f 184//184 194//194 185//185
f 185//185 195//195 186//186
f 186//186 196//196 187//187
f 187//187 197//197 188//188
f 188//188 198//198 189//189
f 190//190 200//200 191//191
f 191//191 201//201 192//192
f 192//192 202//202 193//193
f 193//193 203//203 194//194
f 194//194 204//204 195//195
f 195//195 205//205 196//196
f 196//196 206//206 197//197
f 197//197 207//207 198//198
f 199//199 209//209 200//200
f 200//200 210//210 201//201
f 201//201 211//211 202//202
f 202//202 212//212 203//203
f 203//203 213//213 204//204
f 204//204 214//214 205//205
f 205//205 215//215 206//206
f 206//206 216//216 207//207
f 208//208 218//218 209//209
f 209//209 219//219 210//210
f 210//210 220//220 211//211
f 211//211 221//221 212//212
f 212//212 222//222 213//213
f 213//213 223//223 214//214
f 214//214 224//224 215//215
f 215//215 225//225 216//216
f 217//217 83//83 218//218
f 218//218 84//84 219//219
f 219//219 85//85 220//220
f 220//220 86//86 221//221
f 221//221 87//87 222//222
f 222//222 88//88 223//223
f 223//223 89//89 224//224
f 224//224 90//90 225//225
f 74//74 226//226 73//73
f 75//75 227//227 74//74
f 76//76 228//228 75//75
f 77//77 229//229 76//76
f 78//78 230//230 77//77
f 79//79 231//231 78//78
f 80//80 232//232 79//79
f 81//81 233//233 80//80
f 227//227 235//235 226//226
f 228//228 236//236 227//227
f 229//229 237//237 228//228
f 230//230 238//238 229//229
f 231//231 239//239 230//230
f 232//232 240//240 231//231
f 233//233 241//241 232//232
f 234//234 242//242 233//233
f 236//236 244//244 235//235
f 237//237 245//245 236//236
f 238//238 246//246 237//237
f 239//239 247//247 238//238
f 240//240 248//248 239//239
f 241//241 249//249 240//240
f 242//242 250//250 241//241
f 243//243 251//251 242//242
f 245//245 253//253 244//244
f 246//246 254//254 245//245
f 247//247 255//255 246//246
f 248//248 256//256 247//247
f 249//249 257//257 248//248
f 250//250 258//258 249//249
f 251//251 259//259 250//250
f 252//252 260//260 251//251
f 254//254 262//262 253//253
f 255//255 263//263 254//254
f 256//256 264//264 255//255
f 257//257 265//265 256//256
f 258//258 266//266 257//257
f 259//259 267//267 258//258
f 260//260 268//268 259//259
f 261//261 269//269 260//260
f 263//263 271//271 262//262
f 264//264 272//272 263//263
f 265//265 273//273 264//264
f 266//266 274//274 265//265
f 267//267 275//275 266//266
f 268//268 276//276 267//267
f 269//269 277//277 268//268
f 270//270 278//278 269//269
f 272//272 280//280 271//271
f 273//273 281//281 272//272
f 274//274 282//282 273//273
f 275//275 283//283 274//274
f 276//276 284//284 275//275
f 277//277 285//285 276//276
f 278//278 286//286 277//277
f 279//279 287//287 278//278
f 281//281 154//154 280//280
f 282//282 155//155 281//281
f 283//283 156//156 282//282
f 284//284 157//157 283//283
f 285//285 158//158 284//284
f 286//286 159//159 285//285
f 287//287 160//160 286//286
f 288//288 161//161 287//287
f 10//10 163//163 1//1
f 19//19 289//289 10//10
f 28//28 290//290 19//19
f 37//37 291//291 28//28
f 46//46 292//292 37//37
f 55//55 293//293 46//46
f 64//64 294//294 55//55
f 73//73 295//295 64//64
f 289//289 172//172 163//163
f 290//290 296//296 289//289
f 291//291 297//297 290//290
f 292//292 298//298 291//291
f 293//293 299//299 292//292
f 294//294 300//300 293//293
f 295//295 301//301 294//294
f 226//226 302//302 295//295
f 296//296 181//181 172//172
f 297//297 303//303 296//296
f 298//298 304//304 297//297
f 299//299 305//305 298//298
f 300//300 306//306 299//299
f 301//301 307//307 300//300
f 302//302 308//308 301//301
f 235//235 309//309 302//302
f 303//303 190//190 181//181
f 304//304 310//310 303//303
f 305//305 311//311 304//304
f 306//306 312//312 305//305
f 307//307 313//313 306//306
f 308//308 314//314 307//307
f 309//309 315//315 308//308
f 244//244 316//316 309//309
f 310//310 199//199 190//190
f 311//311 317//317 310//310
f 312//312 318//318 311//311
f 313//313 319//319 312//312
f 314//314 320//320 313//313
f 315//315 321//321 314//314
f 316//316 322//322 315//315
f 253//253 323//323 316//316
f 317//317 208//208 199//199
f 318//318 324//324 317//317
f 319//319 325//325 318//318
f 320//320 326//326 319//319
f 321//321 327//327 320//320
f 322//322 328//328 321//321
f 323//323 329//329 322//322
f 262//262 330//330 323//323
f 324//324 217//217 208//208
f 325//325 331//331 324//324
f 326//326 332//332 325//325
f 327//327 333//333 326//326
f 328//328 334//334 327//327
f 329//329 335//335 328//328
f 330//330 336//336 329//329
f 271//271 337//337 330//330
f 331//331 82//82 217//217
f 332//332 91//91 331//331
f 333//333 100//100 332//332
f 334//334 109//109 333//333
f 335//335 118//118 334//334
f 336//336 127//127 335//335
f 337//337 136//136 336//336
f 280//280 145//145 337//337
f 9//9 338//338 18//18
f 18//18 339//339 27//27
f 27//27 340//340 36//36
f 36//36 341//341 45//45
f 45//45 342//342 54//54
f 54//54 343//343 63//63
f 63//63 344//344 72//72
f 72//72 234//234 81//81
f 171//171 345//345 338//338
f 338//338 346//346 339//339
f 339//339 347//347 340//340
f 340//340 348//348 341//341
f 341//341 349//349 342//342
f 342//342 350//350 343//343
f 343//343 351//351 344//344
f 344//344 243//243 234//234
f 180//180 352//352 345//345
f 345//345 353//353 346//346
f 346//346 354//354 347//347
f 347//347 355//355 348//348
f 348//348 356//356 349//349
f 349//349 357//357 350//350
f 350//350 358//358 351//351
f 351//351 252//252 243//243
f 189//189 359//359 352//352
f 352//352 360//360 353//353
f 353//353 361//361 354//354
f 354//354 362//362 355//355
f 355//355 363//363 356//356
f 356//356 364//364 357//357
f 357//357 365//365 358//358
f 358//358 261//261 252//252
f 198//198 366//366 359//359
f 359//359 367//367 360//360
f 360//360 368//368 361//361
f 361//361 369//369 362//362
f 362//362 370//370 363//363
f 363//363 371//371 364//364
f 364//364 372//372 365//365
f 365//365 270//270 261//261
f 207//207 373//373 366//366
f 366//366 374//374 367//367
f 367//367 375//375 368//368
f 368//368 376//376 369//369
f 369//369 377//377 370//370
f 370//370 378//378 371//371
f 371//371 379//379 372//372
f 372//372 279//279 270//270
f 216//216 380//380 373//373
f 373//373 381//381 374//374
f 374//374 382//382 375//375
f 375//375 383//383 376//376
f 376//376 384//384 377//377
f 377//377 385//385 378//378
f 378//378 386//386 379//379
f 379//379 288//288 279//279
f 225//225 99//99 380//380
f 380//380 108//108 381//381
f 381//381 117//117 382//382
f 382//382 126//126 383//383
f 383//383 135//135 384//384
f 384//384 144//144 385//385
f 385//385 153//153 386//386
f 386//386 162//162 288//288

