# Editable closed quad source; millimetres
v -59.568526107 -124.184082169 10.500000000
v -50.418324075 -127.798738379 10.500000000
v -40.859266461 -130.119344165 10.500000000
v -31.425996464 -131.526045122 10.500000000
v -22.379485180 -132.326377887 10.500000000
v -13.786426663 -132.743633528 10.500000000
v -5.601144255 -132.930962991 10.500000000
v 2.281363588 -132.992218958 10.500000000
v 10.000000000 -133.000000000 10.500000000
v 17.718636412 -132.992218958 10.500000000
v 25.601144255 -132.930962991 10.500000000
v 33.786426663 -132.743633528 10.500000000
v 42.379485180 -132.326377887 10.500000000
v 51.425996464 -131.526045122 10.500000000
v 60.859266461 -130.119344165 10.500000000
v 70.418324075 -127.798738379 10.500000000
v 79.568526107 -124.184082169 10.500000000
v 86.715687250 -119.556393785 10.500000000
v 91.304157781 -114.721927865 10.500000000
v 94.085589218 -109.951078671 10.500000000
v 95.668065367 -105.375831585 10.500000000
v 96.493093567 -101.029916933 10.500000000
v 96.863495004 -96.890233876 10.500000000
v 96.984614758 -92.903678186 10.500000000
v 97.000000000 -89.000000000 10.500000000
v 96.984614758 -85.096321814 10.500000000
v 96.863495004 -81.109766124 10.500000000
v 96.493093567 -76.970083067 10.500000000
v 95.668065367 -72.624168415 10.500000000
v 94.085589218 -68.048921329 10.500000000
v 91.304157781 -63.278072135 10.500000000
v 86.715687250 -58.443606215 10.500000000
v 79.568526107 -53.815917831 10.500000000
v 70.418324075 -50.201261621 10.500000000
v 60.859266461 -47.880655835 10.500000000
v 51.425996464 -46.473954878 10.500000000
v 42.379485180 -45.673622113 10.500000000
v 33.786426663 -45.256366472 10.500000000
v 25.601144255 -45.069037009 10.500000000
v 17.718636412 -45.007781042 10.500000000
v 10.000000000 -45.000000000 10.500000000
v 2.281363588 -45.007781042 10.500000000
v -5.601144255 -45.069037009 10.500000000
v -13.786426663 -45.256366472 10.500000000
v -22.379485180 -45.673622113 10.500000000
v -31.425996464 -46.473954878 10.500000000
v -40.859266461 -47.880655835 10.500000000
v -50.418324075 -50.201261621 10.500000000
v -59.568526107 -53.815917831 10.500000000
v -66.715687250 -58.443606215 10.500000000
v -71.304157781 -63.278072135 10.500000000
v -74.085589218 -68.048921329 10.500000000
v -75.668065367 -72.624168415 10.500000000
v -76.493093567 -76.970083067 10.500000000
v -76.863495004 -81.109766124 10.500000000
v -76.984614758 -85.096321814 10.500000000
v -77.000000000 -89.000000000 10.500000000
v -76.984614758 -92.903678186 10.500000000
v -76.863495004 -96.890233876 10.500000000
v -76.493093567 -101.029916933 10.500000000
v -75.668065367 -105.375831585 10.500000000
v -74.085589218 -109.951078671 10.500000000
v -71.304157781 -114.721927865 10.500000000
v -66.715687250 -119.556393785 10.500000000
v -57.969249645 -123.384443938 14.000000000
v -49.029397085 -126.916948871 14.000000000
v -39.690087921 -129.184813616 14.000000000
v -30.473674706 -130.559544096 14.000000000
v -21.635129199 -131.341687480 14.000000000
v -13.239612257 -131.749460039 14.000000000
v -5.242497261 -131.932532014 14.000000000
v 2.458803505 -131.992395800 14.000000000
v 10.000000000 -132.000000000 14.000000000
v 17.541196495 -131.992395800 14.000000000
v 25.242497261 -131.932532014 14.000000000
v 33.239612257 -131.749460039 14.000000000
v 41.635129199 -131.341687480 14.000000000
v 50.473674706 -130.559544096 14.000000000
v 59.690087921 -129.184813616 14.000000000
v 69.029397085 -126.916948871 14.000000000
v 77.969249645 -123.384443938 14.000000000
v 84.952108233 -118.861930290 14.000000000
v 89.435096683 -114.137338595 14.000000000
v 92.152587167 -109.474917793 14.000000000
v 93.698684554 -105.003653595 14.000000000
v 94.504746588 -100.756509730 14.000000000
v 94.866633050 -96.710910379 14.000000000
v 94.984968442 -92.814958227 14.000000000
v 95.000000000 -89.000000000 14.000000000
v 94.984968442 -85.185041773 14.000000000
v 94.866633050 -81.289089621 14.000000000
v 94.504746588 -77.243490270 14.000000000
v 93.698684554 -72.996346405 14.000000000
v 92.152587167 -68.525082207 14.000000000
v 89.435096683 -63.862661405 14.000000000
v 84.952108233 -59.138069710 14.000000000
v 77.969249645 -54.615556062 14.000000000
v 69.029397085 -51.083051129 14.000000000
v 59.690087921 -48.815186384 14.000000000
v 50.473674706 -47.440455904 14.000000000
v 41.635129199 -46.658312520 14.000000000
v 33.239612257 -46.250539961 14.000000000
v 25.242497261 -46.067467986 14.000000000
v 17.541196495 -46.007604200 14.000000000
v 10.000000000 -46.000000000 14.000000000
v 2.458803505 -46.007604200 14.000000000
v -5.242497261 -46.067467986 14.000000000
v -13.239612257 -46.250539961 14.000000000
v -21.635129199 -46.658312520 14.000000000
v -30.473674706 -47.440455904 14.000000000
v -39.690087921 -48.815186384 14.000000000
v -49.029397085 -51.083051129 14.000000000
v -57.969249645 -54.615556062 14.000000000
v -64.952108233 -59.138069710 14.000000000
v -69.435096683 -63.862661405 14.000000000
v -72.152587167 -68.525082207 14.000000000
v -73.698684554 -72.996346405 14.000000000
v -74.504746588 -77.243490270 14.000000000
v -74.866633050 -81.289089621 14.000000000
v -74.984968442 -85.185041773 14.000000000
v -75.000000000 -89.000000000 14.000000000
v -74.984968442 -92.814958227 14.000000000
v -74.866633050 -96.710910379 14.000000000
v -74.504746588 -100.756509730 14.000000000
v -73.698684554 -105.003653595 14.000000000
v -72.152587167 -109.474917793 14.000000000
v -69.435096683 -114.137338595 14.000000000
v -64.952108233 -118.861930290 14.000000000
v -56.369973183 -121.785167476 16.500000000
v -47.640470095 -125.153369854 16.500000000
v -38.520909382 -127.315752518 16.500000000
v -29.521352948 -128.626542045 16.500000000
v -20.890773218 -129.372306667 16.500000000
v -12.692797851 -129.761113060 16.500000000
v -4.883850267 -129.935670060 16.500000000
v 2.636243423 -129.992749484 16.500000000
v 10.000000000 -130.000000000 16.500000000
v 17.363756577 -129.992749484 16.500000000
v 24.883850267 -129.935670060 16.500000000
v 32.692797851 -129.761113060 16.500000000
v 40.890773218 -129.372306667 16.500000000
v 49.521352948 -128.626542045 16.500000000
v 58.520909382 -127.315752518 16.500000000
v 67.640470095 -125.153369854 16.500000000
v 76.369973183 -121.785167476 16.500000000
v 83.188529216 -117.473003300 16.500000000
v 87.566035585 -112.968160056 16.500000000
v 90.219585116 -108.522596035 16.500000000
v 91.729303741 -104.259297614 16.500000000
v 92.516399610 -100.209695324 16.500000000
v 92.869771096 -96.352263385 16.500000000
v 92.985322126 -92.637518309 16.500000000
v 93.000000000 -89.000000000 16.500000000
v 92.985322126 -85.362481691 16.500000000
v 92.869771096 -81.647736615 16.500000000
v 92.516399610 -77.790304676 16.500000000
v 91.729303741 -73.740702386 16.500000000
v 90.219585116 -69.477403965 16.500000000
v 87.566035585 -65.031839944 16.500000000
v 83.188529216 -60.526996700 16.500000000
v 76.369973183 -56.214832524 16.500000000
v 67.640470095 -52.846630146 16.500000000
v 58.520909382 -50.684247482 16.500000000
v 49.521352948 -49.373457955 16.500000000
v 40.890773218 -48.627693333 16.500000000
v 32.692797851 -48.238886940 16.500000000
v 24.883850267 -48.064329940 16.500000000
v 17.363756577 -48.007250516 16.500000000
v 10.000000000 -48.000000000 16.500000000
v 2.636243423 -48.007250516 16.500000000
v -4.883850267 -48.064329940 16.500000000
v -12.692797851 -48.238886940 16.500000000
v -20.890773218 -48.627693333 16.500000000
v -29.521352948 -49.373457955 16.500000000
v -38.520909382 -50.684247482 16.500000000
v -47.640470095 -52.846630146 16.500000000
v -56.369973183 -56.214832524 16.500000000
v -63.188529216 -60.526996700 16.500000000
v -67.566035585 -65.031839944 16.500000000
v -70.219585116 -69.477403965 16.500000000
v -71.729303741 -73.740702386 16.500000000
v -72.516399610 -77.790304676 16.500000000
v -72.869771096 -81.647736615 16.500000000
v -72.985322126 -85.362481691 16.500000000
v -73.000000000 -89.000000000 16.500000000
v -72.985322126 -92.637518309 16.500000000
v -72.869771096 -96.352263385 16.500000000
v -72.516399610 -100.209695324 16.500000000
v -71.729303741 -104.259297614 16.500000000
v -70.219585116 -108.522596035 16.500000000
v -67.566035585 -112.968160056 16.500000000
v -63.188529216 -117.473003300 16.500000000
v -57.630782774 -123.204074047 10.500000000
v -62.475332632 -118.113638389 10.500000000
v -65.274241117 -112.814787318 10.500000000
v -66.532023893 -107.575611007 10.500000000
v -66.808728187 -102.564608932 10.500000000
v -66.597865800 -97.834556487 10.500000000
v -66.278561013 -93.346598848 10.500000000
v -66.125000000 -89.000000000 10.500000000
v -66.278561013 -84.653401152 10.500000000
v -66.597865800 -80.165443513 10.500000000
v -66.808728187 -75.435391068 10.500000000
v -66.532023893 -70.424388993 10.500000000
v -65.274241117 -65.185212682 10.500000000
v -62.475332632 -59.886361611 10.500000000
v -57.630782774 -54.795925953 10.500000000
v -47.565603179 -125.654191216 10.500000000
v -52.557299475 -120.638174447 10.500000000
v -55.697838700 -115.168483879 10.500000000
v -57.063710313 -109.493429607 10.500000000
v -57.075325495 -103.913742833 10.500000000
v -56.372925003 -98.637983918 10.500000000
v -55.595642136 -93.705970653 10.500000000
v -55.250000000 -89.000000000 10.500000000
v -55.595642136 -84.294029347 10.500000000
v -56.372925003 -79.362016082 10.500000000
v -57.075325495 -74.086257167 10.500000000
v -57.063710313 -68.506570393 10.500000000
v -55.697838700 -62.831516121 10.500000000
v -52.557299475 -57.361825553 10.500000000
v -47.565603179 -52.345808784 10.500000000
v -37.088329469 -127.069731140 10.500000000
v -41.742229489 -122.226493135 10.500000000
v -45.159642797 -116.896830840 10.500000000
v -46.996476248 -111.114698283 10.500000000
v -47.171887818 -105.140327356 10.500000000
v -46.181829272 -99.358504538 10.500000000
v -44.946598843 -94.005194820 10.500000000
v -44.375000000 -89.000000000 10.500000000
v -44.946598843 -83.994805180 10.500000000
v -46.181829272 -78.641495462 10.500000000
v -47.171887818 -72.859672644 10.500000000
v -46.996476248 -66.885301717 10.500000000
v -45.159642797 -61.103169160 10.500000000
v -41.742229489 -55.773506865 10.500000000
v -37.088329469 -50.930268860 10.500000000
v -26.729049037 -127.705851164 10.500000000
v -30.521099451 -122.917278779 10.500000000
v -33.726789787 -117.825804080 10.500000000
v -36.015254789 -112.272082882 10.500000000
v -36.826867618 -106.231588920 10.500000000
v -35.973080459 -100.048547875 10.500000000
v -34.348311133 -94.265718872 10.500000000
v -33.500000000 -89.000000000 10.500000000
v -34.348311133 -83.734281128 10.500000000
v -35.973080459 -77.951452125 10.500000000
v -36.826867618 -71.768411080 10.500000000
v -36.015254789 -65.727917118 10.500000000
v -33.726789787 -60.174195920 10.500000000
v -30.521099451 -55.082721221 10.500000000
v -26.729049037 -50.294148836 10.500000000
v -16.820931298 -127.845793566 10.500000000
v -19.488536966 -122.923153124 10.500000000
v -21.913829090 -117.914517977 10.500000000
v -24.071550819 -112.682553738 10.500000000
v -25.573579229 -106.991235472 10.500000000
v -25.534389799 -100.736907045 10.500000000
v -23.823058145 -94.519460905 10.500000000
v -22.625000000 -89.000000000 10.500000000
v -23.823058145 -83.480539095 10.500000000
v -25.534389799 -77.263092955 10.500000000
v -25.573579229 -71.008764528 10.500000000
v -24.071550819 -65.317446262 10.500000000
v -21.913829090 -60.085482023 10.500000000
v -19.488536966 -55.076846876 10.500000000
v -16.820931298 -50.154206434 10.500000000
v -7.468327599 -127.739150519 10.500000000
v -9.056922748 -122.567916093 10.500000000
v -10.481588518 -117.413798712 10.500000000
v -11.845992390 -112.250753336 10.500000000
v -13.207066202 -106.971415531 10.500000000
v -14.208822527 -101.243542428 10.500000000
v -13.348640594 -94.834101901 10.500000000
v -11.750000000 -89.000000000 10.500000000
v -13.348640594 -83.165898099 10.500000000
v -14.208822527 -76.756457572 10.500000000
v -13.207066202 -71.028584469 10.500000000
v -11.845992390 -65.749246664 10.500000000
v -10.481588518 -60.586201288 10.500000000
v -9.056922748 -55.432083907 10.500000000
v -7.468327599 -50.260849481 10.500000000
v 1.405588642 -127.577663041 10.500000000
v 0.695012572 -122.174807517 10.500000000
v 0.103364787 -116.789084472 10.500000000
v -0.411762315 -111.429030918 10.500000000
v -0.913479517 -106.105914464 10.500000000
v -1.535610577 -100.808507886 10.500000000
v -2.249960516 -95.195382330 10.500000000
v -0.875000000 -89.000000000 10.500000000
v -2.249960516 -82.804617670 10.500000000
v -1.535610577 -77.191492114 10.500000000
v -0.913479517 -71.894085536 10.500000000
v -0.411762315 -66.570969082 10.500000000
v 0.103364787 -61.210915528 10.500000000
v 0.695012572 -55.825192483 10.500000000
v 1.405588642 -50.422336959 10.500000000
v 10.000000000 -127.500000000 10.500000000
v 10.000000000 -122.000000000 10.500000000
v 10.000000000 -116.500000000 10.500000000
v 10.000000000 -111.000000000 10.500000000
v 10.000000000 -105.500000000 10.500000000
v 10.000000000 -100.000000000 10.500000000
v 10.000000000 -94.500000000 10.500000000
v 10.000000000 -89.000000000 10.500000000
v 10.000000000 -83.500000000 10.500000000
v 10.000000000 -78.000000000 10.500000000
v 10.000000000 -72.500000000 10.500000000
v 10.000000000 -67.000000000 10.500000000
v 10.000000000 -61.500000000 10.500000000
v 10.000000000 -56.000000000 10.500000000
v 10.000000000 -50.500000000 10.500000000
v 18.594411358 -127.577663041 10.500000000
v 19.304987428 -122.174807517 10.500000000
v 19.896635213 -116.789084472 10.500000000
v 20.411762315 -111.429030918 10.500000000
v 20.913479517 -106.105914464 10.500000000
v 21.535610577 -100.808507886 10.500000000
v 22.249960516 -95.195382330 10.500000000
v 20.875000000 -89.000000000 10.500000000
v 22.249960516 -82.804617670 10.500000000
v 21.535610577 -77.191492114 10.500000000
v 20.913479517 -71.894085536 10.500000000
v 20.411762315 -66.570969082 10.500000000
v 19.896635213 -61.210915528 10.500000000
v 19.304987428 -55.825192483 10.500000000
v 18.594411358 -50.422336959 10.500000000
v 27.468327599 -127.739150519 10.500000000
v 29.056922748 -122.567916093 10.500000000
v 30.481588518 -117.413798712 10.500000000
v 31.845992390 -112.250753336 10.500000000
v 33.207066202 -106.971415531 10.500000000
v 34.208822527 -101.243542428 10.500000000
v 33.348640594 -94.834101901 10.500000000
v 31.750000000 -89.000000000 10.500000000
v 33.348640594 -83.165898099 10.500000000
v 34.208822527 -76.756457572 10.500000000
v 33.207066202 -71.028584469 10.500000000
v 31.845992390 -65.749246664 10.500000000
v 30.481588518 -60.586201288 10.500000000
v 29.056922748 -55.432083907 10.500000000
v 27.468327599 -50.260849481 10.500000000
v 36.820931298 -127.845793566 10.500000000
v 39.488536966 -122.923153124 10.500000000
v 41.913829090 -117.914517977 10.500000000
v 44.071550819 -112.682553738 10.500000000
v 45.573579229 -106.991235472 10.500000000
v 45.534389799 -100.736907045 10.500000000
v 43.823058145 -94.519460905 10.500000000
v 42.625000000 -89.000000000 10.500000000
v 43.823058145 -83.480539095 10.500000000
v 45.534389799 -77.263092955 10.500000000
v 45.573579229 -71.008764528 10.500000000
v 44.071550819 -65.317446262 10.500000000
v 41.913829090 -60.085482023 10.500000000
v 39.488536966 -55.076846876 10.500000000
v 36.820931298 -50.154206434 10.500000000
v 46.729049037 -127.705851164 10.500000000
v 50.521099451 -122.917278779 10.500000000
v 53.726789787 -117.825804080 10.500000000
v 56.015254789 -112.272082882 10.500000000
v 56.826867618 -106.231588920 10.500000000
v 55.973080459 -100.048547875 10.500000000
v 54.348311133 -94.265718872 10.500000000
v 53.500000000 -89.000000000 10.500000000
v 54.348311133 -83.734281128 10.500000000
v 55.973080459 -77.951452125 10.500000000
v 56.826867618 -71.768411080 10.500000000
v 56.015254789 -65.727917118 10.500000000
v 53.726789787 -60.174195920 10.500000000
v 50.521099451 -55.082721221 10.500000000
v 46.729049037 -50.294148836 10.500000000
v 57.088329469 -127.069731140 10.500000000
v 61.742229489 -122.226493135 10.500000000
v 65.159642797 -116.896830840 10.500000000
v 66.996476248 -111.114698283 10.500000000
v 67.171887818 -105.140327356 10.500000000
v 66.181829272 -99.358504538 10.500000000
v 64.946598843 -94.005194820 10.500000000
v 64.375000000 -89.000000000 10.500000000
v 64.946598843 -83.994805180 10.500000000
v 66.181829272 -78.641495462 10.500000000
v 67.171887818 -72.859672644 10.500000000
v 66.996476248 -66.885301717 10.500000000
v 65.159642797 -61.103169160 10.500000000
v 61.742229489 -55.773506865 10.500000000
v 57.088329469 -50.930268860 10.500000000
v 67.565603179 -125.654191216 10.500000000
v 72.557299475 -120.638174447 10.500000000
v 75.697838700 -115.168483879 10.500000000
v 77.063710313 -109.493429607 10.500000000
v 77.075325495 -103.913742833 10.500000000
v 76.372925003 -98.637983918 10.500000000
v 75.595642136 -93.705970653 10.500000000
v 75.250000000 -89.000000000 10.500000000
v 75.595642136 -84.294029347 10.500000000
v 76.372925003 -79.362016082 10.500000000
v 77.075325495 -74.086257167 10.500000000
v 77.063710313 -68.506570393 10.500000000
v 75.697838700 -62.831516121 10.500000000
v 72.557299475 -57.361825553 10.500000000
v 67.565603179 -52.345808784 10.500000000
v 77.630782774 -123.204074047 10.500000000
v 82.475332632 -118.113638389 10.500000000
v 85.274241117 -112.814787318 10.500000000
v 86.532023893 -107.575611007 10.500000000
v 86.808728187 -102.564608932 10.500000000
v 86.597865800 -97.834556487 10.500000000
v 86.278561013 -93.346598848 10.500000000
v 86.125000000 -89.000000000 10.500000000
v 86.278561013 -84.653401152 10.500000000
v 86.597865800 -80.165443513 10.500000000
v 86.808728187 -75.435391068 10.500000000
v 86.532023893 -70.424388993 10.500000000
v 85.274241117 -65.185212682 10.500000000
v 82.475332632 -59.886361611 10.500000000
v 77.630782774 -54.795925953 10.500000000
v -54.521321497 -120.871978089 16.500000000
v -59.143133431 -116.128617590 16.500000000
v -61.813356468 -111.191051819 16.500000000
v -63.013310151 -106.309092075 16.500000000
v -63.277292408 -101.639749232 16.500000000
v -63.076124844 -97.232200363 16.500000000
v -62.771500737 -93.050239836 16.500000000
v -62.625000000 -89.000000000 16.500000000
v -62.771500737 -84.949760164 16.500000000
v -63.076124844 -80.767799637 16.500000000
v -63.277292408 -76.360250768 16.500000000
v -63.013310151 -71.690907925 16.500000000
v -61.813356468 -66.808948181 16.500000000
v -59.143133431 -61.871382410 16.500000000
v -54.521321497 -57.128021911 16.500000000
v -44.918908780 -123.155041815 16.500000000
v -49.681101798 -118.481026190 16.500000000
v -52.677248415 -113.384269069 16.500000000
v -53.980321333 -108.096150316 16.500000000
v -53.991402484 -102.896896731 16.500000000
v -53.321296267 -97.980848651 16.500000000
v -52.579750543 -93.385109018 16.500000000
v -52.250000000 -89.000000000 16.500000000
v -52.579750543 -84.614890982 16.500000000
v -53.321296267 -80.019151349 16.500000000
v -53.991402484 -75.103103269 16.500000000
v -53.980321333 -69.903849684 16.500000000
v -52.677248415 -64.615730931 16.500000000
v -49.681101798 -59.518973810 16.500000000
v -44.918908780 -54.844958185 16.500000000
v -34.923348804 -124.474067653 16.500000000
v -39.363276409 -119.961050422 16.500000000
v -42.623567266 -114.994774192 16.500000000
v -44.375948605 -109.606877946 16.500000000
v -44.543295275 -104.039850491 16.500000000
v -43.598756662 -98.652242865 16.500000000
v -42.420318436 -93.663931537 16.500000000
v -41.875000000 -89.000000000 16.500000000
v -42.420318436 -84.336068463 16.500000000
v -43.598756662 -79.347757135 16.500000000
v -44.543295275 -73.960149509 16.500000000
v -44.375948605 -68.393122054 16.500000000
v -42.623567266 -63.005225808 16.500000000
v -39.363276409 -58.038949578 16.500000000
v -34.923348804 -53.525932347 16.500000000
v -25.040357128 -125.066815858 16.500000000
v -28.658060395 -120.604737044 16.500000000
v -31.716362670 -115.860408347 16.500000000
v -33.899610891 -110.685349958 16.500000000
v -34.673908188 -105.056707857 16.500000000
v -33.859375611 -99.295237793 16.500000000
v -32.309308322 -93.906692585 16.500000000
v -31.500000000 -89.000000000 16.500000000
v -32.309308322 -84.093307415 16.500000000
v -33.859375611 -78.704762207 16.500000000
v -34.673908188 -72.943292143 16.500000000
v -33.899610891 -67.314650042 16.500000000
v -31.716362670 -62.139591653 16.500000000
v -28.658060395 -57.395262956 16.500000000
v -25.040357128 -52.933184142 16.500000000
v -15.587785031 -125.197216732 16.500000000
v -18.132742163 -120.610210866 16.500000000
v -20.446526604 -115.943073570 16.500000000
v -22.505042735 -111.067834165 16.500000000
v -23.938012367 -105.764560326 16.500000000
v -23.900624751 -99.936663382 16.500000000
v -22.267975012 -94.143134025 16.500000000
v -21.125000000 -89.000000000 16.500000000
v -22.267975012 -83.856865975 16.500000000
v -23.900624751 -78.063336618 16.500000000
v -23.938012367 -72.235439674 16.500000000
v -22.505042735 -66.932165835 16.500000000
v -20.446526604 -62.056926430 16.500000000
v -18.132742163 -57.389789134 16.500000000
v -15.587785031 -52.802783268 16.500000000
v -6.665186100 -125.097844802 16.500000000
v -8.180742392 -120.279194541 16.500000000
v -9.539906287 -115.476494255 16.500000000
v -10.841578947 -110.665474699 16.500000000
v -12.140074652 -105.746091745 16.500000000
v -13.095773216 -100.408755444 16.500000000
v -12.275139877 -94.436322226 16.500000000
v -10.750000000 -89.000000000 16.500000000
v -12.275139877 -83.563677774 16.500000000
v -13.095773216 -77.591244556 16.500000000
v -12.140074652 -72.253908255 16.500000000
v -10.841578947 -67.334525301 16.500000000
v -9.539906287 -62.523505745 16.500000000
v -8.180742392 -57.720805459 16.500000000
v -6.665186100 -52.902155198 16.500000000
v 1.800733991 -124.947367834 16.500000000
v 1.122828086 -119.912888823 16.500000000
v 0.558382498 -114.894374167 16.500000000
v 0.066939401 -109.899778810 16.500000000
v -0.411710344 -104.939602114 16.500000000
v -1.005237677 -100.003382349 16.500000000
v -1.686743941 -94.772969898 16.500000000
v -0.375000000 -89.000000000 16.500000000
v -1.686743941 -83.227030102 16.500000000
v -1.005237677 -77.996617651 16.500000000
v -0.411710344 -73.060397886 16.500000000
v 0.066939401 -68.100221190 16.500000000
v 0.558382498 -63.105625833 16.500000000
v 1.122828086 -58.087111177 16.500000000
v 1.800733991 -53.052632166 16.500000000
v 10.000000000 -124.875000000 16.500000000
v 10.000000000 -119.750000000 16.500000000
v 10.000000000 -114.625000000 16.500000000
v 10.000000000 -109.500000000 16.500000000
v 10.000000000 -104.375000000 16.500000000
v 10.000000000 -99.250000000 16.500000000
v 10.000000000 -94.125000000 16.500000000
v 10.000000000 -89.000000000 16.500000000
v 10.000000000 -83.875000000 16.500000000
v 10.000000000 -78.750000000 16.500000000
v 10.000000000 -73.625000000 16.500000000
v 10.000000000 -68.500000000 16.500000000
v 10.000000000 -63.375000000 16.500000000
v 10.000000000 -58.250000000 16.500000000
v 10.000000000 -53.125000000 16.500000000
v 18.199266009 -124.947367834 16.500000000
v 18.877171914 -119.912888823 16.500000000
v 19.441617502 -114.894374167 16.500000000
v 19.933060599 -109.899778810 16.500000000
v 20.411710344 -104.939602114 16.500000000
v 21.005237677 -100.003382349 16.500000000
v 21.686743941 -94.772969898 16.500000000
v 20.375000000 -89.000000000 16.500000000
v 21.686743941 -83.227030102 16.500000000
v 21.005237677 -77.996617651 16.500000000
v 20.411710344 -73.060397886 16.500000000
v 19.933060599 -68.100221190 16.500000000
v 19.441617502 -63.105625833 16.500000000
v 18.877171914 -58.087111177 16.500000000
v 18.199266009 -53.052632166 16.500000000
v 26.665186100 -125.097844802 16.500000000
v 28.180742392 -120.279194541 16.500000000
v 29.539906287 -115.476494255 16.500000000
v 30.841578947 -110.665474699 16.500000000
v 32.140074652 -105.746091745 16.500000000
v 33.095773216 -100.408755444 16.500000000
v 32.275139877 -94.436322226 16.500000000
v 30.750000000 -89.000000000 16.500000000
v 32.275139877 -83.563677774 16.500000000
v 33.095773216 -77.591244556 16.500000000
v 32.140074652 -72.253908255 16.500000000
v 30.841578947 -67.334525301 16.500000000
v 29.539906287 -62.523505745 16.500000000
v 28.180742392 -57.720805459 16.500000000
v 26.665186100 -52.902155198 16.500000000
v 35.587785031 -125.197216732 16.500000000
v 38.132742163 -120.610210866 16.500000000
v 40.446526604 -115.943073570 16.500000000
v 42.505042735 -111.067834165 16.500000000
v 43.938012367 -105.764560326 16.500000000
v 43.900624751 -99.936663382 16.500000000
v 42.267975012 -94.143134025 16.500000000
v 41.125000000 -89.000000000 16.500000000
v 42.267975012 -83.856865975 16.500000000
v 43.900624751 -78.063336618 16.500000000
v 43.938012367 -72.235439674 16.500000000
v 42.505042735 -66.932165835 16.500000000
v 40.446526604 -62.056926430 16.500000000
v 38.132742163 -57.389789134 16.500000000
v 35.587785031 -52.802783268 16.500000000
v 45.040357128 -125.066815858 16.500000000
v 48.658060395 -120.604737044 16.500000000
v 51.716362670 -115.860408347 16.500000000
v 53.899610891 -110.685349958 16.500000000
v 54.673908188 -105.056707857 16.500000000
v 53.859375611 -99.295237793 16.500000000
v 52.309308322 -93.906692585 16.500000000
v 51.500000000 -89.000000000 16.500000000
v 52.309308322 -84.093307415 16.500000000
v 53.859375611 -78.704762207 16.500000000
v 54.673908188 -72.943292143 16.500000000
v 53.899610891 -67.314650042 16.500000000
v 51.716362670 -62.139591653 16.500000000
v 48.658060395 -57.395262956 16.500000000
v 45.040357128 -52.933184142 16.500000000
v 54.923348804 -124.474067653 16.500000000
v 59.363276409 -119.961050422 16.500000000
v 62.623567266 -114.994774192 16.500000000
v 64.375948605 -109.606877946 16.500000000
v 64.543295275 -104.039850491 16.500000000
v 63.598756662 -98.652242865 16.500000000
v 62.420318436 -93.663931537 16.500000000
v 61.875000000 -89.000000000 16.500000000
v 62.420318436 -84.336068463 16.500000000
v 63.598756662 -79.347757135 16.500000000
v 64.543295275 -73.960149509 16.500000000
v 64.375948605 -68.393122054 16.500000000
v 62.623567266 -63.005225808 16.500000000
v 59.363276409 -58.038949578 16.500000000
v 54.923348804 -53.525932347 16.500000000
v 64.918908780 -123.155041815 16.500000000
v 69.681101798 -118.481026190 16.500000000
v 72.677248415 -113.384269069 16.500000000
v 73.980321333 -108.096150316 16.500000000
v 73.991402484 -102.896896731 16.500000000
v 73.321296267 -97.980848651 16.500000000
v 72.579750543 -93.385109018 16.500000000
v 72.250000000 -89.000000000 16.500000000
v 72.579750543 -84.614890982 16.500000000
v 73.321296267 -80.019151349 16.500000000
v 73.991402484 -75.103103269 16.500000000
v 73.980321333 -69.903849684 16.500000000
v 72.677248415 -64.615730931 16.500000000
v 69.681101798 -59.518973810 16.500000000
v 64.918908780 -54.844958185 16.500000000
v 74.521321497 -120.871978089 16.500000000
v 79.143133431 -116.128617590 16.500000000
v 81.813356468 -111.191051819 16.500000000
v 83.013310151 -106.309092075 16.500000000
v 83.277292408 -101.639749232 16.500000000
v 83.076124844 -97.232200363 16.500000000
v 82.771500737 -93.050239836 16.500000000
v 82.625000000 -89.000000000 16.500000000
v 82.771500737 -84.949760164 16.500000000
v 83.076124844 -80.767799637 16.500000000
v 83.277292408 -76.360250768 16.500000000
v 83.013310151 -71.690907925 16.500000000
v 81.813356468 -66.808948181 16.500000000
v 79.143133431 -61.871382410 16.500000000
v 74.521321497 -57.128021911 16.500000000
f 1 2 66 65
f 2 3 67 66
f 3 4 68 67
f 4 5 69 68
f 5 6 70 69
f 6 7 71 70
f 7 8 72 71
f 8 9 73 72
f 9 10 74 73
f 10 11 75 74
f 11 12 76 75
f 12 13 77 76
f 13 14 78 77
f 14 15 79 78
f 15 16 80 79
f 16 17 81 80
f 17 18 82 81
f 18 19 83 82
f 19 20 84 83
f 20 21 85 84
f 21 22 86 85
f 22 23 87 86
f 23 24 88 87
f 24 25 89 88
f 25 26 90 89
f 26 27 91 90
f 27 28 92 91
f 28 29 93 92
f 29 30 94 93
f 30 31 95 94
f 31 32 96 95
f 32 33 97 96
f 33 34 98 97
f 34 35 99 98
f 35 36 100 99
f 36 37 101 100
f 37 38 102 101
f 38 39 103 102
f 39 40 104 103
f 40 41 105 104
f 41 42 106 105
f 42 43 107 106
f 43 44 108 107
f 44 45 109 108
f 45 46 110 109
f 46 47 111 110
f 47 48 112 111
f 48 49 113 112
f 49 50 114 113
f 50 51 115 114
f 51 52 116 115
f 52 53 117 116
f 53 54 118 117
f 54 55 119 118
f 55 56 120 119
f 56 57 121 120
f 57 58 122 121
f 58 59 123 122
f 59 60 124 123
f 60 61 125 124
f 61 62 126 125
f 62 63 127 126
f 63 64 128 127
f 64 1 65 128
f 65 66 130 129
f 66 67 131 130
f 67 68 132 131
f 68 69 133 132
f 69 70 134 133
f 70 71 135 134
f 71 72 136 135
f 72 73 137 136
f 73 74 138 137
f 74 75 139 138
f 75 76 140 139
f 76 77 141 140
f 77 78 142 141
f 78 79 143 142
f 79 80 144 143
f 80 81 145 144
f 81 82 146 145
f 82 83 147 146
f 83 84 148 147
f 84 85 149 148
f 85 86 150 149
f 86 87 151 150
f 87 88 152 151
f 88 89 153 152
f 89 90 154 153
f 90 91 155 154
f 91 92 156 155
f 92 93 157 156
f 93 94 158 157
f 94 95 159 158
f 95 96 160 159
f 96 97 161 160
f 97 98 162 161
f 98 99 163 162
f 99 100 164 163
f 100 101 165 164
f 101 102 166 165
f 102 103 167 166
f 103 104 168 167
f 104 105 169 168
f 105 106 170 169
f 106 107 171 170
f 107 108 172 171
f 108 109 173 172
f 109 110 174 173
f 110 111 175 174
f 111 112 176 175
f 112 113 177 176
f 113 114 178 177
f 114 115 179 178
f 115 116 180 179
f 116 117 181 180
f 117 118 182 181
f 118 119 183 182
f 119 120 184 183
f 120 121 185 184
f 121 122 186 185
f 122 123 187 186
f 123 124 188 187
f 124 125 189 188
f 125 126 190 189
f 126 127 191 190
f 127 128 192 191
f 128 65 129 192
f 64 193 2 1
f 63 194 193 64
f 62 195 194 63
f 61 196 195 62
f 60 197 196 61
f 59 198 197 60
f 58 199 198 59
f 57 200 199 58
f 56 201 200 57
f 55 202 201 56
f 54 203 202 55
f 53 204 203 54
f 52 205 204 53
f 51 206 205 52
f 50 207 206 51
f 49 48 207 50
f 193 208 3 2
f 194 209 208 193
f 195 210 209 194
f 196 211 210 195
f 197 212 211 196
f 198 213 212 197
f 199 214 213 198
f 200 215 214 199
f 201 216 215 200
f 202 217 216 201
f 203 218 217 202
f 204 219 218 203
f 205 220 219 204
f 206 221 220 205
f 207 222 221 206
f 48 47 222 207
f 208 223 4 3
f 209 224 223 208
f 210 225 224 209
f 211 226 225 210
f 212 227 226 211
f 213 228 227 212
f 214 229 228 213
f 215 230 229 214
f 216 231 230 215
f 217 232 231 216
f 218 233 232 217
f 219 234 233 218
f 220 235 234 219
f 221 236 235 220
f 222 237 236 221
f 47 46 237 222
f 223 238 5 4
f 224 239 238 223
f 225 240 239 224
f 226 241 240 225
f 227 242 241 226
f 228 243 242 227
f 229 244 243 228
f 230 245 244 229
f 231 246 245 230
f 232 247 246 231
f 233 248 247 232
f 234 249 248 233
f 235 250 249 234
f 236 251 250 235
f 237 252 251 236
f 46 45 252 237
f 238 253 6 5
f 239 254 253 238
f 240 255 254 239
f 241 256 255 240
f 242 257 256 241
f 243 258 257 242
f 244 259 258 243
f 245 260 259 244
f 246 261 260 245
f 247 262 261 246
f 248 263 262 247
f 249 264 263 248
f 250 265 264 249
f 251 266 265 250
f 252 267 266 251
f 45 44 267 252
f 253 268 7 6
f 254 269 268 253
f 255 270 269 254
f 256 271 270 255
f 257 272 271 256
f 258 273 272 257
f 259 274 273 258
f 260 275 274 259
f 261 276 275 260
f 262 277 276 261
f 263 278 277 262
f 264 279 278 263
f 265 280 279 264
f 266 281 280 265
f 267 282 281 266
f 44 43 282 267
f 268 283 8 7
f 269 284 283 268
f 270 285 284 269
f 271 286 285 270
f 272 287 286 271
f 273 288 287 272
f 274 289 288 273
f 275 290 289 274
f 276 291 290 275
f 277 292 291 276
f 278 293 292 277
f 279 294 293 278
f 280 295 294 279
f 281 296 295 280
f 282 297 296 281
f 43 42 297 282
f 283 298 9 8
f 284 299 298 283
f 285 300 299 284
f 286 301 300 285
f 287 302 301 286
f 288 303 302 287
f 289 304 303 288
f 290 305 304 289
f 291 306 305 290
f 292 307 306 291
f 293 308 307 292
f 294 309 308 293
f 295 310 309 294
f 296 311 310 295
f 297 312 311 296
f 42 41 312 297
f 298 313 10 9
f 299 314 313 298
f 300 315 314 299
f 301 316 315 300
f 302 317 316 301
f 303 318 317 302
f 304 319 318 303
f 305 320 319 304
f 306 321 320 305
f 307 322 321 306
f 308 323 322 307
f 309 324 323 308
f 310 325 324 309
f 311 326 325 310
f 312 327 326 311
f 41 40 327 312
f 313 328 11 10
f 314 329 328 313
f 315 330 329 314
f 316 331 330 315
f 317 332 331 316
f 318 333 332 317
f 319 334 333 318
f 320 335 334 319
f 321 336 335 320
f 322 337 336 321
f 323 338 337 322
f 324 339 338 323
f 325 340 339 324
f 326 341 340 325
f 327 342 341 326
f 40 39 342 327
f 328 343 12 11
f 329 344 343 328
f 330 345 344 329
f 331 346 345 330
f 332 347 346 331
f 333 348 347 332
f 334 349 348 333
f 335 350 349 334
f 336 351 350 335
f 337 352 351 336
f 338 353 352 337
f 339 354 353 338
f 340 355 354 339
f 341 356 355 340
f 342 357 356 341
f 39 38 357 342
f 343 358 13 12
f 344 359 358 343
f 345 360 359 344
f 346 361 360 345
f 347 362 361 346
f 348 363 362 347
f 349 364 363 348
f 350 365 364 349
f 351 366 365 350
f 352 367 366 351
f 353 368 367 352
f 354 369 368 353
f 355 370 369 354
f 356 371 370 355
f 357 372 371 356
f 38 37 372 357
f 358 373 14 13
f 359 374 373 358
f 360 375 374 359
f 361 376 375 360
f 362 377 376 361
f 363 378 377 362
f 364 379 378 363
f 365 380 379 364
f 366 381 380 365
f 367 382 381 366
f 368 383 382 367
f 369 384 383 368
f 370 385 384 369
f 371 386 385 370
f 372 387 386 371
f 37 36 387 372
f 373 388 15 14
f 374 389 388 373
f 375 390 389 374
f 376 391 390 375
f 377 392 391 376
f 378 393 392 377
f 379 394 393 378
f 380 395 394 379
f 381 396 395 380
f 382 397 396 381
f 383 398 397 382
f 384 399 398 383
f 385 400 399 384
f 386 401 400 385
f 387 402 401 386
f 36 35 402 387
f 388 403 16 15
f 389 404 403 388
f 390 405 404 389
f 391 406 405 390
f 392 407 406 391
f 393 408 407 392
f 394 409 408 393
f 395 410 409 394
f 396 411 410 395
f 397 412 411 396
f 398 413 412 397
f 399 414 413 398
f 400 415 414 399
f 401 416 415 400
f 402 417 416 401
f 35 34 417 402
f 403 18 17 16
f 404 19 18 403
f 405 20 19 404
f 406 21 20 405
f 407 22 21 406
f 408 23 22 407
f 409 24 23 408
f 410 25 24 409
f 411 26 25 410
f 412 27 26 411
f 413 28 27 412
f 414 29 28 413
f 415 30 29 414
f 416 31 30 415
f 417 32 31 416
f 34 33 32 417
f 129 130 418 192
f 192 418 419 191
f 191 419 420 190
f 190 420 421 189
f 189 421 422 188
f 188 422 423 187
f 187 423 424 186
f 186 424 425 185
f 185 425 426 184
f 184 426 427 183
f 183 427 428 182
f 182 428 429 181
f 181 429 430 180
f 180 430 431 179
f 179 431 432 178
f 178 432 176 177
f 130 131 433 418
f 418 433 434 419
f 419 434 435 420
f 420 435 436 421
f 421 436 437 422
f 422 437 438 423
f 423 438 439 424
f 424 439 440 425
f 425 440 441 426
f 426 441 442 427
f 427 442 443 428
f 428 443 444 429
f 429 444 445 430
f 430 445 446 431
f 431 446 447 432
f 432 447 175 176
f 131 132 448 433
f 433 448 449 434
f 434 449 450 435
f 435 450 451 436
f 436 451 452 437
f 437 452 453 438
f 438 453 454 439
f 439 454 455 440
f 440 455 456 441
f 441 456 457 442
f 442 457 458 443
f 443 458 459 444
f 444 459 460 445
f 445 460 461 446
f 446 461 462 447
f 447 462 174 175
f 132 133 463 448
f 448 463 464 449
f 449 464 465 450
f 450 465 466 451
f 451 466 467 452
f 452 467 468 453
f 453 468 469 454
f 454 469 470 455
f 455 470 471 456
f 456 471 472 457
f 457 472 473 458
f 458 473 474 459
f 459 474 475 460
f 460 475 476 461
f 461 476 477 462
f 462 477 173 174
f 133 134 478 463
f 463 478 479 464
f 464 479 480 465
f 465 480 481 466
f 466 481 482 467
f 467 482 483 468
f 468 483 484 469
f 469 484 485 470
f 470 485 486 471
f 471 486 487 472
f 472 487 488 473
f 473 488 489 474
f 474 489 490 475
f 475 490 491 476
f 476 491 492 477
f 477 492 172 173
f 134 135 493 478
f 478 493 494 479
f 479 494 495 480
f 480 495 496 481
f 481 496 497 482
f 482 497 498 483
f 483 498 499 484
f 484 499 500 485
f 485 500 501 486
f 486 501 502 487
f 487 502 503 488
f 488 503 504 489
f 489 504 505 490
f 490 505 506 491
f 491 506 507 492
f 492 507 171 172
f 135 136 508 493
f 493 508 509 494
f 494 509 510 495
f 495 510 511 496
f 496 511 512 497
f 497 512 513 498
f 498 513 514 499
f 499 514 515 500
f 500 515 516 501
f 501 516 517 502
f 502 517 518 503
f 503 518 519 504
f 504 519 520 505
f 505 520 521 506
f 506 521 522 507
f 507 522 170 171
f 136 137 523 508
f 508 523 524 509
f 509 524 525 510
f 510 525 526 511
f 511 526 527 512
f 512 527 528 513
f 513 528 529 514
f 514 529 530 515
f 515 530 531 516
f 516 531 532 517
f 517 532 533 518
f 518 533 534 519
f 519 534 535 520
f 520 535 536 521
f 521 536 537 522
f 522 537 169 170
f 137 138 538 523
f 523 538 539 524
f 524 539 540 525
f 525 540 541 526
f 526 541 542 527
f 527 542 543 528
f 528 543 544 529
f 529 544 545 530
f 530 545 546 531
f 531 546 547 532
f 532 547 548 533
f 533 548 549 534
f 534 549 550 535
f 535 550 551 536
f 536 551 552 537
f 537 552 168 169
f 138 139 553 538
f 538 553 554 539
f 539 554 555 540
f 540 555 556 541
f 541 556 557 542
f 542 557 558 543
f 543 558 559 544
f 544 559 560 545
f 545 560 561 546
f 546 561 562 547
f 547 562 563 548
f 548 563 564 549
f 549 564 565 550
f 550 565 566 551
f 551 566 567 552
f 552 567 167 168
f 139 140 568 553
f 553 568 569 554
f 554 569 570 555
f 555 570 571 556
f 556 571 572 557
f 557 572 573 558
f 558 573 574 559
f 559 574 575 560
f 560 575 576 561
f 561 576 577 562
f 562 577 578 563
f 563 578 579 564
f 564 579 580 565
f 565 580 581 566
f 566 581 582 567
f 567 582 166 167
f 140 141 583 568
f 568 583 584 569
f 569 584 585 570
f 570 585 586 571
f 571 586 587 572
f 572 587 588 573
f 573 588 589 574
f 574 589 590 575
f 575 590 591 576
f 576 591 592 577
f 577 592 593 578
f 578 593 594 579
f 579 594 595 580
f 580 595 596 581
f 581 596 597 582
f 582 597 165 166
f 141 142 598 583
f 583 598 599 584
f 584 599 600 585
f 585 600 601 586
f 586 601 602 587
f 587 602 603 588
f 588 603 604 589
f 589 604 605 590
f 590 605 606 591
f 591 606 607 592
f 592 607 608 593
f 593 608 609 594
f 594 609 610 595
f 595 610 611 596
f 596 611 612 597
f 597 612 164 165
f 142 143 613 598
f 598 613 614 599
f 599 614 615 600
f 600 615 616 601
f 601 616 617 602
f 602 617 618 603
f 603 618 619 604
f 604 619 620 605
f 605 620 621 606
f 606 621 622 607
f 607 622 623 608
f 608 623 624 609
f 609 624 625 610
f 610 625 626 611
f 611 626 627 612
f 612 627 163 164
f 143 144 628 613
f 613 628 629 614
f 614 629 630 615
f 615 630 631 616
f 616 631 632 617
f 617 632 633 618
f 618 633 634 619
f 619 634 635 620
f 620 635 636 621
f 621 636 637 622
f 622 637 638 623
f 623 638 639 624
f 624 639 640 625
f 625 640 641 626
f 626 641 642 627
f 627 642 162 163
f 144 145 146 628
f 628 146 147 629
f 629 147 148 630
f 630 148 149 631
f 631 149 150 632
f 632 150 151 633
f 633 151 152 634
f 634 152 153 635
f 635 153 154 636
f 636 154 155 637
f 637 155 156 638
f 638 156 157 639
f 639 157 158 640
f 640 158 159 641
f 641 159 160 642
f 642 160 161 162
