DBRep_DrawableShape

CASCADE Topology V3, (c) Open Cascade
Locations 39
1
              1               0               0              -0 
              0               1               0              -0 
              0               0               1            -1.5 
1
              1              -0               0               0 
              0 2.22044604925031e-16              -1               0 
              0               1 2.22044604925031e-16               0 
1
              1               0               0               0 
              0               1               0            23.1 
              0               0               1               0 
2  1 1 2 1 3 1 0
1
              1               0               0              -0 
              0               1               0              -0 
              0               0               1            -3.5 
1
              1              -0               0               0 
              0 2.22044604925031e-16              -1               0 
              0               1 2.22044604925031e-16               0 
1
              1               0               0 -20.5681033398804 
              0               1               0            23.1 
              0               0               1         -11.875 
2  5 1 6 1 7 1 0
1
              1               0               0              -0 
              0               1               0              -0 
              0               0               1            -3.5 
1
              1              -0               0               0 
              0 2.22044604925031e-16              -1               0 
              0               1 2.22044604925031e-16               0 
1
              1               0               0 1.45426807398748e-15 
              0               1               0            23.1 
              0               0               1          -23.75 
2  9 1 10 1 11 1 0
1
              1               0               0              -0 
              0               1               0              -0 
              0               0               1            -3.5 
1
              1              -0               0               0 
              0 2.22044604925031e-16              -1               0 
              0               1 2.22044604925031e-16               0 
1
              1               0               0 20.5681033398804 
              0               1               0            23.1 
              0               0               1         -11.875 
2  13 1 14 1 15 1 0
1
              1               0               0              -0 
              0               1               0              -0 
              0               0               1            -3.5 
1
              1              -0               0               0 
              0 2.22044604925031e-16              -1               0 
              0               1 2.22044604925031e-16               0 
1
              1               0               0 -20.5681033398804 
              0               1               0            23.1 
              0               0               1          11.875 
2  17 1 18 1 19 1 0
1
              1               0               0              -0 
              0               1               0              -0 
              0               0               1            -3.5 
1
              1              -0               0               0 
              0 2.22044604925031e-16              -1               0 
              0               1 2.22044604925031e-16               0 
1
              1               0               0 -4.36280422196245e-15 
              0               1               0            23.1 
              0               0               1           23.75 
2  21 1 22 1 23 1 0
1
              1               0               0              -0 
              0               1               0              -0 
              0               0               1            -3.5 
1
              1              -0               0               0 
              0 2.22044604925031e-16              -1               0 
              0               1 2.22044604925031e-16               0 
1
              1               0               0               0 
              0               1               0            23.1 
              0               0               1               0 
2  25 1 26 1 27 1 0
1
              1               0               0              -0 
              0               1               0              -0 
              0               0               1            -3.5 
1
              1              -0               0               0 
              0 2.22044604925031e-16              -1               0 
              0               1 2.22044604925031e-16               0 
1
              1               0               0 20.5681033398804 
              0               1               0            23.1 
              0               0               1          11.875 
2  29 1 30 1 31 1 0
2  7 -1 6 -1 5 -1 0
2  11 -1 10 -1 9 -1 0
2  15 -1 14 -1 13 -1 0
2  19 -1 18 -1 17 -1 0
2  23 -1 22 -1 21 -1 0
2  27 -1 26 -1 25 -1 0
2  31 -1 30 -1 29 -1 0
Curve2ds 48
1 0 3 1 0 
2 0 0 1 0 -0 1 30
1 6.2831853071795862 -0 0 1 
1 0 -0 0 1 
1 0 0 1 0 
2 0 0 1 0 -0 1 30
2 -20.56810333988042 -11.874999999999996 1 0 -0 1 1.3500000000000001
1 0 5.0000000000000036 1 0 
2 1.4542680739874819e-15 -23.75 1 0 -0 1 1.3500000000000001
1 0 5.0000000000000036 1 0 
2 20.56810333988042 -11.874999999999996 1 0 -0 1 1.3500000000000001
1 0 5.0000000000000036 1 0 
2 -20.568103339880416 11.875000000000004 1 0 -0 1 1.3500000000000001
1 0 4.9999999999999964 1 0 
2 -4.3628042219624452e-15 23.75 1 0 -0 1 1.3500000000000001
1 0 4.9999999999999964 1 0 
2 0 0 1 0 -0 1 21
1 0 5 1 0 
2 20.568103339880413 11.875000000000012 1 0 -0 1 1.3500000000000001
1 0 4.9999999999999964 1 0 
2 -20.56810333988042 -11.874999999999998 1 0 -0 1 1.3500000000000001
1 0 2.0000000000000036 1 0 
2 1.4542680739874819e-15 -23.75 1 0 -0 1 1.3500000000000001
1 0 2.0000000000000036 1 0 
2 20.56810333988042 -11.874999999999998 1 0 -0 1 1.3500000000000001
1 0 2.0000000000000036 1 0 
2 -20.568103339880416 11.875000000000002 1 0 -0 1 1.3500000000000001
1 0 1.9999999999999964 1 0 
2 -4.3628042219624452e-15 23.75 1 0 -0 1 1.3500000000000001
1 0 1.9999999999999964 1 0 
2 0 0 1 0 -0 1 21
1 0 2 1 0 
2 20.568103339880413 11.875000000000011 1 0 -0 1 1.3500000000000001
1 0 1.9999999999999964 1 0 
1 6.2831853071795862 -0 0 1 
1 0 -0 0 1 
1 6.2831853071795862 -0 0 1 
1 0 -0 0 1 
1 6.2831853071795862 -0 0 1 
1 0 -0 0 1 
1 6.2831853071795862 -0 0 1 
1 0 -0 0 1 
1 6.2831853071795862 -0 0 1 
1 0 -0 0 1 
1 6.2831853071795862 -0 0 1 
1 0 -0 0 1 
1 6.2831853071795862 -0 0 1 
1 0 -0 0 1 
Curves 24
2 0 0 3 0 0 1 1 0 -0 -0 1 0 30
1 30 -7.3478807948841199e-15 0 0 0 1 
2 0 0 0 0 0 1 1 0 -0 -0 1 0 30
2 -20.56810333988042 21.599999999999998 -11.874999999999996 0 -1 2.2204460492503131e-16 1 0 0 -0 2.2204460492503131e-16 1 1.3500000000000001
2 1.4542680739874819e-15 21.599999999999998 -23.75 0 -1 2.2204460492503131e-16 1 0 0 -0 2.2204460492503131e-16 1 1.3500000000000001
2 20.56810333988042 21.599999999999998 -11.874999999999996 0 -1 2.2204460492503131e-16 1 0 0 -0 2.2204460492503131e-16 1 1.3500000000000001
2 -20.568103339880416 21.600000000000005 11.875000000000004 0 -1 2.2204460492503131e-16 1 0 0 -0 2.2204460492503131e-16 1 1.3500000000000001
2 -4.3628042219624452e-15 21.600000000000005 23.75 0 -1 2.2204460492503131e-16 1 0 0 -0 2.2204460492503131e-16 1 1.3500000000000001
2 0 21.600000000000001 3.3306690738754696e-16 0 -1 2.2204460492503131e-16 1 0 0 -0 2.2204460492503131e-16 1 21
2 20.568103339880413 21.600000000000005 11.875000000000012 0 -1 2.2204460492503131e-16 1 0 0 -0 2.2204460492503131e-16 1 1.3500000000000001
2 -20.56810333988042 24.599999999999998 -11.874999999999998 0 -1 2.2204460492503131e-16 1 0 0 -0 2.2204460492503131e-16 1 1.3500000000000001
2 1.4542680739874819e-15 24.599999999999998 -23.75 0 -1 2.2204460492503131e-16 1 0 0 -0 2.2204460492503131e-16 1 1.3500000000000001
2 20.56810333988042 24.599999999999998 -11.874999999999998 0 -1 2.2204460492503131e-16 1 0 0 -0 2.2204460492503131e-16 1 1.3500000000000001
2 -20.568103339880416 24.600000000000005 11.875000000000002 0 -1 2.2204460492503131e-16 1 0 0 -0 2.2204460492503131e-16 1 1.3500000000000001
2 -4.3628042219624452e-15 24.600000000000005 23.75 0 -1 2.2204460492503131e-16 1 0 0 -0 2.2204460492503131e-16 1 1.3500000000000001
2 0 24.600000000000001 -3.3306690738754696e-16 0 -1 2.2204460492503131e-16 1 0 0 -0 2.2204460492503131e-16 1 21
2 20.568103339880413 24.600000000000005 11.875000000000011 0 -1 2.2204460492503131e-16 1 0 0 -0 2.2204460492503131e-16 1 1.3500000000000001
1 1.3500000000000001 -3.3065463576978537e-16 0 0 0 1 
1 1.3500000000000001 -3.3065463576978537e-16 0 0 0 1 
1 1.3500000000000001 -3.3065463576978537e-16 0 0 0 1 
1 1.3500000000000001 -3.3065463576978537e-16 0 0 0 1 
1 1.3500000000000001 -3.3065463576978537e-16 0 0 0 1 
1 21 -5.1435165564188833e-15 0 0 0 1 
1 1.3500000000000001 -3.3065463576978537e-16 0 0 0 1 
Polygon3D 0
PolygonOnTriangulations 0
Surfaces 10
2 0 0 0 0 0 1 1 0 -0 -0 1 0 30
1 0 0 3 0 0 1 1 0 -0 -0 1 0 
1 0 0 0 0 0 1 1 0 -0 -0 1 0 
2 0 0 0 0 0 1 1 0 -0 -0 1 0 1.3500000000000001
2 0 0 0 0 0 1 1 0 -0 -0 1 0 1.3500000000000001
2 0 0 0 0 0 1 1 0 -0 -0 1 0 1.3500000000000001
2 0 0 0 0 0 1 1 0 -0 -0 1 0 1.3500000000000001
2 0 0 0 0 0 1 1 0 -0 -0 1 0 1.3500000000000001
2 0 0 0 0 0 1 1 0 -0 -0 1 0 21
2 0 0 0 0 0 1 1 0 -0 -0 1 0 1.3500000000000001
Triangulations 0

TShapes 77
Ve
1e-07
30 -7.34788079488412e-15 3
0 0

0101101
*
Ed
 1e-07 1 1 0
1  1 0 0 6.28318530717959
2  1 1 0 0 6.28318530717959
2  2 2 0 0 6.28318530717959
0

0101000
+77 0 -77 0 *
Ve
1e-07
30 -7.34788079488412e-15 0
0 0

0101101
*
Ed
 1e-07 1 1 0
1  2 0 0 3
3  3 4CN 1 0 0 3
0

0101000
-77 0 +75 0 *
Ed
 1e-07 1 1 0
1  3 0 0 6.28318530717959
2  5 1 0 0 6.28318530717959
2  6 3 0 0 6.28318530717959
0

0101000
+75 0 -75 0 *
Wi

0101100
-76 0 +74 0 +73 0 -74 0 *
Fa
0  1e-07 1 0

0111000
+72 0 *
Wi

0101100
+76 4 *
Ve
1.00000001776357e-07
-19.2181033398804 21.6 -11.875
0 0

0101101
*
Ed
 1e-07 1 1 0
1  4 0 0 6.28318530717959
2  7 2 4 0 6.28318530717959
2  8 4 8 0 6.28318530717959
0

0101100
+69 0 -69 0 *
Wi

0101100
-68 0 *
Ve
1e-07
1.35 21.6 -23.75
0 0

0101101
*
Ed
 1e-07 1 1 0
1  5 0 0 6.28318530717959
2  9 2 4 0 6.28318530717959
2  10 5 12 0 6.28318530717959
0

0101100
+66 0 -66 0 *
Wi

0101100
-65 0 *
Ve
1.00000001776357e-07
21.9181033398804 21.6 -11.875
0 0

0101101
*
Ed
 1e-07 1 1 0
1  6 0 0 6.28318530717959
2  11 2 4 0 6.28318530717959
2  12 6 16 0 6.28318530717959
0

0101100
+63 0 -63 0 *
Wi

0101100
-62 0 *
Ve
1.00000001776357e-07
-19.2181033398804 21.6 11.875
0 0

0101101
*
Ed
 1e-07 1 1 0
1  7 0 0 6.28318530717959
2  13 2 4 0 6.28318530717959
2  14 7 20 0 6.28318530717959
0

0101100
+60 0 -60 0 *
Wi

0101100
-59 0 *
Ve
1e-07
1.35 21.6 23.75
0 0

0101101
*
Ed
 1e-07 1 1 0
1  8 0 0 6.28318530717959
2  15 2 4 0 6.28318530717959
2  16 8 24 0 6.28318530717959
0

0101100
+57 0 -57 0 *
Wi

0101100
-56 0 *
Ve
1.00000005143517e-07
21 21.6 -4.81044964903134e-15
0 0

0101101
*
Ed
 1e-07 1 1 0
1  9 0 0 6.28318530717959
2  17 2 4 0 6.28318530717959
2  18 9 28 0 6.28318530717959
0

0101100
+54 0 -54 0 *
Wi

0101100
-53 0 *
Ve
1.00000001776357e-07
21.9181033398804 21.6 11.875
0 0

0101101
*
Ed
 1e-07 1 1 0
1  10 0 0 6.28318530717959
2  19 2 4 0 6.28318530717959
2  20 10 32 0 6.28318530717959
0

0101100
+51 0 -51 0 *
Wi

0101100
-50 0 *
Fa
0  1e-07 2 4

0101000
+70 0 +67 0 +64 0 +61 0 +58 0 +55 0 +52 0 +49 0 *
Wi

0101100
+73 4 *
Ve
1e-07
-19.2181033398804 24.6 -11.875
0 0

0101101
*
Ed
 1e-07 1 1 0
1  11 0 0 6.28318530717959
2  21 3 4 0 6.28318530717959
2  22 4 8 0 6.28318530717959
0

0101100
+46 0 -46 0 *
Wi

0101100
-45 0 *
Ve
1e-07
1.35 24.6 -23.75
0 0

0101101
*
Ed
 1e-07 1 1 0
1  12 0 0 6.28318530717959
2  23 3 4 0 6.28318530717959
2  24 5 12 0 6.28318530717959
0

0101100
+43 0 -43 0 *
Wi

0101100
-42 0 *
Ve
1e-07
21.9181033398804 24.6 -11.875
0 0

0101101
*
Ed
 1e-07 1 1 0
1  13 0 0 6.28318530717959
2  25 3 4 0 6.28318530717959
2  26 6 16 0 6.28318530717959
0

0101100
+40 0 -40 0 *
Wi

0101100
-39 0 *
Ve
1e-07
-19.2181033398804 24.6 11.875
0 0

0101101
*
Ed
 1e-07 1 1 0
1  14 0 0 6.28318530717959
2  27 3 4 0 6.28318530717959
2  28 7 20 0 6.28318530717959
0

0101100
+37 0 -37 0 *
Wi

0101100
-36 0 *
Ve
1e-07
1.35 24.6 23.75
0 0

0101101
*
Ed
 1e-07 1 1 0
1  15 0 0 6.28318530717959
2  29 3 4 0 6.28318530717959
2  30 8 24 0 6.28318530717959
0

0101100
+34 0 -34 0 *
Wi

0101100
-33 0 *
Ve
1.00000005143517e-07
21 24.6 -5.47658346380643e-15
0 0

0101101
*
Ed
 1e-07 1 1 0
1  16 0 0 6.28318530717959
2  31 3 4 0 6.28318530717959
2  32 9 28 0 6.28318530717959
0

0101100
+31 0 -31 0 *
Wi

0101100
-30 0 *
Ve
1e-07
21.9181033398804 24.6 11.875
0 0

0101101
*
Ed
 1e-07 1 1 0
1  17 0 0 6.28318530717959
2  33 3 4 0 6.28318530717959
2  34 10 32 0 6.28318530717959
0

0101100
+28 0 -28 0 *
Wi

0101100
-27 0 *
Fa
0  1e-07 3 4

0101000
+47 0 +44 0 +41 0 +38 0 +35 0 +32 0 +29 0 +26 0 *
Ed
 1e-07 1 1 0
1  18 0 2 5
3  35 36CN 4 0 2 5
0

0101000
+46 33 -69 33 *
Wi

0101100
-68 0 +24 8 +45 0 -24 8 *
Fa
0  1e-07 4 8

0101000
+23 0 *
Ed
 1e-07 1 1 0
1  19 0 2 5
3  37 38CN 5 0 2 5
0

0101000
+43 34 -66 34 *
Wi

0101100
-65 0 +21 12 +42 0 -21 12 *
Fa
0  1e-07 5 12

0101000
+20 0 *
Ed
 1e-07 1 1 0
1  20 0 2 5
3  39 40CN 6 0 2 5
0

0101000
+40 35 -63 35 *
Wi

0101100
-62 0 +18 16 +39 0 -18 16 *
Fa
0  1e-07 6 16

0101000
+17 0 *
Ed
 1e-07 1 1 0
1  21 0 2 5
3  41 42CN 7 0 2 5
0

0101000
+37 36 -60 36 *
Wi

0101100
-59 0 +15 20 +36 0 -15 20 *
Fa
0  1e-07 7 20

0101000
+14 0 *
Ed
 1e-07 1 1 0
1  22 0 2 5
3  43 44CN 8 0 2 5
0

0101000
+34 37 -57 37 *
Wi

0101100
-56 0 +12 24 +33 0 -12 24 *
Fa
0  1e-07 8 24

0101000
+11 0 *
Ed
 1e-07 1 1 0
1  23 0 2 5
3  45 46CN 9 0 2 5
0

0101000
+31 38 -54 38 *
Wi

0101100
-53 0 +9 28 +30 0 -9 28 *
Fa
0  1e-07 9 28

0101000
+8 0 *
Ed
 1e-07 1 1 0
1  24 0 2 5
3  47 48CN 10 0 2 5
0

0101000
+28 39 -51 39 *
Wi

0101100
-50 0 +6 32 +27 0 -6 32 *
Fa
0  1e-07 10 32

0101000
+5 0 *
Sh

0101100
+71 4 +48 0 -25 0 -22 0 -19 0 -16 0 -13 0 -10 0 -7 0 -4 0 
*
So

0100000
+3 0 *
Co

1100000
+2 0 *

+1 0 