# https://github.com/mikedh/trimesh

o lower_grip_shell_300.obj
v 0.07081486 0.01529777 -0.02852883
v 0.07081533 0.01563747 -0.02727289
v 0.07081486 0.01564143 -0.02728064
v 0.07081486 0.01564143 -0.02852883
v 0.07220217 0.01460620 -0.02852883
v 0.07084640 0.01564143 -0.02727289
v 0.07275829 0.01499576 -0.02727289
v 0.07555331 0.01564143 -0.02852883
v 0.07555331 0.01499576 -0.02852883
v 0.07555331 0.01499576 -0.02727289
v 0.07555331 0.01564143 -0.02727289
f 1 2 3
f 1 3 4
f 1 4 8
f 1 8 9
f 1 9 5
f 1 5 2
f 2 6 3
f 2 5 7
f 2 7 10
f 2 10 11
f 2 11 6
f 3 6 11
f 3 11 8
f 3 8 4
f 5 9 10
f 5 10 7
f 8 11 10
f 8 10 9

