# https://github.com/mikedh/trimesh

o lower_grip_shell_224.obj
v 0.00000113 -0.00305051 -0.03498127
v 0.00249745 0.00189756 -0.03486339
v 0.00126175 -0.00305051 -0.03492261
v 0.00000113 -0.00305051 -0.03279402
v 0.00000113 0.00701639 -0.03497515
v 0.00249745 0.00242219 -0.03486283
v 0.01157096 0.00297775 -0.03438657
v 0.01157096 0.00227371 -0.03438712
v 0.01157096 0.00171815 -0.03438740
v 0.00249745 -0.00190598 -0.03486339
v 0.00135689 -0.00305051 -0.03491816
v 0.00498924 -0.00305051 -0.03252294
v 0.00000113 0.00959003 -0.03273452
v 0.00000113 0.00878824 -0.03494513
v 0.01157096 0.00925471 -0.03434319
v 0.01157096 0.00872637 -0.03435154
v 0.01157096 0.00855439 -0.03435404
v 0.01157096 0.00825990 -0.03435793
v 0.01157096 0.00810400 -0.03435988
v 0.01157096 0.00783550 -0.03436293
v 0.01157096 0.00719209 -0.03436933
v 0.01157096 0.00690750 -0.03437155
v 0.01157096 0.00639772 -0.03437545
v 0.00249745 0.00543261 -0.03485449
v 0.00249745 0.00504285 -0.03485644
v 0.00249745 0.00468650 -0.03485810
v 0.00249745 0.00390946 -0.03486061
v 0.00249745 0.00333534 -0.03486172
v 0.00249745 0.00294310 -0.03486227
v 0.01157096 0.00324006 -0.03438629
v 0.01157096 -0.00155334 -0.03438740
v 0.01157096 -0.00230316 -0.03438712
v 0.01157096 -0.00305051 -0.03438657
v 0.00249745 -0.00249247 -0.03486283
v 0.00244875 -0.00305051 -0.03486478
v 0.00213048 -0.00305051 -0.03488062
v 0.00184505 -0.00305051 -0.03489452
v 0.00158795 -0.00305051 -0.03490704
v 0.00538679 -0.00305051 -0.03250264
v 0.00498924 0.00959003 -0.03247567
v 0.00000113 0.00959003 -0.03492205
v 0.00171140 0.00959003 -0.03483642
v 0.01156530 0.00959003 -0.03433763
v 0.01157096 0.00958755 -0.03433736
v 0.01157096 0.00592630 -0.03437823
v 0.01157096 0.00545735 -0.03438045
v 0.01157096 0.00519628 -0.03438156
v 0.01157096 0.00466794 -0.03438351
v 0.01157096 0.00445883 -0.03438406
v 0.01157096 0.00409877 -0.03438490
v 0.01157096 0.00384635 -0.03438545
v 0.00249745 -0.00305051 -0.03486227
v 0.01157096 -0.00305051 -0.03220043
v 0.01157096 0.00422869 -0.03216289
v 0.01157096 0.00564419 -0.03215566
v 0.01157096 0.00585577 -0.03215483
v 0.01157096 0.00959003 -0.03214093
v 0.01157096 0.00959003 -0.03353802
f 1 2 3
f 1 3 11
f 1 11 38
f 1 38 37
f 1 37 36
f 1 36 35
f 1 35 52
f 1 52 33
f 1 33 53
f 1 53 39
f 1 39 12
f 1 12 4
f 1 4 13
f 1 13 41
f 1 41 14
f 1 14 5
f 1 5 2
f 2 6 30
f 2 30 7
f 2 7 8
f 2 8 9
f 2 9 31
f 2 31 10
f 2 10 11
f 2 11 3
f 2 5 6
f 4 12 13
f 5 14 15
f 5 15 16
f 5 16 17
f 5 17 18
f 5 18 19
f 5 19 20
f 5 20 21
f 5 21 22
f 5 22 23
f 5 23 24
f 5 24 25
f 5 25 26
f 5 26 27
f 5 27 28
f 5 28 29
f 5 29 6
f 6 29 30
f 7 30 51
f 7 51 50
f 7 50 49
f 7 49 48
f 7 48 47
f 7 47 46
f 7 46 45
f 7 45 23
f 7 23 22
f 7 22 21
f 7 21 20
f 7 20 19
f 7 19 18
f 7 18 17
f 7 17 16
f 7 16 15
f 7 15 44
f 7 44 58
f 7 58 57
f 7 57 56
f 7 56 55
f 7 55 54
f 7 54 53
f 7 53 33
f 7 33 32
f 7 32 31
f 7 31 9
f 7 9 8
f 10 31 32
f 10 32 33
f 10 33 34
f 10 34 35
f 10 35 36
f 10 36 37
f 10 37 38
f 10 38 11
f 12 39 40
f 12 40 13
f 13 40 57
f 13 57 58
f 13 58 43
f 13 43 42
f 13 42 41
f 14 41 42
f 14 42 43
f 14 43 15
f 15 43 44
f 23 45 24
f 24 45 25
f 25 45 46
f 25 46 26
f 26 46 47
f 26 47 48
f 26 48 27
f 27 48 49
f 27 49 50
f 27 50 51
f 27 51 28
f 28 51 29
f 29 51 30
f 33 52 34
f 34 52 35
f 39 53 54
f 39 54 55
f 39 55 56
f 39 56 40
f 40 56 57
f 43 58 44

