# https://github.com/mikedh/trimesh

o lower_grip_shell_103.obj
v 0.02505240 0.01968700 -0.03317133
v 0.02505240 0.01968700 -0.03109342
v 0.02505240 0.02025722 -0.03309626
v 0.02700021 0.01968700 -0.03310688
v 0.02505240 0.02094681 -0.03091169
v 0.02555492 0.01968700 -0.03107421
v 0.02700021 0.01989467 -0.03307781
v 0.02505240 0.02094681 -0.03297747
v 0.02645391 0.02061324 -0.03298783
v 0.02645391 0.02048055 -0.03300957
v 0.02962563 0.02027868 -0.03292540
v 0.03093792 0.02021048 -0.03288799
v 0.03225021 0.02004006 -0.03286600
v 0.03225021 0.01983843 -0.03289633
v 0.03225021 0.01970599 -0.03291554
v 0.03217614 0.01968700 -0.03292060
v 0.02560122 0.01968700 -0.03107244
v 0.02551620 0.02094681 -0.03089399
v 0.02700021 0.02094681 -0.03291049
v 0.02700021 0.02092375 -0.03291478
v 0.02700021 0.02065171 -0.03296129
v 0.02875105 0.02060732 -0.03290417
v 0.02875105 0.02041544 -0.03293551
v 0.03028220 0.02059585 -0.03284957
v 0.03225021 0.02023058 -0.03283618
v 0.03365089 0.01968700 -0.03286373
v 0.03244213 0.01968700 -0.03291099
v 0.02747580 0.02094681 -0.03082044
v 0.03017530 0.01968700 -0.03090739
v 0.03365089 0.02094681 -0.03058917
v 0.02875105 0.02094681 -0.03284528
v 0.02875105 0.02089231 -0.03285513
v 0.02875105 0.02074667 -0.03288041
v 0.03225021 0.02070326 -0.03275681
v 0.03071907 0.02057254 -0.03283719
v 0.03225021 0.02042074 -0.03280509
v 0.03365089 0.02067144 -0.03270626
v 0.03365089 0.02056293 -0.03272370
v 0.03365089 0.01968700 -0.03079213
v 0.03273422 0.01968700 -0.03081741
v 0.03365089 0.02094681 -0.03265748
v 0.03225021 0.02094681 -0.03271283
v 0.03225021 0.02083385 -0.03273356
v 0.03225021 0.02055898 -0.03278183
v 0.03365089 0.02077910 -0.03268806
v 0.03365089 0.02088651 -0.03266885
v 0.03341688 0.02094681 -0.03266708
f 1 2 5
f 1 5 8
f 1 8 3
f 1 3 4
f 1 4 16
f 1 16 27
f 1 27 26
f 1 26 39
f 1 39 40
f 1 40 29
f 1 29 17
f 1 17 6
f 1 6 2
f 2 6 5
f 3 7 4
f 3 8 9
f 3 9 10
f 3 10 11
f 3 11 12
f 3 12 13
f 3 13 14
f 3 14 15
f 3 15 7
f 4 7 15
f 4 15 16
f 5 6 17
f 5 17 18
f 5 18 28
f 5 28 30
f 5 30 41
f 5 41 47
f 5 47 42
f 5 42 31
f 5 31 19
f 5 19 8
f 8 19 20
f 8 20 9
f 9 20 21
f 9 21 22
f 9 22 10
f 10 22 23
f 10 23 11
f 11 23 12
f 12 23 24
f 12 24 25
f 12 25 13
f 13 25 26
f 13 26 14
f 14 26 27
f 14 27 15
f 15 27 16
f 17 28 18
f 17 29 30
f 17 30 28
f 19 31 20
f 20 31 32
f 20 32 33
f 20 33 21
f 21 33 24
f 21 24 22
f 22 24 23
f 24 34 35
f 24 35 25
f 24 33 32
f 24 32 34
f 25 35 36
f 25 36 37
f 25 37 38
f 25 38 26
f 26 38 37
f 26 37 45
f 26 45 46
f 26 46 41
f 26 41 30
f 26 30 39
f 29 40 30
f 30 40 39
f 31 42 43
f 31 43 32
f 32 43 34
f 34 44 35
f 34 43 45
f 34 45 44
f 35 44 36
f 36 44 37
f 37 44 45
f 41 46 47
f 42 47 43
f 43 47 46
f 43 46 45

