# https://github.com/mikedh/trimesh

o lower_grip_carrier_152.obj
v 0.06892054 0.00909990 -0.02429999
v 0.06892054 0.00909990 -0.02530050
v 0.06892054 0.00599019 -0.02429999
v 0.06934675 0.00901070 -0.02429999
v 0.06934675 0.00901070 -0.02530050
v 0.06892054 0.00598783 -0.02530050
v 0.06892054 0.00598783 -0.02434445
v 0.06934675 0.00508565 -0.02429999
v 0.06934675 0.00508565 -0.02530050
f 1 2 6
f 1 6 7
f 1 7 3
f 1 3 8
f 1 8 4
f 1 4 5
f 1 5 2
f 2 5 9
f 2 9 6
f 3 7 8
f 4 8 9
f 4 9 5
f 6 9 8
f 6 8 7

