# https://github.com/mikedh/trimesh

o lower_grip_shell_038.obj
v 0.00956649 -0.02342346 -0.02589946
v 0.00956649 -0.01830271 -0.02669542
v 0.00960818 -0.02431084 -0.02654861
v 0.00959972 -0.02381785 -0.02613695
v 0.01005888 -0.02376421 -0.02604684
v 0.00988972 -0.02348104 -0.02589805
v 0.01442574 -0.02407657 -0.02586697
v 0.01573857 -0.02378945 -0.02585093
v 0.00956649 -0.01720079 -0.02585093
v 0.00956649 -0.01720079 -0.02658085
v 0.01573857 -0.01720079 -0.02651513
v 0.01573857 -0.01912856 -0.02669542
v 0.01573857 -0.02499944 -0.02669542
v 0.01558029 -0.02525895 -0.02669376
v 0.01447468 -0.02514063 -0.02668095
v 0.01146174 -0.02469418 -0.02662358
v 0.01071077 -0.02455615 -0.02660440
v 0.00992778 -0.02440233 -0.02658324
v 0.01085697 -0.02430531 -0.02634178
v 0.01032229 -0.02412469 -0.02626838
v 0.00985588 -0.02398902 -0.02622457
v 0.01036821 -0.02441811 -0.02652257
v 0.01120557 -0.02403871 -0.02610066
v 0.01044675 -0.02359384 -0.02590855
v 0.01156082 -0.02402845 -0.02605602
v 0.01075125 -0.02386833 -0.02604023
v 0.01185625 -0.02378630 -0.02589086
v 0.01397624 -0.02405527 -0.02588226
v 0.01416535 -0.02427534 -0.02599419
v 0.01553799 -0.02425168 -0.02590160
v 0.01573857 -0.01720079 -0.02585093
v 0.01569508 -0.02507201 -0.02647967
v 0.01479186 -0.02504834 -0.02654406
v 0.01444144 -0.02501995 -0.02654894
v 0.01408741 -0.02500417 -0.02657696
v 0.01316063 -0.02495132 -0.02664268
v 0.01261870 -0.02488191 -0.02664516
v 0.01189794 -0.02472179 -0.02658308
v 0.01107991 -0.02461452 -0.02660333
v 0.01159948 -0.02450330 -0.02641081
v 0.01190217 -0.02448358 -0.02635220
v 0.01139468 -0.02432977 -0.02629045
v 0.01195050 -0.02421303 -0.02613959
v 0.01148288 -0.02380681 -0.02593277
v 0.01273107 -0.02427929 -0.02611033
v 0.01213658 -0.02402136 -0.02599873
v 0.01251962 -0.02393301 -0.02591855
v 0.01350319 -0.02411128 -0.02594566
v 0.01378654 -0.02427613 -0.02602023
v 0.01449703 -0.02437946 -0.02603635
v 0.01481603 -0.02443389 -0.02604990
v 0.01553678 -0.02472889 -0.02620332
v 0.01499365 -0.02478647 -0.02628425
v 0.01463719 -0.02476044 -0.02629161
v 0.01526250 -0.02504046 -0.02648942
v 0.01432666 -0.02479278 -0.02634848
v 0.01365967 -0.02494028 -0.02656283
v 0.01225016 -0.02476596 -0.02657688
v 0.01272020 -0.02460190 -0.02635418
v 0.01231360 -0.02442284 -0.02625772
v 0.01348809 -0.02444966 -0.02615745
v 0.01305067 -0.02409550 -0.02597079
v 0.01381614 -0.02461530 -0.02625185
v 0.01305067 -0.02459164 -0.02631062
f 1 2 3
f 1 3 4
f 1 4 5
f 1 5 6
f 1 6 7
f 1 7 8
f 1 8 9
f 1 9 10
f 1 10 2
f 2 10 11
f 2 11 12
f 2 12 13
f 2 13 14
f 2 14 15
f 2 15 16
f 2 16 17
f 2 17 18
f 2 18 3
f 3 19 20
f 3 20 21
f 3 21 4
f 3 18 22
f 3 22 19
f 4 21 23
f 4 23 5
f 5 24 6
f 5 23 25
f 5 25 26
f 5 26 24
f 6 24 27
f 6 27 7
f 7 28 29
f 7 29 30
f 7 30 8
f 7 27 28
f 8 31 9
f 8 30 32
f 8 32 13
f 8 13 12
f 8 12 11
f 8 11 31
f 9 31 11
f 9 11 10
f 13 32 14
f 14 32 33
f 14 33 34
f 14 34 15
f 15 34 35
f 15 35 36
f 15 36 37
f 15 37 16
f 16 37 38
f 16 38 39
f 16 39 17
f 17 39 40
f 17 40 22
f 17 22 18
f 19 22 40
f 19 40 41
f 19 41 42
f 19 42 20
f 20 42 21
f 21 42 23
f 23 42 43
f 23 43 25
f 24 26 44
f 24 44 27
f 25 43 45
f 25 45 46
f 25 46 44
f 25 44 26
f 27 44 46
f 27 46 47
f 27 47 28
f 28 48 29
f 28 47 48
f 29 48 49
f 29 49 50
f 29 50 51
f 29 51 30
f 30 51 52
f 30 52 32
f 32 52 53
f 32 53 54
f 32 54 55
f 32 55 34
f 32 34 33
f 34 55 56
f 34 56 57
f 34 57 35
f 35 57 36
f 36 57 37
f 37 57 58
f 37 58 38
f 38 40 39
f 38 58 40
f 40 58 59
f 40 59 41
f 41 60 42
f 41 59 60
f 42 60 43
f 43 60 61
f 43 61 45
f 45 49 46
f 45 61 49
f 46 49 62
f 46 62 47
f 47 62 48
f 48 62 49
f 49 61 50
f 50 61 51
f 51 61 52
f 52 61 54
f 52 54 53
f 54 56 55
f 54 61 63
f 54 63 56
f 56 63 64
f 56 64 59
f 56 59 57
f 57 59 58
f 59 64 60
f 60 64 61
f 61 64 63

