# https://github.com/mikedh/trimesh

o lower_grip_shell_056.obj
v 0.07598272 0.01135696 -0.02585093
v 0.07598272 0.00786445 -0.02585093
v 0.07598272 0.01135696 -0.02643692
v 0.06242780 0.01135696 -0.02585093
v 0.07598272 0.00786445 -0.02625464
v 0.06711861 0.00969617 -0.02585093
v 0.06242780 0.01066502 -0.02600512
v 0.07584870 0.01135696 -0.02643761
v 0.06242780 0.01135696 -0.02630840
v 0.06242780 0.01066570 -0.02585093
v 0.06242780 0.01066502 -0.02628342
v 0.06499282 0.01013547 -0.02585093
f 1 2 5
f 1 5 3
f 1 3 8
f 1 8 9
f 1 9 4
f 1 4 10
f 1 10 12
f 1 12 6
f 1 6 2
f 2 6 7
f 2 7 11
f 2 11 5
f 3 5 8
f 4 9 11
f 4 11 7
f 4 7 10
f 5 11 8
f 6 12 7
f 7 12 10
f 8 11 9

