# https://github.com/mikedh/trimesh

o lower_grip_shell_161.obj
v 0.08704804 -0.01126768 -0.02688328
v 0.08697425 -0.01130590 -0.02669550
v 0.08612455 -0.01172321 -0.02712168
v 0.08667365 -0.01144672 -0.02718973
v 0.08700246 -0.01127422 -0.02723794
v 0.07600196 -0.01126768 -0.02805607
v 0.07600196 -0.01126768 -0.02669550
v 0.08612129 -0.01172854 -0.02669550
v 0.08556785 -0.01199797 -0.02695747
v 0.08586736 -0.01184458 -0.02724127
v 0.08609959 -0.01172028 -0.02736766
v 0.08685488 -0.01130263 -0.02753121
v 0.08673659 -0.01131055 -0.02769635
v 0.08669101 -0.01141453 -0.02740882
v 0.08466932 -0.01226498 -0.02805048
v 0.07600196 -0.01302642 -0.02805607
v 0.07596290 -0.01302642 -0.02669550
v 0.08630143 -0.01139732 -0.02799241
v 0.08522276 -0.01197077 -0.02804728
v 0.08531066 -0.01212054 -0.02669550
v 0.08508603 -0.01222711 -0.02669550
v 0.08449895 -0.01250428 -0.02700768
v 0.08454018 -0.01247759 -0.02737312
v 0.08501766 -0.01224863 -0.02739190
v 0.08561560 -0.01196009 -0.02735994
v 0.08536818 -0.01206545 -0.02752189
v 0.08609959 -0.01171236 -0.02743199
v 0.08649894 -0.01147978 -0.02757476
v 0.08649894 -0.01146050 -0.02764175
v 0.08520323 -0.01203360 -0.02794380
v 0.08650436 -0.01138251 -0.02781795
v 0.08648266 -0.01151455 -0.02745010
v 0.08463242 -0.01229459 -0.02802930
v 0.08445337 -0.01239065 -0.02801998
v 0.08388907 -0.01267919 -0.02800946
v 0.08329439 -0.01302281 -0.02776188
v 0.08328463 -0.01298597 -0.02797270
v 0.08338012 -0.01301696 -0.02680924
v 0.08449895 -0.01250428 -0.02671561
v 0.08474745 -0.01238687 -0.02669550
v 0.08602037 -0.01156379 -0.02798629
v 0.08583155 -0.01167896 -0.02796351
v 0.08337578 -0.01301661 -0.02736353
v 0.08370676 -0.01286202 -0.02746608
v 0.08436655 -0.01254783 -0.02754027
v 0.08464978 -0.01241235 -0.02754200
v 0.08543437 -0.01200468 -0.02767251
v 0.08501766 -0.01221574 -0.02765240
v 0.08578923 -0.01183321 -0.02762577
v 0.08523361 -0.01209179 -0.02772445
v 0.08464978 -0.01233832 -0.02789533
v 0.08420161 -0.01252597 -0.02799974
v 0.08368614 -0.01279694 -0.02795526
v 0.08357654 -0.01288801 -0.02777453
v 0.08389667 -0.01274616 -0.02772419
v 0.08407030 -0.01268125 -0.02759873
v 0.08341702 -0.01298769 -0.02757622
v 0.08423525 -0.01258209 -0.02774123
v 0.08471598 -0.01234899 -0.02773484
v 0.08450763 -0.01244936 -0.02774137
f 1 2 3
f 1 3 4
f 1 4 5
f 1 5 6
f 1 6 7
f 1 7 2
f 2 8 3
f 2 7 17
f 2 17 40
f 2 40 21
f 2 21 20
f 2 20 8
f 3 8 9
f 3 9 10
f 3 10 4
f 4 10 11
f 4 11 5
f 5 12 13
f 5 13 6
f 5 11 14
f 5 14 12
f 6 15 16
f 6 16 17
f 6 17 7
f 6 13 18
f 6 18 19
f 6 19 15
f 8 20 9
f 9 20 21
f 9 21 22
f 9 22 23
f 9 23 24
f 9 24 10
f 10 24 25
f 10 25 11
f 11 25 26
f 11 26 27
f 11 27 14
f 12 14 28
f 12 28 29
f 12 29 13
f 13 29 30
f 13 30 31
f 13 31 18
f 14 32 28
f 14 27 32
f 15 33 34
f 15 34 35
f 15 35 16
f 15 19 30
f 15 30 33
f 16 36 17
f 16 35 37
f 16 37 36
f 17 36 38
f 17 38 39
f 17 39 40
f 18 31 41
f 18 41 19
f 19 41 42
f 19 42 30
f 21 40 39
f 21 39 22
f 22 39 38
f 22 38 43
f 22 43 44
f 22 44 23
f 23 44 45
f 23 45 24
f 24 45 46
f 24 46 26
f 24 26 25
f 26 47 27
f 26 46 48
f 26 48 47
f 27 47 32
f 28 32 49
f 28 49 47
f 28 47 29
f 29 47 50
f 29 50 51
f 29 51 30
f 30 42 31
f 30 51 33
f 31 42 41
f 32 47 49
f 33 51 34
f 34 51 52
f 34 52 35
f 35 52 51
f 35 51 53
f 35 53 37
f 36 37 54
f 36 54 55
f 36 55 56
f 36 56 57
f 36 57 43
f 36 43 38
f 37 53 58
f 37 58 54
f 43 57 44
f 44 57 56
f 44 56 45
f 45 56 46
f 46 56 58
f 46 58 48
f 47 48 59
f 47 59 50
f 48 58 59
f 50 59 51
f 51 59 53
f 53 59 60
f 53 60 58
f 54 58 55
f 55 58 56
f 58 60 59

