# https://github.com/mikedh/trimesh

o lower_grip_shell_270.obj
v 0.03400756 -0.02172948 -0.02669550
v 0.03400895 -0.02217197 -0.02669550
v 0.03400895 -0.02242816 -0.02739123
v 0.03395761 -0.02172948 -0.02712761
v 0.02692025 -0.02172948 -0.02669550
v 0.03393818 -0.02510021 -0.02685813
v 0.03400895 -0.02403240 -0.02739123
v 0.03061448 -0.02521394 -0.02669550
v 0.03267115 -0.02511302 -0.02672880
v 0.03326372 -0.02508197 -0.02674297
v 0.02692025 -0.02359146 -0.02739123
v 0.02696050 -0.02274450 -0.02739021
v 0.02702711 -0.02172948 -0.02706386
v 0.02695009 -0.02569486 -0.02729895
v 0.02707707 -0.02541151 -0.02673602
v 0.02994905 -0.02525004 -0.02669550
v 0.03369462 -0.02515378 -0.02691649
v 0.03392360 -0.02528187 -0.02728179
v 0.03341152 -0.02534708 -0.02737768
v 0.02994558 -0.02557182 -0.02738108
v 0.03132155 -0.02518444 -0.02671014
v 0.03014611 -0.02530360 -0.02678887
v 0.03217433 -0.02517474 -0.02677497
v 0.02723736 -0.02569292 -0.02732837
v 0.02853492 -0.02564402 -0.02737012
v 0.02752046 -0.02565450 -0.02724515
v 0.02778344 -0.02559006 -0.02711344
v 0.02729148 -0.02554892 -0.02698344
v 0.02803185 -0.02545188 -0.02686010
v 0.02760928 -0.02542704 -0.02679398
v 0.02811651 -0.02536571 -0.02673350
v 0.02924754 -0.02533815 -0.02677123
v 0.03272180 -0.02528032 -0.02704738
v 0.03364744 -0.02529390 -0.02725305
v 0.03239776 -0.02526091 -0.02695013
v 0.03278425 -0.02538745 -0.02736154
v 0.03245049 -0.02541229 -0.02736787
v 0.03161575 -0.02545887 -0.02733661
v 0.03029183 -0.02553999 -0.02733893
v 0.02990048 -0.02553960 -0.02726082
v 0.02927113 -0.02560481 -0.02736488
v 0.02967011 -0.02534048 -0.02680998
v 0.03028281 -0.02535794 -0.02689150
v 0.02814981 -0.02565488 -0.02734165
v 0.02778830 -0.02566109 -0.02730501
v 0.02907962 -0.02557221 -0.02722561
v 0.02804018 -0.02561491 -0.02720170
v 0.02848010 -0.02555086 -0.02709655
v 0.02986787 -0.02543402 -0.02699597
v 0.03311176 -0.02532263 -0.02722581
v 0.03057562 -0.02542820 -0.02706754
v 0.03210425 -0.02539832 -0.02724992
v 0.03115987 -0.02534824 -0.02697472
v 0.03097946 -0.02548022 -0.02727430
v 0.03015444 -0.02547245 -0.02711950
v 0.02934121 -0.02551864 -0.02712413
f 1 2 3
f 1 3 4
f 1 4 13
f 1 13 5
f 1 5 16
f 1 16 8
f 1 8 2
f 2 6 7
f 2 7 3
f 2 8 9
f 2 9 10
f 2 10 6
f 3 7 11
f 3 11 12
f 3 12 13
f 3 13 4
f 5 13 12
f 5 12 11
f 5 11 14
f 5 14 15
f 5 15 16
f 6 10 17
f 6 17 18
f 6 18 7
f 7 18 19
f 7 19 20
f 7 20 11
f 8 21 9
f 8 16 22
f 8 22 21
f 9 21 23
f 9 23 10
f 10 23 17
f 11 24 14
f 11 20 25
f 11 25 24
f 14 24 26
f 14 26 27
f 14 27 28
f 14 28 15
f 15 28 29
f 15 29 30
f 15 30 31
f 15 31 16
f 16 32 22
f 16 31 32
f 17 33 34
f 17 34 18
f 17 23 35
f 17 35 33
f 18 34 19
f 19 34 36
f 19 36 37
f 19 37 20
f 20 37 38
f 20 38 39
f 20 39 40
f 20 40 41
f 20 41 25
f 21 22 23
f 22 32 42
f 22 42 43
f 22 43 23
f 23 43 35
f 24 44 45
f 24 45 26
f 24 25 44
f 25 41 46
f 25 46 44
f 26 45 46
f 26 46 47
f 26 47 27
f 27 47 48
f 27 48 28
f 28 48 29
f 29 31 30
f 29 48 49
f 29 49 43
f 29 43 42
f 29 42 32
f 29 32 31
f 33 50 34
f 33 35 51
f 33 51 52
f 33 52 50
f 34 50 36
f 35 43 53
f 35 53 51
f 36 50 37
f 37 50 38
f 38 52 54
f 38 54 39
f 38 50 52
f 39 54 40
f 40 46 41
f 40 54 55
f 40 55 46
f 43 49 53
f 44 46 45
f 46 55 56
f 46 56 47
f 47 56 48
f 48 56 49
f 49 56 51
f 49 51 53
f 51 55 54
f 51 54 52
f 51 56 55

