# https://github.com/mikedh/trimesh

o lower_grip_cassette_pad_010.obj
v 0.03580528 0.00495917 -0.02689994
v 0.03592732 0.00429650 -0.02689994
v 0.03580528 0.00495917 -0.02630006
v 0.03592732 0.00570350 -0.02689994
v 0.03681258 0.00498883 -0.02690991
v 0.03592732 0.00429650 -0.02630006
v 0.03695869 0.00442457 -0.02690991
v 0.03620966 0.00372966 -0.02689994
v 0.03681258 0.00498883 -0.02629994
v 0.03592732 0.00570350 -0.02630006
v 0.03695869 0.00557543 -0.02690991
v 0.03620966 0.00627034 -0.02689994
v 0.03695869 0.00442457 -0.02629994
v 0.03620966 0.00372966 -0.02630006
v 0.03741207 0.00396989 -0.02690991
v 0.03658783 0.00332785 -0.02689994
v 0.03695869 0.00557543 -0.02629994
v 0.03620966 0.00627034 -0.02630006
v 0.03658783 0.00667215 -0.02689994
v 0.03741207 0.00603011 -0.02690991
v 0.03658783 0.00332785 -0.02630006
v 0.03741207 0.00396989 -0.02629994
v 0.03801112 0.00381261 -0.02690991
v 0.03729647 0.00292732 -0.02689994
v 0.03741207 0.00603011 -0.02629994
v 0.03658783 0.00667215 -0.02630006
v 0.03729647 0.00707268 -0.02689994
v 0.03801112 0.00618739 -0.02690991
v 0.03729647 0.00292732 -0.02630006
v 0.03801112 0.00381261 -0.02629994
v 0.03870343 0.00292732 -0.02689994
v 0.03804077 0.00280485 -0.02689994
v 0.03858783 0.00396989 -0.02690991
v 0.03804937 0.00617923 -0.02629994
v 0.03729647 0.00707268 -0.02630006
v 0.03804077 0.00719515 -0.02689994
v 0.03870343 0.00707268 -0.02689994
v 0.03858783 0.00603011 -0.02690991
v 0.03804077 0.00280485 -0.02630006
v 0.03870343 0.00292732 -0.02630006
v 0.03858783 0.00396989 -0.02629994
v 0.03927025 0.00320967 -0.02689994
v 0.03904120 0.00442457 -0.02690991
v 0.03967205 0.00358785 -0.02689994
v 0.03870343 0.00707268 -0.02630006
v 0.03804077 0.00719515 -0.02630006
v 0.03873308 0.00592052 -0.02629994
v 0.03941206 0.00667215 -0.02689994
v 0.03904120 0.00557543 -0.02690991
v 0.03927025 0.00320967 -0.02630006
v 0.03904120 0.00442457 -0.02629994
v 0.03967205 0.00358785 -0.02630006
v 0.04007257 0.00429650 -0.02689994
v 0.03918774 0.00498883 -0.02690991
v 0.03941206 0.00667215 -0.02630006
v 0.03910609 0.00545768 -0.02629994
v 0.03979023 0.00627034 -0.02630006
v 0.03979023 0.00627034 -0.02689994
v 0.04007257 0.00570350 -0.02689994
v 0.04007257 0.00429650 -0.02630006
v 0.03918774 0.00498883 -0.02629994
v 0.04019461 0.00495917 -0.02689994
v 0.04007257 0.00570350 -0.02630006
v 0.04019461 0.00495917 -0.02630006
f 1 2 6
f 1 6 3
f 1 3 10
f 1 10 4
f 1 4 5
f 1 5 2
f 2 5 7
f 2 7 8
f 2 8 14
f 2 14 6
f 3 6 9
f 3 9 10
f 4 11 5
f 4 10 18
f 4 18 12
f 4 12 11
f 5 11 20
f 5 20 28
f 5 28 38
f 5 38 49
f 5 49 54
f 5 54 43
f 5 43 33
f 5 33 23
f 5 23 15
f 5 15 7
f 6 13 9
f 6 14 13
f 7 15 16
f 7 16 8
f 8 16 21
f 8 21 14
f 9 17 10
f 9 13 22
f 9 22 30
f 9 30 41
f 9 41 51
f 9 51 61
f 9 61 56
f 9 56 47
f 9 47 34
f 9 34 25
f 9 25 17
f 10 17 18
f 11 12 19
f 11 19 20
f 12 18 26
f 12 26 19
f 13 14 21
f 13 21 22
f 15 23 24
f 15 24 16
f 16 24 29
f 16 29 21
f 17 25 26
f 17 26 18
f 19 26 35
f 19 35 27
f 19 27 20
f 20 27 28
f 21 29 22
f 22 29 30
f 23 31 32
f 23 32 24
f 23 33 31
f 24 32 39
f 24 39 29
f 25 34 35
f 25 35 26
f 27 35 46
f 27 46 36
f 27 36 28
f 28 36 37
f 28 37 38
f 29 39 30
f 30 39 40
f 30 40 41
f 31 40 39
f 31 39 32
f 31 33 42
f 31 42 50
f 31 50 40
f 33 43 44
f 33 44 42
f 34 45 46
f 34 46 35
f 34 47 45
f 36 46 45
f 36 45 37
f 37 45 55
f 37 55 48
f 37 48 38
f 38 48 49
f 40 50 41
f 41 50 52
f 41 52 51
f 42 44 52
f 42 52 50
f 43 53 44
f 43 54 53
f 44 53 60
f 44 60 52
f 45 47 55
f 47 56 57
f 47 57 55
f 48 55 57
f 48 57 58
f 48 58 49
f 49 58 59
f 49 59 54
f 51 52 60
f 51 60 61
f 53 54 62
f 53 62 64
f 53 64 60
f 54 59 62
f 56 61 63
f 56 63 57
f 57 63 59
f 57 59 58
f 59 63 64
f 59 64 62
f 60 64 61
f 61 64 63

