# https://github.com/mikedh/trimesh

o lower_grip_shell_122.obj
v 0.00000064 -0.02048585 -0.03091536
v 0.00119671 -0.02325167 -0.03088585
v 0.00021538 -0.02300809 -0.03085242
v 0.00004014 -0.02299226 -0.03050182
v 0.00000064 -0.02077961 -0.03015993
v 0.00062830 -0.02056884 -0.03091536
v 0.00418592 -0.02389786 -0.03091536
v 0.00249027 -0.02356318 -0.03078239
v 0.00203784 -0.02346436 -0.03076701
v 0.00174089 -0.02339488 -0.03077707
v 0.00141527 -0.02331845 -0.03077270
v 0.00101446 -0.02323237 -0.03068381
v 0.00070541 -0.02314204 -0.03079200
v 0.00355507 -0.02377395 -0.03089162
v 0.00046836 -0.02310961 -0.03047039
v 0.00015293 -0.02303588 -0.03019262
v 0.00098133 -0.02324858 -0.03015993
v 0.00040846 -0.02084099 -0.03015993
v 0.00071879 -0.02089155 -0.03015993
v 0.00135728 -0.02068812 -0.03091536
v 0.00621866 -0.02429739 -0.03091536
v 0.00616895 -0.02430279 -0.03084370
v 0.00479893 -0.02403027 -0.03085864
v 0.00442169 -0.02396619 -0.03079555
v 0.00392083 -0.02385077 -0.03087912
v 0.00313705 -0.02370331 -0.03078343
v 0.00279040 -0.02363189 -0.03075495
v 0.00304401 -0.02370794 -0.03058154
v 0.00202892 -0.02349525 -0.03040901
v 0.00249728 -0.02359986 -0.03043223
v 0.00093608 -0.02323352 -0.03039843
v 0.00413876 -0.02391523 -0.03075599
v 0.00390363 -0.02387277 -0.03071576
v 0.00153890 -0.02338330 -0.03027315
v 0.00249473 -0.02361144 -0.03016555
v 0.00350791 -0.02383185 -0.03016104
v 0.00413558 -0.02396348 -0.03015993
v 0.00134072 -0.02101006 -0.03015993
v 0.00651051 -0.02165664 -0.03091536
v 0.00167399 -0.02074603 -0.03091536
v 0.00637860 -0.02436186 -0.03073196
v 0.00574010 -0.02422829 -0.03078794
v 0.00503852 -0.02410052 -0.03072323
v 0.00468614 -0.02403181 -0.03071273
v 0.00363982 -0.02382104 -0.03069402
v 0.00296627 -0.02371026 -0.03030081
v 0.00332694 -0.02376777 -0.03057843
v 0.00359075 -0.02383494 -0.03044657
v 0.00468614 -0.02405150 -0.03054589
v 0.00436307 -0.02398549 -0.03054744
v 0.00398200 -0.02391832 -0.03042513
v 0.00459692 -0.02405767 -0.03018648
v 0.00624733 -0.02439081 -0.03020941
v 0.00651051 -0.02222293 -0.03015993
v 0.00169119 -0.02108456 -0.03015993
v 0.00647036 -0.02442941 -0.03029349
v 0.00198814 -0.02115250 -0.03015993
v 0.00585735 -0.02428542 -0.03055462
v 0.00536733 -0.02418004 -0.03061807
v 0.00505828 -0.02412870 -0.03052548
v 0.00560374 -0.02424489 -0.03045648
v 0.00499965 -0.02413488 -0.03029364
v 0.00547247 -0.02423293 -0.03024239
v 0.00593509 -0.02431939 -0.03035909
f 1 2 3
f 1 3 4
f 1 4 5
f 1 5 6
f 1 6 20
f 1 20 40
f 1 40 39
f 1 39 21
f 1 21 7
f 1 7 2
f 2 8 9
f 2 9 10
f 2 10 11
f 2 11 12
f 2 12 13
f 2 13 3
f 2 7 14
f 2 14 8
f 3 15 4
f 3 13 15
f 4 16 5
f 4 15 16
f 5 16 17
f 5 17 37
f 5 37 54
f 5 54 57
f 5 57 55
f 5 55 38
f 5 38 19
f 5 19 18
f 5 18 6
f 6 18 19
f 6 19 20
f 7 21 22
f 7 22 23
f 7 23 24
f 7 24 25
f 7 25 14
f 8 26 27
f 8 27 28
f 8 28 9
f 8 14 26
f 9 29 10
f 9 28 30
f 9 30 29
f 10 29 12
f 10 12 11
f 12 29 31
f 12 31 15
f 12 15 13
f 14 25 32
f 14 32 33
f 14 33 26
f 15 31 16
f 16 31 17
f 17 31 34
f 17 34 35
f 17 35 36
f 17 36 37
f 19 38 39
f 19 39 40
f 19 40 20
f 21 39 41
f 21 41 22
f 22 41 42
f 22 42 23
f 23 42 43
f 23 43 24
f 24 32 25
f 24 43 44
f 24 44 32
f 26 28 27
f 26 33 45
f 26 45 28
f 28 46 30
f 28 45 47
f 28 47 48
f 28 48 46
f 29 30 35
f 29 35 34
f 29 34 31
f 30 46 35
f 32 44 33
f 33 44 49
f 33 49 50
f 33 50 45
f 35 46 36
f 36 48 51
f 36 51 37
f 36 46 48
f 37 51 52
f 37 52 53
f 37 53 54
f 38 55 39
f 39 54 56
f 39 56 41
f 39 55 57
f 39 57 54
f 41 56 58
f 41 58 43
f 41 43 42
f 43 58 59
f 43 59 44
f 44 59 49
f 45 50 47
f 47 50 51
f 47 51 48
f 49 51 50
f 49 59 60
f 49 60 51
f 51 60 61
f 51 61 62
f 51 62 52
f 52 62 63
f 52 63 53
f 53 56 54
f 53 63 62
f 53 62 64
f 53 64 56
f 56 64 58
f 58 61 60
f 58 60 59
f 58 64 61
f 61 64 62

