# https://github.com/mikedh/trimesh

o lower_grip_shell_119.obj
v 0.00000000 -0.01946050 -0.02739119
v 0.00032974 -0.01951147 -0.02739119
v 0.00012164 -0.02033760 -0.02790487
v 0.00001530 -0.02290129 -0.02783086
v 0.00004896 -0.02282508 -0.02751765
v 0.00051335 -0.02291542 -0.02741764
v 0.00682429 -0.02432393 -0.02740949
v 0.00781580 -0.02204084 -0.02739119
v 0.00081708 -0.01959272 -0.02739119
v 0.00074593 -0.02043954 -0.02790487
v 0.00070691 -0.02309861 -0.02789009
v 0.00532631 -0.02414478 -0.02790487
v 0.00374800 -0.02381271 -0.02790432
v 0.00033586 -0.02297800 -0.02779315
v 0.00069237 -0.02303351 -0.02763405
v 0.00103512 -0.02306328 -0.02745374
v 0.00216358 -0.02332773 -0.02742317
v 0.00623214 -0.02422754 -0.02748019
v 0.00746082 -0.02445414 -0.02741673
v 0.00444114 -0.02383491 -0.02742699
v 0.00497592 -0.02394745 -0.02742644
v 0.00776454 -0.02453892 -0.02749311
v 0.00778061 -0.02461563 -0.02778088
v 0.00781350 -0.02214934 -0.02790367
v 0.00781121 -0.02129898 -0.02739149
v 0.00171755 -0.01978499 -0.02739119
v 0.00119808 -0.01966943 -0.02739119
v 0.00112616 -0.02051423 -0.02790487
v 0.00142147 -0.02327171 -0.02785675
v 0.00099457 -0.02315866 -0.02782256
v 0.00627881 -0.02434109 -0.02790487
v 0.00479001 -0.02402214 -0.02784463
v 0.00402572 -0.02385561 -0.02782125
v 0.00346034 -0.02371985 -0.02776011
v 0.00312525 -0.02365223 -0.02778555
v 0.00287431 -0.02360428 -0.02782020
v 0.00223243 -0.02346247 -0.02784257
v 0.00182159 -0.02334640 -0.02775865
v 0.00172214 -0.02325253 -0.02751152
v 0.00141306 -0.02316371 -0.02747350
v 0.00250861 -0.02344380 -0.02752675
v 0.00314514 -0.02356340 -0.02745641
v 0.00620842 -0.02425732 -0.02759177
v 0.00716474 -0.02444505 -0.02757708
v 0.00536686 -0.02405797 -0.02751247
v 0.00409228 -0.02378142 -0.02749150
v 0.00468596 -0.02393383 -0.02757120
v 0.00357281 -0.02366434 -0.02747597
v 0.00741415 -0.02453841 -0.02775518
v 0.00703851 -0.02449400 -0.02790487
v 0.00192794 -0.02069591 -0.02790487
v 0.00154771 -0.02060557 -0.02790487
v 0.00664221 -0.02440619 -0.02785947
v 0.00576316 -0.02420988 -0.02778369
v 0.00536992 -0.02411046 -0.02769454
v 0.00460793 -0.02396209 -0.02774181
v 0.00434475 -0.02392474 -0.02782915
v 0.00377784 -0.02377385 -0.02769479
v 0.00284677 -0.02352858 -0.02755446
v 0.00259583 -0.02354019 -0.02781527
v 0.00691227 -0.02440821 -0.02762576
v 0.00438759 -0.02388033 -0.02760253
f 1 2 3
f 1 3 4
f 1 4 5
f 1 5 6
f 1 6 7
f 1 7 8
f 1 8 26
f 1 26 27
f 1 27 9
f 1 9 2
f 2 9 10
f 2 10 3
f 3 11 4
f 3 10 28
f 3 28 52
f 3 52 51
f 3 51 50
f 3 50 31
f 3 31 12
f 3 12 13
f 3 13 11
f 4 11 14
f 4 14 15
f 4 15 5
f 5 15 6
f 6 15 16
f 6 16 17
f 6 17 7
f 7 18 19
f 7 19 8
f 7 17 20
f 7 20 21
f 7 21 18
f 8 19 22
f 8 22 23
f 8 23 24
f 8 24 25
f 8 25 26
f 9 27 28
f 9 28 10
f 11 29 30
f 11 30 14
f 11 13 29
f 12 31 32
f 12 32 13
f 13 32 33
f 13 33 34
f 13 34 35
f 13 35 36
f 13 36 37
f 13 37 29
f 14 30 15
f 15 30 38
f 15 38 39
f 15 39 40
f 15 40 16
f 16 40 17
f 17 40 39
f 17 39 41
f 17 41 42
f 17 42 20
f 18 43 44
f 18 44 19
f 18 21 45
f 18 45 43
f 19 44 22
f 20 46 47
f 20 47 21
f 20 42 48
f 20 48 46
f 21 47 45
f 22 44 23
f 23 44 49
f 23 49 50
f 23 50 24
f 24 50 51
f 24 51 26
f 24 26 25
f 26 51 52
f 26 52 27
f 27 52 28
f 29 37 38
f 29 38 30
f 31 50 53
f 31 53 54
f 31 54 32
f 32 54 55
f 32 55 56
f 32 56 57
f 32 57 33
f 33 58 34
f 33 57 56
f 33 56 58
f 34 58 35
f 35 58 59
f 35 59 60
f 35 60 36
f 36 60 37
f 37 60 38
f 38 60 41
f 38 41 39
f 41 60 59
f 41 59 42
f 42 59 48
f 43 61 44
f 43 45 47
f 43 47 62
f 43 62 55
f 43 55 61
f 44 61 49
f 46 62 47
f 46 48 62
f 48 59 62
f 49 61 53
f 49 53 50
f 53 61 55
f 53 55 54
f 55 62 56
f 56 62 58
f 58 62 59

