# https://github.com/mikedh/trimesh

o lower_grip_shell_208.obj
v 0.01976565 0.02589668 -0.03045854
v 0.02056190 0.02320323 -0.03036970
v 0.02029375 0.02584227 -0.03061721
v 0.01976155 0.02574100 -0.03089390
v 0.01921748 0.02581596 -0.03066749
v 0.01811431 0.02582533 -0.03058647
v 0.01741245 0.02584299 -0.03043379
v 0.02056190 0.02221509 -0.03078760
v 0.02053044 0.02356758 -0.03249597
v 0.02044744 0.02514097 -0.03165390
v 0.01590340 0.02323567 -0.03036970
v 0.02014554 0.02541126 -0.03138789
v 0.01955222 0.02551000 -0.03128054
v 0.01856807 0.02567253 -0.03100776
v 0.01682735 0.02573776 -0.03071152
v 0.01619755 0.02576514 -0.03049606
v 0.02051721 0.02223346 -0.03288938
v 0.01590340 0.02221509 -0.03090276
v 0.02048392 0.02297079 -0.03269372
v 0.01997999 0.02307566 -0.03267965
v 0.01921794 0.02331171 -0.03262858
v 0.01843628 0.02337261 -0.03262988
v 0.01839706 0.02373659 -0.03249466
v 0.01984911 0.02371965 -0.03245793
v 0.02042418 0.02417445 -0.03224949
v 0.02041780 0.02474636 -0.03194570
v 0.01998729 0.02492367 -0.03183810
v 0.01933013 0.02505449 -0.03174639
v 0.01854254 0.02507971 -0.03173675
v 0.01901591 0.02540189 -0.03141863
v 0.01600829 0.02512296 -0.03166119
v 0.01598092 0.02468870 -0.03203090
v 0.01590340 0.02224355 -0.03303138
v 0.01852703 0.02540801 -0.03141316
v 0.01739740 0.02561090 -0.03107342
v 0.01638818 0.02551288 -0.03117919
v 0.01655919 0.02224103 -0.03301548
v 0.01841530 0.02224355 -0.03295973
v 0.01991751 0.02238770 -0.03287427
v 0.01921794 0.02260249 -0.03284196
v 0.01882711 0.02299061 -0.03274348
v 0.01733310 0.02323927 -0.03270205
v 0.01658154 0.02327279 -0.03270596
v 0.01595721 0.02323711 -0.03272993
v 0.01758347 0.02391173 -0.03243708
v 0.01903826 0.02400039 -0.03236596
v 0.01832546 0.02414670 -0.03231671
v 0.01941632 0.02444041 -0.03214632
v 0.01991250 0.02451789 -0.03209421
v 0.01885721 0.02469663 -0.03200980
v 0.01713062 0.02466059 -0.03205513
v 0.01752601 0.02491214 -0.03187484
v 0.01671425 0.02509196 -0.03170965
v 0.01797476 0.02527395 -0.03154630
v 0.01720085 0.02532404 -0.03148377
v 0.01649945 0.02445194 -0.03218045
v 0.01610771 0.02398165 -0.03242484
v 0.01609995 0.02273114 -0.03289277
v 0.01749682 0.02253870 -0.03291049
v 0.01796837 0.02246338 -0.03291856
v 0.01808558 0.02289728 -0.03279298
v 0.01703029 0.02282412 -0.03284249
v 0.01702208 0.02402057 -0.03239748
v 0.01790225 0.02461086 -0.03207884
f 1 2 3
f 1 3 4
f 1 4 5
f 1 5 6
f 1 6 7
f 1 7 2
f 2 8 9
f 2 9 10
f 2 10 3
f 2 7 11
f 2 11 8
f 3 12 4
f 3 10 12
f 4 13 14
f 4 14 6
f 4 6 5
f 4 12 13
f 6 15 7
f 6 14 15
f 7 15 16
f 7 16 11
f 8 17 9
f 8 11 18
f 8 18 17
f 9 17 19
f 9 19 20
f 9 20 21
f 9 21 22
f 9 22 23
f 9 23 24
f 9 24 25
f 9 25 26
f 9 26 10
f 10 26 27
f 10 27 28
f 10 28 29
f 10 29 30
f 10 30 12
f 11 16 31
f 11 31 32
f 11 32 33
f 11 33 18
f 12 30 13
f 13 30 34
f 13 34 14
f 14 34 35
f 14 35 15
f 15 36 16
f 15 35 36
f 16 36 31
f 17 18 37
f 17 37 38
f 17 38 39
f 17 39 19
f 18 33 37
f 19 39 40
f 19 40 41
f 19 41 20
f 20 41 21
f 21 41 22
f 22 41 42
f 22 42 43
f 22 43 23
f 23 43 44
f 23 44 45
f 23 45 46
f 23 46 24
f 24 46 25
f 25 46 47
f 25 47 48
f 25 48 49
f 25 49 26
f 26 49 50
f 26 50 27
f 27 50 51
f 27 51 52
f 27 52 29
f 27 29 28
f 29 52 53
f 29 53 54
f 29 54 30
f 30 54 34
f 31 36 55
f 31 55 53
f 31 53 32
f 32 53 52
f 32 52 51
f 32 51 56
f 32 56 57
f 32 57 44
f 32 44 33
f 33 44 58
f 33 58 59
f 33 59 37
f 34 54 55
f 34 55 36
f 34 36 35
f 37 60 38
f 37 59 60
f 38 60 39
f 39 60 40
f 40 60 61
f 40 61 41
f 41 61 42
f 42 61 62
f 42 62 58
f 42 58 43
f 43 58 44
f 44 57 45
f 45 47 46
f 45 57 63
f 45 63 47
f 47 63 56
f 47 56 64
f 47 64 48
f 48 64 49
f 49 64 50
f 50 64 51
f 51 64 56
f 53 55 54
f 56 63 57
f 58 62 59
f 59 62 61
f 59 61 60

