# https://github.com/mikedh/trimesh

o lower_grip_carrier_138.obj
v 0.06797306 0.00297355 -0.02570064
v 0.06797306 0.00297355 -0.02530050
v 0.06797306 0.00365107 -0.02570064
v 0.06959372 0.00297355 -0.02570064
v 0.06959372 0.00297355 -0.02530050
v 0.06797306 0.00365107 -0.02530050
v 0.06932575 0.00475105 -0.02570064
v 0.06959372 0.00475105 -0.02570064
v 0.06959372 0.00475105 -0.02530050
v 0.06932575 0.00475105 -0.02530050
f 1 2 6
f 1 6 3
f 1 3 7
f 1 7 8
f 1 8 4
f 1 4 5
f 1 5 2
f 2 5 9
f 2 9 10
f 2 10 6
f 3 6 10
f 3 10 7
f 4 8 9
f 4 9 5
f 7 10 9
f 7 9 8

