# https://github.com/mikedh/trimesh

o upper_grip_shell_262.obj
v 0.13889614 -0.00697334 -0.01722553
v 0.13766356 -0.00697334 -0.01688423
v 0.13889614 -0.00699803 -0.01722583
v 0.13889614 -0.00697334 -0.01841200
v 0.13766356 -0.00716538 -0.01688722
v 0.13889614 -0.00710294 -0.01722732
v 0.13766356 -0.00697334 -0.01769994
v 0.13889614 -0.00802405 -0.01841200
v 0.13865855 -0.00697334 -0.01841200
v 0.13766356 -0.00732923 -0.01688991
v 0.13889614 -0.00718039 -0.01722867
v 0.13766356 -0.00802405 -0.01769994
v 0.13879985 -0.00802405 -0.01841200
v 0.13889614 -0.00802405 -0.01724467
v 0.13766356 -0.00760860 -0.01689485
v 0.13889614 -0.00742870 -0.01723301
v 0.13766356 -0.00802405 -0.01690307
v 0.13889614 -0.00792211 -0.01724258
v 0.13766356 -0.00781473 -0.01689873
v 0.13889614 -0.00765797 -0.01723719
v 0.13889614 -0.00756066 -0.01723540
f 1 2 3
f 1 3 6
f 1 6 11
f 1 11 16
f 1 16 21
f 1 21 20
f 1 20 18
f 1 18 14
f 1 14 8
f 1 8 4
f 1 4 9
f 1 9 7
f 1 7 2
f 2 5 6
f 2 6 3
f 2 7 12
f 2 12 17
f 2 17 19
f 2 19 15
f 2 15 10
f 2 10 5
f 4 8 13
f 4 13 9
f 5 10 6
f 6 10 11
f 7 9 12
f 8 14 17
f 8 17 12
f 8 12 13
f 9 13 12
f 10 15 16
f 10 16 11
f 14 18 19
f 14 19 17
f 15 19 20
f 15 20 21
f 15 21 16
f 18 20 19

