# https://github.com/mikedh/trimesh

o upper_grip_shell_074.obj
v 0.14642703 0.00950312 -0.02166020
v 0.15370248 0.00950312 -0.02166020
v 0.14755430 0.00950312 -0.02199979
v 0.14681306 -0.00320311 -0.02167227
v 0.15425995 -0.00320187 -0.02166020
v 0.15411811 0.00950312 -0.02176897
v 0.15399108 0.00807031 -0.02166020
v 0.14950050 0.00950312 -0.02258521
v 0.14950050 -0.00320311 -0.02247303
v 0.15454978 -0.00320311 -0.02173361
v 0.15427598 -0.00283372 -0.02166020
v 0.15822266 0.00950312 -0.02290578
v 0.15853839 0.00839368 -0.02290578
v 0.15403548 0.00770464 -0.02166020
v 0.15878506 0.00686511 -0.02290578
v 0.15874066 0.00720714 -0.02290578
v 0.15057104 0.00950312 -0.02290066
v 0.15034780 -0.00320311 -0.02271922
v 0.15099161 -0.00320311 -0.02290578
v 0.15900706 -0.00318321 -0.02290578
v 0.15901446 -0.00280884 -0.02290578
v 0.15902309 -0.00189344 -0.02290578
v 0.15428091 -0.00219318 -0.02166020
v 0.15407248 0.00735266 -0.02166020
v 0.15881836 0.00655541 -0.02290578
v 0.15902556 -0.00121186 -0.02290578
v 0.15428585 -0.00103027 -0.02166020
v 0.15410948 0.00695963 -0.02166020
v 0.15887386 0.00600816 -0.02290578
v 0.15885289 0.00622582 -0.02290578
v 0.15902679 0.00039881 -0.02290578
v 0.15428585 0.00071846 -0.02166020
v 0.15412921 0.00672207 -0.02166020
v 0.15891579 0.00544225 -0.02290578
v 0.15902556 0.00131422 -0.02290578
v 0.15428091 0.00235151 -0.02166020
v 0.15417361 0.00610144 -0.02166020
v 0.15893306 0.00518355 -0.02290578
v 0.15902309 0.00189878 -0.02290578
v 0.15427845 0.00274454 -0.02166020
v 0.15420815 0.00546339 -0.02166020
v 0.15894909 0.00489499 -0.02290578
v 0.15901446 0.00280921 -0.02290578
v 0.15427475 0.00311393 -0.02166020
v 0.15422295 0.00511887 -0.02166020
v 0.15896389 0.00459027 -0.02290578
v 0.15900829 0.00314876 -0.02290578
v 0.15425995 0.00389999 -0.02166020
v 0.15423651 0.00476689 -0.02166020
v 0.15897622 0.00427187 -0.02290578
v 0.15899966 0.00351691 -0.02290578
v 0.15424885 0.00434152 -0.02166020
v 0.15898856 0.00389626 -0.02290578
f 1 2 6
f 1 6 12
f 1 12 17
f 1 17 8
f 1 8 3
f 1 3 4
f 1 4 5
f 1 5 11
f 1 11 23
f 1 23 27
f 1 27 32
f 1 32 36
f 1 36 40
f 1 40 44
f 1 44 48
f 1 48 52
f 1 52 49
f 1 49 45
f 1 45 41
f 1 41 37
f 1 37 33
f 1 33 28
f 1 28 24
f 1 24 14
f 1 14 7
f 1 7 2
f 2 7 6
f 3 8 4
f 4 9 18
f 4 18 19
f 4 19 10
f 4 10 5
f 4 8 9
f 5 10 11
f 6 7 13
f 6 13 12
f 7 14 15
f 7 15 16
f 7 16 13
f 8 17 9
f 9 17 18
f 10 19 20
f 10 20 21
f 10 21 11
f 11 21 22
f 11 22 23
f 12 13 16
f 12 16 15
f 12 15 25
f 12 25 30
f 12 30 29
f 12 29 34
f 12 34 38
f 12 38 42
f 12 42 46
f 12 46 50
f 12 50 53
f 12 53 51
f 12 51 47
f 12 47 43
f 12 43 39
f 12 39 35
f 12 35 31
f 12 31 26
f 12 26 22
f 12 22 21
f 12 21 20
f 12 20 19
f 12 19 17
f 14 24 25
f 14 25 15
f 17 19 18
f 22 26 27
f 22 27 23
f 24 28 29
f 24 29 30
f 24 30 25
f 26 31 27
f 27 31 32
f 28 33 29
f 29 33 34
f 31 35 32
f 32 35 36
f 33 37 34
f 34 37 38
f 35 39 36
f 36 39 40
f 37 41 42
f 37 42 38
f 39 43 40
f 40 43 44
f 41 45 46
f 41 46 42
f 43 47 44
f 44 47 48
f 45 49 50
f 45 50 46
f 47 51 48
f 48 51 52
f 49 52 51
f 49 51 53
f 49 53 50

