# https://github.com/mikedh/trimesh

o upper_grip_shell_035.obj
v 0.12273753 -0.01717472 -0.01563678
v 0.12273753 -0.01284934 -0.01523698
v 0.12273753 -0.01717472 -0.01340492
v 0.11532875 -0.01717472 -0.01391859
v 0.11666565 -0.01284934 -0.01383159
v 0.12273753 -0.01284934 -0.01303007
v 0.12273753 -0.01683597 -0.01336270
v 0.12041685 -0.01717472 -0.01284520
v 0.11282577 -0.01717472 -0.01333712
v 0.11150037 -0.01284934 -0.01261875
v 0.12273753 -0.01326430 -0.01305373
v 0.12225303 -0.01284934 -0.01291428
v 0.12273753 -0.01640195 -0.01331281
v 0.11987979 -0.01680930 -0.01267248
v 0.11987979 -0.01717472 -0.01271598
v 0.10793804 -0.01717472 -0.01217992
v 0.10596062 -0.01284934 -0.01131635
v 0.11987979 -0.01361533 -0.01239486
v 0.12273753 -0.01383594 -0.01309020
v 0.11987979 -0.01284934 -0.01235136
v 0.11987979 -0.01313135 -0.01236671
v 0.12273753 -0.01591247 -0.01326163
v 0.11987979 -0.01631388 -0.01261811
v 0.10778366 -0.01635834 -0.00979262
v 0.10800866 -0.01717472 -0.00994486
v 0.10700024 -0.01717472 -0.01195539
v 0.10596062 -0.01525826 -0.01150058
v 0.10596062 -0.01284934 -0.01119865
v 0.11987979 -0.01419332 -0.01243388
v 0.10618727 -0.01284934 -0.00915293
v 0.10600003 -0.01343622 -0.00914398
v 0.10964283 -0.01367461 -0.01000883
v 0.12273753 -0.01441689 -0.01313114
v 0.12273753 -0.01547844 -0.01322005
v 0.11987979 -0.01586970 -0.01257333
v 0.10778366 -0.01610132 -0.00976575
v 0.10600003 -0.01632912 -0.00938386
v 0.10600003 -0.01701128 -0.00946126
v 0.10627431 -0.01717472 -0.00954442
v 0.10763584 -0.01717472 -0.00985851
v 0.10596062 -0.01717472 -0.01150058
v 0.10596062 -0.01343961 -0.00913630
v 0.10596390 -0.01284934 -0.00910176
v 0.11987979 -0.01478825 -0.01247802
v 0.10600003 -0.01405062 -0.00918428
v 0.10600003 -0.01456933 -0.00922266
v 0.10600003 -0.01284934 -0.00910943
v 0.12273753 -0.01504696 -0.01318167
v 0.11987979 -0.01543017 -0.01253239
v 0.10600003 -0.01508296 -0.00926488
v 0.10600003 -0.01569736 -0.00931989
v 0.10596062 -0.01633251 -0.00937618
v 0.10600003 -0.01717472 -0.00948173
v 0.10596062 -0.01701466 -0.00945358
v 0.10596062 -0.01717472 -0.00947533
v 0.10596062 -0.01405401 -0.00917660
v 0.10596062 -0.01456510 -0.00921434
v 0.10596062 -0.01507914 -0.00925656
v 0.10596062 -0.01508634 -0.00925720
v 0.10596062 -0.01570075 -0.00931221
f 1 2 6
f 1 6 11
f 1 11 19
f 1 19 33
f 1 33 48
f 1 48 34
f 1 34 22
f 1 22 13
f 1 13 7
f 1 7 3
f 1 3 8
f 1 8 15
f 1 15 25
f 1 25 40
f 1 40 39
f 1 39 53
f 1 53 55
f 1 55 41
f 1 41 26
f 1 26 16
f 1 16 9
f 1 9 4
f 1 4 5
f 1 5 2
f 2 5 10
f 2 10 17
f 2 17 28
f 2 28 43
f 2 43 47
f 2 47 30
f 2 30 20
f 2 20 12
f 2 12 6
f 3 7 8
f 4 9 5
f 5 9 10
f 6 12 11
f 7 13 14
f 7 14 15
f 7 15 8
f 9 16 17
f 9 17 10
f 11 12 18
f 11 18 19
f 12 20 21
f 12 21 18
f 13 22 23
f 13 23 14
f 14 23 24
f 14 24 15
f 15 24 25
f 16 26 17
f 17 26 27
f 17 27 41
f 17 41 55
f 17 55 54
f 17 54 52
f 17 52 60
f 17 60 59
f 17 59 58
f 17 58 57
f 17 57 56
f 17 56 42
f 17 42 28
f 18 29 19
f 18 21 30
f 18 30 31
f 18 31 32
f 18 32 29
f 19 29 33
f 20 30 21
f 22 34 35
f 22 35 23
f 23 35 36
f 23 36 24
f 24 36 37
f 24 37 38
f 24 38 39
f 24 39 40
f 24 40 25
f 26 41 27
f 28 42 43
f 29 44 33
f 29 32 45
f 29 45 46
f 29 46 44
f 30 47 31
f 31 47 43
f 31 43 42
f 31 42 56
f 31 56 45
f 31 45 32
f 33 44 48
f 34 48 49
f 34 49 35
f 35 49 36
f 36 50 51
f 36 51 37
f 36 49 44
f 36 44 50
f 37 51 60
f 37 60 52
f 37 52 54
f 37 54 38
f 38 53 39
f 38 54 53
f 44 49 48
f 44 46 50
f 45 56 57
f 45 57 46
f 46 57 58
f 46 58 50
f 50 58 59
f 50 59 60
f 50 60 51
f 53 54 55

