# https://github.com/mikedh/trimesh

o upper_grip_shell_056.obj
v 0.13788546 0.02000535 -0.01844258
v 0.13721487 0.02000535 -0.01821841
v 0.13762277 0.01994095 -0.01833119
v 0.13831131 0.01960699 -0.01844258
v 0.13058566 0.02000535 -0.01844258
v 0.13592753 0.02000535 -0.01780131
v 0.13784467 0.01959361 -0.01828592
v 0.13894763 0.01891927 -0.01843437
v 0.13914832 0.01872246 -0.01844258
v 0.13283075 0.01715746 -0.01844258
v 0.12623743 0.01715746 -0.01656385
v 0.12565006 0.01715746 -0.01639597
v 0.12359750 0.02000535 -0.01639597
v 0.13613801 0.01976394 -0.01779009
v 0.13532710 0.02000535 -0.01760799
v 0.13712513 0.01956740 -0.01804572
v 0.13892153 0.01867479 -0.01835704
v 0.13748571 0.01899677 -0.01799223
v 0.13934901 0.01848049 -0.01843978
v 0.13965412 0.01811865 -0.01844258
v 0.14026597 0.01728764 -0.01844258
v 0.13986459 0.01715746 -0.01829493
v 0.13532710 0.01715746 -0.01694047
v 0.13351928 0.01716694 -0.01640959
v 0.13308854 0.01782065 -0.01639597
v 0.13271980 0.01841721 -0.01639597
v 0.13156462 0.01993426 -0.01639897
v 0.13178326 0.02000535 -0.01648592
v 0.13532710 0.01986429 -0.01756251
v 0.13496815 0.01983558 -0.01743931
v 0.13484415 0.02000535 -0.01745333
v 0.13676618 0.01896081 -0.01775704
v 0.13604664 0.01931345 -0.01762842
v 0.13928211 0.01811363 -0.01832418
v 0.13994128 0.01774705 -0.01844258
v 0.13999839 0.01737211 -0.01837747
v 0.13923806 0.01715746 -0.01810542
v 0.13754282 0.01715746 -0.01759356
v 0.13532710 0.01740863 -0.01698194
v 0.13424861 0.01775179 -0.01672451
v 0.13285685 0.01820785 -0.01639597
v 0.13203126 0.01948573 -0.01642722
v 0.13388966 0.01818890 -0.01670107
v 0.13784467 0.01792295 -0.01783737
v 0.13703539 0.01811586 -0.01763383
v 0.13424861 0.01856607 -0.01688859
v 0.13281280 0.01938816 -0.01664278
v 0.13353071 0.01944307 -0.01687897
v 0.13496815 0.01943917 -0.01732572
v 0.13356007 0.01992646 -0.01702101
v 0.13496815 0.01963765 -0.01738161
v 0.13496815 0.01904025 -0.01722054
v 0.13928211 0.01773395 -0.01823563
v 0.13640559 0.01834306 -0.01749360
v 0.13856257 0.01777158 -0.01802348
v 0.13730461 0.01726897 -0.01754308
v 0.13586716 0.01755303 -0.01716825
v 0.13460920 0.01779388 -0.01683931
v 0.13496815 0.01863995 -0.01712418
v 0.13424861 0.01897056 -0.01698194
f 1 2 3
f 1 3 4
f 1 4 9
f 1 9 20
f 1 20 35
f 1 35 21
f 1 21 10
f 1 10 5
f 1 5 13
f 1 13 28
f 1 28 31
f 1 31 15
f 1 15 6
f 1 6 2
f 2 6 7
f 2 7 4
f 2 4 3
f 4 7 8
f 4 8 9
f 5 10 11
f 5 11 12
f 5 12 13
f 6 14 7
f 6 15 14
f 7 14 16
f 7 16 8
f 8 17 9
f 8 16 18
f 8 18 17
f 9 17 19
f 9 19 20
f 10 21 22
f 10 22 37
f 10 37 38
f 10 38 23
f 10 23 12
f 10 12 11
f 12 23 24
f 12 24 25
f 12 25 41
f 12 41 26
f 12 26 13
f 13 26 27
f 13 27 28
f 14 15 29
f 14 29 30
f 14 30 16
f 15 31 29
f 16 30 18
f 17 18 32
f 17 32 19
f 18 30 33
f 18 33 32
f 19 34 20
f 19 32 34
f 20 34 35
f 21 35 36
f 21 36 22
f 22 36 37
f 23 38 39
f 23 39 24
f 24 39 40
f 24 40 25
f 25 40 41
f 26 42 27
f 26 41 43
f 26 43 44
f 26 44 45
f 26 45 46
f 26 46 42
f 27 42 47
f 27 47 48
f 27 48 28
f 28 48 32
f 28 32 49
f 28 49 33
f 28 33 50
f 28 50 31
f 29 31 30
f 30 51 33
f 30 31 50
f 30 50 51
f 32 33 49
f 32 48 52
f 32 52 34
f 33 51 50
f 34 53 35
f 34 52 54
f 34 54 45
f 34 45 44
f 34 44 53
f 35 53 36
f 36 53 55
f 36 55 56
f 36 56 37
f 37 56 38
f 38 56 39
f 39 56 57
f 39 57 40
f 40 57 58
f 40 58 41
f 41 58 57
f 41 57 43
f 42 46 59
f 42 59 60
f 42 60 47
f 43 57 56
f 43 56 44
f 44 56 55
f 44 55 53
f 45 54 46
f 46 54 59
f 47 60 52
f 47 52 48
f 52 60 54
f 54 60 59

