# https://github.com/mikedh/trimesh

o upper_grip_shell_159.obj
v 0.15242639 -0.01798958 -0.02338524
v 0.15155527 -0.01810735 -0.02298832
v 0.15113287 -0.01835442 -0.02297119
v 0.15157930 -0.01826728 -0.02315094
v 0.15061317 -0.01868561 -0.02299327
v 0.15187579 -0.01828765 -0.02336070
v 0.15187579 -0.01832059 -0.02340007
v 0.15223752 -0.01823753 -0.02355280
v 0.15271028 -0.01810115 -0.02372089
v 0.15316588 -0.01804909 -0.02401310
v 0.14803070 -0.01798975 -0.02416477
v 0.14456336 -0.01799471 -0.02236223
v 0.15042887 -0.01803881 -0.02236470
v 0.15075626 -0.01822177 -0.02265462
v 0.15098406 -0.01829509 -0.02283383
v 0.15053876 -0.01847574 -0.02274484
v 0.15053876 -0.01857953 -0.02283948
v 0.15009461 -0.01880357 -0.02279693
v 0.14979584 -0.01896686 -0.02278510
v 0.14994466 -0.01900618 -0.02292458
v 0.15151406 -0.01843182 -0.02329025
v 0.15187579 -0.01839870 -0.02350195
v 0.14994466 -0.01908960 -0.02302840
v 0.15113401 -0.01871590 -0.02338753
v 0.15276523 -0.01821362 -0.02393559
v 0.15150490 -0.01857244 -0.02346469
v 0.15157930 -0.01861389 -0.02358599
v 0.15274462 -0.01829934 -0.02408125
v 0.14330304 -0.01979874 -0.02416547
v 0.15192272 -0.01872121 -0.02415329
v 0.15087645 -0.01919356 -0.02416547
v 0.14147264 -0.01979874 -0.02236187
v 0.14824934 -0.01948385 -0.02238836
v 0.14915252 -0.01894366 -0.02239136
v 0.15039109 -0.01819786 -0.02245192
v 0.15039109 -0.01831262 -0.02253455
v 0.15023427 -0.01845413 -0.02256527
v 0.14970999 -0.01870049 -0.02248812
v 0.14798834 -0.01973463 -0.02251283
v 0.14836037 -0.01964625 -0.02265585
v 0.14869577 -0.01962677 -0.02286579
v 0.15009461 -0.01910713 -0.02316188
v 0.15113401 -0.01878550 -0.02349312
v 0.15150490 -0.01870563 -0.02367727
v 0.15183916 -0.01861672 -0.02382718
v 0.15079060 -0.01904373 -0.02365715
v 0.15035332 -0.01924971 -0.02364814
v 0.14938375 -0.01977767 -0.02394865
v 0.14990459 -0.01957736 -0.02403711
v 0.15107792 -0.01904090 -0.02397214
v 0.15045405 -0.01930071 -0.02390381
v 0.14903804 -0.01972294 -0.02334198
v 0.15009461 -0.01917957 -0.02327312
v 0.15113401 -0.01884962 -0.02360223
v 0.14959666 -0.01959011 -0.02363825
f 1 2 3
f 1 3 4
f 1 4 5
f 1 5 6
f 1 6 7
f 1 7 8
f 1 8 9
f 1 9 10
f 1 10 11
f 1 11 12
f 1 12 13
f 1 13 2
f 2 13 14
f 2 14 15
f 2 15 3
f 3 15 16
f 3 16 17
f 3 17 4
f 4 17 18
f 4 18 5
f 5 18 19
f 5 19 20
f 5 20 6
f 6 20 21
f 6 21 7
f 7 22 8
f 7 21 20
f 7 20 23
f 7 23 24
f 7 24 22
f 8 22 9
f 9 25 10
f 9 22 26
f 9 26 27
f 9 27 25
f 10 25 28
f 10 28 11
f 11 29 12
f 11 28 30
f 11 30 31
f 11 31 29
f 12 29 32
f 12 32 13
f 13 32 33
f 13 33 34
f 13 34 35
f 13 35 14
f 14 35 36
f 14 36 15
f 15 36 37
f 15 37 16
f 16 37 38
f 16 38 34
f 16 34 17
f 17 34 18
f 18 34 33
f 18 33 19
f 19 33 20
f 20 33 39
f 20 39 23
f 22 24 26
f 23 39 40
f 23 40 41
f 23 41 42
f 23 42 24
f 24 43 27
f 24 27 26
f 24 42 43
f 25 27 44
f 25 44 28
f 27 43 44
f 28 44 45
f 28 45 46
f 28 46 47
f 28 47 30
f 29 48 32
f 29 31 49
f 29 49 48
f 30 47 50
f 30 50 51
f 30 51 31
f 31 51 48
f 31 48 49
f 32 48 39
f 32 39 33
f 34 38 36
f 34 36 35
f 36 38 37
f 39 48 52
f 39 52 41
f 39 41 40
f 41 52 53
f 41 53 42
f 42 53 43
f 43 54 44
f 43 53 54
f 44 54 45
f 45 54 46
f 46 54 53
f 46 53 47
f 47 53 52
f 47 52 55
f 47 55 51
f 47 51 50
f 48 51 55
f 48 55 52

