# https://github.com/mikedh/trimesh

o upper_grip_shell_178.obj
v 0.17297731 0.00407964 -0.02810876
v 0.17697999 0.00324558 -0.02810876
v 0.16600142 0.00324558 -0.02809991
v 0.16600142 0.00407964 -0.02809991
v 0.17939439 0.00407964 -0.02810556
v 0.17961479 0.00385676 -0.02810708
v 0.17999871 0.00344536 -0.02810770
v 0.18015938 0.00324558 -0.02809915
v 0.16567154 0.00324558 -0.02654921
v 0.16563315 0.00407964 -0.02654921
v 0.17931761 0.00407964 -0.02805030
v 0.17979822 0.00362971 -0.02808663
v 0.17957071 0.00380320 -0.02804373
v 0.17978542 0.00352684 -0.02802236
v 0.17999871 0.00336356 -0.02806297
v 0.18006696 0.00324558 -0.02804526
v 0.17649796 0.00324558 -0.02688033
v 0.17538034 0.00325268 -0.02655806
v 0.17523104 0.00390142 -0.02654921
v 0.17518554 0.00407964 -0.02654982
v 0.17923087 0.00407964 -0.02799458
v 0.17914129 0.00405589 -0.02792847
v 0.17957071 0.00371666 -0.02799626
v 0.17999160 0.00326354 -0.02801167
v 0.17957071 0.00362751 -0.02795366
v 0.17987642 0.00324558 -0.02794756
v 0.17668992 0.00324558 -0.02693589
v 0.17649796 0.00342911 -0.02689071
v 0.17839479 0.00324558 -0.02743875
v 0.17552680 0.00407964 -0.02664981
v 0.17906878 0.00407964 -0.02789993
v 0.17978542 0.00340560 -0.02796694
v 0.17913703 0.00393546 -0.02786924
v 0.17957071 0.00352382 -0.02790970
v 0.17963043 0.00324558 -0.02784146
v 0.17957071 0.00344944 -0.02788191
v 0.17977831 0.00327228 -0.02791245
v 0.17695155 0.00324558 -0.02701222
v 0.17895929 0.00324558 -0.02760835
v 0.17564055 0.00407964 -0.02668416
v 0.17897351 0.00407964 -0.02785092
v 0.17887255 0.00407964 -0.02780253
v 0.17913703 0.00382345 -0.02782375
v 0.17943990 0.00324558 -0.02776971
v 0.17957071 0.00337425 -0.02785627
v 0.17957071 0.00329840 -0.02783291
v 0.17913703 0.00374303 -0.02779490
v 0.17658328 0.00407964 -0.02697452
v 0.17597897 0.00407964 -0.02678736
v 0.17913987 0.00324558 -0.02766621
v 0.17874742 0.00407964 -0.02774483
v 0.17913703 0.00358056 -0.02774437
v 0.17810614 0.00407964 -0.02749019
v 0.17798955 0.00407964 -0.02744745
v 0.17931050 0.00324558 -0.02772407
v 0.17913703 0.00366220 -0.02776849
v 0.17862230 0.00407964 -0.02769094
v 0.17698426 0.00407964 -0.02710534
v 0.17761985 0.00407964 -0.02731830
v 0.17737670 0.00407883 -0.02723571
v 0.17844314 0.00407964 -0.02761751
v 0.17830379 0.00407964 -0.02756439
v 0.17852561 0.00407964 -0.02765110
f 1 2 3
f 1 3 4
f 1 4 10
f 1 10 20
f 1 20 30
f 1 30 40
f 1 40 49
f 1 49 48
f 1 48 58
f 1 58 59
f 1 59 54
f 1 54 53
f 1 53 62
f 1 62 61
f 1 61 63
f 1 63 57
f 1 57 51
f 1 51 42
f 1 42 41
f 1 41 31
f 1 31 21
f 1 21 11
f 1 11 5
f 1 5 6
f 1 6 7
f 1 7 2
f 2 7 8
f 2 8 16
f 2 16 26
f 2 26 35
f 2 35 44
f 2 44 55
f 2 55 50
f 2 50 39
f 2 39 29
f 2 29 38
f 2 38 27
f 2 27 17
f 2 17 9
f 2 9 3
f 3 9 10
f 3 10 4
f 5 11 6
f 6 12 7
f 6 11 13
f 6 13 12
f 7 12 14
f 7 14 15
f 7 15 8
f 8 15 16
f 9 17 18
f 9 18 19
f 9 19 10
f 10 19 20
f 11 21 13
f 12 13 14
f 13 21 22
f 13 22 23
f 13 23 14
f 14 24 15
f 14 23 25
f 14 25 24
f 15 24 16
f 16 24 26
f 17 27 19
f 17 19 18
f 19 27 28
f 19 28 29
f 19 29 30
f 19 30 20
f 21 31 22
f 22 31 23
f 23 31 25
f 24 32 26
f 24 25 32
f 25 31 33
f 25 33 34
f 25 34 32
f 26 32 34
f 26 34 36
f 26 36 37
f 26 37 35
f 27 38 28
f 28 38 29
f 29 39 30
f 30 39 40
f 31 41 33
f 33 41 42
f 33 42 43
f 33 43 34
f 34 43 36
f 35 37 45
f 35 45 46
f 35 46 44
f 36 43 47
f 36 47 45
f 36 45 37
f 39 48 49
f 39 49 40
f 39 50 48
f 42 51 43
f 43 51 47
f 44 52 53
f 44 53 54
f 44 54 55
f 44 46 52
f 45 47 56
f 45 56 46
f 46 56 52
f 47 51 57
f 47 57 56
f 48 50 58
f 50 55 59
f 50 59 60
f 50 60 58
f 52 56 61
f 52 61 62
f 52 62 53
f 54 59 55
f 56 57 63
f 56 63 61
f 58 60 59

