# https://github.com/mikedh/trimesh

o upper_grip_shell_064.obj
v 0.11526704 0.00673144 -0.01111437
v 0.10600018 0.00673144 -0.00893194
v 0.11527295 0.00662056 -0.01111437
v 0.10591034 0.00673144 -0.01111437
v 0.10600018 0.00647273 -0.00892924
v 0.10454614 0.00673144 -0.00863273
v 0.10327533 0.00641827 -0.00836787
v 0.11529423 0.00604286 -0.01111437
v 0.10327533 0.00673144 -0.01057248
v 0.10600609 -0.00320436 -0.01111437
v 0.10600018 0.00587071 -0.00892410
v 0.10327533 0.00673144 -0.00837139
v 0.10327533 0.00581527 -0.00836300
v 0.11530251 0.00579679 -0.01111437
v 0.10327533 -0.00320436 -0.01055219
v 0.11534506 -0.00320436 -0.01111437
v 0.10600018 0.00561590 -0.00892220
v 0.10327533 0.00555949 -0.00836111
v 0.11531315 0.00538053 -0.01111437
v 0.10327533 -0.00320436 -0.00835218
v 0.11534979 -0.00231932 -0.01111437
v 0.10600018 -0.00282700 -0.00891247
v 0.10600018 -0.00320436 -0.00891328
v 0.10600018 0.00498664 -0.00891869
v 0.11531788 0.00519186 -0.01111437
v 0.10327533 0.00492245 -0.00835759
v 0.10327533 -0.00232418 -0.00835110
v 0.11535097 -0.00189819 -0.01111437
v 0.10600018 -0.00219580 -0.00891192
v 0.10600018 0.00429125 -0.00891571
v 0.11532733 0.00472988 -0.01111437
v 0.10327533 0.00422609 -0.00835462
v 0.10327533 -0.00184859 -0.00835083
v 0.10600018 -0.00172507 -0.00891165
v 0.11535216 -0.00106081 -0.01111437
v 0.10600018 0.00363185 -0.00891409
v 0.11533915 0.00388958 -0.01111437
v 0.11533679 0.00408507 -0.01111437
v 0.11533088 0.00452370 -0.01111437
v 0.10327533 0.00355599 -0.00835299
v 0.10327533 0.00177813 -0.00835083
v 0.10600018 0.00140077 -0.00891165
v 0.11535216 0.00110219 -0.01111437
v 0.11534506 0.00327589 -0.01111437
v 0.10600018 0.00299287 -0.00891274
v 0.10327533 0.00291117 -0.00835191
v 0.10327533 0.00223816 -0.00835110
v 0.10600018 0.00186663 -0.00891192
v 0.11535097 0.00174506 -0.01111437
v 0.11534861 0.00262913 -0.01111437
v 0.10600018 0.00232082 -0.00891219
v 0.11534979 0.00219244 -0.01111437
f 1 2 3
f 1 3 8
f 1 8 14
f 1 14 19
f 1 19 25
f 1 25 31
f 1 31 39
f 1 39 38
f 1 38 37
f 1 37 44
f 1 44 50
f 1 50 52
f 1 52 49
f 1 49 43
f 1 43 35
f 1 35 28
f 1 28 21
f 1 21 16
f 1 16 10
f 1 10 4
f 1 4 9
f 1 9 12
f 1 12 6
f 1 6 2
f 2 5 3
f 2 6 7
f 2 7 5
f 3 5 8
f 4 10 9
f 5 7 11
f 5 11 8
f 6 12 7
f 7 13 11
f 7 12 9
f 7 9 15
f 7 15 20
f 7 20 27
f 7 27 33
f 7 33 41
f 7 41 47
f 7 47 46
f 7 46 40
f 7 40 32
f 7 32 26
f 7 26 18
f 7 18 13
f 8 11 14
f 9 10 15
f 10 16 23
f 10 23 20
f 10 20 15
f 11 13 17
f 11 17 14
f 13 18 17
f 14 17 19
f 16 21 22
f 16 22 23
f 17 18 24
f 17 24 25
f 17 25 19
f 18 26 24
f 20 23 22
f 20 22 27
f 21 28 29
f 21 29 22
f 22 29 27
f 24 26 30
f 24 30 31
f 24 31 25
f 26 32 30
f 27 29 34
f 27 34 33
f 28 35 34
f 28 34 29
f 30 32 36
f 30 36 37
f 30 37 38
f 30 38 39
f 30 39 31
f 32 40 36
f 33 34 42
f 33 42 41
f 34 35 43
f 34 43 42
f 36 44 37
f 36 40 45
f 36 45 44
f 40 46 45
f 41 42 48
f 41 48 47
f 42 43 49
f 42 49 48
f 44 45 50
f 45 46 47
f 45 47 51
f 45 51 50
f 47 48 51
f 48 49 51
f 49 52 51
f 50 51 52

