# https://github.com/mikedh/trimesh

o upper_grip_shell_305.obj
v 0.13761280 -0.02140740 -0.02276394
v 0.13671595 -0.02140740 -0.02182268
v 0.13871640 -0.02060329 -0.02182268
v 0.14007364 -0.02060329 -0.02276394
v 0.14546816 -0.02105320 -0.02276394
v 0.14479050 -0.02132216 -0.02275924
v 0.14455504 -0.02140740 -0.02274183
v 0.14406114 -0.02140740 -0.02222895
v 0.14358353 -0.02140213 -0.02183521
v 0.14415303 -0.02114411 -0.02182821
v 0.14461725 -0.02092357 -0.02182268
v 0.14507573 -0.02070058 -0.02182627
v 0.14528247 -0.02060471 -0.02183797
v 0.14619464 -0.02060329 -0.02247415
v 0.14636214 -0.02060864 -0.02262646
v 0.14649423 -0.02061675 -0.02276394
v 0.14583762 -0.02089972 -0.02276394
v 0.14562609 -0.02096143 -0.02269824
v 0.14538297 -0.02101172 -0.02257320
v 0.14473020 -0.02127942 -0.02257108
v 0.14522696 -0.02113640 -0.02272441
v 0.14445741 -0.02138599 -0.02256555
v 0.14504701 -0.02120567 -0.02271667
v 0.14430043 -0.02140740 -0.02245627
v 0.14441625 -0.02131633 -0.02234966
v 0.14426789 -0.02132995 -0.02224692
v 0.14445262 -0.02124549 -0.02223180
v 0.14389077 -0.02138387 -0.02203701
v 0.14373667 -0.02138269 -0.02191565
v 0.14424970 -0.02118591 -0.02196255
v 0.14387737 -0.02128776 -0.02185981
v 0.14445262 -0.02111389 -0.02199342
v 0.14441625 -0.02105352 -0.02187336
v 0.14504701 -0.02078983 -0.02192330
v 0.14523366 -0.02069499 -0.02191915
v 0.14547390 -0.02060872 -0.02196274
v 0.14569788 -0.02061352 -0.02211856
v 0.14598502 -0.02061163 -0.02232358
v 0.14582901 -0.02067004 -0.02229971
v 0.14564332 -0.02073600 -0.02226571
v 0.14537819 -0.02085800 -0.02226516
v 0.14564332 -0.02082053 -0.02241241
v 0.14594004 -0.02071860 -0.02247212
v 0.14620134 -0.02067382 -0.02261200
v 0.14634396 -0.02068239 -0.02276275
v 0.14609318 -0.02077748 -0.02273354
v 0.14560599 -0.02088397 -0.02250437
v 0.14542030 -0.02093293 -0.02243867
v 0.14506616 -0.02108965 -0.02245093
v 0.14478571 -0.02119174 -0.02241388
v 0.14458279 -0.02124431 -0.02234376
v 0.14474838 -0.02115104 -0.02229465
v 0.14489865 -0.02109240 -0.02230580
v 0.14471201 -0.02111019 -0.02218555
v 0.14415782 -0.02129784 -0.02208907
v 0.14447176 -0.02117914 -0.02212012
v 0.14486133 -0.02101715 -0.02213754
v 0.14468042 -0.02100448 -0.02198412
v 0.14538489 -0.02076457 -0.02212012
v 0.14508434 -0.02090908 -0.02212869
v 0.14504701 -0.02101637 -0.02228442
v 0.14579263 -0.02078802 -0.02247792
v 0.14523366 -0.02097150 -0.02235500
f 1 2 3
f 1 3 4
f 1 4 16
f 1 16 17
f 1 17 5
f 1 5 6
f 1 6 7
f 1 7 24
f 1 24 8
f 1 8 2
f 2 8 9
f 2 9 10
f 2 10 11
f 2 11 3
f 3 11 12
f 3 12 13
f 3 13 14
f 3 14 4
f 4 14 15
f 4 15 16
f 5 17 18
f 5 18 19
f 5 19 20
f 5 20 21
f 5 21 6
f 6 22 7
f 6 21 23
f 6 23 22
f 7 22 24
f 8 24 25
f 8 25 26
f 8 26 27
f 8 27 28
f 8 28 9
f 9 28 29
f 9 29 30
f 9 30 31
f 9 31 10
f 10 31 30
f 10 30 32
f 10 32 33
f 10 33 11
f 11 33 34
f 11 34 35
f 11 35 12
f 12 35 36
f 12 36 13
f 13 36 14
f 14 37 38
f 14 38 39
f 14 39 40
f 14 40 41
f 14 41 42
f 14 42 43
f 14 43 15
f 14 36 37
f 15 43 44
f 15 44 16
f 16 44 45
f 16 45 17
f 17 45 46
f 17 46 19
f 17 19 18
f 19 46 45
f 19 45 47
f 19 47 48
f 19 48 49
f 19 49 50
f 19 50 20
f 20 50 25
f 20 25 24
f 20 24 22
f 20 22 23
f 20 23 21
f 25 50 51
f 25 51 26
f 26 51 27
f 27 51 52
f 27 52 53
f 27 53 54
f 27 54 55
f 27 55 28
f 28 55 29
f 29 55 56
f 29 56 30
f 30 56 57
f 30 57 32
f 32 57 58
f 32 58 33
f 33 58 34
f 34 59 37
f 34 37 35
f 34 58 59
f 35 37 36
f 37 59 38
f 38 59 40
f 38 40 39
f 40 59 60
f 40 60 41
f 41 60 57
f 41 57 61
f 41 61 42
f 42 62 43
f 42 61 63
f 42 63 48
f 42 48 62
f 43 62 44
f 44 62 47
f 44 47 45
f 47 62 48
f 48 63 53
f 48 53 50
f 48 50 49
f 50 53 52
f 50 52 51
f 53 63 61
f 53 61 54
f 54 61 57
f 54 57 56
f 54 56 55
f 57 60 58
f 58 60 59

