# https://github.com/mikedh/trimesh

o upper_grip_shell_098.obj
v 0.17941772 -0.00320436 -0.02775187
v 0.17973981 -0.00321547 -0.02787871
v 0.17717724 -0.00320436 -0.02810808
v 0.17907150 -0.00320436 -0.02763726
v 0.17493535 -0.00543620 -0.02662231
v 0.17478920 -0.00572390 -0.02662231
v 0.17469129 -0.00603764 -0.02665358
v 0.18009171 -0.00324190 -0.02805877
v 0.17438339 -0.00637821 -0.02662231
v 0.17474805 -0.00644639 -0.02678216
v 0.17562778 -0.00598784 -0.02700819
v 0.17496798 -0.00658354 -0.02692063
v 0.17562778 -0.00636135 -0.02714520
v 0.17920772 -0.00422872 -0.02807943
v 0.17824143 -0.00516077 -0.02809310
v 0.16600182 -0.00711794 -0.02810808
v 0.16600892 -0.00553121 -0.02810808
v 0.16600182 -0.00320436 -0.02809979
v 0.17862170 -0.00320436 -0.02750039
v 0.17527021 -0.00461870 -0.02662231
v 0.17512832 -0.00499221 -0.02662231
v 0.17935387 -0.00387667 -0.02795579
v 0.17974975 -0.00357633 -0.02803041
v 0.17948299 -0.00392800 -0.02806503
v 0.17410528 -0.00676474 -0.02662231
v 0.17400879 -0.00707695 -0.02668427
v 0.17474805 -0.00679500 -0.02690317
v 0.17518933 -0.00669425 -0.02707408
v 0.17606481 -0.00616176 -0.02728076
v 0.17737873 -0.00555994 -0.02772831
v 0.17737873 -0.00562353 -0.02777558
v 0.17824853 -0.00502324 -0.02796699
v 0.17891116 -0.00448003 -0.02804888
v 0.17869549 -0.00469838 -0.02805616
v 0.17847130 -0.00490065 -0.02804466
v 0.17824853 -0.00507917 -0.02801616
v 0.17785123 -0.00543965 -0.02801674
v 0.17746670 -0.00580550 -0.02804350
v 0.17615136 -0.00688886 -0.02806605
v 0.16559601 -0.00711794 -0.02662231
v 0.17583778 -0.00709725 -0.02800088
v 0.17496515 -0.00711794 -0.02718360
v 0.16600182 -0.00320436 -0.02662231
v 0.17686934 -0.00320436 -0.02698550
v 0.17647204 -0.00333384 -0.02687699
v 0.17546318 -0.00395941 -0.02662231
v 0.17535535 -0.00435284 -0.02662231
v 0.17649900 -0.00598746 -0.02743625
v 0.17469981 -0.00709342 -0.02701488
v 0.17447420 -0.00702792 -0.02687103
v 0.17518933 -0.00693521 -0.02720396
v 0.17562778 -0.00666130 -0.02730520
v 0.17709778 -0.00572352 -0.02765166
v 0.17606481 -0.00651688 -0.02749806
v 0.17670758 -0.00611656 -0.02765719
v 0.17701974 -0.00613533 -0.02797049
v 0.17675582 -0.00639391 -0.02802387
v 0.17642380 -0.00663449 -0.02797645
v 0.17609461 -0.00679155 -0.02780074
v 0.17562069 -0.00700570 -0.02758635
v 0.17532271 -0.00710990 -0.02742999
v 0.17560224 -0.00327676 -0.02662231
v 0.17600521 -0.00320436 -0.02673460
v 0.17554548 -0.00359548 -0.02662231
f 1 2 3
f 1 3 18
f 1 18 43
f 1 43 63
f 1 63 44
f 1 44 19
f 1 19 4
f 1 4 5
f 1 5 6
f 1 6 7
f 1 7 2
f 2 8 3
f 2 7 9
f 2 9 10
f 2 10 11
f 2 11 12
f 2 12 13
f 2 13 8
f 3 8 14
f 3 14 15
f 3 15 16
f 3 16 17
f 3 17 18
f 4 19 20
f 4 20 21
f 4 21 5
f 5 21 20
f 5 20 47
f 5 47 46
f 5 46 64
f 5 64 62
f 5 62 43
f 5 43 40
f 5 40 25
f 5 25 9
f 5 9 6
f 6 9 7
f 8 13 22
f 8 22 23
f 8 23 24
f 8 24 14
f 9 25 10
f 10 25 26
f 10 26 12
f 10 12 11
f 12 26 27
f 12 27 13
f 13 27 28
f 13 28 29
f 13 29 22
f 14 24 30
f 14 30 31
f 14 31 32
f 14 32 33
f 14 33 34
f 14 34 15
f 15 34 35
f 15 35 36
f 15 36 37
f 15 37 38
f 15 38 39
f 15 39 16
f 16 40 18
f 16 18 17
f 16 39 41
f 16 41 42
f 16 42 40
f 18 40 43
f 19 44 45
f 19 45 46
f 19 46 47
f 19 47 20
f 22 29 48
f 22 48 24
f 22 24 23
f 24 48 30
f 25 40 26
f 26 40 42
f 26 42 49
f 26 49 50
f 26 50 27
f 27 50 28
f 28 50 49
f 28 49 51
f 28 51 29
f 29 51 52
f 29 52 48
f 30 48 53
f 30 53 52
f 30 52 54
f 30 54 55
f 30 55 31
f 31 55 36
f 31 36 32
f 32 36 35
f 32 35 34
f 32 34 33
f 36 55 37
f 37 55 56
f 37 56 38
f 38 56 57
f 38 57 39
f 39 57 58
f 39 58 41
f 41 58 59
f 41 59 60
f 41 60 61
f 41 61 42
f 42 51 49
f 42 61 54
f 42 54 51
f 43 62 63
f 44 63 45
f 45 63 64
f 45 64 46
f 48 52 53
f 51 54 52
f 54 61 55
f 55 61 60
f 55 60 59
f 55 59 56
f 56 59 57
f 57 59 58
f 62 64 63

