# https://github.com/mikedh/trimesh

o upper_grip_shell_043.obj
v 0.15748459 -0.01240071 -0.02862337
v 0.15720227 -0.01438825 -0.02778112
v 0.15734267 -0.01661233 -0.02828416
v 0.15741021 -0.01634989 -0.02892538
v 0.15748459 -0.01250358 -0.03076024
v 0.15650256 -0.01240071 -0.03082564
v 0.14973238 -0.01240071 -0.02887376
v 0.15618914 -0.01709242 -0.02813700
v 0.14973238 -0.01680829 -0.02778112
v 0.15405358 -0.01799871 -0.02786993
v 0.15510239 -0.01755012 -0.02802863
v 0.15315352 -0.01827235 -0.02815591
v 0.15463187 -0.01734296 -0.02895680
v 0.15621494 -0.01653745 -0.02923317
v 0.15687518 -0.01588730 -0.02962495
v 0.15737379 -0.01539741 -0.02985130
v 0.15746409 -0.01355054 -0.03054030
v 0.15347302 -0.01789794 -0.02874295
v 0.15544465 -0.01354004 -0.03066854
v 0.15424938 -0.01360443 -0.03071920
v 0.15284616 -0.01390746 -0.03073266
v 0.14984242 -0.01407612 -0.03083879
v 0.14973238 -0.01327061 -0.03096158
v 0.15350641 -0.01240071 -0.03094202
v 0.14973238 -0.01240071 -0.03105616
v 0.14973238 -0.01478156 -0.03072080
v 0.14974832 -0.01562206 -0.03054318
v 0.14982573 -0.01954955 -0.02794559
v 0.15086315 -0.01917094 -0.02797028
v 0.15207512 -0.01866006 -0.02817964
v 0.15377354 -0.01730517 -0.02932903
v 0.15245609 -0.01813728 -0.02890230
v 0.15466677 -0.01677609 -0.02951723
v 0.15700192 -0.01450512 -0.03029824
v 0.15371890 -0.01696295 -0.02960636
v 0.15441178 -0.01647726 -0.02977564
v 0.15434576 -0.01612385 -0.02997698
v 0.15600928 -0.01547510 -0.03003149
v 0.15617396 -0.01489843 -0.03025976
v 0.15578540 -0.01470527 -0.03036172
v 0.15578540 -0.01458980 -0.03039634
v 0.15428353 -0.01438755 -0.03055152
v 0.15067949 -0.01886931 -0.02871410
v 0.15084418 -0.01493762 -0.03063360
v 0.15237944 -0.01556817 -0.03038512
v 0.15028183 -0.01628271 -0.03034216
v 0.14999876 -0.01706303 -0.03010555
v 0.15000179 -0.01814148 -0.02956853
v 0.14997599 -0.01902327 -0.02879714
v 0.15106122 -0.01838152 -0.02912833
v 0.15305410 -0.01748923 -0.02936558
v 0.15143536 -0.01751372 -0.02969581
v 0.15284161 -0.01690906 -0.02980417
v 0.15434576 -0.01591879 -0.03007188
v 0.15157500 -0.01681669 -0.03003277
v 0.15418487 -0.01573474 -0.03016679
v 0.15163495 -0.01646957 -0.03016518
v 0.15168276 -0.01599158 -0.03031876
v 0.15072806 -0.01672081 -0.03016358
f 1 2 3
f 1 3 4
f 1 4 5
f 1 5 6
f 1 6 24
f 1 24 25
f 1 25 7
f 1 7 2
f 2 8 3
f 2 7 9
f 2 9 10
f 2 10 8
f 3 8 10
f 3 10 11
f 3 11 12
f 3 12 4
f 4 13 14
f 4 14 15
f 4 15 16
f 4 16 17
f 4 17 5
f 4 12 18
f 4 18 13
f 5 17 19
f 5 19 20
f 5 20 21
f 5 21 6
f 6 21 22
f 6 22 23
f 6 23 24
f 7 25 23
f 7 23 26
f 7 26 9
f 9 26 27
f 9 27 28
f 9 28 10
f 10 28 29
f 10 29 12
f 10 12 11
f 12 29 30
f 12 30 18
f 13 31 14
f 13 18 32
f 13 32 31
f 14 31 15
f 15 31 33
f 15 33 16
f 16 34 17
f 16 33 35
f 16 35 36
f 16 36 37
f 16 37 38
f 16 38 39
f 16 39 34
f 17 34 40
f 17 40 41
f 17 41 42
f 17 42 19
f 18 30 28
f 18 28 43
f 18 43 32
f 19 42 44
f 19 44 20
f 20 44 21
f 21 44 26
f 21 26 22
f 22 26 23
f 23 25 24
f 26 44 27
f 27 44 42
f 27 42 45
f 27 45 46
f 27 46 47
f 27 47 48
f 27 48 28
f 28 48 49
f 28 49 43
f 28 30 29
f 31 32 50
f 31 50 51
f 31 51 33
f 32 43 49
f 32 49 50
f 33 51 35
f 34 39 40
f 35 51 48
f 35 48 52
f 35 52 36
f 36 52 53
f 36 53 37
f 37 54 38
f 37 53 55
f 37 55 54
f 38 54 39
f 39 54 56
f 39 56 57
f 39 57 40
f 40 57 58
f 40 58 41
f 41 58 45
f 41 45 42
f 45 58 46
f 46 59 47
f 46 58 59
f 47 59 55
f 47 55 48
f 48 55 52
f 48 51 50
f 48 50 49
f 52 55 53
f 54 55 56
f 55 59 57
f 55 57 56
f 57 59 58

