# https://github.com/mikedh/trimesh

o upper_grip_shell_182.obj
v 0.10700000 0.02629341 -0.02330464
v 0.10700000 0.02642296 -0.01844258
v 0.10700000 0.02863804 -0.02217432
v 0.10701681 0.02858156 -0.02320136
v 0.10866196 0.02849278 -0.02329798
v 0.11064764 0.02838681 -0.02330464
v 0.11603597 0.02582966 -0.02330464
v 0.11603331 0.02567974 -0.01844353
v 0.10700000 0.02864154 -0.01856775
v 0.11324893 0.02821418 -0.01844258
v 0.11250154 0.02826891 -0.01844258
v 0.11062730 0.02840457 -0.01845829
v 0.10939963 0.02848957 -0.01848779
v 0.10700000 0.02865114 -0.02147090
v 0.10812684 0.02858215 -0.02203963
v 0.10840811 0.02854692 -0.02265976
v 0.10791633 0.02857021 -0.02272020
v 0.10717690 0.02860107 -0.02283157
v 0.10812684 0.02853237 -0.02313759
v 0.11031773 0.02841912 -0.02307857
v 0.11291371 0.02826862 -0.02315234
v 0.11422187 0.02818041 -0.02330464
v 0.11599440 0.02805698 -0.02330464
v 0.11603597 0.02807357 -0.02263644
v 0.11601828 0.02803369 -0.01905081
v 0.11598024 0.02798973 -0.01853491
v 0.10700000 0.02864969 -0.01903416
v 0.11037611 0.02843834 -0.01883665
v 0.11150118 0.02837662 -0.01924642
v 0.11536818 0.02805523 -0.01861820
v 0.11472692 0.02811287 -0.01864532
v 0.11379201 0.02818711 -0.01863009
v 0.11161439 0.02834576 -0.01863485
v 0.11121991 0.02837109 -0.01859535
v 0.11230076 0.02831287 -0.01891946
v 0.10700000 0.02865376 -0.01954720
v 0.10812684 0.02859146 -0.02004788
v 0.11150118 0.02838739 -0.02133954
v 0.11150118 0.02838448 -0.02193540
v 0.11150118 0.02837720 -0.02242513
v 0.11287391 0.02828871 -0.02270640
v 0.11150560 0.02835508 -0.02302908
v 0.11399102 0.02821709 -0.02280301
v 0.11450668 0.02818099 -0.02288202
v 0.11562379 0.02809424 -0.02315044
v 0.11562379 0.02810647 -0.02272401
v 0.11493654 0.02816469 -0.02193207
v 0.11594398 0.02808463 -0.02029774
v 0.11600413 0.02806804 -0.01972853
v 0.11562379 0.02809366 -0.01950294
v 0.11505153 0.02813849 -0.01947439
v 0.10981445 0.02849074 -0.01997221
v 0.11273062 0.02828841 -0.01903511
v 0.11150118 0.02838565 -0.01990510
v 0.11344706 0.02824562 -0.01920597
v 0.11264483 0.02831141 -0.01968427
v 0.11150118 0.02838768 -0.02056711
v 0.11356116 0.02825843 -0.02171600
v 0.11287391 0.02829715 -0.02230139
v 0.11356116 0.02824940 -0.02260265
v 0.11493654 0.02815421 -0.02281253
v 0.11424841 0.02821272 -0.02182499
v 0.11493654 0.02816178 -0.02017114
v 0.11356116 0.02825523 -0.01994508
f 1 2 9
f 1 9 27
f 1 27 36
f 1 36 14
f 1 14 3
f 1 3 4
f 1 4 5
f 1 5 6
f 1 6 22
f 1 22 23
f 1 23 7
f 1 7 8
f 1 8 2
f 2 8 10
f 2 10 11
f 2 11 12
f 2 12 13
f 2 13 9
f 3 14 15
f 3 15 16
f 3 16 17
f 3 17 18
f 3 18 4
f 4 18 19
f 4 19 5
f 5 19 6
f 6 19 20
f 6 20 21
f 6 21 22
f 7 23 24
f 7 24 8
f 8 24 25
f 8 25 26
f 8 26 10
f 9 13 28
f 9 28 29
f 9 29 27
f 10 26 30
f 10 30 31
f 10 31 32
f 10 32 11
f 11 33 12
f 11 32 33
f 12 33 34
f 12 34 13
f 13 34 35
f 13 35 28
f 14 36 37
f 14 37 38
f 14 38 39
f 14 39 15
f 15 39 40
f 15 40 16
f 16 40 41
f 16 41 42
f 16 42 20
f 16 20 17
f 17 20 19
f 17 19 18
f 20 42 21
f 21 41 43
f 21 43 22
f 21 42 41
f 22 43 44
f 22 44 45
f 22 45 23
f 23 45 24
f 24 45 46
f 24 46 47
f 24 47 48
f 24 48 49
f 24 49 25
f 25 49 50
f 25 50 51
f 25 51 31
f 25 31 30
f 25 30 26
f 27 37 36
f 27 29 52
f 27 52 37
f 28 35 53
f 28 53 29
f 29 54 52
f 29 53 55
f 29 55 56
f 29 56 54
f 31 51 32
f 32 51 55
f 32 55 53
f 32 53 35
f 32 35 33
f 33 35 34
f 37 52 38
f 38 52 57
f 38 57 58
f 38 58 39
f 39 58 59
f 39 59 40
f 40 59 41
f 41 59 60
f 41 60 43
f 43 60 61
f 43 61 44
f 44 61 45
f 45 61 46
f 46 61 47
f 47 61 62
f 47 62 63
f 47 63 48
f 48 63 51
f 48 51 50
f 48 50 49
f 51 63 64
f 51 64 55
f 52 54 57
f 54 56 64
f 54 64 57
f 55 64 56
f 57 64 58
f 58 64 62
f 58 62 59
f 59 62 60
f 60 62 61
f 62 64 63

