# https://github.com/mikedh/trimesh

o upper_grip_carrier_185.obj
v 0.13509562 -0.00543288 -0.02953622
v 0.13509562 -0.00665349 -0.02953622
v 0.13509562 -0.00543288 -0.03089985
v 0.11827844 -0.00543288 -0.02953622
v 0.13509562 -0.00665349 -0.03002734
v 0.13371101 -0.00759853 -0.02953622
v 0.13509562 -0.00597026 -0.03089985
v 0.11827844 -0.00543288 -0.03089985
v 0.11700715 -0.00634993 -0.02953622
v 0.13509562 -0.00640462 -0.03034545
v 0.13371101 -0.00759853 -0.03002734
v 0.13319930 -0.00759853 -0.03066357
v 0.13310546 -0.00759853 -0.03078011
v 0.13300808 -0.00759853 -0.03089985
v 0.11700715 -0.00759853 -0.02953622
v 0.13509562 -0.00638152 -0.03037496
v 0.11700715 -0.00634993 -0.03089985
v 0.11700715 -0.00759853 -0.03089985
f 1 2 5
f 1 5 10
f 1 10 16
f 1 16 7
f 1 7 3
f 1 3 8
f 1 8 4
f 1 4 9
f 1 9 15
f 1 15 6
f 1 6 2
f 2 6 11
f 2 11 5
f 3 7 14
f 3 14 18
f 3 18 17
f 3 17 8
f 4 8 17
f 4 17 9
f 5 11 12
f 5 12 13
f 5 13 14
f 5 14 10
f 6 15 18
f 6 18 14
f 6 14 13
f 6 13 12
f 6 12 11
f 7 16 14
f 9 17 18
f 9 18 15
f 10 14 16

