# https://github.com/mikedh/trimesh

o upper_grip_carrier_142.obj
v 0.14585246 0.00429060 -0.02993620
v 0.14585246 0.00429060 -0.03089985
v 0.14319552 0.00429060 -0.02993620
v 0.14739596 0.00370926 -0.02993620
v 0.14319552 0.00429060 -0.03089985
v 0.14739596 0.00370926 -0.03089985
v 0.14319552 0.00067844 -0.02993620
v 0.14739596 0.00067844 -0.02993620
v 0.14319552 0.00067844 -0.03089985
v 0.14739596 0.00067844 -0.03089985
f 1 2 5
f 1 5 3
f 1 3 7
f 1 7 8
f 1 8 4
f 1 4 6
f 1 6 2
f 2 6 10
f 2 10 9
f 2 9 5
f 3 5 9
f 3 9 7
f 4 8 10
f 4 10 6
f 7 9 10
f 7 10 8

