# https://github.com/mikedh/trimesh

o upper_grip_shell_007.obj
v 0.09497090 -0.00320436 -0.00970146
v 0.09898167 -0.00320436 -0.00993465
v 0.09898167 -0.00320436 -0.00773499
v 0.09497836 -0.00318379 -0.00750155
v 0.09497090 -0.00077070 -0.00749978
v 0.09497090 0.01180000 -0.00986132
v 0.09898167 0.01180000 -0.01009197
v 0.09898167 -0.00222326 -0.00773398
v 0.09775233 -0.00224529 -0.00762868
v 0.09775233 -0.00316764 -0.00762969
v 0.09498582 -0.00227760 -0.00750054
v 0.09500074 -0.00134056 -0.00750003
v 0.09498582 0.00115919 -0.00750003
v 0.09498582 0.00278799 -0.00750105
v 0.09498582 0.00344303 -0.00750206
v 0.09498582 0.00412011 -0.00750384
v 0.09498582 0.00482803 -0.00750663
v 0.09498582 0.00559763 -0.00751120
v 0.09498582 0.00634521 -0.00751703
v 0.09498582 0.00696353 -0.00752338
v 0.09498582 0.00756424 -0.00753124
v 0.09497483 0.01165753 -0.00764314
v 0.09550253 0.01180000 -0.00766319
v 0.09841746 0.01180000 -0.00782913
v 0.09898167 0.01166341 -0.00787506
v 0.09898167 -0.00136259 -0.00773372
v 0.09775233 -0.00074133 -0.00762792
v 0.09775233 0.00050414 -0.00762792
v 0.09775233 0.00189501 -0.00762842
v 0.09775233 0.00281295 -0.00762918
v 0.09775233 0.00346506 -0.00763020
v 0.09775233 0.00413920 -0.00763198
v 0.09775233 0.00484712 -0.00763477
v 0.09775233 0.00561966 -0.00763908
v 0.09775233 0.00636577 -0.00764517
v 0.09775233 0.00698263 -0.00765151
v 0.09775233 0.00758186 -0.00765963
v 0.09775233 0.00815613 -0.00766851
v 0.09498582 0.00813703 -0.00754038
v 0.09498582 0.00865402 -0.00755027
v 0.09498582 0.00997292 -0.00758275
v 0.09498582 0.01083946 -0.00761092
v 0.09608638 0.01180000 -0.00768374
v 0.09725251 0.01180000 -0.00774362
v 0.09779395 0.01162963 -0.00777280
v 0.09775233 0.01083212 -0.00773829
v 0.09898167 0.01092905 -0.00784689
v 0.09898167 0.00214175 -0.00773372
v 0.09898167 0.00347828 -0.00773550
v 0.09898167 0.00418767 -0.00773753
v 0.09898167 0.00485740 -0.00774007
v 0.09898167 0.00559469 -0.00774438
v 0.09898167 0.00637164 -0.00775073
v 0.09898167 0.00702081 -0.00775758
v 0.09898167 0.00764795 -0.00776595
v 0.09898167 0.00815906 -0.00777382
v 0.09775233 0.00867311 -0.00767841
v 0.09775233 0.00997439 -0.00771038
v 0.09666983 0.01180000 -0.00771063
v 0.09898167 0.00998614 -0.00781619
v 0.09898167 0.00867605 -0.00778371
f 1 2 3
f 1 3 4
f 1 4 5
f 1 5 6
f 1 6 2
f 2 6 7
f 2 7 25
f 2 25 47
f 2 47 60
f 2 60 61
f 2 61 56
f 2 56 55
f 2 55 54
f 2 54 53
f 2 53 52
f 2 52 51
f 2 51 50
f 2 50 49
f 2 49 48
f 2 48 26
f 2 26 8
f 2 8 3
f 3 8 9
f 3 9 10
f 3 10 4
f 4 10 11
f 4 11 5
f 5 11 12
f 5 12 13
f 5 13 14
f 5 14 15
f 5 15 16
f 5 16 17
f 5 17 18
f 5 18 19
f 5 19 20
f 5 20 21
f 5 21 22
f 5 22 6
f 6 22 23
f 6 23 43
f 6 43 59
f 6 59 44
f 6 44 24
f 6 24 7
f 7 24 25
f 8 26 27
f 8 27 9
f 9 27 12
f 9 12 10
f 10 12 11
f 12 27 28
f 12 28 13
f 13 28 29
f 13 29 14
f 14 29 30
f 14 30 15
f 15 30 31
f 15 31 16
f 16 32 33
f 16 33 17
f 16 31 32
f 17 33 34
f 17 34 18
f 18 34 19
f 19 34 35
f 19 35 20
f 20 35 36
f 20 36 21
f 21 36 37
f 21 37 38
f 21 38 39
f 21 39 22
f 22 39 40
f 22 40 41
f 22 41 42
f 22 42 23
f 23 42 43
f 24 44 45
f 24 45 46
f 24 46 47
f 24 47 25
f 26 48 28
f 26 28 27
f 28 48 29
f 29 48 30
f 30 48 49
f 30 49 31
f 31 49 32
f 32 49 50
f 32 50 51
f 32 51 33
f 33 51 34
f 34 51 52
f 34 52 35
f 35 53 36
f 35 52 53
f 36 53 54
f 36 54 55
f 36 55 37
f 37 55 56
f 37 56 38
f 38 56 61
f 38 61 57
f 38 57 40
f 38 40 39
f 40 57 58
f 40 58 41
f 41 58 59
f 41 59 43
f 41 43 42
f 44 59 46
f 44 46 45
f 46 58 60
f 46 60 47
f 46 59 58
f 57 61 58
f 58 61 60

