# https://github.com/mikedh/trimesh

o upper_grip_carrier_181.obj
v 0.11567799 0.00527093 -0.03089985
v 0.11576057 0.00446719 -0.03089985
v 0.11567799 0.00527093 -0.03129991
v 0.10215395 0.00527093 -0.03089985
v 0.11576057 0.00446719 -0.03129991
v 0.11563803 0.00309200 -0.03089985
v 0.10215395 0.00527093 -0.03129991
v 0.10215395 0.00309200 -0.03089985
v 0.11563803 0.00309200 -0.03129991
v 0.10215395 0.00309200 -0.03129991
f 1 2 5
f 1 5 3
f 1 3 7
f 1 7 4
f 1 4 8
f 1 8 6
f 1 6 2
f 2 6 9
f 2 9 5
f 3 5 9
f 3 9 10
f 3 10 7
f 4 7 10
f 4 10 8
f 6 8 10
f 6 10 9

