# https://github.com/mikedh/trimesh

o upper_grip_carrier_160.obj
v 0.13681264 -0.00372609 -0.03089989
v 0.13681264 -0.00372609 -0.03129987
v 0.11744396 -0.00372609 -0.03089989
v 0.13681074 -0.00412652 -0.03089985
v 0.13681264 -0.00412652 -0.03089989
v 0.13681264 -0.00412652 -0.03129987
v 0.13681074 -0.00412652 -0.03129991
v 0.11744396 -0.00372609 -0.03129987
v 0.11830850 -0.00533349 -0.03089985
v 0.11802980 -0.00412652 -0.03089985
v 0.13681074 -0.00533349 -0.03089985
v 0.13681074 -0.00533349 -0.03129991
v 0.11802980 -0.00412652 -0.03129991
v 0.11830850 -0.00533349 -0.03129991
f 1 2 8
f 1 8 3
f 1 3 10
f 1 10 4
f 1 4 11
f 1 11 5
f 1 5 6
f 1 6 2
f 2 6 12
f 2 12 7
f 2 7 13
f 2 13 8
f 3 9 10
f 3 8 14
f 3 14 9
f 4 10 9
f 4 9 11
f 5 11 12
f 5 12 6
f 7 12 14
f 7 14 13
f 8 13 14
f 9 14 12
f 9 12 11

