# https://github.com/mikedh/trimesh

o upper_grip_carrier_093.obj
v 0.13396190 -0.01200000 -0.02913426
v 0.13400005 -0.01200000 -0.02913426
v 0.13396190 -0.01200000 -0.02830129
v 0.13396190 -0.00886220 -0.02913426
v 0.13400005 -0.01200000 -0.02830007
v 0.13567894 -0.01165013 -0.02913426
v 0.13396190 -0.01199386 -0.02830007
v 0.13396190 -0.00886220 -0.02830007
v 0.13567894 -0.00916661 -0.02913426
v 0.13567894 -0.01165013 -0.02830007
v 0.13567894 -0.00916661 -0.02830007
f 1 2 5
f 1 5 3
f 1 3 7
f 1 7 8
f 1 8 4
f 1 4 9
f 1 9 6
f 1 6 2
f 2 6 10
f 2 10 5
f 3 5 7
f 4 8 11
f 4 11 9
f 5 10 11
f 5 11 8
f 5 8 7
f 6 9 11
f 6 11 10

