# https://github.com/mikedh/trimesh

o upper_grip_shell_095.obj
v 0.17417719 -0.00320436 -0.02622712
v 0.17336037 -0.00320436 -0.02601444
v 0.17299823 -0.00332651 -0.02592391
v 0.17299823 -0.00385700 -0.02594063
v 0.17486249 -0.00326885 -0.02641108
v 0.17560136 -0.00327526 -0.02662231
v 0.16600080 -0.00320436 -0.02662231
v 0.17240388 -0.00320436 -0.02578685
v 0.16949870 -0.00436570 -0.02516044
v 0.17299823 -0.00437083 -0.02596318
v 0.17474881 -0.00379250 -0.02640235
v 0.16949870 -0.00475353 -0.02517316
v 0.16949870 -0.00518022 -0.02519025
v 0.17551855 -0.00371904 -0.02662231
v 0.16547952 -0.00756784 -0.02662231
v 0.16250127 -0.00320436 -0.02589519
v 0.17100732 -0.00320436 -0.02547419
v 0.16949870 -0.00379848 -0.02514662
v 0.15901310 -0.00614637 -0.02294636
v 0.15901310 -0.00670633 -0.02296163
v 0.17299823 -0.00484237 -0.02599190
v 0.16949870 -0.00574915 -0.02522042
v 0.17474881 -0.00436869 -0.02643944
v 0.15901310 -0.00715652 -0.02297690
v 0.15901310 -0.00752512 -0.02299144
v 0.17538863 -0.00424055 -0.02662231
v 0.16250127 -0.00756784 -0.02598172
v 0.17410574 -0.00676485 -0.02662231
v 0.17351789 -0.00746063 -0.02661831
v 0.17308593 -0.00753495 -0.02646779
v 0.17259550 -0.00755331 -0.02629111
v 0.17190047 -0.00756784 -0.02606170
v 0.15901310 -0.00320436 -0.02510590
v 0.15901310 -0.00336624 -0.02290819
v 0.16949870 -0.00331413 -0.02513862
v 0.15901310 -0.00496154 -0.02292346
v 0.15901310 -0.00553089 -0.02293291
v 0.17299823 -0.00529426 -0.02602789
v 0.16949870 -0.00629544 -0.02525787
v 0.17474881 -0.00477019 -0.02647579
v 0.15901310 -0.00756784 -0.02517571
v 0.16600080 -0.00756784 -0.02457765
v 0.16949870 -0.00674733 -0.02529641
v 0.17518889 -0.00483553 -0.02662231
v 0.17437531 -0.00638898 -0.02662231
v 0.17387515 -0.00655641 -0.02648088
v 0.17299823 -0.00719538 -0.02633328
v 0.17383130 -0.00706298 -0.02660667
v 0.17299823 -0.00676826 -0.02623294
v 0.17122979 -0.00744141 -0.02583120
v 0.16989169 -0.00756784 -0.02549164
v 0.15901310 -0.00387067 -0.02291183
v 0.15901310 -0.00434563 -0.02291619
v 0.17299823 -0.00569320 -0.02606788
v 0.17477155 -0.00529341 -0.02654778
v 0.16842854 -0.00756784 -0.02513353
v 0.16949870 -0.00711081 -0.02533458
v 0.17037886 -0.00721162 -0.02556471
v 0.17462215 -0.00600884 -0.02662231
v 0.17343832 -0.00645604 -0.02631110
v 0.17299823 -0.00642229 -0.02616822
v 0.17299823 -0.00606607 -0.02611442
v 0.16940939 -0.00752811 -0.02536439
f 1 2 3
f 1 3 4
f 1 4 5
f 1 5 6
f 1 6 7
f 1 7 16
f 1 16 33
f 1 33 17
f 1 17 8
f 1 8 2
f 2 8 3
f 3 8 9
f 3 9 4
f 4 10 11
f 4 11 5
f 4 9 12
f 4 12 13
f 4 13 10
f 5 11 6
f 6 11 14
f 6 14 26
f 6 26 44
f 6 44 59
f 6 59 45
f 6 45 28
f 6 28 15
f 6 15 7
f 7 15 16
f 8 17 18
f 8 18 9
f 9 18 19
f 9 19 20
f 9 20 12
f 10 21 11
f 10 13 22
f 10 22 21
f 11 23 14
f 11 21 23
f 12 20 24
f 12 24 25
f 12 25 13
f 13 25 22
f 14 23 26
f 15 27 16
f 15 28 29
f 15 29 30
f 15 30 31
f 15 31 32
f 15 32 51
f 15 51 56
f 15 56 42
f 15 42 41
f 15 41 27
f 16 27 33
f 17 33 34
f 17 34 35
f 17 35 18
f 18 35 36
f 18 36 37
f 18 37 19
f 19 37 36
f 19 36 53
f 19 53 52
f 19 52 34
f 19 34 33
f 19 33 41
f 19 41 25
f 19 25 24
f 19 24 20
f 21 38 23
f 21 22 39
f 21 39 38
f 22 25 39
f 23 40 26
f 23 38 40
f 25 41 42
f 25 42 43
f 25 43 39
f 26 40 44
f 27 41 33
f 28 45 46
f 28 46 47
f 28 47 48
f 28 48 29
f 29 48 30
f 30 48 47
f 30 47 31
f 31 47 32
f 32 47 49
f 32 49 50
f 32 50 51
f 34 52 35
f 35 52 53
f 35 53 36
f 38 54 40
f 38 39 43
f 38 43 54
f 40 55 44
f 40 54 55
f 42 56 43
f 43 56 57
f 43 57 58
f 43 58 54
f 44 55 59
f 45 59 46
f 46 59 60
f 46 60 49
f 46 49 47
f 49 61 50
f 49 60 61
f 50 58 51
f 50 61 62
f 50 62 58
f 51 58 63
f 51 63 56
f 54 62 55
f 54 58 62
f 55 62 61
f 55 61 60
f 55 60 59
f 56 63 57
f 57 63 58

