# https://github.com/mikedh/trimesh

o upper_grip_shell_288.obj
v 0.16219950 -0.01370379 -0.02504872
v 0.16212337 -0.01384598 -0.02511764
v 0.16248881 -0.01378458 -0.02526216
v 0.16295703 -0.01375250 -0.02550967
v 0.16358608 -0.01373090 -0.02599397
v 0.15851751 -0.01370654 -0.02606213
v 0.15516194 -0.01370379 -0.02477268
v 0.16161423 -0.01377986 -0.02483263
v 0.16128305 -0.01394772 -0.02479136
v 0.16141914 -0.01400991 -0.02489461
v 0.16041894 -0.01451347 -0.02477811
v 0.16163802 -0.01409043 -0.02506425
v 0.16196444 -0.01399394 -0.02515752
v 0.16076344 -0.01440794 -0.02486899
v 0.16145720 -0.01413089 -0.02500328
v 0.16000972 -0.01477206 -0.02477268
v 0.16212147 -0.01400637 -0.02525572
v 0.16255352 -0.01391904 -0.02543028
v 0.16249928 -0.01398975 -0.02547420
v 0.16260872 -0.01399695 -0.02556130
v 0.16296559 -0.01388749 -0.02568764
v 0.16323872 -0.01379767 -0.02578306
v 0.16255352 -0.01418483 -0.02580932
v 0.16320351 -0.01395230 -0.02603550
v 0.16143341 -0.01483910 -0.02604774
v 0.15597847 -0.01503654 -0.02606087
v 0.15386482 -0.01504138 -0.02477268
v 0.16089572 -0.01420486 -0.02478568
v 0.16138583 -0.01422752 -0.02504506
v 0.16145911 -0.01424781 -0.02510312
v 0.15966902 -0.01501860 -0.02480335
v 0.16014866 -0.01481618 -0.02488628
v 0.16120501 -0.01436814 -0.02506980
v 0.16102324 -0.01448558 -0.02507674
v 0.16178457 -0.01419112 -0.02523767
v 0.16207579 -0.01410051 -0.02532198
v 0.16215097 -0.01412539 -0.02539772
v 0.16175317 -0.01431144 -0.02534748
v 0.16173604 -0.01438463 -0.02542649
v 0.16255352 -0.01409109 -0.02565154
v 0.16172082 -0.01445010 -0.02550576
v 0.16167704 -0.01461049 -0.02575353
v 0.16240126 -0.01432480 -0.02594513
v 0.16143246 -0.01460486 -0.02550475
v 0.16105941 -0.01477140 -0.02545237
v 0.16200536 -0.01454764 -0.02600596
v 0.16135157 -0.01484761 -0.02593768
v 0.16106226 -0.01501075 -0.02603310
v 0.16020101 -0.01503169 -0.02515449
v 0.15992407 -0.01503497 -0.02497122
v 0.16047984 -0.01478698 -0.02505364
v 0.16138678 -0.01436840 -0.02517658
v 0.16129732 -0.01445612 -0.02521293
v 0.16146101 -0.01441396 -0.02527150
v 0.16125355 -0.01454450 -0.02528500
v 0.16139249 -0.01456610 -0.02541412
v 0.16057596 -0.01495261 -0.02533095
v 0.16159710 -0.01471118 -0.02589275
v 0.16122880 -0.01480964 -0.02569042
v 0.16083006 -0.01501625 -0.02570392
f 1 2 3
f 1 3 4
f 1 4 5
f 1 5 6
f 1 6 7
f 1 7 8
f 1 8 9
f 1 9 10
f 1 10 11
f 1 11 2
f 2 12 13
f 2 13 3
f 2 11 14
f 2 14 15
f 2 15 16
f 2 16 12
f 3 13 17
f 3 17 4
f 4 18 19
f 4 19 20
f 4 20 21
f 4 21 22
f 4 22 5
f 4 17 18
f 5 22 23
f 5 23 24
f 5 24 6
f 6 25 26
f 6 26 7
f 6 24 25
f 7 26 27
f 7 27 16
f 7 16 11
f 7 11 9
f 7 9 8
f 9 11 28
f 9 28 10
f 10 28 11
f 11 16 14
f 12 16 29
f 12 29 13
f 13 29 30
f 13 30 17
f 14 16 15
f 16 27 31
f 16 31 32
f 16 32 29
f 17 30 33
f 17 33 34
f 17 34 35
f 17 35 36
f 17 36 18
f 18 37 19
f 18 36 37
f 19 37 38
f 19 38 39
f 19 39 20
f 20 40 21
f 20 39 41
f 20 41 40
f 21 40 22
f 22 40 23
f 23 42 43
f 23 43 24
f 23 40 44
f 23 44 45
f 23 45 42
f 24 43 46
f 24 46 25
f 25 46 47
f 25 47 48
f 25 48 26
f 26 49 50
f 26 50 27
f 26 48 49
f 27 50 31
f 29 32 33
f 29 33 30
f 31 50 51
f 31 51 32
f 32 51 34
f 32 34 33
f 34 52 35
f 34 51 52
f 35 52 36
f 36 52 51
f 36 51 53
f 36 53 54
f 36 54 37
f 37 54 38
f 38 54 55
f 38 55 39
f 39 55 49
f 39 49 56
f 39 56 41
f 40 41 44
f 41 56 57
f 41 57 44
f 42 58 43
f 42 45 59
f 42 59 58
f 43 58 46
f 44 57 45
f 45 57 59
f 46 58 47
f 47 60 48
f 47 58 60
f 48 60 49
f 49 60 57
f 49 57 56
f 49 55 50
f 50 55 54
f 50 54 51
f 51 54 53
f 57 60 59
f 58 59 60

