# https://github.com/mikedh/trimesh

o upper_grip_carrier_117.obj
v 0.13611245 0.00723549 -0.02913434
v 0.13611245 0.00723549 -0.03002712
v 0.13485292 0.00665869 -0.02913434
v 0.13611245 0.00309198 -0.02913434
v 0.13485292 0.00640841 -0.03034545
v 0.13485292 0.00665869 -0.03002712
v 0.13611245 0.00630133 -0.03089985
v 0.13485292 0.00596993 -0.03089985
v 0.13485292 0.00309198 -0.02913434
v 0.13611245 0.00309198 -0.03089985
v 0.13485292 0.00309198 -0.03089985
f 1 2 6
f 1 6 3
f 1 3 9
f 1 9 4
f 1 4 10
f 1 10 7
f 1 7 2
f 2 5 6
f 2 7 8
f 2 8 5
f 3 6 5
f 3 5 8
f 3 8 11
f 3 11 9
f 4 9 11
f 4 11 10
f 7 10 11
f 7 11 8

