DBRep_DrawableShape

CASCADE Topology V3, (c) Open Cascade
Locations 41
1
              1               0               0            -9.5 
              0               1               0              -8 
              0               0               1              -1 
1
              1               0               0             -96 
              0               1               0              36 
              0               0               1           315.9 
2  1 1 2 1 0
2  2 -1 1 -1 0
1
              1               0               0              -0 
              0               1               0              -0 
              0               0               1              -6 
1
              1              -0               0               0 
              0               1              -0               0 
              0               0               1               0 
1
              1               0               0             -96 
              0               1               0              34 
              0               0               1           315.9 
2  5 1 6 1 7 1 0
2  7 -1 6 -1 5 -1 0
1
              1               0               0              -4 
              0               1               0            -1.5 
              0               0               1          -21.55 
1
              1               0               0               0 
              0               1               0               0 
              0               0               1               0 
1
              1               0               0             -96 
              0               1               0              39 
              0               0               1          336.45 
2  10 1 11 1 12 1 0
2  12 -1 11 -1 10 -1 0
1
              1               0               0              -4 
              0               1               0            -1.5 
              0               0               1 -21.3682366684003 
1
              1               0               0               0 
              0               1               0               0 
              0               0               1               0 
1
0.98149179603281 3.51923369348911e-18 0.19150418878001 -92.0993973599388 
-0.188910472977559 0.164025563995324 0.968198557918473 58.7204973696873 
-0.031411582572108 -0.986456088407394 0.160989745401065 360.279077235514 
2  15 1 16 1 17 1 0
2  17 -1 16 -1 15 -1 0
1
              1               0               0              -0 
              0               1               0              -0 
              0               0               1           -1.25 
1
              1              -0               0               0 
              0               1              -0               0 
              0               0               1               0 
1
              1               0               0               0 
              0               1               0               0 
              0               0               1           -1.25 
1
0.949725068985077 -3.87612501177691e-17 -0.313085121558484 -93.338776466751 
0.20413197182677 0.758217667784327 0.619222178493156 78.1943626033572 
0.237386670686046 -0.65200150939986 0.720098326842174 363.271344026151 
2  20 1 21 1 22 1 23 1 0
1
              1               0               0              -0 
              0               1               0              -0 
              0               0               1             -16 
1
              1              -0               0               0 
              0               1              -0               0 
              0               0               1               0 
1
              1               0               0               0 
              0               1               0               0 
              0               0               1           -18.5 
1
0.949725068985077 -3.87612501177691e-17 -0.313085121558484 -93.338776466751 
0.20413197182677 0.758217667784327 0.619222178493156 78.1943626033572 
0.237386670686046 -0.65200150939986 0.720098326842174 363.271344026151 
2  25 1 26 1 27 1 28 1 0
2  23 -1 22 -1 21 -1 20 -1 0
1
              1               0               0              -0 
              0               1               0              -0 
              0               0               1             -20 
1
              1              -0               0               0 
              0               1              -0               0 
              0               0               1               0 
1
              1               0               0               0 
              0               1               0               0 
              0               0               1             -12 
1
0.949725068985077 -3.87612501177691e-17 -0.313085121558484 -93.338776466751 
0.20413197182677 0.758217667784327 0.619222178493156 78.1943626033572 
0.237386670686046 -0.65200150939986 0.720098326842174 363.271344026151 
2  31 1 32 1 33 1 34 1 0
2  34 -1 33 -1 32 -1 31 -1 0
1
              1               0               0              -0 
              0               1               0              -0 
              0               0               1             -10 
1
              1              -0               0               0 
              0               1              -0               0 
              0               0               1               0 
1
              1               0               0               0 
              0               1               0               0 
              0               0               1              10 
1
0.949725068985077 -3.87612501177691e-17 -0.313085121558484 -93.338776466751 
0.20413197182677 0.758217667784327 0.619222178493156 78.1943626033572 
0.237386670686046 -0.65200150939986 0.720098326842174 363.271344026151 
2  37 1 38 1 39 1 40 1 0
Curve2ds 161
1 0 0 1 0 
1 0 0 1 0 
1 2 0 0 -1 
1 0 0 0 1 
1 0 -16 1 0 
1 0 0 1 0 
1 0 0 0 -1 
1 0 0 0 1 
1 0 0 0 1 
1 0 0 0 1 
1 0 16 1 0 
1 0 16 1 0 
1 0 0 0 1 
1 0 0 1 0 
1 0 0 1 0 
1 0 0 0 -1 
1 19 0 0 1 
1 19 0 0 1 
2 9.5 6 1 0 -0 1 1.6000000000000001
1 0 5 1 0 
2 9.5 6 1 0 -0 1 1.6000000000000001
1 0 7 1 0 
1 6.2831853071795862 -0 0 1 
1 0 -0 0 1 
1 0 0 1 0 
1 0 19 1 0 
1 2 0 0 -1 
1 19 0 0 1 
1 0 -16 1 0 
1 0 19 1 0 
1 2 0 0 1 
1 0 16 1 0 
1 2 0 0 1 
1 0 0 1 0 
8 -10.75 -2.75
1 2.75 9.5 -1 0 
8 -10.75 -2.75
1 2 -2.75 0 -1 
8 4.75 7.75
1 13.5 4.75 0 1 
8 4.75 7.75
1 2 4.75 0 -1 
8 4.75 7.75
1 5.5 4.75 0 1 
8 4.75 7.75
1 2 4.75 0 -1 
8 -10.75 -2.75
1 2.75 12.5 -1 0 
8 -10.75 -2.75
1 2 -2.75 0 -1 
1 0 -3 1 0 
1 0 8 1 0 
8 -8.0587356864556341 -0.23133332770334503
1 40.828821618373809 -0.058735686455634095 -3.5675523065307632e-18 -1 
8 -8.0587356864556341 -0.23133332770334503
1 1.4703862677532107 -0.22705176328980264 -0.19150418878000966 -0.98149179603280967 
8 -21.32664035181222 -19.054299139795773
1 21.784273178863486 -0.43690251787148782 -0.99948826770200794 -0.031987540168624408 
8 -21.32664035181222 -19.054299139795773
1 -1.6680112690755975 -21.786610759124503 -0.16703310967975787 -0.98595128696640488 
1 43.100000000000023 0 0 1 
1 0 3 1 0 
1 0 -3 1 0 
1 0 0 1 0 
1 43.100000000000023 0 0 -1 
1 0 0 0 1 
8 1.1942978938978144 2.4920724633151208
1 -0.2257267683881139 0.55284373491286942 0.18900373980516066 0.98197636750568651 
8 1.1942978938978144 2.4920724633151208
1 -0.56528996136587217 -0.35818607101997685 0.98694311079680153 -0.16106922751019936 
8 -20.841330777772004 -18.391881487979159
1 22.540942363754425 -5.1441270777194745 -0.98645608840739385 -0.16402556399532356 
8 -20.841330777772004 -18.391881487979159
1 0.61341411725569395 -21.391881487979159 -2.9061904267155886e-17 -1 
1 0 -3 1 0 
1 0 0 1 0 
1 0 0 0 -1 
1 0 0 0 1 
1 0 0 1 0 
1 0 0 1 0 
8 -13.987312331265688 -9.8930865387612243
1 28.977120542089615 7.249052963961887 -0.68050949206550693 0.73273926550222879 
8 -13.987312331265688 -9.8930865387612243
1 -2.1186844626659358 -14.251625978361457 -0.13721909896973464 -0.99054072045420438 
1 -2.1186844626659251 -14.251625978361467 -0.13721909896973464 -0.99054072045420438 
3 39.016136820595584 -3.0900871986744911 0.73273926550222879 0.68050949206550704 -0.68050949206550704 0.73273926550222879 8.9507993613900112 3.9999999999999996
7 0 0  5 6 2  4.5389660312542635 32.000000600000021  4.4502113542587676 31.28977011733889  4.3614566772632726 30.582358882998811  4.2727020002677722 29.889425319390043  4.1839473232722781 29.222524471921293  4.0951926462767823 28.592000477321506 
 1.606565868607315 6 2.0503392535847951 6
8 1.6065659435869231 2.0059524753682085
7 0 0  5 6 2  4.5389660312542635 32.000000600000021  4.4502113542587676 31.28977011733889  4.3614566772632726 30.582358882998811  4.2727020002677722 29.889425319390043  4.1839473232722781 29.222524471921293  4.0951926462767823 28.592000477321506 
 1.606565868607315 6 2.0503392535847951 6
1 6.4555105816006586 32 -1 -0 
2 1.3496404974732132e-14 -5.5083049400322363e-31 0.9851887073967901 0.17147364467416515 0.17147364467416518 -0.98518870739679021 3.9999999999999933
3 39.11313830045377 -0.066130671973672936 0.82625390752700045 -0.56329786107916568 0.56329786107916568 0.82625390752700045 6.5705492587132897 3.9999999999999996
7 0 0  8 9 2  6.2831853071795933 31.115702717410443  5.9950134501623964 29.662410016248415  5.7068415931439072 28.33426168662729  5.4186697361353362 27.315183508900954  5.1304978791042855 26.766791466020102  4.8423260221010622 26.780172755511614  4.5541541650748583 27.334705877158402  4.2659823080592076 28.319495812096118  3.9778104510420103 29.575598941691055 
 1.8265414458522877 9 4.1319163019898646 9
8 1.8265414458522877 3.9701473285388023
7 0 0  8 9 2  6.2831853071795933 31.115702717410443  5.9950134501623964 29.662410016248415  5.7068415931439072 28.33426168662729  5.4186697361353362 27.315183508900954  5.1304978791042855 26.766791466020102  4.8423260221010622 26.780172755511614  4.5541541650748583 27.334705877158402  4.2659823080592076 28.319495812096118  3.9778104510420103 29.575598941691055 
 1.8265414458522877 9 4.1319163019898646 9
3 39.11313830045377 -0.066130671973672936 0.82625390752700045 -0.56329786107916568 0.56329786107916568 0.82625390752700045 6.5705492587132897 3.9999999999999996
7 0 0  5 6 2  0.17232538992649407 32.000000599999964  0.13786031194119666 31.820969633258176  0.10339523395587852 31.642583570117072  0.068930155970619189 31.465285457349093  0.034465077985304536 31.289515131986455  7.1054273576009955e-15 31.115702717410443 
 1.6542160559258006 6 1.8265414458522877 6
8 1.6542161714312165 1.8265414458522877
7 0 0  5 6 2  6.4555106971060807 32.000000599999964  6.4210456191207825 31.820969633258176  6.3865805411354648 31.642583570117072  6.3521154631502057 31.465285457349093  6.3176503851648906 31.289515131986455  6.2831853071795933 31.115702717410443 
 1.6542160559258006 6 1.8265414458522877 6
8 10.695646832592994 17.103417154280223
1 32.47078436834299 -8.8373199889587486 0.56329786107916557 0.82625390752700056 
8 10.695646832592994 17.103417154280223
1 -10.547129780759196 -3.1022624227082098 0.96747507422036949 0.25296636290679175 
1 -10.547129780759196 -3.1022624227082098 0.96747507422036949 0.25296636290679175 
1 0 0 1 0 
2 0 0 1 0 -0 1 6
8 0.20016776053612406 5.7832356098210962
1 6.2831853071795862 0 1 0 
2 0 0 1 3.1504954118236242e-18 -3.1504954118236242e-18 1 6.0000000000000018
8 9.126209137473051 16.114672429135577
1 30.568685750642384 -7.5405659607457229 0.56329786107916557 0.82625390752700056 
8 9.126209137473051 16.114672429135577
1 -9.590543904414881 -6.760744843374427 0.96747507422036949 0.25296636290679175 
1 -9.590543904414881 -6.760744843374427 0.96747507422036949 0.25296636290679175 
1 -1.0764188429264182e-17 29.500000000000057 1 0 
2 -1.0595515180374193e-14 1.0774921119382373e-14 1 3.1504954118236242e-18 -3.1504954118236242e-18 1 1.5999999999999917
1 6.2831853071795862 32.000000000000014 -1 -0 
1 6.2831853071795862 -0 0 1 
1 0 -0 0 1 
8 11.27455657169538 16.616276727453805
1 33.172400888669976 -9.3156464229975295 0.56329786107916557 0.82625390752700056 
8 11.27455657169538 16.616276727453805
1 -10.075833560159568 -4.9047445423266982 0.96747507422036949 0.25296636290679175 
1 6.0689598801814642 0 1 0 
8 -0.35610026675312789 4.2926889186246058
1 0.91335941350312833 2.7892770010215551 0.80612016698569955 -0.59175187061719381 
8 -0.35610026675312789 4.2926889186246058
1 2.423831483320658 1.9976088378967656 0.83308354844058008 -0.55314717871254837 
1 12.447342132610576 2.5 -1 -0 
2 1.2434497875801753e-14 -5.6843418860808015e-14 0.99292446989982475 -0.11874761923572305 -0.11874761923572305 -0.99292446989982475 6.0000000000000009
3 -2.5363360862587241 -0.36506312852983219 -0.59175187061719381 -0.80612016698569955 0.80612016698569955 -0.59175187061719381 9.1532991661918253 5.9999999999999991
7 0 0  5 6 2  6.2215917187346657 2.5000023999999712  6.2339104364236491 2.4262977077479828  6.2462291541126573 2.3532497006616562  6.2585478718015919 2.2808816803354728  6.2708665894906028 2.2092165329694891  6.2831853071795862 2.1382766859796902 
 2.0953400058837413 6 2.1569335943286587 6
8 2.0953404070105099 2.1569335943286587
7 0 0  5 6 2  6.2215917187346657 2.5000023999999712  6.2339104364236491 2.4262977077479828  6.2462291541126573 2.3532497006616562  6.2585478718015919 2.2808816803354728  6.2708665894906028 2.2092165329694891  6.2831853071795862 2.1382766859796902 
 2.0953400058837413 6 2.1569335943286587 6
3 -2.5363360862587241 -0.36506312852983219 -0.59175187061719381 -0.80612016698569955 0.80612016698569955 -0.59175187061719381 9.1532991661918253 5.9999999999999991
7 0 0  5 6 2  0 2.1382766859796902  0.065282854204170779 1.7623320620970575  0.130565708408344 1.4067569938676951  0.1958485626125028 1.0748905414464718  0.26113141681668195 0.76970519757573896  0.32641427102085274 0.49365084052527664 
 2.1569335943286587 6 2.4833478653495127 6
8 2.1569335943286587 2.4427786007760921
7 0 0  5 6 2  6.2831853071795862 2.1382766859796902  6.3484681613837566 1.7623320620970575  6.4137510155879305 1.4067569938676951  6.4790338697920893 1.0748905414464718  6.5443167239962685 0.76970519757573896  6.6095995782004389 0.49365084052527664 
 2.1569335943286587 6 2.4833478653495127 6
1 42.736473336800579 0 0 1 
1 0 3 1 0 
1 42.736473336800579 0 0 -1 
1 8 0 0 1 
1 42.736473336800579 0 0 1 
1 0 0 1 0 
3 -2.5363360862587085 -0.36506312852977613 -0.59175187061719381 -0.80612016698569955 0.80612016698569955 -0.59175187061719381 7.398916826005058 4.8499999999999988
7 0 0  5 6 2  6.1553618126020302 0.98974961207073875  6.1809265115175407 0.86164555920297281  6.2064912104330325 0.73556112302078236  6.232055909348607 0.61167072860316885  6.2576206082640695 0.49014329077419744  6.28318530717958 0.37114083728982905 
 2.0291100997511045 6 2.1569335943286561 6
8 2.0744620205608069 2.1569335943286561
7 0 0  5 6 2  6.1553618126020302 0.98974961207073875  6.1809265115175407 0.86164555920297281  6.2064912104330325 0.73556112302078236  6.232055909348607 0.61167072860316885  6.2576206082640695 0.49014329077419744  6.28318530717958 0.37114083728982905 
 2.0291100997511045 6 2.1569335943286561 6
3 -2.5363360862587085 -0.36506312852977613 -0.59175187061719381 -0.80612016698569955 0.80612016698569955 -0.59175187061719381 7.398916826005058 4.8499999999999988
7 0 0  5 6 2  -6.2172489379008766e-15 0.37114083728982905  0.016411323887345741 0.29474690775535639  0.032822647774716919 0.21939353219009367  0.049233971662048744 0.14512357599146974  0.0656452955494045 0.071978735949241521  0.082056619436756462 -5.9999996437909431e-07 
 2.1569335943286561 6 2.2389902137654158 6
8 2.1569335943286561 2.238990076965103
7 0 0  5 6 2  6.28318530717958 0.37114083728982905  6.2995966310669322 0.29474690775535639  6.3160079549543031 0.21939353219009367  6.3324192788416349 0.14512357599146974  6.3488306027289907 0.071978735949241521  6.3652419266163429 -5.9999996437909431e-07 
 2.1569335943286561 6 2.2389902137654158 6
1 0 -3 1 0 
1 0 8 1 0 
8 -20.969891933600358 -18.391881487979205
1 22.414122428854853 -4.3814270822684094 -0.98645608840739385 -0.16402556399532356 
8 -20.969891933600358 -18.391881487979205
1 1.3865858827443562 -21.391881487979205 -2.9061904267155886e-17 -1 
8 0.97755171945840813 1.9366671952523249
1 7.6339626573393389 -0.95993268652270558 0.18900373980516066 0.98197636750568651 
8 0.97755171945840813 1.9366671952523249
1 -0.52479446351611403 -0.11005206529520567 0.98694311079680153 -0.16106922751019936 
8 -21.568896046951092 -18.934726855618301
1 21.54214145378819 7.1287876594752078 -0.99948826770200794 -0.031987540168624408 
8 -21.568896046951092 -18.934726855618301
1 -3.1627263076307486 -21.533386381535671 -0.16703310967975787 -0.98595128696640488 
1 0 0 0 -1 
1 8 0 0 1 
1 0 0 1 0 
1 0 8 1 0 
1 43.100000000000023 0 0 -1 
1 8 0 0 1 
1 43.100000000000023 0 0 1 
1 0 0 1 0 
3 42.343391253773504 -2.2683527283821774 0.82625390752700045 -0.56329786107916568 0.56329786107916568 0.82625390752700045 7.9667909761898628 4.8499999999999988
7 0 0  5 6 2  6.2831853071795862 1.2634047754317521  6.2403402004850133 1.0014149031394415  6.1974950937904358 0.74309377968911716  6.1546499870958886 0.48944339554658128  6.1118048804012934 0.24143750028049626  6.0689597737067205 -5.9999990753567545e-07 
 1.8265414458522904 6 2.0407669793251535 6
8 1.9090130196200172 2.0407668728504049
7 0 0  5 6 2  6.2831853071795862 1.2634047754317521  6.2403402004850133 1.0014149031394415  6.1974950937904358 0.74309377968911716  6.1546499870958886 0.48944339554658128  6.1118048804012934 0.24143750028049626  6.0689597737067205 -5.9999990753567545e-07 
 1.8265414458522904 6 2.0407669793251535 6
3 39.113138300453755 -0.066130671973684205 0.82625390752700045 -0.56329786107916568 0.56329786107916568 0.82625390752700045 9.8558238880699349 5.9999999999999991
7 0 0  5 6 2  0.52310311313882629 2.5000023999999712  0.45851598113468151 2.0129353700758861  0.39392884913053189 1.515097228072658  0.32934171712639315 1.0107206539653848  0.2647545851222472 0.50422671033750222  0.20016745311810238 -2.4000000280466338e-06 
 1.3034383327134675 6 1.6263739927341916 6
8 1.540696439404849 1.6263736853161719
7 0 0  5 6 2  6.8062884203184124 2.5000023999999712  6.7417012883142675 2.0129353700758861  6.6771141563101182 1.515097228072658  6.6125270243059795 1.0107206539653848  6.5479398923018337 0.50422671033750222  6.4833527602976888 -2.4000000280466338e-06 
 1.3034383327134675 6 1.6263739927341916 6
3 42.343391253773468 -2.2683527283821556 0.82625390752700045 -0.56329786107916568 0.56329786107916568 0.82625390752700045 9.8558238880699349 5.9999999999999991
7 0 0  5 6 2  6.1641571552681409 2.5000023999999712  6.0879727618298869 1.9456605116455403  6.0117883683916666 1.4120840714244254  5.93560397495337 0.90597848837314299  5.859419581515132 0.43353646925146111  5.783235188076878 -2.4000000280466338e-06 
 1.9455695977637339 6 2.3264915649550022 6
8 1.9455699276008924 2.3264911432107906
7 0 0  5 6 2  12.447342462447727 2.5000023999999712  12.371158069009473 1.9456605116455403  12.294973675571253 1.4120840714244254  12.218789282132956 0.90597848837314299  12.142604888694718 0.43353646925146111  12.066420495256464 -2.4000000280466338e-06 
 1.9455695977637339 6 2.3264915649550022 6
1 0 0 0 1 
1 0 0 1 0 
1 0 0 0 1 
1 0 3 1 0 
8 18.391881487979195 20.94525119339616
1 22.43842943705215 -4.5276103700630586 0.98645608840739385 0.16402556399532361 
8 18.391881487979195 20.94525119339616
1 0.11968655610375464 21.391881487979195 6.989619484841003e-18 -1 
8 -5.574879832715685 0.053242843486436216
1 0.052230940545257454 1.0817227459519998 -0.98099457363811626 0.19403516818497263 
8 -5.574879832715685 0.053242843486436216
1 0.17290242683886792 0.44493574909095918 -0.99949340137461862 0.031826727896467601 
8 -12.734928427865061 -9.2953837855974673
1 33.351968485225768 13.715929531646509 -0.76545632509757722 0.64348785098719019 
8 -12.734928427865061 -9.2953837855974673
1 14.094260349880026 9.8835106033358251 0.65562224115185519 0.75508905230245449 
8 4.0619221911162011 4.6869035916078792
1 39.914953829833507 2.4960362400015441 0.16402556399532359 -0.98645608840739385 
8 4.0619221911162011 4.6869035916078792
1 -3.9867433067041653 0.89756167020098021 0.98149179603280978 -0.19150418878000966 
8 3.9137318261191645 5.5714960904896866
1 39.914953829833507 2.4960362400015441 0.16402556399532359 -0.98645608840739385 
8 3.9137318261191645 5.5714960904896866
1 -2.4547097964640883 8.749496038463457 0.98149179603280978 -0.19150418878000966 
1 0 0 1 0 
1 0 0 1 0 
1 0 0 1 0 
1 0 8 1 0 
Curves 72
1 0 0 0 0 0 1 
1 0 0 2 -0 1 0 
1 0 16 0 0 0 1 
1 0 0 0 -0 1 0 
1 0 16 0 1 0 -0 
1 0 0 0 1 0 -0 
1 19 0 0 -0 1 0 
2 -96 34 314.89999999999998 0 0 1 1 0 -0 -0 1 0 1.6000000000000001
2 -96 34 316.89999999999998 0 0 1 1 0 -0 -0 1 0 1.6000000000000001
1 1.6000000000000001 -3.9188697572715305e-16 0 0 0 1 
1 19 0 0 0 0 1 
1 19 0 2 -0 1 0 
1 19 16 0 0 0 1 
1 0 16 2 1 0 -0 
1 0 0 2 1 0 -0 
1 -102.75 37.5 316.89999999999998 -1 0 0 
1 -92 32.75 316.89999999999998 0 1 0 
1 -100 32.75 316.89999999999998 0 1 0 
1 -102.75 40.5 316.89999999999998 -1 0 0 
1 8 3 0 0 0 1 
1 -100.05873568645563 40.5 355.72882161837379 -1 0 -3.5675523065307632e-18 
1 -100.43690251787149 40.5 336.68427317886346 -0.031987540168624401 0 -0.99948826770200783 
1 0 3 43.100000000000023 1 0 -0 
1 0 3 0 0 0 1 
1 0 0 43.100000000000023 -0 1 0 
1 -100.22572676838811 38.052843734912869 358 0.18900373980516066 0.98197636750568651 -0 
1 -100 42.644127077719475 337.4409423637544 0 0.16402556399532356 -0.98645608840739385 
1 0 3 0 0 0 1 
1 0 0 0 -0 1 0 
1 0 0 0 0 0 1 
1 -94.568231410317821 65.407981308633879 370.26023240751329 -0.13032041823510132 -0.77905628015317863 0.61326005979920162 
3 -92.645717741753245 76.823625688806572 361.67730331993704 0.98149179603280967 -0.18891047297755947 -0.031411582572107986 0.14032263862726443 0.59781614694928309 0.78925623946560941 -0.13032041823510135 -0.77905628015317863 0.61326005979920162 8.9507993613900112 3.9999999999999996
8 0 1.916544625325983
2 -92.556063662854783 76.646307157124355 361.47109820904586 0.31308512155848711 -0.61922217849315275 -0.72009832684217612 0.93565841309573405 0.33112286041370009 0.12206959209656525 0.16285281901729523 -0.71198423084619189 0.68305008188600402 3.9999999999999996
3 -92.692048264050825 76.915258554670757 361.7838638981662 7.6549369642999268e-19 0.16402556399532359 -0.98645608840739385 -0.39464114508475906 0.90639070710585801 0.15071248348538671 0.91883533160528286 0.3892961603049262 0.064731236398287928 6.5705492587132897 3.9999999999999996
3 -92.692048264050825 76.915258554670757 361.7838638981662 7.6549369642999268e-19 0.16402556399532359 -0.98645608840739385 -0.39464114508475906 0.90639070710585801 0.15071248348538671 0.91883533160528286 0.3892961603049262 0.064731236398287928 6.5705492587132897 3.9999999999999996
1 -102.57293722148088 72.141110578864357 360.99002996725801 0.91883533160528297 0.38929616030492614 0.064731236398287914 
2 0 0 0 0 0 1 1 0 -0 -0 1 0 6
1 -101.66444363407963 69.562454331396665 363.60244676405591 0.91883533160528297 0.38929616030492614 0.064731236398287914 
2 -92.556063662854811 76.646307157124383 361.47109820904586 -0.31308512155848378 0.61922217849315642 0.72009832684217434 0.94972506898507703 0.20413197182677009 0.23738667068604613 -3.712998959434709e-17 0.7582176677843272 -0.65200150939986001 1.5999999999999999
2 -93.338776466751142 78.194362603357405 363.27134402615138 0.31308512155836787 -0.61922217849312444 -0.72009832684225217 0.94972506898511533 0.20413197182666387 0.23738667068598462 -1.4904645822280686e-14 -0.75821766778438182 0.6520015093997964 1.6000000000000825
1 1.6000000000000001 -3.9188697572715305e-16 0 0 0 1 
1 -102.9080481897557 72.418698862962685 364.07737628773606 0.91883533160528297 0.38929616030492614 0.064731236398287914 
8 0 0.29628190963454898
2 -93.338776466751 78.194362603357249 363.27134402615127 -0.31308512155848178 0.61922217849318195 0.72009832684215336 0.92801564009540571 0.038275823644035561 0.37056974115905011 0.20190264583958617 0.78428238217272772 -0.58663145723396559 4.8499999999999988
1 -91.036802944046087 80.203766417638747 362.54428533478165 0.7912003305130626 -0.24934697634529066 0.55841572540848228 
8 0 6.2257500127491365
2 -93.338776466751 78.194362603357249 363.27134402615133 0.31308512155848273 -0.61922217849315575 -0.72009832684217534 0.9430052606725825 0.11265108700384965 0.31313066113155696 -0.11277759087046038 -0.7770930615177577 0.61919915111247814 5.9999999999999991
3 -94.422650775873649 80.338057607344567 365.76426375552478 0.19150418878000969 0.9681985579184732 0.16098974540106475 -0.58079960629784433 -0.020436189274184165 0.81379000945711966 0.79120033051306271 -0.24934697634529068 0.55841572540848239 9.1532991661918253 5.9999999999999991
3 -94.422650775873649 80.338057607344567 365.76426375552478 0.19150418878000969 0.9681985579184732 0.16098974540106475 -0.58079960629784433 -0.020436189274184165 0.81379000945711966 0.79120033051306271 -0.24934697634529068 0.55841572540848239 9.1532991661918253 5.9999999999999991
1 0 3 42.736473336800579 1 0 -0 
1 8 0 42.736473336800579 -0 1 0 
1 0 0 42.736473336800579 1 0 -0 
3 -94.422650775873635 80.338057607344567 365.76426375552472 0.19150418878000969 0.9681985579184732 0.16098974540106475 -0.58079960629784433 -0.020436189274184165 0.81379000945711966 0.79120033051306271 -0.24934697634529068 0.55841572540848239 7.398916826005058 4.8499999999999988
3 -94.422650775873635 80.338057607344567 365.76426375552472 0.19150418878000969 0.9681985579184732 0.16098974540106475 -0.58079960629784433 -0.020436189274184165 0.81379000945711966 0.79120033051306271 -0.24934697634529068 0.55841572540848239 7.398916826005058 4.8499999999999988
1 8 3 0 0 0 1 
1 -92 41.881427082268409 337.31412242885483 0 0.16402556399532356 -0.98645608840739385 
1 -92.366037342660661 36.540067313477294 358 0.18900373980516066 0.98197636750568651 -0 
1 -92.871212340524792 37.5 336.44214145378817 -0.031987540168624401 0 -0.99948826770200783 
1 8 0 0 -0 1 0 
1 8 0 0 0 0 1 
1 8 0 43.100000000000023 -0 1 0 
1 0 0 43.100000000000023 1 0 -0 
3 -94.234904174078551 79.966730924078576 365.33244504389137 7.6549369642999268e-19 0.16402556399532359 -0.98645608840739385 -0.39464114508475906 0.90639070710585801 0.15071248348538671 0.91883533160528286 0.3892961603049262 0.064731236398287928 7.9667909761898628 4.8499999999999988
3 -92.69204826405084 76.915258554670743 361.7838638981662 7.6549369642999268e-19 0.16402556399532359 -0.98645608840739385 -0.39464114508475906 0.90639070710585801 0.15071248348538671 0.91883533160528286 0.3892961603049262 0.064731236398287928 9.8558238880699349 5.9999999999999991
3 -94.234904174078537 79.966730924078533 365.33244504389137 7.6549369642999268e-19 0.16402556399532359 -0.98645608840739385 -0.39464114508475906 0.90639070710585801 0.15071248348538671 0.91883533160528286 0.3892961603049262 0.064731236398287928 9.8558238880699349 5.9999999999999991
1 0 0 0 1 0 -0 
1 0 3 0 1 0 -0 
1 -100 42.027610370063059 337.33842943705213 0 -0.16402556399532361 0.98645608840739385 
1 -99.947769059454743 38.581722745952 358 -0.98099457363811626 0.19403516818497263 0 
1 -86.284070468353491 37.5 348.25196848522575 0.64348785098719019 0 -0.76545632509757722 
1 -100 35.003963759998456 354.81495382983348 -0 0.98645608840739385 0.16402556399532359 
1 -92 35.003963759998456 354.81495382983348 -0 0.98645608840739385 0.16402556399532359 
1 0 0 0 0 0 1 
1 8 0 0 0 0 1 
Polygon3D 0
PolygonOnTriangulations 0
Surfaces 30
1 0 0 0 1 0 -0 0 0 1 0 -1 0 
1 0 0 0 -0 1 0 0 0 1 1 0 -0 
1 0 0 2 0 0 1 1 0 -0 -0 1 0 
1 0 16 0 -0 1 0 0 0 1 1 0 -0 
1 0 0 0 0 0 1 1 0 -0 -0 1 0 
1 -105.5 28 314.89999999999998 0 0 1 1 0 -0 -0 1 0 
1 19 0 0 1 0 -0 0 0 1 0 -1 0 
2 0 0 0 0 0 1 1 0 -0 -0 1 0 1.6000000000000001
1 0 0 0 -0 1 0 0 0 1 1 0 -0 
1 8 0 0 1 0 -0 0 0 1 0 -1 0 
1 0 0 0 1 0 -0 0 0 1 0 -1 0 
1 0 3 0 -0 1 0 0 0 1 1 0 -0 
1 0 3 0 -0 1 0 0 0 1 1 0 -0 
1 0 0 0 1 0 -0 0 0 1 0 -1 0 
1 0 0 43.100000000000023 0 0 1 1 0 -0 -0 1 0 
1 0 0 0 0 0 1 1 0 -0 -0 1 0 
1 0 0 0 -0 1 0 0 0 1 1 0 -0 
1 0 0 0 0 0 1 1 0 -0 -0 1 0 
1 -92.556063662854797 76.646307157124355 361.47109820904586 -0.31308512155848384 0.61922217849315642 0.72009832684217445 0.94972506898507714 0.20413197182677012 0.23738667068604616 -3.8761250117769128e-17 0.7582176677843272 -0.65200150939986001 
2 0 0 0 0 0 1 1 0 -0 -0 1 0 4
10 2.1559523494570532 8.439137656636639 -2e+100 2e+100
2 -82.537339772983302 56.831197445343356 338.42795175009627 -0.31308512155848384 0.61922217849315642 0.72009832684217445 0.94972506898507714 0.20413197182677012 0.23738667068604616 -3.8761250117769128e-17 0.7582176677843272 -0.65200150939986001 3.9999999999999996
2 0 0 0 0 0 1 1 0 -0 -0 1 0 6
10 6.1928744726462117 12.476059779825798 -2e+100 2e+100
2 -92.556063662854797 76.646307157124355 361.47109820904586 -0.31308512155848384 0.61922217849315642 0.72009832684217445 0.94972506898507714 0.20413197182677012 0.23738667068604616 -3.8761250117769128e-17 0.7582176677843272 -0.65200150939986001 5.9999999999999991
2 0 0 0 0 0 1 1 0 -0 -0 1 0 1.6000000000000001
1 -93.338776466751 78.194362603357249 363.27134402615133 -0.31308512155848384 0.61922217849315642 0.72009832684217445 0.94972506898507714 0.20413197182677012 0.23738667068604616 -3.8761250117769128e-17 0.7582176677843272 -0.65200150939986001 
1 0 0 2.5 0 0 1 1 0 -0 -0 1 0 
10 3.0755081814089551 9.3586934885885409 -2e+100 2e+100
2 -93.338776466751 78.194362603357249 363.27134402615127 -0.31308512155848384 0.61922217849315642 0.72009832684217445 0.94972506898507714 0.20413197182677012 0.23738667068604616 -3.8761250117769128e-17 0.7582176677843272 -0.65200150939986001 4.8499999999999988
1 0 0 42.736473336800579 0 0 1 1 0 -0 -0 1 0 
1 8 0 0 1 0 -0 0 0 1 0 -1 0 
2 0 0 0 0 0 1 1 0 -0 -0 1 0 4.8499999999999996
Triangulations 0

TShapes 187
Ve
1e-07
0 0 2
0 0

0101101
*
Ve
1e-07
0 0 0
0 0

0101101
*
Ed
 1e-07 1 1 0
1  1 0 0 2
2  1 1 0 0 2
2  2 2 0 0 2
0

0101000
-187 0 +186 0 *
Ve
1e-07
0 16 2
0 0

0101101
*
Ed
 1e-07 1 1 0
1  2 0 0 16
2  3 1 0 0 16
2  4 3 0 0 16
0

0101000
-184 0 +187 0 *
Ve
1e-07
0 16 0
0 0

0101101
*
Ed
 1e-07 1 1 0
1  3 0 0 2
2  5 1 0 0 2
2  6 4 0 0 2
0

0101000
-184 0 +182 0 *
Ed
 1e-07 1 1 0
1  4 0 0 16
2  7 1 0 0 16
2  8 5 0 0 16
2  9 6 4 0 16
0

0101000
-182 0 +186 0 *
Wi

0101100
-185 0 -183 0 +181 0 +180 0 *
Fa
0  1e-07 1 0

0111000
+179 0 *
Ve
1e-07
19 16 0
0 0

0101101
*
Ed
 1e-07 1 1 0
1  5 0 0 19
2  10 4 0 0 19
2  11 5 0 0 19
2  12 6 4 0 19
0

0101000
-177 0 +182 0 *
Ve
1e-07
19 0 0
0 0

0101101
*
Ed
 1e-07 1 1 0
1  6 0 0 19
2  13 2 0 0 19
2  14 5 0 0 19
2  15 6 4 0 19
0

0101000
-175 0 +186 0 *
Ed
 1e-07 1 1 0
1  7 0 0 16
2  16 7 0 0 16
2  17 5 0 0 16
2  18 6 4 0 16
0

0101000
-177 0 +175 0 *
Wi

0101100
-180 3 -176 3 +174 3 +173 3 *
Ve
1e-07
-94.4 34 314.9
0 0

0101101
*
Ed
 1e-07 1 1 0
1  8 0 0 6.28318530717959
2  19 6 0 0 6.28318530717959
2  20 8 8 0 6.28318530717959
0

0101100
+171 0 -171 0 *
Wi

0101100
-170 0 *
Fa
0  1e-07 6 0

0101000
+172 0 +169 0 *
Ve
1e-07
-94.4 34 316.9
0 0

0101101
*
Ed
 1e-07 1 1 0
1  9 0 0 6.28318530717959
2  21 3 3 0 6.28318530717959
2  22 8 8 0 6.28318530717959
0

0101100
+167 0 -167 0 *
Ed
 1e-07 1 1 0
1  10 0 5 7
3  23 24CN 8 0 5 7
0

0101000
+171 9 -167 9 *
Wi

0101100
-166 0 +165 8 +170 0 -165 8 *
Fa
0  1e-07 8 8

0101000
+164 0 *
Ve
1e-07
19 0 2
0 0

0101101
*
Ed
 1e-07 1 1 0
1  11 0 0 2
2  25 7 0 0 2
2  26 2 0 0 2
0

0101000
-162 0 +175 0 *
Ve
1e-07
19 16 2
0 0

0101101
*
Ed
 1e-07 1 1 0
1  12 0 0 16
2  27 7 0 0 16
2  28 3 0 0 16
0

0101000
-160 0 +162 0 *
Ed
 1e-07 1 1 0
1  13 0 0 2
2  29 7 0 0 2
2  30 4 0 0 2
0

0101000
-160 0 +177 0 *
Wi

0101100
-161 0 -159 0 +158 0 +173 0 *
Fa
0  1e-07 7 0

0111000
+157 0 *
Ed
 1e-07 1 1 0
1  14 0 0 19
2  31 4 0 0 19
2  32 3 0 0 19
0

0101000
-160 0 +184 0 *
Wi

0101100
-176 0 -158 0 +155 0 +181 0 *
Fa
0  1e-07 4 0

0111000
+154 0 *
Ed
 1e-07 1 1 0
1  15 0 0 19
2  33 2 0 0 19
2  34 3 0 0 19
0

0101000
-162 0 +187 0 *
Wi

0101100
-183 3 -155 3 +152 3 +159 3 *
Wi

0101100
-166 0 *
Ve
6e-07
-92 37.5 316.9
0 0

0101101
*
Ve
6e-07
-100 37.5 316.9
0 0

0101101
*
Ed
 6e-07 1 1 0
1  16 0 -10.75 -2.75
2  35 3 3 -10.75 -2.75
2  36 9 13 -10.75 -2.75
0

0101000
+149 0 -148 0 *
Ve
6e-07
-92 40.5 316.9
0 0

0101101
*
Ed
 6e-07 1 1 0
1  17 0 4.75 7.75
2  37 3 3 4.75 7.75
2  38 10 13 4.75 7.75
0

0101000
+149 0 -146 0 *
Ve
6e-07
-100 40.5 316.9
0 0

0101101
*
Ed
 6e-07 1 1 0
1  18 0 4.75 7.75
2  39 3 3 4.75 7.75
2  40 11 13 4.75 7.75
0

0101000
+148 0 -144 0 *
Ed
 6e-07 1 1 0
1  19 0 -10.75 -2.75
2  41 3 3 -10.75 -2.75
2  42 12 13 -10.75 -2.75
0

0101000
+146 0 -144 0 *
Wi

0101100
+147 0 -145 0 +143 0 -142 0 *
Fa
0  1e-07 3 3

0101000
+151 0 +150 0 +141 0 *
Ve
6e-07
-92 40.5 355.728821618374
0 0

0101101
*
Ed
 1e-07 1 1 0
1  20 0 2 40.8288216183738
2  43 10 0 2 40.8288216183738
2  44 12 0 2 40.8288216183738
0

0101000
+146 14 -139 14 *
Ve
6.00000014210855e-07
-99.8274023587523 40.5 355.728821618374
0 0

0101101
*
Ed
 6e-07 1 1 0
1  21 0 -8.05873568645563 -0.231333327703345
2  45 12 13 -8.05873568645563 -0.231333327703345
2  46 13 18 -8.05873568645563 -0.231333327703345
0

0101000
+139 0 -137 0 *
Ve
6.00000014210855e-07
-99.7547157529561 40.5 358
0 0

0101101
*
Ed
 6e-07 1 1 0
1  22 0 -21.3266403518122 -19.0542991397958
2  47 12 13 -21.3266403518122 -19.0542991397958
2  48 14 18 -21.3266403518122 -19.0542991397958
0

0101000
+135 0 -137 0 *
Ve
1e-07
0 3 43.1
0 0

0101101
*
Ed
 1e-07 1 1 0
1  23 0 0 0.245284247043912
2  49 12 0 0 0.245284247043912
2  50 15 0 0 0.245284247043912
0

0101000
+133 0 -135 14 *
Ed
 1e-07 1 1 0
1  24 0 2 43.1
2  51 11 0 2 43.1
2  52 12 0 2 43.1
0

0101000
+144 14 -133 0 *
Wi

0101100
-138 13 -136 0 +134 0 +132 13 +131 13 +142 0 *
Fa
0  1e-07 12 13

0101000
+130 0 *
Ve
6.00000007105427e-07
-100 39.2256160424823 358
0 0

0101101
*
Ed
 1e-07 1 1 0
1  25 0 1.72561604248233 3
2  53 11 0 1.72561604248233 3
2  54 15 0 1.72561604248233 3
0

0101000
+128 14 -133 0 *
Ed
 6e-07 1 1 0
1  26 0 1.19429789389781 2.49207246331512
2  55 15 13 1.19429789389781 2.49207246331512
2  56 14 18 1.19429789389781 2.49207246331512
0

0101000
+128 0 -135 0 *
Wi

0101100
-127 13 -132 13 +126 0 *
Fa
0  1e-07 15 13

0101000
+125 0 *
Ve
6.00000028421709e-07
-100 39.6273883437186 355.583725834839
0 0

0101101
*
Ed
 6e-07 1 1 0
1  27 0 -20.841330777772 -18.3918814879792
2  57 11 13 -20.841330777772 -18.3918814879792
2  58 14 18 -20.841330777772 -18.3918814879792
0

0101000
+128 0 -123 0 *
Ve
1e-07
0 3 0
0 0

0101101
*
Ed
 1e-07 1 1 0
1  28 0 0 0.613414117255705
2  59 14 0 0 0.613414117255705
2  60 13 0 0 0.613414117255705
0

0101000
+121 0 -123 19 *
Ve
1e-07
0 0 0
0 0

0101101
*
Ed
 1e-07 1 1 0
1  29 0 0 3
2  61 14 0 0 3
2  62 16 0 0 3
0

0101000
-121 0 +119 0 *
Ve
6.00000042632564e-07
-93.2789602349504 73.1152525067547 364.193197565154
0 0

0101101
*
Ed
 1e-07 1 1 0
1  30 0 0 35.7094598375421
2  63 14 0 0 35.7094598375421
2  64 17 0 0 35.7094598375421
0

0101000
+119 0 -117 19 *
Ve
6.00000100485917e-07
-93.2115830205335 73.5180339184589 363.876134781732
0 0

0101101
*
Ed
 6e-07 1 1 0
1  31 0 -10.4100984953621 -9.89308653876122
2  65 14 18 -10.4100984953621 -9.89308653876122
2  66 18 24 -10.4100984953621 -9.89308653876122
2  67 19 0 -10.4100984953621 -9.89308653876122
0

0101000
+115 0 -117 0 *
Ve
1.12835965553261e-07
-93.6478873914884 71.7421233084017 360.923687316193
0 0

0101101
*
Ed
 1e-07 1 1 0
1  32 0 1.60656594358692 2.00595247536821
2  68 14 18 1.60656594358692 2.00595247536821
2  69 20 29 1.60656594358692 2.00595247536821
2  70 21 0 1.60656594358692 2.00595247536821
0

0101000
+115 0 -113 0 *
Ed
 1e-07 1 1 0
1  28 0 1.51468756901282 33.7829894094629
2  59 14 0 1.51468756901282 33.7829894094629
2  60 13 0 1.51468756901282 33.7829894094629
0

0101000
+137 19 -113 19 *
Wi

0101100
+126 0 -122 0 +120 18 +118 18 -116 18 +114 0 -112 0 +111 18 +134 0 *
Fa
0  1e-07 14 18

0101000
+110 0 *
Ve
6e-07
-88.8134300104718 77.9707985987792 361.959376577432
0 0

0101101
*
Ed
 1e-07 1 1 0
1  33 0 0 1.91654462532598
2  71 21 0 0 1.91654462532598
2  72 19 0 0 1.91654462532598
0

0101000
+108 0 -115 0 *
Ve
1.12834251244113e-07
-88.4803030647011 76.9152585546708 361.783863898166
0 0

0101101
*
Ed
 1.12834219467676e-07 1 1 0
1  34 0 1.82654144585229 3.9701473285388
2  73 13 18 1.82654144585229 3.9701473285388
2  74 20 29 1.82654144585229 3.9701473285388
2  75 21 0 1.82654144585229 3.9701473285388
0

0101000
+106 0 -113 0 *
Ed
 1e-07 1 1 0
1  35 0 1.65421617143122 1.82654144585229
2  76 13 18 1.65421617143122 1.82654144585229
2  77 20 29 1.65421617143122 1.82654144585229
2  78 21 0 1.65421617143122 1.82654144585229
0

0101000
+108 0 -106 0 *
Wi

0101100
+107 0 +112 0 -105 0 -104 0 *
Fa
0  0 21 0

0111000
+103 0 *
Ve
6e-07
-86.9714908715399 78.7511994057973 362.089139761032
0 0

0101101
*
Ed
 6e-07 1 1 0
1  36 0 14.9749435374563 16.979589065958
2  79 13 18 14.9749435374563 16.979589065958
2  80 18 24 14.9749435374563 16.979589065958
2  81 19 0 14.9749435374563 16.979589065958
0

0101000
+108 0 -101 0 *
Ve
6.00000056843419e-07
-87.5551532908605 75.5403399941589 364.596435324578
0 0

0101101
*
Ed
 1e-07 1 1 0
1  37 0 0.200167760536124 5.7832356098211
2  82 22 0 0.200167760536124 5.7832356098211
2  83 18 0 0.200167760536124 5.7832356098211
2  84 23 30 0.200167760536124 5.7832356098211
2  85 19 30 0.200167760536124 5.7832356098211
0

0101000
+101 30 -99 30 *
Ed
 6e-07 1 1 0
1  38 0 9.12620913747305 15.3556245149705
2  86 17 18 9.12620913747305 15.3556245149705
2  87 18 24 9.12620913747305 15.3556245149705
2  88 19 0 9.12620913747305 15.3556245149705
0

0101000
+117 0 -99 0 *
Wi

0101100
-114 0 -107 0 +100 0 +98 24 -97 0 *
Ve
1.00000058592855e-07
-91.0365035524787 76.9729183120472 361.850916882144
0 0

0101101
*
Ed
 1e-07 1 1 0
1  39 0 0 6.28318530717959
2  89 24 35 0 6.28318530717959
2  90 19 0 0 6.28318530717959
0

0101000
+95 0 -95 0 *
Wi

0101100
-94 0 *
Fa
0  0 19 0

0111000
+96 0 +93 0 *
Ve
1.00000058592855e-07
-91.8192163563749 78.5209737582801 363.651162699249
0 0

0101101
*
Ed
 1e-07 1 1 0
1  40 0 0 6.28318530717959
2  91 24 35 0 6.28318530717959
0

0101000
+91 0 -91 0 *
Ed
 1e-07 1 1 0
1  41 0 29.5 32
3  92 93CN 24 0 29.5 32
0

0101000
+95 36 -91 36 *
Wi

0101100
+90 0 -89 35 +94 0 +89 35 *
Fa
0  1e-07 24 35

0111000
+88 0 *
Ve
6.00000075531729e-07
-88.8379006122883 78.3800003480308 365.068607270773
0 0

0101101
*
Ve
6.00000014210855e-07
-87.6807449027155 78.8702691253803 365.150127992941
0 0

0101101
*
Ed
 6e-07 1 1 0
1  42 0 15.3130241007228 16.5723963405247
2  94 17 18 15.3130241007228 16.5723963405247
2  95 26 24 15.3130241007228 16.5723963405247
0

0101000
+86 0 -85 0 *
Ve
6.0000011718571e-07
-88.7481084561256 79.4824837938422 364.159606946038
0 0

0101101
*
Ed
 1e-07 1 1 0
1  43 0 0 0.296281909634549
2  96 27 0 0 0.296281909634549
0

0101000
+86 0 -83 0 *
Ve
6.00000014210855e-07
-87.6512316111155 79.1368027897038 364.933763952131
0 0

0101101
*
Ed
 6e-07 1 1 0
1  44 0 2.89268646593767 4.27903174754128
2  97 28 18 2.89268646593767 4.27903174754128
2  98 26 24 2.89268646593767 4.27903174754128
0

0101000
+83 0 -81 0 *
Ed
 1e-07 1 1 0
1  45 0 0 6.22575001274914
2  99 23 0 0 6.22575001274914
2  100 26 24 0 6.22575001274914
0

0101000
+85 0 -81 0 *
Wi

0101100
-84 0 +82 0 +80 0 -79 0 *
Wi

0101100
+90 0 *
Fa
0  0 25 0

0111000
+78 0 +77 0 *
Ve
1.00000014210855e-07
-87.5271758650999 79.1951673357984 364.435187697062
0 0

0101101
*
Ed
 1e-07 1 1 0
1  46 0 2.09534040701051 2.15693359432866
2  101 28 18 2.09534040701051 2.15693359432866
2  102 22 24 2.09534040701051 2.15693359432866
2  103 23 0 2.09534040701051 2.15693359432866
0

0101000
+81 0 -75 0 *
Ve
1.00000172882509e-07
-87.2985897338686 79.5188260173346 362.216778881896
0 0

0101101
*
Ed
 1e-07 1 1 0
1  47 0 2.15693359432866 2.44277860077609
2  104 28 18 2.15693359432866 2.44277860077609
2  105 22 24 2.15693359432866 2.44277860077609
2  106 23 0 2.15693359432866 2.44277860077609
0

0101000
+75 0 -73 0 *
Ve
1e-07
8 3 42.7364733368006
0 0

0101101
*
Ed
 1e-07 1 1 0
1  48 0 4.72206492208442 8
2  107 13 0 4.72206492208442 8
2  108 28 0 4.72206492208442 8
0

0101000
+73 19 -71 0 *
Ve
1e-07
8 0 42.7364733368006
0 0

0101101
*
Ed
 1e-07 1 1 0
1  49 0 0 3
2  109 29 0 0 3
2  110 28 0 0 3
0

0101000
-71 0 +69 0 *
Ve
1.00001373462751e-07
-88.9878107893299 79.3518784296781 365.230208838597
0 0

0101101
*
Ed
 1e-07 1 1 0
1  50 0 3.00098985829976 8
2  111 17 0 3.00098985829976 8
2  112 28 0 3.00098985829976 8
0

0101000
+67 19 -69 0 *
Ve
1.00000020097183e-07
-88.8488085563316 79.4142213045114 364.689927274934
0 0

0101101
*
Ed
 1e-07 1 1 0
1  51 0 2.07446202056081 2.15693359432866
2  113 28 18 2.07446202056081 2.15693359432866
2  114 30 41 2.07446202056081 2.15693359432866
2  115 27 0 2.07446202056081 2.15693359432866
0

0101000
+67 0 -65 0 *
Ed
 1e-07 1 1 0
1  52 0 2.15693359432866 2.2389900769651
2  116 28 18 2.15693359432866 2.2389900769651
2  117 30 41 2.15693359432866 2.2389900769651
2  118 27 0 2.15693359432866 2.2389900769651
0

0101000
+65 0 -83 0 *
Wi

0101100
-80 0 -74 0 -72 0 -70 18 +68 18 +66 18 -64 0 -63 0 *
Fa
0  1e-07 28 18

0101000
+62 0 *
Ve
6.00000085560676e-07
-92 38.8646883482675 355.456905899939
0 0

0101101
*
Ed
 1e-07 1 1 0
1  53 0 1.38658588274442 42.7364733368006
2  119 29 0 1.38658588274442 42.7364733368006
2  120 13 0 1.38658588274442 42.7364733368006
0

0101000
+60 19 -71 0 *
Ve
6.00000021316282e-07
-92 38.4418287309386 358
0 0

0101101
*
Ed
 6e-07 1 1 0
1  54 0 -20.9698919336004 -18.3918814879792
2  121 10 13 -20.9698919336004 -18.3918814879792
2  122 29 18 -20.9698919336004 -18.3918814879792
0

0101000
+58 0 -60 0 *
Ve
6.00000014210855e-07
-92.1812764118301 37.5 358
0 0

0101101
*
Ed
 6e-07 1 1 0
1  55 0 0.977551719458408 1.93666719525232
2  123 15 13 0.977551719458408 1.93666719525232
2  124 29 18 0.977551719458408 1.93666719525232
0

0101000
+56 0 -58 0 *
Ve
6e-07
-92.2655370046488 37.5 355.367178798121
0 0

0101101
*
Ed
 6e-07 1 1 0
1  56 0 -21.5688960469511 -18.9347268556183
2  125 9 13 -21.5688960469511 -18.9347268556183
2  126 29 18 -21.5688960469511 -18.9347268556183
0

0101000
+56 0 -54 0 *
Ve
1e-07
8 0 0
0 0

0101101
*
Ed
 1e-07 1 1 0
1  57 0 0 2.86466806988146
2  127 29 0 0 2.86466806988146
2  128 16 0 0 2.86466806988146
0

0101000
+52 0 -54 19 *
Ed
 1e-07 1 1 0
1  58 0 0 42.7364733368006
2  129 29 0 0 42.7364733368006
2  130 17 0 0 42.7364733368006
0

0101000
-69 0 +52 0 *
Wi

0101100
-68 18 +59 18 +57 0 +55 0 -53 0 +51 18 -50 18 *
Fa
0  1e-07 29 18

0101000
+49 0 *
Ve
1e-07
8 0 43.1
0 0

0101101
*
Ed
 1e-07 1 1 0
1  59 0 0 0.941828730938617
2  131 10 0 0 0.941828730938617
2  132 15 0 0 0.941828730938617
0

0101000
+47 0 -58 14 *
Ed
 1e-07 1 1 0
1  60 0 7.81872358816993 8
2  133 9 0 7.81872358816993 8
2  134 15 0 7.81872358816993 8
0

0101000
+56 14 -47 0 *
Wi

0101100
-55 0 +46 13 +45 13 *
Fa
0  1e-07 15 13

0101000
+44 0 *
Ed
 1e-07 1 1 0
1  61 0 1.90901301962002 2.0407668728504
2  135 17 18 1.90901301962002 2.0407668728504
2  136 30 41 1.90901301962002 2.0407668728504
2  137 27 0 1.90901301962002 2.0407668728504
0

0101000
+67 0 -86 0 *
Wi

0101100
+82 0 -63 0 -64 0 +42 0 *
Fa
0  0 27 0

0111000
+41 0 *
Ed
 1e-07 1 1 0
1  62 0 1.54069643940485 1.62637368531617
2  138 13 18 1.54069643940485 1.62637368531617
2  139 22 24 1.54069643940485 1.62637368531617
2  140 23 0 1.54069643940485 1.62637368531617
0

0101000
+73 0 -101 0 *
Ed
 1e-07 1 1 0
1  63 0 1.94556992760089 2.32649114321079
2  141 17 18 1.94556992760089 2.32649114321079
2  142 22 24 1.94556992760089 2.32649114321079
2  143 23 0 1.94556992760089 2.32649114321079
0

0101000
+85 0 -99 0 *
Wi

0101100
+79 0 +74 0 +72 0 +39 0 +98 24 -38 0 *
Fa
0  0 23 0

0111000
+37 0 *
Ed
 1e-07 1 1 0
1  64 0 0 8
2  144 17 0 0 8
2  145 16 0 0 8
0

0101000
-52 0 +119 0 *
Wi

0101100
+66 18 -42 0 -84 0 -38 0 +97 0 +116 18 -35 18 -50 18 *
Fa
0  1e-07 17 18

0101000
+34 0 *
Ve
6.00000014210855e-07
-100 39.0108716360621 355.481212908136
0 0

0101101
*
Ed
 1e-07 1 1 0
1  65 0 0 0.119686556103752
2  146 13 0 0 0.119686556103752
2  147 16 0 0 0.119686556103752
0

0101000
+121 0 -32 19 *
Ve
6.00000014210855e-07
-100 38.5920537300425 358
0 0

0101101
*
Ed
 6e-07 1 1 0
1  66 0 18.3918814879792 20.9452511933962
2  148 11 13 18.3918814879792 20.9452511933962
2  149 16 18 18.3918814879792 20.9452511933962
0

0101000
+32 0 -30 0 *
Ve
6.00000028421709e-07
-94.4788421948761 37.5 358
0 0

0101101
*
Ed
 6e-07 1 1 0
1  67 0 -5.57487983271568 0.0532428434864362
2  150 15 13 -5.57487983271568 0.0532428434864362
2  151 16 18 -5.57487983271568 0.0532428434864362
0

0101000
+28 0 -30 0 *
Ed
 6e-07 1 1 0
1  68 0 -12.7349284278651 -9.29538378559747
2  152 9 13 -12.7349284278651 -9.29538378559747
2  153 16 18 -12.7349284278651 -9.29538378559747
0

0101000
+28 0 -54 0 *
Wi

0101100
-31 18 -29 0 +27 0 -26 0 +51 18 +35 18 -118 18 *
Fa
0  1e-07 16 18

0101000
+25 0 *
Ve
1e-07
0 0 43.1
0 0

0101101
*
Ed
 1e-07 1 1 0
1  25 0 0 1.09205373004254
2  53 11 0 0 1.09205373004254
2  54 15 0 0 1.09205373004254
0

0101000
+23 0 -30 14 *
Ed
 1e-07 1 1 0
1  60 0 0 5.52115780512392
2  133 9 0 0 5.52115780512392
2  134 15 0 0 5.52115780512392
0

0101000
+23 0 -28 14 *
Wi

0101100
-22 13 +27 0 +21 13 *
Fa
0  1e-07 15 13

0101000
+20 0 *
Ed
 6e-07 1 1 0
1  69 0 4.0619221911162 4.68690359160788
2  154 11 13 4.0619221911162 4.68690359160788
2  155 13 18 4.0619221911162 4.68690359160788
0

0101000
+32 0 -123 0 *
Wi

0101100
-31 18 -18 0 +120 18 *
Fa
0  1e-07 13 18

0101000
+17 0 *
Ed
 6e-07 1 1 0
1  70 0 3.91373182611916 5.57149609048969
2  156 10 13 3.91373182611916 5.57149609048969
2  157 13 18 3.91373182611916 5.57149609048969
0

0101000
+60 0 -139 0 *
Wi

0101100
-59 18 +70 18 -39 0 +100 0 -104 0 -105 0 +111 18 +136 0 +15 0 *
Fa
0  1e-07 13 18

0101000
+14 0 *
Ed
 1e-07 1 1 0
1  71 0 2 43.1
2  158 11 0 2 43.1
2  159 9 0 2 43.1
0

0101000
+148 14 -23 0 *
Wi

0101100
-12 13 -22 13 +29 0 -18 0 +122 0 -127 13 +131 13 +143 0 *
Fa
0  1e-07 11 13

0101000
+11 0 *
Ed
 1e-07 1 1 0
1  72 0 2 43.1
2  160 10 0 2 43.1
2  161 9 0 2 43.1
0

0101000
+149 14 -47 0 *
Wi

0101100
-9 13 -46 13 -57 0 -15 0 +138 13 +145 0 *
Fa
0  1e-07 10 13

0101000
+8 0 *
Wi

0101100
-9 13 +45 13 -53 0 +26 0 +21 13 +12 13 +147 0 *
Fa
0  1e-07 9 13

0101000
+6 0 *
Wi

0101100
-174 0 -161 0 +152 0 +185 0 *
Fa
0  1e-07 2 0

0111000
+4 0 *
Sh

0101100
-178 3 -168 0 -163 0 +156 3 +153 3 +140 0 +129 0 +124 0 -109 0 -102 0 
-92 0 -87 0 +76 0 +61 0 +48 0 +43 0 -40 0 +36 0 -33 0 -24 0 
+19 0 +16 0 +13 0 -10 0 +7 0 -5 0 -3 3 *
So

0100000
+2 0 *

+1 0 