# https://github.com/mikedh/trimesh
v 0.11722872 0.00019226 0.03135087
v 0.14278681 -0.07090241 0.03124189
v 0.12304591 -0.07346901 0.03135087
v 0.12304591 -0.07646994 0.03159231
v 0.12304841 -0.11390275 0.03625354
v 0.11722872 0.00019226 0.03864879
v 0.11722872 0.07347842 0.03135087
v 0.14278681 -0.07346901 0.03125899
v 0.14278681 0.00019226 0.03124189
v 0.14278681 -0.07390335 0.03126433
v 0.14278681 -0.07690429 0.03141604
v 0.13349683 -0.11390275 0.03625354
v 0.12304841 -0.11390275 0.04215619
v 0.11722872 0.08779212 0.04063486
v 0.11722872 0.07649910 0.03159231
v 0.14276429 0.07649910 0.03140963
v 0.14276429 0.07347842 0.03126433
v 0.14276429 0.07047748 0.03124937
v 0.14276429 0.08779212 0.03302925
v 0.14278681 0.00019226 0.03891053
v 0.14278681 -0.08778271 0.03298758
v 0.13831321 -0.11119795 0.03619905
v 0.13370199 -0.11390275 0.03630589
v 0.13815058 -0.11390275 0.04215619
v 0.12304841 -0.11139538 0.04215619
v 0.14276429 0.08779212 0.04093827
v 0.11722872 0.08779212 0.03482622
v 0.14278681 -0.08778271 0.04095429
v 0.13978189 -0.11246151 0.04215619
v 0.13978189 -0.11244176 0.04074917
v 0.13978189 -0.11180998 0.03825457
v 0.13978189 -0.11123743 0.03735501
v 0.13978189 -0.10989491 0.03639029
v 0.13978189 -0.10928287 0.03609863
v 0.13649675 -0.11334994 0.03697681
v 0.13649675 -0.11390275 0.03765629
v 0.13814557 -0.11390275 0.04074917
v 0.13978189 -0.10067491 0.04215619
v 0.13951918 -0.11267868 0.04074917
v 0.13807551 -0.11390275 0.03914557
v 0.13775526 -0.11390275 0.03884002
f 1 2 3
f 1 3 4
f 1 4 5
f 1 5 13
f 1 13 6
f 1 6 14
f 1 14 27
f 1 27 15
f 1 15 7
f 1 7 9
f 1 9 2
f 2 8 3
f 2 9 20
f 2 20 28
f 2 28 21
f 2 21 11
f 2 11 10
f 2 10 8
f 3 10 11
f 3 11 4
f 3 8 10
f 4 11 5
f 5 12 23
f 5 23 36
f 5 36 41
f 5 41 40
f 5 40 37
f 5 37 24
f 5 24 13
f 5 11 12
f 6 13 14
f 7 15 16
f 7 16 17
f 7 17 18
f 7 18 9
f 9 18 17
f 9 17 16
f 9 16 19
f 9 19 26
f 9 26 20
f 11 21 12
f 12 22 23
f 12 21 22
f 13 24 29
f 13 29 38
f 13 38 25
f 13 25 14
f 14 26 19
f 14 19 27
f 14 25 26
f 15 27 19
f 15 19 16
f 20 26 28
f 21 29 30
f 21 30 31
f 21 31 32
f 21 32 33
f 21 33 34
f 21 34 22
f 21 28 29
f 22 34 33
f 22 33 32
f 22 32 35
f 22 35 23
f 23 35 36
f 24 37 29
f 25 38 26
f 26 38 28
f 28 38 29
f 29 37 39
f 29 39 30
f 30 39 40
f 30 40 31
f 31 40 32
f 32 40 41
f 32 41 36
f 32 36 35
f 37 40 39

