# Independent Gorilla armor; SI body-local vertices
v 0.10234406 -0.0072 -0.00670095
v 0.09683144 0.03293902 -0.02042746
v 0.07712517 0.06696724 -0.03446949
v 0.04622537 0.08970417 -0.04668928
v 0.00883623 0.09768832 -0.05522647
v -0.02935007 0.08970417 -0.05878135
v -0.06252002 0.06696724 -0.05681272
v -0.0856238 0.03293902 -0.0496203
v -0.09514406 -0.0072 -0.03829905
v -0.08963144 -0.04733902 -0.02457254
v -0.06992517 -0.08136724 -0.01053051
v -0.03902537 -0.10410417 0.00168928
v -0.00163623 -0.11208832 0.01022647
v 0.03655007 -0.10410417 0.01378135
v 0.06972002 -0.08136724 0.01181272
v 0.0928238 -0.04733902 0.0046203
v 0.18226491 -0.0288 -0.06314161
v 0.17212835 0.02411053 -0.08169483
v 0.13797908 0.06896591 -0.10151244
v 0.08501602 0.09893732 -0.11957738
v 0.02130231 0.10946188 -0.13313943
v -0.04346222 0.09893732 -0.1401339
v -0.09941774 0.06896591 -0.13949593
v -0.13804555 0.02411053 -0.13132266
v -0.15346491 -0.0288 -0.11685839
v -0.14332835 -0.08171053 -0.09830517
v -0.10917908 -0.12656591 -0.07848756
v -0.05621602 -0.15653732 -0.06042262
v 0.00749769 -0.16706188 -0.04686057
v 0.07226222 -0.15653732 -0.0398661
v 0.12821774 -0.12656591 -0.04050407
v 0.16684555 -0.08171053 -0.04867734
v 0.17664169 -0.0768 -0.21788133
v 0.1685779 -0.02753847 -0.23493523
v 0.14069571 0.01422344 -0.25276019
v 0.09723992 0.04212785 -0.26864253
v 0.04482629 0.05192658 -0.2801643
v -0.00856569 0.04212785 -0.28557142
v -0.05480756 0.01422344 -0.28404071
v -0.08685943 -0.02753847 -0.2758052
v -0.09984169 -0.0768 -0.26211867
v -0.0917779 -0.12606153 -0.24506477
v -0.06389571 -0.16782344 -0.22723981
v -0.02043992 -0.19572785 -0.21135747
v 0.03197371 -0.20552658 -0.1998357
v 0.08536569 -0.19572785 -0.19442858
v 0.13160756 -0.16782344 -0.19595929
v 0.16365943 -0.12606153 -0.2041948
v 0.18503008 -0.1232 -0.36525119
v 0.17772943 -0.08123648 -0.37984762
v 0.15274912 -0.04566152 -0.39522846
v 0.11389219 -0.02189109 -0.4090521
v 0.06707425 -0.01354403 -0.41921403
v 0.0194229 -0.02189109 -0.42416719
v -0.02180737 -0.04566152 -0.42315749
v -0.05033962 -0.08123648 -0.41633867
v -0.06183008 -0.1232 -0.40474881
v -0.05452943 -0.16516352 -0.39015238
v -0.02954912 -0.20073848 -0.37477154
v 0.00930781 -0.22450891 -0.3609479
v 0.05612575 -0.23285597 -0.35078597
v 0.1037771 -0.22450891 -0.34583281
v 0.14500737 -0.20073848 -0.34684251
v 0.17353962 -0.16516352 -0.35366133
v 0.15630733 -0.1408 -0.42625483
v 0.15146217 -0.10686428 -0.43788948
v 0.13427602 -0.07809497 -0.44984545
v 0.10736533 -0.05887192 -0.46030253
v 0.074827 -0.05212169 -0.46766874
v 0.0416147 -0.05887192 -0.47082263
v 0.0127847 -0.07809497 -0.46928406
v -0.00727389 -0.10686428 -0.46328725
v -0.01550733 -0.1408 -0.45374517
v -0.01066217 -0.17473572 -0.44211052
v 0.00652398 -0.20350503 -0.43015455
v 0.03343467 -0.22272808 -0.41969747
v 0.065973 -0.22947831 -0.41233126
v 0.0991853 -0.22272808 -0.40917737
v 0.1280153 -0.20350503 -0.41071594
v 0.14807389 -0.17473572 -0.41671275
f 1 2 3 4 5 6 7 8 9 10 11 12 13 14 15 16
f 17 18 2 1
f 18 19 3 2
f 19 20 4 3
f 20 21 5 4
f 21 22 6 5
f 22 23 7 6
f 23 24 8 7
f 24 25 9 8
f 25 26 10 9
f 26 27 11 10
f 27 28 12 11
f 28 29 13 12
f 29 30 14 13
f 30 31 15 14
f 31 32 16 15
f 32 17 1 16
f 33 34 18 17
f 34 35 19 18
f 35 36 20 19
f 36 37 21 20
f 37 38 22 21
f 38 39 23 22
f 39 40 24 23
f 40 41 25 24
f 41 42 26 25
f 42 43 27 26
f 43 44 28 27
f 44 45 29 28
f 45 46 30 29
f 46 47 31 30
f 47 48 32 31
f 48 33 17 32
f 49 50 34 33
f 50 51 35 34
f 51 52 36 35
f 52 53 37 36
f 53 54 38 37
f 54 55 39 38
f 55 56 40 39
f 56 57 41 40
f 57 58 42 41
f 58 59 43 42
f 59 60 44 43
f 60 61 45 44
f 61 62 46 45
f 62 63 47 46
f 63 64 48 47
f 64 49 33 48
f 65 66 50 49
f 66 67 51 50
f 67 68 52 51
f 68 69 53 52
f 69 70 54 53
f 70 71 55 54
f 71 72 56 55
f 72 73 57 56
f 73 74 58 57
f 74 75 59 58
f 75 76 60 59
f 76 77 61 60
f 77 78 62 61
f 78 79 63 62
f 79 80 64 63
f 80 65 49 64
f 80 79 78 77 76 75 74 73 72 71 70 69 68 67 66 65
