DBRep_DrawableShape

CASCADE Topology V3, (c) Open Cascade
Locations 26
1
              1               0               0              -0 
              0               1               0              -0 
              0               0               1          -0.425 
1
              1              -0               0               0 
              0 2.22044604925031e-16              -1               0 
              0               1 2.22044604925031e-16               0 
1
              1               0               0             160 
              0               1               0         -32.475 
              0               0               1             576 
2  1 1 2 1 3 1 0
1
              1               0               0              -0 
              0               1               0              -0 
              0               0               1              -1 
1
              1              -0               0               0 
              0 2.22044604925031e-16              -1               0 
              0               1 2.22044604925031e-16               0 
1
              1               0               0           157.2 
              0               1               0         -32.475 
              0               0               1 580.849742261193 
2  5 1 6 1 7 1 0
1
              1               0               0              -0 
              0               1               0              -0 
              0               0               1              -1 
1
              1              -0               0               0 
              0 2.22044604925031e-16              -1               0 
              0               1 2.22044604925031e-16               0 
1
              1               0               0           162.8 
              0               1               0         -32.475 
              0               0               1 580.849742261193 
2  9 1 10 1 11 1 0
1
              1               0               0              -0 
              0               1               0              -0 
              0               0               1          -0.425 
1
              1              -0               0               0 
              0 2.22044604925031e-16              -1               0 
              0               1 2.22044604925031e-16               0 
1
              1               0               0           162.8 
              0               1               0         -32.475 
              0               0               1 580.849742261193 
2  13 1 14 1 15 1 0
1
              1               0               0              -0 
              0               1               0              -0 
              0               0               1              -1 
1
              1              -0               0               0 
              0 2.22044604925031e-16              -1               0 
              0               1 2.22044604925031e-16               0 
1
              1               0               0             160 
              0               1               0         -32.475 
              0               0               1             576 
2  17 1 18 1 19 1 0
1
              1               0               0              -0 
              0               1               0              -0 
              0               0               1          -0.425 
1
              1              -0               0               0 
              0 2.22044604925031e-16              -1               0 
              0               1 2.22044604925031e-16               0 
1
              1               0               0           157.2 
              0               1               0         -32.475 
              0               0               1 580.849742261193 
2  21 1 22 1 23 1 0
2  7 -1 6 -1 5 -1 0
2  11 -1 10 -1 9 -1 0
Curve2ds 74
8 -5.847902970501198 -0
1 0 0 -0.42261826174069661 -0.90630778703665138 
8 -5.847902970501198 -0
1 0 -1.4250000000000043 -1 -2.0124075451303262e-16 
1 0 0 -0.42261826174069661 -0.90630778703665138 
1 0 0 -0.42261826174069661 -0.90630778703665138 
1 5.4247959046638963 0.84999999999999998 1 0 
2 2.8000000000000114 4.8497422611928869 0.65365720074252587 -0.75679076627390562 0.75679076627390562 0.65365720074252587 1.4999999999999969
2 2.8000000000000114 4.8497422611928869 0.65365720074252587 -0.75679076627390562 0.75679076627390562 0.65365720074252587 1.4999999999999969
1 7.4176493209759018 1.4250000000000043 -1 -0 
2 0 0 0.42261826174069833 0.90630778703665049 0.90630778703665049 -0.42261826174069833 3.7999999999999998
2 0 0 0.42261826174069833 0.90630778703665049 0.90630778703665049 -0.42261826174069833 3.7999999999999687
2 0 0 0.42261826174069833 0.90630778703665049 0.90630778703665049 -0.42261826174069833 3.7999999999999687
1 7.4176493209759045 0.84999999999999998 -1 -0 
2 0 0 0.42261826174069578 0.90630778703665171 0.90630778703665171 -0.42261826174069578 5.2999999999999998
2 0 0 0.42261826174069578 0.90630778703665171 0.90630778703665171 -0.42261826174069578 5.2999999999999883
2 0 0 0.42261826174069578 0.90630778703665171 0.90630778703665171 -0.42261826174069578 5.2999999999999883
8 -4.4999999999999574 1.3479029705012453
1 -1.9017821778331268 4.0783850416648875 -0.42261826174069661 0.90630778703665138 
8 -4.4999999999999574 1.3479029705012453
1 4.5000000000000728 -1.4250000000000043 -1 2.0124075451303262e-16 
1 -1.9017821778331268 4.0783850416648875 -0.42261826174069661 0.90630778703665138 
1 -1.9017821778331268 4.0783850416648875 -0.42261826174069661 0.90630778703665138 
1 5.4801363844704634 0.84999999999999998 1 0 
2 -2.8000000000000114 4.8497422611928869 0.69451631119392976 -0.71947695827286684 0.71947695827286684 0.69451631119392976 1.499999999999984
2 -2.8000000000000114 4.8497422611928869 1 0 -0 1 0.59999999999999998
1 0 1.4250000000000043 1 0 
2 2.8000000000000114 4.8497422611928869 1 0 -0 1 0.59999999999999998
1 0 1.4250000000000043 1 0 
2 2.8000000000000114 4.8497422611928869 1 0 -0 1 0.59999999999999432
8 -2.3999999996249244e-06 0.85000240000000105
1 4.1603160402185857 -0.57500000000000284 2.0124075451303267e-16 -1 
8 -2.3999999996249244e-06 0.85000240000000105
1 3.9446415762989022 -2.3963396542854039e-16 0 1 
8 0 0.85000000000000142
1 10.227826883478489 -2.3963396542854039e-16 0 1 
8 0.57499940000000294 1.4250006000000042
1 1.1344640137963153 7.6471486714951705e-16 0 1 
8 0.57499940000000294 1.4250006000000042
1 3.7999999999999687 0 2.0124075451303267e-16 -1 
8 0.57500000000000284 1.4250000000000043
1 7.4176493209759018 7.6471486714951705e-16 0 1 
8 -5.847902970501198 -0
1 0 0 -0.42261826174069661 -0.90630778703665138 
8 -5.847902970501198 -0
1 0 -0.57500000000000284 -1 -2.0124075451303262e-16 
1 0 0 -0.42261826174069661 -0.90630778703665138 
1 0 0 -0.42261826174069661 -0.90630778703665138 
1 5.4247959046639105 0 1 0 
2 2.8000000000000114 4.8497422611928869 0.65365720074253675 -0.75679076627389641 0.75679076627389641 0.65365720074253675 1.5000000000000153
2 2.8000000000000114 4.8497422611928869 0.65365720074253675 -0.75679076627389641 0.75679076627389641 0.65365720074253675 1.5000000000000153
8 -2.3999999996249244e-06 0.85000240000000105
1 7.0597872570683764 8.2479714431250144e-16 0 1 
8 -2.3999999996249244e-06 0.85000240000000105
1 5.4247959046638821 -2.5206196006230112e-16 0 1 
8 0 0.85000000000000142
1 5.4247959046638821 -2.5206196006230112e-16 0 1 
1 2.0071286397934847 0.57500000000000284 1 0 
2 0 0 -0.42261826174070444 0.90630778703664761 -0.90630778703664761 -0.42261826174070444 3.7999999999999998
2 0 0 -0.42261826174070444 0.90630778703664761 -0.90630778703664761 -0.42261826174070444 3.7999999999999807
2 0 0 -0.42261826174070444 0.90630778703664761 -0.90630778703664761 -0.42261826174070444 3.7999999999999807
8 0.57499940000000294 1.4250006000000042
1 2.007128639793478 7.6471486714951705e-16 0 1 
8 0.57499940000000294 1.4250006000000042
1 5.2000000000000615 0 -2.0124075451303267e-16 -1 
8 0.57500000000000284 1.4250000000000043
1 2.007128639793478 7.6471486714951705e-16 0 1 
8 -2.3999999996249244e-06 0.85000240000000105
1 2.3649907037010029 8.2479714431250144e-16 0 1 
8 -2.3999999996249244e-06 0.85000240000000105
1 3.9999820561054973 -2.5206196006230112e-16 0 1 
8 0 0.85000000000000142
1 10.283167363285084 -2.5206196006230112e-16 0 1 
1 2.0071286397934798 0 1 0 
2 0 0 -0.42261826174070022 0.90630778703664971 -0.90630778703664971 -0.42261826174070022 5.3000000000000007
2 0 0 -0.42261826174070022 0.90630778703664971 -0.90630778703664971 -0.42261826174070022 5.3000000000000007
2 0 0 -0.42261826174070022 0.90630778703664971 -0.90630778703664971 -0.42261826174070022 5.3000000000000007
8 -2.3999999996249244e-06 0.85000240000000105
1 4.839683959781433 -0.57500000000000284 -2.0124075451303267e-16 -1 
8 -2.3999999996249244e-06 0.85000240000000105
1 5.4801363844704634 -2.3963396542854039e-16 0 1 
8 -7.1054273576010019e-15 0.85000000000000142
1 5.4801363844704634 -2.3963396542854039e-16 0 1 
8 -4.4999999999999574 1.3479029705012453
1 -1.9017821778331268 4.0783850416648875 -0.42261826174069661 0.90630778703665138 
8 -4.4999999999999574 1.3479029705012453
1 4.5000000000000728 -0.57499999999999574 -1 2.0124075451303262e-16 
1 -1.9017821778331268 4.0783850416648875 -0.42261826174069661 0.90630778703665138 
1 -1.9017821778331268 4.0783850416648875 -0.42261826174069661 0.90630778703665138 
1 5.4801363844704634 0 1 0 
2 -2.8000000000000114 4.8497422611928869 0.69451631119392976 -0.71947695827286684 0.71947695827286684 0.69451631119392976 1.499999999999984
1 6.2831853071795862 -0 0 1 
1 0 -0 0 1 
2 -2.8000000000000114 4.8497422611928869 1 0 -0 1 0.59999999999999998
1 0 0.57500000000000284 1 0 
1 6.2831853071795862 -0 0 1 
1 0 -0 0 1 
2 2.8000000000000114 4.8497422611928869 1 0 -0 1 0.59999999999999998
1 0 0.57500000000000284 1 0 
2 2.8000000000000114 4.8497422611928869 1 0 -0 1 0.59999999999999432
Curves 24
1 160 -32.900000000000006 576 -0.42261826174069661 -2.0124075451303267e-16 -0.90630778703665138 
8 0 4.8030309788146059
2 162.80000000000001 -32.900000000000006 580.84974226119289 0 -1 0 0.65365720074252587 0 -0.75679076627390562 0.75679076627390562 0 0.65365720074252587 1.5
8 0 5.4105206811824171
2 160 -32.900000000000006 576 0 1 0 0.42261826174069833 -0 0.90630778703665049 0.90630778703665049 0 -0.42261826174069833 3.7999999999999998
8 0 5.4105206811824242
2 160 -32.900000000000006 576 0 1 0 0.42261826174069578 -0 0.90630778703665171 0.90630778703665171 0 -0.42261826174069578 5.2999999999999998
1 158.09821782216687 -32.900000000000006 580.07838504166489 -0.42261826174069661 2.0124075451303267e-16 0.90630778703665138 
8 0 4.8030309788146202
2 157.19999999999999 -32.900000000000006 580.84974226119289 0 -1 0 0.69451631119392976 0 -0.71947695827286684 0.71947695827286684 0 0.69451631119392976 1.5
2 157.19999999999999 -32.900000000000006 580.84974226119289 0 -1 2.2204460492503131e-16 1 0 0 -0 2.2204460492503131e-16 1 0.59999999999999998
2 162.80000000000001 -32.900000000000006 580.84974226119289 0 -1 2.2204460492503131e-16 1 0 0 -0 2.2204460492503131e-16 1 0.59999999999999998
1 161.7582255332091 -32.050000000000004 579.7705268237836 0 -1 2.2204460492503131e-16 
1 161.60594939461464 -31.475000000000001 579.44396959073924 0 -1 2.2204460492503131e-16 
1 160 -32.050000000000004 576 -0.42261826174069661 -2.0124075451303267e-16 -0.90630778703665138 
8 0 4.8030309788145917
2 162.80000000000001 -32.050000000000004 580.84974226119289 0 -1 0 0.65365720074253675 0 -0.75679076627389641 0.75679076627389641 0 0.65365720074253675 1.5
1 163.78048580111377 -32.050000000000004 579.71455611178203 0 -1 2.2204460492503131e-16 
8 0 5.4105206811824171
2 160 -32.050000000000004 576 -0 -1 0 -0.42261826174070444 0 0.90630778703664761 -0.90630778703664761 0 -0.42261826174070444 3.7999999999999998
1 158.39405060538536 -31.475000000000001 579.44396959073924 0 -1 2.2204460492503131e-16 
1 156.21951419888623 -32.050000000000004 579.71455611178203 0 -1 2.2204460492503131e-16 
8 0 5.4105206811824242
2 160 -32.050000000000004 576 -0 -1 0 -0.42261826174070016 0 0.9063077870366496 -0.90630778703664971 0 -0.42261826174070022 5.2999999999999998
1 158.24177446679087 -32.050000000000004 579.7705268237836 0 -1 2.2204460492503131e-16 
1 158.09821782216687 -32.049999999999997 580.07838504166489 -0.42261826174069661 2.0124075451303267e-16 0.90630778703665138 
8 0 4.8030309788145917
2 157.19999999999999 -32.050000000000004 580.84974226119289 0 -1 -6.5838822456598092e-15 0.69451631119392976 4.7369515717340515e-15 -0.71947695827286684 0.71947695827286684 -4.5726136105908569e-15 0.69451631119392976 1.5
1 0.59999999999999998 -1.4695761589768238e-16 0 0 0 1 
2 157.19999999999999 -32.050000000000004 580.84974226119289 0 -1 2.2204460492503131e-16 1 0 0 -0 2.2204460492503131e-16 1 0.59999999999999998
1 0.59999999999999998 -1.4695761589768238e-16 0 0 0 1 
2 162.80000000000001 -32.050000000000004 580.84974226119289 0 -1 2.2204460492503131e-16 1 0 0 -0 2.2204460492503131e-16 1 0.59999999999999998
Polygon3D 0
PolygonOnTriangulations 0
Surfaces 17
1 160 -32.900000000000006 576 0 -1 2.2204460492503131e-16 1 0 0 0 2.2204460492503131e-16 1 
1 0 0 0.84999999999999998 0 0 1 1 0 -0 -0 1 0 
1 160 -31.475000000000001 576 -0.90630778703665127 0 0.42261826174069655 0.42261826174069661 0 0.90630778703665138 0 1 -0 
1 160 -32.900000000000006 576 0 -1 2.2204460492503131e-16 1 0 0 0 2.2204460492503131e-16 1 
10 4.684718740481399 10.967904047660985 -2e+100 2e+100
2 162.80000000000001 -32.050000000000004 580.84974226119289 0 -1 2.2204460492503131e-16 1 0 0 0 2.2204460492503131e-16 1 1.5
10 1.570796326794897 7.8539816339744828 -2e+100 2e+100
2 160 -31.475000000000001 576 0 -1 2.2204460492503131e-16 1 0 0 0 2.2204460492503131e-16 1 3.7999999999999998
10 1.5707963267948966 7.8539816339744828 -2e+100 2e+100
2 160 -32.050000000000004 576 0 -1 2.2204460492503131e-16 1 0 0 0 2.2204460492503131e-16 1 5.2999999999999998
1 156.19643564433372 -31.475000000000001 584.15677008332989 0.90630778703665127 -0 0.42261826174069655 0.42261826174069661 0 -0.90630778703665138 0 1 0 
10 4.7400592202879803 11.023244527467567 -2e+100 2e+100
2 157.19999999999999 -32.050000000000004 580.84974226119289 0 -1 2.2204460492503131e-16 1 0 0 0 2.2204460492503131e-16 1 1.5
2 0 0 0 0 0 1 1 0 -0 -0 1 0 0.59999999999999998
2 0 0 0 0 0 1 1 0 -0 -0 1 0 0.59999999999999998
2 0 0 0 0 0 1 1 0 -0 -0 1 0 1.5
2 0 0 0 0 0 1 1 0 -0 -0 1 0 3.7999999999999998
1 0 0 0 0 0 1 1 0 -0 -0 1 0 
1 160 -32.050000000000004 576 0 -1 2.2204460492503131e-16 1 0 0 0 2.2204460492503131e-16 1 
1 160 -32.050000000000004 576 0 -1 2.2204460492503131e-16 1 0 0 0 2.2204460492503131e-16 1 
2 0 0 0 0 0 1 1 0 -0 -0 1 0 1.5
Triangulations 0

TShapes 66
Ve
1.5e-07
161.758225533209 -32.9 579.770526823784
0 0

0101101
*
Ve
1.5e-07
161.605949394615 -32.9 579.443969590739
0 0

0101101
*
Ed
 1.5e-07 1 1 0
1  1 0 -4.1603160402186 -3.79999999999997
2  1 2 4 -4.1603160402186 -3.79999999999997
2  2 3 0 -4.1603160402186 -3.79999999999997
2  3 4 0 -4.1603160402186 -3.79999999999997
2  4 1 0 -4.1603160402186 -3.79999999999997
0

0101000
+66 0 -65 0 *
Ve
1.00000028421709e-07
163.780485801114 -32.9 579.714556111782
0 0

0101101
*
Ed
 1e-07 1 1 0
1  2 0 0 4.80303097881461
2  5 5 0 0 4.80303097881461
2  6 4 0 0 4.80303097881461
2  7 1 0 0 4.80303097881461
0

0101000
+63 0 -66 0 *
Ve
1.50000028421709e-07
158.394050605385 -32.9 579.443969590739
0 0

0101101
*
Ed
 1e-07 1 1 0
1  3 0 0 5.41052068118242
2  8 6 0 0 5.41052068118242
2  9 2 4 0 5.41052068118242
2  10 4 0 0 5.41052068118242
2  11 1 0 0 5.41052068118242
0

0101000
+65 0 -61 0 *
Ve
1.00000028421709e-07
156.219514198886 -32.9 579.714556111782
0 0

0101101
*
Ed
 1e-07 1 1 0
1  4 0 0.357862063907532 5.0526586172749
2  12 7 0 0.357862063907532 5.0526586172749
2  13 2 4 0.357862063907532 5.0526586172749
2  14 4 0 0.357862063907532 5.0526586172749
2  15 1 0 0.357862063907532 5.0526586172749
0

0101000
+63 0 -59 0 *
Ve
1.5e-07
158.241774466791 -32.9 579.770526823784
0 0

0101101
*
Ed
 1.5e-07 1 1 0
1  5 0 -0.699999999999977 -0.33968395978136
2  16 2 4 -0.699999999999977 -0.33968395978136
2  17 8 0 -0.699999999999977 -0.33968395978136
2  18 4 0 -0.699999999999977 -0.33968395978136
2  19 1 0 -0.699999999999977 -0.33968395978136
0

0101000
+61 0 -57 0 *
Ed
 1e-07 1 1 0
1  6 0 0 4.80303097881462
2  20 9 0 0 4.80303097881462
2  21 1 0 0 4.80303097881462
0

0101000
+57 0 -59 0 *
Wi

0101100
+64 0 +62 0 +60 0 -58 0 +56 0 +55 0 *
Ve
1e-07
157.8 -32.9 580.849742261193
0 0

0101101
*
Ed
 1e-07 1 1 0
1  7 0 0 6.28318530717959
2  22 1 0 0 6.28318530717959
2  23 10 8 0 6.28318530717959
0

0101100
+53 0 -53 0 *
Wi

0101100
-52 0 *
Ve
1e-07
163.4 -32.9 580.849742261193
0 0

0101101
*
Ed
 1e-07 1 1 0
1  8 0 0 6.28318530717959
2  24 4 0 0 6.28318530717959
2  25 11 12 0 6.28318530717959
2  26 1 0 0 6.28318530717959
0

0101100
+50 0 -50 0 *
Wi

0101100
-49 0 *
Fa
0  1e-07 1 0

0101000
+54 0 +51 0 +48 0 *
Ve
1.5e-07
161.758225533209 -32.05 579.770526823784
0 0

0101101
*
Ed
 1e-07 1 1 0
1  9 0 0 0.850000000000001
2  27 3 0 0 0.850000000000001
2  28 12 16 0 0.850000000000001
2  29 5 0 0 0.850000000000001
0

0101000
+46 0 -66 0 *
Ve
1.5e-07
161.605949394615 -32.05 579.443969590739
0 0

0101101
*
Ed
 1e-07 1 1 0
1  10 0 0.575000000000003 1.425
2  30 13 20 0.575000000000003 1.425
2  31 3 0 0.575000000000003 1.425
2  32 6 0 0.575000000000003 1.425
0

0101000
+44 0 -65 0 *
Ed
 1.5e-07 1 1 0
1  11 0 -4.1603160402186 -3.79999999999997
2  33 14 4 -4.1603160402186 -3.79999999999997
2  34 3 0 -4.1603160402186 -3.79999999999997
2  35 15 0 -4.1603160402186 -3.79999999999997
2  36 16 0 -4.1603160402186 -3.79999999999997
0

0101000
+46 0 -44 0 *
Wi

0101100
-45 0 -64 0 +43 0 +42 0 *
Fa
0  1e-07 3 0

0101000
+41 0 *
Ve
1.00000056843419e-07
163.780485801114 -32.05 579.714556111782
0 0

0101101
*
Ed
 1e-07 1 1 0
1  12 0 0 4.80303097881459
2  37 5 0 0 4.80303097881459
2  38 15 0 0 4.80303097881459
2  39 16 0 0 4.80303097881459
0

0101000
+39 0 -46 0 *
Ed
 1e-07 1 1 0
1  13 0 0 0.850000000000001
2  40 7 0 0 0.850000000000001
2  41 12 16 0 0.850000000000001
2  42 5 0 0 0.850000000000001
0

0101000
+39 0 -63 0 *
Wi

0101100
+38 0 +45 0 -62 0 -37 0 *
Fa
0  0 5 0

0111000
+36 0 *
Ve
1.50000029296428e-07
158.394050605385 -32.05 579.443969590739
0 0

0101101
*
Ed
 1e-07 1 1 0
1  14 0 0 5.41052068118242
2  43 6 0 0 5.41052068118242
2  44 14 4 0 5.41052068118242
2  45 15 0 0 5.41052068118242
2  46 16 0 0 5.41052068118242
0

0101000
+34 0 -44 0 *
Ed
 1e-07 1 1 0
1  15 0 0.575000000000003 1.425
2  47 13 20 0.575000000000003 1.425
2  48 8 0 0.575000000000003 1.425
2  49 6 0 0.575000000000003 1.425
0

0101000
+34 0 -61 0 *
Wi

0101100
+33 0 +43 0 +60 0 -32 0 *
Fa
0  0 6 0

0111000
+31 0 *
Ve
1.00000056843419e-07
156.219514198886 -32.05 579.714556111782
0 0

0101101
*
Ed
 1e-07 1 1 0
1  16 0 0 0.850000000000001
2  50 7 0 0 0.850000000000001
2  51 17 24 0 0.850000000000001
2  52 9 0 0 0.850000000000001
0

0101000
+29 0 -59 0 *
Ed
 1e-07 1 1 0
1  17 0 0.357862063907531 5.05265861727489
2  53 7 0 0.357862063907531 5.05265861727489
2  54 14 4 0.357862063907531 5.05265861727489
2  55 15 0 0.357862063907531 5.05265861727489
2  56 16 0 0.357862063907531 5.05265861727489
0

0101000
+29 0 -39 0 *
Wi

0101100
-28 0 +58 0 +37 0 +27 0 *
Fa
0  1e-07 7 0

0101000
+26 0 *
Ve
1.5e-07
158.241774466791 -32.05 579.770526823784
0 0

0101101
*
Ed
 1e-07 1 1 0
1  18 0 -7.105427357601e-15 0.850000000000001
2  57 8 0 -7.105427357601e-15 0.850000000000001
2  58 17 24 -7.105427357601e-15 0.850000000000001
2  59 9 0 -7.105427357601e-15 0.850000000000001
0

0101000
+24 0 -57 0 *
Ed
 1.5e-07 1 1 0
1  19 0 -0.699999999999977 -0.33968395978136
2  60 14 4 -0.699999999999977 -0.33968395978136
2  61 8 0 -0.699999999999977 -0.33968395978136
2  62 15 0 -0.699999999999977 -0.33968395978136
2  63 16 0 -0.699999999999977 -0.33968395978136
0

0101000
+34 0 -24 0 *
Wi

0101100
-32 0 -56 0 +23 0 +22 0 *
Fa
0  1e-07 8 0

0101000
+21 0 *
Ed
 1e-07 1 1 0
1  20 0 0 4.80303097881459
2  64 9 0 0 4.80303097881459
2  65 16 0 0 4.80303097881459
0

0101000
+24 0 -29 0 *
Wi

0101100
+19 0 +28 0 -55 0 -23 0 *
Fa
0  0 9 0

0111000
+18 0 *
Ve
1e-07
157.8 -32.05 580.849742261193
0 0

0101101
*
Ed
 1e-07 1 1 0
1  21 0 0.575000000000003 1.425
3  66 67CN 10 0 0.575000000000003 1.425
0

0101000
+16 25 -53 25 *
Ed
 1e-07 1 1 0
1  22 0 0 6.28318530717959
2  68 16 0 0 6.28318530717959
2  69 10 8 0 6.28318530717959
0

0101100
+16 0 -16 0 *
Wi

0101100
-52 0 +15 8 +14 0 -15 8 *
Fa
0  1e-07 10 8

0101000
+13 0 *
Ve
1e-07
163.4 -32.05 580.849742261193
0 0

0101101
*
Ed
 1e-07 1 1 0
1  23 0 0.575000000000003 1.425
3  70 71CN 11 0 0.575000000000003 1.425
0

0101000
+11 26 -50 26 *
Ed
 1e-07 1 1 0
1  24 0 0 6.28318530717959
2  72 15 0 0 6.28318530717959
2  73 11 12 0 6.28318530717959
2  74 16 0 0 6.28318530717959
0

0101100
+11 0 -11 0 *
Wi

0101100
-49 0 +10 12 +9 0 -10 12 *
Fa
0  1e-07 11 12

0101000
+8 0 *
Wi

0101100
-33 0 +22 0 +42 0 +19 0 +38 0 +27 0 *
Wi

0101100
-14 0 *
Wi

0101100
-9 0 *
Fa
0  1e-07 16 0

0101000
+6 0 +5 0 +4 0 *
Sh

0101100
+47 0 +40 0 +35 0 -30 0 +25 0 +20 0 +17 0 -12 0 -7 0 -3 0 
*
So

0100000
+2 0 *

+1 0 