# https://github.com/mikedh/trimesh

o ssq12003td_male_tail_envelopes.stl
v 0.04745250 -0.05281250 -0.00091340
v 0.04745250 -0.05281250 -0.01092100
v 0.04745250 -0.05344750 -0.01092100
v 0.04745250 -0.05344750 -0.00091340
v 0.04808750 -0.05281250 -0.00091340
v 0.04808750 -0.05344750 -0.01092100
v 0.04808750 -0.05281250 -0.01092100
v 0.04808750 -0.05344750 -0.00091340
v 0.04491250 -0.05281250 -0.00091340
v 0.04491250 -0.05281250 -0.01092100
v 0.04491250 -0.05344750 -0.01092100
v 0.04491250 -0.05344750 -0.00091340
v 0.04554750 -0.05281250 -0.00091340
v 0.04554750 -0.05344750 -0.01092100
v 0.04554750 -0.05281250 -0.01092100
v 0.04554750 -0.05344750 -0.00091340
v 0.04745250 -0.05027250 -0.00091340
v 0.04745250 -0.05027250 -0.01092100
v 0.04745250 -0.05090750 -0.01092100
v 0.04745250 -0.05090750 -0.00091340
v 0.04808750 -0.05027250 -0.00091340
v 0.04808750 -0.05090750 -0.01092100
v 0.04808750 -0.05027250 -0.01092100
v 0.04808750 -0.05090750 -0.00091340
v 0.04491250 -0.05027250 -0.00091340
v 0.04491250 -0.05027250 -0.01092100
v 0.04491250 -0.05090750 -0.01092100
v 0.04491250 -0.05090750 -0.00091340
v 0.04554750 -0.05027250 -0.00091340
v 0.04554750 -0.05090750 -0.01092100
v 0.04554750 -0.05027250 -0.01092100
v 0.04554750 -0.05090750 -0.00091340
v 0.04745250 -0.04773250 -0.00091340
v 0.04745250 -0.04773250 -0.01092100
v 0.04745250 -0.04836750 -0.01092100
v 0.04745250 -0.04836750 -0.00091340
v 0.04808750 -0.04773250 -0.00091340
v 0.04808750 -0.04836750 -0.01092100
v 0.04808750 -0.04773250 -0.01092100
v 0.04808750 -0.04836750 -0.00091340
v 0.04491250 -0.04773250 -0.00091340
v 0.04491250 -0.04773250 -0.01092100
v 0.04491250 -0.04836750 -0.01092100
v 0.04491250 -0.04836750 -0.00091340
v 0.04554750 -0.04773250 -0.00091340
v 0.04554750 -0.04836750 -0.01092100
v 0.04554750 -0.04773250 -0.01092100
v 0.04554750 -0.04836750 -0.00091340
v 0.04745250 -0.04519250 -0.00091340
v 0.04745250 -0.04519250 -0.01092100
v 0.04745250 -0.04582750 -0.01092100
v 0.04745250 -0.04582750 -0.00091340
v 0.04808750 -0.04519250 -0.00091340
v 0.04808750 -0.04582750 -0.01092100
v 0.04808750 -0.04519250 -0.01092100
v 0.04808750 -0.04582750 -0.00091340
v 0.04491250 -0.04519250 -0.00091340
v 0.04491250 -0.04519250 -0.01092100
v 0.04491250 -0.04582750 -0.01092100
v 0.04491250 -0.04582750 -0.00091340
v 0.04554750 -0.04519250 -0.00091340
v 0.04554750 -0.04582750 -0.01092100
v 0.04554750 -0.04519250 -0.01092100
v 0.04554750 -0.04582750 -0.00091340
v 0.04745250 -0.04265250 -0.00091340
v 0.04745250 -0.04265250 -0.01092100
v 0.04745250 -0.04328750 -0.01092100
v 0.04745250 -0.04328750 -0.00091340
v 0.04808750 -0.04265250 -0.00091340
v 0.04808750 -0.04328750 -0.01092100
v 0.04808750 -0.04265250 -0.01092100
v 0.04808750 -0.04328750 -0.00091340
v 0.04491250 -0.04265250 -0.00091340
v 0.04491250 -0.04265250 -0.01092100
v 0.04491250 -0.04328750 -0.01092100
v 0.04491250 -0.04328750 -0.00091340
v 0.04554750 -0.04265250 -0.00091340
v 0.04554750 -0.04328750 -0.01092100
v 0.04554750 -0.04265250 -0.01092100
v 0.04554750 -0.04328750 -0.00091340
v 0.04745250 -0.04011250 -0.00091340
v 0.04745250 -0.04011250 -0.01092100
v 0.04745250 -0.04074750 -0.01092100
v 0.04745250 -0.04074750 -0.00091340
v 0.04808750 -0.04011250 -0.00091340
v 0.04808750 -0.04074750 -0.01092100
v 0.04808750 -0.04011250 -0.01092100
v 0.04808750 -0.04074750 -0.00091340
v 0.04491250 -0.04011250 -0.00091340
v 0.04491250 -0.04011250 -0.01092100
v 0.04491250 -0.04074750 -0.01092100
v 0.04491250 -0.04074750 -0.00091340
v 0.04554750 -0.04011250 -0.00091340
v 0.04554750 -0.04074750 -0.01092100
v 0.04554750 -0.04011250 -0.01092100
v 0.04554750 -0.04074750 -0.00091340
v 0.04745250 -0.03757250 -0.00091340
v 0.04745250 -0.03757250 -0.01092100
v 0.04745250 -0.03820750 -0.01092100
v 0.04745250 -0.03820750 -0.00091340
v 0.04808750 -0.03757250 -0.00091340
v 0.04808750 -0.03820750 -0.01092100
v 0.04808750 -0.03757250 -0.01092100
v 0.04808750 -0.03820750 -0.00091340
v 0.04491250 -0.03757250 -0.00091340
v 0.04491250 -0.03757250 -0.01092100
v 0.04491250 -0.03820750 -0.01092100
v 0.04491250 -0.03820750 -0.00091340
v 0.04554750 -0.03757250 -0.00091340
v 0.04554750 -0.03820750 -0.01092100
v 0.04554750 -0.03757250 -0.01092100
v 0.04554750 -0.03820750 -0.00091340
v 0.04745250 -0.03503250 -0.00091340
v 0.04745250 -0.03503250 -0.01092100
v 0.04745250 -0.03566750 -0.01092100
v 0.04745250 -0.03566750 -0.00091340
v 0.04808750 -0.03503250 -0.00091340
v 0.04808750 -0.03566750 -0.01092100
v 0.04808750 -0.03503250 -0.01092100
v 0.04808750 -0.03566750 -0.00091340
v 0.04491250 -0.03503250 -0.00091340
v 0.04491250 -0.03503250 -0.01092100
v 0.04491250 -0.03566750 -0.01092100
v 0.04491250 -0.03566750 -0.00091340
v 0.04554750 -0.03503250 -0.00091340
v 0.04554750 -0.03566750 -0.01092100
v 0.04554750 -0.03503250 -0.01092100
v 0.04554750 -0.03566750 -0.00091340
v 0.04745250 -0.03249250 -0.00091340
v 0.04745250 -0.03249250 -0.01092100
v 0.04745250 -0.03312750 -0.01092100
v 0.04745250 -0.03312750 -0.00091340
v 0.04808750 -0.03249250 -0.00091340
v 0.04808750 -0.03312750 -0.01092100
v 0.04808750 -0.03249250 -0.01092100
v 0.04808750 -0.03312750 -0.00091340
v 0.04491250 -0.03249250 -0.00091340
v 0.04491250 -0.03249250 -0.01092100
v 0.04491250 -0.03312750 -0.01092100
v 0.04491250 -0.03312750 -0.00091340
v 0.04554750 -0.03249250 -0.00091340
v 0.04554750 -0.03312750 -0.01092100
v 0.04554750 -0.03249250 -0.01092100
v 0.04554750 -0.03312750 -0.00091340
v 0.04745250 -0.03058750 -0.00091340
v 0.04745250 -0.02995250 -0.01092100
v 0.04745250 -0.03058750 -0.01092100
v 0.04745250 -0.02995250 -0.00091340
v 0.04808750 -0.03058750 -0.00091340
v 0.04808750 -0.03058750 -0.01092100
v 0.04808750 -0.02995250 -0.01092100
v 0.04808750 -0.02995250 -0.00091340
v 0.04491250 -0.03058750 -0.00091340
v 0.04491250 -0.02995250 -0.01092100
v 0.04491250 -0.03058750 -0.01092100
v 0.04491250 -0.02995250 -0.00091340
v 0.04554750 -0.03058750 -0.00091340
v 0.04554750 -0.03058750 -0.01092100
v 0.04554750 -0.02995250 -0.01092100
v 0.04554750 -0.02995250 -0.00091340
v 0.04745250 -0.02804750 -0.00091340
v 0.04745250 -0.02741250 -0.01092100
v 0.04745250 -0.02804750 -0.01092100
v 0.04745250 -0.02741250 -0.00091340
v 0.04808750 -0.02804750 -0.00091340
v 0.04808750 -0.02804750 -0.01092100
v 0.04808750 -0.02741250 -0.01092100
v 0.04808750 -0.02741250 -0.00091340
v 0.04491250 -0.02804750 -0.00091340
v 0.04491250 -0.02741250 -0.01092100
v 0.04491250 -0.02804750 -0.01092100
v 0.04491250 -0.02741250 -0.00091340
v 0.04554750 -0.02804750 -0.00091340
v 0.04554750 -0.02804750 -0.01092100
v 0.04554750 -0.02741250 -0.01092100
v 0.04554750 -0.02741250 -0.00091340
v 0.04745250 -0.02550750 -0.00091340
v 0.04745250 -0.02487250 -0.01092100
v 0.04745250 -0.02550750 -0.01092100
v 0.04745250 -0.02487250 -0.00091340
v 0.04808750 -0.02550750 -0.00091340
v 0.04808750 -0.02550750 -0.01092100
v 0.04808750 -0.02487250 -0.01092100
v 0.04808750 -0.02487250 -0.00091340
v 0.04491250 -0.02550750 -0.00091340
v 0.04491250 -0.02487250 -0.01092100
v 0.04491250 -0.02550750 -0.01092100
v 0.04491250 -0.02487250 -0.00091340
v 0.04554750 -0.02550750 -0.00091340
v 0.04554750 -0.02550750 -0.01092100
v 0.04554750 -0.02487250 -0.01092100
v 0.04554750 -0.02487250 -0.00091340
v 0.04745250 -0.02296750 -0.00091340
v 0.04745250 -0.02233250 -0.01092100
v 0.04745250 -0.02296750 -0.01092100
v 0.04745250 -0.02233250 -0.00091340
v 0.04808750 -0.02296750 -0.00091340
v 0.04808750 -0.02296750 -0.01092100
v 0.04808750 -0.02233250 -0.01092100
v 0.04808750 -0.02233250 -0.00091340
v 0.04491250 -0.02296750 -0.00091340
v 0.04491250 -0.02233250 -0.01092100
v 0.04491250 -0.02296750 -0.01092100
v 0.04491250 -0.02233250 -0.00091340
v 0.04554750 -0.02296750 -0.00091340
v 0.04554750 -0.02296750 -0.01092100
v 0.04554750 -0.02233250 -0.01092100
v 0.04554750 -0.02233250 -0.00091340
v 0.04745250 -0.02042750 -0.00091340
v 0.04745250 -0.01979250 -0.01092100
v 0.04745250 -0.02042750 -0.01092100
v 0.04745250 -0.01979250 -0.00091340
v 0.04808750 -0.02042750 -0.00091340
v 0.04808750 -0.02042750 -0.01092100
v 0.04808750 -0.01979250 -0.01092100
v 0.04808750 -0.01979250 -0.00091340
v 0.04491250 -0.02042750 -0.00091340
v 0.04491250 -0.01979250 -0.01092100
v 0.04491250 -0.02042750 -0.01092100
v 0.04491250 -0.01979250 -0.00091340
v 0.04554750 -0.02042750 -0.00091340
v 0.04554750 -0.02042750 -0.01092100
v 0.04554750 -0.01979250 -0.01092100
v 0.04554750 -0.01979250 -0.00091340
v 0.04745250 -0.01788750 -0.00091340
v 0.04745250 -0.01725250 -0.01092100
v 0.04745250 -0.01788750 -0.01092100
v 0.04745250 -0.01725250 -0.00091340
v 0.04808750 -0.01788750 -0.00091340
v 0.04808750 -0.01788750 -0.01092100
v 0.04808750 -0.01725250 -0.01092100
v 0.04808750 -0.01725250 -0.00091340
v 0.04491250 -0.01788750 -0.00091340
v 0.04491250 -0.01725250 -0.01092100
v 0.04491250 -0.01788750 -0.01092100
v 0.04491250 -0.01725250 -0.00091340
v 0.04554750 -0.01788750 -0.00091340
v 0.04554750 -0.01788750 -0.01092100
v 0.04554750 -0.01725250 -0.01092100
v 0.04554750 -0.01725250 -0.00091340
v 0.04745250 -0.01534750 -0.00091340
v 0.04745250 -0.01471250 -0.01092100
v 0.04745250 -0.01534750 -0.01092100
v 0.04745250 -0.01471250 -0.00091340
v 0.04808750 -0.01534750 -0.00091340
v 0.04808750 -0.01534750 -0.01092100
v 0.04808750 -0.01471250 -0.01092100
v 0.04808750 -0.01471250 -0.00091340
v 0.04491250 -0.01534750 -0.00091340
v 0.04491250 -0.01471250 -0.01092100
v 0.04491250 -0.01534750 -0.01092100
v 0.04491250 -0.01471250 -0.00091340
v 0.04554750 -0.01534750 -0.00091340
v 0.04554750 -0.01534750 -0.01092100
v 0.04554750 -0.01471250 -0.01092100
v 0.04554750 -0.01471250 -0.00091340
v 0.04745250 -0.01280750 -0.00091340
v 0.04745250 -0.01217250 -0.01092100
v 0.04745250 -0.01280750 -0.01092100
v 0.04745250 -0.01217250 -0.00091340
v 0.04808750 -0.01280750 -0.00091340
v 0.04808750 -0.01280750 -0.01092100
v 0.04808750 -0.01217250 -0.01092100
v 0.04808750 -0.01217250 -0.00091340
v 0.04491250 -0.01280750 -0.00091340
v 0.04491250 -0.01217250 -0.01092100
v 0.04491250 -0.01280750 -0.01092100
v 0.04491250 -0.01217250 -0.00091340
v 0.04554750 -0.01280750 -0.00091340
v 0.04554750 -0.01280750 -0.01092100
v 0.04554750 -0.01217250 -0.01092100
v 0.04554750 -0.01217250 -0.00091340
v 0.04745250 -0.01026750 -0.00091340
v 0.04745250 -0.00963250 -0.01092100
v 0.04745250 -0.01026750 -0.01092100
v 0.04745250 -0.00963250 -0.00091340
v 0.04808750 -0.01026750 -0.00091340
v 0.04808750 -0.01026750 -0.01092100
v 0.04808750 -0.00963250 -0.01092100
v 0.04808750 -0.00963250 -0.00091340
v 0.04491250 -0.01026750 -0.00091340
v 0.04491250 -0.00963250 -0.01092100
v 0.04491250 -0.01026750 -0.01092100
v 0.04491250 -0.00963250 -0.00091340
v 0.04554750 -0.01026750 -0.00091340
v 0.04554750 -0.01026750 -0.01092100
v 0.04554750 -0.00963250 -0.01092100
v 0.04554750 -0.00963250 -0.00091340
v 0.04745250 -0.00772750 -0.00091340
v 0.04745250 -0.00709250 -0.01092100
v 0.04745250 -0.00772750 -0.01092100
v 0.04745250 -0.00709250 -0.00091340
v 0.04808750 -0.00772750 -0.00091340
v 0.04808750 -0.00772750 -0.01092100
v 0.04808750 -0.00709250 -0.01092100
v 0.04808750 -0.00709250 -0.00091340
v 0.04491250 -0.00772750 -0.00091340
v 0.04491250 -0.00709250 -0.01092100
v 0.04491250 -0.00772750 -0.01092100
v 0.04491250 -0.00709250 -0.00091340
v 0.04554750 -0.00772750 -0.00091340
v 0.04554750 -0.00772750 -0.01092100
v 0.04554750 -0.00709250 -0.01092100
v 0.04554750 -0.00709250 -0.00091340
v 0.04745250 -0.00518750 -0.00091340
v 0.04745250 -0.00455250 -0.01092100
v 0.04745250 -0.00518750 -0.01092100
v 0.04745250 -0.00455250 -0.00091340
v 0.04808750 -0.00518750 -0.00091340
v 0.04808750 -0.00518750 -0.01092100
v 0.04808750 -0.00455250 -0.01092100
v 0.04808750 -0.00455250 -0.00091340
v 0.04491250 -0.00518750 -0.00091340
v 0.04491250 -0.00455250 -0.01092100
v 0.04491250 -0.00518750 -0.01092100
v 0.04491250 -0.00455250 -0.00091340
v 0.04554750 -0.00518750 -0.00091340
v 0.04554750 -0.00518750 -0.01092100
v 0.04554750 -0.00455250 -0.01092100
v 0.04554750 -0.00455250 -0.00091340
f 1 2 3
f 4 1 3
f 5 6 7
f 8 6 5
f 4 3 6
f 8 4 6
f 1 7 2
f 5 7 1
f 7 3 2
f 7 6 3
f 5 1 4
f 5 4 8
f 9 10 11
f 12 9 11
f 13 14 15
f 16 14 13
f 12 11 14
f 16 12 14
f 9 15 10
f 13 15 9
f 15 11 10
f 15 14 11
f 13 9 12
f 13 12 16
f 17 18 19
f 20 17 19
f 21 22 23
f 24 22 21
f 20 19 22
f 24 20 22
f 17 23 18
f 21 23 17
f 23 19 18
f 23 22 19
f 21 17 20
f 21 20 24
f 25 26 27
f 28 25 27
f 29 30 31
f 32 30 29
f 28 27 30
f 32 28 30
f 25 31 26
f 29 31 25
f 31 27 26
f 31 30 27
f 29 25 28
f 29 28 32
f 33 34 35
f 36 33 35
f 37 38 39
f 40 38 37
f 36 35 38
f 40 36 38
f 33 39 34
f 37 39 33
f 39 35 34
f 39 38 35
f 37 33 36
f 37 36 40
f 41 42 43
f 44 41 43
f 45 46 47
f 48 46 45
f 44 43 46
f 48 44 46
f 41 47 42
f 45 47 41
f 47 43 42
f 47 46 43
f 45 41 44
f 45 44 48
f 49 50 51
f 52 49 51
f 53 54 55
f 56 54 53
f 52 51 54
f 56 52 54
f 49 55 50
f 53 55 49
f 55 51 50
f 55 54 51
f 53 49 52
f 53 52 56
f 57 58 59
f 60 57 59
f 61 62 63
f 64 62 61
f 60 59 62
f 64 60 62
f 57 63 58
f 61 63 57
f 63 59 58
f 63 62 59
f 61 57 60
f 61 60 64
f 65 66 67
f 68 65 67
f 69 70 71
f 72 70 69
f 68 67 70
f 72 68 70
f 65 71 66
f 69 71 65
f 71 67 66
f 71 70 67
f 69 65 68
f 69 68 72
f 73 74 75
f 76 73 75
f 77 78 79
f 80 78 77
f 76 75 78
f 80 76 78
f 73 79 74
f 77 79 73
f 79 75 74
f 79 78 75
f 77 73 76
f 77 76 80
f 81 82 83
f 84 81 83
f 85 86 87
f 88 86 85
f 84 83 86
f 88 84 86
f 81 87 82
f 85 87 81
f 87 83 82
f 87 86 83
f 85 81 84
f 85 84 88
f 89 90 91
f 92 89 91
f 93 94 95
f 96 94 93
f 92 91 94
f 96 92 94
f 89 95 90
f 93 95 89
f 95 91 90
f 95 94 91
f 93 89 92
f 93 92 96
f 97 98 99
f 100 97 99
f 101 102 103
f 104 102 101
f 100 99 102
f 104 100 102
f 97 103 98
f 101 103 97
f 103 99 98
f 103 102 99
f 101 97 100
f 101 100 104
f 105 106 107
f 108 105 107
f 109 110 111
f 112 110 109
f 108 107 110
f 112 108 110
f 105 111 106
f 109 111 105
f 111 107 106
f 111 110 107
f 109 105 108
f 109 108 112
f 113 114 115
f 116 113 115
f 117 118 119
f 120 118 117
f 116 115 118
f 120 116 118
f 113 119 114
f 117 119 113
f 119 115 114
f 119 118 115
f 117 113 116
f 117 116 120
f 121 122 123
f 124 121 123
f 125 126 127
f 128 126 125
f 124 123 126
f 128 124 126
f 121 127 122
f 125 127 121
f 127 123 122
f 127 126 123
f 125 121 124
f 125 124 128
f 129 130 131
f 132 129 131
f 133 134 135
f 136 134 133
f 132 131 134
f 136 132 134
f 129 135 130
f 133 135 129
f 135 131 130
f 135 134 131
f 133 129 132
f 133 132 136
f 137 138 139
f 140 137 139
f 141 142 143
f 144 142 141
f 140 139 142
f 144 140 142
f 137 143 138
f 141 143 137
f 143 139 138
f 143 142 139
f 141 137 140
f 141 140 144
f 145 146 147
f 145 148 146
f 149 150 151
f 149 151 152
f 145 147 150
f 149 145 150
f 148 151 146
f 152 151 148
f 151 147 146
f 151 150 147
f 152 148 145
f 152 145 149
f 153 154 155
f 153 156 154
f 157 158 159
f 157 159 160
f 153 155 158
f 157 153 158
f 156 159 154
f 160 159 156
f 159 155 154
f 159 158 155
f 160 156 153
f 160 153 157
f 161 162 163
f 161 164 162
f 165 166 167
f 165 167 168
f 161 163 166
f 165 161 166
f 164 167 162
f 168 167 164
f 167 163 162
f 167 166 163
f 168 164 161
f 168 161 165
f 169 170 171
f 169 172 170
f 173 174 175
f 173 175 176
f 169 171 174
f 173 169 174
f 172 175 170
f 176 175 172
f 175 171 170
f 175 174 171
f 176 172 169
f 176 169 173
f 177 178 179
f 177 180 178
f 181 182 183
f 181 183 184
f 177 179 182
f 181 177 182
f 180 183 178
f 184 183 180
f 183 179 178
f 183 182 179
f 184 180 177
f 184 177 181
f 185 186 187
f 185 188 186
f 189 190 191
f 189 191 192
f 185 187 190
f 189 185 190
f 188 191 186
f 192 191 188
f 191 187 186
f 191 190 187
f 192 188 185
f 192 185 189
f 193 194 195
f 193 196 194
f 197 198 199
f 197 199 200
f 193 195 198
f 197 193 198
f 196 199 194
f 200 199 196
f 199 195 194
f 199 198 195
f 200 196 193
f 200 193 197
f 201 202 203
f 201 204 202
f 205 206 207
f 205 207 208
f 201 203 206
f 205 201 206
f 204 207 202
f 208 207 204
f 207 203 202
f 207 206 203
f 208 204 201
f 208 201 205
f 209 210 211
f 209 212 210
f 213 214 215
f 213 215 216
f 209 211 214
f 213 209 214
f 212 215 210
f 216 215 212
f 215 211 210
f 215 214 211
f 216 212 209
f 216 209 213
f 217 218 219
f 217 220 218
f 221 222 223
f 221 223 224
f 217 219 222
f 221 217 222
f 220 223 218
f 224 223 220
f 223 219 218
f 223 222 219
f 224 220 217
f 224 217 221
f 225 226 227
f 225 228 226
f 229 230 231
f 229 231 232
f 225 227 230
f 229 225 230
f 228 231 226
f 232 231 228
f 231 227 226
f 231 230 227
f 232 228 225
f 232 225 229
f 233 234 235
f 233 236 234
f 237 238 239
f 237 239 240
f 233 235 238
f 237 233 238
f 236 239 234
f 240 239 236
f 239 235 234
f 239 238 235
f 240 236 233
f 240 233 237
f 241 242 243
f 241 244 242
f 245 246 247
f 245 247 248
f 241 243 246
f 245 241 246
f 244 247 242
f 248 247 244
f 247 243 242
f 247 246 243
f 248 244 241
f 248 241 245
f 249 250 251
f 249 252 250
f 253 254 255
f 253 255 256
f 249 251 254
f 253 249 254
f 252 255 250
f 256 255 252
f 255 251 250
f 255 254 251
f 256 252 249
f 256 249 253
f 257 258 259
f 257 260 258
f 261 262 263
f 261 263 264
f 257 259 262
f 261 257 262
f 260 263 258
f 264 263 260
f 263 259 258
f 263 262 259
f 264 260 257
f 264 257 261
f 265 266 267
f 265 268 266
f 269 270 271
f 269 271 272
f 265 267 270
f 269 265 270
f 268 271 266
f 272 271 268
f 271 267 266
f 271 270 267
f 272 268 265
f 272 265 269
f 273 274 275
f 273 276 274
f 277 278 279
f 277 279 280
f 273 275 278
f 277 273 278
f 276 279 274
f 280 279 276
f 279 275 274
f 279 278 275
f 280 276 273
f 280 273 277
f 281 282 283
f 281 284 282
f 285 286 287
f 285 287 288
f 281 283 286
f 285 281 286
f 284 287 282
f 288 287 284
f 287 283 282
f 287 286 283
f 288 284 281
f 288 281 285
f 289 290 291
f 289 292 290
f 293 294 295
f 293 295 296
f 289 291 294
f 293 289 294
f 292 295 290
f 296 295 292
f 295 291 290
f 295 294 291
f 296 292 289
f 296 289 293
f 297 298 299
f 297 300 298
f 301 302 303
f 301 303 304
f 297 299 302
f 301 297 302
f 300 303 298
f 304 303 300
f 303 299 298
f 303 302 299
f 304 300 297
f 304 297 301
f 305 306 307
f 305 308 306
f 309 310 311
f 309 311 312
f 305 307 310
f 309 305 310
f 308 311 306
f 312 311 308
f 311 307 306
f 311 310 307
f 312 308 305
f 312 305 309
f 313 314 315
f 313 316 314
f 317 318 319
f 317 319 320
f 313 315 318
f 317 313 318
f 316 319 314
f 320 319 316
f 319 315 314
f 319 318 315
f 320 316 313
f 320 313 317

