# https://github.com/mikedh/trimesh
v 0.12869284 0.03699961 0.59249371
v 0.12856994 0.03699961 0.59283773
v 0.12862022 0.03566641 0.59269780
v 0.12869284 0.03300039 0.59249371
v 0.12536530 0.03699961 0.59249371
v 0.12847963 0.03699961 0.59304153
v 0.12856994 0.03300039 0.59283773
v 0.12536530 0.03300039 0.59249371
v 0.12393755 0.03699961 0.59348222
v 0.12838886 0.03699961 0.59324533
v 0.12847963 0.03300039 0.59304153
v 0.12393755 0.03300039 0.59348222
v 0.12826177 0.03699961 0.59348222
v 0.12828365 0.03699961 0.59344187
v 0.12838886 0.03300039 0.59324533
v 0.12826177 0.03300039 0.59348222
v 0.12828365 0.03300039 0.59344187
f 1 2 3
f 1 3 4
f 1 4 8
f 1 8 5
f 1 5 9
f 1 9 13
f 1 13 14
f 1 14 10
f 1 10 6
f 1 6 2
f 2 6 11
f 2 11 7
f 2 7 3
f 3 7 4
f 4 7 11
f 4 11 15
f 4 15 17
f 4 17 16
f 4 16 12
f 4 12 8
f 5 8 12
f 5 12 9
f 6 10 15
f 6 15 11
f 9 12 16
f 9 16 13
f 10 14 17
f 10 17 15
f 13 16 17
f 13 17 14

