# https://github.com/mikedh/trimesh
v 0.11706545 0.02954324 0.59895158
v 0.11683674 0.02981643 0.59895625
v 0.11565626 0.02981643 0.59945316
v 0.11706545 0.02888270 0.59895158
v 0.11706545 0.02954324 0.59583253
v 0.11683674 0.02981643 0.59577905
v 0.11565626 0.02954324 0.59945316
v 0.11565626 0.02981643 0.59417617
v 0.11706545 0.02888270 0.59583253
v 0.11565681 0.02888270 0.59945264
v 0.11571268 0.02954324 0.59414865
v 0.11571157 0.02981643 0.59417617
v 0.11565626 0.02888270 0.59945264
v 0.11565626 0.02954324 0.59414865
v 0.11570923 0.02888270 0.59426184
v 0.11571268 0.02909027 0.59414865
v 0.11565626 0.02888270 0.59426184
v 0.11565626 0.02909027 0.59414865
f 1 2 3
f 1 3 7
f 1 7 4
f 1 4 9
f 1 9 5
f 1 5 6
f 1 6 2
f 2 6 12
f 2 12 8
f 2 8 3
f 3 8 14
f 3 14 18
f 3 18 17
f 3 17 13
f 3 13 7
f 4 7 10
f 4 10 13
f 4 13 17
f 4 17 15
f 4 15 9
f 5 9 16
f 5 16 11
f 5 11 12
f 5 12 6
f 7 13 10
f 8 12 11
f 8 11 14
f 9 15 16
f 11 16 18
f 11 18 14
f 15 17 18
f 15 18 16

