# https://github.com/mikedh/trimesh
v 0.13032027 0.02999877 0.61540393
v 0.13032027 0.03062314 0.61540393
v 0.13340975 0.02999877 0.61540393
v 0.12249236 0.02999877 0.61588406
v 0.12998150 0.03081580 0.61576191
v 0.13340975 0.03062314 0.61540393
v 0.12249236 0.03062314 0.61588406
v 0.12811242 0.03081580 0.61583196
v 0.13340975 0.02999877 0.61843891
v 0.12249236 0.02999877 0.61777925
v 0.12998150 0.03081580 0.61632336
v 0.13340975 0.03062322 0.61588336
v 0.12249236 0.03062314 0.61777925
v 0.12811242 0.03081580 0.61632336
v 0.13328365 0.02999877 0.61847375
v 0.13340975 0.03062322 0.61843891
v 0.12366361 0.02999877 0.61818863
v 0.12356957 0.03062314 0.61815589
v 0.12899834 0.03081572 0.61900000
v 0.12998150 0.03081572 0.61896234
v 0.12811242 0.03081572 0.61896586
v 0.13311587 0.03062322 0.61851811
v 0.13306992 0.02999877 0.61853078
v 0.12369567 0.02999877 0.61819954
v 0.12368819 0.03062314 0.61819708
v 0.12899941 0.03062322 0.61900000
v 0.13014821 0.02999877 0.61895670
v 0.13034378 0.03062322 0.61894896
v 0.12765504 0.03062314 0.61894896
v 0.12827165 0.03062314 0.61897254
v 0.12805365 0.02999877 0.61896445
v 0.12899834 0.03062322 0.61900000
v 0.13167425 0.03062322 0.61879936
v 0.13190722 0.03062322 0.61875536
v 0.13298336 0.03062322 0.61855155
v 0.13300366 0.03062322 0.61854732
v 0.12369567 0.03062314 0.61819954
v 0.12397779 0.03062314 0.61827593
v 0.12498767 0.03062314 0.61854627
v 0.12501866 0.03062314 0.61855260
v 0.12616640 0.03062314 0.61877014
v 0.12629785 0.03062314 0.61879478
v 0.12631708 0.03062314 0.61879830
v 0.12763473 0.03062314 0.61894685
v 0.13300366 0.02999877 0.61854732
v 0.12372132 0.02999877 0.61820658
v 0.12899941 0.02999877 0.61900000
v 0.13030958 0.02999877 0.61895037
v 0.13034378 0.02999877 0.61894896
v 0.13037049 0.02999877 0.61894614
v 0.12765504 0.02999877 0.61894896
v 0.12768069 0.02999877 0.61895002
v 0.13167960 0.02999877 0.61879830
v 0.13168708 0.02999877 0.61879689
v 0.13292137 0.02999877 0.61856351
v 0.12401947 0.02999877 0.61828684
v 0.12495775 0.02999877 0.61853782
v 0.12499943 0.02999877 0.61854873
v 0.12509988 0.02999877 0.61856809
v 0.12564169 0.02999877 0.61867088
v 0.12631708 0.02999877 0.61879830
v 0.12632563 0.02999877 0.61879936
v 0.12744879 0.02999877 0.61892608
f 1 2 6
f 1 6 3
f 1 3 9
f 1 9 15
f 1 15 23
f 1 23 45
f 1 45 55
f 1 55 54
f 1 54 53
f 1 53 50
f 1 50 49
f 1 49 48
f 1 48 27
f 1 27 47
f 1 47 31
f 1 31 52
f 1 52 51
f 1 51 63
f 1 63 62
f 1 62 61
f 1 61 60
f 1 60 59
f 1 59 58
f 1 58 57
f 1 57 56
f 1 56 46
f 1 46 24
f 1 24 17
f 1 17 10
f 1 10 4
f 1 4 7
f 1 7 2
f 2 5 6
f 2 7 8
f 2 8 5
f 3 6 12
f 3 12 16
f 3 16 9
f 4 10 13
f 4 13 7
f 5 11 16
f 5 16 12
f 5 12 6
f 5 8 14
f 5 14 11
f 7 13 14
f 7 14 8
f 9 16 15
f 10 17 18
f 10 18 13
f 11 14 19
f 11 19 20
f 11 20 16
f 13 18 21
f 13 21 14
f 14 21 19
f 15 22 23
f 15 16 22
f 16 20 22
f 17 24 25
f 17 25 18
f 18 25 21
f 19 26 27
f 19 27 28
f 19 28 20
f 19 21 29
f 19 29 30
f 19 30 31
f 19 31 32
f 19 32 47
f 19 47 26
f 20 28 33
f 20 33 34
f 20 34 35
f 20 35 36
f 20 36 22
f 21 25 37
f 21 37 38
f 21 38 39
f 21 39 40
f 21 40 41
f 21 41 42
f 21 42 43
f 21 43 44
f 21 44 29
f 22 36 23
f 23 36 45
f 24 46 37
f 24 37 25
f 26 47 27
f 27 48 28
f 28 48 49
f 28 49 50
f 28 50 33
f 29 51 52
f 29 52 31
f 29 31 30
f 29 44 51
f 31 47 32
f 33 50 53
f 33 53 54
f 33 54 34
f 34 54 55
f 34 55 35
f 35 55 45
f 35 45 36
f 37 46 38
f 38 46 56
f 38 56 39
f 39 56 57
f 39 57 58
f 39 58 40
f 40 58 59
f 40 59 60
f 40 60 41
f 41 60 61
f 41 61 42
f 42 61 43
f 43 61 62
f 43 62 63
f 43 63 44
f 44 63 51

