# https://github.com/mikedh/trimesh
v 0.13032650 0.02789581 0.61539533
v 0.13003220 0.02625000 0.61572241
v 0.12845158 0.02625000 0.61600187
v 0.12808233 0.02789581 0.61581027
v 0.13032650 0.02807816 0.61539533
v 0.13327280 0.02789581 0.61539533
v 0.13934286 0.02625000 0.61572241
v 0.12845158 0.02625000 0.61897848
v 0.12808233 0.02789581 0.61896507
v 0.12808233 0.02807816 0.61581027
v 0.13327280 0.02807816 0.61539533
v 0.13934286 0.02789581 0.61572241
v 0.13913784 0.02625000 0.61587308
v 0.12900160 0.02625000 0.61900000
v 0.12808233 0.02807816 0.61896507
v 0.12839426 0.02789581 0.61897706
v 0.13327280 0.02807816 0.61580957
v 0.13913784 0.02789581 0.61587308
v 0.13327169 0.02807816 0.61847708
v 0.13856908 0.02625000 0.61623086
v 0.12900160 0.02789581 0.61900000
v 0.13034634 0.02625000 0.61894954
v 0.12900050 0.02807816 0.61899965
v 0.13815464 0.02789581 0.61649091
v 0.13303912 0.02807816 0.61853954
v 0.13430450 0.02789581 0.61820010
v 0.13500112 0.02789581 0.61795628
v 0.13557428 0.02789581 0.61775516
v 0.13680769 0.02789581 0.61721707
v 0.13713396 0.02789581 0.61704523
v 0.13767185 0.02789581 0.61676190
v 0.13799812 0.02789581 0.61658900
v 0.13799812 0.02625000 0.61658900
v 0.13034634 0.02789581 0.61894954
v 0.13168556 0.02625000 0.61879853
v 0.13131741 0.02789581 0.61884016
v 0.13034523 0.02807816 0.61894919
v 0.13300605 0.02807816 0.61854800
v 0.13300716 0.02789581 0.61854800
v 0.13300716 0.02625000 0.61854800
v 0.13430450 0.02625000 0.61820010
v 0.13557428 0.02625000 0.61775516
v 0.13680769 0.02625000 0.61721707
v 0.13040806 0.02807816 0.61894249
v 0.13168556 0.02789581 0.61879853
v 0.13136040 0.02807816 0.61883487
v 0.13230723 0.02807816 0.61868067
v 0.13169438 0.02807816 0.61879641
v 0.13168336 0.02807816 0.61879817
v 0.13171312 0.02807816 0.61879288
f 1 2 3
f 1 3 4
f 1 4 10
f 1 10 5
f 1 5 11
f 1 11 6
f 1 6 7
f 1 7 2
f 2 7 13
f 2 13 20
f 2 20 33
f 2 33 43
f 2 43 42
f 2 42 41
f 2 41 40
f 2 40 35
f 2 35 22
f 2 22 14
f 2 14 8
f 2 8 3
f 3 8 9
f 3 9 4
f 4 9 15
f 4 15 10
f 5 10 15
f 5 15 23
f 5 23 37
f 5 37 44
f 5 44 46
f 5 46 49
f 5 49 48
f 5 48 50
f 5 50 47
f 5 47 38
f 5 38 25
f 5 25 19
f 5 19 17
f 5 17 11
f 6 11 12
f 6 12 7
f 7 12 18
f 7 18 13
f 8 14 9
f 9 14 16
f 9 16 15
f 11 17 12
f 12 17 19
f 12 19 18
f 13 18 20
f 14 21 16
f 14 22 34
f 14 34 21
f 15 16 21
f 15 21 23
f 18 19 24
f 18 24 20
f 19 25 26
f 19 26 27
f 19 27 28
f 19 28 29
f 19 29 30
f 19 30 31
f 19 31 32
f 19 32 24
f 20 24 33
f 21 34 37
f 21 37 23
f 22 35 36
f 22 36 34
f 24 32 33
f 25 38 39
f 25 39 40
f 25 40 41
f 25 41 26
f 26 41 27
f 27 42 28
f 27 41 42
f 28 42 43
f 28 43 29
f 29 43 30
f 30 43 31
f 31 43 33
f 31 33 32
f 34 44 37
f 34 36 44
f 35 45 36
f 35 40 39
f 35 39 45
f 36 45 46
f 36 46 44
f 38 47 39
f 39 47 45
f 45 48 49
f 45 49 46
f 45 47 50
f 45 50 48

