# https://github.com/mikedh/trimesh
v 0.14190364 0.03224992 0.60670642
v 0.14190316 0.03224992 0.60670642
v 0.14190364 0.03138325 0.60670642
v 0.14190364 0.03224992 0.59529358
v 0.13949272 0.03224992 0.60669078
v 0.13949272 0.03138325 0.60669078
v 0.14190364 0.03138325 0.59529358
v 0.14190316 0.03224992 0.59529358
v 0.13949272 0.03224992 0.59530922
v 0.13949272 0.03138325 0.59530922
f 1 2 3
f 1 3 7
f 1 7 4
f 1 4 8
f 1 8 9
f 1 9 5
f 1 5 2
f 2 5 6
f 2 6 3
f 3 6 10
f 3 10 7
f 4 7 8
f 5 9 10
f 5 10 6
f 7 10 8
f 8 10 9

