# https://github.com/mikedh/trimesh
v 0.13681692 0.02789582 0.59155522
v 0.13454120 0.02789582 0.59260557
v 0.13681692 0.02807816 0.59155522
v 0.14131661 0.02789582 0.59155522
v 0.13454120 0.02789582 0.59340147
v 0.13454120 0.02807816 0.59260557
v 0.14131727 0.02807816 0.59155522
v 0.14131727 0.02791090 0.59155522
v 0.14131727 0.02789582 0.59155794
v 0.13454120 0.02801960 0.59340147
v 0.13933605 0.02789582 0.59340147
v 0.13454319 0.02807816 0.59340147
v 0.14131727 0.02807816 0.59277852
v 0.14131727 0.02789582 0.59277852
v 0.13933605 0.02807816 0.59340147
f 1 2 6
f 1 6 3
f 1 3 7
f 1 7 8
f 1 8 4
f 1 4 9
f 1 9 14
f 1 14 11
f 1 11 5
f 1 5 2
f 2 5 10
f 2 10 6
f 3 6 12
f 3 12 15
f 3 15 13
f 3 13 7
f 4 8 9
f 5 11 15
f 5 15 12
f 5 12 10
f 6 10 12
f 7 13 14
f 7 14 9
f 7 9 8
f 11 14 13
f 11 13 15

