# https://github.com/mikedh/trimesh
v 0.14700000 0.03062319 0.60100026
v 0.14695141 0.03062319 0.60228231
v 0.14700000 0.02999877 0.60100026
v 0.14694907 0.03062319 0.59965574
v 0.14692916 0.02999877 0.60252177
v 0.14695199 0.02999877 0.60226595
v 0.14692448 0.03062319 0.60256341
v 0.14694907 0.02999877 0.59966467
v 0.14679920 0.02999877 0.59832908
v 0.14691745 0.03062319 0.59937465
v 0.14689345 0.02999877 0.60283856
v 0.14689111 0.03062319 0.60285938
v 0.14673304 0.02999877 0.59797212
v 0.14679217 0.03062319 0.59829784
v 0.14682847 0.03062319 0.60341415
v 0.14680388 0.02999877 0.60361791
v 0.14659312 0.02999877 0.59723294
v 0.14658844 0.03062319 0.59720765
v 0.14678163 0.03062319 0.60377110
v 0.14672016 0.02999877 0.60409533
v 0.14653341 0.03062319 0.59693994
v 0.14652814 0.02999877 0.59692060
v 0.14656678 0.03062319 0.60490739
v 0.14655565 0.02999877 0.60496688
v 0.14624420 0.03062319 0.59586165
v 0.14626235 0.02999877 0.59593006
v 0.14647018 0.03062319 0.60529558
v 0.14649594 0.02999877 0.60519890
v 0.14617688 0.02999877 0.59563112
v 0.14607911 0.03062319 0.59535151
v 0.14636597 0.03062319 0.60568525
v 0.14640520 0.02999877 0.60553801
v 0.14605159 0.03025007 0.59527119
v 0.14591285 0.02999877 0.59487557
v 0.14582679 0.03062319 0.59462868
v 0.14619971 0.03062319 0.60630545
v 0.14619971 0.02999877 0.60630545
v 0.14572609 0.02999877 0.59436097
v 0.14573721 0.03062319 0.59438774
v 0.14574834 0.03062319 0.60758750
v 0.14583850 0.02999877 0.60733764
v 0.14547552 0.02999877 0.59378389
v 0.14547552 0.03062319 0.59378389
v 0.14576707 0.02999877 0.60753991
v 0.14523784 0.03062319 0.60875949
v 0.14567165 0.02999877 0.60776746
v 0.14222226 0.02999877 0.59378389
v 0.14222226 0.03062319 0.59378389
v 0.14512778 0.03062319 0.60897813
v 0.14512778 0.02999877 0.60897813
v 0.14525013 0.02999877 0.60873123
v 0.14558207 0.02999877 0.60797271
v 0.14101919 0.02999877 0.59581703
v 0.14101919 0.03062319 0.59581703
v 0.14171644 0.03062319 0.60897813
v 0.14171644 0.02999877 0.60897813
v 0.14101919 0.02999877 0.60618349
v 0.14101919 0.03062319 0.60618349
f 1 2 3
f 1 3 4
f 1 4 10
f 1 10 14
f 1 14 18
f 1 18 21
f 1 21 25
f 1 25 30
f 1 30 35
f 1 35 39
f 1 39 43
f 1 43 48
f 1 48 54
f 1 54 58
f 1 58 55
f 1 55 49
f 1 49 45
f 1 45 40
f 1 40 36
f 1 36 31
f 1 31 27
f 1 27 23
f 1 23 19
f 1 19 15
f 1 15 12
f 1 12 7
f 1 7 2
f 2 5 6
f 2 6 3
f 2 7 5
f 3 6 5
f 3 5 11
f 3 11 16
f 3 16 20
f 3 20 24
f 3 24 28
f 3 28 32
f 3 32 37
f 3 37 41
f 3 41 44
f 3 44 46
f 3 46 52
f 3 52 51
f 3 51 50
f 3 50 56
f 3 56 57
f 3 57 53
f 3 53 47
f 3 47 42
f 3 42 38
f 3 38 34
f 3 34 29
f 3 29 26
f 3 26 22
f 3 22 17
f 3 17 13
f 3 13 9
f 3 9 8
f 3 8 4
f 4 9 10
f 4 8 9
f 5 7 11
f 7 12 11
f 9 13 14
f 9 14 10
f 11 12 15
f 11 15 16
f 13 17 18
f 13 18 14
f 15 19 16
f 16 19 20
f 17 21 18
f 17 22 21
f 19 23 24
f 19 24 20
f 21 22 25
f 22 26 25
f 23 27 24
f 24 27 28
f 25 26 29
f 25 29 30
f 27 31 28
f 28 31 32
f 29 33 30
f 29 34 33
f 30 33 35
f 31 36 37
f 31 37 32
f 33 34 35
f 34 38 35
f 35 38 39
f 36 40 41
f 36 41 37
f 38 42 43
f 38 43 39
f 40 44 41
f 40 45 46
f 40 46 44
f 42 47 48
f 42 48 43
f 45 49 50
f 45 50 51
f 45 51 52
f 45 52 46
f 47 53 54
f 47 54 48
f 49 55 56
f 49 56 50
f 53 57 58
f 53 58 54
f 55 58 57
f 55 57 56

