# https://github.com/mikedh/trimesh
v 0.23533937 0.00212855 0.56382482
v 0.24001170 0.00000000 0.56259643
v 0.24001170 0.00189321 0.56259548
v 0.24001170 0.00386721 0.56258792
v 0.23533937 0.00434139 0.56381442
v 0.23533937 -0.00216367 0.56382482
v 0.24001170 -0.00190024 0.56259548
v 0.24001170 0.00598873 0.56255671
v 0.23533937 0.00669825 0.56378037
v 0.23533937 -0.00438003 0.56381442
v 0.24001170 -0.00387423 0.56258792
v 0.24001170 0.00828587 0.56247160
v 0.23533937 0.00928692 0.56368108
v 0.23533937 -0.00671932 0.56377943
v 0.24001170 -0.00599576 0.56255671
v 0.24001170 0.01074108 0.56226735
v 0.23533937 0.01203717 0.56344751
v 0.24001170 -0.00829992 0.56247066
v 0.23533937 -0.00933258 0.56367824
v 0.24001170 0.01311901 0.56184181
v 0.23533937 0.01472420 0.56295672
v 0.24001170 -0.01074810 0.56226640
v 0.23533937 -0.01208283 0.56344089
v 0.24001170 0.00829992 0.55432680
v 0.24000987 0.01520892 0.55605165
v 0.24000987 0.01522297 0.56067678
v 0.23533937 0.01705998 0.56169902
v 0.24001170 -0.01311901 0.56184181
v 0.23533937 -0.01472420 0.56295672
v 0.24001170 0.00599576 0.55424074
v 0.23533937 0.00671932 0.55421048
v 0.23533937 0.00933258 0.55431167
v 0.24000576 0.01074810 0.55453106
v 0.24000576 0.01311901 0.55495565
v 0.23533937 0.01472420 0.55503319
v 0.23533937 0.01709159 0.55637884
v 0.24000713 0.01598517 0.55814624
v 0.23533937 0.01794160 0.55929141
v 0.23533937 -0.01654716 0.56223425
v 0.24000987 -0.01522297 0.56067678
v 0.24000987 -0.01520892 0.55605165
v 0.24001170 -0.00828587 0.55432585
v 0.23533937 0.00438003 0.55417549
v 0.24001170 0.00387423 0.55420954
v 0.23533937 0.01208283 0.55454902
v 0.23533937 -0.01763251 0.56098695
v 0.24000713 -0.01598517 0.55814624
v 0.23533937 -0.01705998 0.55629089
v 0.23533937 -0.01472420 0.55503319
v 0.24000576 -0.01311901 0.55495565
v 0.23533937 -0.00928692 0.55430883
v 0.23533937 -0.00669825 0.55420954
v 0.24001170 -0.00598873 0.55424074
v 0.24000576 -0.01074459 0.55453011
v 0.23533937 0.00216367 0.55416604
v 0.24001170 0.00190024 0.55420197
v 0.23533937 -0.01794160 0.55869850
v 0.23533937 -0.01203717 0.55454240
v 0.23533937 -0.00434139 0.55417549
v 0.24001170 -0.00386721 0.55420954
v 0.24001170 0.00000000 0.55420103
v 0.23533937 0.00000000 0.55416509
v 0.23533937 -0.00212855 0.55416604
v 0.24001170 -0.00189321 0.55420197
f 1 2 3
f 1 3 4
f 1 4 5
f 1 5 9
f 1 9 13
f 1 13 17
f 1 17 21
f 1 21 27
f 1 27 38
f 1 38 36
f 1 36 35
f 1 35 45
f 1 45 32
f 1 32 31
f 1 31 43
f 1 43 55
f 1 55 62
f 1 62 63
f 1 63 59
f 1 59 52
f 1 52 51
f 1 51 58
f 1 58 49
f 1 49 48
f 1 48 57
f 1 57 46
f 1 46 39
f 1 39 29
f 1 29 23
f 1 23 19
f 1 19 14
f 1 14 10
f 1 10 6
f 1 6 2
f 2 6 7
f 2 7 11
f 2 11 15
f 2 15 18
f 2 18 22
f 2 22 28
f 2 28 42
f 2 42 53
f 2 53 60
f 2 60 64
f 2 64 61
f 2 61 56
f 2 56 44
f 2 44 30
f 2 30 24
f 2 24 20
f 2 20 16
f 2 16 12
f 2 12 8
f 2 8 4
f 2 4 3
f 4 8 9
f 4 9 5
f 6 10 11
f 6 11 7
f 8 12 9
f 9 12 13
f 10 14 15
f 10 15 11
f 12 16 13
f 13 16 17
f 14 18 15
f 14 19 18
f 16 20 17
f 17 20 21
f 18 19 22
f 19 23 22
f 20 24 25
f 20 25 26
f 20 26 27
f 20 27 21
f 22 23 28
f 23 29 28
f 24 30 31
f 24 31 32
f 24 32 33
f 24 33 34
f 24 34 25
f 25 34 35
f 25 35 36
f 25 36 37
f 25 37 26
f 26 37 38
f 26 38 27
f 28 29 39
f 28 39 40
f 28 40 41
f 28 41 42
f 30 43 31
f 30 44 43
f 32 45 33
f 33 45 34
f 34 45 35
f 36 38 37
f 39 46 40
f 40 46 47
f 40 47 41
f 41 47 48
f 41 48 49
f 41 49 50
f 41 50 42
f 42 51 52
f 42 52 53
f 42 50 54
f 42 54 51
f 43 44 55
f 44 56 55
f 46 57 47
f 47 57 48
f 49 58 50
f 50 58 54
f 51 54 58
f 52 59 60
f 52 60 53
f 55 56 61
f 55 61 62
f 59 63 60
f 60 63 64
f 61 64 63
f 61 63 62

