# https://github.com/mikedh/trimesh
v 0.19613810 0.02767413 0.56853120
v 0.19768752 0.02740908 0.56866549
v 0.19907545 0.02732253 0.56826263
v 0.19669046 -0.02758579 0.56858352
v 0.19894204 -0.02713683 0.56879978
v 0.20018953 0.02689521 0.56879978
v 0.20375647 0.02622988 0.56839692
v 0.20968967 0.02400131 0.56828461
v 0.21513604 0.01996608 0.56826263
v 0.20025038 -0.02710437 0.56826263
v 0.19800115 -0.02742351 0.56853120
v 0.20018953 -0.02689342 0.56879978
v 0.20743810 0.02441782 0.56879978
v 0.20949775 0.02309258 0.56879978
v 0.21279319 0.02068550 0.56879978
v 0.21524839 0.01733183 0.56879978
v 0.21591075 0.01640145 0.56879978
v 0.21793529 0.01601740 0.56826263
v 0.20348965 -0.02644446 0.56826263
v 0.20233110 -0.02629300 0.56879978
v 0.21728931 0.01245818 0.56879978
v 0.21926705 0.01217149 0.56826263
v 0.20674765 -0.02521658 0.56826263
v 0.20375179 -0.02587109 0.56879978
v 0.21785104 0.00893141 0.56879978
v 0.21980771 0.00873127 0.56826263
v 0.21251467 -0.02205222 0.56826263
v 0.20963116 -0.02402656 0.56828461
v 0.20743810 -0.02442143 0.56879978
v 0.20554696 -0.02517871 0.56879978
v 0.21804764 0.00576165 0.56879978
v 0.21999495 0.00563183 0.56826263
v 0.21132569 -0.02179259 0.56879978
v 0.20949775 -0.02309619 0.56879978
v 0.21353981 -0.02128412 0.56826263
v 0.20851941 -0.02374529 0.56879978
v 0.21809679 0.00281907 0.56879978
v 0.22004410 0.00275416 0.56826263
v 0.22002771 0.00372239 0.56826263
v 0.21279319 -0.02068912 0.56879978
v 0.21499795 -0.02015902 0.56826263
v 0.21809913 0.00146137 0.56879978
v 0.22004878 0.00000090 0.56826263
v 0.21371769 -0.01946124 0.56879978
v 0.21708335 -0.01727053 0.56826263
v 0.21810147 0.00000090 0.56879978
v 0.21809679 -0.00281727 0.56879978
v 0.22004410 -0.00275777 0.56826263
v 0.21580309 -0.01655111 0.56879978
v 0.21793529 -0.01602643 0.56826263
v 0.21807573 -0.00421283 0.56879978
v 0.22001367 -0.00462934 0.56826263
v 0.21692419 -0.01353822 0.56879978
v 0.21854617 -0.01430091 0.56826263
v 0.21804764 -0.00575985 0.56879978
v 0.21999495 -0.00563003 0.56826263
v 0.21926705 -0.01217511 0.56826263
v 0.21728931 -0.01245639 0.56879978
v 0.21796104 -0.00719869 0.56879978
v 0.21982643 -0.00840493 0.56826263
v 0.21947769 -0.01084987 0.56826263
v 0.21763571 -0.01033059 0.56879978
v 0.21785104 -0.00892962 0.56879978
f 1 2 3
f 1 3 4
f 1 4 5
f 1 5 2
f 2 6 3
f 2 5 6
f 3 6 7
f 3 7 8
f 3 8 9
f 3 9 18
f 3 18 22
f 3 22 26
f 3 26 32
f 3 32 39
f 3 39 38
f 3 38 43
f 3 43 48
f 3 48 52
f 3 52 56
f 3 56 60
f 3 60 61
f 3 61 57
f 3 57 54
f 3 54 50
f 3 50 45
f 3 45 41
f 3 41 35
f 3 35 27
f 3 27 23
f 3 23 19
f 3 19 10
f 3 10 4
f 4 10 11
f 4 11 5
f 5 11 10
f 5 10 12
f 5 12 20
f 5 20 24
f 5 24 30
f 5 30 29
f 5 29 36
f 5 36 34
f 5 34 33
f 5 33 40
f 5 40 44
f 5 44 49
f 5 49 53
f 5 53 58
f 5 58 62
f 5 62 63
f 5 63 59
f 5 59 55
f 5 55 51
f 5 51 47
f 5 47 46
f 5 46 42
f 5 42 37
f 5 37 31
f 5 31 25
f 5 25 21
f 5 21 17
f 5 17 16
f 5 16 15
f 5 15 14
f 5 14 13
f 5 13 6
f 6 13 7
f 7 13 8
f 8 13 14
f 8 14 15
f 8 15 9
f 9 15 16
f 9 16 17
f 9 17 18
f 10 19 12
f 12 19 20
f 17 21 18
f 18 21 22
f 19 23 24
f 19 24 20
f 21 25 22
f 22 25 26
f 23 27 28
f 23 28 29
f 23 29 30
f 23 30 24
f 25 31 26
f 26 31 32
f 27 33 34
f 27 34 28
f 27 35 33
f 28 34 36
f 28 36 29
f 31 37 38
f 31 38 39
f 31 39 32
f 33 35 40
f 35 41 40
f 37 42 38
f 38 42 43
f 40 41 44
f 41 45 44
f 42 46 43
f 43 46 47
f 43 47 48
f 44 45 49
f 45 50 49
f 47 51 48
f 48 51 52
f 49 50 53
f 50 54 53
f 51 55 52
f 52 55 56
f 53 57 58
f 53 54 57
f 55 59 56
f 56 59 60
f 57 61 62
f 57 62 58
f 59 63 60
f 60 63 61
f 61 63 62

