# https://github.com/mikedh/trimesh
v 0.17510796 0.03282693 0.58373023
v 0.17382851 0.03573782 0.58387398
v 0.17272014 0.03284730 0.58387398
v 0.17150604 0.03282449 0.57360492
v 0.17505323 0.03282449 0.58280234
v 0.17353999 0.03639954 0.58168948
v 0.17331417 0.03698709 0.58195991
v 0.17348686 0.03661304 0.58284054
v 0.17340928 0.03669943 0.58371716
v 0.17090776 0.03698709 0.58387398
v 0.16968038 0.03698709 0.57360492
v 0.17330673 0.03401101 0.57360492
v 0.17365529 0.03311338 0.57375068
v 0.17387579 0.03294550 0.57472883
v 0.17430192 0.03282449 0.57709228
v 0.17482635 0.03282449 0.58061985
v 0.17495493 0.03282530 0.58172869
v 0.17382851 0.03562740 0.58141906
v 0.17326370 0.03698057 0.58116573
v 0.17297040 0.03698709 0.57879122
v 0.17239178 0.03698709 0.57550693
v 0.17207670 0.03694186 0.57382709
v 0.17238806 0.03626263 0.57370243
v 0.17267551 0.03566652 0.57379592
v 0.17296349 0.03501988 0.57388740
v 0.17325201 0.03448529 0.57434783
v 0.17353999 0.03378976 0.57452476
v 0.17382851 0.03340756 0.57545566
v 0.17382851 0.03373679 0.57619656
v 0.17441456 0.03282449 0.57779900
v 0.17382851 0.03532181 0.58025191
v 0.17466270 0.03282449 0.57942858
v 0.17382851 0.03488990 0.57898625
v 0.17382851 0.03511971 0.57963064
v 0.17382851 0.03549172 0.58084705
v 0.17353999 0.03614487 0.58052938
v 0.17320631 0.03688075 0.58019662
v 0.17316434 0.03678173 0.57954720
v 0.17325201 0.03634453 0.57888773
v 0.17325201 0.03608416 0.57819006
v 0.17291036 0.03687137 0.57810561
v 0.17262131 0.03688115 0.57647302
v 0.17267551 0.03644558 0.57568185
v 0.17238806 0.03666072 0.57468159
v 0.17267551 0.03610168 0.57484444
v 0.17296349 0.03583235 0.57581556
v 0.17296349 0.03549172 0.57500227
v 0.17325201 0.03516860 0.57594524
v 0.17325201 0.03483285 0.57515508
v 0.17353999 0.03446614 0.57607190
v 0.17353999 0.03413365 0.57530587
v 0.17382851 0.03405257 0.57692238
v 0.17452083 0.03282449 0.57847556
v 0.17353999 0.03586169 0.57959646
v 0.17382851 0.03463279 0.57831974
v 0.17353999 0.03563066 0.57893800
v 0.17353999 0.03537152 0.57825641
v 0.17325201 0.03579853 0.57746524
v 0.17296349 0.03615914 0.57660873
v 0.17283119 0.03672754 0.57727021
v 0.17325201 0.03549212 0.57671630
v 0.17353999 0.03478640 0.57681984
v 0.17382851 0.03435246 0.57763111
v 0.17353999 0.03508833 0.57754868
f 1 2 3
f 1 3 4
f 1 4 5
f 1 5 6
f 1 6 7
f 1 7 8
f 1 8 2
f 2 8 9
f 2 9 10
f 2 10 3
f 3 10 11
f 3 11 4
f 4 11 12
f 4 12 13
f 4 13 14
f 4 14 15
f 4 15 30
f 4 30 53
f 4 53 32
f 4 32 16
f 4 16 5
f 5 16 17
f 5 17 18
f 5 18 6
f 6 18 19
f 6 19 7
f 7 10 9
f 7 9 8
f 7 19 20
f 7 20 21
f 7 21 11
f 7 11 10
f 11 21 22
f 11 22 23
f 11 23 12
f 12 23 24
f 12 24 25
f 12 25 26
f 12 26 27
f 12 27 13
f 13 27 14
f 14 27 28
f 14 28 15
f 15 28 29
f 15 29 30
f 16 31 17
f 16 32 33
f 16 33 34
f 16 34 31
f 17 31 35
f 17 35 18
f 18 35 36
f 18 36 19
f 19 36 37
f 19 37 20
f 20 37 38
f 20 38 39
f 20 39 40
f 20 40 41
f 20 41 42
f 20 42 21
f 21 42 43
f 21 43 44
f 21 44 22
f 22 44 23
f 23 44 43
f 23 43 45
f 23 45 24
f 24 45 46
f 24 46 47
f 24 47 25
f 25 47 48
f 25 48 49
f 25 49 26
f 26 49 50
f 26 50 51
f 26 51 27
f 27 51 29
f 27 29 28
f 29 52 30
f 29 51 52
f 30 52 53
f 31 36 35
f 31 34 54
f 31 54 36
f 32 53 55
f 32 55 33
f 33 56 34
f 33 55 57
f 33 57 56
f 34 56 54
f 36 54 37
f 37 54 38
f 38 54 39
f 39 54 56
f 39 56 40
f 40 56 57
f 40 57 58
f 40 58 59
f 40 59 41
f 41 59 60
f 41 60 42
f 42 60 43
f 43 60 59
f 43 59 45
f 45 59 46
f 46 59 61
f 46 61 47
f 47 61 48
f 48 61 62
f 48 62 49
f 49 62 50
f 50 62 52
f 50 52 51
f 52 62 63
f 52 63 53
f 53 63 55
f 55 63 64
f 55 64 57
f 57 64 58
f 58 64 61
f 58 61 59
f 61 64 62
f 62 64 63

