# https://github.com/mikedh/trimesh
v 0.16131689 0.00910795 0.62564053
v 0.16149684 0.00905001 0.62782672
v 0.16132080 0.00000089 0.62581799
v 0.16057754 0.00000089 0.62586450
v 0.16043541 0.00910795 0.62570385
v 0.14817682 0.00910795 0.62963375
v 0.16149684 0.00850800 0.62785369
v 0.16149684 0.00000089 0.62799714
v 0.15405641 0.00884765 0.62963375
v 0.15987210 0.00000089 0.62593799
v 0.15948743 0.00910795 0.62581682
v 0.15086169 0.00910795 0.62852561
v 0.15080301 0.00000089 0.62871128
v 0.14857193 0.00000089 0.62963375
v 0.16149684 0.00796422 0.62787792
v 0.16149684 0.00063650 0.62799714
v 0.15445282 0.00000089 0.62963375
v 0.15413856 0.00813627 0.62963375
v 0.16149684 0.00629186 0.62793577
v 0.16149684 0.00682673 0.62792014
v 0.16149684 0.00742489 0.62789942
v 0.15920968 0.00000089 0.62603180
v 0.15886805 0.00910795 0.62591845
v 0.15163364 0.00910795 0.62820939
v 0.15175491 0.00000089 0.62832313
v 0.16149684 0.00135768 0.62799636
v 0.15445021 0.00128636 0.62963375
v 0.15445282 0.00054022 0.62963375
v 0.15421419 0.00736427 0.62963375
v 0.16149684 0.00575877 0.62794945
v 0.15857205 0.00000089 0.62614515
v 0.15822780 0.00910795 0.62604509
v 0.15216827 0.00910795 0.62799402
v 0.15264291 0.00000089 0.62796978
v 0.16149684 0.00213859 0.62799441
v 0.15443847 0.00270109 0.62963375
v 0.15444499 0.00209313 0.62963375
v 0.15427808 0.00658069 0.62963375
v 0.16149684 0.00499391 0.62796509
v 0.15793962 0.00000089 0.62627766
v 0.15760972 0.00910795 0.62618463
v 0.15275505 0.00910795 0.62776261
v 0.15331315 0.00000089 0.62771102
v 0.16149684 0.00266009 0.62799167
v 0.15442934 0.00324399 0.62963375
v 0.15431459 0.00605919 0.62963375
v 0.16149684 0.00417466 0.62797799
v 0.15730720 0.00000089 0.62642737
v 0.15690297 0.00910795 0.62636483
v 0.15334705 0.00910795 0.62753512
v 0.15391297 0.00910795 0.62732444
v 0.15414117 0.00000089 0.62740652
v 0.16149684 0.00347487 0.62798581
v 0.15441631 0.00378777 0.62963375
v 0.15434459 0.00553591 0.62963375
v 0.15437849 0.00487980 0.62963375
v 0.15667738 0.00000089 0.62659310
v 0.15605017 0.00910795 0.62660678
v 0.15451801 0.00910795 0.62710789
v 0.15482314 0.00000089 0.62716691
v 0.15439935 0.00433334 0.62963375
v 0.15605148 0.00000089 0.62677252
v 0.15543340 0.00000089 0.62696444
v 0.15521564 0.00910795 0.62687024
f 1 2 3
f 1 3 4
f 1 4 5
f 1 5 11
f 1 11 23
f 1 23 32
f 1 32 41
f 1 41 49
f 1 49 58
f 1 58 64
f 1 64 59
f 1 59 51
f 1 51 50
f 1 50 42
f 1 42 33
f 1 33 24
f 1 24 12
f 1 12 6
f 1 6 2
f 2 7 15
f 2 15 21
f 2 21 20
f 2 20 19
f 2 19 30
f 2 30 39
f 2 39 47
f 2 47 53
f 2 53 44
f 2 44 35
f 2 35 26
f 2 26 16
f 2 16 8
f 2 8 3
f 2 6 9
f 2 9 7
f 3 8 17
f 3 17 14
f 3 14 13
f 3 13 25
f 3 25 34
f 3 34 43
f 3 43 52
f 3 52 60
f 3 60 63
f 3 63 62
f 3 62 57
f 3 57 48
f 3 48 40
f 3 40 31
f 3 31 22
f 3 22 10
f 3 10 4
f 4 10 5
f 5 10 11
f 6 12 13
f 6 13 14
f 6 14 17
f 6 17 28
f 6 28 27
f 6 27 37
f 6 37 36
f 6 36 45
f 6 45 54
f 6 54 61
f 6 61 56
f 6 56 55
f 6 55 46
f 6 46 38
f 6 38 29
f 6 29 18
f 6 18 9
f 7 9 15
f 8 16 28
f 8 28 17
f 9 18 19
f 9 19 20
f 9 20 21
f 9 21 15
f 10 22 11
f 11 22 23
f 12 24 13
f 13 24 25
f 16 26 27
f 16 27 28
f 18 29 30
f 18 30 19
f 22 31 23
f 23 31 32
f 24 33 25
f 25 33 34
f 26 35 36
f 26 36 37
f 26 37 27
f 29 38 39
f 29 39 30
f 31 40 32
f 32 40 41
f 33 42 34
f 34 42 43
f 35 44 45
f 35 45 36
f 38 46 39
f 39 46 47
f 40 48 41
f 41 48 49
f 42 50 43
f 43 50 51
f 43 51 52
f 44 53 54
f 44 54 45
f 46 55 47
f 47 55 56
f 47 56 53
f 48 57 49
f 49 57 58
f 51 59 52
f 52 59 60
f 53 56 61
f 53 61 54
f 57 62 58
f 58 62 63
f 58 63 64
f 59 64 60
f 60 64 63

