# https://github.com/mikedh/trimesh
v 0.09646145 -0.02284491 0.57222302
v 0.09787315 -0.02801634 0.57224545
v 0.09650785 -0.02781003 0.57227051
v 0.09631100 -0.02698025 0.57235206
v 0.09631100 -0.02617309 0.57363727
v 0.09652472 -0.02578308 0.57363727
v 0.10973905 -0.02415790 0.57222302
v 0.10299971 -0.02877283 0.57222302
v 0.10016787 -0.02845521 0.57228076
v 0.09912878 -0.02827695 0.57227508
v 0.09850167 -0.02820637 0.57229529
v 0.09727838 -0.02794757 0.57226622
v 0.09644458 -0.02845793 0.57269167
v 0.09700841 -0.02856832 0.57269208
v 0.09644458 -0.02906420 0.57310466
v 0.09653034 -0.02973925 0.57358258
v 0.10020865 -0.03047492 0.57361484
v 0.10400647 -0.03111468 0.57362716
v 0.10702250 -0.03155988 0.57363076
v 0.11067550 -0.03208924 0.57363228
v 0.11043224 -0.02764715 0.57363727
v 0.10984310 -0.02753585 0.57363727
v 0.11036053 -0.02425744 0.57222302
v 0.10407536 -0.02891761 0.57222302
v 0.10338920 -0.02903524 0.57234347
v 0.10262991 -0.02898095 0.57237296
v 0.10206889 -0.02876378 0.57229363
v 0.10135460 -0.02865157 0.57228892
v 0.10070640 -0.02854389 0.57228352
v 0.09958013 -0.02840001 0.57230429
v 0.10082732 -0.02928590 0.57272960
v 0.10017912 -0.02916826 0.57272157
v 0.09960263 -0.02906149 0.57271507
v 0.09844964 -0.02884522 0.57270344
v 0.09758490 -0.02868053 0.57269554
v 0.09700841 -0.02916464 0.57309566
v 0.09758490 -0.02927866 0.57309898
v 0.09731494 -0.02985417 0.57354935
v 0.09790971 -0.03000890 0.57358120
v 0.09844964 -0.03011116 0.57358258
v 0.09904301 -0.03019169 0.57356057
v 0.09961809 -0.03030209 0.57356472
v 0.10076967 -0.03054641 0.57359490
v 0.10135741 -0.03065228 0.57359933
v 0.10214200 -0.03079977 0.57361262
v 0.10314735 -0.03095813 0.57361027
v 0.10277333 -0.03024598 0.57315810
v 0.10363526 -0.03039439 0.57316987
v 0.10465607 -0.03120154 0.57361968
v 0.10421175 -0.03048940 0.57317748
v 0.11067550 -0.03144858 0.57321251
v 0.11067550 -0.02995009 0.57232437
v 0.10435658 -0.02926056 0.57239830
v 0.10385180 -0.02980892 0.57277211
v 0.10291675 -0.02965238 0.57275895
v 0.10234026 -0.02955375 0.57275065
v 0.10176518 -0.02945330 0.57274248
v 0.10205202 -0.03011930 0.57314813
v 0.10147552 -0.03001614 0.57314024
v 0.10068390 -0.02987046 0.57313013
v 0.09974605 -0.02969491 0.57311933
v 0.09916955 -0.02958542 0.57311352
v 0.09830482 -0.02941892 0.57310521
v 0.11067550 -0.03078077 0.57280146
f 1 2 3
f 1 3 4
f 1 4 5
f 1 5 6
f 1 6 7
f 1 7 23
f 1 23 24
f 1 24 8
f 1 8 2
f 2 9 10
f 2 10 11
f 2 11 12
f 2 12 3
f 2 8 9
f 3 13 4
f 3 12 14
f 3 14 13
f 4 13 15
f 4 15 5
f 5 15 16
f 5 16 17
f 5 17 18
f 5 18 19
f 5 19 20
f 5 20 21
f 5 21 22
f 5 22 6
f 6 22 7
f 7 22 23
f 8 24 25
f 8 25 26
f 8 26 27
f 8 27 28
f 8 28 29
f 8 29 9
f 9 30 10
f 9 29 31
f 9 31 30
f 10 30 11
f 11 30 32
f 11 32 33
f 11 33 34
f 11 34 12
f 12 34 35
f 12 35 14
f 13 14 36
f 13 36 15
f 14 35 37
f 14 37 36
f 15 36 38
f 15 38 16
f 16 39 17
f 16 38 39
f 17 39 40
f 17 40 41
f 17 41 42
f 17 42 43
f 17 43 44
f 17 44 45
f 17 45 18
f 18 45 46
f 18 46 47
f 18 47 48
f 18 48 49
f 18 49 19
f 19 49 50
f 19 50 20
f 20 50 51
f 20 51 64
f 20 64 52
f 20 52 21
f 21 23 22
f 21 52 23
f 23 52 24
f 24 52 53
f 24 53 25
f 25 53 26
f 26 53 54
f 26 54 55
f 26 55 56
f 26 56 28
f 26 28 27
f 28 56 57
f 28 57 29
f 29 57 31
f 30 31 32
f 31 57 58
f 31 58 59
f 31 59 32
f 32 60 33
f 32 59 60
f 33 60 61
f 33 61 34
f 34 61 62
f 34 62 35
f 35 62 63
f 35 63 37
f 36 37 38
f 37 63 41
f 37 41 38
f 38 41 39
f 39 41 40
f 41 63 42
f 42 61 43
f 42 63 62
f 42 62 61
f 43 61 60
f 43 60 44
f 44 60 59
f 44 59 45
f 45 59 46
f 46 59 58
f 46 58 47
f 47 58 57
f 47 57 56
f 47 56 48
f 48 54 50
f 48 50 49
f 48 56 55
f 48 55 54
f 50 54 51
f 51 54 64
f 52 64 53
f 53 64 54

