# https://github.com/mikedh/trimesh
v 0.13939480 -0.03978953 0.61506434
v 0.14344513 -0.04183307 0.61513197
v 0.14200130 -0.04190340 0.61525923
v 0.13939480 -0.04194879 0.61556103
v 0.13939480 -0.03814785 0.61866039
v 0.14981901 -0.03814785 0.61506434
v 0.15792513 -0.03814785 0.61506434
v 0.14481640 -0.04164740 0.61518215
v 0.14399473 -0.04148516 0.61588027
v 0.14268150 -0.04149000 0.61621406
v 0.15465837 -0.03918786 0.61509634
v 0.14885404 -0.04084628 0.61519960
v 0.13939480 -0.04154656 0.61664166
v 0.13939480 -0.03826134 0.62249350
v 0.14205209 -0.03823344 0.62209136
v 0.15338324 -0.03814785 0.61754340
v 0.15206457 -0.03847939 0.61776301
v 0.15096537 -0.03916107 0.61728887
v 0.15208089 -0.03945167 0.61615297
v 0.14514834 -0.04121130 0.61613843
v 0.14607159 -0.04129837 0.61554139
v 0.14305878 -0.04105540 0.61714852
v 0.14399473 -0.04102898 0.61694927
v 0.14197772 -0.04106656 0.61734414
v 0.15341588 -0.03951790 0.61522796
v 0.15125196 -0.04016907 0.61525632
v 0.15005844 -0.04049576 0.61528323
v 0.14889214 -0.04041056 0.61612170
v 0.14773671 -0.04096200 0.61553121
v 0.13939480 -0.04111940 0.61765175
v 0.13939480 -0.03899511 0.62147759
v 0.14226613 -0.03876776 0.62133361
v 0.14331998 -0.03851623 0.62145069
v 0.14445908 -0.03834283 0.62136997
v 0.14735943 -0.03839158 0.62022825
v 0.15094360 -0.03833018 0.61858476
v 0.14986799 -0.03848274 0.61891273
v 0.14874884 -0.03927269 0.61827424
v 0.14889214 -0.03972032 0.61743722
v 0.14990064 -0.03974600 0.61685109
v 0.15091095 -0.03982972 0.61613625
v 0.14680620 -0.04086228 0.61622206
v 0.14558185 -0.04069967 0.61709253
v 0.14305878 -0.04053856 0.61822334
v 0.14197772 -0.04055009 0.61842041
v 0.14399473 -0.04051251 0.61802263
v 0.13939480 -0.04057837 0.61878547
v 0.14774215 -0.04026581 0.61700526
v 0.13939480 -0.03978172 0.62023479
v 0.14197772 -0.03931325 0.62057440
v 0.14305878 -0.03930246 0.62037660
v 0.14399473 -0.03927716 0.62017153
v 0.14587207 -0.03842283 0.62078529
v 0.14680620 -0.03911790 0.61941305
v 0.14774215 -0.03903790 0.61912362
v 0.14872707 -0.03851772 0.61942541
v 0.14774215 -0.03968869 0.61806480
v 0.14680620 -0.04034842 0.61728524
v 0.14558185 -0.04015307 0.61816152
v 0.14305878 -0.03995809 0.61929888
v 0.14197772 -0.03996888 0.61949595
v 0.14399473 -0.03993204 0.61909671
v 0.14680620 -0.03977018 0.61834987
v 0.14558185 -0.03928274 0.61963194
f 1 2 3
f 1 3 4
f 1 4 13
f 1 13 30
f 1 30 47
f 1 47 49
f 1 49 31
f 1 31 14
f 1 14 5
f 1 5 6
f 1 6 7
f 1 7 2
f 2 8 9
f 2 9 10
f 2 10 3
f 2 7 11
f 2 11 12
f 2 12 8
f 3 13 4
f 3 10 13
f 5 14 15
f 5 15 16
f 5 16 7
f 5 7 6
f 7 16 17
f 7 17 18
f 7 18 19
f 7 19 11
f 8 20 9
f 8 12 21
f 8 21 20
f 9 22 10
f 9 20 23
f 9 23 22
f 10 22 24
f 10 24 13
f 11 19 25
f 11 25 26
f 11 26 12
f 12 26 27
f 12 27 28
f 12 28 29
f 12 29 21
f 13 24 30
f 14 31 32
f 14 32 15
f 15 32 33
f 15 33 34
f 15 34 16
f 16 35 36
f 16 36 17
f 16 34 35
f 17 36 18
f 18 36 37
f 18 37 38
f 18 38 39
f 18 39 40
f 18 40 19
f 19 40 41
f 19 41 25
f 20 21 42
f 20 42 43
f 20 43 23
f 21 29 42
f 22 44 45
f 22 45 24
f 22 23 44
f 23 43 46
f 23 46 44
f 24 45 47
f 24 47 30
f 25 41 26
f 26 41 27
f 27 41 28
f 28 41 40
f 28 40 39
f 28 39 48
f 28 48 42
f 28 42 29
f 31 49 50
f 31 50 32
f 32 50 51
f 32 51 33
f 33 51 52
f 33 52 34
f 34 52 53
f 34 53 35
f 35 53 54
f 35 54 55
f 35 55 56
f 35 56 36
f 36 56 37
f 37 56 38
f 38 56 55
f 38 55 57
f 38 57 39
f 39 57 48
f 42 48 58
f 42 58 43
f 43 58 59
f 43 59 46
f 44 46 60
f 44 60 45
f 45 61 47
f 45 60 61
f 46 59 62
f 46 62 60
f 47 61 49
f 48 57 63
f 48 63 58
f 49 61 50
f 50 61 60
f 50 60 51
f 51 60 62
f 51 62 52
f 52 62 64
f 52 64 53
f 53 64 54
f 54 64 63
f 54 63 57
f 54 57 55
f 58 63 59
f 59 63 64
f 59 64 62

