# https://github.com/mikedh/trimesh
v 0.08345192 0.02416187 0.62673099
v 0.08341540 0.02238895 0.62822780
v 0.08296944 0.02238895 0.62901573
v 0.08224461 0.02522129 0.62821163
v 0.08538075 0.02533881 0.62743986
v 0.09354865 0.02533881 0.63207852
v 0.09354865 0.02238895 0.63356994
v 0.08244158 0.02251022 0.63058801
v 0.08230547 0.02340939 0.62984410
v 0.09323327 0.02242418 0.63590949
v 0.08920852 0.02245219 0.63465167
v 0.08463600 0.02247038 0.63220341
v 0.08237740 0.02440326 0.62911995
v 0.08302477 0.02523803 0.62899057
v 0.08523246 0.02527182 0.63077398
v 0.08778320 0.02529809 0.63240466
v 0.09094258 0.02531109 0.63388170
v 0.09299203 0.02531426 0.63453127
v 0.09324102 0.02443300 0.63503530
v 0.08348401 0.02262630 0.63130946
v 0.08345856 0.02354366 0.63068773
v 0.08288202 0.02323787 0.63044516
v 0.08288202 0.02397389 0.62990878
v 0.09122256 0.02246691 0.63537401
v 0.09310048 0.02321188 0.63555819
v 0.09212666 0.02257952 0.63558425
v 0.09041916 0.02255498 0.63506854
v 0.08979835 0.02325491 0.63451870
v 0.08893408 0.02297222 0.63429588
v 0.08808088 0.02252986 0.63411530
v 0.08700304 0.02250329 0.63358881
v 0.08583999 0.02253101 0.63292216
v 0.08547702 0.02350063 0.63214591
v 0.08490048 0.02323614 0.63192848
v 0.08432393 0.02321968 0.63154395
v 0.08317084 0.02461953 0.62964644
v 0.08375624 0.02522764 0.62964195
v 0.08460833 0.02511445 0.63042449
v 0.08461276 0.02412953 0.63114774
v 0.08518820 0.02440990 0.63136336
v 0.08588979 0.02511734 0.63135168
v 0.08682377 0.02523341 0.63187817
v 0.08634240 0.02468046 0.63195094
v 0.08749438 0.02436110 0.63283232
v 0.08870390 0.02521205 0.63295450
v 0.09066372 0.02465823 0.63413955
v 0.09183894 0.02513379 0.63429229
v 0.08978728 0.02514015 0.63350795
v 0.09217646 0.02452482 0.63471545
v 0.09214104 0.02364703 0.63512425
v 0.08403621 0.02384078 0.63092223
v 0.08403621 0.02459643 0.63037687
v 0.08345856 0.02428949 0.63014687
v 0.09109530 0.02336145 0.63493647
v 0.09008717 0.02390950 0.63430846
v 0.08922180 0.02362653 0.63409643
v 0.08835754 0.02359852 0.63371010
v 0.08749438 0.02327599 0.63344865
v 0.08663011 0.02320149 0.63301919
v 0.08634240 0.02388091 0.63245407
v 0.08576474 0.02441972 0.63175059
v 0.08864526 0.02453204 0.63333455
v 0.09124026 0.02426148 0.63455194
v 0.08951063 0.02428199 0.63387451
f 1 2 3
f 1 3 4
f 1 4 5
f 1 5 6
f 1 6 7
f 1 7 2
f 2 7 3
f 3 8 9
f 3 9 4
f 3 7 10
f 3 10 11
f 3 11 12
f 3 12 8
f 4 9 13
f 4 13 14
f 4 14 5
f 5 14 15
f 5 15 16
f 5 16 17
f 5 17 6
f 6 17 18
f 6 18 19
f 6 19 7
f 7 19 10
f 8 12 20
f 8 20 21
f 8 21 22
f 8 22 9
f 9 22 23
f 9 23 13
f 10 24 11
f 10 19 25
f 10 25 26
f 10 26 24
f 11 24 27
f 11 27 28
f 11 28 29
f 11 29 30
f 11 30 31
f 11 31 12
f 12 32 33
f 12 33 34
f 12 34 35
f 12 35 20
f 12 31 32
f 13 23 36
f 13 36 14
f 14 36 37
f 14 37 15
f 15 38 39
f 15 39 40
f 15 40 41
f 15 41 42
f 15 42 16
f 15 37 38
f 16 42 43
f 16 43 44
f 16 44 45
f 16 45 17
f 17 46 47
f 17 47 18
f 17 45 48
f 17 48 46
f 18 49 19
f 18 47 49
f 19 49 50
f 19 50 25
f 20 35 51
f 20 51 21
f 21 51 52
f 21 52 53
f 21 53 22
f 22 53 23
f 23 53 36
f 24 26 50
f 24 50 54
f 24 54 27
f 25 50 26
f 27 54 28
f 28 54 55
f 28 55 56
f 28 56 29
f 29 56 57
f 29 57 30
f 30 57 58
f 30 58 31
f 31 58 59
f 31 59 32
f 32 59 33
f 33 59 60
f 33 60 61
f 33 61 34
f 34 61 40
f 34 40 35
f 35 39 51
f 35 40 39
f 36 53 52
f 36 52 37
f 37 52 38
f 38 52 39
f 39 52 51
f 40 61 41
f 41 61 43
f 41 43 42
f 43 61 60
f 43 60 44
f 44 58 62
f 44 62 45
f 44 60 59
f 44 59 58
f 45 62 48
f 46 63 47
f 46 48 64
f 46 64 55
f 46 55 63
f 47 63 49
f 48 62 64
f 49 63 50
f 50 63 54
f 54 63 55
f 55 64 56
f 56 64 57
f 57 64 62
f 57 62 58

