# https://github.com/mikedh/trimesh
v 0.08539268 -0.02533881 0.62747663
v 0.08471165 -0.02672717 0.62749495
v 0.08239132 -0.02540363 0.62822510
v 0.08275988 -0.02533881 0.62865726
v 0.08905550 -0.02533881 0.63014936
v 0.08905550 -0.02672717 0.62903015
v 0.08685455 -0.02668110 0.62747824
v 0.08475601 -0.02672717 0.62916972
v 0.08430720 -0.02669578 0.62880599
v 0.08302603 -0.02593568 0.62834688
v 0.08273836 -0.02576336 0.62823372
v 0.08331436 -0.02564920 0.62888951
v 0.08306061 -0.02541056 0.62887065
v 0.08331436 -0.02533881 0.62916433
v 0.08734901 -0.02533881 0.63212858
v 0.08892242 -0.02534615 0.63298159
v 0.08905550 -0.02672717 0.63212157
v 0.08530592 -0.02672717 0.62963259
v 0.08488582 -0.02655770 0.62943861
v 0.08446703 -0.02629460 0.62932491
v 0.08417870 -0.02613668 0.62921929
v 0.08389102 -0.02643865 0.62867666
v 0.08360269 -0.02627326 0.62856835
v 0.08331436 -0.02610556 0.62845897
v 0.08360269 -0.02581419 0.62900105
v 0.08360008 -0.02534044 0.62941759
v 0.08417870 -0.02533881 0.62990472
v 0.08666276 -0.02535552 0.63169641
v 0.08706068 -0.02543557 0.63188933
v 0.08734901 -0.02565681 0.63191304
v 0.08778150 -0.02583946 0.63204182
v 0.08777237 -0.02534084 0.63237429
v 0.08619569 -0.02533881 0.63140058
v 0.08836860 -0.02543312 0.63264157
v 0.08892242 -0.02574556 0.63272832
v 0.08892242 -0.02630968 0.63234843
v 0.08867389 -0.02672105 0.63191950
v 0.08780238 -0.02672717 0.63140220
v 0.08547618 -0.02633808 0.63010679
v 0.08490017 -0.02604169 0.62990418
v 0.08561969 -0.02672717 0.62988047
v 0.08446703 -0.02581378 0.62974737
v 0.08417870 -0.02565872 0.62963960
v 0.08389102 -0.02597672 0.62911098
v 0.08389102 -0.02542008 0.62959757
v 0.08461967 -0.02537210 0.63023180
v 0.08517154 -0.02533881 0.63067690
v 0.08662819 -0.02586950 0.63130251
v 0.08720485 -0.02612798 0.63148357
v 0.08778150 -0.02637804 0.63165492
v 0.08835751 -0.02607552 0.63220563
v 0.08556163 -0.02535308 0.63095279
v 0.08590736 -0.02543638 0.63113439
v 0.08619569 -0.02567000 0.63116079
v 0.08818464 -0.02664359 0.63169641
v 0.08735684 -0.02672717 0.63112361
v 0.08547618 -0.02583634 0.63051739
v 0.08504434 -0.02561931 0.63036490
v 0.08590736 -0.02664087 0.63017846
v 0.08605153 -0.02611806 0.63071462
v 0.08677170 -0.02672717 0.63072863
v 0.08635551 -0.02672323 0.63043872
v 0.08662819 -0.02639095 0.63090214
v 0.08703459 -0.02665867 0.63096357
f 1 2 3
f 1 3 4
f 1 4 14
f 1 14 27
f 1 27 47
f 1 47 33
f 1 33 15
f 1 15 5
f 1 5 6
f 1 6 7
f 1 7 2
f 2 8 9
f 2 9 10
f 2 10 11
f 2 11 3
f 2 7 6
f 2 6 17
f 2 17 38
f 2 38 56
f 2 56 61
f 2 61 41
f 2 41 18
f 2 18 8
f 3 11 4
f 4 11 10
f 4 10 12
f 4 12 13
f 4 13 14
f 5 15 16
f 5 16 17
f 5 17 6
f 8 18 19
f 8 19 20
f 8 20 9
f 9 20 21
f 9 21 22
f 9 22 23
f 9 23 24
f 9 24 10
f 10 24 12
f 12 14 13
f 12 24 23
f 12 23 25
f 12 25 14
f 14 25 26
f 14 26 27
f 15 28 29
f 15 29 30
f 15 30 31
f 15 31 32
f 15 32 16
f 15 33 28
f 16 34 35
f 16 35 17
f 16 32 34
f 17 35 36
f 17 36 37
f 17 37 38
f 18 39 40
f 18 40 19
f 18 41 39
f 19 40 20
f 20 40 42
f 20 42 43
f 20 43 21
f 21 43 44
f 21 44 22
f 22 44 25
f 22 25 23
f 25 44 26
f 26 44 43
f 26 43 45
f 26 45 27
f 27 45 43
f 27 43 42
f 27 42 46
f 27 46 47
f 28 33 48
f 28 48 49
f 28 49 30
f 28 30 29
f 30 49 50
f 30 50 31
f 31 51 32
f 31 50 51
f 32 51 34
f 33 52 53
f 33 53 54
f 33 54 48
f 33 47 52
f 34 51 35
f 35 51 36
f 36 51 37
f 37 51 55
f 37 55 38
f 38 55 50
f 38 50 56
f 39 57 58
f 39 58 40
f 39 41 59
f 39 59 60
f 39 60 57
f 40 58 46
f 40 46 42
f 41 61 62
f 41 62 59
f 46 58 47
f 47 58 57
f 47 57 52
f 48 54 63
f 48 63 56
f 48 56 49
f 49 56 50
f 50 55 51
f 52 57 60
f 52 60 54
f 52 54 53
f 54 60 63
f 56 63 64
f 56 64 61
f 59 62 60
f 60 62 63
f 61 64 63
f 61 63 62

