# https://github.com/mikedh/trimesh
v 0.17031318 0.02850118 0.62814588
v 0.17031318 0.02881373 0.62785479
v 0.17008097 0.02893556 0.62765603
v 0.17008097 0.02850118 0.62805778
v 0.17031318 0.02850118 0.62493262
v 0.17031318 0.02930106 0.62736847
v 0.17008097 0.02942491 0.62717112
v 0.16979276 0.02957745 0.62690822
v 0.16979276 0.02908567 0.62739243
v 0.16994078 0.02850118 0.62799576
v 0.16653987 0.02850118 0.62225572
v 0.17031318 0.02996720 0.62308599
v 0.17031318 0.02977132 0.62687087
v 0.17008097 0.02993233 0.62663475
v 0.16995136 0.02996720 0.62655652
v 0.16979276 0.02996720 0.62650154
v 0.16950456 0.02996720 0.62638525
v 0.16950456 0.02972813 0.62663264
v 0.16979276 0.02853907 0.62789215
v 0.16950456 0.02923362 0.62711403
v 0.16950456 0.02850118 0.62776951
v 0.16631275 0.02850118 0.62209572
v 0.16631275 0.02996720 0.62094546
v 0.17031318 0.02996720 0.62664955
v 0.16921635 0.02996720 0.62625063
v 0.16921635 0.02987665 0.62634366
v 0.16950456 0.02872261 0.62757991
v 0.16921635 0.02937956 0.62682364
v 0.16921635 0.02850118 0.62759824
v 0.16921635 0.02886625 0.62728882
v 0.16631275 0.02850118 0.62528291
v 0.16631275 0.02996720 0.62420736
v 0.16898296 0.02996720 0.62612728
v 0.16892814 0.02952306 0.62652198
v 0.16892814 0.02900731 0.62698505
v 0.16890660 0.02850118 0.62739666
v 0.16719930 0.02850118 0.62604200
v 0.16631275 0.02904462 0.62490583
v 0.16631275 0.02958706 0.62450549
v 0.16777571 0.02900430 0.62614490
v 0.16748750 0.02967159 0.62537524
v 0.16679126 0.02996720 0.62458444
v 0.16863994 0.02996720 0.62592359
v 0.16863994 0.02966398 0.62621186
v 0.16863994 0.02914565 0.62667422
v 0.16863994 0.02861254 0.62711967
v 0.16863994 0.02850118 0.62720706
v 0.16765902 0.02850118 0.62643388
v 0.16747575 0.02853763 0.62625274
v 0.16779255 0.02850118 0.62654454
v 0.16806391 0.02887644 0.62647405
v 0.16777571 0.02954430 0.62570439
v 0.16806391 0.02850118 0.62676373
v 0.16748750 0.02996720 0.62511939
v 0.16719930 0.02996720 0.62489949
v 0.16835173 0.02996720 0.62573893
v 0.16835173 0.02980217 0.62589540
v 0.16835173 0.02928112 0.62635564
v 0.16835173 0.02874585 0.62679968
v 0.16835173 0.02850118 0.62698998
v 0.16806391 0.02941429 0.62603072
v 0.16777571 0.02996720 0.62533577
v 0.16803220 0.02995974 0.62552889
f 1 2 3
f 1 3 4
f 1 4 10
f 1 10 21
f 1 21 29
f 1 29 36
f 1 36 47
f 1 47 60
f 1 60 53
f 1 53 50
f 1 50 48
f 1 48 37
f 1 37 31
f 1 31 22
f 1 22 11
f 1 11 5
f 1 5 12
f 1 12 24
f 1 24 13
f 1 13 6
f 1 6 2
f 2 6 7
f 2 7 3
f 3 7 8
f 3 8 9
f 3 9 4
f 4 9 10
f 5 11 12
f 6 13 14
f 6 14 7
f 7 14 15
f 7 15 16
f 7 16 8
f 8 16 17
f 8 17 18
f 8 18 9
f 9 19 10
f 9 18 20
f 9 20 19
f 10 19 21
f 11 22 12
f 12 22 23
f 12 23 32
f 12 32 42
f 12 42 55
f 12 55 54
f 12 54 62
f 12 62 56
f 12 56 43
f 12 43 33
f 12 33 25
f 12 25 17
f 12 17 16
f 12 16 15
f 12 15 24
f 13 24 14
f 14 24 15
f 17 25 18
f 18 25 26
f 18 26 20
f 19 20 27
f 19 27 21
f 20 26 28
f 20 28 27
f 21 27 30
f 21 30 29
f 22 31 38
f 22 38 39
f 22 39 32
f 22 32 23
f 25 33 26
f 26 33 28
f 27 28 30
f 28 34 30
f 28 33 34
f 29 30 35
f 29 35 36
f 30 34 35
f 31 37 38
f 32 39 40
f 32 40 41
f 32 41 42
f 33 43 34
f 34 43 44
f 34 44 35
f 35 44 45
f 35 45 36
f 36 46 47
f 36 45 46
f 37 48 49
f 37 49 38
f 38 49 48
f 38 48 39
f 39 48 50
f 39 50 40
f 40 51 52
f 40 52 41
f 40 50 53
f 40 53 51
f 41 54 55
f 41 55 42
f 41 52 54
f 43 56 44
f 44 56 57
f 44 57 45
f 45 57 58
f 45 58 46
f 46 58 59
f 46 59 47
f 47 59 60
f 51 61 52
f 51 53 60
f 51 60 59
f 51 59 61
f 52 61 62
f 52 62 54
f 56 62 63
f 56 63 57
f 57 63 58
f 58 63 61
f 58 61 59
f 61 63 62

