# https://github.com/mikedh/trimesh
v 0.09666281 -0.03319350 0.62565183
v 0.09241458 -0.03168062 0.62565183
v 0.09666281 -0.03515345 0.62565183
v 0.09666281 -0.03515345 0.62208568
v 0.09308409 -0.03515345 0.61865583
v 0.09241458 -0.03447146 0.62565183
v 0.09241458 -0.03342808 0.62254660
v 0.09418274 -0.03515345 0.62565183
v 0.09241458 -0.03515345 0.62331161
v 0.09241458 -0.03440857 0.62298013
v 0.09241458 -0.03369666 0.62266509
v 0.09245741 -0.03449016 0.62565183
v 0.09241458 -0.03447418 0.62564772
v 0.09411163 -0.03512931 0.62565183
v 0.09397981 -0.03515345 0.62553266
v 0.09241458 -0.03515345 0.62441220
v 0.09253850 -0.03452518 0.62565183
v 0.09241458 -0.03478084 0.62511283
v 0.09253850 -0.03482707 0.62512584
v 0.09397981 -0.03508443 0.62565183
v 0.09379226 -0.03515345 0.62541692
v 0.09389414 -0.03505383 0.62565183
v 0.09253850 -0.03515345 0.62451699
v 0.09241458 -0.03513203 0.62445466
v 0.09282668 -0.03464553 0.62565183
v 0.09282668 -0.03493246 0.62515324
v 0.09241458 -0.03490459 0.62488408
v 0.09253850 -0.03511605 0.62459095
v 0.09282668 -0.03515345 0.62474437
v 0.09369163 -0.03515345 0.62535459
v 0.09369163 -0.03498142 0.62565183
v 0.09264080 -0.03515345 0.62460055
v 0.09241458 -0.03506947 0.62457863
v 0.09311486 -0.03503446 0.62517858
v 0.09311486 -0.03476180 0.62565183
v 0.09311486 -0.03515345 0.62495873
v 0.09340345 -0.03513373 0.62520186
v 0.09346250 -0.03515345 0.62520597
v 0.09363591 -0.03496068 0.62565183
v 0.09340345 -0.03487399 0.62565183
v 0.09337351 -0.03515345 0.62514365
v 0.09340345 -0.03515345 0.62516488
f 1 2 6
f 1 6 12
f 1 12 17
f 1 17 25
f 1 25 35
f 1 35 40
f 1 40 39
f 1 39 31
f 1 31 22
f 1 22 20
f 1 20 14
f 1 14 8
f 1 8 3
f 1 3 4
f 1 4 5
f 1 5 2
f 2 5 7
f 2 7 11
f 2 11 10
f 2 10 9
f 2 9 16
f 2 16 24
f 2 24 33
f 2 33 27
f 2 27 18
f 2 18 13
f 2 13 6
f 3 8 15
f 3 15 21
f 3 21 30
f 3 30 38
f 3 38 42
f 3 42 41
f 3 41 36
f 3 36 29
f 3 29 32
f 3 32 23
f 3 23 16
f 3 16 9
f 3 9 5
f 3 5 4
f 5 9 10
f 5 10 11
f 5 11 7
f 6 13 12
f 8 14 15
f 12 13 17
f 13 18 19
f 13 19 17
f 14 20 15
f 15 20 22
f 15 22 21
f 16 23 24
f 17 19 26
f 17 26 25
f 18 27 19
f 19 27 28
f 19 28 29
f 19 29 26
f 21 22 31
f 21 31 30
f 23 32 28
f 23 28 33
f 23 33 24
f 25 26 34
f 25 34 35
f 26 29 36
f 26 36 34
f 27 33 28
f 28 32 29
f 30 37 38
f 30 31 39
f 30 39 40
f 30 40 37
f 34 36 37
f 34 37 35
f 35 37 40
f 36 41 37
f 37 41 42
f 37 42 38

