# https://github.com/mikedh/trimesh
v 0.12925486 -0.01418369 0.63315924
v 0.12925486 -0.01007371 0.63350336
v 0.12925486 -0.01418369 0.63400154
v 0.09939230 -0.01418369 0.63601682
v 0.12680821 -0.01010710 0.63603508
v 0.12770268 -0.01014090 0.63592288
v 0.12883685 -0.01060601 0.63574894
v 0.12896839 -0.01151170 0.63567003
v 0.09939230 -0.01007371 0.63644790
v 0.09966123 -0.01007451 0.63864356
v 0.12891578 -0.01397125 0.63545959
v 0.12252877 -0.01408632 0.63618271
v 0.10078663 -0.01413742 0.63818135
v 0.09961738 -0.01376123 0.63828442
v 0.09958231 -0.01257872 0.63842453
v 0.12665913 -0.01109406 0.63599105
v 0.12781376 -0.01109406 0.63584933
v 0.12470941 -0.01010710 0.63627772
v 0.12585820 -0.01014090 0.63614566
v 0.12822592 -0.01228582 0.63570653
v 0.12890993 -0.01303740 0.63555192
v 0.09973139 -0.01140145 0.63853244
v 0.10043293 -0.01037627 0.63858075
v 0.10133325 -0.01011877 0.63854317
v 0.12390848 -0.01010710 0.63636308
v 0.12790146 -0.01354034 0.63563459
v 0.12669713 -0.01398936 0.63573928
v 0.10529700 -0.01240330 0.63802566
v 0.10488776 -0.01358822 0.63794138
v 0.10562146 -0.01400223 0.63782542
v 0.12570035 -0.01398936 0.63585738
v 0.12466557 -0.01398936 0.63597280
v 0.12376525 -0.01389239 0.63607963
v 0.12320109 -0.01288692 0.63623317
v 0.10207572 -0.01375921 0.63814967
v 0.10072232 -0.01322288 0.63829677
v 0.10392898 -0.01397407 0.63798164
v 0.10316020 -0.01394912 0.63804714
v 0.10072232 -0.01208585 0.63841755
v 0.12705375 -0.01198647 0.63587886
v 0.12561266 -0.01109406 0.63611399
v 0.12599266 -0.01213574 0.63599320
v 0.12446095 -0.01109406 0.63624283
v 0.12691052 -0.01288692 0.63582034
v 0.10104679 -0.01098341 0.63849701
v 0.10216634 -0.01061446 0.63844762
v 0.10358990 -0.01024430 0.63835904
v 0.10465684 -0.01017872 0.63826456
v 0.12299354 -0.01018274 0.63645273
v 0.12323616 -0.01109406 0.63637060
v 0.12611836 -0.01318828 0.63588798
v 0.10450483 -0.01206372 0.63813249
v 0.10418037 -0.01290905 0.63807881
v 0.12496372 -0.01288692 0.63604688
v 0.12413648 -0.01288692 0.63613707
v 0.12373894 -0.01198647 0.63625464
v 0.12294677 -0.01198647 0.63633463
v 0.10472115 -0.01121597 0.63818349
v 0.10216342 -0.01276300 0.63825597
v 0.10328005 -0.01284548 0.63816202
v 0.10190911 -0.01160545 0.63838588
v 0.12460418 -0.01198647 0.63616230
v 0.10335020 -0.01113309 0.63831341
v 0.10335020 -0.01198808 0.63824040
f 1 2 3
f 1 3 4
f 1 4 2
f 2 5 6
f 2 6 7
f 2 7 8
f 2 8 3
f 2 4 9
f 2 9 10
f 2 10 5
f 3 8 11
f 3 11 12
f 3 12 13
f 3 13 4
f 4 13 14
f 4 14 15
f 4 15 9
f 5 16 17
f 5 17 6
f 5 10 18
f 5 18 19
f 5 19 16
f 6 17 7
f 7 17 8
f 8 17 20
f 8 20 21
f 8 21 11
f 9 15 10
f 10 15 22
f 10 22 23
f 10 23 24
f 10 24 25
f 10 25 18
f 11 21 26
f 11 26 27
f 11 27 12
f 12 28 29
f 12 29 30
f 12 30 13
f 12 27 31
f 12 31 32
f 12 32 33
f 12 33 34
f 12 34 28
f 13 35 36
f 13 36 14
f 13 30 37
f 13 37 38
f 13 38 35
f 14 36 15
f 15 36 39
f 15 39 22
f 16 40 17
f 16 19 41
f 16 41 42
f 16 42 40
f 17 40 20
f 18 25 43
f 18 43 41
f 18 41 19
f 20 40 44
f 20 44 21
f 21 44 26
f 22 39 45
f 22 45 23
f 23 45 24
f 24 45 46
f 24 46 47
f 24 47 48
f 24 48 25
f 25 48 49
f 25 49 50
f 25 50 43
f 26 44 27
f 27 44 51
f 27 51 31
f 28 52 53
f 28 53 29
f 28 34 52
f 29 53 37
f 29 37 30
f 31 51 54
f 31 54 32
f 32 54 55
f 32 55 33
f 33 55 34
f 34 55 56
f 34 56 57
f 34 57 58
f 34 58 52
f 35 59 36
f 35 38 59
f 36 59 39
f 37 53 60
f 37 60 38
f 38 60 59
f 39 59 61
f 39 61 45
f 40 42 44
f 41 43 62
f 41 62 42
f 42 62 54
f 42 54 51
f 42 51 44
f 43 50 56
f 43 56 62
f 45 61 46
f 46 61 63
f 46 63 47
f 47 63 58
f 47 58 48
f 48 58 50
f 48 50 49
f 50 58 57
f 50 57 56
f 52 58 63
f 52 63 64
f 52 64 53
f 53 64 60
f 54 62 55
f 55 62 56
f 59 60 64
f 59 64 61
f 61 64 63

