# https://github.com/mikedh/trimesh
v 0.16852747 -0.03852677 0.57360391
v 0.16854922 -0.03363553 0.56267170
v 0.16760370 -0.03950806 0.57360391
v 0.16530227 -0.04497777 0.57360391
v 0.16854922 -0.04129031 0.57316731
v 0.16854922 -0.03749512 0.56359093
v 0.16853650 -0.03701033 0.56268027
v 0.16435797 -0.03914505 0.56267491
v 0.16435715 -0.04310066 0.57360391
v 0.16452746 -0.04559839 0.57323579
v 0.16448109 -0.04527286 0.57180506
v 0.16475933 -0.04478572 0.57092543
v 0.16525343 -0.04474123 0.57252203
v 0.16561375 -0.04419203 0.57179115
v 0.16598720 -0.04425058 0.57346801
v 0.16854922 -0.04097180 0.57213786
v 0.16674764 -0.04338522 0.57328823
v 0.16698238 -0.04285593 0.57231015
v 0.16676610 -0.04270721 0.57089761
v 0.16698238 -0.04219900 0.57003403
v 0.16854922 -0.03797874 0.56454332
v 0.16774200 -0.03829608 0.56293495
v 0.16510897 -0.04142849 0.56270916
v 0.16448109 -0.04215802 0.56288787
v 0.16475933 -0.04340161 0.56640959
v 0.16475933 -0.04378335 0.56751393
v 0.16475933 -0.04413465 0.56862149
v 0.16475933 -0.04446721 0.56976544
v 0.16561375 -0.04388289 0.57065256
v 0.16619034 -0.04346484 0.57132458
v 0.16619034 -0.04377047 0.57245461
v 0.16854922 -0.04055024 0.57085588
v 0.16698238 -0.04183248 0.56888795
v 0.16619034 -0.04314165 0.57017743
v 0.16619034 -0.04279621 0.56902706
v 0.16854922 -0.03845768 0.56555136
v 0.16763078 -0.03913685 0.56429505
v 0.16694093 -0.03951977 0.56317359
v 0.16593097 -0.04067437 0.56300451
v 0.16561375 -0.04154090 0.56404786
v 0.16503757 -0.04191913 0.56353849
v 0.16475933 -0.04255147 0.56430148
v 0.16475933 -0.04298591 0.56532450
v 0.16561375 -0.04242500 0.56613457
v 0.16561375 -0.04283134 0.56723250
v 0.16561375 -0.04320605 0.56835825
v 0.16561375 -0.04355618 0.56950326
v 0.16734269 -0.04115799 0.56823412
v 0.16854922 -0.04022354 0.56991632
v 0.16676610 -0.04160179 0.56747113
v 0.16619034 -0.04242500 0.56788740
v 0.16854922 -0.03892373 0.56660541
v 0.16727047 -0.03988395 0.56485686
v 0.16647843 -0.04047062 0.56391196
v 0.16619034 -0.04114394 0.56462465
v 0.16561375 -0.04199408 0.56507195
v 0.16619034 -0.04159594 0.56567977
v 0.16619034 -0.04202335 0.56676914
v 0.16734269 -0.04073643 0.56711158
v 0.16854922 -0.03974109 0.56862257
v 0.16676610 -0.04117672 0.56635929
v 0.16854922 -0.03937574 0.56769157
v 0.16734269 -0.04029145 0.56601150
v 0.16676610 -0.04072823 0.56527848
f 1 2 3
f 1 3 9
f 1 9 4
f 1 4 5
f 1 5 2
f 2 6 7
f 2 7 8
f 2 8 9
f 2 9 3
f 2 5 16
f 2 16 32
f 2 32 49
f 2 49 60
f 2 60 62
f 2 62 52
f 2 52 36
f 2 36 21
f 2 21 6
f 4 10 11
f 4 11 12
f 4 12 13
f 4 13 14
f 4 14 15
f 4 15 5
f 4 9 10
f 5 15 17
f 5 17 18
f 5 18 19
f 5 19 20
f 5 20 16
f 6 21 22
f 6 22 7
f 7 22 23
f 7 23 8
f 8 23 24
f 8 24 9
f 9 24 11
f 9 11 10
f 11 24 25
f 11 25 26
f 11 26 27
f 11 27 28
f 11 28 12
f 12 28 29
f 12 29 13
f 13 29 14
f 14 29 30
f 14 30 31
f 14 31 15
f 15 31 17
f 16 20 33
f 16 33 32
f 17 31 30
f 17 30 18
f 18 30 19
f 19 30 34
f 19 34 35
f 19 35 20
f 20 35 33
f 21 36 37
f 21 37 22
f 22 37 38
f 22 38 39
f 22 39 23
f 23 39 40
f 23 40 41
f 23 41 24
f 24 41 42
f 24 42 43
f 24 43 25
f 25 43 44
f 25 44 45
f 25 45 26
f 26 45 46
f 26 46 27
f 27 46 47
f 27 47 28
f 28 47 29
f 29 47 34
f 29 34 30
f 32 33 48
f 32 48 49
f 33 50 48
f 33 35 51
f 33 51 50
f 34 47 35
f 35 47 46
f 35 46 51
f 36 52 53
f 36 53 37
f 37 53 38
f 38 53 54
f 38 54 39
f 39 54 40
f 40 54 55
f 40 55 56
f 40 56 42
f 40 42 41
f 42 56 43
f 43 56 44
f 44 56 57
f 44 57 58
f 44 58 45
f 45 58 51
f 45 51 46
f 48 50 59
f 48 59 60
f 48 60 49
f 50 61 59
f 50 51 58
f 50 58 61
f 52 62 63
f 52 63 53
f 53 63 64
f 53 64 54
f 54 64 55
f 55 64 57
f 55 57 56
f 57 64 61
f 57 61 58
f 59 61 63
f 59 63 62
f 59 62 60
f 61 64 63

