# https://github.com/mikedh/trimesh
v 0.12925486 0.01422813 0.63315456
v 0.12546650 0.01411993 0.63587018
v 0.12888070 0.01401173 0.63545994
v 0.12911163 0.01177142 0.63563208
v 0.12920809 0.01044651 0.63570984
v 0.12925486 0.01005741 0.63350420
v 0.09939230 0.01422813 0.63601068
v 0.10223357 0.01421710 0.63808172
v 0.12383540 0.01411993 0.63604822
v 0.12464218 0.01401173 0.63597368
v 0.12510988 0.01318820 0.63600371
v 0.12679067 0.01401173 0.63572539
v 0.12777576 0.01401173 0.63560312
v 0.12896255 0.01291465 0.63555593
v 0.12813531 0.01318820 0.63563959
v 0.12784884 0.01228587 0.63575542
v 0.12819084 0.01109407 0.63580100
v 0.12838085 0.01014233 0.63583693
v 0.12743376 0.01007660 0.63595974
v 0.09988339 0.01006639 0.63863300
v 0.09939230 0.01005741 0.63644881
v 0.09958231 0.01198333 0.63848606
v 0.09958231 0.01311226 0.63836486
v 0.09991554 0.01411258 0.63822597
v 0.10126310 0.01417995 0.63814929
v 0.10216342 0.01333846 0.63819272
v 0.10360451 0.01398397 0.63800664
v 0.10472407 0.01402561 0.63790583
v 0.10557762 0.01405624 0.63782271
v 0.12323616 0.01318820 0.63620266
v 0.12410141 0.01318820 0.63611364
v 0.12283862 0.01401173 0.63616083
v 0.12464218 0.01228587 0.63613402
v 0.12568573 0.01228587 0.63601658
v 0.12629667 0.01288688 0.63589378
v 0.12705375 0.01318820 0.63577526
v 0.12709175 0.01228587 0.63584980
v 0.12669421 0.01094585 0.63599674
v 0.12613005 0.01013294 0.63611418
v 0.12495203 0.01009538 0.63625146
v 0.10128356 0.01010967 0.63854719
v 0.10072232 0.01096137 0.63851824
v 0.09958231 0.01086705 0.63858581
v 0.10072232 0.01208581 0.63841795
v 0.10072232 0.01322332 0.63829676
v 0.10216342 0.01219115 0.63831338
v 0.10365713 0.01287218 0.63812730
v 0.10526192 0.01298242 0.63797179
v 0.12373894 0.01228587 0.63623001
v 0.10491992 0.01223402 0.63807743
v 0.12294677 0.01228587 0.63630991
v 0.12557758 0.01109407 0.63611847
v 0.12438787 0.01124228 0.63624020
v 0.12401079 0.01013294 0.63635121
v 0.10518592 0.01022318 0.63821096
v 0.10227157 0.01013948 0.63847480
v 0.10216342 0.01105732 0.63841366
v 0.10335020 0.01198782 0.63824045
v 0.12312508 0.01078417 0.63640108
v 0.10414529 0.01118185 0.63823991
v 0.10508069 0.01123738 0.63814768
v 0.10422421 0.01022889 0.63830212
v 0.10311928 0.01019215 0.63840294
v 0.10328005 0.01112877 0.63831982
f 1 2 3
f 1 3 4
f 1 4 5
f 1 5 6
f 1 6 7
f 1 7 8
f 1 8 2
f 2 9 10
f 2 10 11
f 2 11 12
f 2 12 13
f 2 13 3
f 2 8 9
f 3 14 4
f 3 13 15
f 3 15 14
f 4 14 16
f 4 16 17
f 4 17 5
f 5 17 18
f 5 18 6
f 6 18 19
f 6 19 20
f 6 20 21
f 6 21 7
f 7 21 22
f 7 22 23
f 7 23 24
f 7 24 25
f 7 25 8
f 8 25 26
f 8 26 27
f 8 27 28
f 8 28 29
f 8 29 9
f 9 30 31
f 9 31 10
f 9 29 32
f 9 32 30
f 10 31 11
f 11 31 33
f 11 33 34
f 11 34 35
f 11 35 36
f 11 36 12
f 12 36 13
f 13 36 15
f 14 15 16
f 15 36 16
f 16 36 37
f 16 37 17
f 17 37 38
f 17 38 19
f 17 19 18
f 19 38 39
f 19 39 40
f 19 40 20
f 20 41 42
f 20 42 43
f 20 43 21
f 20 40 41
f 21 43 22
f 22 43 44
f 22 44 45
f 22 45 23
f 23 45 24
f 24 45 25
f 25 45 26
f 26 46 47
f 26 47 27
f 26 45 44
f 26 44 46
f 27 47 28
f 28 48 29
f 28 47 48
f 29 48 32
f 30 49 31
f 30 32 48
f 30 48 50
f 30 50 51
f 30 51 49
f 31 49 33
f 33 52 34
f 33 49 53
f 33 53 52
f 34 52 37
f 34 37 35
f 35 37 36
f 37 52 38
f 38 52 39
f 39 52 40
f 40 52 53
f 40 53 54
f 40 54 55
f 40 55 56
f 40 56 41
f 41 56 57
f 41 57 42
f 42 57 46
f 42 46 44
f 42 44 43
f 46 57 58
f 46 58 47
f 47 58 50
f 47 50 48
f 49 51 59
f 49 59 53
f 50 58 60
f 50 60 61
f 50 61 51
f 51 61 55
f 51 55 59
f 53 59 54
f 54 59 55
f 55 61 62
f 55 62 63
f 55 63 56
f 56 63 64
f 56 64 57
f 57 64 58
f 58 64 60
f 60 64 63
f 60 63 62
f 60 62 61

