# https://github.com/mikedh/trimesh
v 0.08836430 0.00000000 0.63537047
v 0.08249850 -0.00010417 0.63519671
v 0.08257210 -0.00102088 0.63523367
v 0.08287194 -0.00571132 0.63530317
v 0.08915882 -0.00925406 0.63537047
v 0.07810158 0.00000000 0.63009387
v 0.07810158 -0.00001630 0.63269411
v 0.07963974 -0.00009692 0.63361748
v 0.08090080 -0.00020019 0.63434229
v 0.08172995 -0.00020381 0.63479460
v 0.08172995 -0.00142579 0.63479239
v 0.08255478 -0.00185154 0.63522208
v 0.08301374 -0.00885458 0.63516803
v 0.08255911 -0.00268400 0.63521767
v 0.08255803 -0.00354546 0.63520443
v 0.08259051 -0.00445130 0.63520057
v 0.08201789 -0.00554283 0.63486465
v 0.08283189 -0.00655284 0.63524139
v 0.08210340 -0.00916438 0.63465835
v 0.08115301 -0.00916438 0.63413047
v 0.07810158 -0.00923413 0.62973588
v 0.07810158 -0.00417139 0.63264667
v 0.07817951 -0.00172381 0.63273658
v 0.07818601 -0.00093664 0.63274375
v 0.07913532 -0.00075819 0.63331631
v 0.07974799 -0.00144844 0.63367926
v 0.08028813 -0.00078446 0.63399643
v 0.08075683 -0.00153902 0.63425899
v 0.08144094 -0.00222655 0.63463188
v 0.08284055 -0.00742789 0.63519230
v 0.08230582 -0.00845420 0.63483541
v 0.08144094 -0.00304090 0.63462305
v 0.08144094 -0.00385978 0.63460816
v 0.08144094 -0.00468410 0.63458609
v 0.08086399 -0.00538250 0.63424134
v 0.08172995 -0.00672133 0.63465063
v 0.08144094 -0.00849134 0.63435994
v 0.08028813 -0.00823499 0.63372229
v 0.08028488 -0.00906111 0.63363789
v 0.07818060 -0.00885458 0.63235763
v 0.07810158 -0.00771504 0.63243320
v 0.07817951 -0.00613525 0.63260420
v 0.07825745 -0.00513973 0.63270514
v 0.07951309 -0.00488519 0.63347572
v 0.07913532 -0.00400744 0.63327770
v 0.07821848 -0.00306536 0.63274485
v 0.07913532 -0.00247023 0.63330638
v 0.07913532 -0.00170841 0.63331300
v 0.07980211 -0.00286064 0.63369802
v 0.08057606 -0.00257440 0.63415088
v 0.08180140 -0.00780743 0.63461643
v 0.08046782 -0.00346212 0.63407586
v 0.08057606 -0.00417592 0.63412164
v 0.08007164 -0.00597401 0.63375814
v 0.08086508 -0.00657277 0.63418232
v 0.08072003 -0.00748586 0.63403725
v 0.08005432 -0.00688710 0.63369305
v 0.07938753 -0.00761721 0.63323578
v 0.07925655 -0.00888991 0.63302672
v 0.07825745 -0.00687713 0.63260089
v 0.07913532 -0.00675666 0.63314862
v 0.07913532 -0.00596133 0.63319827
v 0.07978371 -0.00408443 0.63366327
v 0.07913532 -0.00323656 0.63329535
f 1 2 3
f 1 3 4
f 1 4 5
f 1 5 6
f 1 6 7
f 1 7 2
f 2 7 8
f 2 8 9
f 2 9 10
f 2 10 3
f 3 10 11
f 3 11 12
f 3 12 4
f 4 13 5
f 4 12 14
f 4 14 15
f 4 15 16
f 4 16 17
f 4 17 18
f 4 18 13
f 5 13 19
f 5 19 20
f 5 20 21
f 5 21 6
f 6 21 41
f 6 41 22
f 6 22 7
f 7 22 23
f 7 23 24
f 7 24 25
f 7 25 8
f 8 25 26
f 8 26 27
f 8 27 9
f 9 28 29
f 9 29 11
f 9 11 10
f 9 27 28
f 11 29 14
f 11 14 12
f 13 18 30
f 13 30 31
f 13 31 19
f 14 29 32
f 14 32 15
f 15 32 33
f 15 33 16
f 16 33 34
f 16 34 17
f 17 34 35
f 17 35 36
f 17 36 18
f 18 36 30
f 19 31 37
f 19 37 20
f 20 37 38
f 20 38 39
f 20 39 40
f 20 40 21
f 21 40 41
f 22 41 42
f 22 42 43
f 22 43 44
f 22 44 45
f 22 45 46
f 22 46 23
f 23 46 47
f 23 47 48
f 23 48 24
f 24 48 25
f 25 48 26
f 26 48 47
f 26 47 49
f 26 49 50
f 26 50 27
f 27 50 28
f 28 50 29
f 29 50 32
f 30 36 51
f 30 51 31
f 31 51 37
f 32 50 52
f 32 52 33
f 33 53 34
f 33 52 53
f 34 53 35
f 35 53 54
f 35 54 55
f 35 55 36
f 36 55 51
f 37 56 38
f 37 51 56
f 38 57 58
f 38 58 39
f 38 56 57
f 39 58 59
f 39 59 40
f 40 59 41
f 41 60 42
f 41 59 58
f 41 58 60
f 42 60 61
f 42 61 62
f 42 62 43
f 43 62 44
f 44 54 53
f 44 53 63
f 44 63 45
f 44 62 54
f 45 64 46
f 45 63 64
f 46 64 47
f 47 64 49
f 49 64 63
f 49 63 52
f 49 52 50
f 51 55 56
f 52 63 53
f 54 62 57
f 54 57 55
f 55 57 56
f 57 62 61
f 57 61 58
f 58 61 60

