# https://github.com/mikedh/trimesh
v 0.13939477 0.03978975 0.61506434
v 0.13939477 0.03814747 0.61865979
v 0.13939477 0.04149817 0.61676237
v 0.13939659 0.04194245 0.61558207
v 0.14164214 0.04193911 0.61522386
v 0.14312224 0.04185293 0.61516439
v 0.15792509 0.03814747 0.61506434
v 0.14982080 0.03814747 0.61506434
v 0.14217360 0.03823290 0.62207123
v 0.13939477 0.03846991 0.62221186
v 0.14630192 0.03818461 0.62094621
v 0.13939477 0.04106577 0.61777265
v 0.14197770 0.04106689 0.61734447
v 0.14197770 0.04152343 0.61627262
v 0.14338344 0.04150374 0.61601095
v 0.14424320 0.04167647 0.61531061
v 0.14540588 0.04156280 0.61517069
v 0.15467104 0.03918388 0.61509652
v 0.15211713 0.03944651 0.61614179
v 0.15053183 0.03933358 0.61723392
v 0.15183780 0.03849517 0.61786220
v 0.15304401 0.03817941 0.61767959
v 0.14212099 0.03895357 0.62108893
v 0.14512473 0.03820876 0.62133731
v 0.14354668 0.03823848 0.62176549
v 0.14323833 0.03893945 0.62087694
v 0.13939477 0.03927303 0.62106095
v 0.15062433 0.03825594 0.61885429
v 0.14728322 0.03835066 0.62031723
v 0.14550927 0.03893982 0.62018710
v 0.13939477 0.04051822 0.61890746
v 0.14212099 0.04033582 0.61879832
v 0.14323833 0.04032096 0.61858912
v 0.14338344 0.04104720 0.61708140
v 0.14457151 0.04124074 0.61628031
v 0.14572512 0.04117647 0.61598926
v 0.14686422 0.04127677 0.61523086
v 0.15133718 0.04016606 0.61521127
v 0.15306759 0.03965454 0.61517698
v 0.15091092 0.03982987 0.61613619
v 0.14896466 0.03940677 0.61794126
v 0.14986614 0.03881203 0.61843380
v 0.14831893 0.03992943 0.61735636
v 0.14197770 0.03965120 0.62003528
v 0.14305875 0.03964005 0.61983728
v 0.14428311 0.03890713 0.62063977
v 0.14399470 0.03961442 0.61963368
v 0.13939477 0.03993092 0.61998350
v 0.14914967 0.03849628 0.61925168
v 0.14801420 0.03860401 0.61963648
v 0.14680617 0.03911776 0.61941330
v 0.14558001 0.03953790 0.61922999
v 0.14457151 0.04006279 0.61869127
v 0.14399470 0.04051264 0.61802312
v 0.14471662 0.04074853 0.61731578
v 0.14572512 0.04069170 0.61705552
v 0.14713085 0.04083434 0.61612779
v 0.14840599 0.04092647 0.61526164
v 0.15003665 0.04050039 0.61528473
v 0.14944170 0.04018166 0.61627682
v 0.14743740 0.03959622 0.61835684
v 0.14831893 0.04047252 0.61630060
v 0.14713085 0.04032059 0.61718915
v 0.14550927 0.04022995 0.61804690
f 1 2 10
f 1 10 27
f 1 27 48
f 1 48 31
f 1 31 12
f 1 12 3
f 1 3 4
f 1 4 5
f 1 5 6
f 1 6 7
f 1 7 8
f 1 8 2
f 2 9 10
f 2 8 7
f 2 7 11
f 2 11 9
f 3 12 13
f 3 13 14
f 3 14 5
f 3 5 4
f 5 14 6
f 6 15 16
f 6 16 17
f 6 17 18
f 6 18 7
f 6 14 15
f 7 18 19
f 7 19 20
f 7 20 21
f 7 21 22
f 7 22 11
f 9 23 10
f 9 11 24
f 9 24 25
f 9 25 26
f 9 26 23
f 10 23 27
f 11 22 28
f 11 28 29
f 11 29 30
f 11 30 24
f 12 31 13
f 13 32 33
f 13 33 34
f 13 34 15
f 13 15 14
f 13 31 32
f 15 34 35
f 15 35 16
f 16 35 17
f 17 35 36
f 17 36 37
f 17 37 38
f 17 38 18
f 18 38 39
f 18 39 19
f 19 39 40
f 19 40 20
f 20 41 42
f 20 42 21
f 20 40 43
f 20 43 41
f 21 42 28
f 21 28 22
f 23 44 27
f 23 26 45
f 23 45 44
f 24 46 25
f 24 30 46
f 25 46 26
f 26 46 47
f 26 47 45
f 27 44 48
f 28 42 49
f 28 49 29
f 29 50 51
f 29 51 30
f 29 49 50
f 30 51 52
f 30 52 47
f 30 47 46
f 31 48 32
f 32 48 44
f 32 44 45
f 32 45 33
f 33 45 53
f 33 53 54
f 33 54 34
f 34 54 55
f 34 55 35
f 35 55 36
f 36 56 57
f 36 57 37
f 36 55 56
f 37 57 58
f 37 58 38
f 38 59 60
f 38 60 40
f 38 40 39
f 38 58 59
f 40 60 43
f 41 43 61
f 41 61 51
f 41 51 50
f 41 50 42
f 42 50 49
f 43 62 63
f 43 63 61
f 43 60 62
f 45 47 53
f 47 52 53
f 51 61 52
f 52 64 53
f 52 61 64
f 53 64 54
f 54 64 55
f 55 64 56
f 56 64 63
f 56 63 57
f 57 63 62
f 57 62 58
f 58 62 59
f 59 62 60
f 61 63 64

