# https://github.com/mikedh/trimesh
v 0.08918373 0.00925406 0.63537792
v 0.08115337 0.00916438 0.63412999
v 0.08313981 0.00891165 0.63522808
v 0.08311052 0.00710450 0.63535248
v 0.08838742 -0.00000000 0.63537792
v 0.07810049 -0.00000000 0.63009426
v 0.07810158 0.00923594 0.62972989
v 0.07833266 0.00920514 0.63241042
v 0.08144087 0.00849134 0.63436000
v 0.08224803 0.00880929 0.63477082
v 0.08000122 0.00901129 0.63347091
v 0.08028763 0.00823499 0.63372249
v 0.08287184 0.00789168 0.63517611
v 0.08237822 0.00693601 0.63498480
v 0.08282953 0.00615337 0.63526015
v 0.08256590 0.00394674 0.63520043
v 0.08257132 0.00305993 0.63521868
v 0.08262991 0.00039585 0.63526402
v 0.08136927 0.00010145 0.63459997
v 0.07810049 -0.00000000 0.63269351
v 0.07810049 0.00849859 0.63235071
v 0.07913439 0.00884915 0.63295670
v 0.08122498 0.00769420 0.63430803
v 0.08190954 0.00761268 0.63469009
v 0.07920708 0.00798226 0.63309217
v 0.07971155 0.00748405 0.63344493
v 0.08043192 0.00742789 0.63387620
v 0.08144087 0.00677749 0.63449049
v 0.08172945 0.00597764 0.63469120
v 0.08258217 0.00513068 0.63517555
v 0.08144087 0.00427194 0.63459776
v 0.08144087 0.00344944 0.63461600
v 0.08243246 0.00194846 0.63515841
v 0.08144087 0.00263328 0.63462817
v 0.08180105 0.00101997 0.63483219
v 0.08115337 0.00100367 0.63448164
v 0.08028763 0.00019657 0.63399563
v 0.07920708 0.00009511 0.63335978
v 0.07810049 0.00073464 0.63269351
v 0.07810049 0.00770688 0.63243420
v 0.07810049 0.00693330 0.63250110
v 0.08026051 0.00659361 0.63383307
v 0.07917128 0.00696410 0.63315520
v 0.08057621 0.00580100 0.63405977
v 0.08144087 0.00509897 0.63457177
v 0.08057621 0.00377373 0.63413109
v 0.08057621 0.00297297 0.63414547
v 0.08144087 0.00182074 0.63463480
v 0.08057621 0.00138322 0.63415929
v 0.07989165 0.00145387 0.63376396
v 0.07924288 0.00104534 0.63338024
v 0.07810049 0.00201549 0.63268688
v 0.07810049 0.00614250 0.63255584
v 0.07944142 0.00576567 0.63339350
v 0.08028763 0.00489425 0.63393149
v 0.07996325 0.00400653 0.63377115
v 0.07989165 0.00301373 0.63374958
v 0.08028763 0.00215862 0.63398899
v 0.07922552 0.00242946 0.63336033
v 0.07810375 0.00320848 0.63267250
v 0.07810049 0.00432810 0.63264154
v 0.07810049 0.00536801 0.63259952
v 0.07920708 0.00479370 0.63329619
v 0.07917128 0.00391504 0.63330172
f 1 2 3
f 1 3 4
f 1 4 5
f 1 5 6
f 1 6 7
f 1 7 8
f 1 8 2
f 2 9 10
f 2 10 3
f 2 8 11
f 2 11 12
f 2 12 9
f 3 10 13
f 3 13 4
f 4 13 14
f 4 14 15
f 4 15 16
f 4 16 17
f 4 17 18
f 4 18 5
f 5 18 19
f 5 19 20
f 5 20 6
f 6 20 39
f 6 39 52
f 6 52 61
f 6 61 62
f 6 62 53
f 6 53 41
f 6 41 40
f 6 40 21
f 6 21 7
f 7 21 8
f 8 22 11
f 8 21 22
f 9 23 24
f 9 24 10
f 9 12 23
f 10 24 13
f 11 22 25
f 11 25 12
f 12 25 26
f 12 26 27
f 12 27 23
f 13 24 14
f 14 24 28
f 14 28 29
f 14 29 15
f 15 30 16
f 15 29 30
f 16 30 31
f 16 31 32
f 16 32 17
f 17 33 18
f 17 32 34
f 17 34 33
f 18 33 35
f 18 35 19
f 19 35 36
f 19 36 37
f 19 37 38
f 19 38 20
f 20 38 39
f 21 40 22
f 22 40 25
f 23 27 28
f 23 28 24
f 25 40 41
f 25 41 26
f 26 42 27
f 26 41 43
f 26 43 42
f 27 42 28
f 28 42 44
f 28 44 29
f 29 44 45
f 29 45 30
f 30 45 31
f 31 45 46
f 31 46 32
f 32 46 47
f 32 47 34
f 33 34 35
f 34 48 35
f 34 47 49
f 34 49 48
f 35 48 36
f 36 49 37
f 36 48 49
f 37 50 38
f 37 49 50
f 38 50 51
f 38 51 39
f 39 51 52
f 41 53 43
f 42 43 54
f 42 54 44
f 43 53 54
f 44 54 55
f 44 55 45
f 45 55 46
f 46 55 56
f 46 56 57
f 46 57 47
f 47 57 58
f 47 58 49
f 49 58 50
f 50 59 51
f 50 58 57
f 50 57 59
f 51 59 52
f 52 60 61
f 52 59 60
f 53 62 54
f 54 63 55
f 54 62 63
f 55 63 56
f 56 63 64
f 56 64 57
f 57 64 59
f 59 64 60
f 60 64 61
f 61 64 63
f 61 63 62

