# https://github.com/mikedh/trimesh
v 0.09296671 -0.03043515 0.57838502
v 0.09434492 -0.03397479 0.57847256
v 0.09245701 -0.03332016 0.57856749
v 0.09225092 -0.03472025 0.58090361
v 0.09301823 -0.03232450 0.58090411
v 0.11005356 -0.03419329 0.57838502
v 0.11073990 -0.03437837 0.57838502
v 0.10086427 -0.03554197 0.57845160
v 0.09672412 -0.03462857 0.57847330
v 0.09566056 -0.03436552 0.57847749
v 0.09535143 -0.03471768 0.57909271
v 0.09448660 -0.03447948 0.57912008
v 0.09362177 -0.03421471 0.57917113
v 0.09320776 -0.03363377 0.57856872
v 0.09268334 -0.03389768 0.57925496
v 0.09268334 -0.03440836 0.58005784
v 0.09290230 -0.03497474 0.58087205
v 0.10122676 -0.03722739 0.58085627
v 0.11053749 -0.03641938 0.58090411
v 0.11104719 -0.03918872 0.58081139
v 0.11104719 -0.03754957 0.57850387
v 0.10267121 -0.03592241 0.57845554
v 0.10194071 -0.03580674 0.57849968
v 0.10118812 -0.03609121 0.57910110
v 0.09987431 -0.03535775 0.57849204
v 0.09893220 -0.03512983 0.57846837
v 0.09646835 -0.03499787 0.57908186
v 0.09772328 -0.03509898 0.57880421
v 0.09635979 -0.03549913 0.57989065
v 0.09535143 -0.03523950 0.57990126
v 0.09448660 -0.03499787 0.57992739
v 0.09362177 -0.03473053 0.57997696
v 0.09384994 -0.03531576 0.58083679
v 0.10417087 -0.03784775 0.58083482
v 0.09493190 -0.03565593 0.58081189
v 0.09578937 -0.03589414 0.58080375
v 0.09879051 -0.03663445 0.58080449
v 0.09955598 -0.03681525 0.58080572
v 0.10039873 -0.03701147 0.58080720
v 0.10191863 -0.03732764 0.58076232
v 0.10301162 -0.03759241 0.58081115
v 0.11104719 -0.03879029 0.58019025
v 0.10510194 -0.03799170 0.58076528
v 0.10442664 -0.03732079 0.57991728
v 0.11104719 -0.03819392 0.57933954
v 0.10442111 -0.03634570 0.57855640
v 0.10362069 -0.03617004 0.57852927
v 0.10356180 -0.03659504 0.57911293
v 0.10215783 -0.03630114 0.57910652
v 0.10039505 -0.03609892 0.57936593
v 0.09960198 -0.03573562 0.57909296
v 0.10269697 -0.03696520 0.57991309
v 0.10197751 -0.03681011 0.57991038
v 0.09888252 -0.03556939 0.57908975
v 0.09916957 -0.03600124 0.57962977
v 0.09722462 -0.03571163 0.57989041
v 0.09674068 -0.03610920 0.58074999
v 0.10359861 -0.03715370 0.57991580
v 0.09806001 -0.03643824 0.58076528
v 0.09960198 -0.03644680 0.58016954
v 0.10046681 -0.03664645 0.58017250
v 0.10442664 -0.03676641 0.57911564
v 0.10122308 -0.03664302 0.57990717
v 0.09812441 -0.03592670 0.57989410
f 1 2 3
f 1 3 4
f 1 4 5
f 1 5 6
f 1 6 7
f 1 7 8
f 1 8 2
f 2 9 10
f 2 10 11
f 2 11 12
f 2 12 13
f 2 13 14
f 2 14 3
f 2 8 9
f 3 15 4
f 3 14 15
f 4 15 16
f 4 16 17
f 4 17 18
f 4 18 19
f 4 19 5
f 5 19 6
f 6 19 7
f 7 19 20
f 7 20 21
f 7 21 22
f 7 22 8
f 8 22 23
f 8 23 24
f 8 24 25
f 8 25 26
f 8 26 9
f 9 27 10
f 9 26 28
f 9 28 27
f 10 27 11
f 11 27 29
f 11 29 30
f 11 30 12
f 12 30 31
f 12 31 13
f 13 31 32
f 13 32 15
f 13 15 14
f 15 32 16
f 16 32 17
f 17 33 18
f 17 32 33
f 18 34 20
f 18 20 19
f 18 33 35
f 18 35 36
f 18 36 37
f 18 37 38
f 18 38 39
f 18 39 40
f 18 40 41
f 18 41 34
f 20 42 45
f 20 45 21
f 20 34 43
f 20 43 44
f 20 44 42
f 21 45 46
f 21 46 47
f 21 47 22
f 22 47 48
f 22 48 23
f 23 48 49
f 23 49 24
f 24 50 51
f 24 51 25
f 24 49 52
f 24 52 53
f 24 53 50
f 25 51 26
f 26 51 28
f 27 28 54
f 27 54 55
f 27 55 56
f 27 56 29
f 28 51 54
f 29 36 30
f 29 56 57
f 29 57 36
f 30 35 31
f 30 36 35
f 31 35 33
f 31 33 32
f 34 41 52
f 34 52 58
f 34 58 43
f 36 57 37
f 37 57 59
f 37 59 60
f 37 60 38
f 38 60 39
f 39 60 61
f 39 61 40
f 40 61 53
f 40 53 41
f 41 53 52
f 42 44 62
f 42 62 45
f 43 58 44
f 44 58 48
f 44 48 62
f 45 62 46
f 46 62 47
f 47 62 48
f 48 58 49
f 49 58 52
f 50 53 63
f 50 63 55
f 50 55 51
f 51 55 54
f 53 61 63
f 55 64 56
f 55 63 61
f 55 61 60
f 55 60 64
f 56 64 60
f 56 60 59
f 56 59 57

