# https://github.com/mikedh/trimesh
v 0.14900375 0.04518392 0.56064886
v 0.14947271 0.04453480 0.55968212
v 0.14860820 0.04461690 0.55978692
v 0.14774777 0.04516036 0.56072395
v 0.15165301 0.04496274 0.56059956
v 0.15031819 0.04508207 0.56058585
v 0.14976088 0.04392597 0.55887829
v 0.14860820 0.04403315 0.55900269
v 0.15062539 0.04440711 0.55960866
v 0.14768117 0.04407115 0.55917638
v 0.14775321 0.04465110 0.55995604
v 0.14754795 0.04256009 0.55747308
v 0.14734950 0.04230242 0.56072526
v 0.16123465 0.04040676 0.56072526
v 0.15978293 0.04348056 0.56056985
v 0.15852015 0.04382488 0.56055646
v 0.15276355 0.04479780 0.56054340
v 0.15177807 0.04426573 0.55957046
v 0.15736611 0.04405747 0.56054732
v 0.15615498 0.04427029 0.56054079
v 0.15411605 0.04460397 0.56053556
v 0.15091356 0.04379752 0.55882573
v 0.15004905 0.04329662 0.55812965
v 0.14889637 0.04340835 0.55822368
v 0.14775321 0.04345320 0.55840651
v 0.14734950 0.03908952 0.55738982
v 0.14861364 0.04272807 0.55747863
v 0.14986962 0.04266955 0.55742084
v 0.16123465 0.03741885 0.55738982
v 0.16106066 0.04296294 0.56043501
v 0.16013499 0.04275392 0.55964326
v 0.15898231 0.04308379 0.55961943
v 0.15782827 0.04333082 0.55959462
v 0.15285870 0.04412208 0.55955087
v 0.15206624 0.04365614 0.55880059
v 0.15645946 0.04356569 0.55957144
v 0.15530679 0.04435542 0.56044219
v 0.15383195 0.04398298 0.55954630
v 0.15112968 0.04317653 0.55809570
v 0.15124115 0.04254109 0.55740125
v 0.15235577 0.04241416 0.55739766
v 0.15599323 0.04187145 0.55741594
v 0.15727640 0.04165939 0.55743096
v 0.16049112 0.04089550 0.55747765
v 0.16095056 0.04139107 0.55822009
v 0.15347446 0.04226746 0.55740125
v 0.16099270 0.04217169 0.55924789
v 0.15984682 0.04230242 0.55890507
v 0.15869414 0.04260646 0.55887764
v 0.15754010 0.04283144 0.55885185
v 0.15321892 0.04350336 0.55879210
v 0.15206624 0.04306403 0.55808296
v 0.15613595 0.04306175 0.55882442
v 0.15516270 0.04377852 0.55955315
v 0.15455102 0.04331030 0.55879961
v 0.15321892 0.04291581 0.55808100
v 0.15477530 0.04207668 0.55741235
v 0.15530679 0.04261482 0.55810810
v 0.15754010 0.04226290 0.55815806
v 0.15812460 0.04152105 0.55745349
v 0.15900406 0.04132647 0.55746524
v 0.15984682 0.04174680 0.55821389
v 0.15415683 0.04278660 0.55808884
v 0.15869414 0.04204475 0.55818581
f 1 2 3
f 1 3 4
f 1 4 5
f 1 5 6
f 1 6 2
f 2 7 8
f 2 8 3
f 2 6 9
f 2 9 7
f 3 8 10
f 3 10 11
f 3 11 4
f 4 11 10
f 4 10 12
f 4 12 13
f 4 13 14
f 4 14 15
f 4 15 16
f 4 16 5
f 5 17 18
f 5 18 9
f 5 9 6
f 5 16 19
f 5 19 20
f 5 20 21
f 5 21 17
f 7 9 22
f 7 22 23
f 7 23 24
f 7 24 8
f 8 25 10
f 8 24 25
f 9 18 22
f 10 25 12
f 12 26 13
f 12 25 27
f 12 27 28
f 12 28 26
f 13 26 14
f 14 29 30
f 14 30 15
f 14 26 29
f 15 30 31
f 15 31 32
f 15 32 16
f 16 32 33
f 16 33 19
f 17 34 18
f 17 21 34
f 18 34 35
f 18 35 22
f 19 33 36
f 19 36 20
f 20 36 37
f 20 37 21
f 21 37 38
f 21 38 34
f 22 35 39
f 22 39 23
f 23 28 24
f 23 39 40
f 23 40 28
f 24 28 27
f 24 27 25
f 26 28 40
f 26 40 41
f 26 41 29
f 29 42 43
f 29 43 44
f 29 44 45
f 29 45 30
f 29 41 46
f 29 46 42
f 30 47 31
f 30 45 47
f 31 47 48
f 31 48 32
f 32 49 33
f 32 48 49
f 33 50 36
f 33 49 50
f 34 38 51
f 34 51 35
f 35 51 52
f 35 52 39
f 36 53 54
f 36 54 37
f 36 50 53
f 37 54 38
f 38 54 55
f 38 55 51
f 39 52 40
f 40 52 41
f 41 56 46
f 41 52 56
f 42 46 57
f 42 57 58
f 42 58 43
f 43 58 59
f 43 59 60
f 43 60 61
f 43 61 44
f 44 61 62
f 44 62 45
f 45 62 48
f 45 48 47
f 46 56 63
f 46 63 57
f 48 62 49
f 49 62 64
f 49 64 50
f 50 64 59
f 50 59 53
f 51 55 63
f 51 63 56
f 51 56 52
f 53 59 58
f 53 58 55
f 53 55 54
f 55 58 63
f 57 63 58
f 59 64 60
f 60 64 61
f 61 64 62

