# https://github.com/mikedh/trimesh
v 0.17188896 -0.01832836 0.63211104
v 0.17036908 -0.01838120 0.63380121
v 0.17175437 -0.01865157 0.63450555
v 0.17186924 -0.02427379 0.63184498
v 0.17188896 -0.02533881 0.62907158
v 0.17188896 -0.02533881 0.62833517
v 0.16730874 -0.01832836 0.62737071
v 0.16384292 -0.01832836 0.62482655
v 0.17065711 -0.01915320 0.63375726
v 0.17094857 -0.01852942 0.63415278
v 0.16313142 -0.01845050 0.62692412
v 0.16969271 -0.01851501 0.63318239
v 0.17008104 -0.01935700 0.63325484
v 0.17149549 -0.01938994 0.63414209
v 0.17161893 -0.02026762 0.63384753
v 0.17174666 -0.02132303 0.63343063
v 0.17137804 -0.02403704 0.63188774
v 0.17137804 -0.02457916 0.63154685
v 0.17176037 -0.02501971 0.63131999
v 0.17161893 -0.02242236 0.63285694
v 0.17161893 -0.02350179 0.63226307
v 0.17054052 -0.02525577 0.63076056
v 0.16313142 -0.02527156 0.62483843
v 0.16327800 -0.02533881 0.62237265
v 0.16676010 -0.01832836 0.62683147
v 0.16628348 -0.02533881 0.62396068
v 0.16571085 -0.01832836 0.62592403
v 0.16628091 -0.01832836 0.62639082
v 0.16452443 -0.01832836 0.62513774
v 0.16393379 -0.02533881 0.62257219
v 0.16314942 -0.01841345 0.62479329
v 0.17022506 -0.02040967 0.63299710
v 0.17080198 -0.02019420 0.63347933
v 0.16313142 -0.01943592 0.62670439
v 0.16957613 -0.01953199 0.63275955
v 0.16313142 -0.02065534 0.62639794
v 0.16313142 -0.02154674 0.62615089
v 0.16313142 -0.02247245 0.62586583
v 0.16964900 -0.02062240 0.63244361
v 0.17080198 -0.02128803 0.63303511
v 0.17137804 -0.02186927 0.63305886
v 0.17080198 -0.02429987 0.63149934
v 0.17080198 -0.02484816 0.63115965
v 0.17137804 -0.02295281 0.63250893
v 0.17022506 -0.02455994 0.63102662
v 0.16941754 -0.02525234 0.63004435
v 0.16921523 -0.02443848 0.63035435
v 0.16921523 -0.02387509 0.63065010
v 0.16964900 -0.02285674 0.63150766
v 0.16964900 -0.02173888 0.63200295
v 0.16313142 -0.02458602 0.62511755
v 0.16556768 -0.02533881 0.62344163
v 0.16508335 -0.01832836 0.62547269
v 0.16476360 -0.02533881 0.62295227
v 0.17022506 -0.02151586 0.63255407
v 0.16313142 -0.02368913 0.62545249
v 0.17022506 -0.02262136 0.63205640
v 0.17080198 -0.02238187 0.63253388
v 0.17080198 -0.02347777 0.63196851
v 0.17022506 -0.02400616 0.63134375
v 0.16964900 -0.02481522 0.63048381
v 0.16964900 -0.02425526 0.63079976
v 0.16964900 -0.02369599 0.63109669
v 0.17022506 -0.02345169 0.63164306
f 1 2 3
f 1 3 4
f 1 4 5
f 1 5 6
f 1 6 7
f 1 7 25
f 1 25 28
f 1 28 27
f 1 27 53
f 1 53 29
f 1 29 8
f 1 8 2
f 2 9 10
f 2 10 3
f 2 8 11
f 2 11 12
f 2 12 13
f 2 13 9
f 3 10 14
f 3 14 15
f 3 15 16
f 3 16 4
f 4 17 18
f 4 18 19
f 4 19 5
f 4 16 20
f 4 20 21
f 4 21 17
f 5 22 23
f 5 23 24
f 5 24 30
f 5 30 54
f 5 54 52
f 5 52 26
f 5 26 6
f 5 19 22
f 6 25 7
f 6 26 27
f 6 27 28
f 6 28 25
f 8 29 30
f 8 30 24
f 8 24 31
f 8 31 11
f 9 13 32
f 9 32 33
f 9 33 10
f 10 33 14
f 11 31 23
f 11 23 51
f 11 51 56
f 11 56 38
f 11 38 37
f 11 37 36
f 11 36 34
f 11 34 12
f 12 35 13
f 12 34 36
f 12 36 37
f 12 37 38
f 12 38 35
f 13 35 39
f 13 39 32
f 14 33 15
f 15 33 40
f 15 40 41
f 15 41 16
f 16 41 20
f 17 42 43
f 17 43 18
f 17 21 44
f 17 44 42
f 18 43 19
f 19 43 22
f 20 41 44
f 20 44 21
f 22 43 45
f 22 45 46
f 22 46 23
f 23 31 24
f 23 46 47
f 23 47 48
f 23 48 49
f 23 49 50
f 23 50 51
f 26 52 27
f 27 52 53
f 29 53 54
f 29 54 30
f 32 55 33
f 32 39 50
f 32 50 55
f 33 55 40
f 35 38 56
f 35 56 39
f 39 56 51
f 39 51 50
f 40 55 57
f 40 57 58
f 40 58 41
f 41 58 44
f 42 44 59
f 42 59 60
f 42 60 45
f 42 45 43
f 44 58 59
f 45 61 46
f 45 60 61
f 46 61 47
f 47 61 62
f 47 62 63
f 47 63 48
f 48 63 49
f 49 57 55
f 49 55 50
f 49 63 57
f 52 54 53
f 57 63 64
f 57 64 58
f 58 64 59
f 59 64 60
f 60 64 62
f 60 62 61
f 62 64 63

