# https://github.com/mikedh/trimesh
v 0.14222108 -0.01838468 0.63054009
v 0.14547018 -0.01838468 0.62963376
v 0.15147276 -0.01816693 0.62968881
v 0.14443943 -0.01804995 0.63235193
v 0.14264129 -0.01785560 0.63282199
v 0.14257903 -0.00644795 0.63383552
v 0.14222108 -0.00000180 0.63172671
v 0.14856844 -0.00000180 0.62963376
v 0.15275612 -0.01499424 0.62963376
v 0.15211803 -0.01687302 0.62963626
v 0.14986377 -0.01765044 0.63044625
v 0.14653685 -0.01782500 0.63172087
v 0.14543666 -0.01699359 0.63222847
v 0.14428260 -0.01654729 0.63264181
v 0.14270474 -0.01590483 0.63310394
v 0.14270474 -0.01345018 0.63339215
v 0.14313931 -0.00765728 0.63367244
v 0.14313093 -0.00528721 0.63373708
v 0.14257305 -0.00375216 0.63388265
v 0.14270474 -0.01105312 0.63359319
v 0.14313691 -0.00931291 0.63360320
v 0.14256706 -0.00206414 0.63389474
v 0.14313931 -0.00062086 0.63377045
v 0.14489554 -0.00014217 0.63331707
v 0.15445010 -0.00046789 0.62963376
v 0.15340258 -0.01257198 0.62963376
v 0.14903773 -0.01335301 0.63135008
v 0.14957765 -0.01560430 0.63087252
v 0.14806204 -0.01722574 0.63124414
v 0.14658953 -0.01587424 0.63199782
v 0.14485963 -0.01529657 0.63264056
v 0.14428260 -0.01408184 0.63295546
v 0.14485963 -0.00873524 0.63318611
v 0.14485963 -0.00643896 0.63326661
v 0.14370676 -0.00306291 0.63363573
v 0.14485963 -0.01107292 0.63304597
v 0.14485963 -0.00194536 0.63332458
v 0.14600412 -0.00076303 0.63296088
v 0.14801176 -0.00084581 0.63222180
v 0.15443574 -0.00256263 0.62963376
v 0.14813746 -0.00304132 0.63216674
v 0.15378568 -0.01066081 0.62963376
v 0.14856844 -0.01150662 0.63169835
v 0.14767057 -0.01400266 0.63182807
v 0.14813746 -0.01520299 0.63150482
v 0.14594067 -0.01393607 0.63245579
v 0.14485963 -0.01286172 0.63290499
v 0.14622918 -0.00893320 0.63273190
v 0.14601250 -0.00728117 0.63287413
v 0.14601250 -0.00557875 0.63291750
v 0.14485963 -0.00417866 0.63330873
v 0.14658953 -0.01074719 0.63250625
v 0.14651770 -0.00371257 0.63276902
v 0.14642672 -0.00228729 0.63280948
v 0.15435553 -0.00522063 0.62963376
v 0.14860435 -0.00526562 0.63195611
v 0.14727431 -0.00528361 0.63247122
v 0.14855048 -0.00982400 0.63181430
v 0.15402631 -0.00906817 0.62963376
v 0.14693192 -0.01237043 0.63225725
v 0.14727431 -0.00754931 0.63241199
v 0.14860435 -0.00695544 0.63191690
v 0.15419750 -0.00750612 0.62963376
v 0.14885696 -0.00830514 0.63176759
f 1 2 3
f 1 3 4
f 1 4 5
f 1 5 6
f 1 6 7
f 1 7 8
f 1 8 2
f 2 9 10
f 2 10 3
f 2 8 25
f 2 25 40
f 2 40 55
f 2 55 63
f 2 63 59
f 2 59 42
f 2 42 26
f 2 26 9
f 3 10 11
f 3 11 12
f 3 12 4
f 4 12 13
f 4 13 14
f 4 14 5
f 5 14 15
f 5 15 16
f 5 16 6
f 6 17 18
f 6 18 19
f 6 19 7
f 6 16 20
f 6 20 21
f 6 21 17
f 7 19 22
f 7 22 23
f 7 23 24
f 7 24 8
f 8 24 25
f 9 26 27
f 9 27 28
f 9 28 10
f 10 28 11
f 11 29 12
f 11 28 29
f 12 29 30
f 12 30 13
f 13 30 31
f 13 31 14
f 14 31 32
f 14 32 15
f 15 32 16
f 16 32 20
f 17 33 34
f 17 34 18
f 17 21 33
f 18 34 35
f 18 35 19
f 19 35 22
f 20 32 36
f 20 36 21
f 21 36 33
f 22 35 23
f 23 35 24
f 24 35 37
f 24 37 38
f 24 38 39
f 24 39 25
f 25 39 41
f 25 41 40
f 26 42 43
f 26 43 27
f 27 44 45
f 27 45 28
f 27 43 44
f 28 45 29
f 29 45 30
f 30 45 44
f 30 44 46
f 30 46 31
f 31 46 32
f 32 46 47
f 32 47 36
f 33 48 49
f 33 49 34
f 33 36 48
f 34 50 51
f 34 51 35
f 34 49 50
f 35 51 37
f 36 52 48
f 36 47 52
f 37 51 38
f 38 51 53
f 38 53 54
f 38 54 39
f 39 54 41
f 40 41 56
f 40 56 55
f 41 54 53
f 41 53 57
f 41 57 56
f 42 58 43
f 42 59 58
f 43 60 44
f 43 58 52
f 43 52 60
f 44 60 46
f 46 60 47
f 47 60 52
f 48 61 49
f 48 52 61
f 49 61 57
f 49 57 50
f 50 57 53
f 50 53 51
f 52 58 61
f 55 56 62
f 55 62 63
f 56 57 62
f 57 61 62
f 58 59 64
f 58 64 61
f 59 63 64
f 61 64 62
f 62 64 63

