# https://github.com/mikedh/trimesh
v 0.14385701 0.03814732 0.61785793
v 0.12723326 0.03809959 0.62469329
v 0.13083869 0.03809959 0.62414317
v 0.13303503 0.03809959 0.62378258
v 0.14372010 0.03809440 0.62191125
v 0.14385987 0.03663318 0.62011481
v 0.11471981 0.03814747 0.62169583
v 0.12612368 0.03805201 0.62490779
v 0.12705927 0.03751246 0.62542740
v 0.12844838 0.03805201 0.62457587
v 0.12287481 0.03809974 0.62524803
v 0.12982609 0.03802814 0.62439465
v 0.13181136 0.03773451 0.62443441
v 0.14197158 0.03751335 0.62300225
v 0.14200581 0.03805230 0.62233656
v 0.14370584 0.03749171 0.62265646
v 0.14281019 0.03804845 0.62218585
v 0.14367161 0.03682603 0.62341368
v 0.13236472 0.03663318 0.62557903
v 0.11471981 0.03663318 0.62404239
v 0.11488811 0.03676600 0.62730243
v 0.11494801 0.03736498 0.62663951
v 0.11529315 0.03799020 0.62588044
v 0.11770057 0.03806935 0.62571217
v 0.12569012 0.03751246 0.62561416
v 0.12368203 0.03805201 0.62521660
v 0.12487148 0.03800428 0.62513246
v 0.12677688 0.03683833 0.62620958
v 0.12788932 0.03683833 0.62605333
v 0.12828580 0.03751246 0.62525081
v 0.12943531 0.03751246 0.62507699
v 0.11996822 0.03807617 0.62555406
v 0.12096656 0.03805171 0.62550044
v 0.12197630 0.03805171 0.62540244
v 0.12237564 0.03751232 0.62600618
v 0.12338539 0.03751261 0.62589615
v 0.13087292 0.03751246 0.62485139
v 0.13318051 0.03751246 0.62447509
v 0.13231338 0.03704348 0.62515003
v 0.14235666 0.03683685 0.62369013
v 0.14283871 0.03750565 0.62284415
v 0.12455487 0.03673576 0.62660623
v 0.12291189 0.03673591 0.62679576
v 0.13390216 0.03683833 0.62510750
v 0.13312061 0.03683833 0.62523694
v 0.13150330 0.03683833 0.62549951
v 0.13001720 0.03673576 0.62584253
v 0.11776332 0.03683092 0.62712398
v 0.11678495 0.03681891 0.62718501
v 0.11581799 0.03687613 0.62716189
v 0.11574668 0.03742041 0.62656092
v 0.11658813 0.03802607 0.62581017
v 0.11661095 0.03746133 0.62648696
v 0.11776332 0.03749749 0.62639358
v 0.11884438 0.03805201 0.62566871
v 0.12439513 0.03751246 0.62577781
v 0.12561881 0.03683833 0.62636399
v 0.12904168 0.03683833 0.62588321
v 0.12007090 0.03751335 0.62621976
v 0.12122327 0.03751187 0.62612083
v 0.12169962 0.03694061 0.62670515
v 0.12011369 0.03694164 0.62684661
v 0.11881015 0.03683788 0.62705187
v 0.11891854 0.03751261 0.62630759
f 1 2 3
f 1 3 4
f 1 4 5
f 1 5 6
f 1 6 7
f 1 7 2
f 2 8 9
f 2 9 10
f 2 10 3
f 2 7 11
f 2 11 8
f 3 10 12
f 3 12 13
f 3 13 4
f 4 14 15
f 4 15 5
f 4 13 14
f 5 16 6
f 5 15 17
f 5 17 16
f 6 16 18
f 6 18 19
f 6 19 20
f 6 20 7
f 7 20 21
f 7 21 22
f 7 22 23
f 7 23 24
f 7 24 11
f 8 25 9
f 8 11 26
f 8 26 27
f 8 27 25
f 9 28 29
f 9 29 30
f 9 30 10
f 9 25 28
f 10 30 31
f 10 31 12
f 11 24 32
f 11 32 33
f 11 33 34
f 11 34 35
f 11 35 36
f 11 36 26
f 12 31 37
f 12 37 13
f 13 37 38
f 13 38 14
f 14 38 39
f 14 39 40
f 14 40 41
f 14 41 15
f 15 41 17
f 16 17 41
f 16 41 18
f 18 41 40
f 18 40 19
f 19 42 43
f 19 43 21
f 19 21 20
f 19 40 44
f 19 44 45
f 19 45 39
f 19 39 46
f 19 46 47
f 19 47 42
f 21 48 49
f 21 49 50
f 21 50 22
f 21 43 48
f 22 50 51
f 22 51 23
f 23 51 52
f 23 52 24
f 24 53 54
f 24 54 55
f 24 55 32
f 24 52 53
f 25 27 56
f 25 56 57
f 25 57 28
f 26 36 56
f 26 56 27
f 28 47 29
f 28 57 42
f 28 42 47
f 29 47 58
f 29 58 30
f 30 58 31
f 31 58 39
f 31 39 37
f 32 59 33
f 32 55 59
f 33 59 60
f 33 60 34
f 34 60 35
f 35 60 61
f 35 61 36
f 36 61 43
f 36 43 42
f 36 42 56
f 37 39 38
f 39 45 44
f 39 44 40
f 39 58 46
f 42 57 56
f 43 61 62
f 43 62 63
f 43 63 48
f 46 58 47
f 48 63 64
f 48 64 54
f 48 54 49
f 49 54 53
f 49 53 50
f 50 53 51
f 51 53 52
f 54 64 55
f 55 64 59
f 59 64 62
f 59 62 60
f 60 62 61
f 62 64 63

