# https://github.com/mikedh/trimesh
v 0.16383967 -0.04443830 0.58387499
v 0.16383967 -0.04285863 0.58555788
v 0.16938563 -0.03928871 0.58387499
v 0.16489359 -0.04655867 0.58387499
v 0.16448798 -0.04688154 0.58389621
v 0.16395749 -0.04716683 0.58407367
v 0.16393415 -0.04680058 0.58459113
v 0.16389180 -0.04549367 0.58605300
v 0.16388854 -0.04235456 0.58607309
v 0.16938563 -0.03767241 0.58571773
v 0.16938563 -0.04162304 0.58495259
v 0.16933459 -0.04241817 0.58388944
v 0.16527095 -0.04610183 0.58408947
v 0.16489359 -0.04641892 0.58410573
v 0.16768992 -0.04397857 0.58392850
v 0.16621628 -0.04534813 0.58394882
v 0.16431695 -0.04675239 0.58428792
v 0.16431695 -0.04639000 0.58475211
v 0.16393415 -0.04640735 0.58505374
v 0.16393415 -0.04598424 0.58551566
v 0.16431695 -0.04555824 0.58568025
v 0.16445106 -0.04498382 0.58617153
v 0.16938563 -0.03732063 0.58613224
v 0.16930093 -0.04212325 0.58439584
v 0.16938563 -0.04119896 0.58545854
v 0.16777516 -0.04315259 0.58495304
v 0.16734241 -0.04359883 0.58490834
v 0.16777516 -0.04352944 0.58446944
v 0.16561412 -0.04567293 0.58427776
v 0.16460526 -0.04642759 0.58442361
v 0.16489359 -0.04608159 0.58457036
v 0.16705409 -0.04437566 0.58424571
v 0.16674948 -0.04479395 0.58404522
v 0.16590244 -0.04529030 0.58445138
v 0.16460526 -0.04605460 0.58488915
v 0.16431695 -0.04598713 0.58521652
v 0.16460526 -0.04564499 0.58535469
v 0.16460526 -0.04521031 0.58581978
v 0.16487567 -0.04475443 0.58607603
v 0.16533394 -0.04428795 0.58617514
v 0.16683093 -0.04294827 0.58618146
v 0.16788702 -0.04196519 0.58618146
v 0.16938563 -0.04065634 0.58607174
v 0.16748684 -0.04318343 0.58524293
v 0.16734241 -0.04396893 0.58443129
v 0.16676631 -0.04406242 0.58500271
v 0.16647853 -0.04448360 0.58481487
v 0.16518191 -0.04571534 0.58472682
v 0.16489359 -0.04569799 0.58503658
v 0.16619076 -0.04489322 0.58463087
v 0.16489359 -0.04528067 0.58550392
v 0.16518191 -0.04489804 0.58566309
v 0.16546969 -0.04449806 0.58583107
v 0.16573466 -0.04402194 0.58609409
v 0.16630044 -0.04350534 0.58610605
v 0.16723545 -0.04265431 0.58609364
v 0.16619076 -0.04409519 0.58557233
v 0.16705409 -0.04321138 0.58566941
v 0.16777516 -0.04231119 0.58591708
v 0.16748684 -0.04275840 0.58572247
v 0.16676631 -0.04365281 0.58547638
v 0.16590244 -0.04451926 0.58538946
v 0.16561412 -0.04492984 0.58521268
v 0.16532580 -0.04532693 0.58504313
f 1 2 3
f 1 3 4
f 1 4 5
f 1 5 6
f 1 6 7
f 1 7 8
f 1 8 2
f 2 9 3
f 2 8 9
f 3 10 23
f 3 23 43
f 3 43 25
f 3 25 11
f 3 11 12
f 3 12 4
f 3 9 10
f 4 13 14
f 4 14 5
f 4 12 15
f 4 15 16
f 4 16 13
f 5 14 17
f 5 17 6
f 6 17 7
f 7 17 18
f 7 18 19
f 7 19 8
f 8 19 20
f 8 20 21
f 8 21 22
f 8 22 9
f 9 23 10
f 9 22 23
f 11 24 12
f 11 25 26
f 11 26 27
f 11 27 28
f 11 28 24
f 12 24 15
f 13 16 29
f 13 29 14
f 14 30 17
f 14 29 31
f 14 31 30
f 15 24 32
f 15 32 33
f 15 33 16
f 16 33 34
f 16 34 29
f 17 30 18
f 18 35 36
f 18 36 19
f 18 30 35
f 19 36 20
f 20 36 21
f 21 36 37
f 21 37 38
f 21 38 22
f 22 38 39
f 22 39 40
f 22 40 41
f 22 41 23
f 23 41 42
f 23 42 43
f 24 28 32
f 25 43 44
f 25 44 26
f 26 44 27
f 27 45 28
f 27 44 46
f 27 46 47
f 27 47 45
f 28 45 32
f 29 34 48
f 29 48 31
f 30 31 35
f 31 48 49
f 31 49 35
f 32 45 50
f 32 50 34
f 32 34 33
f 34 50 48
f 35 49 37
f 35 37 36
f 37 51 38
f 37 49 51
f 38 51 39
f 39 51 52
f 39 52 40
f 40 53 54
f 40 54 55
f 40 55 41
f 40 52 53
f 41 56 42
f 41 55 57
f 41 57 58
f 41 58 56
f 42 59 43
f 42 56 58
f 42 58 59
f 43 59 60
f 43 60 44
f 44 61 46
f 44 60 61
f 45 47 50
f 46 61 62
f 46 62 47
f 47 62 63
f 47 63 50
f 48 50 64
f 48 64 49
f 49 64 52
f 49 52 51
f 50 63 64
f 52 64 63
f 52 63 53
f 53 63 62
f 53 62 54
f 54 62 57
f 54 57 55
f 57 61 58
f 57 62 61
f 58 61 60
f 58 60 59

