# https://github.com/mikedh/trimesh
v 0.14918313 -0.00252852 0.55621019
v 0.14947262 -0.00209365 0.55636794
v 0.14978141 -0.00252852 0.55622149
v 0.14862730 -0.00252852 0.55621062
v 0.14889557 -0.00209835 0.55636098
v 0.14947262 0.00000000 0.55752692
v 0.15004967 0.00000000 0.55753691
v 0.15004967 -0.00208820 0.55638488
v 0.15033724 -0.00252852 0.55624104
v 0.14821430 -0.00252852 0.55621844
v 0.14846326 -0.00210157 0.55636359
v 0.14889557 0.00000000 0.55752388
v 0.14831851 0.00000000 0.55752866
v 0.15048005 0.00000000 0.55754734
v 0.15091429 0.00000000 0.55756038
v 0.15134659 0.00000000 0.55757429
v 0.15048005 -0.00208400 0.55640227
v 0.15091429 -0.00207905 0.55642313
v 0.15091429 -0.00252852 0.55626668
v 0.14780129 -0.00252852 0.55623105
v 0.14803095 -0.00210355 0.55637315
v 0.14615698 0.00000000 0.55756386
v 0.15177890 0.00000000 0.55759036
v 0.16229709 0.00000000 0.55800842
v 0.15134659 -0.00207434 0.55644572
v 0.15134659 -0.00252852 0.55628841
v 0.14623997 -0.00252852 0.55628537
v 0.14630172 -0.00208424 0.55643660
v 0.14759865 -0.00210404 0.55638662
v 0.14572467 0.00000000 0.55757776
v 0.16272939 0.00000000 0.55804058
v 0.16229709 -0.00166522 0.55728921
v 0.15264351 -0.00205776 0.55652525
v 0.15220928 -0.00206345 0.55649657
v 0.15177890 -0.00206890 0.55647049
v 0.15177890 -0.00252852 0.55631231
v 0.14576713 -0.00252852 0.55631057
v 0.14572467 -0.00206345 0.55647093
v 0.14514762 0.00000000 0.55762209
v 0.16316170 0.00000000 0.55809359
v 0.16272939 -0.00161671 0.55735049
v 0.16272939 -0.00252852 0.55711234
v 0.16215234 -0.00252852 0.55704977
v 0.15307582 -0.00252852 0.55639444
v 0.15264351 -0.00252852 0.55636533
v 0.15220928 -0.00252852 0.55633752
v 0.14519394 -0.00252852 0.55636663
v 0.14514762 -0.00203722 0.55653741
v 0.14467864 0.00000000 0.55769205
v 0.16330452 -0.00154641 0.55747217
v 0.16359401 0.00000000 0.55817312
v 0.16330452 -0.00252852 0.55722316
v 0.14474619 -0.00252852 0.55644181
v 0.14467864 -0.00201197 0.55662693
v 0.14464004 -0.00149518 0.55690810
v 0.14464004 0.00000000 0.55991398
v 0.16418071 0.00000000 0.55831131
v 0.16388157 -0.00147043 0.55763991
v 0.16388157 -0.00252852 0.55738134
v 0.14464004 -0.00252852 0.55859725
v 0.16435633 -0.00252852 0.55984923
v 0.16435633 0.00000000 0.56064927
v 0.16433510 -0.00140756 0.55779678
v 0.16432932 -0.00252406 0.55753257
f 1 2 3
f 1 3 9
f 1 9 19
f 1 19 26
f 1 26 36
f 1 36 46
f 1 46 45
f 1 45 44
f 1 44 43
f 1 43 42
f 1 42 52
f 1 52 59
f 1 59 61
f 1 61 60
f 1 60 53
f 1 53 47
f 1 47 37
f 1 37 27
f 1 27 20
f 1 20 10
f 1 10 4
f 1 4 5
f 1 5 2
f 2 5 6
f 2 6 7
f 2 7 8
f 2 8 3
f 3 8 9
f 4 10 11
f 4 11 5
f 5 12 6
f 5 11 13
f 5 13 12
f 6 12 13
f 6 13 22
f 6 22 30
f 6 30 39
f 6 39 49
f 6 49 56
f 6 56 62
f 6 62 57
f 6 57 51
f 6 51 40
f 6 40 31
f 6 31 24
f 6 24 23
f 6 23 16
f 6 16 15
f 6 15 14
f 6 14 7
f 7 14 8
f 8 14 15
f 8 15 16
f 8 16 17
f 8 17 9
f 9 17 18
f 9 18 19
f 10 20 21
f 10 21 11
f 11 21 22
f 11 22 13
f 16 23 17
f 17 23 24
f 17 24 18
f 18 24 25
f 18 25 19
f 19 25 26
f 20 27 28
f 20 28 29
f 20 29 21
f 21 29 28
f 21 28 22
f 22 28 30
f 24 31 32
f 24 32 33
f 24 33 34
f 24 34 35
f 24 35 25
f 25 35 26
f 26 35 36
f 27 37 38
f 27 38 28
f 28 38 30
f 30 38 39
f 31 40 41
f 31 41 32
f 32 41 42
f 32 42 43
f 32 43 44
f 32 44 45
f 32 45 33
f 33 45 46
f 33 46 34
f 34 46 36
f 34 36 35
f 37 47 38
f 38 47 48
f 38 48 39
f 39 48 49
f 40 50 41
f 40 51 50
f 41 50 42
f 42 50 52
f 47 53 48
f 48 53 54
f 48 54 49
f 49 54 55
f 49 55 56
f 50 51 57
f 50 57 58
f 50 58 52
f 52 58 59
f 53 60 54
f 54 60 55
f 55 60 56
f 56 60 61
f 56 61 62
f 57 62 63
f 57 63 58
f 58 63 59
f 59 63 64
f 59 64 61
f 61 64 63
f 61 63 62

