# https://github.com/mikedh/trimesh
v 0.11082619 -0.03175000 0.58475053
v 0.11082619 -0.02825000 0.58475053
v 0.11326422 -0.03175000 0.58571771
v 0.11082619 -0.03175000 0.58849998
v 0.11326422 -0.02825000 0.58571771
v 0.11082619 -0.02825000 0.58849998
v 0.11326422 -0.03175000 0.58850919
v 0.11088872 -0.03175000 0.58851139
v 0.11326422 -0.02825000 0.58851139
v 0.11088872 -0.02825000 0.58851139
v 0.11326422 -0.03140363 0.58851139
v 0.11094265 -0.03175000 0.58851139
f 1 2 5
f 1 5 3
f 1 3 7
f 1 7 12
f 1 12 8
f 1 8 4
f 1 4 6
f 1 6 2
f 2 6 10
f 2 10 9
f 2 9 5
f 3 5 9
f 3 9 11
f 3 11 7
f 4 8 10
f 4 10 6
f 7 11 12
f 8 12 11
f 8 11 9
f 8 9 10

