# https://github.com/mikedh/trimesh
v 0.14171527 -0.02825000 0.61036608
v 0.14171527 -0.02825000 0.60995004
v 0.14171423 -0.02825000 0.61078269
v 0.14171527 -0.03175000 0.61036608
v 0.14171527 -0.03175000 0.60995004
v 0.13344803 -0.02825000 0.60995004
v 0.14171423 -0.03175000 0.61078269
v 0.13104867 -0.02825000 0.61078269
v 0.13344803 -0.03175000 0.60995004
v 0.13104867 -0.03175000 0.61078269
f 1 2 6
f 1 6 8
f 1 8 3
f 1 3 7
f 1 7 4
f 1 4 5
f 1 5 2
f 2 5 9
f 2 9 6
f 3 8 10
f 3 10 7
f 4 7 10
f 4 10 9
f 4 9 5
f 6 9 10
f 6 10 8

