# https://github.com/mikedh/trimesh
v 0.16946703 -0.02950000 0.56206900
v 0.16829237 -0.02950000 0.56250969
v 0.16946703 -0.02825166 0.56206874
v 0.16946703 -0.02950000 0.56463918
v 0.16829237 -0.02823820 0.56250969
v 0.16829237 -0.02950000 0.56476963
v 0.16946703 -0.02823820 0.56206874
v 0.16946703 -0.02823820 0.56463918
v 0.16934790 -0.02823820 0.56467126
v 0.16927879 -0.02950000 0.56468956
v 0.16829237 -0.02823820 0.56476963
v 0.16850005 -0.02950000 0.56477759
v 0.16830962 -0.02823820 0.56477043
v 0.16927695 -0.02823820 0.56469009
v 0.16902155 -0.02950000 0.56473834
v 0.16849786 -0.02823820 0.56477759
v 0.16876166 -0.02950000 0.56476751
v 0.16875948 -0.02823820 0.56476778
v 0.16857135 -0.02823820 0.56477494
v 0.16909181 -0.02823820 0.56472509
v 0.16901959 -0.02823820 0.56473861
v 0.16883261 -0.02823820 0.56475982
f 1 2 3
f 1 3 7
f 1 7 8
f 1 8 4
f 1 4 10
f 1 10 15
f 1 15 17
f 1 17 12
f 1 12 6
f 1 6 2
f 2 5 7
f 2 7 3
f 2 6 11
f 2 11 5
f 4 8 9
f 4 9 10
f 5 11 13
f 5 13 16
f 5 16 19
f 5 19 18
f 5 18 22
f 5 22 21
f 5 21 20
f 5 20 14
f 5 14 9
f 5 9 8
f 5 8 7
f 6 12 13
f 6 13 11
f 9 14 10
f 10 14 15
f 12 16 13
f 12 17 18
f 12 18 19
f 12 19 16
f 14 20 15
f 15 20 21
f 15 21 22
f 15 22 17
f 17 22 18

