# https://github.com/mikedh/trimesh
v 0.14816574 0.02525000 0.60955226
v 0.14858954 0.02525000 0.60955226
v 0.14707518 0.02525000 0.61167245
v 0.14707518 0.02924922 0.61167245
v 0.14816603 0.02924922 0.60955226
v 0.14858954 0.02924922 0.60955226
v 0.14858954 0.02525000 0.61628730
v 0.14707518 0.02525000 0.61521863
v 0.14707518 0.02924922 0.61522193
v 0.14858954 0.02924922 0.61628730
v 0.14853825 0.02525000 0.61626950
v 0.14725024 0.02525000 0.61541377
v 0.14707518 0.02525588 0.61522193
v 0.14725024 0.02924922 0.61541377
v 0.14853825 0.02924922 0.61626950
v 0.14845835 0.02791615 0.61623587
v 0.14841848 0.02525000 0.61621873
v 0.14743642 0.02525000 0.61559441
v 0.14737431 0.02791615 0.61553442
v 0.14743642 0.02924922 0.61559441
v 0.14841848 0.02924922 0.61621873
v 0.14829900 0.02924922 0.61616797
v 0.14829900 0.02525000 0.61616797
v 0.14750283 0.02658386 0.61565045
v 0.14763535 0.02525000 0.61576186
v 0.14763535 0.02924922 0.61576186
v 0.14806790 0.02924922 0.61604930
v 0.14806790 0.02525000 0.61604930
v 0.14784629 0.02525000 0.61591349
v 0.14784629 0.02924922 0.61591349
v 0.14802625 0.02924922 0.61602425
v 0.14802625 0.02525000 0.61602425
f 1 2 7
f 1 7 11
f 1 11 17
f 1 17 23
f 1 23 28
f 1 28 32
f 1 32 29
f 1 29 25
f 1 25 18
f 1 18 12
f 1 12 8
f 1 8 3
f 1 3 4
f 1 4 5
f 1 5 6
f 1 6 2
f 2 6 10
f 2 10 7
f 3 8 13
f 3 13 9
f 3 9 4
f 4 9 14
f 4 14 20
f 4 20 26
f 4 26 30
f 4 30 31
f 4 31 27
f 4 27 22
f 4 22 21
f 4 21 15
f 4 15 10
f 4 10 6
f 4 6 5
f 7 10 15
f 7 15 11
f 8 12 13
f 9 13 12
f 9 12 14
f 11 16 17
f 11 15 16
f 12 18 19
f 12 19 14
f 14 19 20
f 15 21 16
f 16 21 22
f 16 22 23
f 16 23 17
f 18 24 20
f 18 20 19
f 18 25 24
f 20 24 26
f 22 27 28
f 22 28 23
f 24 25 26
f 25 29 30
f 25 30 26
f 27 31 32
f 27 32 28
f 29 32 31
f 29 31 30

