# https://github.com/mikedh/trimesh
v 0.14359213 -0.04035104 0.56387058
v 0.14108096 -0.04035104 0.56387058
v 0.14118796 -0.03639021 0.56387058
v 0.13995810 -0.04035104 0.57261264
v 0.14063060 -0.03967837 0.56387058
v 0.13667420 -0.04035104 0.57218941
v 0.13667420 -0.03941123 0.57071001
v 0.13892871 -0.03639021 0.56387058
v 0.14008542 -0.03639021 0.56612234
v 0.13871267 -0.04035104 0.57488575
v 0.13896867 -0.03646775 0.56387058
v 0.13667420 -0.03741919 0.56839294
v 0.13667420 -0.03735173 0.56832764
v 0.13667420 -0.03639021 0.56741839
v 0.13667420 -0.04035104 0.57670047
v 0.13891923 -0.03639021 0.56815809
v 0.13852779 -0.04035104 0.57513441
v 0.13772662 -0.03639021 0.56991002
v 0.13667420 -0.03639021 0.57084438
v 0.13743406 -0.04035104 0.57639781
v 0.13794266 -0.04035104 0.57591807
v 0.13733654 -0.03639021 0.57025664
f 1 2 5
f 1 5 11
f 1 11 8
f 1 8 3
f 1 3 4
f 1 4 10
f 1 10 17
f 1 17 21
f 1 21 20
f 1 20 15
f 1 15 6
f 1 6 2
f 2 6 7
f 2 7 5
f 3 8 14
f 3 14 19
f 3 19 22
f 3 22 18
f 3 18 16
f 3 16 9
f 3 9 4
f 4 9 10
f 5 7 12
f 5 12 13
f 5 13 14
f 5 14 11
f 6 15 19
f 6 19 14
f 6 14 13
f 6 13 12
f 6 12 7
f 8 11 14
f 9 16 10
f 10 16 18
f 10 18 17
f 15 20 19
f 17 18 21
f 18 22 20
f 18 20 21
f 19 20 22

