# https://github.com/mikedh/trimesh
v 0.14420835 -0.04051793 0.61144257
v 0.13665246 -0.04091665 0.61144257
v 0.14420835 -0.04280310 0.61144257
v 0.14420835 -0.04207894 0.60073449
v 0.13665246 -0.04195129 0.60212491
v 0.13665246 -0.04314352 0.61144257
v 0.14269584 -0.04293667 0.61144257
v 0.14269584 -0.04300798 0.61118215
v 0.14420835 -0.04295913 0.61087240
v 0.14420835 -0.04219399 0.60010811
v 0.13689209 -0.04233110 0.59972380
v 0.13665246 -0.04233346 0.59972380
v 0.13665246 -0.04197768 0.60195742
v 0.13665246 -0.04358440 0.60875695
v 0.14071885 -0.04302413 0.61144257
v 0.14114043 -0.04301153 0.61144257
v 0.14067817 -0.04358440 0.60802502
v 0.14269584 -0.04357927 0.60768889
v 0.14420835 -0.04353003 0.60738832
v 0.14420835 -0.04338661 0.60826479
v 0.14420835 -0.04226766 0.59972380
v 0.13665246 -0.04453353 0.59972380
v 0.13737358 -0.04453826 0.59972380
v 0.13982762 -0.04454259 0.59972380
v 0.14164559 -0.04453747 0.59972380
v 0.14269584 -0.04452683 0.59972380
v 0.14328753 -0.04450989 0.59972380
v 0.14346504 -0.04450477 0.59972380
v 0.14420835 -0.04447404 0.59972380
f 1 2 6
f 1 6 15
f 1 15 16
f 1 16 7
f 1 7 3
f 1 3 9
f 1 9 20
f 1 20 19
f 1 19 29
f 1 29 21
f 1 21 10
f 1 10 4
f 1 4 5
f 1 5 2
f 2 5 13
f 2 13 12
f 2 12 22
f 2 22 14
f 2 14 6
f 3 7 8
f 3 8 9
f 4 10 11
f 4 11 12
f 4 12 13
f 4 13 5
f 6 14 15
f 7 16 8
f 8 14 17
f 8 17 18
f 8 18 19
f 8 19 20
f 8 20 9
f 8 16 15
f 8 15 14
f 10 21 11
f 11 21 29
f 11 29 28
f 11 28 27
f 11 27 26
f 11 26 25
f 11 25 24
f 11 24 23
f 11 23 22
f 11 22 12
f 14 22 23
f 14 23 24
f 14 24 25
f 14 25 26
f 14 26 17
f 17 26 18
f 18 26 27
f 18 27 28
f 18 28 29
f 18 29 19

