# https://github.com/mikedh/trimesh
v 0.09550015 0.00077459 0.58745428
v 0.09550015 0.00209957 0.58550808
v 0.09686161 0.00173292 0.58431544
v 0.09571253 0.00077459 0.58745428
v 0.09550015 0.00077459 0.59946967
v 0.09550015 0.00236732 0.58550808
v 0.09686161 0.00273245 0.58431544
v 0.09731424 0.00173292 0.58431544
v 0.09731424 0.00092160 0.58738753
v 0.09571253 0.00077459 0.59946967
v 0.09571271 0.00087426 0.59946671
v 0.09571271 0.00104656 0.59945929
v 0.09550015 0.00104656 0.59945781
v 0.09571271 0.00248884 0.58550512
v 0.09550015 0.00236732 0.59928722
v 0.09686161 0.00273245 0.59922047
v 0.09731424 0.00273245 0.58431544
v 0.09731424 0.00092160 0.59946522
v 0.09654730 0.00087426 0.59946671
v 0.09686161 0.00092160 0.59946522
v 0.09654730 0.00104656 0.59945929
v 0.09731424 0.00118916 0.59944446
v 0.09686161 0.00149199 0.59941034
v 0.09571271 0.00190944 0.59936287
v 0.09686161 0.00098945 0.59946226
v 0.09550015 0.00208634 0.59934062
v 0.09571271 0.00248884 0.59926497
v 0.09571271 0.00217355 0.59932579
v 0.09686161 0.00255477 0.59925458
v 0.09731424 0.00273245 0.59922047
v 0.09731424 0.00104637 0.59945929
v 0.09731424 0.00180115 0.59937474
v 0.09716650 0.00174001 0.59938216
v 0.09686161 0.00202980 0.59934952
v 0.09571271 0.00208634 0.59934210
v 0.09731424 0.00208634 0.59934210
f 1 2 3
f 1 3 8
f 1 8 4
f 1 4 10
f 1 10 5
f 1 5 13
f 1 13 26
f 1 26 15
f 1 15 6
f 1 6 2
f 2 6 7
f 2 7 3
f 3 7 17
f 3 17 8
f 4 8 9
f 4 9 18
f 4 18 10
f 5 10 19
f 5 19 11
f 5 11 12
f 5 12 13
f 6 14 7
f 6 15 27
f 6 27 14
f 7 14 27
f 7 27 16
f 7 16 30
f 7 30 17
f 8 17 30
f 8 30 36
f 8 36 32
f 8 32 22
f 8 22 31
f 8 31 18
f 8 18 9
f 10 18 19
f 11 19 18
f 11 18 20
f 11 20 12
f 12 21 22
f 12 22 23
f 12 23 24
f 12 24 13
f 12 20 25
f 12 25 21
f 13 24 26
f 15 26 28
f 15 28 27
f 16 27 28
f 16 28 29
f 16 29 30
f 18 31 25
f 18 25 20
f 21 25 31
f 21 31 22
f 22 32 33
f 22 33 34
f 22 34 23
f 23 34 24
f 24 34 35
f 24 35 26
f 26 35 28
f 28 35 29
f 29 35 36
f 29 36 30
f 32 36 33
f 33 36 34
f 34 36 35

