# https://github.com/mikedh/trimesh
v 0.16071277 -0.02823813 0.58779655
v 0.16071250 -0.02757018 0.58779535
v 0.16222099 -0.02823813 0.58779655
v 0.16076433 -0.02823813 0.59391306
v 0.16071250 -0.02494640 0.58779535
v 0.16222071 -0.02494640 0.58779535
v 0.16231673 -0.02757018 0.58788039
v 0.16249568 -0.02823813 0.58804986
v 0.16106602 -0.02823813 0.59383221
v 0.16081070 -0.02757018 0.59390228
v 0.16086526 -0.02494640 0.59388731
v 0.16243048 -0.02494640 0.58798398
v 0.16259442 -0.02757018 0.58815166
v 0.16283038 -0.02823813 0.58844629
v 0.16142855 -0.02823813 0.59369089
v 0.16121578 -0.02757018 0.59377772
v 0.16136581 -0.02494640 0.59371844
v 0.16270927 -0.02494640 0.58829119
v 0.16282438 -0.02757018 0.58843790
v 0.16294031 -0.02494640 0.58860618
v 0.16304124 -0.02757018 0.58876966
v 0.16310317 -0.02823813 0.58888763
v 0.16167760 -0.02757018 0.59356753
v 0.16177553 -0.02823813 0.59351483
v 0.16181918 -0.02494640 0.59348609
v 0.16308080 -0.02494640 0.58884451
v 0.16316127 -0.02757018 0.58900021
v 0.16326029 -0.02823813 0.58923076
v 0.16209796 -0.02823813 0.59329686
v 0.16201640 -0.02757018 0.59335854
v 0.16222753 -0.02494640 0.59319386
v 0.16324065 -0.02494640 0.58919004
v 0.16326383 -0.02757018 0.58923914
v 0.16337267 -0.02757018 0.58957868
v 0.16337895 -0.02823813 0.58960144
v 0.16239720 -0.02823813 0.59304774
v 0.16231128 -0.02757018 0.59312259
v 0.16262007 -0.02494640 0.59281479
v 0.16336504 -0.02494640 0.58954455
v 0.16342859 -0.02494640 0.58980744
v 0.16345833 -0.02757018 0.58997092
v 0.16347688 -0.02823813 0.59012303
v 0.16266371 -0.02823813 0.59276449
v 0.16267708 -0.02757018 0.59274832
v 0.16288712 -0.02757018 0.59247705
v 0.16292149 -0.02494640 0.59241956
v 0.16348233 -0.02494640 0.59019249
v 0.16349161 -0.02757018 0.59026435
v 0.16349925 -0.02823813 0.59049969
v 0.16290076 -0.02823813 0.59245609
v 0.16297605 -0.02757018 0.59233692
v 0.16303797 -0.02823813 0.59223572
v 0.16311980 -0.02494640 0.59208182
v 0.16348942 -0.02494640 0.59071348
v 0.16349024 -0.02757018 0.59073863
v 0.16347497 -0.02823813 0.59088714
v 0.16315827 -0.02823813 0.59200517
v 0.16326138 -0.02823813 0.59176683
v 0.16327393 -0.02494640 0.59172551
v 0.16344387 -0.02494640 0.59111051
v 0.16343978 -0.02757018 0.59112548
v 0.16337949 -0.02823813 0.59139615
v 0.16331484 -0.02757018 0.59161113
v 0.16338904 -0.02494640 0.59136441
f 1 2 3
f 1 3 8
f 1 8 14
f 1 14 22
f 1 22 28
f 1 28 35
f 1 35 42
f 1 42 49
f 1 49 56
f 1 56 62
f 1 62 58
f 1 58 57
f 1 57 52
f 1 52 50
f 1 50 43
f 1 43 36
f 1 36 29
f 1 29 24
f 1 24 15
f 1 15 9
f 1 9 4
f 1 4 2
f 2 5 6
f 2 6 3
f 2 4 5
f 3 7 8
f 3 6 7
f 4 9 10
f 4 10 11
f 4 11 5
f 5 11 17
f 5 17 25
f 5 25 31
f 5 31 38
f 5 38 46
f 5 46 53
f 5 53 59
f 5 59 64
f 5 64 60
f 5 60 54
f 5 54 47
f 5 47 40
f 5 40 39
f 5 39 32
f 5 32 26
f 5 26 20
f 5 20 18
f 5 18 12
f 5 12 6
f 6 12 7
f 7 12 8
f 8 12 13
f 8 13 14
f 9 11 10
f 9 15 16
f 9 16 17
f 9 17 11
f 12 18 13
f 13 18 19
f 13 19 14
f 14 19 20
f 14 20 21
f 14 21 22
f 15 23 17
f 15 17 16
f 15 24 23
f 17 23 25
f 18 20 19
f 20 26 21
f 21 26 22
f 22 26 27
f 22 27 28
f 23 24 25
f 24 29 30
f 24 30 25
f 25 30 31
f 26 32 27
f 27 32 33
f 27 33 28
f 28 33 34
f 28 34 35
f 29 36 37
f 29 37 31
f 29 31 30
f 31 37 36
f 31 36 38
f 32 39 33
f 33 39 34
f 34 39 35
f 35 39 40
f 35 40 41
f 35 41 42
f 36 43 38
f 38 43 44
f 38 44 45
f 38 45 46
f 40 47 41
f 41 47 42
f 42 47 48
f 42 48 49
f 43 50 45
f 43 45 44
f 45 50 51
f 45 51 46
f 46 51 52
f 46 52 53
f 47 54 49
f 47 49 48
f 49 54 55
f 49 55 56
f 50 52 51
f 52 57 53
f 53 57 58
f 53 58 59
f 54 56 55
f 54 60 56
f 56 60 61
f 56 61 62
f 58 62 63
f 58 63 59
f 59 63 64
f 60 64 61
f 61 64 62
f 62 64 63

