# https://github.com/mikedh/trimesh
v 0.15076853 0.03529939 0.55192674
v 0.15076853 0.03583347 0.55202362
v 0.15113479 0.03529939 0.55193568
v 0.14993413 0.03529939 0.55193642
v 0.15076853 0.03714178 0.55262877
v 0.15278561 0.03689637 0.55265486
v 0.15278561 0.03556907 0.55206312
v 0.15255192 0.03529939 0.55199977
v 0.14875069 0.03604880 0.55211454
v 0.14875069 0.03529939 0.55196474
v 0.14875069 0.03734232 0.55272864
v 0.15076853 0.03831233 0.55346123
v 0.15278561 0.03808382 0.55348359
v 0.15480344 0.03781994 0.55354992
v 0.15480344 0.03661033 0.55272938
v 0.15278261 0.03529939 0.55201468
v 0.15453904 0.03529939 0.55214286
v 0.14863160 0.03529939 0.55198486
v 0.14863160 0.03605566 0.55213615
v 0.14875069 0.03850127 0.55356035
v 0.14863160 0.03719613 0.55267796
v 0.14863160 0.03734813 0.55275099
v 0.14863160 0.03748429 0.55284863
v 0.14863160 0.03850655 0.55358196
v 0.15002476 0.03949978 0.55442411
v 0.15076853 0.04054473 0.55541158
v 0.15278561 0.04032519 0.55542575
v 0.15393159 0.03906861 0.55446734
v 0.15628274 0.03965969 0.55534675
v 0.15628274 0.03872504 0.55455528
v 0.15628274 0.03760198 0.55361476
v 0.15628274 0.03727899 0.55339565
v 0.15480344 0.03529939 0.55217267
v 0.15628274 0.03637284 0.55280465
v 0.14863160 0.03529939 0.55420351
v 0.14863160 0.03879628 0.55382567
v 0.14876942 0.03960691 0.55451056
v 0.14930796 0.03956417 0.55445765
v 0.15076853 0.04069039 0.55554797
v 0.15109734 0.04069039 0.55558299
v 0.15278561 0.04069039 0.55576484
v 0.14916490 0.04069039 0.55549133
v 0.15365146 0.04069039 0.55588632
v 0.15480344 0.04007398 0.55547866
v 0.15628274 0.03986974 0.55552934
v 0.15628274 0.03529939 0.55237687
v 0.14863160 0.04069039 0.55857150
v 0.15628274 0.03529939 0.55467228
v 0.15628274 0.04069039 0.55953960
v 0.14863160 0.03961589 0.55453143
v 0.14876867 0.04069039 0.55547791
v 0.14873422 0.04069039 0.55548015
v 0.14875069 0.04069039 0.55547866
v 0.15480344 0.04069039 0.55604953
v 0.15628274 0.04069039 0.55629025
v 0.14863160 0.04069039 0.55549431
v 0.14863160 0.04044446 0.55527073
f 1 2 3
f 1 3 8
f 1 8 16
f 1 16 17
f 1 17 33
f 1 33 46
f 1 46 48
f 1 48 35
f 1 35 18
f 1 18 10
f 1 10 4
f 1 4 2
f 2 5 6
f 2 6 7
f 2 7 8
f 2 8 3
f 2 4 9
f 2 9 5
f 4 10 9
f 5 9 11
f 5 11 12
f 5 12 13
f 5 13 6
f 6 13 14
f 6 14 15
f 6 15 7
f 7 16 8
f 7 15 17
f 7 17 16
f 9 10 18
f 9 18 19
f 9 19 11
f 11 20 12
f 11 19 21
f 11 21 22
f 11 22 23
f 11 23 24
f 11 24 20
f 12 20 25
f 12 25 26
f 12 26 27
f 12 27 13
f 13 27 28
f 13 28 14
f 14 28 29
f 14 29 30
f 14 30 31
f 14 31 32
f 14 32 15
f 15 33 17
f 15 32 34
f 15 34 33
f 18 35 47
f 18 47 56
f 18 56 57
f 18 57 50
f 18 50 36
f 18 36 24
f 18 24 23
f 18 23 22
f 18 22 21
f 18 21 19
f 20 24 36
f 20 36 37
f 20 37 38
f 20 38 25
f 25 38 26
f 26 39 40
f 26 40 41
f 26 41 27
f 26 38 42
f 26 42 39
f 27 41 43
f 27 43 44
f 27 44 28
f 28 44 45
f 28 45 29
f 29 45 55
f 29 55 49
f 29 49 48
f 29 48 46
f 29 46 34
f 29 34 32
f 29 32 31
f 29 31 30
f 33 34 46
f 35 48 49
f 35 49 47
f 36 50 37
f 37 51 38
f 37 50 52
f 37 52 53
f 37 53 51
f 38 51 42
f 39 42 51
f 39 51 53
f 39 53 52
f 39 52 56
f 39 56 47
f 39 47 49
f 39 49 55
f 39 55 54
f 39 54 43
f 39 43 41
f 39 41 40
f 43 54 44
f 44 54 45
f 45 54 55
f 50 57 52
f 52 57 56

