# https://github.com/mikedh/trimesh
v 0.10451623 0.02525000 0.57850062
v 0.10451623 0.02525000 0.58485009
v 0.10451623 0.02924961 0.57850062
v 0.11174057 0.02525000 0.57850062
v 0.10451623 0.02924961 0.58485009
v 0.11558996 0.02525000 0.58485009
v 0.11174057 0.02924961 0.57850062
v 0.12421635 0.02724922 0.57850062
v 0.12421635 0.02525000 0.57850186
v 0.11558031 0.02924961 0.58485009
v 0.12421635 0.02525000 0.58055205
v 0.12421635 0.02741836 0.58055640
v 0.12421635 0.02871711 0.58055888
v 0.12421635 0.02924961 0.58055951
v 0.12421635 0.02924961 0.57850186
v 0.12421635 0.02924609 0.57850062
f 1 2 5
f 1 5 3
f 1 3 7
f 1 7 16
f 1 16 8
f 1 8 4
f 1 4 9
f 1 9 11
f 1 11 6
f 1 6 2
f 2 6 10
f 2 10 5
f 3 5 10
f 3 10 14
f 3 14 15
f 3 15 7
f 4 8 9
f 6 11 12
f 6 12 13
f 6 13 14
f 6 14 10
f 7 15 16
f 8 16 15
f 8 15 14
f 8 14 13
f 8 13 12
f 8 12 11
f 8 11 9

