# https://github.com/mikedh/trimesh
v 0.17332817 0.02549961 0.57099961
v 0.17332817 0.02549961 0.56745136
v 0.17203678 0.02549961 0.57099961
v 0.17332817 0.02150039 0.57099961
v 0.17278967 0.02549961 0.56704485
v 0.17332817 0.02150039 0.56745136
v 0.17203678 0.02549961 0.56704485
v 0.17203678 0.02150039 0.57099961
v 0.17278967 0.02150039 0.56704485
v 0.17203678 0.02150039 0.56704485
f 1 2 5
f 1 5 7
f 1 7 3
f 1 3 8
f 1 8 4
f 1 4 6
f 1 6 2
f 2 6 9
f 2 9 5
f 3 7 10
f 3 10 8
f 4 8 10
f 4 10 9
f 4 9 6
f 5 9 10
f 5 10 7

