# https://github.com/mikedh/trimesh
v 0.15465125 -0.02823820 0.58385085
v 0.15465125 -0.02949992 0.58385126
v 0.15465125 -0.02823820 0.58796619
v 0.16109528 -0.02823820 0.58543027
v 0.16109528 -0.02949992 0.58543027
v 0.15465125 -0.02950663 0.58673593
v 0.15465125 -0.02823919 0.58799979
v 0.15467711 -0.02823820 0.58799979
v 0.16109528 -0.02823820 0.58803750
v 0.16109528 -0.02949992 0.58803750
v 0.15775056 -0.02950663 0.58778710
v 0.15465125 -0.02950663 0.58802110
v 0.15465125 -0.02825012 0.58802110
v 0.15751526 -0.02823820 0.58803750
v 0.15751526 -0.02949992 0.58803750
v 0.15755059 -0.02950663 0.58799979
v 0.15775056 -0.02950663 0.58781866
f 1 2 6
f 1 6 12
f 1 12 13
f 1 13 7
f 1 7 3
f 1 3 8
f 1 8 14
f 1 14 9
f 1 9 4
f 1 4 5
f 1 5 2
f 2 5 6
f 3 7 8
f 4 9 10
f 4 10 5
f 5 10 17
f 5 17 11
f 5 11 6
f 6 11 17
f 6 17 16
f 6 16 12
f 7 13 8
f 8 13 14
f 9 14 15
f 9 15 10
f 10 15 12
f 10 12 16
f 10 16 17
f 12 15 14
f 12 14 13

