# https://github.com/mikedh/trimesh
v 0.16211942 0.04278727 0.56632271
v 0.15628274 0.04451257 0.56632271
v 0.16211942 0.04521705 0.56632271
v 0.16211942 0.04474461 0.57302060
v 0.15628274 0.04689391 0.56632271
v 0.15628274 0.04650041 0.57302060
v 0.16186575 0.04534981 0.56632271
v 0.16186575 0.04724974 0.57274458
v 0.16211942 0.04712834 0.57278917
v 0.16211942 0.04718336 0.57302060
v 0.15628274 0.04823229 0.57078229
v 0.15637186 0.04687896 0.56632271
v 0.15628274 0.04889610 0.57302060
v 0.16169435 0.04541918 0.56632271
v 0.16085678 0.04766238 0.57276032
v 0.16085678 0.04772517 0.57302060
v 0.16186575 0.04731552 0.57302060
v 0.15628274 0.04886740 0.57290259
v 0.15682150 0.04876633 0.57286915
v 0.15682150 0.04680182 0.56632271
v 0.15682150 0.04880341 0.57302060
v 0.15628274 0.04886919 0.57290980
v 0.16085678 0.04574809 0.56632271
v 0.15883942 0.04833037 0.57279441
v 0.15883942 0.04838539 0.57302060
v 0.15871202 0.04841230 0.57302060
v 0.15883942 0.04639277 0.56632271
v 0.16051741 0.04585813 0.56632271
f 1 2 5
f 1 5 12
f 1 12 20
f 1 20 27
f 1 27 28
f 1 28 23
f 1 23 14
f 1 14 7
f 1 7 3
f 1 3 9
f 1 9 10
f 1 10 4
f 1 4 2
f 2 4 6
f 2 6 13
f 2 13 22
f 2 22 18
f 2 18 11
f 2 11 5
f 3 7 8
f 3 8 9
f 4 10 17
f 4 17 16
f 4 16 25
f 4 25 26
f 4 26 21
f 4 21 13
f 4 13 6
f 5 11 12
f 7 14 8
f 8 14 15
f 8 15 16
f 8 16 17
f 8 17 9
f 9 17 10
f 11 18 19
f 11 19 12
f 12 19 20
f 13 21 22
f 14 23 15
f 15 23 24
f 15 24 25
f 15 25 16
f 18 22 19
f 19 22 21
f 19 21 26
f 19 26 24
f 19 24 27
f 19 27 20
f 23 28 24
f 24 26 25
f 24 28 27

