# https://github.com/mikedh/trimesh
v 0.09686178 0.00570195 0.57272343
v 0.09654783 0.00571659 0.57273068
v 0.09654768 0.00607587 0.57288900
v 0.09686170 0.00599779 0.57285395
v 0.09731424 0.00570195 0.57272343
v 0.09686178 0.00570195 0.58443929
v 0.09654768 0.00586420 0.57279836
v 0.09654768 0.00601121 0.57286120
v 0.09654783 0.00571659 0.58443445
v 0.09654768 0.00645100 0.57308962
v 0.09686170 0.00691947 0.57333496
v 0.09686170 0.00607648 0.57288900
v 0.09731424 0.00599779 0.57285395
v 0.09731424 0.00570195 0.58443929
v 0.09686170 0.00701219 0.58507016
v 0.09654768 0.00586420 0.58440545
v 0.09654768 0.00645100 0.58449488
v 0.09686170 0.00700182 0.57337968
v 0.09654768 0.01130461 0.57725918
v 0.09686170 0.00872867 0.57455682
v 0.09686170 0.00859996 0.57446135
v 0.09686170 0.00788812 0.57393562
v 0.09731424 0.00700182 0.57337968
v 0.09716657 0.00669317 0.57321531
v 0.09731424 0.00607648 0.57288900
v 0.09731424 0.00701219 0.58507016
v 0.09686170 0.00945881 0.58507016
v 0.09654768 0.01190117 0.58417582
v 0.09686170 0.01094411 0.57677455
v 0.09686170 0.01026093 0.57598052
v 0.09686170 0.00952103 0.57523966
v 0.09654768 0.01156629 0.57761450
v 0.09686170 0.01130461 0.57725918
v 0.09731424 0.00872867 0.57455682
v 0.09731424 0.00819371 0.57416041
v 0.09731424 0.00788812 0.57393562
v 0.09731424 0.00945881 0.58507016
v 0.09686170 0.01193289 0.58420120
v 0.09654768 0.01190117 0.57814990
v 0.09731424 0.01069646 0.57648570
v 0.09731424 0.01094411 0.57677455
v 0.09731424 0.01026093 0.57598052
v 0.09731424 0.00952103 0.57523966
v 0.09654768 0.01175172 0.57791060
v 0.09686170 0.01193289 0.57819824
v 0.09731424 0.01156629 0.57761450
v 0.09731424 0.01193289 0.58420120
v 0.09731424 0.01193289 0.57819824
f 1 2 3
f 1 3 4
f 1 4 13
f 1 13 5
f 1 5 14
f 1 14 6
f 1 6 9
f 1 9 2
f 2 7 8
f 2 8 3
f 2 9 16
f 2 16 7
f 3 10 11
f 3 11 12
f 3 12 4
f 3 8 7
f 3 7 16
f 3 16 17
f 3 17 28
f 3 28 39
f 3 39 44
f 3 44 32
f 3 32 19
f 3 19 10
f 4 12 25
f 4 25 13
f 5 13 25
f 5 25 23
f 5 23 36
f 5 36 35
f 5 35 34
f 5 34 43
f 5 43 42
f 5 42 40
f 5 40 41
f 5 41 46
f 5 46 48
f 5 48 47
f 5 47 37
f 5 37 26
f 5 26 14
f 6 14 26
f 6 26 15
f 6 15 9
f 9 15 17
f 9 17 16
f 10 18 11
f 10 19 20
f 10 20 21
f 10 21 22
f 10 22 18
f 11 18 23
f 11 23 24
f 11 24 25
f 11 25 12
f 15 26 37
f 15 37 27
f 15 27 17
f 17 27 28
f 18 22 36
f 18 36 23
f 19 29 30
f 19 30 31
f 19 31 20
f 19 32 46
f 19 46 33
f 19 33 41
f 19 41 29
f 20 34 21
f 20 31 43
f 20 43 34
f 21 34 35
f 21 35 22
f 22 35 36
f 23 25 24
f 27 38 28
f 27 37 47
f 27 47 38
f 28 38 45
f 28 45 39
f 29 40 30
f 29 41 40
f 30 42 43
f 30 43 31
f 30 40 42
f 32 44 45
f 32 45 48
f 32 48 46
f 33 46 41
f 38 47 48
f 38 48 45
f 39 45 44

