# https://github.com/mikedh/trimesh
v 0.16374089 0.04489184 0.57816321
v 0.16374089 0.04562855 0.58189419
v 0.16374089 0.04744573 0.57816321
v 0.16929222 0.03910887 0.57816321
v 0.16374089 0.04807695 0.58189419
v 0.16929222 0.04013131 0.58189419
v 0.16374089 0.04745540 0.57820486
v 0.16388436 0.04737452 0.57826294
v 0.16387295 0.04735782 0.57816321
v 0.16929222 0.04203200 0.57816321
v 0.16379415 0.04803915 0.58189419
v 0.16388436 0.04799080 0.58153074
v 0.16374089 0.04808926 0.58160891
v 0.16929222 0.04300609 0.58189419
v 0.16374089 0.04774552 0.57946617
v 0.16388436 0.04766200 0.57951768
v 0.16489300 0.04674682 0.57888063
v 0.16454031 0.04684528 0.57816321
v 0.16388436 0.04734991 0.57816321
v 0.16929222 0.04207068 0.57828084
v 0.16691029 0.04465271 0.57816321
v 0.16388436 0.04797497 0.58189419
v 0.16465715 0.04736309 0.58189419
v 0.16590219 0.04634154 0.58121185
v 0.16489300 0.04715386 0.58109605
v 0.16388436 0.04788003 0.58059379
v 0.16374089 0.04808662 0.58148690
v 0.16929222 0.04298675 0.58158224
v 0.16791947 0.04444260 0.58155412
v 0.16923734 0.04306323 0.58189419
v 0.16374089 0.04796882 0.58054667
v 0.16489300 0.04700441 0.58006669
v 0.16489300 0.04656572 0.57816321
v 0.16691029 0.04531294 0.58034759
v 0.16929222 0.04218058 0.57862018
v 0.16691029 0.04499030 0.57919513
v 0.16566307 0.04586504 0.57816321
v 0.16489300 0.04716968 0.58189419
v 0.16691029 0.04546152 0.58137769
v 0.16590219 0.04631428 0.58189419
v 0.16929222 0.04287597 0.58094994
v 0.16791947 0.04441710 0.58189419
v 0.16737874 0.04495689 0.58189419
v 0.16534841 0.04615779 0.57816321
v 0.16691029 0.04542196 0.58189419
f 1 2 5
f 1 5 13
f 1 13 27
f 1 27 31
f 1 31 15
f 1 15 7
f 1 7 3
f 1 3 9
f 1 9 19
f 1 19 18
f 1 18 33
f 1 33 44
f 1 44 37
f 1 37 21
f 1 21 10
f 1 10 4
f 1 4 2
f 2 4 6
f 2 6 14
f 2 14 30
f 2 30 42
f 2 42 43
f 2 43 45
f 2 45 40
f 2 40 38
f 2 38 23
f 2 23 22
f 2 22 11
f 2 11 5
f 3 7 8
f 3 8 9
f 4 10 20
f 4 20 35
f 4 35 41
f 4 41 28
f 4 28 14
f 4 14 6
f 5 11 12
f 5 12 13
f 7 15 8
f 8 15 16
f 8 16 17
f 8 17 18
f 8 18 19
f 8 19 9
f 10 21 20
f 11 22 12
f 12 23 24
f 12 24 25
f 12 25 26
f 12 26 27
f 12 27 13
f 12 22 23
f 14 28 29
f 14 29 30
f 15 31 16
f 16 31 26
f 16 26 32
f 16 32 17
f 17 33 18
f 17 32 34
f 17 34 33
f 20 21 36
f 20 36 35
f 21 37 36
f 23 38 24
f 24 39 34
f 24 34 32
f 24 32 25
f 24 38 40
f 24 40 39
f 25 32 26
f 26 31 27
f 28 41 34
f 28 34 29
f 29 42 30
f 29 34 39
f 29 39 43
f 29 43 42
f 33 34 44
f 34 36 37
f 34 37 44
f 34 41 36
f 35 36 41
f 39 45 43
f 39 40 45

