# https://github.com/mikedh/trimesh
v 0.06891506 0.00869508 0.59186209
v 0.06950000 0.00869508 0.59186209
v 0.06891506 0.00869508 0.59214803
v 0.06891506 0.00978024 0.59186209
v 0.06950000 0.00978024 0.59186209
v 0.06950000 0.00869508 0.59214803
v 0.06950000 0.00869997 0.59384789
v 0.06891506 0.00870018 0.59384789
v 0.06891506 0.00978024 0.59384789
v 0.06950000 0.00978024 0.59384244
v 0.06950000 0.00977684 0.59384789
v 0.06928230 0.00978024 0.59384789
f 1 2 6
f 1 6 3
f 1 3 8
f 1 8 9
f 1 9 4
f 1 4 5
f 1 5 2
f 2 5 10
f 2 10 11
f 2 11 7
f 2 7 6
f 3 6 7
f 3 7 8
f 4 9 12
f 4 12 10
f 4 10 5
f 7 11 12
f 7 12 9
f 7 9 8
f 10 12 11

