# https://github.com/mikedh/trimesh
v 0.09001909 -0.02733455 0.63201444
v 0.08936963 -0.02733455 0.63168707
v 0.08906091 -0.02900610 0.63025585
v 0.09001909 -0.02938215 0.63045157
v 0.09001909 -0.02733455 0.62904249
v 0.08846406 -0.02733455 0.63118087
v 0.08687644 -0.02801436 0.62967451
v 0.08821422 -0.03164278 0.62653713
v 0.09001909 -0.03241715 0.62684877
v 0.09001909 -0.02995546 0.62606413
v 0.08634990 -0.02733455 0.62606413
v 0.08700221 -0.02733455 0.63027799
v 0.08660488 -0.02733455 0.63000945
v 0.08557867 -0.02733455 0.62924520
v 0.08417858 -0.02733455 0.62801727
v 0.08417858 -0.02762745 0.62771146
v 0.08417858 -0.02856159 0.62658722
v 0.08417858 -0.02894035 0.62606413
v 0.08647910 -0.03067603 0.62606413
v 0.08736696 -0.03132324 0.62606413
v 0.08805129 -0.03180145 0.62606413
v 0.08836229 -0.03199980 0.62606413
v 0.08859040 -0.03212587 0.62606413
v 0.09001909 -0.03288612 0.62606413
v 0.08504699 -0.02733455 0.62606413
f 1 2 3
f 1 3 4
f 1 4 9
f 1 9 24
f 1 24 10
f 1 10 5
f 1 5 11
f 1 11 25
f 1 25 15
f 1 15 14
f 1 14 13
f 1 13 12
f 1 12 6
f 1 6 2
f 2 6 3
f 3 6 7
f 3 7 8
f 3 8 9
f 3 9 4
f 5 10 11
f 6 12 7
f 7 12 13
f 7 13 14
f 7 14 15
f 7 15 16
f 7 16 8
f 8 16 17
f 8 17 18
f 8 18 19
f 8 19 20
f 8 20 21
f 8 21 22
f 8 22 23
f 8 23 9
f 9 23 24
f 10 24 23
f 10 23 22
f 10 22 21
f 10 21 20
f 10 20 19
f 10 19 18
f 10 18 25
f 10 25 11
f 15 25 18
f 15 18 17
f 15 17 16

