# https://github.com/mikedh/trimesh
v 0.09731424 0.00917931 0.57494200
v 0.09731424 0.00952245 0.57523744
v 0.09799993 0.00917931 0.57494200
v 0.09731424 0.00917931 0.58650596
v 0.09799993 0.00952245 0.57523744
v 0.09731424 0.01026264 0.57597773
v 0.09799993 0.00917931 0.58650596
v 0.09731424 0.00975628 0.58650596
v 0.09799993 0.01026264 0.57597773
v 0.09731424 0.01028715 0.57600716
v 0.09799993 0.00975628 0.58650596
v 0.09731424 0.01028715 0.58406775
v 0.09799993 0.01028715 0.57600716
v 0.09799993 0.01028715 0.58406775
f 1 2 5
f 1 5 3
f 1 3 7
f 1 7 4
f 1 4 8
f 1 8 12
f 1 12 10
f 1 10 6
f 1 6 2
f 2 6 9
f 2 9 5
f 3 5 9
f 3 9 13
f 3 13 14
f 3 14 11
f 3 11 7
f 4 7 11
f 4 11 8
f 6 10 13
f 6 13 9
f 8 11 14
f 8 14 12
f 10 12 14
f 10 14 13

