# https://github.com/mikedh/trimesh
v 0.17538639 -0.03215024 0.58302325
v 0.17394474 -0.03551531 0.58302325
v 0.17393011 -0.03551531 0.58245464
v 0.17392468 -0.03551531 0.58224627
v 0.17397317 -0.03540034 0.58224783
v 0.17532161 -0.03215024 0.58229240
v 0.17297375 -0.03215024 0.58302325
v 0.17162489 -0.03551531 0.58302325
v 0.17374243 -0.03551531 0.58023203
v 0.17371527 -0.03551531 0.57994072
v 0.17368475 -0.03551531 0.57970333
v 0.17506955 -0.03215024 0.58038338
v 0.17222387 -0.03401742 0.58302325
v 0.17259797 -0.03215024 0.57946438
v 0.17250685 -0.03231759 0.57923527
v 0.17111620 -0.03551531 0.57772848
v 0.17497760 -0.03215024 0.57976449
v 0.17294240 -0.03215024 0.57946541
f 1 2 3
f 1 3 4
f 1 4 5
f 1 5 6
f 1 6 12
f 1 12 17
f 1 17 18
f 1 18 14
f 1 14 7
f 1 7 13
f 1 13 8
f 1 8 2
f 2 8 16
f 2 16 11
f 2 11 10
f 2 10 9
f 2 9 4
f 2 4 3
f 4 9 5
f 5 9 6
f 6 9 10
f 6 10 11
f 6 11 12
f 7 14 13
f 8 13 15
f 8 15 16
f 11 16 17
f 11 17 12
f 13 14 15
f 14 18 15
f 15 18 17
f 15 17 16

