# https://github.com/mikedh/trimesh
v 0.11666220 -0.04545621 0.59093497
v 0.11646411 -0.04541246 0.59094686
v 0.11666220 -0.04545529 0.59076725
v 0.11666220 -0.04544055 0.59161445
v 0.11646411 -0.04539311 0.59179274
v 0.11646411 -0.04539864 0.59009240
v 0.11666220 -0.04544424 0.59008051
v 0.11218549 -0.04365581 0.59583129
v 0.11666220 -0.04543503 0.59178085
v 0.11646411 -0.04534706 0.59262937
v 0.11218549 -0.04363232 0.59470808
v 0.11218549 -0.04358673 0.59378560
v 0.11444642 -0.04450374 0.59105713
v 0.11646411 -0.04534660 0.58922935
v 0.11666220 -0.04539357 0.58921747
v 0.11277450 -0.04386077 0.59583129
v 0.11218549 -0.04142201 0.59583129
v 0.11666220 -0.04539772 0.59245372
v 0.11666220 -0.04538621 0.59261748
v 0.11666220 -0.04533140 0.59328309
v 0.11646411 -0.04527843 0.59345874
v 0.11466466 -0.04449176 0.59583129
v 0.11218549 -0.04353100 0.59295359
v 0.11444642 -0.04444248 0.59020135
v 0.11444642 -0.04434898 0.58933632
v 0.11646411 -0.04533094 0.58908606
v 0.11666220 -0.04537930 0.58908606
v 0.11218549 -0.04075095 0.58908606
v 0.11666220 -0.04281296 0.59583129
v 0.11666220 -0.04531528 0.59344619
v 0.11646411 -0.04519184 0.59427953
v 0.11646411 -0.04498827 0.59583129
v 0.11218549 -0.04345684 0.59211366
v 0.11444642 -0.04431122 0.58908606
v 0.11496311 -0.04457973 0.58908606
v 0.11218549 -0.04336289 0.59126448
v 0.11218549 -0.04324498 0.59040671
v 0.11666220 -0.04313122 0.58908606
v 0.11269386 -0.04099091 0.58908606
v 0.11218549 -0.04301146 0.58908606
v 0.11666220 -0.04501590 0.59583129
v 0.11270043 -0.04099413 0.58908606
v 0.11666220 -0.04522639 0.59426698
v 0.11218549 -0.04310128 0.58954036
v 0.11218549 -0.04308055 0.58943537
f 1 2 3
f 1 3 7
f 1 7 15
f 1 15 27
f 1 27 38
f 1 38 29
f 1 29 41
f 1 41 43
f 1 43 30
f 1 30 20
f 1 20 19
f 1 19 18
f 1 18 9
f 1 9 4
f 1 4 5
f 1 5 2
f 2 6 7
f 2 7 3
f 2 5 8
f 2 8 6
f 4 9 5
f 5 9 10
f 5 10 8
f 6 8 11
f 6 11 12
f 6 12 13
f 6 13 14
f 6 14 15
f 6 15 7
f 8 10 16
f 8 16 22
f 8 22 32
f 8 32 41
f 8 41 29
f 8 29 17
f 8 17 28
f 8 28 40
f 8 40 45
f 8 45 44
f 8 44 37
f 8 37 36
f 8 36 33
f 8 33 23
f 8 23 12
f 8 12 11
f 9 18 10
f 10 18 19
f 10 19 20
f 10 20 21
f 10 21 22
f 10 22 16
f 12 23 13
f 13 24 14
f 13 23 24
f 14 25 26
f 14 26 27
f 14 27 15
f 14 24 25
f 17 29 28
f 20 30 21
f 21 30 31
f 21 31 22
f 22 31 32
f 23 33 24
f 24 33 25
f 25 34 35
f 25 35 26
f 25 33 36
f 25 36 37
f 25 37 34
f 26 35 34
f 26 34 40
f 26 40 28
f 26 28 39
f 26 39 42
f 26 42 38
f 26 38 27
f 28 29 39
f 29 38 42
f 29 42 39
f 30 43 31
f 31 43 32
f 32 43 41
f 34 37 44
f 34 44 45
f 34 45 40

