# https://github.com/mikedh/trimesh
v 0.17256035 -0.02829528 0.62391572
v 0.17256035 -0.02985622 0.62082954
v 0.17076652 -0.02933973 0.62391572
v 0.17256035 -0.03129196 0.62391572
v 0.17076423 -0.02934495 0.62390877
v 0.17256035 -0.03272614 0.62082954
v 0.17076423 -0.03108328 0.62082954
v 0.17076423 -0.02935486 0.62391572
v 0.17151285 -0.03179645 0.62391572
v 0.17256035 -0.03138274 0.62375861
v 0.17256035 -0.03264318 0.62107668
v 0.17231175 -0.03288526 0.62082954
v 0.17076423 -0.03362452 0.62082954
v 0.17076423 -0.03197905 0.62391572
v 0.17107261 -0.03192010 0.62391572
v 0.17121397 -0.03242876 0.62301297
v 0.17204328 -0.03237816 0.62245556
v 0.17215492 -0.03230564 0.62249121
v 0.17226639 -0.03223208 0.62252263
v 0.17256035 -0.03217678 0.62222595
v 0.17256035 -0.03245276 0.62164164
v 0.17240230 -0.03256075 0.62161324
v 0.17209480 -0.03301099 0.62082954
v 0.17109353 -0.03349513 0.62082954
v 0.17076423 -0.03361669 0.62085220
v 0.17076423 -0.03248876 0.62305618
v 0.17076423 -0.03269901 0.62266433
v 0.17076423 -0.03307724 0.62193742
v 0.17076423 -0.03343357 0.62122985
v 0.17110356 -0.03340331 0.62107366
v 0.17148120 -0.03316437 0.62128031
v 0.17182105 -0.03294577 0.62143257
v 0.17212697 -0.03274492 0.62154074
v 0.17256035 -0.03235416 0.62186008
v 0.17256035 -0.03223364 0.62211447
v 0.17184285 -0.03314454 0.62082954
v 0.17142125 -0.03335114 0.62082954
f 1 2 3
f 1 3 8
f 1 8 14
f 1 14 15
f 1 15 9
f 1 9 4
f 1 4 10
f 1 10 20
f 1 20 35
f 1 35 34
f 1 34 21
f 1 21 11
f 1 11 6
f 1 6 2
f 2 5 3
f 2 6 12
f 2 12 23
f 2 23 36
f 2 36 37
f 2 37 24
f 2 24 13
f 2 13 7
f 2 7 5
f 3 5 8
f 4 9 10
f 5 7 13
f 5 13 25
f 5 25 29
f 5 29 28
f 5 28 27
f 5 27 26
f 5 26 14
f 5 14 8
f 6 11 12
f 9 15 16
f 9 16 17
f 9 17 18
f 9 18 10
f 10 18 19
f 10 19 20
f 11 21 12
f 12 21 22
f 12 22 23
f 13 24 25
f 14 26 16
f 14 16 15
f 16 26 27
f 16 27 28
f 16 28 29
f 16 29 25
f 16 25 30
f 16 30 31
f 16 31 17
f 17 31 32
f 17 32 33
f 17 33 18
f 18 33 19
f 19 33 22
f 19 22 34
f 19 34 35
f 19 35 20
f 21 34 22
f 22 33 23
f 23 33 32
f 23 32 36
f 24 37 31
f 24 31 30
f 24 30 25
f 31 37 32
f 32 37 36

