# https://github.com/mikedh/trimesh
v 0.10457952 -0.03174966 0.57850000
v 0.10457952 -0.03174966 0.58306155
v 0.10457952 -0.02825000 0.57850000
v 0.13024701 -0.03174966 0.57850000
v 0.10457952 -0.02825000 0.58306155
v 0.14183348 -0.03174966 0.58306155
v 0.13024701 -0.02825000 0.57850000
v 0.13479115 -0.03174966 0.57977670
v 0.14183348 -0.02825000 0.58306155
v 0.14183348 -0.03174966 0.58293919
v 0.13479115 -0.02825000 0.57977670
v 0.13626088 -0.03174966 0.58023308
v 0.14183348 -0.02825000 0.58293919
v 0.13908365 -0.03174966 0.58144681
v 0.13626088 -0.02825000 0.58023308
v 0.13769050 -0.03174966 0.58079038
v 0.13908365 -0.02825000 0.58144681
v 0.13769050 -0.02825000 0.58079038
f 1 2 5
f 1 5 3
f 1 3 7
f 1 7 4
f 1 4 8
f 1 8 12
f 1 12 16
f 1 16 14
f 1 14 10
f 1 10 6
f 1 6 2
f 2 6 9
f 2 9 5
f 3 5 9
f 3 9 13
f 3 13 17
f 3 17 18
f 3 18 15
f 3 15 11
f 3 11 7
f 4 7 11
f 4 11 8
f 6 10 13
f 6 13 9
f 8 11 15
f 8 15 12
f 10 14 17
f 10 17 13
f 12 15 18
f 12 18 16
f 14 16 18
f 14 18 17

