# https://github.com/mikedh/trimesh
v 0.09800019 -0.00953496 0.57524995
v 0.09800019 -0.00952237 0.57523718
v 0.09808997 -0.00953529 0.57524995
v 0.09800019 -0.00692599 0.57524995
v 0.09997237 -0.00952568 0.57524995
v 0.09800019 -0.00872861 0.57455442
v 0.09997237 -0.00923502 0.57497979
v 0.09997237 -0.00692599 0.57524995
v 0.09800019 -0.00614980 0.57451286
v 0.09838671 -0.00867492 0.57451286
v 0.09997237 -0.00906732 0.57483576
v 0.09800019 -0.00867227 0.57451286
v 0.09823902 -0.00867392 0.57451286
v 0.09997237 -0.00614980 0.57451286
v 0.09997237 -0.00866597 0.57451286
f 1 2 3
f 1 3 5
f 1 5 8
f 1 8 4
f 1 4 9
f 1 9 12
f 1 12 6
f 1 6 2
f 2 5 3
f 2 6 7
f 2 7 5
f 4 8 14
f 4 14 9
f 5 7 11
f 5 11 15
f 5 15 14
f 5 14 8
f 6 10 11
f 6 11 7
f 6 12 13
f 6 13 10
f 9 14 15
f 9 15 10
f 9 10 13
f 9 13 12
f 10 15 11

