# https://github.com/mikedh/trimesh
v 0.13603295 -0.03175000 0.58016183
v 0.13603295 -0.02825000 0.58016183
v 0.13626157 -0.03175000 0.58023348
v 0.13603295 -0.03175000 0.60303640
v 0.13626157 -0.02825000 0.58023348
v 0.13603295 -0.02825000 0.60303640
v 0.13769388 -0.03175000 0.58079102
v 0.13813874 -0.03175000 0.60133693
v 0.13691815 -0.03058310 0.60232213
v 0.13769388 -0.02825000 0.58079102
v 0.13813874 -0.02825000 0.60133693
v 0.13813874 -0.03175000 0.58100149
v 0.13813874 -0.02825000 0.58100149
f 1 2 5
f 1 5 3
f 1 3 7
f 1 7 12
f 1 12 8
f 1 8 4
f 1 4 6
f 1 6 2
f 2 6 11
f 2 11 13
f 2 13 10
f 2 10 5
f 3 5 10
f 3 10 7
f 4 8 9
f 4 9 6
f 6 9 11
f 7 10 13
f 7 13 12
f 8 11 9
f 8 12 13
f 8 13 11

