# https://github.com/mikedh/trimesh
v 0.06853189 0.00929821 0.59397180
v 0.06737297 0.00929821 0.59397180
v 0.06856395 0.00926902 0.59397180
v 0.06856395 0.00929821 0.59397071
v 0.06737297 0.00929821 0.58284709
v 0.06737297 -0.01160181 0.59397180
v 0.06856395 -0.01200000 0.59397180
v 0.06856395 0.00929821 0.58284709
v 0.06737297 -0.01200000 0.58284709
v 0.06737297 -0.01200000 0.58615532
v 0.06737612 -0.01200000 0.59397180
v 0.06856395 -0.01200000 0.58284709
f 1 2 6
f 1 6 11
f 1 11 7
f 1 7 3
f 1 3 4
f 1 4 8
f 1 8 5
f 1 5 2
f 2 5 9
f 2 9 10
f 2 10 6
f 3 7 12
f 3 12 8
f 3 8 4
f 5 8 12
f 5 12 9
f 6 10 11
f 7 11 10
f 7 10 9
f 7 9 12

