# https://github.com/mikedh/trimesh
v 0.12421828 0.02525000 0.57850148
v 0.12421828 0.02525000 0.58055167
v 0.12421828 0.02724922 0.57850012
v 0.12472665 0.02525000 0.57840067
v 0.12729682 0.02525000 0.58006975
v 0.12421828 0.02924961 0.58055943
v 0.12421828 0.02924609 0.57850012
v 0.12522507 0.02525000 0.57831195
v 0.12472665 0.02924961 0.57840067
v 0.12489269 0.02791641 0.57837102
v 0.12729682 0.02525000 0.57822962
v 0.12729682 0.02924961 0.58007636
v 0.12421828 0.02924961 0.57850171
v 0.12572350 0.02525000 0.57822962
v 0.12522507 0.02924961 0.57831195
v 0.12729682 0.02924961 0.57822962
v 0.12572350 0.02924961 0.57822962
f 1 2 6
f 1 6 13
f 1 13 7
f 1 7 3
f 1 3 4
f 1 4 8
f 1 8 14
f 1 14 11
f 1 11 5
f 1 5 2
f 2 5 6
f 3 7 9
f 3 9 4
f 4 9 10
f 4 10 8
f 5 11 16
f 5 16 12
f 5 12 6
f 6 12 16
f 6 16 17
f 6 17 15
f 6 15 9
f 6 9 13
f 7 13 9
f 8 10 15
f 8 15 17
f 8 17 14
f 9 15 10
f 11 14 17
f 11 17 16

