# https://github.com/mikedh/trimesh
v 0.09253138 -0.00000196 0.59349902
v 0.09253138 0.00060298 0.59347572
v 0.09249981 0.01000000 0.59500000
v 0.09249981 -0.01000000 0.59500000
v 0.09253138 -0.00060885 0.59347572
v 0.09253138 0.00148786 0.59335258
v 0.09253138 0.00270752 0.59301977
v 0.09253138 0.00346515 0.59271026
v 0.09253138 0.00399569 0.59242737
v 0.09253138 0.00474941 0.59192815
v 0.09253138 0.00544440 0.59135904
v 0.09253138 0.00610611 0.59065681
v 0.09253138 0.00661316 0.59000117
v 0.09253138 0.00703015 0.58930227
v 0.09253138 0.00744323 0.58842698
v 0.09253138 0.00764291 0.58785121
v 0.09253138 0.00779953 0.58727545
v 0.09253138 0.00793461 0.58646339
v 0.09253138 0.00799922 0.58550157
v 0.09249981 0.01000000 0.56100000
v 0.06950000 0.01000000 0.59500000
v 0.06950000 -0.01000000 0.59500000
v 0.09249981 -0.01000000 0.56100000
v 0.09253138 -0.00799922 0.58549491
v 0.09253138 -0.00793461 0.58646339
v 0.09253138 -0.00772122 0.58756500
v 0.09253138 -0.00744323 0.58842698
v 0.09253138 -0.00703015 0.58930227
v 0.09253138 -0.00643500 0.59024080
v 0.09253138 -0.00565583 0.59114605
v 0.09253138 -0.00499021 0.59175176
v 0.09253138 -0.00424824 0.59226762
v 0.09253138 -0.00346515 0.59271026
v 0.09253138 -0.00264096 0.59304307
v 0.09253138 -0.00148786 0.59335258
v 0.09253138 0.00796006 0.58475274
v 0.06950000 0.01000000 0.56100000
v 0.09253138 0.00783868 0.58393403
v 0.09253138 0.00754699 0.58286237
v 0.09253138 0.00706539 0.58175744
v 0.09253138 0.00660533 0.58098532
v 0.09253138 0.00605912 0.58028309
v 0.09253138 0.00544440 0.57963743
v 0.09253138 0.00474941 0.57906500
v 0.09253138 0.00373336 0.57842600
v 0.09253138 0.00263900 0.57795341
v 0.09253138 0.00148590 0.57764722
v 0.09253138 0.00060885 0.57752408
v 0.09253138 0.00000196 0.57750078
v 0.06950000 -0.01000000 0.56100000
v 0.09253138 -0.00060298 0.57752408
v 0.09253138 -0.00148590 0.57764722
v 0.09253138 -0.00235121 0.57785689
v 0.09253138 -0.00292091 0.57804659
v 0.09253138 -0.00373336 0.57842600
v 0.09253138 -0.00450274 0.57888528
v 0.09253138 -0.00521143 0.57943442
v 0.09253138 -0.00600626 0.58021985
v 0.09253138 -0.00660533 0.58098532
v 0.09253138 -0.00703015 0.58169088
v 0.09253138 -0.00744323 0.58256617
v 0.09253138 -0.00764291 0.58314193
v 0.09253138 -0.00779953 0.58372103
v 0.09253138 -0.00793461 0.58452976
f 1 2 3
f 1 3 4
f 1 4 5
f 1 5 35
f 1 35 34
f 1 34 33
f 1 33 32
f 1 32 31
f 1 31 30
f 1 30 29
f 1 29 28
f 1 28 27
f 1 27 26
f 1 26 25
f 1 25 24
f 1 24 64
f 1 64 63
f 1 63 62
f 1 62 61
f 1 61 60
f 1 60 59
f 1 59 58
f 1 58 57
f 1 57 56
f 1 56 55
f 1 55 54
f 1 54 53
f 1 53 52
f 1 52 51
f 1 51 49
f 1 49 48
f 1 48 47
f 1 47 46
f 1 46 45
f 1 45 44
f 1 44 43
f 1 43 42
f 1 42 41
f 1 41 40
f 1 40 39
f 1 39 38
f 1 38 36
f 1 36 19
f 1 19 18
f 1 18 17
f 1 17 16
f 1 16 15
f 1 15 14
f 1 14 13
f 1 13 12
f 1 12 11
f 1 11 10
f 1 10 9
f 1 9 8
f 1 8 7
f 1 7 6
f 1 6 2
f 2 6 3
f 3 6 7
f 3 7 8
f 3 8 9
f 3 9 10
f 3 10 11
f 3 11 12
f 3 12 13
f 3 13 14
f 3 14 15
f 3 15 16
f 3 16 17
f 3 17 18
f 3 18 19
f 3 19 20
f 3 20 37
f 3 37 21
f 3 21 22
f 3 22 4
f 4 22 50
f 4 50 23
f 4 23 24
f 4 24 25
f 4 25 26
f 4 26 27
f 4 27 28
f 4 28 29
f 4 29 30
f 4 30 31
f 4 31 32
f 4 32 33
f 4 33 34
f 4 34 35
f 4 35 5
f 19 36 20
f 20 23 50
f 20 50 37
f 20 36 38
f 20 38 39
f 20 39 40
f 20 40 41
f 20 41 42
f 20 42 43
f 20 43 44
f 20 44 45
f 20 45 46
f 20 46 47
f 20 47 48
f 20 48 49
f 20 49 23
f 21 37 50
f 21 50 22
f 23 49 51
f 23 51 52
f 23 52 53
f 23 53 54
f 23 54 55
f 23 55 56
f 23 56 57
f 23 57 58
f 23 58 59
f 23 59 60
f 23 60 61
f 23 61 62
f 23 62 63
f 23 63 64
f 23 64 24

