# https://github.com/mikedh/trimesh
v 0.16349956 -0.02950000 0.59055560
v 0.16348564 -0.02950000 0.59081438
v 0.16349956 -0.03150000 0.59055560
v 0.16349383 -0.02950000 0.59029646
v 0.16345288 -0.02950000 0.59107139
v 0.16348564 -0.03150000 0.59081438
v 0.16349383 -0.03150000 0.59029646
v 0.16346926 -0.02950000 0.59003874
v 0.16345288 -0.03150000 0.59107139
v 0.16340130 -0.02950000 0.59132519
v 0.16346926 -0.03150000 0.59003874
v 0.16342559 -0.02950000 0.58978316
v 0.16340130 -0.03150000 0.59132519
v 0.16337400 -0.02950000 0.59142117
v 0.16342559 -0.03150000 0.58978316
v 0.16336336 -0.02950000 0.58953219
v 0.16337400 -0.03150000 0.59142117
v 0.16130750 -0.02950000 0.59142117
v 0.16336336 -0.03150000 0.58953219
v 0.16328256 -0.02950000 0.58928585
v 0.16130750 -0.03150000 0.59142117
v 0.16071111 -0.02950000 0.58906759
v 0.16328256 -0.03150000 0.58928585
v 0.16318375 -0.02950000 0.58904662
v 0.16071111 -0.03150000 0.58906759
v 0.16071111 -0.02950000 0.58778967
v 0.16318375 -0.03150000 0.58904662
v 0.16306748 -0.02950000 0.58881485
v 0.16071111 -0.03150000 0.58778967
v 0.16224999 -0.02950000 0.58778967
v 0.16306748 -0.03150000 0.58881485
v 0.16293428 -0.02950000 0.58859268
v 0.16224999 -0.03150000 0.58778967
v 0.16262066 -0.02950000 0.58818069
v 0.16293428 -0.03150000 0.58859268
v 0.16278525 -0.02950000 0.58838082
v 0.16262066 -0.03150000 0.58818069
v 0.16278525 -0.03150000 0.58838082
f 1 2 6
f 1 6 3
f 1 3 7
f 1 7 4
f 1 4 8
f 1 8 12
f 1 12 16
f 1 16 20
f 1 20 24
f 1 24 28
f 1 28 32
f 1 32 36
f 1 36 34
f 1 34 30
f 1 30 26
f 1 26 22
f 1 22 18
f 1 18 14
f 1 14 10
f 1 10 5
f 1 5 2
f 2 5 9
f 2 9 6
f 3 6 9
f 3 9 13
f 3 13 17
f 3 17 21
f 3 21 25
f 3 25 29
f 3 29 33
f 3 33 37
f 3 37 38
f 3 38 35
f 3 35 31
f 3 31 27
f 3 27 23
f 3 23 19
f 3 19 15
f 3 15 11
f 3 11 7
f 4 7 11
f 4 11 8
f 5 10 13
f 5 13 9
f 8 11 15
f 8 15 12
f 10 14 17
f 10 17 13
f 12 15 19
f 12 19 16
f 14 18 21
f 14 21 17
f 16 19 23
f 16 23 20
f 18 22 25
f 18 25 21
f 20 23 27
f 20 27 24
f 22 26 29
f 22 29 25
f 24 27 31
f 24 31 28
f 26 30 33
f 26 33 29
f 28 31 35
f 28 35 32
f 30 34 37
f 30 37 33
f 32 35 38
f 32 38 36
f 34 36 38
f 34 38 37

