# https://github.com/mikedh/trimesh
v 0.16851874 0.02650000 0.55777759
v 0.16851874 0.02850000 0.55777759
v 0.16877731 0.02650000 0.55778868
v 0.16825968 0.02650000 0.55778602
v 0.16825968 0.02850000 0.55778602
v 0.16877731 0.02850000 0.55778868
v 0.16903476 0.02650000 0.55781887
v 0.16800207 0.02650000 0.55781332
v 0.16800207 0.02850000 0.55781332
v 0.16903476 0.02850000 0.55781887
v 0.16928913 0.02650000 0.55786769
v 0.16786882 0.02650000 0.55783751
v 0.16786882 0.02850000 0.55783751
v 0.16928913 0.02850000 0.55786769
v 0.16951864 0.02650000 0.55793005
v 0.16786882 0.02650000 0.55980839
v 0.16786882 0.02850000 0.55980839
v 0.16951864 0.02850000 0.55793005
v 0.16951864 0.02650000 0.56004451
v 0.16951864 0.02850000 0.56004451
f 1 2 6
f 1 6 3
f 1 3 7
f 1 7 11
f 1 11 15
f 1 15 19
f 1 19 16
f 1 16 12
f 1 12 8
f 1 8 4
f 1 4 5
f 1 5 2
f 2 5 9
f 2 9 13
f 2 13 17
f 2 17 20
f 2 20 18
f 2 18 14
f 2 14 10
f 2 10 6
f 3 6 10
f 3 10 7
f 4 8 9
f 4 9 5
f 7 10 14
f 7 14 11
f 8 12 13
f 8 13 9
f 11 14 18
f 11 18 15
f 12 16 17
f 12 17 13
f 15 18 20
f 15 20 19
f 16 19 20
f 16 20 17

