# https://github.com/mikedh/trimesh
v 0.16119665 -0.02350000 0.57986906
v 0.16319753 -0.02350000 0.57848266
v 0.16119665 -0.02350000 0.58136727
v 0.16119665 -0.01650000 0.57986906
v 0.16490443 -0.02350000 0.57848266
v 0.16319753 -0.01650000 0.57848266
v 0.16122387 -0.02350000 0.58136191
v 0.16119665 -0.01650000 0.58136727
v 0.16476288 -0.02350000 0.57875006
v 0.16490443 -0.01650000 0.57848266
v 0.16162129 -0.02350000 0.58125546
v 0.16122387 -0.01650000 0.58136191
v 0.16454403 -0.02350000 0.57909849
v 0.16476288 -0.01650000 0.57875006
v 0.16200963 -0.02350000 0.58111964
v 0.16162129 -0.01650000 0.58125546
v 0.16429977 -0.02350000 0.57942942
v 0.16454403 -0.01650000 0.57909849
v 0.16238672 -0.02350000 0.58095530
v 0.16200963 -0.01650000 0.58111964
v 0.16403156 -0.02350000 0.57974115
v 0.16429977 -0.01650000 0.57942942
v 0.16275003 -0.02350000 0.58076302
v 0.16238672 -0.01650000 0.58095530
v 0.16374085 -0.02350000 0.58003170
v 0.16403156 -0.01650000 0.57974115
v 0.16309808 -0.02350000 0.58054419
v 0.16275003 -0.01650000 0.58076302
v 0.16342908 -0.02350000 0.58029994
v 0.16374085 -0.01650000 0.58003170
v 0.16309808 -0.01650000 0.58054419
v 0.16342908 -0.01650000 0.58029994
f 1 2 5
f 1 5 9
f 1 9 13
f 1 13 17
f 1 17 21
f 1 21 25
f 1 25 29
f 1 29 27
f 1 27 23
f 1 23 19
f 1 19 15
f 1 15 11
f 1 11 7
f 1 7 3
f 1 3 8
f 1 8 4
f 1 4 6
f 1 6 2
f 2 6 10
f 2 10 5
f 3 7 12
f 3 12 8
f 4 8 12
f 4 12 16
f 4 16 20
f 4 20 24
f 4 24 28
f 4 28 31
f 4 31 32
f 4 32 30
f 4 30 26
f 4 26 22
f 4 22 18
f 4 18 14
f 4 14 10
f 4 10 6
f 5 10 14
f 5 14 9
f 7 11 16
f 7 16 12
f 9 14 18
f 9 18 13
f 11 15 20
f 11 20 16
f 13 18 22
f 13 22 17
f 15 19 24
f 15 24 20
f 17 22 26
f 17 26 21
f 19 23 28
f 19 28 24
f 21 26 30
f 21 30 25
f 23 27 31
f 23 31 28
f 25 30 32
f 25 32 29
f 27 29 32
f 27 32 31

