# https://github.com/mikedh/trimesh
v 0.16210545 -0.03289992 0.57283949
v 0.16210545 -0.03205008 0.57283949
v 0.16425445 -0.03289992 0.57283949
v 0.16375738 -0.03289992 0.57544791
v 0.16375738 -0.03205008 0.57544791
v 0.16425445 -0.03205008 0.57283949
v 0.16447682 -0.03289992 0.57316353
v 0.16526903 -0.03289992 0.57544791
v 0.16526903 -0.03205008 0.57544791
v 0.16447682 -0.03205008 0.57316353
v 0.16467564 -0.03289992 0.57350468
v 0.16526314 -0.03289992 0.57537769
v 0.16526314 -0.03205008 0.57537769
v 0.16467564 -0.03205008 0.57350468
v 0.16484845 -0.03289992 0.57385962
v 0.16520213 -0.03289992 0.57498777
v 0.16520213 -0.03205008 0.57498777
v 0.16484845 -0.03205008 0.57385962
v 0.16499432 -0.03289992 0.57422631
v 0.16511263 -0.03289992 0.57460321
v 0.16511263 -0.03205008 0.57460321
v 0.16499432 -0.03205008 0.57422631
f 1 2 6
f 1 6 3
f 1 3 7
f 1 7 11
f 1 11 15
f 1 15 19
f 1 19 20
f 1 20 16
f 1 16 12
f 1 12 8
f 1 8 4
f 1 4 5
f 1 5 2
f 2 5 9
f 2 9 13
f 2 13 17
f 2 17 21
f 2 21 22
f 2 22 18
f 2 18 14
f 2 14 10
f 2 10 6
f 3 6 10
f 3 10 7
f 4 8 9
f 4 9 5
f 7 10 14
f 7 14 11
f 8 12 13
f 8 13 9
f 11 14 18
f 11 18 15
f 12 16 17
f 12 17 13
f 15 18 22
f 15 22 19
f 16 20 21
f 16 21 17
f 19 22 21
f 19 21 20

