# https://github.com/mikedh/trimesh
v -0.03932567 0.10335074 0.16890147
v -0.03933029 0.10335074 0.16890449
v -0.03932567 0.10314625 0.16890147
v -0.03932567 0.10335074 0.15456678
v -0.03938735 0.10314625 0.16893778
v -0.04069472 0.10335074 0.16969279
v -0.03932567 0.10314625 0.15456678
v -0.04137824 0.10335074 0.15456678
v -0.04024667 0.10314625 0.16943406
v -0.04087575 0.10335074 0.16979719
v -0.04087575 0.10314625 0.16979719
v -0.04137824 0.10314625 0.15456678
v -0.04137824 0.10335074 0.17002415
v -0.04137824 0.10314625 0.17002415
f 1 2 3
f 1 3 7
f 1 7 4
f 1 4 8
f 1 8 13
f 1 13 10
f 1 10 6
f 1 6 2
f 2 5 3
f 2 6 5
f 3 5 9
f 3 9 11
f 3 11 14
f 3 14 12
f 3 12 7
f 4 7 12
f 4 12 8
f 5 6 9
f 6 10 11
f 6 11 9
f 8 12 14
f 8 14 13
f 10 13 14
f 10 14 11

