# https://github.com/mikedh/trimesh
v 0.08719310 0.09266482 0.03705604
v 0.08670530 0.09329262 0.02595592
v 0.08739654 0.09266482 0.03705604
v 0.08719310 0.09266482 0.03876178
v 0.08670530 0.09328642 0.04605496
v 0.08670530 0.09365957 0.02664058
v 0.08719301 0.09329556 0.02596379
v 0.08759998 0.09279606 0.03696160
v 0.08739654 0.09266482 0.03876178
v 0.08739654 0.09279606 0.04245460
v 0.08759998 0.09279606 0.04245460
v 0.08719301 0.09329556 0.04603528
v 0.08719301 0.09347707 0.04570279
v 0.08670530 0.09347315 0.04571066
v 0.08670530 0.09398473 0.02725834
v 0.08719301 0.09400921 0.02730360
v 0.08759998 0.09599771 0.03604872
v 0.08759998 0.09324887 0.03604872
v 0.08759998 0.09491418 0.04245460
v 0.08719301 0.09392564 0.04485484
v 0.08719301 0.09401998 0.04467581
v 0.08670530 0.09404871 0.04461088
v 0.08670530 0.09461709 0.02869455
v 0.08719301 0.09461709 0.02869455
v 0.08759998 0.09594319 0.03749280
v 0.08719301 0.09499449 0.02977269
v 0.08719301 0.09513258 0.03018781
v 0.08719301 0.09549822 0.03155123
v 0.08739654 0.09594907 0.03465973
v 0.08739654 0.09600000 0.03600150
v 0.08719301 0.09461709 0.04330649
v 0.08719301 0.09415416 0.04436889
v 0.08759998 0.09511103 0.04189389
v 0.08670530 0.09461383 0.04331436
v 0.08670530 0.09508590 0.03003632
v 0.08739654 0.09594352 0.03749280
v 0.08719301 0.09594058 0.03752231
v 0.08759998 0.09577572 0.03898016
v 0.08670530 0.09549822 0.03155123
v 0.08719301 0.09577147 0.03299924
v 0.08719301 0.09594091 0.03448463
v 0.08670530 0.09594352 0.03451218
v 0.08719301 0.09595168 0.03471679
v 0.08719301 0.09590990 0.03420526
v 0.08719301 0.09600000 0.03600150
v 0.08739654 0.09511103 0.04189389
v 0.08670530 0.09500004 0.04221064
v 0.08759998 0.09549757 0.04044785
v 0.08719301 0.09549822 0.04044981
v 0.08670530 0.09519755 0.04157124
v 0.08670530 0.09597780 0.03657796
v 0.08670530 0.09594483 0.03743181
v 0.08670530 0.09577572 0.03897623
v 0.08670530 0.09549822 0.04044981
v 0.08759998 0.09563697 0.03971400
v 0.08670530 0.09576233 0.03295202
v 0.08670530 0.09581457 0.03335928
v 0.08670530 0.09597780 0.03542112
v 0.08670530 0.09599935 0.03600150
v 0.08670530 0.09511103 0.04189192
f 1 2 3
f 1 3 9
f 1 9 4
f 1 4 5
f 1 5 2
f 2 6 7
f 2 7 3
f 2 5 14
f 2 14 22
f 2 22 34
f 2 34 47
f 2 47 60
f 2 60 50
f 2 50 54
f 2 54 53
f 2 53 52
f 2 52 51
f 2 51 59
f 2 59 58
f 2 58 42
f 2 42 57
f 2 57 56
f 2 56 39
f 2 39 35
f 2 35 23
f 2 23 15
f 2 15 6
f 3 7 8
f 3 8 11
f 3 11 9
f 4 9 11
f 4 11 10
f 4 10 5
f 5 10 11
f 5 11 12
f 5 12 13
f 5 13 14
f 6 15 16
f 6 16 7
f 7 16 17
f 7 17 18
f 7 18 8
f 8 18 17
f 8 17 25
f 8 25 38
f 8 38 55
f 8 55 48
f 8 48 33
f 8 33 19
f 8 19 11
f 11 19 12
f 12 19 13
f 13 19 20
f 13 20 14
f 14 20 21
f 14 21 22
f 15 23 16
f 16 23 24
f 16 24 17
f 17 24 26
f 17 26 27
f 17 27 28
f 17 28 29
f 17 29 30
f 17 30 25
f 19 31 32
f 19 32 21
f 19 21 20
f 19 33 31
f 21 32 22
f 22 32 34
f 23 26 24
f 23 35 26
f 25 30 36
f 25 36 37
f 25 37 38
f 26 35 27
f 27 35 39
f 27 39 28
f 28 39 40
f 28 40 29
f 29 41 42
f 29 42 43
f 29 43 30
f 29 40 44
f 29 44 41
f 30 43 45
f 30 45 36
f 31 33 46
f 31 46 47
f 31 47 34
f 31 34 32
f 33 48 49
f 33 49 50
f 33 50 46
f 36 45 51
f 36 51 52
f 36 52 37
f 37 53 38
f 37 52 53
f 38 53 54
f 38 54 49
f 38 49 55
f 39 56 40
f 40 56 57
f 40 57 44
f 41 44 42
f 42 58 43
f 42 44 57
f 43 58 45
f 45 58 59
f 45 59 51
f 46 50 60
f 46 60 47
f 48 55 49
f 49 54 50

