# https://github.com/mikedh/trimesh
v 0.02925000 0.07856096 0.02685796
v 0.02925000 0.07880053 0.02692268
v 0.03425000 0.07856096 0.02685796
v 0.02925000 0.07856096 0.03170787
v 0.02925000 0.07913608 0.02703990
v 0.03091699 0.07902423 0.02700035
v 0.03425000 0.07880053 0.02692268
v 0.03425000 0.07856096 0.03170787
v 0.02925000 0.08066554 0.03420473
v 0.02925000 0.07947096 0.02715712
v 0.03425000 0.07947096 0.02715712
v 0.03425000 0.07913608 0.02703990
v 0.03425000 0.08066554 0.03420473
v 0.02925000 0.08532211 0.03420473
v 0.02925000 0.07979657 0.02729879
v 0.03425000 0.07979657 0.02729879
v 0.03425000 0.08532211 0.03420473
v 0.02925000 0.08526123 0.03388543
v 0.02925000 0.08012219 0.02744119
v 0.03425000 0.08012219 0.02744119
v 0.03425000 0.08526123 0.03388543
v 0.03091699 0.08520034 0.03365675
v 0.02925000 0.08507790 0.03319937
v 0.02925000 0.08043655 0.02760731
v 0.03425000 0.08043655 0.02760731
v 0.03425000 0.08507790 0.03319937
v 0.02925000 0.08484296 0.03252913
v 0.02925000 0.08075026 0.02777343
v 0.03425000 0.08075026 0.02777343
v 0.03425000 0.08484296 0.03252913
v 0.02925000 0.08455903 0.03187758
v 0.02925000 0.08105139 0.02796185
v 0.03425000 0.08105139 0.02796185
v 0.03425000 0.08455903 0.03187758
v 0.03091699 0.08444851 0.03166831
v 0.02925000 0.08422680 0.03124977
v 0.02925000 0.08135185 0.02815098
v 0.03425000 0.08135185 0.02815098
v 0.03425000 0.08422680 0.03124977
v 0.03091699 0.08410105 0.03104913
v 0.02925000 0.08403818 0.03094917
v 0.02925000 0.08163776 0.02836169
v 0.03425000 0.08163776 0.02836169
v 0.03425000 0.08403818 0.03094917
v 0.03425000 0.08384890 0.03064785
v 0.02925000 0.08384890 0.03064785
v 0.02925000 0.08192367 0.02857312
v 0.03425000 0.08192367 0.02857312
v 0.03425000 0.08342732 0.03007685
v 0.02925000 0.08342732 0.03007685
v 0.03258301 0.08228171 0.02888163
v 0.02925000 0.08246106 0.02903625
v 0.03425000 0.08246106 0.02903625
v 0.03425000 0.08319568 0.02980789
v 0.02925000 0.08319568 0.02980789
v 0.02925000 0.08271256 0.02928723
v 0.03425000 0.08271256 0.02928723
v 0.03425000 0.08296339 0.02953893
v 0.03091699 0.08311825 0.02971799
v 0.02925000 0.08296339 0.02953893
f 1 2 7
f 1 7 3
f 1 3 8
f 1 8 4
f 1 4 9
f 1 9 14
f 1 14 18
f 1 18 23
f 1 23 27
f 1 27 31
f 1 31 36
f 1 36 41
f 1 41 46
f 1 46 50
f 1 50 55
f 1 55 60
f 1 60 56
f 1 56 52
f 1 52 47
f 1 47 42
f 1 42 37
f 1 37 32
f 1 32 28
f 1 28 24
f 1 24 19
f 1 19 15
f 1 15 10
f 1 10 5
f 1 5 2
f 2 5 6
f 2 6 7
f 3 7 12
f 3 12 11
f 3 11 16
f 3 16 20
f 3 20 25
f 3 25 29
f 3 29 33
f 3 33 38
f 3 38 43
f 3 43 48
f 3 48 53
f 3 53 57
f 3 57 58
f 3 58 54
f 3 54 49
f 3 49 45
f 3 45 44
f 3 44 39
f 3 39 34
f 3 34 30
f 3 30 26
f 3 26 21
f 3 21 17
f 3 17 13
f 3 13 8
f 4 8 13
f 4 13 9
f 5 10 6
f 6 10 11
f 6 11 12
f 6 12 7
f 9 13 17
f 9 17 14
f 10 15 16
f 10 16 11
f 14 17 21
f 14 21 18
f 15 19 20
f 15 20 16
f 18 21 22
f 18 22 23
f 19 24 25
f 19 25 20
f 21 26 22
f 22 26 23
f 23 26 30
f 23 30 27
f 24 28 29
f 24 29 25
f 27 30 34
f 27 34 31
f 28 32 33
f 28 33 29
f 31 34 35
f 31 35 36
f 32 37 38
f 32 38 33
f 34 39 35
f 35 39 36
f 36 39 40
f 36 40 41
f 37 42 43
f 37 43 38
f 39 44 40
f 40 44 45
f 40 45 46
f 40 46 41
f 42 47 48
f 42 48 43
f 45 49 50
f 45 50 46
f 47 51 48
f 47 52 51
f 48 51 53
f 49 54 55
f 49 55 50
f 51 52 53
f 52 56 57
f 52 57 53
f 54 58 59
f 54 59 55
f 55 59 60
f 56 60 58
f 56 58 57
f 58 60 59

