# https://github.com/mikedh/trimesh
v 0.02616119 0.10604660 0.27224154
v 0.02616119 0.10515287 0.27224154
v 0.02609657 0.10624989 0.27095640
v 0.02609657 0.10624989 0.27226709
v 0.02553285 0.10624989 0.27485223
v 0.02401094 0.10515287 0.27224154
v 0.02609657 0.10604660 0.27095640
v 0.02553285 0.10604660 0.27485223
v 0.02512238 0.10515287 0.27344544
v 0.02401094 0.10624989 0.27095640
v 0.02401094 0.10624989 0.27485223
v 0.02401094 0.10604660 0.27095640
v 0.02401094 0.10515287 0.27344544
v 0.02401094 0.10604660 0.27485223
f 1 2 7
f 1 7 3
f 1 3 4
f 1 4 5
f 1 5 8
f 1 8 2
f 2 6 12
f 2 12 7
f 2 8 9
f 2 9 13
f 2 13 6
f 3 7 12
f 3 12 10
f 3 10 11
f 3 11 5
f 3 5 4
f 5 11 14
f 5 14 8
f 6 13 14
f 6 14 11
f 6 11 10
f 6 10 12
f 8 14 13
f 8 13 9

