# https://github.com/mikedh/trimesh
v -0.02095346 0.04500072 0.28000027
v -0.02095346 0.04500430 0.27990971
v -0.02075002 0.04500072 0.28000027
v -0.02095346 0.04500430 0.28009178
v -0.02095346 0.04505518 0.27878013
v -0.02075002 0.04505518 0.27878013
v -0.02075002 0.04504085 0.28089726
v -0.02075002 0.04508098 0.28179330
v -0.02095346 0.04507238 0.28161123
v -0.02095346 0.05138489 0.27878013
v -0.02075002 0.05138489 0.27878013
v -0.02075002 0.04532175 0.28357203
v -0.02095346 0.04509674 0.28191245
v -0.02095346 0.04508098 0.28179330
v -0.02095346 0.05232077 0.28190673
v -0.02075002 0.05232077 0.28190673
v -0.02095346 0.04532175 0.28357203
v -0.02095346 0.04531530 0.28352627
v -0.02075002 0.04572090 0.28532025
v -0.02095346 0.05232077 0.28851835
v -0.02075002 0.05232077 0.28851835
v -0.02095346 0.04572090 0.28532025
v -0.02075002 0.04627555 0.28702749
v -0.02095346 0.04626121 0.28698364
v -0.02095346 0.04691260 0.28851835
v -0.02075002 0.04691260 0.28851835
v -0.02095346 0.04634720 0.28719526
v -0.02095346 0.04627555 0.28702749
f 1 2 3
f 1 3 4
f 1 4 9
f 1 9 14
f 1 14 13
f 1 13 18
f 1 18 17
f 1 17 22
f 1 22 24
f 1 24 28
f 1 28 27
f 1 27 25
f 1 25 20
f 1 20 15
f 1 15 10
f 1 10 5
f 1 5 2
f 2 5 6
f 2 6 3
f 3 6 11
f 3 11 16
f 3 16 21
f 3 21 26
f 3 26 23
f 3 23 19
f 3 19 12
f 3 12 8
f 3 8 7
f 3 7 4
f 4 7 8
f 4 8 9
f 5 10 11
f 5 11 6
f 8 12 13
f 8 13 14
f 8 14 9
f 10 15 16
f 10 16 11
f 12 17 18
f 12 18 13
f 12 19 22
f 12 22 17
f 15 20 21
f 15 21 16
f 19 23 24
f 19 24 22
f 20 25 26
f 20 26 21
f 23 27 28
f 23 28 24
f 23 26 27
f 25 27 26

