# https://github.com/mikedh/trimesh
v 0.01115093 0.09117387 0.00654934
v 0.01117572 0.09166471 0.00654325
v 0.01115143 0.09117889 0.00654325
v 0.01159678 0.09117387 0.00654325
v 0.01115093 0.09117387 0.00749991
v 0.01128327 0.09379767 0.00654325
v 0.01373574 0.09117387 0.00654325
v 0.01373574 0.09117387 0.00749991
v 0.01128327 0.09379767 0.00749991
v 0.01134982 0.09511348 0.00654325
v 0.01373574 0.09687161 0.00654325
v 0.01373574 0.09687161 0.00749991
v 0.01137082 0.09552791 0.00749991
v 0.01143737 0.09684428 0.00654325
v 0.01143889 0.09687161 0.00654325
v 0.01143889 0.09687161 0.00749991
f 1 2 3
f 1 3 4
f 1 4 7
f 1 7 8
f 1 8 5
f 1 5 9
f 1 9 6
f 1 6 2
f 2 6 10
f 2 10 14
f 2 14 15
f 2 15 11
f 2 11 7
f 2 7 4
f 2 4 3
f 5 8 12
f 5 12 16
f 5 16 13
f 5 13 9
f 6 9 10
f 7 11 12
f 7 12 8
f 9 13 14
f 9 14 10
f 11 15 16
f 11 16 12
f 13 16 14
f 14 16 15

