# https://github.com/mikedh/trimesh
v 0.10557039 0.11098728 0.02840740
v 0.10758912 0.11098728 0.02840740
v 0.10688378 0.11098728 0.02721745
v 0.10968334 0.09772816 0.02652048
v 0.10797492 0.09772816 0.02808767
v 0.10762686 0.09772816 0.02840740
v 0.10786505 0.11098728 0.02815340
v 0.10799840 0.10941929 0.02840740
v 0.10812169 0.11098728 0.02612538
v 0.11095563 0.09772816 0.02543556
v 0.10968334 0.11098728 0.02476110
v 0.10996430 0.09772816 0.02840740
v 0.10968334 0.11062903 0.02654835
v 0.10968334 0.11098728 0.02645511
v 0.10968334 0.11012410 0.02667909
v 0.10844375 0.10746579 0.02840740
v 0.10968334 0.10866515 0.02701668
v 0.10968334 0.10939462 0.02684807
v 0.11174988 0.09773206 0.02475788
v 0.11111331 0.09772816 0.02530124
v 0.10996178 0.11098728 0.02475788
v 0.10970514 0.11091978 0.02475788
v 0.11413847 0.09772816 0.02475788
v 0.10986030 0.09869777 0.02840740
v 0.10983933 0.11098728 0.02630614
v 0.10979153 0.11098728 0.02635187
v 0.11196877 0.10910257 0.02475788
v 0.11230090 0.10783572 0.02475788
v 0.10885806 0.10536952 0.02840740
v 0.11301882 0.10461927 0.02475788
v 0.11267244 0.10626254 0.02475788
v 0.11172220 0.10702707 0.02547592
v 0.11177671 0.09772816 0.02475788
v 0.11140098 0.11098728 0.02475788
v 0.11382899 0.09981146 0.02475788
v 0.10939986 0.10212191 0.02840740
v 0.10984185 0.09883926 0.02840740
v 0.10984940 0.11098728 0.02629649
v 0.11188323 0.10939592 0.02475788
v 0.10936212 0.10235555 0.02840740
v 0.11340629 0.10249963 0.02475788
v 0.11136995 0.11098728 0.02479039
v 0.11146220 0.11080426 0.02475788
v 0.11381893 0.09987896 0.02475788
v 0.11381054 0.09993477 0.02475788
v 0.11343816 0.10229844 0.02475788
v 0.11029726 0.11098728 0.02585674
v 0.11104286 0.11023962 0.02534018
v 0.11178845 0.10971653 0.02475788
v 0.11172220 0.10979181 0.02480182
v 0.11130117 0.11098728 0.02486112
v 0.11065287 0.11098728 0.02550700
v 0.11048764 0.11098728 0.02566955
f 1 2 7
f 1 7 14
f 1 14 26
f 1 26 25
f 1 25 38
f 1 38 47
f 1 47 53
f 1 53 52
f 1 52 51
f 1 51 42
f 1 42 34
f 1 34 21
f 1 21 11
f 1 11 9
f 1 9 3
f 1 3 4
f 1 4 5
f 1 5 6
f 1 6 12
f 1 12 24
f 1 24 37
f 1 37 36
f 1 36 40
f 1 40 29
f 1 29 16
f 1 16 8
f 1 8 2
f 2 8 7
f 3 9 4
f 4 10 20
f 4 20 33
f 4 33 23
f 4 23 12
f 4 12 6
f 4 6 5
f 4 9 11
f 4 11 10
f 7 13 14
f 7 8 15
f 7 15 13
f 8 16 17
f 8 17 18
f 8 18 15
f 10 19 20
f 10 11 19
f 11 21 22
f 11 22 19
f 12 23 24
f 13 25 26
f 13 26 14
f 13 15 27
f 13 27 25
f 15 18 28
f 15 28 27
f 16 29 30
f 16 30 31
f 16 31 32
f 16 32 17
f 17 28 18
f 17 32 28
f 19 33 20
f 19 22 21
f 19 21 34
f 19 34 43
f 19 43 49
f 19 49 39
f 19 39 27
f 19 27 28
f 19 28 31
f 19 31 30
f 19 30 41
f 19 41 46
f 19 46 45
f 19 45 44
f 19 44 35
f 19 35 23
f 19 23 33
f 23 35 36
f 23 36 37
f 23 37 24
f 25 27 38
f 27 39 38
f 28 32 31
f 29 40 41
f 29 41 30
f 34 42 43
f 35 44 36
f 36 44 45
f 36 45 46
f 36 46 41
f 36 41 40
f 38 39 48
f 38 48 47
f 39 49 50
f 39 50 48
f 42 51 43
f 43 51 52
f 43 52 50
f 43 50 49
f 47 48 53
f 48 50 53
f 50 52 53

