# https://github.com/mikedh/trimesh
v 0.03448989 0.07108467 0.03686968
v 0.03450015 0.06981284 0.03686968
v 0.03450015 0.06982011 0.03693152
v 0.03448989 0.07113070 0.03711289
v 0.03448989 0.08091533 0.03686968
v 0.03639444 0.06981284 0.03686968
v 0.03545000 0.06982011 0.03693152
v 0.03639444 0.06986372 0.03716188
v 0.03450015 0.06986372 0.03716116
v 0.03450015 0.06990732 0.03739073
v 0.03450015 0.06998605 0.03768476
v 0.03448989 0.07122760 0.03747291
v 0.03448989 0.08090442 0.03692769
v 0.03450015 0.08217989 0.03693152
v 0.03450015 0.08218716 0.03686968
v 0.03639444 0.06982011 0.03693017
v 0.03639444 0.08218716 0.03686968
v 0.03639444 0.06990732 0.03738937
v 0.03545000 0.06990732 0.03739073
v 0.03513344 0.06994729 0.03754121
v 0.03639444 0.06998605 0.03768476
v 0.03448989 0.07130149 0.03768476
v 0.03448989 0.08086930 0.03711121
v 0.03450015 0.08209268 0.03739073
v 0.03450015 0.08213628 0.03716116
v 0.03576655 0.08215082 0.03708464
v 0.03545000 0.08217989 0.03693152
v 0.03639444 0.08217989 0.03693088
v 0.03639444 0.06996788 0.03761710
v 0.03639444 0.08201395 0.03768476
v 0.03448989 0.08029273 0.03768476
v 0.03448989 0.08077240 0.03747195
v 0.03450015 0.08201395 0.03768476
v 0.03545000 0.08209268 0.03739073
v 0.03576655 0.08205271 0.03754121
v 0.03639444 0.08213628 0.03716053
v 0.03639444 0.08209268 0.03739001
v 0.03449213 0.08069851 0.03768476
v 0.03448989 0.08071062 0.03764821
f 1 2 3
f 1 3 4
f 1 4 12
f 1 12 22
f 1 22 31
f 1 31 39
f 1 39 32
f 1 32 23
f 1 23 13
f 1 13 5
f 1 5 15
f 1 15 17
f 1 17 6
f 1 6 2
f 2 6 7
f 2 7 3
f 3 7 8
f 3 8 9
f 3 9 4
f 4 9 10
f 4 10 11
f 4 11 12
f 5 13 14
f 5 14 15
f 6 16 7
f 6 17 28
f 6 28 36
f 6 36 37
f 6 37 30
f 6 30 21
f 6 21 29
f 6 29 18
f 6 18 8
f 6 8 16
f 7 16 8
f 8 18 19
f 8 19 10
f 8 10 9
f 10 19 20
f 10 20 11
f 11 20 21
f 11 21 30
f 11 30 33
f 11 33 38
f 11 38 31
f 11 31 22
f 11 22 12
f 13 23 24
f 13 24 25
f 13 25 14
f 14 25 26
f 14 26 27
f 14 27 17
f 14 17 15
f 17 27 28
f 18 29 19
f 19 29 20
f 20 29 21
f 23 32 33
f 23 33 24
f 24 34 26
f 24 26 25
f 24 33 35
f 24 35 34
f 26 36 28
f 26 28 27
f 26 34 37
f 26 37 36
f 30 37 35
f 30 35 33
f 31 38 39
f 32 39 33
f 33 39 38
f 34 35 37

