# https://github.com/mikedh/trimesh
v -0.02895033 0.07287959 0.35674626
v -0.02895012 0.07287833 0.35642001
v -0.02895033 0.07287959 0.35727266
v -0.02895033 0.08032531 0.35674626
v -0.02834163 0.07175509 0.35642001
v -0.02895012 0.07287833 0.35674626
v -0.02895012 0.08405890 0.35642001
v -0.02834142 0.07175509 0.35727266
v -0.02895033 0.08032531 0.35727266
v -0.02834163 0.07175509 0.35674626
v -0.02782358 0.07175509 0.35642001
v -0.02895012 0.08405890 0.35674626
v -0.02869248 0.08421305 0.35642001
v -0.02677148 0.07175509 0.35727266
v -0.02759324 0.08032531 0.35727266
v -0.02782358 0.08466285 0.35674626
v -0.02842502 0.08437225 0.35674626
v -0.02853572 0.08430655 0.35674626
v -0.02677148 0.07175509 0.35674626
v -0.02782358 0.08466285 0.35642001
v -0.02850820 0.08432297 0.35642001
v -0.02677148 0.07850210 0.35727266
v -0.02842502 0.08437225 0.35642001
v -0.02677148 0.07850210 0.35674626
f 1 2 6
f 1 6 3
f 1 3 9
f 1 9 4
f 1 4 7
f 1 7 2
f 2 5 10
f 2 10 6
f 2 7 13
f 2 13 21
f 2 21 23
f 2 23 20
f 2 20 11
f 2 11 5
f 3 6 8
f 3 8 14
f 3 14 22
f 3 22 15
f 3 15 9
f 4 9 12
f 4 12 7
f 5 11 19
f 5 19 14
f 5 14 8
f 5 8 10
f 6 10 8
f 7 12 13
f 9 15 16
f 9 16 17
f 9 17 18
f 9 18 12
f 11 20 24
f 11 24 19
f 12 18 13
f 13 18 21
f 14 19 24
f 14 24 22
f 15 22 16
f 16 20 23
f 16 23 17
f 16 22 24
f 16 24 20
f 17 23 21
f 17 21 18

