# https://github.com/mikedh/trimesh
v -0.04000295 0.04387778 0.02551213
v -0.03963106 0.04380804 0.02550908
v -0.04000295 0.04291274 0.02550908
v -0.04000295 0.04364518 0.02790154
v -0.03018588 0.04236563 0.02551096
v -0.03089314 0.03964366 0.02550908
v -0.04000295 0.04119232 0.02588027
v -0.03960800 0.04123865 0.02550908
v -0.03993856 0.04129949 0.02553391
v -0.04000295 0.04114739 0.02780927
v -0.03937929 0.04097937 0.02790154
v -0.03278333 0.04158545 0.02790154
v -0.03265360 0.03916161 0.02777344
v -0.03060485 0.03936988 0.02587278
v -0.03030023 0.03954725 0.02552501
v -0.03203859 0.03975739 0.02559925
v -0.03318981 0.04000684 0.02550908
v -0.04000295 0.04108982 0.02629197
v -0.03803012 0.04070559 0.02599409
v -0.03603230 0.04009764 0.02648049
v -0.03803012 0.04058437 0.02641726
v -0.03845293 0.04099341 0.02550908
v -0.03803012 0.04082540 0.02568145
v -0.03603230 0.04028765 0.02593812
v -0.03603230 0.04018281 0.02620884
v -0.04000295 0.04106034 0.02736385
v -0.03879695 0.04079919 0.02790154
v -0.03910061 0.04089279 0.02790154
v -0.03359533 0.03938438 0.02790154
v -0.03231054 0.03911013 0.02743856
v -0.03208856 0.03909656 0.02722568
v -0.03603230 0.03996425 0.02733177
v -0.03086911 0.03928517 0.02610673
v -0.03203859 0.03953228 0.02598495
v -0.03403929 0.04010653 0.02558402
v -0.03463123 0.04025161 0.02550908
v -0.04000295 0.04104256 0.02664841
v -0.03603230 0.04001480 0.02685449
v -0.03869605 0.04071026 0.02663904
v -0.03203859 0.03916956 0.02687885
v -0.03799264 0.04089747 0.02550908
v -0.03715085 0.04072243 0.02550908
v -0.03678665 0.04064755 0.02550908
v -0.03603230 0.04047111 0.02555475
v -0.03403641 0.03988422 0.02600884
v -0.03203859 0.03931278 0.02646855
v -0.03403641 0.03973633 0.02636082
v -0.04000295 0.04103179 0.02695308
v -0.03803012 0.04050434 0.02740273
v -0.03603230 0.03997782 0.02783831
v -0.03676743 0.04019545 0.02790154
v -0.03704706 0.04027642 0.02790154
v -0.03799168 0.04054412 0.02783035
v -0.03833378 0.04065972 0.02790154
v -0.03539231 0.03982244 0.02790154
v -0.03158694 0.03913025 0.02675613
v -0.03736418 0.04033866 0.02692522
v -0.03122659 0.03919250 0.02642663
v -0.03154370 0.03935818 0.02617558
v -0.03167727 0.03927955 0.02639478
v -0.03336951 0.03978875 0.02595615
v -0.03494835 0.04030684 0.02550908
v -0.03648106 0.04058577 0.02550908
v -0.03526354 0.04036206 0.02550908
f 1 2 3
f 1 3 7
f 1 7 18
f 1 18 37
f 1 37 48
f 1 48 26
f 1 26 10
f 1 10 4
f 1 4 5
f 1 5 2
f 2 5 6
f 2 6 17
f 2 17 36
f 2 36 62
f 2 62 64
f 2 64 63
f 2 63 43
f 2 43 42
f 2 42 41
f 2 41 22
f 2 22 8
f 2 8 3
f 3 8 9
f 3 9 7
f 4 10 11
f 4 11 28
f 4 28 27
f 4 27 54
f 4 54 52
f 4 52 51
f 4 51 55
f 4 55 29
f 4 29 12
f 4 12 5
f 5 12 13
f 5 13 14
f 5 14 15
f 5 15 6
f 6 15 14
f 6 14 16
f 6 16 17
f 7 9 19
f 7 19 20
f 7 20 21
f 7 21 18
f 8 22 23
f 8 23 9
f 9 23 24
f 9 24 25
f 9 25 19
f 10 26 27
f 10 27 28
f 10 28 11
f 12 29 13
f 13 30 31
f 13 31 14
f 13 29 32
f 13 32 30
f 14 31 33
f 14 33 34
f 14 34 16
f 16 34 35
f 16 35 36
f 16 36 17
f 18 21 38
f 18 38 39
f 18 39 37
f 19 25 20
f 20 38 21
f 20 25 40
f 20 40 31
f 20 31 38
f 22 41 24
f 22 24 23
f 24 41 42
f 24 42 43
f 24 43 44
f 24 44 45
f 24 45 46
f 24 46 47
f 24 47 25
f 25 47 40
f 26 48 49
f 26 49 50
f 26 50 51
f 26 51 52
f 26 52 53
f 26 53 54
f 26 54 27
f 29 55 32
f 30 32 38
f 30 38 31
f 31 56 33
f 31 40 56
f 32 55 50
f 32 50 49
f 32 49 48
f 32 48 37
f 32 37 57
f 32 57 38
f 33 56 58
f 33 58 59
f 33 59 34
f 34 59 60
f 34 60 45
f 34 45 61
f 34 61 44
f 34 44 62
f 34 62 36
f 34 36 35
f 37 39 57
f 38 57 39
f 40 46 56
f 40 47 46
f 43 63 44
f 44 64 62
f 44 61 45
f 44 63 64
f 45 60 46
f 46 60 56
f 50 55 51
f 52 54 53
f 56 60 58
f 58 60 59

