# https://github.com/mikedh/trimesh
v 0.01646427 0.04099075 0.26640205
v 0.01646427 0.03975659 0.26640205
v 0.01646427 0.04156252 0.26640150
v 0.01646264 0.04156252 0.26640205
v 0.01609742 0.03975659 0.26640205
v 0.01414243 0.03924825 0.26609234
v 0.01584589 0.03924825 0.26608072
v 0.01646427 0.03975659 0.26093224
v 0.01646427 0.04156252 0.26093224
v 0.01609742 0.04156252 0.26640205
v 0.01373949 0.03924825 0.26609234
v 0.01584589 0.03924825 0.26220097
v 0.01584589 0.03925006 0.26081610
v 0.01608521 0.03975659 0.26084596
v 0.01643714 0.04156252 0.26092560
v 0.01373949 0.03975659 0.26609234
v 0.01369228 0.04156252 0.26581138
v 0.01369228 0.03975659 0.26581138
v 0.01373949 0.03924825 0.26250073
v 0.01562014 0.03924825 0.26204999
v 0.01577589 0.03925006 0.26080725
v 0.01597125 0.03975659 0.26083103
v 0.01537295 0.03924825 0.26201846
v 0.01596745 0.04156252 0.26083048
v 0.01608521 0.04156252 0.26084596
v 0.01369228 0.04156252 0.26089297
v 0.01369228 0.03975659 0.26089297
v 0.01388819 0.03924825 0.26212963
v 0.01373949 0.03925006 0.26088523
v 0.01546683 0.03925006 0.26076853
v 0.01574740 0.03975659 0.26080282
v 0.01487532 0.03924825 0.26200574
v 0.01484411 0.03925006 0.26075194
v 0.01564592 0.04156252 0.26079066
v 0.01422302 0.04156252 0.26079951
v 0.01419480 0.03975659 0.26080393
v 0.01391613 0.03925006 0.26085315
v 0.01437877 0.03924825 0.26204335
v 0.01543834 0.03975659 0.26076743
v 0.01546683 0.04156252 0.26076853
v 0.01552381 0.03975659 0.26077517
v 0.01484411 0.03975659 0.26075194
v 0.01484438 0.03975659 0.26075194
v 0.01533605 0.04156252 0.26076466
v 0.01422302 0.03925006 0.26079951
v 0.01428027 0.03975659 0.26079453
v 0.01484438 0.04156252 0.26075194
f 1 2 8
f 1 8 9
f 1 9 3
f 1 3 4
f 1 4 10
f 1 10 5
f 1 5 2
f 2 5 11
f 2 11 6
f 2 6 7
f 2 7 12
f 2 12 8
f 3 9 15
f 3 15 25
f 3 25 24
f 3 24 34
f 3 34 40
f 3 40 44
f 3 44 47
f 3 47 35
f 3 35 26
f 3 26 17
f 3 17 10
f 3 10 4
f 5 10 16
f 5 16 11
f 6 11 19
f 6 19 28
f 6 28 38
f 6 38 32
f 6 32 23
f 6 23 20
f 6 20 12
f 6 12 7
f 8 13 14
f 8 14 15
f 8 15 9
f 8 12 13
f 10 17 16
f 11 16 17
f 11 17 18
f 11 18 27
f 11 27 19
f 12 20 13
f 13 21 22
f 13 22 14
f 13 20 23
f 13 23 21
f 14 22 24
f 14 24 25
f 14 25 15
f 17 26 27
f 17 27 18
f 19 27 29
f 19 29 28
f 21 23 30
f 21 30 31
f 21 31 22
f 22 31 24
f 23 32 33
f 23 33 30
f 24 31 34
f 26 35 36
f 26 36 37
f 26 37 27
f 27 37 29
f 28 29 37
f 28 37 38
f 30 33 39
f 30 39 40
f 30 40 41
f 30 41 31
f 31 41 34
f 32 38 33
f 33 42 47
f 33 47 43
f 33 43 44
f 33 44 39
f 33 38 45
f 33 45 46
f 33 46 42
f 34 41 40
f 35 47 46
f 35 46 45
f 35 45 36
f 36 45 37
f 37 45 38
f 39 44 40
f 42 46 47
f 43 47 44

