# https://github.com/mikedh/trimesh
v -0.04571153 0.02775000 0.15456016
v -0.04864994 0.02775000 0.15681421
v -0.04571153 0.03275000 0.15456016
v -0.04086094 0.02775000 0.15456016
v -0.04864994 0.02775000 0.16139322
v -0.04864994 0.03275000 0.15681421
v -0.04086094 0.03275000 0.15456016
v -0.04092270 0.02775000 0.15480028
v -0.04864994 0.03275000 0.16139322
v -0.04835031 0.02775000 0.16135509
v -0.04092270 0.03275000 0.15480028
v -0.04103020 0.02941699 0.15509725
v -0.04108434 0.02775000 0.15524574
v -0.04835031 0.03275000 0.16135509
v -0.04788827 0.02775000 0.16125008
v -0.04108434 0.03275000 0.15524574
v -0.04124673 0.02775000 0.15569053
v -0.04788827 0.03275000 0.16125008
v -0.04742700 0.02775000 0.16114440
v -0.04124673 0.03275000 0.15569053
v -0.04138321 0.03108301 0.15597480
v -0.04165692 0.02775000 0.15654399
v -0.04742700 0.03275000 0.16114440
v -0.04697793 0.02775000 0.16099391
v -0.04712737 0.03108301 0.16104407
v -0.04165692 0.03275000 0.15654399
v -0.04215098 0.02775000 0.15735197
v -0.04697793 0.03275000 0.16099391
v -0.04652886 0.02775000 0.16084275
v -0.04682849 0.02941699 0.16094375
v -0.04215098 0.03275000 0.15735197
v -0.04272280 0.02775000 0.15810645
v -0.04652886 0.03275000 0.16084275
v -0.04595322 0.03108301 0.16058323
v -0.04566578 0.02775000 0.16045347
v -0.04272280 0.03275000 0.15810645
v -0.04315205 0.02941699 0.15856930
v -0.04336705 0.02775000 0.15880072
v -0.04566578 0.03275000 0.16045347
v -0.04484541 0.02775000 0.15997992
v -0.04539207 0.03108301 0.16029562
v -0.04336705 0.03275000 0.15880072
v -0.04407688 0.02775000 0.15942677
v -0.04484541 0.03275000 0.15997992
v -0.04407688 0.03275000 0.15942677
f 1 2 6
f 1 6 3
f 1 3 7
f 1 7 4
f 1 4 8
f 1 8 13
f 1 13 17
f 1 17 22
f 1 22 27
f 1 27 32
f 1 32 38
f 1 38 43
f 1 43 40
f 1 40 35
f 1 35 29
f 1 29 24
f 1 24 19
f 1 19 15
f 1 15 10
f 1 10 5
f 1 5 2
f 2 5 9
f 2 9 6
f 3 6 9
f 3 9 14
f 3 14 18
f 3 18 23
f 3 23 28
f 3 28 33
f 3 33 39
f 3 39 44
f 3 44 45
f 3 45 42
f 3 42 36
f 3 36 31
f 3 31 26
f 3 26 20
f 3 20 16
f 3 16 11
f 3 11 7
f 4 7 11
f 4 11 8
f 5 10 14
f 5 14 9
f 8 11 12
f 8 12 13
f 10 15 18
f 10 18 14
f 11 16 12
f 12 16 13
f 13 16 20
f 13 20 17
f 15 19 23
f 15 23 18
f 17 21 22
f 17 20 21
f 19 24 25
f 19 25 23
f 20 26 21
f 21 26 22
f 22 26 31
f 22 31 27
f 23 25 28
f 24 29 30
f 24 30 28
f 24 28 25
f 27 31 36
f 27 36 32
f 28 30 33
f 29 34 33
f 29 33 30
f 29 35 34
f 32 36 37
f 32 37 38
f 33 34 39
f 34 35 39
f 35 40 41
f 35 41 39
f 36 42 37
f 37 42 38
f 38 42 45
f 38 45 43
f 39 41 44
f 40 44 41
f 40 43 45
f 40 45 44

