# https://github.com/mikedh/trimesh
v 0.03240606 0.04674980 0.28222734
v 0.03006909 0.04674980 0.28321387
v 0.03240606 0.04475000 0.28222734
v 0.03240606 0.04674980 0.27868360
v 0.03001933 0.04674980 0.28321387
v 0.03006909 0.04475000 0.28321387
v 0.03240606 0.04475000 0.27868360
v 0.03001933 0.04674980 0.27636314
v 0.03001933 0.04475000 0.28321387
v 0.03001933 0.04475000 0.27636314
f 1 2 6
f 1 6 3
f 1 3 7
f 1 7 4
f 1 4 8
f 1 8 5
f 1 5 2
f 2 5 9
f 2 9 6
f 3 6 9
f 3 9 10
f 3 10 7
f 4 7 10
f 4 10 8
f 5 8 10
f 5 10 9

