# https://github.com/mikedh/trimesh
v 0.01208846 0.10961526 0.28676253
v 0.01208486 0.10987806 0.28676253
v 0.01208846 0.10625000 0.28676253
v 0.01208846 0.10987806 0.28658302
v 0.01132040 0.10987806 0.28665860
v 0.01132040 0.10625000 0.28665860
v 0.01208846 0.10625000 0.28140077
v 0.01208846 0.10987806 0.28140077
v 0.00937810 0.10987806 0.28619355
v 0.01034899 0.10899981 0.28642607
v 0.01034899 0.10625000 0.28642607
v 0.00850245 0.10625000 0.28140077
v 0.00850245 0.10987806 0.28140077
v 0.00937810 0.10625000 0.28619355
v 0.00749141 0.10987806 0.28553691
v 0.00682990 0.10625000 0.28244635
v 0.00682990 0.10987806 0.28244635
v 0.00749141 0.10625000 0.28553691
v 0.00691330 0.10987806 0.28526816
v 0.00682990 0.10625000 0.28522932
v 0.00682990 0.10987806 0.28522932
f 1 2 3
f 1 3 7
f 1 7 8
f 1 8 4
f 1 4 2
f 2 4 8
f 2 8 13
f 2 13 17
f 2 17 21
f 2 21 19
f 2 19 15
f 2 15 9
f 2 9 5
f 2 5 6
f 2 6 3
f 3 6 11
f 3 11 14
f 3 14 18
f 3 18 20
f 3 20 16
f 3 16 12
f 3 12 7
f 5 9 10
f 5 10 11
f 5 11 6
f 7 12 13
f 7 13 8
f 9 14 11
f 9 11 10
f 9 15 18
f 9 18 14
f 12 16 17
f 12 17 13
f 15 19 18
f 16 20 21
f 16 21 17
f 18 19 20
f 19 21 20

