# https://github.com/mikedh/trimesh
v -0.03905476 0.10986964 0.16016327
v -0.03905476 0.10828307 0.16016327
v -0.03905476 0.11037312 0.16016303
v -0.04137824 0.10986964 0.16016327
v -0.04137824 0.10828307 0.16016327
v -0.03981098 0.10828307 0.15819996
v -0.03944754 0.10986984 0.15762824
v -0.03905476 0.10986984 0.16016303
v -0.03944754 0.11037312 0.15762824
v -0.04137824 0.11037312 0.16016303
v -0.04137824 0.10828307 0.15819996
v -0.04137824 0.10986984 0.15762824
v -0.04137824 0.11037312 0.15762824
f 1 2 8
f 1 8 3
f 1 3 10
f 1 10 4
f 1 4 5
f 1 5 2
f 2 5 11
f 2 11 6
f 2 6 7
f 2 7 8
f 3 8 7
f 3 7 9
f 3 9 13
f 3 13 10
f 4 10 13
f 4 13 12
f 4 12 11
f 4 11 5
f 6 11 12
f 6 12 7
f 7 12 13
f 7 13 9

