# https://github.com/mikedh/trimesh
v -0.05434085 0.03974946 0.17913137
v -0.05643036 0.03974946 0.17873656
v -0.05434085 0.03425054 0.17913137
v -0.05434085 0.03974946 0.16945585
v -0.05774370 0.03974946 0.17835109
v -0.05643036 0.03425054 0.17873656
v -0.05434085 0.03425054 0.16945585
v -0.06189905 0.03974946 0.16550507
v -0.05905705 0.03974946 0.17796428
v -0.05774370 0.03425054 0.17835109
v -0.06189905 0.03425054 0.16550507
v -0.06189905 0.03974946 0.17677452
v -0.06032599 0.03974946 0.17745076
v -0.05905705 0.03425054 0.17796428
v -0.06189905 0.03425054 0.17677452
v -0.06159494 0.03974946 0.17693591
v -0.06032599 0.03425054 0.17745076
v -0.06159494 0.03425054 0.17693591
f 1 2 6
f 1 6 3
f 1 3 7
f 1 7 4
f 1 4 8
f 1 8 12
f 1 12 16
f 1 16 13
f 1 13 9
f 1 9 5
f 1 5 2
f 2 5 10
f 2 10 6
f 3 6 10
f 3 10 14
f 3 14 17
f 3 17 18
f 3 18 15
f 3 15 11
f 3 11 7
f 4 7 11
f 4 11 8
f 5 9 14
f 5 14 10
f 8 11 15
f 8 15 12
f 9 13 17
f 9 17 14
f 12 15 18
f 12 18 16
f 13 16 18
f 13 18 17

