# https://github.com/mikedh/trimesh
v -0.00739206 0.03859485 0.25176848
v -0.00075444 0.03859485 0.26432134
v -0.00739206 0.03974989 0.25176848
v 0.01024838 0.03859485 0.25176848
v 0.00589007 0.03859485 0.26432134
v -0.00075444 0.03974989 0.26432134
v 0.01024838 0.03974989 0.25176848
v 0.01024838 0.03859485 0.25800067
v 0.01024493 0.03859485 0.25876864
v 0.00908282 0.03924993 0.26432134
v 0.00908282 0.03974989 0.26432134
v 0.01024838 0.03974989 0.26033283
v 0.01024838 0.03924993 0.26033283
v 0.00969409 0.03924993 0.26325233
v 0.00969409 0.03974989 0.26325233
f 1 2 6
f 1 6 3
f 1 3 7
f 1 7 4
f 1 4 8
f 1 8 9
f 1 9 5
f 1 5 2
f 2 5 10
f 2 10 11
f 2 11 6
f 3 6 11
f 3 11 15
f 3 15 12
f 3 12 7
f 4 7 12
f 4 12 13
f 4 13 8
f 5 9 10
f 8 13 9
f 9 13 14
f 9 14 10
f 10 14 15
f 10 15 11
f 12 15 14
f 12 14 13

