# https://github.com/mikedh/trimesh
v -0.02075000 0.09524650 0.25931950
v -0.02075000 0.09525036 0.25100000
v -0.01924136 0.09524650 0.25931950
v -0.02075000 0.09524650 0.28105168
v -0.01924136 0.09525036 0.25100000
v -0.02075000 0.09743870 0.25100000
v -0.01924136 0.09524650 0.28105795
v -0.02074808 0.09524650 0.28105795
v -0.02075000 0.09525036 0.28300000
v -0.01924136 0.09743870 0.25100000
v -0.02075000 0.09743870 0.28300000
v -0.01924136 0.09525036 0.28300000
v -0.01924136 0.09743870 0.28300000
f 1 2 5
f 1 5 3
f 1 3 7
f 1 7 8
f 1 8 4
f 1 4 9
f 1 9 11
f 1 11 6
f 1 6 2
f 2 6 10
f 2 10 5
f 3 5 10
f 3 10 13
f 3 13 12
f 3 12 7
f 4 8 9
f 6 11 13
f 6 13 10
f 7 12 9
f 7 9 8
f 9 12 13
f 9 13 11

