# https://github.com/mikedh/trimesh
v -0.00124578 0.08072862 0.36141127
v -0.00082932 0.08029805 0.36141127
v -0.00101441 0.08049115 0.36054206
v -0.00124578 0.08072862 0.36054206
v -0.02525699 0.08072862 0.36141127
v -0.00082932 0.08029805 0.36054206
v -0.00071363 0.08015779 0.36141127
v -0.02525699 0.08072862 0.36054206
v -0.02533669 0.07862652 0.36140617
v -0.02533669 0.07857501 0.36141127
v -0.00048740 0.07988017 0.36054206
v 0.00047151 0.07870418 0.36141127
v 0.00047151 0.07870418 0.36054206
v -0.02533669 0.07862652 0.36054206
v -0.02533669 0.07803033 0.36141127
v 0.00092654 0.07803033 0.36141127
v 0.00092654 0.07803033 0.36054206
v -0.02533669 0.07803033 0.36054206
f 1 2 3
f 1 3 4
f 1 4 8
f 1 8 5
f 1 5 10
f 1 10 15
f 1 15 16
f 1 16 12
f 1 12 7
f 1 7 2
f 2 6 3
f 2 7 6
f 3 6 11
f 3 11 13
f 3 13 17
f 3 17 18
f 3 18 14
f 3 14 8
f 3 8 4
f 5 8 14
f 5 14 9
f 5 9 10
f 6 7 11
f 7 12 13
f 7 13 11
f 9 14 18
f 9 18 15
f 9 15 10
f 12 16 17
f 12 17 13
f 15 18 17
f 15 17 16

