# https://github.com/mikedh/trimesh
v 0.12309148 0.05928662 0.00750000
v 0.12306871 0.05918685 0.00750000
v 0.12309148 0.05928662 0.00541586
v 0.11712720 0.05928662 0.00750000
v 0.12306871 0.05918685 0.00550012
v 0.12268219 0.05753998 0.00750000
v 0.12271489 0.05767868 0.00541586
v 0.12306988 0.05919226 0.00541586
v 0.11712720 0.05928662 0.00541586
v 0.11712720 0.05665287 0.00750000
v 0.12288362 0.05839796 0.00541586
v 0.12305236 0.05911750 0.00541586
v 0.12237215 0.05665287 0.00750000
v 0.12267109 0.05750698 0.00541586
v 0.12268219 0.05753998 0.00541586
v 0.11712720 0.05665287 0.00541586
v 0.12237215 0.05665287 0.00541586
f 1 2 5
f 1 5 3
f 1 3 9
f 1 9 4
f 1 4 10
f 1 10 13
f 1 13 6
f 1 6 2
f 2 6 7
f 2 7 5
f 3 5 8
f 3 8 12
f 3 12 11
f 3 11 7
f 3 7 15
f 3 15 14
f 3 14 17
f 3 17 16
f 3 16 9
f 4 9 16
f 4 16 10
f 5 7 11
f 5 11 12
f 5 12 8
f 6 13 14
f 6 14 15
f 6 15 7
f 10 16 17
f 10 17 13
f 13 17 14

