# https://github.com/mikedh/trimesh
v 0.09600042 0.06802937 0.04382543
v 0.10024701 0.06753259 0.03872835
v 0.10026622 0.06802937 0.03872835
v 0.09600042 0.06802937 0.04144679
v 0.09600042 0.06458808 0.04363033
v 0.10010795 0.06436211 0.03872835
v 0.09821788 0.06802937 0.03872835
v 0.09744490 0.06802937 0.03962801
v 0.09600042 0.05041065 0.03963400
v 0.09600042 0.06129169 0.04335938
v 0.09979307 0.05965988 0.03872835
v 0.09988286 0.06099672 0.03872835
v 0.10004656 0.06344271 0.03872835
v 0.09676797 0.05041065 0.03872835
v 0.09600042 0.05041065 0.04187492
v 0.09600042 0.05964608 0.04318624
v 0.09600042 0.05800392 0.04301309
v 0.09935459 0.05507667 0.03872835
v 0.09873863 0.05041065 0.03872835
v 0.09875492 0.05050553 0.03872835
v 0.09877413 0.05061765 0.03872835
v 0.09600042 0.05145770 0.04207102
v 0.09600042 0.05636348 0.04279953
v 0.09600042 0.05472477 0.04258596
f 1 2 3
f 1 3 7
f 1 7 8
f 1 8 4
f 1 4 9
f 1 9 15
f 1 15 22
f 1 22 24
f 1 24 23
f 1 23 17
f 1 17 16
f 1 16 10
f 1 10 5
f 1 5 6
f 1 6 2
f 2 6 13
f 2 13 12
f 2 12 11
f 2 11 18
f 2 18 21
f 2 21 20
f 2 20 19
f 2 19 14
f 2 14 7
f 2 7 3
f 4 8 9
f 5 10 11
f 5 11 12
f 5 12 13
f 5 13 6
f 7 14 8
f 8 14 9
f 9 14 19
f 9 19 15
f 10 16 11
f 11 16 17
f 11 17 18
f 15 19 20
f 15 20 21
f 15 21 22
f 17 23 18
f 18 23 24
f 18 24 21
f 21 24 22

