# https://github.com/mikedh/trimesh
v 0.08260000 0.05195742 0.04930951
v 0.08260000 0.05976642 0.04930951
v 0.08660000 0.05195742 0.04930951
v 0.08260000 0.05243728 0.05017868
v 0.08660000 0.05976642 0.04930951
v 0.08260000 0.06095155 0.05062989
v 0.08660000 0.05243728 0.05017868
v 0.08260000 0.05355550 0.05189042
v 0.08660000 0.06095155 0.05062989
v 0.08260000 0.06095155 0.05901191
v 0.08660000 0.05355550 0.05189042
v 0.08526640 0.05438403 0.05297332
v 0.08260000 0.05417712 0.05270259
v 0.08660000 0.06095155 0.05901191
v 0.08260000 0.06086174 0.05895776
v 0.08660000 0.05417712 0.05270259
v 0.08660000 0.05479874 0.05351382
v 0.08260000 0.05479874 0.05351382
v 0.08660000 0.06086174 0.05895776
v 0.08393359 0.05975234 0.05816648
v 0.08260000 0.05919763 0.05777037
v 0.08660000 0.05615820 0.05504033
v 0.08393359 0.05525131 0.05402297
v 0.08260000 0.05615820 0.05504033
v 0.08660000 0.05919763 0.05777037
v 0.08260000 0.05762685 0.05646139
v 0.08660000 0.05762685 0.05646139
v 0.08393359 0.05664687 0.05551338
f 1 2 5
f 1 5 3
f 1 3 7
f 1 7 4
f 1 4 8
f 1 8 13
f 1 13 18
f 1 18 24
f 1 24 26
f 1 26 21
f 1 21 15
f 1 15 10
f 1 10 6
f 1 6 2
f 2 6 9
f 2 9 5
f 3 5 9
f 3 9 14
f 3 14 19
f 3 19 25
f 3 25 27
f 3 27 22
f 3 22 17
f 3 17 16
f 3 16 11
f 3 11 7
f 4 7 11
f 4 11 8
f 6 10 14
f 6 14 9
f 8 11 12
f 8 12 13
f 10 15 19
f 10 19 14
f 11 16 12
f 12 16 17
f 12 17 18
f 12 18 13
f 15 20 19
f 15 21 20
f 17 22 23
f 17 23 18
f 18 23 24
f 19 20 25
f 20 21 25
f 21 26 27
f 21 27 25
f 22 24 23
f 22 27 28
f 22 28 24
f 24 28 26
f 26 28 27

