# https://github.com/mikedh/trimesh
v -0.07135369 0.04475020 0.13697121
v -0.07131880 0.04475020 0.13708035
v -0.07135369 0.04675000 0.13697121
v -0.05937297 0.04475020 0.13697121
v -0.07122462 0.04475020 0.13730776
v -0.07131880 0.04675000 0.13708035
v -0.05937297 0.04675000 0.13697121
v -0.05353523 0.04475020 0.14280791
v -0.07122462 0.04675000 0.13730776
v -0.07113043 0.04475020 0.13753460
v -0.05353523 0.04675000 0.14280791
v -0.06484793 0.04475020 0.14280791
v -0.07113043 0.04675000 0.13753460
v -0.07089671 0.04475020 0.13796771
v -0.06484793 0.04675000 0.14280791
v -0.06957812 0.04475020 0.13941160
v -0.07089671 0.04675000 0.13796771
v -0.07062113 0.04475020 0.13837568
v -0.07071357 0.04541680 0.13823969
v -0.06957812 0.04675000 0.13941160
v -0.06996009 0.04475020 0.13910134
v -0.07062113 0.04675000 0.13837568
v -0.07051823 0.04608320 0.13850196
v -0.07046590 0.04475020 0.13856538
v -0.06996009 0.04675000 0.13910134
v -0.07013451 0.04475020 0.13892821
v -0.07046590 0.04675000 0.13856538
v -0.07030893 0.04475020 0.13875451
v -0.07013451 0.04675000 0.13892821
v -0.07030893 0.04675000 0.13875451
f 1 2 6
f 1 6 3
f 1 3 7
f 1 7 4
f 1 4 8
f 1 8 12
f 1 12 16
f 1 16 21
f 1 21 26
f 1 26 28
f 1 28 24
f 1 24 18
f 1 18 14
f 1 14 10
f 1 10 5
f 1 5 2
f 2 5 9
f 2 9 6
f 3 6 9
f 3 9 13
f 3 13 17
f 3 17 22
f 3 22 27
f 3 27 30
f 3 30 29
f 3 29 25
f 3 25 20
f 3 20 15
f 3 15 11
f 3 11 7
f 4 7 11
f 4 11 8
f 5 10 13
f 5 13 9
f 8 11 15
f 8 15 12
f 10 14 17
f 10 17 13
f 12 15 20
f 12 20 16
f 14 18 19
f 14 19 17
f 16 20 25
f 16 25 21
f 17 19 22
f 18 23 22
f 18 22 19
f 18 24 23
f 21 25 29
f 21 29 26
f 22 23 27
f 23 24 27
f 24 28 30
f 24 30 27
f 26 29 30
f 26 30 28

