# https://github.com/mikedh/trimesh
v 0.10897719 0.03424622 0.02332287
v 0.10897719 0.03435228 0.02371171
v 0.10897719 0.03425732 0.02298464
v 0.10968378 0.03485602 0.02291014
v 0.10968378 0.03491645 0.02323408
v 0.10897719 0.03455698 0.02407137
v 0.10968378 0.03503237 0.02349045
v 0.10898089 0.03435104 0.02266642
v 0.10948060 0.03473641 0.02256396
v 0.10968830 0.03488131 0.02262989
v 0.10897719 0.03697277 0.02256396
v 0.11007368 0.03535669 0.02256396
v 0.11027727 0.03561196 0.02256396
v 0.11042903 0.03580804 0.02256396
v 0.11055653 0.03597575 0.02256396
v 0.11074943 0.03623595 0.02256396
v 0.11092505 0.03647826 0.02256396
v 0.11105707 0.03667866 0.02260050
v 0.11121624 0.03689816 0.02256396
v 0.10968378 0.03516185 0.02369212
v 0.10897719 0.03474258 0.02430161
v 0.11104350 0.03672983 0.02276093
v 0.11152429 0.03736368 0.02256396
v 0.11169950 0.03764300 0.02256926
v 0.10910715 0.03447806 0.02256396
v 0.10927126 0.03458904 0.02256396
v 0.10986516 0.03510204 0.02256396
v 0.10897719 0.03852163 0.02464923
v 0.10967597 0.04054527 0.02464923
v 0.11177888 0.04054342 0.02256437
v 0.11301686 0.04004830 0.02256396
v 0.11138281 0.03714788 0.02256396
v 0.10968378 0.03528887 0.02384725
v 0.11190885 0.03798150 0.02256396
v 0.11172254 0.03776878 0.02268867
v 0.10897719 0.03492139 0.02448226
v 0.10968378 0.03549481 0.02405667
v 0.10897801 0.03509958 0.02464004
v 0.10914006 0.03536409 0.02464923
v 0.11135526 0.04054527 0.02464923
v 0.11291980 0.04054527 0.02296158
v 0.11317891 0.04052123 0.02263438
v 0.11285358 0.03971165 0.02256396
v 0.11172254 0.03865050 0.02341023
v 0.10968378 0.03594430 0.02441878
v 0.11207378 0.03825958 0.02256396
v 0.11218853 0.03845936 0.02256396
v 0.10968378 0.03572911 0.02425793
v 0.11230656 0.03866900 0.02256396
v 0.11242831 0.03888974 0.02256396
v 0.10935845 0.03572356 0.02464923
v 0.11230410 0.04054527 0.02365558
v 0.11106118 0.03966910 0.02464923
v 0.11177395 0.04048608 0.02419955
v 0.11265369 0.04054527 0.02326816
v 0.11036693 0.03785510 0.02464923
v 0.11010083 0.03722372 0.02464923
v 0.11172254 0.03886384 0.02353454
v 0.10982403 0.03659850 0.02464923
v 0.11270099 0.03940890 0.02256396
v 0.10963196 0.03617490 0.02463290
v 0.11172254 0.03819793 0.02310017
v 0.11255910 0.03913575 0.02256396
v 0.11070213 0.03869736 0.02464923
f 1 2 6
f 1 6 21
f 1 21 36
f 1 36 28
f 1 28 11
f 1 11 3
f 1 3 4
f 1 4 5
f 1 5 2
f 2 5 7
f 2 7 6
f 3 8 9
f 3 9 10
f 3 10 4
f 3 11 8
f 4 10 12
f 4 12 13
f 4 13 14
f 4 14 15
f 4 15 16
f 4 16 5
f 5 16 17
f 5 17 18
f 5 18 19
f 5 19 7
f 6 7 20
f 6 20 21
f 7 19 22
f 7 22 23
f 7 23 24
f 7 24 20
f 8 25 26
f 8 26 9
f 8 11 25
f 9 26 25
f 9 25 11
f 9 11 31
f 9 31 43
f 9 43 60
f 9 60 63
f 9 63 50
f 9 50 49
f 9 49 47
f 9 47 46
f 9 46 34
f 9 34 23
f 9 23 32
f 9 32 19
f 9 19 17
f 9 17 16
f 9 16 15
f 9 15 14
f 9 14 13
f 9 13 12
f 9 12 27
f 9 27 10
f 10 27 12
f 11 28 29
f 11 29 30
f 11 30 31
f 17 19 18
f 19 32 22
f 20 33 21
f 20 24 34
f 20 34 35
f 20 35 33
f 21 33 37
f 21 37 36
f 22 32 23
f 23 34 24
f 28 36 38
f 28 38 39
f 28 39 51
f 28 51 59
f 28 59 57
f 28 57 56
f 28 56 64
f 28 64 53
f 28 53 40
f 28 40 29
f 29 40 52
f 29 52 55
f 29 55 41
f 29 41 30
f 30 41 42
f 30 42 31
f 31 42 44
f 31 44 45
f 31 45 43
f 33 35 46
f 33 46 47
f 33 47 37
f 34 46 35
f 36 37 38
f 37 48 38
f 37 47 49
f 37 49 50
f 37 50 48
f 38 48 39
f 39 48 45
f 39 45 51
f 40 53 54
f 40 54 52
f 41 55 56
f 41 56 57
f 41 57 42
f 42 57 58
f 42 58 59
f 42 59 44
f 43 45 60
f 44 59 45
f 45 59 61
f 45 61 51
f 45 48 62
f 45 62 60
f 48 50 63
f 48 63 62
f 51 61 59
f 52 54 53
f 52 53 64
f 52 64 55
f 55 64 56
f 57 59 58
f 60 62 63

