# https://github.com/mikedh/trimesh
v 0.07597788 0.05191497 0.01673033
v 0.07597788 0.05226932 0.01668715
v 0.07716122 0.05186772 0.01673033
v 0.07597788 0.10008744 0.01673033
v 0.07716122 0.05224569 0.01668465
v 0.07597788 0.05745225 0.01631405
v 0.07716122 0.10013468 0.01673033
v 0.07597788 0.09972836 0.01668715
v 0.07716122 0.05743335 0.01631298
v 0.07597788 0.06237533 0.01611953
v 0.07716122 0.09975199 0.01668465
v 0.07704990 0.09975199 0.01668493
v 0.07597788 0.09746053 0.01652301
v 0.07704990 0.06236116 0.01611917
v 0.07716122 0.06236116 0.01611910
v 0.07597788 0.06706690 0.01603224
v 0.07716122 0.09480056 0.01632971
v 0.07597788 0.09454543 0.01631405
v 0.07704990 0.06705745 0.01603210
v 0.07716122 0.06705745 0.01603210
v 0.07597788 0.07157894 0.01600365
v 0.07716122 0.09456433 0.01631298
v 0.07704990 0.09456433 0.01631305
v 0.07597788 0.09239099 0.01622855
v 0.07716122 0.06726061 0.01603081
v 0.07597788 0.07600120 0.01600000
v 0.07716122 0.07157421 0.01600365
v 0.07716122 0.08986331 0.01612789
v 0.07597788 0.08962235 0.01611953
v 0.07716122 0.07600120 0.01600000
v 0.07597788 0.08041874 0.01600365
v 0.07704990 0.08042347 0.01600365
v 0.07716122 0.08963653 0.01611910
v 0.07704990 0.08963653 0.01611917
v 0.07597788 0.08757186 0.01608114
v 0.07716122 0.08042347 0.01600365
v 0.07597788 0.08296060 0.01601966
v 0.07704990 0.08494495 0.01603210
v 0.07716122 0.08063135 0.01600493
v 0.07716122 0.08515756 0.01603603
v 0.07597788 0.08493550 0.01603224
v 0.07716122 0.08494495 0.01603210
f 1 2 3
f 1 3 7
f 1 7 4
f 1 4 8
f 1 8 13
f 1 13 18
f 1 18 24
f 1 24 29
f 1 29 35
f 1 35 41
f 1 41 37
f 1 37 31
f 1 31 26
f 1 26 21
f 1 21 16
f 1 16 10
f 1 10 6
f 1 6 2
f 2 5 3
f 2 6 5
f 3 5 9
f 3 9 15
f 3 15 20
f 3 20 25
f 3 25 27
f 3 27 30
f 3 30 36
f 3 36 39
f 3 39 42
f 3 42 40
f 3 40 33
f 3 33 28
f 3 28 22
f 3 22 17
f 3 17 11
f 3 11 7
f 4 7 8
f 5 6 9
f 6 10 9
f 7 11 12
f 7 12 8
f 8 12 13
f 9 10 14
f 9 14 15
f 10 15 14
f 10 16 15
f 11 17 13
f 11 13 12
f 13 17 18
f 15 16 19
f 15 19 20
f 16 21 19
f 17 22 23
f 17 23 18
f 18 23 24
f 19 21 25
f 19 25 20
f 21 26 27
f 21 27 25
f 22 28 23
f 23 28 29
f 23 29 24
f 26 30 27
f 26 31 32
f 26 32 36
f 26 36 30
f 28 33 34
f 28 34 29
f 29 34 33
f 29 33 35
f 31 37 38
f 31 38 39
f 31 39 32
f 32 39 36
f 33 40 38
f 33 38 35
f 35 38 41
f 37 41 38
f 38 40 42
f 38 42 39

