# https://github.com/mikedh/trimesh
v 0.01615840 0.04675000 0.05108350
v 0.01362112 0.04675000 0.05362090
v 0.01444287 0.04608320 0.05279944
v 0.01615840 0.04475000 0.05108350
v 0.01615840 0.04675000 0.04603913
v 0.01362112 0.04475000 0.05362090
v 0.01362112 0.04675000 0.04513683
v 0.01615840 0.04475000 0.04603913
v 0.01615244 0.04675000 0.04474131
v 0.01362112 0.04475000 0.04513770
v 0.01365441 0.04675000 0.04483867
v 0.01362112 0.04575020 0.04513683
v 0.01615244 0.04475000 0.04474131
v 0.01367130 0.04675000 0.04474131
v 0.01365441 0.04475000 0.04483867
v 0.01367130 0.04475000 0.04474131
f 1 2 3
f 1 3 4
f 1 4 8
f 1 8 5
f 1 5 9
f 1 9 14
f 1 14 11
f 1 11 7
f 1 7 2
f 2 6 3
f 2 7 12
f 2 12 10
f 2 10 6
f 3 6 4
f 4 6 10
f 4 10 15
f 4 15 16
f 4 16 13
f 4 13 8
f 5 8 13
f 5 13 9
f 7 11 15
f 7 15 12
f 9 13 16
f 9 16 14
f 10 12 15
f 11 14 16
f 11 16 15

