# https://github.com/mikedh/trimesh
v -0.03755973 0.10656635 0.15733746
v -0.03683413 0.10656635 0.15937077
v -0.03719560 0.10686971 0.15989979
v -0.03719560 0.10707223 0.15989979
v -0.03755840 0.10686971 0.15733746
v -0.03074649 0.10656635 0.15733746
v -0.03142608 0.10656635 0.15937077
v -0.03163482 0.10686971 0.15989979
v -0.03163482 0.10707223 0.15989979
v -0.03683279 0.10777955 0.15937052
v -0.03748104 0.10777955 0.15738236
v -0.03074649 0.10686971 0.15733746
v -0.03079384 0.10686971 0.15752333
v -0.03080117 0.10656635 0.15755168
v -0.03156280 0.10707223 0.15974603
v -0.03154079 0.10686971 0.15968507
v -0.03157147 0.10686971 0.15976860
v -0.03131870 0.10656635 0.15907628
v -0.03138473 0.10686971 0.15925789
v -0.03161082 0.10707223 0.15985188
v -0.03142675 0.10777955 0.15937052
v -0.03075916 0.10777955 0.15738236
v -0.03088921 0.10656635 0.15789533
v -0.03088988 0.10777955 0.15789533
v -0.03088921 0.10707223 0.15789533
v -0.03157147 0.10707223 0.15976860
v -0.03121200 0.10777955 0.15878180
v -0.03100992 0.10656635 0.15822869
v -0.03097057 0.10686971 0.15812033
f 1 2 3
f 1 3 4
f 1 4 5
f 1 5 12
f 1 12 6
f 1 6 14
f 1 14 23
f 1 23 28
f 1 28 18
f 1 18 7
f 1 7 2
f 2 7 8
f 2 8 3
f 3 8 9
f 3 9 4
f 4 9 21
f 4 21 10
f 4 10 11
f 4 11 5
f 5 11 22
f 5 22 12
f 6 12 13
f 6 13 14
f 7 15 16
f 7 16 17
f 7 17 8
f 7 18 19
f 7 19 15
f 8 17 20
f 8 20 9
f 9 20 21
f 10 21 27
f 10 27 24
f 10 24 22
f 10 22 11
f 12 22 13
f 13 23 14
f 13 22 24
f 13 24 25
f 13 25 23
f 15 21 26
f 15 26 17
f 15 17 16
f 15 19 27
f 15 27 21
f 17 26 20
f 18 28 19
f 19 28 29
f 19 29 27
f 20 26 21
f 23 29 28
f 23 25 29
f 24 27 29
f 24 29 25

