# https://github.com/mikedh/trimesh
v 0.01151483 0.11525000 0.07204349
v 0.01104110 0.11525000 0.07183265
v 0.01149445 0.11191601 0.07203640
v 0.01151483 0.10525000 0.07204349
v 0.01161792 0.11525000 0.06756491
v 0.01071927 0.11525000 0.07163986
v 0.01104110 0.10525000 0.07183265
v 0.01161792 0.10525000 0.06756491
v 0.01151507 0.11525000 0.06545651
v 0.01040977 0.11525000 0.07140001
v 0.01064889 0.11191601 0.07158893
v 0.01071927 0.10525000 0.07163986
v 0.01151507 0.10525000 0.06545651
v 0.01117239 0.11525000 0.06559707
v 0.01149469 0.10858399 0.06546360
v 0.01012633 0.11525000 0.07112985
v 0.01018771 0.10858399 0.07119175
v 0.01040977 0.10525000 0.07140001
v 0.01057874 0.10858399 0.07153670
v 0.01117239 0.10525000 0.06559707
v 0.01109513 0.11191601 0.06563834
v 0.01082994 0.11525000 0.06578986
v 0.00995547 0.11525000 0.07093126
v 0.01012633 0.10525000 0.07112985
v 0.01082994 0.10525000 0.06578986
v 0.01040977 0.11525000 0.06609999
v 0.01050859 0.10525000 0.06601424
v 0.00980000 0.11525000 0.07072042
v 0.00995547 0.10525000 0.07093126
v 0.01012633 0.11525000 0.06637015
v 0.01031094 0.10525000 0.06618510
v 0.00966066 0.11525000 0.07049862
v 0.00980000 0.10525000 0.07072042
v 0.00985830 0.11525000 0.06670092
v 0.01012633 0.10525000 0.06637015
v 0.00947320 0.11525000 0.07011756
v 0.00966066 0.10525000 0.07049862
v 0.00966066 0.11525000 0.06700074
v 0.00985830 0.10525000 0.06670092
v 0.00970711 0.10858399 0.06692723
v 0.00934736 0.11525000 0.06978034
v 0.00940495 0.10858399 0.06994605
v 0.00947320 0.10525000 0.07011756
v 0.00949927 0.11525000 0.06732248
v 0.00966066 0.10525000 0.06700074
v 0.00927958 0.11525000 0.06952759
v 0.00934736 0.10525000 0.06978034
v 0.00934736 0.11525000 0.06771966
v 0.00949927 0.10525000 0.06732248
v 0.00940495 0.10858399 0.06755459
v 0.00923076 0.11525000 0.06926969
v 0.00927958 0.10525000 0.06952759
v 0.00927958 0.11525000 0.06797241
v 0.00934736 0.10525000 0.06771966
v 0.00919711 0.11525000 0.06888024
v 0.00919830 0.10858399 0.06892344
v 0.00923076 0.10525000 0.06926969
v 0.00923076 0.11525000 0.06822967
v 0.00927958 0.10525000 0.06797241
v 0.00920185 0.11525000 0.06848951
v 0.00919830 0.11191601 0.06857720
v 0.00919711 0.10525000 0.06888024
v 0.00923076 0.10525000 0.06822967
v 0.00920185 0.10525000 0.06848951
f 1 2 3
f 1 3 4
f 1 4 8
f 1 8 5
f 1 5 9
f 1 9 14
f 1 14 22
f 1 22 26
f 1 26 30
f 1 30 34
f 1 34 38
f 1 38 44
f 1 44 48
f 1 48 53
f 1 53 58
f 1 58 60
f 1 60 55
f 1 55 51
f 1 51 46
f 1 46 41
f 1 41 36
f 1 36 32
f 1 32 28
f 1 28 23
f 1 23 16
f 1 16 10
f 1 10 6
f 1 6 2
f 2 6 12
f 2 12 7
f 2 7 3
f 3 7 4
f 4 7 12
f 4 12 18
f 4 18 24
f 4 24 29
f 4 29 33
f 4 33 37
f 4 37 43
f 4 43 47
f 4 47 52
f 4 52 57
f 4 57 62
f 4 62 64
f 4 64 63
f 4 63 59
f 4 59 54
f 4 54 49
f 4 49 45
f 4 45 39
f 4 39 35
f 4 35 31
f 4 31 27
f 4 27 25
f 4 25 20
f 4 20 13
f 4 13 8
f 5 8 13
f 5 13 9
f 6 10 11
f 6 11 12
f 9 13 15
f 9 15 14
f 10 16 17
f 10 17 18
f 10 18 19
f 10 19 11
f 11 19 12
f 12 19 18
f 13 20 15
f 14 15 20
f 14 20 21
f 14 21 22
f 16 23 29
f 16 29 24
f 16 24 17
f 17 24 18
f 20 25 21
f 21 25 22
f 22 25 27
f 22 27 26
f 23 28 33
f 23 33 29
f 26 27 31
f 26 31 30
f 28 32 37
f 28 37 33
f 30 31 35
f 30 35 39
f 30 39 34
f 32 36 43
f 32 43 37
f 34 39 40
f 34 40 38
f 36 41 42
f 36 42 43
f 38 40 45
f 38 45 49
f 38 49 44
f 39 45 40
f 41 46 52
f 41 52 47
f 41 47 42
f 42 47 43
f 44 49 50
f 44 50 48
f 46 51 57
f 46 57 52
f 48 50 54
f 48 54 59
f 48 59 53
f 49 54 50
f 51 55 56
f 51 56 57
f 53 59 63
f 53 63 58
f 55 60 61
f 55 61 62
f 55 62 56
f 56 62 57
f 58 63 64
f 58 64 60
f 60 64 61
f 61 64 62

