# https://github.com/mikedh/trimesh
v -0.06104442 0.10225097 0.15021635
v -0.05878924 0.10224480 0.15021635
v -0.05887979 0.10224480 0.15066519
v -0.05896820 0.10224480 0.15154878
v -0.05896820 0.10224480 0.15183549
v -0.05998278 0.10225097 0.15183549
v -0.06104442 0.11275000 0.15021635
v -0.05376055 0.10224480 0.15021635
v -0.05399512 0.10224480 0.15183549
v -0.05998278 0.11275000 0.15183549
v -0.05376055 0.11275000 0.15021635
v -0.05376055 0.10224480 0.15063777
v -0.05399512 0.11275000 0.15183549
v -0.05376055 0.11275000 0.15063777
f 1 2 3
f 1 3 4
f 1 4 5
f 1 5 6
f 1 6 10
f 1 10 7
f 1 7 11
f 1 11 8
f 1 8 2
f 2 8 12
f 2 12 9
f 2 9 5
f 2 5 4
f 2 4 3
f 5 9 13
f 5 13 10
f 5 10 6
f 7 10 13
f 7 13 14
f 7 14 11
f 8 11 14
f 8 14 12
f 9 12 14
f 9 14 13

