# https://github.com/mikedh/trimesh
v 0.01395827 0.03950242 0.26768738
v 0.01364774 0.04156252 0.27309877
v 0.01392314 0.03924825 0.27171658
v 0.01363298 0.03924825 0.26236703
v 0.01370730 0.03963019 0.26089021
v 0.01331635 0.04156252 0.26099322
v 0.01306895 0.04156252 0.27293947
v 0.01302619 0.03963019 0.27292510
v 0.01379944 0.03950356 0.27312632
v 0.01323439 0.03924825 0.27166627
v 0.01272279 0.03924825 0.26256106
v 0.01217403 0.03950356 0.26143638
v 0.01303993 0.03963019 0.26106987
v 0.01218319 0.04156252 0.26143039
v 0.01248964 0.04156252 0.27271909
v 0.01216436 0.03950356 0.27255979
v 0.01250186 0.03924825 0.27132492
v 0.00955597 0.03925029 0.27005172
v 0.01208240 0.03924825 0.26294553
v 0.00955597 0.03925029 0.26394804
v 0.01071966 0.03944035 0.26245805
v 0.01142572 0.03950356 0.26187835
v 0.01113352 0.04156252 0.26210352
v 0.01198568 0.04156252 0.27246876
v 0.01147001 0.03963019 0.27215016
v 0.01085762 0.03950356 0.27167705
v 0.01177290 0.03924825 0.27079552
v 0.01094823 0.03924825 0.26991158
v 0.01042441 0.03950356 0.27125425
v 0.01003448 0.03950356 0.27078953
v 0.00969952 0.03975659 0.27030564
v 0.00958600 0.04156252 0.27010203
v 0.00942412 0.03975659 0.26981217
v 0.00901077 0.03963019 0.26875337
v 0.00883616 0.03950356 0.26800598
v 0.00875828 0.03950356 0.26731009
v 0.01001106 0.03924825 0.26700108
v 0.01010982 0.03924825 0.26798682
v 0.01030580 0.03924825 0.26870786
v 0.01058935 0.03924825 0.26932948
v 0.01147052 0.03924825 0.26347374
v 0.01101848 0.03924825 0.26398517
v 0.01061887 0.03924825 0.26461518
v 0.01030580 0.03924825 0.26529190
v 0.01010982 0.03924825 0.26601294
v 0.00875828 0.03950356 0.26668967
v 0.00912582 0.03950356 0.26487030
v 0.00932486 0.03975659 0.26439600
v 0.00942412 0.03975659 0.26418879
v 0.00950506 0.04156252 0.26404027
v 0.00969952 0.03975659 0.26369532
v 0.01002379 0.03950356 0.26322341
v 0.01039489 0.04156252 0.26278264
v 0.01086118 0.04156252 0.27168065
v 0.01143641 0.04132285 0.27212740
v 0.01020399 0.04144269 0.27099314
v 0.00914312 0.04156252 0.26916659
v 0.00886772 0.04144269 0.26816049
v 0.00875777 0.04156252 0.26731009
v 0.00875777 0.04156252 0.26668967
v 0.00886772 0.03963019 0.26583688
v 0.00907033 0.04156252 0.26505355
v 0.00996983 0.04156252 0.26330006
v 0.00886671 0.04156252 0.26584167
f 1 2 3
f 1 3 4
f 1 4 5
f 1 5 6
f 1 6 2
f 2 7 8
f 2 8 9
f 2 9 3
f 2 6 14
f 2 14 23
f 2 23 53
f 2 53 63
f 2 63 50
f 2 50 62
f 2 62 64
f 2 64 60
f 2 60 59
f 2 59 57
f 2 57 32
f 2 32 54
f 2 54 24
f 2 24 15
f 2 15 7
f 3 9 10
f 3 10 17
f 3 17 27
f 3 27 28
f 3 28 40
f 3 40 39
f 3 39 38
f 3 38 37
f 3 37 45
f 3 45 44
f 3 44 43
f 3 43 42
f 3 42 41
f 3 41 19
f 3 19 11
f 3 11 4
f 4 11 12
f 4 12 5
f 5 13 6
f 5 12 13
f 6 13 14
f 7 15 8
f 8 15 16
f 8 16 9
f 9 16 10
f 10 16 18
f 10 18 17
f 11 19 20
f 11 20 12
f 12 20 21
f 12 21 22
f 12 22 14
f 12 14 13
f 14 22 23
f 15 24 16
f 16 24 25
f 16 25 26
f 16 26 18
f 17 18 27
f 18 28 27
f 18 26 29
f 18 29 30
f 18 30 31
f 18 31 32
f 18 32 33
f 18 33 34
f 18 34 35
f 18 35 36
f 18 36 46
f 18 46 20
f 18 20 37
f 18 37 38
f 18 38 39
f 18 39 40
f 18 40 28
f 19 41 20
f 20 42 43
f 20 43 44
f 20 44 45
f 20 45 37
f 20 46 47
f 20 47 48
f 20 48 49
f 20 49 50
f 20 50 51
f 20 51 52
f 20 52 21
f 20 41 42
f 21 52 53
f 21 53 23
f 21 23 22
f 24 54 55
f 24 55 25
f 25 55 26
f 26 55 54
f 26 54 29
f 29 54 56
f 29 56 30
f 30 56 31
f 31 56 32
f 32 57 33
f 32 56 54
f 33 57 34
f 34 57 58
f 34 58 35
f 35 58 59
f 35 59 36
f 36 59 60
f 36 60 46
f 46 60 61
f 46 61 47
f 47 62 48
f 47 61 62
f 48 62 50
f 48 50 49
f 50 63 51
f 51 63 52
f 52 63 53
f 57 59 58
f 60 64 61
f 61 64 62

