# https://github.com/mikedh/trimesh
v 0.02825000 0.08853046 0.03430663
v 0.02825000 0.08947496 0.03430641
v 0.02925000 0.08853046 0.03430663
v 0.02825000 0.08853046 0.03465125
v 0.02925000 0.08947496 0.03430641
v 0.02825000 0.08988780 0.03430641
v 0.02925000 0.08853046 0.03465125
v 0.02825000 0.08970324 0.03661048
v 0.02925000 0.08988780 0.03430641
v 0.02825000 0.08990218 0.03443384
v 0.02925000 0.08970324 0.03661048
v 0.02825000 0.08997713 0.03661048
v 0.02925000 0.08990218 0.03443384
v 0.02825000 0.08996073 0.03495392
v 0.02925000 0.08997713 0.03661048
v 0.02825000 0.09000000 0.03599996
v 0.02925000 0.08996073 0.03495392
v 0.02891660 0.08998691 0.03565083
v 0.02925000 0.09000000 0.03599996
f 1 2 5
f 1 5 3
f 1 3 7
f 1 7 4
f 1 4 8
f 1 8 12
f 1 12 16
f 1 16 14
f 1 14 10
f 1 10 6
f 1 6 2
f 2 6 9
f 2 9 5
f 3 5 9
f 3 9 13
f 3 13 17
f 3 17 19
f 3 19 15
f 3 15 11
f 3 11 7
f 4 7 11
f 4 11 8
f 6 10 13
f 6 13 9
f 8 11 15
f 8 15 12
f 10 14 17
f 10 17 13
f 12 15 19
f 12 19 16
f 14 16 18
f 14 18 17
f 16 19 18
f 17 18 19

