# https://github.com/mikedh/trimesh
v 0.02238265 0.10846292 0.01846463
v 0.02059238 0.10846292 0.01849008
v 0.02047710 0.11223315 0.01968281
v 0.02238265 0.11247514 0.01974960
v 0.02238265 0.10846292 0.05095777
v 0.02056887 0.10846292 0.05030257
v 0.02047710 0.12102347 0.02926918
v 0.02059238 0.11835895 0.02364585
v 0.02059238 0.11596862 0.02162298
v 0.02047710 0.11223315 0.04907167
v 0.02238265 0.11621962 0.02171840
v 0.02238265 0.10911425 0.05075103
v 0.02070765 0.11226404 0.04914800
v 0.02047710 0.12122813 0.03100579
v 0.02070765 0.12108268 0.02938686
v 0.02059238 0.12063345 0.02755483
v 0.02059238 0.11980835 0.02564010
v 0.02238265 0.11862541 0.02377308
v 0.02047710 0.11258713 0.04889037
v 0.02238265 0.11247514 0.04966962
v 0.02238265 0.11334529 0.04921798
v 0.02070765 0.11598535 0.04721101
v 0.02047710 0.11595188 0.04714104
v 0.02047710 0.12129764 0.03267243
v 0.02070765 0.12127576 0.03112029
v 0.02238265 0.12134527 0.02959678
v 0.02238265 0.12091406 0.02774884
v 0.02238265 0.12008381 0.02580231
v 0.02238265 0.11359887 0.04908439
v 0.02238265 0.11621962 0.04770082
v 0.02070765 0.11837698 0.04518814
v 0.02047710 0.11617972 0.04695020
v 0.02047710 0.12130794 0.03438042
v 0.02070765 0.12133884 0.03278693
v 0.02238265 0.12154093 0.03135566
v 0.02238265 0.11677827 0.04722691
v 0.02238265 0.11862541 0.04564615
v 0.02070765 0.11982766 0.04319072
v 0.02047710 0.11841044 0.04502593
v 0.02047710 0.12130022 0.03592938
v 0.02070765 0.12133884 0.03605342
v 0.02070765 0.12134527 0.03442177
v 0.02238265 0.12160271 0.03305092
v 0.02238265 0.12161301 0.03471120
v 0.02238265 0.11906177 0.04504501
v 0.02238265 0.12008381 0.04361692
v 0.02070765 0.12065276 0.04127599
v 0.02047710 0.11982894 0.04303805
v 0.02047710 0.12123972 0.03759284
v 0.02238265 0.12160271 0.03636830
v 0.02238265 0.12160529 0.03598663
v 0.02070765 0.12127576 0.03772324
v 0.02238265 0.12154093 0.03806357
v 0.02238265 0.12033224 0.04303805
v 0.02238265 0.12091406 0.04167038
v 0.02238265 0.12104407 0.04112332
v 0.02070765 0.12108268 0.03945668
v 0.02047710 0.12063473 0.04112968
v 0.02047710 0.12105308 0.03931991
v 0.02238265 0.12139161 0.03941851
v 0.02238265 0.12134527 0.03982245
f 1 2 3
f 1 3 4
f 1 4 11
f 1 11 18
f 1 18 28
f 1 28 27
f 1 27 26
f 1 26 35
f 1 35 43
f 1 43 44
f 1 44 51
f 1 51 50
f 1 50 53
f 1 53 60
f 1 60 61
f 1 61 56
f 1 56 55
f 1 55 54
f 1 54 46
f 1 46 45
f 1 45 37
f 1 37 36
f 1 36 30
f 1 30 29
f 1 29 21
f 1 21 20
f 1 20 12
f 1 12 5
f 1 5 6
f 1 6 2
f 2 6 3
f 3 7 8
f 3 8 9
f 3 9 4
f 3 6 10
f 3 10 19
f 3 19 23
f 3 23 32
f 3 32 39
f 3 39 48
f 3 48 58
f 3 58 59
f 3 59 49
f 3 49 40
f 3 40 33
f 3 33 24
f 3 24 14
f 3 14 7
f 4 9 11
f 5 12 13
f 5 13 6
f 6 13 10
f 7 14 15
f 7 15 16
f 7 16 17
f 7 17 8
f 8 18 11
f 8 11 9
f 8 17 18
f 10 13 19
f 12 20 13
f 13 20 21
f 13 21 22
f 13 22 23
f 13 23 19
f 14 24 25
f 14 25 15
f 15 25 26
f 15 26 27
f 15 27 16
f 16 27 28
f 16 28 17
f 17 28 18
f 21 29 22
f 22 30 31
f 22 31 32
f 22 32 23
f 22 29 30
f 24 33 34
f 24 34 25
f 25 34 35
f 25 35 26
f 30 36 31
f 31 36 37
f 31 37 38
f 31 38 39
f 31 39 32
f 33 40 41
f 33 41 42
f 33 42 34
f 34 43 35
f 34 42 44
f 34 44 43
f 37 45 38
f 38 46 47
f 38 47 48
f 38 48 39
f 38 45 46
f 40 49 41
f 41 50 51
f 41 51 44
f 41 44 42
f 41 49 52
f 41 52 53
f 41 53 50
f 46 54 47
f 47 54 55
f 47 55 56
f 47 56 57
f 47 57 58
f 47 58 48
f 49 59 52
f 52 59 57
f 52 57 60
f 52 60 53
f 56 61 57
f 57 61 60
f 57 59 58

