# https://github.com/mikedh/trimesh
v -0.00429690 0.11715415 0.08126797
v -0.00448000 0.11715415 0.08122270
v -0.00429690 0.11634722 0.08126797
v -0.00429690 0.11715415 0.04273203
v -0.00464782 0.11715415 0.08117742
v -0.00460624 0.11685068 0.08118874
v -0.00460624 0.11685060 0.08118874
v -0.00489525 0.11634722 0.08110951
v -0.00429690 0.11634722 0.04273203
v -0.00460698 0.11685068 0.04281126
v -0.00489525 0.11715415 0.04289049
v -0.00475820 0.11715415 0.08114724
v -0.00489525 0.11715415 0.08110951
v -0.00496294 0.11715415 0.08108688
v -0.00545986 0.11685060 0.08091333
v -0.00582738 0.11685060 0.08078505
v -0.00620161 0.11634722 0.08065300
v -0.00489525 0.11634722 0.04289049
v -0.00460698 0.11685060 0.04281126
v -0.00496294 0.11715415 0.04291312
v -0.00539591 0.11715415 0.08093596
v -0.00565509 0.11715415 0.08084541
v -0.00582738 0.11685068 0.08078505
v -0.00620161 0.11634722 0.04334700
v -0.00620161 0.11715415 0.08065300
v -0.00545986 0.11685060 0.04308667
v -0.00545986 0.11685068 0.04308667
v -0.00556689 0.11715415 0.04312440
v -0.00620161 0.11715415 0.04334700
f 1 2 3
f 1 3 9
f 1 9 4
f 1 4 11
f 1 11 20
f 1 20 28
f 1 28 29
f 1 29 25
f 1 25 22
f 1 22 21
f 1 21 14
f 1 14 13
f 1 13 12
f 1 12 5
f 1 5 2
f 2 5 6
f 2 6 7
f 2 7 3
f 3 7 8
f 3 8 17
f 3 17 24
f 3 24 18
f 3 18 9
f 4 9 19
f 4 19 10
f 4 10 11
f 5 12 7
f 5 7 6
f 7 12 8
f 8 12 13
f 8 13 14
f 8 14 15
f 8 15 16
f 8 16 17
f 9 18 19
f 10 19 18
f 10 18 11
f 11 18 20
f 14 21 15
f 15 21 16
f 16 21 22
f 16 22 23
f 16 23 25
f 16 25 17
f 17 25 29
f 17 29 24
f 18 24 26
f 18 26 20
f 20 27 28
f 20 26 27
f 22 25 23
f 24 29 27
f 24 27 26
f 27 29 28

