# https://github.com/mikedh/trimesh
v 0.00932432 0.02025000 0.06030641
v 0.00947748 0.02025000 0.06261048
v 0.00932432 0.02125000 0.06030641
v 0.01353046 0.02025000 0.06030641
v 0.00947748 0.02125000 0.06261048
v 0.01229653 0.02025000 0.06261048
v 0.01353046 0.02125000 0.06030641
v 0.01353046 0.02025000 0.06065125
v 0.01229653 0.02125000 0.06261048
v 0.01353046 0.02125000 0.06065125
f 1 2 5
f 1 5 3
f 1 3 7
f 1 7 4
f 1 4 8
f 1 8 6
f 1 6 2
f 2 6 9
f 2 9 5
f 3 5 9
f 3 9 10
f 3 10 7
f 4 7 10
f 4 10 8
f 6 8 10
f 6 10 9

