# https://github.com/mikedh/trimesh
v -0.06017177 0.10439422 0.15021552
v -0.06042566 0.10515836 0.15021595
v -0.06017177 0.10404427 0.15021552
v -0.06017177 0.10439422 0.14574734
v -0.06104469 0.10515836 0.15021595
v -0.06042566 0.10439422 0.15021595
v -0.06042566 0.10515836 0.14622548
v -0.06104446 0.10404427 0.15021552
v -0.06017177 0.10404427 0.14574734
v -0.06247705 0.10515836 0.14664325
v -0.06104469 0.10439422 0.15021595
v -0.06247705 0.10515836 0.15003310
v -0.06247705 0.10439422 0.15003310
v -0.06157029 0.10404427 0.15002304
v -0.06157029 0.10404427 0.14684579
v -0.06247705 0.10439422 0.14664325
f 1 2 6
f 1 6 3
f 1 3 9
f 1 9 4
f 1 4 7
f 1 7 2
f 2 5 11
f 2 11 6
f 2 7 10
f 2 10 12
f 2 12 5
f 3 6 11
f 3 11 8
f 3 8 14
f 3 14 15
f 3 15 9
f 4 9 16
f 4 16 10
f 4 10 7
f 5 12 13
f 5 13 11
f 8 13 14
f 8 11 13
f 9 15 16
f 10 16 13
f 10 13 12
f 13 16 15
f 13 15 14

