# https://github.com/mikedh/trimesh
v 0.02070578 0.03925474 0.27011395
v 0.02070578 0.03974989 0.27011395
v 0.02071612 0.03924999 0.27011395
v 0.01747358 0.03924999 0.27300717
v 0.01747358 0.03974989 0.27300717
v 0.03067508 0.03974989 0.27011395
v 0.02396900 0.03859485 0.27011395
v 0.01747358 0.03859485 0.27617334
v 0.01747358 0.03974989 0.28278730
v 0.03046701 0.03974989 0.27109159
v 0.03053680 0.03859485 0.27076406
v 0.03065957 0.03859485 0.27018715
v 0.03067508 0.03859485 0.27011395
v 0.01747358 0.03859485 0.28278730
v 0.01763254 0.03974989 0.28276125
v 0.03022534 0.03974989 0.27185212
v 0.03036620 0.03859485 0.27141168
v 0.03046701 0.03859485 0.27109159
v 0.01808875 0.03859485 0.28268557
v 0.01841830 0.03974989 0.28262974
v 0.02998367 0.03974989 0.27261140
v 0.02998367 0.03859485 0.27261140
v 0.01841830 0.03859485 0.28262974
v 0.01857984 0.03859485 0.28258631
v 0.01918855 0.03974989 0.28242131
v 0.02935041 0.03974989 0.27407538
v 0.02961664 0.03859485 0.27346125
v 0.01906577 0.03859485 0.28245481
v 0.01995751 0.03974989 0.28221163
v 0.02896270 0.03974989 0.27477263
v 0.02935041 0.03859485 0.27407538
v 0.01995751 0.03859485 0.28221163
v 0.02027026 0.03859485 0.28209253
v 0.02070320 0.03974989 0.28192752
v 0.02888128 0.03859485 0.27491903
v 0.02857499 0.03974989 0.27546865
v 0.02054682 0.03859485 0.28198707
v 0.02144760 0.03859485 0.28164341
v 0.02144760 0.03974989 0.28164341
v 0.02857499 0.03859485 0.27546865
v 0.02766387 0.03974989 0.27677754
v 0.02838372 0.03859485 0.27574407
v 0.02174743 0.03859485 0.28149329
v 0.02216098 0.03974989 0.28128610
v 0.02662740 0.03974989 0.27798967
v 0.02684581 0.03859485 0.27773533
v 0.02744676 0.03859485 0.27703188
v 0.02766387 0.03859485 0.27677754
v 0.02257454 0.03859485 0.28107891
v 0.02287308 0.03974989 0.28092879
v 0.02638572 0.03859485 0.27822167
v 0.02662740 0.03859485 0.27798967
v 0.02547590 0.03974989 0.27909261
v 0.02287308 0.03859485 0.28092879
v 0.02393799 0.03859485 0.28025511
v 0.02354770 0.03974989 0.28050200
v 0.02547590 0.03859485 0.27909261
v 0.02421972 0.03974989 0.28007521
v 0.02494861 0.03859485 0.27950575
v 0.02421972 0.03859485 0.28007521
v 0.02448336 0.03859485 0.27986927
f 1 2 6
f 1 6 13
f 1 13 7
f 1 7 3
f 1 3 4
f 1 4 5
f 1 5 2
f 2 5 9
f 2 9 15
f 2 15 20
f 2 20 25
f 2 25 29
f 2 29 34
f 2 34 39
f 2 39 44
f 2 44 50
f 2 50 56
f 2 56 58
f 2 58 53
f 2 53 45
f 2 45 41
f 2 41 36
f 2 36 30
f 2 30 26
f 2 26 21
f 2 21 16
f 2 16 10
f 2 10 6
f 3 7 4
f 4 8 14
f 4 14 9
f 4 9 5
f 4 7 8
f 6 10 11
f 6 11 12
f 6 12 13
f 7 13 12
f 7 12 11
f 7 11 18
f 7 18 17
f 7 17 22
f 7 22 27
f 7 27 31
f 7 31 35
f 7 35 40
f 7 40 42
f 7 42 48
f 7 48 47
f 7 47 46
f 7 46 52
f 7 52 51
f 7 51 57
f 7 57 59
f 7 59 61
f 7 61 60
f 7 60 55
f 7 55 54
f 7 54 49
f 7 49 43
f 7 43 38
f 7 38 37
f 7 37 33
f 7 33 32
f 7 32 28
f 7 28 24
f 7 24 23
f 7 23 19
f 7 19 14
f 7 14 8
f 9 14 15
f 10 16 17
f 10 17 18
f 10 18 11
f 14 19 15
f 15 19 20
f 16 21 17
f 17 21 22
f 19 23 20
f 20 23 24
f 20 24 25
f 21 26 27
f 21 27 22
f 24 28 25
f 25 28 29
f 26 30 31
f 26 31 27
f 28 32 29
f 29 32 33
f 29 33 34
f 30 35 31
f 30 36 35
f 33 37 34
f 34 37 38
f 34 38 39
f 35 36 40
f 36 41 42
f 36 42 40
f 38 43 39
f 39 43 44
f 41 45 46
f 41 46 47
f 41 47 48
f 41 48 42
f 43 49 44
f 44 49 50
f 45 51 52
f 45 52 46
f 45 53 51
f 49 54 50
f 50 54 55
f 50 55 56
f 51 53 57
f 53 58 59
f 53 59 57
f 55 60 58
f 55 58 56
f 58 60 61
f 58 61 59

