# https://github.com/mikedh/trimesh
v 0.01420507 0.10625000 0.28328527
v 0.01623020 0.10625000 0.28312253
v 0.01420507 0.10625000 0.28695911
v 0.01420507 0.11175000 0.28328527
v 0.01881178 0.10625000 0.28312253
v 0.01623020 0.11175000 0.28312253
v 0.01429886 0.10625000 0.28696252
v 0.01420507 0.11175000 0.28695911
v 0.01881178 0.10625000 0.28661543
v 0.01881178 0.11175000 0.28312253
v 0.01529677 0.10625000 0.28699780
v 0.01463120 0.10808369 0.28697428
v 0.01429886 0.11175000 0.28696252
v 0.01728989 0.10625000 0.28686845
v 0.01881178 0.11175000 0.28661543
v 0.01529677 0.11175000 0.28699780
v 0.01728989 0.11175000 0.28686845
f 1 2 5
f 1 5 9
f 1 9 14
f 1 14 11
f 1 11 7
f 1 7 3
f 1 3 8
f 1 8 4
f 1 4 6
f 1 6 2
f 2 6 10
f 2 10 5
f 3 7 13
f 3 13 8
f 4 8 13
f 4 13 16
f 4 16 17
f 4 17 15
f 4 15 10
f 4 10 6
f 5 10 15
f 5 15 9
f 7 11 12
f 7 12 13
f 9 15 17
f 9 17 14
f 11 14 17
f 11 17 16
f 11 16 12
f 12 16 13

