# https://github.com/mikedh/trimesh
v 0.08611626 0.12216289 0.03915470
v 0.08611626 0.12216289 0.04252118
v 0.08611626 0.12065855 0.04095214
v 0.07547639 0.12216289 0.04067678
v 0.08611626 0.12198059 0.04269819
v 0.08520808 0.12216289 0.04308712
v 0.08520808 0.12197838 0.04326667
v 0.08611626 0.12065855 0.04381422
v 0.07547639 0.12065855 0.04262903
v 0.07547639 0.12216289 0.04425580
v 0.08611626 0.12131280 0.04328697
v 0.08520808 0.12129483 0.04387132
v 0.08112856 0.12216289 0.04387576
v 0.08316780 0.12192199 0.04371651
v 0.08112856 0.12151026 0.04448167
v 0.08112856 0.12115494 0.04479700
v 0.08611626 0.12075795 0.04373427
v 0.08566113 0.12065855 0.04410099
v 0.07547639 0.12065855 0.04563640
v 0.07547639 0.12214787 0.04427166
v 0.07558991 0.12216289 0.04425200
v 0.08520808 0.12092729 0.04416888
v 0.08520808 0.12065855 0.04438587
v 0.08112856 0.12077297 0.04510789
v 0.08248875 0.12070184 0.04489408
v 0.08112856 0.12186559 0.04416571
v 0.07705008 0.12216289 0.04418982
v 0.07705008 0.12168874 0.04465552
v 0.07909036 0.12177709 0.04441061
v 0.07705008 0.12096557 0.04530077
v 0.07909036 0.12106026 0.04504889
v 0.07705008 0.12065855 0.04555138
v 0.07547639 0.12071745 0.04558818
v 0.07547639 0.12199517 0.04442140
v 0.07620648 0.12216289 0.04422598
v 0.08490501 0.12065855 0.04444678
v 0.08112856 0.12065855 0.04520052
v 0.07547639 0.12173748 0.04467392
v 0.07547639 0.12161953 0.04478622
v 0.07547639 0.12150158 0.04489788
v 0.07547639 0.12133650 0.04504571
v 0.07547639 0.12122268 0.04514723
v 0.07547639 0.12105746 0.04529442
f 1 2 5
f 1 5 11
f 1 11 17
f 1 17 8
f 1 8 3
f 1 3 4
f 1 4 10
f 1 10 21
f 1 21 35
f 1 35 27
f 1 27 13
f 1 13 6
f 1 6 2
f 2 6 7
f 2 7 5
f 3 8 18
f 3 18 23
f 3 23 36
f 3 36 37
f 3 37 32
f 3 32 19
f 3 19 9
f 3 9 4
f 4 9 19
f 4 19 33
f 4 33 43
f 4 43 42
f 4 42 41
f 4 41 40
f 4 40 39
f 4 39 38
f 4 38 34
f 4 34 20
f 4 20 10
f 5 7 12
f 5 12 11
f 6 13 14
f 6 14 7
f 7 14 15
f 7 15 16
f 7 16 12
f 8 17 18
f 10 20 21
f 11 12 22
f 11 22 23
f 11 23 18
f 11 18 17
f 12 16 24
f 12 24 25
f 12 25 22
f 13 26 14
f 13 27 28
f 13 28 29
f 13 29 26
f 14 26 15
f 15 26 30
f 15 30 31
f 15 31 16
f 16 31 32
f 16 32 24
f 19 32 30
f 19 30 33
f 20 34 28
f 20 28 35
f 20 35 21
f 22 25 36
f 22 36 23
f 24 32 37
f 24 37 25
f 25 37 36
f 26 29 30
f 27 35 28
f 28 34 38
f 28 38 39
f 28 39 40
f 28 40 41
f 28 41 30
f 28 30 29
f 30 41 42
f 30 42 43
f 30 43 33
f 30 32 31

