# https://github.com/mikedh/trimesh
v 0.10851890 0.10782605 0.02040621
v 0.10873337 0.10789165 0.02040621
v 0.11376069 0.10853877 0.02040633
v 0.11376069 0.10946691 0.02089388
v 0.10851890 0.11307130 0.02160960
v 0.10851890 0.11364573 0.02040621
v 0.11016286 0.10838453 0.02040621
v 0.11013823 0.11418737 0.02040621
v 0.11361292 0.11176730 0.02040633
v 0.11374941 0.11167954 0.02044850
v 0.11376069 0.11175223 0.02055652
v 0.11376069 0.11187102 0.02078845
v 0.11361703 0.11207136 0.02089388
v 0.11016286 0.11604187 0.02160559
v 0.11016286 0.11299152 0.02160960
v 0.10878930 0.11681487 0.02160960
v 0.10851890 0.11688224 0.02159440
v 0.10851890 0.11498608 0.02057960
v 0.10852198 0.11454905 0.02040704
v 0.10872106 0.11453221 0.02040621
v 0.10968363 0.11443470 0.02040621
v 0.10968363 0.11471925 0.02053190
v 0.11075343 0.11383190 0.02040633
v 0.11125524 0.11352518 0.02040633
v 0.11169189 0.11324239 0.02040633
v 0.11205311 0.11299595 0.02040633
v 0.11236404 0.11277433 0.02040633
v 0.11263342 0.11257310 0.02040633
v 0.11286739 0.11239226 0.02040633
v 0.11307674 0.11222561 0.02040633
v 0.11325735 0.11207580 0.02040633
v 0.11342975 0.11192953 0.02040633
v 0.10992427 0.11625905 0.02160960
v 0.11256826 0.11317059 0.02089388
v 0.11269910 0.11304382 0.02089388
v 0.11376069 0.11181251 0.02065523
v 0.11281352 0.11293124 0.02089388
v 0.11292281 0.11282220 0.02089388
v 0.11338973 0.11232755 0.02089388
v 0.11354365 0.11215558 0.02089388
v 0.11323118 0.11249864 0.02089388
v 0.11311111 0.11262718 0.02089388
v 0.10911512 0.11669520 0.02160960
v 0.10968363 0.11625817 0.02143326
v 0.10968363 0.11611633 0.02132630
v 0.10968363 0.11590269 0.02117753
v 0.10851890 0.11663758 0.02143090
v 0.10851890 0.11566423 0.02089435
v 0.10927418 0.11448966 0.02040621
v 0.10968363 0.11513146 0.02073203
v 0.11016286 0.11485488 0.02074617
v 0.10968363 0.11543641 0.02089541
v 0.11016286 0.11511107 0.02089388
v 0.10968363 0.11569083 0.02104348
v 0.11055589 0.11483450 0.02089388
v 0.11016286 0.11531585 0.02102145
v 0.11172267 0.11356595 0.02062001
v 0.11016286 0.11548871 0.02113924
v 0.10968363 0.11637961 0.02153232
v 0.11016286 0.11586635 0.02143726
v 0.10968003 0.11646826 0.02160889
v 0.10939783 0.11658616 0.02160960
v 0.10851890 0.11637873 0.02127282
v 0.10851890 0.11606669 0.02109849
f 1 2 3
f 1 3 4
f 1 4 5
f 1 5 17
f 1 17 47
f 1 47 63
f 1 63 64
f 1 64 48
f 1 48 18
f 1 18 6
f 1 6 20
f 1 20 49
f 1 49 21
f 1 21 8
f 1 8 7
f 1 7 2
f 2 7 3
f 3 7 8
f 3 8 9
f 3 9 10
f 3 10 11
f 3 11 36
f 3 36 12
f 3 12 4
f 4 12 13
f 4 13 14
f 4 14 15
f 4 15 5
f 5 15 33
f 5 33 62
f 5 62 43
f 5 43 16
f 5 16 17
f 6 18 19
f 6 19 20
f 8 21 22
f 8 22 23
f 8 23 24
f 8 24 25
f 8 25 26
f 8 26 27
f 8 27 28
f 8 28 29
f 8 29 30
f 8 30 31
f 8 31 32
f 8 32 9
f 9 32 33
f 9 33 14
f 9 14 10
f 10 14 34
f 10 34 35
f 10 35 11
f 11 35 37
f 11 37 38
f 11 38 36
f 12 36 39
f 12 39 40
f 12 40 13
f 13 40 14
f 14 40 39
f 14 39 41
f 14 41 42
f 14 42 38
f 14 38 37
f 14 37 35
f 14 35 34
f 14 33 15
f 16 43 44
f 16 44 45
f 16 45 17
f 17 45 46
f 17 46 47
f 18 48 22
f 18 22 21
f 18 21 49
f 18 49 20
f 18 20 19
f 22 48 50
f 22 50 23
f 23 50 24
f 24 50 51
f 24 51 25
f 25 51 52
f 25 52 53
f 25 53 26
f 26 53 54
f 26 54 55
f 26 55 27
f 27 55 56
f 27 56 46
f 27 46 57
f 27 57 28
f 28 57 58
f 28 58 45
f 28 45 29
f 29 45 44
f 29 44 30
f 30 44 59
f 30 59 31
f 31 59 60
f 31 60 32
f 32 60 33
f 33 60 61
f 33 61 62
f 36 38 42
f 36 42 41
f 36 41 39
f 43 62 44
f 44 62 59
f 45 58 46
f 46 54 47
f 46 58 57
f 46 56 54
f 47 54 63
f 48 64 50
f 50 64 52
f 50 52 51
f 52 64 63
f 52 63 54
f 52 54 53
f 54 56 55
f 59 62 61
f 59 61 60

