# https://github.com/mikedh/trimesh
v 0.00171415 0.05338060 0.36054206
v 0.00171415 0.05299973 0.36054206
v 0.00171415 0.05338060 0.35910001
v -0.01620477 0.05338060 0.36054206
v 0.00171415 0.05299973 0.35910001
v 0.00047056 0.05129637 0.36054206
v -0.01620126 0.05338060 0.35910001
v -0.01620477 0.05338060 0.35912400
v -0.01599604 0.04984657 0.36054206
v 0.00047056 0.05129637 0.35910001
v 0.00030042 0.05108708 0.36054206
v -0.01620301 0.05337922 0.35910001
v -0.01599604 0.04984657 0.35910001
v -0.00070813 0.04984657 0.36054206
v -0.00070813 0.04984657 0.35910001
f 1 2 5
f 1 5 3
f 1 3 7
f 1 7 8
f 1 8 4
f 1 4 9
f 1 9 14
f 1 14 11
f 1 11 6
f 1 6 2
f 2 6 10
f 2 10 5
f 3 5 10
f 3 10 15
f 3 15 13
f 3 13 12
f 3 12 7
f 4 8 13
f 4 13 9
f 6 11 10
f 7 12 8
f 8 12 13
f 9 13 15
f 9 15 14
f 10 11 15
f 11 14 15

