# https://github.com/mikedh/trimesh
v -0.01963924 0.11174980 0.20442569
v -0.01963924 0.11070450 0.20442569
v -0.01963924 0.11174980 0.18144623
v -0.02093869 0.11174980 0.20539137
v -0.01963924 0.11070450 0.18144623
v -0.02093869 0.11070450 0.20539137
v -0.02330945 0.11174980 0.18144623
v -0.02330945 0.11174980 0.20539137
v -0.02330945 0.11070450 0.18144623
v -0.02330945 0.11070450 0.20539137
f 1 2 5
f 1 5 3
f 1 3 7
f 1 7 8
f 1 8 4
f 1 4 6
f 1 6 2
f 2 6 10
f 2 10 9
f 2 9 5
f 3 5 9
f 3 9 7
f 4 8 10
f 4 10 6
f 7 9 10
f 7 10 8

