# https://github.com/mikedh/trimesh
v 0.08739655 0.09510123 0.04192184
v 0.08739655 0.09511024 0.04189496
v 0.08719314 0.09510123 0.04192184
v 0.08739655 0.08046036 0.04192184
v 0.08739655 0.09512076 0.04185818
v 0.08719314 0.09511024 0.04189496
v 0.08719314 0.08046036 0.04192184
v 0.08739655 0.08046036 0.03876484
v 0.08739655 0.09515079 0.04174785
v 0.08719314 0.09515079 0.04174815
v 0.08719314 0.08046036 0.03876484
v 0.08739655 0.09580099 0.03876484
v 0.08739655 0.09547214 0.04054747
v 0.08719314 0.09545412 0.04061546
v 0.08719314 0.09580099 0.03876484
v 0.08719314 0.09578147 0.03893451
v 0.08739655 0.09579348 0.03882974
v 0.08739655 0.09549766 0.04045012
v 0.08719314 0.09549766 0.04045012
v 0.08719314 0.09577546 0.03898087
v 0.08739655 0.09577546 0.03898087
v 0.08739655 0.09578447 0.03890546
v 0.08739655 0.09550517 0.04041303
v 0.08719314 0.09551268 0.04037564
v 0.08719314 0.09576495 0.03903866
v 0.08739655 0.09576195 0.03905566
v 0.08739655 0.09551268 0.04037564
v 0.08739655 0.09575744 0.03907977
f 1 2 6
f 1 6 3
f 1 3 7
f 1 7 4
f 1 4 8
f 1 8 12
f 1 12 17
f 1 17 22
f 1 22 21
f 1 21 26
f 1 26 28
f 1 28 27
f 1 27 23
f 1 23 18
f 1 18 13
f 1 13 9
f 1 9 5
f 1 5 2
f 2 5 6
f 3 6 10
f 3 10 14
f 3 14 19
f 3 19 24
f 3 24 25
f 3 25 20
f 3 20 16
f 3 16 15
f 3 15 11
f 3 11 7
f 4 7 11
f 4 11 8
f 5 9 10
f 5 10 6
f 8 11 15
f 8 15 12
f 9 13 14
f 9 14 10
f 12 15 16
f 12 16 17
f 13 18 19
f 13 19 14
f 16 20 21
f 16 21 22
f 16 22 17
f 18 23 19
f 19 23 24
f 20 25 26
f 20 26 21
f 23 27 24
f 24 27 28
f 24 28 25
f 25 28 26

