# https://github.com/mikedh/trimesh
v 0.03578707 0.02524133 0.09441388
v 0.03578707 0.02421114 0.09441388
v 0.03578707 0.02524133 0.08827998
v 0.03469371 0.02524133 0.09692147
v 0.03578707 0.02421114 0.08827998
v 0.03469371 0.02421114 0.09692147
v 0.03090406 0.02524133 0.08292426
v 0.03056024 0.02524133 0.09692147
v 0.03100741 0.02421114 0.08303824
v 0.03056024 0.02421114 0.09692147
v 0.03056024 0.02421114 0.08254854
v 0.03056024 0.02524133 0.08254854
f 1 2 5
f 1 5 3
f 1 3 7
f 1 7 12
f 1 12 8
f 1 8 4
f 1 4 6
f 1 6 2
f 2 6 10
f 2 10 11
f 2 11 9
f 2 9 5
f 3 5 7
f 4 8 10
f 4 10 6
f 5 9 7
f 7 9 11
f 7 11 12
f 8 12 11
f 8 11 10

