# https://github.com/mikedh/trimesh
v -0.01525000 0.06848298 0.29967460
v -0.01708369 0.06837861 0.29969456
v -0.01525000 0.06779372 0.29980366
v -0.01525000 0.06848298 0.29564847
v -0.02075000 0.06848298 0.29967460
v -0.02075000 0.06779372 0.29980366
v -0.01525000 0.06601840 0.29997389
v -0.01891631 0.06720195 0.29986054
v -0.01525000 0.06694500 0.29564847
v -0.02075000 0.06848298 0.29564847
v -0.02075000 0.06601840 0.29997389
v -0.01708369 0.06482956 0.29998153
v -0.01525000 0.06423514 0.29998493
v -0.01891631 0.06542451 0.29997771
v -0.01525000 0.06307120 0.29566418
v -0.02075000 0.06694500 0.29564847
v -0.02075000 0.06423514 0.29998493
v -0.01525000 0.06334616 0.29991149
v -0.01891631 0.06364284 0.29993611
v -0.01525000 0.06307120 0.29988856
v -0.02075000 0.06307120 0.29566418
v -0.02075000 0.06334616 0.29991149
v -0.02075000 0.06307120 0.29988856
f 1 2 3
f 1 3 7
f 1 7 13
f 1 13 18
f 1 18 20
f 1 20 15
f 1 15 9
f 1 9 4
f 1 4 10
f 1 10 5
f 1 5 2
f 2 5 6
f 2 6 3
f 3 6 8
f 3 8 7
f 4 9 16
f 4 16 10
f 5 10 16
f 5 16 21
f 5 21 23
f 5 23 22
f 5 22 17
f 5 17 11
f 5 11 6
f 6 11 8
f 7 12 13
f 7 8 11
f 7 11 14
f 7 14 12
f 9 15 21
f 9 21 16
f 11 17 14
f 12 14 17
f 12 17 13
f 13 17 19
f 13 19 18
f 15 20 23
f 15 23 21
f 17 22 19
f 18 19 22
f 18 22 23
f 18 23 20

