# https://github.com/mikedh/trimesh
v 0.08360000 0.09095551 0.03463501
v 0.08441489 0.08801966 0.03422941
v 0.08441489 0.08801223 0.03423066
v 0.08360000 0.09095551 0.03531441
v 0.08360000 0.09307427 0.03463501
v 0.08528659 0.08801223 0.03422941
v 0.08441489 0.09284783 0.03422941
v 0.08441489 0.08801223 0.03550084
v 0.08360000 0.09307427 0.03536183
v 0.08411141 0.09307427 0.03463501
v 0.08540780 0.08803056 0.03422941
v 0.08540780 0.08801223 0.03423003
v 0.08540780 0.09284783 0.03422941
v 0.08540780 0.08801223 0.03550084
v 0.08441489 0.09085393 0.03550084
v 0.08411141 0.09307427 0.03536183
v 0.08540780 0.09284783 0.03508218
v 0.08540780 0.09085393 0.03550084
f 1 2 3
f 1 3 8
f 1 8 4
f 1 4 9
f 1 9 5
f 1 5 7
f 1 7 2
f 2 6 3
f 2 7 13
f 2 13 11
f 2 11 6
f 3 6 12
f 3 12 14
f 3 14 8
f 4 8 9
f 5 9 16
f 5 16 10
f 5 10 13
f 5 13 7
f 6 11 12
f 8 14 18
f 8 18 15
f 8 15 9
f 9 15 18
f 9 18 16
f 10 16 17
f 10 17 13
f 11 13 17
f 11 17 18
f 11 18 14
f 11 14 12
f 16 18 17

