# https://github.com/mikedh/trimesh
v -0.04852588 0.03319617 0.15806573
v -0.04889261 0.03319617 0.15814921
v -0.04891011 0.03296344 0.15815360
v -0.04852588 0.03296344 0.15806573
v -0.04852588 0.03319617 0.15263773
v -0.04891503 0.03319617 0.15815415
v -0.04892542 0.03319617 0.15815580
v -0.04892624 0.03296344 0.15815580
v -0.04904575 0.03275001 0.15817117
v -0.04904575 0.03273031 0.15689929
v -0.04852588 0.03296344 0.15263773
v -0.04892679 0.03319617 0.15263773
v -0.04953335 0.03319617 0.15823213
v -0.04904575 0.03296340 0.15817117
v -0.04953335 0.03296344 0.15823213
v -0.04953307 0.03275001 0.15823158
v -0.04962797 0.03273031 0.15698167
v -0.04913353 0.03273031 0.15691961
v -0.04913107 0.03273031 0.15691906
v -0.04904575 0.03273031 0.15280742
v -0.05095677 0.03273031 0.15280248
v -0.04892679 0.03296344 0.15263773
v -0.05095677 0.03296340 0.15280248
v -0.05131966 0.03319617 0.15320118
v -0.04954401 0.03319617 0.15823268
v -0.04954483 0.03296344 0.15823268
v -0.05015549 0.03275001 0.15824806
v -0.05012240 0.03273031 0.15699375
v -0.05095677 0.03273031 0.15689765
v -0.05131966 0.03296344 0.15320118
v -0.05131966 0.03319617 0.15810472
v -0.05015549 0.03319617 0.15824806
v -0.05075494 0.03296344 0.15820303
v -0.05077709 0.03275001 0.15820083
v -0.05062204 0.03273031 0.15695641
v -0.05012514 0.03273031 0.15699375
v -0.05086707 0.03273031 0.15691357
v -0.05095677 0.03275001 0.15816953
v -0.05131966 0.03296344 0.15810472
v -0.05095677 0.03296340 0.15816953
v -0.05078749 0.03319617 0.15819863
v -0.05075358 0.03319617 0.15820303
v -0.05077709 0.03296340 0.15820083
v -0.05078776 0.03296340 0.15819918
v -0.05077709 0.03319617 0.15820028
f 1 2 3
f 1 3 4
f 1 4 11
f 1 11 5
f 1 5 12
f 1 12 24
f 1 24 31
f 1 31 41
f 1 41 45
f 1 45 42
f 1 42 32
f 1 32 25
f 1 25 13
f 1 13 7
f 1 7 6
f 1 6 2
f 2 6 3
f 3 6 7
f 3 7 8
f 3 8 9
f 3 9 4
f 4 10 20
f 4 20 11
f 4 9 10
f 5 11 22
f 5 22 12
f 7 13 14
f 7 14 9
f 7 9 8
f 9 14 13
f 9 13 15
f 9 15 16
f 9 16 17
f 9 17 18
f 9 18 19
f 9 19 10
f 10 19 18
f 10 18 17
f 10 17 28
f 10 28 36
f 10 36 35
f 10 35 37
f 10 37 29
f 10 29 21
f 10 21 20
f 11 20 21
f 11 21 22
f 12 22 21
f 12 21 23
f 12 23 24
f 13 25 15
f 15 25 26
f 15 26 16
f 16 26 27
f 16 27 17
f 17 27 28
f 21 29 39
f 21 39 30
f 21 30 24
f 21 24 23
f 24 30 39
f 24 39 31
f 25 32 27
f 25 27 26
f 27 32 33
f 27 33 34
f 27 34 35
f 27 35 36
f 27 36 28
f 29 37 38
f 29 38 39
f 31 40 41
f 31 39 38
f 31 38 40
f 32 42 33
f 33 42 43
f 33 43 34
f 34 43 44
f 34 44 38
f 34 38 35
f 35 38 37
f 38 44 40
f 40 44 41
f 41 44 45
f 42 45 43
f 43 45 44

