# https://github.com/mikedh/trimesh
v 0.01025027 0.03859485 0.25176848
v 0.01025027 0.03859485 0.25876730
v 0.01025027 0.03974989 0.25176848
v 0.02017443 0.03859485 0.25176848
v 0.01025027 0.03924993 0.26033340
v 0.02176425 0.03859485 0.26033340
v 0.01025027 0.03974989 0.26033340
v 0.02016310 0.03974989 0.25176848
v 0.02017443 0.03974604 0.25176848
v 0.02171705 0.03859485 0.25248027
v 0.02953591 0.03859485 0.26033340
v 0.02953591 0.03974989 0.26033340
v 0.02171705 0.03974989 0.25248027
v 0.02186621 0.03859485 0.25255740
v 0.02947927 0.03859485 0.26019171
v 0.02947927 0.03974989 0.26019171
v 0.02242322 0.03974989 0.25284999
v 0.02257239 0.03859485 0.25292796
v 0.02918283 0.03859485 0.25963587
v 0.02872778 0.03974989 0.25878407
v 0.02312939 0.03974989 0.25322056
v 0.02312939 0.03859485 0.25322056
v 0.02880709 0.03859485 0.25893246
v 0.02872778 0.03859485 0.25878407
v 0.02854274 0.03859485 0.25850572
v 0.02793664 0.03859485 0.25759776
v 0.02784223 0.03974989 0.25745858
v 0.02446243 0.03974989 0.25409834
v 0.02418299 0.03859485 0.25391390
v 0.02784223 0.03859485 0.25745858
v 0.02725502 0.03859485 0.25674428
v 0.02683018 0.03974989 0.25622784
v 0.02569918 0.03974989 0.25510441
v 0.02446243 0.03859485 0.25409834
v 0.02683018 0.03859485 0.25622784
v 0.02569918 0.03859485 0.25510441
f 1 2 5
f 1 5 7
f 1 7 3
f 1 3 8
f 1 8 9
f 1 9 4
f 1 4 10
f 1 10 14
f 1 14 18
f 1 18 22
f 1 22 29
f 1 29 34
f 1 34 36
f 1 36 35
f 1 35 31
f 1 31 30
f 1 30 26
f 1 26 25
f 1 25 24
f 1 24 23
f 1 23 19
f 1 19 15
f 1 15 11
f 1 11 6
f 1 6 2
f 2 6 5
f 3 7 12
f 3 12 16
f 3 16 20
f 3 20 27
f 3 27 32
f 3 32 33
f 3 33 28
f 3 28 21
f 3 21 17
f 3 17 13
f 3 13 8
f 4 9 13
f 4 13 10
f 5 6 11
f 5 11 12
f 5 12 7
f 8 13 9
f 10 13 14
f 11 15 16
f 11 16 12
f 13 17 14
f 14 17 21
f 14 21 18
f 15 19 16
f 16 19 20
f 18 21 22
f 19 23 20
f 20 24 25
f 20 25 26
f 20 26 27
f 20 23 24
f 21 28 29
f 21 29 22
f 26 30 27
f 27 30 31
f 27 31 32
f 28 33 36
f 28 36 34
f 28 34 29
f 31 35 32
f 32 35 36
f 32 36 33

