# https://github.com/mikedh/trimesh
v -0.02222536 0.10987806 0.21508838
v -0.02222536 0.10987806 0.22552614
v -0.02222536 0.11070450 0.21508838
v -0.00056071 0.10987806 0.21508838
v -0.02222536 0.11070450 0.22552614
v -0.01992440 0.10987806 0.22959530
v -0.00056071 0.11070450 0.21508838
v 0.00764320 0.10987806 0.22959530
v -0.01992440 0.11070450 0.22959530
v 0.00764320 0.11070450 0.22959530
f 1 2 5
f 1 5 3
f 1 3 7
f 1 7 4
f 1 4 8
f 1 8 6
f 1 6 2
f 2 6 9
f 2 9 5
f 3 5 9
f 3 9 10
f 3 10 7
f 4 7 10
f 4 10 8
f 6 8 10
f 6 10 9

