# https://github.com/mikedh/trimesh
v -0.05678475 0.10274811 0.13785675
v -0.05877468 0.10274811 0.13716454
v -0.05678475 0.10225005 0.13785675
v -0.05678475 0.10274811 0.13320434
v -0.05877468 0.10225005 0.13716454
v -0.05877468 0.10274811 0.13405139
v -0.05678475 0.10225005 0.13320434
v -0.05739852 0.10274811 0.13344525
v -0.05877468 0.10225005 0.13405139
v -0.05822558 0.10274811 0.13376995
v -0.05822558 0.10225005 0.13376995
v -0.05817124 0.10274811 0.13374855
f 1 2 5
f 1 5 3
f 1 3 7
f 1 7 4
f 1 4 8
f 1 8 12
f 1 12 10
f 1 10 6
f 1 6 2
f 2 6 9
f 2 9 5
f 3 5 9
f 3 9 11
f 3 11 7
f 4 7 8
f 6 10 11
f 6 11 9
f 7 11 12
f 7 12 8
f 10 12 11

