# https://github.com/mikedh/trimesh
v -0.02859006 0.04475020 0.17002096
v -0.02859006 0.04675000 0.17002096
v -0.02872089 0.04475020 0.17041041
v -0.03813685 0.04475020 0.17014996
v -0.02872089 0.04675000 0.17041041
v -0.03813685 0.04675000 0.17014996
v -0.02886293 0.04475020 0.17075135
v -0.03785464 0.04475020 0.17084274
v -0.02886293 0.04675000 0.17075135
v -0.03785464 0.04675000 0.17084274
v -0.02903581 0.04475020 0.17107683
v -0.03761447 0.04475020 0.17127156
v -0.03783595 0.04541693 0.17087929
v -0.02903581 0.04675000 0.17107683
v -0.03761447 0.04675000 0.17127156
v -0.02936662 0.04475020 0.17159457
v -0.03741075 0.04475020 0.17157911
v -0.02936662 0.04675000 0.17159457
v -0.03741075 0.04675000 0.17157911
v -0.02967874 0.04475020 0.17197383
v -0.03709957 0.04475020 0.17195977
v -0.03730702 0.04608307 0.17170635
v -0.02967874 0.04675000 0.17197383
v -0.03709957 0.04675000 0.17195977
v -0.03002637 0.04475020 0.17232180
v -0.03675380 0.04475020 0.17230880
v -0.03002637 0.04675000 0.17232180
v -0.03675380 0.04675000 0.17230880
v -0.03031140 0.04475020 0.17255590
v -0.03637440 0.04475020 0.17262233
v -0.03031140 0.04675000 0.17255590
v -0.03637440 0.04675000 0.17262233
v -0.03067959 0.04608307 0.17281565
v -0.03071416 0.04475020 0.17283849
v -0.03596696 0.04475020 0.17289684
v -0.03071416 0.04675000 0.17283849
v -0.03596696 0.04675000 0.17289684
v -0.03096087 0.04608307 0.17298401
v -0.03124963 0.04475020 0.17313831
v -0.03553335 0.04475020 0.17313023
v -0.03124963 0.04675000 0.17313831
v -0.03553335 0.04675000 0.17313023
v -0.03155240 0.04608307 0.17326344
v -0.03170473 0.04475020 0.17332601
v -0.03496238 0.04475020 0.17335588
v -0.03170473 0.04675000 0.17332601
v -0.03496238 0.04675000 0.17335588
v -0.03201778 0.04541693 0.17342091
v -0.03217571 0.04475020 0.17346836
v -0.03448859 0.04475020 0.17348804
v -0.03217571 0.04675000 0.17346836
v -0.03448859 0.04675000 0.17348804
v -0.03265791 0.04475020 0.17356361
v -0.03400452 0.04475020 0.17357310
v -0.03428767 0.04541693 0.17352847
v -0.03265791 0.04675000 0.17356361
v -0.03400452 0.04675000 0.17357310
v -0.03314759 0.04475020 0.17361142
v -0.03363726 0.04475020 0.17361036
v -0.03314759 0.04675000 0.17361142
v -0.03363726 0.04675000 0.17361036
f 1 2 5
f 1 5 3
f 1 3 7
f 1 7 11
f 1 11 16
f 1 16 20
f 1 20 25
f 1 25 29
f 1 29 34
f 1 34 39
f 1 39 44
f 1 44 49
f 1 49 53
f 1 53 58
f 1 58 59
f 1 59 54
f 1 54 50
f 1 50 45
f 1 45 40
f 1 40 35
f 1 35 30
f 1 30 26
f 1 26 21
f 1 21 17
f 1 17 12
f 1 12 8
f 1 8 4
f 1 4 6
f 1 6 2
f 2 6 10
f 2 10 15
f 2 15 19
f 2 19 24
f 2 24 28
f 2 28 32
f 2 32 37
f 2 37 42
f 2 42 47
f 2 47 52
f 2 52 57
f 2 57 61
f 2 61 60
f 2 60 56
f 2 56 51
f 2 51 46
f 2 46 41
f 2 41 36
f 2 36 31
f 2 31 27
f 2 27 23
f 2 23 18
f 2 18 14
f 2 14 9
f 2 9 5
f 3 5 9
f 3 9 7
f 4 8 10
f 4 10 6
f 7 9 14
f 7 14 11
f 8 12 13
f 8 13 10
f 10 13 15
f 11 14 18
f 11 18 16
f 12 17 19
f 12 19 15
f 12 15 13
f 16 18 23
f 16 23 20
f 17 21 22
f 17 22 19
f 19 22 24
f 20 23 27
f 20 27 25
f 21 26 28
f 21 28 24
f 21 24 22
f 25 27 31
f 25 31 29
f 26 30 32
f 26 32 28
f 29 33 34
f 29 31 33
f 30 35 37
f 30 37 32
f 31 36 33
f 33 36 34
f 34 36 38
f 34 38 39
f 35 40 42
f 35 42 37
f 36 41 38
f 38 41 39
f 39 41 43
f 39 43 44
f 40 45 47
f 40 47 42
f 41 46 43
f 43 46 44
f 44 46 48
f 44 48 49
f 45 50 52
f 45 52 47
f 46 51 48
f 48 51 49
f 49 51 56
f 49 56 53
f 50 54 55
f 50 55 52
f 52 55 57
f 53 56 60
f 53 60 58
f 54 59 61
f 54 61 57
f 54 57 55
f 58 60 61
f 58 61 59

