# https://github.com/mikedh/trimesh
v -0.04099922 0.06498505 0.36199157
v -0.04099922 0.06500061 0.36199157
v -0.04099922 0.06500061 0.36141127
v -0.04098055 0.06456928 0.36141127
v -0.04095643 0.06402677 0.36199157
v -0.04098833 0.06525408 0.36199157
v -0.04098522 0.06532856 0.36141127
v -0.04093465 0.06354208 0.36141127
v -0.04092921 0.06342202 0.36199157
v -0.04097822 0.06548753 0.36199157
v -0.04091287 0.06694829 0.36199157
v -0.04091987 0.06678709 0.36141127
v -0.04091598 0.06312742 0.36141127
v -0.04091987 0.06321524 0.36199157
v -0.04090742 0.06705390 0.36199157
v -0.04090742 0.06705390 0.36141127
v -0.04090742 0.06294733 0.36141127
v -0.04090742 0.06294733 0.36199157
v -0.04087397 0.06730514 0.36199157
v -0.04086386 0.06737962 0.36141127
v -0.04090275 0.06291064 0.36141127
v -0.04090275 0.06291286 0.36199157
v -0.04090275 0.06291064 0.36189830
v -0.04084285 0.06753748 0.36199157
v -0.04074872 0.06823562 0.36141127
v -0.03305244 0.06291064 0.36141127
v -0.04085219 0.06291064 0.36199157
v -0.04081174 0.06776871 0.36199157
v -0.04067248 0.06879925 0.36199157
v -0.04063514 0.06907494 0.36199157
v -0.04063280 0.06909051 0.36141127
v -0.03305244 0.06291064 0.36199157
v -0.03305244 0.07426763 0.36141127
v -0.04063280 0.06909051 0.36199157
v -0.04059313 0.06926615 0.36141127
v -0.03305244 0.07426763 0.36199157
v -0.03902711 0.07426763 0.36141127
v -0.04057368 0.06935175 0.36199157
v -0.04052778 0.06955408 0.36199157
v -0.04027339 0.07067355 0.36141127
v -0.03902711 0.07426763 0.36199157
v -0.03937563 0.07344832 0.36141127
v -0.04020104 0.07099149 0.36199157
v -0.04023683 0.07083363 0.36141127
v -0.03950944 0.07313371 0.36141127
v -0.03950322 0.07314817 0.36199157
v -0.04018082 0.07107932 0.36199157
v -0.04017692 0.07109488 0.36141127
v -0.03954445 0.07305034 0.36141127
v -0.03954445 0.07305034 0.36199157
v -0.04017692 0.07109488 0.36199157
v -0.04002756 0.07155845 0.36199157
v -0.04007657 0.07140615 0.36141127
v -0.03962691 0.07279576 0.36141127
v -0.03968215 0.07262567 0.36199157
v -0.03999411 0.07166184 0.36141127
f 1 2 3
f 1 3 4
f 1 4 5
f 1 5 9
f 1 9 14
f 1 14 18
f 1 18 22
f 1 22 27
f 1 27 32
f 1 32 36
f 1 36 41
f 1 41 46
f 1 46 50
f 1 50 55
f 1 55 52
f 1 52 51
f 1 51 47
f 1 47 43
f 1 43 39
f 1 39 38
f 1 38 34
f 1 34 30
f 1 30 29
f 1 29 28
f 1 28 24
f 1 24 19
f 1 19 15
f 1 15 11
f 1 11 10
f 1 10 6
f 1 6 2
f 2 6 7
f 2 7 3
f 3 7 12
f 3 12 16
f 3 16 20
f 3 20 25
f 3 25 31
f 3 31 35
f 3 35 40
f 3 40 44
f 3 44 48
f 3 48 53
f 3 53 56
f 3 56 54
f 3 54 49
f 3 49 45
f 3 45 42
f 3 42 37
f 3 37 33
f 3 33 26
f 3 26 21
f 3 21 17
f 3 17 13
f 3 13 8
f 3 8 4
f 4 8 5
f 5 8 9
f 6 10 7
f 7 10 11
f 7 11 12
f 8 13 9
f 9 13 14
f 11 15 16
f 11 16 12
f 13 17 18
f 13 18 14
f 15 19 16
f 16 19 20
f 17 21 23
f 17 23 18
f 18 23 22
f 19 24 20
f 20 24 25
f 21 26 32
f 21 32 27
f 21 27 23
f 22 23 27
f 24 28 25
f 25 28 29
f 25 29 30
f 25 30 31
f 26 33 36
f 26 36 32
f 30 34 31
f 31 34 35
f 33 37 41
f 33 41 36
f 34 38 35
f 35 38 39
f 35 39 40
f 37 42 41
f 39 43 40
f 40 43 44
f 41 42 45
f 41 45 46
f 43 47 48
f 43 48 44
f 45 49 50
f 45 50 46
f 47 51 48
f 48 51 52
f 48 52 53
f 49 54 55
f 49 55 50
f 52 55 56
f 52 56 53
f 54 56 55

