# https://github.com/mikedh/trimesh
v -0.06775919 0.07230597 0.01891873
v -0.06666909 0.06906174 0.01930741
v -0.06775919 0.07230597 0.01902056
v -0.06775767 0.07230597 0.01885842
v -0.06775540 0.07230597 0.01878340
v -0.06774933 0.07230597 0.01868206
v -0.06616917 0.06757646 0.01953199
v -0.06775843 0.07230597 0.01942052
v -0.06773871 0.07230597 0.01856406
v -0.06553499 0.06574549 0.01966977
v -0.06567078 0.06613693 0.01965506
v -0.06612062 0.06744005 0.01966977
v -0.06625717 0.06784335 0.01966977
v -0.06737534 0.07117400 0.01966977
v -0.06775464 0.07230597 0.01950371
v -0.06771823 0.07230597 0.01840568
v -0.06517086 0.06473130 0.01966977
v -0.06741251 0.07128754 0.01966977
v -0.06774098 0.07230597 0.01966977
v -0.06744134 0.07137566 0.01966977
v -0.06751947 0.07161459 0.01966977
v -0.06769547 0.07230597 0.01827051
v -0.06510714 0.06455761 0.01966977
v -0.06400414 0.07230597 0.01966977
v -0.06767498 0.07230597 0.01817489
v -0.06498880 0.06423903 0.01966977
v -0.06502445 0.06433477 0.01966977
v -0.06001089 0.07230597 0.01848789
v -0.06240578 0.06365017 0.01966977
v -0.06001089 0.06365017 0.01921016
v -0.06765450 0.07230597 0.01809235
v -0.06517086 0.06483975 0.01948312
v -0.06496832 0.06418480 0.01966977
v -0.06001089 0.07230597 0.01800000
v -0.06476046 0.06365017 0.01966977
v -0.06001089 0.06365017 0.01800000
v -0.06762340 0.07230597 0.01802158
v -0.06716824 0.07111131 0.01806718
v -0.06464895 0.06365017 0.01928486
v -0.06517086 0.06498887 0.01927930
v -0.06517086 0.06495074 0.01932702
v -0.06517086 0.06491516 0.01937491
v -0.06517086 0.06488042 0.01942297
v -0.06492280 0.06406449 0.01966977
v -0.06716824 0.07124857 0.01800000
v -0.06346554 0.06365017 0.01800000
v -0.06633758 0.06924899 0.01800000
v -0.06448206 0.06365017 0.01893165
v -0.06453516 0.06365017 0.01902988
v -0.06456398 0.06365017 0.01908807
v -0.06459509 0.06365441 0.01915230
v -0.06462315 0.06365017 0.01922160
v -0.06357629 0.06365017 0.01804593
v -0.06400414 0.06436951 0.01800000
v -0.06520196 0.06679357 0.01800000
v -0.06419683 0.06365017 0.01852663
v -0.06430986 0.06365017 0.01866457
v -0.06438268 0.06365017 0.01876869
v -0.06363471 0.06365017 0.01807568
v -0.06400414 0.06409245 0.01811703
v -0.06400414 0.06381624 0.01823389
v -0.06400414 0.06365017 0.01831366
v -0.06375987 0.06365017 0.01815299
v -0.06391311 0.06365017 0.01824779
f 1 2 3
f 1 3 8
f 1 8 15
f 1 15 19
f 1 19 24
f 1 24 28
f 1 28 34
f 1 34 37
f 1 37 31
f 1 31 25
f 1 25 22
f 1 22 16
f 1 16 9
f 1 9 6
f 1 6 5
f 1 5 4
f 1 4 2
f 2 4 5
f 2 5 6
f 2 6 7
f 2 7 8
f 2 8 3
f 6 9 7
f 7 9 10
f 7 10 11
f 7 11 12
f 7 12 13
f 7 13 8
f 8 13 14
f 8 14 15
f 9 16 10
f 10 12 11
f 10 16 17
f 10 17 23
f 10 23 27
f 10 27 26
f 10 26 33
f 10 33 44
f 10 44 35
f 10 35 29
f 10 29 24
f 10 24 19
f 10 19 21
f 10 21 20
f 10 20 18
f 10 18 14
f 10 14 13
f 10 13 12
f 14 18 15
f 15 18 20
f 15 20 21
f 15 21 19
f 16 22 17
f 17 22 23
f 22 25 26
f 22 26 27
f 22 27 23
f 24 29 30
f 24 30 28
f 25 31 32
f 25 32 26
f 26 32 33
f 28 30 36
f 28 36 34
f 29 35 39
f 29 39 52
f 29 52 50
f 29 50 49
f 29 49 48
f 29 48 58
f 29 58 57
f 29 57 56
f 29 56 62
f 29 62 64
f 29 64 63
f 29 63 59
f 29 59 53
f 29 53 46
f 29 46 36
f 29 36 30
f 31 37 38
f 31 38 39
f 31 39 40
f 31 40 41
f 31 41 42
f 31 42 43
f 31 43 32
f 32 43 44
f 32 44 33
f 34 36 46
f 34 46 54
f 34 54 55
f 34 55 47
f 34 47 45
f 34 45 37
f 35 44 42
f 35 42 39
f 37 45 38
f 38 45 47
f 38 47 48
f 38 48 49
f 38 49 50
f 38 50 51
f 38 51 52
f 38 52 39
f 39 42 41
f 39 41 40
f 42 44 43
f 46 53 54
f 47 55 56
f 47 56 57
f 47 57 58
f 47 58 48
f 50 52 51
f 53 59 54
f 54 59 60
f 54 60 55
f 55 60 61
f 55 61 62
f 55 62 56
f 59 63 60
f 60 63 64
f 60 64 61
f 61 64 62

