# https://github.com/mikedh/trimesh
v -0.03532341 0.10609115 0.10891273
v -0.03349724 0.10609115 0.10994741
v -0.03532341 0.10806486 0.10891273
v -0.02651503 0.10609115 0.10891273
v -0.03130894 0.10609115 0.11118716
v -0.03130894 0.10806486 0.11118716
v -0.02651503 0.10806486 0.10891273
v -0.02651503 0.10609115 0.10923202
v -0.02750313 0.10609115 0.11118716
v -0.02750226 0.10806486 0.11118716
v -0.02651503 0.10806486 0.10923180
v -0.02651503 0.10655366 0.10923202
f 1 2 3
f 1 3 7
f 1 7 4
f 1 4 8
f 1 8 9
f 1 9 5
f 1 5 2
f 2 5 6
f 2 6 3
f 3 6 10
f 3 10 11
f 3 11 7
f 4 7 11
f 4 11 12
f 4 12 8
f 5 9 10
f 5 10 6
f 8 10 9
f 8 12 10
f 10 12 11

