# https://github.com/mikedh/trimesh
v 0.03475000 0.07600569 0.01875940
v 0.03475000 0.07600569 0.01154648
v 0.03424796 0.07600569 0.01875940
v 0.03475000 0.05938975 0.01875940
v 0.03475000 0.05961299 0.01154648
v 0.03424757 0.06942195 0.01154506
v 0.03424766 0.07600569 0.01154648
v 0.03424766 0.07600569 0.01875729
v 0.03374148 0.06942195 0.01646692
v 0.03424766 0.07436475 0.01875940
v 0.03424766 0.05938975 0.01875940
v 0.03374148 0.05898827 0.01646692
v 0.03475000 0.05938975 0.01649941
v 0.03474941 0.05958300 0.01154648
v 0.03424757 0.05941141 0.01154506
v 0.03374148 0.06942195 0.01154506
v 0.03374148 0.05898827 0.01154506
f 1 2 7
f 1 7 8
f 1 8 3
f 1 3 10
f 1 10 11
f 1 11 4
f 1 4 13
f 1 13 5
f 1 5 2
f 2 5 15
f 2 15 6
f 2 6 16
f 2 16 7
f 3 8 9
f 3 9 10
f 4 11 12
f 4 12 17
f 4 17 13
f 5 13 14
f 5 14 15
f 6 15 17
f 6 17 16
f 7 16 9
f 7 9 8
f 9 16 17
f 9 17 12
f 9 12 11
f 9 11 10
f 13 17 14
f 14 17 15

