# https://github.com/mikedh/trimesh
v -0.00014541 0.06291131 0.36141126
v -0.00000236 0.06291064 0.36054206
v -0.00014541 0.06291131 0.36199157
v -0.00014541 0.06364918 0.36141126
v -0.00000236 0.06291064 0.36141126
v -0.00000236 0.06361122 0.36054206
v 0.00171378 0.06291064 0.36054206
v 0.00171378 0.06291131 0.36199157
v -0.00014541 0.06364918 0.36199157
v -0.00012121 0.06633695 0.36141126
v -0.00000218 0.06374973 0.36054206
v 0.00171378 0.06291064 0.36141126
v 0.00171378 0.06971397 0.36054206
v 0.00171378 0.06633695 0.36199157
v -0.00012121 0.06633695 0.36199157
v 0.00028995 0.06971397 0.36054206
v 0.00171378 0.06971397 0.36141126
v 0.00028995 0.06971397 0.36141126
f 1 2 5
f 1 5 3
f 1 3 9
f 1 9 4
f 1 4 6
f 1 6 2
f 2 6 11
f 2 11 16
f 2 16 13
f 2 13 7
f 2 7 12
f 2 12 5
f 3 8 14
f 3 14 15
f 3 15 9
f 3 5 12
f 3 12 8
f 4 9 15
f 4 15 10
f 4 10 11
f 4 11 6
f 7 13 17
f 7 17 14
f 7 14 8
f 7 8 12
f 10 15 18
f 10 18 16
f 10 16 11
f 13 16 18
f 13 18 17
f 14 17 18
f 14 18 15

