# https://github.com/mikedh/trimesh
v -0.01206937 0.07036501 0.35674619
v -0.01028897 0.06713320 0.35674619
v -0.01206937 0.07036501 0.35800279
v -0.01206937 0.08616273 0.35674619
v -0.01028897 0.06713320 0.35800279
v -0.00745768 0.06713320 0.35674619
v -0.01206937 0.08616273 0.35800279
v -0.01130105 0.08594851 0.35727277
v -0.01120129 0.08592057 0.35674619
v -0.00745768 0.06713320 0.35800279
v -0.00745768 0.08430001 0.35674619
v -0.01120129 0.08592057 0.35800279
v -0.01070834 0.08573616 0.35674619
v -0.00745768 0.08430001 0.35800279
v -0.00757504 0.08437079 0.35674619
v -0.01018695 0.08554058 0.35800279
v -0.01040544 0.08562254 0.35727277
v -0.00935363 0.08522764 0.35674619
v -0.00757504 0.08437079 0.35800279
v -0.00923717 0.08517176 0.35674619
v -0.00854108 0.08483647 0.35727277
v -0.00935363 0.08522764 0.35800279
f 1 2 5
f 1 5 3
f 1 3 7
f 1 7 4
f 1 4 9
f 1 9 13
f 1 13 18
f 1 18 20
f 1 20 15
f 1 15 11
f 1 11 6
f 1 6 2
f 2 6 10
f 2 10 5
f 3 5 10
f 3 10 14
f 3 14 19
f 3 19 22
f 3 22 16
f 3 16 12
f 3 12 7
f 4 7 8
f 4 8 9
f 6 11 14
f 6 14 10
f 7 12 8
f 8 12 9
f 9 12 13
f 11 15 19
f 11 19 14
f 12 16 13
f 13 16 17
f 13 17 18
f 15 20 21
f 15 21 19
f 16 22 18
f 16 18 17
f 18 22 20
f 19 21 22
f 20 22 21

