# https://github.com/mikedh/trimesh
v 0.10966623 0.03740973 0.02328141
v 0.10966623 0.03847374 0.02174031
v 0.10879289 0.03849266 0.02174031
v 0.10856611 0.03849086 0.02174031
v 0.10856611 0.03628671 0.02328141
v 0.10966623 0.03491458 0.02328141
v 0.10966623 0.03537901 0.02174891
v 0.10954842 0.03533217 0.02174031
v 0.10856611 0.03493665 0.02174031
v 0.10856611 0.03389112 0.02320567
v 0.10857773 0.03389427 0.02326874
v 0.10871191 0.03400644 0.02328141
v 0.10966623 0.03489791 0.02323660
v 0.10957297 0.03481638 0.02328141
v 0.10966623 0.03531505 0.02181483
v 0.10856611 0.03451997 0.02209680
v 0.10926994 0.03521099 0.02174031
v 0.10856611 0.03455330 0.02206557
v 0.10895378 0.03508125 0.02174031
v 0.10856611 0.03475286 0.02188619
v 0.10856611 0.03389832 0.02316087
v 0.10966623 0.03484566 0.02270600
v 0.10966623 0.03483800 0.02278370
v 0.10966623 0.03483575 0.02286064
v 0.10876683 0.03405373 0.02328141
v 0.10966623 0.03487269 0.02315076
v 0.10948413 0.03472629 0.02328141
v 0.10966623 0.03527000 0.02186598
v 0.10856611 0.03439744 0.02222549
v 0.10856611 0.03460916 0.02201413
v 0.10856611 0.03390958 0.02310339
v 0.10966623 0.03485872 0.02262861
v 0.10892729 0.03419518 0.02328141
v 0.10880086 0.03408347 0.02328141
v 0.10966623 0.03483845 0.02293834
v 0.10966623 0.03485512 0.02307397
v 0.10940196 0.03464340 0.02328141
v 0.10966623 0.03522540 0.02191682
v 0.10856611 0.03429924 0.02234000
v 0.10856611 0.03392670 0.02303188
v 0.10966623 0.03487719 0.02255167
v 0.10896519 0.03422942 0.02328141
v 0.10966623 0.03484341 0.02299597
v 0.10906965 0.03432447 0.02328141
v 0.10926262 0.03450691 0.02328141
v 0.10910324 0.03435555 0.02328141
v 0.10966623 0.03519477 0.02195514
v 0.10856611 0.03423257 0.02242615
v 0.10966623 0.03516414 0.02199361
v 0.10856611 0.03395148 0.02295116
v 0.10966623 0.03491368 0.02243625
v 0.10856611 0.03417176 0.02251214
v 0.10966623 0.03510828 0.02207025
v 0.10856611 0.03398526 0.02285838
v 0.10966623 0.03493665 0.02237832
v 0.10856611 0.03411590 0.02259859
v 0.10966623 0.03505693 0.02214780
v 0.10856611 0.03402310 0.02277163
v 0.10966623 0.03498170 0.02228192
v 0.10856611 0.03406680 0.02268503
v 0.10966623 0.03503441 0.02218566
v 0.10966623 0.03501188 0.02222414
f 1 2 3
f 1 3 4
f 1 4 5
f 1 5 12
f 1 12 25
f 1 25 34
f 1 34 33
f 1 33 42
f 1 42 44
f 1 44 46
f 1 46 45
f 1 45 37
f 1 37 27
f 1 27 14
f 1 14 6
f 1 6 13
f 1 13 26
f 1 26 36
f 1 36 43
f 1 43 35
f 1 35 24
f 1 24 23
f 1 23 22
f 1 22 32
f 1 32 41
f 1 41 51
f 1 51 55
f 1 55 59
f 1 59 62
f 1 62 61
f 1 61 57
f 1 57 53
f 1 53 49
f 1 49 47
f 1 47 38
f 1 38 28
f 1 28 15
f 1 15 7
f 1 7 2
f 2 7 8
f 2 8 17
f 2 17 19
f 2 19 9
f 2 9 4
f 2 4 3
f 4 9 20
f 4 20 30
f 4 30 18
f 4 18 16
f 4 16 29
f 4 29 39
f 4 39 48
f 4 48 52
f 4 52 56
f 4 56 60
f 4 60 58
f 4 58 54
f 4 54 50
f 4 50 40
f 4 40 31
f 4 31 21
f 4 21 10
f 4 10 5
f 5 10 11
f 5 11 12
f 6 14 13
f 7 15 16
f 7 16 8
f 8 16 18
f 8 18 17
f 9 19 20
f 10 21 22
f 10 22 11
f 11 22 23
f 11 23 12
f 12 23 24
f 12 24 25
f 13 14 26
f 14 27 26
f 15 28 29
f 15 29 16
f 17 18 30
f 17 30 20
f 17 20 19
f 21 31 32
f 21 32 22
f 24 33 34
f 24 34 25
f 24 35 33
f 26 27 37
f 26 37 36
f 28 38 29
f 29 38 39
f 31 40 32
f 32 40 41
f 33 35 42
f 35 43 44
f 35 44 42
f 36 37 45
f 36 45 46
f 36 46 43
f 38 47 39
f 39 47 49
f 39 49 48
f 40 50 41
f 41 50 51
f 43 46 44
f 48 49 53
f 48 53 52
f 50 54 51
f 51 54 55
f 52 53 57
f 52 57 56
f 54 58 55
f 55 58 59
f 56 57 61
f 56 61 62
f 56 62 60
f 58 60 59
f 59 60 62

