# https://github.com/mikedh/trimesh
v 0.08719314 0.08046137 0.01650411
v 0.08719314 0.08185090 0.01687671
v 0.08739655 0.08046137 0.01650411
v 0.08719314 0.08046137 0.03876453
v 0.08719314 0.08189533 0.01688979
v 0.08739655 0.08185898 0.01687889
v 0.08739655 0.08046137 0.03876453
v 0.08719314 0.09077579 0.03876453
v 0.08739655 0.08196703 0.01691376
v 0.08739655 0.08189533 0.01688979
v 0.08719314 0.08208518 0.01695516
v 0.08739655 0.09077579 0.03876453
v 0.08719314 0.09077579 0.02253116
v 0.08719314 0.08307583 0.01730161
v 0.08739655 0.08323538 0.01735827
v 0.08739655 0.09077579 0.02253116
v 0.08719314 0.09069904 0.02244182
v 0.08719314 0.08323538 0.01735827
v 0.08739655 0.08327173 0.01737134
v 0.08739655 0.09071015 0.02245489
v 0.08739655 0.09066066 0.02239824
v 0.08719314 0.09066066 0.02239824
v 0.08719314 0.08330708 0.01738441
v 0.08739655 0.08330708 0.01738441
v 0.08739655 0.09060714 0.02234376
v 0.08719314 0.09059402 0.02233069
v 0.08719314 0.08336161 0.01740620
v 0.08739655 0.08339998 0.01742364
v 0.08719314 0.09051828 0.02225443
v 0.08739655 0.09015878 0.02189489
v 0.08719314 0.08439971 0.01785943
v 0.08739655 0.08453907 0.01792044
v 0.08719314 0.08960337 0.02133926
v 0.08739655 0.08960337 0.02133926
v 0.08719314 0.08467843 0.01798145
v 0.08739655 0.08467843 0.01798145
v 0.08719314 0.08956803 0.02130875
v 0.08739655 0.08852689 0.02041319
v 0.08719314 0.08470367 0.01799453
v 0.08739655 0.08474508 0.01801632
v 0.08719314 0.08851376 0.02040230
v 0.08739655 0.08846933 0.02036525
v 0.08719314 0.08846933 0.02036525
v 0.08719314 0.08474508 0.01801632
v 0.08719314 0.08496421 0.01813180
v 0.08739655 0.08591042 0.01863297
v 0.08739655 0.08843904 0.02034129
v 0.08719314 0.08843197 0.02033693
v 0.08719314 0.08586498 0.01860900
v 0.08719314 0.08599929 0.01868090
v 0.08739655 0.08599929 0.01868090
v 0.08739655 0.08832695 0.02025848
v 0.08719314 0.08834714 0.02027374
v 0.08719314 0.08604877 0.01871141
v 0.08739655 0.08606391 0.01872013
v 0.08739655 0.08783718 0.01989677
v 0.08719314 0.08738780 0.01956557
v 0.08739655 0.08608512 0.01873320
v 0.08719314 0.08720199 0.01943483
v 0.08739655 0.08734640 0.01953506
v 0.08719314 0.08726561 0.01947623
v 0.08739655 0.08720098 0.01943483
v 0.08739655 0.08726561 0.01947623
f 1 2 3
f 1 3 7
f 1 7 4
f 1 4 8
f 1 8 13
f 1 13 17
f 1 17 22
f 1 22 26
f 1 26 29
f 1 29 33
f 1 33 37
f 1 37 41
f 1 41 43
f 1 43 48
f 1 48 53
f 1 53 57
f 1 57 61
f 1 61 59
f 1 59 54
f 1 54 50
f 1 50 49
f 1 49 45
f 1 45 44
f 1 44 39
f 1 39 35
f 1 35 31
f 1 31 27
f 1 27 23
f 1 23 18
f 1 18 14
f 1 14 11
f 1 11 5
f 1 5 2
f 2 5 6
f 2 6 3
f 3 6 10
f 3 10 9
f 3 9 15
f 3 15 19
f 3 19 24
f 3 24 28
f 3 28 32
f 3 32 36
f 3 36 40
f 3 40 46
f 3 46 51
f 3 51 55
f 3 55 58
f 3 58 62
f 3 62 63
f 3 63 60
f 3 60 56
f 3 56 52
f 3 52 47
f 3 47 42
f 3 42 38
f 3 38 34
f 3 34 30
f 3 30 25
f 3 25 21
f 3 21 20
f 3 20 16
f 3 16 12
f 3 12 7
f 4 7 12
f 4 12 8
f 5 9 10
f 5 10 6
f 5 11 9
f 8 12 16
f 8 16 13
f 9 11 14
f 9 14 15
f 13 16 17
f 14 18 15
f 15 18 19
f 16 20 17
f 17 20 21
f 17 21 22
f 18 23 19
f 19 23 24
f 21 25 22
f 22 25 26
f 23 27 24
f 24 27 28
f 25 29 26
f 25 30 29
f 27 31 32
f 27 32 28
f 29 30 34
f 29 34 33
f 31 35 36
f 31 36 32
f 33 34 37
f 34 38 37
f 35 39 36
f 36 39 40
f 37 38 41
f 38 42 43
f 38 43 41
f 39 44 40
f 40 44 45
f 40 45 46
f 42 47 43
f 43 47 48
f 45 49 46
f 46 49 50
f 46 50 51
f 47 52 53
f 47 53 48
f 50 54 58
f 50 58 55
f 50 55 51
f 52 56 53
f 53 56 57
f 54 59 58
f 56 60 57
f 57 60 61
f 58 59 62
f 59 61 63
f 59 63 62
f 60 63 61

