# https://github.com/mikedh/trimesh
v -0.05529576 0.02675000 0.13905766
v -0.05529576 0.02775000 0.13905766
v -0.05529576 0.02675000 0.14022049
v -0.05575809 0.02675000 0.13923907
v -0.05529576 0.02775000 0.14022066
v -0.05575809 0.02775000 0.13923907
v -0.05529576 0.02758966 0.14022066
v -0.05752192 0.02675000 0.14072409
v -0.05699927 0.02675000 0.13987595
v -0.05651176 0.02696241 0.13962505
v -0.05752192 0.02775000 0.14072409
v -0.05660194 0.02758966 0.13967170
v -0.05690031 0.02758966 0.13982472
v -0.05699956 0.02775000 0.13987579
v -0.05828701 0.02675000 0.14072409
v -0.05673692 0.02696241 0.13974071
v -0.05817223 0.02675000 0.14063241
v -0.05739075 0.02708340 0.14012767
v -0.05709355 0.02758966 0.13993615
v -0.05699956 0.02758966 0.13987579
v -0.05828701 0.02775000 0.14072409
v -0.05718784 0.02758966 0.13999683
v -0.05817223 0.02775000 0.14063257
v -0.05817223 0.02758966 0.14063241
f 1 2 5
f 1 5 7
f 1 7 3
f 1 3 8
f 1 8 15
f 1 15 17
f 1 17 9
f 1 9 4
f 1 4 6
f 1 6 2
f 2 6 14
f 2 14 23
f 2 23 21
f 2 21 11
f 2 11 5
f 3 7 8
f 4 9 10
f 4 10 6
f 5 11 8
f 5 8 7
f 6 10 12
f 6 12 13
f 6 13 14
f 8 11 21
f 8 21 15
f 9 16 10
f 9 17 18
f 9 18 19
f 9 19 20
f 9 20 16
f 10 16 13
f 10 13 12
f 13 16 20
f 13 20 14
f 14 20 19
f 14 19 22
f 14 22 23
f 15 21 24
f 15 24 17
f 17 24 18
f 18 24 22
f 18 22 19
f 21 23 24
f 22 24 23

