# https://github.com/mikedh/trimesh
v 0.08760000 0.08950083 0.04081474
v 0.09309946 0.08950083 0.04081474
v 0.08760000 0.09012285 0.04379963
v 0.08760000 0.09540044 0.04081474
v 0.09309946 0.09012285 0.04379963
v 0.09309946 0.09540044 0.04081474
v 0.08760000 0.09440245 0.04379963
v 0.08760000 0.09530457 0.04117298
v 0.08943369 0.09536925 0.04093221
v 0.09309946 0.09440245 0.04379963
v 0.09126631 0.09524046 0.04141376
v 0.09309946 0.09530457 0.04117298
v 0.08760000 0.09461729 0.04330667
v 0.08760000 0.09511109 0.04189532
v 0.09309946 0.09461729 0.04330667
v 0.09309946 0.09511109 0.04189532
f 1 2 5
f 1 5 3
f 1 3 7
f 1 7 13
f 1 13 14
f 1 14 8
f 1 8 4
f 1 4 6
f 1 6 2
f 2 6 12
f 2 12 16
f 2 16 15
f 2 15 10
f 2 10 5
f 3 5 10
f 3 10 7
f 4 8 9
f 4 9 6
f 6 9 11
f 6 11 12
f 7 10 15
f 7 15 13
f 8 14 11
f 8 11 9
f 11 14 16
f 11 16 12
f 13 15 16
f 13 16 14

