# https://github.com/mikedh/trimesh
v -0.05460051 0.09974735 0.02641535
v -0.05667235 0.09657182 0.02641535
v -0.05727640 0.09974735 0.02390197
v -0.05753928 0.09974735 0.02638582
v -0.05758638 0.09963545 0.02641535
v -0.05954875 0.09657182 0.02641535
v -0.06095544 0.09657182 0.02390197
v -0.06000958 0.09657275 0.02390197
v -0.05973334 0.09974735 0.02390197
v -0.05769205 0.09974735 0.02624558
v -0.06000768 0.09780554 0.02539130
v -0.05801030 0.09908589 0.02637205
v -0.05788746 0.09919251 0.02641535
v -0.06000768 0.09757676 0.02552736
v -0.06000768 0.09734799 0.02566318
v -0.05910192 0.09731473 0.02641535
v -0.05989183 0.09657182 0.02614863
v -0.06099108 0.09657182 0.02422405
v -0.06110311 0.09657368 0.02393839
v -0.06096944 0.09696814 0.02390197
v -0.05965505 0.09974735 0.02403336
v -0.06010061 0.09921799 0.02390197
v -0.05998222 0.09947350 0.02391427
v -0.05780980 0.09974735 0.02613732
v -0.06000768 0.09799049 0.02526827
v -0.06060918 0.09657182 0.02503404
v -0.06039340 0.09657182 0.02542648
v -0.05810769 0.09886675 0.02641535
v -0.06000768 0.09709745 0.02579629
v -0.05867609 0.09815182 0.02633391
v -0.05828591 0.09860222 0.02641535
v -0.05892815 0.09760225 0.02641535
v -0.06000768 0.09684691 0.02592916
v -0.06000768 0.09657182 0.02605809
v -0.06088797 0.09657182 0.02446321
v -0.06000768 0.09866253 0.02476880
v -0.06000768 0.09887576 0.02457737
v -0.06073012 0.09759790 0.02390197
v -0.06000768 0.09907781 0.02437364
v -0.06000768 0.09919375 0.02424398
v -0.05956657 0.09974735 0.02417336
v -0.06022918 0.09889223 0.02390197
v -0.06000768 0.09933798 0.02406485
v -0.05817007 0.09974735 0.02579383
v -0.05799630 0.09973741 0.02596976
v -0.06000768 0.09817482 0.02514550
v -0.06077340 0.09657182 0.02470802
v -0.06014644 0.09657182 0.02584206
v -0.05869519 0.09796873 0.02641535
v -0.05840749 0.09841448 0.02641535
v -0.05882313 0.09776762 0.02641535
v -0.06000768 0.09842877 0.02495825
v -0.05857871 0.09974735 0.02537924
v -0.05869964 0.09974735 0.02525056
v -0.05886832 0.09974735 0.02506455
v -0.05896698 0.09974735 0.02495284
v -0.05917703 0.09974735 0.02470138
v -0.06065182 0.09780212 0.02390197
v -0.05931961 0.09974735 0.02452004
v -0.06050097 0.09819440 0.02390197
v -0.05942527 0.09974735 0.02437635
v -0.05832028 0.09974735 0.02564620
v -0.05844886 0.09974735 0.02551457
f 1 2 3
f 1 3 9
f 1 9 21
f 1 21 41
f 1 41 61
f 1 61 59
f 1 59 57
f 1 57 56
f 1 56 55
f 1 55 54
f 1 54 53
f 1 53 63
f 1 63 62
f 1 62 44
f 1 44 24
f 1 24 10
f 1 10 4
f 1 4 5
f 1 5 13
f 1 13 28
f 1 28 31
f 1 31 50
f 1 50 49
f 1 49 51
f 1 51 32
f 1 32 16
f 1 16 6
f 1 6 2
f 2 6 17
f 2 17 34
f 2 34 48
f 2 48 27
f 2 27 26
f 2 26 47
f 2 47 35
f 2 35 18
f 2 18 7
f 2 7 8
f 2 8 3
f 3 8 7
f 3 7 20
f 3 20 38
f 3 38 58
f 3 58 60
f 3 60 42
f 3 42 22
f 3 22 9
f 4 10 11
f 4 11 5
f 5 12 13
f 5 11 14
f 5 14 15
f 5 15 12
f 6 16 17
f 7 18 19
f 7 19 20
f 9 22 23
f 9 23 21
f 10 24 11
f 11 25 26
f 11 26 27
f 11 27 14
f 11 24 25
f 12 28 13
f 12 15 28
f 14 27 15
f 15 27 29
f 15 29 30
f 15 30 31
f 15 31 28
f 16 32 33
f 16 33 17
f 17 33 34
f 18 35 36
f 18 36 37
f 18 37 19
f 19 37 20
f 20 37 39
f 20 39 40
f 20 40 38
f 21 23 41
f 22 42 43
f 22 43 23
f 23 43 41
f 24 44 45
f 24 45 46
f 24 46 25
f 25 46 26
f 26 46 47
f 27 48 29
f 29 48 33
f 29 33 49
f 29 49 30
f 30 49 50
f 30 50 31
f 32 51 33
f 33 51 49
f 33 48 34
f 35 47 52
f 35 52 36
f 36 52 53
f 36 53 54
f 36 54 55
f 36 55 37
f 37 55 56
f 37 56 57
f 37 57 39
f 38 40 58
f 39 57 59
f 39 59 40
f 40 43 60
f 40 60 58
f 40 59 61
f 40 61 43
f 41 43 61
f 42 60 43
f 44 62 46
f 44 46 45
f 46 52 47
f 46 62 52
f 52 62 63
f 52 63 53

