# https://github.com/mikedh/trimesh
v 0.08736035 0.12570613 0.03199549
v 0.08822992 0.12561855 0.03199549
v 0.08857799 0.12554071 0.03104203
v 0.08736035 0.12569640 0.03182142
v 0.08736035 0.02629461 0.03199549
v 0.08857799 0.12557963 0.03199549
v 0.08857799 0.12549205 0.03063554
v 0.08736035 0.12552125 0.03010024
v 0.08736035 0.12567694 0.03148096
v 0.08736035 0.02632381 0.03148096
v 0.08857799 0.02646004 0.03104203
v 0.08857799 0.02642112 0.03199549
v 0.08736035 0.12547259 0.02970635
v 0.08857799 0.12536555 0.02961184
v 0.08736035 0.02636273 0.03112067
v 0.08736035 0.02652816 0.02970635
v 0.08857799 0.02663520 0.02961184
v 0.08765692 0.12543367 0.02961184
v 0.08736035 0.12544340 0.02961184
v 0.08736035 0.02655735 0.02961184
v 0.08746024 0.02655735 0.02961184
v 0.08765692 0.02656708 0.02961184
f 1 2 3
f 1 3 4
f 1 4 9
f 1 9 8
f 1 8 13
f 1 13 19
f 1 19 20
f 1 20 16
f 1 16 15
f 1 15 10
f 1 10 5
f 1 5 12
f 1 12 6
f 1 6 2
f 2 6 3
f 3 7 8
f 3 8 9
f 3 9 4
f 3 6 12
f 3 12 11
f 3 11 17
f 3 17 14
f 3 14 7
f 5 10 11
f 5 11 12
f 7 13 8
f 7 14 13
f 10 15 11
f 11 15 16
f 11 16 17
f 13 14 18
f 13 18 19
f 14 17 22
f 14 22 21
f 14 21 20
f 14 20 19
f 14 19 18
f 16 20 21
f 16 21 22
f 16 22 17

