# https://github.com/mikedh/trimesh
v -0.02264168 0.04779974 0.20666342
v -0.02464228 0.04779974 0.20666342
v -0.02419914 0.04779974 0.20754391
v -0.00811995 0.04774931 0.20780492
v -0.00876525 0.04774931 0.20666342
v -0.02464228 0.03975000 0.20666342
v -0.02464228 0.04779974 0.20779353
v -0.02463581 0.04779974 0.20779017
v -0.00811995 0.03975000 0.20780492
v -0.02464228 0.04774931 0.20780492
v -0.00876525 0.03975000 0.20666342
v -0.02464228 0.03975000 0.20780492
f 1 2 7
f 1 7 8
f 1 8 3
f 1 3 4
f 1 4 5
f 1 5 11
f 1 11 6
f 1 6 2
f 2 6 12
f 2 12 10
f 2 10 7
f 3 8 4
f 4 9 11
f 4 11 5
f 4 8 7
f 4 7 10
f 4 10 12
f 4 12 9
f 6 11 9
f 6 9 12

