# https://github.com/mikedh/trimesh
v 0.02552859 0.10438944 0.26637938
v 0.02340856 0.10438944 0.26638114
v 0.02552859 0.10404381 0.26637938
v 0.02552859 0.10438944 0.25001464
v 0.02340856 0.10404381 0.26638114
v 0.02242325 0.10438944 0.26638114
v 0.02552859 0.10404381 0.25001464
v 0.02489048 0.10438944 0.24964571
v 0.02242021 0.10404381 0.26638114
v 0.02242021 0.10438812 0.26638114
v 0.02242021 0.10438944 0.26529894
v 0.02437105 0.10404381 0.24934705
v 0.02440391 0.10438944 0.24936462
v 0.02242021 0.10404381 0.24843351
v 0.02242021 0.10438944 0.24843351
v 0.02412426 0.10404381 0.24920475
v 0.02412426 0.10438944 0.24920475
v 0.02340856 0.10404381 0.24887974
v 0.02340856 0.10438944 0.24887974
v 0.02373446 0.10404381 0.24902731
f 1 2 5
f 1 5 3
f 1 3 7
f 1 7 4
f 1 4 8
f 1 8 13
f 1 13 17
f 1 17 19
f 1 19 15
f 1 15 11
f 1 11 6
f 1 6 2
f 2 6 10
f 2 10 9
f 2 9 5
f 3 5 9
f 3 9 14
f 3 14 18
f 3 18 20
f 3 20 16
f 3 16 12
f 3 12 7
f 4 7 8
f 6 11 10
f 7 12 13
f 7 13 8
f 9 10 11
f 9 11 15
f 9 15 14
f 12 16 13
f 13 16 17
f 14 15 19
f 14 19 18
f 16 20 17
f 17 20 19
f 18 19 20

