# https://github.com/mikedh/trimesh
v -0.00982418 0.11525000 0.04519918
v -0.01026653 0.11525000 0.04547606
v -0.00984473 0.11658359 0.04521084
v -0.00982418 0.11925000 0.04519918
v -0.00982418 0.11525000 0.05390583
v -0.01026653 0.11925000 0.04547606
v -0.01086841 0.11525000 0.04592004
v -0.00982418 0.11925000 0.05390583
v -0.01228586 0.11525000 0.05512313
v -0.01086841 0.11925000 0.04592004
v -0.01146933 0.11525000 0.04636402
v -0.01106855 0.11658359 0.04606771
v -0.01228755 0.11925000 0.05512313
v -0.01228586 0.11912901 0.05512313
v -0.01229359 0.11525000 0.05512313
v -0.01146933 0.11925000 0.04636402
v -0.01229359 0.11525000 0.04707322
v -0.01229359 0.11925000 0.05512313
v -0.01229359 0.11925000 0.04707322
f 1 2 3
f 1 3 4
f 1 4 8
f 1 8 5
f 1 5 9
f 1 9 15
f 1 15 17
f 1 17 11
f 1 11 7
f 1 7 2
f 2 6 3
f 2 7 10
f 2 10 6
f 3 6 4
f 4 6 10
f 4 10 16
f 4 16 19
f 4 19 18
f 4 18 13
f 4 13 8
f 5 8 14
f 5 14 9
f 7 11 12
f 7 12 10
f 8 13 14
f 9 14 13
f 9 13 18
f 9 18 15
f 10 12 16
f 11 17 19
f 11 19 16
f 11 16 12
f 15 18 19
f 15 19 17

