# https://github.com/mikedh/trimesh
v -0.00853022 0.12474960 0.07538998
v -0.00880493 0.12474960 0.07538998
v -0.00853022 0.12057908 0.07538998
v -0.00768414 0.12474960 0.07441044
v -0.00880493 0.12474960 0.07338859
v -0.00880493 0.12057908 0.07538998
v -0.00768414 0.12057908 0.07441044
v -0.00768414 0.12474960 0.07339192
v -0.00768579 0.12474960 0.07338859
v -0.00880493 0.12057908 0.07338859
v -0.00768414 0.12057908 0.07338859
v -0.00768414 0.12431683 0.07338859
f 1 2 6
f 1 6 3
f 1 3 7
f 1 7 4
f 1 4 8
f 1 8 9
f 1 9 5
f 1 5 2
f 2 5 10
f 2 10 6
f 3 6 10
f 3 10 11
f 3 11 7
f 4 7 11
f 4 11 12
f 4 12 8
f 5 9 12
f 5 12 11
f 5 11 10
f 8 12 9

