# https://github.com/mikedh/trimesh
v -0.05376055 0.10515836 0.13904473
v -0.05713429 0.10515836 0.13904473
v -0.05376055 0.10439422 0.13904473
v -0.05376055 0.10515836 0.13237980
v -0.05713429 0.10439422 0.13904473
v -0.05714589 0.10515836 0.13723171
v -0.05376055 0.10404427 0.13900036
v -0.05376055 0.10439422 0.13237980
v -0.05445047 0.10515836 0.13250180
v -0.05709154 0.10404427 0.13900036
v -0.05714589 0.10439422 0.13723171
v -0.05714589 0.10515836 0.13334731
v -0.05376055 0.10404427 0.13238045
v -0.05390370 0.10404427 0.13240524
v -0.05445047 0.10404427 0.13250180
v -0.05448361 0.10404427 0.13251093
v -0.05464698 0.10439422 0.13255660
v -0.05551353 0.10515836 0.13280060
v -0.05709419 0.10404427 0.13728325
v -0.05714589 0.10439422 0.13334731
v -0.05688377 0.10515836 0.13324423
v -0.05698318 0.10439422 0.13328272
v -0.05709419 0.10439422 0.13332643
v -0.05636947 0.10404427 0.13304199
v -0.05612724 0.10439422 0.13297348
v -0.05636947 0.10439422 0.13304199
v -0.05636914 0.10515836 0.13304264
v -0.05709419 0.10404427 0.13332643
v -0.05662629 0.10515836 0.13314311
f 1 2 5
f 1 5 3
f 1 3 7
f 1 7 13
f 1 13 8
f 1 8 4
f 1 4 9
f 1 9 18
f 1 18 27
f 1 27 29
f 1 29 21
f 1 21 12
f 1 12 6
f 1 6 2
f 2 6 11
f 2 11 5
f 3 5 10
f 3 10 7
f 4 8 15
f 4 15 9
f 5 11 10
f 6 12 20
f 6 20 11
f 7 10 19
f 7 19 28
f 7 28 24
f 7 24 16
f 7 16 15
f 7 15 14
f 7 14 13
f 8 13 14
f 8 14 15
f 9 16 17
f 9 17 18
f 9 15 16
f 10 11 19
f 11 20 28
f 11 28 19
f 12 21 22
f 12 22 23
f 12 23 28
f 12 28 20
f 16 24 17
f 17 24 25
f 17 25 18
f 18 25 26
f 18 26 27
f 21 29 22
f 22 28 23
f 22 29 26
f 22 26 24
f 22 24 28
f 24 26 25
f 26 29 27

