# https://github.com/mikedh/trimesh
v -0.04403408 0.10723452 0.02653397
v -0.04403408 0.10573635 0.02871751
v -0.04403408 0.10775234 0.02653397
v -0.04250519 0.10775234 0.02653397
v -0.04402468 0.10573951 0.02872029
v -0.04403408 0.10575253 0.02872029
v -0.04403408 0.10775234 0.02872029
v -0.04019248 0.10775234 0.02871943
v -0.04052797 0.10758815 0.02872029
v -0.04059416 0.10775234 0.02872029
f 1 2 6
f 1 6 7
f 1 7 3
f 1 3 4
f 1 4 2
f 2 5 6
f 2 4 5
f 3 7 10
f 3 10 8
f 3 8 4
f 4 8 5
f 5 8 9
f 5 9 10
f 5 10 7
f 5 7 6
f 8 10 9

