# https://github.com/mikedh/trimesh
v 0.08973606 0.12455754 0.04066917
v 0.08973606 0.05953827 0.04066917
v 0.09055046 0.12410673 0.04066917
v 0.09097921 0.12388133 0.04065084
v 0.09097921 0.12449958 0.03945213
v 0.08973606 0.12469922 0.04038593
v 0.08973606 0.05953183 0.03895141
v 0.09097921 0.05953827 0.04066917
v 0.09097921 0.12386845 0.04066917
v 0.09097921 0.12496971 0.03776441
v 0.08973606 0.12516935 0.03863087
v 0.09097921 0.05953183 0.03895141
v 0.08973606 0.05953183 0.03743976
v 0.09097921 0.12500835 0.03743976
v 0.08973606 0.12532391 0.03743976
v 0.09097921 0.05953183 0.03743976
f 1 2 8
f 1 8 9
f 1 9 3
f 1 3 4
f 1 4 5
f 1 5 6
f 1 6 11
f 1 11 15
f 1 15 13
f 1 13 7
f 1 7 2
f 2 7 12
f 2 12 8
f 3 9 4
f 4 9 8
f 4 8 12
f 4 12 16
f 4 16 14
f 4 14 10
f 4 10 5
f 5 10 6
f 6 10 11
f 7 13 16
f 7 16 12
f 10 14 15
f 10 15 11
f 13 15 14
f 13 14 16

