# https://github.com/mikedh/trimesh
v 0.02124955 0.03385000 0.26700134
v 0.02124955 0.03335000 0.26700134
v 0.02121826 0.03385000 0.26638078
v 0.02121826 0.03385000 0.26761952
v 0.02121826 0.03335000 0.26761952
v 0.02121826 0.03335000 0.26638078
v 0.02112492 0.03385000 0.26576380
v 0.02112492 0.03385000 0.26823649
v 0.02112492 0.03335000 0.26823649
v 0.02112492 0.03335000 0.26576380
v 0.02104830 0.03385000 0.26546310
v 0.02097115 0.03385000 0.26883909
v 0.02097115 0.03335000 0.26883909
v 0.02104830 0.03335000 0.26546310
v 0.02097115 0.03385000 0.26516120
v 0.02090047 0.03351670 0.26903556
v 0.02075856 0.03385000 0.26942491
v 0.02075856 0.03335000 0.26942491
v 0.02097115 0.03335000 0.26516120
v 0.02090047 0.03368330 0.26496473
v 0.02075856 0.03385000 0.26457538
v 0.02048771 0.03385000 0.26998678
v 0.02048771 0.03335000 0.26998678
v 0.02075856 0.03335000 0.26457538
v 0.02048771 0.03385000 0.26401471
v 0.01978684 0.03385000 0.27101467
v 0.02021686 0.03376665 0.27043004
v 0.02016291 0.03335000 0.27051869
v 0.02048771 0.03335000 0.26401471
v 0.02016291 0.03385000 0.26348160
v 0.01978684 0.03335000 0.27101467
v 0.01936276 0.03385000 0.27147231
v 0.02016291 0.03335000 0.26348160
v 0.01984943 0.03343335 0.26306828
v 0.01978684 0.03385000 0.26298682
v 0.01936276 0.03335000 0.27147231
v 0.01889605 0.03385000 0.27188322
v 0.01936276 0.03335000 0.26252918
v 0.01936276 0.03385000 0.26252918
v 0.01889605 0.03335000 0.27188322
v 0.01839266 0.03385000 0.27224742
v 0.01889605 0.03335000 0.26211707
v 0.01889605 0.03385000 0.26211707
v 0.01839266 0.03335000 0.27224742
v 0.01785257 0.03385000 0.27255770
v 0.01839266 0.03335000 0.26175167
v 0.01839266 0.03385000 0.26175167
v 0.01785257 0.03335000 0.27255770
v 0.01728497 0.03385000 0.27281527
v 0.01785257 0.03335000 0.26144139
v 0.01785257 0.03385000 0.26144139
v 0.01728497 0.03335000 0.27281527
v 0.01656360 0.03385000 0.27304409
v 0.01728497 0.03335000 0.26118502
v 0.01728497 0.03385000 0.26118502
v 0.01656360 0.03335000 0.27304409
v 0.01608556 0.03385000 0.27315311
v 0.01658248 0.03335000 0.26096099
v 0.01658248 0.03385000 0.26096099
v 0.01608556 0.03335000 0.27315311
v 0.01573755 0.03385000 0.27319744
v 0.01580877 0.03343335 0.27318905
v 0.01573755 0.03335000 0.26841859
v 0.01573755 0.03385000 0.26841859
f 1 2 6
f 1 6 3
f 1 3 7
f 1 7 11
f 1 11 15
f 1 15 21
f 1 21 25
f 1 25 30
f 1 30 35
f 1 35 39
f 1 39 43
f 1 43 47
f 1 47 51
f 1 51 55
f 1 55 59
f 1 59 64
f 1 64 61
f 1 61 57
f 1 57 53
f 1 53 49
f 1 49 45
f 1 45 41
f 1 41 37
f 1 37 32
f 1 32 26
f 1 26 22
f 1 22 17
f 1 17 12
f 1 12 8
f 1 8 4
f 1 4 5
f 1 5 2
f 2 5 9
f 2 9 13
f 2 13 18
f 2 18 23
f 2 23 28
f 2 28 31
f 2 31 36
f 2 36 40
f 2 40 44
f 2 44 48
f 2 48 52
f 2 52 56
f 2 56 60
f 2 60 63
f 2 63 58
f 2 58 54
f 2 54 50
f 2 50 46
f 2 46 42
f 2 42 38
f 2 38 33
f 2 33 29
f 2 29 24
f 2 24 19
f 2 19 14
f 2 14 10
f 2 10 6
f 3 6 10
f 3 10 7
f 4 8 9
f 4 9 5
f 7 10 14
f 7 14 11
f 8 12 13
f 8 13 9
f 11 14 19
f 11 19 15
f 12 16 13
f 12 17 16
f 13 16 18
f 15 19 20
f 15 20 21
f 16 17 18
f 17 22 23
f 17 23 18
f 19 24 20
f 20 24 21
f 21 24 29
f 21 29 25
f 22 26 27
f 22 27 28
f 22 28 23
f 25 29 33
f 25 33 30
f 26 31 28
f 26 28 27
f 26 32 36
f 26 36 31
f 30 33 34
f 30 34 35
f 32 37 40
f 32 40 36
f 33 38 34
f 34 38 35
f 35 38 39
f 37 41 44
f 37 44 40
f 38 42 43
f 38 43 39
f 41 45 48
f 41 48 44
f 42 46 47
f 42 47 43
f 45 49 52
f 45 52 48
f 46 50 51
f 46 51 47
f 49 53 56
f 49 56 52
f 50 54 55
f 50 55 51
f 53 57 60
f 53 60 56
f 54 58 59
f 54 59 55
f 57 61 62
f 57 62 60
f 58 63 64
f 58 64 59
f 60 62 63
f 61 64 63
f 61 63 62

