# https://github.com/mikedh/trimesh
v -0.03306365 0.10125000 0.16292204
v -0.03297392 0.10125000 0.16263185
v -0.03039733 0.10125000 0.16292204
v -0.03306365 0.10625000 0.16292204
v -0.03292230 0.10291699 0.16250919
v -0.03281906 0.10125000 0.16226446
v -0.03297392 0.10625000 0.16263185
v -0.02813528 0.10125000 0.16282169
v -0.03039733 0.10625000 0.16292204
v -0.03281906 0.10625000 0.16226446
v -0.03262851 0.10125000 0.16191423
v -0.02813528 0.10125000 0.16014877
v -0.02813528 0.10625000 0.16282169
v -0.03262851 0.10625000 0.16191423
v -0.03251611 0.10125000 0.16174926
v -0.02852121 0.10125000 0.16006100
v -0.02839144 0.10291699 0.16009045
v -0.02813528 0.10625000 0.16014877
v -0.03251611 0.10625000 0.16174926
v -0.03240370 0.10125000 0.16158458
v -0.02891679 0.10125000 0.16001125
v -0.02878461 0.10291699 0.16002783
v -0.02852121 0.10625000 0.16006100
v -0.03240370 0.10625000 0.16158458
v -0.03214754 0.10125000 0.16127952
v -0.03231831 0.10458301 0.16148280
v -0.02931527 0.10125000 0.16000124
v -0.02891679 0.10625000 0.16001125
v -0.03214754 0.10625000 0.16127952
v -0.03186195 0.10125000 0.16100105
v -0.02971278 0.10125000 0.16003126
v -0.02958060 0.10291699 0.16002126
v -0.02931527 0.10625000 0.16000124
v -0.03186195 0.10625000 0.16100105
v -0.03155031 0.10125000 0.16075231
v -0.03010595 0.10125000 0.16010045
v -0.02984400 0.10291699 0.16005414
v -0.02971278 0.10625000 0.16003126
v -0.03155031 0.10625000 0.16075231
v -0.03121503 0.10125000 0.16053617
v -0.03132695 0.10458301 0.16060822
v -0.03048947 0.10125000 0.16020852
v -0.03010595 0.10625000 0.16010045
v -0.03121503 0.10625000 0.16053617
v -0.03109683 0.10291699 0.16047527
v -0.03103750 0.10125000 0.16044497
v -0.03067472 0.10125000 0.16028114
v -0.03048947 0.10625000 0.16020852
v -0.03103750 0.10625000 0.16044497
v -0.03086045 0.10125000 0.16035405
v -0.03086045 0.10625000 0.16035405
v -0.03067472 0.10625000 0.16028114
f 1 2 6
f 1 6 11
f 1 11 15
f 1 15 20
f 1 20 25
f 1 25 30
f 1 30 35
f 1 35 40
f 1 40 46
f 1 46 50
f 1 50 47
f 1 47 42
f 1 42 36
f 1 36 31
f 1 31 27
f 1 27 21
f 1 21 16
f 1 16 12
f 1 12 8
f 1 8 3
f 1 3 9
f 1 9 4
f 1 4 7
f 1 7 2
f 2 5 6
f 2 7 5
f 3 8 13
f 3 13 9
f 4 9 13
f 4 13 18
f 4 18 23
f 4 23 28
f 4 28 33
f 4 33 38
f 4 38 43
f 4 43 48
f 4 48 52
f 4 52 51
f 4 51 49
f 4 49 44
f 4 44 39
f 4 39 34
f 4 34 29
f 4 29 24
f 4 24 19
f 4 19 14
f 4 14 10
f 4 10 7
f 5 7 10
f 5 10 6
f 6 10 14
f 6 14 11
f 8 12 18
f 8 18 13
f 11 14 19
f 11 19 15
f 12 16 17
f 12 17 18
f 15 19 24
f 15 24 20
f 16 21 22
f 16 22 23
f 16 23 17
f 17 23 18
f 20 24 26
f 20 26 25
f 21 27 33
f 21 33 28
f 21 28 22
f 22 28 23
f 24 29 26
f 25 26 29
f 25 29 34
f 25 34 30
f 27 31 32
f 27 32 33
f 30 34 39
f 30 39 35
f 31 36 37
f 31 37 38
f 31 38 32
f 32 38 33
f 35 39 41
f 35 41 40
f 36 42 48
f 36 48 43
f 36 43 37
f 37 43 38
f 39 44 41
f 40 45 46
f 40 41 44
f 40 44 45
f 42 47 52
f 42 52 48
f 44 49 45
f 45 50 46
f 45 49 51
f 45 51 50
f 47 50 51
f 47 51 52

