# https://github.com/mikedh/trimesh
v 0.08449492 0.06487661 0.01938860
v 0.08360002 0.06602289 0.01866989
v 0.08469718 0.06490764 0.01936746
v 0.08469718 0.06487661 0.01938860
v 0.08449367 0.06487661 0.01960351
v 0.08449367 0.06600009 0.01868046
v 0.08360002 0.06602289 0.05333012
v 0.08360002 0.06711534 0.01809210
v 0.08380541 0.06606825 0.01864522
v 0.08520056 0.06524092 0.01915960
v 0.08520056 0.06523034 0.01916664
v 0.08469718 0.06600009 0.01868046
v 0.08469718 0.06487661 0.05261140
v 0.08449367 0.06487661 0.05261140
v 0.08469718 0.06672494 0.01829644
v 0.08449367 0.06510836 0.05275938
v 0.08449367 0.06600009 0.05331955
v 0.08380541 0.06606825 0.05335478
v 0.08360002 0.06711534 0.05390790
v 0.08469718 0.06727752 0.01800402
v 0.08520056 0.06584661 0.01877910
v 0.08520056 0.06523034 0.05283336
v 0.08520056 0.06600032 0.01868398
v 0.08520056 0.06705776 0.01812028
v 0.08520056 0.06679263 0.01826121
v 0.08520056 0.06617049 0.01859238
v 0.08520056 0.06524092 0.05284041
v 0.08469718 0.06508133 0.05274176
v 0.08469718 0.06600009 0.05331955
v 0.08469718 0.06672494 0.05370357
v 0.08469718 0.06727752 0.05399598
v 0.08520056 0.06727752 0.01800402
v 0.08520056 0.06549358 0.05299895
v 0.08520056 0.06600032 0.05331602
v 0.08520056 0.06617049 0.05340762
v 0.08520056 0.06638743 0.05352389
v 0.08520056 0.06705776 0.05387972
v 0.08520056 0.06727752 0.05399598
f 1 2 3
f 1 3 4
f 1 4 13
f 1 13 14
f 1 14 5
f 1 5 2
f 2 6 3
f 2 5 14
f 2 14 7
f 2 7 19
f 2 19 8
f 2 8 9
f 2 9 6
f 3 10 11
f 3 11 4
f 3 6 12
f 3 12 10
f 4 11 22
f 4 22 13
f 6 9 15
f 6 15 12
f 7 14 16
f 7 16 17
f 7 17 18
f 7 18 19
f 8 20 9
f 8 19 31
f 8 31 20
f 9 20 15
f 10 12 21
f 10 21 23
f 10 23 26
f 10 26 25
f 10 25 24
f 10 24 32
f 10 32 38
f 10 38 37
f 10 37 36
f 10 36 35
f 10 35 34
f 10 34 33
f 10 33 27
f 10 27 22
f 10 22 11
f 12 23 21
f 12 15 24
f 12 24 25
f 12 25 26
f 12 26 23
f 13 22 27
f 13 27 28
f 13 28 16
f 13 16 14
f 15 20 24
f 16 28 29
f 16 29 17
f 17 29 30
f 17 30 18
f 18 30 31
f 18 31 19
f 20 32 24
f 20 31 38
f 20 38 32
f 27 33 29
f 27 29 28
f 29 33 34
f 29 34 35
f 29 35 36
f 29 36 37
f 29 37 30
f 30 37 31
f 31 37 38

