# https://github.com/mikedh/trimesh
v -0.00720174 0.03325000 0.07799770
v -0.00640401 0.03324677 0.07840667
v -0.00888844 0.03325000 0.07701505
v -0.00910921 0.03325000 0.07840667
v -0.00640401 0.02775592 0.07840667
v -0.00888844 0.02775000 0.07701505
v -0.01642805 0.03325000 0.07701505
v -0.01403194 0.03325000 0.07840667
v -0.00910921 0.02775000 0.07840667
v -0.00720174 0.02775000 0.07799770
v -0.01642805 0.02775000 0.07701505
v -0.01642805 0.03325000 0.07723861
v -0.01403194 0.02775000 0.07840667
v -0.01642805 0.02775000 0.07723861
f 1 2 3
f 1 3 7
f 1 7 12
f 1 12 8
f 1 8 4
f 1 4 2
f 2 4 8
f 2 8 13
f 2 13 9
f 2 9 5
f 2 5 6
f 2 6 3
f 3 6 11
f 3 11 7
f 5 9 10
f 5 10 6
f 6 10 9
f 6 9 13
f 6 13 14
f 6 14 11
f 7 11 14
f 7 14 12
f 8 12 14
f 8 14 13

