# https://github.com/mikedh/trimesh
v 0.08360000 0.07198264 0.04123384
v 0.08360000 0.07813489 0.04123384
v 0.08760000 0.07198264 0.04123384
v 0.08360000 0.07198264 0.05557939
v 0.08760000 0.07813489 0.04123384
v 0.08360000 0.07813489 0.05587136
v 0.08760000 0.07198264 0.05557939
v 0.08626640 0.07203985 0.05559095
v 0.08360000 0.07228495 0.05563721
v 0.08760000 0.07813489 0.05587136
v 0.08360000 0.07749413 0.05594363
v 0.08760000 0.07228495 0.05563721
v 0.08493359 0.07252945 0.05568346
v 0.08360000 0.07301965 0.05577596
v 0.08760000 0.07749413 0.05594363
v 0.08360000 0.07599943 0.05599856
v 0.08626640 0.07649806 0.05598121
v 0.08760000 0.07301965 0.05577596
v 0.08493359 0.07351468 0.05583233
v 0.08360000 0.07450593 0.05594363
v 0.08760000 0.07599943 0.05599856
v 0.08493359 0.07550139 0.05598121
v 0.08760000 0.07450593 0.05594363
f 1 2 5
f 1 5 3
f 1 3 7
f 1 7 4
f 1 4 9
f 1 9 14
f 1 14 20
f 1 20 16
f 1 16 11
f 1 11 6
f 1 6 2
f 2 6 10
f 2 10 5
f 3 5 10
f 3 10 15
f 3 15 21
f 3 21 23
f 3 23 18
f 3 18 12
f 3 12 7
f 4 7 8
f 4 8 9
f 6 11 15
f 6 15 10
f 7 12 8
f 8 12 13
f 8 13 9
f 9 13 14
f 11 16 17
f 11 17 15
f 12 18 13
f 13 18 14
f 14 18 19
f 14 19 20
f 15 17 21
f 16 22 21
f 16 21 17
f 16 20 22
f 18 23 19
f 19 23 20
f 20 23 22
f 21 22 23

