# https://github.com/mikedh/trimesh
v 0.09309946 0.08100659 0.02055806
v 0.08760000 0.08100659 0.02055806
v 0.09309946 0.07780421 0.02055806
v 0.09309946 0.08100659 0.01152240
v 0.08760000 0.07780421 0.02055806
v 0.08760000 0.08100659 0.01152240
v 0.09309946 0.07780253 0.02055718
v 0.09309946 0.07758659 0.01152240
v 0.08760000 0.07780253 0.02055718
v 0.08760000 0.07758659 0.01152240
v 0.09309946 0.07758659 0.02037938
v 0.08760000 0.07758659 0.02037938
f 1 2 5
f 1 5 3
f 1 3 7
f 1 7 11
f 1 11 8
f 1 8 4
f 1 4 6
f 1 6 2
f 2 6 10
f 2 10 12
f 2 12 9
f 2 9 5
f 3 5 9
f 3 9 7
f 4 8 10
f 4 10 6
f 7 9 12
f 7 12 11
f 8 11 12
f 8 12 10

