# https://github.com/mikedh/trimesh
v 0.08660394 0.08046036 0.05549471
v 0.08594551 0.08046036 0.05549353
v 0.08660394 0.08046036 0.04360188
v 0.08670528 0.08157541 0.05519568
v 0.08584404 0.08187503 0.05511648
v 0.08594551 0.08075178 0.05541670
v 0.08540796 0.08046310 0.05549353
v 0.08594551 0.08046036 0.04416331
v 0.08584417 0.08046310 0.04341986
v 0.08584417 0.08652129 0.04341986
v 0.08665461 0.09443743 0.04372126
v 0.08670528 0.09426778 0.04410776
v 0.08670528 0.08231695 0.05496283
v 0.08660394 0.08188735 0.05511176
v 0.08540796 0.08245924 0.05491319
v 0.08540796 0.08190103 0.05510703
v 0.08540796 0.08134829 0.05525596
v 0.08540796 0.08046310 0.04451435
v 0.08540796 0.09405434 0.04459118
v 0.08574283 0.09429377 0.04404275
v 0.08594551 0.09441280 0.04376972
v 0.08594551 0.09424315 0.04416331
v 0.08594551 0.09401603 0.04468101
v 0.08660394 0.09401193 0.04469046
v 0.08670528 0.09311716 0.04632393
v 0.08594551 0.08262205 0.05485646
v 0.08670528 0.08330886 0.05461534
v 0.08594551 0.08330886 0.05461534
v 0.08540796 0.08331160 0.05461297
v 0.08540796 0.09336479 0.04591260
v 0.08655328 0.09336479 0.04591379
v 0.08594551 0.09330323 0.04602607
v 0.08650273 0.09274228 0.04692199
v 0.08660394 0.09252338 0.04726831
v 0.08670528 0.09217860 0.04773636
v 0.08670528 0.08531731 0.05368159
v 0.08660394 0.08468112 0.05401727
v 0.08650261 0.08392863 0.05434585
v 0.08540796 0.08468249 0.05401490
v 0.08540796 0.09254801 0.04722694
v 0.08574270 0.09245771 0.04735577
v 0.08594551 0.09195559 0.04803894
v 0.08594551 0.09163408 0.04847390
v 0.08660394 0.09162861 0.04847981
v 0.08670528 0.09183383 0.04820205
v 0.08660394 0.08726967 0.05252328
v 0.08660394 0.08600412 0.05331873
v 0.08594551 0.08529132 0.05369578
v 0.08660394 0.08846817 0.05163445
v 0.08574283 0.08477826 0.05396526
v 0.08540796 0.08540761 0.05363195
v 0.08540796 0.09163408 0.04847272
v 0.08594551 0.09085970 0.04937219
v 0.08660394 0.09068321 0.04957430
v 0.08660394 0.08959826 0.05066170
v 0.08594551 0.08711370 0.05262256
v 0.08540796 0.08727103 0.05252209
v 0.08594551 0.08600549 0.05331755
v 0.08594551 0.08955859 0.05069597
v 0.08540796 0.08959963 0.05065815
v 0.08540796 0.08848185 0.05161672
v 0.08540796 0.08609169 0.05326200
v 0.08540796 0.09062712 0.04963340
v 0.08594551 0.09065858 0.04960267
f 1 2 8
f 1 8 3
f 1 3 4
f 1 4 5
f 1 5 6
f 1 6 7
f 1 7 2
f 2 7 18
f 2 18 8
f 3 8 9
f 3 9 10
f 3 10 11
f 3 11 12
f 3 12 4
f 4 13 14
f 4 14 5
f 4 12 25
f 4 25 35
f 4 35 45
f 4 45 36
f 4 36 27
f 4 27 13
f 5 14 13
f 5 13 15
f 5 15 16
f 5 16 17
f 5 17 7
f 5 7 6
f 7 17 16
f 7 16 15
f 7 15 29
f 7 29 39
f 7 39 51
f 7 51 62
f 7 62 57
f 7 57 61
f 7 61 60
f 7 60 63
f 7 63 52
f 7 52 40
f 7 40 30
f 7 30 19
f 7 19 18
f 8 18 9
f 9 18 10
f 10 18 19
f 10 19 20
f 10 20 21
f 10 21 11
f 11 21 22
f 11 22 23
f 11 23 12
f 12 23 24
f 12 24 25
f 13 26 15
f 13 27 26
f 15 26 28
f 15 28 29
f 19 30 23
f 19 23 22
f 19 22 20
f 20 22 21
f 23 30 24
f 24 30 31
f 24 31 25
f 25 31 32
f 25 32 33
f 25 33 34
f 25 34 35
f 26 27 28
f 27 36 37
f 27 37 38
f 27 38 28
f 28 38 39
f 28 39 29
f 30 40 32
f 30 32 31
f 32 40 33
f 33 40 34
f 34 40 41
f 34 41 42
f 34 42 35
f 35 42 43
f 35 43 44
f 35 44 45
f 36 46 47
f 36 47 48
f 36 48 37
f 36 45 49
f 36 49 46
f 37 39 38
f 37 48 50
f 37 50 39
f 39 50 48
f 39 48 51
f 40 52 41
f 41 52 42
f 42 52 43
f 43 52 53
f 43 53 44
f 44 53 54
f 44 54 45
f 45 54 55
f 45 55 49
f 46 56 47
f 46 49 57
f 46 57 56
f 47 58 48
f 47 56 58
f 48 58 51
f 49 55 59
f 49 59 60
f 49 60 61
f 49 61 57
f 51 58 62
f 52 63 53
f 53 63 64
f 53 64 54
f 54 64 55
f 55 60 59
f 55 64 63
f 55 63 60
f 56 62 58
f 56 57 62

