# https://github.com/mikedh/trimesh
v -0.03834784 0.11526459 0.01200000
v -0.03834784 0.11325617 0.01200000
v -0.04182312 0.11442068 0.01200000
v -0.03834784 0.11456788 0.01400024
v -0.03834784 0.11058496 0.01649471
v -0.04679463 0.10739199 0.01650000
v -0.04968718 0.10739199 0.01470326
v -0.04968718 0.10910369 0.01200000
v -0.04102950 0.11391665 0.01400024
v -0.04968718 0.11131403 0.01200000
v -0.04968718 0.11052485 0.01393109
v -0.03964095 0.11215331 0.01650000
v -0.03834784 0.11280840 0.01609343
v -0.03834784 0.11243461 0.01650000
v -0.04968718 0.10739199 0.01650000
v -0.04968718 0.11049633 0.01400024
v -0.04836966 0.10878540 0.01650000
v -0.03834784 0.11245928 0.01650000
v -0.04968718 0.10795228 0.01650000
v -0.04968718 0.11010251 0.01444073
f 1 2 8
f 1 8 10
f 1 10 3
f 1 3 4
f 1 4 13
f 1 13 18
f 1 18 14
f 1 14 5
f 1 5 2
f 2 5 6
f 2 6 7
f 2 7 8
f 3 9 4
f 3 10 11
f 3 11 9
f 4 9 12
f 4 12 13
f 5 14 6
f 6 14 18
f 6 18 12
f 6 12 17
f 6 17 19
f 6 19 15
f 6 15 7
f 7 15 19
f 7 19 20
f 7 20 16
f 7 16 11
f 7 11 10
f 7 10 8
f 9 11 16
f 9 16 17
f 9 17 12
f 12 18 13
f 16 20 17
f 17 20 19

