# https://github.com/mikedh/trimesh
v 0.00010165 0.10987806 0.28030585
v 0.00041323 0.10987806 0.28065065
v 0.00010165 0.11070450 0.28030585
v 0.00549736 0.10987806 0.28030585
v 0.00072888 0.10987806 0.28099857
v 0.00087014 0.11070450 0.28115424
v 0.00061495 0.11070450 0.28087278
v 0.00549736 0.11070450 0.28030585
v 0.00603972 0.10987806 0.28213467
v 0.00087014 0.10987806 0.28115424
v 0.00134333 0.10987806 0.28158201
v 0.00115207 0.11070450 0.28140894
v 0.00603972 0.11070450 0.28213467
v 0.00603972 0.10987806 0.28486275
v 0.00235248 0.10987806 0.28249331
v 0.00235248 0.11070450 0.28249331
v 0.00603972 0.11070450 0.28486275
v 0.00598740 0.10987806 0.28483867
v 0.00396038 0.10987806 0.28367714
v 0.00396038 0.11070450 0.28367714
v 0.00567930 0.11070450 0.28469548
v 0.00567930 0.10987806 0.28469548
v 0.00404467 0.10987806 0.28372710
v 0.00471375 0.10987806 0.28412364
v 0.00461377 0.11070450 0.28406431
v 0.00510613 0.10991673 0.28435603
f 1 2 3
f 1 3 8
f 1 8 4
f 1 4 9
f 1 9 14
f 1 14 18
f 1 18 22
f 1 22 24
f 1 24 23
f 1 23 19
f 1 19 15
f 1 15 11
f 1 11 10
f 1 10 5
f 1 5 2
f 2 5 6
f 2 6 7
f 2 7 3
f 3 7 6
f 3 6 12
f 3 12 16
f 3 16 20
f 3 20 25
f 3 25 21
f 3 21 17
f 3 17 13
f 3 13 8
f 4 8 13
f 4 13 9
f 5 10 6
f 6 10 11
f 6 11 12
f 9 13 17
f 9 17 14
f 11 15 16
f 11 16 12
f 14 17 18
f 15 19 20
f 15 20 16
f 17 21 18
f 18 21 22
f 19 23 20
f 20 23 24
f 20 24 25
f 21 25 24
f 21 24 26
f 21 26 22
f 22 26 24

