# https://github.com/mikedh/trimesh
v -0.01509281 0.09809405 0.21388283
v -0.01438643 0.09809405 0.21348359
v -0.01102873 0.09809405 0.21388283
v -0.01509281 0.09825132 0.21388283
v -0.01437498 0.09825132 0.21250878
v -0.01266085 0.09809405 0.21250878
v -0.01042852 0.09809405 0.21354372
v -0.01102873 0.10625000 0.21388283
v -0.01466491 0.10625000 0.21388283
v -0.01437498 0.10625000 0.21250878
v -0.00859740 0.09809405 0.21250878
v -0.01042852 0.10625000 0.21354372
v -0.00859740 0.10625000 0.21250878
f 1 2 6
f 1 6 11
f 1 11 7
f 1 7 3
f 1 3 8
f 1 8 9
f 1 9 4
f 1 4 10
f 1 10 5
f 1 5 2
f 2 5 6
f 3 7 12
f 3 12 8
f 4 9 10
f 5 10 13
f 5 13 11
f 5 11 6
f 7 11 13
f 7 13 12
f 8 12 13
f 8 13 10
f 8 10 9

