# https://github.com/mikedh/trimesh
v -0.05144396 0.11175000 0.17531170
v -0.05053515 0.11175000 0.17449314
v -0.05144396 0.11175000 0.17292449
v -0.05144396 0.10625000 0.17531170
v -0.05053515 0.11175000 0.17299693
v -0.05053515 0.10625000 0.17449314
v -0.05053515 0.11173439 0.17299272
v -0.05144396 0.10625000 0.17292449
v -0.05053515 0.10625000 0.17300090
v -0.05053515 0.10625861 0.17299272
f 1 2 5
f 1 5 3
f 1 3 8
f 1 8 4
f 1 4 6
f 1 6 2
f 2 6 9
f 2 9 10
f 2 10 7
f 2 7 5
f 3 5 7
f 3 7 10
f 3 10 8
f 4 8 9
f 4 9 6
f 8 10 9

