# https://github.com/mikedh/trimesh
v 0.00843077 0.10125000 0.29149182
v 0.00843077 0.10125000 0.29625611
v 0.00843077 0.10525000 0.29149182
v 0.01347885 0.10125000 0.29149182
v 0.00880965 0.10125000 0.29635400
v 0.00843077 0.10525000 0.29625611
v 0.01347885 0.10525000 0.29149182
v 0.01617035 0.10125000 0.29208830
v 0.00880965 0.10525000 0.29635400
v 0.01144052 0.10125000 0.29678804
v 0.00968635 0.10391641 0.29649868
v 0.01617035 0.10525000 0.29208830
v 0.01617035 0.10125000 0.29695639
v 0.01144052 0.10525000 0.29678804
v 0.01276960 0.10125000 0.29688701
v 0.01232632 0.10258359 0.29685420
v 0.01617035 0.10525000 0.29695639
v 0.01587786 0.10258359 0.29696070
v 0.01543307 0.10125000 0.29696715
v 0.01321364 0.10391641 0.29692036
v 0.01276960 0.10525000 0.29688701
v 0.01410020 0.10125000 0.29698597
v 0.01543307 0.10525000 0.29696715
v 0.01498903 0.10391641 0.29697360
v 0.01410020 0.10525000 0.29698597
f 1 2 6
f 1 6 3
f 1 3 7
f 1 7 4
f 1 4 8
f 1 8 13
f 1 13 19
f 1 19 22
f 1 22 15
f 1 15 10
f 1 10 5
f 1 5 2
f 2 5 9
f 2 9 6
f 3 6 9
f 3 9 14
f 3 14 21
f 3 21 25
f 3 25 23
f 3 23 17
f 3 17 12
f 3 12 7
f 4 7 12
f 4 12 8
f 5 10 11
f 5 11 9
f 8 12 17
f 8 17 13
f 9 11 14
f 10 15 16
f 10 16 14
f 10 14 11
f 13 17 18
f 13 18 19
f 14 16 20
f 14 20 21
f 15 20 16
f 15 22 20
f 17 23 18
f 18 24 19
f 18 23 24
f 19 24 22
f 20 22 25
f 20 25 21
f 22 24 25
f 23 25 24

