# https://github.com/mikedh/trimesh
v 0.18670791 0.02528405 0.54941823
v 0.18662215 0.02080803 0.54913288
v 0.18639097 0.01825128 0.54942638
v 0.18676011 0.02427141 0.55017715
v 0.18794208 0.02472162 0.54986897
v 0.19417448 0.02480699 0.54947064
v 0.19598287 0.02494536 0.54914732
v 0.20538273 0.01987041 0.54913264
v 0.20543680 0.01825128 0.54936442
v 0.19409804 0.01830084 0.55150746
v 0.18669859 0.01846606 0.55151212
v 0.18684960 0.01992273 0.55133090
v 0.18728957 0.02291386 0.55069637
v 0.18897864 0.02325945 0.55058269
v 0.19079448 0.02328423 0.55055125
v 0.19377365 0.02340883 0.55042756
v 0.20033790 0.02330557 0.55028010
v 0.20034909 0.02356785 0.55013522
v 0.19694858 0.02425764 0.54979349
v 0.20018876 0.02386111 0.54995096
v 0.19877374 0.02456811 0.54934811
v 0.20396772 0.02413097 0.54931597
v 0.20474141 0.02315825 0.55006533
v 0.20531189 0.02012857 0.55114524
v 0.20540138 0.01869393 0.55137469
v 0.20349978 0.01857621 0.55141196
v 0.19400297 0.01918270 0.55140334
v 0.19743516 0.01840066 0.55147858
v 0.18875306 0.02017676 0.55128664
v 0.18787870 0.02154462 0.55104578
v 0.19049619 0.02265227 0.55075949
v 0.19207713 0.02306945 0.55060249
v 0.19671741 0.02316169 0.55046389
v 0.19525951 0.02325532 0.55046040
v 0.20163546 0.02307839 0.55034113
v 0.20181071 0.02329524 0.55022466
v 0.20202510 0.02345427 0.55012357
v 0.20216679 0.02421289 0.54940565
v 0.20337114 0.02314999 0.55017761
v 0.20397704 0.02135944 0.55088342
v 0.20249491 0.02078737 0.55105183
v 0.20099787 0.02062904 0.55110494
v 0.20099787 0.02031375 0.55116551
v 0.20357435 0.01990965 0.55120883
v 0.20099787 0.01950900 0.55130224
v 0.20099787 0.01870012 0.55141778
v 0.19225237 0.02038397 0.55123702
v 0.19745194 0.01947664 0.55133835
v 0.18954539 0.02143172 0.55106185
v 0.19096786 0.02178970 0.55097636
v 0.19655521 0.02222546 0.55078582
v 0.19975251 0.02246709 0.55063068
v 0.20138751 0.02137596 0.55093047
v 0.20099787 0.02094227 0.55103995
v 0.19593812 0.02072266 0.55114664
v 0.20099787 0.01991241 0.55123679
v 0.19795158 0.02130506 0.55099686
f 1 2 3
f 1 3 4
f 1 4 5
f 1 5 6
f 1 6 7
f 1 7 2
f 2 7 8
f 2 8 3
f 3 9 10
f 3 10 11
f 3 11 4
f 3 8 9
f 4 11 12
f 4 12 13
f 4 13 14
f 4 14 15
f 4 15 16
f 4 16 17
f 4 17 18
f 4 18 5
f 5 19 6
f 5 18 20
f 5 20 19
f 6 19 20
f 6 20 21
f 6 21 7
f 7 21 22
f 7 22 8
f 8 22 23
f 8 23 24
f 8 24 25
f 8 25 9
f 9 25 26
f 9 26 10
f 10 27 11
f 10 26 28
f 10 28 27
f 11 27 12
f 12 27 29
f 12 29 30
f 12 30 13
f 13 30 31
f 13 31 14
f 14 31 15
f 15 31 32
f 15 32 33
f 15 33 34
f 15 34 16
f 16 34 33
f 16 33 17
f 17 35 36
f 17 36 18
f 17 33 35
f 18 36 37
f 18 37 20
f 20 37 22
f 20 22 38
f 20 38 21
f 21 38 22
f 22 37 23
f 23 37 36
f 23 36 39
f 23 39 40
f 23 40 24
f 24 40 41
f 24 41 42
f 24 42 43
f 24 43 44
f 24 44 25
f 25 44 45
f 25 45 26
f 26 45 46
f 26 46 28
f 27 47 29
f 27 28 46
f 27 46 48
f 27 48 47
f 29 49 30
f 29 47 49
f 30 49 50
f 30 50 31
f 31 50 51
f 31 51 32
f 32 51 52
f 32 52 33
f 33 52 35
f 35 52 40
f 35 40 39
f 35 39 36
f 40 52 51
f 40 51 53
f 40 53 41
f 41 53 54
f 41 54 42
f 42 54 55
f 42 55 43
f 43 56 44
f 43 55 56
f 44 56 45
f 45 56 47
f 45 47 48
f 45 48 46
f 47 55 49
f 47 56 55
f 49 55 50
f 50 55 54
f 50 54 57
f 50 57 53
f 50 53 51
f 53 57 54

