# https://github.com/mikedh/trimesh
v 0.00640712 -0.04063494 0.48101870
v 0.00476073 -0.04063099 0.48336504
v 0.00640712 -0.04174989 0.48101870
v 0.00640712 -0.04063099 0.48094526
v 0.00419774 -0.04063099 0.48416700
v 0.00419774 -0.04174989 0.48416700
v 0.00640712 -0.04174989 0.46388769
v 0.00640712 -0.04063099 0.46388769
v 0.00419774 -0.04063099 0.46487426
v 0.00419774 -0.04174989 0.46487426
v 0.00568147 -0.04174989 0.46388769
v 0.00567909 -0.04063099 0.46388769
v 0.00567909 -0.04165350 0.46388769
f 1 2 3
f 1 3 7
f 1 7 8
f 1 8 4
f 1 4 2
f 2 4 8
f 2 8 12
f 2 12 9
f 2 9 5
f 2 5 6
f 2 6 3
f 3 6 10
f 3 10 11
f 3 11 7
f 5 9 10
f 5 10 6
f 7 11 13
f 7 13 12
f 7 12 8
f 9 12 13
f 9 13 10
f 10 13 11

