# https://github.com/mikedh/trimesh
v -0.03574005 -0.03625000 0.53888870
v -0.03582675 -0.03625000 0.53887512
v -0.03574005 -0.04175000 0.53888870
v -0.03574005 -0.03625000 0.52906104
v -0.03582675 -0.04175000 0.53887512
v -0.03847099 -0.03625000 0.53816228
v -0.03574005 -0.04175000 0.52906104
v -0.04239955 -0.03625000 0.52501891
v -0.03847099 -0.04175000 0.53816228
v -0.04103114 -0.03625000 0.53719011
v -0.04017711 -0.03808369 0.53751462
v -0.04239955 -0.04175000 0.52501891
v -0.04239955 -0.03625000 0.53650714
v -0.04103114 -0.04175000 0.53719011
v -0.04225612 -0.03625000 0.53657911
v -0.04184801 -0.03991631 0.53678277
v -0.04239955 -0.04175000 0.53650714
v -0.04225612 -0.04175000 0.53657911
f 1 2 5
f 1 5 3
f 1 3 7
f 1 7 4
f 1 4 8
f 1 8 13
f 1 13 15
f 1 15 10
f 1 10 6
f 1 6 2
f 2 6 9
f 2 9 5
f 3 5 9
f 3 9 14
f 3 14 18
f 3 18 17
f 3 17 12
f 3 12 7
f 4 7 12
f 4 12 8
f 6 10 11
f 6 11 9
f 8 12 17
f 8 17 13
f 9 11 14
f 10 15 16
f 10 16 14
f 10 14 11
f 13 17 18
f 13 18 15
f 14 16 18
f 15 18 16

