# https://github.com/mikedh/trimesh
v 0.03528262 0.02838947 0.42063917
v 0.03384698 0.02838947 0.42233458
v 0.03528262 0.02804381 0.42063917
v 0.03528262 0.02838947 0.40667432
v 0.03252136 0.02838947 0.42233458
v 0.03384698 0.02804381 0.42233458
v 0.03528262 0.02804381 0.40667432
v 0.03266652 0.02838947 0.40667432
v 0.03252136 0.02804381 0.42233458
v 0.03252136 0.02838947 0.40933392
v 0.03292251 0.02804381 0.40667432
v 0.03253001 0.02804381 0.40667585
v 0.03253082 0.02838947 0.40667738
v 0.03252136 0.02804381 0.40933392
f 1 2 6
f 1 6 3
f 1 3 7
f 1 7 4
f 1 4 8
f 1 8 13
f 1 13 10
f 1 10 5
f 1 5 2
f 2 5 9
f 2 9 6
f 3 6 9
f 3 9 14
f 3 14 12
f 3 12 11
f 3 11 7
f 4 7 11
f 4 11 8
f 5 10 14
f 5 14 9
f 8 12 13
f 8 11 12
f 10 13 12
f 10 12 14

