# https://github.com/mikedh/trimesh
v 0.02511403 -0.02925039 0.41978409
v 0.02511403 -0.03125000 0.41978409
v 0.02460714 -0.02925039 0.41994824
v 0.02486496 -0.02925039 0.42937411
v 0.02501703 -0.02991693 0.42942128
v 0.02460714 -0.03125000 0.41994824
v 0.02486496 -0.03125000 0.42937411
v 0.02415714 -0.02925039 0.42014539
v 0.02414037 -0.02925039 0.42907979
v 0.02440001 -0.02991693 0.42920054
v 0.02415714 -0.03125000 0.42014539
v 0.02414037 -0.03125000 0.42907979
v 0.02372866 -0.02925039 0.42038595
v 0.02381472 -0.02925039 0.42890622
v 0.02395913 -0.03058307 0.42898357
v 0.02372866 -0.03125000 0.42038595
v 0.02381472 -0.03125000 0.42890622
v 0.02369438 -0.02991693 0.42040859
v 0.02342088 -0.02925039 0.42058971
v 0.02340556 -0.02925039 0.42863359
v 0.02342088 -0.03125000 0.42058971
v 0.02340556 -0.03125000 0.42863359
v 0.02329361 -0.03058307 0.42069253
v 0.02304016 -0.02925039 0.42090007
v 0.02302594 -0.02925039 0.42832134
v 0.02327866 -0.02991693 0.42852982
v 0.02304016 -0.03125000 0.42090007
v 0.02302594 -0.03125000 0.42832134
v 0.02265617 -0.02925039 0.42129816
v 0.02276520 -0.02925039 0.42806004
v 0.02279401 -0.02991693 0.42808928
v 0.02265617 -0.03125000 0.42129816
v 0.02276520 -0.03125000 0.42806004
v 0.02230901 -0.02925039 0.42172738
v 0.02236626 -0.02925039 0.42759308
v 0.02257412 -0.03058307 0.42784590
v 0.02230901 -0.03125000 0.42172738
v 0.02236626 -0.03125000 0.42759308
v 0.02228603 -0.02991693 0.42176134
v 0.02210297 -0.02925039 0.42203397
v 0.02203514 -0.02925039 0.42707519
v 0.02210297 -0.03125000 0.42203397
v 0.02203514 -0.03125000 0.42707519
v 0.02202529 -0.02991693 0.42217735
v 0.02175143 -0.02925039 0.42274996
v 0.02179118 -0.02925039 0.42657899
v 0.02175143 -0.03125000 0.42274996
v 0.02179118 -0.03125000 0.42657899
v 0.02153627 -0.02925039 0.42339049
v 0.02153190 -0.02925039 0.42582432
v 0.02173648 -0.02991693 0.42644692
v 0.02153627 -0.03125000 0.42339049
v 0.02153190 -0.03125000 0.42582432
v 0.02143927 -0.02925039 0.42387348
v 0.02142432 -0.02925039 0.42521963
v 0.02143927 -0.03125000 0.42387348
v 0.02142432 -0.03125000 0.42521963
v 0.02138968 -0.02925039 0.42436214
v 0.02138895 -0.02925039 0.42485267
v 0.02138968 -0.03125000 0.42436214
v 0.02138895 -0.03125000 0.42485267
v 0.02138895 -0.03058307 0.42468853
f 1 2 6
f 1 6 3
f 1 3 8
f 1 8 13
f 1 13 19
f 1 19 24
f 1 24 29
f 1 29 34
f 1 34 40
f 1 40 45
f 1 45 49
f 1 49 54
f 1 54 58
f 1 58 59
f 1 59 55
f 1 55 50
f 1 50 46
f 1 46 41
f 1 41 35
f 1 35 30
f 1 30 25
f 1 25 20
f 1 20 14
f 1 14 9
f 1 9 4
f 1 4 5
f 1 5 2
f 2 5 7
f 2 7 12
f 2 12 17
f 2 17 22
f 2 22 28
f 2 28 33
f 2 33 38
f 2 38 43
f 2 43 48
f 2 48 53
f 2 53 57
f 2 57 61
f 2 61 60
f 2 60 56
f 2 56 52
f 2 52 47
f 2 47 42
f 2 42 37
f 2 37 32
f 2 32 27
f 2 27 21
f 2 21 16
f 2 16 11
f 2 11 6
f 3 6 11
f 3 11 8
f 4 9 10
f 4 10 7
f 4 7 5
f 7 10 12
f 8 11 16
f 8 16 13
f 9 12 10
f 9 14 15
f 9 15 12
f 12 15 17
f 13 18 19
f 13 16 18
f 14 20 22
f 14 22 17
f 14 17 15
f 16 21 18
f 18 21 19
f 19 23 24
f 19 21 23
f 20 25 26
f 20 26 22
f 21 27 23
f 22 26 28
f 23 27 24
f 24 27 32
f 24 32 29
f 25 28 26
f 25 30 31
f 25 31 28
f 28 31 33
f 29 32 37
f 29 37 34
f 30 35 36
f 30 36 33
f 30 33 31
f 33 36 38
f 34 39 40
f 34 37 39
f 35 41 43
f 35 43 38
f 35 38 36
f 37 42 39
f 39 42 40
f 40 42 44
f 40 44 45
f 41 46 48
f 41 48 43
f 42 47 44
f 44 47 45
f 45 47 52
f 45 52 49
f 46 50 51
f 46 51 48
f 48 51 53
f 49 52 56
f 49 56 54
f 50 55 57
f 50 57 53
f 50 53 51
f 54 56 60
f 54 60 58
f 55 59 61
f 55 61 57
f 58 62 59
f 58 60 62
f 59 62 61
f 60 61 62

