# https://github.com/mikedh/trimesh
v 0.00956979 -0.03574532 0.45770950
v 0.00860194 -0.03574532 0.45796088
v 0.00998681 -0.03540858 0.45711052
v 0.00956979 -0.03574532 0.46318503
v 0.00860194 -0.03540858 0.45796088
v 0.00998681 -0.03439375 0.45710984
v 0.00860194 -0.03574532 0.46318503
v 0.00998681 -0.03540858 0.46403200
v 0.00860194 -0.03540858 0.46318503
v 0.00862743 -0.03405669 0.45796494
v 0.00992147 -0.03405669 0.45727110
v 0.00998681 -0.03439375 0.46403200
v 0.00882414 -0.03540858 0.46403200
v 0.00882414 -0.03439375 0.46403200
v 0.00862743 -0.03405669 0.46258469
v 0.00992147 -0.03405669 0.46258469
f 1 2 3
f 1 3 8
f 1 8 4
f 1 4 7
f 1 7 2
f 2 5 6
f 2 6 3
f 2 7 9
f 2 9 5
f 3 6 12
f 3 12 8
f 4 8 13
f 4 13 7
f 5 9 15
f 5 15 10
f 5 10 6
f 6 11 16
f 6 16 12
f 6 10 11
f 7 13 14
f 7 14 9
f 8 12 14
f 8 14 13
f 9 14 15
f 10 15 16
f 10 16 11
f 12 16 15
f 12 15 14

