# https://github.com/mikedh/trimesh
v 0.04601752 0.02838950 0.40537889
v 0.04439656 0.02915123 0.40425373
v 0.04291644 0.02915123 0.40400008
v 0.04291675 0.02838950 0.40400117
v 0.04601752 0.02804381 0.40537889
v 0.04601752 0.02838950 0.39430507
v 0.04439656 0.02915123 0.39527956
v 0.04291644 0.02838961 0.40400008
v 0.04291644 0.02915123 0.39609687
v 0.04291675 0.02804381 0.40400117
v 0.04601752 0.02804381 0.39430507
v 0.04458628 0.02838950 0.39430507
v 0.04291644 0.02838961 0.39609687
v 0.04291675 0.02804381 0.39609687
v 0.04458628 0.02804381 0.39430507
f 1 2 3
f 1 3 4
f 1 4 10
f 1 10 5
f 1 5 11
f 1 11 6
f 1 6 7
f 1 7 2
f 2 7 9
f 2 9 3
f 3 8 10
f 3 10 4
f 3 9 13
f 3 13 8
f 5 10 14
f 5 14 15
f 5 15 11
f 6 11 15
f 6 15 12
f 6 12 7
f 7 12 9
f 8 13 14
f 8 14 10
f 9 12 15
f 9 15 13
f 13 15 14

