# https://github.com/mikedh/trimesh
v 0.21426802 -0.02073528 0.54758373
v 0.21030896 -0.02074052 0.54635163
v 0.20912320 -0.02164342 0.54758373
v 0.21960007 -0.02158848 0.54758373
v 0.22118369 -0.02111936 0.54756491
v 0.22240587 -0.02074079 0.54753476
v 0.22238636 -0.02073904 0.54728125
v 0.22181818 -0.02074052 0.54637564
v 0.21795794 -0.02190794 0.54635163
v 0.20912320 -0.02100638 0.54635163
v 0.22033987 -0.02120426 0.54635405
v 0.20912320 -0.02210771 0.54758373
v 0.22019165 -0.02141639 0.54755358
v 0.21848711 -0.02190163 0.54753392
v 0.21930623 -0.02167231 0.54752331
v 0.21916451 -0.02170697 0.54721818
v 0.22123700 -0.02109424 0.54721251
v 0.22199891 -0.02086693 0.54746324
v 0.22069222 -0.02126149 0.54724459
v 0.22187149 -0.02089017 0.54711313
v 0.22223814 -0.02076376 0.54699940
v 0.22215363 -0.02074885 0.54674927
v 0.22193780 -0.02078458 0.54661781
v 0.22141773 -0.02088937 0.54642593
v 0.22104587 -0.02101417 0.54643811
v 0.21771871 -0.02199849 0.54643365
v 0.21736766 -0.02208890 0.54641507
v 0.20912320 -0.02210771 0.54635163
v 0.22003693 -0.02130959 0.54638649
v 0.21954676 -0.02146489 0.54640892
v 0.21853392 -0.02176191 0.54640639
v 0.22060771 -0.02114314 0.54641531
v 0.21774471 -0.02210059 0.54746180
v 0.21981980 -0.02151540 0.54716029
v 0.21807106 -0.02201394 0.54748435
v 0.21853522 -0.02187866 0.54713918
v 0.21889797 -0.02178703 0.54748592
v 0.21921912 -0.02167862 0.54700061
v 0.21940374 -0.02163617 0.54716415
v 0.22058431 -0.02127815 0.54701086
v 0.22030347 -0.02136977 0.54712338
v 0.22100557 -0.02114220 0.54694344
v 0.22155425 -0.02096688 0.54690557
v 0.22112128 -0.02106643 0.54670850
v 0.22133972 -0.02098421 0.54664772
v 0.22035028 -0.02123718 0.54645632
v 0.21815167 -0.02189639 0.54650468
v 0.21756659 -0.02208715 0.54662709
v 0.21980550 -0.02138979 0.54641350
v 0.21899289 -0.02163751 0.54643389
v 0.21777201 -0.02208393 0.54707032
v 0.21809836 -0.02199647 0.54708358
v 0.21893048 -0.02176003 0.54701279
v 0.21942845 -0.02159708 0.54682416
v 0.21815297 -0.02196235 0.54685070
v 0.21983020 -0.02147819 0.54681946
v 0.22028397 -0.02132074 0.54669355
v 0.22077284 -0.02117417 0.54671164
v 0.21999793 -0.02138925 0.54660828
v 0.21976519 -0.02144554 0.54655485
v 0.21920221 -0.02164047 0.54669741
v 0.21847931 -0.02184950 0.54670826
v 0.21773171 -0.02206982 0.54679956
v 0.21875885 -0.02177656 0.54674577
f 1 2 3
f 1 3 12
f 1 12 4
f 1 4 5
f 1 5 6
f 1 6 7
f 1 7 8
f 1 8 2
f 2 9 28
f 2 28 10
f 2 10 3
f 2 8 11
f 2 11 9
f 3 10 28
f 3 28 12
f 4 13 5
f 4 12 14
f 4 14 15
f 4 15 16
f 4 16 13
f 5 17 18
f 5 18 6
f 5 13 19
f 5 19 17
f 6 18 7
f 7 18 17
f 7 17 20
f 7 20 21
f 7 21 22
f 7 22 8
f 8 22 23
f 8 23 24
f 8 24 25
f 8 25 11
f 9 26 27
f 9 27 28
f 9 11 29
f 9 29 30
f 9 30 31
f 9 31 26
f 11 25 32
f 11 32 29
f 12 28 33
f 12 33 14
f 13 16 34
f 13 34 19
f 14 33 35
f 14 35 36
f 14 36 16
f 14 16 37
f 14 37 15
f 15 37 16
f 16 38 39
f 16 39 34
f 16 36 38
f 17 19 40
f 17 40 20
f 19 34 41
f 19 41 40
f 20 40 42
f 20 42 21
f 21 42 43
f 21 43 22
f 22 43 44
f 22 44 45
f 22 45 23
f 23 45 25
f 23 25 24
f 25 45 46
f 25 46 32
f 26 31 47
f 26 47 48
f 26 48 27
f 27 48 33
f 27 33 28
f 29 49 30
f 29 32 46
f 29 46 49
f 30 50 31
f 30 49 50
f 31 50 47
f 33 51 35
f 33 48 51
f 34 40 41
f 34 39 38
f 34 38 40
f 35 51 52
f 35 52 36
f 36 53 38
f 36 52 53
f 38 54 40
f 38 53 55
f 38 55 54
f 40 54 56
f 40 56 42
f 42 44 43
f 42 56 57
f 42 57 58
f 42 58 44
f 44 58 57
f 44 57 59
f 44 59 45
f 45 59 46
f 46 59 60
f 46 60 49
f 47 50 60
f 47 60 61
f 47 61 62
f 47 62 48
f 48 62 63
f 48 63 51
f 49 60 50
f 51 63 55
f 51 55 52
f 52 55 53
f 54 55 64
f 54 64 61
f 54 61 56
f 55 62 64
f 55 63 62
f 56 59 57
f 56 61 59
f 59 61 60
f 61 64 62

