# https://github.com/mikedh/trimesh
v -0.00488805 -0.01800880 0.46055911
v -0.00401558 -0.01800880 0.45931642
v 0.00198412 -0.01800880 0.46538252
v 0.00002257 -0.01408260 0.46400576
v -0.00089834 0.01224011 0.46335943
v -0.00488805 0.01224011 0.46055911
v -0.00461023 0.01224011 0.46016322
v -0.00393553 0.01224011 0.45920195
v -0.00412186 -0.01408260 0.45946757
v -0.00373843 -0.01800880 0.45892179
v 0.00198412 -0.01800880 0.46293888
v 0.00198412 0.01224011 0.46538252
v -0.00373843 0.01224011 0.45892179
v 0.00164374 -0.01800880 0.46269982
v 0.00198412 0.01224011 0.46293888
f 1 2 10
f 1 10 14
f 1 14 11
f 1 11 3
f 1 3 4
f 1 4 5
f 1 5 6
f 1 6 7
f 1 7 8
f 1 8 9
f 1 9 2
f 2 9 10
f 3 11 15
f 3 15 12
f 3 12 5
f 3 5 4
f 5 12 15
f 5 15 13
f 5 13 8
f 5 8 7
f 5 7 6
f 8 13 10
f 8 10 9
f 10 13 14
f 11 14 15
f 13 15 14

