# https://github.com/mikedh/trimesh
v 0.04941107 -0.04175000 0.41500357
v 0.04638796 -0.04175000 0.41687677
v 0.04941107 -0.03700000 0.41500357
v 0.05737377 -0.04175000 0.41500357
v 0.04638796 -0.04175000 0.42369721
v 0.04638796 -0.03700000 0.41687677
v 0.05737377 -0.03700000 0.41500357
v 0.05712103 -0.04175000 0.41548102
v 0.04664284 -0.04175000 0.42369721
v 0.04638796 -0.03700000 0.42369721
v 0.05674785 -0.03700000 0.41618570
v 0.05712103 -0.03900024 0.41548102
v 0.05674785 -0.04175000 0.41618570
v 0.04664284 -0.03700000 0.42369721
v 0.04827216 -0.04175000 0.42310571
v 0.05592405 -0.03700000 0.41742315
v 0.05586382 -0.04175000 0.41751337
v 0.04827216 -0.03700000 0.42310571
v 0.04876472 -0.03808335 0.42290657
v 0.04847435 -0.03700000 0.42302401
v 0.04974984 -0.04175000 0.42250656
v 0.05586382 -0.03700000 0.41751337
v 0.05572616 -0.03700000 0.41768188
v 0.05499163 -0.03700000 0.41857890
v 0.05535836 -0.04175000 0.41813039
v 0.04934762 -0.03700000 0.42266997
v 0.04964983 -0.03700000 0.42254741
v 0.05116084 -0.04175000 0.42176188
v 0.05069087 -0.03991621 0.42201039
v 0.04974984 -0.03700000 0.42250656
v 0.05485289 -0.03700000 0.41874656
v 0.05485289 -0.04175000 0.41874656
v 0.05116084 -0.03700000 0.42176188
v 0.05106513 -0.03700000 0.42181295
v 0.05182548 -0.04175000 0.42132188
v 0.05173514 -0.03700000 0.42138231
v 0.05134260 -0.03700000 0.42164188
v 0.05096834 -0.03700000 0.42186401
v 0.05469910 -0.03700000 0.41890060
v 0.05447756 -0.03808335 0.41912273
v 0.05428935 -0.04175000 0.41930997
v 0.05248904 -0.04175000 0.42088188
v 0.05230836 -0.03700000 0.42100188
v 0.05436571 -0.03700000 0.41923337
v 0.05372474 -0.04175000 0.41987252
v 0.05387853 -0.03700000 0.41971932
v 0.05372474 -0.03700000 0.41987252
v 0.05310743 -0.04175000 0.42037720
v 0.05338812 -0.03700000 0.42014826
v 0.05248904 -0.03700000 0.42088188
v 0.05364085 -0.03700000 0.41994145
f 1 2 6
f 1 6 3
f 1 3 7
f 1 7 4
f 1 4 8
f 1 8 13
f 1 13 17
f 1 17 25
f 1 25 32
f 1 32 41
f 1 41 45
f 1 45 48
f 1 48 42
f 1 42 35
f 1 35 28
f 1 28 21
f 1 21 15
f 1 15 9
f 1 9 5
f 1 5 2
f 2 5 10
f 2 10 6
f 3 6 10
f 3 10 14
f 3 14 18
f 3 18 20
f 3 20 26
f 3 26 27
f 3 27 30
f 3 30 38
f 3 38 34
f 3 34 33
f 3 33 37
f 3 37 36
f 3 36 43
f 3 43 50
f 3 50 49
f 3 49 51
f 3 51 47
f 3 47 46
f 3 46 44
f 3 44 39
f 3 39 31
f 3 31 24
f 3 24 23
f 3 23 22
f 3 22 16
f 3 16 11
f 3 11 7
f 4 7 12
f 4 12 8
f 5 9 14
f 5 14 10
f 7 11 12
f 8 12 11
f 8 11 13
f 9 15 18
f 9 18 14
f 11 16 13
f 13 16 17
f 15 19 20
f 15 20 18
f 15 21 19
f 16 22 17
f 17 22 23
f 17 23 24
f 17 24 25
f 19 26 20
f 19 21 27
f 19 27 26
f 21 28 29
f 21 29 30
f 21 30 27
f 24 31 32
f 24 32 25
f 28 33 34
f 28 34 29
f 28 35 36
f 28 36 37
f 28 37 33
f 29 34 38
f 29 38 30
f 31 39 40
f 31 40 32
f 32 40 41
f 35 42 36
f 36 42 43
f 39 44 40
f 40 45 41
f 40 44 46
f 40 46 47
f 40 47 45
f 42 48 49
f 42 49 50
f 42 50 43
f 45 47 51
f 45 51 49
f 45 49 48

