# https://github.com/mikedh/trimesh
v 0.04287559 -0.03945037 0.41299445
v 0.04254438 -0.03855049 0.41296949
v 0.04287559 -0.04214947 0.41299445
v 0.04337330 -0.03675180 0.41298197
v 0.04287581 -0.03675180 0.41299399
v 0.04262707 -0.03675180 0.41297550
v 0.04237900 -0.03675180 0.41295701
v 0.04237900 -0.04214947 0.41295701
v 0.04337330 -0.04214947 0.41298197
v 0.04386765 -0.03675180 0.41292003
v 0.04204397 -0.03675180 0.41289785
v 0.04221541 -0.04034972 0.41292835
v 0.04204397 -0.04214947 0.41289785
v 0.04386743 -0.04214947 0.41292003
v 0.04433332 -0.03675180 0.41281373
v 0.04433332 -0.04214947 0.41281373
v 0.04204397 -0.03675180 0.40880326
v 0.04204397 -0.04214947 0.40880326
v 0.04433332 -0.03675180 0.40827266
v 0.04433332 -0.04214947 0.40827266
v 0.04421881 -0.03675180 0.40827266
v 0.04421881 -0.04214947 0.40827266
f 1 2 3
f 1 3 9
f 1 9 4
f 1 4 5
f 1 5 6
f 1 6 7
f 1 7 2
f 2 8 3
f 2 7 8
f 3 8 13
f 3 13 18
f 3 18 22
f 3 22 20
f 3 20 16
f 3 16 14
f 3 14 9
f 4 10 15
f 4 15 19
f 4 19 21
f 4 21 17
f 4 17 11
f 4 11 7
f 4 7 6
f 4 6 5
f 4 9 10
f 7 11 12
f 7 12 8
f 8 12 13
f 9 14 10
f 10 14 16
f 10 16 15
f 11 17 18
f 11 18 13
f 11 13 12
f 15 16 20
f 15 20 19
f 17 21 22
f 17 22 18
f 19 20 22
f 19 22 21

