# https://github.com/mikedh/trimesh
v 0.21864988 0.02007235 0.54704755
v 0.22448468 0.02007192 0.54817274
v 0.22455057 0.02003549 0.54734818
v 0.22587566 0.01956930 0.54708822
v 0.22635335 0.01939713 0.54704755
v 0.22276975 0.01804670 0.54704742
v 0.21806604 0.01943660 0.54704755
v 0.21806787 0.02006845 0.54704803
v 0.21806604 0.01988197 0.54823188
v 0.21864988 0.01984641 0.54824455
v 0.22498250 0.01990669 0.54821571
v 0.22503741 0.01988067 0.54747418
v 0.22567250 0.01966557 0.54740129
v 0.22703420 0.01918420 0.54725513
v 0.22767295 0.01894916 0.54715182
v 0.22770589 0.01892010 0.54704755
v 0.22878024 0.01853457 0.54704755
v 0.23238032 0.01720539 0.54704755
v 0.22788709 0.01564246 0.54704911
v 0.23101862 0.01564202 0.54828015
v 0.22360250 0.01814341 0.54828040
v 0.22689327 0.01925966 0.54828015
v 0.22566701 0.01967772 0.54821933
v 0.22611542 0.01952160 0.54760453
v 0.22774433 0.01896000 0.54762215
v 0.22828974 0.01876441 0.54748179
v 0.22822202 0.01875704 0.54717729
v 0.22990584 0.01814427 0.54714989
v 0.23057387 0.01790316 0.54715460
v 0.23117419 0.01766421 0.54706710
v 0.23162992 0.01751372 0.54714494
v 0.23379509 0.01670841 0.54719032
v 0.23460406 0.01637318 0.54712660
v 0.23645992 0.01569059 0.54726165
v 0.23676373 0.01569623 0.54794669
v 0.23544596 0.01620449 0.54823502
v 0.23128584 0.01771841 0.54828015
v 0.22982714 0.01823578 0.54828015
v 0.22781937 0.01893918 0.54825831
v 0.22725749 0.01913520 0.54780282
v 0.22638263 0.01943530 0.54797710
v 0.22856061 0.01867942 0.54778557
v 0.23001748 0.01816509 0.54779763
v 0.23164090 0.01757791 0.54763579
v 0.23206552 0.01740964 0.54745222
v 0.23390857 0.01672445 0.54743605
v 0.23312522 0.01697338 0.54723908
v 0.23575161 0.01602105 0.54741987
v 0.23565095 0.01608957 0.54757339
v 0.23603164 0.01596641 0.54780174
v 0.23537825 0.01622227 0.54788960
v 0.23490605 0.01640397 0.54812265
v 0.23251027 0.01727738 0.54807776
v 0.23075141 0.01790706 0.54797119
v 0.22899804 0.01852763 0.54820943
v 0.23349127 0.01690789 0.54769505
v 0.23370358 0.01681336 0.54751932
v 0.23479440 0.01641699 0.54760827
v 0.23479623 0.01643867 0.54789527
f 1 2 3
f 1 3 4
f 1 4 5
f 1 5 6
f 1 6 7
f 1 7 8
f 1 8 2
f 2 8 9
f 2 9 10
f 2 10 11
f 2 11 12
f 2 12 3
f 3 12 13
f 3 13 4
f 4 13 14
f 4 14 15
f 4 15 5
f 5 15 16
f 5 16 6
f 6 16 17
f 6 17 18
f 6 18 19
f 6 19 7
f 7 19 9
f 7 9 8
f 9 19 20
f 9 20 21
f 9 21 10
f 10 21 22
f 10 22 11
f 11 23 24
f 11 24 12
f 11 22 23
f 12 24 13
f 13 24 25
f 13 25 26
f 13 26 14
f 14 26 15
f 15 26 27
f 15 27 16
f 16 27 17
f 17 27 28
f 17 28 29
f 17 29 30
f 17 30 18
f 18 30 31
f 18 31 32
f 18 32 33
f 18 33 19
f 19 33 34
f 19 34 20
f 20 34 35
f 20 35 36
f 20 36 37
f 20 37 21
f 21 38 22
f 21 37 38
f 22 38 39
f 22 39 40
f 22 40 41
f 22 41 23
f 23 41 24
f 24 41 40
f 24 40 25
f 25 40 42
f 25 42 26
f 26 42 43
f 26 43 44
f 26 44 45
f 26 45 27
f 27 45 28
f 28 45 29
f 29 45 31
f 29 31 30
f 31 45 46
f 31 46 47
f 31 47 32
f 32 46 48
f 32 48 33
f 32 47 46
f 33 48 34
f 34 48 35
f 35 48 49
f 35 49 50
f 35 50 51
f 35 51 36
f 36 51 52
f 36 52 37
f 37 52 53
f 37 53 54
f 37 54 38
f 38 42 55
f 38 55 39
f 38 54 43
f 38 43 42
f 39 55 40
f 40 55 42
f 43 54 44
f 44 54 53
f 44 53 56
f 44 56 45
f 45 56 57
f 45 57 46
f 46 57 58
f 46 58 49
f 46 49 48
f 49 51 50
f 49 58 51
f 51 58 56
f 51 56 59
f 51 59 52
f 52 59 53
f 53 59 56
f 56 58 57

