# https://github.com/mikedh/trimesh
v 0.01023347 0.03139935 0.47556675
v 0.00946612 0.03139935 0.47665994
v 0.00759605 0.03139924 0.47932646
v 0.01023347 0.03025022 0.47556675
v 0.01023347 0.03139935 0.45742845
v 0.00946612 0.03139935 0.45817867
v 0.00759605 0.03025022 0.47932646
v 0.00759605 0.03139924 0.45778212
v 0.01023347 0.03025022 0.45742845
v 0.00759605 0.03025022 0.45778212
f 1 2 3
f 1 3 7
f 1 7 4
f 1 4 9
f 1 9 5
f 1 5 6
f 1 6 2
f 2 6 8
f 2 8 3
f 3 8 10
f 3 10 7
f 4 7 10
f 4 10 9
f 5 9 10
f 5 10 8
f 5 8 6

