# https://github.com/mikedh/trimesh
v 0.04141044 -0.04175000 0.39864567
v 0.04088585 -0.04175000 0.39873847
v 0.04141044 -0.03675000 0.39864567
v 0.04141044 -0.04175000 0.40325892
v 0.04088585 -0.03675000 0.39873847
v 0.03997440 -0.04175000 0.39899498
v 0.04027804 -0.04008301 0.39890948
v 0.04141044 -0.03675000 0.40325892
v 0.03872034 -0.04175000 0.40541707
v 0.03997440 -0.03675000 0.39899498
v 0.03909298 -0.04175000 0.39934098
v 0.03872034 -0.03675000 0.40541707
v 0.03872034 -0.04175000 0.39953187
v 0.03909298 -0.03675000 0.39934098
v 0.03881199 -0.03841699 0.39948481
v 0.03872034 -0.03675000 0.39953187
f 1 2 5
f 1 5 3
f 1 3 8
f 1 8 4
f 1 4 9
f 1 9 13
f 1 13 11
f 1 11 6
f 1 6 2
f 2 6 7
f 2 7 5
f 3 5 10
f 3 10 14
f 3 14 16
f 3 16 12
f 3 12 8
f 4 8 12
f 4 12 9
f 5 7 10
f 6 10 7
f 6 11 14
f 6 14 10
f 9 12 16
f 9 16 13
f 11 13 15
f 11 15 14
f 13 16 15
f 14 15 16

