# https://github.com/mikedh/trimesh
v -0.04958935 0.03575000 0.50447551
v -0.04958935 0.03025000 0.50447551
v -0.05641621 0.03575000 0.50447551
v -0.05098748 0.03575000 0.51304175
v -0.05097434 0.03574408 0.51304175
v -0.05641621 0.03025000 0.50447551
v -0.05097434 0.03026131 0.51304175
v -0.05098052 0.03025000 0.51304175
v -0.05673214 0.03575000 0.50554891
v -0.05745515 0.03575000 0.51304175
v -0.05673214 0.03025000 0.50554891
v -0.05745515 0.03025000 0.51304175
v -0.05698705 0.03575000 0.50689486
v -0.05746365 0.03575000 0.51233734
v -0.05698705 0.03025000 0.50689486
v -0.05746365 0.03025000 0.51233734
v -0.05707202 0.03391631 0.50734351
v -0.05724118 0.03575000 0.50823996
v -0.05747986 0.03575000 0.51096791
v -0.05724118 0.03025000 0.50823996
v -0.05747986 0.03025000 0.51096791
v -0.05736091 0.03575000 0.50960352
v -0.05736091 0.03025000 0.50960352
f 1 2 6
f 1 6 3
f 1 3 9
f 1 9 13
f 1 13 18
f 1 18 22
f 1 22 19
f 1 19 14
f 1 14 10
f 1 10 4
f 1 4 5
f 1 5 7
f 1 7 2
f 2 7 8
f 2 8 12
f 2 12 16
f 2 16 21
f 2 21 23
f 2 23 20
f 2 20 15
f 2 15 11
f 2 11 6
f 3 6 11
f 3 11 9
f 4 10 12
f 4 12 8
f 4 8 7
f 4 7 5
f 9 11 15
f 9 15 17
f 9 17 13
f 10 14 16
f 10 16 12
f 13 17 18
f 14 19 21
f 14 21 16
f 15 20 17
f 17 20 18
f 18 20 23
f 18 23 22
f 19 22 23
f 19 23 21

