# https://github.com/mikedh/trimesh
v -0.00022437 -0.03321964 0.46383233
v 0.00107768 -0.03321964 0.46474615
v -0.00022437 -0.03288281 0.46383233
v 0.01480584 -0.03321964 0.46383233
v 0.00107768 -0.03288281 0.46474615
v 0.01416290 -0.03321964 0.46474615
v 0.01480436 -0.03288281 0.46383233
v 0.01480584 -0.03303860 0.46383233
v 0.01462340 -0.03288281 0.46409221
v 0.01416290 -0.03288281 0.46474615
f 1 2 5
f 1 5 3
f 1 3 7
f 1 7 8
f 1 8 4
f 1 4 6
f 1 6 2
f 2 6 10
f 2 10 5
f 3 5 10
f 3 10 9
f 3 9 7
f 4 8 9
f 4 9 6
f 6 9 10
f 7 9 8

