# https://github.com/mikedh/trimesh
v 0.03743073 -0.04063099 0.41958981
v 0.03743073 -0.03700000 0.41958981
v 0.03789458 -0.04063099 0.41958981
v 0.03621244 -0.04063099 0.41969719
v 0.03789639 -0.03700000 0.41958981
v 0.03621244 -0.03700000 0.41969719
v 0.03789639 -0.03999514 0.41958981
v 0.03789639 -0.04063099 0.41959062
v 0.03621244 -0.04063099 0.42369765
v 0.03789639 -0.03700000 0.42369765
v 0.03621244 -0.03700000 0.42369765
v 0.03789639 -0.04063099 0.42369765
f 1 2 5
f 1 5 7
f 1 7 3
f 1 3 8
f 1 8 12
f 1 12 9
f 1 9 4
f 1 4 6
f 1 6 2
f 2 6 11
f 2 11 10
f 2 10 5
f 3 7 8
f 4 9 11
f 4 11 6
f 5 10 12
f 5 12 8
f 5 8 7
f 9 12 10
f 9 10 11

