# https://github.com/mikedh/trimesh
v 0.02164631 -0.03125000 0.39297121
v 0.02168120 -0.03125000 0.39308035
v 0.02164631 -0.02925020 0.39297121
v 0.03362703 -0.03125000 0.39297121
v 0.02177538 -0.03125000 0.39330776
v 0.02168120 -0.02925020 0.39308035
v 0.03362703 -0.02925020 0.39297121
v 0.03946477 -0.03125000 0.39880791
v 0.02177538 -0.02925020 0.39330776
v 0.02186957 -0.03125000 0.39353460
v 0.03946477 -0.02925020 0.39880791
v 0.02815207 -0.03125000 0.39880791
v 0.02186957 -0.02925020 0.39353460
v 0.02210329 -0.03125000 0.39396771
v 0.02815207 -0.02925020 0.39880791
v 0.02342188 -0.03125000 0.39541160
v 0.02210329 -0.02925020 0.39396771
v 0.02237887 -0.03125000 0.39437568
v 0.02228643 -0.03058320 0.39423969
v 0.02342188 -0.02925020 0.39541160
v 0.02303991 -0.03125000 0.39510134
v 0.02237887 -0.02925020 0.39437568
v 0.02248177 -0.02991680 0.39450196
v 0.02253410 -0.03125000 0.39456538
v 0.02303991 -0.02925020 0.39510134
v 0.02286549 -0.03125000 0.39492821
v 0.02253410 -0.02925020 0.39456538
v 0.02269107 -0.03125000 0.39475451
v 0.02286549 -0.02925020 0.39492821
v 0.02269107 -0.02925020 0.39475451
f 1 2 6
f 1 6 3
f 1 3 7
f 1 7 4
f 1 4 8
f 1 8 12
f 1 12 16
f 1 16 21
f 1 21 26
f 1 26 28
f 1 28 24
f 1 24 18
f 1 18 14
f 1 14 10
f 1 10 5
f 1 5 2
f 2 5 9
f 2 9 6
f 3 6 9
f 3 9 13
f 3 13 17
f 3 17 22
f 3 22 27
f 3 27 30
f 3 30 29
f 3 29 25
f 3 25 20
f 3 20 15
f 3 15 11
f 3 11 7
f 4 7 11
f 4 11 8
f 5 10 13
f 5 13 9
f 8 11 15
f 8 15 12
f 10 14 17
f 10 17 13
f 12 15 20
f 12 20 16
f 14 18 19
f 14 19 17
f 16 20 25
f 16 25 21
f 17 19 22
f 18 23 22
f 18 22 19
f 18 24 23
f 21 25 29
f 21 29 26
f 22 23 27
f 23 24 27
f 24 28 30
f 24 30 27
f 26 29 30
f 26 30 28

