# https://github.com/mikedh/trimesh
v 0.23599807 -0.01302675 0.54780136
v 0.23118236 -0.01302675 0.54703528
v 0.22888825 -0.01634344 0.54780136
v 0.23622395 -0.01589861 0.54780136
v 0.24109093 -0.01393523 0.54779964
v 0.24287399 -0.01309688 0.54777819
v 0.24264970 -0.01305695 0.54751450
v 0.23519545 -0.01611064 0.54705066
v 0.22651083 -0.01634344 0.54703528
v 0.24157634 -0.01322676 0.54708073
v 0.23974522 -0.01415601 0.54706580
v 0.23464595 -0.01633629 0.54708185
v 0.23490388 -0.01632980 0.54736879
v 0.23512656 -0.01629701 0.54766254
v 0.23715473 -0.01554276 0.54778914
v 0.23855651 -0.01499274 0.54777946
v 0.23594200 -0.01600122 0.54776094
v 0.23666451 -0.01571906 0.54769562
v 0.23655718 -0.01577101 0.54779401
v 0.24077212 -0.01406153 0.54775344
v 0.24171892 -0.01362612 0.54773049
v 0.23911562 -0.01476545 0.54776964
v 0.24047414 -0.01419563 0.54776514
v 0.24213225 -0.01340047 0.54766067
v 0.24250392 -0.01323455 0.54769277
v 0.24189034 -0.01336020 0.54739406
v 0.24228604 -0.01315435 0.54739233
v 0.24193520 -0.01317806 0.54721632
v 0.23519385 -0.01619440 0.54727609
v 0.23714833 -0.01532489 0.54707870
v 0.23636653 -0.01564763 0.54707548
v 0.23606215 -0.01580218 0.54714207
v 0.24101243 -0.01355145 0.54710180
v 0.23973240 -0.01433492 0.54730496
v 0.23907236 -0.01450473 0.54711013
v 0.24054463 -0.01384854 0.54716202
v 0.23595962 -0.01594050 0.54742623
v 0.23520826 -0.01624506 0.54750640
v 0.23606535 -0.01593530 0.54760367
v 0.23759529 -0.01536515 0.54773919
v 0.23679748 -0.01565445 0.54760690
v 0.23811755 -0.01512001 0.54755223
v 0.24091951 -0.01390925 0.54753310
v 0.24131361 -0.01376542 0.54761852
v 0.23966672 -0.01449953 0.54762310
v 0.23903392 -0.01475149 0.54756812
v 0.24001276 -0.01437940 0.54771564
v 0.23846039 -0.01497358 0.54751878
v 0.24046934 -0.01406088 0.54742541
v 0.24010087 -0.01415991 0.54730526
v 0.24136808 -0.01354203 0.54729139
v 0.23740305 -0.01533236 0.54731291
v 0.23716435 -0.01547912 0.54746703
v 0.23779715 -0.01511319 0.54719367
v 0.23854209 -0.01482065 0.54724407
v 0.23884327 -0.01475344 0.54736001
v 0.23668214 -0.01567685 0.54749455
v 0.23931427 -0.01461642 0.54752583
f 1 2 3
f 1 3 4
f 1 4 5
f 1 5 6
f 1 6 7
f 1 7 2
f 2 8 9
f 2 9 3
f 2 7 10
f 2 10 11
f 2 11 8
f 3 9 12
f 3 12 13
f 3 13 14
f 3 14 4
f 4 15 16
f 4 16 5
f 4 14 17
f 4 17 18
f 4 18 19
f 4 19 15
f 5 20 21
f 5 21 6
f 5 16 22
f 5 22 23
f 5 23 20
f 6 21 24
f 6 24 25
f 6 25 7
f 7 25 24
f 7 24 26
f 7 26 27
f 7 27 28
f 7 28 10
f 8 29 12
f 8 12 9
f 8 11 30
f 8 30 31
f 8 31 32
f 8 32 29
f 10 28 33
f 10 33 11
f 11 34 35
f 11 35 30
f 11 33 36
f 11 36 34
f 12 29 13
f 13 29 37
f 13 37 38
f 13 38 14
f 14 38 39
f 14 39 17
f 15 19 18
f 15 18 40
f 15 40 16
f 16 40 41
f 16 41 42
f 16 42 22
f 17 39 18
f 18 41 40
f 18 39 41
f 20 43 44
f 20 44 21
f 20 23 45
f 20 45 43
f 21 44 24
f 22 46 47
f 22 47 23
f 22 42 48
f 22 48 46
f 23 47 45
f 24 44 43
f 24 43 26
f 26 43 49
f 26 49 50
f 26 50 51
f 26 51 27
f 27 51 28
f 28 51 33
f 29 32 52
f 29 52 53
f 29 53 37
f 30 54 31
f 30 35 55
f 30 55 54
f 31 54 52
f 31 52 32
f 33 51 36
f 34 36 50
f 34 50 49
f 34 49 43
f 34 43 56
f 34 56 55
f 34 55 35
f 36 51 50
f 37 53 57
f 37 57 38
f 38 57 39
f 39 57 41
f 41 57 42
f 42 57 53
f 42 53 48
f 43 45 58
f 43 58 56
f 45 47 46
f 45 46 58
f 46 56 58
f 46 48 56
f 48 53 52
f 48 52 56
f 52 54 56
f 54 55 56

