# https://github.com/mikedh/trimesh
v -0.01280358 -0.04063099 0.51731629
v -0.01280358 -0.03625000 0.51731629
v -0.00302464 -0.04063099 0.51731629
v -0.01430022 -0.04063099 0.52078642
v -0.00302464 -0.03625000 0.51731629
v -0.01430022 -0.03625000 0.52078642
v -0.00312839 -0.04063099 0.51774050
v -0.01430022 -0.04063099 0.52730639
v -0.00364713 -0.03625000 0.51985962
v -0.01430022 -0.03625000 0.52730639
v -0.00358091 -0.04063099 0.51958922
v -0.01244156 -0.04063099 0.52732501
v -0.00425528 -0.03808370 0.52158097
v -0.00383256 -0.04063099 0.52038474
v -0.00364713 -0.04063099 0.51985962
v -0.00455991 -0.03625000 0.52244115
v -0.01244156 -0.03625000 0.52732501
v -0.00717020 -0.04063099 0.52732501
v -0.00455991 -0.04063099 0.52244115
v -0.00572433 -0.03625000 0.52491982
v -0.00548703 -0.04063099 0.52441527
v -0.00717020 -0.03625000 0.52732501
v -0.00713047 -0.04063099 0.52727015
v -0.00655764 -0.04063099 0.52631395
v -0.00572433 -0.04063099 0.52491982
v -0.00713047 -0.03625000 0.52727015
v -0.00698699 -0.04063099 0.52703110
f 1 2 5
f 1 5 3
f 1 3 7
f 1 7 11
f 1 11 15
f 1 15 14
f 1 14 19
f 1 19 21
f 1 21 25
f 1 25 24
f 1 24 27
f 1 27 23
f 1 23 18
f 1 18 12
f 1 12 8
f 1 8 4
f 1 4 6
f 1 6 2
f 2 6 10
f 2 10 17
f 2 17 22
f 2 22 26
f 2 26 20
f 2 20 16
f 2 16 9
f 2 9 5
f 3 5 7
f 4 8 10
f 4 10 6
f 5 9 7
f 7 9 11
f 8 12 17
f 8 17 10
f 9 13 14
f 9 14 15
f 9 15 11
f 9 16 13
f 12 18 22
f 12 22 17
f 13 19 14
f 13 16 19
f 16 20 21
f 16 21 19
f 18 23 26
f 18 26 22
f 20 24 25
f 20 25 21
f 20 26 24
f 23 27 26
f 24 26 27

