# https://github.com/mikedh/trimesh
v 0.17581122 0.02574040 0.54549430
v 0.17588899 0.02313944 0.54555183
v 0.17588899 0.02203658 0.54503941
v 0.17564167 0.02561867 0.54511635
v 0.17506305 0.02559795 0.54517233
v 0.17472396 0.02559743 0.54525273
v 0.17541147 0.02570673 0.54547794
v 0.17485773 0.02566322 0.54548115
v 0.17218079 0.02538142 0.54553277
v 0.16905898 0.02490225 0.54555183
v 0.16049930 0.02079697 0.54555183
v 0.17464618 0.02552595 0.54506007
v 0.16000000 0.02072393 0.54555183
v 0.16000000 0.02044834 0.54503941
v 0.17380624 0.02547673 0.54514258
v 0.17432576 0.02557671 0.54532235
v 0.17394312 0.02557049 0.54544599
v 0.17329916 0.02550522 0.54546350
v 0.17277497 0.02544928 0.54548913
v 0.17178570 0.02530579 0.54540195
v 0.17057400 0.02513951 0.54546029
v 0.16977294 0.02501881 0.54551265
v 0.16866234 0.02480538 0.54536890
v 0.16820504 0.02473908 0.54547689
v 0.16776484 0.02466604 0.54555183
v 0.17333027 0.02541457 0.54509789
v 0.16873856 0.02475410 0.54505947
v 0.16052574 0.02312287 0.54552013
v 0.16007933 0.02300372 0.54548401
v 0.16697934 0.02451685 0.54555183
v 0.16015710 0.02299129 0.54514228
v 0.16449372 0.02395532 0.54507206
v 0.17294140 0.02539437 0.54517589
v 0.17255409 0.02534775 0.54517468
v 0.17108108 0.02517525 0.54526883
v 0.17141083 0.02524207 0.54535656
v 0.17184170 0.02525140 0.54514599
v 0.17007158 0.02503279 0.54532305
v 0.17073576 0.02509806 0.54515011
v 0.16905432 0.02486133 0.54530279
v 0.16834969 0.02469971 0.54511389
v 0.16792661 0.02464376 0.54520990
v 0.16781151 0.02466707 0.54548025
v 0.17218234 0.02529025 0.54513175
v 0.16945251 0.02489448 0.54515031
v 0.16750508 0.02453860 0.54508059
v 0.16100483 0.02324201 0.54547393
v 0.16313425 0.02373516 0.54553136
v 0.16194743 0.02347045 0.54550859
v 0.16582363 0.02426509 0.54536594
v 0.16434750 0.02397915 0.54543561
v 0.16372532 0.02385586 0.54548075
v 0.16086950 0.02317415 0.54515126
v 0.16144813 0.02331142 0.54512784
v 0.16401464 0.02387140 0.54514309
v 0.16512990 0.02411487 0.54527310
v 0.16561987 0.02418169 0.54509558
v 0.16275938 0.02360876 0.54513772
v 0.16355111 0.02377919 0.54515768
v 0.16717844 0.02450183 0.54520508
v 0.16161923 0.02339016 0.54547799
v 0.16251829 0.02359271 0.54544153
v 0.16202521 0.02345180 0.54518121
f 1 2 3
f 1 3 4
f 1 4 5
f 1 5 6
f 1 6 7
f 1 7 8
f 1 8 9
f 1 9 2
f 2 9 10
f 2 10 25
f 2 25 30
f 2 30 13
f 2 13 11
f 2 11 3
f 3 12 4
f 3 11 13
f 3 13 14
f 3 14 12
f 4 12 5
f 5 12 6
f 6 8 7
f 6 12 15
f 6 15 16
f 6 16 17
f 6 17 8
f 8 17 18
f 8 18 19
f 8 19 9
f 9 20 21
f 9 21 22
f 9 22 10
f 9 19 20
f 10 22 23
f 10 23 24
f 10 24 25
f 12 26 15
f 12 14 27
f 12 27 26
f 13 28 29
f 13 29 14
f 13 30 28
f 14 29 31
f 14 31 32
f 14 32 27
f 15 17 16
f 15 26 33
f 15 33 17
f 17 33 18
f 18 33 19
f 19 33 34
f 19 34 20
f 20 35 36
f 20 36 21
f 20 34 37
f 20 37 35
f 21 38 22
f 21 36 35
f 21 35 39
f 21 39 38
f 22 38 40
f 22 40 23
f 23 40 41
f 23 41 42
f 23 42 24
f 24 42 43
f 24 43 25
f 25 43 30
f 26 27 44
f 26 44 33
f 27 40 45
f 27 45 39
f 27 39 44
f 27 32 46
f 27 46 41
f 27 41 40
f 28 47 31
f 28 31 29
f 28 30 48
f 28 48 49
f 28 49 47
f 30 43 50
f 30 50 51
f 30 51 52
f 30 52 48
f 31 47 53
f 31 53 54
f 31 54 32
f 32 55 56
f 32 56 57
f 32 57 46
f 32 54 58
f 32 58 59
f 32 59 55
f 33 44 34
f 34 44 37
f 35 37 39
f 37 44 39
f 38 39 45
f 38 45 40
f 41 46 42
f 42 46 60
f 42 60 43
f 43 60 50
f 46 57 60
f 47 49 61
f 47 61 54
f 47 54 53
f 48 62 49
f 48 52 62
f 49 63 54
f 49 54 61
f 49 62 63
f 50 57 56
f 50 56 51
f 50 60 57
f 51 55 59
f 51 59 52
f 51 56 55
f 52 59 58
f 52 58 62
f 54 63 58
f 58 63 62

