# https://github.com/mikedh/trimesh
v 0.19666351 0.00480580 0.55103965
v 0.19743755 0.00377268 0.55103965
v 0.19666351 0.00480580 0.54970001
v 0.18356459 0.00480580 0.55103965
v 0.19743755 -0.00377333 0.55103965
v 0.19743755 0.00377268 0.54970001
v 0.18356459 0.00480580 0.54970001
v 0.18356459 -0.00558230 0.55103965
v 0.19743755 -0.00377333 0.54970001
v 0.19678165 -0.00558230 0.55103965
v 0.18356459 -0.00558230 0.54970001
v 0.19678165 -0.00558230 0.54970001
f 1 2 6
f 1 6 3
f 1 3 7
f 1 7 4
f 1 4 8
f 1 8 10
f 1 10 5
f 1 5 2
f 2 5 9
f 2 9 6
f 3 6 9
f 3 9 12
f 3 12 11
f 3 11 7
f 4 7 11
f 4 11 8
f 5 10 12
f 5 12 9
f 8 11 12
f 8 12 10

