# https://github.com/mikedh/trimesh
v 0.06147366 0.02915123 0.40035249
v 0.06147366 0.02838961 0.40035249
v 0.06142932 0.02915123 0.40023051
v 0.05140842 0.02915123 0.40035249
v 0.05140842 0.02838961 0.40035249
v 0.06139484 0.02804381 0.40016285
v 0.06142932 0.02838961 0.40023051
v 0.06095148 0.02804381 0.39923825
v 0.06119188 0.02915123 0.39973746
v 0.05140842 0.02915123 0.39963598
v 0.05140842 0.02838961 0.39963598
v 0.05352964 0.02804381 0.40015055
v 0.05586467 0.02804381 0.40016285
v 0.06137710 0.02804381 0.40012390
v 0.06056329 0.02804381 0.39843359
v 0.06056329 0.02838961 0.39843359
v 0.06096626 0.02838961 0.39926901
v 0.06080074 0.02915123 0.39892664
v 0.05140940 0.02915123 0.38988156
v 0.05140940 0.02838961 0.38988156
v 0.05352964 0.02804381 0.39101425
v 0.06050615 0.02804381 0.39833928
v 0.06051896 0.02838961 0.39836081
v 0.06027757 0.02915123 0.39796616
v 0.06056231 0.02915123 0.39843461
v 0.05146655 0.02915123 0.38990616
v 0.05152073 0.02891665 0.38993077
v 0.05163995 0.02838961 0.38998509
v 0.05204784 0.02838961 0.39016858
v 0.05212567 0.02838961 0.39020446
v 0.05292963 0.02838961 0.39066676
v 0.05385182 0.02804381 0.39120081
v 0.05952386 0.02804381 0.39673097
v 0.05952386 0.02838961 0.39673097
v 0.05952288 0.02915123 0.39673200
v 0.05212567 0.02915123 0.39020446
v 0.05236312 0.02915123 0.39034079
v 0.05322619 0.02915123 0.39083896
v 0.05385182 0.02838961 0.39120081
v 0.05444001 0.02915123 0.39162210
v 0.05428533 0.02838961 0.39151140
v 0.05496022 0.02804381 0.39199625
v 0.05834058 0.02804381 0.39516982
v 0.05898099 0.02915123 0.39601549
v 0.05385182 0.02915123 0.39120183
v 0.05547156 0.02915123 0.39236527
v 0.05543707 0.02838961 0.39233964
v 0.05547156 0.02804381 0.39236527
v 0.05831891 0.02804381 0.39514419
v 0.05831891 0.02838961 0.39514316
v 0.05831891 0.02915123 0.39514316
v 0.05696321 0.02915123 0.39368451
v 0.05581935 0.02838961 0.39267074
v 0.05549717 0.02804381 0.39238679
v 0.05824009 0.02804381 0.39505809
v 0.05822531 0.02838961 0.39504168
v 0.05728046 0.02838961 0.39402381
v 0.05696420 0.02838961 0.39368451
v 0.05690115 0.02838961 0.39362814
v 0.05629621 0.02804381 0.39309203
v 0.05728440 0.02804381 0.39402791
v 0.05710411 0.02804381 0.39383417
v 0.05696420 0.02804381 0.39368451
f 1 2 7
f 1 7 3
f 1 3 9
f 1 9 18
f 1 18 25
f 1 25 24
f 1 24 35
f 1 35 44
f 1 44 51
f 1 51 52
f 1 52 46
f 1 46 40
f 1 40 45
f 1 45 38
f 1 38 37
f 1 37 36
f 1 36 26
f 1 26 19
f 1 19 10
f 1 10 4
f 1 4 5
f 1 5 2
f 2 5 13
f 2 13 6
f 2 6 7
f 3 7 8
f 3 8 9
f 4 10 11
f 4 11 5
f 5 11 21
f 5 21 12
f 5 12 13
f 6 13 12
f 6 12 21
f 6 21 32
f 6 32 42
f 6 42 48
f 6 48 54
f 6 54 60
f 6 60 63
f 6 63 62
f 6 62 61
f 6 61 55
f 6 55 49
f 6 49 43
f 6 43 33
f 6 33 22
f 6 22 15
f 6 15 8
f 6 8 14
f 6 14 7
f 7 14 8
f 8 15 16
f 8 16 17
f 8 17 9
f 9 17 16
f 9 16 18
f 10 19 20
f 10 20 11
f 11 20 21
f 15 22 16
f 16 22 23
f 16 23 24
f 16 24 25
f 16 25 18
f 19 26 20
f 20 26 27
f 20 27 28
f 20 28 21
f 21 28 29
f 21 29 30
f 21 30 31
f 21 31 32
f 22 33 34
f 22 34 24
f 22 24 23
f 24 34 35
f 26 36 29
f 26 29 27
f 27 29 28
f 29 36 30
f 30 36 37
f 30 37 31
f 31 37 38
f 31 38 39
f 31 39 32
f 32 39 40
f 32 40 41
f 32 41 42
f 33 43 34
f 34 43 44
f 34 44 35
f 38 45 39
f 39 45 40
f 40 42 41
f 40 46 47
f 40 47 42
f 42 47 48
f 43 49 50
f 43 50 51
f 43 51 44
f 46 52 53
f 46 53 54
f 46 54 48
f 46 48 47
f 49 55 50
f 50 55 56
f 50 56 51
f 51 56 57
f 51 57 52
f 52 57 58
f 52 58 59
f 52 59 60
f 52 60 53
f 53 60 54
f 55 61 56
f 56 61 57
f 57 61 62
f 57 62 58
f 58 62 63
f 58 63 59
f 59 63 60

