# https://github.com/mikedh/trimesh
v -0.01737773 -0.03625000 0.49518368
v -0.01736472 -0.03458301 0.49505151
v -0.01733814 -0.03625000 0.49478695
v -0.01737773 -0.03625000 0.49558237
v -0.01737773 -0.03125000 0.49518368
v -0.01735143 -0.03291699 0.49491912
v -0.01725923 -0.03625000 0.49439612
v -0.01733814 -0.03125000 0.49478695
v -0.01728553 -0.03291699 0.49452633
v -0.01733814 -0.03625000 0.49597910
v -0.01736472 -0.03291699 0.49571454
v -0.01737773 -0.03125000 0.49558237
v -0.01723123 -0.03625000 0.49430503
v -0.01725923 -0.03125000 0.49439612
v -0.01725923 -0.03625000 0.49636992
v -0.01728553 -0.03458301 0.49623972
v -0.01733814 -0.03125000 0.49597910
v -0.01456474 -0.03625000 0.49430503
v -0.01723123 -0.03125000 0.49430503
v -0.01720776 -0.03625000 0.49653683
v -0.01725923 -0.03125000 0.49636992
v -0.01448866 -0.03625000 0.49653683
v -0.01456474 -0.03125000 0.49430503
v -0.01720776 -0.03125000 0.49653683
v -0.01448866 -0.03125000 0.49653683
f 1 2 3
f 1 3 7
f 1 7 13
f 1 13 18
f 1 18 22
f 1 22 20
f 1 20 15
f 1 15 10
f 1 10 4
f 1 4 12
f 1 12 5
f 1 5 2
f 2 5 6
f 2 6 3
f 3 6 8
f 3 8 9
f 3 9 7
f 4 10 11
f 4 11 12
f 5 12 17
f 5 17 21
f 5 21 24
f 5 24 25
f 5 25 23
f 5 23 19
f 5 19 14
f 5 14 8
f 5 8 6
f 7 9 14
f 7 14 19
f 7 19 13
f 8 14 9
f 10 15 16
f 10 16 17
f 10 17 11
f 11 17 12
f 13 19 23
f 13 23 18
f 15 20 24
f 15 24 21
f 15 21 16
f 16 21 17
f 18 23 25
f 18 25 22
f 20 22 25
f 20 25 24

