# https://github.com/mikedh/trimesh
v -0.03819424 0.03575000 0.49268460
v -0.03819424 0.03025000 0.49268460
v -0.04952613 0.03575000 0.49268460
v -0.04505119 0.03575000 0.49738108
v -0.04505119 0.03025000 0.49738108
v -0.04952613 0.03025000 0.49268460
v -0.05040076 0.03575000 0.49355999
v -0.05326213 0.03575000 0.49738108
v -0.05326213 0.03025000 0.49738108
v -0.05040076 0.03025000 0.49355999
v -0.05097893 0.03208369 0.49426710
v -0.05213381 0.03575000 0.49568042
v -0.05213381 0.03025000 0.49568042
f 1 2 6
f 1 6 3
f 1 3 7
f 1 7 12
f 1 12 8
f 1 8 4
f 1 4 5
f 1 5 2
f 2 5 9
f 2 9 13
f 2 13 10
f 2 10 6
f 3 6 10
f 3 10 7
f 4 8 9
f 4 9 5
f 7 10 11
f 7 11 12
f 8 12 13
f 8 13 9
f 10 13 11
f 11 13 12

