# https://github.com/mikedh/trimesh
v 0.03546703 -0.04175000 0.41500384
v 0.03658542 -0.04175000 0.41500384
v 0.03546703 -0.04175000 0.41775544
v 0.03546703 -0.03700000 0.41500384
v 0.03904498 -0.04175000 0.41663961
v 0.03658542 -0.03700000 0.41500384
v 0.03904288 -0.04175000 0.41775544
v 0.03546703 -0.03700000 0.41775544
v 0.03904498 -0.04175000 0.41775356
v 0.03904498 -0.03700000 0.41663961
v 0.03904498 -0.04170722 0.41775544
v 0.03904498 -0.03700000 0.41775544
f 1 2 5
f 1 5 9
f 1 9 7
f 1 7 3
f 1 3 8
f 1 8 4
f 1 4 6
f 1 6 2
f 2 6 10
f 2 10 5
f 3 7 11
f 3 11 12
f 3 12 8
f 4 8 12
f 4 12 10
f 4 10 6
f 5 10 12
f 5 12 11
f 5 11 9
f 7 9 11

