# https://github.com/mikedh/trimesh
v 0.18054852 0.02553502 0.54924793
v 0.17585393 0.02042109 0.54913263
v 0.17629740 0.02533513 0.54927290
v 0.17844359 0.02534002 0.54940313
v 0.18206044 0.02536124 0.54943912
v 0.18344036 0.02536777 0.54942590
v 0.18531634 0.02542896 0.54931696
v 0.18638582 0.02086248 0.54913287
v 0.17585393 0.01720000 0.54948808
v 0.17591478 0.02104034 0.55111109
v 0.18638995 0.01720000 0.54951329
v 0.17628812 0.02437974 0.55004132
v 0.17732048 0.02512137 0.54955246
v 0.17991838 0.02499654 0.54975344
v 0.18131480 0.02476483 0.54994683
v 0.18617234 0.02500144 0.54970374
v 0.18439433 0.02534002 0.54943496
v 0.18637241 0.02031095 0.55127632
v 0.18638995 0.01720000 0.55163128
v 0.18180365 0.01720000 0.55163324
v 0.17623346 0.01736399 0.55159897
v 0.17604473 0.01893456 0.55143667
v 0.17740195 0.02059569 0.55121145
v 0.17956567 0.02147521 0.55106996
v 0.17756799 0.02196229 0.55094095
v 0.17657380 0.02222174 0.55086580
v 0.17619943 0.02326280 0.55054952
v 0.17723178 0.02349859 0.55048244
v 0.17855188 0.02432181 0.55015564
v 0.18405812 0.02447275 0.55011427
v 0.18535759 0.02466856 0.54997131
v 0.17991632 0.02410560 0.55029322
v 0.18612799 0.02353612 0.55050668
v 0.18586294 0.02196065 0.55096984
v 0.18459338 0.02136751 0.55110007
v 0.18355380 0.02070828 0.55121855
v 0.18459235 0.02037377 0.55127094
v 0.18328772 0.01984345 0.55134976
v 0.18609292 0.01860005 0.55149933
v 0.18307527 0.01879912 0.55148073
v 0.18000089 0.01835039 0.55152235
v 0.17749993 0.01829573 0.55151769
v 0.18090330 0.01884808 0.55147265
v 0.17749993 0.01957502 0.55136714
v 0.18000089 0.02069359 0.55121390
v 0.18110131 0.02104687 0.55115809
v 0.18246885 0.02112030 0.55114756
v 0.18098890 0.02207651 0.55095148
v 0.17937591 0.02233433 0.55087730
v 0.17839718 0.02267292 0.55077351
v 0.17940478 0.02339089 0.55056984
v 0.18226980 0.02410397 0.55030276
v 0.18103840 0.02358181 0.55050301
v 0.18370438 0.02354591 0.55052602
v 0.18512451 0.02331338 0.55059652
v 0.18448715 0.02269576 0.55079652
v 0.18492134 0.02205774 0.55095588
v 0.18382710 0.02196392 0.55097792
v 0.18220071 0.02008821 0.55131525
v 0.18036392 0.01982632 0.55134781
v 0.18229043 0.02235554 0.55088661
v 0.18117763 0.02260765 0.55082198
v 0.18018343 0.02286465 0.55074046
v 0.18233890 0.02325382 0.55063397
f 1 2 3
f 1 3 4
f 1 4 5
f 1 5 6
f 1 6 7
f 1 7 8
f 1 8 2
f 2 9 10
f 2 10 3
f 2 8 11
f 2 11 9
f 3 10 12
f 3 12 13
f 3 13 4
f 4 14 5
f 4 13 14
f 5 15 6
f 5 14 15
f 6 15 16
f 6 16 17
f 6 17 7
f 7 17 16
f 7 16 8
f 8 16 18
f 8 18 19
f 8 19 11
f 9 20 21
f 9 21 22
f 9 22 10
f 9 11 19
f 9 19 20
f 10 22 23
f 10 23 24
f 10 24 25
f 10 25 26
f 10 26 27
f 10 27 12
f 12 27 28
f 12 28 29
f 12 29 14
f 12 14 13
f 14 29 15
f 15 30 31
f 15 31 16
f 15 29 32
f 15 32 30
f 16 33 18
f 16 31 33
f 18 33 34
f 18 34 35
f 18 35 36
f 18 36 37
f 18 37 38
f 18 38 39
f 18 39 19
f 19 39 20
f 20 39 40
f 20 40 41
f 20 41 21
f 21 42 22
f 21 41 42
f 22 42 43
f 22 43 44
f 22 44 23
f 23 44 45
f 23 45 24
f 24 45 46
f 24 46 47
f 24 47 48
f 24 48 25
f 25 48 49
f 25 49 26
f 26 49 50
f 26 50 27
f 27 50 51
f 27 51 28
f 28 51 32
f 28 32 29
f 30 32 52
f 30 52 33
f 30 33 31
f 32 51 53
f 32 53 52
f 33 52 54
f 33 54 55
f 33 55 56
f 33 56 34
f 34 56 57
f 34 57 35
f 35 57 58
f 35 58 48
f 35 48 47
f 35 47 36
f 36 47 46
f 36 46 45
f 36 45 59
f 36 59 37
f 37 59 38
f 38 59 60
f 38 60 43
f 38 43 40
f 38 40 39
f 40 43 41
f 41 43 42
f 43 60 44
f 44 60 45
f 45 60 59
f 48 58 61
f 48 61 62
f 48 62 49
f 49 62 63
f 49 63 50
f 50 63 51
f 51 63 64
f 51 64 53
f 52 53 54
f 53 64 54
f 54 64 55
f 55 64 56
f 56 64 62
f 56 62 61
f 56 61 57
f 57 61 58
f 62 64 63

