# https://github.com/mikedh/trimesh
v 0.18127957 -0.00652974 0.54206318
v 0.18127957 -0.00652974 0.54426026
v 0.18127957 -0.00641595 0.54206249
v 0.18131756 -0.00643768 0.54206409
v 0.18451363 -0.00402883 0.54217560
v 0.18451363 -0.00402883 0.54437473
v 0.18448926 -0.00403267 0.54437405
v 0.18451363 0.00214673 0.54437496
v 0.18127957 0.00652972 0.54426026
v 0.18127957 -0.00618580 0.54206113
v 0.18127957 -0.00591474 0.54205976
v 0.18127957 -0.00546596 0.54205771
v 0.18127957 -0.00507855 0.54205635
v 0.18127957 -0.00463104 0.54205498
v 0.18127957 -0.00412600 0.54205385
v 0.18127957 -0.00217233 0.54205020
v 0.18451363 -0.00388052 0.54217537
v 0.18451363 0.00402881 0.54437473
v 0.18450413 0.00403009 0.54437451
v 0.18127957 0.00652972 0.54206318
v 0.18127957 -0.00129778 0.54204998
v 0.18451363 -0.00131568 0.54217242
v 0.18451363 -0.00329237 0.54217469
v 0.18451363 0.00402881 0.54217560
v 0.18128147 0.00652588 0.54206318
v 0.18127957 0.00646579 0.54206272
v 0.18127957 0.00108039 0.54204998
v 0.18451363 0.00105354 0.54217242
v 0.18451363 0.00369638 0.54217515
v 0.18127957 0.00215440 0.54205020
v 0.18127957 0.00389711 0.54205339
v 0.18127957 0.00424872 0.54205407
v 0.18127957 0.00501843 0.54205612
v 0.18127957 0.00537771 0.54205749
v 0.18127957 0.00571015 0.54205885
v 0.18127957 0.00586869 0.54205954
v 0.18127957 0.00614742 0.54206090
f 1 2 9
f 1 9 20
f 1 20 26
f 1 26 37
f 1 37 36
f 1 36 35
f 1 35 34
f 1 34 33
f 1 33 32
f 1 32 31
f 1 31 30
f 1 30 27
f 1 27 21
f 1 21 16
f 1 16 15
f 1 15 14
f 1 14 13
f 1 13 12
f 1 12 11
f 1 11 10
f 1 10 3
f 1 3 4
f 1 4 5
f 1 5 6
f 1 6 2
f 2 6 7
f 2 7 8
f 2 8 9
f 3 10 4
f 4 10 5
f 5 10 11
f 5 11 12
f 5 12 13
f 5 13 14
f 5 14 15
f 5 15 16
f 5 16 17
f 5 17 23
f 5 23 22
f 5 22 28
f 5 28 29
f 5 29 24
f 5 24 18
f 5 18 8
f 5 8 6
f 6 8 7
f 8 18 19
f 8 19 9
f 9 19 18
f 9 18 24
f 9 24 20
f 16 21 22
f 16 22 23
f 16 23 17
f 20 24 25
f 20 25 26
f 21 27 28
f 21 28 22
f 24 29 30
f 24 30 31
f 24 31 32
f 24 32 33
f 24 33 34
f 24 34 35
f 24 35 36
f 24 36 37
f 24 37 26
f 24 26 25
f 27 30 28
f 28 30 29

