# https://github.com/mikedh/trimesh
v 0.03861756 0.03004652 0.42751060
v 0.03854906 0.03004652 0.42749836
v 0.03861756 0.02838950 0.42751060
v 0.03861756 0.03004652 0.40667432
v 0.03854906 0.02838950 0.42749836
v 0.03675930 0.03004652 0.42699459
v 0.03715712 0.02915135 0.42710676
v 0.03861756 0.02838950 0.40667432
v 0.03549396 0.03004652 0.40667432
v 0.03714336 0.02838950 0.42710268
v 0.03663056 0.03004652 0.42695787
v 0.03663056 0.02838950 0.42695787
v 0.03549396 0.02838950 0.40667432
v 0.03549396 0.03004652 0.42651121
v 0.03653638 0.03004652 0.42692116
v 0.03576733 0.02838950 0.42661930
v 0.03549396 0.02838950 0.42651121
v 0.03563798 0.02838950 0.42656831
f 1 2 5
f 1 5 3
f 1 3 8
f 1 8 4
f 1 4 9
f 1 9 14
f 1 14 15
f 1 15 11
f 1 11 6
f 1 6 2
f 2 6 7
f 2 7 5
f 3 5 10
f 3 10 12
f 3 12 16
f 3 16 18
f 3 18 17
f 3 17 13
f 3 13 8
f 4 8 13
f 4 13 9
f 5 7 10
f 6 11 12
f 6 12 7
f 7 12 10
f 9 13 17
f 9 17 14
f 11 15 12
f 12 15 16
f 14 17 18
f 14 18 16
f 14 16 15

