# https://github.com/mikedh/trimesh
v 0.15784701 -0.01250000 0.58317817
v 0.15753792 -0.01250000 0.58308408
v 0.15784701 -0.01650000 0.58317817
v 0.15784701 -0.01250000 0.57942720
v 0.15701545 -0.01250000 0.58288038
v 0.15753792 -0.01650000 0.58308408
v 0.15784701 -0.01650000 0.57942720
v 0.15700918 -0.01250000 0.57327065
v 0.15650972 -0.01250000 0.58263788
v 0.15701545 -0.01650000 0.58288038
v 0.15700918 -0.01650000 0.57327065
v 0.15302031 -0.01250000 0.57327065
v 0.15602334 -0.01250000 0.58235852
v 0.15650972 -0.01650000 0.58263788
v 0.15302031 -0.01650000 0.57327065
v 0.15291571 -0.01250000 0.57353934
v 0.15602334 -0.01650000 0.58235852
v 0.15555944 -0.01250000 0.58204425
v 0.15291571 -0.01650000 0.57353934
v 0.15275149 -0.01250000 0.57407575
v 0.15555944 -0.01650000 0.58204425
v 0.15512065 -0.01250000 0.58169505
v 0.15275149 -0.01650000 0.57407575
v 0.15262807 -0.01250000 0.57462282
v 0.15512065 -0.01650000 0.58169505
v 0.15470853 -0.01250000 0.58131481
v 0.15262807 -0.01650000 0.57462282
v 0.15254543 -0.01250000 0.57517766
v 0.15470853 -0.01650000 0.58131481
v 0.15432623 -0.01250000 0.58090450
v 0.15254543 -0.01650000 0.57517766
v 0.15250464 -0.01250000 0.57573735
v 0.15432623 -0.01650000 0.58090450
v 0.15397582 -0.01250000 0.58046607
v 0.15250464 -0.01650000 0.57573735
v 0.15250621 -0.01250000 0.57629800
v 0.15397582 -0.01650000 0.58046607
v 0.15365889 -0.01250000 0.58000338
v 0.15250621 -0.01650000 0.57629800
v 0.15254909 -0.01250000 0.57685672
v 0.15365889 -0.01650000 0.58000338
v 0.15337699 -0.01250000 0.57951838
v 0.15254909 -0.01650000 0.57685672
v 0.15263434 -0.01250000 0.57741156
v 0.15337699 -0.01650000 0.57951838
v 0.15313275 -0.01250000 0.57901399
v 0.15263434 -0.01650000 0.57741156
v 0.15276038 -0.01250000 0.57795766
v 0.15313275 -0.01650000 0.57901399
v 0.15292670 -0.01250000 0.57849213
v 0.15276038 -0.01650000 0.57795766
v 0.15292670 -0.01650000 0.57849213
f 1 2 6
f 1 6 3
f 1 3 7
f 1 7 4
f 1 4 8
f 1 8 12
f 1 12 16
f 1 16 20
f 1 20 24
f 1 24 28
f 1 28 32
f 1 32 36
f 1 36 40
f 1 40 44
f 1 44 48
f 1 48 50
f 1 50 46
f 1 46 42
f 1 42 38
f 1 38 34
f 1 34 30
f 1 30 26
f 1 26 22
f 1 22 18
f 1 18 13
f 1 13 9
f 1 9 5
f 1 5 2
f 2 5 10
f 2 10 6
f 3 6 10
f 3 10 14
f 3 14 17
f 3 17 21
f 3 21 25
f 3 25 29
f 3 29 33
f 3 33 37
f 3 37 41
f 3 41 45
f 3 45 49
f 3 49 52
f 3 52 51
f 3 51 47
f 3 47 43
f 3 43 39
f 3 39 35
f 3 35 31
f 3 31 27
f 3 27 23
f 3 23 19
f 3 19 15
f 3 15 11
f 3 11 7
f 4 7 11
f 4 11 8
f 5 9 14
f 5 14 10
f 8 11 15
f 8 15 12
f 9 13 17
f 9 17 14
f 12 15 19
f 12 19 16
f 13 18 21
f 13 21 17
f 16 19 23
f 16 23 20
f 18 22 25
f 18 25 21
f 20 23 27
f 20 27 24
f 22 26 29
f 22 29 25
f 24 27 31
f 24 31 28
f 26 30 33
f 26 33 29
f 28 31 35
f 28 35 32
f 30 34 37
f 30 37 33
f 32 35 39
f 32 39 36
f 34 38 41
f 34 41 37
f 36 39 43
f 36 43 40
f 38 42 45
f 38 45 41
f 40 43 47
f 40 47 44
f 42 46 49
f 42 49 45
f 44 47 51
f 44 51 48
f 46 50 52
f 46 52 49
f 48 51 52
f 48 52 50

