# https://github.com/mikedh/trimesh
v 0.00500385 -0.03207155 0.46231543
v 0.00500066 -0.03207155 0.46423490
v 0.00500385 -0.03173490 0.46231543
v 0.01587058 -0.03207155 0.46231543
v 0.00500066 -0.03193676 0.46423490
v 0.00500066 -0.03207155 0.46474600
v 0.00500066 -0.03173490 0.46423514
v 0.01587058 -0.03173490 0.46231543
v 0.01419902 -0.03173490 0.46469675
v 0.01564927 -0.03207155 0.46263070
v 0.00500066 -0.03173490 0.46474600
v 0.01416391 -0.03207155 0.46474600
v 0.01416391 -0.03173490 0.46474600
v 0.01429053 -0.03207155 0.46456612
v 0.01441608 -0.03207155 0.46438742
f 1 2 5
f 1 5 3
f 1 3 8
f 1 8 4
f 1 4 10
f 1 10 15
f 1 15 14
f 1 14 12
f 1 12 6
f 1 6 2
f 2 6 11
f 2 11 7
f 2 7 5
f 3 5 7
f 3 7 11
f 3 11 13
f 3 13 9
f 3 9 8
f 4 8 9
f 4 9 10
f 6 12 13
f 6 13 11
f 9 13 12
f 9 12 14
f 9 14 15
f 9 15 10

