# https://github.com/mikedh/trimesh
v 0.22623344 -0.01947935 0.54753590
v 0.22577824 -0.01963657 0.54758567
v 0.22561558 -0.01967935 0.54730188
v 0.22613147 -0.01949668 0.54724136
v 0.22592512 -0.01950861 0.54687372
v 0.21460593 -0.01948279 0.54635144
v 0.21723271 -0.01947935 0.54758567
v 0.22524293 -0.01981641 0.54758567
v 0.22466392 -0.02000891 0.54752382
v 0.22506207 -0.01986730 0.54730647
v 0.22484843 -0.01992631 0.54717165
v 0.22558767 -0.01964296 0.54694705
v 0.22513854 -0.01978678 0.54689378
v 0.22483022 -0.01988746 0.54686683
v 0.22451098 -0.01996896 0.54675170
v 0.22482415 -0.01984997 0.54671256
v 0.22569327 -0.01952422 0.54664997
v 0.21383271 -0.02073503 0.54635144
v 0.21383271 -0.01975323 0.54635144
v 0.21383271 -0.02001703 0.54758567
v 0.22521623 -0.01959477 0.54643034
v 0.22439202 -0.01985157 0.54635314
v 0.22382879 -0.02028402 0.54758567
v 0.22423301 -0.02015237 0.54757806
v 0.22396960 -0.02023473 0.54741013
v 0.22424150 -0.02014278 0.54734924
v 0.22446121 -0.02006300 0.54724546
v 0.22380694 -0.02027283 0.54716657
v 0.22432890 -0.02008045 0.54700045
v 0.22457046 -0.01998027 0.54688906
v 0.22370862 -0.02025132 0.54679942
v 0.22455468 -0.01991868 0.54663415
v 0.22369527 -0.02023534 0.54671509
v 0.22447820 -0.01989631 0.54650802
v 0.22490305 -0.01970529 0.54642140
v 0.22350348 -0.02016331 0.54635434
v 0.22315875 -0.02028476 0.54636014
v 0.22253361 -0.02050590 0.54638322
v 0.22195096 -0.02071487 0.54642260
v 0.22215246 -0.02073233 0.54667462
v 0.22242436 -0.02073503 0.54757263
v 0.21426727 -0.02073503 0.54758567
v 0.21384121 -0.02073479 0.54699876
v 0.22402422 -0.01999859 0.54638721
v 0.22358238 -0.02036417 0.54758567
v 0.22276667 -0.02062649 0.54754967
v 0.22278852 -0.02061174 0.54728497
v 0.22316967 -0.02048722 0.54725271
v 0.22352897 -0.02036355 0.54715026
v 0.22313568 -0.02048144 0.54704745
v 0.22341608 -0.02036970 0.54691830
v 0.22394411 -0.02019109 0.54689160
v 0.22272661 -0.02057929 0.54682008
v 0.22300216 -0.02046865 0.54673068
v 0.22341365 -0.02030578 0.54663221
v 0.22316846 -0.02033368 0.54647999
v 0.22263436 -0.02058089 0.54669395
v 0.22288806 -0.02043030 0.54648905
v 0.22234789 -0.02062280 0.54652469
v 0.22240373 -0.02069779 0.54691830
v 0.22250205 -0.02070135 0.54725791
v 0.22284193 -0.02057289 0.54702643
f 1 2 3
f 1 3 4
f 1 4 5
f 1 5 6
f 1 6 7
f 1 7 2
f 2 8 9
f 2 9 10
f 2 10 3
f 2 7 20
f 2 20 42
f 2 42 45
f 2 45 23
f 2 23 8
f 3 10 11
f 3 11 4
f 4 11 12
f 4 12 5
f 5 12 13
f 5 13 14
f 5 14 15
f 5 15 16
f 5 16 17
f 5 17 6
f 6 18 19
f 6 19 20
f 6 20 7
f 6 17 21
f 6 21 22
f 6 22 18
f 8 23 24
f 8 24 9
f 9 24 25
f 9 25 26
f 9 26 10
f 10 26 27
f 10 27 11
f 11 27 28
f 11 28 29
f 11 29 12
f 12 29 30
f 12 30 14
f 12 14 13
f 14 30 31
f 14 31 15
f 15 32 16
f 15 31 33
f 15 33 32
f 16 32 17
f 17 32 34
f 17 34 35
f 17 35 21
f 18 20 19
f 18 22 36
f 18 36 37
f 18 37 38
f 18 38 39
f 18 39 40
f 18 40 41
f 18 41 42
f 18 42 43
f 18 43 20
f 20 43 42
f 21 35 22
f 22 35 44
f 22 44 36
f 23 25 24
f 23 45 25
f 25 45 46
f 25 46 47
f 25 47 48
f 25 48 26
f 26 48 49
f 26 49 27
f 27 49 28
f 28 49 29
f 29 49 50
f 29 50 51
f 29 51 52
f 29 52 30
f 30 52 31
f 31 53 54
f 31 54 33
f 31 52 53
f 32 33 55
f 32 55 56
f 32 56 34
f 33 54 57
f 33 57 55
f 34 44 35
f 34 56 37
f 34 37 44
f 36 44 37
f 37 56 38
f 38 56 39
f 39 56 58
f 39 58 59
f 39 59 40
f 40 59 57
f 40 57 53
f 40 53 60
f 40 60 61
f 40 61 41
f 41 46 45
f 41 45 42
f 41 61 46
f 46 61 47
f 47 61 48
f 48 61 50
f 48 50 49
f 50 62 53
f 50 53 51
f 50 61 62
f 51 53 52
f 53 57 54
f 53 62 60
f 55 57 59
f 55 59 58
f 55 58 56
f 60 62 61

