# https://github.com/mikedh/trimesh
v 0.16000000 -0.01624301 0.55147027
v 0.16033085 -0.01865292 0.55106628
v 0.16249798 -0.01690541 0.55144998
v 0.16249798 -0.01492258 0.55166031
v 0.16000000 -0.01362829 0.55172516
v 0.16000000 0.01553460 0.55155252
v 0.16010807 0.01783555 0.55122607
v 0.16151126 -0.02139838 0.55027407
v 0.16209731 -0.01954628 0.55094164
v 0.16456536 -0.02019996 0.55090595
v 0.16825456 -0.02049194 0.55101103
v 0.16743492 -0.01873572 0.55131230
v 0.16088198 0.02052872 0.55055976
v 0.16499846 -0.01729326 0.55145324
v 0.16827451 -0.01602948 0.55163784
v 0.16499846 -0.01509689 0.55167770
v 0.16249798 -0.01305305 0.55179382
v 0.16000000 -0.01096127 0.55187879
v 0.16000000 0.01321621 0.55175886
v 0.16249798 0.01442334 0.55170397
v 0.16249798 0.01600961 0.55155831
v 0.16480311 0.01823648 0.55132172
v 0.16280638 0.01796629 0.55129726
v 0.16482140 0.01950898 0.55108893
v 0.16849231 -0.01764189 0.55014925
v 0.16818889 -0.02248785 0.55040269
v 0.16430517 -0.02179059 0.55037715
v 0.16531517 0.02170970 0.55045541
v 0.16636424 -0.02207385 0.55042787
v 0.16849231 -0.01307484 0.55182969
v 0.16294022 0.02075533 0.55063240
v 0.16814234 0.02203219 0.55056266
v 0.16499846 -0.01248653 0.55183821
v 0.16249798 -0.01055599 0.55190234
v 0.16000000 -0.00923119 0.55193422
v 0.16499846 -0.01047319 0.55191447
v 0.16000000 0.01071043 0.55188531
v 0.16249798 0.01247537 0.55182571
v 0.16849231 0.01422724 0.55176918
v 0.16499846 0.01476761 0.55170614
v 0.16805755 0.01683324 0.55156465
v 0.16521708 0.01665021 0.55153512
v 0.16736510 0.01886837 0.55128603
v 0.16849231 -0.00669927 0.55198313
v 0.16499846 -0.00838577 0.55196103
v 0.16249798 -0.00832476 0.55195831
v 0.16000000 -0.00666441 0.55197897
v 0.16249798 0.00977349 0.55192734
v 0.16849231 0.01179554 0.55188549
v 0.16499846 0.01278478 0.55182643
v 0.16000000 0.00809135 0.55195868
v 0.16499846 -0.00588871 0.55198875
v 0.16499846 -0.00665569 0.55198277
v 0.16849231 -0.00417606 0.55199654
v 0.16249798 -0.00662954 0.55198132
v 0.16249798 -0.00464235 0.55199400
v 0.16249798 -0.00221502 0.55199926
v 0.16000000 0.00606494 0.55198476
v 0.16499846 0.00982143 0.55193241
v 0.16849231 0.00981707 0.55194020
v 0.16499846 -0.00413248 0.55199654
v 0.16849231 -0.00179666 0.55199980
v 0.16499846 -0.00317811 0.55199853
v 0.16849231 0.00654431 0.55195795
f 1 2 3
f 1 3 4
f 1 4 5
f 1 5 18
f 1 18 35
f 1 35 47
f 1 47 58
f 1 58 51
f 1 51 37
f 1 37 19
f 1 19 6
f 1 6 7
f 1 7 2
f 2 8 9
f 2 9 10
f 2 10 11
f 2 11 12
f 2 12 3
f 2 7 13
f 2 13 8
f 3 12 14
f 3 14 4
f 4 14 15
f 4 15 16
f 4 16 5
f 5 17 18
f 5 16 17
f 6 19 20
f 6 20 21
f 6 21 22
f 6 22 23
f 6 23 7
f 7 23 22
f 7 22 24
f 7 24 13
f 8 25 26
f 8 26 27
f 8 27 9
f 8 13 28
f 8 28 25
f 9 27 10
f 10 27 29
f 10 29 26
f 10 26 11
f 11 26 25
f 11 25 30
f 11 30 15
f 11 15 12
f 12 15 14
f 13 24 31
f 13 31 32
f 13 32 28
f 15 30 16
f 16 30 17
f 17 33 18
f 17 30 33
f 18 34 35
f 18 33 30
f 18 30 36
f 18 36 34
f 19 37 38
f 19 38 39
f 19 39 40
f 19 40 20
f 20 40 41
f 20 41 21
f 21 41 42
f 21 42 22
f 22 43 24
f 22 42 41
f 22 41 43
f 24 43 32
f 24 32 31
f 25 28 32
f 25 32 39
f 25 39 49
f 25 49 60
f 25 60 64
f 25 64 62
f 25 62 54
f 25 54 44
f 25 44 30
f 26 29 27
f 30 44 36
f 32 43 41
f 32 41 39
f 34 36 35
f 35 36 45
f 35 45 46
f 35 46 47
f 36 44 45
f 37 48 49
f 37 49 50
f 37 50 38
f 37 51 48
f 38 50 39
f 39 41 40
f 39 50 49
f 44 52 53
f 44 53 45
f 44 54 52
f 45 53 55
f 45 55 47
f 45 47 46
f 47 55 52
f 47 52 56
f 47 56 57
f 47 57 58
f 48 59 49
f 48 51 59
f 49 59 60
f 51 58 60
f 51 60 59
f 52 55 53
f 52 54 61
f 52 61 56
f 54 62 63
f 54 63 61
f 56 61 57
f 57 61 63
f 57 63 62
f 57 62 58
f 58 62 64
f 58 64 60

