# https://github.com/mikedh/trimesh
v 0.04277222 0.02624434 0.39902361
v 0.04278382 0.02624434 0.39902361
v 0.04233153 0.02624434 0.39905645
v 0.04087286 0.02625022 0.39379368
v 0.04291644 0.02624434 0.39902679
v 0.04156519 0.02625022 0.39379368
v 0.04189125 0.02624434 0.39908930
v 0.04087286 0.03025000 0.39379368
v 0.04188345 0.02624434 0.39909036
v 0.04100948 0.02624434 0.39924293
v 0.04099808 0.02624434 0.39924611
v 0.04087286 0.02624434 0.39928108
v 0.04291644 0.02625022 0.39609714
v 0.04291644 0.02624434 0.40400136
v 0.04156519 0.03025000 0.39379368
v 0.04087286 0.03025000 0.40461802
v 0.04087286 0.02624434 0.40461802
v 0.04291644 0.03025000 0.39609714
v 0.04291644 0.03025000 0.40400136
f 1 2 5
f 1 5 14
f 1 14 17
f 1 17 12
f 1 12 11
f 1 11 10
f 1 10 9
f 1 9 7
f 1 7 3
f 1 3 4
f 1 4 6
f 1 6 2
f 2 6 5
f 3 7 4
f 4 8 15
f 4 15 6
f 4 7 9
f 4 9 10
f 4 10 11
f 4 11 12
f 4 12 17
f 4 17 16
f 4 16 8
f 5 13 18
f 5 18 19
f 5 19 14
f 5 6 13
f 6 15 18
f 6 18 13
f 8 16 19
f 8 19 18
f 8 18 15
f 14 19 16
f 14 16 17

