# https://github.com/mikedh/trimesh
v 0.01117673 0.02225072 0.45718084
v 0.01118700 0.02074411 0.45718084
v 0.01117673 0.02225072 0.45882118
v 0.01117673 0.03024907 0.45718084
v 0.01466724 0.02074411 0.45718084
v 0.01326202 0.02074411 0.45863750
v 0.01352389 0.02074411 0.45882118
v 0.01117673 0.03024907 0.45882118
v 0.01466724 0.03024907 0.45718084
v 0.01479447 0.02074411 0.45726995
v 0.01700471 0.02074411 0.45882118
v 0.01700471 0.03024907 0.45882118
f 1 2 3
f 1 3 8
f 1 8 4
f 1 4 9
f 1 9 5
f 1 5 2
f 2 5 10
f 2 10 11
f 2 11 7
f 2 7 6
f 2 6 3
f 3 6 7
f 3 7 11
f 3 11 12
f 3 12 8
f 4 8 12
f 4 12 9
f 5 9 10
f 9 12 10
f 10 12 11

