# https://github.com/mikedh/trimesh
v 0.03519913 0.01575864 0.36319725
v 0.03519913 0.01575864 0.36353125
v 0.03519913 0.02056198 0.36319725
v 0.03520340 0.01368963 0.36319725
v 0.03519913 0.02056198 0.36353125
v 0.03520340 0.01368963 0.36353125
v 0.03523417 0.01371200 0.36451714
v 0.03651601 0.02102143 0.36353125
v 0.03602891 0.02085138 0.36319725
v 0.03602891 0.01368963 0.36319725
v 0.03602977 0.00676059 0.36319741
v 0.03587765 0.00676059 0.36353125
v 0.03565376 0.02071861 0.36451714
v 0.03604258 0.02085585 0.36484325
v 0.03651601 0.02102143 0.36451698
v 0.03587765 0.00676059 0.36451698
v 0.03604258 0.00676059 0.36484325
v 0.03679118 0.02109602 0.36353125
v 0.03651687 0.02102143 0.36319741
v 0.03695355 0.02113928 0.36319741
v 0.03788844 0.02138989 0.36319741
v 0.03810550 0.02144806 0.36319741
v 0.03928052 0.02167033 0.36319741
v 0.03972233 0.02175387 0.36319741
v 0.04045725 0.02183740 0.36319741
v 0.04135454 0.02193735 0.36319741
v 0.04180575 0.02195525 0.36319741
v 0.04299872 0.02200000 0.36319741
v 0.04390028 0.02196569 0.36319741
v 0.04392933 0.02196420 0.36319741
v 0.04392933 0.00794054 0.36319741
v 0.03873531 0.00676059 0.36319741
v 0.03651687 0.02102143 0.36484325
v 0.03693133 0.02113331 0.36484325
v 0.03873445 0.00676059 0.36484325
v 0.03757567 0.02130635 0.36476639
v 0.03801064 0.02142270 0.36451698
v 0.03810550 0.02144806 0.36484325
v 0.03823026 0.02147193 0.36451698
v 0.03943690 0.02170016 0.36451698
v 0.03972147 0.02175387 0.36451698
v 0.03983684 0.02176729 0.36451698
v 0.04125541 0.02192691 0.36451698
v 0.04023335 0.02181204 0.36484325
v 0.04135454 0.02193735 0.36451698
v 0.04161347 0.02194779 0.36484325
v 0.04248256 0.02198061 0.36484325
v 0.04299872 0.02200000 0.36484325
v 0.04391566 0.02196569 0.36353125
v 0.04392933 0.02196420 0.36484325
v 0.04392933 0.00794054 0.36484325
v 0.03873531 0.00676059 0.36353125
v 0.03972147 0.02175387 0.36484325
v 0.04135539 0.02193735 0.36484325
v 0.04347642 0.02198210 0.36484325
v 0.04386097 0.02196718 0.36451698
v 0.04359434 0.02197762 0.36484325
f 1 2 5
f 1 5 3
f 1 3 9
f 1 9 10
f 1 10 4
f 1 4 6
f 1 6 2
f 2 6 7
f 2 7 5
f 3 5 15
f 3 15 8
f 3 8 9
f 4 10 32
f 4 32 11
f 4 11 12
f 4 12 16
f 4 16 6
f 5 7 13
f 5 13 14
f 5 14 15
f 6 16 7
f 7 16 17
f 7 17 14
f 7 14 13
f 8 15 18
f 8 18 19
f 8 19 9
f 9 19 20
f 9 20 21
f 9 21 22
f 9 22 23
f 9 23 24
f 9 24 25
f 9 25 26
f 9 26 27
f 9 27 28
f 9 28 29
f 9 29 30
f 9 30 31
f 9 31 10
f 10 31 32
f 11 32 52
f 11 52 35
f 11 35 17
f 11 17 16
f 11 16 12
f 14 33 15
f 14 17 35
f 14 35 51
f 14 51 50
f 14 50 57
f 14 57 55
f 14 55 48
f 14 48 47
f 14 47 46
f 14 46 54
f 14 54 44
f 14 44 53
f 14 53 38
f 14 38 34
f 14 34 33
f 15 33 34
f 15 34 18
f 18 34 36
f 18 36 22
f 18 22 21
f 18 21 20
f 18 20 19
f 22 36 37
f 22 37 38
f 22 38 39
f 22 39 23
f 23 39 40
f 23 40 24
f 24 40 41
f 24 41 42
f 24 42 25
f 25 43 26
f 25 42 44
f 25 44 43
f 26 45 46
f 26 46 27
f 26 43 45
f 27 46 47
f 27 47 48
f 27 48 28
f 28 48 49
f 28 49 29
f 29 49 30
f 30 49 50
f 30 50 51
f 30 51 31
f 31 51 52
f 31 52 32
f 34 38 36
f 35 52 51
f 36 38 37
f 38 53 39
f 39 53 40
f 40 53 41
f 41 53 42
f 42 53 44
f 43 44 54
f 43 54 45
f 45 54 46
f 48 55 49
f 49 56 50
f 49 55 57
f 49 57 56
f 50 56 57

