# https://github.com/mikedh/trimesh
v 0.05500000 0.02925000 0.37164295
v 0.05500000 0.02524983 0.37164295
v 0.05500000 0.02925000 0.36610001
v 0.03100000 0.02925000 0.37164295
v 0.05500000 0.02014038 0.37159954
v 0.03100000 0.02524983 0.37164295
v 0.05500000 0.02014038 0.36610001
v 0.03100000 0.02925000 0.36610001
v 0.03100000 0.02014038 0.37159954
v 0.03100000 0.02014038 0.36610001
f 1 2 5
f 1 5 7
f 1 7 3
f 1 3 8
f 1 8 4
f 1 4 6
f 1 6 2
f 2 6 9
f 2 9 5
f 3 7 10
f 3 10 8
f 4 8 10
f 4 10 9
f 4 9 6
f 5 9 10
f 5 10 7

