# https://github.com/mikedh/trimesh
v 0.05351183 0.00179294 0.36374619
v 0.05351183 0.00179294 0.36500279
v 0.05351183 0.00609523 0.36374619
v 0.05611107 0.00179294 0.36374619
v 0.05611107 0.00179294 0.36500279
v 0.05351183 0.00609523 0.36500279
v 0.05587799 0.00610875 0.36374619
v 0.05611107 0.00610875 0.36374619
v 0.05611107 0.00610875 0.36500279
v 0.05587799 0.00610875 0.36500279
f 1 2 6
f 1 6 3
f 1 3 7
f 1 7 8
f 1 8 4
f 1 4 5
f 1 5 2
f 2 5 9
f 2 9 10
f 2 10 6
f 3 6 10
f 3 10 7
f 4 8 9
f 4 9 5
f 7 10 9
f 7 9 8

