# https://github.com/mikedh/trimesh
v 0.05351132 0.00740482 0.36374619
v 0.05586728 0.00741299 0.36374619
v 0.05587607 0.00739666 0.36427277
v 0.05351132 0.00740482 0.36500279
v 0.05351132 0.01931083 0.36374619
v 0.05586728 0.01782506 0.36374619
v 0.05587607 0.00739666 0.36500279
v 0.05587607 0.01781923 0.36427277
v 0.05351132 0.01930967 0.36500279
v 0.05351132 0.01931083 0.36427277
v 0.05370113 0.01921054 0.36374619
v 0.05585107 0.01783789 0.36374619
v 0.05587607 0.01781923 0.36500279
v 0.05587329 0.01782156 0.36500279
v 0.05400043 0.01905076 0.36500279
v 0.05351549 0.01930850 0.36476663
v 0.05400020 0.01905193 0.36374619
v 0.05387474 0.01911841 0.36427277
v 0.05400020 0.01905193 0.36427277
v 0.05539275 0.01817609 0.36374619
v 0.05550710 0.01809213 0.36427277
v 0.05539275 0.01817609 0.36500279
v 0.05463675 0.01865192 0.36427277
v 0.05457356 0.01869157 0.36374619
v 0.05527262 0.01825190 0.36427277
f 1 2 3
f 1 3 7
f 1 7 4
f 1 4 9
f 1 9 10
f 1 10 5
f 1 5 11
f 1 11 17
f 1 17 24
f 1 24 20
f 1 20 12
f 1 12 6
f 1 6 2
f 2 6 8
f 2 8 3
f 3 8 13
f 3 13 7
f 4 7 13
f 4 13 14
f 4 14 22
f 4 22 15
f 4 15 9
f 5 10 11
f 6 12 8
f 8 12 14
f 8 14 13
f 9 15 16
f 9 16 10
f 10 16 11
f 11 16 18
f 11 18 19
f 11 19 17
f 12 20 21
f 12 21 14
f 14 21 22
f 15 22 19
f 15 19 16
f 16 19 18
f 17 19 23
f 17 23 24
f 19 22 23
f 20 24 25
f 20 25 22
f 20 22 21
f 22 25 23
f 23 25 24

