# https://github.com/mikedh/trimesh
v 0.01302098 0.02525000 0.40801424
v 0.01302210 0.02525000 0.40912432
v 0.01302098 0.02925000 0.40801424
v 0.02199988 0.02525000 0.40801424
v 0.01310529 0.02525000 0.41024312
v 0.01307719 0.02791641 0.40986986
v 0.01302210 0.02925000 0.40912432
v 0.02199988 0.02925000 0.40801424
v 0.02450570 0.02525000 0.41791769
v 0.01318961 0.02525000 0.41136095
v 0.01310529 0.02925000 0.41024312
v 0.02450570 0.02925000 0.41791769
v 0.01468815 0.02525000 0.41791769
v 0.01352349 0.02525000 0.41357820
v 0.01341220 0.02791641 0.41284041
v 0.01318961 0.02925000 0.41136095
v 0.01468815 0.02925000 0.41791769
v 0.01468478 0.02525000 0.41790896
v 0.01377306 0.02525000 0.41467180
v 0.01352349 0.02925000 0.41357820
v 0.01468478 0.02925000 0.41790896
v 0.01435427 0.02525000 0.41683766
v 0.01402375 0.02525000 0.41576539
v 0.01385625 0.02658360 0.41503633
v 0.01377306 0.02925000 0.41467180
v 0.01435427 0.02925000 0.41683766
v 0.01402375 0.02925000 0.41576539
f 1 2 7
f 1 7 3
f 1 3 8
f 1 8 4
f 1 4 9
f 1 9 13
f 1 13 18
f 1 18 22
f 1 22 23
f 1 23 19
f 1 19 14
f 1 14 10
f 1 10 5
f 1 5 2
f 2 5 6
f 2 6 7
f 3 7 11
f 3 11 16
f 3 16 20
f 3 20 25
f 3 25 27
f 3 27 26
f 3 26 21
f 3 21 17
f 3 17 12
f 3 12 8
f 4 8 12
f 4 12 9
f 5 10 16
f 5 16 11
f 5 11 6
f 6 11 7
f 9 12 17
f 9 17 13
f 10 14 15
f 10 15 16
f 13 17 21
f 13 21 18
f 14 19 24
f 14 24 25
f 14 25 20
f 14 20 15
f 15 20 16
f 18 21 26
f 18 26 22
f 19 23 24
f 22 26 27
f 22 27 23
f 23 27 24
f 24 27 25

