# https://github.com/mikedh/trimesh
v 0.03314202 0.01475230 0.36319725
v 0.03325116 0.01475230 0.36319725
v 0.03314202 0.01475230 0.36353104
v 0.03314202 0.01965601 0.36319725
v 0.03325116 0.01475230 0.36353104
v 0.03519893 0.01575841 0.36319725
v 0.03314202 0.01965601 0.36353104
v 0.03325519 0.01971573 0.36319725
v 0.03519893 0.01575841 0.36353104
v 0.03519893 0.02056202 0.36319725
v 0.03345474 0.01982095 0.36353104
v 0.03345474 0.01982095 0.36319725
v 0.03519893 0.02056202 0.36353104
v 0.03496233 0.02047899 0.36319725
v 0.03393881 0.02003252 0.36353104
v 0.03454873 0.02029870 0.36319725
v 0.03496233 0.02047899 0.36353104
v 0.03485541 0.02043235 0.36353104
f 1 2 5
f 1 5 3
f 1 3 7
f 1 7 4
f 1 4 8
f 1 8 12
f 1 12 16
f 1 16 14
f 1 14 10
f 1 10 6
f 1 6 2
f 2 6 9
f 2 9 5
f 3 5 9
f 3 9 13
f 3 13 17
f 3 17 18
f 3 18 15
f 3 15 11
f 3 11 7
f 4 7 8
f 6 10 13
f 6 13 9
f 7 11 8
f 8 11 12
f 10 14 17
f 10 17 13
f 11 15 12
f 12 15 16
f 14 16 17
f 15 18 16
f 16 18 17

