# https://github.com/mikedh/trimesh
v 0.00241681 -0.11275000 0.03725900
v 0.00241681 -0.11275000 0.03456753
v 0.00142285 -0.11275000 0.03645730
v 0.00241681 -0.11825000 0.03725900
v 0.00238908 -0.11458369 0.03456564
v 0.00147831 -0.11275000 0.03450416
v 0.00241681 -0.11825000 0.03456753
v 0.00142285 -0.11275000 0.03450605
v 0.00142285 -0.11825000 0.03645730
v 0.00147831 -0.11825000 0.03450416
v 0.00142285 -0.11825000 0.03450605
f 1 2 6
f 1 6 8
f 1 8 3
f 1 3 9
f 1 9 4
f 1 4 7
f 1 7 2
f 2 5 6
f 2 7 5
f 3 8 11
f 3 11 9
f 4 9 11
f 4 11 10
f 4 10 7
f 5 7 10
f 5 10 6
f 6 10 11
f 6 11 8

