# https://github.com/mikedh/trimesh
v 0.03374676 -0.10625000 0.27396517
v 0.03373935 -0.10625000 0.27398706
v 0.03374676 -0.11175000 0.27396517
v 0.02958067 -0.10625000 0.27396517
v 0.03347620 -0.10991631 0.27459879
v 0.03373935 -0.11175000 0.27398706
v 0.03294931 -0.10625000 0.27582156
v 0.02958067 -0.11175000 0.27396517
v 0.02792824 -0.10625000 0.27636950
v 0.03294931 -0.11175000 0.27582156
v 0.03264457 -0.10625000 0.27636950
v 0.02792824 -0.11175000 0.27636950
v 0.03264457 -0.11175000 0.27636950
f 1 2 6
f 1 6 3
f 1 3 8
f 1 8 4
f 1 4 9
f 1 9 11
f 1 11 7
f 1 7 2
f 2 5 6
f 2 7 5
f 3 6 10
f 3 10 13
f 3 13 12
f 3 12 8
f 4 8 12
f 4 12 9
f 5 7 10
f 5 10 6
f 7 11 13
f 7 13 10
f 9 12 13
f 9 13 11

