# https://github.com/mikedh/trimesh
v -0.02561802 -0.03325000 0.10912784
v -0.02201469 -0.03325000 0.10912784
v -0.02490899 -0.03325000 0.11014033
v -0.02490476 -0.03223687 0.11015787
v -0.02561802 -0.02892303 0.10912784
v -0.02201469 -0.03325000 0.11014033
v -0.02201469 -0.02892303 0.10912784
v -0.02201469 -0.03223687 0.11015787
v -0.02490476 -0.02892303 0.11015787
v -0.02201469 -0.02892303 0.11015787
f 1 2 6
f 1 6 3
f 1 3 4
f 1 4 9
f 1 9 5
f 1 5 7
f 1 7 2
f 2 7 10
f 2 10 8
f 2 8 6
f 3 6 8
f 3 8 4
f 4 8 10
f 4 10 9
f 5 9 10
f 5 10 7

