# https://github.com/mikedh/trimesh
v 0.00100017 -0.11734585 0.04200000
v -0.00015189 -0.11734585 0.04204315
v 0.00100017 -0.11635278 0.04200000
v 0.00157078 -0.11734585 0.04202133
v -0.00049449 -0.11734585 0.04205654
v -0.00049449 -0.11635278 0.04205654
v 0.00249363 -0.11635278 0.04205654
v 0.00249363 -0.11734585 0.04205654
v -0.00063563 -0.11734585 0.04207192
v -0.00177563 -0.11635278 0.04220037
v 0.00258773 -0.11635278 0.04206696
v 0.00256481 -0.11734585 0.04206398
v -0.00161760 -0.11734585 0.04218252
v -0.00195899 -0.11734585 0.04222120
v -0.00198071 -0.11635278 0.04222368
v 0.00331395 -0.11635278 0.04214830
v 0.00300512 -0.11734585 0.04211358
v -0.00233055 -0.11734585 0.04228965
v -0.00238483 -0.11635278 0.04230006
v 0.00377598 -0.11635278 0.04220037
v 0.00334411 -0.11734585 0.04215177
v -0.00321118 -0.11734585 0.04245629
v -0.00321601 -0.11635278 0.04245728
v -0.00263937 -0.11635278 0.04234817
v 0.00397985 -0.11635278 0.04222368
v 0.00400157 -0.11734585 0.04222765
v -0.00342832 -0.11734585 0.04249795
v -0.00338852 -0.11635278 0.04249002
v 0.00405465 -0.11635278 0.04223757
v 0.00431763 -0.11734585 0.04228717
v -0.00345004 -0.11635278 0.04250192
v -0.00369734 -0.11734585 0.04256789
v 0.00438518 -0.11635278 0.04230006
v 0.00545039 -0.11635278 0.04250192
v 0.00519826 -0.11734585 0.04245431
v -0.00429689 -0.11635278 0.04272858
v -0.00429689 -0.11734585 0.04272858
v 0.00546004 -0.11734585 0.04250490
v 0.00531045 -0.11734585 0.04247564
v 0.00655661 -0.11635278 0.04279802
v 0.00635877 -0.11734585 0.04274495
v -0.00429689 -0.11635278 0.04706683
v -0.00429689 -0.11734585 0.04706683
v 0.00689439 -0.11635278 0.04288878
v 0.00689439 -0.11734585 0.04288878
v 0.00802715 -0.11635278 0.04706683
v 0.00802715 -0.11734585 0.04706683
v 0.00711877 -0.11635278 0.04296714
v 0.00737331 -0.11734585 0.04305592
v 0.00802715 -0.11635278 0.04328506
v 0.00802715 -0.11734585 0.04328506
v 0.00779553 -0.11635278 0.04320372
v 0.00791737 -0.11635278 0.04324637
f 1 2 3
f 1 3 4
f 1 4 8
f 1 8 12
f 1 12 17
f 1 17 21
f 1 21 26
f 1 26 30
f 1 30 35
f 1 35 39
f 1 39 38
f 1 38 41
f 1 41 45
f 1 45 49
f 1 49 51
f 1 51 47
f 1 47 43
f 1 43 37
f 1 37 32
f 1 32 27
f 1 27 22
f 1 22 18
f 1 18 14
f 1 14 13
f 1 13 9
f 1 9 5
f 1 5 2
f 2 5 6
f 2 6 3
f 3 7 4
f 3 6 10
f 3 10 15
f 3 15 19
f 3 19 24
f 3 24 23
f 3 23 28
f 3 28 31
f 3 31 36
f 3 36 42
f 3 42 46
f 3 46 50
f 3 50 53
f 3 53 52
f 3 52 48
f 3 48 44
f 3 44 40
f 3 40 34
f 3 34 33
f 3 33 29
f 3 29 25
f 3 25 20
f 3 20 16
f 3 16 11
f 3 11 7
f 4 7 8
f 5 9 6
f 6 9 10
f 7 11 12
f 7 12 8
f 9 13 10
f 10 14 15
f 10 13 14
f 11 16 12
f 12 16 17
f 14 18 15
f 15 18 19
f 16 20 21
f 16 21 17
f 18 22 23
f 18 23 24
f 18 24 19
f 20 25 21
f 21 25 26
f 22 27 28
f 22 28 23
f 25 29 26
f 26 29 30
f 27 31 28
f 27 32 31
f 29 33 30
f 30 33 34
f 30 34 35
f 31 32 36
f 32 37 36
f 34 38 39
f 34 39 35
f 34 40 41
f 34 41 38
f 36 37 43
f 36 43 42
f 40 44 45
f 40 45 41
f 42 43 47
f 42 47 46
f 44 48 49
f 44 49 45
f 46 47 51
f 46 51 50
f 48 52 49
f 49 52 53
f 49 53 51
f 50 51 53

