# https://github.com/mikedh/trimesh
v 0.01398986 -0.11925000 0.05618350
v 0.01290448 -0.11925000 0.05683539
v 0.01398954 -0.11791641 0.05618350
v 0.01398986 -0.11525000 0.05618350
v 0.01398986 -0.11925000 0.06025683
v 0.01290448 -0.11525000 0.05683539
v 0.01290448 -0.11925000 0.06025722
v 0.01398986 -0.11525000 0.06025842
v 0.01398986 -0.11862666 0.06025842
v 0.01290448 -0.11525000 0.06025842
v 0.01290448 -0.11740623 0.06025842
f 1 2 3
f 1 3 4
f 1 4 8
f 1 8 9
f 1 9 5
f 1 5 7
f 1 7 2
f 2 6 3
f 2 7 11
f 2 11 10
f 2 10 6
f 3 6 4
f 4 6 10
f 4 10 8
f 5 9 7
f 7 9 11
f 8 10 11
f 8 11 9

