# https://github.com/mikedh/trimesh
v 0.08736035 -0.02681604 0.02855309
v 0.08810142 -0.02684492 0.02855309
v 0.08736035 -0.02690269 0.02821395
v 0.08736035 -0.12517888 0.02855309
v 0.08857799 -0.02686418 0.02855309
v 0.08857799 -0.02714340 0.02750711
v 0.08736035 -0.02700861 0.02784306
v 0.08736035 -0.12499595 0.02784306
v 0.08857799 -0.12486115 0.02750711
v 0.08821002 -0.12514037 0.02855309
v 0.08857799 -0.12512111 0.02855309
v 0.08857799 -0.02734560 0.02705777
v 0.08736035 -0.02767296 0.02637566
v 0.08736035 -0.12431233 0.02637566
v 0.08857799 -0.12431233 0.02637566
v 0.08857799 -0.02740336 0.02693179
v 0.08857799 -0.02767296 0.02637566
f 1 2 3
f 1 3 7
f 1 7 13
f 1 13 14
f 1 14 8
f 1 8 4
f 1 4 10
f 1 10 11
f 1 11 5
f 1 5 2
f 2 5 3
f 3 5 6
f 3 6 7
f 4 8 9
f 4 9 10
f 5 11 9
f 5 9 15
f 5 15 17
f 5 17 16
f 5 16 12
f 5 12 6
f 6 12 7
f 7 12 13
f 8 14 9
f 9 11 10
f 9 14 15
f 12 16 13
f 13 16 17
f 13 17 15
f 13 15 14

