# https://github.com/mikedh/trimesh
v -0.04958008 -0.11275000 0.16278454
v -0.04598445 -0.11275000 0.16278454
v -0.04958008 -0.11275000 0.16395686
v -0.04958008 -0.10225000 0.16278454
v -0.04453761 -0.11275000 0.16434227
v -0.04598445 -0.10225000 0.16278454
v -0.04846545 -0.11275000 0.16594956
v -0.04958008 -0.10225000 0.16395686
v -0.04453761 -0.11275000 0.16594956
v -0.04453761 -0.10225000 0.16434227
v -0.04846545 -0.10225000 0.16594956
v -0.04453761 -0.10225000 0.16594956
f 1 2 5
f 1 5 9
f 1 9 7
f 1 7 3
f 1 3 8
f 1 8 4
f 1 4 6
f 1 6 2
f 2 6 10
f 2 10 5
f 3 7 11
f 3 11 8
f 4 8 11
f 4 11 12
f 4 12 10
f 4 10 6
f 5 10 12
f 5 12 9
f 7 9 12
f 7 12 11

