# https://github.com/mikedh/trimesh
v -0.01395557 -0.03975000 0.20763619
v -0.01395557 -0.03621124 0.20763619
v -0.00476978 -0.03975000 0.20763619
v -0.01395557 -0.03975000 0.21271747
v -0.01395557 -0.03621124 0.21271747
v -0.00476978 -0.03621124 0.20763619
v -0.00178568 -0.03974965 0.21291434
v -0.00357018 -0.03975000 0.20975933
v -0.01393413 -0.03975000 0.21291434
v -0.01393413 -0.03621124 0.21291434
v -0.00178568 -0.03621124 0.21291434
v -0.00534278 -0.03975000 0.21291434
f 1 2 6
f 1 6 3
f 1 3 8
f 1 8 12
f 1 12 9
f 1 9 4
f 1 4 5
f 1 5 2
f 2 5 10
f 2 10 11
f 2 11 6
f 3 6 11
f 3 11 7
f 3 7 8
f 4 9 10
f 4 10 5
f 7 12 8
f 7 11 10
f 7 10 9
f 7 9 12

