# https://github.com/mikedh/trimesh
v 0.01379142 -0.02624133 0.06101759
v 0.01696704 -0.02624133 0.06101759
v 0.01418335 -0.02624133 0.06276313
v 0.01379142 -0.02125000 0.06101759
v 0.01699939 -0.02624133 0.06213942
v 0.01696704 -0.02125000 0.06101759
v 0.01697647 -0.02491630 0.06134226
v 0.01697050 -0.02624133 0.06276313
v 0.01418335 -0.02125000 0.06276313
v 0.01697427 -0.02624133 0.06268179
v 0.01699939 -0.02125000 0.06213942
v 0.01697176 -0.02399973 0.06273716
v 0.01697050 -0.02125000 0.06276313
v 0.01697176 -0.02125000 0.06273716
f 1 2 5
f 1 5 10
f 1 10 8
f 1 8 3
f 1 3 9
f 1 9 4
f 1 4 6
f 1 6 2
f 2 6 7
f 2 7 5
f 3 8 13
f 3 13 9
f 4 9 13
f 4 13 14
f 4 14 11
f 4 11 6
f 5 7 11
f 5 11 14
f 5 14 12
f 5 12 10
f 6 11 7
f 8 10 12
f 8 12 14
f 8 14 13

