# https://github.com/mikedh/trimesh
v 0.02009635 -0.10225000 0.06793658
v 0.02004612 -0.10304318 0.06808223
v 0.02009635 -0.10304318 0.06793658
v 0.01406860 -0.10225000 0.06793658
v 0.01986408 -0.10225000 0.06860102
v 0.01979907 -0.10304318 0.06878829
v 0.01406860 -0.10304318 0.06793658
v 0.01405915 -0.10225000 0.06957896
v 0.01961704 -0.10225000 0.06930708
v 0.01961704 -0.10304318 0.06930708
v 0.01405915 -0.10304318 0.06957896
v 0.01405915 -0.10225000 0.07502214
v 0.01945924 -0.10304318 0.06966982
v 0.01901893 -0.10225000 0.07067828
v 0.01405915 -0.10304318 0.07502214
v 0.01616138 -0.10225000 0.07502214
v 0.01917733 -0.10304318 0.07031554
v 0.01866965 -0.10225000 0.07133926
v 0.01883454 -0.10304318 0.07102784
v 0.01901893 -0.10304318 0.07067828
v 0.01616138 -0.10304318 0.07502214
v 0.01663715 -0.10225000 0.07446936
v 0.01832036 -0.10225000 0.07199954
v 0.01832036 -0.10304318 0.07199954
v 0.01663715 -0.10304318 0.07446936
v 0.01705559 -0.10304318 0.07390271
v 0.01752426 -0.10225000 0.07326601
v 0.01792260 -0.10225000 0.07263277
v 0.01821516 -0.10304318 0.07216739
v 0.01752426 -0.10304318 0.07326601
v 0.01781740 -0.10304318 0.07280062
f 1 2 3
f 1 3 7
f 1 7 4
f 1 4 8
f 1 8 12
f 1 12 16
f 1 16 22
f 1 22 27
f 1 27 28
f 1 28 23
f 1 23 18
f 1 18 14
f 1 14 9
f 1 9 5
f 1 5 2
f 2 5 9
f 2 9 6
f 2 6 10
f 2 10 13
f 2 13 17
f 2 17 20
f 2 20 19
f 2 19 24
f 2 24 29
f 2 29 31
f 2 31 30
f 2 30 26
f 2 26 25
f 2 25 21
f 2 21 15
f 2 15 11
f 2 11 7
f 2 7 3
f 4 7 11
f 4 11 8
f 6 9 10
f 8 11 15
f 8 15 12
f 9 13 10
f 9 14 13
f 12 15 21
f 12 21 16
f 13 14 17
f 14 18 19
f 14 19 20
f 14 20 17
f 16 21 25
f 16 25 22
f 18 23 19
f 19 23 24
f 22 25 26
f 22 26 27
f 23 28 31
f 23 31 29
f 23 29 24
f 26 30 27
f 27 30 31
f 27 31 28

