# https://github.com/mikedh/trimesh
v 0.05166717 -0.02807822 0.01200000
v 0.05166717 -0.02907097 0.01438391
v 0.05166717 -0.02594551 0.01200000
v 0.07761590 -0.02834685 0.01200000
v 0.05166717 -0.02907097 0.01650000
v 0.07761590 -0.02907097 0.01398571
v 0.05166717 -0.02625973 0.01293691
v 0.05712057 -0.02562816 0.01200000
v 0.07761590 -0.02609027 0.01200000
v 0.05166717 -0.02895336 0.01650000
v 0.07361285 -0.02907097 0.01650000
v 0.07761590 -0.02907097 0.01624188
v 0.05166717 -0.02662231 0.01400024
v 0.05655923 -0.02634254 0.01400024
v 0.06894177 -0.02551612 0.01200000
v 0.07761590 -0.02685371 0.01400024
v 0.05557624 -0.02874179 0.01650000
v 0.05166717 -0.02757923 0.01503583
v 0.06822295 -0.02623641 0.01400024
v 0.06696818 -0.02864854 0.01650000
f 1 2 5
f 1 5 10
f 1 10 18
f 1 18 13
f 1 13 7
f 1 7 3
f 1 3 8
f 1 8 15
f 1 15 9
f 1 9 4
f 1 4 2
f 2 4 6
f 2 6 12
f 2 12 11
f 2 11 5
f 3 7 8
f 4 9 16
f 4 16 12
f 4 12 6
f 5 11 20
f 5 20 17
f 5 17 10
f 7 13 8
f 8 13 14
f 8 14 15
f 9 15 16
f 10 17 14
f 10 14 18
f 11 12 19
f 11 19 20
f 12 16 19
f 13 18 14
f 14 17 19
f 14 19 15
f 15 19 16
f 17 20 19

