# https://github.com/mikedh/trimesh
v 0.03839981 -0.07708220 0.01169335
v 0.03839981 -0.07492186 0.01168897
v 0.03640000 -0.07708220 0.01169335
v 0.03839981 -0.07990043 0.01162271
v 0.03839981 -0.07492186 0.00865098
v 0.03640000 -0.07492186 0.01168897
v 0.03640000 -0.07990043 0.01162271
v 0.03839981 -0.07984536 0.01141015
v 0.03640000 -0.07492186 0.00865098
v 0.03839981 -0.07519282 0.00858471
v 0.03640000 -0.07984536 0.01141015
v 0.03839981 -0.07977957 0.01119822
v 0.03640000 -0.07519282 0.00858471
v 0.03839981 -0.07541065 0.00854407
v 0.03640000 -0.07977957 0.01119822
v 0.03839981 -0.07970355 0.01098973
v 0.03640000 -0.07541065 0.00854407
v 0.03839981 -0.07570451 0.00851156
v 0.03773307 -0.07560705 0.00852219
v 0.03706693 -0.07550861 0.00853313
v 0.03640000 -0.07970355 0.01098973
v 0.03706693 -0.07962265 0.01080999
v 0.03839981 -0.07958220 0.01072028
v 0.03640000 -0.07570451 0.00851156
v 0.03839981 -0.07600032 0.00850031
v 0.03640000 -0.07958220 0.01072028
v 0.03839981 -0.07944088 0.01046021
v 0.03640000 -0.07600032 0.00850031
v 0.03773307 -0.07619769 0.00850781
v 0.03839981 -0.07622206 0.00850875
v 0.03640000 -0.07944088 0.01046021
v 0.03839981 -0.07928055 0.01021139
v 0.03640000 -0.07622206 0.00850875
v 0.03839981 -0.07659048 0.00854407
v 0.03706693 -0.07639409 0.00852219
v 0.03640000 -0.07928055 0.01021139
v 0.03839981 -0.07910267 0.00997602
v 0.03640000 -0.07659048 0.00854407
v 0.03839981 -0.07688093 0.00859846
v 0.03773307 -0.07678444 0.00858033
v 0.03640000 -0.07910267 0.00997602
v 0.03839981 -0.07885462 0.00970157
v 0.03640000 -0.07688093 0.00859846
v 0.03839981 -0.07716699 0.00867442
v 0.03640000 -0.07885462 0.00970157
v 0.03839981 -0.07869624 0.00954622
v 0.03640000 -0.07716699 0.00867442
v 0.03839981 -0.07737655 0.00874663
v 0.03640000 -0.07869624 0.00954622
v 0.03839981 -0.07847060 0.00935491
v 0.03640000 -0.07737655 0.00874663
v 0.03839981 -0.07758171 0.00882946
v 0.03640000 -0.07847060 0.00935491
v 0.03773307 -0.07839068 0.00929677
v 0.03839981 -0.07829078 0.00922426
v 0.03640000 -0.07758171 0.00882946
v 0.03839981 -0.07771719 0.00888823
v 0.03640000 -0.07829078 0.00922426
v 0.03839981 -0.07797986 0.00902483
v 0.03640000 -0.07771719 0.00888823
v 0.03773307 -0.07789214 0.00897919
v 0.03640000 -0.07797986 0.00902483
f 1 2 6
f 1 6 3
f 1 3 7
f 1 7 4
f 1 4 8
f 1 8 12
f 1 12 16
f 1 16 23
f 1 23 27
f 1 27 32
f 1 32 37
f 1 37 42
f 1 42 46
f 1 46 50
f 1 50 55
f 1 55 59
f 1 59 57
f 1 57 52
f 1 52 48
f 1 48 44
f 1 44 39
f 1 39 34
f 1 34 30
f 1 30 25
f 1 25 18
f 1 18 14
f 1 14 10
f 1 10 5
f 1 5 2
f 2 5 9
f 2 9 6
f 3 6 9
f 3 9 13
f 3 13 17
f 3 17 24
f 3 24 28
f 3 28 33
f 3 33 38
f 3 38 43
f 3 43 47
f 3 47 51
f 3 51 56
f 3 56 60
f 3 60 62
f 3 62 58
f 3 58 53
f 3 53 49
f 3 49 45
f 3 45 41
f 3 41 36
f 3 36 31
f 3 31 26
f 3 26 21
f 3 21 15
f 3 15 11
f 3 11 7
f 4 7 11
f 4 11 8
f 5 10 13
f 5 13 9
f 8 11 15
f 8 15 12
f 10 14 17
f 10 17 13
f 12 15 21
f 12 21 16
f 14 18 19
f 14 19 20
f 14 20 17
f 16 22 23
f 16 21 22
f 17 20 24
f 18 25 28
f 18 28 24
f 18 24 19
f 19 24 20
f 21 26 22
f 22 26 23
f 23 26 31
f 23 31 27
f 25 29 28
f 25 30 29
f 27 31 36
f 27 36 32
f 28 29 33
f 29 30 33
f 30 34 35
f 30 35 33
f 32 36 41
f 32 41 37
f 33 35 38
f 34 39 40
f 34 40 38
f 34 38 35
f 37 41 45
f 37 45 42
f 38 40 43
f 39 43 40
f 39 44 47
f 39 47 43
f 42 45 49
f 42 49 46
f 44 48 51
f 44 51 47
f 46 49 53
f 46 53 50
f 48 52 56
f 48 56 51
f 50 54 55
f 50 53 54
f 52 57 60
f 52 60 56
f 53 58 54
f 54 58 55
f 55 58 62
f 55 62 59
f 57 59 61
f 57 61 60
f 59 62 61
f 60 61 62

