# https://github.com/mikedh/trimesh
v -0.05986035 -0.10986874 0.16006264
v -0.06077950 -0.10986874 0.16006264
v -0.05986035 -0.11062094 0.16006264
v -0.05986035 -0.10986874 0.15891124
v -0.06009970 -0.10986874 0.15891124
v -0.06009196 -0.11062123 0.15874276
v -0.06077950 -0.11062094 0.16006264
v -0.05986035 -0.11062094 0.15891124
v -0.05988572 -0.11274979 0.16005618
v -0.05988491 -0.11273992 0.16005618
v -0.05988491 -0.11274979 0.16005063
v -0.06000117 -0.11062123 0.15874276
v -0.06009196 -0.11095093 0.15874276
v -0.06077059 -0.11274979 0.16005618
v -0.05988491 -0.11274979 0.15890620
v -0.06000117 -0.11095093 0.15874276
v -0.06009934 -0.11274979 0.15890620
f 1 2 7
f 1 7 3
f 1 3 8
f 1 8 4
f 1 4 5
f 1 5 2
f 2 5 6
f 2 6 13
f 2 13 7
f 3 7 14
f 3 14 9
f 3 9 10
f 3 10 11
f 3 11 15
f 3 15 8
f 4 8 16
f 4 16 12
f 4 12 6
f 4 6 5
f 6 12 16
f 6 16 13
f 7 13 14
f 8 15 16
f 9 14 17
f 9 17 15
f 9 15 11
f 9 11 10
f 13 16 15
f 13 15 17
f 13 17 14

