# https://github.com/mikedh/trimesh
v -0.03448316 -0.06623647 0.00549980
v -0.03448316 -0.06623647 0.00445911
v -0.06465648 -0.06623647 0.00549980
v -0.03448316 -0.08664874 0.00549980
v -0.03448316 -0.08664874 0.00445911
v -0.06465648 -0.06623647 0.00445911
v -0.06471025 -0.06684388 0.00549980
v -0.06453101 -0.08664874 0.00549980
v -0.06453101 -0.08664874 0.00445911
v -0.06466544 -0.06633837 0.00445911
v -0.06479389 -0.06788288 0.00445911
v -0.06486857 -0.06882996 0.00549980
v -0.06457881 -0.08630308 0.00549980
v -0.06458180 -0.08627710 0.00445911
v -0.06486857 -0.06882796 0.00445911
v -0.06494026 -0.07065020 0.00549980
v -0.06466544 -0.08566170 0.00549980
v -0.06466544 -0.08566170 0.00445911
v -0.06495221 -0.07096590 0.00445911
v -0.06496117 -0.07125562 0.00549980
v -0.06476700 -0.08441690 0.00549980
v -0.06473414 -0.08483050 0.00483338
v -0.06474310 -0.08471461 0.00445911
v -0.06496117 -0.07125562 0.00445911
v -0.06497013 -0.07182707 0.00445911
v -0.06497909 -0.07244847 0.00549980
v -0.06486558 -0.08317210 0.00549980
v -0.06486558 -0.08317210 0.00445911
v -0.06498805 -0.07306787 0.00445911
v -0.06499104 -0.07335359 0.00445911
v -0.06499104 -0.07363931 0.00549980
v -0.06487753 -0.08288039 0.00445911
v -0.06493727 -0.08134986 0.00549980
v -0.06499701 -0.07453645 0.00445911
v -0.06499701 -0.07442655 0.00483338
v -0.06500000 -0.07600103 0.00549980
v -0.06493727 -0.08132589 0.00445911
v -0.06495818 -0.08074445 0.00549980
v -0.06495818 -0.08074445 0.00445911
v -0.06500000 -0.07600103 0.00445911
v -0.06499402 -0.07765943 0.00549980
v -0.06497013 -0.08003713 0.00549980
v -0.06496415 -0.08045873 0.00445911
v -0.06499104 -0.07836075 0.00445911
v -0.06499104 -0.07836075 0.00549980
v -0.06498208 -0.07915598 0.00483338
v -0.06497610 -0.07960155 0.00445911
v -0.06498506 -0.07893220 0.00445911
f 1 2 6
f 1 6 3
f 1 3 7
f 1 7 12
f 1 12 16
f 1 16 20
f 1 20 26
f 1 26 31
f 1 31 36
f 1 36 41
f 1 41 45
f 1 45 42
f 1 42 38
f 1 38 33
f 1 33 27
f 1 27 21
f 1 21 17
f 1 17 13
f 1 13 8
f 1 8 4
f 1 4 5
f 1 5 2
f 2 5 9
f 2 9 14
f 2 14 18
f 2 18 23
f 2 23 28
f 2 28 32
f 2 32 37
f 2 37 39
f 2 39 43
f 2 43 47
f 2 47 48
f 2 48 44
f 2 44 40
f 2 40 34
f 2 34 30
f 2 30 29
f 2 29 25
f 2 25 24
f 2 24 19
f 2 19 15
f 2 15 11
f 2 11 10
f 2 10 6
f 3 6 7
f 4 8 9
f 4 9 5
f 6 10 7
f 7 10 11
f 7 11 12
f 8 13 9
f 9 13 14
f 11 15 12
f 12 15 16
f 13 17 18
f 13 18 14
f 15 19 16
f 16 19 20
f 17 21 22
f 17 22 18
f 18 22 23
f 19 24 20
f 20 24 25
f 20 25 26
f 21 27 28
f 21 28 22
f 22 28 23
f 25 29 26
f 26 29 30
f 26 30 31
f 27 32 28
f 27 33 32
f 30 34 35
f 30 35 31
f 31 35 36
f 32 33 37
f 33 38 39
f 33 39 37
f 34 40 35
f 35 40 36
f 36 40 41
f 38 42 43
f 38 43 39
f 40 44 41
f 41 44 45
f 42 46 47
f 42 47 43
f 42 45 46
f 44 48 45
f 45 48 46
f 46 48 47

