# https://github.com/mikedh/trimesh
v -0.02895033 -0.05712050 0.35565672
v -0.02721558 -0.05824349 0.35543382
v -0.02834131 -0.05824420 0.35565672
v -0.02834098 -0.05824490 0.35642001
v -0.02895033 -0.05712050 0.35642001
v -0.02895033 -0.05132074 0.35565672
v -0.02721558 -0.05130240 0.35543382
v -0.02550946 -0.05824349 0.35543382
v -0.02831167 -0.05824490 0.35565672
v -0.02594197 -0.05824490 0.35642001
v -0.02895033 -0.05132074 0.35642001
v -0.02550946 -0.05103858 0.35543382
v -0.02550946 -0.05824349 0.35565672
v -0.02594197 -0.05824490 0.35565672
v -0.02594197 -0.05139481 0.35642001
v -0.02718964 -0.05132074 0.35642001
v -0.02550946 -0.05103858 0.35565672
f 1 2 3
f 1 3 4
f 1 4 5
f 1 5 11
f 1 11 6
f 1 6 7
f 1 7 2
f 2 7 12
f 2 12 8
f 2 8 14
f 2 14 9
f 2 9 3
f 3 9 4
f 4 9 14
f 4 14 10
f 4 10 15
f 4 15 16
f 4 16 11
f 4 11 5
f 6 11 17
f 6 17 12
f 6 12 7
f 8 13 10
f 8 10 14
f 8 12 17
f 8 17 13
f 10 13 17
f 10 17 15
f 11 16 17
f 15 17 16

