# https://github.com/mikedh/trimesh
v -0.03683422 -0.11824980 0.10443067
v -0.03958687 -0.11824980 0.10928375
v -0.03683422 -0.11720688 0.10443067
v -0.01275521 -0.11824980 0.10443067
v -0.03958687 -0.11720688 0.10928375
v -0.01200394 -0.11824980 0.10928375
v -0.00925129 -0.11720688 0.10443067
v -0.00925129 -0.11824969 0.10443067
v -0.00964623 -0.11824980 0.10512756
v -0.01200394 -0.11720688 0.10928375
v -0.00964623 -0.11720688 0.10512756
f 1 2 5
f 1 5 3
f 1 3 7
f 1 7 8
f 1 8 4
f 1 4 9
f 1 9 6
f 1 6 2
f 2 6 10
f 2 10 5
f 3 5 10
f 3 10 11
f 3 11 7
f 4 8 9
f 6 9 11
f 6 11 10
f 7 11 9
f 7 9 8

