# https://github.com/mikedh/trimesh
v 0.01700855 -0.05681015 0.00749991
v 0.03461824 -0.05681057 0.00749991
v 0.01700855 -0.05681015 0.00654335
v 0.01538165 -0.05681015 0.00749991
v 0.03461824 -0.05681057 0.00654335
v 0.03341313 -0.06105392 0.00749991
v 0.01571117 -0.05681015 0.00654335
v 0.01538165 -0.05681015 0.00690162
v 0.01604446 -0.05868736 0.00749991
v 0.03341313 -0.06105392 0.00654335
v 0.01700855 -0.06105392 0.00749991
v 0.01539106 -0.05681348 0.00654335
v 0.01604446 -0.05868736 0.00654335
v 0.01700855 -0.06105392 0.00654335
f 1 2 5
f 1 5 3
f 1 3 7
f 1 7 8
f 1 8 4
f 1 4 9
f 1 9 11
f 1 11 6
f 1 6 2
f 2 6 10
f 2 10 5
f 3 5 10
f 3 10 14
f 3 14 13
f 3 13 12
f 3 12 7
f 4 8 13
f 4 13 9
f 6 11 14
f 6 14 10
f 7 12 8
f 8 12 13
f 9 13 14
f 9 14 11

