# https://github.com/mikedh/trimesh
v 0.02825000 -0.08995399 0.03489855
v 0.02858340 -0.08988218 0.03425834
v 0.02891660 -0.08992148 0.03460697
v 0.02925000 -0.08995399 0.03489855
v 0.02825000 -0.08442455 0.03489855
v 0.02825000 -0.08984287 0.03391288
v 0.02925000 -0.08984287 0.03391288
v 0.02925000 -0.08442455 0.03489855
v 0.02825176 -0.08223242 0.03021847
v 0.02825000 -0.08223242 0.03021742
v 0.02825000 -0.08964860 0.03288390
v 0.02925000 -0.08964860 0.03288390
v 0.02925000 -0.08223242 0.03021742
v 0.02924824 -0.08223242 0.03021847
v 0.02825000 -0.08223242 0.02652512
v 0.02858340 -0.08955865 0.03254689
v 0.02825000 -0.08937723 0.03187288
v 0.02925000 -0.08937723 0.03187288
v 0.02925000 -0.08223242 0.02652512
v 0.02825000 -0.08336703 0.02410584
v 0.02825000 -0.08903178 0.03088404
v 0.02891660 -0.08926233 0.03154326
v 0.02925000 -0.08903178 0.03088404
v 0.02925000 -0.08336703 0.02410584
v 0.02825000 -0.08388710 0.02443334
v 0.02825000 -0.08861301 0.02992372
v 0.02925000 -0.08861301 0.02992372
v 0.02925000 -0.08388710 0.02443334
v 0.02891660 -0.08444873 0.02484747
v 0.02825000 -0.08472917 0.02505454
v 0.02825000 -0.08812319 0.02900038
v 0.02925000 -0.08812319 0.02900038
v 0.02925000 -0.08472917 0.02505454
v 0.02891660 -0.08525906 0.02550987
v 0.02825000 -0.08552363 0.02573806
v 0.02825000 -0.08756684 0.02811402
v 0.02925000 -0.08756684 0.02811402
v 0.02925000 -0.08552363 0.02573806
v 0.02825000 -0.08589327 0.02610782
v 0.02825000 -0.08725616 0.02769250
v 0.02925000 -0.08725616 0.02769250
v 0.02925000 -0.08589327 0.02610782
v 0.02825000 -0.08626290 0.02647863
v 0.02825000 -0.08694549 0.02727203
v 0.02925000 -0.08694549 0.02727203
v 0.02925000 -0.08626290 0.02647863
f 1 2 3
f 1 3 4
f 1 4 8
f 1 8 5
f 1 5 10
f 1 10 15
f 1 15 20
f 1 20 25
f 1 25 30
f 1 30 35
f 1 35 39
f 1 39 43
f 1 43 44
f 1 44 40
f 1 40 36
f 1 36 31
f 1 31 26
f 1 26 21
f 1 21 17
f 1 17 11
f 1 11 6
f 1 6 2
f 2 7 3
f 2 6 7
f 3 7 4
f 4 7 12
f 4 12 18
f 4 18 23
f 4 23 27
f 4 27 32
f 4 32 37
f 4 37 41
f 4 41 45
f 4 45 46
f 4 46 42
f 4 42 38
f 4 38 33
f 4 33 28
f 4 28 24
f 4 24 19
f 4 19 13
f 4 13 8
f 5 9 10
f 5 8 14
f 5 14 9
f 6 11 12
f 6 12 7
f 8 13 14
f 9 14 13
f 9 13 19
f 9 19 15
f 9 15 10
f 11 16 12
f 11 17 16
f 12 16 18
f 15 19 24
f 15 24 20
f 16 17 18
f 17 21 22
f 17 22 18
f 18 22 23
f 20 24 28
f 20 28 25
f 21 26 27
f 21 27 23
f 21 23 22
f 25 28 29
f 25 29 30
f 26 31 32
f 26 32 27
f 28 33 29
f 29 33 30
f 30 33 34
f 30 34 35
f 31 36 37
f 31 37 32
f 33 38 34
f 34 38 35
f 35 38 42
f 35 42 39
f 36 40 41
f 36 41 37
f 39 42 46
f 39 46 43
f 40 44 45
f 40 45 41
f 43 46 45
f 43 45 44

