# https://github.com/mikedh/trimesh
v 0.08539990 -0.08863944 0.04371009
v 0.08539990 -0.08831444 0.04155343
v 0.08440694 -0.08863944 0.04371009
v 0.08539990 -0.09444106 0.04371009
v 0.08440694 -0.08831444 0.04155343
v 0.08539990 -0.09520301 0.04155343
v 0.08440694 -0.09444106 0.04371009
v 0.08440694 -0.09455973 0.04343879
v 0.08539990 -0.09453276 0.04350023
v 0.08440694 -0.09520301 0.04155343
v 0.08539990 -0.09511130 0.04189525
v 0.08440694 -0.09516457 0.04169700
v 0.08440694 -0.09461705 0.04330662
v 0.08539990 -0.09461705 0.04330662
v 0.08440694 -0.09511130 0.04189525
v 0.08539990 -0.09475326 0.04291857
v 0.08440694 -0.09481462 0.04274334
v 0.08440694 -0.09502500 0.04214205
f 1 2 5
f 1 5 3
f 1 3 7
f 1 7 4
f 1 4 9
f 1 9 14
f 1 14 16
f 1 16 11
f 1 11 6
f 1 6 2
f 2 6 10
f 2 10 5
f 3 5 10
f 3 10 12
f 3 12 15
f 3 15 18
f 3 18 17
f 3 17 13
f 3 13 8
f 3 8 7
f 4 7 8
f 4 8 9
f 6 11 12
f 6 12 10
f 8 13 14
f 8 14 9
f 11 15 12
f 11 16 17
f 11 17 18
f 11 18 15
f 13 17 16
f 13 16 14

