# https://github.com/mikedh/trimesh
v -0.01272790 -0.11925000 0.05731180
v -0.01272790 -0.12342052 0.05731180
v -0.01289160 -0.11925000 0.05336345
v -0.01843588 -0.11925000 0.05731180
v -0.01289160 -0.12342052 0.05336345
v -0.01843588 -0.12342052 0.05731180
v -0.01702621 -0.11925000 0.05336345
v -0.01839174 -0.11925000 0.05710580
v -0.01842918 -0.12342052 0.05728049
v -0.01702621 -0.12342052 0.05336345
v -0.01745810 -0.11925000 0.05430030
v -0.01839174 -0.12342052 0.05710580
v -0.01818445 -0.11925000 0.05639544
v -0.01745810 -0.12342052 0.05430030
v -0.01772630 -0.12342052 0.05501607
v -0.01797661 -0.11925000 0.05568546
v -0.01818445 -0.12199972 0.05639544
v -0.01807718 -0.12342052 0.05602866
v -0.01797661 -0.12342052 0.05568546
f 1 2 5
f 1 5 3
f 1 3 7
f 1 7 11
f 1 11 16
f 1 16 13
f 1 13 8
f 1 8 4
f 1 4 6
f 1 6 2
f 2 6 9
f 2 9 12
f 2 12 18
f 2 18 19
f 2 19 15
f 2 15 14
f 2 14 10
f 2 10 5
f 3 5 10
f 3 10 7
f 4 8 9
f 4 9 6
f 7 10 14
f 7 14 11
f 8 12 9
f 8 13 17
f 8 17 12
f 11 14 15
f 11 15 16
f 12 17 18
f 13 16 18
f 13 18 17
f 15 19 16
f 16 19 18

