# https://github.com/mikedh/trimesh
v 0.06930123 -0.03601006 0.04911343
v 0.06930123 -0.03601006 0.04846032
v 0.06888983 -0.03601006 0.04913099
v 0.06930123 -0.03678717 0.04955909
v 0.06930123 -0.03945396 0.04846032
v 0.05235428 -0.03601006 0.04846032
v 0.06481068 -0.03601006 0.04918422
v 0.06481068 -0.03637812 0.04939714
v 0.06481068 -0.03705319 0.04978712
v 0.06684943 -0.03693440 0.04969009
v 0.06888983 -0.03681562 0.04959288
v 0.06888983 -0.03836483 0.05038869
v 0.06930123 -0.03840331 0.05038869
v 0.06930123 -0.04405392 0.05038869
v 0.05235428 -0.04010644 0.04846032
v 0.05235428 -0.03602093 0.04869306
v 0.05257823 -0.03601006 0.04870439
v 0.06437274 -0.03601006 0.04917836
v 0.06277028 -0.03646177 0.04941828
v 0.06073486 -0.03722132 0.04982978
v 0.06245676 -0.03825608 0.05038869
v 0.06481068 -0.03801768 0.05028639
v 0.06481068 -0.03821593 0.05038869
v 0.05235428 -0.04455582 0.05038869
v 0.05235428 -0.03609036 0.04873874
v 0.05257823 -0.03609371 0.04875894
v 0.05283204 -0.03601006 0.04872100
v 0.06398457 -0.03601006 0.04917308
v 0.06245842 -0.03601006 0.04915043
v 0.06118773 -0.03601006 0.04913136
v 0.05909756 -0.03840080 0.05038869
v 0.06013601 -0.03833220 0.05038869
v 0.06073486 -0.03829289 0.05038869
v 0.06073486 -0.03601006 0.04912419
v 0.05869612 -0.03660314 0.04939204
v 0.05665572 -0.03732672 0.04973521
v 0.05665572 -0.03856810 0.05038869
v 0.05820841 -0.03846019 0.05038869
v 0.05235428 -0.03904073 0.05038869
v 0.05235428 -0.03616649 0.04878461
v 0.05664245 -0.03601006 0.04896129
v 0.05627584 -0.03601006 0.04893845
v 0.05257823 -0.03674535 0.04914552
v 0.06036825 -0.03601006 0.04911022
v 0.05665572 -0.03666421 0.04934617
v 0.06005638 -0.03601006 0.04909776
v 0.05529711 -0.03690847 0.04940827
v 0.05257823 -0.03739699 0.04953172
v 0.05326500 -0.03893282 0.05038869
v 0.05549617 -0.03869274 0.05038869
v 0.05235428 -0.03749737 0.04956834
v 0.05251685 -0.03901814 0.05038869
v 0.05257823 -0.03832719 0.05002608
v 0.05235428 -0.03739866 0.04951549
v 0.05288180 -0.03897548 0.05038869
v 0.05235428 -0.03744801 0.04954211
v 0.05257823 -0.03900978 0.05038869
f 1 2 6
f 1 6 17
f 1 17 27
f 1 27 42
f 1 42 41
f 1 41 46
f 1 46 44
f 1 44 34
f 1 34 30
f 1 30 29
f 1 29 28
f 1 28 18
f 1 18 7
f 1 7 3
f 1 3 4
f 1 4 13
f 1 13 14
f 1 14 5
f 1 5 2
f 2 5 15
f 2 15 6
f 3 7 8
f 3 8 9
f 3 9 10
f 3 10 11
f 3 11 4
f 4 11 12
f 4 12 13
f 5 14 15
f 6 15 24
f 6 24 39
f 6 39 51
f 6 51 56
f 6 56 54
f 6 54 40
f 6 40 25
f 6 25 16
f 6 16 17
f 7 18 19
f 7 19 8
f 8 19 9
f 9 19 20
f 9 20 21
f 9 21 22
f 9 22 10
f 10 22 11
f 11 22 23
f 11 23 12
f 12 23 21
f 12 21 33
f 12 33 32
f 12 32 31
f 12 31 38
f 12 38 37
f 12 37 50
f 12 50 49
f 12 49 55
f 12 55 57
f 12 57 52
f 12 52 39
f 12 39 24
f 12 24 14
f 12 14 13
f 14 24 15
f 16 25 17
f 17 26 27
f 17 25 26
f 18 28 19
f 19 28 29
f 19 29 30
f 19 30 20
f 20 31 32
f 20 32 33
f 20 33 21
f 20 30 34
f 20 34 35
f 20 35 36
f 20 36 37
f 20 37 38
f 20 38 31
f 21 23 22
f 25 40 26
f 26 41 42
f 26 42 27
f 26 40 43
f 26 43 41
f 34 44 35
f 35 41 45
f 35 45 36
f 35 44 46
f 35 46 41
f 36 45 41
f 36 41 47
f 36 47 48
f 36 48 49
f 36 49 50
f 36 50 37
f 39 52 53
f 39 53 48
f 39 48 51
f 40 54 43
f 41 43 48
f 41 48 47
f 43 54 48
f 48 53 55
f 48 55 49
f 48 54 56
f 48 56 51
f 52 57 53
f 53 57 55

