# https://github.com/mikedh/trimesh
v 0.08910867 -0.09267132 0.01152262
v 0.09109652 -0.09283375 0.01152262
v 0.08910867 -0.09267132 0.01378925
v 0.08910867 -0.08035874 0.01152262
v 0.09109652 -0.09283375 0.01378925
v 0.09310000 -0.09283375 0.01152262
v 0.08910867 -0.08035874 0.01378925
v 0.09310000 -0.08035874 0.01152262
v 0.09310000 -0.09283375 0.01378925
v 0.09310000 -0.08035874 0.01378925
f 1 2 5
f 1 5 3
f 1 3 7
f 1 7 4
f 1 4 8
f 1 8 6
f 1 6 2
f 2 6 9
f 2 9 5
f 3 5 9
f 3 9 10
f 3 10 7
f 4 7 10
f 4 10 8
f 6 8 10
f 6 10 9

