# https://github.com/mikedh/trimesh
v -0.01120895 -0.11570393 0.03510320
v -0.01152583 -0.11570393 0.03499144
v -0.01120895 -0.11574324 0.03502630
v -0.01120895 -0.11570393 0.02462797
v -0.01273740 -0.11570393 0.03432597
v -0.01273740 -0.11593468 0.03350464
v -0.01120895 -0.11612594 0.03365640
v -0.01120895 -0.11574324 0.02470590
v -0.01152583 -0.11570393 0.02469052
v -0.01273740 -0.11570393 0.02516629
v -0.01273740 -0.11610561 0.03221062
v -0.01120895 -0.11629776 0.03235212
v -0.01120895 -0.11586218 0.02512938
v -0.01273740 -0.11591545 0.02591994
v -0.01273740 -0.11610844 0.03214807
v -0.01273740 -0.11616151 0.03096581
v -0.01120895 -0.11635393 0.03109501
v -0.01120895 -0.11612594 0.02607580
v -0.01273740 -0.11593468 0.02598864
v -0.01273740 -0.11616190 0.03090326
v -0.01273740 -0.11616865 0.02974664
v -0.01120895 -0.11635888 0.03024600
v -0.01120895 -0.11617933 0.02647877
v -0.01273740 -0.11609699 0.02721601
v -0.01273740 -0.11616151 0.02852747
v -0.01120895 -0.11635630 0.02903708
v -0.01120895 -0.11636106 0.02986558
v -0.01120895 -0.11618216 0.02650030
v -0.01120895 -0.11629776 0.02738007
v -0.01273740 -0.11610561 0.02728164
v -0.01273740 -0.11615868 0.02846390
v -0.01120895 -0.11635393 0.02863616
v -0.01120895 -0.11631526 0.02776869
f 1 2 3
f 1 3 7
f 1 7 12
f 1 12 17
f 1 17 22
f 1 22 27
f 1 27 26
f 1 26 32
f 1 32 33
f 1 33 29
f 1 29 28
f 1 28 23
f 1 23 18
f 1 18 13
f 1 13 8
f 1 8 4
f 1 4 9
f 1 9 10
f 1 10 5
f 1 5 2
f 2 5 3
f 3 5 6
f 3 6 7
f 4 8 9
f 5 10 14
f 5 14 19
f 5 19 24
f 5 24 30
f 5 30 31
f 5 31 25
f 5 25 21
f 5 21 20
f 5 20 16
f 5 16 15
f 5 15 11
f 5 11 6
f 6 11 7
f 7 11 12
f 8 13 10
f 8 10 9
f 10 13 14
f 11 15 12
f 12 15 16
f 12 16 17
f 13 18 19
f 13 19 14
f 16 20 17
f 17 20 21
f 17 21 22
f 18 23 19
f 19 23 24
f 21 25 26
f 21 26 27
f 21 27 22
f 23 28 24
f 24 28 29
f 24 29 30
f 25 31 32
f 25 32 26
f 29 33 30
f 30 33 31
f 31 33 32

