# https://github.com/mikedh/trimesh
v 0.02925000 -0.06752164 0.03171571
v 0.03424084 -0.06752164 0.03171571
v 0.02925000 -0.06676416 0.03377110
v 0.02925000 -0.05687726 0.03171571
v 0.03424084 -0.06676416 0.03376929
v 0.03383483 -0.06676416 0.03377110
v 0.03424084 -0.05687726 0.03171571
v 0.02925000 -0.05687726 0.03377110
v 0.03424084 -0.06653181 0.03377110
v 0.03424084 -0.05687726 0.03377110
f 1 2 6
f 1 6 3
f 1 3 8
f 1 8 4
f 1 4 7
f 1 7 2
f 2 5 6
f 2 7 10
f 2 10 9
f 2 9 5
f 3 6 9
f 3 9 10
f 3 10 8
f 4 8 10
f 4 10 7
f 5 9 6

