# https://github.com/mikedh/trimesh
v 0.09310000 -0.06061210 0.04875601
v 0.09310000 -0.06036472 0.04846976
v 0.09220502 -0.06057482 0.04871366
v 0.09220502 -0.06061210 0.04875601
v 0.09310000 -0.09138791 0.04875601
v 0.09310000 -0.05947690 0.04726660
v 0.09220502 -0.06021901 0.04827383
v 0.09220502 -0.06036472 0.04846976
v 0.09220502 -0.09138791 0.04875601
v 0.09220502 -0.09147601 0.04865416
v 0.09310000 -0.09163528 0.04846976
v 0.09220502 -0.05947690 0.04726660
v 0.09220502 -0.05954806 0.04736443
v 0.09310000 -0.05869073 0.04601814
v 0.09220502 -0.05901265 0.04653034
v 0.09220502 -0.09163528 0.04846976
v 0.09220502 -0.09178099 0.04827383
v 0.09310000 -0.09252311 0.04726660
v 0.09220502 -0.05869073 0.04601814
v 0.09310000 -0.09330928 0.04601814
v 0.09220502 -0.09233334 0.04752524
v 0.09220502 -0.09252311 0.04726660
v 0.09220502 -0.09269593 0.04699402
v 0.09220502 -0.09330928 0.04601814
f 1 2 3
f 1 3 4
f 1 4 9
f 1 9 5
f 1 5 11
f 1 11 18
f 1 18 20
f 1 20 14
f 1 14 6
f 1 6 2
f 2 6 7
f 2 7 8
f 2 8 3
f 3 8 7
f 3 7 13
f 3 13 12
f 3 12 15
f 3 15 19
f 3 19 24
f 3 24 23
f 3 23 22
f 3 22 21
f 3 21 17
f 3 17 16
f 3 16 10
f 3 10 9
f 3 9 4
f 5 9 10
f 5 10 11
f 6 12 13
f 6 13 7
f 6 14 15
f 6 15 12
f 10 16 11
f 11 16 17
f 11 17 18
f 14 19 15
f 14 20 24
f 14 24 19
f 17 21 18
f 18 21 22
f 18 22 23
f 18 23 20
f 20 23 24

