# https://github.com/mikedh/trimesh
v 0.08260000 -0.10346395 0.03473102
v 0.08660000 -0.10346395 0.03473102
v 0.08260000 -0.09780327 0.03473102
v 0.08260000 -0.10340023 0.03389598
v 0.08393359 -0.10342627 0.03423610
v 0.08660000 -0.09780327 0.03473102
v 0.08660000 -0.10340023 0.03389598
v 0.08260000 -0.09780327 0.02466801
v 0.08260000 -0.10332209 0.03287670
v 0.08660000 -0.09780327 0.02466801
v 0.08660000 -0.10332209 0.03287670
v 0.08260000 -0.09780937 0.02359531
v 0.08260000 -0.10301453 0.03085560
v 0.08660000 -0.09780937 0.02359531
v 0.08660000 -0.10301453 0.03085560
v 0.08260000 -0.10052804 0.02359531
v 0.08260000 -0.10278622 0.02985921
v 0.08660000 -0.10052804 0.02359531
v 0.08660000 -0.10278622 0.02985921
v 0.08526640 -0.10061671 0.02377955
v 0.08260000 -0.10120688 0.02500704
v 0.08260000 -0.10255736 0.02886392
v 0.08660000 -0.10120688 0.02500704
v 0.08660000 -0.10255736 0.02886392
v 0.08393359 -0.10170507 0.02627595
v 0.08260000 -0.10195388 0.02691041
v 0.08260000 -0.10225590 0.02788717
v 0.08660000 -0.10195388 0.02691041
v 0.08660000 -0.10225590 0.02788717
f 1 2 6
f 1 6 3
f 1 3 8
f 1 8 12
f 1 12 16
f 1 16 21
f 1 21 26
f 1 26 27
f 1 27 22
f 1 22 17
f 1 17 13
f 1 13 9
f 1 9 4
f 1 4 5
f 1 5 2
f 2 5 7
f 2 7 11
f 2 11 15
f 2 15 19
f 2 19 24
f 2 24 29
f 2 29 28
f 2 28 23
f 2 23 18
f 2 18 14
f 2 14 10
f 2 10 6
f 3 6 10
f 3 10 8
f 4 7 5
f 4 9 11
f 4 11 7
f 8 10 14
f 8 14 12
f 9 13 15
f 9 15 11
f 12 14 18
f 12 18 16
f 13 17 19
f 13 19 15
f 16 18 20
f 16 20 21
f 17 22 24
f 17 24 19
f 18 23 20
f 20 23 21
f 21 23 25
f 21 25 26
f 22 27 29
f 22 29 24
f 23 28 25
f 25 28 26
f 26 28 29
f 26 29 27

