# https://github.com/mikedh/trimesh
v 0.01845064 -0.12474946 0.06132619
v 0.01845064 -0.11925000 0.06132619
v 0.02080359 -0.12474946 0.06132619
v 0.01760027 -0.12474946 0.06348309
v 0.02080359 -0.11925000 0.06132619
v 0.01760027 -0.11925000 0.06348309
v 0.02080359 -0.12474946 0.06635471
v 0.01760027 -0.12474946 0.06752022
v 0.02080359 -0.11925000 0.06635471
v 0.01760027 -0.11925000 0.06752386
v 0.02021661 -0.12474946 0.06752386
v 0.01789094 -0.12474946 0.06752386
v 0.01760027 -0.12464718 0.06752386
v 0.02021661 -0.11925000 0.06752386
f 1 2 5
f 1 5 3
f 1 3 7
f 1 7 11
f 1 11 12
f 1 12 8
f 1 8 4
f 1 4 6
f 1 6 2
f 2 6 10
f 2 10 14
f 2 14 9
f 2 9 5
f 3 5 9
f 3 9 7
f 4 8 13
f 4 13 10
f 4 10 6
f 7 9 14
f 7 14 11
f 8 12 13
f 10 13 12
f 10 12 11
f 10 11 14

