# https://github.com/mikedh/trimesh
v -0.07046527 -0.04775000 0.13646095
v -0.07037554 -0.04775000 0.13675114
v -0.07046527 -0.04675000 0.13646095
v -0.06779895 -0.04775000 0.13646095
v -0.07032392 -0.04708340 0.13687380
v -0.07037554 -0.04675000 0.13675114
v -0.07022068 -0.04775000 0.13711881
v -0.06779895 -0.04675000 0.13646095
v -0.06553690 -0.04775000 0.13656130
v -0.07022068 -0.04675000 0.13711881
v -0.07003013 -0.04775000 0.13746876
v -0.06553690 -0.04675000 0.13656130
v -0.06553690 -0.04775000 0.13923422
v -0.07003013 -0.04675000 0.13746876
v -0.06991773 -0.04775000 0.13763373
v -0.06553690 -0.04675000 0.13923422
v -0.06579306 -0.04708340 0.13929254
v -0.06592283 -0.04775000 0.13932199
v -0.06991773 -0.04675000 0.13763373
v -0.06980532 -0.04775000 0.13779841
v -0.06592283 -0.04675000 0.13932199
v -0.06618623 -0.04741660 0.13935516
v -0.06631841 -0.04775000 0.13937174
v -0.06980532 -0.04675000 0.13779841
v -0.06971994 -0.04708340 0.13790019
v -0.06954916 -0.04775000 0.13810347
v -0.06631841 -0.04675000 0.13937174
v -0.06671689 -0.04775000 0.13938174
v -0.06954916 -0.04675000 0.13810347
v -0.06926357 -0.04775000 0.13838194
v -0.06671689 -0.04675000 0.13938174
v -0.06698222 -0.04708340 0.13936173
v -0.06711440 -0.04775000 0.13935172
v -0.06926357 -0.04675000 0.13838194
v -0.06895193 -0.04775000 0.13863067
v -0.06711440 -0.04675000 0.13935172
v -0.06724562 -0.04708340 0.13932885
v -0.06750757 -0.04775000 0.13928254
v -0.06895193 -0.04675000 0.13863067
v -0.06861665 -0.04775000 0.13884682
v -0.06872857 -0.04708340 0.13877477
v -0.06750757 -0.04675000 0.13928254
v -0.06789109 -0.04775000 0.13917446
v -0.06861665 -0.04675000 0.13884682
v -0.06843912 -0.04775000 0.13893802
v -0.06849846 -0.04708340 0.13890772
v -0.06789109 -0.04675000 0.13917446
v -0.06807634 -0.04775000 0.13910184
v -0.06843912 -0.04675000 0.13893802
v -0.06826207 -0.04775000 0.13902894
v -0.06826207 -0.04675000 0.13902894
v -0.06807634 -0.04675000 0.13910184
f 1 2 6
f 1 6 3
f 1 3 8
f 1 8 4
f 1 4 9
f 1 9 13
f 1 13 18
f 1 18 23
f 1 23 28
f 1 28 33
f 1 33 38
f 1 38 43
f 1 43 48
f 1 48 50
f 1 50 45
f 1 45 40
f 1 40 35
f 1 35 30
f 1 30 26
f 1 26 20
f 1 20 15
f 1 15 11
f 1 11 7
f 1 7 2
f 2 5 6
f 2 7 5
f 3 6 10
f 3 10 14
f 3 14 19
f 3 19 24
f 3 24 29
f 3 29 34
f 3 34 39
f 3 39 44
f 3 44 49
f 3 49 51
f 3 51 52
f 3 52 47
f 3 47 42
f 3 42 36
f 3 36 31
f 3 31 27
f 3 27 21
f 3 21 16
f 3 16 12
f 3 12 8
f 4 8 12
f 4 12 9
f 5 7 10
f 5 10 6
f 7 11 14
f 7 14 10
f 9 12 16
f 9 16 13
f 11 15 19
f 11 19 14
f 13 17 18
f 13 16 17
f 15 20 24
f 15 24 19
f 16 21 17
f 17 21 18
f 18 22 23
f 18 21 22
f 20 25 24
f 20 26 25
f 21 27 22
f 22 27 23
f 23 27 31
f 23 31 28
f 24 25 29
f 25 26 29
f 26 30 34
f 26 34 29
f 28 32 33
f 28 31 32
f 30 35 39
f 30 39 34
f 31 36 32
f 32 36 33
f 33 36 37
f 33 37 38
f 35 40 41
f 35 41 39
f 36 42 37
f 37 42 38
f 38 42 47
f 38 47 43
f 39 41 44
f 40 44 41
f 40 45 46
f 40 46 44
f 43 47 52
f 43 52 48
f 44 46 49
f 45 50 46
f 46 50 51
f 46 51 49
f 48 52 51
f 48 51 50

