# https://github.com/mikedh/trimesh
v 0.00318298 -0.10625000 0.27085490
v 0.00318298 -0.11175000 0.27085490
v -0.00461730 -0.10625000 0.27085490
v 0.00062871 -0.10625000 0.27265048
v 0.00062871 -0.11175000 0.27265048
v -0.00461730 -0.11175000 0.27085490
v -0.00449588 -0.10991631 0.27135969
v -0.00441799 -0.10625000 0.27168344
v -0.00418433 -0.10625000 0.27265048
v -0.00417593 -0.11175000 0.27265048
v -0.00441799 -0.11175000 0.27168344
v -0.00434010 -0.10808369 0.27200684
v -0.00418433 -0.11174462 0.27265048
f 1 2 6
f 1 6 3
f 1 3 8
f 1 8 9
f 1 9 4
f 1 4 5
f 1 5 2
f 2 5 10
f 2 10 11
f 2 11 6
f 3 6 7
f 3 7 8
f 4 9 13
f 4 13 10
f 4 10 5
f 6 11 7
f 7 11 8
f 8 11 12
f 8 12 9
f 9 12 13
f 10 13 11
f 11 13 12

