# https://github.com/mikedh/trimesh
v 0.11238086 -0.08912647 0.00445893
v 0.11238086 -0.09319558 0.00445893
v 0.11238086 -0.08912647 0.00350000
v 0.08697852 -0.08912647 0.00445893
v 0.11238086 -0.09319558 0.00350000
v 0.09990723 -0.09324926 0.00445893
v 0.08697852 -0.08912647 0.00350000
v 0.08697852 -0.09324926 0.00445893
v 0.09990723 -0.09324926 0.00350000
v 0.08697852 -0.09324926 0.00350000
f 1 2 5
f 1 5 3
f 1 3 7
f 1 7 4
f 1 4 8
f 1 8 6
f 1 6 2
f 2 6 9
f 2 9 5
f 3 5 9
f 3 9 10
f 3 10 7
f 4 7 10
f 4 10 8
f 6 8 10
f 6 10 9

