# https://github.com/mikedh/trimesh
v -0.06824159 -0.04475020 0.16389076
v -0.06824159 -0.04675000 0.16389076
v -0.06850644 -0.04675000 0.16399435
v -0.06862023 -0.04475020 0.16404153
v -0.06825083 -0.04475020 0.17334031
v -0.06825083 -0.04675000 0.17334031
v -0.06873402 -0.04675000 0.16408870
v -0.06887915 -0.04541693 0.16416455
v -0.06916906 -0.04475020 0.16431809
v -0.06875150 -0.04475020 0.17313774
v -0.06859978 -0.04541693 0.17320063
v -0.06875150 -0.04675000 0.17313774
v -0.06916906 -0.04675000 0.16431809
v -0.06957903 -0.04475020 0.16458911
v -0.06918522 -0.04475020 0.17290649
v -0.06918522 -0.04675000 0.17290649
v -0.06957903 -0.04675000 0.16458911
v -0.06995998 -0.04475020 0.16489991
v -0.06959454 -0.04475020 0.17263270
v -0.06959454 -0.04675000 0.17263270
v -0.06995998 -0.04675000 0.16489991
v -0.07019284 -0.04541693 0.16513115
v -0.07030894 -0.04475020 0.16524677
v -0.06987950 -0.04475020 0.17239961
v -0.06987950 -0.04675000 0.17239961
v -0.07030894 -0.04675000 0.16524677
v -0.07062260 -0.04475020 0.16562508
v -0.07032180 -0.04475020 0.17197412
v -0.07020603 -0.04608307 0.17208974
v -0.07032180 -0.04675000 0.17197412
v -0.07062260 -0.04675000 0.16562508
v -0.07089701 -0.04475020 0.16603300
v -0.07063381 -0.04475020 0.17159303
v -0.07063381 -0.04675000 0.17159303
v -0.07089701 -0.04675000 0.16603300
v -0.07113053 -0.04475020 0.16646589
v -0.07090691 -0.04475020 0.17118419
v -0.07090691 -0.04675000 0.17118419
v -0.07113053 -0.04675000 0.16646589
v -0.07135580 -0.04475020 0.16703845
v -0.07113845 -0.04475020 0.17075037
v -0.07113845 -0.04675000 0.17075037
v -0.07135580 -0.04675000 0.16703845
v -0.07146398 -0.04475020 0.16739086
v -0.07127928 -0.04475020 0.17040906
v -0.07127928 -0.04675000 0.17040906
v -0.07146398 -0.04675000 0.16739086
v -0.07152863 -0.04608307 0.16771183
v -0.07156095 -0.04475020 0.16787370
v -0.07146860 -0.04475020 0.16982447
v -0.07142111 -0.04608307 0.16998172
v -0.07146860 -0.04675000 0.16982447
v -0.07156095 -0.04675000 0.16787370
v -0.07161010 -0.04475020 0.16836209
v -0.07153984 -0.04475020 0.16946281
v -0.07153984 -0.04675000 0.16946281
v -0.07161010 -0.04675000 0.16836209
v -0.07161109 -0.04608307 0.16868860
v -0.07161109 -0.04475020 0.16885232
v -0.07157942 -0.04608307 0.16917884
v -0.07161109 -0.04675000 0.16885232
f 1 2 3
f 1 3 4
f 1 4 9
f 1 9 14
f 1 14 18
f 1 18 23
f 1 23 27
f 1 27 32
f 1 32 36
f 1 36 40
f 1 40 44
f 1 44 49
f 1 49 54
f 1 54 59
f 1 59 55
f 1 55 50
f 1 50 45
f 1 45 41
f 1 41 37
f 1 37 33
f 1 33 28
f 1 28 24
f 1 24 19
f 1 19 15
f 1 15 10
f 1 10 5
f 1 5 6
f 1 6 2
f 2 6 12
f 2 12 16
f 2 16 20
f 2 20 25
f 2 25 30
f 2 30 34
f 2 34 38
f 2 38 42
f 2 42 46
f 2 46 52
f 2 52 56
f 2 56 61
f 2 61 57
f 2 57 53
f 2 53 47
f 2 47 43
f 2 43 39
f 2 39 35
f 2 35 31
f 2 31 26
f 2 26 21
f 2 21 17
f 2 17 13
f 2 13 7
f 2 7 3
f 3 7 4
f 4 7 8
f 4 8 9
f 5 10 11
f 5 11 6
f 6 11 12
f 7 13 8
f 8 13 9
f 9 13 17
f 9 17 14
f 10 15 16
f 10 16 12
f 10 12 11
f 14 17 21
f 14 21 18
f 15 19 20
f 15 20 16
f 18 22 23
f 18 21 22
f 19 24 25
f 19 25 20
f 21 26 22
f 22 26 23
f 23 26 31
f 23 31 27
f 24 28 29
f 24 29 25
f 25 29 30
f 27 31 35
f 27 35 32
f 28 33 34
f 28 34 30
f 28 30 29
f 32 35 39
f 32 39 36
f 33 37 38
f 33 38 34
f 36 39 43
f 36 43 40
f 37 41 42
f 37 42 38
f 40 43 47
f 40 47 44
f 41 45 46
f 41 46 42
f 44 47 48
f 44 48 49
f 45 50 51
f 45 51 46
f 46 51 52
f 47 53 48
f 48 53 49
f 49 53 57
f 49 57 54
f 50 55 56
f 50 56 52
f 50 52 51
f 54 57 58
f 54 58 59
f 55 59 60
f 55 60 56
f 56 60 61
f 57 61 58
f 58 61 59
f 59 61 60

