# https://github.com/mikedh/trimesh
v 0.09483403 -0.02806871 0.03551121
v 0.09568020 -0.02851383 0.03551121
v 0.09607719 -0.02814447 0.03378424
v 0.09486969 -0.02784141 0.03476574
v 0.09483403 -0.02783194 0.03476595
v 0.09483403 -0.12394097 0.03551121
v 0.09607719 -0.02882637 0.03551121
v 0.09607719 -0.02860854 0.03516326
v 0.09607719 -0.02809712 0.03346190
v 0.09488782 -0.02764253 0.03336615
v 0.09483403 -0.02762358 0.03336615
v 0.09483403 -0.12416826 0.03476595
v 0.09486969 -0.12415879 0.03476574
v 0.09562580 -0.12377996 0.03476574
v 0.09506003 -0.12382731 0.03551121
v 0.09607719 -0.12319278 0.03551121
v 0.09607719 -0.02808765 0.03336615
v 0.09483403 -0.12437662 0.03336615
v 0.09483403 -0.12421562 0.03445369
v 0.09564820 -0.12408302 0.03336615
v 0.09607719 -0.12392202 0.03336615
v 0.09607719 -0.12385573 0.03378424
v 0.09486227 -0.12436715 0.03336615
v 0.09607719 -0.12375155 0.03412254
v 0.09607719 -0.12353372 0.03476574
v 0.09529052 -0.12370420 0.03551121
v 0.09607719 -0.12339166 0.03516326
v 0.09568020 -0.12348637 0.03551121
f 1 2 3
f 1 3 4
f 1 4 5
f 1 5 11
f 1 11 18
f 1 18 19
f 1 19 12
f 1 12 6
f 1 6 15
f 1 15 26
f 1 26 28
f 1 28 16
f 1 16 7
f 1 7 2
f 2 7 8
f 2 8 3
f 3 8 7
f 3 7 16
f 3 16 27
f 3 27 25
f 3 25 24
f 3 24 22
f 3 22 21
f 3 21 17
f 3 17 9
f 3 9 4
f 4 9 10
f 4 10 11
f 4 11 5
f 6 12 13
f 6 13 14
f 6 14 15
f 9 17 10
f 10 17 21
f 10 21 20
f 10 20 23
f 10 23 18
f 10 18 11
f 12 19 13
f 13 20 21
f 13 21 22
f 13 22 14
f 13 19 18
f 13 18 23
f 13 23 20
f 14 24 25
f 14 25 26
f 14 26 15
f 14 22 24
f 16 28 27
f 25 27 26
f 26 27 28

