# https://github.com/mikedh/trimesh
v 0.09600000 -0.12079533 0.02488890
v 0.09600000 -0.12054748 0.02470545
v 0.09660597 -0.12095305 0.02486200
v 0.09715202 -0.12116402 0.02489905
v 0.09600000 -0.11705508 0.02489905
v 0.09672399 -0.12035186 0.02440183
v 0.09744675 -0.12062122 0.02442101
v 0.09744675 -0.12086394 0.02459807
v 0.09600000 -0.12001184 0.02434009
v 0.09747855 -0.12118041 0.02483775
v 0.09803805 -0.12136476 0.02489905
v 0.10224624 -0.11902762 0.02489905
v 0.09600000 -0.11135151 0.02264669
v 0.09744675 -0.12015522 0.02409843
v 0.10152408 -0.12011733 0.02332735
v 0.10152408 -0.12045940 0.02357409
v 0.09600000 -0.11967387 0.02412709
v 0.09672399 -0.11988075 0.02408850
v 0.09744675 -0.11985105 0.02390241
v 0.10152408 -0.12080352 0.02384486
v 0.09948481 -0.12140880 0.02470523
v 0.09898707 -0.12153682 0.02489905
v 0.10224624 -0.11471077 0.02264669
v 0.09917112 -0.11304343 0.02264669
v 0.10194356 -0.12176726 0.02489905
v 0.10221994 -0.12167713 0.02483488
v 0.10224624 -0.12145693 0.02454317
v 0.09600000 -0.11704586 0.02270049
v 0.09774577 -0.11767777 0.02264669
v 0.10152408 -0.11981930 0.02312715
v 0.10224624 -0.12007227 0.02327311
v 0.10224624 -0.11982954 0.02310355
v 0.10224624 -0.12034162 0.02347332
v 0.09600000 -0.11933589 0.02391431
v 0.09744675 -0.11943011 0.02364355
v 0.10152408 -0.11950181 0.02292826
v 0.10152408 -0.12115276 0.02415223
v 0.10224624 -0.12067243 0.02374189
v 0.09939920 -0.12160236 0.02489905
v 0.10224624 -0.11953253 0.02290952
v 0.10214412 -0.11907371 0.02265727
v 0.10178946 -0.11904913 0.02264669
v 0.10124464 -0.12181437 0.02489905
v 0.10158951 -0.12179798 0.02487038
v 0.10152408 -0.12161568 0.02463092
v 0.10224624 -0.12121113 0.02425674
v 0.09744675 -0.11766446 0.02269145
v 0.09672399 -0.11772488 0.02287336
v 0.09600000 -0.11769211 0.02301094
v 0.10051576 -0.11866711 0.02264669
v 0.09600000 -0.11856572 0.02347134
v 0.09744675 -0.11898870 0.02338667
v 0.10152408 -0.11909316 0.02268880
v 0.10224624 -0.12096534 0.02400604
v 0.10152408 -0.12141494 0.02441021
v 0.09979055 -0.12165869 0.02489905
v 0.10117371 -0.11889755 0.02264669
v 0.10093829 -0.12178774 0.02489905
v 0.10050475 -0.12174780 0.02489905
v 0.09744675 -0.11852783 0.02313266
v 0.09672399 -0.11848788 0.02327047
v 0.10016232 -0.12170786 0.02489905
f 1 2 3
f 1 3 4
f 1 4 5
f 1 5 13
f 1 13 28
f 1 28 49
f 1 49 51
f 1 51 34
f 1 34 17
f 1 17 9
f 1 9 2
f 2 6 7
f 2 7 8
f 2 8 3
f 2 9 6
f 3 8 4
f 4 8 10
f 4 10 11
f 4 11 22
f 4 22 39
f 4 39 56
f 4 56 62
f 4 62 59
f 4 59 58
f 4 58 43
f 4 43 25
f 4 25 12
f 4 12 5
f 5 12 13
f 6 9 14
f 6 14 7
f 7 14 15
f 7 15 16
f 7 16 8
f 8 16 10
f 9 17 18
f 9 18 19
f 9 19 14
f 10 16 20
f 10 20 11
f 11 21 22
f 11 20 21
f 12 23 24
f 12 24 13
f 12 25 26
f 12 26 27
f 12 27 46
f 12 46 54
f 12 54 38
f 12 38 33
f 12 33 31
f 12 31 32
f 12 32 40
f 12 40 23
f 13 24 23
f 13 23 42
f 13 42 57
f 13 57 50
f 13 50 29
f 13 29 28
f 14 19 30
f 14 30 15
f 15 31 16
f 15 30 32
f 15 32 31
f 16 33 20
f 16 31 33
f 17 34 18
f 18 34 19
f 19 34 35
f 19 35 36
f 19 36 30
f 20 37 21
f 20 33 38
f 20 38 37
f 21 37 22
f 22 37 39
f 23 40 41
f 23 41 42
f 25 43 44
f 25 44 27
f 25 27 26
f 27 44 45
f 27 45 46
f 28 29 47
f 28 47 48
f 28 48 49
f 29 50 47
f 30 36 40
f 30 40 32
f 34 51 52
f 34 52 35
f 35 52 53
f 35 53 36
f 36 53 42
f 36 42 40
f 37 38 54
f 37 54 55
f 37 55 39
f 39 55 56
f 40 42 41
f 42 53 57
f 43 58 45
f 43 45 44
f 45 55 46
f 45 58 59
f 45 59 55
f 46 55 54
f 47 50 60
f 47 60 48
f 48 60 49
f 49 60 61
f 49 61 51
f 50 57 60
f 51 61 60
f 51 60 52
f 52 60 53
f 53 60 57
f 55 59 62
f 55 62 56

