# https://github.com/mikedh/trimesh
v 0.08535260 -0.07153964 0.03472410
v 0.08666834 -0.07153660 0.03464562
v 0.08666834 -0.05605344 0.03465454
v 0.08550435 -0.05605192 0.03467416
v 0.08527672 -0.05608376 0.03427997
v 0.08520084 -0.05661588 0.03112291
v 0.08520084 -0.06911400 0.01723719
v 0.08542848 -0.07151841 0.01651124
v 0.08683967 -0.07153509 0.01650589
v 0.08683967 -0.05615956 0.03361824
v 0.08535260 -0.05623385 0.03297969
v 0.08535260 -0.05650218 0.03154742
v 0.08683967 -0.05650521 0.03154742
v 0.08542848 -0.05673868 0.03066986
v 0.08527672 -0.05697063 0.02987079
v 0.08520084 -0.05744515 0.02855445
v 0.08520084 -0.06814222 0.01762424
v 0.08535260 -0.06870770 0.01737988
v 0.08535260 -0.07004180 0.01691078
v 0.08666834 -0.07031772 0.01683230
v 0.08675401 -0.06859703 0.01742804
v 0.08683967 -0.06599553 0.01868195
v 0.08683967 -0.05624143 0.03294759
v 0.08683967 -0.05708282 0.02956400
v 0.08658268 -0.05687361 0.03018293
v 0.08542848 -0.05732084 0.02887373
v 0.08666834 -0.05740725 0.02864542
v 0.08683967 -0.05774381 0.02787132
v 0.08520084 -0.05778019 0.02778392
v 0.08520084 -0.06773138 0.01780261
v 0.08626634 -0.06823167 0.01758500
v 0.08649702 -0.06990536 0.01695894
v 0.08666834 -0.06733115 0.01797919
v 0.08535260 -0.06665500 0.01833235
v 0.08535260 -0.06596218 0.01870335
v 0.08550435 -0.06517840 0.01919385
v 0.08683967 -0.06472965 0.01947924
v 0.08683967 -0.05798485 0.02731838
v 0.08535260 -0.05799092 0.02730411
v 0.08520084 -0.05818345 0.02694025
v 0.08535260 -0.06726141 0.01801486
v 0.08520084 -0.06400954 0.02001077
v 0.08527672 -0.06484942 0.01940432
v 0.08626634 -0.06432790 0.01977354
v 0.08683967 -0.06424149 0.01983775
v 0.08683967 -0.05825016 0.02681361
v 0.08649702 -0.05843057 0.02647115
v 0.08550435 -0.05858520 0.02618041
v 0.08535260 -0.05881867 0.02577909
v 0.08520084 -0.06001330 0.02400971
v 0.08535260 -0.06133982 0.02239729
v 0.08535260 -0.06300896 0.02081519
v 0.08542848 -0.06366995 0.02026048
v 0.08683967 -0.06353351 0.02036750
v 0.08683967 -0.05868374 0.02599491
v 0.08535260 -0.05949482 0.02471247
v 0.08550435 -0.06020432 0.02374930
v 0.08535260 -0.06045294 0.02343002
v 0.08550435 -0.06184466 0.02189430
v 0.08542848 -0.06255719 0.02120581
v 0.08666834 -0.06127615 0.02247577
v 0.08683967 -0.06245410 0.02129499
v 0.08683967 -0.05956455 0.02462150
v 0.08683967 -0.06036805 0.02353526
f 1 2 3
f 1 3 4
f 1 4 5
f 1 5 6
f 1 6 7
f 1 7 8
f 1 8 9
f 1 9 2
f 2 10 3
f 2 9 10
f 3 10 5
f 3 5 4
f 5 10 11
f 5 11 6
f 6 11 12
f 6 12 13
f 6 13 14
f 6 14 15
f 6 15 16
f 6 16 29
f 6 29 40
f 6 40 50
f 6 50 42
f 6 42 30
f 6 30 17
f 6 17 7
f 7 17 18
f 7 18 19
f 7 19 8
f 8 19 20
f 8 20 9
f 9 20 21
f 9 21 22
f 9 22 37
f 9 37 45
f 9 45 54
f 9 54 62
f 9 62 64
f 9 64 63
f 9 63 55
f 9 55 46
f 9 46 38
f 9 38 28
f 9 28 24
f 9 24 13
f 9 13 23
f 9 23 10
f 10 23 11
f 11 23 12
f 12 23 13
f 13 24 25
f 13 25 14
f 14 25 15
f 15 25 24
f 15 24 26
f 15 26 16
f 16 27 28
f 16 28 29
f 16 26 27
f 17 30 31
f 17 31 18
f 18 21 32
f 18 32 19
f 18 31 21
f 19 32 20
f 20 32 21
f 21 31 33
f 21 33 22
f 22 33 34
f 22 34 35
f 22 35 36
f 22 36 37
f 24 28 27
f 24 27 26
f 28 38 29
f 29 39 40
f 29 38 39
f 30 35 34
f 30 34 41
f 30 41 33
f 30 33 31
f 30 42 43
f 30 43 35
f 33 41 34
f 35 43 36
f 36 43 37
f 37 43 42
f 37 42 44
f 37 44 45
f 38 46 39
f 39 46 47
f 39 47 40
f 40 47 48
f 40 48 49
f 40 49 50
f 42 51 52
f 42 52 53
f 42 53 44
f 42 50 51
f 44 53 45
f 45 53 54
f 46 55 47
f 47 55 48
f 48 55 49
f 49 56 50
f 49 55 56
f 50 56 57
f 50 57 58
f 50 58 51
f 51 59 60
f 51 60 52
f 51 58 61
f 51 61 62
f 51 62 59
f 52 54 53
f 52 60 62
f 52 62 54
f 55 63 56
f 56 63 57
f 57 64 58
f 57 63 64
f 58 64 61
f 59 62 60
f 61 64 62

