# https://github.com/mikedh/trimesh
v 0.03578707 -0.02275867 0.09441368
v 0.03578707 -0.02378886 0.09441368
v 0.03578707 -0.02275867 0.08828014
v 0.03461697 -0.02275867 0.09680429
v 0.03578707 -0.02378886 0.08828014
v 0.03461697 -0.02378886 0.09680429
v 0.03089843 -0.02275867 0.08291836
v 0.03056024 -0.02275867 0.09680429
v 0.03100741 -0.02378886 0.08303838
v 0.03056024 -0.02378886 0.09680429
v 0.03056024 -0.02378886 0.08254853
v 0.03056024 -0.02275867 0.08254853
f 1 2 5
f 1 5 3
f 1 3 7
f 1 7 12
f 1 12 8
f 1 8 4
f 1 4 6
f 1 6 2
f 2 6 10
f 2 10 11
f 2 11 9
f 2 9 5
f 3 5 7
f 4 8 10
f 4 10 6
f 5 9 7
f 7 9 11
f 7 11 12
f 8 12 11
f 8 11 10

