# https://github.com/mikedh/trimesh
v 0.10652192 -0.11865953 0.02632044
v 0.10633610 -0.11865953 0.02655557
v 0.10625933 -0.11907474 0.02632044
v 0.10412147 -0.11865953 0.02632044
v 0.10578501 -0.11865953 0.02720677
v 0.10560360 -0.11879128 0.02733026
v 0.10560360 -0.11924564 0.02701288
v 0.10585200 -0.11967027 0.02632044
v 0.10560360 -0.11961154 0.02671568
v 0.10152690 -0.12005574 0.02632044
v 0.10182078 -0.11865953 0.02856116
v 0.10560360 -0.11865953 0.02740878
v 0.10429066 -0.11865953 0.02856116
v 0.10381781 -0.11935143 0.02856116
v 0.10326868 -0.12004821 0.02856116
v 0.10560360 -0.11986978 0.02647354
v 0.10560360 -0.12001094 0.02632044
v 0.10356500 -0.12035651 0.02802335
v 0.10152690 -0.12247285 0.02632044
v 0.10152690 -0.11900322 0.02856050
v 0.10159633 -0.11892229 0.02856116
v 0.10272639 -0.12066218 0.02856116
v 0.10225549 -0.12114478 0.02856116
v 0.10547695 -0.12013103 0.02632044
v 0.10152690 -0.12248979 0.02644020
v 0.10180073 -0.12236895 0.02632044
v 0.10152690 -0.11919671 0.02856116
v 0.10218019 -0.12121555 0.02856116
v 0.10516693 -0.12040244 0.02632044
v 0.10179193 -0.12157919 0.02856116
v 0.10152690 -0.12250297 0.02659943
v 0.10205403 -0.12226581 0.02632044
v 0.10152690 -0.12180731 0.02856116
v 0.10485496 -0.12065465 0.02632044
v 0.10356500 -0.12105594 0.02726095
v 0.10152690 -0.12250522 0.02675889
v 0.10215818 -0.12222252 0.02632044
v 0.10233764 -0.12214422 0.02632044
v 0.10245207 -0.12209415 0.02632044
v 0.10152690 -0.12188787 0.02845654
v 0.10465154 -0.12080749 0.02632044
v 0.10152690 -0.12204748 0.02821636
v 0.10152690 -0.12249732 0.02691813
v 0.10277724 -0.12194132 0.02632044
v 0.10451022 -0.12091251 0.02632044
v 0.10356500 -0.12130664 0.02686220
v 0.10152690 -0.12217057 0.02799966
v 0.10152690 -0.12248828 0.02699774
v 0.10305157 -0.12180430 0.02632044
v 0.10423345 -0.12110563 0.02632044
v 0.10356500 -0.12139210 0.02668739
v 0.10152690 -0.12226506 0.02780424
v 0.10152690 -0.12247887 0.02707736
v 0.10320217 -0.12172411 0.02632044
v 0.10152690 -0.12245064 0.02723616
v 0.10152690 -0.12246495 0.02715654
v 0.10401830 -0.12124641 0.02632044
v 0.10152690 -0.12234373 0.02760881
v 0.10393859 -0.12129836 0.02632044
v 0.10333078 -0.12165560 0.02632044
v 0.10152690 -0.12240698 0.02741316
v 0.10356500 -0.12151482 0.02635290
v 0.10369801 -0.12144442 0.02632044
v 0.10362662 -0.12148771 0.02632044
f 1 2 3
f 1 3 8
f 1 8 17
f 1 17 24
f 1 24 29
f 1 29 34
f 1 34 41
f 1 41 45
f 1 45 50
f 1 50 57
f 1 57 59
f 1 59 63
f 1 63 64
f 1 64 60
f 1 60 54
f 1 54 49
f 1 49 44
f 1 44 39
f 1 39 38
f 1 38 37
f 1 37 32
f 1 32 26
f 1 26 19
f 1 19 10
f 1 10 4
f 1 4 11
f 1 11 13
f 1 13 12
f 1 12 5
f 1 5 2
f 2 5 6
f 2 6 7
f 2 7 3
f 3 7 9
f 3 9 8
f 4 10 11
f 5 12 6
f 6 12 13
f 6 13 14
f 6 14 7
f 7 14 15
f 7 15 9
f 8 9 16
f 8 16 17
f 9 15 18
f 9 18 16
f 10 19 25
f 10 25 31
f 10 31 36
f 10 36 43
f 10 43 48
f 10 48 53
f 10 53 56
f 10 56 55
f 10 55 61
f 10 61 58
f 10 58 52
f 10 52 47
f 10 47 42
f 10 42 40
f 10 40 33
f 10 33 27
f 10 27 20
f 10 20 11
f 11 20 21
f 11 21 27
f 11 27 33
f 11 33 30
f 11 30 28
f 11 28 23
f 11 23 22
f 11 22 15
f 11 15 14
f 11 14 13
f 15 22 18
f 16 18 22
f 16 22 23
f 16 23 17
f 17 23 24
f 19 26 25
f 20 27 21
f 23 28 24
f 24 28 30
f 24 30 29
f 25 26 31
f 26 32 31
f 29 30 35
f 29 35 34
f 30 33 35
f 31 32 37
f 31 37 38
f 31 38 39
f 31 39 36
f 33 40 35
f 34 35 40
f 34 40 42
f 34 42 41
f 36 39 43
f 39 44 43
f 41 42 46
f 41 46 45
f 42 47 46
f 43 44 48
f 44 49 48
f 45 46 50
f 46 51 50
f 46 47 51
f 47 52 51
f 48 49 53
f 49 54 55
f 49 55 56
f 49 56 53
f 50 51 57
f 51 52 57
f 52 58 59
f 52 59 57
f 54 60 55
f 55 60 61
f 58 61 62
f 58 62 59
f 59 62 63
f 60 64 62
f 60 62 61
f 62 64 63

