# https://github.com/mikedh/trimesh
v -0.03197974 -0.04675000 0.13615221
v -0.03197974 -0.04475020 0.13615221
v -0.03197974 -0.04675000 0.14017543
v -0.03315528 -0.04675000 0.13696506
v -0.03315528 -0.04475020 0.13696506
v -0.03197974 -0.04475020 0.14017543
v -0.03315528 -0.04579982 0.14081176
v -0.03315528 -0.04675000 0.14081039
v -0.03315528 -0.04475020 0.14081039
v -0.03315528 -0.04489681 0.14081084
f 1 2 6
f 1 6 3
f 1 3 8
f 1 8 4
f 1 4 5
f 1 5 2
f 2 5 9
f 2 9 6
f 3 6 7
f 3 7 8
f 4 8 7
f 4 7 10
f 4 10 9
f 4 9 5
f 6 9 10
f 6 10 7

