# https://github.com/mikedh/trimesh
v 0.08260000 -0.05427634 0.02482325
v 0.08660000 -0.05427634 0.02482325
v 0.08260000 -0.05427634 0.03247869
v 0.08260000 -0.05419104 0.02359531
v 0.08660000 -0.05427634 0.03247869
v 0.08660000 -0.05419104 0.02359531
v 0.08260000 -0.04872706 0.03247869
v 0.08260000 -0.05147753 0.02359531
v 0.08660000 -0.04872706 0.03247869
v 0.08660000 -0.05147753 0.02359531
v 0.08260000 -0.04905899 0.03048374
v 0.08260000 -0.05094732 0.02466062
v 0.08393359 -0.05125099 0.02405014
v 0.08660000 -0.04905899 0.03048374
v 0.08660000 -0.05094732 0.02466062
v 0.08260000 -0.04954357 0.02849748
v 0.08260000 -0.05017373 0.02655296
v 0.08393359 -0.05068927 0.02529111
v 0.08660000 -0.04954357 0.02849748
v 0.08660000 -0.05017373 0.02655296
f 1 2 5
f 1 5 3
f 1 3 7
f 1 7 11
f 1 11 16
f 1 16 17
f 1 17 12
f 1 12 8
f 1 8 4
f 1 4 6
f 1 6 2
f 2 6 10
f 2 10 15
f 2 15 20
f 2 20 19
f 2 19 14
f 2 14 9
f 2 9 5
f 3 5 9
f 3 9 7
f 4 8 10
f 4 10 6
f 7 9 14
f 7 14 11
f 8 12 13
f 8 13 10
f 10 13 15
f 11 14 19
f 11 19 16
f 12 15 13
f 12 17 18
f 12 18 15
f 15 18 20
f 16 19 20
f 16 20 17
f 17 20 18

