# https://github.com/mikedh/trimesh
v 0.08609064 -0.04298194 0.02902389
v 0.08509126 -0.04298194 0.02902389
v 0.08609064 -0.08915052 0.02902389
v 0.08609064 -0.04298194 0.02848603
v 0.08509126 -0.04298194 0.02848603
v 0.08509126 -0.08962997 0.02902389
v 0.08609054 -0.08930120 0.02902389
v 0.08609054 -0.08932403 0.02848603
v 0.08609064 -0.08916878 0.02848603
v 0.08609054 -0.04298194 0.02740825
v 0.08509136 -0.04298194 0.02740825
v 0.08509126 -0.08962997 0.02848603
v 0.08609005 -0.08962997 0.02902389
v 0.08609025 -0.08954321 0.02902389
v 0.08609015 -0.08962997 0.02848603
v 0.08609045 -0.08941079 0.02740825
v 0.08609054 -0.08920988 0.02740825
v 0.08509136 -0.08962997 0.02740825
v 0.08609015 -0.08959800 0.02902389
v 0.08609015 -0.08962997 0.02740825
f 1 2 6
f 1 6 13
f 1 13 19
f 1 19 14
f 1 14 7
f 1 7 3
f 1 3 9
f 1 9 4
f 1 4 10
f 1 10 11
f 1 11 5
f 1 5 2
f 2 5 12
f 2 12 6
f 3 7 8
f 3 8 9
f 4 9 17
f 4 17 10
f 5 11 18
f 5 18 12
f 6 12 18
f 6 18 20
f 6 20 15
f 6 15 13
f 7 14 8
f 8 14 15
f 8 15 16
f 8 16 9
f 9 16 17
f 10 17 16
f 10 16 20
f 10 20 18
f 10 18 11
f 13 15 19
f 14 19 15
f 15 20 16

