# https://github.com/mikedh/trimesh
v 0.00090029 -0.10125000 0.08999848
v 0.00103329 -0.10508408 0.08999517
v 0.00129901 -0.10125000 0.08998854
v 0.00070147 -0.10125000 0.08998385
v 0.00076784 -0.10891592 0.08998882
v 0.00090029 -0.11275000 0.08999848
v 0.00129901 -0.11275000 0.08998854
v 0.00143079 -0.10508408 0.08997225
v 0.00149674 -0.10125000 0.08996397
v 0.00068798 -0.10125000 0.08998274
v 0.00070147 -0.11275000 0.08998385
v 0.00149674 -0.11275000 0.08996397
v 0.00169447 -0.10125000 0.08993912
v 0.00156270 -0.10891592 0.08995568
v 0.00068798 -0.10125000 0.08756768
v 0.00068798 -0.11275000 0.08998274
v 0.00169447 -0.11275000 0.08993912
v 0.00195365 -0.10508408 0.08988003
v 0.00208011 -0.10125000 0.08985104
v 0.00208011 -0.10125000 0.08717837
v 0.00068798 -0.11275000 0.08756768
v 0.00208011 -0.11275000 0.08985104
v 0.00208011 -0.11275000 0.08717837
f 1 2 3
f 1 3 9
f 1 9 13
f 1 13 19
f 1 19 20
f 1 20 15
f 1 15 10
f 1 10 4
f 1 4 5
f 1 5 6
f 1 6 2
f 2 6 7
f 2 7 3
f 3 8 9
f 3 7 8
f 4 10 16
f 4 16 11
f 4 11 5
f 5 11 6
f 6 11 16
f 6 16 21
f 6 21 23
f 6 23 22
f 6 22 17
f 6 17 12
f 6 12 7
f 7 12 8
f 8 12 14
f 8 14 9
f 9 14 13
f 10 15 21
f 10 21 16
f 12 17 14
f 13 18 19
f 13 14 17
f 13 17 18
f 15 20 23
f 15 23 21
f 17 22 18
f 18 22 19
f 19 22 23
f 19 23 20

