# https://github.com/mikedh/trimesh
v 0.10373314 -0.12151926 0.02552243
v 0.10373314 -0.12151275 0.02544581
v 0.10560112 -0.12068538 0.02460461
v 0.10560112 -0.12069395 0.02471737
v 0.10384815 -0.12147198 0.02552243
v 0.10373314 -0.11911664 0.02552243
v 0.10373314 -0.12149391 0.02531163
v 0.10560112 -0.12066928 0.02449172
v 0.10560112 -0.12069463 0.02477348
v 0.10392843 -0.12143738 0.02552243
v 0.10560112 -0.11801930 0.02552243
v 0.10373314 -0.11820945 0.02417987
v 0.10373314 -0.12147370 0.02521425
v 0.10560112 -0.12064633 0.02437910
v 0.10560112 -0.12065798 0.02443535
v 0.10560112 -0.12069532 0.02482999
v 0.10407800 -0.12137160 0.02552243
v 0.10560112 -0.11810084 0.02417987
v 0.10560112 -0.12054047 0.02552243
v 0.10408586 -0.12092554 0.02417987
v 0.10373845 -0.12098104 0.02418092
v 0.10373314 -0.12107628 0.02431655
v 0.10373314 -0.12146445 0.02517312
v 0.10560112 -0.12061549 0.02426634
v 0.10424457 -0.12123148 0.02492146
v 0.10413011 -0.12134865 0.02552243
v 0.10560112 -0.12068915 0.02494248
v 0.10440493 -0.12122018 0.02552243
v 0.10424457 -0.12129589 0.02550928
v 0.10560112 -0.12058603 0.02417987
v 0.10556071 -0.12056685 0.02552243
v 0.10560112 -0.12057712 0.02543214
v 0.10440932 -0.12086799 0.02417987
v 0.10373314 -0.12115988 0.02444954
v 0.10373314 -0.12143944 0.02508034
v 0.10560112 -0.12059665 0.02421010
v 0.10373314 -0.12142779 0.02503921
v 0.10373314 -0.12140895 0.02498283
v 0.10560112 -0.12067613 0.02505511
v 0.10447971 -0.12118283 0.02552243
v 0.10554225 -0.12060384 0.02417987
v 0.10543711 -0.12064736 0.02552243
v 0.10540127 -0.12066928 0.02552243
v 0.10560112 -0.12062337 0.02529310
v 0.10471522 -0.12080598 0.02417987
v 0.10373314 -0.12123491 0.02458253
v 0.10373314 -0.12138222 0.02490542
v 0.10560112 -0.12065524 0.02516799
v 0.10487485 -0.12097796 0.02552243
v 0.10465982 -0.12109273 0.02552243
v 0.10528425 -0.12067339 0.02417987
v 0.10516302 -0.12081454 0.02552243
v 0.10512023 -0.12083921 0.02552243
v 0.10500522 -0.12074157 0.02417987
v 0.10373314 -0.12130171 0.02471605
v 0.10373314 -0.12136133 0.02485391
v 0.10490648 -0.12096083 0.02552243
f 1 2 3
f 1 3 4
f 1 4 5
f 1 5 10
f 1 10 17
f 1 17 26
f 1 26 28
f 1 28 40
f 1 40 50
f 1 50 49
f 1 49 57
f 1 57 53
f 1 53 52
f 1 52 43
f 1 43 42
f 1 42 31
f 1 31 19
f 1 19 11
f 1 11 6
f 1 6 12
f 1 12 22
f 1 22 34
f 1 34 46
f 1 46 55
f 1 55 56
f 1 56 47
f 1 47 38
f 1 38 37
f 1 37 35
f 1 35 23
f 1 23 13
f 1 13 7
f 1 7 2
f 2 7 3
f 3 8 15
f 3 15 14
f 3 14 24
f 3 24 36
f 3 36 30
f 3 30 18
f 3 18 11
f 3 11 19
f 3 19 32
f 3 32 44
f 3 44 48
f 3 48 39
f 3 39 27
f 3 27 16
f 3 16 9
f 3 9 4
f 3 7 8
f 4 9 10
f 4 10 5
f 6 11 12
f 7 13 14
f 7 14 15
f 7 15 8
f 9 16 10
f 10 16 17
f 11 18 12
f 12 18 30
f 12 30 41
f 12 41 51
f 12 51 54
f 12 54 45
f 12 45 33
f 12 33 20
f 12 20 21
f 12 21 22
f 13 23 14
f 14 23 25
f 14 25 24
f 16 26 17
f 16 27 28
f 16 28 29
f 16 29 26
f 19 31 32
f 20 33 22
f 20 22 21
f 22 33 34
f 23 35 25
f 24 25 35
f 24 35 37
f 24 37 38
f 24 38 36
f 26 29 28
f 27 39 40
f 27 40 28
f 30 36 41
f 31 42 32
f 32 42 43
f 32 43 44
f 33 45 34
f 34 45 46
f 36 38 41
f 38 47 41
f 39 48 49
f 39 49 50
f 39 50 40
f 41 47 51
f 43 52 44
f 44 52 53
f 44 53 48
f 45 54 46
f 46 54 55
f 47 56 51
f 48 53 57
f 48 57 49
f 51 56 55
f 51 55 54

