# https://github.com/mikedh/trimesh
v 0.08380286 -0.07153690 0.05549589
v 0.08429117 -0.07022768 0.05514393
v 0.08380286 -0.07008267 0.05510183
v 0.08360009 -0.06480477 0.05256790
v 0.08360009 -0.06487864 0.04397452
v 0.08380286 -0.07153690 0.04420020
v 0.08439238 -0.07153964 0.04459426
v 0.08439238 -0.07153827 0.05549589
v 0.08449368 -0.07002248 0.05508078
v 0.08429108 -0.07009088 0.05510534
v 0.08429117 -0.06891300 0.05469490
v 0.08380286 -0.06874336 0.05463293
v 0.08380286 -0.06735343 0.05403073
v 0.08380286 -0.06662563 0.05365070
v 0.08380286 -0.06599633 0.05331861
v 0.08380286 -0.06479382 0.05256322
v 0.08370147 -0.06353386 0.05163478
v 0.08360009 -0.06337517 0.05149797
v 0.08360009 -0.06337517 0.04372546
v 0.08429108 -0.07153690 0.04420020
v 0.08380269 -0.06539303 0.04355006
v 0.08449368 -0.06584722 0.04372312
v 0.08449368 -0.06900602 0.05472648
v 0.08439238 -0.06868590 0.05461305
v 0.08429117 -0.06753538 0.05411258
v 0.08449368 -0.06732060 0.05401786
v 0.08429117 -0.06725767 0.05398395
v 0.08439238 -0.06599633 0.05331861
v 0.08449368 -0.06538619 0.05293624
v 0.08439238 -0.06473226 0.05252230
v 0.08449368 -0.06353386 0.05163361
v 0.08429117 -0.06347640 0.05158567
v 0.08429117 -0.06273766 0.05095306
v 0.08449368 -0.06446549 0.05232585
v 0.08380286 -0.06242848 0.05068412
v 0.08380286 -0.06131763 0.04957559
v 0.08380286 -0.06090038 0.04909266
v 0.08380286 -0.06042156 0.04853723
v 0.08380286 -0.05947762 0.04726968
v 0.08380286 -0.05870057 0.04602903
v 0.08380286 -0.05797277 0.04465156
v 0.08380277 -0.05774157 0.04412887
v 0.08380277 -0.05763760 0.04388565
v 0.08429099 -0.06539303 0.04355006
v 0.08439238 -0.05756373 0.04372312
v 0.08449368 -0.05796456 0.04463636
v 0.08439238 -0.06797863 0.05430552
v 0.08449368 -0.06629183 0.05347413
v 0.08449368 -0.06265284 0.05087705
v 0.08439238 -0.06239838 0.05065956
v 0.08449368 -0.06157619 0.04983869
v 0.08439238 -0.06133952 0.04959898
v 0.08449368 -0.06080325 0.04897924
v 0.08429117 -0.06053511 0.04866937
v 0.08439238 -0.06036274 0.04846707
v 0.08449368 -0.06010144 0.04811627
v 0.08439238 -0.05947762 0.04726851
v 0.08439238 -0.05868142 0.04600213
v 0.08429108 -0.05831341 0.04530638
v 0.08429117 -0.05798371 0.04467846
v 0.08429108 -0.05777304 0.04420020
v 0.08449368 -0.06058299 0.04872432
f 1 2 3
f 1 3 4
f 1 4 5
f 1 5 6
f 1 6 7
f 1 7 8
f 1 8 2
f 2 8 9
f 2 9 10
f 2 10 3
f 3 10 11
f 3 11 12
f 3 12 4
f 4 12 13
f 4 13 14
f 4 14 15
f 4 15 16
f 4 16 17
f 4 17 18
f 4 18 19
f 4 19 5
f 5 19 6
f 6 20 7
f 6 19 21
f 6 21 44
f 6 44 20
f 7 9 8
f 7 20 22
f 7 22 9
f 9 23 11
f 9 11 10
f 9 22 46
f 9 46 56
f 9 56 62
f 9 62 53
f 9 53 51
f 9 51 49
f 9 49 31
f 9 31 34
f 9 34 29
f 9 29 48
f 9 48 26
f 9 26 23
f 11 23 24
f 11 24 12
f 12 24 13
f 13 24 25
f 13 25 26
f 13 26 27
f 13 27 14
f 14 27 26
f 14 26 15
f 15 26 28
f 15 28 29
f 15 29 16
f 16 29 30
f 16 30 17
f 17 31 32
f 17 32 33
f 17 33 18
f 17 30 34
f 17 34 31
f 18 33 35
f 18 35 36
f 18 36 37
f 18 37 38
f 18 38 39
f 18 39 40
f 18 40 41
f 18 41 42
f 18 42 43
f 18 43 19
f 19 43 21
f 20 44 22
f 21 43 45
f 21 45 44
f 22 44 45
f 22 45 46
f 23 26 24
f 24 47 25
f 24 26 47
f 25 47 26
f 26 48 28
f 28 48 29
f 29 34 30
f 31 49 33
f 31 33 32
f 33 49 50
f 33 50 35
f 35 50 36
f 36 50 51
f 36 51 52
f 36 52 53
f 36 53 54
f 36 54 37
f 37 54 38
f 38 54 55
f 38 55 39
f 39 55 56
f 39 56 57
f 39 57 58
f 39 58 40
f 40 58 59
f 40 59 41
f 41 59 60
f 41 60 46
f 41 46 42
f 42 46 61
f 42 61 45
f 42 45 43
f 45 61 46
f 46 60 59
f 46 59 58
f 46 58 56
f 49 51 50
f 51 53 52
f 53 62 54
f 54 62 55
f 55 62 56
f 56 58 57

