# https://github.com/mikedh/trimesh
v -0.05376055 -0.10936523 0.17162020
v -0.05413402 -0.10936523 0.17155430
v -0.05428282 -0.11095056 0.17152821
v -0.05376055 -0.11095056 0.17162020
v -0.05376055 -0.10936523 0.16495537
v -0.05437064 -0.10936523 0.17151255
v -0.05445050 -0.10986853 0.17149819
v -0.05445050 -0.11095056 0.17149754
v -0.05376055 -0.11095056 0.16495471
v -0.05376055 -0.11062077 0.16495471
v -0.05713410 -0.10936523 0.16495537
v -0.05445050 -0.10936523 0.17149819
v -0.05446939 -0.11095056 0.17149297
v -0.05713410 -0.11095056 0.16495471
v -0.05713410 -0.11062077 0.16495471
v -0.05714603 -0.11062077 0.16676854
v -0.05714569 -0.10936523 0.16676854
v -0.05485049 -0.10936523 0.17138597
v -0.05478554 -0.11095056 0.17140424
v -0.05714603 -0.11095056 0.16676854
v -0.05714603 -0.11062077 0.17065261
v -0.05714569 -0.10936523 0.17065326
v -0.05510102 -0.10936523 0.17131550
v -0.05488528 -0.11095056 0.17137618
v -0.05714603 -0.11095056 0.17065261
v -0.05714569 -0.10986853 0.17065326
v -0.05713840 -0.11095056 0.17065652
v -0.05712349 -0.10936523 0.17066240
v -0.05531675 -0.10986853 0.17125483
v -0.05606006 -0.10936523 0.17104539
v -0.05636925 -0.11095056 0.17095796
v -0.05669335 -0.11095056 0.17083138
v -0.05702871 -0.10936523 0.17069959
v -0.05610612 -0.10986853 0.17103234
v -0.05629104 -0.10936523 0.17098014
v -0.05636925 -0.10936523 0.17095796
v -0.05675598 -0.10936523 0.17080659
f 1 2 3
f 1 3 4
f 1 4 9
f 1 9 10
f 1 10 5
f 1 5 11
f 1 11 17
f 1 17 22
f 1 22 28
f 1 28 33
f 1 33 37
f 1 37 36
f 1 36 35
f 1 35 30
f 1 30 23
f 1 23 18
f 1 18 12
f 1 12 6
f 1 6 2
f 2 6 3
f 3 6 7
f 3 7 8
f 3 8 13
f 3 13 19
f 3 19 24
f 3 24 31
f 3 31 32
f 3 32 27
f 3 27 25
f 3 25 20
f 3 20 14
f 3 14 9
f 3 9 4
f 5 10 15
f 5 15 11
f 6 12 7
f 7 12 13
f 7 13 8
f 9 14 15
f 9 15 10
f 11 15 16
f 11 16 17
f 12 18 13
f 13 18 19
f 14 20 16
f 14 16 15
f 16 20 25
f 16 25 21
f 16 21 22
f 16 22 17
f 18 23 29
f 18 29 24
f 18 24 19
f 21 25 26
f 21 26 22
f 22 26 27
f 22 27 28
f 23 30 29
f 24 29 31
f 25 27 26
f 27 32 28
f 28 32 33
f 29 30 34
f 29 34 31
f 30 35 31
f 30 31 34
f 31 35 36
f 31 36 32
f 32 36 37
f 32 37 33

