# https://github.com/mikedh/trimesh
v -0.05376055 -0.10537190 0.17162020
v -0.05376055 -0.10625964 0.17162020
v -0.05376055 -0.10536348 0.17161639
v -0.05376254 -0.10536348 0.17161925
v -0.05386827 -0.10536348 0.17160115
v -0.05445051 -0.10536348 0.17149830
v -0.05445051 -0.10625964 0.17149830
v -0.05376055 -0.10625964 0.16189118
v -0.05376055 -0.10536348 0.16189118
v -0.05446422 -0.10536348 0.17149449
v -0.05481706 -0.10625964 0.17139545
v -0.05630769 -0.10625964 0.16189118
v -0.05630769 -0.10536348 0.16189118
v -0.05478963 -0.10536348 0.17140307
v -0.05601744 -0.10536348 0.17105737
v -0.05591620 -0.10625964 0.17108594
v -0.05630769 -0.10625964 0.17097547
v -0.05630769 -0.10536348 0.17097547
v -0.05610197 -0.10536348 0.17103356
f 1 2 8
f 1 8 9
f 1 9 3
f 1 3 4
f 1 4 5
f 1 5 6
f 1 6 7
f 1 7 2
f 2 7 11
f 2 11 16
f 2 16 17
f 2 17 12
f 2 12 8
f 3 9 13
f 3 13 18
f 3 18 19
f 3 19 15
f 3 15 14
f 3 14 10
f 3 10 6
f 3 6 5
f 3 5 4
f 6 10 7
f 7 10 11
f 8 12 13
f 8 13 9
f 10 14 11
f 11 14 15
f 11 15 16
f 12 17 18
f 12 18 13
f 15 19 16
f 16 19 17
f 17 19 18

