# https://github.com/mikedh/trimesh
v 0.10309012 -0.03330938 0.02451228
v 0.10559911 -0.03374407 0.02451228
v 0.10309184 -0.03340395 0.02451296
v 0.10309012 -0.03259099 0.02589700
v 0.10309012 -0.03054822 0.02472983
v 0.10310215 -0.03068622 0.02451472
v 0.10362630 -0.03078241 0.02451228
v 0.10559911 -0.03433827 0.02589700
v 0.10537388 -0.03124592 0.02451228
v 0.10559911 -0.03132507 0.02452164
v 0.10322644 -0.03024991 0.02589700
v 0.10309012 -0.03019187 0.02586853
v 0.10309012 -0.03044797 0.02491756
v 0.10356490 -0.03065578 0.02472102
v 0.10406891 -0.03087658 0.02451228
v 0.10559911 -0.03161486 0.02582950
v 0.10559764 -0.03166803 0.02589618
v 0.10547532 -0.03156128 0.02589700
v 0.10522675 -0.03119722 0.02451228
v 0.10309012 -0.03025153 0.02545729
v 0.10356490 -0.03043174 0.02539033
v 0.10309012 -0.03022149 0.02560504
v 0.10356490 -0.03040820 0.02556383
v 0.10559911 -0.03131614 0.02459239
v 0.10336374 -0.03031201 0.02589700
v 0.10356490 -0.03039968 0.02575386
v 0.10356490 -0.03040170 0.02565885
v 0.10309012 -0.03020039 0.02576213
v 0.10309012 -0.03035624 0.02512521
v 0.10356490 -0.03057582 0.02489682
v 0.10446558 -0.03097358 0.02451228
v 0.10559911 -0.03154180 0.02570046
v 0.10522946 -0.03138026 0.02589700
v 0.10509609 -0.03115460 0.02451228
v 0.10356490 -0.03049384 0.02512630
v 0.10309012 -0.03028197 0.02534317
v 0.10559911 -0.03130802 0.02467101
v 0.10349367 -0.03037207 0.02589700
v 0.10559911 -0.03130802 0.02492339
v 0.10559911 -0.03130396 0.02476765
v 0.10309012 -0.03031363 0.02524408
v 0.10471439 -0.03104014 0.02451228
v 0.10458495 -0.03100524 0.02451228
v 0.10559911 -0.03151015 0.02563621
v 0.10559911 -0.03147849 0.02557156
v 0.10510763 -0.03129544 0.02589700
v 0.10503075 -0.03113390 0.02451228
v 0.10356490 -0.03051372 0.02506530
v 0.10361083 -0.03042727 0.02589700
v 0.10559911 -0.03131898 0.02502098
v 0.10390140 -0.03057136 0.02589700
v 0.10479594 -0.03106368 0.02451228
v 0.10559911 -0.03142491 0.02544211
v 0.10500373 -0.03122319 0.02589700
v 0.10559911 -0.03134698 0.02518322
v 0.10419761 -0.03073006 0.02589700
v 0.10559911 -0.03138108 0.02531253
v 0.10474755 -0.03105597 0.02589700
v 0.10447909 -0.03089159 0.02589700
f 1 2 3
f 1 3 4
f 1 4 12
f 1 12 28
f 1 28 22
f 1 22 20
f 1 20 36
f 1 36 41
f 1 41 29
f 1 29 13
f 1 13 5
f 1 5 6
f 1 6 7
f 1 7 15
f 1 15 31
f 1 31 43
f 1 43 42
f 1 42 52
f 1 52 47
f 1 47 34
f 1 34 19
f 1 19 9
f 1 9 2
f 2 8 3
f 2 9 10
f 2 10 24
f 2 24 37
f 2 37 40
f 2 40 39
f 2 39 50
f 2 50 55
f 2 55 57
f 2 57 53
f 2 53 45
f 2 45 44
f 2 44 32
f 2 32 16
f 2 16 8
f 3 8 4
f 4 8 18
f 4 18 33
f 4 33 46
f 4 46 54
f 4 54 58
f 4 58 59
f 4 59 56
f 4 56 51
f 4 51 49
f 4 49 38
f 4 38 25
f 4 25 11
f 4 11 12
f 5 13 14
f 5 14 15
f 5 15 7
f 5 7 6
f 8 16 17
f 8 17 18
f 9 19 20
f 9 20 21
f 9 21 10
f 10 21 22
f 10 22 23
f 10 23 24
f 11 25 26
f 11 26 27
f 11 27 12
f 12 27 23
f 12 23 28
f 13 29 30
f 13 30 31
f 13 31 14
f 14 31 15
f 16 18 17
f 16 32 18
f 18 32 33
f 19 34 20
f 20 35 36
f 20 22 21
f 20 34 35
f 22 28 23
f 23 27 37
f 23 37 24
f 25 38 39
f 25 39 26
f 26 40 27
f 26 39 40
f 27 40 37
f 29 41 42
f 29 42 30
f 30 42 43
f 30 43 31
f 32 44 33
f 33 44 45
f 33 45 46
f 34 47 35
f 35 48 41
f 35 41 36
f 35 47 48
f 38 49 39
f 39 49 51
f 39 51 50
f 41 48 52
f 41 52 42
f 45 53 54
f 45 54 46
f 47 52 48
f 50 51 55
f 51 56 55
f 53 57 58
f 53 58 54
f 55 56 59
f 55 59 57
f 57 59 58

