# https://github.com/mikedh/trimesh
v -0.02075000 -0.09916671 0.26215107
v -0.02075000 -0.09949894 0.26305534
v -0.02075000 -0.09916671 0.26102296
v -0.02874922 -0.09916671 0.26305534
v -0.02075000 -0.10125000 0.26305534
v -0.02075000 -0.10125000 0.26102296
v -0.03275000 -0.09916671 0.26102296
v -0.03275000 -0.09916671 0.26305534
v -0.03275000 -0.10125000 0.26305534
v -0.03275000 -0.10125000 0.26102296
f 1 2 5
f 1 5 6
f 1 6 3
f 1 3 7
f 1 7 8
f 1 8 4
f 1 4 2
f 2 4 8
f 2 8 9
f 2 9 5
f 3 6 10
f 3 10 7
f 5 9 10
f 5 10 6
f 7 10 9
f 7 9 8

