# https://github.com/mikedh/trimesh
v -0.03002653 -0.11175000 0.16537805
v -0.02765731 -0.11175000 0.16435680
v -0.03002653 -0.11175000 0.16582652
v -0.03002653 -0.10648796 0.16537805
v -0.02546879 -0.11175000 0.16435680
v -0.02765731 -0.10625000 0.16435680
v -0.02625630 -0.11175000 0.16582652
v -0.03002653 -0.10625000 0.16582652
v -0.03002653 -0.10625000 0.16538568
v -0.02593505 -0.11175000 0.16530856
v -0.02546879 -0.10625000 0.16435680
v -0.02625630 -0.10625000 0.16582652
v -0.02593505 -0.10625000 0.16530856
f 1 2 5
f 1 5 10
f 1 10 7
f 1 7 3
f 1 3 8
f 1 8 9
f 1 9 4
f 1 4 6
f 1 6 2
f 2 6 11
f 2 11 5
f 3 7 12
f 3 12 8
f 4 9 6
f 5 11 13
f 5 13 10
f 6 9 8
f 6 8 12
f 6 12 13
f 6 13 11
f 7 10 13
f 7 13 12

