# https://github.com/mikedh/trimesh
v 0.08434955 -0.07599613 0.05561040
v 0.08439252 -0.07156088 0.05559398
v 0.08434955 -0.07148190 0.05560383
v 0.08434955 -0.08495776 0.05557756
v 0.08437104 -0.08043138 0.05559727
v 0.08439252 -0.07599613 0.05559727
v 0.08509116 -0.07156696 0.05519002
v 0.08439252 -0.06703450 0.05556771
v 0.08434955 -0.06694944 0.05557756
v 0.08509116 -0.07283070 0.05519330
v 0.08434955 -0.08962997 0.03232824
v 0.08436668 -0.08962997 0.05548888
v 0.08439252 -0.08495776 0.05556771
v 0.08509116 -0.08042530 0.05519002
v 0.08509116 -0.07781884 0.05519330
v 0.08509116 -0.06704057 0.05516374
v 0.08509116 -0.06234407 0.05508164
v 0.08437104 -0.06232584 0.05548560
v 0.08434955 -0.05740454 0.05530497
v 0.08434977 -0.08962997 0.02205835
v 0.08434955 -0.08673794 0.02205835
v 0.08509116 -0.08962997 0.05508164
v 0.08509116 -0.08688376 0.05513090
v 0.08509116 -0.08495169 0.05516374
v 0.08509116 -0.08228446 0.05518016
v 0.08509116 -0.05742276 0.05489443
v 0.08439252 -0.05740454 0.05529511
v 0.08434955 -0.05220375 0.05494370
v 0.08509116 -0.08962997 0.02205835
v 0.08434955 -0.02756077 0.02668588
v 0.08434969 -0.03194134 0.02205835
v 0.08509116 -0.05222805 0.05453645
v 0.08439252 -0.05220375 0.05493056
v 0.08437104 -0.04679032 0.05430655
v 0.08434955 -0.05211261 0.05493056
v 0.08509116 -0.03188666 0.02205835
v 0.08434955 -0.02769444 0.04521570
v 0.08437104 -0.02756077 0.04492012
v 0.08483505 -0.02756077 0.02666617
v 0.08437104 -0.02770051 0.02637716
v 0.08437104 -0.02929842 0.02422925
v 0.08509116 -0.03088417 0.02286628
v 0.08509116 -0.03122441 0.02258711
v 0.08509116 -0.04681462 0.05391244
v 0.08509116 -0.04132828 0.05287461
v 0.08437104 -0.04129790 0.05326215
v 0.08434955 -0.03604243 0.05163973
v 0.08439252 -0.02770051 0.04522555
v 0.08434955 -0.02926804 0.04734391
v 0.08509116 -0.02756077 0.04452272
v 0.08509116 -0.02756077 0.02665960
v 0.08509116 -0.02774305 0.02626878
v 0.08509116 -0.02888527 0.02473502
v 0.08509116 -0.02934095 0.02414386
v 0.08509116 -0.03607281 0.05126860
v 0.08439252 -0.03604243 0.05162659
v 0.08434955 -0.03596952 0.05160360
v 0.08437104 -0.02929842 0.04737675
v 0.08509116 -0.02774305 0.04492669
v 0.08434955 -0.03188666 0.04951809
v 0.08509116 -0.03197172 0.04920608
v 0.08437104 -0.03193527 0.04955093
v 0.08509116 -0.02934095 0.04705489
f 1 2 3
f 1 3 9
f 1 9 19
f 1 19 28
f 1 28 35
f 1 35 47
f 1 47 57
f 1 57 60
f 1 60 49
f 1 49 37
f 1 37 30
f 1 30 21
f 1 21 11
f 1 11 4
f 1 4 5
f 1 5 6
f 1 6 2
f 2 7 16
f 2 16 8
f 2 8 9
f 2 9 3
f 2 6 10
f 2 10 7
f 4 11 12
f 4 12 13
f 4 13 5
f 5 13 14
f 5 14 6
f 6 14 15
f 6 15 10
f 7 10 15
f 7 15 14
f 7 14 25
f 7 25 24
f 7 24 23
f 7 23 22
f 7 22 29
f 7 29 36
f 7 36 43
f 7 43 42
f 7 42 54
f 7 54 53
f 7 53 52
f 7 52 51
f 7 51 50
f 7 50 59
f 7 59 63
f 7 63 61
f 7 61 55
f 7 55 45
f 7 45 44
f 7 44 32
f 7 32 26
f 7 26 17
f 7 17 16
f 8 16 17
f 8 17 18
f 8 18 9
f 9 18 19
f 11 20 29
f 11 29 22
f 11 22 12
f 11 21 20
f 12 22 13
f 13 22 23
f 13 23 24
f 13 24 25
f 13 25 14
f 17 26 27
f 17 27 18
f 18 27 19
f 19 27 28
f 20 21 31
f 20 31 36
f 20 36 29
f 21 30 31
f 26 32 27
f 27 32 33
f 27 33 28
f 28 33 34
f 28 34 35
f 30 37 38
f 30 38 50
f 30 50 51
f 30 51 39
f 30 39 40
f 30 40 41
f 30 41 31
f 31 41 42
f 31 42 43
f 31 43 36
f 32 44 33
f 33 44 34
f 34 45 46
f 34 46 35
f 34 44 45
f 35 46 47
f 37 48 38
f 37 49 48
f 38 48 50
f 39 51 40
f 40 51 52
f 40 52 41
f 41 52 53
f 41 53 54
f 41 54 42
f 45 55 46
f 46 55 56
f 46 56 47
f 47 56 57
f 48 49 58
f 48 58 59
f 48 59 50
f 49 60 58
f 55 61 56
f 56 61 62
f 56 62 57
f 57 62 60
f 58 63 59
f 58 60 62
f 58 62 63
f 61 63 62

