# https://github.com/mikedh/trimesh
v -0.07135061 -0.04675000 0.13698067
v -0.07131919 -0.04675000 0.13708082
v -0.07135061 -0.04475020 0.13698067
v -0.05936273 -0.04675000 0.13698067
v -0.07131919 -0.04475020 0.13708082
v -0.07122492 -0.04675000 0.13730743
v -0.05936273 -0.04475020 0.13698067
v -0.05351631 -0.04675000 0.14282684
v -0.07122492 -0.04475020 0.13730743
v -0.07119350 -0.04541680 0.13738297
v -0.07112891 -0.04675000 0.13753462
v -0.05351631 -0.04475020 0.14282684
v -0.06482859 -0.04675000 0.14282684
v -0.07112891 -0.04475020 0.13753462
v -0.07101369 -0.04675000 0.13775093
v -0.06482859 -0.04475020 0.14282684
v -0.06957870 -0.04675000 0.13941161
v -0.07101369 -0.04475020 0.13775093
v -0.07089673 -0.04675000 0.13796781
v -0.06957870 -0.04475020 0.13941161
v -0.06995927 -0.04675000 0.13910145
v -0.07089673 -0.04475020 0.13796781
v -0.07062265 -0.04675000 0.13837583
v -0.06995927 -0.04475020 0.13910145
v -0.07007623 -0.04541680 0.13898586
v -0.07030842 -0.04675000 0.13875467
v -0.07062265 -0.04475020 0.13837583
v -0.07030842 -0.04475020 0.13875467
f 1 2 5
f 1 5 3
f 1 3 7
f 1 7 4
f 1 4 8
f 1 8 13
f 1 13 17
f 1 17 21
f 1 21 26
f 1 26 23
f 1 23 19
f 1 19 15
f 1 15 11
f 1 11 6
f 1 6 2
f 2 6 10
f 2 10 9
f 2 9 5
f 3 5 9
f 3 9 14
f 3 14 18
f 3 18 22
f 3 22 27
f 3 27 28
f 3 28 24
f 3 24 20
f 3 20 16
f 3 16 12
f 3 12 7
f 4 7 12
f 4 12 8
f 6 11 10
f 8 12 16
f 8 16 13
f 9 10 14
f 10 11 14
f 11 15 18
f 11 18 14
f 13 16 20
f 13 20 17
f 15 19 22
f 15 22 18
f 17 20 24
f 17 24 21
f 19 23 27
f 19 27 22
f 21 24 25
f 21 25 26
f 23 26 28
f 23 28 27
f 24 28 25
f 25 28 26

