# https://github.com/mikedh/trimesh
v 0.00099940 -0.02125000 0.04800000
v 0.00099940 -0.02025000 0.04800000
v 0.00204594 -0.02125000 0.04804031
v -0.00004647 -0.02125000 0.04804031
v 0.00204594 -0.02025000 0.04804031
v -0.00004647 -0.02025000 0.04804031
v 0.00209488 -0.02125000 0.04804535
v -0.00108631 -0.02125000 0.04815745
v 0.00209488 -0.02025000 0.04804535
v -0.00108631 -0.02025000 0.04815745
v 0.00209488 -0.02125000 0.05357503
v -0.00160053 -0.02125000 0.04825444
v 0.00209488 -0.02025000 0.05357503
v -0.00160053 -0.02025000 0.04825444
v -0.00286362 -0.02125000 0.05443409
v -0.00211475 -0.02125000 0.04835206
v -0.00286362 -0.02025000 0.05443409
v -0.00211475 -0.02025000 0.04835206
v -0.00401475 -0.02125000 0.05171711
v -0.00286362 -0.02125000 0.04855171
v -0.00401475 -0.02025000 0.05171711
v -0.00286362 -0.02025000 0.04855171
v -0.00475289 -0.02125000 0.04991965
v -0.00312643 -0.02125000 0.04862288
v -0.00475289 -0.02025000 0.04991965
v -0.00312643 -0.02025000 0.04862288
v -0.00475289 -0.02125000 0.04924701
v -0.00411464 -0.02125000 0.04896801
v -0.00475289 -0.02025000 0.04924701
v -0.00411464 -0.02025000 0.04896801
f 1 2 5
f 1 5 3
f 1 3 7
f 1 7 11
f 1 11 15
f 1 15 19
f 1 19 23
f 1 23 27
f 1 27 28
f 1 28 24
f 1 24 20
f 1 20 16
f 1 16 12
f 1 12 8
f 1 8 4
f 1 4 6
f 1 6 2
f 2 6 10
f 2 10 14
f 2 14 18
f 2 18 22
f 2 22 26
f 2 26 30
f 2 30 29
f 2 29 25
f 2 25 21
f 2 21 17
f 2 17 13
f 2 13 9
f 2 9 5
f 3 5 9
f 3 9 7
f 4 8 10
f 4 10 6
f 7 9 13
f 7 13 11
f 8 12 14
f 8 14 10
f 11 13 17
f 11 17 15
f 12 16 18
f 12 18 14
f 15 17 21
f 15 21 19
f 16 20 22
f 16 22 18
f 19 21 25
f 19 25 23
f 20 24 26
f 20 26 22
f 23 25 29
f 23 29 27
f 24 28 30
f 24 30 26
f 27 29 30
f 27 30 28

