# https://github.com/mikedh/trimesh
v 0.01635006 -0.03425000 0.26218593
v 0.01635006 -0.03425000 0.25760701
v 0.01388724 -0.03425000 0.26212497
v 0.01635006 -0.03925000 0.26218593
v 0.01617962 -0.03425000 0.25758546
v 0.01635006 -0.03925000 0.25760701
v 0.01633632 -0.03758301 0.25760517
v 0.01388724 -0.03425000 0.25756896
v 0.01388724 -0.03925000 0.26212497
v 0.01570976 -0.03425000 0.25752679
v 0.01617962 -0.03925000 0.25758546
v 0.01429104 -0.03425000 0.25753871
v 0.01413362 -0.03758301 0.25755017
v 0.01388724 -0.03925000 0.25756896
v 0.01523654 -0.03425000 0.25751487
v 0.01570976 -0.03925000 0.25752679
v 0.01476331 -0.03425000 0.25750341
v 0.01476331 -0.03925000 0.25750341
v 0.01429104 -0.03925000 0.25753871
v 0.01523654 -0.03925000 0.25751487
f 1 2 5
f 1 5 10
f 1 10 15
f 1 15 17
f 1 17 12
f 1 12 8
f 1 8 3
f 1 3 9
f 1 9 4
f 1 4 6
f 1 6 2
f 2 6 7
f 2 7 5
f 3 8 14
f 3 14 9
f 4 9 14
f 4 14 19
f 4 19 18
f 4 18 20
f 4 20 16
f 4 16 11
f 4 11 6
f 5 7 11
f 5 11 16
f 5 16 10
f 6 11 7
f 8 12 13
f 8 13 14
f 10 16 20
f 10 20 15
f 12 17 13
f 13 18 19
f 13 19 14
f 13 17 18
f 15 20 18
f 15 18 17

