# https://github.com/mikedh/trimesh
v 0.03561701 -0.04675020 0.25038301
v 0.03561701 -0.04774980 0.25038301
v 0.03559658 -0.04675020 0.24998528
v 0.03560127 -0.04675020 0.25069804
v 0.03559658 -0.04774980 0.24998528
v 0.03560127 -0.04774980 0.25069804
v 0.03557698 -0.04708343 0.24985382
v 0.03556704 -0.04675020 0.24978785
v 0.03559686 -0.04675020 0.25078170
v 0.03556704 -0.04774980 0.24978785
v 0.03559686 -0.04774980 0.25078170
v 0.03553750 -0.04774980 0.24959090
v 0.03553750 -0.04675020 0.24959090
v 0.03555738 -0.04741657 0.25104463
v 0.03553750 -0.04675020 0.25117609
v 0.03553750 -0.04774980 0.25117609
v 0.03547208 -0.04741657 0.24933323
v 0.03546462 -0.04774980 0.24930503
v 0.03546462 -0.04675020 0.24930503
v 0.03543923 -0.04675020 0.25156235
v 0.03543923 -0.04774980 0.25156235
v 0.03279702 -0.04774980 0.24930503
v 0.03279702 -0.04675020 0.24930503
v 0.03539367 -0.04741657 0.25168759
v 0.03530257 -0.04675020 0.25193665
v 0.03530257 -0.04774980 0.25193665
v 0.03283402 -0.04774980 0.25418871
v 0.03283402 -0.04675020 0.25418871
v 0.03521617 -0.04675020 0.25211640
v 0.03521617 -0.04774980 0.25211640
v 0.03307861 -0.04774980 0.25410601
v 0.03307861 -0.04675020 0.25410601
v 0.03512948 -0.04675020 0.25229614
v 0.03512948 -0.04774980 0.25229614
v 0.03344218 -0.04774980 0.25394204
v 0.03344218 -0.04675020 0.25394204
v 0.03506047 -0.04741657 0.25240944
v 0.03492161 -0.04675020 0.25263603
v 0.03492161 -0.04774980 0.25263603
v 0.03378726 -0.04774980 0.25374270
v 0.03378726 -0.04675020 0.25374270
v 0.03480152 -0.04675020 0.25279474
v 0.03480152 -0.04774980 0.25279474
v 0.03394931 -0.04774980 0.25362653
v 0.03394931 -0.04675020 0.25362653
v 0.03468088 -0.04675020 0.25295393
v 0.03468088 -0.04774980 0.25295393
v 0.03411109 -0.04774980 0.25350989
v 0.03411109 -0.04675020 0.25350989
v 0.03440979 -0.04675020 0.25324601
v 0.03440979 -0.04774980 0.25324601
f 1 2 5
f 1 5 3
f 1 3 8
f 1 8 13
f 1 13 19
f 1 19 23
f 1 23 28
f 1 28 32
f 1 32 36
f 1 36 41
f 1 41 45
f 1 45 49
f 1 49 50
f 1 50 46
f 1 46 42
f 1 42 38
f 1 38 33
f 1 33 29
f 1 29 25
f 1 25 20
f 1 20 15
f 1 15 9
f 1 9 4
f 1 4 6
f 1 6 2
f 2 6 11
f 2 11 16
f 2 16 21
f 2 21 26
f 2 26 30
f 2 30 34
f 2 34 39
f 2 39 43
f 2 43 47
f 2 47 51
f 2 51 48
f 2 48 44
f 2 44 40
f 2 40 35
f 2 35 31
f 2 31 27
f 2 27 22
f 2 22 18
f 2 18 12
f 2 12 10
f 2 10 5
f 3 5 7
f 3 7 8
f 4 9 11
f 4 11 6
f 5 10 7
f 7 10 12
f 7 12 13
f 7 13 8
f 9 14 11
f 9 15 14
f 11 14 16
f 12 17 13
f 12 18 17
f 13 17 19
f 14 15 16
f 15 20 21
f 15 21 16
f 17 18 19
f 18 22 23
f 18 23 19
f 20 24 21
f 20 25 24
f 21 24 26
f 22 27 28
f 22 28 23
f 24 25 26
f 25 29 30
f 25 30 26
f 27 31 32
f 27 32 28
f 29 33 34
f 29 34 30
f 31 35 36
f 31 36 32
f 33 37 34
f 33 38 37
f 34 37 39
f 35 40 41
f 35 41 36
f 37 38 39
f 38 42 43
f 38 43 39
f 40 44 45
f 40 45 41
f 42 46 47
f 42 47 43
f 44 48 49
f 44 49 45
f 46 50 51
f 46 51 47
f 48 51 50
f 48 50 49

