# https://github.com/mikedh/trimesh
v -0.00620212 -0.11815274 0.04910988
v -0.00711969 -0.11815274 0.04939010
v -0.00763048 -0.11815217 0.04922348
v -0.00620198 -0.11764930 0.04910735
v -0.00620212 -0.11815274 0.07489013
v -0.00711969 -0.11815274 0.07460738
v -0.00763048 -0.11525028 0.04922348
v -0.00620226 -0.11734587 0.04910735
v -0.00763048 -0.11815217 0.07477400
v -0.00620198 -0.11734587 0.04910735
v -0.00620198 -0.11764930 0.07489265
v -0.00620226 -0.11525028 0.04910988
v -0.00620226 -0.11580799 0.04910735
v -0.00763048 -0.11525028 0.07477400
v -0.00620226 -0.11601084 0.07489265
v -0.00620198 -0.11734587 0.07489265
v -0.00620226 -0.11525028 0.07489013
v -0.00620226 -0.11580799 0.07489265
f 1 2 3
f 1 3 4
f 1 4 11
f 1 11 5
f 1 5 6
f 1 6 2
f 2 6 9
f 2 9 3
f 3 7 13
f 3 13 8
f 3 8 4
f 3 9 14
f 3 14 7
f 4 10 16
f 4 16 11
f 4 8 13
f 4 13 10
f 5 11 9
f 5 9 6
f 7 12 13
f 7 14 17
f 7 17 12
f 9 11 15
f 9 15 18
f 9 18 14
f 10 13 12
f 10 12 17
f 10 17 16
f 11 16 18
f 11 18 15
f 14 18 17
f 16 17 18

