# https://github.com/mikedh/trimesh
v -0.05135198 -0.10629079 0.02480171
v -0.05135198 -0.10629035 0.02497537
v -0.05135198 -0.10628153 0.02464893
v -0.04803651 -0.10800293 0.02538103
v -0.04935283 -0.10732513 0.02521621
v -0.04803651 -0.10800866 0.02559741
v -0.05135198 -0.10627844 0.02514885
v -0.05001846 -0.10697653 0.02532571
v -0.05135198 -0.10626873 0.02453434
v -0.04803651 -0.10798086 0.02516484
v -0.04935283 -0.10731190 0.02501507
v -0.04803651 -0.10799719 0.02581378
v -0.05135198 -0.10625770 0.02530370
v -0.04803651 -0.10798175 0.02594210
v -0.04825947 -0.10785731 0.02596656
v -0.04835099 -0.10780744 0.02596656
v -0.05135198 -0.10625637 0.02444535
v -0.04803651 -0.10796189 0.02505684
v -0.05135198 -0.10624181 0.02538893
v -0.04803651 -0.10752547 0.02596656
v -0.04858920 -0.10767418 0.02596656
v -0.05135198 -0.10622196 0.02427451
v -0.04803651 -0.10794291 0.02494903
v -0.05135198 -0.10621578 0.02551161
v -0.04890010 -0.10749988 0.02596656
v -0.04927235 -0.10729071 0.02596656
v -0.04803651 -0.10556843 0.02596618
v -0.05135198 -0.10350063 0.02596656
v -0.05135198 -0.10619724 0.02417855
v -0.04803651 -0.10788908 0.02473322
v -0.05135198 -0.10618621 0.02562186
v -0.04960337 -0.10710009 0.02596656
v -0.04803651 -0.10494315 0.02404440
v -0.05135198 -0.10366258 0.02404440
v -0.05135198 -0.10608295 0.02592498
v -0.05119782 -0.10615974 0.02596656
v -0.05135198 -0.10617871 0.02410780
v -0.04803651 -0.10785378 0.02462503
v -0.05135198 -0.10616724 0.02568922
v -0.05016190 -0.10677752 0.02596656
v -0.04803651 -0.10761725 0.02406697
v -0.04820787 -0.10753430 0.02404440
v -0.05135198 -0.10615753 0.02404440
v -0.05135198 -0.10613723 0.02577653
v -0.05106671 -0.10623961 0.02596656
v -0.05111312 -0.10626652 0.02404440
v -0.04803651 -0.10781803 0.02451722
v -0.05078339 -0.10640861 0.02596656
v -0.04803651 -0.10768036 0.02419548
v -0.04827277 -0.10750694 0.02404440
v -0.05070745 -0.10645009 0.02404440
v -0.05001846 -0.10680311 0.02416651
v -0.04803651 -0.10773154 0.02430254
v -0.05048417 -0.10654938 0.02404440
v -0.04935283 -0.10709347 0.02415635
v -0.04848405 -0.10741736 0.02404440
v -0.04959559 -0.10694123 0.02404440
v -0.04927592 -0.10707891 0.02404440
f 1 2 7
f 1 7 13
f 1 13 19
f 1 19 24
f 1 24 31
f 1 31 39
f 1 39 44
f 1 44 35
f 1 35 28
f 1 28 34
f 1 34 43
f 1 43 37
f 1 37 29
f 1 29 22
f 1 22 17
f 1 17 9
f 1 9 3
f 1 3 4
f 1 4 5
f 1 5 6
f 1 6 2
f 2 6 8
f 2 8 7
f 3 9 10
f 3 10 11
f 3 11 4
f 4 11 10
f 4 10 18
f 4 18 23
f 4 23 30
f 4 30 38
f 4 38 47
f 4 47 53
f 4 53 49
f 4 49 41
f 4 41 33
f 4 33 27
f 4 27 20
f 4 20 14
f 4 14 12
f 4 12 6
f 4 6 5
f 6 12 8
f 7 8 12
f 7 12 14
f 7 14 15
f 7 15 16
f 7 16 13
f 9 17 10
f 10 17 18
f 13 16 19
f 14 20 15
f 15 20 28
f 15 28 36
f 15 36 45
f 15 45 48
f 15 48 40
f 15 40 32
f 15 32 26
f 15 26 25
f 15 25 21
f 15 21 16
f 16 21 19
f 17 22 23
f 17 23 18
f 19 21 25
f 19 25 26
f 19 26 24
f 20 27 28
f 22 29 30
f 22 30 23
f 24 26 31
f 26 32 31
f 27 33 28
f 28 33 34
f 28 35 36
f 29 37 30
f 30 37 38
f 31 32 40
f 31 40 39
f 33 41 42
f 33 42 50
f 33 50 56
f 33 56 58
f 33 58 57
f 33 57 54
f 33 54 51
f 33 51 46
f 33 46 43
f 33 43 34
f 35 44 45
f 35 45 36
f 37 43 46
f 37 46 38
f 38 46 47
f 39 40 44
f 40 48 44
f 41 49 42
f 42 49 50
f 44 48 45
f 46 51 52
f 46 52 47
f 47 52 54
f 47 54 55
f 47 55 53
f 49 53 56
f 49 56 50
f 51 54 52
f 53 55 57
f 53 57 58
f 53 58 56
f 54 57 55

