# https://github.com/mikedh/trimesh
v -0.00559306 -0.04675000 0.05964995
v -0.00566606 -0.04675000 0.05987766
v -0.00559306 -0.04475013 0.05964995
v 0.00332119 -0.04675000 0.05964995
v -0.00573814 -0.04675000 0.06010629
v -0.00566606 -0.04475013 0.05987766
v -0.00497171 -0.04471831 0.06015704
v -0.00481843 -0.04471831 0.05971854
v -0.00481751 -0.04471831 0.05971625
v -0.00478832 -0.04471831 0.05964995
v 0.00332119 -0.04471831 0.05964995
v 0.00332119 -0.04675000 0.06432120
v -0.00577646 -0.04608318 0.06026129
v -0.00573814 -0.04475013 0.06010629
v -0.00579562 -0.04675000 0.06033903
v -0.00509306 -0.04471831 0.06061017
v 0.00332119 -0.04471831 0.06432120
v -0.00560128 -0.04675000 0.06432120
v -0.00579562 -0.04475013 0.06033903
v -0.00585219 -0.04675000 0.06057176
v -0.00581478 -0.04541676 0.06041676
v -0.00517974 -0.04471831 0.06106696
v -0.00585219 -0.04475013 0.06057176
v -0.00480109 -0.04471831 0.06432120
v -0.00560219 -0.04662014 0.06432120
v -0.00566606 -0.04675000 0.06412229
v -0.00593431 -0.04675000 0.06104410
v -0.00520620 -0.04471831 0.06130153
v -0.00593431 -0.04475013 0.06104410
v -0.00481660 -0.04471831 0.06428462
v -0.00560219 -0.04475013 0.06432120
v -0.00566606 -0.04475013 0.06412229
v -0.00573814 -0.04675000 0.06389367
v -0.00598358 -0.04675000 0.06152101
v -0.00523175 -0.04471831 0.06153244
v -0.00598358 -0.04475013 0.06152101
v -0.00481751 -0.04471831 0.06428233
v -0.00497171 -0.04471831 0.06384337
v -0.00573814 -0.04475013 0.06389367
v -0.00577646 -0.04541676 0.06373866
v -0.00579562 -0.04675000 0.06366093
v -0.00600000 -0.04675000 0.06199975
v -0.00524087 -0.04471831 0.06176701
v -0.00600000 -0.04475013 0.06199975
v -0.00524909 -0.04471831 0.06199883
v -0.00509306 -0.04471831 0.06338887
v -0.00579562 -0.04475013 0.06366093
v -0.00581478 -0.04608318 0.06358320
v -0.00585219 -0.04675000 0.06342819
v -0.00598358 -0.04675000 0.06247895
v -0.00598905 -0.04541676 0.06231937
v -0.00598358 -0.04475013 0.06247895
v -0.00524909 -0.04471831 0.06200158
v -0.00517974 -0.04471831 0.06293071
v -0.00585219 -0.04475013 0.06342819
v -0.00593431 -0.04675000 0.06295585
v -0.00593431 -0.04475013 0.06295585
v -0.00523175 -0.04471831 0.06246843
v -0.00524087 -0.04471831 0.06223386
v -0.00520620 -0.04471831 0.06269934
f 1 2 6
f 1 6 3
f 1 3 10
f 1 10 11
f 1 11 4
f 1 4 12
f 1 12 18
f 1 18 26
f 1 26 33
f 1 33 41
f 1 41 49
f 1 49 56
f 1 56 50
f 1 50 42
f 1 42 34
f 1 34 27
f 1 27 20
f 1 20 15
f 1 15 5
f 1 5 2
f 2 5 14
f 2 14 6
f 3 6 7
f 3 7 8
f 3 8 9
f 3 9 10
f 4 11 17
f 4 17 12
f 5 13 14
f 5 15 13
f 6 14 7
f 7 16 22
f 7 22 28
f 7 28 35
f 7 35 43
f 7 43 45
f 7 45 53
f 7 53 59
f 7 59 58
f 7 58 60
f 7 60 54
f 7 54 46
f 7 46 38
f 7 38 37
f 7 37 30
f 7 30 24
f 7 24 17
f 7 17 11
f 7 11 10
f 7 10 9
f 7 9 8
f 7 14 16
f 12 17 24
f 12 24 31
f 12 31 25
f 12 25 18
f 13 15 21
f 13 21 19
f 13 19 14
f 14 19 16
f 15 20 21
f 16 19 23
f 16 23 22
f 18 25 26
f 19 21 23
f 20 23 21
f 20 27 29
f 20 29 23
f 22 23 29
f 22 29 28
f 24 30 31
f 25 31 32
f 25 32 26
f 26 32 39
f 26 39 33
f 27 34 36
f 27 36 29
f 28 29 35
f 29 36 35
f 30 37 31
f 31 37 38
f 31 38 32
f 32 38 39
f 33 39 40
f 33 40 41
f 34 42 44
f 34 44 36
f 35 36 43
f 36 44 45
f 36 45 43
f 38 46 39
f 39 46 47
f 39 47 40
f 40 47 48
f 40 48 41
f 41 48 49
f 42 50 51
f 42 51 44
f 44 51 52
f 44 52 53
f 44 53 45
f 46 54 55
f 46 55 47
f 47 55 48
f 48 55 49
f 49 55 57
f 49 57 56
f 50 56 57
f 50 57 52
f 50 52 51
f 52 57 58
f 52 58 59
f 52 59 53
f 54 60 57
f 54 57 55
f 57 60 58

