# https://github.com/mikedh/trimesh
v -0.02359447 -0.11275000 0.04879754
v -0.02354311 -0.11275000 0.04863179
v -0.02083995 -0.11275000 0.04879754
v -0.02359447 -0.10125000 0.04879754
v -0.02338835 -0.11275000 0.04826438
v -0.02354311 -0.10125000 0.04863179
v -0.02344005 -0.10508408 0.04838685
v -0.02009663 -0.11275000 0.04843230
v -0.02083995 -0.10125000 0.04879754
v -0.02326132 -0.10891592 0.04803087
v -0.02319764 -0.11275000 0.04791411
v -0.02338835 -0.10125000 0.04826438
v -0.02009663 -0.11275000 0.04601715
v -0.02009663 -0.10125000 0.04843230
v -0.02319764 -0.10125000 0.04791411
v -0.02304802 -0.10891592 0.04769448
v -0.02297303 -0.11275000 0.04758452
v -0.02028220 -0.11275000 0.04603131
v -0.02009663 -0.10125000 0.04601715
v -0.02297303 -0.10125000 0.04758452
v -0.02271658 -0.11275000 0.04727943
v -0.02280218 -0.10508408 0.04738122
v -0.02067492 -0.11275000 0.04610043
v -0.02041299 -0.10891592 0.04605417
v -0.02028220 -0.10125000 0.04603131
v -0.02271658 -0.10125000 0.04727943
v -0.02243103 -0.11275000 0.04700101
v -0.02086666 -0.11275000 0.04615432
v -0.02080298 -0.10508408 0.04613636
v -0.02067492 -0.10125000 0.04610043
v -0.02054413 -0.10508408 0.04607730
v -0.02243103 -0.10125000 0.04700101
v -0.02232729 -0.10891592 0.04691800
v -0.02211946 -0.11275000 0.04675226
v -0.02105874 -0.11275000 0.04620848
v -0.02105874 -0.10125000 0.04620848
v -0.02086666 -0.10125000 0.04615432
v -0.02211946 -0.10125000 0.04675226
v -0.02200784 -0.10891592 0.04668013
v -0.02178495 -0.11275000 0.04653616
v -0.02124431 -0.11275000 0.04628115
v -0.02124431 -0.10125000 0.04628115
v -0.02178495 -0.10125000 0.04653616
v -0.02160725 -0.11275000 0.04644499
v -0.02142989 -0.11275000 0.04635409
v -0.02142989 -0.10125000 0.04635409
v -0.02160725 -0.10125000 0.04644499
v -0.02154835 -0.10508408 0.04641478
f 1 2 5
f 1 5 11
f 1 11 17
f 1 17 21
f 1 21 27
f 1 27 34
f 1 34 40
f 1 40 44
f 1 44 45
f 1 45 41
f 1 41 35
f 1 35 28
f 1 28 23
f 1 23 18
f 1 18 13
f 1 13 8
f 1 8 3
f 1 3 9
f 1 9 4
f 1 4 6
f 1 6 2
f 2 6 7
f 2 7 5
f 3 8 14
f 3 14 9
f 4 9 14
f 4 14 19
f 4 19 25
f 4 25 30
f 4 30 37
f 4 37 36
f 4 36 42
f 4 42 46
f 4 46 47
f 4 47 43
f 4 43 38
f 4 38 32
f 4 32 26
f 4 26 20
f 4 20 15
f 4 15 12
f 4 12 6
f 5 10 11
f 5 7 12
f 5 12 10
f 6 12 7
f 8 13 19
f 8 19 14
f 10 12 15
f 10 15 11
f 11 16 17
f 11 15 16
f 13 18 25
f 13 25 19
f 15 20 16
f 16 20 17
f 17 20 22
f 17 22 21
f 18 23 24
f 18 24 25
f 20 26 22
f 21 22 26
f 21 26 32
f 21 32 27
f 23 28 29
f 23 29 30
f 23 30 31
f 23 31 24
f 24 31 25
f 25 31 30
f 27 33 34
f 27 32 33
f 28 35 29
f 29 36 37
f 29 37 30
f 29 35 36
f 32 38 33
f 33 38 34
f 34 39 40
f 34 38 39
f 35 41 42
f 35 42 36
f 38 43 39
f 39 43 40
f 40 43 47
f 40 47 44
f 41 45 46
f 41 46 42
f 44 47 48
f 44 48 45
f 45 48 46
f 46 48 47

