# https://github.com/mikedh/trimesh
v 0.01870561 -0.04674863 0.04655608
v 0.01787511 -0.04675000 0.04696185
v 0.01870561 -0.04475548 0.04655608
v 0.02143849 -0.04675000 0.04655608
v 0.01787511 -0.04675000 0.04937383
v 0.01787511 -0.04475000 0.04696185
v 0.01870596 -0.04475000 0.04655608
v 0.02143849 -0.04475000 0.04655608
v 0.02140815 -0.04675000 0.04665815
v 0.01787511 -0.04475000 0.04937383
v 0.01801498 -0.04675000 0.04936004
v 0.01796615 -0.04541699 0.04936500
v 0.02140815 -0.04475000 0.04665815
v 0.02137327 -0.04541699 0.04675055
v 0.02130350 -0.04675000 0.04693509
v 0.01801498 -0.04475000 0.04936004
v 0.01816253 -0.04675000 0.04934542
v 0.01816253 -0.04475000 0.04934542
v 0.02130350 -0.04475000 0.04693509
v 0.02117898 -0.04675000 0.04720321
v 0.01845343 -0.04675000 0.04929411
v 0.01845343 -0.04475000 0.04929411
v 0.02117898 -0.04475000 0.04720321
v 0.02103423 -0.04675000 0.04746140
v 0.01859679 -0.04675000 0.04925797
v 0.01854900 -0.04608301 0.04927011
v 0.01859679 -0.04475000 0.04925797
v 0.02103423 -0.04475000 0.04746140
v 0.02092610 -0.04608301 0.04762608
v 0.02087169 -0.04675000 0.04770856
v 0.01874049 -0.04675000 0.04922156
v 0.01874049 -0.04475000 0.04922156
v 0.02087169 -0.04475000 0.04770856
v 0.02069101 -0.04675000 0.04794275
v 0.01888071 -0.04675000 0.04917495
v 0.01888071 -0.04475000 0.04917495
v 0.02069101 -0.04475000 0.04794275
v 0.02049288 -0.04675000 0.04816232
v 0.01902093 -0.04675000 0.04912805
v 0.01902093 -0.04475000 0.04912805
v 0.02049288 -0.04475000 0.04816232
v 0.02027977 -0.04675000 0.04836727
v 0.01915801 -0.04675000 0.04907123
v 0.01915801 -0.04475000 0.04907123
v 0.02027977 -0.04475000 0.04836727
v 0.02020408 -0.04541699 0.04843017
v 0.02005165 -0.04675000 0.04855595
v 0.01929405 -0.04675000 0.04901413
v 0.01929405 -0.04475000 0.04901413
v 0.02005165 -0.04475000 0.04855595
v 0.01997177 -0.04541699 0.04861305
v 0.01993096 -0.04675000 0.04864174
v 0.01955844 -0.04675000 0.04888034
v 0.01955844 -0.04475000 0.04888034
v 0.01993096 -0.04475000 0.04864174
v 0.01981062 -0.04675000 0.04872725
v 0.01981062 -0.04475000 0.04872725
v 0.01964285 -0.04608301 0.04882931
f 1 2 6
f 1 6 3
f 1 3 7
f 1 7 8
f 1 8 4
f 1 4 2
f 2 5 10
f 2 10 6
f 2 4 9
f 2 9 15
f 2 15 20
f 2 20 24
f 2 24 30
f 2 30 34
f 2 34 38
f 2 38 42
f 2 42 47
f 2 47 52
f 2 52 56
f 2 56 53
f 2 53 48
f 2 48 43
f 2 43 39
f 2 39 35
f 2 35 31
f 2 31 25
f 2 25 21
f 2 21 17
f 2 17 11
f 2 11 5
f 3 6 7
f 4 8 13
f 4 13 9
f 5 11 12
f 5 12 10
f 6 10 16
f 6 16 18
f 6 18 22
f 6 22 27
f 6 27 32
f 6 32 36
f 6 36 40
f 6 40 44
f 6 44 49
f 6 49 54
f 6 54 57
f 6 57 55
f 6 55 50
f 6 50 45
f 6 45 41
f 6 41 37
f 6 37 33
f 6 33 28
f 6 28 23
f 6 23 19
f 6 19 13
f 6 13 8
f 6 8 7
f 9 13 14
f 9 14 15
f 10 12 16
f 11 17 12
f 12 17 18
f 12 18 16
f 13 19 14
f 14 19 15
f 15 19 23
f 15 23 20
f 17 21 22
f 17 22 18
f 20 23 28
f 20 28 24
f 21 25 26
f 21 26 22
f 22 26 27
f 24 29 30
f 24 28 29
f 25 31 26
f 26 31 32
f 26 32 27
f 28 33 29
f 29 33 30
f 30 33 37
f 30 37 34
f 31 35 36
f 31 36 32
f 34 37 41
f 34 41 38
f 35 39 40
f 35 40 36
f 38 41 45
f 38 45 42
f 39 43 44
f 39 44 40
f 42 45 46
f 42 46 47
f 43 48 49
f 43 49 44
f 45 50 46
f 46 50 47
f 47 50 51
f 47 51 52
f 48 53 54
f 48 54 49
f 50 55 51
f 51 56 52
f 51 55 57
f 51 57 56
f 53 58 54
f 53 56 58
f 54 58 57
f 56 57 58

