# https://github.com/mikedh/trimesh
v 0.08627895 -0.10831151 0.00550353
v 0.08627895 -0.11908942 0.00550353
v 0.08627895 -0.10831151 0.00445911
v 0.01140274 -0.10831151 0.00550353
v 0.08627895 -0.11908942 0.00445911
v 0.01965554 -0.11908942 0.00550353
v 0.01140274 -0.10831151 0.00445911
v 0.01140274 -0.11811555 0.00550353
v 0.01965554 -0.11908942 0.00445911
v 0.01140274 -0.11811555 0.00445911
f 1 2 5
f 1 5 3
f 1 3 7
f 1 7 4
f 1 4 8
f 1 8 6
f 1 6 2
f 2 6 9
f 2 9 5
f 3 5 9
f 3 9 10
f 3 10 7
f 4 7 10
f 4 10 8
f 6 8 10
f 6 10 9

