# https://github.com/mikedh/trimesh
v 0.12152895 -0.09772889 0.00550353
v 0.12152895 -0.09773889 0.00550353
v 0.12152895 -0.09772889 0.00445911
v 0.01148415 -0.09772889 0.00550353
v 0.12148586 -0.09787658 0.00550353
v 0.12148586 -0.09787026 0.00445911
v 0.01148415 -0.09772889 0.00445911
v 0.01160266 -0.09986454 0.00550353
v 0.12060249 -0.09963339 0.00550353
v 0.12031162 -0.10021680 0.00483339
v 0.12106572 -0.09871431 0.00445911
v 0.01163497 -0.10041846 0.00445911
v 0.01163497 -0.10041846 0.00550353
v 0.12020389 -0.10041846 0.00550353
v 0.12020389 -0.10041846 0.00445911
f 1 2 3
f 1 3 7
f 1 7 4
f 1 4 8
f 1 8 13
f 1 13 14
f 1 14 9
f 1 9 5
f 1 5 2
f 2 5 6
f 2 6 3
f 3 6 11
f 3 11 15
f 3 15 12
f 3 12 7
f 4 7 8
f 5 9 10
f 5 10 11
f 5 11 6
f 7 12 8
f 8 12 13
f 9 14 10
f 10 14 15
f 10 15 11
f 12 15 14
f 12 14 13

