# https://github.com/mikedh/trimesh
v -0.06180667 -0.09579374 0.02236737
v -0.06178598 -0.09584213 0.02236737
v -0.06180496 -0.09579374 0.02238534
v -0.06075310 -0.09579374 0.02236737
v -0.06165081 -0.09615681 0.02236737
v -0.06180100 -0.09579374 0.02242069
v -0.06109824 -0.09738836 0.02259863
v -0.06108408 -0.09738836 0.02273359
v -0.05996704 -0.09579374 0.02436277
v -0.05891206 -0.09738836 0.02436277
v -0.06001040 -0.09738836 0.02236737
v -0.06162559 -0.09621550 0.02236737
v -0.06179306 -0.09579374 0.02247987
v -0.06106792 -0.09738836 0.02285508
v -0.06110760 -0.09738836 0.02247343
v -0.06120762 -0.09579374 0.02436277
v -0.06063777 -0.09738836 0.02436277
v -0.06111241 -0.09738836 0.02236737
v -0.06144565 -0.09662898 0.02236737
v -0.06178343 -0.09579374 0.02255156
v -0.06106566 -0.09738836 0.02287188
v -0.06137198 -0.09679818 0.02236737
v -0.06135186 -0.09684407 0.02236737
v -0.06126430 -0.09704324 0.02236737
v -0.06111100 -0.09738836 0.02239959
v -0.06122264 -0.09579374 0.02433191
v -0.06116569 -0.09591549 0.02436277
v -0.06067234 -0.09729502 0.02436277
v -0.06066044 -0.09738836 0.02430476
v -0.06177578 -0.09579374 0.02259843
v -0.06104242 -0.09738836 0.02301251
v -0.06175877 -0.09579374 0.02270156
v -0.06136773 -0.09579374 0.02399869
v -0.06073043 -0.09738836 0.02412546
v -0.06103959 -0.09738836 0.02302912
v -0.06173356 -0.09579374 0.02282930
v -0.06103109 -0.09738836 0.02307267
v -0.06101720 -0.09738836 0.02314357
v -0.06147994 -0.09579374 0.02370903
v -0.06074772 -0.09738836 0.02408073
v -0.06172732 -0.09579374 0.02286016
v -0.06101097 -0.09738836 0.02317463
v -0.06154483 -0.09579374 0.02352035
v -0.06083953 -0.09738836 0.02381509
v -0.06171485 -0.09579374 0.02291544
v -0.06100558 -0.09738836 0.02320061
v -0.06156694 -0.09579374 0.02345589
v -0.06090244 -0.09738836 0.02360824
v -0.06161992 -0.09579374 0.02328225
v -0.06168623 -0.09579374 0.02303947
v -0.06099085 -0.09738836 0.02326506
v -0.06091037 -0.09738836 0.02358207
v -0.06163438 -0.09579374 0.02323459
v -0.06098490 -0.09738836 0.02329085
v -0.06096931 -0.09738836 0.02335784
v -0.06096478 -0.09738836 0.02337698
v -0.06133996 -0.09651691 0.02326506
v -0.06092596 -0.09738836 0.02352367
f 1 2 3
f 1 3 6
f 1 6 13
f 1 13 20
f 1 20 30
f 1 30 32
f 1 32 36
f 1 36 41
f 1 41 45
f 1 45 50
f 1 50 53
f 1 53 49
f 1 49 47
f 1 47 43
f 1 43 39
f 1 39 33
f 1 33 26
f 1 26 16
f 1 16 9
f 1 9 4
f 1 4 11
f 1 11 18
f 1 18 24
f 1 24 23
f 1 23 22
f 1 22 19
f 1 19 12
f 1 12 5
f 1 5 2
f 2 5 3
f 3 5 7
f 3 7 8
f 3 8 6
f 4 9 10
f 4 10 11
f 5 12 7
f 6 8 14
f 6 14 13
f 7 15 25
f 7 25 18
f 7 18 11
f 7 11 10
f 7 10 17
f 7 17 29
f 7 29 34
f 7 34 40
f 7 40 44
f 7 44 48
f 7 48 52
f 7 52 58
f 7 58 56
f 7 56 55
f 7 55 54
f 7 54 51
f 7 51 46
f 7 46 42
f 7 42 38
f 7 38 37
f 7 37 35
f 7 35 31
f 7 31 21
f 7 21 14
f 7 14 8
f 7 12 15
f 9 16 27
f 9 27 28
f 9 28 17
f 9 17 10
f 12 19 15
f 13 14 20
f 14 21 20
f 15 19 22
f 15 22 23
f 15 23 24
f 15 24 25
f 16 26 27
f 17 28 29
f 18 25 24
f 20 21 30
f 21 31 32
f 21 32 30
f 26 33 27
f 27 33 28
f 28 33 34
f 28 34 29
f 31 35 32
f 32 35 37
f 32 37 38
f 32 38 36
f 33 39 34
f 34 39 40
f 36 38 42
f 36 42 41
f 39 43 44
f 39 44 40
f 41 42 46
f 41 46 45
f 43 47 44
f 44 47 49
f 44 49 48
f 45 46 51
f 45 51 50
f 48 49 53
f 48 53 52
f 50 51 54
f 50 54 55
f 50 55 56
f 50 56 57
f 50 57 53
f 52 53 58
f 53 57 58
f 56 58 57

