# https://github.com/mikedh/trimesh
v -0.02575599 -0.02892303 0.10905042
v -0.02518914 -0.02892303 0.11230935
v -0.02575599 -0.02775000 0.10905042
v -0.01186893 -0.02892303 0.10905042
v -0.02518914 -0.02775000 0.11230935
v -0.01371764 -0.02892303 0.11230935
v -0.01186893 -0.02775000 0.10905042
v -0.01225227 -0.02892303 0.10972645
v -0.01371764 -0.02775000 0.11230935
v -0.01225227 -0.02775000 0.10972645
f 1 2 5
f 1 5 3
f 1 3 7
f 1 7 4
f 1 4 8
f 1 8 6
f 1 6 2
f 2 6 9
f 2 9 5
f 3 5 9
f 3 9 10
f 3 10 7
f 4 7 10
f 4 10 8
f 6 8 10
f 6 10 9

