# https://github.com/mikedh/trimesh
v -0.03288002 -0.09687235 0.00445902
v -0.03006127 -0.10337188 0.00445902
v -0.03288002 -0.09687235 0.00350000
v -0.06122606 -0.09687235 0.00445902
v -0.03006127 -0.10444365 0.00445902
v -0.03006127 -0.10337188 0.00350000
v -0.06122606 -0.09687235 0.00350000
v -0.06029563 -0.09827840 0.00445902
v -0.03006127 -0.10444365 0.00350000
v -0.05420056 -0.10444365 0.00445902
v -0.05956349 -0.09938426 0.00350000
v -0.05956349 -0.09938426 0.00445902
v -0.05420056 -0.10444365 0.00350000
v -0.05549096 -0.10342080 0.00445902
v -0.05687897 -0.10231939 0.00350000
v -0.05854460 -0.10049976 0.00445902
v -0.05687897 -0.10231939 0.00445902
v -0.05720234 -0.10196732 0.00445902
f 1 2 6
f 1 6 3
f 1 3 7
f 1 7 4
f 1 4 8
f 1 8 12
f 1 12 16
f 1 16 18
f 1 18 17
f 1 17 14
f 1 14 10
f 1 10 5
f 1 5 2
f 2 5 9
f 2 9 6
f 3 6 9
f 3 9 13
f 3 13 15
f 3 15 11
f 3 11 7
f 4 7 8
f 5 10 13
f 5 13 9
f 7 11 8
f 8 11 12
f 10 14 13
f 11 15 18
f 11 18 16
f 11 16 12
f 13 14 15
f 14 17 15
f 15 17 18

