# https://github.com/mikedh/trimesh
v 0.10257761 -0.04685882 0.02040621
v 0.10257761 -0.03936859 0.02040621
v 0.10665530 -0.04500561 0.02040621
v 0.10735049 -0.03649688 0.02258023
v 0.10257761 -0.03737304 0.02258023
v 0.10735049 -0.03936859 0.02040621
v 0.10257761 -0.03816352 0.02040642
v 0.10417963 -0.03766602 0.02040642
v 0.10560364 -0.03728045 0.02040642
v 0.10735049 -0.04461866 0.02040621
v 0.10735049 -0.03347591 0.02258023
v 0.10257761 -0.03297564 0.02258023
v 0.10735049 -0.03737304 0.02040642
v 0.10652822 -0.03730118 0.02040642
v 0.10704027 -0.03734540 0.02040642
v 0.10257761 -0.03737857 0.02065160
v 0.10356526 -0.03755546 0.02050049
v 0.10560364 -0.03674011 0.02059009
v 0.10735049 -0.03348835 0.02256661
v 0.10731358 -0.03345795 0.02258023
v 0.10265610 -0.03296735 0.02258023
v 0.10257761 -0.03307376 0.02252000
v 0.10735049 -0.03693081 0.02056455
v 0.10257761 -0.03612513 0.02110556
v 0.10356526 -0.03632552 0.02093742
v 0.10560364 -0.03628959 0.02076184
v 0.10735049 -0.03358923 0.02246509
v 0.10703747 -0.03332804 0.02258023
v 0.10560364 -0.03326309 0.02221800
v 0.10560364 -0.03359061 0.02201666
v 0.10383110 -0.03285680 0.02258023
v 0.10560364 -0.03377994 0.02190876
v 0.10560364 -0.03397066 0.02180107
v 0.10257761 -0.03362240 0.02222034
v 0.10560364 -0.03584045 0.02093359
v 0.10735049 -0.03624398 0.02084804
v 0.10257761 -0.03510801 0.02151844
v 0.10735049 -0.03371085 0.02235272
v 0.10672211 -0.03318847 0.02258023
v 0.10449312 -0.03280290 0.02258023
v 0.10560364 -0.03312628 0.02230930
v 0.10735049 -0.03441150 0.02181937
v 0.10735049 -0.03467684 0.02165167
v 0.10735049 -0.03499469 0.02146694
v 0.10560364 -0.03447922 0.02153759
v 0.10735049 -0.03538716 0.02125794
v 0.10257761 -0.03426640 0.02189897
v 0.10560364 -0.03546732 0.02109130
v 0.10560364 -0.03509557 0.02124921
v 0.10735049 -0.03589296 0.02101319
v 0.10735049 -0.03384904 0.02223290
v 0.10636704 -0.03303921 0.02258023
v 0.10506450 -0.03276697 0.02258023
v 0.10560364 -0.03299085 0.02240060
v 0.10735049 -0.03419039 0.02197133
v 0.10735049 -0.03400520 0.02210861
v 0.10603300 -0.03290516 0.02258023
v 0.10555599 -0.03274347 0.02258023
v 0.10560364 -0.03276144 0.02256576
v 0.10560364 -0.03274347 0.02258023
f 1 2 6
f 1 6 10
f 1 10 3
f 1 3 4
f 1 4 5
f 1 5 12
f 1 12 22
f 1 22 34
f 1 34 47
f 1 47 37
f 1 37 24
f 1 24 16
f 1 16 7
f 1 7 2
f 2 7 8
f 2 8 9
f 2 9 6
f 3 10 4
f 4 10 6
f 4 6 13
f 4 13 23
f 4 23 36
f 4 36 50
f 4 50 46
f 4 46 44
f 4 44 43
f 4 43 42
f 4 42 55
f 4 55 56
f 4 56 51
f 4 51 38
f 4 38 27
f 4 27 19
f 4 19 11
f 4 11 20
f 4 20 28
f 4 28 39
f 4 39 52
f 4 52 57
f 4 57 60
f 4 60 58
f 4 58 53
f 4 53 40
f 4 40 31
f 4 31 21
f 4 21 12
f 4 12 5
f 6 9 14
f 6 14 15
f 6 15 13
f 7 16 17
f 7 17 8
f 8 17 9
f 9 18 14
f 9 17 18
f 11 19 20
f 12 21 22
f 13 15 23
f 14 18 23
f 14 23 15
f 16 24 25
f 16 25 18
f 16 18 17
f 18 25 26
f 18 26 23
f 19 27 28
f 19 28 20
f 21 29 30
f 21 30 22
f 21 31 29
f 22 30 32
f 22 32 33
f 22 33 34
f 23 26 35
f 23 35 36
f 24 37 35
f 24 35 26
f 24 26 25
f 27 38 39
f 27 39 28
f 29 31 40
f 29 40 41
f 29 41 42
f 29 42 43
f 29 43 30
f 30 43 44
f 30 44 32
f 32 44 33
f 33 45 34
f 33 44 46
f 33 46 45
f 34 45 47
f 35 37 48
f 35 48 36
f 36 48 49
f 36 49 45
f 36 45 50
f 37 49 48
f 37 47 49
f 38 51 52
f 38 52 39
f 40 53 54
f 40 54 41
f 41 54 42
f 42 54 55
f 45 46 50
f 45 49 47
f 51 56 57
f 51 57 52
f 53 58 54
f 54 58 59
f 54 59 55
f 55 59 56
f 56 59 57
f 57 59 60
f 58 60 59

