# https://github.com/mikedh/trimesh
v 0.00044616 -0.10225000 0.05300205
v 0.00044616 -0.10304326 0.05300205
v 0.00044616 -0.10225000 0.05000064
v -0.00411560 -0.10225000 0.05300205
v -0.00411560 -0.10304326 0.05300205
v 0.00044616 -0.10304326 0.05000064
v -0.00052594 -0.10225000 0.04801922
v -0.00411560 -0.10225000 0.04801922
v -0.00411560 -0.10304326 0.04801922
v -0.00052594 -0.10304326 0.04801922
f 1 2 6
f 1 6 3
f 1 3 7
f 1 7 8
f 1 8 4
f 1 4 5
f 1 5 2
f 2 5 9
f 2 9 10
f 2 10 6
f 3 6 10
f 3 10 7
f 4 8 9
f 4 9 5
f 7 10 9
f 7 9 8

