# https://github.com/mikedh/trimesh
v -0.02095344 -0.05351941 0.28839342
v -0.02095344 -0.05351869 0.28833642
v -0.02075002 -0.05351941 0.28839342
v -0.02095344 -0.05351941 0.29635438
v -0.02075002 -0.05351869 0.28833642
v -0.02095344 -0.05171188 0.28665133
v -0.02075002 -0.05351941 0.29635438
v -0.02095344 -0.05321876 0.29613686
v -0.02075002 -0.05171188 0.28665133
v -0.02095344 -0.04615446 0.28665133
v -0.02075002 -0.05252949 0.29563532
v -0.02095344 -0.05252949 0.29563532
v -0.02075002 -0.04615446 0.28665133
v -0.02095344 -0.04621070 0.28682706
v -0.02075002 -0.05117763 0.29445557
v -0.02095344 -0.05243864 0.29555648
v -0.02075002 -0.04627631 0.28702844
v -0.02095344 -0.04627631 0.28702844
v -0.02075002 -0.05055757 0.29380680
v -0.02095344 -0.05117763 0.29445557
v -0.02075002 -0.04685888 0.28839342
v -0.02095344 -0.04685888 0.28839342
v -0.02075002 -0.04993824 0.29315803
v -0.02095344 -0.04993824 0.29315803
v -0.02075002 -0.04698072 0.28867838
v -0.02095344 -0.04698072 0.28867838
v -0.02075002 -0.04881998 0.29175505
v -0.02095344 -0.04887694 0.29182724
v -0.02095344 -0.04988128 0.29308679
v -0.02095344 -0.04738448 0.28942879
v -0.02075002 -0.04783150 0.29025899
v -0.02075002 -0.04832610 0.29100844
v -0.02095344 -0.04877023 0.29168001
v -0.02095344 -0.04881998 0.29175505
v -0.02095344 -0.04783150 0.29025899
f 1 2 5
f 1 5 3
f 1 3 7
f 1 7 4
f 1 4 8
f 1 8 12
f 1 12 16
f 1 16 20
f 1 20 24
f 1 24 29
f 1 29 28
f 1 28 34
f 1 34 33
f 1 33 35
f 1 35 30
f 1 30 26
f 1 26 22
f 1 22 18
f 1 18 14
f 1 14 10
f 1 10 6
f 1 6 2
f 2 6 9
f 2 9 5
f 3 5 9
f 3 9 13
f 3 13 17
f 3 17 21
f 3 21 25
f 3 25 31
f 3 31 32
f 3 32 27
f 3 27 23
f 3 23 19
f 3 19 15
f 3 15 11
f 3 11 7
f 4 7 8
f 6 10 13
f 6 13 9
f 7 11 8
f 8 11 12
f 10 14 13
f 11 15 16
f 11 16 12
f 13 14 17
f 14 18 17
f 15 19 20
f 15 20 16
f 17 18 22
f 17 22 21
f 19 23 24
f 19 24 20
f 21 22 26
f 21 26 25
f 23 27 28
f 23 28 29
f 23 29 24
f 25 26 30
f 25 30 31
f 27 32 33
f 27 33 34
f 27 34 28
f 30 35 31
f 31 35 32
f 32 35 33

