# https://github.com/mikedh/trimesh
v -0.05736923 -0.10225000 0.16477896
v -0.05920631 -0.10225000 0.16553164
v -0.05736923 -0.10300889 0.16477896
v -0.05736923 -0.10225000 0.16033315
v -0.05920631 -0.10300889 0.16553164
v -0.05920631 -0.10225000 0.16033366
v -0.05736923 -0.10300889 0.16033315
v -0.05810327 -0.10225000 0.16033315
v -0.05920631 -0.10300889 0.16033315
v -0.05920631 -0.10271915 0.16033315
f 1 2 5
f 1 5 3
f 1 3 7
f 1 7 4
f 1 4 8
f 1 8 6
f 1 6 2
f 2 6 10
f 2 10 9
f 2 9 5
f 3 5 9
f 3 9 7
f 4 7 9
f 4 9 10
f 4 10 8
f 6 8 10

