# https://github.com/mikedh/trimesh
v -0.03146439 -0.05635002 0.36141127
v -0.03174226 -0.05984394 0.36141127
v -0.03146439 -0.05635002 0.36054206
v -0.03928934 -0.05635002 0.36141127
v -0.03174226 -0.05984394 0.36054206
v -0.04039121 -0.05984394 0.36141127
v -0.03928934 -0.05635002 0.36054206
v -0.03931119 -0.05640064 0.36141127
v -0.04039121 -0.05984394 0.36054206
v -0.04027325 -0.05932575 0.36141127
v -0.03954449 -0.05694927 0.36054206
v -0.03954449 -0.05694927 0.36141127
v -0.04017713 -0.05890470 0.36054206
v -0.04017713 -0.05890470 0.36141127
v -0.03987654 -0.05797470 0.36054206
v -0.04007664 -0.05859276 0.36141127
f 1 2 5
f 1 5 3
f 1 3 7
f 1 7 4
f 1 4 8
f 1 8 12
f 1 12 16
f 1 16 14
f 1 14 10
f 1 10 6
f 1 6 2
f 2 6 9
f 2 9 5
f 3 5 9
f 3 9 13
f 3 13 15
f 3 15 11
f 3 11 7
f 4 7 8
f 6 10 9
f 7 11 8
f 8 11 12
f 9 10 13
f 10 14 13
f 11 15 12
f 12 15 16
f 13 14 16
f 13 16 15

