# https://github.com/mikedh/trimesh
v 0.09049732 -0.08501369 0.05384179
v 0.09049732 -0.08501369 0.04680522
v 0.08980305 -0.08501369 0.05384179
v 0.08980305 -0.08573762 0.05345948
v 0.09049732 -0.08537489 0.05365098
v 0.08980305 -0.08501369 0.04680522
v 0.09049732 -0.09281422 0.04680522
v 0.08980305 -0.08600031 0.05332033
v 0.09049732 -0.08600031 0.05332033
v 0.08980305 -0.09281422 0.04680522
v 0.09049732 -0.09273404 0.04693335
v 0.08980305 -0.09281040 0.04681142
v 0.08980305 -0.08605223 0.05328795
v 0.09049732 -0.08726641 0.05252471
v 0.09049732 -0.09252404 0.04726675
v 0.08980305 -0.09255688 0.04721508
v 0.08980305 -0.08699151 0.05269761
v 0.08980305 -0.08726641 0.05252471
v 0.09049732 -0.08728627 0.05251025
v 0.09049732 -0.09247670 0.04733150
v 0.08980305 -0.09252404 0.04726675
v 0.08980305 -0.08765587 0.05223746
v 0.09049732 -0.08755125 0.05231461
v 0.08980305 -0.08842103 0.05167261
v 0.08980305 -0.09234688 0.04750784
v 0.08980305 -0.09248815 0.04731566
v 0.09049732 -0.09184670 0.04818567
v 0.09049732 -0.08815299 0.05187031
v 0.08980305 -0.08846990 0.05163610
v 0.09049732 -0.08846990 0.05163610
v 0.09049732 -0.08840576 0.05168363
v 0.08980305 -0.09216895 0.04774894
v 0.09049732 -0.09165044 0.04845087
v 0.08980305 -0.09163593 0.04847016
v 0.08980305 -0.09197575 0.04801070
v 0.08980305 -0.08851648 0.05159684
v 0.09049732 -0.08850732 0.05160441
v 0.09049732 -0.09163593 0.04847016
v 0.09049732 -0.09147175 0.04866166
v 0.08980305 -0.09105175 0.04915005
v 0.08980305 -0.08869747 0.05144116
v 0.09049732 -0.08960314 0.05066069
v 0.09049732 -0.09066077 0.04960400
v 0.09034996 -0.09114873 0.04903708
v 0.08980305 -0.09066077 0.04960400
v 0.08980305 -0.08937786 0.05085495
v 0.08980305 -0.08960314 0.05066069
v 0.08980305 -0.09002695 0.05023774
v 0.09049732 -0.08988186 0.05038240
v 0.08980305 -0.09043092 0.04983408
f 1 2 6
f 1 6 3
f 1 3 4
f 1 4 5
f 1 5 9
f 1 9 14
f 1 14 19
f 1 19 23
f 1 23 28
f 1 28 31
f 1 31 30
f 1 30 37
f 1 37 42
f 1 42 49
f 1 49 43
f 1 43 39
f 1 39 38
f 1 38 33
f 1 33 27
f 1 27 20
f 1 20 15
f 1 15 11
f 1 11 7
f 1 7 2
f 2 7 10
f 2 10 6
f 3 6 10
f 3 10 12
f 3 12 16
f 3 16 21
f 3 21 26
f 3 26 25
f 3 25 32
f 3 32 35
f 3 35 34
f 3 34 40
f 3 40 45
f 3 45 50
f 3 50 48
f 3 48 47
f 3 47 46
f 3 46 41
f 3 41 36
f 3 36 29
f 3 29 24
f 3 24 22
f 3 22 18
f 3 18 17
f 3 17 13
f 3 13 8
f 3 8 4
f 4 8 9
f 4 9 5
f 7 11 12
f 7 12 10
f 8 13 9
f 9 13 14
f 11 15 16
f 11 16 12
f 13 17 14
f 14 17 18
f 14 18 19
f 15 20 21
f 15 21 16
f 18 22 19
f 19 22 24
f 19 24 23
f 20 25 26
f 20 26 21
f 20 27 25
f 23 24 28
f 24 29 30
f 24 30 31
f 24 31 28
f 25 27 32
f 27 33 34
f 27 34 35
f 27 35 32
f 29 36 30
f 30 36 37
f 33 38 34
f 34 38 39
f 34 39 40
f 36 41 37
f 37 41 42
f 39 43 44
f 39 44 40
f 40 43 45
f 40 44 43
f 41 46 42
f 42 46 47
f 42 47 48
f 42 48 49
f 43 50 45
f 43 49 50
f 48 50 49

