# https://github.com/mikedh/trimesh
v -0.02610383 -0.03325000 0.06644948
v -0.02592290 -0.03325000 0.06760328
v -0.02610383 -0.02775000 0.06644948
v -0.01644192 -0.03325000 0.06644948
v -0.02523181 -0.03325000 0.07025288
v -0.02592290 -0.02775000 0.06760328
v -0.01644192 -0.02775000 0.06644948
v -0.01095323 -0.03325000 0.07545423
v -0.02428119 -0.03325000 0.07282050
v -0.02523181 -0.02775000 0.07025288
v -0.01095323 -0.02775000 0.07545423
v -0.02297316 -0.03325000 0.07545423
v -0.02368057 -0.03325000 0.07405098
v -0.02388078 -0.02958369 0.07364111
v -0.02428119 -0.02775000 0.07282050
v -0.02297316 -0.02775000 0.07545423
v -0.02307846 -0.03325000 0.07528147
v -0.02368057 -0.02775000 0.07405098
v -0.02307846 -0.02775000 0.07528147
f 1 2 6
f 1 6 3
f 1 3 7
f 1 7 4
f 1 4 8
f 1 8 12
f 1 12 17
f 1 17 13
f 1 13 9
f 1 9 5
f 1 5 2
f 2 5 10
f 2 10 6
f 3 6 10
f 3 10 15
f 3 15 18
f 3 18 19
f 3 19 16
f 3 16 11
f 3 11 7
f 4 7 11
f 4 11 8
f 5 9 15
f 5 15 10
f 8 11 16
f 8 16 12
f 9 13 14
f 9 14 15
f 12 16 19
f 12 19 17
f 13 17 19
f 13 19 18
f 13 18 14
f 14 18 15

