# https://github.com/mikedh/trimesh
v 0.06986236 -0.06697390 0.01603540
v 0.06846161 -0.06697390 0.01604277
v 0.06846161 -0.06247856 0.01612392
v 0.06986236 -0.06245543 0.01612392
v 0.06986236 -0.06697390 0.05371492
v 0.06846161 -0.06697390 0.05371492
v 0.06846161 -0.06007770 0.01621981
v 0.06986236 -0.05756509 0.01632308
v 0.06986236 -0.04728919 0.05371492
v 0.06846161 -0.04728919 0.05371492
v 0.06846161 -0.05759784 0.01632308
v 0.06846161 -0.05506981 0.01650750
v 0.06986236 -0.05241847 0.01670298
v 0.06986236 -0.04728919 0.01733736
v 0.06846161 -0.04728919 0.01734843
v 0.06846161 -0.05245893 0.01670298
v 0.06970728 -0.05242232 0.01670298
v 0.06970728 -0.05224698 0.01672142
v 0.06986236 -0.05224698 0.01672142
v 0.06970728 -0.04728919 0.01733736
v 0.06846161 -0.04982107 0.01702755
v 0.06846161 -0.05224698 0.01672879
f 1 2 3
f 1 3 4
f 1 4 8
f 1 8 13
f 1 13 19
f 1 19 14
f 1 14 9
f 1 9 5
f 1 5 6
f 1 6 2
f 2 6 10
f 2 10 15
f 2 15 21
f 2 21 22
f 2 22 16
f 2 16 12
f 2 12 11
f 2 11 7
f 2 7 3
f 3 7 4
f 4 7 8
f 5 9 10
f 5 10 6
f 7 11 8
f 8 11 12
f 8 12 13
f 9 14 20
f 9 20 15
f 9 15 10
f 12 16 17
f 12 17 13
f 13 17 18
f 13 18 19
f 14 19 18
f 14 18 20
f 15 20 21
f 16 18 17
f 16 22 18
f 18 22 21
f 18 21 20

