# https://github.com/mikedh/trimesh
v -0.03112762 -0.11194339 0.14544805
v -0.03672189 -0.11194339 0.14544805
v -0.03112762 -0.11224669 0.14544805
v -0.03157126 -0.11194339 0.14422959
v -0.03672189 -0.11224669 0.14544805
v -0.03698367 -0.11194339 0.14435337
v -0.03755568 -0.11224677 0.14383887
v -0.03140513 -0.11274992 0.14468683
v -0.03157126 -0.11224669 0.14422959
v -0.03240253 -0.11194339 0.14250253
v -0.03681251 -0.11274992 0.14468683
v -0.03755568 -0.11274992 0.14383887
v -0.03698367 -0.11194339 0.13684557
v -0.03157126 -0.11274992 0.14423127
v -0.03176004 -0.11274992 0.14383887
v -0.03243589 -0.11224669 0.14243432
v -0.03243589 -0.11194339 0.14243432
v -0.03698367 -0.11224669 0.13684557
v -0.03652619 -0.11194339 0.13724891
v -0.03652619 -0.11224669 0.13724891
v -0.03603409 -0.11224669 0.13768342
v -0.03467800 -0.11224669 0.13914523
v -0.03347608 -0.11224669 0.14073504
v -0.03246106 -0.11224669 0.14239306
v -0.03302111 -0.11194339 0.14147605
v -0.03603409 -0.11194339 0.13768342
v -0.03478246 -0.11194339 0.13903240
v -0.03467800 -0.11194339 0.13914523
v -0.03347608 -0.11194339 0.14073504
f 1 2 5
f 1 5 3
f 1 3 9
f 1 9 4
f 1 4 10
f 1 10 17
f 1 17 25
f 1 25 29
f 1 29 28
f 1 28 27
f 1 27 26
f 1 26 19
f 1 19 13
f 1 13 6
f 1 6 2
f 2 6 7
f 2 7 12
f 2 12 5
f 3 5 11
f 3 11 8
f 3 8 9
f 4 9 10
f 5 12 11
f 6 13 7
f 7 13 18
f 7 18 12
f 8 11 12
f 8 12 15
f 8 15 14
f 8 14 9
f 9 14 15
f 9 15 10
f 10 16 17
f 10 15 16
f 12 18 15
f 13 19 20
f 13 20 18
f 15 18 20
f 15 20 21
f 15 21 22
f 15 22 23
f 15 23 24
f 15 24 16
f 16 24 17
f 17 24 25
f 19 26 21
f 19 21 20
f 21 26 27
f 21 27 22
f 22 27 28
f 22 28 29
f 22 29 23
f 23 29 25
f 23 25 24

