# https://github.com/mikedh/trimesh
v 0.01376903 -0.04775000 0.04430503
v 0.01374083 -0.04775000 0.04439610
v 0.01376903 -0.04675000 0.04430503
v 0.01643521 -0.04775000 0.04430503
v 0.01374083 -0.04675000 0.04439610
v 0.01366169 -0.04775000 0.04478696
v 0.01643521 -0.04675000 0.04430503
v 0.01656183 -0.04775000 0.04658545
v 0.01366169 -0.04675000 0.04478696
v 0.01362198 -0.04775000 0.04518362
v 0.01364846 -0.04708340 0.04491911
v 0.01656183 -0.04675000 0.04658545
v 0.01380731 -0.04775000 0.04658545
v 0.01362198 -0.04675000 0.04518362
v 0.01362198 -0.04775000 0.04558229
v 0.01380731 -0.04675000 0.04658545
v 0.01379954 -0.04775000 0.04656045
v 0.01362198 -0.04675000 0.04558229
v 0.01364184 -0.04775000 0.04578074
v 0.01379954 -0.04675000 0.04656045
v 0.01374083 -0.04775000 0.04636982
v 0.01364184 -0.04675000 0.04578074
v 0.01366169 -0.04775000 0.04597896
v 0.01374083 -0.04675000 0.04636982
v 0.01366169 -0.04675000 0.04597896
f 1 2 5
f 1 5 3
f 1 3 7
f 1 7 4
f 1 4 8
f 1 8 13
f 1 13 17
f 1 17 21
f 1 21 23
f 1 23 19
f 1 19 15
f 1 15 10
f 1 10 6
f 1 6 2
f 2 6 9
f 2 9 5
f 3 5 9
f 3 9 14
f 3 14 18
f 3 18 22
f 3 22 25
f 3 25 24
f 3 24 20
f 3 20 16
f 3 16 12
f 3 12 7
f 4 7 12
f 4 12 8
f 6 10 11
f 6 11 9
f 8 12 16
f 8 16 13
f 9 11 14
f 10 15 18
f 10 18 14
f 10 14 11
f 13 16 20
f 13 20 17
f 15 19 22
f 15 22 18
f 17 20 24
f 17 24 21
f 19 23 25
f 19 25 22
f 21 24 25
f 21 25 23

