# https://github.com/mikedh/trimesh
v 0.11674700 -0.10544795 0.00550353
v 0.11541204 -0.10681909 0.00550353
v 0.11674700 -0.10544795 0.00445911
v 0.09912237 -0.10544795 0.00550353
v 0.11541030 -0.10681936 0.00549617
v 0.11541030 -0.10681936 0.00445911
v 0.11548698 -0.10674136 0.00445911
v 0.11633745 -0.10586857 0.00445911
v 0.11419907 -0.10681936 0.00550353
v 0.09912237 -0.10544795 0.00445911
v 0.09894461 -0.10681936 0.00550353
v 0.09894461 -0.10681936 0.00445911
f 1 2 3
f 1 3 10
f 1 10 4
f 1 4 11
f 1 11 9
f 1 9 2
f 2 5 6
f 2 6 7
f 2 7 8
f 2 8 3
f 2 9 5
f 3 8 7
f 3 7 6
f 3 6 12
f 3 12 10
f 4 10 12
f 4 12 11
f 5 9 11
f 5 11 12
f 5 12 6

