# https://github.com/mikedh/trimesh
v 0.08520068 -0.06127776 0.03707297
v 0.08520068 -0.06064009 0.03707297
v 0.08550415 -0.06127776 0.03707297
v 0.08520068 -0.06127776 0.03930438
v 0.08520068 -0.05936701 0.03707756
v 0.08550415 -0.06064009 0.03707297
v 0.08550415 -0.06127776 0.03930438
v 0.08520068 -0.05936701 0.03930438
v 0.08550415 -0.05936701 0.03707756
v 0.08550415 -0.05936701 0.03930438
f 1 2 6
f 1 6 3
f 1 3 7
f 1 7 4
f 1 4 8
f 1 8 5
f 1 5 2
f 2 5 9
f 2 9 6
f 3 6 9
f 3 9 10
f 3 10 7
f 4 7 10
f 4 10 8
f 5 8 10
f 5 10 9

