# https://github.com/mikedh/trimesh
v -0.05015578 -0.03527581 0.14575194
v -0.05015578 -0.03319644 0.14575194
v -0.04983289 -0.03319644 0.14576005
v -0.04989361 -0.03527581 0.14575853
v -0.05051983 -0.03527581 0.14577931
v -0.05064425 -0.03319644 0.14578894
v -0.04966425 -0.03319644 0.14576461
v -0.04966425 -0.03527581 0.14576461
v -0.04977888 -0.03527581 0.14576157
v -0.05064425 -0.03527581 0.14578894
v -0.05064425 -0.03319644 0.15092990
v -0.04966425 -0.03319644 0.15079559
v -0.04966425 -0.03527581 0.15079559
v -0.05064425 -0.03527581 0.15092990
v -0.04966425 -0.03480925 0.15079610
f 1 2 3
f 1 3 4
f 1 4 9
f 1 9 8
f 1 8 13
f 1 13 14
f 1 14 10
f 1 10 5
f 1 5 2
f 2 5 6
f 2 6 11
f 2 11 12
f 2 12 7
f 2 7 3
f 3 7 8
f 3 8 9
f 3 9 4
f 5 10 6
f 6 10 14
f 6 14 11
f 7 12 15
f 7 15 13
f 7 13 8
f 11 14 15
f 11 15 12
f 13 15 14

