# https://github.com/mikedh/trimesh
v 0.11478090 -0.04453578 0.00445893
v 0.11534128 -0.04511018 0.00445893
v 0.11478090 -0.04453578 0.00350000
v 0.09888272 -0.04453578 0.00445893
v 0.11718638 -0.04700490 0.00445893
v 0.11583732 -0.04561876 0.00445498
v 0.11541392 -0.04518464 0.00350000
v 0.09888272 -0.04453578 0.00350000
v 0.09888272 -0.04511417 0.00445893
v 0.11840261 -0.04873275 0.00445893
v 0.11718638 -0.04700490 0.00350000
v 0.11583732 -0.04561876 0.00350000
v 0.09888272 -0.04511417 0.00350000
v 0.09906536 -0.05132752 0.00445893
v 0.11911450 -0.04974460 0.00445893
v 0.11972054 -0.05060886 0.00350000
v 0.09906536 -0.05132752 0.00350000
v 0.12008376 -0.05132752 0.00445893
v 0.11972054 -0.05060886 0.00445893
v 0.12008376 -0.05132752 0.00350000
f 1 2 7
f 1 7 3
f 1 3 8
f 1 8 4
f 1 4 9
f 1 9 14
f 1 14 18
f 1 18 19
f 1 19 15
f 1 15 10
f 1 10 5
f 1 5 2
f 2 5 6
f 2 6 7
f 3 7 12
f 3 12 11
f 3 11 16
f 3 16 20
f 3 20 17
f 3 17 13
f 3 13 8
f 4 8 13
f 4 13 9
f 5 10 11
f 5 11 12
f 5 12 6
f 6 12 7
f 9 13 17
f 9 17 14
f 10 15 11
f 11 15 16
f 14 17 20
f 14 20 18
f 15 19 16
f 16 19 18
f 16 18 20

