# https://github.com/mikedh/trimesh
v -0.01779450 -0.10124986 0.26094218
v -0.01779450 -0.09977830 0.26094218
v -0.01675867 -0.10124986 0.26094218
v -0.01779450 -0.10124986 0.26311911
v -0.01701276 -0.09977830 0.26094218
v -0.01779450 -0.09874595 0.26451996
v -0.01675867 -0.09978075 0.26094218
v -0.01675867 -0.10124986 0.26311911
v -0.01779450 -0.10124961 0.27145628
v -0.01675867 -0.09977830 0.26094527
v -0.01675867 -0.09874595 0.26451996
v -0.01779450 -0.09874595 0.26948006
v -0.01675867 -0.10124961 0.27145628
v -0.01779450 -0.09978198 0.27145628
v -0.01675867 -0.09874595 0.26948006
v -0.01675867 -0.09978198 0.27145628
f 1 2 5
f 1 5 7
f 1 7 3
f 1 3 8
f 1 8 4
f 1 4 9
f 1 9 14
f 1 14 12
f 1 12 6
f 1 6 2
f 2 6 11
f 2 11 5
f 3 7 10
f 3 10 11
f 3 11 15
f 3 15 16
f 3 16 13
f 3 13 8
f 4 8 13
f 4 13 9
f 5 10 7
f 5 11 10
f 6 12 15
f 6 15 11
f 9 13 16
f 9 16 14
f 12 14 16
f 12 16 15

