# https://github.com/mikedh/trimesh
v -0.05463798 -0.11825000 0.15724219
v -0.05463798 -0.11275000 0.15724219
v -0.05206035 -0.11825000 0.15868316
v -0.05463798 -0.11825000 0.16648476
v -0.05206035 -0.11275000 0.15868316
v -0.05463798 -0.11275000 0.16653570
v -0.05206035 -0.11825000 0.16346273
v -0.05463521 -0.11825000 0.16653570
v -0.05463798 -0.11395164 0.16653570
v -0.05206035 -0.11275000 0.16346273
v -0.05270665 -0.11275000 0.16653570
v -0.05270665 -0.11825000 0.16653570
f 1 2 5
f 1 5 3
f 1 3 7
f 1 7 12
f 1 12 8
f 1 8 4
f 1 4 9
f 1 9 6
f 1 6 2
f 2 6 11
f 2 11 10
f 2 10 5
f 3 5 10
f 3 10 7
f 4 8 9
f 6 9 8
f 6 8 12
f 6 12 11
f 7 10 11
f 7 11 12

