# https://github.com/mikedh/trimesh
v 0.10559504 -0.11828771 0.02464923
v 0.10559705 -0.11829060 0.02464923
v 0.10558831 -0.11829060 0.02465234
v 0.10754689 -0.11617964 0.02464923
v 0.10796644 -0.11829060 0.02464923
v 0.10254523 -0.11829060 0.02817933
v 0.10389532 -0.11617964 0.02817933
v 0.10941402 -0.11617964 0.02464923
v 0.10799400 -0.11825733 0.02464923
v 0.10795501 -0.11829060 0.02467065
v 0.10497512 -0.11829060 0.02817933
v 0.10606300 -0.11617964 0.02817933
v 0.10934880 -0.11629206 0.02464923
v 0.10923786 -0.11617964 0.02485379
v 0.10639245 -0.11829060 0.02674600
v 0.10812982 -0.11808478 0.02464923
v 0.10788844 -0.11829060 0.02478295
v 0.10540879 -0.11829060 0.02780511
v 0.10517011 -0.11798889 0.02817933
v 0.10597895 -0.11639332 0.02817933
v 0.10629630 -0.11617964 0.02795058
v 0.10913902 -0.11663634 0.02464923
v 0.10669434 -0.11829060 0.02639078
v 0.10894068 -0.11617964 0.02518793
v 0.10602871 -0.11829060 0.02716204
v 0.10827774 -0.11789156 0.02464923
v 0.10781247 -0.11829060 0.02490424
v 0.10555470 -0.11829060 0.02767898
v 0.10554461 -0.11735054 0.02817933
v 0.10560445 -0.11827882 0.02764235
v 0.10560445 -0.11806060 0.02776226
v 0.10560445 -0.11784216 0.02788182
v 0.10594332 -0.11647433 0.02817933
v 0.10724903 -0.11617964 0.02698512
v 0.10894606 -0.11693930 0.02464923
v 0.10764370 -0.11770970 0.02566893
v 0.10694445 -0.11829060 0.02608670
v 0.10764370 -0.11788205 0.02553452
v 0.10844784 -0.11617964 0.02572975
v 0.10764370 -0.11677377 0.02627088
v 0.10560445 -0.11829060 0.02763544
v 0.10582162 -0.11829060 0.02739390
v 0.10843776 -0.11767540 0.02464923
v 0.10771296 -0.11829060 0.02505732
v 0.10780104 -0.11829060 0.02492186
v 0.10555066 -0.11733959 0.02817933
v 0.10560445 -0.11758653 0.02800967
v 0.10560445 -0.11733091 0.02813718
v 0.10791668 -0.11617964 0.02629403
v 0.10560445 -0.11723853 0.02817933
v 0.10876318 -0.11721332 0.02464923
v 0.10715288 -0.11829060 0.02582512
v 0.10764370 -0.11802609 0.02541358
v 0.10859442 -0.11745738 0.02464923
v 0.10764370 -0.11825940 0.02519277
v 0.10770825 -0.11829060 0.02506423
v 0.10732635 -0.11829060 0.02559948
v 0.10764370 -0.11815318 0.02529747
v 0.10747965 -0.11829060 0.02539215
v 0.10760605 -0.11829060 0.02521385
f 1 2 3
f 1 3 4
f 1 4 8
f 1 8 13
f 1 13 22
f 1 22 35
f 1 35 51
f 1 51 54
f 1 54 43
f 1 43 26
f 1 26 16
f 1 16 9
f 1 9 5
f 1 5 2
f 2 5 10
f 2 10 17
f 2 17 27
f 2 27 45
f 2 45 44
f 2 44 56
f 2 56 60
f 2 60 59
f 2 59 57
f 2 57 52
f 2 52 37
f 2 37 23
f 2 23 15
f 2 15 25
f 2 25 42
f 2 42 41
f 2 41 28
f 2 28 18
f 2 18 11
f 2 11 6
f 2 6 3
f 3 6 7
f 3 7 4
f 4 7 12
f 4 12 21
f 4 21 34
f 4 34 49
f 4 49 39
f 4 39 24
f 4 24 14
f 4 14 8
f 5 9 10
f 6 11 19
f 6 19 29
f 6 29 46
f 6 46 50
f 6 50 33
f 6 33 20
f 6 20 12
f 6 12 7
f 8 14 15
f 8 15 13
f 9 16 17
f 9 17 10
f 11 18 19
f 12 20 21
f 13 15 23
f 13 23 22
f 14 24 25
f 14 25 15
f 16 26 27
f 16 27 17
f 18 28 19
f 19 28 30
f 19 30 31
f 19 31 32
f 19 32 29
f 20 33 34
f 20 34 21
f 22 23 36
f 22 36 37
f 22 37 38
f 22 38 35
f 23 37 36
f 24 39 40
f 24 40 30
f 24 30 41
f 24 41 42
f 24 42 25
f 26 43 44
f 26 44 45
f 26 45 27
f 28 41 30
f 29 32 47
f 29 47 48
f 29 48 46
f 30 40 31
f 31 40 32
f 32 40 39
f 32 39 49
f 32 49 47
f 33 50 34
f 34 50 48
f 34 48 49
f 35 38 52
f 35 52 53
f 35 53 51
f 37 52 38
f 43 54 55
f 43 55 44
f 44 55 56
f 46 48 50
f 47 49 48
f 51 53 57
f 51 57 58
f 51 58 54
f 52 57 53
f 54 58 55
f 55 58 59
f 55 59 60
f 55 60 56
f 57 59 58

