# https://github.com/mikedh/trimesh
v -0.00017648 -0.10525000 0.05179346
v -0.00007342 -0.10525000 0.04731470
v -0.00065022 -0.10525000 0.05158261
v -0.00017648 -0.11525000 0.05179346
v -0.00017624 -0.10525000 0.04520621
v -0.00007342 -0.11525000 0.04731470
v -0.00097198 -0.10525000 0.05139046
v -0.00065022 -0.11525000 0.05158261
v -0.00065022 -0.10525000 0.04541706
v -0.00017624 -0.11525000 0.04520621
v -0.00054953 -0.11525000 0.04536354
v -0.00118261 -0.10525000 0.05123507
v -0.00097198 -0.11525000 0.05139046
v -0.00097198 -0.10525000 0.04560986
v -0.00075066 -0.11525000 0.04547058
v -0.00138041 -0.10525000 0.05106420
v -0.00118261 -0.11525000 0.05123507
v -0.00118261 -0.10525000 0.04576461
v -0.00097198 -0.11525000 0.04560986
v -0.00111256 -0.10858399 0.04571302
v -0.00156516 -0.10525000 0.05087978
v -0.00150366 -0.11191601 0.05094168
v -0.00138041 -0.11525000 0.05106420
v -0.00118261 -0.11525000 0.04576461
v -0.00138041 -0.10525000 0.04593483
v -0.00183302 -0.10525000 0.05054965
v -0.00156516 -0.11525000 0.05087978
v -0.00138041 -0.11525000 0.04593483
v -0.00156516 -0.10525000 0.04611989
v -0.00203059 -0.10525000 0.05024853
v -0.00183302 -0.11525000 0.05054965
v -0.00156516 -0.11525000 0.04611989
v -0.00183302 -0.10525000 0.04645067
v -0.00219206 -0.10525000 0.04992742
v -0.00203059 -0.11525000 0.05024853
v -0.00183302 -0.11525000 0.04645067
v -0.00203059 -0.10525000 0.04675115
v -0.00198428 -0.11191601 0.04667764
v -0.00234380 -0.10525000 0.04953022
v -0.00231507 -0.11191601 0.04961340
v -0.00219206 -0.11525000 0.04992742
v -0.00203059 -0.11525000 0.04675115
v -0.00221818 -0.10525000 0.04713222
v -0.00241171 -0.10525000 0.04927746
v -0.00234380 -0.11525000 0.04953022
v -0.00221818 -0.11525000 0.04713222
v -0.00234380 -0.10525000 0.04746945
v -0.00231507 -0.11191601 0.04738692
v -0.00246039 -0.10525000 0.04902019
v -0.00241171 -0.11525000 0.04927746
v -0.00234380 -0.11525000 0.04746945
v -0.00241171 -0.10525000 0.04772286
v -0.00248936 -0.10525000 0.04876034
v -0.00246039 -0.11525000 0.04902019
v -0.00241171 -0.11525000 0.04772286
v -0.00246039 -0.10525000 0.04798013
v -0.00249934 -0.10525000 0.04849984
v -0.00249293 -0.11191601 0.04867329
v -0.00248936 -0.11525000 0.04876034
v -0.00246039 -0.11525000 0.04798013
v -0.00248936 -0.10525000 0.04823934
v -0.00249293 -0.10858399 0.04832703
v -0.00249934 -0.11525000 0.04849984
v -0.00248936 -0.11525000 0.04823934
f 1 2 5
f 1 5 9
f 1 9 14
f 1 14 18
f 1 18 25
f 1 25 29
f 1 29 33
f 1 33 37
f 1 37 43
f 1 43 47
f 1 47 52
f 1 52 56
f 1 56 61
f 1 61 57
f 1 57 53
f 1 53 49
f 1 49 44
f 1 44 39
f 1 39 34
f 1 34 30
f 1 30 26
f 1 26 21
f 1 21 16
f 1 16 12
f 1 12 7
f 1 7 3
f 1 3 8
f 1 8 4
f 1 4 6
f 1 6 2
f 2 6 10
f 2 10 5
f 3 7 13
f 3 13 8
f 4 8 13
f 4 13 17
f 4 17 23
f 4 23 27
f 4 27 31
f 4 31 35
f 4 35 41
f 4 41 45
f 4 45 50
f 4 50 54
f 4 54 59
f 4 59 63
f 4 63 64
f 4 64 60
f 4 60 55
f 4 55 51
f 4 51 46
f 4 46 42
f 4 42 36
f 4 36 32
f 4 32 28
f 4 28 24
f 4 24 19
f 4 19 15
f 4 15 11
f 4 11 10
f 4 10 6
f 5 10 11
f 5 11 9
f 7 12 17
f 7 17 13
f 9 11 15
f 9 15 14
f 12 16 23
f 12 23 17
f 14 15 19
f 14 19 20
f 14 20 18
f 16 21 22
f 16 22 23
f 18 20 24
f 18 24 28
f 18 28 25
f 19 24 20
f 21 26 31
f 21 31 27
f 21 27 22
f 22 27 23
f 25 28 32
f 25 32 29
f 26 30 35
f 26 35 31
f 29 32 36
f 29 36 33
f 30 34 41
f 30 41 35
f 33 36 38
f 33 38 37
f 34 39 40
f 34 40 41
f 36 42 38
f 37 38 42
f 37 42 46
f 37 46 43
f 39 44 50
f 39 50 45
f 39 45 40
f 40 45 41
f 43 46 48
f 43 48 47
f 44 49 54
f 44 54 50
f 46 51 48
f 47 48 51
f 47 51 55
f 47 55 52
f 49 53 59
f 49 59 54
f 52 55 60
f 52 60 56
f 53 57 58
f 53 58 59
f 56 60 64
f 56 64 61
f 57 61 62
f 57 62 63
f 57 63 58
f 58 63 59
f 61 64 62
f 62 64 63

