# https://github.com/mikedh/trimesh
v -0.05111276 -0.03275000 0.14256859
v -0.05118127 -0.03275000 0.14257396
v -0.05111276 -0.02775000 0.14256859
v -0.05111276 -0.03275000 0.14712508
v -0.05118127 -0.02775000 0.14257396
v -0.05211404 -0.03275000 0.14273820
v -0.05111276 -0.02775000 0.14712508
v -0.05427966 -0.03275000 0.14941707
v -0.05211404 -0.02775000 0.14273820
v -0.05302542 -0.03275000 0.14299495
v -0.05427966 -0.02775000 0.14941707
v -0.05427966 -0.03275000 0.14353191
v -0.05302542 -0.02775000 0.14299495
v -0.05390705 -0.03275000 0.14334086
v -0.05427966 -0.02775000 0.14353191
v -0.05390705 -0.02775000 0.14334086
f 1 2 5
f 1 5 3
f 1 3 7
f 1 7 4
f 1 4 8
f 1 8 12
f 1 12 14
f 1 14 10
f 1 10 6
f 1 6 2
f 2 6 9
f 2 9 5
f 3 5 9
f 3 9 13
f 3 13 16
f 3 16 15
f 3 15 11
f 3 11 7
f 4 7 11
f 4 11 8
f 6 10 13
f 6 13 9
f 8 11 15
f 8 15 12
f 10 14 16
f 10 16 13
f 12 15 16
f 12 16 14

