# https://github.com/mikedh/trimesh
v -0.03772343 -0.10225000 0.16777555
v -0.03753019 -0.10225000 0.16763616
v -0.03772343 -0.10225000 0.16024091
v -0.03772343 -0.11275000 0.16777555
v -0.03703197 -0.10575069 0.16719678
v -0.03687101 -0.10225000 0.16705412
v -0.03753019 -0.11275000 0.16763616
v -0.03687101 -0.10225000 0.15944774
v -0.03772343 -0.10229933 0.16023928
v -0.03772343 -0.11275000 0.16024091
v -0.03687101 -0.11275000 0.16705412
v -0.03687101 -0.11275000 0.15944774
v -0.03772343 -0.11272533 0.16023928
f 1 2 6
f 1 6 8
f 1 8 3
f 1 3 9
f 1 9 13
f 1 13 10
f 1 10 4
f 1 4 7
f 1 7 2
f 2 5 6
f 2 7 5
f 3 8 9
f 4 10 12
f 4 12 11
f 4 11 7
f 5 7 11
f 5 11 6
f 6 11 12
f 6 12 8
f 8 12 13
f 8 13 9
f 10 13 12

