# https://github.com/mikedh/trimesh
v -0.05492894 -0.03273031 0.15279769
v -0.05618554 -0.03296343 0.15286652
v -0.05618554 -0.03275002 0.15286492
v -0.05611775 -0.03275002 0.15323731
v -0.05605624 -0.03275002 0.15354248
v -0.05484088 -0.03273031 0.15323411
v -0.05096137 -0.03273031 0.15279769
v -0.05096137 -0.03296343 0.15279769
v -0.05611914 -0.03296343 0.15323197
v -0.05605275 -0.03296343 0.15355475
v -0.05596469 -0.03275002 0.15384018
v -0.05469482 -0.03273031 0.15370733
v -0.04904712 -0.03273031 0.15280730
v -0.04904712 -0.03296343 0.15280730
v -0.05587244 -0.03296343 0.15413521
v -0.05587174 -0.03275002 0.15413788
v -0.05450123 -0.03273031 0.15416615
v -0.05563062 -0.03275002 0.15471194
v -0.04908906 -0.03273031 0.15690947
v -0.04904712 -0.03296343 0.15817070
v -0.05575363 -0.03296343 0.15442010
v -0.05563202 -0.03296343 0.15470980
v -0.05426291 -0.03273031 0.15460470
v -0.05533290 -0.03285671 0.15525932
v -0.05498136 -0.03275002 0.15577309
v -0.04938119 -0.03273031 0.15695055
v -0.04913588 -0.03275002 0.15818190
v -0.04953355 -0.03275002 0.15823205
v -0.04953075 -0.03296343 0.15823152
v -0.05498276 -0.03296343 0.15577096
v -0.05398195 -0.03273031 0.15501711
v -0.05458439 -0.03296343 0.15624632
v -0.05458090 -0.03275002 0.15625005
v -0.05366186 -0.03273031 0.15539857
v -0.04962860 -0.03273031 0.15698150
v -0.05015626 -0.03285671 0.15824806
v -0.05012411 -0.03273031 0.15699430
v -0.05077756 -0.03275002 0.15820111
v -0.05078036 -0.03296343 0.15820057
v -0.05413151 -0.03296343 0.15668807
v -0.05413501 -0.03275002 0.15668540
v -0.05330403 -0.03273031 0.15574588
v -0.05062101 -0.03273031 0.15695696
v -0.05086772 -0.03273031 0.15691374
v -0.05108507 -0.03275002 0.15814722
v -0.05138210 -0.03296343 0.15809441
v -0.05364998 -0.03296343 0.15707273
v -0.05364789 -0.03275002 0.15707433
v -0.05291545 -0.03273031 0.15605692
v -0.05310974 -0.03273031 0.15590167
v -0.05111303 -0.03273031 0.15686999
v -0.05139119 -0.03275002 0.15809281
v -0.05199293 -0.03296343 0.15792315
v -0.05311464 -0.03296343 0.15741738
v -0.05312442 -0.03275002 0.15741258
v -0.05249892 -0.03273031 0.15632581
v -0.05159177 -0.03273031 0.15673555
v -0.05169171 -0.03275002 0.15800851
v -0.05228157 -0.03275002 0.15781058
v -0.05257370 -0.03296343 0.15769480
v -0.05199083 -0.03275002 0.15792368
v -0.05257090 -0.03275002 0.15769587
v -0.05227667 -0.03273031 0.15644052
v -0.05205443 -0.03273031 0.15655415
f 1 2 3
f 1 3 4
f 1 4 5
f 1 5 6
f 1 6 12
f 1 12 17
f 1 17 23
f 1 23 31
f 1 31 34
f 1 34 42
f 1 42 50
f 1 50 49
f 1 49 56
f 1 56 63
f 1 63 64
f 1 64 57
f 1 57 51
f 1 51 44
f 1 44 43
f 1 43 37
f 1 37 35
f 1 35 26
f 1 26 19
f 1 19 13
f 1 13 7
f 1 7 8
f 1 8 2
f 2 9 3
f 2 8 14
f 2 14 20
f 2 20 29
f 2 29 39
f 2 39 46
f 2 46 53
f 2 53 60
f 2 60 54
f 2 54 47
f 2 47 40
f 2 40 32
f 2 32 30
f 2 30 22
f 2 22 21
f 2 21 15
f 2 15 10
f 2 10 9
f 3 9 4
f 4 9 5
f 5 9 10
f 5 10 11
f 5 11 6
f 6 11 12
f 7 13 14
f 7 14 8
f 10 15 11
f 11 15 16
f 11 16 12
f 12 16 18
f 12 18 17
f 13 19 20
f 13 20 14
f 15 21 16
f 16 21 22
f 16 22 18
f 17 18 23
f 18 22 24
f 18 24 25
f 18 25 23
f 19 26 27
f 19 27 20
f 20 27 28
f 20 28 29
f 22 30 24
f 23 25 31
f 24 30 25
f 25 30 32
f 25 32 33
f 25 33 34
f 25 34 31
f 26 28 27
f 26 35 28
f 28 36 29
f 28 35 37
f 28 37 38
f 28 38 36
f 29 36 39
f 32 40 41
f 32 41 33
f 33 41 34
f 34 41 42
f 36 38 39
f 37 43 38
f 38 43 44
f 38 44 45
f 38 45 39
f 39 45 46
f 40 47 41
f 41 47 48
f 41 48 49
f 41 49 50
f 41 50 42
f 44 51 52
f 44 52 45
f 45 52 46
f 46 52 53
f 47 54 55
f 47 55 48
f 48 55 49
f 49 55 56
f 51 57 58
f 51 58 52
f 52 58 53
f 53 59 60
f 53 58 61
f 53 61 59
f 54 60 55
f 55 60 62
f 55 62 63
f 55 63 56
f 57 61 58
f 57 64 59
f 57 59 61
f 59 64 62
f 59 62 60
f 62 64 63

