# https://github.com/mikedh/trimesh
v 0.07116440 -0.06697128 0.01603506
v 0.06986249 -0.06697128 0.01604219
v 0.06986249 -0.06662148 0.01604219
v 0.07116440 -0.06395844 0.01609211
v 0.07116453 -0.05816128 0.01629537
v 0.07116440 -0.06697128 0.05246433
v 0.06986249 -0.06697128 0.05246433
v 0.06986249 -0.06307955 0.01610994
v 0.07116440 -0.06307955 0.01610994
v 0.07116453 -0.05753902 0.01632390
v 0.07116453 -0.05816128 0.05246433
v 0.07116440 -0.06243796 0.01612421
v 0.07116440 -0.05913509 0.01625615
v 0.07097996 -0.05816128 0.01629537
v 0.06986249 -0.04901554 0.05246433
v 0.06986249 -0.06245730 0.01612421
v 0.06986249 -0.05756715 0.01632390
v 0.06986249 -0.05719801 0.01634886
v 0.07116453 -0.05406213 0.01657351
v 0.07116453 -0.04901554 0.05246433
v 0.06986249 -0.06210574 0.01613847
v 0.06986249 -0.05816128 0.01629894
v 0.06986249 -0.04901554 0.01712266
v 0.06986249 -0.05241685 0.01670188
v 0.07116453 -0.05238169 0.01669832
v 0.07116453 -0.04901554 0.01711196
v 0.07062332 -0.04901554 0.01711553
v 0.06986249 -0.05203189 0.01674824
f 1 2 3
f 1 3 4
f 1 4 5
f 1 5 11
f 1 11 6
f 1 6 7
f 1 7 2
f 2 7 15
f 2 15 23
f 2 23 28
f 2 28 24
f 2 24 18
f 2 18 17
f 2 17 22
f 2 22 21
f 2 21 16
f 2 16 8
f 2 8 3
f 3 8 4
f 4 8 9
f 4 9 5
f 5 10 19
f 5 19 25
f 5 25 26
f 5 26 20
f 5 20 11
f 5 9 12
f 5 12 13
f 5 13 14
f 5 14 10
f 6 11 20
f 6 20 15
f 6 15 7
f 8 16 12
f 8 12 9
f 10 14 17
f 10 17 18
f 10 18 19
f 12 16 13
f 13 16 14
f 14 16 21
f 14 21 22
f 14 22 17
f 15 20 26
f 15 26 27
f 15 27 23
f 18 24 19
f 19 24 25
f 23 27 28
f 24 28 25
f 25 28 26
f 26 28 27

