# https://github.com/mikedh/trimesh
v 0.09333624 -0.12114159 0.02862208
v 0.09333624 -0.12385068 0.02862208
v 0.09333624 -0.12184073 0.02963929
v 0.09707003 -0.12144855 0.02963770
v 0.09707222 -0.12136936 0.02862208
v 0.09333624 -0.12390010 0.02870104
v 0.09336733 -0.12385417 0.02862208
v 0.09333624 -0.12437717 0.02963929
v 0.09707222 -0.12146534 0.02963929
v 0.09707222 -0.12379588 0.02862277
v 0.09701114 -0.12380475 0.02862208
v 0.09336733 -0.12395015 0.02877551
v 0.09333624 -0.12395491 0.02878906
v 0.09368003 -0.12387825 0.02862208
v 0.09333624 -0.12432775 0.02951722
v 0.09336733 -0.12432237 0.02950218
v 0.09336733 -0.12437781 0.02963929
v 0.09707222 -0.12385132 0.02963929
v 0.09707222 -0.12383231 0.02884083
v 0.09568170 -0.12417570 0.02963929
v 0.09555735 -0.12419439 0.02963929
v 0.09544543 -0.12421118 0.02963929
v 0.09696945 -0.12381046 0.02862208
v 0.09518942 -0.12424793 0.02963929
v 0.09511810 -0.12425806 0.02963929
v 0.09436908 -0.12391056 0.02862208
v 0.09336733 -0.12414941 0.02913805
v 0.09333624 -0.12415479 0.02915229
v 0.09336733 -0.12423589 0.02932007
v 0.09499814 -0.12392164 0.02862208
v 0.09557271 -0.12391404 0.02862208
v 0.09380146 -0.12436640 0.02963929
v 0.09707222 -0.12386177 0.02944981
v 0.09693617 -0.12389060 0.02963929
v 0.09707222 -0.12383421 0.02885766
v 0.09591357 -0.12413262 0.02963929
v 0.09692885 -0.12381489 0.02862208
v 0.09502008 -0.12426883 0.02963929
v 0.09576582 -0.12390834 0.02862208
v 0.09382413 -0.12436577 0.02963929
v 0.09707222 -0.12386304 0.02942551
v 0.09677342 -0.12393748 0.02963929
v 0.09707222 -0.12383833 0.02889888
v 0.09605767 -0.12410474 0.02963929
v 0.09608583 -0.12400274 0.02901897
v 0.09666955 -0.12384308 0.02862208
v 0.09493231 -0.12427834 0.02963929
v 0.09585945 -0.12390549 0.02862208
v 0.09610083 -0.12389028 0.02862208
v 0.09437603 -0.12433092 0.02963929
v 0.09707222 -0.12386462 0.02939186
v 0.09667613 -0.12396441 0.02963929
v 0.09707222 -0.12385639 0.02909205
v 0.09619958 -0.12407718 0.02963929
v 0.09664907 -0.12384530 0.02862208
v 0.09450111 -0.12432237 0.02963929
v 0.09644023 -0.12386716 0.02862208
v 0.09658726 -0.12385195 0.02862208
v 0.09608583 -0.12392228 0.02871956
v 0.09707222 -0.12385987 0.02914990
v 0.09636270 -0.12403949 0.02963929
v 0.09707222 -0.12385892 0.02912471
v 0.09626980 -0.12406103 0.02963929
f 1 2 6
f 1 6 13
f 1 13 28
f 1 28 15
f 1 15 8
f 1 8 3
f 1 3 4
f 1 4 5
f 1 5 11
f 1 11 23
f 1 23 37
f 1 37 46
f 1 46 55
f 1 55 58
f 1 58 57
f 1 57 49
f 1 49 48
f 1 48 39
f 1 39 31
f 1 31 30
f 1 30 26
f 1 26 14
f 1 14 7
f 1 7 2
f 2 7 6
f 3 8 17
f 3 17 32
f 3 32 40
f 3 40 50
f 3 50 56
f 3 56 47
f 3 47 38
f 3 38 25
f 3 25 24
f 3 24 22
f 3 22 21
f 3 21 20
f 3 20 36
f 3 36 44
f 3 44 54
f 3 54 63
f 3 63 61
f 3 61 52
f 3 52 42
f 3 42 34
f 3 34 18
f 3 18 9
f 3 9 4
f 4 9 5
f 5 9 18
f 5 18 33
f 5 33 41
f 5 41 51
f 5 51 60
f 5 60 62
f 5 62 53
f 5 53 43
f 5 43 35
f 5 35 19
f 5 19 10
f 5 10 11
f 6 7 12
f 6 12 13
f 7 14 12
f 8 15 16
f 8 16 17
f 10 19 20
f 10 20 21
f 10 21 22
f 10 22 11
f 11 22 24
f 11 24 25
f 11 25 23
f 12 14 26
f 12 26 27
f 12 27 28
f 12 28 13
f 15 28 16
f 16 28 29
f 16 29 30
f 16 30 31
f 16 31 17
f 17 31 32
f 18 34 33
f 19 35 20
f 20 35 36
f 23 25 38
f 23 38 37
f 26 30 27
f 27 29 28
f 27 30 29
f 31 39 40
f 31 40 32
f 33 34 42
f 33 42 41
f 35 43 36
f 36 43 44
f 37 45 46
f 37 38 45
f 38 47 45
f 39 48 40
f 40 48 49
f 40 49 50
f 41 42 51
f 42 52 51
f 43 53 54
f 43 54 44
f 45 55 46
f 45 47 55
f 47 56 57
f 47 57 58
f 47 58 55
f 49 57 59
f 49 59 50
f 50 59 57
f 50 57 56
f 51 52 60
f 52 61 60
f 53 62 54
f 54 62 60
f 54 60 63
f 60 61 63

