# https://github.com/mikedh/trimesh
v 0.00081452 -0.02822991 0.05575833
v 0.00019825 -0.02822991 0.05580583
v 0.00070922 -0.02625011 0.05576172
v 0.00134942 -0.02625011 0.05576366
v 0.00163542 -0.02822991 0.05578984
v -0.00060829 -0.02822991 0.05596677
v -0.00016074 -0.02625011 0.05586352
v 0.00002593 -0.02623054 0.05710492
v 0.00106941 -0.02623054 0.05701331
v 0.00174431 -0.02623054 0.05706130
v 0.00216074 -0.02625011 0.05586352
v 0.00242281 -0.02822991 0.05591878
v -0.00084044 -0.02625011 0.05602833
v -0.00146867 -0.02822991 0.05626488
v -0.00068966 -0.02623054 0.05730754
v 0.00233545 -0.02623054 0.05719121
v 0.00284044 -0.02625011 0.05602833
v 0.00307378 -0.02822991 0.05610928
v -0.00149739 -0.02625011 0.05627603
v -0.00228598 -0.02822991 0.05668951
v -0.00137294 -0.02623054 0.05761002
v 0.00303908 -0.02623054 0.05744472
v 0.00349739 -0.02625011 0.05627603
v 0.00372236 -0.02822991 0.05637540
v -0.00227282 -0.02625011 0.05668078
v -0.00297644 -0.02822991 0.05718781
v -0.00181211 -0.02623054 0.05787274
v 0.00365415 -0.02623054 0.05777386
v 0.00427282 -0.02625011 0.05668078
v 0.00429077 -0.02822991 0.05669338
v -0.00307337 -0.02625011 0.05726634
v -0.00376742 -0.02822991 0.05796920
v -0.00361545 -0.02625011 0.05779664
v -0.00225606 -0.02623054 0.05821739
v 0.00425606 -0.02623054 0.05821739
v 0.00507337 -0.02625011 0.05726634
v 0.00511166 -0.02822991 0.05729930
v -0.00429035 -0.02822991 0.05868225
v -0.00405821 -0.02625011 0.05833809
v -0.00275147 -0.02623054 0.05870794
v 0.00494174 -0.02623054 0.05894400
v 0.00561545 -0.02625011 0.05779664
v 0.00576383 -0.02822991 0.05796436
v -0.00463379 -0.02822991 0.05929980
v -0.00449378 -0.02625011 0.05902932
v -0.00307098 -0.02623054 0.05911027
v 0.00538928 -0.02623054 0.05962457
v 0.00605821 -0.02625011 0.05833809
v 0.00627240 -0.02822991 0.05865268
v -0.00491261 -0.02822991 0.05999297
v -0.00489346 -0.02625011 0.05993674
v -0.00364895 -0.02623054 0.06017329
v -0.00338928 -0.02623054 0.05962457
v 0.00564895 -0.02623054 0.06017329
v 0.00649378 -0.02625011 0.05902932
v 0.00663379 -0.02822991 0.05929980
v -0.00511245 -0.02822991 0.06071038
v -0.00511245 -0.02625011 0.06071038
v -0.00380332 -0.02623054 0.06064300
v 0.00580332 -0.02623054 0.06064300
v 0.00689346 -0.02625011 0.05993674
v 0.00690303 -0.02822991 0.05996679
v 0.00711245 -0.02822991 0.06071038
v 0.00711245 -0.02625011 0.06071038
f 1 2 3
f 1 3 4
f 1 4 5
f 1 5 12
f 1 12 18
f 1 18 24
f 1 24 30
f 1 30 37
f 1 37 43
f 1 43 49
f 1 49 56
f 1 56 62
f 1 62 63
f 1 63 57
f 1 57 50
f 1 50 44
f 1 44 38
f 1 38 32
f 1 32 26
f 1 26 20
f 1 20 14
f 1 14 6
f 1 6 2
f 2 6 7
f 2 7 3
f 3 7 8
f 3 8 9
f 3 9 4
f 4 9 10
f 4 10 11
f 4 11 5
f 5 11 12
f 6 13 7
f 6 14 13
f 7 13 8
f 8 13 15
f 8 15 21
f 8 21 27
f 8 27 34
f 8 34 40
f 8 40 46
f 8 46 53
f 8 53 52
f 8 52 59
f 8 59 60
f 8 60 54
f 8 54 47
f 8 47 41
f 8 41 35
f 8 35 28
f 8 28 22
f 8 22 16
f 8 16 10
f 8 10 9
f 10 16 11
f 11 16 17
f 11 17 12
f 12 17 18
f 13 14 19
f 13 19 15
f 14 20 19
f 15 19 21
f 16 22 17
f 17 22 23
f 17 23 18
f 18 23 24
f 19 20 25
f 19 25 21
f 20 26 25
f 21 25 27
f 22 28 29
f 22 29 23
f 23 29 24
f 24 29 30
f 25 26 31
f 25 31 27
f 26 32 33
f 26 33 31
f 27 31 34
f 28 35 36
f 28 36 29
f 29 36 30
f 30 36 37
f 31 33 34
f 32 38 39
f 32 39 33
f 33 39 40
f 33 40 34
f 35 41 42
f 35 42 36
f 36 42 37
f 37 42 43
f 38 44 45
f 38 45 39
f 39 45 46
f 39 46 40
f 41 47 48
f 41 48 42
f 42 48 43
f 43 48 49
f 44 50 51
f 44 51 45
f 45 51 52
f 45 52 53
f 45 53 46
f 47 54 55
f 47 55 48
f 48 55 49
f 49 55 56
f 50 57 58
f 50 58 51
f 51 58 59
f 51 59 52
f 54 60 61
f 54 61 55
f 55 61 56
f 56 61 62
f 57 63 64
f 57 64 58
f 58 64 60
f 58 60 59
f 60 64 61
f 61 64 62
f 62 64 63

