# https://github.com/mikedh/trimesh
v 0.08660000 -0.05437602 0.04703291
v 0.08658629 -0.05437602 0.04703384
v 0.08660000 -0.05437647 0.04703291
v 0.08660000 -0.05437602 0.03759183
v 0.08262740 -0.05437602 0.04703384
v 0.08660000 -0.05592062 0.04661604
v 0.08660000 -0.05506130 0.03759183
v 0.08260000 -0.05437602 0.03759183
v 0.08260000 -0.05437602 0.04703291
v 0.08260000 -0.05437647 0.04703291
v 0.08260000 -0.05592062 0.04661604
v 0.08660000 -0.05592062 0.04214507
v 0.08260000 -0.05506130 0.03759183
v 0.08260000 -0.05592062 0.04214507
f 1 2 3
f 1 3 6
f 1 6 12
f 1 12 7
f 1 7 4
f 1 4 8
f 1 8 9
f 1 9 5
f 1 5 2
f 2 5 11
f 2 11 6
f 2 6 3
f 4 7 13
f 4 13 8
f 5 9 10
f 5 10 11
f 6 11 14
f 6 14 12
f 7 12 14
f 7 14 13
f 8 13 14
f 8 14 11
f 8 11 10
f 8 10 9

