# https://github.com/mikedh/trimesh
v -0.04400078 -0.10966067 0.02624719
v -0.04400078 -0.10964102 0.02664536
v -0.04400078 -0.10963749 0.02589730
v -0.04002965 -0.11094717 0.02658963
v -0.04002965 -0.11096128 0.02680987
v -0.04202643 -0.11030770 0.02668649
v -0.04400078 -0.10956997 0.02704651
v -0.04061618 -0.11075467 0.02715440
v -0.04136115 -0.11049566 0.02715470
v -0.04176347 -0.11035557 0.02715440
v -0.04252372 -0.11008396 0.02715440
v -0.04291362 -0.10994337 0.02715440
v -0.04400078 -0.10959063 0.02562162
v -0.04002965 -0.11091895 0.02636968
v -0.03912527 -0.11118904 0.02670348
v -0.03912527 -0.11120517 0.02694339
v -0.03916918 -0.11119257 0.02714993
v -0.04000721 -0.11096329 0.02709032
v -0.04326201 -0.10981588 0.02715440
v -0.04400078 -0.10707560 0.02715440
v -0.03943882 -0.11111799 0.02715440
v -0.03912527 -0.10880301 0.02715440
v -0.04400078 -0.10952311 0.02534981
v -0.04202643 -0.11019381 0.02573696
v -0.04136115 -0.11042158 0.02587465
v -0.04002965 -0.11087662 0.02614973
v -0.04136115 -0.11046794 0.02608714
v -0.03912527 -0.11114319 0.02639382
v -0.03912527 -0.10686395 0.02411000
v -0.04400078 -0.10605719 0.02411000
v -0.04400078 -0.10942736 0.02507622
v -0.04269266 -0.10990457 0.02540107
v -0.04002965 -0.11074913 0.02571073
v -0.04002965 -0.11081968 0.02593008
v -0.03912527 -0.11106458 0.02605734
v -0.03912527 -0.11000384 0.02418242
v -0.04045582 -0.10969746 0.02411000
v -0.04368199 -0.10897586 0.02411000
v -0.04400078 -0.10892093 0.02413533
v -0.04400078 -0.10930995 0.02480233
v -0.04002965 -0.11066447 0.02549257
v -0.04202643 -0.11009908 0.02542879
v -0.03912527 -0.11091391 0.02562668
v -0.03912527 -0.11099302 0.02583113
v -0.03912527 -0.11023261 0.02446376
v -0.04002965 -0.10982495 0.02415291
v -0.04083141 -0.10961683 0.02411000
v -0.04314222 -0.10909982 0.02411000
v -0.04136115 -0.10966974 0.02433263
v -0.04400078 -0.10906757 0.02435736
v -0.04202643 -0.10955939 0.02439194
v -0.04400078 -0.10918347 0.02455407
v -0.04002965 -0.11056570 0.02527441
v -0.03912527 -0.11080406 0.02537872
v -0.03912527 -0.11042259 0.02472424
v -0.04002965 -0.11008850 0.02449029
v -0.04202643 -0.10941124 0.02418719
v -0.04147331 -0.10947423 0.02411000
v -0.04271605 -0.10919758 0.02411000
v -0.04002965 -0.11029057 0.02478623
v -0.04002965 -0.11045283 0.02505714
v -0.03912527 -0.11070378 0.02518560
v -0.03912527 -0.11055512 0.02492988
v -0.04223451 -0.10930491 0.02411000
f 1 2 7
f 1 7 20
f 1 20 30
f 1 30 39
f 1 39 50
f 1 50 52
f 1 52 40
f 1 40 31
f 1 31 23
f 1 23 13
f 1 13 3
f 1 3 4
f 1 4 5
f 1 5 6
f 1 6 2
f 2 6 8
f 2 8 9
f 2 9 10
f 2 10 11
f 2 11 12
f 2 12 7
f 3 13 14
f 3 14 4
f 4 14 15
f 4 15 16
f 4 16 5
f 5 16 17
f 5 17 18
f 5 18 6
f 6 18 8
f 7 12 19
f 7 19 20
f 8 18 21
f 8 21 9
f 9 21 22
f 9 22 20
f 9 20 19
f 9 19 12
f 9 12 11
f 9 11 10
f 13 23 24
f 13 24 25
f 13 25 26
f 13 26 27
f 13 27 14
f 14 26 28
f 14 28 15
f 14 27 26
f 15 28 35
f 15 35 44
f 15 44 43
f 15 43 54
f 15 54 62
f 15 62 63
f 15 63 55
f 15 55 45
f 15 45 36
f 15 36 29
f 15 29 22
f 15 22 16
f 16 22 17
f 17 21 18
f 17 22 21
f 20 22 29
f 20 29 30
f 23 31 32
f 23 32 33
f 23 33 34
f 23 34 24
f 24 34 25
f 25 34 26
f 26 34 35
f 26 35 28
f 29 36 37
f 29 37 47
f 29 47 58
f 29 58 64
f 29 64 59
f 29 59 48
f 29 48 38
f 29 38 30
f 30 38 39
f 31 40 41
f 31 41 42
f 31 42 32
f 32 42 33
f 33 42 41
f 33 41 43
f 33 43 44
f 33 44 34
f 34 44 35
f 36 45 46
f 36 46 37
f 37 46 47
f 38 48 49
f 38 49 39
f 39 49 51
f 39 51 50
f 40 52 53
f 40 53 41
f 41 53 54
f 41 54 43
f 45 55 56
f 45 56 46
f 46 56 47
f 47 56 57
f 47 57 58
f 48 59 49
f 49 56 51
f 49 59 57
f 49 57 56
f 50 51 60
f 50 60 61
f 50 61 52
f 51 56 60
f 52 61 53
f 53 61 62
f 53 62 54
f 55 63 60
f 55 60 56
f 57 59 64
f 57 64 58
f 60 63 61
f 61 63 62

