# https://github.com/mikedh/trimesh
v -0.06125242 -0.03324713 0.14065382
v -0.06125242 -0.03223732 0.14065382
v -0.06017165 -0.03324990 0.14065382
v -0.06181824 -0.03324990 0.14121539
v -0.06181824 -0.03223732 0.14121539
v -0.05713219 -0.03223732 0.14065382
v -0.05713219 -0.03324990 0.14065382
v -0.06200549 -0.03223732 0.14144187
v -0.06283320 -0.03324990 0.14244505
v -0.05646731 -0.03223732 0.14217574
v -0.05646731 -0.03324990 0.14217574
v -0.06283320 -0.03223732 0.14244505
v -0.06339835 -0.03324990 0.14328907
v -0.05646731 -0.03223732 0.14328907
v -0.05646731 -0.03324990 0.14328907
v -0.06339835 -0.03223732 0.14328907
f 1 2 6
f 1 6 7
f 1 7 3
f 1 3 4
f 1 4 5
f 1 5 2
f 2 5 8
f 2 8 12
f 2 12 16
f 2 16 14
f 2 14 10
f 2 10 6
f 3 7 11
f 3 11 15
f 3 15 13
f 3 13 9
f 3 9 4
f 4 8 5
f 4 9 8
f 6 10 11
f 6 11 7
f 8 9 12
f 9 13 16
f 9 16 12
f 10 14 15
f 10 15 11
f 13 15 14
f 13 14 16

