# https://github.com/mikedh/trimesh
v 0.08550415 -0.05791694 0.04453136
v 0.08550415 -0.05784352 0.04436317
v 0.08520068 -0.05791694 0.04453136
v 0.08550415 -0.06431582 0.04453136
v 0.08550415 -0.05765855 0.04393933
v 0.08520068 -0.05744676 0.04345355
v 0.08520068 -0.06431582 0.04453136
v 0.08550415 -0.06431582 0.04409960
v 0.08550415 -0.05743970 0.04343692
v 0.08550415 -0.05738323 0.04330692
v 0.08520068 -0.05738323 0.04330692
v 0.08520068 -0.06431582 0.04409960
v 0.08550415 -0.06298084 0.04251008
v 0.08550415 -0.05736840 0.04326576
v 0.08520068 -0.05718485 0.04274199
v 0.08520068 -0.06298084 0.04251008
v 0.08550415 -0.05710437 0.04251008
v 0.08550415 -0.05721521 0.04282866
v 0.08550415 -0.05714743 0.04263494
v 0.08520068 -0.05710437 0.04251008
f 1 2 3
f 1 3 7
f 1 7 4
f 1 4 8
f 1 8 13
f 1 13 17
f 1 17 19
f 1 19 18
f 1 18 14
f 1 14 10
f 1 10 9
f 1 9 5
f 1 5 2
f 2 5 3
f 3 5 6
f 3 6 11
f 3 11 15
f 3 15 20
f 3 20 16
f 3 16 12
f 3 12 7
f 4 7 12
f 4 12 8
f 5 9 6
f 6 9 10
f 6 10 11
f 8 12 16
f 8 16 13
f 10 14 11
f 11 14 15
f 13 16 20
f 13 20 17
f 14 18 15
f 15 18 19
f 15 19 20
f 17 20 19

