# https://github.com/mikedh/trimesh
v -0.02746740 -0.04119328 0.03054950
v -0.03032992 -0.04119328 0.02908055
v -0.03583353 -0.04119328 0.03054950
v -0.03616739 -0.04440313 0.03054950
v -0.03616739 -0.04293411 0.02908055
v -0.03616739 -0.04119328 0.02908055
v -0.03587356 -0.04119328 0.03053195
v -0.03588974 -0.04121339 0.03054950
v -0.03616739 -0.04132369 0.03054950
v -0.03616739 -0.04119328 0.03039536
v -0.03603283 -0.04119328 0.03046179
v -0.03603283 -0.04124733 0.03052764
v -0.03591444 -0.04122250 0.03054950
v -0.03616739 -0.04130923 0.03053339
v -0.03603283 -0.04126712 0.03054950
v -0.03616739 -0.04126995 0.03048867
v -0.03613844 -0.04119328 0.03040988
v -0.03616739 -0.04128032 0.03050104
v -0.03616739 -0.04129132 0.03051341
v -0.03595447 -0.04123759 0.03054950
f 1 2 6
f 1 6 10
f 1 10 17
f 1 17 11
f 1 11 7
f 1 7 3
f 1 3 8
f 1 8 13
f 1 13 20
f 1 20 15
f 1 15 9
f 1 9 4
f 1 4 2
f 2 4 5
f 2 5 6
f 3 7 8
f 4 9 14
f 4 14 19
f 4 19 18
f 4 18 16
f 4 16 10
f 4 10 6
f 4 6 5
f 7 11 8
f 8 11 12
f 8 12 13
f 9 15 12
f 9 12 14
f 10 16 17
f 11 17 12
f 12 17 16
f 12 16 18
f 12 18 19
f 12 19 14
f 12 15 20
f 12 20 13

