# https://github.com/mikedh/trimesh
v -0.03671115 -0.10777967 0.14519259
v -0.03859001 -0.10777967 0.14682309
v -0.03671115 -0.10747632 0.14519259
v -0.03122097 -0.10777967 0.14519259
v -0.03859001 -0.10777967 0.14943322
v -0.03859001 -0.10747632 0.14682309
v -0.03122097 -0.10747632 0.14519259
v -0.03120041 -0.10777967 0.14524863
v -0.03859001 -0.10747632 0.14943322
v -0.03018694 -0.10777967 0.14943322
v -0.03088863 -0.10747632 0.14610498
v -0.03088863 -0.10777967 0.14610498
v -0.03018694 -0.10747632 0.14943322
v -0.03025604 -0.10777967 0.14896997
v -0.03042138 -0.10747632 0.14793970
v -0.03039671 -0.10777967 0.14803684
v -0.03032267 -0.10747632 0.14852748
v -0.03033172 -0.10747632 0.14846729
v -0.03039671 -0.10747632 0.14803684
f 1 2 6
f 1 6 3
f 1 3 7
f 1 7 4
f 1 4 8
f 1 8 12
f 1 12 16
f 1 16 14
f 1 14 10
f 1 10 5
f 1 5 2
f 2 5 9
f 2 9 6
f 3 6 9
f 3 9 13
f 3 13 17
f 3 17 18
f 3 18 19
f 3 19 15
f 3 15 11
f 3 11 7
f 4 7 8
f 5 10 13
f 5 13 9
f 7 11 8
f 8 11 12
f 10 14 13
f 11 15 12
f 12 15 16
f 13 14 17
f 14 16 18
f 14 18 17
f 15 19 16
f 16 19 18

