# https://github.com/mikedh/trimesh
v 0.10971752 -0.11450970 0.02328156
v 0.10971752 -0.11350689 0.02174046
v 0.10879287 -0.11350644 0.02174046
v 0.10856610 -0.11350915 0.02174046
v 0.10856610 -0.11571333 0.02328156
v 0.10971752 -0.11690435 0.02328156
v 0.10970884 -0.11673414 0.02190866
v 0.10969893 -0.11659275 0.02174317
v 0.10954846 -0.11666795 0.02174046
v 0.10971752 -0.11710563 0.02283775
v 0.10856610 -0.11706330 0.02174046
v 0.10856610 -0.11810663 0.02319029
v 0.10857771 -0.11810573 0.02326874
v 0.10871195 -0.11799361 0.02328156
v 0.10971752 -0.11701917 0.02327779
v 0.10957303 -0.11718353 0.02328156
v 0.10970028 -0.11664949 0.02180231
v 0.10970884 -0.11679583 0.02198665
v 0.10856610 -0.11770047 0.02233994
v 0.10926985 -0.11678907 0.02174046
v 0.10856610 -0.11760275 0.02222544
v 0.10856610 -0.11746316 0.02208108
v 0.10970028 -0.11712454 0.02275840
v 0.10970028 -0.11711644 0.02268117
v 0.10970028 -0.11709843 0.02258508
v 0.10970028 -0.11708357 0.02252700
v 0.10970028 -0.11705610 0.02244071
v 0.10970028 -0.11702683 0.02236378
v 0.10971752 -0.11709753 0.02297291
v 0.10970028 -0.11712544 0.02291257
v 0.10968315 -0.11714931 0.02285254
v 0.10895382 -0.11691876 0.02174046
v 0.10856610 -0.11724702 0.02188618
v 0.10856610 -0.11809177 0.02310868
v 0.10878386 -0.11793147 0.02328156
v 0.10967999 -0.11708087 0.02325456
v 0.10971752 -0.11704304 0.02321277
v 0.10940194 -0.11735689 0.02328156
v 0.10968315 -0.11711689 0.02312271
v 0.10970028 -0.11699171 0.02228699
v 0.10970028 -0.11694623 0.02220071
v 0.10970028 -0.11690615 0.02213358
v 0.10970028 -0.11686202 0.02206629
v 0.10856610 -0.11776756 0.02242608
v 0.10856610 -0.11739067 0.02201410
v 0.10856610 -0.11807331 0.02303190
v 0.10856610 -0.11804854 0.02295119
v 0.10856610 -0.11801477 0.02285842
v 0.10856610 -0.11797695 0.02277168
v 0.10971752 -0.11708582 0.02304985
v 0.10968315 -0.11712995 0.02306478
v 0.10968315 -0.11714345 0.02296839
v 0.10892722 -0.11780494 0.02328156
v 0.10886106 -0.11786347 0.02328156
v 0.10971752 -0.11706871 0.02312678
v 0.10933094 -0.11742624 0.02328156
v 0.10856610 -0.11793327 0.02268509
v 0.10856610 -0.11788374 0.02259865
v 0.10856610 -0.11782835 0.02251206
v 0.10926117 -0.11749423 0.02328156
v 0.10916954 -0.11758159 0.02328156
v 0.10910327 -0.11764418 0.02328156
v 0.10905706 -0.11768696 0.02328156
f 1 2 3
f 1 3 4
f 1 4 5
f 1 5 14
f 1 14 35
f 1 35 54
f 1 54 53
f 1 53 63
f 1 63 62
f 1 62 61
f 1 61 60
f 1 60 56
f 1 56 38
f 1 38 16
f 1 16 6
f 1 6 15
f 1 15 37
f 1 37 55
f 1 55 50
f 1 50 29
f 1 29 10
f 1 10 2
f 2 7 8
f 2 8 9
f 2 9 20
f 2 20 32
f 2 32 11
f 2 11 4
f 2 4 3
f 2 10 7
f 4 11 33
f 4 33 45
f 4 45 22
f 4 22 21
f 4 21 19
f 4 19 44
f 4 44 59
f 4 59 58
f 4 58 57
f 4 57 49
f 4 49 48
f 4 48 47
f 4 47 46
f 4 46 34
f 4 34 12
f 4 12 5
f 5 12 13
f 5 13 14
f 6 16 15
f 7 17 8
f 7 10 18
f 7 18 19
f 7 19 17
f 8 17 9
f 9 17 21
f 9 21 22
f 9 22 20
f 10 23 24
f 10 24 25
f 10 25 26
f 10 26 27
f 10 27 28
f 10 28 18
f 10 29 30
f 10 30 31
f 10 31 23
f 11 32 33
f 12 34 24
f 12 24 13
f 13 24 31
f 13 31 14
f 14 31 35
f 15 36 37
f 15 16 36
f 16 38 39
f 16 39 36
f 17 19 21
f 18 28 40
f 18 40 41
f 18 41 42
f 18 42 43
f 18 43 44
f 18 44 19
f 20 22 45
f 20 45 33
f 20 33 32
f 23 31 24
f 24 34 25
f 25 34 46
f 25 46 26
f 26 46 47
f 26 47 27
f 27 47 48
f 27 48 28
f 28 48 49
f 28 49 40
f 29 50 51
f 29 51 52
f 29 52 30
f 30 52 31
f 31 52 53
f 31 53 54
f 31 54 35
f 36 39 37
f 37 39 55
f 38 51 39
f 38 56 51
f 39 51 55
f 40 49 57
f 40 57 41
f 41 57 58
f 41 58 42
f 42 58 59
f 42 59 43
f 43 59 44
f 50 55 51
f 51 56 60
f 51 60 61
f 51 61 62
f 51 62 52
f 52 62 63
f 52 63 53

