# https://github.com/mikedh/trimesh
v 0.08434955 -0.06560848 0.01605669
v 0.08323813 -0.06560848 0.01605981
v 0.08323813 -0.06530336 0.01606292
v 0.08434955 -0.06233446 0.01611594
v 0.08434955 -0.06560848 0.04791826
v 0.08323813 -0.06560848 0.04791826
v 0.08323813 -0.06233245 0.01611906
v 0.08323813 -0.05972488 0.01621574
v 0.08434955 -0.05748666 0.01629995
v 0.08434955 -0.04510118 0.04791826
v 0.08323813 -0.04510118 0.04791826
v 0.08323813 -0.05739633 0.01630619
v 0.08434955 -0.05435917 0.01651515
v 0.08434955 -0.04510118 0.01761920
v 0.08323813 -0.04510118 0.01762856
v 0.08323813 -0.05460407 0.01649955
v 0.08389976 -0.05436118 0.01651515
v 0.08434955 -0.05220326 0.01666485
v 0.08434955 -0.04678536 0.01729797
v 0.08323813 -0.04678135 0.01730732
v 0.08358434 -0.04510118 0.01762544
v 0.08323813 -0.05219924 0.01667109
v 0.08323813 -0.05020391 0.01690188
f 1 2 3
f 1 3 4
f 1 4 9
f 1 9 13
f 1 13 18
f 1 18 19
f 1 19 14
f 1 14 10
f 1 10 5
f 1 5 6
f 1 6 2
f 2 6 11
f 2 11 15
f 2 15 20
f 2 20 23
f 2 23 22
f 2 22 16
f 2 16 12
f 2 12 8
f 2 8 7
f 2 7 3
f 3 7 4
f 4 7 8
f 4 8 9
f 5 10 11
f 5 11 6
f 8 12 9
f 9 12 13
f 10 14 21
f 10 21 15
f 10 15 11
f 12 16 17
f 12 17 13
f 13 17 18
f 14 19 20
f 14 20 21
f 15 21 20
f 16 22 18
f 16 18 17
f 18 22 23
f 18 23 19
f 19 23 20

