# https://github.com/mikedh/trimesh
v 0.08360000 -0.07153964 0.01650411
v 0.08360000 -0.07010454 0.01689029
v 0.08380264 -0.07020008 0.01686357
v 0.08380264 -0.07076024 0.01671299
v 0.08429120 -0.07153964 0.01650411
v 0.08360000 -0.07153964 0.04131706
v 0.08360000 -0.06939856 0.01713560
v 0.08380264 -0.06996174 0.01693887
v 0.08380264 -0.07010354 0.01689029
v 0.08429120 -0.07010354 0.01689029
v 0.08429120 -0.07153964 0.03608050
v 0.08380264 -0.07153964 0.04131706
v 0.08360000 -0.06126569 0.04131706
v 0.08360000 -0.06869258 0.01738335
v 0.08380264 -0.06869258 0.01738335
v 0.08429120 -0.06893595 0.01729834
v 0.08429120 -0.06138537 0.03608050
v 0.08380264 -0.06126569 0.04131706
v 0.08360000 -0.06126569 0.02248389
v 0.08360000 -0.06732185 0.01798084
v 0.08380264 -0.06865839 0.01739792
v 0.08429120 -0.06869258 0.01738577
v 0.08429120 -0.06138537 0.02235274
v 0.08380264 -0.06126569 0.02248389
v 0.08380264 -0.06128983 0.02245475
v 0.08380264 -0.06131497 0.02242560
v 0.08360000 -0.06133911 0.02239888
v 0.08380264 -0.06732185 0.01798084
v 0.08360000 -0.06600040 0.01868034
v 0.08429120 -0.06846530 0.01748293
v 0.08429120 -0.06239708 0.02133991
v 0.08380264 -0.06144672 0.02228959
v 0.08380264 -0.06133911 0.02239888
v 0.08360000 -0.06239708 0.02133991
v 0.08429120 -0.06732185 0.01798327
v 0.08429120 -0.06734196 0.01797355
v 0.08380264 -0.06600040 0.01868034
v 0.08429120 -0.06612510 0.01861476
v 0.08429120 -0.06692360 0.01819215
v 0.08380264 -0.06596822 0.01869977
v 0.08360000 -0.06536682 0.01907867
v 0.08380264 -0.06230355 0.02143221
v 0.08429120 -0.06344096 0.02044125
v 0.08380264 -0.06353047 0.02036352
v 0.08380264 -0.06247250 0.02127434
v 0.08360000 -0.06353047 0.02036352
v 0.08429120 -0.06601045 0.01867548
v 0.08380264 -0.06479862 0.01943571
v 0.08429120 -0.06495349 0.01933856
v 0.08429120 -0.06540906 0.01905195
v 0.08429120 -0.06589178 0.01874835
v 0.08360000 -0.06473426 0.01947700
v 0.08429120 -0.06353147 0.02036595
v 0.08429120 -0.06354958 0.02035138
v 0.08429120 -0.06453513 0.01962273
v 0.08380264 -0.06456832 0.01959844
v 0.08429120 -0.06473426 0.01947700
v 0.08380264 -0.06467392 0.01952072
f 1 2 3
f 1 3 4
f 1 4 5
f 1 5 11
f 1 11 12
f 1 12 6
f 1 6 13
f 1 13 19
f 1 19 27
f 1 27 34
f 1 34 46
f 1 46 52
f 1 52 41
f 1 41 29
f 1 29 20
f 1 20 14
f 1 14 7
f 1 7 2
f 2 7 8
f 2 8 9
f 2 9 3
f 3 5 4
f 3 9 10
f 3 10 5
f 5 10 16
f 5 16 22
f 5 22 30
f 5 30 36
f 5 36 35
f 5 35 39
f 5 39 38
f 5 38 47
f 5 47 51
f 5 51 50
f 5 50 49
f 5 49 57
f 5 57 55
f 5 55 54
f 5 54 53
f 5 53 43
f 5 43 31
f 5 31 23
f 5 23 17
f 5 17 11
f 6 12 18
f 6 18 13
f 7 14 15
f 7 15 16
f 7 16 8
f 8 10 9
f 8 16 10
f 11 17 18
f 11 18 12
f 13 18 24
f 13 24 19
f 14 20 21
f 14 21 15
f 15 21 22
f 15 22 16
f 17 23 24
f 17 24 18
f 19 24 25
f 19 25 26
f 19 26 27
f 20 28 21
f 20 29 37
f 20 37 28
f 21 28 30
f 21 30 22
f 23 31 32
f 23 32 33
f 23 33 26
f 23 26 25
f 23 25 24
f 26 33 27
f 27 32 34
f 27 33 32
f 28 35 36
f 28 36 30
f 28 37 38
f 28 38 39
f 28 39 35
f 29 40 37
f 29 41 40
f 31 34 42
f 31 42 32
f 31 43 44
f 31 44 45
f 31 45 34
f 32 42 34
f 34 45 46
f 37 40 47
f 37 47 38
f 40 41 48
f 40 48 49
f 40 49 50
f 40 50 51
f 40 51 47
f 41 52 48
f 43 53 44
f 44 46 45
f 44 53 54
f 44 54 55
f 44 55 46
f 46 55 56
f 46 56 52
f 48 52 57
f 48 57 49
f 52 56 58
f 52 58 57
f 55 57 58
f 55 58 56

