# https://github.com/mikedh/trimesh
v -0.07034795 -0.10625000 0.14680943
v -0.07034795 -0.11175000 0.14680943
v -0.07697591 -0.10625000 0.14680943
v -0.07069414 -0.10625000 0.15548361
v -0.07697591 -0.11175000 0.14680943
v -0.07069414 -0.11175000 0.15548361
v -0.07714971 -0.10625000 0.14762794
v -0.07726348 -0.10625000 0.15548361
v -0.07714971 -0.11175000 0.14762794
v -0.07726348 -0.11175000 0.15548361
v -0.07725021 -0.10808369 0.14853560
v -0.07744983 -0.10625000 0.15035008
v -0.07747775 -0.10625000 0.15308836
v -0.07739678 -0.10991631 0.15399772
v -0.07744983 -0.11175000 0.15035008
v -0.07747775 -0.11175000 0.15308836
v -0.07745960 -0.10991631 0.15126284
v -0.07746379 -0.10625000 0.15171880
v -0.07746379 -0.11175000 0.15171880
f 1 2 5
f 1 5 3
f 1 3 7
f 1 7 12
f 1 12 18
f 1 18 13
f 1 13 8
f 1 8 4
f 1 4 6
f 1 6 2
f 2 6 10
f 2 10 16
f 2 16 19
f 2 19 15
f 2 15 9
f 2 9 5
f 3 5 9
f 3 9 7
f 4 8 10
f 4 10 6
f 7 11 12
f 7 9 11
f 8 13 14
f 8 14 10
f 9 15 11
f 10 14 16
f 11 15 12
f 12 15 17
f 12 17 18
f 13 16 14
f 13 18 17
f 13 17 16
f 15 19 17
f 16 17 19

