# https://github.com/mikedh/trimesh
v -0.02799641 -0.10125000 0.28000068
v -0.02799641 -0.10525000 0.28000068
v -0.02804294 -0.10131891 0.27805761
v -0.02804480 -0.10125000 0.27805761
v -0.03274954 -0.10125000 0.28000068
v -0.02804480 -0.10525000 0.27805761
v -0.02804294 -0.10521554 0.27805761
v -0.03274954 -0.10525000 0.28000068
v -0.03274954 -0.10125000 0.27805761
v -0.03274954 -0.10525000 0.27805761
f 1 2 7
f 1 7 3
f 1 3 4
f 1 4 9
f 1 9 5
f 1 5 8
f 1 8 2
f 2 6 7
f 2 8 10
f 2 10 6
f 3 7 6
f 3 6 10
f 3 10 9
f 3 9 4
f 5 9 10
f 5 10 8

