# https://github.com/mikedh/trimesh
v -0.06793160 -0.03425054 0.17281677
v -0.06842450 -0.03425054 0.17241596
v -0.06793160 -0.03974946 0.17281677
v -0.06793160 -0.03425054 0.15719110
v -0.06842450 -0.03974946 0.17241596
v -0.06939350 -0.03425054 0.17144911
v -0.06971739 -0.03608369 0.17112631
v -0.06793160 -0.03974946 0.15719110
v -0.07697117 -0.03425054 0.15719110
v -0.06939350 -0.03974946 0.17144911
v -0.07036339 -0.03425054 0.17048072
v -0.07036339 -0.03974946 0.17048072
v -0.07697117 -0.03974946 0.15719110
v -0.07671897 -0.03425054 0.15850675
v -0.07123239 -0.03425054 0.16942361
v -0.07123239 -0.03974946 0.16942361
v -0.07671897 -0.03974946 0.15850675
v -0.07593934 -0.03425054 0.16113194
v -0.07210139 -0.03425054 0.16836497
v -0.07210139 -0.03974946 0.16836497
v -0.07593934 -0.03974946 0.16113194
v -0.07524821 -0.03608369 0.16282240
v -0.07542077 -0.03425054 0.16240017
v -0.07361817 -0.03425054 0.16608552
v -0.07361817 -0.03974946 0.16608552
v -0.07542077 -0.03974946 0.16240017
v -0.07490220 -0.03974946 0.16366687
v -0.07490220 -0.03425054 0.16366687
v -0.07426063 -0.03425054 0.16487696
v -0.07426063 -0.03974946 0.16487696
f 1 2 5
f 1 5 3
f 1 3 8
f 1 8 4
f 1 4 9
f 1 9 14
f 1 14 18
f 1 18 23
f 1 23 28
f 1 28 29
f 1 29 24
f 1 24 19
f 1 19 15
f 1 15 11
f 1 11 6
f 1 6 2
f 2 6 7
f 2 7 5
f 3 5 10
f 3 10 12
f 3 12 16
f 3 16 20
f 3 20 25
f 3 25 30
f 3 30 27
f 3 27 26
f 3 26 21
f 3 21 17
f 3 17 13
f 3 13 8
f 4 8 13
f 4 13 9
f 5 7 10
f 6 11 7
f 7 11 12
f 7 12 10
f 9 13 17
f 9 17 14
f 11 15 16
f 11 16 12
f 14 17 21
f 14 21 18
f 15 19 20
f 15 20 16
f 18 21 22
f 18 22 23
f 19 24 25
f 19 25 20
f 21 26 22
f 22 27 28
f 22 28 23
f 22 26 27
f 24 29 30
f 24 30 25
f 27 30 29
f 27 29 28

