# https://github.com/mikedh/trimesh
v 0.03474887 -0.05200053 0.03377110
v 0.02925000 -0.05200053 0.03377110
v 0.03474887 -0.05662892 0.03377110
v 0.03474887 -0.05200053 0.01154506
v 0.02925000 -0.05687705 0.03377110
v 0.02925000 -0.05200053 0.02374806
v 0.03424017 -0.05687705 0.03377110
v 0.03424071 -0.05739337 0.03171515
v 0.03474887 -0.05662892 0.01650546
v 0.03474887 -0.05641881 0.01154506
v 0.02925646 -0.05200053 0.01154506
v 0.02925000 -0.05739337 0.03171515
v 0.02925000 -0.05200264 0.01154506
v 0.03424071 -0.05739337 0.01650110
v 0.03351990 -0.05739337 0.01154506
v 0.02925000 -0.05739337 0.01154506
f 1 2 5
f 1 5 7
f 1 7 3
f 1 3 9
f 1 9 10
f 1 10 4
f 1 4 11
f 1 11 6
f 1 6 2
f 2 6 13
f 2 13 16
f 2 16 12
f 2 12 5
f 3 7 8
f 3 8 14
f 3 14 9
f 4 10 15
f 4 15 16
f 4 16 13
f 4 13 11
f 5 12 8
f 5 8 7
f 6 11 13
f 8 12 16
f 8 16 15
f 8 15 14
f 9 14 10
f 10 14 15

