# https://github.com/mikedh/trimesh
v -0.00642595 -0.11815278 0.04343482
v -0.00705870 -0.11815278 0.04371076
v -0.00642595 -0.11601036 0.04343482
v -0.00630723 -0.11601036 0.04338338
v -0.00630695 -0.11815250 0.04338338
v -0.00620207 -0.11815250 0.04334659
v -0.00642595 -0.11815278 0.04703294
v -0.00732229 -0.11815278 0.04382602
v -0.00734271 -0.11734554 0.04383465
v -0.00708709 -0.11580805 0.04372315
v -0.00630695 -0.11525000 0.04338338
v -0.00630723 -0.11580805 0.04338338
v -0.00620221 -0.11601036 0.04334659
v -0.00620207 -0.11525000 0.04334659
v -0.00620207 -0.11815250 0.04718198
v -0.00763049 -0.11815278 0.04706448
v -0.00763049 -0.11815278 0.04396080
v -0.00763063 -0.11601036 0.04396080
v -0.00763063 -0.11525000 0.04396080
v -0.00732229 -0.11525000 0.04382602
v -0.00620221 -0.11580805 0.04334659
v -0.00620207 -0.11525000 0.04718198
v -0.00620221 -0.11601036 0.04718198
v -0.00763063 -0.11601036 0.04706448
v -0.00763063 -0.11525000 0.04706448
v -0.00620221 -0.11580805 0.04718198
f 1 2 3
f 1 3 12
f 1 12 4
f 1 4 5
f 1 5 6
f 1 6 15
f 1 15 7
f 1 7 16
f 1 16 17
f 1 17 8
f 1 8 2
f 2 8 9
f 2 9 10
f 2 10 3
f 3 11 12
f 3 10 11
f 4 12 21
f 4 21 13
f 4 13 6
f 4 6 5
f 6 13 21
f 6 21 14
f 6 14 22
f 6 22 15
f 7 15 16
f 8 17 9
f 9 17 18
f 9 18 19
f 9 19 20
f 9 20 10
f 10 20 11
f 11 14 12
f 11 20 19
f 11 19 25
f 11 25 22
f 11 22 14
f 12 14 21
f 15 22 26
f 15 26 23
f 15 23 16
f 16 23 24
f 16 24 18
f 16 18 17
f 18 24 25
f 18 25 19
f 22 25 26
f 23 26 25
f 23 25 24

