# https://github.com/mikedh/trimesh
v -0.01212601 -0.09820105 0.20071921
v -0.00876617 -0.09825147 0.20666342
v -0.01212805 -0.09820105 0.20071544
v -0.01571134 -0.09820105 0.20274751
v -0.01839778 -0.09825147 0.20666342
v -0.00876515 -0.10332353 0.20666342
v -0.01918852 -0.09820105 0.20471035
v -0.01311060 -0.09820105 0.19897755
v -0.01839881 -0.10028361 0.20666342
v -0.01918852 -0.09825147 0.20479837
v -0.01918852 -0.09827984 0.20479913
v -0.00876515 -0.10625000 0.20666342
v -0.01918852 -0.09820105 0.20241422
v -0.01311060 -0.10625000 0.19897755
v -0.01842227 -0.09820105 0.20198087
v -0.01839881 -0.10625000 0.20666342
v -0.01918852 -0.10625000 0.20480063
v -0.01918852 -0.10625000 0.20241422
v -0.01842227 -0.10625000 0.20198087
f 1 2 3
f 1 3 8
f 1 8 15
f 1 15 13
f 1 13 7
f 1 7 4
f 1 4 2
f 2 5 9
f 2 9 16
f 2 16 12
f 2 12 6
f 2 6 3
f 2 4 7
f 2 7 5
f 3 6 8
f 5 7 10
f 5 10 11
f 5 11 9
f 6 12 14
f 6 14 8
f 7 13 18
f 7 18 17
f 7 17 11
f 7 11 10
f 8 14 19
f 8 19 15
f 9 11 17
f 9 17 16
f 12 16 17
f 12 17 18
f 12 18 19
f 12 19 14
f 13 15 19
f 13 19 18

