# https://github.com/mikedh/trimesh
v -0.11963951 0.03875006 0.21581282
v -0.11980629 0.03875006 0.21603768
v -0.11911885 0.04269784 0.21638188
v -0.11774650 0.03875006 0.21735741
v -0.12415531 0.03875006 0.22221254
v -0.11911885 0.04433003 0.21703569
v -0.11817149 0.04924509 0.21788841
v -0.11731219 0.04212704 0.21785727
v -0.12415531 0.03923293 0.22237859
v -0.12415531 0.04127547 0.22313445
v -0.12415531 0.04329796 0.22393182
v -0.11783708 0.03875006 0.21753383
v -0.11552077 0.05440235 0.22127507
v -0.11550722 0.05451034 0.22132350
v -0.12415531 0.03875006 0.22616134
v -0.11911885 0.04594987 0.21771371
v -0.12415531 0.04530039 0.22476378
v -0.11911885 0.04755428 0.21841422
v -0.11911885 0.04914481 0.21914068
v -0.11817149 0.05074922 0.21860276
v -0.11737822 0.05451034 0.21960596
v -0.11734182 0.05451034 0.21957136
v -0.11640970 0.04856321 0.21937245
v -0.11874295 0.03875006 0.21901960
v -0.11575528 0.05451034 0.22107270
v -0.11971232 0.03875006 0.22055207
v -0.11951252 0.03875006 0.22023728
v -0.11975719 0.05451034 0.22761771
v -0.12415531 0.05450725 0.23348123
v -0.12158670 0.03875006 0.22301510
v -0.12415531 0.04727814 0.22563553
v -0.11911885 0.05072146 0.21988962
v -0.12415531 0.04923429 0.22654532
v -0.11817149 0.05224102 0.21933613
v -0.11817149 0.05371893 0.22009199
v -0.11817149 0.05451034 0.22051057
v -0.12070623 0.05451034 0.22897895
v -0.12057755 0.03875006 0.22176283
v -0.12415362 0.05451034 0.23347951
v -0.12415531 0.05451034 0.23284818
v -0.12081121 0.03875006 0.22206206
v -0.11911885 0.05228267 0.22066104
v -0.12415531 0.05116575 0.22749317
v -0.11911885 0.05382846 0.22145668
v -0.11911885 0.05451034 0.22181991
v -0.12415531 0.05451034 0.22925569
v -0.12415531 0.05307254 0.22847562
f 1 2 3
f 1 3 4
f 1 4 12
f 1 12 24
f 1 24 27
f 1 27 26
f 1 26 38
f 1 38 41
f 1 41 30
f 1 30 15
f 1 15 5
f 1 5 2
f 2 5 3
f 3 6 7
f 3 7 8
f 3 8 4
f 3 5 9
f 3 9 10
f 3 10 11
f 3 11 6
f 4 8 13
f 4 13 14
f 4 14 12
f 5 15 29
f 5 29 40
f 5 40 46
f 5 46 47
f 5 47 43
f 5 43 33
f 5 33 31
f 5 31 17
f 5 17 11
f 5 11 10
f 5 10 9
f 6 16 7
f 6 11 17
f 6 17 16
f 7 16 18
f 7 18 19
f 7 19 20
f 7 20 21
f 7 21 22
f 7 22 23
f 7 23 8
f 8 23 13
f 12 14 24
f 13 25 14
f 13 23 25
f 14 26 27
f 14 27 24
f 14 25 22
f 14 22 21
f 14 21 36
f 14 36 45
f 14 45 46
f 14 46 40
f 14 40 39
f 14 39 37
f 14 37 28
f 14 28 26
f 15 30 29
f 16 17 18
f 17 31 18
f 18 31 19
f 19 32 20
f 19 31 33
f 19 33 32
f 20 32 34
f 20 34 21
f 21 34 35
f 21 35 36
f 22 25 23
f 26 28 37
f 26 37 38
f 29 37 39
f 29 39 40
f 29 30 41
f 29 41 38
f 29 38 37
f 32 42 34
f 32 33 43
f 32 43 42
f 34 42 35
f 35 42 44
f 35 44 36
f 36 44 45
f 42 43 44
f 43 47 44
f 44 47 45
f 45 47 46

