# https://github.com/mikedh/trimesh
v 0.06728612 0.09853081 0.25496354
v 0.06562213 0.09963519 0.25496354
v 0.06728612 0.10177899 0.25496354
v 0.06728612 0.10399534 0.26529283
v 0.06312879 0.10660316 0.26529283
v 0.06312879 0.10130231 0.25496354
v 0.06466419 0.10351866 0.25496354
v 0.06539709 0.10315841 0.25515769
v 0.06728612 0.10215105 0.25559048
v 0.06728612 0.10672381 0.26455365
v 0.06703951 0.10708069 0.26500059
v 0.06312879 0.10714987 0.26529283
v 0.06312879 0.10547769 0.25689289
v 0.06317478 0.10418348 0.25496557
v 0.06396547 0.10392616 0.25496354
v 0.06406761 0.10428304 0.25571485
v 0.06422225 0.10479178 0.25680188
v 0.06467314 0.10441803 0.25660470
v 0.06515944 0.10413623 0.25661785
v 0.06528885 0.10375489 0.25606675
v 0.06504753 0.10354144 0.25542666
v 0.06728612 0.10259230 0.25635493
v 0.06728612 0.10643189 0.26391255
v 0.06641567 0.10714987 0.26425939
v 0.06312879 0.10714987 0.26016003
v 0.06312879 0.10589616 0.25767150
v 0.06361102 0.10531402 0.25710928
v 0.06329320 0.10498751 0.25617393
v 0.06433050 0.10506766 0.25743286
v 0.06447700 0.10541357 0.25824788
v 0.06566364 0.10466438 0.25819833
v 0.06593019 0.10411092 0.25746118
v 0.06578491 0.10380129 0.25671997
v 0.06675913 0.10336848 0.25710625
v 0.06728612 0.10309091 0.25723871
v 0.06728612 0.10599909 0.26296406
v 0.06716526 0.10582866 0.26242509
v 0.06589885 0.10714987 0.26354145
v 0.06409284 0.10714987 0.26121976
v 0.06322605 0.10621338 0.25837023
v 0.06403221 0.10612817 0.25912154
v 0.06474151 0.10605814 0.25980207
v 0.06616499 0.10421892 0.25794149
v 0.06594728 0.10517481 0.25952906
v 0.06617598 0.10475466 0.25898908
v 0.06653816 0.10421048 0.25837731
v 0.06728612 0.10360725 0.25819227
v 0.06727595 0.10548950 0.26187096
v 0.06728612 0.10417673 0.25926614
v 0.06677134 0.10584891 0.26193770
v 0.06505852 0.10714987 0.26242409
v 0.06608767 0.10590797 0.26116516
v 0.06437404 0.10667488 0.26059889
v 0.06384420 0.10663100 0.25990016
v 0.06541418 0.10598305 0.26048260
v 0.06613976 0.10551397 0.26044317
v 0.06666879 0.10473187 0.25955231
v 0.06715305 0.10458339 0.25987690
v 0.06722426 0.10512503 0.26104887
v 0.06684540 0.10550975 0.26133908
v 0.06696219 0.10497232 0.26040070
f 1 2 6
f 1 6 15
f 1 15 7
f 1 7 3
f 1 3 9
f 1 9 22
f 1 22 35
f 1 35 47
f 1 47 49
f 1 49 36
f 1 36 23
f 1 23 10
f 1 10 4
f 1 4 5
f 1 5 2
f 2 5 6
f 3 7 8
f 3 8 9
f 4 10 11
f 4 11 12
f 4 12 5
f 5 12 25
f 5 25 26
f 5 26 13
f 5 13 6
f 6 13 14
f 6 14 15
f 7 15 16
f 7 16 17
f 7 17 18
f 7 18 19
f 7 19 20
f 7 20 21
f 7 21 8
f 8 21 20
f 8 20 22
f 8 22 9
f 10 23 24
f 10 24 11
f 11 24 12
f 12 24 38
f 12 38 51
f 12 51 39
f 12 39 25
f 13 26 27
f 13 27 17
f 13 17 28
f 13 28 14
f 14 28 15
f 15 28 16
f 16 28 17
f 17 27 29
f 17 29 18
f 18 29 19
f 19 29 30
f 19 30 31
f 19 31 32
f 19 32 33
f 19 33 20
f 20 33 22
f 22 33 34
f 22 34 35
f 23 36 24
f 24 36 37
f 24 37 38
f 25 39 40
f 25 40 26
f 26 40 29
f 26 29 27
f 29 40 30
f 30 40 41
f 30 41 42
f 30 42 31
f 31 43 32
f 31 42 44
f 31 44 45
f 31 45 43
f 32 43 33
f 33 43 34
f 34 43 46
f 34 46 35
f 35 46 47
f 36 48 37
f 36 49 48
f 37 48 50
f 37 50 38
f 38 50 51
f 39 52 53
f 39 53 54
f 39 54 40
f 39 51 52
f 40 54 41
f 41 54 53
f 41 53 42
f 42 53 55
f 42 55 44
f 43 45 46
f 44 55 56
f 44 56 57
f 44 57 45
f 45 57 46
f 46 57 58
f 46 58 49
f 46 49 47
f 48 49 59
f 48 59 50
f 49 58 59
f 50 59 60
f 50 60 52
f 50 52 51
f 52 59 61
f 52 61 56
f 52 56 55
f 52 55 53
f 52 60 59
f 56 61 57
f 57 61 58
f 58 61 59

