# https://github.com/mikedh/trimesh
v 0.13520044 0.03102496 0.30325331
v 0.13193536 0.03852942 0.30325331
v 0.13791344 0.03102496 0.30325331
v 0.13560979 0.03102496 0.31784182
v 0.13193536 0.03977970 0.31594829
v 0.13193536 0.04394732 0.30325331
v 0.13759701 0.03182135 0.30325331
v 0.13794563 0.03102496 0.30357890
v 0.13813938 0.03102496 0.31784182
v 0.13193536 0.03996676 0.31784182
v 0.13216372 0.04350718 0.30325331
v 0.13193536 0.04507519 0.31784182
v 0.13489859 0.03815942 0.30325331
v 0.13753142 0.03260810 0.31189846
v 0.13812480 0.03102496 0.30932234
v 0.13813938 0.03102496 0.31774044
v 0.13696052 0.03414586 0.31784182
v 0.13460646 0.03879075 0.30325331
v 0.13391409 0.04118404 0.31784182
v 0.13429064 0.03988286 0.30991211
v 0.13475222 0.03847578 0.30325331
v 0.13485547 0.03914975 0.31784182
v 0.13566748 0.03739467 0.31784182
v 0.13580414 0.03709757 0.31784182
v 0.13596144 0.03672895 0.31784182
v 0.13616368 0.03625305 0.31784182
v 0.13813755 0.03102496 0.31649950
f 1 2 6
f 1 6 11
f 1 11 18
f 1 18 21
f 1 21 13
f 1 13 7
f 1 7 3
f 1 3 8
f 1 8 15
f 1 15 27
f 1 27 16
f 1 16 9
f 1 9 4
f 1 4 2
f 2 5 10
f 2 10 12
f 2 12 6
f 2 4 5
f 3 7 8
f 4 9 17
f 4 17 26
f 4 26 25
f 4 25 24
f 4 24 23
f 4 23 22
f 4 22 19
f 4 19 12
f 4 12 10
f 4 10 5
f 6 12 11
f 7 13 14
f 7 14 15
f 7 15 8
f 9 16 17
f 11 12 18
f 12 19 20
f 12 20 18
f 13 21 22
f 13 22 23
f 13 23 24
f 13 24 25
f 13 25 14
f 14 25 26
f 14 26 17
f 14 17 27
f 14 27 15
f 16 27 17
f 18 20 21
f 19 22 20
f 20 22 21

