# https://github.com/mikedh/trimesh
v 0.02766152 -0.08267606 0.37547784
v 0.02766152 -0.08678491 0.37547784
v 0.02766152 -0.09061176 0.36887267
v 0.01657375 -0.08405500 0.37547784
v 0.02363059 -0.09061176 0.37299056
v 0.02766152 -0.08679812 0.37546685
v 0.02580017 -0.08711275 0.37547784
v 0.02222942 -0.09061176 0.37318776
v 0.02766152 -0.09061176 0.37208409
v 0.02745422 -0.09061176 0.36890500
v 0.01657375 -0.09061098 0.37085888
v 0.01657375 -0.08833398 0.37547784
v 0.02381835 -0.09061176 0.37294853
v 0.02766152 -0.08747788 0.37486426
v 0.02338964 -0.08858413 0.37464250
v 0.02007069 -0.09061176 0.37349099
v 0.02164442 -0.08766898 0.37547784
v 0.02115494 -0.08816230 0.37516685
v 0.01657592 -0.09061176 0.37085823
v 0.01657375 -0.09061176 0.37382203
v 0.01668119 -0.08833321 0.37547784
v 0.01667577 -0.09061176 0.37382138
f 1 2 6
f 1 6 14
f 1 14 9
f 1 9 3
f 1 3 4
f 1 4 12
f 1 12 21
f 1 21 17
f 1 17 7
f 1 7 2
f 2 5 6
f 2 7 8
f 2 8 5
f 3 9 13
f 3 13 5
f 3 5 8
f 3 8 16
f 3 16 22
f 3 22 20
f 3 20 19
f 3 19 10
f 3 10 4
f 4 11 20
f 4 20 12
f 4 10 11
f 5 13 6
f 6 13 14
f 7 15 16
f 7 16 8
f 7 17 18
f 7 18 15
f 9 14 13
f 10 19 11
f 11 19 20
f 12 20 21
f 15 18 16
f 16 18 22
f 17 21 18
f 18 21 22
f 20 22 21

