# https://github.com/mikedh/trimesh
v -0.12701708 -0.09070816 0.33195827
v -0.12701708 -0.09054974 0.33230915
v -0.12701708 -0.08712219 0.33195827
v -0.12640522 -0.09129620 0.33195827
v -0.12617577 -0.09129083 0.33246416
v -0.12701708 -0.09041280 0.33259030
v -0.12701708 -0.08461026 0.33649576
v -0.11813902 -0.09514800 0.33195827
v -0.12615056 -0.09153786 0.33195827
v -0.12546309 -0.09218363 0.33195827
v -0.12517281 -0.09217692 0.33258675
v -0.12519540 -0.09131097 0.33433628
v -0.12619750 -0.09043025 0.33418749
v -0.12701708 -0.08971467 0.33401560
v -0.11813902 -0.09295560 0.33649576
v -0.12701708 -0.08836003 0.33649576
v -0.11813902 -0.09832449 0.33195827
v -0.12514152 -0.09248302 0.33195827
v -0.12448968 -0.09308180 0.33195827
v -0.12416550 -0.09307509 0.33264494
v -0.12418896 -0.09220109 0.33442245
v -0.12416376 -0.09134856 0.33610935
v -0.12517107 -0.09046113 0.33599698
v -0.12617403 -0.08958713 0.33582109
v -0.12701708 -0.08879099 0.33574248
v -0.11821638 -0.09619519 0.33649576
v -0.11813902 -0.09807612 0.33255744
v -0.12665118 -0.08872655 0.33649576
v -0.11911244 -0.09757266 0.33203333
v -0.11933754 -0.09743035 0.33195827
v -0.12413073 -0.09340670 0.33195827
v -0.12349975 -0.09397192 0.33195827
v -0.12315819 -0.09395447 0.33269157
v -0.12318252 -0.09307643 0.33449795
v -0.12315645 -0.09221451 0.33621062
v -0.12393257 -0.09134722 0.33649576
v -0.12415246 -0.09114315 0.33649576
v -0.12487035 -0.09046650 0.33649576
v -0.12515629 -0.09019396 0.33649576
v -0.12577771 -0.08959115 0.33649576
v -0.12615491 -0.08922329 0.33649576
v -0.11866919 -0.09584881 0.33649576
v -0.11820682 -0.09692555 0.33502250
v -0.11815554 -0.09789219 0.33296961
v -0.11922195 -0.09657246 0.33411420
v -0.12018406 -0.09611867 0.33345241
v -0.12010758 -0.09682754 0.33195827
v -0.12312082 -0.09430622 0.33195827
v -0.12215696 -0.09478014 0.33279684
v -0.12218217 -0.09389539 0.33462720
v -0.12215349 -0.09299320 0.33643003
v -0.12307128 -0.09213396 0.33649576
v -0.11923933 -0.09539503 0.33649576
v -0.11924715 -0.09565549 0.33598321
v -0.12020927 -0.09521513 0.33531653
v -0.12116356 -0.09551318 0.33302735
v -0.12118876 -0.09462038 0.33487859
v -0.12110880 -0.09601932 0.33195827
v -0.12252808 -0.09482176 0.33195827
v -0.12211438 -0.09517754 0.33195827
v -0.12159812 -0.09561118 0.33195827
v -0.12119832 -0.09378396 0.33649576
v -0.12167460 -0.09337448 0.33649576
v -0.12019188 -0.09462306 0.33649576
f 1 2 6
f 1 6 14
f 1 14 25
f 1 25 16
f 1 16 7
f 1 7 3
f 1 3 8
f 1 8 17
f 1 17 30
f 1 30 47
f 1 47 58
f 1 58 61
f 1 61 60
f 1 60 59
f 1 59 48
f 1 48 32
f 1 32 31
f 1 31 19
f 1 19 18
f 1 18 10
f 1 10 9
f 1 9 4
f 1 4 5
f 1 5 2
f 2 5 6
f 3 7 8
f 4 9 5
f 5 9 10
f 5 10 11
f 5 11 12
f 5 12 13
f 5 13 6
f 6 13 14
f 7 15 8
f 7 16 28
f 7 28 41
f 7 41 40
f 7 40 39
f 7 39 38
f 7 38 37
f 7 37 36
f 7 36 52
f 7 52 63
f 7 63 62
f 7 62 64
f 7 64 53
f 7 53 42
f 7 42 26
f 7 26 15
f 8 15 27
f 8 27 17
f 10 18 11
f 11 18 19
f 11 19 20
f 11 20 21
f 11 21 12
f 12 21 22
f 12 22 23
f 12 23 13
f 13 23 24
f 13 24 14
f 14 24 25
f 15 26 27
f 16 25 28
f 17 27 29
f 17 29 30
f 19 31 20
f 20 31 32
f 20 32 33
f 20 33 34
f 20 34 21
f 21 35 22
f 21 34 35
f 22 36 37
f 22 37 38
f 22 38 23
f 22 35 36
f 23 38 39
f 23 39 40
f 23 40 24
f 24 40 41
f 24 41 25
f 25 41 28
f 26 42 43
f 26 43 44
f 26 44 27
f 27 44 29
f 29 44 45
f 29 45 46
f 29 46 30
f 30 46 47
f 32 48 33
f 33 48 49
f 33 49 50
f 33 50 34
f 34 50 51
f 34 51 35
f 35 51 52
f 35 52 36
f 42 53 54
f 42 54 43
f 43 45 44
f 43 54 45
f 45 54 55
f 45 55 46
f 46 56 47
f 46 55 57
f 46 57 56
f 47 56 58
f 48 59 49
f 49 57 50
f 49 59 60
f 49 60 61
f 49 61 56
f 49 56 57
f 50 62 63
f 50 63 51
f 50 57 62
f 51 63 52
f 53 64 54
f 54 64 55
f 55 64 62
f 55 62 57
f 56 61 58

