# https://github.com/mikedh/trimesh
v -0.07195211 0.12605839 0.28033284
v -0.07330047 0.12561711 0.28033691
v -0.07238457 0.12591977 0.28033610
v -0.07202861 0.12605839 0.28044911
v -0.06300314 0.12605839 0.28052797
v -0.07337799 0.12435042 0.28057268
v -0.07337799 0.12559285 0.28034504
v -0.07337799 0.12561537 0.28044992
v -0.07253960 0.12594229 0.28068162
v -0.07243658 0.12592728 0.28045073
v -0.06299600 0.12604944 0.28052959
v -0.07217956 0.12605839 0.28068000
v -0.06295929 0.12605839 0.28053122
v -0.07337799 0.12310800 0.28081577
v -0.07337799 0.12563847 0.28056049
v -0.07259059 0.12594980 0.28079707
v -0.07225401 0.12605839 0.28079463
v -0.06805083 0.12605839 0.28833201
v -0.07337799 0.12439721 0.28863852
v -0.07337799 0.12566331 0.28068000
v -0.07269055 0.12596425 0.28102715
v -0.07254470 0.12605839 0.28125561
v -0.07237743 0.12605839 0.28098894
v -0.07232745 0.12605839 0.28091008
v -0.06901978 0.12605839 0.28835803
v -0.06894328 0.12580165 0.28838974
v -0.07111780 0.12513856 0.28851819
v -0.07328109 0.12443042 0.28863364
v -0.07337799 0.12605839 0.28843689
v -0.07003156 0.12547588 0.28845559
v -0.07337799 0.12571125 0.28091170
v -0.07279050 0.12597868 0.28125804
v -0.07283946 0.12598590 0.28137349
v -0.07268647 0.12605839 0.28148650
v -0.07021311 0.12605839 0.28838567
v -0.07141460 0.12605839 0.28840844
v -0.07262425 0.12605839 0.28842795
v -0.07220098 0.12478969 0.28857673
v -0.07337799 0.12605839 0.28267837
v -0.07098521 0.12605839 0.28840031
v -0.07337799 0.12575862 0.28114341
v -0.07303121 0.12601363 0.28183528
v -0.07282518 0.12605839 0.28171739
v -0.07281396 0.12605839 0.28169870
v -0.07337799 0.12578230 0.28125967
v -0.07337799 0.12582879 0.28149138
v -0.07337799 0.12600843 0.28241414
v -0.07335861 0.12605839 0.28264341
v -0.07307813 0.12602056 0.28195073
v -0.07288434 0.12605839 0.28181658
v -0.07337799 0.12587471 0.28172227
v -0.07337799 0.12598648 0.28229869
v -0.07326273 0.12604713 0.28241251
v -0.07322602 0.12605839 0.28240764
v -0.07312504 0.12602720 0.28206617
v -0.07302305 0.12605839 0.28205317
v -0.07295369 0.12605839 0.28193447
v -0.07337799 0.12590504 0.28187756
v -0.07337799 0.12594229 0.28206861
v -0.07337799 0.12596453 0.28218406
v -0.07315870 0.12605839 0.28228894
v -0.07309139 0.12605839 0.28217105
v -0.07337799 0.12594778 0.28209707
f 1 2 3
f 1 3 4
f 1 4 12
f 1 12 17
f 1 17 24
f 1 24 23
f 1 23 22
f 1 22 34
f 1 34 44
f 1 44 43
f 1 43 50
f 1 50 57
f 1 57 56
f 1 56 62
f 1 62 61
f 1 61 54
f 1 54 48
f 1 48 39
f 1 39 29
f 1 29 37
f 1 37 36
f 1 36 40
f 1 40 35
f 1 35 25
f 1 25 18
f 1 18 13
f 1 13 5
f 1 5 2
f 2 6 7
f 2 7 8
f 2 8 9
f 2 9 10
f 2 10 3
f 2 5 11
f 2 11 6
f 3 10 4
f 4 10 12
f 5 13 11
f 6 14 19
f 6 19 29
f 6 29 39
f 6 39 47
f 6 47 52
f 6 52 60
f 6 60 63
f 6 63 59
f 6 59 58
f 6 58 51
f 6 51 46
f 6 46 45
f 6 45 41
f 6 41 31
f 6 31 20
f 6 20 15
f 6 15 8
f 6 8 7
f 6 11 14
f 8 15 16
f 8 16 9
f 9 16 17
f 9 17 10
f 10 17 12
f 11 13 14
f 13 18 19
f 13 19 14
f 15 20 16
f 16 21 22
f 16 22 23
f 16 23 24
f 16 24 17
f 16 20 21
f 18 25 26
f 18 26 19
f 19 27 28
f 19 28 29
f 19 26 30
f 19 30 27
f 20 31 21
f 21 32 22
f 21 31 32
f 22 32 33
f 22 33 34
f 25 35 26
f 26 35 30
f 27 36 37
f 27 37 38
f 27 38 28
f 27 30 36
f 28 38 37
f 28 37 29
f 30 35 40
f 30 40 36
f 31 41 33
f 31 33 32
f 33 42 43
f 33 43 44
f 33 44 34
f 33 41 45
f 33 45 46
f 33 46 42
f 39 48 47
f 42 49 50
f 42 50 43
f 42 46 51
f 42 51 49
f 47 48 53
f 47 53 52
f 48 54 53
f 49 55 56
f 49 56 57
f 49 57 50
f 49 51 58
f 49 58 59
f 49 59 55
f 52 53 60
f 53 54 61
f 53 61 55
f 53 55 60
f 55 61 62
f 55 62 56
f 55 59 63
f 55 63 60

