# https://github.com/mikedh/trimesh
v -0.12922318 0.08844629 0.32441206
v -0.12870053 0.08844629 0.32441206
v -0.12922318 0.08844629 0.32590272
v -0.12922318 0.09159066 0.32441206
v -0.12307243 0.09236381 0.32590272
v -0.12822425 0.08844629 0.32590272
v -0.12307243 0.09313178 0.32441206
v -0.12922318 0.09103409 0.32590272
v -0.12875292 0.09150437 0.32590272
v -0.12868668 0.09211357 0.32444139
v -0.12889622 0.09191597 0.32441206
v -0.12307183 0.09539341 0.32441206
v -0.12307183 0.09539341 0.32590272
v -0.12866802 0.09214291 0.32441206
v -0.12774074 0.09249324 0.32590272
v -0.12307183 0.09725984 0.32441206
v -0.12307183 0.09672916 0.32590272
v -0.12768053 0.09304204 0.32457782
v -0.12768836 0.09309295 0.32441206
v -0.12672856 0.09345622 0.32590272
v -0.12363904 0.09677835 0.32441206
v -0.12307183 0.09718304 0.32463852
v -0.12362459 0.09669810 0.32468171
v -0.12368299 0.09620798 0.32590272
v -0.12667256 0.09395756 0.32468886
v -0.12668641 0.09404126 0.32441206
v -0.12571578 0.09439591 0.32590272
v -0.12466386 0.09588267 0.32441206
v -0.12464580 0.09577998 0.32475306
v -0.12469999 0.09531316 0.32590272
v -0.12566219 0.09486705 0.32475408
v -0.12567965 0.09497059 0.32441206
f 1 2 6
f 1 6 3
f 1 3 8
f 1 8 4
f 1 4 11
f 1 11 14
f 1 14 19
f 1 19 26
f 1 26 32
f 1 32 28
f 1 28 21
f 1 21 16
f 1 16 12
f 1 12 7
f 1 7 2
f 2 5 6
f 2 7 5
f 3 6 5
f 3 5 13
f 3 13 17
f 3 17 24
f 3 24 30
f 3 30 27
f 3 27 20
f 3 20 15
f 3 15 9
f 3 9 8
f 4 9 10
f 4 10 11
f 4 8 9
f 5 7 12
f 5 12 13
f 9 14 10
f 9 15 14
f 10 14 11
f 12 16 22
f 12 22 17
f 12 17 13
f 14 15 18
f 14 18 19
f 15 20 18
f 16 21 22
f 17 22 23
f 17 23 24
f 18 20 25
f 18 25 19
f 19 25 26
f 20 27 25
f 21 23 22
f 21 28 23
f 23 28 29
f 23 29 24
f 24 29 30
f 25 27 31
f 25 31 32
f 25 32 26
f 27 30 31
f 28 32 31
f 28 31 29
f 29 31 30

