# https://github.com/mikedh/trimesh
v -0.08931331 -0.04363585 0.39085642
v -0.08931331 -0.03835533 0.39249994
v -0.06614793 -0.03850007 0.39607911
v -0.06614793 -0.04363585 0.39466721
v -0.07721125 -0.04363585 0.39571322
v -0.07897802 -0.04363482 0.39542258
v -0.08051573 -0.04362190 0.39516292
v -0.08146148 -0.04361156 0.39499695
v -0.08287218 -0.04359398 0.39474393
v -0.08427608 -0.04357486 0.39448501
v -0.08569811 -0.04355418 0.39421281
v -0.08758736 -0.04352368 0.39383955
v -0.08915001 -0.04349628 0.39351940
v -0.08915001 -0.04117626 0.39425043
v -0.08915001 -0.03866756 0.39498515
v -0.06732502 -0.03880196 0.39836808
v -0.06623638 -0.03879473 0.39839243
v -0.06625906 -0.04363585 0.39717085
v -0.07580282 -0.04363585 0.39593526
v -0.07674631 -0.04146885 0.39642581
v -0.07815474 -0.04144972 0.39620746
v -0.07956770 -0.04142698 0.39598174
v -0.08050892 -0.04140940 0.39582683
v -0.08145014 -0.04139027 0.39566822
v -0.08239363 -0.04136908 0.39550668
v -0.08333485 -0.04134685 0.39534144
v -0.08427608 -0.04132256 0.39517325
v -0.08521956 -0.04129671 0.39500137
v -0.08616079 -0.04126983 0.39482655
v -0.08710201 -0.04124140 0.39464877
v -0.08804550 -0.04121193 0.39446804
v -0.08804550 -0.03868462 0.39520276
v -0.08616079 -0.03871150 0.39556421
v -0.07580282 -0.03880765 0.39729626
v -0.06873799 -0.03880868 0.39821244
v -0.06732502 -0.04146937 0.39766730
v -0.06626587 -0.04145489 0.39778238
v -0.08521956 -0.03872391 0.39573978
v -0.08239363 -0.03875751 0.39624434
v -0.08050892 -0.03877612 0.39656302
v -0.06732502 -0.04363585 0.39705651
v -0.07580282 -0.04147867 0.39656670
v -0.07486160 -0.04363585 0.39607763
v -0.07674631 -0.03880351 0.39715684
v -0.07815474 -0.03879473 0.39694070
v -0.07956770 -0.03878439 0.39671719
v -0.08145014 -0.03876733 0.39640515
v -0.08333485 -0.03874717 0.39607984
v -0.08427608 -0.03873579 0.39591092
v -0.08710201 -0.03869857 0.39538570
v -0.07486160 -0.04148642 0.39670391
v -0.07392038 -0.04149211 0.39683743
v -0.07438985 -0.03881282 0.39749690
v -0.07297689 -0.03881540 0.39768944
v -0.07156392 -0.03881592 0.39787311
v -0.07015096 -0.03881385 0.39804794
v -0.06873799 -0.04148436 0.39750428
v -0.06873799 -0.04363585 0.39689423
v -0.07392038 -0.04363585 0.39621557
v -0.07249834 -0.04363585 0.39641401
v -0.07297689 -0.04149573 0.39696726
v -0.07156392 -0.04149728 0.39715462
v -0.07015096 -0.04149366 0.39733462
v -0.07061363 -0.04363585 0.39666408
f 1 2 3
f 1 3 4
f 1 4 18
f 1 18 41
f 1 41 58
f 1 58 64
f 1 64 60
f 1 60 59
f 1 59 43
f 1 43 19
f 1 19 5
f 1 5 6
f 1 6 7
f 1 7 8
f 1 8 9
f 1 9 10
f 1 10 11
f 1 11 12
f 1 12 13
f 1 13 14
f 1 14 2
f 2 14 15
f 2 15 16
f 2 16 3
f 3 16 17
f 3 17 4
f 4 17 18
f 5 19 20
f 5 20 21
f 5 21 22
f 5 22 6
f 6 22 23
f 6 23 7
f 7 23 24
f 7 24 25
f 7 25 8
f 8 25 26
f 8 26 9
f 9 26 27
f 9 27 10
f 10 28 29
f 10 29 11
f 10 27 28
f 11 29 30
f 11 30 31
f 11 31 12
f 12 31 14
f 12 14 13
f 14 31 15
f 15 31 32
f 15 32 33
f 15 33 16
f 16 34 35
f 16 35 36
f 16 36 37
f 16 37 17
f 16 33 38
f 16 38 39
f 16 39 40
f 16 40 34
f 17 37 18
f 18 37 36
f 18 36 41
f 19 42 20
f 19 43 42
f 20 42 44
f 20 44 45
f 20 45 21
f 21 45 46
f 21 46 22
f 22 40 23
f 22 46 40
f 23 40 47
f 23 47 39
f 23 39 24
f 24 39 25
f 25 39 48
f 25 48 26
f 26 48 49
f 26 49 38
f 26 38 27
f 27 38 28
f 28 38 33
f 28 33 50
f 28 50 29
f 29 50 30
f 30 50 32
f 30 32 31
f 32 50 33
f 34 45 44
f 34 44 42
f 34 42 51
f 34 51 52
f 34 52 53
f 34 53 54
f 34 54 35
f 34 40 45
f 35 55 56
f 35 56 57
f 35 57 36
f 35 54 55
f 36 57 41
f 38 49 48
f 38 48 39
f 39 47 40
f 40 46 45
f 41 57 58
f 42 43 51
f 43 59 51
f 51 59 52
f 52 60 61
f 52 61 53
f 52 59 60
f 53 61 54
f 54 61 62
f 54 62 55
f 55 62 63
f 55 63 56
f 56 63 57
f 57 63 58
f 58 63 64
f 60 64 62
f 60 62 61
f 62 64 63

