# https://github.com/mikedh/trimesh
v -0.11588562 -0.09191890 0.25673056
v -0.12012888 -0.08721091 0.25746799
v -0.12001655 -0.09140247 0.25720327
v -0.11910451 -0.09185261 0.25608531
v -0.11700093 -0.09175241 0.25234615
v -0.11578042 -0.09158900 0.25044111
v -0.11557492 -0.07617010 0.23690261
v -0.12000763 -0.07617010 0.24397203
v -0.12010437 -0.08626900 0.24994949
v -0.12010437 -0.08730186 0.25131563
v -0.12010437 -0.08830389 0.25269832
v -0.12010437 -0.08927663 0.25409755
v -0.12010437 -0.09022162 0.25551333
v -0.12010437 -0.07659712 0.23924962
v -0.12010437 -0.07827282 0.24087339
v -0.12010437 -0.07949684 0.24211663
v -0.12010437 -0.08069310 0.24337641
v -0.12010437 -0.08186316 0.24465746
v -0.12010437 -0.08300856 0.24595034
v -0.12010437 -0.08412158 0.24726684
v -0.12010437 -0.08520840 0.24859989
v -0.11864537 -0.09131306 0.25439300
v -0.11770212 -0.09009983 0.25098473
v -0.11593867 -0.09005667 0.24846753
v -0.11593867 -0.08881878 0.24679649
v -0.11593867 -0.08753464 0.24515854
v -0.11593867 -0.08576491 0.24300297
v -0.11593911 -0.08392888 0.24089467
v -0.11593911 -0.08202349 0.23883127
v -0.11593911 -0.08005181 0.23681515
v -0.11593911 -0.07801538 0.23484867
v -0.11593911 -0.07635047 0.23332416
v -0.11911788 -0.07617010 0.23718387
v -0.11911744 -0.08618422 0.24803264
v -0.11911788 -0.08718162 0.24932551
v -0.11911788 -0.08815590 0.25063256
v -0.11911833 -0.08910243 0.25195616
v -0.11864492 -0.09033570 0.25291104
v -0.11911788 -0.07730625 0.23825456
v -0.11911788 -0.07849943 0.23941744
v -0.11911788 -0.07966949 0.24059922
v -0.11911744 -0.08081643 0.24179991
v -0.11911744 -0.08194024 0.24301242
v -0.11911744 -0.08303939 0.24424620
v -0.11911744 -0.08410925 0.24548944
v -0.11911744 -0.08515906 0.24675394
v -0.11770212 -0.08922267 0.24974859
v -0.11770212 -0.08832393 0.24852662
v -0.11770212 -0.08740361 0.24731411
v -0.11770212 -0.08646170 0.24611578
v -0.11770212 -0.08549821 0.24493636
v -0.11770212 -0.08451314 0.24376167
v -0.11746854 -0.08326446 0.24200081
v -0.11723451 -0.08200345 0.24029196
v -0.11723451 -0.08096751 0.23919526
v -0.11723451 -0.07991306 0.23811511
v -0.11723451 -0.07883858 0.23705151
v -0.11723451 -0.07640288 0.23475176
v -0.11817107 -0.07625027 0.23583191
v -0.11817107 -0.07863664 0.23810329
v -0.11817107 -0.07976045 0.23922599
v -0.11817063 -0.08085959 0.24036286
v -0.11817063 -0.08194179 0.24151628
v -0.11770302 -0.07762073 0.23649607
f 1 2 3
f 1 3 4
f 1 4 5
f 1 5 6
f 1 6 7
f 1 7 8
f 1 8 2
f 2 9 10
f 2 10 11
f 2 11 12
f 2 12 13
f 2 13 3
f 2 8 14
f 2 14 15
f 2 15 16
f 2 16 17
f 2 17 18
f 2 18 19
f 2 19 20
f 2 20 21
f 2 21 9
f 3 13 4
f 4 13 22
f 4 22 5
f 5 23 24
f 5 24 6
f 5 22 23
f 6 24 25
f 6 25 26
f 6 26 27
f 6 27 28
f 6 28 29
f 6 29 7
f 7 29 30
f 7 30 31
f 7 31 32
f 7 32 33
f 7 33 8
f 8 33 14
f 9 21 34
f 9 34 35
f 9 35 10
f 10 35 36
f 10 36 11
f 11 36 37
f 11 37 12
f 12 37 13
f 13 37 38
f 13 38 22
f 14 33 39
f 14 39 15
f 15 40 41
f 15 41 16
f 15 39 40
f 16 41 42
f 16 42 17
f 17 42 43
f 17 43 18
f 18 43 44
f 18 44 19
f 19 44 45
f 19 45 20
f 20 45 46
f 20 46 21
f 21 46 34
f 22 38 23
f 23 38 37
f 23 37 47
f 23 47 24
f 24 47 48
f 24 48 25
f 25 48 49
f 25 49 26
f 26 49 50
f 26 50 51
f 26 51 27
f 27 52 53
f 27 53 28
f 27 51 52
f 28 53 54
f 28 54 29
f 29 55 56
f 29 56 30
f 29 54 55
f 30 56 57
f 30 57 31
f 31 58 32
f 31 57 58
f 32 58 59
f 32 59 33
f 33 59 39
f 34 49 35
f 34 46 50
f 34 50 49
f 35 49 48
f 35 48 36
f 36 48 47
f 36 47 37
f 39 59 60
f 39 60 40
f 40 60 61
f 40 61 41
f 41 61 62
f 41 62 42
f 42 62 63
f 42 63 43
f 43 63 44
f 44 63 52
f 44 52 45
f 45 51 46
f 45 52 51
f 46 51 50
f 52 63 53
f 53 63 54
f 54 63 62
f 54 62 55
f 55 61 56
f 55 62 61
f 56 61 60
f 56 60 57
f 57 64 58
f 57 60 64
f 58 64 59
f 59 64 60

