# https://github.com/mikedh/trimesh
v -0.11613290 -0.10370827 0.29805532
v -0.11615384 -0.10370827 0.29896248
v -0.11558063 -0.10411942 0.29805532
v -0.11822173 -0.10370827 0.29805532
v -0.11558063 -0.10413124 0.29848924
v -0.11558063 -0.10412452 0.29832951
v -0.11741401 -0.10370827 0.29968866
v -0.11558063 -0.10412961 0.29810920
v -0.11647444 -0.10607468 0.29805532
v -0.11822173 -0.10514071 0.29805532
v -0.11822173 -0.10370827 0.29968866
v -0.11558063 -0.10413216 0.29844863
v -0.11698973 -0.10607468 0.29842752
v -0.11822173 -0.10467535 0.29968866
v -0.11804152 -0.10529776 0.29933053
v -0.11698560 -0.10607468 0.29805532
v -0.11822173 -0.10514836 0.29835174
v -0.11799653 -0.10531884 0.29805532
v -0.11698689 -0.10607468 0.29813830
v -0.11747451 -0.10571911 0.29872298
v -0.11751769 -0.10568761 0.29871723
v -0.11822173 -0.10516110 0.29948098
v -0.11822173 -0.10516110 0.29909790
v -0.11701016 -0.10605707 0.29810456
v -0.11700705 -0.10605869 0.29805532
v -0.11822173 -0.10516017 0.29895993
v -0.11768911 -0.10555048 0.29805532
f 1 2 3
f 1 3 9
f 1 9 16
f 1 16 25
f 1 25 27
f 1 27 18
f 1 18 10
f 1 10 4
f 1 4 11
f 1 11 7
f 1 7 2
f 2 5 6
f 2 6 3
f 2 7 5
f 3 6 5
f 3 5 12
f 3 12 8
f 3 8 9
f 4 10 17
f 4 17 26
f 4 26 23
f 4 23 22
f 4 22 14
f 4 14 11
f 5 7 13
f 5 13 9
f 5 9 12
f 7 11 14
f 7 14 15
f 7 15 13
f 8 12 9
f 9 13 19
f 9 19 16
f 10 18 17
f 13 15 20
f 13 20 21
f 13 21 19
f 14 22 15
f 15 21 20
f 15 22 23
f 15 23 21
f 16 19 24
f 16 24 25
f 17 18 26
f 18 27 26
f 19 21 24
f 21 27 25
f 21 25 24
f 21 23 26
f 21 26 27

