# https://github.com/mikedh/trimesh
v -0.10630004 0.09158921 0.35565769
v -0.10837015 0.09050016 0.35556904
v -0.11010905 0.08936403 0.35565769
v -0.10457992 0.08914747 0.35565769
v -0.10498882 0.09235814 0.35557781
v -0.10592870 0.09234872 0.35497285
v -0.10686943 0.09217924 0.35454031
v -0.10970356 0.09029145 0.35483938
v -0.10781016 0.09200663 0.35409122
v -0.10875174 0.09181832 0.35362945
v -0.11149966 0.08847584 0.35563236
v -0.11330002 0.08348095 0.35565769
v -0.11064685 0.09006861 0.35437178
v -0.10457992 0.09315845 0.35484425
v -0.10457992 0.09657939 0.34570648
v -0.10467980 0.09416276 0.35349502
v -0.10592272 0.09365904 0.35330311
v -0.10686345 0.09348171 0.35286375
v -0.10969161 0.09161275 0.35316185
v -0.10780418 0.09329968 0.35240881
v -0.10874576 0.09310509 0.35194218
v -0.11330002 0.08815414 0.35445653
v -0.11286807 0.08760177 0.35550864
v -0.11159100 0.08981754 0.35389930
v -0.11330002 0.09115453 0.34570648
v -0.11063490 0.09138364 0.35269132
v -0.10457992 0.09951230 0.34599094
v -0.10468663 0.09665001 0.35014872
v -0.10468151 0.09542914 0.35182236
v -0.10570590 0.09910116 0.34570648
v -0.10592785 0.09491757 0.35162752
v -0.10686857 0.09473083 0.35118232
v -0.10968564 0.09289011 0.35146971
v -0.10781016 0.09454095 0.35072154
v -0.10875088 0.09433695 0.35025199
v -0.11291758 0.08951153 0.35310048
v -0.11291160 0.09079831 0.35142002
v -0.11290819 0.09203801 0.34972690
v -0.11291160 0.09323220 0.34802599
v -0.11157905 0.09112314 0.35221787
v -0.11274429 0.09470572 0.34600945
v -0.11131954 0.09583400 0.34573473
v -0.10789808 0.09791481 0.34570648
v -0.11062893 0.09264844 0.35099723
v -0.10602858 0.09835263 0.34662123
v -0.10483261 0.09861940 0.34717943
v -0.10469602 0.09782066 0.34846924
v -0.10594919 0.09611647 0.34996071
v -0.10689077 0.09832596 0.34593249
v -0.10689077 0.09592345 0.34950966
v -0.10969161 0.09411412 0.34977659
v -0.10783235 0.09572259 0.34904303
v -0.10877393 0.09551074 0.34856763
v -0.11157307 0.09238010 0.35052475
v -0.11157905 0.09358685 0.34882579
v -0.11160209 0.09473240 0.34713462
v -0.11065795 0.09501800 0.34761002
v -0.10940308 0.09692462 0.34588281
v -0.10881491 0.09662176 0.34689108
v -0.10787247 0.09684302 0.34737232
v -0.11063405 0.09386461 0.34930119
v -0.10598846 0.09725573 0.34830071
v -0.10693089 0.09705330 0.34784382
v -0.10971466 0.09527692 0.34808737
f 1 2 3
f 1 3 12
f 1 12 4
f 1 4 5
f 1 5 6
f 1 6 7
f 1 7 2
f 2 8 3
f 2 7 9
f 2 9 10
f 2 10 8
f 3 11 12
f 3 8 13
f 3 13 11
f 4 14 5
f 4 12 15
f 4 15 27
f 4 27 14
f 5 14 6
f 6 14 16
f 6 16 17
f 6 17 7
f 7 17 18
f 7 18 9
f 8 10 19
f 8 19 13
f 9 18 20
f 9 20 10
f 10 20 21
f 10 21 19
f 11 22 23
f 11 23 12
f 11 13 24
f 11 24 22
f 12 25 15
f 12 23 22
f 12 22 25
f 13 19 26
f 13 26 24
f 14 27 28
f 14 28 29
f 14 29 16
f 15 30 27
f 15 25 43
f 15 43 30
f 16 29 17
f 17 29 31
f 17 31 18
f 18 31 32
f 18 32 20
f 19 21 33
f 19 33 26
f 20 32 34
f 20 34 21
f 21 34 35
f 21 35 33
f 22 24 36
f 22 36 37
f 22 37 38
f 22 38 39
f 22 39 25
f 24 26 40
f 24 40 36
f 25 39 41
f 25 41 42
f 25 42 43
f 26 33 44
f 26 44 40
f 27 30 45
f 27 45 46
f 27 46 47
f 27 47 28
f 28 47 48
f 28 48 31
f 28 31 29
f 30 43 49
f 30 49 45
f 31 48 32
f 32 48 50
f 32 50 34
f 33 35 51
f 33 51 44
f 34 50 52
f 34 52 35
f 35 52 53
f 35 53 51
f 36 40 37
f 37 40 54
f 37 54 38
f 38 54 55
f 38 55 39
f 39 55 56
f 39 56 41
f 40 44 54
f 41 56 42
f 42 56 57
f 42 57 58
f 42 58 43
f 43 58 59
f 43 59 60
f 43 60 49
f 44 51 61
f 44 61 54
f 45 62 46
f 45 49 60
f 45 60 63
f 45 63 62
f 46 62 47
f 47 62 48
f 48 62 50
f 50 62 63
f 50 63 52
f 51 53 64
f 51 64 61
f 52 63 60
f 52 60 53
f 53 60 59
f 53 59 64
f 54 61 55
f 55 61 57
f 55 57 56
f 57 64 59
f 57 59 58
f 57 61 64

