# https://github.com/mikedh/trimesh
v -0.15123278 -0.03918215 0.26785653
v -0.14899517 -0.03871968 0.26862533
v -0.15015425 -0.03876592 0.26529912
v -0.15007874 -0.04075148 0.26623139
v -0.15099870 -0.04137890 0.26862533
v -0.14352952 -0.03871968 0.25785154
v -0.14882276 -0.03872584 0.26256244
v -0.14401907 -0.05446847 0.26862533
v -0.13837597 -0.05446847 0.25785154
v -0.14907823 -0.04070061 0.26410426
v -0.14907823 -0.04321030 0.26553957
v -0.15018571 -0.04300065 0.26781013
v -0.15001833 -0.04484130 0.26862533
v -0.14410213 -0.04654937 0.25785154
v -0.14601128 -0.03942880 0.25789162
v -0.14715776 -0.03909582 0.25952414
v -0.14800599 -0.03927927 0.26123154
v -0.14807898 -0.04117079 0.26234097
v -0.14805507 -0.05099837 0.26862533
v -0.14699038 -0.05393200 0.26859580
v -0.14414241 -0.05446847 0.26310977
v -0.14299843 -0.05443147 0.26092781
v -0.14172609 -0.05433127 0.25855074
v -0.14205834 -0.05247367 0.25788002
v -0.14807898 -0.04312860 0.26342616
v -0.14807898 -0.04565988 0.26494900
v -0.14907823 -0.04562904 0.26706031
v -0.14914997 -0.04754215 0.26853147
v -0.14507873 -0.04697484 0.25986899
v -0.14507873 -0.04559359 0.25906749
v -0.14505356 -0.04364349 0.25796122
v -0.14299717 -0.04999172 0.25795384
v -0.14376863 -0.04821428 0.25823647
v -0.14607923 -0.04183213 0.25887134
v -0.14707848 -0.04086093 0.26024126
v -0.14707848 -0.04222677 0.26095628
v -0.14707848 -0.04357258 0.26169556
v -0.14839990 -0.04942750 0.26822036
v -0.14707848 -0.05172908 0.26703605
v -0.14613083 -0.05401371 0.26678505
v -0.14503468 -0.05422953 0.26469273
v -0.14507873 -0.05225784 0.26331015
v -0.14408200 -0.05331999 0.26214903
v -0.14308149 -0.05299318 0.26006409
v -0.14308149 -0.05163505 0.25914870
v -0.14707848 -0.04489679 0.26245698
v -0.14707848 -0.04619635 0.26323844
v -0.14707848 -0.04746815 0.26404415
v -0.14807898 -0.04809557 0.26655726
v -0.14607923 -0.04729241 0.26195182
v -0.14607923 -0.04596511 0.26114822
v -0.14408200 -0.04931959 0.25946824
v -0.14507873 -0.04833452 0.26069685
v -0.14607923 -0.04461006 0.26036571
v -0.14607923 -0.04323189 0.25960745
v -0.14607923 -0.05236113 0.26539509
v -0.14707848 -0.04933038 0.26529596
v -0.14607923 -0.05113095 0.26450185
v -0.14408200 -0.05201427 0.26123364
v -0.14607923 -0.04987918 0.26362864
v -0.14507873 -0.05097679 0.26241901
v -0.14408200 -0.05067772 0.26033934
v -0.14607923 -0.04859659 0.26277969
v -0.14507873 -0.04966799 0.26154475
f 1 2 3
f 1 3 4
f 1 4 5
f 1 5 2
f 2 6 7
f 2 7 3
f 2 5 13
f 2 13 19
f 2 19 8
f 2 8 9
f 2 9 6
f 3 7 10
f 3 10 4
f 4 10 11
f 4 11 12
f 4 12 5
f 5 12 13
f 6 9 14
f 6 14 15
f 6 15 16
f 6 16 7
f 7 16 17
f 7 17 18
f 7 18 10
f 8 19 20
f 8 20 21
f 8 21 9
f 9 21 22
f 9 22 23
f 9 23 24
f 9 24 14
f 10 18 25
f 10 25 11
f 11 25 26
f 11 26 27
f 11 27 12
f 12 27 13
f 13 27 28
f 13 28 19
f 14 29 30
f 14 30 31
f 14 31 15
f 14 24 32
f 14 32 33
f 14 33 29
f 15 31 16
f 16 31 34
f 16 34 35
f 16 35 17
f 17 35 18
f 18 35 36
f 18 36 37
f 18 37 25
f 19 28 38
f 19 38 39
f 19 39 20
f 20 40 21
f 20 39 40
f 21 40 41
f 21 41 42
f 21 42 43
f 21 43 22
f 22 43 44
f 22 44 23
f 23 44 24
f 24 44 45
f 24 45 32
f 25 37 46
f 25 46 47
f 25 47 26
f 26 47 48
f 26 48 49
f 26 49 27
f 27 49 28
f 28 49 38
f 29 50 51
f 29 51 30
f 29 33 52
f 29 52 53
f 29 53 50
f 30 51 54
f 30 54 55
f 30 55 31
f 31 55 34
f 32 45 52
f 32 52 33
f 34 36 35
f 34 55 36
f 36 55 37
f 37 55 54
f 37 54 46
f 38 49 39
f 39 56 40
f 39 49 57
f 39 57 58
f 39 58 56
f 40 56 41
f 41 56 42
f 42 59 43
f 42 56 58
f 42 58 60
f 42 60 61
f 42 61 59
f 43 59 44
f 44 59 45
f 45 59 62
f 45 62 52
f 46 54 51
f 46 51 47
f 47 50 48
f 47 51 50
f 48 63 60
f 48 60 57
f 48 57 49
f 48 50 63
f 50 53 63
f 52 62 64
f 52 64 53
f 53 64 63
f 57 60 58
f 59 61 62
f 60 64 61
f 60 63 64
f 61 64 62

