# https://github.com/mikedh/trimesh
v -0.11330025 0.06338821 0.37294990
v -0.11330025 0.06830002 0.37294990
v -0.11330025 0.06923998 0.36881611
v -0.10700365 0.07429506 0.36881611
v -0.10700365 0.06886283 0.37294787
v -0.10700365 0.07318113 0.37294990
v -0.11300993 0.06857631 0.37294990
v -0.11254824 0.06951627 0.37259220
v -0.11330025 0.06939494 0.37216571
v -0.11330025 0.07372201 0.36881611
v -0.10700365 0.07832245 0.36881611
v -0.10729028 0.07300132 0.37294990
v -0.10700365 0.07377025 0.37250641
v -0.11254824 0.06901340 0.37294990
v -0.11254824 0.07125587 0.37129493
v -0.11330025 0.06975017 0.37190229
v -0.11185786 0.06963468 0.37294990
v -0.11160328 0.07142399 0.37178495
v -0.11278925 0.07417518 0.36881611
v -0.11330025 0.07317528 0.36926243
v -0.10783026 0.07781665 0.36881611
v -0.10783026 0.07707841 0.36944775
v -0.10700365 0.07717197 0.36979088
v -0.10783210 0.07265632 0.37294990
v -0.10783210 0.07368546 0.37217259
v -0.10700365 0.07528034 0.37132649
v -0.11330025 0.07112869 0.37086844
v -0.11160267 0.07314458 0.37045692
v -0.11254762 0.07296770 0.36996650
v -0.11330025 0.07147807 0.37059854
v -0.11160328 0.06985542 0.37294990
v -0.11065895 0.07158625 0.37224219
v -0.11065833 0.07331269 0.37091538
v -0.11145535 0.06997822 0.37294990
v -0.11254701 0.07438715 0.36881611
v -0.11330025 0.07283613 0.36953799
v -0.10856316 0.07735324 0.36881611
v -0.10877213 0.07696147 0.36903785
v -0.10877274 0.07528765 0.37042091
v -0.10783149 0.07539875 0.37082595
v -0.10700365 0.07696585 0.36995921
v -0.10862727 0.07212860 0.37294990
v -0.10877398 0.07358021 0.37177240
v -0.10877398 0.07203065 0.37294990
v -0.10700365 0.07548646 0.37116342
v -0.11065772 0.07500844 0.36955700
v -0.11160205 0.07483302 0.36909693
v -0.10971646 0.07172513 0.37267758
v -0.10971585 0.07345888 0.37135279
v -0.11065895 0.07063166 0.37294990
v -0.10971523 0.07515901 0.36999725
v -0.11214018 0.07472776 0.36881611
v -0.10877213 0.07721875 0.36881611
v -0.10926032 0.07689130 0.36881611
v -0.10971461 0.07657992 0.36881611
v -0.10909944 0.07180114 0.37294990
v -0.10991988 0.07643228 0.36881611
v -0.11065710 0.07589286 0.36881611
v -0.11131727 0.07538559 0.36881611
v -0.11160205 0.07516632 0.36881611
v -0.11001542 0.07112723 0.37294990
v -0.10971646 0.07135528 0.37294990
f 1 2 9
f 1 9 16
f 1 16 27
f 1 27 30
f 1 30 36
f 1 36 20
f 1 20 10
f 1 10 3
f 1 3 4
f 1 4 5
f 1 5 6
f 1 6 12
f 1 12 24
f 1 24 42
f 1 42 44
f 1 44 56
f 1 56 62
f 1 62 61
f 1 61 50
f 1 50 34
f 1 34 31
f 1 31 17
f 1 17 14
f 1 14 7
f 1 7 2
f 2 7 8
f 2 8 9
f 3 10 19
f 3 19 35
f 3 35 52
f 3 52 60
f 3 60 59
f 3 59 58
f 3 58 57
f 3 57 55
f 3 55 54
f 3 54 53
f 3 53 37
f 3 37 21
f 3 21 11
f 3 11 4
f 4 11 23
f 4 23 41
f 4 41 45
f 4 45 26
f 4 26 13
f 4 13 6
f 4 6 5
f 6 13 12
f 7 14 8
f 8 15 16
f 8 16 9
f 8 14 17
f 8 17 18
f 8 18 15
f 10 20 19
f 11 21 22
f 11 22 23
f 12 13 25
f 12 25 24
f 13 26 25
f 15 27 16
f 15 18 28
f 15 28 29
f 15 29 30
f 15 30 27
f 17 31 18
f 18 32 33
f 18 33 28
f 18 31 34
f 18 34 32
f 19 20 36
f 19 36 29
f 19 29 35
f 21 37 22
f 22 37 38
f 22 38 39
f 22 39 40
f 22 40 23
f 23 40 41
f 24 25 42
f 25 26 40
f 25 40 43
f 25 43 44
f 25 44 42
f 26 45 40
f 28 33 46
f 28 46 47
f 28 47 29
f 29 36 30
f 29 47 35
f 32 48 49
f 32 49 33
f 32 34 50
f 32 50 48
f 33 49 51
f 33 51 46
f 35 47 52
f 37 53 38
f 38 53 54
f 38 54 55
f 38 55 51
f 38 51 39
f 39 51 49
f 39 49 43
f 39 43 40
f 40 45 41
f 43 49 48
f 43 48 44
f 44 48 56
f 46 51 57
f 46 57 58
f 46 58 47
f 47 58 59
f 47 59 60
f 47 60 52
f 48 50 61
f 48 61 62
f 48 62 56
f 51 55 57

