# https://github.com/mikedh/trimesh
v -0.12746849 -0.03456011 0.37420261
v -0.12727702 -0.03456011 0.37792780
v -0.12746849 -0.03381667 0.37797038
v -0.12746849 -0.02511465 0.37681827
v -0.12051089 -0.02511465 0.38344989
v -0.12050816 -0.03456011 0.38093155
v -0.12623791 -0.03456011 0.37896555
v -0.12708555 -0.03371773 0.37839132
v -0.12746849 -0.03234645 0.37841322
v -0.12746849 -0.02623904 0.38002641
v -0.12727702 -0.02530883 0.38043275
v -0.12589926 -0.02511465 0.38182210
v -0.12050816 -0.02511465 0.38512635
v -0.12050816 -0.02642768 0.38315913
v -0.12050816 -0.03456011 0.38416403
v -0.12507888 -0.03447596 0.38011887
v -0.12608460 -0.03404784 0.37928186
v -0.12459987 -0.03456011 0.38054225
v -0.12608460 -0.03200803 0.37989259
v -0.12727702 -0.03163909 0.37881591
v -0.12746849 -0.03032421 0.37898866
v -0.12746849 -0.02828995 0.37952639
v -0.12727702 -0.02756224 0.37990476
v -0.12608460 -0.02580075 0.38149484
v -0.12507888 -0.02511465 0.38260315
v -0.12050816 -0.02511465 0.38663127
v -0.12050816 -0.03363359 0.38444993
v -0.12106144 -0.03456011 0.38370537
v -0.12406975 -0.03266454 0.38161406
v -0.12507888 -0.03232981 0.38076488
v -0.12401660 -0.03456011 0.38108850
v -0.12507888 -0.03025394 0.38134763
v -0.12608460 -0.02995250 0.38046317
v -0.12727702 -0.02960852 0.37937919
v -0.12608460 -0.02788402 0.38099847
v -0.12507888 -0.02606058 0.38239511
v -0.12456852 -0.02511465 0.38307762
v -0.12113026 -0.02511465 0.38611787
v -0.12106144 -0.02703425 0.38574681
v -0.12050816 -0.02711100 0.38618235
v -0.12050816 -0.03147357 0.38506795
v -0.12106144 -0.03138480 0.38463607
v -0.12106144 -0.03353835 0.38401925
v -0.12160314 -0.03456011 0.38324064
v -0.12306130 -0.03299372 0.38243769
v -0.12306130 -0.03087532 0.38303990
v -0.12406975 -0.03056740 0.38220532
v -0.12291140 -0.03456011 0.38209218
v -0.12406975 -0.02845639 0.38275887
v -0.12507888 -0.02816512 0.38189022
v -0.12406975 -0.02633059 0.38327106
v -0.12406975 -0.02511465 0.38353992
v -0.12217482 -0.02511465 0.38522854
v -0.12205626 -0.02683730 0.38494751
v -0.12106144 -0.02921739 0.38521151
v -0.12050816 -0.02930061 0.38564583
v -0.12205626 -0.02900379 0.38441829
v -0.12050816 -0.03024377 0.38539522
v -0.12205626 -0.03115456 0.38384893
v -0.12205626 -0.03329239 0.38323942
v -0.12205626 -0.03456011 0.38285011
v -0.12306130 -0.02874304 0.38360075
v -0.12306130 -0.02659596 0.38412145
v -0.12324255 -0.02511465 0.38428812
f 1 2 3
f 1 3 9
f 1 9 21
f 1 21 22
f 1 22 10
f 1 10 4
f 1 4 5
f 1 5 6
f 1 6 15
f 1 15 28
f 1 28 44
f 1 44 61
f 1 61 48
f 1 48 31
f 1 31 18
f 1 18 7
f 1 7 2
f 2 7 8
f 2 8 3
f 3 8 9
f 4 10 11
f 4 11 12
f 4 12 25
f 4 25 37
f 4 37 52
f 4 52 64
f 4 64 53
f 4 53 38
f 4 38 26
f 4 26 13
f 4 13 5
f 5 13 14
f 5 14 6
f 6 14 13
f 6 13 26
f 6 26 40
f 6 40 56
f 6 56 58
f 6 58 41
f 6 41 27
f 6 27 15
f 7 16 17
f 7 17 8
f 7 18 16
f 8 17 19
f 8 19 20
f 8 20 9
f 9 20 21
f 10 22 23
f 10 23 24
f 10 24 11
f 11 24 12
f 12 24 25
f 15 27 28
f 16 18 29
f 16 29 30
f 16 30 17
f 17 30 19
f 18 31 29
f 19 30 32
f 19 32 33
f 19 33 20
f 20 33 34
f 20 34 21
f 21 34 22
f 22 34 23
f 23 34 35
f 23 35 24
f 24 36 25
f 24 35 36
f 25 36 37
f 26 38 39
f 26 39 40
f 27 41 42
f 27 42 43
f 27 43 28
f 28 43 44
f 29 45 46
f 29 46 47
f 29 47 30
f 29 31 45
f 30 47 32
f 31 48 45
f 32 47 49
f 32 49 50
f 32 50 33
f 33 50 35
f 33 35 34
f 35 50 36
f 36 50 51
f 36 51 37
f 37 51 52
f 38 53 54
f 38 54 39
f 39 55 56
f 39 56 40
f 39 54 57
f 39 57 55
f 41 58 42
f 42 58 56
f 42 56 55
f 42 55 59
f 42 59 60
f 42 60 43
f 43 60 44
f 44 60 61
f 45 48 60
f 45 60 59
f 45 59 46
f 46 59 57
f 46 57 62
f 46 62 47
f 47 62 49
f 48 61 60
f 49 62 63
f 49 63 51
f 49 51 50
f 51 63 64
f 51 64 52
f 53 64 63
f 53 63 54
f 54 63 62
f 54 62 57
f 55 57 59

