# https://github.com/mikedh/trimesh
v -0.02590674 0.08720591 0.37608634
v -0.02587005 0.08713221 0.37760358
v -0.02595390 0.07729982 0.38097157
v -0.02594342 0.08720591 0.37462748
v -0.02929221 0.08720591 0.37767128
v -0.02739247 0.08720009 0.37761290
v -0.02822835 0.08562923 0.37870472
v -0.02634433 0.08543142 0.37876930
v -0.02634433 0.08373063 0.37987851
v -0.02639674 0.08200560 0.38096660
v -0.04002509 0.08258352 0.38097157
v -0.05263938 0.07781859 0.38097157
v -0.05263938 0.08720591 0.37481815
v -0.03011237 0.08583189 0.37863205
v -0.03129938 0.08720591 0.37773214
v -0.03199639 0.08603843 0.37855069
v -0.03199639 0.08433279 0.37967977
v -0.03011237 0.08412722 0.37975430
v -0.02822835 0.08392650 0.37982013
v -0.02968788 0.08227032 0.38092064
v -0.02825455 0.08215687 0.38094238
v -0.04047055 0.08356870 0.38035300
v -0.04151868 0.08260970 0.38097157
v -0.03108451 0.08238086 0.38089642
v -0.03255714 0.08249431 0.38086972
v -0.03399833 0.08260388 0.38083991
v -0.03543951 0.08271152 0.38080761
v -0.03683615 0.08281624 0.38077221
v -0.03856557 0.08294811 0.38072066
v -0.04505876 0.08263685 0.38097157
v -0.04698208 0.08263782 0.38096784
v -0.04850187 0.08269697 0.38091381
v -0.04994830 0.08275612 0.38084488
v -0.05191879 0.08282012 0.38073433
v -0.05253981 0.08465957 0.37950463
v -0.05252409 0.08652520 0.37823954
v -0.05074488 0.08689949 0.37806130
v -0.04828963 0.08720591 0.37790914
v -0.03320960 0.08720591 0.37778493
v -0.03388041 0.08624885 0.37845878
v -0.03529277 0.08470127 0.37952575
v -0.03388041 0.08454224 0.37959531
v -0.04235457 0.08379269 0.38022382
v -0.03670775 0.08486320 0.37944936
v -0.03859177 0.08508331 0.37933757
v -0.04047055 0.08530634 0.37921398
v -0.04309613 0.08262619 0.38097157
v -0.04423859 0.08402444 0.38008036
v -0.04800663 0.08450345 0.37975057
v -0.04612261 0.08426298 0.37992323
v -0.04989065 0.08473520 0.37956053
v -0.05130301 0.08489811 0.37940589
v -0.04941899 0.08642727 0.37843145
v -0.04800663 0.08624982 0.37857802
v -0.04634272 0.08720591 0.37793150
v -0.03846861 0.08700034 0.37803770
v -0.03662128 0.08671817 0.37820041
v -0.03536614 0.08680737 0.37811036
v -0.04437223 0.08720591 0.37793771
v -0.04241222 0.08720397 0.37793647
v -0.04046007 0.08711282 0.37798553
v -0.04235457 0.08553324 0.37907610
v -0.04423859 0.08576693 0.37892519
v -0.04612261 0.08600740 0.37875937
f 1 2 3
f 1 3 4
f 1 4 13
f 1 13 38
f 1 38 55
f 1 55 59
f 1 59 39
f 1 39 15
f 1 15 5
f 1 5 6
f 1 6 2
f 2 6 7
f 2 7 8
f 2 8 9
f 2 9 10
f 2 10 3
f 3 10 11
f 3 11 23
f 3 23 47
f 3 47 30
f 3 30 12
f 3 12 13
f 3 13 4
f 5 14 6
f 5 15 16
f 5 16 14
f 6 14 7
f 7 14 17
f 7 17 18
f 7 18 8
f 8 18 19
f 8 19 9
f 9 19 20
f 9 20 21
f 9 21 10
f 10 21 11
f 11 22 23
f 11 21 20
f 11 20 24
f 11 24 25
f 11 25 26
f 11 26 27
f 11 27 28
f 11 28 29
f 11 29 22
f 12 30 31
f 12 31 32
f 12 32 33
f 12 33 34
f 12 34 35
f 12 35 13
f 13 35 36
f 13 36 37
f 13 37 38
f 14 16 17
f 15 39 40
f 15 40 16
f 16 40 41
f 16 41 42
f 16 42 17
f 17 42 26
f 17 26 25
f 17 25 18
f 18 24 19
f 18 25 24
f 19 24 20
f 22 43 23
f 22 29 44
f 22 44 45
f 22 45 46
f 22 46 43
f 23 43 47
f 26 42 27
f 27 42 41
f 27 41 28
f 28 41 44
f 28 44 29
f 30 47 43
f 30 43 48
f 30 48 31
f 31 49 32
f 31 48 50
f 31 50 49
f 32 49 51
f 32 51 33
f 33 52 34
f 33 51 52
f 34 52 35
f 35 52 36
f 36 52 37
f 37 52 53
f 37 53 38
f 38 53 54
f 38 54 55
f 39 56 57
f 39 57 58
f 39 58 40
f 39 59 60
f 39 60 61
f 39 61 56
f 40 58 57
f 40 57 44
f 40 44 41
f 43 62 48
f 43 46 62
f 44 57 45
f 45 57 56
f 45 56 46
f 46 56 61
f 46 61 62
f 48 63 50
f 48 62 63
f 49 54 51
f 49 50 64
f 49 64 54
f 50 63 64
f 51 53 52
f 51 54 53
f 54 64 55
f 55 64 59
f 59 64 63
f 59 63 60
f 60 63 62
f 60 62 61

