# https://github.com/mikedh/trimesh
v -0.00100211 -0.00012000 0.40221064
v -0.00097247 -0.00156035 0.40220351
v -0.00059209 -0.00590348 0.40209516
v -0.00058962 -0.00590348 0.40029850
v -0.00100211 -0.00012000 0.39980952
v -0.02570711 -0.00012000 0.40333368
v -0.00093542 -0.00227939 0.40219317
v -0.00067607 -0.00534806 0.40211904
v -0.00707833 -0.00590348 0.40238777
v -0.00059209 -0.00590348 0.39969261
v -0.00117748 -0.00590348 0.39969475
v -0.00126393 -0.00590348 0.39969511
v -0.02582073 -0.00590348 0.40080853
v -0.02582320 -0.00012000 0.40093648
v -0.02575404 -0.00590348 0.40226196
v -0.02570711 -0.00590348 0.40320573
v -0.00089837 -0.00299844 0.40218248
v -0.01683732 -0.00590348 0.40281689
v -0.02581085 -0.00590348 0.40105695
f 1 2 3
f 1 3 4
f 1 4 5
f 1 5 14
f 1 14 6
f 1 6 2
f 2 7 3
f 2 6 7
f 3 7 8
f 3 8 9
f 3 9 18
f 3 18 16
f 3 16 15
f 3 15 19
f 3 19 13
f 3 13 12
f 3 12 11
f 3 11 10
f 3 10 4
f 4 10 5
f 5 10 11
f 5 11 12
f 5 12 13
f 5 13 14
f 6 14 15
f 6 15 16
f 6 16 17
f 6 17 7
f 7 17 8
f 8 17 18
f 8 18 9
f 13 19 14
f 14 19 15
f 16 18 17

