# https://github.com/mikedh/trimesh
v 0.06480017 -0.08899248 0.23594584
v 0.06616437 -0.08897018 0.23690797
v 0.06479297 -0.08924632 0.23620541
v 0.06479297 -0.08897018 0.23984741
v 0.06479297 -0.08985005 0.23683990
v 0.06671581 -0.08897018 0.23733712
v 0.06619914 -0.08975143 0.23775588
v 0.06479297 -0.09335065 0.24507910
v 0.07289430 -0.08897018 0.24773013
v 0.06479297 -0.09074149 0.23780549
v 0.06718214 -0.08897018 0.23771320
v 0.06752978 -0.08897662 0.23800045
v 0.06621233 -0.09025182 0.23831078
v 0.06479297 -0.09304793 0.24041845
v 0.06487329 -0.09335065 0.24083261
v 0.06510705 -0.09335065 0.24538020
v 0.06756934 -0.09335065 0.24773013
v 0.07703967 -0.08897018 0.24773013
v 0.06717135 -0.09335065 0.24735290
v 0.06479297 -0.09098247 0.23806967
v 0.06622671 -0.09075179 0.23886682
v 0.07062862 -0.08897018 0.24083145
v 0.06756814 -0.08927762 0.23836154
v 0.06479297 -0.09267575 0.23998007
v 0.06620633 -0.09176286 0.23999968
v 0.06617277 -0.09227569 0.24057534
v 0.06551224 -0.09335065 0.24133905
v 0.07176626 -0.09335065 0.24736905
v 0.07210071 -0.09325289 0.24761477
v 0.07278402 -0.09274950 0.24773013
v 0.07580014 -0.09013519 0.24773013
v 0.07576537 -0.08897018 0.24625580
v 0.06479297 -0.09122388 0.23833615
v 0.06622551 -0.09100305 0.23914716
v 0.06479297 -0.09182889 0.23900872
v 0.07172430 -0.08897018 0.24185126
v 0.07020665 -0.08976901 0.24133097
v 0.06741230 -0.09097518 0.24017273
v 0.06622431 -0.09125475 0.23942980
v 0.07020665 -0.09204629 0.24403968
v 0.06862067 -0.09256040 0.24319292
v 0.06687405 -0.09335065 0.24254113
v 0.06606847 -0.09335065 0.24179819
v 0.07225296 -0.09195324 0.24604815
v 0.07284036 -0.09206558 0.24685569
v 0.07153249 -0.09335065 0.24710833
v 0.07430287 -0.09113469 0.24731367
v 0.07305734 -0.08945643 0.24378011
v 0.07372386 -0.08897018 0.24393817
v 0.07197484 -0.08897018 0.24209236
v 0.07173149 -0.08942255 0.24236347
v 0.07020665 -0.09090829 0.24268302
v 0.07020545 -0.09259642 0.24473070
v 0.07171591 -0.09063473 0.24379050
v 0.07169433 -0.09123760 0.24451267
v 0.07020305 -0.09324817 0.24555209
v 0.07046918 -0.09335065 0.24595816
v 0.07166436 -0.09184047 0.24524176
v 0.07073890 -0.09335065 0.24624311
v 0.07308131 -0.08897018 0.24322291
v 0.07167994 -0.09153861 0.24487721
v 0.07221939 -0.08897018 0.24233462
f 1 2 3
f 1 3 4
f 1 4 2
f 2 5 3
f 2 4 9
f 2 9 18
f 2 18 32
f 2 32 49
f 2 49 60
f 2 60 62
f 2 62 50
f 2 50 36
f 2 36 22
f 2 22 11
f 2 11 6
f 2 6 7
f 2 7 5
f 3 5 10
f 3 10 20
f 3 20 33
f 3 33 35
f 3 35 24
f 3 24 14
f 3 14 8
f 3 8 4
f 4 8 9
f 5 7 10
f 6 11 7
f 7 11 12
f 7 12 13
f 7 13 10
f 8 14 15
f 8 15 27
f 8 27 43
f 8 43 42
f 8 42 57
f 8 57 59
f 8 59 46
f 8 46 28
f 8 28 17
f 8 17 19
f 8 19 16
f 8 16 9
f 9 17 30
f 9 30 31
f 9 31 18
f 9 16 19
f 9 19 17
f 10 13 21
f 10 21 20
f 11 22 12
f 12 23 21
f 12 21 13
f 12 22 23
f 14 24 15
f 15 24 25
f 15 25 26
f 15 26 27
f 17 28 29
f 17 29 30
f 18 31 32
f 20 21 33
f 21 23 34
f 21 34 35
f 21 35 33
f 22 36 37
f 22 37 23
f 23 38 39
f 23 39 34
f 23 37 38
f 24 35 39
f 24 39 25
f 25 39 38
f 25 38 26
f 26 38 40
f 26 40 41
f 26 41 42
f 26 42 43
f 26 43 27
f 28 44 45
f 28 45 29
f 28 46 44
f 29 45 30
f 30 45 47
f 30 47 31
f 31 47 48
f 31 48 32
f 32 48 49
f 34 39 35
f 36 50 51
f 36 51 37
f 37 51 52
f 37 52 38
f 38 52 40
f 40 53 42
f 40 42 41
f 40 52 54
f 40 54 55
f 40 55 53
f 42 53 56
f 42 56 57
f 44 47 45
f 44 46 58
f 44 58 47
f 46 59 58
f 47 58 48
f 48 60 49
f 48 58 61
f 48 61 55
f 48 55 54
f 48 54 60
f 50 62 51
f 51 62 60
f 51 60 54
f 51 54 52
f 53 55 61
f 53 61 58
f 53 58 56
f 56 58 57
f 57 58 59

