# https://github.com/mikedh/trimesh
v 0.11339106 0.06155812 0.27649206
v 0.11514204 0.06156393 0.28156766
v 0.11365836 0.06156393 0.27726665
v 0.11388061 0.06156393 0.27642969
v 0.11423652 0.05989931 0.27642969
v 0.11804032 0.06156393 0.28156766
v 0.12145367 0.04665013 0.27642969
v 0.12603836 0.04178983 0.28156766
v 0.11635541 0.06156393 0.27642969
v 0.11864400 0.06063097 0.28156766
v 0.11792318 0.06156393 0.28109285
v 0.12706402 0.04178983 0.27642969
v 0.12441202 0.04178983 0.27649860
v 0.12873240 0.04178983 0.28156766
v 0.11668578 0.06156393 0.27727168
v 0.11907949 0.05713915 0.27642969
v 0.12245230 0.05439059 0.28156766
v 0.12017273 0.05700753 0.27919660
v 0.12701446 0.04193307 0.27642969
v 0.12846810 0.04252149 0.28156766
v 0.12012016 0.05679655 0.27866897
v 0.12011416 0.05618683 0.27761271
v 0.12018624 0.05542420 0.27656248
v 0.12019676 0.05532162 0.27642969
v 0.12286527 0.05365700 0.28156766
v 0.12248234 0.05423187 0.28135943
v 0.12695439 0.04209759 0.27642969
v 0.12839302 0.04272666 0.28156766
v 0.12090705 0.05573777 0.27921270
v 0.12415523 0.05083877 0.28075887
v 0.12579658 0.04778826 0.28062708
v 0.12582812 0.04743985 0.28015780
v 0.12058119 0.05462093 0.27642969
v 0.12305899 0.05330859 0.28156766
v 0.12465079 0.05039358 0.28149976
v 0.12412219 0.05118717 0.28122765
v 0.12689132 0.04226793 0.27642969
v 0.12803862 0.04265892 0.28040024
v 0.12803411 0.04336928 0.28123922
v 0.12827739 0.04302087 0.28156766
v 0.12576355 0.04813667 0.28109586
v 0.12655494 0.04683014 0.28156766
v 0.12665856 0.04662109 0.28156766
v 0.12584464 0.04681078 0.27924136
v 0.12586116 0.04617977 0.27832543
v 0.12584614 0.04558555 0.27742962
v 0.12582812 0.04497583 0.27654588
v 0.12582812 0.04488873 0.27642969
v 0.12478144 0.05019421 0.28156766
v 0.12573501 0.04846572 0.28156766
v 0.12682975 0.04243052 0.27642969
v 0.12661801 0.04297442 0.27642969
v 0.12814674 0.04335186 0.28156766
v 0.12637624 0.04358413 0.27642969
v 0.12782538 0.04411836 0.28156766
v 0.12799808 0.04370801 0.28156766
v 0.12606238 0.04781729 0.28156766
v 0.12712559 0.04564555 0.28156766
v 0.12738388 0.04510164 0.28156766
v 0.12762565 0.04457129 0.28156766
f 1 2 3
f 1 3 4
f 1 4 5
f 1 5 2
f 2 6 11
f 2 11 15
f 2 15 9
f 2 9 4
f 2 4 3
f 2 5 7
f 2 7 8
f 2 8 14
f 2 14 20
f 2 20 28
f 2 28 40
f 2 40 53
f 2 53 56
f 2 56 55
f 2 55 60
f 2 60 59
f 2 59 58
f 2 58 43
f 2 43 42
f 2 42 57
f 2 57 50
f 2 50 49
f 2 49 34
f 2 34 25
f 2 25 17
f 2 17 10
f 2 10 6
f 4 9 16
f 4 16 24
f 4 24 33
f 4 33 48
f 4 48 54
f 4 54 52
f 4 52 51
f 4 51 37
f 4 37 27
f 4 27 19
f 4 19 12
f 4 12 7
f 4 7 5
f 6 10 11
f 7 12 13
f 7 13 8
f 8 13 12
f 8 12 14
f 9 15 16
f 10 17 18
f 10 18 11
f 11 18 15
f 12 19 14
f 14 19 20
f 15 18 21
f 15 21 22
f 15 22 23
f 15 23 16
f 16 23 24
f 17 25 26
f 17 26 18
f 18 26 21
f 19 27 20
f 20 27 28
f 21 26 29
f 21 29 22
f 22 29 26
f 22 26 23
f 23 26 30
f 23 30 31
f 23 31 32
f 23 32 24
f 24 32 33
f 25 34 26
f 26 34 35
f 26 35 36
f 26 36 30
f 27 37 38
f 27 38 28
f 28 38 39
f 28 39 40
f 30 36 41
f 30 41 31
f 31 41 42
f 31 42 32
f 32 42 43
f 32 43 44
f 32 44 33
f 33 44 45
f 33 45 46
f 33 46 47
f 33 47 48
f 34 49 35
f 35 49 50
f 35 50 41
f 35 41 36
f 37 51 38
f 38 51 52
f 38 52 39
f 39 53 40
f 39 52 54
f 39 54 48
f 39 48 55
f 39 55 56
f 39 56 53
f 41 50 57
f 41 57 42
f 43 58 44
f 44 58 45
f 45 58 59
f 45 59 60
f 45 60 46
f 46 60 55
f 46 55 47
f 47 55 48

