# https://github.com/mikedh/trimesh
v 0.11129976 0.06054256 0.27032786
v 0.11129976 0.06055850 0.27034936
v 0.11129976 0.06156393 0.27032786
v 0.11380424 0.05537564 0.27032786
v 0.11129976 0.06156393 0.27167044
v 0.11379121 0.06156393 0.27032786
v 0.11493752 0.05345797 0.27032786
v 0.11464272 0.05920976 0.27642919
v 0.11441030 0.05960335 0.27642919
v 0.11423547 0.05990007 0.27642919
v 0.11336957 0.06155535 0.27642919
v 0.11315430 0.06156393 0.27588869
v 0.11393107 0.06156393 0.27060976
v 0.11473047 0.06022622 0.27032786
v 0.11620793 0.05130856 0.27032786
v 0.11830379 0.05356465 0.27642919
v 0.11388034 0.06156393 0.27642919
v 0.11442196 0.06156393 0.27160057
v 0.11501157 0.05971983 0.27032786
v 0.11470511 0.06104650 0.27144110
v 0.11830379 0.05779603 0.27555185
v 0.11830379 0.05778499 0.27553632
v 0.11830379 0.05746497 0.27509318
v 0.11830379 0.05711920 0.27463450
v 0.11830379 0.04903776 0.27032786
v 0.11830379 0.05839438 0.27642919
v 0.11635327 0.06156393 0.27642919
v 0.11461461 0.06156393 0.27202042
v 0.11830379 0.05673542 0.27415433
v 0.11830379 0.05641172 0.27375060
v 0.11830379 0.05568217 0.27291209
v 0.11830379 0.05548967 0.27270186
v 0.11830379 0.05547864 0.27268991
v 0.11830379 0.05530575 0.27250298
v 0.11830379 0.05509854 0.27228380
v 0.11830379 0.05491952 0.27209806
v 0.11830379 0.05451367 0.27169552
v 0.11830379 0.05411640 0.27130434
v 0.11830379 0.05326792 0.27055660
v 0.11830379 0.05323727 0.27052973
v 0.11830379 0.05300675 0.27032786
v 0.11464820 0.06156393 0.27209388
v 0.11830379 0.05836986 0.27639275
v 0.11830379 0.05803267 0.27589825
v 0.11612017 0.06156393 0.27583494
f 1 2 5
f 1 5 3
f 1 3 6
f 1 6 14
f 1 14 19
f 1 19 41
f 1 41 25
f 1 25 15
f 1 15 7
f 1 7 4
f 1 4 2
f 2 4 5
f 3 5 12
f 3 12 17
f 3 17 27
f 3 27 45
f 3 45 42
f 3 42 28
f 3 28 18
f 3 18 13
f 3 13 6
f 4 7 8
f 4 8 9
f 4 9 10
f 4 10 11
f 4 11 5
f 5 11 12
f 6 13 14
f 7 15 8
f 8 15 16
f 8 16 26
f 8 26 27
f 8 27 17
f 8 17 11
f 8 11 10
f 8 10 9
f 11 17 12
f 13 18 14
f 14 18 20
f 14 20 21
f 14 21 22
f 14 22 23
f 14 23 24
f 14 24 19
f 15 25 16
f 16 25 41
f 16 41 40
f 16 40 39
f 16 39 38
f 16 38 37
f 16 37 36
f 16 36 35
f 16 35 34
f 16 34 33
f 16 33 32
f 16 32 31
f 16 31 30
f 16 30 29
f 16 29 24
f 16 24 23
f 16 23 22
f 16 22 21
f 16 21 44
f 16 44 43
f 16 43 26
f 18 28 20
f 19 24 29
f 19 29 30
f 19 30 31
f 19 31 32
f 19 32 33
f 19 33 34
f 19 34 35
f 19 35 36
f 19 36 37
f 19 37 38
f 19 38 39
f 19 39 40
f 19 40 41
f 20 28 42
f 20 42 26
f 20 26 43
f 20 43 44
f 20 44 21
f 26 42 45
f 26 45 27

