# https://github.com/mikedh/trimesh
v 0.06919813 -0.07097010 0.37415724
v 0.06919813 -0.07482440 0.37415724
v 0.06919813 -0.07277325 0.37251273
v 0.05840900 -0.07622090 0.37415724
v 0.06910941 -0.07488009 0.37415724
v 0.06919813 -0.07662125 0.37251273
v 0.05840900 -0.07804928 0.37251273
v 0.05840900 -0.07985559 0.37415724
v 0.06918440 -0.07662966 0.37251273
v 0.06874928 -0.07508815 0.37415724
v 0.06571511 -0.07863457 0.37251273
v 0.05840900 -0.08170393 0.37251273
v 0.05841323 -0.07987345 0.37415724
v 0.06591682 -0.07672213 0.37415724
v 0.06524303 -0.07706574 0.37415724
v 0.06495894 -0.07901916 0.37251273
v 0.05869626 -0.08160831 0.37251273
v 0.05868359 -0.07978308 0.37415724
v 0.06457769 -0.07740304 0.37415724
v 0.06453756 -0.07923247 0.37251273
v 0.05956015 -0.08131724 0.37251273
v 0.05928029 -0.07958238 0.37415724
v 0.06413412 -0.07760374 0.37415724
v 0.06383102 -0.07955191 0.37251273
v 0.06076200 -0.08084964 0.37251273
v 0.05968477 -0.07944578 0.37415724
v 0.06332515 -0.07796942 0.37415724
v 0.06313505 -0.07986609 0.37251273
v 0.06156991 -0.08053440 0.37251273
v 0.06197334 -0.07855471 0.37415724
v 0.06132067 -0.07880900 0.37415724
v 0.06298403 -0.07812283 0.37415724
v 0.06227644 -0.07842546 0.37415724
v 0.06235776 -0.08019815 0.37251273
f 1 2 6
f 1 6 3
f 1 3 4
f 1 4 8
f 1 8 13
f 1 13 18
f 1 18 22
f 1 22 26
f 1 26 31
f 1 31 30
f 1 30 33
f 1 33 32
f 1 32 27
f 1 27 23
f 1 23 19
f 1 19 15
f 1 15 14
f 1 14 10
f 1 10 5
f 1 5 2
f 2 5 6
f 3 6 9
f 3 9 11
f 3 11 16
f 3 16 20
f 3 20 24
f 3 24 28
f 3 28 34
f 3 34 29
f 3 29 25
f 3 25 21
f 3 21 17
f 3 17 12
f 3 12 7
f 3 7 4
f 4 7 12
f 4 12 8
f 5 9 6
f 5 10 11
f 5 11 9
f 8 12 13
f 10 14 11
f 11 14 15
f 11 15 16
f 12 17 13
f 13 17 18
f 15 19 16
f 16 19 20
f 17 21 22
f 17 22 18
f 19 23 20
f 20 23 24
f 21 25 26
f 21 26 22
f 23 27 24
f 24 27 28
f 25 29 30
f 25 30 31
f 25 31 26
f 27 32 28
f 28 32 33
f 28 33 34
f 29 34 33
f 29 33 30

