# https://github.com/mikedh/trimesh
v -0.11121737 0.03503720 0.31489990
v -0.11063542 0.03252279 0.31489990
v -0.11063542 0.03253181 0.31482849
v -0.11121737 0.03503720 0.31392080
v -0.11499999 0.03503720 0.31489990
v -0.11063542 0.03240396 0.31489990
v -0.11063542 0.03253181 0.31392080
v -0.11499999 0.03503720 0.31392080
v -0.11499999 0.03240396 0.31489990
v -0.11063542 0.03240396 0.31392080
v -0.11499999 0.03240396 0.31392080
f 1 2 3
f 1 3 7
f 1 7 4
f 1 4 8
f 1 8 5
f 1 5 9
f 1 9 6
f 1 6 2
f 2 6 10
f 2 10 7
f 2 7 3
f 4 7 10
f 4 10 11
f 4 11 8
f 5 8 11
f 5 11 9
f 6 9 11
f 6 11 10

