# https://github.com/mikedh/trimesh
v -0.15207475 0.05489033 0.32048851
v -0.15207475 0.05489033 0.32214155
v -0.15207475 0.05490284 0.32047661
v -0.15207129 0.05489033 0.32047661
v -0.15011006 0.05489033 0.32214155
v -0.15207475 0.05725651 0.32214155
v -0.15207475 0.05725651 0.32047661
v -0.15061667 0.05489033 0.32047661
v -0.15054492 0.05725651 0.32047661
v -0.15021757 0.05725651 0.32214155
f 1 2 6
f 1 6 7
f 1 7 3
f 1 3 4
f 1 4 8
f 1 8 5
f 1 5 2
f 2 5 10
f 2 10 6
f 3 7 9
f 3 9 8
f 3 8 4
f 5 8 9
f 5 9 10
f 6 10 9
f 6 9 7

