# https://github.com/mikedh/trimesh
v 0.12304328 -0.05059167 0.27823711
v 0.12354522 -0.04996530 0.27823711
v 0.12304328 -0.04594262 0.27823711
v 0.12304328 -0.04178983 0.26761923
v 0.12359077 -0.04990585 0.27823711
v 0.12497531 -0.04178983 0.27823711
v 0.12304328 -0.04178983 0.27339172
v 0.12583129 -0.04178983 0.27262884
v 0.12582994 -0.04224130 0.27313500
v 0.12415677 -0.04823785 0.27724766
v 0.12375403 -0.04968012 0.27823711
v 0.12363993 -0.04984124 0.27823711
v 0.12765013 -0.04178983 0.27823711
v 0.12636481 -0.04178983 0.27426892
v 0.12582092 -0.04365686 0.27481457
v 0.12415226 -0.04894520 0.27808641
v 0.12753557 -0.04211637 0.27823711
v 0.12744854 -0.04235244 0.27823711
v 0.12738134 -0.04253423 0.27823711
v 0.12718019 -0.04304514 0.27823711
v 0.12407604 -0.04918730 0.27823711
v 0.12762983 -0.04184928 0.27823711
v 0.12730693 -0.04178983 0.27717491
v 0.12661330 -0.04178983 0.27503283
v 0.12582994 -0.04497421 0.27654507
v 0.12700025 -0.04350178 0.27823711
v 0.12686225 -0.04383004 0.27823711
v 0.12465421 -0.04822751 0.27823711
v 0.12584752 -0.04558334 0.27742851
v 0.12662458 -0.04439437 0.27823711
v 0.12650191 -0.04468558 0.27823711
v 0.12484182 -0.04790356 0.27823711
v 0.12585519 -0.04588144 0.27787646
v 0.12515616 -0.04736077 0.27823711
v 0.12635489 -0.04502073 0.27823711
v 0.12622636 -0.04531367 0.27823711
v 0.12619478 -0.04538518 0.27823711
v 0.12616818 -0.04544463 0.27823711
v 0.12586106 -0.04612096 0.27823711
f 1 2 5
f 1 5 12
f 1 12 11
f 1 11 21
f 1 21 28
f 1 28 32
f 1 32 34
f 1 34 39
f 1 39 38
f 1 38 37
f 1 37 36
f 1 36 35
f 1 35 31
f 1 31 30
f 1 30 27
f 1 27 26
f 1 26 20
f 1 20 19
f 1 19 18
f 1 18 17
f 1 17 22
f 1 22 13
f 1 13 6
f 1 6 3
f 1 3 7
f 1 7 4
f 1 4 2
f 2 4 5
f 3 6 7
f 4 7 6
f 4 6 13
f 4 13 23
f 4 23 24
f 4 24 14
f 4 14 8
f 4 8 9
f 4 9 10
f 4 10 11
f 4 11 12
f 4 12 5
f 8 14 9
f 9 15 16
f 9 16 10
f 9 14 17
f 9 17 18
f 9 18 19
f 9 19 20
f 9 20 15
f 10 16 11
f 11 16 21
f 13 22 23
f 14 24 17
f 15 25 16
f 15 20 26
f 15 26 27
f 15 27 25
f 16 25 28
f 16 28 21
f 17 24 23
f 17 23 22
f 25 29 28
f 25 27 30
f 25 30 31
f 25 31 29
f 28 29 32
f 29 33 34
f 29 34 32
f 29 31 35
f 29 35 36
f 29 36 37
f 29 37 38
f 29 38 33
f 33 38 39
f 33 39 34

