# https://github.com/mikedh/trimesh
v -0.16372227 -0.01108212 0.29537281
v -0.16650133 -0.01108212 0.29645481
v -0.16625429 -0.01080744 0.29539604
v -0.16637128 -0.00969803 0.29537281
v -0.16438063 -0.00012101 0.29537281
v -0.16625678 -0.01108212 0.30932956
v -0.16676393 -0.01108212 0.29749310
v -0.16707942 -0.00918624 0.29784284
v -0.16647208 -0.00866909 0.29537281
v -0.16707942 -0.00806717 0.29739200
v -0.16681993 -0.00351470 0.29537281
v -0.16698359 -0.00036135 0.29569250
v -0.16776516 -0.00012101 0.30763415
v -0.16773778 -0.00339025 0.30932956
v -0.16934945 -0.00791374 0.30932956
v -0.16879315 -0.01067976 0.30924213
v -0.16865376 -0.01108212 0.30834182
v -0.16726921 -0.01108212 0.29962705
v -0.16705452 -0.01063792 0.29843849
v -0.16807940 -0.00787726 0.30135935
v -0.16807940 -0.00677106 0.30083474
v -0.16656729 -0.00758327 0.29537281
v -0.16707942 -0.00729895 0.29712560
v -0.16807940 -0.00560907 0.30039210
v -0.16677388 -0.00453077 0.29537281
v -0.16707942 -0.00409301 0.29634279
v -0.16707942 -0.00326578 0.29621710
v -0.16696741 -0.00243533 0.29574714
v -0.16698048 -0.00126261 0.29570616
v -0.16807940 -0.00052443 0.29950820
v -0.16907939 -0.00047400 0.30317362
v -0.17007938 -0.00067250 0.30705626
v -0.17005947 -0.00394710 0.30909321
v -0.16987465 -0.00512733 0.30932956
v -0.16962699 -0.00645347 0.30932956
v -0.16910490 -0.00903066 0.30889239
v -0.16857535 -0.01108212 0.30741829
v -0.16754985 -0.01108212 0.30093037
v -0.16807940 -0.00892015 0.30196183
v -0.16907939 -0.00529685 0.30449470
v -0.16907939 -0.00413700 0.30394140
v -0.16663200 -0.00676892 0.29537281
v -0.16707942 -0.00651570 0.29688789
v -0.16807940 -0.00470995 0.30011341
v -0.16907939 -0.00292566 0.30353565
v -0.16669921 -0.00580542 0.29537281
v -0.16707942 -0.00491166 0.29649580
v -0.16807940 -0.00386234 0.29990712
v -0.16807940 -0.00284197 0.29971722
v -0.16807940 -0.00156840 0.29956557
v -0.16907939 -0.00163277 0.30327608
v -0.17007938 -0.00191066 0.30740053
v -0.17007938 -0.00332694 0.30841833
v -0.16907939 -0.00794593 0.30673658
v -0.16907939 -0.00866909 0.30780492
v -0.16842290 -0.01108212 0.30603847
v -0.16780934 -0.01108212 0.30220911
v -0.16807940 -0.00988794 0.30263535
v -0.16907939 -0.00633330 0.30516959
v -0.17007938 -0.00268747 0.30786093
v -0.16707942 -0.00571959 0.29667887
v -0.16907939 -0.00714874 0.30585130
v -0.16825053 -0.01108212 0.30476520
v -0.16806073 -0.01093941 0.30343456
f 1 2 3
f 1 3 4
f 1 4 9
f 1 9 22
f 1 22 42
f 1 42 46
f 1 46 25
f 1 25 11
f 1 11 5
f 1 5 6
f 1 6 17
f 1 17 37
f 1 37 56
f 1 56 63
f 1 63 57
f 1 57 38
f 1 38 18
f 1 18 7
f 1 7 2
f 2 7 8
f 2 8 3
f 3 8 4
f 4 8 10
f 4 10 9
f 5 11 12
f 5 12 13
f 5 13 6
f 6 13 14
f 6 14 34
f 6 34 35
f 6 35 15
f 6 15 16
f 6 16 17
f 7 18 19
f 7 19 8
f 8 19 20
f 8 20 21
f 8 21 10
f 9 10 23
f 9 23 22
f 10 21 24
f 10 24 23
f 11 25 26
f 11 26 27
f 11 27 28
f 11 28 29
f 11 29 12
f 12 29 30
f 12 30 31
f 12 31 13
f 13 31 32
f 13 32 33
f 13 33 14
f 14 33 34
f 15 35 36
f 15 36 16
f 16 36 17
f 17 36 37
f 18 38 39
f 18 39 20
f 18 20 19
f 20 39 40
f 20 40 41
f 20 41 21
f 21 41 24
f 22 23 43
f 22 43 42
f 23 24 44
f 23 44 43
f 24 41 45
f 24 45 44
f 25 46 47
f 25 47 26
f 26 47 48
f 26 48 49
f 26 49 27
f 27 49 50
f 27 50 28
f 28 50 29
f 29 50 30
f 30 50 31
f 31 51 32
f 31 50 51
f 32 52 60
f 32 60 53
f 32 53 33
f 32 51 45
f 32 45 52
f 33 53 54
f 33 54 55
f 33 55 34
f 34 55 35
f 35 55 36
f 36 55 37
f 37 55 56
f 38 57 58
f 38 58 39
f 39 58 59
f 39 59 40
f 40 59 60
f 40 60 52
f 40 52 41
f 41 52 45
f 42 43 61
f 42 61 46
f 43 44 61
f 44 45 48
f 44 48 61
f 45 51 48
f 46 61 47
f 47 61 48
f 48 51 49
f 49 51 50
f 53 60 62
f 53 62 54
f 54 62 63
f 54 63 56
f 54 56 55
f 57 63 64
f 57 64 58
f 58 64 62
f 58 62 59
f 59 62 60
f 62 64 63

