# https://github.com/mikedh/trimesh
v -0.12003918 0.01808501 0.38830512
v -0.12106082 0.02040956 0.38709752
v -0.12109890 0.01799935 0.38745743
v -0.12001076 0.01781648 0.38524349
v -0.12002845 0.02282471 0.38749176
v -0.12004615 0.02051335 0.38790495
v -0.12205619 0.02026294 0.38628416
v -0.12106082 0.02262866 0.38669024
v -0.12205619 0.02246557 0.38588044
v -0.12205619 0.01793345 0.38666183
v -0.12325427 0.01783460 0.38563063
v -0.12002845 0.02504382 0.38703714
v -0.12406997 0.01781648 0.38490133
v -0.12548954 0.01781648 0.38022600
v -0.12548954 0.03464678 0.37621011
v -0.12001076 0.03464678 0.38133534
v -0.12106082 0.02483789 0.38623917
v -0.12306013 0.02007842 0.38544001
v -0.12306013 0.02226293 0.38504103
v -0.12205619 0.02465832 0.38543410
v -0.12306013 0.02443427 0.38460298
v -0.12406997 0.01987908 0.38456746
v -0.12002845 0.02944415 0.38600120
v -0.12004615 0.02716902 0.38654580
v -0.12106082 0.02703229 0.38574784
v -0.12504174 0.01781648 0.38400391
v -0.12507928 0.01967644 0.38367123
v -0.12548954 0.01781648 0.38358007
v -0.12548954 0.03448533 0.37971809
v -0.12421370 0.03464678 0.38088071
v -0.12004615 0.03464678 0.38452129
v -0.12002845 0.03378846 0.38479832
v -0.12205619 0.02683459 0.38494750
v -0.12406997 0.02204053 0.38417677
v -0.12406997 0.02419209 0.38374463
v -0.12306013 0.02659242 0.38412230
v -0.12406997 0.02632883 0.38327106
v -0.12507928 0.02181648 0.38328527
v -0.12004615 0.03154464 0.38543055
v -0.12106082 0.02921515 0.38521270
v -0.12205619 0.02900098 0.38441947
v -0.12548954 0.01959572 0.38329474
v -0.12548954 0.01872751 0.38343444
v -0.12548954 0.02172587 0.38291233
v -0.12528414 0.03226293 0.38058828
v -0.12507928 0.03451828 0.38010524
v -0.12528414 0.02810478 0.38171064
v -0.12528414 0.03019209 0.38116959
v -0.12406997 0.03266490 0.38161593
v -0.12306013 0.03464678 0.38193559
v -0.12106082 0.03464678 0.38367952
v -0.12106082 0.03353970 0.38402049
v -0.12306013 0.02874069 0.38360138
v -0.12528414 0.02600758 0.38221381
v -0.12528414 0.02389555 0.38267555
v -0.12406997 0.02845239 0.38275961
v -0.12106082 0.03138484 0.38463731
v -0.12205619 0.03115419 0.38384882
v -0.12306013 0.03087578 0.38304019
v -0.12406997 0.03056606 0.38220790
v -0.12306013 0.03299439 0.38243757
v -0.12205619 0.03329093 0.38323909
v -0.12205619 0.03464678 0.38282472
f 1 2 3
f 1 3 4
f 1 4 5
f 1 5 6
f 1 6 2
f 2 7 3
f 2 6 8
f 2 8 9
f 2 9 7
f 3 10 11
f 3 11 4
f 3 7 10
f 4 12 5
f 4 11 13
f 4 13 26
f 4 26 28
f 4 28 14
f 4 14 15
f 4 15 16
f 4 16 12
f 5 8 6
f 5 12 17
f 5 17 8
f 7 18 10
f 7 9 19
f 7 19 18
f 8 17 20
f 8 20 9
f 9 20 21
f 9 21 19
f 10 18 11
f 11 18 22
f 11 22 13
f 12 16 23
f 12 23 24
f 12 24 25
f 12 25 17
f 13 22 27
f 13 27 26
f 14 28 43
f 14 43 42
f 14 42 44
f 14 44 29
f 14 29 15
f 15 29 30
f 15 30 50
f 15 50 63
f 15 63 51
f 15 51 31
f 15 31 16
f 16 31 32
f 16 32 23
f 17 25 33
f 17 33 20
f 18 19 34
f 18 34 22
f 19 21 35
f 19 35 34
f 20 33 36
f 20 36 21
f 21 36 37
f 21 37 35
f 22 34 38
f 22 38 27
f 23 39 40
f 23 40 24
f 23 32 39
f 24 40 25
f 25 40 41
f 25 41 33
f 26 27 28
f 27 42 43
f 27 43 28
f 27 38 44
f 27 44 42
f 29 45 46
f 29 46 30
f 29 44 47
f 29 47 48
f 29 48 45
f 30 46 49
f 30 49 50
f 31 51 52
f 31 52 32
f 32 52 39
f 33 41 53
f 33 53 36
f 34 35 38
f 35 37 54
f 35 54 55
f 35 55 38
f 36 53 56
f 36 56 37
f 37 56 47
f 37 47 54
f 38 55 44
f 39 57 40
f 39 52 57
f 40 57 58
f 40 58 41
f 41 58 59
f 41 59 53
f 44 55 54
f 44 54 47
f 45 49 46
f 45 48 60
f 45 60 49
f 47 56 48
f 48 56 60
f 49 61 50
f 49 60 59
f 49 59 61
f 50 61 62
f 50 62 63
f 51 63 52
f 52 63 62
f 52 62 57
f 53 59 60
f 53 60 56
f 57 62 58
f 58 62 61
f 58 61 59

