# https://github.com/mikedh/trimesh
v -0.05509775 0.02718855 0.39922146
v -0.04963376 0.02718855 0.39932917
v -0.05509775 0.02718855 0.40165469
v -0.05509775 0.04055173 0.39633724
v -0.04963376 0.02730499 0.40174382
v -0.05036490 0.02718855 0.40175709
v -0.04963376 0.04055173 0.39646404
v -0.05423023 0.02718855 0.40168281
v -0.05509133 0.02766086 0.40157775
v -0.05509133 0.02992033 0.40117452
v -0.05509133 0.03217063 0.40073997
v -0.05509775 0.03666340 0.39977007
v -0.05509775 0.04055173 0.39833221
v -0.04963376 0.02919421 0.40141381
v -0.05036490 0.02749208 0.40170828
v -0.05130676 0.02753526 0.40169024
v -0.05138057 0.02718855 0.40174489
v -0.05041945 0.04055173 0.39893654
v -0.04963376 0.04040520 0.39898111
v -0.05319049 0.02718855 0.40171040
v -0.05319049 0.02761637 0.40164089
v -0.05413236 0.02765432 0.40160959
v -0.05413236 0.02990986 0.40120794
v -0.05413236 0.03215624 0.40077499
v -0.05413236 0.03439085 0.40031021
v -0.05509133 0.03440786 0.40027413
v -0.05413236 0.03661630 0.39981411
v -0.05413236 0.03883129 0.39928725
v -0.05509133 0.03885484 0.39924746
v -0.05508331 0.04055173 0.39881769
v -0.04963376 0.02969791 0.40132520
v -0.05036490 0.02973454 0.40131353
v -0.05224916 0.02757712 0.40166795
v -0.05130676 0.02978164 0.40129336
v -0.05233099 0.02718855 0.40172897
v -0.05137576 0.04055173 0.39892221
v -0.05130676 0.03866906 0.39939549
v -0.05036490 0.03860887 0.39942308
v -0.04963376 0.03856178 0.39944059
v -0.05224916 0.02982612 0.40126949
v -0.05319049 0.02986930 0.40124137
v -0.05319049 0.03211307 0.40080948
v -0.05319049 0.03434506 0.40034681
v -0.05319049 0.03656790 0.39985285
v -0.05319049 0.03878026 0.39932810
v -0.05328409 0.04055173 0.39887870
v -0.05423772 0.04055173 0.39884899
v -0.04963376 0.03192990 0.40090021
v -0.05036490 0.03196915 0.40088695
v -0.05130676 0.03201887 0.40086572
v -0.05232992 0.04055173 0.39890311
v -0.05224916 0.03872531 0.39936418
v -0.05224916 0.03651687 0.39988681
v -0.05130676 0.03646192 0.39991652
v -0.05036490 0.03640567 0.39994145
v -0.04963376 0.03806592 0.39955731
v -0.05224916 0.03206728 0.40083972
v -0.05224916 0.03429534 0.40037865
v -0.04963376 0.03365165 0.40054684
v -0.05036490 0.03419199 0.40042959
v -0.05130676 0.03424432 0.40040624
v -0.04963376 0.03635987 0.39995790
v -0.04963376 0.03414881 0.40044444
f 1 2 6
f 1 6 17
f 1 17 35
f 1 35 20
f 1 20 8
f 1 8 3
f 1 3 12
f 1 12 13
f 1 13 4
f 1 4 2
f 2 5 6
f 2 4 7
f 2 7 19
f 2 19 39
f 2 39 56
f 2 56 62
f 2 62 63
f 2 63 59
f 2 59 48
f 2 48 31
f 2 31 14
f 2 14 5
f 3 8 9
f 3 9 10
f 3 10 11
f 3 11 12
f 4 13 30
f 4 30 47
f 4 47 46
f 4 46 51
f 4 51 36
f 4 36 18
f 4 18 7
f 5 14 15
f 5 15 6
f 6 15 16
f 6 16 17
f 7 18 19
f 8 20 21
f 8 21 22
f 8 22 9
f 9 22 23
f 9 23 10
f 10 23 24
f 10 24 11
f 11 24 25
f 11 25 26
f 11 26 12
f 12 26 27
f 12 27 28
f 12 28 29
f 12 29 13
f 13 29 30
f 14 31 15
f 15 31 32
f 15 32 16
f 16 33 17
f 16 32 34
f 16 34 33
f 17 33 35
f 18 36 37
f 18 37 38
f 18 38 19
f 19 38 39
f 20 35 33
f 20 33 21
f 21 33 40
f 21 40 41
f 21 41 22
f 22 41 23
f 23 41 42
f 23 42 24
f 24 42 43
f 24 43 25
f 25 43 44
f 25 44 27
f 25 27 26
f 27 44 45
f 27 45 28
f 28 45 46
f 28 46 47
f 28 47 29
f 29 47 30
f 31 48 32
f 32 48 49
f 32 49 34
f 33 34 40
f 34 49 50
f 34 50 40
f 36 51 52
f 36 52 37
f 37 52 53
f 37 53 54
f 37 54 38
f 38 54 55
f 38 55 56
f 38 56 39
f 40 50 57
f 40 57 41
f 41 57 42
f 42 57 58
f 42 58 43
f 43 58 53
f 43 53 44
f 44 53 52
f 44 52 45
f 45 52 51
f 45 51 46
f 48 59 49
f 49 59 60
f 49 60 50
f 50 60 61
f 50 61 57
f 53 58 54
f 54 58 61
f 54 61 55
f 55 61 60
f 55 60 62
f 55 62 56
f 57 61 58
f 59 63 60
f 60 63 62

