# https://github.com/mikedh/trimesh
v 0.11653979 -0.00011779 0.24522238
v 0.11592608 -0.00011347 0.24123963
v 0.11636256 -0.00011779 0.24522238
v 0.11844901 -0.00011995 0.24522238
v 0.11366316 -0.00013505 0.23885050
v 0.11139175 -0.00014153 0.23837336
v 0.11139175 -0.00013289 0.23991291
v 0.11847223 -0.00011995 0.24426982
v 0.11809611 -0.00089889 0.24380212
v 0.11809611 -0.00105425 0.24380641
v 0.11928870 -0.00175119 0.24522238
v 0.11881971 -0.00167999 0.24467230
v 0.11809611 -0.00136711 0.24381671
v 0.11531623 -0.00290557 0.24067411
v 0.11305256 -0.00292284 0.23828326
v 0.11438368 -0.00012426 0.24318338
v 0.11620545 -0.00011995 0.24522238
v 0.11927168 -0.00012210 0.24522238
v 0.11139330 -0.00018252 0.23645536
v 0.11139175 -0.02215685 0.24050247
v 0.11139175 -0.01452495 0.24205146
v 0.11308428 -0.02215685 0.24522238
v 0.11906969 -0.00064212 0.24496750
v 0.11929799 -0.00136711 0.24522238
v 0.11881971 -0.00126355 0.24465943
v 0.11927865 -0.00204896 0.24522238
v 0.11470562 -0.00569337 0.24010772
v 0.11470562 -0.00638815 0.24016178
v 0.11928716 -0.00082984 0.24522238
v 0.11470562 -0.00708294 0.24022185
v 0.11470562 -0.00743034 0.24025532
v 0.11470562 -0.00777557 0.24028879
v 0.11470562 -0.00812297 0.24032483
v 0.11470562 -0.00846821 0.24036173
v 0.11470562 -0.00985131 0.24053851
v 0.11470562 -0.01122794 0.24071530
v 0.11470562 -0.01260026 0.24094185
v 0.11470562 -0.01397258 0.24116927
v 0.11470562 -0.01465658 0.24130142
v 0.11470562 -0.01533842 0.24143358
v 0.11470562 -0.01602026 0.24157518
v 0.11470562 -0.01635902 0.24164898
v 0.11470562 -0.01669779 0.24172364
v 0.11470562 -0.01805284 0.24203773
v 0.11470562 -0.02006169 0.24258181
v 0.11470562 -0.02211369 0.24314219
v 0.11486582 -0.02215685 0.24335759
v 0.11139175 -0.02215685 0.24315935
v 0.11139175 -0.02191087 0.24312417
v 0.11634785 -0.02215685 0.24522238
v 0.11923376 -0.00297031 0.24522238
v 0.11918964 -0.00387008 0.24522238
v 0.11915946 -0.00429732 0.24522238
v 0.11914785 -0.00444188 0.24522238
v 0.11912619 -0.00471160 0.24522238
v 0.11911303 -0.00485832 0.24522238
v 0.11908981 -0.00511294 0.24522238
v 0.11907046 -0.00530713 0.24522238
v 0.11905112 -0.00549701 0.24522238
v 0.11896134 -0.00620690 0.24522238
v 0.11887621 -0.00687796 0.24522238
v 0.11658235 -0.02128944 0.24522238
f 1 2 3
f 1 3 17
f 1 17 22
f 1 22 50
f 1 50 62
f 1 62 61
f 1 61 60
f 1 60 59
f 1 59 58
f 1 58 57
f 1 57 56
f 1 56 55
f 1 55 54
f 1 54 53
f 1 53 52
f 1 52 51
f 1 51 26
f 1 26 11
f 1 11 24
f 1 24 29
f 1 29 18
f 1 18 4
f 1 4 2
f 2 5 6
f 2 6 7
f 2 7 3
f 2 4 8
f 2 8 9
f 2 9 10
f 2 10 11
f 2 11 12
f 2 12 13
f 2 13 14
f 2 14 15
f 2 15 5
f 3 7 16
f 3 16 17
f 4 18 8
f 5 15 19
f 5 19 6
f 6 19 20
f 6 20 48
f 6 48 49
f 6 49 21
f 6 21 7
f 7 17 16
f 7 21 22
f 7 22 17
f 8 18 23
f 8 23 9
f 9 23 24
f 9 24 25
f 9 25 10
f 10 25 11
f 11 25 24
f 11 26 12
f 12 26 13
f 13 26 27
f 13 27 14
f 14 27 15
f 15 27 28
f 15 28 19
f 18 29 23
f 19 28 30
f 19 30 31
f 19 31 32
f 19 32 33
f 19 33 34
f 19 34 35
f 19 35 36
f 19 36 37
f 19 37 38
f 19 38 20
f 20 38 39
f 20 39 40
f 20 40 41
f 20 41 42
f 20 42 43
f 20 43 44
f 20 44 45
f 20 45 46
f 20 46 47
f 20 47 50
f 20 50 22
f 20 22 48
f 21 49 22
f 22 49 48
f 23 29 24
f 26 51 27
f 27 51 52
f 27 52 28
f 28 52 53
f 28 53 30
f 30 53 54
f 30 54 55
f 30 55 31
f 31 55 32
f 32 55 33
f 33 55 56
f 33 56 34
f 34 56 57
f 34 57 58
f 34 58 59
f 34 59 35
f 35 59 36
f 36 59 60
f 36 60 61
f 36 61 37
f 37 61 38
f 38 61 39
f 39 61 40
f 40 61 41
f 41 61 62
f 41 62 42
f 42 62 43
f 43 62 44
f 44 62 45
f 45 62 46
f 46 62 47
f 47 62 50

