# https://github.com/mikedh/trimesh
v 0.03177992 -0.12357763 0.26518423
v 0.03130122 -0.12484901 0.26810881
v 0.03128307 -0.12430248 0.26663153
v 0.03090873 -0.12457886 0.26701290
v 0.02935124 -0.12457440 0.26582700
v 0.02857193 -0.12457173 0.26523351
v 0.02536620 -0.12556314 0.26527958
v 0.02709498 -0.12273600 0.26607446
v 0.03057749 -0.12155468 0.26606375
v 0.03403277 -0.12040367 0.26604982
v 0.03403277 -0.12180164 0.26555061
v 0.03403277 -0.12273957 0.26522173
v 0.02912777 -0.12495332 0.26661760
v 0.03104598 -0.12467248 0.26738999
v 0.03142600 -0.12493548 0.26847519
v 0.02823842 -0.12513876 0.26641941
v 0.02813860 -0.12507100 0.26614624
v 0.02845736 -0.12529211 0.26705896
v 0.02610468 -0.12869521 0.27545668
v 0.02354668 -0.12868094 0.27335806
v 0.02259948 -0.12879328 0.27294347
v 0.02244407 -0.12869164 0.27250854
v 0.02299084 -0.12691922 0.26755604
v 0.02244407 -0.12708950 0.26767495
v 0.02278665 -0.12671326 0.26684364
v 0.02244407 -0.12655724 0.26622230
v 0.02258473 -0.12622201 0.26540599
v 0.02453358 -0.12342518 0.26616231
v 0.03403277 -0.12369799 0.27603838
v 0.02244407 -0.12405195 0.26621159
v 0.02244407 -0.12720095 0.27612837
v 0.03403277 -0.12507992 0.27189791
v 0.03204877 -0.12537859 0.27039491
v 0.03184798 -0.12523327 0.26975429
v 0.03161090 -0.12506387 0.26902261
v 0.02346387 -0.12931752 0.27553596
v 0.02398341 -0.12915793 0.27530028
v 0.02326535 -0.12929791 0.27518565
v 0.02396526 -0.12913653 0.27520708
v 0.02381439 -0.12896981 0.27449789
v 0.02295227 -0.12895198 0.27373622
v 0.02367713 -0.12882003 0.27389477
v 0.02914478 -0.12708861 0.27315237
v 0.03245487 -0.12567816 0.27176614
v 0.03265792 -0.12583240 0.27249997
v 0.03280539 -0.12594563 0.27305274
v 0.03272598 -0.12621310 0.27390441
v 0.03251839 -0.12671059 0.27542883
v 0.02286832 -0.12886193 0.27337627
v 0.02244407 -0.12905540 0.27366444
v 0.02244407 -0.12723037 0.26807775
v 0.02244407 -0.12688712 0.26711038
v 0.02245882 -0.12545794 0.26569952
v 0.03403277 -0.12572898 0.27555845
v 0.02244407 -0.12951010 0.27528635
v 0.03403277 -0.12534025 0.27267673
v 0.03219396 -0.12548558 0.27087270
v 0.02244407 -0.12921053 0.27419151
v 0.03403277 -0.12547310 0.27308917
v 0.03403277 -0.12568529 0.27378121
v 0.03296760 -0.12607134 0.27367837
v 0.03273052 -0.12638160 0.27450432
v 0.03315137 -0.12638339 0.27501746
v 0.03403277 -0.12609630 0.27524243
f 1 2 3
f 1 3 4
f 1 4 5
f 1 5 6
f 1 6 7
f 1 7 8
f 1 8 9
f 1 9 10
f 1 10 11
f 1 11 12
f 1 12 2
f 2 13 14
f 2 14 3
f 2 12 15
f 2 15 7
f 2 7 16
f 2 16 13
f 3 14 4
f 4 14 13
f 4 13 17
f 4 17 5
f 5 17 7
f 5 7 6
f 7 17 13
f 7 13 16
f 7 15 18
f 7 18 19
f 7 19 20
f 7 20 21
f 7 21 22
f 7 22 23
f 7 23 24
f 7 24 25
f 7 25 26
f 7 26 27
f 7 27 8
f 8 27 28
f 8 28 9
f 9 28 10
f 10 29 54
f 10 54 64
f 10 64 60
f 10 60 59
f 10 59 56
f 10 56 32
f 10 32 12
f 10 12 11
f 10 28 30
f 10 30 31
f 10 31 29
f 12 32 33
f 12 33 34
f 12 34 35
f 12 35 15
f 15 35 18
f 18 35 19
f 19 36 37
f 19 37 38
f 19 38 39
f 19 39 40
f 19 40 41
f 19 41 42
f 19 42 21
f 19 21 20
f 19 35 34
f 19 34 33
f 19 33 43
f 19 43 44
f 19 44 45
f 19 45 46
f 19 46 47
f 19 47 48
f 19 48 36
f 21 49 50
f 21 50 22
f 21 42 49
f 22 51 23
f 22 50 58
f 22 58 55
f 22 55 31
f 22 31 30
f 22 30 26
f 22 26 52
f 22 52 24
f 22 24 51
f 23 51 24
f 24 52 25
f 25 52 26
f 26 30 53
f 26 53 27
f 27 53 28
f 28 53 30
f 29 31 54
f 31 55 36
f 31 36 54
f 32 56 44
f 32 44 57
f 32 57 33
f 33 57 43
f 36 48 54
f 36 55 37
f 37 55 38
f 38 55 58
f 38 58 39
f 39 58 40
f 40 58 50
f 40 50 41
f 41 50 49
f 41 49 42
f 43 57 44
f 44 56 59
f 44 59 45
f 45 59 46
f 46 59 60
f 46 60 61
f 46 61 47
f 47 61 62
f 47 62 48
f 48 62 63
f 48 63 64
f 48 64 54
f 60 64 63
f 60 63 61
f 61 63 62

