# https://github.com/mikedh/trimesh
v -0.03591158 0.06339223 0.31489999
v -0.03459613 0.05804092 0.31489999
v -0.03591158 0.06339223 0.31189999
v -0.04993550 0.06339223 0.31489999
v -0.03459613 0.05804092 0.31189999
v -0.04921771 0.05804092 0.31489999
v -0.04993550 0.06339223 0.31189999
v -0.04991448 0.06310410 0.31389980
v -0.04987994 0.06263104 0.31489999
v -0.04921771 0.05804092 0.31189999
v -0.04931231 0.05840344 0.31489999
v -0.04987994 0.06263104 0.31189999
v -0.04977482 0.06121137 0.31489999
v -0.04931231 0.05840344 0.31189999
v -0.04977482 0.06121137 0.31189999
f 1 2 5
f 1 5 3
f 1 3 7
f 1 7 4
f 1 4 9
f 1 9 13
f 1 13 11
f 1 11 6
f 1 6 2
f 2 6 10
f 2 10 5
f 3 5 10
f 3 10 14
f 3 14 15
f 3 15 12
f 3 12 7
f 4 7 8
f 4 8 9
f 6 11 14
f 6 14 10
f 7 12 8
f 8 12 9
f 9 12 15
f 9 15 13
f 11 13 15
f 11 15 14

