# https://github.com/mikedh/trimesh
v 0.12163800 0.03844334 0.35370245
v 0.12163800 0.03961612 0.35244901
v 0.13045116 0.02905248 0.34532760
v 0.12654620 0.02905248 0.35370245
v 0.12163800 0.04348345 0.35370245
v 0.12163800 0.04025778 0.35176449
v 0.13312796 0.02905248 0.34532760
v 0.12163800 0.04635361 0.34532760
v 0.12965150 0.02905248 0.35370245
v 0.12163800 0.04998682 0.34684500
v 0.12516844 0.03787972 0.35370245
v 0.13297725 0.02946653 0.34532760
v 0.13191665 0.02905248 0.34862228
v 0.12163800 0.05119862 0.34532760
v 0.12969199 0.02905248 0.35364096
v 0.12944906 0.02950121 0.35370245
v 0.12291567 0.04843035 0.34631543
v 0.12163800 0.05027297 0.34652857
v 0.12559808 0.03713183 0.35370245
v 0.12582527 0.04466273 0.34532760
v 0.12570042 0.04487951 0.34532760
v 0.13206961 0.03195732 0.34532760
v 0.13058838 0.03458251 0.34675483
v 0.12987419 0.03175355 0.35150052
v 0.13180868 0.02905248 0.34890839
v 0.12163800 0.05105337 0.34552024
v 0.12288980 0.04931047 0.34532760
v 0.12996867 0.02905248 0.35321960
v 0.12681838 0.03500306 0.35370245
v 0.12529553 0.04552985 0.34532760
v 0.12443738 0.04689772 0.34532760
v 0.12315298 0.04891160 0.34532760
v 0.12163800 0.05086044 0.34577274
v 0.12368046 0.04810301 0.34532760
v 0.12356574 0.04828511 0.34532760
v 0.12945918 0.03792524 0.34532760
v 0.12779237 0.03838915 0.34832880
v 0.13080320 0.03543228 0.34532760
v 0.13034544 0.02905248 0.35256132
v 0.13036794 0.02905248 0.35252115
v 0.13054339 0.02905248 0.35215880
v 0.13069522 0.02905248 0.35184483
v 0.12163800 0.05094932 0.34565715
f 1 2 3
f 1 3 4
f 1 4 9
f 1 9 16
f 1 16 29
f 1 29 19
f 1 19 11
f 1 11 5
f 1 5 10
f 1 10 18
f 1 18 33
f 1 33 43
f 1 43 26
f 1 26 14
f 1 14 8
f 1 8 6
f 1 6 2
f 2 6 3
f 3 7 13
f 3 13 25
f 3 25 42
f 3 42 41
f 3 41 40
f 3 40 39
f 3 39 28
f 3 28 15
f 3 15 9
f 3 9 4
f 3 6 8
f 3 8 14
f 3 14 27
f 3 27 32
f 3 32 35
f 3 35 34
f 3 34 31
f 3 31 30
f 3 30 21
f 3 21 20
f 3 20 36
f 3 36 38
f 3 38 22
f 3 22 12
f 3 12 7
f 5 11 10
f 7 12 13
f 9 15 16
f 10 17 18
f 10 11 17
f 11 19 20
f 11 20 21
f 11 21 17
f 12 22 23
f 12 23 24
f 12 24 13
f 13 24 25
f 14 26 27
f 15 28 16
f 16 28 24
f 16 24 29
f 17 21 30
f 17 30 31
f 17 31 18
f 18 32 27
f 18 27 33
f 18 31 34
f 18 34 35
f 18 35 32
f 19 29 20
f 20 29 37
f 20 37 36
f 22 38 23
f 23 38 36
f 23 36 24
f 24 36 37
f 24 37 29
f 24 28 39
f 24 39 40
f 24 40 41
f 24 41 42
f 24 42 25
f 26 43 27
f 27 43 33

