# https://github.com/mikedh/trimesh
v 0.08670849 0.07858260 0.35370197
v 0.09091934 0.07858260 0.35370197
v 0.08698934 0.07858260 0.35336259
v 0.10596457 0.05900504 0.35370197
v 0.09098720 0.07858260 0.35362350
v 0.09092688 0.07857877 0.35370197
v 0.08710243 0.07858260 0.35322684
v 0.10596457 0.06245900 0.35024324
v 0.10596457 0.06326595 0.35370197
v 0.09099662 0.07857877 0.34878465
v 0.09102866 0.07858260 0.35357488
v 0.09105694 0.07845801 0.35370197
v 0.09162052 0.07816667 0.35342613
v 0.09274769 0.07758015 0.35287447
v 0.09181090 0.07822417 0.35313779
v 0.09359778 0.07769323 0.35174515
v 0.09406900 0.07768940 0.35119252
v 0.09228212 0.07822034 0.35258516
v 0.09447048 0.07858260 0.34948362
v 0.09097777 0.07858260 0.34880968
v 0.10596457 0.06391572 0.34878465
v 0.10596457 0.06684258 0.35020425
v 0.09961624 0.07202544 0.35165802
v 0.09999888 0.06951643 0.35370197
v 0.09415571 0.07858260 0.34878465
v 0.09141130 0.07811492 0.35370197
v 0.09157906 0.07795199 0.35370197
v 0.09505669 0.07538931 0.35281815
v 0.09551471 0.07551965 0.35218128
v 0.09312655 0.07769515 0.35229778
v 0.09827985 0.07345916 0.35148857
v 0.09512831 0.07749389 0.35014022
v 0.09861913 0.07356841 0.35094894
v 0.09676817 0.07562699 0.35055469
v 0.09490024 0.07858260 0.34878465
v 0.09618574 0.07729647 0.34908744
v 0.09633653 0.07732905 0.34878465
v 0.10596457 0.06793895 0.34878465
v 0.10596457 0.06688475 0.35015948
v 0.10171413 0.07053997 0.35093643
v 0.09954273 0.07279405 0.35078768
v 0.09911863 0.07279788 0.35130324
v 0.09946734 0.07356266 0.34991734
v 0.10042110 0.07337291 0.34894110
v 0.09948242 0.07438111 0.34878465
v 0.09758433 0.07618668 0.34878465
v 0.10593818 0.06796770 0.34878465
v 0.10596457 0.06712817 0.34985043
v 0.10596457 0.06694033 0.35009016
v 0.10473185 0.06826097 0.35002662
v 0.10381202 0.06905449 0.35021387
v 0.10396281 0.06910050 0.34996356
v 0.10411549 0.06914458 0.34971324
v 0.10057377 0.07334224 0.34878465
v 0.10489018 0.06907366 0.34878465
v 0.10556874 0.06784503 0.34945810
v 0.10519176 0.06786228 0.34993275
v 0.10483740 0.06912733 0.34878465
f 1 2 5
f 1 5 11
f 1 11 19
f 1 19 35
f 1 35 25
f 1 25 20
f 1 20 7
f 1 7 3
f 1 3 4
f 1 4 9
f 1 9 24
f 1 24 27
f 1 27 26
f 1 26 12
f 1 12 6
f 1 6 2
f 2 6 5
f 3 7 4
f 4 8 21
f 4 21 38
f 4 38 48
f 4 48 49
f 4 49 39
f 4 39 22
f 4 22 9
f 4 7 10
f 4 10 8
f 5 6 11
f 6 12 13
f 6 13 14
f 6 14 15
f 6 15 16
f 6 16 17
f 6 17 18
f 6 18 19
f 6 19 11
f 7 20 10
f 8 10 21
f 9 22 23
f 9 23 24
f 10 20 25
f 10 25 35
f 10 35 37
f 10 37 46
f 10 46 45
f 10 45 54
f 10 54 58
f 10 58 55
f 10 55 47
f 10 47 38
f 10 38 21
f 12 26 13
f 13 26 27
f 13 27 28
f 13 28 14
f 14 29 30
f 14 30 15
f 14 28 23
f 14 23 29
f 15 30 16
f 16 30 31
f 16 31 17
f 17 32 19
f 17 19 18
f 17 31 33
f 17 33 34
f 17 34 32
f 19 32 36
f 19 36 37
f 19 37 35
f 22 39 40
f 22 40 23
f 23 40 41
f 23 41 42
f 23 42 31
f 23 31 29
f 23 28 24
f 24 28 27
f 29 31 30
f 31 42 33
f 32 34 43
f 32 43 36
f 33 42 43
f 33 43 34
f 36 43 44
f 36 44 45
f 36 45 46
f 36 46 37
f 38 47 48
f 39 49 50
f 39 50 51
f 39 51 40
f 40 51 41
f 41 43 42
f 41 51 43
f 43 51 52
f 43 52 53
f 43 53 44
f 44 54 45
f 44 53 54
f 47 55 56
f 47 56 48
f 48 56 49
f 49 56 57
f 49 57 50
f 50 57 53
f 50 53 51
f 51 53 52
f 53 57 55
f 53 55 58
f 53 58 54
f 55 57 56

