# https://github.com/mikedh/trimesh
v 0.10646871 -0.01055761 0.23591514
v 0.10509248 -0.01055761 0.23560473
v 0.10646871 -0.01055761 0.23358593
v 0.10646871 -0.00009037 0.23502967
v 0.10316232 -0.01055761 0.23378041
v 0.10248959 -0.00007386 0.23132459
v 0.10498380 -0.01055761 0.23154348
v 0.10646871 -0.00057018 0.23175093
v 0.10646871 -0.00007076 0.23409006
v 0.10602619 -0.00007799 0.23461173
v 0.10248959 -0.01055761 0.23217193
v 0.10310428 -0.00004599 0.23187983
v 0.10248959 -0.00007489 0.23125672
v 0.10358029 -0.01055761 0.22966883
v 0.10646871 -0.00046184 0.23173339
v 0.10646871 -0.00002639 0.23187601
v 0.10614033 -0.00005838 0.23361033
v 0.10377039 -0.00001607 0.23247929
v 0.10248959 -0.01055761 0.22869947
v 0.10248959 -0.00007592 0.23122774
v 0.10485953 -0.00002742 0.23022787
v 0.10248959 -0.01020471 0.22865524
v 0.10358029 -0.00994984 0.22959485
v 0.10646871 -0.00017911 0.23171432
v 0.10358029 -0.00954225 0.22955366
v 0.10358029 -0.00913363 0.22951248
v 0.10358029 -0.00872502 0.22947511
v 0.10358029 -0.00831743 0.22943850
v 0.10358029 -0.00790778 0.22940418
v 0.10358029 -0.00749916 0.22937062
v 0.10358029 -0.00709054 0.22934012
v 0.10358029 -0.00668089 0.22930961
v 0.10646871 -0.00002330 0.23170441
v 0.10636860 -0.00002020 0.23160755
v 0.10506910 -0.00001814 0.23204304
v 0.10339098 -0.00014299 0.22891454
v 0.10248959 -0.00008005 0.23115300
v 0.10412565 -0.00008521 0.22957121
v 0.10421991 -0.00335519 0.22976874
v 0.10248959 -0.00484314 0.22832347
v 0.10248959 -0.00381437 0.22827847
v 0.10248959 -0.00173103 0.22818771
v 0.10248959 -0.00027094 0.22812441
v 0.10348564 -0.00341297 0.22911207
v 0.10248959 -0.00023586 0.22862397
v 0.10248959 -0.00021316 0.22895115
f 1 2 5
f 1 5 11
f 1 11 19
f 1 19 14
f 1 14 7
f 1 7 3
f 1 3 8
f 1 8 15
f 1 15 24
f 1 24 33
f 1 33 16
f 1 16 9
f 1 9 4
f 1 4 2
f 2 4 6
f 2 6 5
f 3 7 8
f 4 9 10
f 4 10 6
f 5 6 11
f 6 10 12
f 6 12 13
f 6 13 20
f 6 20 37
f 6 37 46
f 6 46 45
f 6 45 43
f 6 43 42
f 6 42 41
f 6 41 40
f 6 40 22
f 6 22 19
f 6 19 11
f 7 14 8
f 8 14 15
f 9 16 17
f 9 17 18
f 9 18 10
f 10 18 12
f 12 18 13
f 13 18 21
f 13 21 20
f 14 19 22
f 14 22 23
f 14 23 15
f 15 23 25
f 15 25 26
f 15 26 27
f 15 27 28
f 15 28 29
f 15 29 30
f 15 30 31
f 15 31 32
f 15 32 24
f 16 33 34
f 16 34 18
f 16 18 17
f 18 34 35
f 18 35 21
f 20 36 37
f 20 21 36
f 21 38 36
f 21 35 34
f 21 34 39
f 21 39 38
f 22 40 32
f 22 32 31
f 22 31 30
f 22 30 29
f 22 29 28
f 22 28 27
f 22 27 26
f 22 26 25
f 22 25 23
f 24 32 33
f 32 40 41
f 32 41 42
f 32 42 43
f 32 43 44
f 32 44 38
f 32 38 39
f 32 39 34
f 32 34 33
f 36 43 45
f 36 45 46
f 36 46 37
f 36 38 44
f 36 44 43

