# https://github.com/mikedh/trimesh
v -0.03509810 -0.03795292 0.31189999
v -0.03509810 -0.03795292 0.31489999
v -0.03506129 -0.03792781 0.31189999
v -0.00090728 -0.03795292 0.31189999
v -0.03506129 -0.03792781 0.31489999
v -0.00090728 -0.03795292 0.31489999
v -0.03258801 -0.03651913 0.31189999
v -0.00100099 -0.03533546 0.31189999
v -0.03258801 -0.03651913 0.31489999
v -0.00100099 -0.03533546 0.31489999
v -0.02999759 -0.03533521 0.31189999
v -0.02999759 -0.03533521 0.31489999
f 1 2 5
f 1 5 3
f 1 3 7
f 1 7 11
f 1 11 8
f 1 8 4
f 1 4 6
f 1 6 2
f 2 6 10
f 2 10 12
f 2 12 9
f 2 9 5
f 3 5 9
f 3 9 7
f 4 8 10
f 4 10 6
f 7 9 12
f 7 12 11
f 8 11 12
f 8 12 10

