# https://github.com/mikedh/trimesh
v -0.05000000 0.01400000 0.31189999
v -0.03794348 0.01400000 0.31189999
v -0.05000000 0.01400000 0.31489999
v -0.05000000 0.02099881 0.31189999
v -0.03794348 0.01400000 0.31489911
v -0.03794348 0.02599894 0.31189999
v -0.04000050 0.01400000 0.31489999
v -0.05000000 0.02793760 0.31489999
v -0.05000000 0.02793760 0.31190675
v -0.04995279 0.02793760 0.31189999
v -0.03794348 0.01740527 0.31489999
v -0.03800013 0.02793760 0.31189999
v -0.03794348 0.02599894 0.31489999
v -0.03800013 0.02793760 0.31489999
f 1 2 5
f 1 5 7
f 1 7 3
f 1 3 8
f 1 8 9
f 1 9 4
f 1 4 10
f 1 10 12
f 1 12 6
f 1 6 2
f 2 6 13
f 2 13 11
f 2 11 5
f 3 7 11
f 3 11 13
f 3 13 14
f 3 14 8
f 4 9 10
f 5 11 7
f 6 12 14
f 6 14 13
f 8 14 12
f 8 12 10
f 8 10 9

