# https://github.com/mikedh/trimesh
v 0.12201154 -0.05380952 0.28930077
v 0.12848989 -0.04179101 0.28930077
v 0.12479354 -0.05380952 0.28930077
v 0.12329878 -0.05380952 0.30325331
v 0.13121244 -0.04179101 0.28930077
v 0.13019756 -0.04179101 0.30325331
v 0.12591217 -0.05183879 0.28930077
v 0.12480434 -0.05380952 0.28934721
v 0.12627207 -0.05380952 0.30325331
v 0.13109247 -0.04206514 0.28930077
v 0.13132160 -0.04179101 0.28974464
v 0.13305305 -0.04179101 0.30325331
v 0.12789004 -0.04830559 0.28930077
v 0.12610239 -0.05155288 0.28943462
v 0.12532097 -0.05380952 0.29159797
v 0.12524207 -0.05380952 0.29125380
v 0.12499673 -0.05380952 0.29018441
v 0.12650553 -0.05342831 0.30325331
v 0.12599863 -0.05380952 0.29676872
v 0.12854285 -0.04787262 0.29115000
v 0.13154857 -0.04179101 0.29091919
v 0.12952098 -0.04721375 0.29436499
v 0.12903245 -0.04754318 0.29275750
v 0.13069365 -0.04636781 0.30325331
v 0.13290282 -0.04179101 0.29926395
v 0.12720265 -0.05085519 0.29283671
v 0.12590028 -0.05380952 0.29465999
v 0.13014784 -0.04734788 0.30325331
v 0.12592081 -0.05380952 0.29493724
v 0.13028295 -0.04671018 0.29736965
v 0.13162206 -0.04179101 0.29130160
v 0.13212248 -0.04179101 0.29405769
v 0.12990250 -0.04696197 0.29586732
v 0.12591109 -0.05380952 0.29471872
v 0.13042129 -0.04685725 0.30325331
v 0.13250832 -0.04253224 0.29897850
v 0.13254615 -0.04179101 0.29670589
f 1 2 5
f 1 5 10
f 1 10 13
f 1 13 7
f 1 7 3
f 1 3 8
f 1 8 17
f 1 17 16
f 1 16 15
f 1 15 27
f 1 27 34
f 1 34 29
f 1 29 19
f 1 19 9
f 1 9 4
f 1 4 2
f 2 4 6
f 2 6 12
f 2 12 25
f 2 25 37
f 2 37 32
f 2 32 31
f 2 31 21
f 2 21 11
f 2 11 5
f 3 7 8
f 4 9 18
f 4 18 28
f 4 28 35
f 4 35 24
f 4 24 12
f 4 12 6
f 5 11 10
f 7 13 14
f 7 14 15
f 7 15 16
f 7 16 17
f 7 17 8
f 9 19 18
f 10 11 20
f 10 20 13
f 11 21 22
f 11 22 23
f 11 23 20
f 12 24 25
f 13 20 15
f 13 15 14
f 15 20 26
f 15 26 27
f 18 19 29
f 18 29 30
f 18 30 28
f 20 23 26
f 21 31 22
f 22 32 33
f 22 33 34
f 22 34 27
f 22 27 26
f 22 26 23
f 22 31 32
f 24 35 30
f 24 30 36
f 24 36 25
f 25 36 37
f 28 30 35
f 29 34 30
f 30 34 33
f 30 33 32
f 30 32 37
f 30 37 36

