# https://github.com/mikedh/trimesh
v -0.11825476 -0.09787174 0.27456096
v -0.12191668 -0.09787174 0.27512854
v -0.12356326 -0.09610339 0.27480328
v -0.12508162 -0.09454363 0.27479840
v -0.12533372 -0.09044655 0.27456096
v -0.12257215 -0.09786811 0.29117028
v -0.12607561 -0.09777362 0.29056205
v -0.12276662 -0.09784557 0.27758261
v -0.12305042 -0.09717472 0.27637753
v -0.12405449 -0.09650096 0.27733704
v -0.12506865 -0.09532278 0.27689469
v -0.12608858 -0.09346721 0.27482930
v -0.12607417 -0.09427689 0.27695811
v -0.12865423 -0.09058465 0.27519684
v -0.13015963 -0.09047999 0.27965776
v -0.13101677 -0.09044655 0.28258183
v -0.12976923 -0.09044655 0.29117353
v -0.13201940 -0.09155422 0.29117353
v -0.12858076 -0.09531697 0.29108246
v -0.12717477 -0.09670955 0.29073769
v -0.12585521 -0.09757084 0.28806244
v -0.12490875 -0.09769149 0.28441141
v -0.12433396 -0.09763988 0.28207118
v -0.12372172 -0.09748507 0.27943496
v -0.12555989 -0.09544271 0.27879745
v -0.12709121 -0.09242277 0.27507975
v -0.12707681 -0.09333711 0.27743625
v -0.12706384 -0.09398762 0.27928697
v -0.12940621 -0.09068640 0.27773060
v -0.12808665 -0.09177009 0.27638729
v -0.12907056 -0.09159638 0.27908205
v -0.13005591 -0.09131437 0.28170364
v -0.13297018 -0.09044655 0.29117353
v -0.13005014 -0.09186676 0.28343726
v -0.13123429 -0.09067259 0.28413006
v -0.13222973 -0.09060863 0.28812424
v -0.13243141 -0.09078452 0.28981883
v -0.13111761 -0.09215821 0.28916181
v -0.13059036 -0.09311034 0.29090194
v -0.12915987 -0.09444406 0.28962856
v -0.12816012 -0.09539110 0.28898942
v -0.12716180 -0.09632943 0.28844299
v -0.12562904 -0.09739785 0.28618407
v -0.12657981 -0.09605396 0.28461958
v -0.12655964 -0.09558662 0.28278024
v -0.12555269 -0.09603071 0.28067257
v -0.12705520 -0.09458070 0.28114094
v -0.12806216 -0.09309653 0.28000741
v -0.12807512 -0.09245693 0.27819084
v -0.12805496 -0.09368017 0.28182723
v -0.12905903 -0.09221781 0.28085634
v -0.12905327 -0.09278546 0.28263550
v -0.12905759 -0.09329496 0.28440328
v -0.13005591 -0.09236172 0.28516601
v -0.13151953 -0.09091390 0.28612390
v -0.13107727 -0.09180280 0.28750624
v -0.13011785 -0.09315831 0.28856821
v -0.12911954 -0.09411772 0.28789005
v -0.12811978 -0.09505241 0.28720863
v -0.12712003 -0.09598274 0.28662642
v -0.12807945 -0.09466138 0.28543272
v -0.12805928 -0.09420348 0.28363730
v -0.12907920 -0.09373977 0.28615642
v -0.13007752 -0.09279272 0.28687687
f 1 2 3
f 1 3 4
f 1 4 5
f 1 5 6
f 1 6 2
f 2 6 7
f 2 7 8
f 2 8 9
f 2 9 3
f 3 9 10
f 3 10 11
f 3 11 4
f 4 12 5
f 4 11 13
f 4 13 12
f 5 12 14
f 5 14 15
f 5 15 16
f 5 16 33
f 5 33 17
f 5 17 6
f 6 17 18
f 6 18 19
f 6 19 7
f 7 19 20
f 7 20 21
f 7 21 22
f 7 22 8
f 8 23 24
f 8 24 10
f 8 10 9
f 8 22 23
f 10 24 25
f 10 25 11
f 11 25 13
f 12 26 14
f 12 13 27
f 12 27 26
f 13 25 28
f 13 28 27
f 14 29 15
f 14 26 30
f 14 30 29
f 15 31 32
f 15 32 16
f 15 29 31
f 16 32 34
f 16 34 35
f 16 35 36
f 16 36 33
f 17 33 18
f 18 33 37
f 18 37 38
f 18 38 39
f 18 39 19
f 19 39 40
f 19 40 41
f 19 41 42
f 19 42 20
f 20 42 21
f 21 42 43
f 21 43 22
f 22 43 44
f 22 44 45
f 22 45 23
f 23 45 46
f 23 46 24
f 24 46 25
f 25 46 47
f 25 47 28
f 26 27 30
f 27 28 48
f 27 48 49
f 27 49 30
f 28 47 50
f 28 50 48
f 29 30 31
f 30 49 31
f 31 49 48
f 31 48 51
f 31 51 32
f 32 51 52
f 32 52 34
f 33 36 37
f 34 53 54
f 34 54 35
f 34 52 53
f 35 54 55
f 35 55 36
f 36 38 37
f 36 55 56
f 36 56 38
f 38 56 57
f 38 57 39
f 39 57 40
f 40 57 58
f 40 58 41
f 41 58 59
f 41 59 42
f 42 59 60
f 42 60 43
f 43 60 44
f 44 60 61
f 44 61 45
f 45 47 46
f 45 61 62
f 45 62 47
f 47 62 50
f 48 50 51
f 50 52 51
f 50 62 52
f 52 62 53
f 53 62 61
f 53 61 63
f 53 63 54
f 54 63 64
f 54 64 56
f 54 56 55
f 56 64 57
f 57 64 58
f 58 64 63
f 58 63 59
f 59 63 61
f 59 61 60

