# https://github.com/mikedh/trimesh
v -0.11339327 -0.01357399 0.39340963
v -0.11330087 -0.01340416 0.39069603
v -0.11817064 -0.01340416 0.39034762
v -0.11439911 -0.01356759 0.39283341
v -0.11339680 -0.01599969 0.39311769
v -0.11339680 -0.01824701 0.39280278
v -0.11338340 -0.02431607 0.39174127
v -0.12050466 -0.01340416 0.38544305
v -0.11330087 -0.02431607 0.38896642
v -0.12050607 -0.02431607 0.38363207
v -0.11533652 -0.01356759 0.39225910
v -0.11911722 -0.01340416 0.38964026
v -0.11911722 -0.01379296 0.38960007
v -0.11817064 -0.01379189 0.39030742
v -0.11723322 -0.01359001 0.39099754
v -0.11626759 -0.01357720 0.39165608
v -0.11443367 -0.01598367 0.39252233
v -0.11443367 -0.01822885 0.39220741
v -0.11339680 -0.02048579 0.39244671
v -0.11443367 -0.02431607 0.39112963
v -0.11339680 -0.02271709 0.39204948
v -0.11443367 -0.02269253 0.39145124
v -0.12050607 -0.01356972 0.38852803
v -0.12050607 -0.02431607 0.38679937
v -0.11537038 -0.01598581 0.39194610
v -0.12007933 -0.01358361 0.38887261
v -0.12007933 -0.01602105 0.38857206
v -0.11911722 -0.01605416 0.38931770
v -0.11817064 -0.01605416 0.39002601
v -0.11723322 -0.01603387 0.39069986
v -0.11630286 -0.01600610 0.39133830
v -0.11537038 -0.01822992 0.39162928
v -0.11443367 -0.02046443 0.39184943
v -0.11537038 -0.02431607 0.39054671
v -0.11537038 -0.02269466 0.39086928
v -0.11537038 -0.02046550 0.39127034
v -0.12050607 -0.01471367 0.38839020
v -0.12007933 -0.02431607 0.38714874
v -0.12050607 -0.02365490 0.38693433
v -0.12050607 -0.01598687 0.38823130
v -0.12007933 -0.01827051 0.38824757
v -0.11911722 -0.01830896 0.38899322
v -0.11817064 -0.01830896 0.38970248
v -0.11723322 -0.01828440 0.39037825
v -0.11630286 -0.01825342 0.39101956
v -0.11630286 -0.02431607 0.38993507
v -0.11630286 -0.02272136 0.39025478
v -0.11630286 -0.02049113 0.39065870
v -0.11896839 -0.02431607 0.38801690
v -0.11911722 -0.02278866 0.38821599
v -0.12007933 -0.02273952 0.38747035
v -0.12050607 -0.02269039 0.38713055
v -0.12050607 -0.01823206 0.38790682
v -0.12007933 -0.02050822 0.38788098
v -0.11911722 -0.02055308 0.38862471
v -0.11817064 -0.02055202 0.38933589
v -0.11723322 -0.02052638 0.39001356
v -0.11723322 -0.02431607 0.38929377
v -0.11723322 -0.02275982 0.38960677
v -0.11817064 -0.02431607 0.38861704
v -0.11817064 -0.02278866 0.38892621
v -0.12050607 -0.02143321 0.38736219
v -0.12050607 -0.01920191 0.38774793
v -0.12050607 -0.02046443 0.38753926
f 1 2 3
f 1 3 4
f 1 4 5
f 1 5 6
f 1 6 7
f 1 7 2
f 2 8 12
f 2 12 3
f 2 7 9
f 2 9 10
f 2 10 8
f 3 11 4
f 3 12 13
f 3 13 14
f 3 14 15
f 3 15 16
f 3 16 11
f 4 11 17
f 4 17 5
f 5 17 6
f 6 17 18
f 6 18 19
f 6 19 7
f 7 20 34
f 7 34 46
f 7 46 58
f 7 58 60
f 7 60 49
f 7 49 38
f 7 38 24
f 7 24 10
f 7 10 9
f 7 19 21
f 7 21 22
f 7 22 20
f 8 23 12
f 8 10 23
f 10 24 39
f 10 39 52
f 10 52 62
f 10 62 64
f 10 64 63
f 10 63 53
f 10 53 40
f 10 40 37
f 10 37 23
f 11 16 25
f 11 25 17
f 12 23 26
f 12 26 13
f 13 26 27
f 13 27 28
f 13 28 29
f 13 29 14
f 14 29 30
f 14 30 15
f 15 30 31
f 15 31 16
f 16 31 25
f 17 25 18
f 18 25 32
f 18 32 33
f 18 33 19
f 19 33 21
f 20 22 35
f 20 35 34
f 21 33 22
f 22 33 36
f 22 36 35
f 23 37 26
f 24 38 39
f 25 31 32
f 26 37 27
f 27 37 40
f 27 40 41
f 27 41 42
f 27 42 28
f 28 42 43
f 28 43 29
f 29 43 44
f 29 44 30
f 30 44 45
f 30 45 31
f 31 45 32
f 32 45 36
f 32 36 33
f 34 35 47
f 34 47 46
f 35 36 48
f 35 48 47
f 36 45 48
f 38 49 50
f 38 50 51
f 38 51 39
f 39 51 52
f 40 53 41
f 41 53 54
f 41 54 42
f 42 54 55
f 42 55 56
f 42 56 43
f 43 56 57
f 43 57 44
f 44 57 48
f 44 48 45
f 46 47 59
f 46 59 58
f 47 48 57
f 47 57 59
f 49 60 50
f 50 61 56
f 50 56 55
f 50 55 54
f 50 54 51
f 50 60 61
f 51 54 62
f 51 62 52
f 53 63 54
f 54 63 64
f 54 64 62
f 56 61 59
f 56 59 57
f 58 59 61
f 58 61 60

