# https://github.com/mikedh/trimesh
v -0.12837612 -0.03456230 0.37323560
v -0.13508275 -0.03456230 0.36944161
v -0.13070102 -0.03457759 0.37434054
v -0.12853635 -0.03512167 0.37645924
v -0.12837612 -0.04757802 0.36794512
v -0.13651560 -0.04757802 0.35819374
v -0.14116387 -0.03456230 0.35819374
v -0.13848769 -0.03464258 0.36539374
v -0.13658031 -0.03508599 0.36750707
v -0.13458203 -0.03655129 0.36932897
v -0.13351125 -0.03481841 0.37114730
v -0.13218933 -0.03518538 0.37250791
v -0.13058085 -0.03640986 0.37385959
v -0.12873048 -0.03725209 0.37553846
v -0.12873048 -0.03918757 0.37484117
v -0.12873048 -0.04110265 0.37410811
v -0.12873048 -0.04299990 0.37333930
v -0.12873048 -0.04487549 0.37253652
v -0.12890612 -0.04721106 0.37128318
v -0.13026963 -0.04757802 0.36961683
v -0.13617819 -0.04757802 0.36267787
v -0.13940902 -0.04731427 0.35873369
v -0.14064466 -0.04487804 0.35839756
v -0.14411430 -0.03488722 0.35824201
v -0.14048288 -0.03485791 0.36289421
v -0.13857859 -0.03632959 0.36467857
v -0.13658031 -0.03735657 0.36669535
v -0.13458203 -0.03834661 0.36866744
v -0.13258067 -0.03745723 0.37128318
v -0.13058085 -0.03830966 0.37318375
v -0.13058085 -0.04019162 0.37247394
v -0.13058085 -0.04205319 0.37173195
v -0.13058085 -0.04389438 0.37095241
v -0.13058085 -0.04571517 0.37014248
v -0.13164547 -0.04732573 0.36818291
v -0.13508275 -0.04715245 0.36423337
v -0.13658031 -0.04581074 0.36306585
v -0.13751705 -0.04718558 0.36120998
v -0.13907931 -0.04580054 0.35994592
v -0.14007768 -0.04357328 0.35976712
v -0.14156753 -0.04192577 0.35862464
v -0.14331776 -0.03692718 0.35850842
v -0.14255666 -0.03513568 0.36019801
v -0.14057841 -0.03689277 0.36201991
v -0.13857859 -0.03801278 0.36403848
v -0.13658031 -0.03908691 0.36602846
v -0.13458203 -0.04012281 0.36797551
v -0.13258067 -0.03929587 0.37059662
v -0.13258067 -0.04111540 0.36987787
v -0.13258067 -0.04291581 0.36912694
v -0.13258067 -0.04469583 0.36834382
v -0.13350663 -0.04673069 0.36631452
v -0.13558194 -0.04475062 0.36478763
v -0.13757868 -0.04355927 0.36290315
v -0.13857859 -0.04455058 0.36119210
v -0.13957850 -0.04231949 0.36098113
v -0.14247962 -0.03910729 0.35870330
v -0.14057841 -0.03930734 0.36104370
v -0.14207750 -0.03759357 0.35986188
v -0.13857859 -0.04049997 0.36302115
v -0.13658031 -0.04079813 0.36533295
v -0.13458203 -0.04187735 0.36725497
v -0.13458203 -0.04361406 0.36650047
v -0.13658031 -0.04248896 0.36460526
f 1 2 3
f 1 3 4
f 1 4 5
f 1 5 6
f 1 6 7
f 1 7 2
f 2 7 8
f 2 8 9
f 2 9 10
f 2 10 11
f 2 11 3
f 3 11 12
f 3 12 13
f 3 13 4
f 4 14 15
f 4 15 16
f 4 16 17
f 4 17 18
f 4 18 5
f 4 13 14
f 5 18 19
f 5 19 20
f 5 20 21
f 5 21 6
f 6 21 22
f 6 22 23
f 6 23 24
f 6 24 7
f 7 24 8
f 8 24 25
f 8 25 26
f 8 26 27
f 8 27 9
f 9 27 10
f 10 27 28
f 10 28 29
f 10 29 11
f 11 29 12
f 12 29 13
f 13 29 30
f 13 30 14
f 14 30 15
f 15 30 31
f 15 31 16
f 16 31 32
f 16 32 17
f 17 32 33
f 17 33 18
f 18 33 34
f 18 34 19
f 19 34 20
f 20 34 35
f 20 35 21
f 21 36 37
f 21 37 38
f 21 38 22
f 21 35 36
f 22 38 39
f 22 39 23
f 23 39 40
f 23 40 41
f 23 41 24
f 24 41 42
f 24 42 43
f 24 43 25
f 25 44 26
f 25 43 44
f 26 44 45
f 26 45 27
f 27 45 46
f 27 46 28
f 28 46 47
f 28 47 48
f 28 48 29
f 29 48 30
f 30 48 31
f 31 48 49
f 31 49 32
f 32 49 50
f 32 50 33
f 33 50 51
f 33 51 34
f 34 51 35
f 35 51 52
f 35 52 36
f 36 52 53
f 36 53 37
f 37 53 54
f 37 54 55
f 37 55 39
f 37 39 38
f 39 55 40
f 40 55 56
f 40 56 41
f 41 57 42
f 41 56 58
f 41 58 57
f 42 57 59
f 42 59 43
f 43 59 44
f 44 59 58
f 44 58 45
f 45 58 60
f 45 60 61
f 45 61 46
f 46 61 47
f 47 62 49
f 47 49 48
f 47 61 62
f 49 62 50
f 50 62 63
f 50 63 51
f 51 63 52
f 52 63 53
f 53 63 64
f 53 64 54
f 54 64 60
f 54 60 56
f 54 56 55
f 56 60 58
f 57 58 59
f 60 64 61
f 61 64 62
f 62 64 63

