# https://github.com/mikedh/trimesh
v -0.11452737 -0.06042131 0.22382431
v -0.11472005 -0.06042131 0.22361365
v -0.11464096 -0.05977277 0.22350322
v -0.11551091 -0.05446847 0.22130321
v -0.11992965 -0.05446847 0.22781321
v -0.12055946 -0.05446847 0.22871530
v -0.12631692 -0.05446847 0.23691055
v -0.12074927 -0.06042131 0.23251902
v -0.11584163 -0.06042131 0.22243125
v -0.11552960 -0.05446847 0.22128283
v -0.12921721 -0.05446847 0.23691055
v -0.12399323 -0.06042131 0.23691055
v -0.11627157 -0.06042131 0.22199125
v -0.11566477 -0.05446847 0.22115201
v -0.11723498 -0.05519218 0.21978953
v -0.12908204 -0.05446847 0.23667951
v -0.12909498 -0.05483790 0.23691055
v -0.12703444 -0.06042131 0.23691055
v -0.11634490 -0.06042131 0.22191989
v -0.11714439 -0.05446847 0.21974367
v -0.11723498 -0.05657434 0.22054213
v -0.11817251 -0.05518286 0.22086661
v -0.11817107 -0.05446847 0.22048777
v -0.11734858 -0.05446847 0.21955679
v -0.12908204 -0.05483790 0.23688847
v -0.12826674 -0.05446847 0.23528985
v -0.12808413 -0.05479420 0.23516244
v -0.12808413 -0.05662562 0.23624290
v -0.12847380 -0.05662620 0.23691055
v -0.12708621 -0.06029836 0.23691055
v -0.12608397 -0.05958048 0.23487873
v -0.12608397 -0.06042131 0.23543085
v -0.11723498 -0.05929670 0.22210507
v -0.11723498 -0.05794193 0.22131510
v -0.11723498 -0.06042131 0.22278291
v -0.11817251 -0.05663145 0.22166337
v -0.11911866 -0.05536000 0.22227495
v -0.11911866 -0.05446847 0.22179758
v -0.12808413 -0.05446847 0.23497896
v -0.12708621 -0.05503544 0.23366235
v -0.12708621 -0.05689657 0.23475811
v -0.12778072 -0.05851705 0.23691055
v -0.12808413 -0.05770477 0.23691055
v -0.12708621 -0.05872624 0.23589124
v -0.12608397 -0.05774440 0.23372861
v -0.11911866 -0.06042131 0.22521906
v -0.11817251 -0.05948084 0.22331635
v -0.11817251 -0.05806372 0.22247882
v -0.11817251 -0.06042131 0.22389056
v -0.11911866 -0.05687326 0.22311588
v -0.12608397 -0.05446847 0.23181400
v -0.12735510 -0.05446847 0.23378467
v -0.12708621 -0.05446847 0.23334466
v -0.12608397 -0.05587743 0.23261416
v -0.11911866 -0.05836847 0.22397890
v -0.11911866 -0.05984735 0.22486400
f 1 2 3
f 1 3 4
f 1 4 5
f 1 5 6
f 1 6 7
f 1 7 8
f 1 8 12
f 1 12 18
f 1 18 32
f 1 32 46
f 1 46 49
f 1 49 35
f 1 35 19
f 1 19 13
f 1 13 9
f 1 9 2
f 2 9 3
f 3 9 10
f 3 10 4
f 4 10 14
f 4 14 20
f 4 20 24
f 4 24 23
f 4 23 38
f 4 38 51
f 4 51 53
f 4 53 52
f 4 52 39
f 4 39 26
f 4 26 16
f 4 16 11
f 4 11 7
f 4 7 6
f 4 6 5
f 7 11 17
f 7 17 29
f 7 29 43
f 7 43 42
f 7 42 30
f 7 30 18
f 7 18 12
f 7 12 8
f 9 13 10
f 10 13 15
f 10 15 14
f 11 16 17
f 13 19 15
f 14 15 20
f 15 21 22
f 15 22 23
f 15 23 24
f 15 24 20
f 15 19 21
f 16 25 17
f 16 26 27
f 16 27 25
f 17 25 28
f 17 28 29
f 18 30 31
f 18 31 32
f 19 33 34
f 19 34 21
f 19 35 33
f 21 34 36
f 21 36 22
f 22 36 37
f 22 37 38
f 22 38 23
f 25 27 28
f 26 39 27
f 27 39 40
f 27 40 41
f 27 41 28
f 28 42 43
f 28 43 29
f 28 41 42
f 30 42 44
f 30 44 31
f 31 44 45
f 31 45 46
f 31 46 32
f 33 35 47
f 33 47 48
f 33 48 34
f 34 48 36
f 35 49 47
f 36 48 50
f 36 50 37
f 37 50 51
f 37 51 38
f 39 52 40
f 40 52 53
f 40 53 51
f 40 51 54
f 40 54 41
f 41 54 45
f 41 45 44
f 41 44 42
f 45 54 55
f 45 55 56
f 45 56 46
f 46 56 49
f 47 49 56
f 47 56 55
f 47 55 48
f 48 55 50
f 50 55 54
f 50 54 51

