# https://github.com/mikedh/trimesh
v -0.15398207 0.05505116 0.30566468
v -0.15176580 0.05505116 0.30566468
v -0.15398207 0.05505116 0.30677984
v -0.15398207 0.05845026 0.30566468
v -0.15184906 0.05505116 0.30677984
v -0.15031641 0.06085943 0.30566468
v -0.15032574 0.06085943 0.30677984
v -0.15398207 0.05847301 0.30677984
v -0.15398207 0.05846618 0.30624742
v -0.15392537 0.05860208 0.30623924
v -0.15394259 0.05854408 0.30566468
v -0.15294355 0.06085943 0.30566468
v -0.15295252 0.06085943 0.30677984
v -0.15394331 0.05856626 0.30677984
v -0.15398207 0.05846675 0.30626926
v -0.15294893 0.06085943 0.30613225
v -0.15330205 0.06002927 0.30566468
v -0.15347609 0.05962613 0.30566468
f 1 2 5
f 1 5 3
f 1 3 8
f 1 8 15
f 1 15 9
f 1 9 4
f 1 4 11
f 1 11 18
f 1 18 17
f 1 17 12
f 1 12 6
f 1 6 2
f 2 6 7
f 2 7 5
f 3 5 7
f 3 7 13
f 3 13 14
f 3 14 8
f 4 9 10
f 4 10 11
f 6 12 16
f 6 16 13
f 6 13 7
f 8 14 15
f 9 15 10
f 10 14 13
f 10 13 16
f 10 16 12
f 10 12 17
f 10 17 18
f 10 18 11
f 10 15 14

