# https://github.com/mikedh/trimesh
v -0.12922318 0.07412529 0.34720230
v -0.12922318 0.07851374 0.34720230
v -0.12922318 0.07610924 0.34366751
v -0.12307243 0.08320260 0.34366751
v -0.12307243 0.08137886 0.34720230
v -0.12908830 0.07868063 0.34720230
v -0.12922318 0.07855246 0.34715696
v -0.12922318 0.08128006 0.34366751
v -0.12307243 0.08776329 0.34366751
v -0.12307243 0.08527600 0.34720230
v -0.12922318 0.07871401 0.34696697
v -0.12922318 0.07863791 0.34705661
v -0.12874148 0.07909852 0.34720230
v -0.12908830 0.07882349 0.34703376
v -0.12922318 0.08102639 0.34401774
v -0.12906783 0.08146164 0.34366751
v -0.12404306 0.08682071 0.34366751
v -0.12307243 0.08720655 0.34449843
v -0.12307243 0.08604502 0.34615751
v -0.12405812 0.08524263 0.34590972
v -0.12406835 0.08427335 0.34720230
v -0.12922318 0.07988889 0.34550758
v -0.12808997 0.07986753 0.34720230
v -0.12908228 0.08000505 0.34557437
v -0.12907144 0.08115323 0.34408592
v -0.12922318 0.08085817 0.34423888
v -0.12807372 0.08196764 0.34452508
v -0.12806709 0.08259513 0.34366751
v -0.12404547 0.08640549 0.34427868
v -0.12505404 0.08581004 0.34366751
v -0.12307243 0.08716516 0.34455830
v -0.12505584 0.08555771 0.34403643
v -0.12506789 0.08440285 0.34564082
v -0.12506367 0.08324132 0.34720230
v -0.12808515 0.08080744 0.34603604
v -0.12708924 0.08101571 0.34720230
v -0.12707478 0.08277270 0.34494002
v -0.12708622 0.08159915 0.34647416
v -0.12706515 0.08370059 0.34366751
v -0.12606140 0.08477267 0.34366751
v -0.12606140 0.08472461 0.34373707
v -0.12607344 0.08358043 0.34531690
v -0.12514135 0.08315854 0.34720230
v -0.12608729 0.08213586 0.34720230
v -0.12608548 0.08239620 0.34687457
v -0.12625890 0.08456306 0.34366751
f 1 2 7
f 1 7 12
f 1 12 11
f 1 11 22
f 1 22 26
f 1 26 15
f 1 15 8
f 1 8 3
f 1 3 4
f 1 4 5
f 1 5 10
f 1 10 21
f 1 21 34
f 1 34 43
f 1 43 44
f 1 44 36
f 1 36 23
f 1 23 13
f 1 13 6
f 1 6 2
f 2 6 7
f 3 8 16
f 3 16 28
f 3 28 39
f 3 39 46
f 3 46 40
f 3 40 30
f 3 30 17
f 3 17 9
f 3 9 4
f 4 9 18
f 4 18 31
f 4 31 19
f 4 19 10
f 4 10 5
f 6 11 12
f 6 12 7
f 6 13 14
f 6 14 11
f 8 15 16
f 9 17 18
f 10 19 20
f 10 20 21
f 11 14 22
f 13 23 24
f 13 24 14
f 14 24 22
f 15 25 16
f 15 26 25
f 16 25 27
f 16 27 28
f 17 29 18
f 17 30 29
f 18 29 31
f 19 31 29
f 19 29 20
f 20 29 32
f 20 32 33
f 20 33 21
f 21 33 34
f 22 24 26
f 23 35 24
f 23 36 35
f 24 35 25
f 24 25 26
f 25 35 27
f 27 37 28
f 27 35 38
f 27 38 37
f 28 37 39
f 29 30 32
f 30 40 32
f 32 40 41
f 32 41 33
f 33 41 42
f 33 42 34
f 34 42 43
f 35 36 38
f 36 44 38
f 37 38 45
f 37 45 42
f 37 42 39
f 38 44 45
f 39 42 41
f 39 41 46
f 40 46 41
f 42 45 43
f 43 45 44

