# https://github.com/mikedh/trimesh
v 0.16437021 0.02481163 0.55767827
v 0.16430676 0.02074446 0.55803404
v 0.16777946 0.02271503 0.55602648
v 0.16589523 0.02370514 0.55666743
v 0.16486278 0.02416613 0.55708962
v 0.16337432 0.02415761 0.55734298
v 0.16216334 0.02414228 0.55757764
v 0.16340874 0.02474975 0.55783716
v 0.16486708 0.01901233 0.55741736
v 0.16798810 0.01901233 0.55600262
v 0.16798702 0.02085970 0.55600262
v 0.16143524 0.02443693 0.55803404
v 0.15934668 0.01939214 0.55803404
v 0.16706857 0.02295177 0.55618021
v 0.16639855 0.02241867 0.55600978
v 0.16635231 0.02304204 0.55628441
v 0.16499399 0.02284220 0.55632319
v 0.16516391 0.02339686 0.55658768
v 0.16370879 0.02304885 0.55658053
v 0.16403574 0.02374147 0.55693849
v 0.16234295 0.02360408 0.55712463
v 0.16147181 0.02371195 0.55736983
v 0.15971987 0.02352290 0.55760151
v 0.16145783 0.02408665 0.55768881
v 0.16226551 0.02454821 0.55792685
v 0.15844328 0.01916107 0.55803404
v 0.15777649 0.01901233 0.55803404
v 0.15700215 0.01901233 0.55600262
v 0.15856481 0.02342809 0.55782663
v 0.15717207 0.02294893 0.55779381
v 0.15700215 0.01901233 0.55803404
v 0.16565217 0.02255777 0.55613268
v 0.16467027 0.02224211 0.55608614
v 0.16340013 0.02179645 0.55601535
v 0.16407338 0.02234146 0.55618717
v 0.16300759 0.02220237 0.55623390
v 0.16249028 0.02268380 0.55653797
v 0.16160194 0.02273774 0.55668652
v 0.16234295 0.02321462 0.55686530
v 0.16152774 0.02302671 0.55687425
v 0.15974353 0.02285752 0.55707014
v 0.15890574 0.02301649 0.55736167
v 0.15700215 0.02041688 0.55611378
v 0.15761086 0.02050261 0.55606904
v 0.15828519 0.02067065 0.55605870
v 0.16072005 0.02123099 0.55603662
v 0.15700215 0.02222054 0.55720139
v 0.16249028 0.02161591 0.55602628
v 0.16175143 0.02150407 0.55605035
v 0.16170949 0.02199856 0.55628401
v 0.16055981 0.02216660 0.55650814
v 0.15996507 0.02233806 0.55669129
v 0.16079211 0.02276896 0.55683010
v 0.15920687 0.02222905 0.55675453
v 0.15833143 0.02195825 0.55673504
v 0.15833143 0.02269629 0.55724613
v 0.15729683 0.02169256 0.55676309
v 0.15729683 0.02106579 0.55639737
v 0.15852179 0.02132467 0.55634348
v 0.15911008 0.02096757 0.55609549
v 0.16010274 0.02159036 0.55627367
v 0.15759258 0.02241527 0.55720795
f 1 2 3
f 1 3 4
f 1 4 5
f 1 5 6
f 1 6 7
f 1 7 8
f 1 8 2
f 2 9 10
f 2 10 11
f 2 11 3
f 2 8 12
f 2 12 31
f 2 31 27
f 2 27 26
f 2 26 13
f 2 13 9
f 3 14 4
f 3 11 15
f 3 15 14
f 4 14 16
f 4 16 17
f 4 17 18
f 4 18 19
f 4 19 20
f 4 20 5
f 5 20 21
f 5 21 6
f 6 21 22
f 6 22 7
f 7 22 23
f 7 23 24
f 7 24 8
f 8 24 25
f 8 25 12
f 9 13 26
f 9 26 27
f 9 27 31
f 9 31 28
f 9 28 10
f 10 28 11
f 11 28 15
f 12 24 23
f 12 23 29
f 12 29 30
f 12 30 31
f 12 25 24
f 14 15 32
f 14 32 16
f 15 33 32
f 15 28 34
f 15 34 33
f 16 32 17
f 17 35 36
f 17 36 37
f 17 37 19
f 17 19 18
f 17 32 35
f 19 37 38
f 19 38 20
f 20 38 39
f 20 39 21
f 21 39 40
f 21 40 41
f 21 41 22
f 22 41 42
f 22 42 23
f 23 42 29
f 28 31 47
f 28 47 43
f 28 43 44
f 28 44 45
f 28 45 46
f 28 46 34
f 29 42 30
f 30 47 31
f 30 42 47
f 32 33 35
f 33 34 35
f 34 48 49
f 34 49 35
f 34 46 48
f 35 49 36
f 36 49 46
f 36 46 50
f 36 50 37
f 37 50 51
f 37 51 38
f 38 51 52
f 38 52 40
f 38 40 39
f 40 52 53
f 40 53 41
f 41 52 54
f 41 54 55
f 41 55 56
f 41 56 42
f 41 53 52
f 42 56 47
f 43 47 57
f 43 57 58
f 43 58 59
f 43 59 44
f 44 59 45
f 45 59 60
f 45 60 46
f 46 60 61
f 46 61 50
f 46 49 48
f 47 56 62
f 47 62 57
f 50 61 51
f 51 61 59
f 51 59 52
f 52 59 55
f 52 55 54
f 55 59 58
f 55 58 57
f 55 57 56
f 56 57 62
f 59 61 60

