# https://github.com/mikedh/trimesh
v 0.16628852 0.01900559 0.55501804
v 0.16628852 0.01900559 0.55646105
v 0.16628852 0.01926268 0.55507160
v 0.16650038 0.01923354 0.55505717
v 0.16650038 0.01900559 0.55501015
v 0.16924097 0.01900559 0.55602954
v 0.16924097 0.02295709 0.55602954
v 0.16631771 0.02338301 0.55644795
v 0.16628852 0.02323432 0.55637921
v 0.16628852 0.01968688 0.55516758
v 0.16650038 0.01978800 0.55518246
v 0.16886840 0.01995983 0.55513856
v 0.16886840 0.01939637 0.55501759
v 0.16739030 0.01900559 0.55498277
v 0.16886840 0.01900559 0.55494111
v 0.16922651 0.01904844 0.55494171
v 0.16924097 0.01946107 0.55502280
v 0.16915628 0.02291638 0.55601823
v 0.16793455 0.02269614 0.55600767
v 0.16769870 0.02273214 0.55603847
v 0.16754638 0.02276813 0.55606406
v 0.16728365 0.02285297 0.55611897
v 0.16712410 0.02291767 0.55615944
v 0.16697988 0.02298451 0.55620036
v 0.16687178 0.02303979 0.55623369
v 0.16670270 0.02313406 0.55629157
v 0.16661368 0.02318719 0.55632460
v 0.16652494 0.02324332 0.55635942
v 0.16643592 0.02330160 0.55639602
v 0.16924097 0.02103618 0.55540505
v 0.16921553 0.02223166 0.55576186
v 0.16886840 0.02258559 0.55590723
v 0.16628852 0.02307278 0.55630228
v 0.16628852 0.02015093 0.55528512
v 0.16650038 0.02044744 0.55534955
v 0.16886840 0.02062998 0.55529941
v 0.16924097 0.02065269 0.55529435
v 0.16924097 0.02008666 0.55515850
v 0.16924097 0.01998082 0.55513395
v 0.16903055 0.02286197 0.55600410
v 0.16819496 0.02268543 0.55598609
v 0.16805247 0.02268757 0.55599636
v 0.16781633 0.02271071 0.55602166
v 0.16650038 0.02236706 0.55598074
v 0.16737122 0.02282126 0.55609918
v 0.16628852 0.02245919 0.55603535
v 0.16650038 0.02278998 0.55615572
v 0.16628852 0.02286540 0.55620765
v 0.16631164 0.02295195 0.55624410
v 0.16886840 0.02130827 0.55548481
v 0.16886840 0.02193772 0.55567973
v 0.16715821 0.02158508 0.55565428
v 0.16650038 0.02173162 0.55574430
v 0.16828976 0.02268929 0.55598163
v 0.16838428 0.02269700 0.55597865
v 0.16857041 0.02272528 0.55597806
v 0.16883921 0.02279341 0.55598848
v 0.16628852 0.02188330 0.55581290
v 0.16628852 0.02047144 0.55536771
v 0.16650038 0.02111503 0.55554209
v 0.16628852 0.02275013 0.55615676
v 0.16837763 0.02167977 0.55562006
v 0.16628852 0.02105590 0.55553659
f 1 2 9
f 1 9 33
f 1 33 48
f 1 48 61
f 1 61 46
f 1 46 58
f 1 58 63
f 1 63 59
f 1 59 34
f 1 34 10
f 1 10 3
f 1 3 4
f 1 4 5
f 1 5 14
f 1 14 15
f 1 15 6
f 1 6 2
f 2 6 7
f 2 7 8
f 2 8 9
f 3 10 11
f 3 11 4
f 4 11 12
f 4 12 13
f 4 13 5
f 5 13 14
f 6 15 16
f 6 16 17
f 6 17 39
f 6 39 38
f 6 38 37
f 6 37 30
f 6 30 7
f 7 18 19
f 7 19 20
f 7 20 21
f 7 21 22
f 7 22 23
f 7 23 24
f 7 24 25
f 7 25 26
f 7 26 27
f 7 27 28
f 7 28 29
f 7 29 8
f 7 30 31
f 7 31 32
f 7 32 18
f 8 29 9
f 9 29 33
f 10 34 11
f 11 34 35
f 11 35 36
f 11 36 12
f 12 36 37
f 12 37 38
f 12 38 39
f 12 39 13
f 13 39 17
f 13 17 16
f 13 16 15
f 13 15 14
f 18 32 40
f 18 40 41
f 18 41 42
f 18 42 19
f 19 43 20
f 19 42 44
f 19 44 43
f 20 43 44
f 20 44 21
f 21 45 22
f 21 44 45
f 22 45 44
f 22 44 46
f 22 46 47
f 22 47 23
f 23 47 24
f 24 47 25
f 25 47 48
f 25 48 49
f 25 49 26
f 26 33 27
f 26 49 33
f 27 33 28
f 28 33 29
f 30 37 50
f 30 50 31
f 31 50 51
f 31 51 52
f 31 52 53
f 31 53 32
f 32 41 54
f 32 54 55
f 32 55 56
f 32 56 57
f 32 57 40
f 32 53 58
f 32 58 41
f 33 49 48
f 34 59 35
f 35 59 60
f 35 60 50
f 35 50 36
f 36 50 37
f 40 57 41
f 41 57 56
f 41 56 55
f 41 55 54
f 41 58 42
f 42 58 44
f 44 58 46
f 46 61 47
f 47 61 48
f 50 62 51
f 50 60 62
f 51 62 52
f 52 62 60
f 52 60 53
f 53 60 63
f 53 63 58
f 59 63 60

