# https://github.com/mikedh/trimesh
v 0.23499259 0.00597070 0.55819474
v 0.23499259 -0.00605173 0.55819474
v 0.23499259 0.00597070 0.55769325
v 0.19713835 0.00597070 0.55819474
v 0.23499259 -0.00605173 0.55769325
v 0.23498888 -0.00692680 0.55819474
v 0.19713835 0.00597070 0.55769325
v 0.19713835 -0.00692680 0.55819474
v 0.23498888 -0.00692680 0.55769329
v 0.19713835 -0.00605173 0.55769325
v 0.19713835 -0.00692680 0.55769329
f 1 2 5
f 1 5 3
f 1 3 7
f 1 7 4
f 1 4 8
f 1 8 6
f 1 6 2
f 2 6 9
f 2 9 5
f 3 5 10
f 3 10 7
f 4 7 10
f 4 10 11
f 4 11 8
f 5 9 11
f 5 11 10
f 6 8 11
f 6 11 9

