# https://github.com/mikedh/trimesh
v -0.02137824 0.02735063 0.51456678
v -0.02137824 0.02735063 0.51762807
v -0.02137824 0.02785400 0.51456678
v -0.01903706 0.02625000 0.51456678
v -0.02137824 0.02785400 0.51762807
v -0.01903706 0.02625000 0.51732615
v -0.01903596 0.02625000 0.51732748
v -0.01690621 0.02714621 0.51797875
v -0.01831618 0.02785400 0.51456678
v -0.01018721 0.02625000 0.51456678
v -0.01690621 0.02735063 0.51797875
v -0.01708369 0.02785400 0.51771891
v -0.01755806 0.02625000 0.51733683
v -0.01092013 0.02714621 0.51797875
v -0.01018612 0.02785400 0.51456711
v -0.01018721 0.02735063 0.51456678
v -0.01018612 0.02735063 0.51456711
v -0.01023541 0.02714621 0.51489308
v -0.01039756 0.02625000 0.51596316
v -0.01092013 0.02735063 0.51797875
v -0.01084454 0.02785400 0.51771891
v -0.01074813 0.02625000 0.51733683
v -0.01088946 0.02714621 0.51789459
v -0.01039537 0.02785400 0.51595014
v -0.01038112 0.02735063 0.51585996
v -0.01040084 0.02714621 0.51598053
v -0.01039756 0.02785400 0.51596316
v -0.01088946 0.02735063 0.51789459
v -0.01084454 0.02735063 0.51771891
f 1 2 5
f 1 5 3
f 1 3 9
f 1 9 16
f 1 16 10
f 1 10 4
f 1 4 6
f 1 6 2
f 2 6 7
f 2 7 8
f 2 8 11
f 2 11 5
f 3 5 12
f 3 12 21
f 3 21 27
f 3 27 24
f 3 24 15
f 3 15 9
f 4 10 19
f 4 19 22
f 4 22 13
f 4 13 7
f 4 7 6
f 5 11 12
f 7 13 8
f 8 13 22
f 8 22 14
f 8 14 20
f 8 20 11
f 9 15 16
f 10 16 15
f 10 15 17
f 10 17 18
f 10 18 19
f 11 20 21
f 11 21 12
f 14 23 28
f 14 28 20
f 14 22 23
f 15 24 25
f 15 25 17
f 17 25 18
f 18 25 19
f 19 26 22
f 19 25 24
f 19 24 27
f 19 27 26
f 20 28 21
f 21 29 26
f 21 26 27
f 21 28 23
f 21 23 29
f 22 26 23
f 23 26 29

