# https://github.com/mikedh/trimesh
v 0.22760554 0.01893915 0.56431725
v 0.22740157 0.01893915 0.56440624
v 0.22788172 0.01872170 0.56431725
v 0.22105305 0.01893842 0.56431725
v 0.21256189 0.01893915 0.56705555
v 0.22753334 0.01864033 0.56450220
v 0.22638710 0.01893915 0.56481929
v 0.22817234 0.01844878 0.56433360
v 0.22875178 0.01796206 0.56431725
v 0.22418128 0.01521177 0.56431725
v 0.21478216 0.01521177 0.56705395
v 0.22235272 0.01521177 0.56705555
v 0.21994653 0.01893915 0.56705555
v 0.22664343 0.01877716 0.56479436
v 0.22723730 0.01843492 0.56471100
v 0.22541055 0.01893915 0.56519589
v 0.22842505 0.01806641 0.56440222
v 0.22783298 0.01810582 0.56461638
v 0.22953699 0.01714661 0.56431725
v 0.23100273 0.01521177 0.56431725
v 0.22549539 0.01521177 0.56612143
v 0.22198629 0.01609035 0.56705555
v 0.22077868 0.01797046 0.56705555
v 0.22100070 0.01812224 0.56694780
v 0.22189242 0.01823060 0.56663580
v 0.22081117 0.01893915 0.56678189
v 0.22634378 0.01869725 0.56494420
v 0.22634378 0.01842507 0.56505409
v 0.22753334 0.01819703 0.56469412
v 0.22508563 0.01893915 0.56531490
v 0.22515783 0.01876329 0.56536020
v 0.22574810 0.01880160 0.56512647
v 0.22753334 0.01774242 0.56485976
v 0.22965252 0.01702438 0.56431725
v 0.23075001 0.01560436 0.56431725
v 0.23049911 0.01565544 0.56439203
v 0.22901893 0.01603708 0.56481205
v 0.23021029 0.01521177 0.56458422
v 0.22574810 0.01521177 0.56604263
v 0.22574810 0.01557919 0.56598500
v 0.22500801 0.01586268 0.56616968
v 0.22263612 0.01638953 0.56681271
v 0.22176787 0.01650957 0.56705555
v 0.22115594 0.01745491 0.56705555
v 0.22189242 0.01786136 0.56673149
v 0.22271013 0.01772929 0.56650393
v 0.22426973 0.01765704 0.56601636
v 0.22397008 0.01856298 0.56584884
v 0.22104583 0.01890340 0.56671568
v 0.22304588 0.01893915 0.56603780
v 0.22574810 0.01824592 0.56533500
v 0.22634378 0.01808940 0.56517444
v 0.22515783 0.01842179 0.56548457
v 0.22574810 0.01767784 0.56551271
v 0.22872289 0.01722068 0.56459601
v 0.22931316 0.01703934 0.56443706
v 0.23023917 0.01630525 0.56431725
v 0.22901893 0.01636582 0.56473218
v 0.22664343 0.01669528 0.56546688
v 0.22574810 0.01628409 0.56585312
v 0.22426973 0.01730058 0.56610696
v 0.22574810 0.01698425 0.56569659
v 0.22664343 0.01703861 0.56538191
v 0.22456396 0.01840756 0.56569578
f 1 2 3
f 1 3 9
f 1 9 19
f 1 19 34
f 1 34 57
f 1 57 35
f 1 35 20
f 1 20 10
f 1 10 4
f 1 4 5
f 1 5 13
f 1 13 26
f 1 26 50
f 1 50 30
f 1 30 16
f 1 16 7
f 1 7 2
f 2 6 3
f 2 7 6
f 3 8 9
f 3 6 8
f 4 10 11
f 4 11 5
f 5 11 12
f 5 12 22
f 5 22 43
f 5 43 44
f 5 44 23
f 5 23 13
f 6 7 14
f 6 14 15
f 6 15 8
f 7 16 14
f 8 17 9
f 8 15 17
f 9 17 18
f 9 18 19
f 10 20 38
f 10 38 39
f 10 39 21
f 10 21 12
f 10 12 11
f 12 21 22
f 13 23 24
f 13 24 25
f 13 25 26
f 14 27 15
f 14 16 27
f 15 27 28
f 15 28 29
f 15 29 18
f 15 18 17
f 16 30 31
f 16 31 32
f 16 32 27
f 18 29 28
f 18 28 33
f 18 33 19
f 19 33 34
f 20 35 36
f 20 36 37
f 20 37 38
f 21 39 40
f 21 40 41
f 21 41 42
f 21 42 22
f 22 42 43
f 23 44 45
f 23 45 24
f 24 45 25
f 25 45 46
f 25 46 47
f 25 47 48
f 25 48 49
f 25 49 26
f 26 49 50
f 27 32 28
f 28 32 31
f 28 31 51
f 28 51 52
f 28 52 33
f 30 50 31
f 31 53 51
f 31 50 53
f 33 52 54
f 33 54 55
f 33 55 34
f 34 55 56
f 34 56 57
f 35 57 58
f 35 58 36
f 36 58 37
f 37 58 59
f 37 59 60
f 37 60 38
f 38 60 40
f 38 40 39
f 40 60 41
f 41 60 42
f 42 44 43
f 42 60 61
f 42 61 44
f 44 61 46
f 44 46 45
f 46 61 47
f 47 61 62
f 47 62 63
f 47 63 54
f 47 54 64
f 47 64 48
f 48 50 49
f 48 64 53
f 48 53 50
f 51 54 52
f 51 53 64
f 51 64 54
f 54 63 55
f 55 58 57
f 55 57 56
f 55 63 58
f 58 63 59
f 59 63 62
f 59 62 60
f 60 62 61

