# https://github.com/mikedh/trimesh
v 0.19804473 -0.00619812 0.55719517
v 0.19824438 -0.00617209 0.55719517
v 0.19786594 -0.00619132 0.55719517
v 0.19780220 -0.00618100 0.55442467
v 0.19811081 -0.00619226 0.55442467
v 0.19831093 -0.00615779 0.55442467
v 0.19847918 -0.00609893 0.55719517
v 0.19768972 -0.00615802 0.55719517
v 0.19752264 -0.00609612 0.55442467
v 0.19853964 -0.00606892 0.55442467
v 0.19863759 -0.00601522 0.55719517
v 0.19752053 -0.00609893 0.55719517
v 0.19727190 -0.00595051 0.55442467
v 0.19730705 -0.00597653 0.55719517
v 0.19876460 -0.00592143 0.55442467
v 0.19878194 -0.00590877 0.55719517
v 0.19707787 -0.00576386 0.55442467
v 0.19715216 -0.00584780 0.55719517
v 0.19895043 -0.00572822 0.55442467
v 0.19890872 -0.00578215 0.55719517
v 0.19693142 -0.00554016 0.55442467
v 0.19703546 -0.00571180 0.55719517
v 0.19906080 -0.00555869 0.55442467
v 0.19901510 -0.00563771 0.55719517
v 0.19682550 -0.00522337 0.55442467
v 0.19693118 -0.00553946 0.55719517
v 0.19684190 -0.00531013 0.55719517
v 0.19913227 -0.00539431 0.55442467
v 0.19909876 -0.00547943 0.55719517
v 0.19680417 -0.00493379 0.55442467
v 0.19680769 -0.00511153 0.55719517
v 0.19918101 -0.00519782 0.55442467
v 0.19915805 -0.00531013 0.55719517
v 0.19684940 -0.00466859 0.55442467
v 0.19681964 -0.00479966 0.55719517
v 0.19919531 -0.00493051 0.55442467
v 0.19919132 -0.00513404 0.55719517
v 0.19694079 -0.00443833 0.55442467
v 0.19689369 -0.00454173 0.55719517
v 0.19912852 -0.00460528 0.55442467
v 0.19916227 -0.00471197 0.55719517
v 0.19919812 -0.00495536 0.55719517
v 0.19709428 -0.00421955 0.55442467
v 0.19702351 -0.00430725 0.55719517
v 0.19900034 -0.00434195 0.55442467
v 0.19909876 -0.00452063 0.55719517
v 0.19728807 -0.00403548 0.55442467
v 0.19715216 -0.00415226 0.55719517
v 0.19877983 -0.00409387 0.55442467
v 0.19884779 -0.00415226 0.55719517
v 0.19897644 -0.00430725 0.55719517
v 0.19746054 -0.00393114 0.55442467
v 0.19730705 -0.00402353 0.55719517
v 0.19856026 -0.00394005 0.55442467
v 0.19869290 -0.00402353 0.55719517
v 0.19768901 -0.00384227 0.55442467
v 0.19752053 -0.00390113 0.55719517
v 0.19833062 -0.00384907 0.55442467
v 0.19847942 -0.00390113 0.55719517
v 0.19793389 -0.00380428 0.55442467
v 0.19771198 -0.00383782 0.55719517
v 0.19813308 -0.00380850 0.55442467
v 0.19828797 -0.00383782 0.55719517
v 0.19802224 -0.00380288 0.55719517
f 1 2 7
f 1 7 11
f 1 11 16
f 1 16 20
f 1 20 24
f 1 24 29
f 1 29 33
f 1 33 37
f 1 37 42
f 1 42 41
f 1 41 46
f 1 46 51
f 1 51 50
f 1 50 55
f 1 55 59
f 1 59 63
f 1 63 64
f 1 64 61
f 1 61 57
f 1 57 53
f 1 53 48
f 1 48 44
f 1 44 39
f 1 39 35
f 1 35 31
f 1 31 27
f 1 27 26
f 1 26 22
f 1 22 18
f 1 18 14
f 1 14 12
f 1 12 8
f 1 8 3
f 1 3 4
f 1 4 5
f 1 5 2
f 2 5 6
f 2 6 7
f 3 8 4
f 4 8 9
f 4 9 13
f 4 13 17
f 4 17 21
f 4 21 25
f 4 25 30
f 4 30 34
f 4 34 38
f 4 38 43
f 4 43 47
f 4 47 52
f 4 52 56
f 4 56 60
f 4 60 62
f 4 62 58
f 4 58 54
f 4 54 49
f 4 49 45
f 4 45 40
f 4 40 36
f 4 36 32
f 4 32 28
f 4 28 23
f 4 23 19
f 4 19 15
f 4 15 10
f 4 10 6
f 4 6 5
f 6 10 7
f 7 10 11
f 8 12 9
f 9 12 14
f 9 14 13
f 10 15 11
f 11 15 16
f 13 14 18
f 13 18 17
f 15 19 20
f 15 20 16
f 17 18 22
f 17 22 21
f 19 23 24
f 19 24 20
f 21 22 26
f 21 26 27
f 21 27 25
f 23 28 29
f 23 29 24
f 25 27 31
f 25 31 30
f 28 32 33
f 28 33 29
f 30 31 35
f 30 35 34
f 32 36 37
f 32 37 33
f 34 35 39
f 34 39 38
f 36 40 41
f 36 41 42
f 36 42 37
f 38 39 44
f 38 44 43
f 40 45 46
f 40 46 41
f 43 44 48
f 43 48 47
f 45 49 50
f 45 50 51
f 45 51 46
f 47 48 53
f 47 53 52
f 49 54 55
f 49 55 50
f 52 53 57
f 52 57 56
f 54 58 59
f 54 59 55
f 56 57 61
f 56 61 60
f 58 62 63
f 58 63 59
f 60 61 64
f 60 64 62
f 62 64 63

