# https://github.com/mikedh/trimesh
v 0.19580485 0.00495912 0.55720005
v 0.19685685 0.00467120 0.55719517
v 0.19592732 0.00429647 0.55720005
v 0.19580485 0.00495912 0.55779995
v 0.19595483 0.00575843 0.55720005
v 0.19693420 0.00548383 0.55719517
v 0.19715294 0.00417657 0.55719517
v 0.19632784 0.00358783 0.55720005
v 0.19592732 0.00429647 0.55779995
v 0.19681258 0.00498920 0.55781000
v 0.19595483 0.00575843 0.55779995
v 0.19633858 0.00642968 0.55720005
v 0.19741207 0.00603003 0.55719517
v 0.19778035 0.00383836 0.55719517
v 0.19672964 0.00320966 0.55720005
v 0.19632784 0.00358783 0.55779995
v 0.19695869 0.00442453 0.55781000
v 0.19695869 0.00557536 0.55781000
v 0.19633858 0.00642968 0.55779995
v 0.19672964 0.00679023 0.55720005
v 0.19729647 0.00707257 0.55720005
v 0.19801112 0.00618731 0.55719517
v 0.19804077 0.00280528 0.55720005
v 0.19729647 0.00292732 0.55720005
v 0.19854657 0.00395396 0.55719517
v 0.19672964 0.00320966 0.55779995
v 0.19741207 0.00396986 0.55781000
v 0.19741207 0.00603003 0.55781000
v 0.19672964 0.00679023 0.55779995
v 0.19729647 0.00707257 0.55779995
v 0.19804077 0.00719505 0.55720005
v 0.19870343 0.00707257 0.55720005
v 0.19858783 0.00603003 0.55719517
v 0.19804077 0.00280528 0.55779995
v 0.19870343 0.00292732 0.55720005
v 0.19729647 0.00292732 0.55779995
v 0.19903390 0.00441636 0.55719517
v 0.19967206 0.00358783 0.55720005
v 0.19927025 0.00320966 0.55720005
v 0.19801112 0.00381258 0.55781000
v 0.19801112 0.00618774 0.55781000
v 0.19804077 0.00719505 0.55779995
v 0.19870343 0.00707257 0.55779995
v 0.19927025 0.00679023 0.55720005
v 0.19904120 0.00557536 0.55719517
v 0.19966131 0.00642968 0.55720005
v 0.19870343 0.00292732 0.55779995
v 0.20007257 0.00429647 0.55720005
v 0.19918774 0.00498920 0.55719517
v 0.19967206 0.00358783 0.55779995
v 0.19927025 0.00320966 0.55779995
v 0.19858783 0.00396986 0.55781000
v 0.19858783 0.00603003 0.55781000
v 0.19927025 0.00679023 0.55779995
v 0.20004507 0.00575843 0.55720005
v 0.19995955 0.00598920 0.55779995
v 0.19966131 0.00642968 0.55779995
v 0.20019462 0.00495912 0.55720005
v 0.20007257 0.00429647 0.55779995
v 0.19904120 0.00442453 0.55781000
v 0.19904120 0.00557536 0.55781000
v 0.20013058 0.00552809 0.55779995
v 0.20019462 0.00495912 0.55779995
v 0.19918774 0.00498920 0.55781000
f 1 2 3
f 1 3 9
f 1 9 4
f 1 4 11
f 1 11 5
f 1 5 6
f 1 6 2
f 2 7 8
f 2 8 3
f 2 6 13
f 2 13 22
f 2 22 33
f 2 33 45
f 2 45 49
f 2 49 37
f 2 37 25
f 2 25 14
f 2 14 7
f 3 8 16
f 3 16 9
f 4 9 10
f 4 10 11
f 5 11 19
f 5 19 12
f 5 12 6
f 6 12 13
f 7 14 15
f 7 15 8
f 8 15 26
f 8 26 16
f 9 17 10
f 9 16 17
f 10 18 11
f 10 17 27
f 10 27 40
f 10 40 52
f 10 52 60
f 10 60 64
f 10 64 61
f 10 61 53
f 10 53 41
f 10 41 28
f 10 28 18
f 11 18 19
f 12 19 29
f 12 29 20
f 12 20 13
f 13 20 21
f 13 21 22
f 14 23 24
f 14 24 15
f 14 25 23
f 15 24 36
f 15 36 26
f 16 26 27
f 16 27 17
f 18 28 19
f 19 28 29
f 20 29 30
f 20 30 21
f 21 30 42
f 21 42 31
f 21 31 22
f 22 31 32
f 22 32 33
f 23 34 36
f 23 36 24
f 23 25 35
f 23 35 47
f 23 47 34
f 25 37 38
f 25 38 39
f 25 39 35
f 26 36 27
f 27 36 40
f 28 41 30
f 28 30 29
f 30 41 42
f 31 42 43
f 31 43 32
f 32 43 54
f 32 54 44
f 32 44 33
f 33 44 46
f 33 46 45
f 34 47 40
f 34 40 36
f 35 39 51
f 35 51 47
f 37 48 38
f 37 49 48
f 38 50 51
f 38 51 39
f 38 48 59
f 38 59 50
f 40 47 52
f 41 43 42
f 41 53 43
f 43 53 54
f 44 54 57
f 44 57 46
f 45 46 55
f 45 55 49
f 46 56 55
f 46 57 56
f 47 51 52
f 48 49 58
f 48 58 63
f 48 63 59
f 49 55 58
f 50 59 60
f 50 60 52
f 50 52 51
f 53 61 57
f 53 57 54
f 55 56 62
f 55 62 58
f 56 61 62
f 56 57 61
f 58 62 63
f 59 63 64
f 59 64 60
f 61 64 62
f 62 64 63

