# https://github.com/mikedh/trimesh
v 0.23237415 -0.01663599 0.56078086
v 0.23001982 -0.01776563 0.56078333
v 0.22310378 -0.01663599 0.56437962
v 0.23295449 -0.01663599 0.56320129
v 0.23570771 -0.01665166 0.56199477
v 0.23747870 -0.01668947 0.56087139
v 0.23547977 -0.01771671 0.56078156
v 0.23275654 -0.01777186 0.56267218
v 0.22216055 -0.01777186 0.56437962
v 0.23520535 -0.01774718 0.56106444
v 0.22985186 -0.01665544 0.56435778
v 0.23215521 -0.01663599 0.56351234
v 0.23124197 -0.01703436 0.56371384
v 0.23049968 -0.01723283 0.56392555
v 0.23257809 -0.01682945 0.56326998
v 0.23397870 -0.01681889 0.56268874
v 0.23507788 -0.01667012 0.56228117
v 0.23406267 -0.01719269 0.56242982
v 0.23495192 -0.01696232 0.56215294
v 0.23524884 -0.01692340 0.56203141
v 0.23617257 -0.01677508 0.56165378
v 0.23676941 -0.01670837 0.56136316
v 0.23688187 -0.01679120 0.56119548
v 0.23688187 -0.01687125 0.56108804
v 0.23688187 -0.01694464 0.56097531
v 0.23672592 -0.01709085 0.56085554
v 0.23606760 -0.01743775 0.56081116
v 0.23569421 -0.01758251 0.56089887
v 0.23329489 -0.01774617 0.56241115
v 0.23406267 -0.01737148 0.56230406
v 0.23472998 -0.01706383 0.56219169
v 0.23332038 -0.01751324 0.56257425
v 0.23219870 -0.01777186 0.56294237
v 0.22888914 -0.01777186 0.56433876
v 0.23482895 -0.01765222 0.56156008
v 0.23421263 -0.01770737 0.56191446
v 0.23569421 -0.01752269 0.56103097
v 0.23566722 -0.01747055 0.56115708
v 0.22920105 -0.01754871 0.56430318
v 0.23056566 -0.01686080 0.56403158
v 0.23109351 -0.01675006 0.56387306
v 0.23109351 -0.01692396 0.56381212
v 0.23049818 -0.01758184 0.56378006
v 0.23257809 -0.01717412 0.56311076
v 0.23168734 -0.01731878 0.56341476
v 0.23183280 -0.01759318 0.56321362
v 0.23265307 -0.01754849 0.56286981
v 0.23539729 -0.01702614 0.56187078
v 0.23495192 -0.01724106 0.56193207
v 0.23524884 -0.01721093 0.56178835
v 0.23621306 -0.01692796 0.56148434
v 0.23595364 -0.01713877 0.56141635
v 0.23650998 -0.01699400 0.56120006
v 0.23543478 -0.01745064 0.56138218
v 0.23639901 -0.01711542 0.56111023
v 0.23606460 -0.01736458 0.56097461
v 0.23465500 -0.01747733 0.56188310
v 0.23480346 -0.01736725 0.56190177
v 0.23465500 -0.01729754 0.56204797
v 0.23095705 -0.01777186 0.56349931
v 0.23511837 -0.01738427 0.56169006
v 0.23168734 -0.01743074 0.56336087
v 0.23576769 -0.01710919 0.56157311
f 1 2 3
f 1 3 12
f 1 12 4
f 1 4 5
f 1 5 6
f 1 6 7
f 1 7 2
f 2 8 9
f 2 9 3
f 2 7 10
f 2 10 8
f 3 9 11
f 3 11 12
f 4 12 13
f 4 13 14
f 4 14 15
f 4 15 16
f 4 16 17
f 4 17 5
f 5 17 18
f 5 18 19
f 5 19 20
f 5 20 21
f 5 21 22
f 5 22 6
f 6 22 23
f 6 23 24
f 6 24 25
f 6 25 26
f 6 26 27
f 6 27 7
f 7 27 28
f 7 28 10
f 8 29 30
f 8 30 31
f 8 31 32
f 8 32 33
f 8 33 60
f 8 60 34
f 8 34 9
f 8 10 29
f 9 34 11
f 10 35 36
f 10 36 29
f 10 28 37
f 10 37 38
f 10 38 35
f 11 34 39
f 11 39 40
f 11 40 41
f 11 41 12
f 12 41 42
f 12 42 14
f 12 14 13
f 14 39 34
f 14 34 43
f 14 43 15
f 14 42 39
f 15 44 16
f 15 43 45
f 15 45 44
f 16 44 46
f 16 46 17
f 17 46 47
f 17 47 18
f 18 47 33
f 18 33 32
f 18 32 19
f 19 31 20
f 19 32 31
f 20 31 30
f 20 30 48
f 20 48 21
f 21 48 49
f 21 49 50
f 21 50 22
f 22 50 51
f 22 51 23
f 23 51 52
f 23 52 53
f 23 53 24
f 24 53 54
f 24 54 55
f 24 55 25
f 25 55 38
f 25 38 26
f 26 56 37
f 26 37 27
f 26 38 56
f 27 37 28
f 29 36 57
f 29 57 58
f 29 58 49
f 29 49 59
f 29 59 30
f 30 59 48
f 33 47 46
f 33 46 60
f 34 60 43
f 35 38 54
f 35 54 53
f 35 53 52
f 35 52 61
f 35 61 36
f 36 61 57
f 37 56 38
f 38 55 54
f 39 42 41
f 39 41 40
f 43 60 45
f 44 45 62
f 44 62 60
f 44 60 46
f 45 60 62
f 48 59 49
f 49 58 50
f 50 58 57
f 50 57 51
f 51 63 52
f 51 57 63
f 52 63 61
f 57 61 63

