# https://github.com/mikedh/trimesh
v 0.23065269 0.00873769 0.55511037
v 0.23225049 0.00840530 0.55541429
v 0.23065269 0.00873769 0.55465528
v 0.21745855 0.00873769 0.55511037
v 0.23763586 0.00728384 0.55541429
v 0.23900000 0.00700039 0.55511037
v 0.23225049 0.00840530 0.55511037
v 0.21733838 0.00840530 0.55541429
v 0.23900000 0.00700039 0.55465528
v 0.23899778 0.00688216 0.55420018
v 0.21784576 0.00873769 0.55465528
v 0.21626576 0.00639133 0.55511037
v 0.21626576 0.00641265 0.55513700
v 0.21626576 0.00642646 0.55515447
v 0.21626576 0.00663045 0.55541429
v 0.23899778 0.00700015 0.55541429
v 0.23900000 0.00644172 0.55511037
v 0.23900000 0.00644172 0.55465528
v 0.23899778 0.00657836 0.55420018
v 0.21806830 0.00688216 0.55420018
v 0.21787247 0.00657836 0.55420018
v 0.21626576 0.00626293 0.55511037
v 0.21626576 0.00626293 0.55541429
v 0.23899778 0.00626293 0.55541429
v 0.23899778 0.00626293 0.55511037
f 1 2 7
f 1 7 3
f 1 3 11
f 1 11 4
f 1 4 8
f 1 8 2
f 2 5 6
f 2 6 9
f 2 9 7
f 2 8 15
f 2 15 23
f 2 23 24
f 2 24 16
f 2 16 5
f 3 7 9
f 3 9 10
f 3 10 20
f 3 20 11
f 4 11 12
f 4 12 13
f 4 13 14
f 4 14 15
f 4 15 8
f 5 16 6
f 6 16 24
f 6 24 17
f 6 17 18
f 6 18 9
f 9 18 19
f 9 19 10
f 10 19 21
f 10 21 20
f 11 21 12
f 11 20 21
f 12 22 23
f 12 23 15
f 12 15 14
f 12 14 13
f 12 21 22
f 17 24 25
f 17 25 18
f 18 25 19
f 19 25 22
f 19 22 21
f 22 25 24
f 22 24 23

