# https://github.com/mikedh/trimesh
v -0.02050000 -0.04325000 0.51199942
v -0.02054761 -0.04325000 0.51294524
v -0.02051587 -0.04658301 0.51231505
v -0.02050000 -0.04825000 0.51199942
v -0.02051587 -0.04491699 0.51168379
v -0.02054761 -0.04325000 0.51105360
v -0.02054761 -0.04825000 0.51294524
v -0.02068840 -0.04325000 0.51388133
v -0.02054761 -0.04825000 0.51105360
v -0.02068840 -0.04325000 0.51011751
v -0.02068840 -0.04825000 0.51388133
v -0.02086144 -0.04325000 0.51456016
v -0.02084454 -0.04658301 0.51449422
v -0.02068840 -0.04825000 0.51011751
v -0.02092236 -0.04325000 0.50919980
v -0.02086144 -0.04825000 0.51456016
v -0.02571163 -0.04325000 0.51456016
v -0.02092236 -0.04825000 0.50919980
v -0.02108413 -0.04325000 0.50875553
v -0.02571163 -0.04825000 0.51456016
v -0.02572955 -0.04325000 0.50940950
v -0.02108413 -0.04825000 0.50875553
v -0.02124642 -0.04325000 0.50831019
v -0.02572955 -0.04825000 0.50940950
v -0.02572955 -0.04325000 0.50351731
v -0.02124642 -0.04825000 0.50831019
v -0.02138311 -0.04491699 0.50802590
v -0.02165700 -0.04325000 0.50745733
v -0.02572955 -0.04825000 0.50351731
v -0.02566555 -0.04325000 0.50354650
v -0.02165700 -0.04825000 0.50745733
v -0.02198618 -0.04491699 0.50691794
v -0.02215103 -0.04325000 0.50664879
v -0.02566555 -0.04825000 0.50354650
v -0.02484541 -0.04325000 0.50401995
v -0.02215103 -0.04825000 0.50664879
v -0.02234148 -0.04491699 0.50639693
v -0.02243670 -0.04325000 0.50627154
v -0.02484541 -0.04825000 0.50401995
v -0.02407647 -0.04325000 0.50457339
v -0.02433295 -0.04491699 0.50438855
v -0.02243670 -0.04825000 0.50627154
v -0.02272288 -0.04825000 0.50589429
v -0.02272288 -0.04325000 0.50589429
v -0.02407647 -0.04825000 0.50457339
v -0.02336640 -0.04325000 0.50520033
v -0.02360343 -0.04491699 0.50499063
v -0.02336640 -0.04825000 0.50520033
f 1 2 3
f 1 3 4
f 1 4 5
f 1 5 6
f 1 6 10
f 1 10 15
f 1 15 19
f 1 19 23
f 1 23 28
f 1 28 33
f 1 33 38
f 1 38 44
f 1 44 46
f 1 46 40
f 1 40 35
f 1 35 30
f 1 30 25
f 1 25 21
f 1 21 17
f 1 17 12
f 1 12 8
f 1 8 2
f 2 7 3
f 2 8 11
f 2 11 7
f 3 7 4
f 4 7 11
f 4 11 16
f 4 16 20
f 4 20 24
f 4 24 29
f 4 29 34
f 4 34 39
f 4 39 45
f 4 45 48
f 4 48 43
f 4 43 42
f 4 42 36
f 4 36 31
f 4 31 26
f 4 26 22
f 4 22 18
f 4 18 14
f 4 14 9
f 4 9 5
f 5 9 6
f 6 9 14
f 6 14 10
f 8 12 13
f 8 13 11
f 10 14 18
f 10 18 15
f 11 13 16
f 12 17 20
f 12 20 16
f 12 16 13
f 15 18 22
f 15 22 19
f 17 21 24
f 17 24 20
f 19 22 26
f 19 26 23
f 21 25 29
f 21 29 24
f 23 26 27
f 23 27 28
f 25 30 34
f 25 34 29
f 26 31 27
f 27 31 28
f 28 31 32
f 28 32 33
f 30 35 39
f 30 39 34
f 31 36 32
f 32 36 33
f 33 36 37
f 33 37 38
f 35 40 41
f 35 41 39
f 36 42 37
f 37 42 43
f 37 43 44
f 37 44 38
f 39 41 45
f 40 45 41
f 40 46 47
f 40 47 45
f 43 48 46
f 43 46 44
f 45 47 48
f 46 48 47

