# https://github.com/mikedh/trimesh
v 0.23900000 -0.00578595 0.55644997
v 0.23899769 -0.00689149 0.55720001
v 0.23900000 -0.00685245 0.55675516
v 0.23900000 -0.00578595 0.55541432
v 0.21539717 -0.00578595 0.55644997
v 0.23899769 -0.00700007 0.55720001
v 0.21677415 -0.00689149 0.55720001
v 0.23900000 -0.00700007 0.55675516
v 0.23900000 -0.00699972 0.55541432
v 0.21539717 -0.00578595 0.55541432
v 0.21539717 -0.00679390 0.55644997
v 0.23612358 -0.00759853 0.55720001
v 0.21729168 -0.00759853 0.55720001
v 0.23900000 -0.00700007 0.55644997
v 0.23644241 -0.00753217 0.55541432
v 0.21539717 -0.00674298 0.55541432
v 0.21539717 -0.00679390 0.55547287
v 0.23612358 -0.00759853 0.55541432
v 0.21729168 -0.00759853 0.55547287
v 0.21734019 -0.00759853 0.55541432
f 1 2 3
f 1 3 8
f 1 8 14
f 1 14 9
f 1 9 4
f 1 4 10
f 1 10 5
f 1 5 7
f 1 7 2
f 2 6 8
f 2 8 3
f 2 7 13
f 2 13 12
f 2 12 6
f 4 9 15
f 4 15 18
f 4 18 20
f 4 20 16
f 4 16 10
f 5 10 16
f 5 16 17
f 5 17 11
f 5 11 7
f 6 12 8
f 7 11 13
f 8 12 18
f 8 18 14
f 9 14 15
f 11 17 19
f 11 19 13
f 12 13 19
f 12 19 20
f 12 20 18
f 14 18 15
f 16 20 17
f 17 20 19

