# https://github.com/mikedh/trimesh
v 0.22586283 0.01831044 0.56279089
v 0.21566923 0.01235962 0.56705700
v 0.21306146 0.01831044 0.56705700
v 0.22388681 0.01831044 0.56595749
v 0.22745648 0.01830403 0.56468049
v 0.23026851 0.01822307 0.56355383
v 0.23165077 0.01814210 0.56295417
v 0.23264115 0.01756251 0.56286439
v 0.23355791 0.01689671 0.56283265
v 0.23463380 0.01602063 0.56279089
v 0.23026376 0.01235962 0.56279089
v 0.22335718 0.01235962 0.56705700
v 0.22131941 0.01721301 0.56705700
v 0.22089191 0.01796677 0.56701942
v 0.22169942 0.01831044 0.56667616
v 0.22262093 0.01817006 0.56641600
v 0.22456845 0.01747747 0.56596500
v 0.22508145 0.01791085 0.56567018
v 0.22574646 0.01781998 0.56546932
v 0.22571083 0.01827782 0.56533611
v 0.22692685 0.01807628 0.56496320
v 0.22786736 0.01787531 0.56468676
v 0.23007375 0.01720486 0.56409962
v 0.23071976 0.01724447 0.56383529
v 0.22864636 0.01815666 0.56427376
v 0.22627609 0.01816715 0.56517033
v 0.23080526 0.01768367 0.56360854
v 0.23257703 0.01719554 0.56310075
v 0.23094539 0.01812346 0.56330912
v 0.23257703 0.01716000 0.56311829
v 0.23408042 0.01645401 0.56282764
v 0.23049651 0.01757416 0.56378643
v 0.23131589 0.01707671 0.56366909
v 0.23525843 0.01537814 0.56279089
v 0.23731995 0.01248020 0.56279089
v 0.22534746 0.01235962 0.56648908
v 0.22322893 0.01303940 0.56705700
v 0.22205092 0.01596937 0.56705700
v 0.22176592 0.01680584 0.56700146
v 0.22427394 0.01659265 0.56626316
v 0.22211980 0.01743436 0.56676135
v 0.22362319 0.01748387 0.56626984
v 0.22567283 0.01643479 0.56584474
v 0.22574646 0.01715709 0.56565223
v 0.22797898 0.01701962 0.56492019
v 0.22857274 0.01748213 0.56456524
v 0.23591869 0.01460399 0.56279089
v 0.22931374 0.01711690 0.56441198
v 0.23660269 0.01366617 0.56279089
v 0.22753485 0.01619713 0.56527974
v 0.22723797 0.01538687 0.56553822
v 0.22589608 0.01568278 0.56591865
v 0.22574646 0.01465467 0.56612577
v 0.22649222 0.01429585 0.56594162
v 0.22574646 0.01326832 0.56629031
v 0.22419794 0.01340055 0.56674590
v 0.22254018 0.01521795 0.56702568
v 0.22249268 0.01633868 0.56686658
v 0.22308406 0.01621228 0.56670706
v 0.22641859 0.01693865 0.56547976
v 0.22871999 0.01603694 0.56491393
v 0.22501258 0.01474845 0.56634250
f 1 2 3
f 1 3 15
f 1 15 4
f 1 4 5
f 1 5 6
f 1 6 7
f 1 7 8
f 1 8 9
f 1 9 10
f 1 10 34
f 1 34 47
f 1 47 49
f 1 49 35
f 1 35 11
f 1 11 2
f 2 12 37
f 2 37 38
f 2 38 13
f 2 13 3
f 2 11 36
f 2 36 12
f 3 13 14
f 3 14 15
f 4 15 16
f 4 16 17
f 4 17 18
f 4 18 19
f 4 19 20
f 4 20 5
f 5 21 22
f 5 22 23
f 5 23 24
f 5 24 25
f 5 25 6
f 5 20 26
f 5 26 21
f 6 25 27
f 6 27 28
f 6 28 9
f 6 9 29
f 6 29 7
f 7 29 8
f 8 29 9
f 9 28 30
f 9 30 31
f 9 31 10
f 10 31 32
f 10 32 33
f 10 33 24
f 10 24 23
f 10 23 34
f 11 35 36
f 12 36 37
f 13 38 39
f 13 39 40
f 13 40 41
f 13 41 14
f 14 41 15
f 15 41 42
f 15 42 16
f 16 42 17
f 17 40 43
f 17 43 44
f 17 44 19
f 17 19 18
f 17 42 40
f 19 26 20
f 19 44 45
f 19 45 46
f 19 46 26
f 21 46 22
f 21 26 46
f 22 46 23
f 23 46 34
f 24 33 32
f 24 32 25
f 25 32 27
f 27 31 30
f 27 30 28
f 27 32 31
f 34 46 48
f 34 48 47
f 35 49 50
f 35 50 51
f 35 51 52
f 35 52 53
f 35 53 54
f 35 54 55
f 35 55 36
f 36 55 56
f 36 56 37
f 37 57 38
f 37 56 57
f 38 57 58
f 38 58 39
f 39 58 40
f 40 52 43
f 40 42 41
f 40 58 59
f 40 59 52
f 43 52 51
f 43 51 50
f 43 50 60
f 43 60 44
f 44 60 45
f 45 61 47
f 45 47 48
f 45 48 46
f 45 60 61
f 47 61 49
f 49 61 50
f 50 61 60
f 52 59 62
f 52 62 53
f 53 62 54
f 54 62 55
f 55 62 56
f 56 62 57
f 57 62 59
f 57 59 58

