# https://github.com/mikedh/trimesh
v 0.20376139 -0.01308977 0.57024255
v 0.20375721 -0.00855973 0.57041444
v 0.20376139 -0.00874020 0.57040955
v 0.20376139 -0.01308977 0.57026770
v 0.18241206 -0.01308977 0.57499623
v 0.20376139 -0.00855973 0.57228503
v 0.18241206 -0.00855973 0.57517721
v 0.20376139 -0.01308799 0.57245064
v 0.20374885 -0.01308977 0.57245413
v 0.18241206 -0.01308977 0.57721411
v 0.20376139 -0.00855973 0.57261415
v 0.18241206 -0.00855973 0.57738111
v 0.20376139 -0.01278824 0.57246741
v 0.20374885 -0.01279001 0.57247090
v 0.18700006 -0.01280464 0.57639306
v 0.18700006 -0.01308977 0.57637629
v 0.18241206 -0.01304232 0.57721690
v 0.20376139 -0.00857968 0.57261415
v 0.20374885 -0.00855973 0.57261764
v 0.18241206 -0.00905370 0.57737063
v 0.18700006 -0.00866482 0.57653910
v 0.18700006 -0.00855973 0.57654120
v 0.20376139 -0.01230978 0.57249257
v 0.20374885 -0.01231155 0.57249606
v 0.18700006 -0.01229603 0.57641892
v 0.18241206 -0.01209516 0.57726722
v 0.18241206 -0.01270842 0.57723577
v 0.20374885 -0.00858101 0.57261764
v 0.20374885 -0.00903508 0.57260786
v 0.20376139 -0.00903242 0.57260437
v 0.18241206 -0.00961774 0.57735666
v 0.18700006 -0.00932952 0.57652443
v 0.20376139 -0.01174220 0.57251842
v 0.20374885 -0.01174530 0.57252191
v 0.18700006 -0.01177412 0.57644337
v 0.18241206 -0.01142781 0.57729656
v 0.20374885 -0.00960577 0.57259459
v 0.20376139 -0.00960311 0.57259109
v 0.18241206 -0.00972949 0.57735386
v 0.18700006 -0.01000397 0.57650696
v 0.20376139 -0.01116042 0.57254218
v 0.20374885 -0.01116308 0.57254567
v 0.18700006 -0.01111519 0.57646993
v 0.18241206 -0.01090235 0.57731683
v 0.20374885 -0.01021326 0.57257782
v 0.20376139 -0.01021149 0.57257432
v 0.18241206 -0.01030106 0.57733709
v 0.18700006 -0.01049617 0.57649159
v 0.20376139 -0.01069261 0.57255895
v 0.20374885 -0.01069438 0.57256244
v 0.18241206 -0.01080036 0.57732032
f 1 2 3
f 1 3 6
f 1 6 11
f 1 11 18
f 1 18 30
f 1 30 38
f 1 38 46
f 1 46 49
f 1 49 41
f 1 41 33
f 1 33 23
f 1 23 13
f 1 13 8
f 1 8 4
f 1 4 9
f 1 9 16
f 1 16 10
f 1 10 5
f 1 5 2
f 2 6 3
f 2 5 7
f 2 7 12
f 2 12 22
f 2 22 19
f 2 19 11
f 2 11 6
f 4 8 9
f 5 10 17
f 5 17 27
f 5 27 26
f 5 26 36
f 5 36 44
f 5 44 51
f 5 51 47
f 5 47 39
f 5 39 31
f 5 31 20
f 5 20 12
f 5 12 7
f 8 13 14
f 8 14 9
f 9 14 15
f 9 15 16
f 10 16 17
f 11 19 28
f 11 28 18
f 12 20 21
f 12 21 22
f 13 23 24
f 13 24 14
f 14 24 15
f 15 25 26
f 15 26 27
f 15 27 17
f 15 17 16
f 15 24 25
f 18 28 29
f 18 29 30
f 19 22 28
f 20 31 32
f 20 32 21
f 21 32 29
f 21 29 28
f 21 28 22
f 23 33 34
f 23 34 24
f 24 34 35
f 24 35 25
f 25 35 26
f 26 35 36
f 29 37 38
f 29 38 30
f 29 32 37
f 31 39 32
f 32 39 40
f 32 40 37
f 33 41 34
f 34 41 42
f 34 42 35
f 35 43 36
f 35 42 43
f 36 43 44
f 37 45 46
f 37 46 38
f 37 40 45
f 39 47 40
f 40 47 48
f 40 48 45
f 41 49 42
f 42 49 50
f 42 50 43
f 43 48 44
f 43 50 48
f 44 48 51
f 45 50 49
f 45 49 46
f 45 48 50
f 47 51 48

