# https://github.com/mikedh/trimesh
v 0.19000000 0.02149961 0.56204998
v 0.18599956 0.01750830 0.56205461
v 0.19000000 0.01748234 0.56204998
v 0.19000000 0.02149961 0.56145678
v 0.18599612 0.02149961 0.56205461
v 0.18599956 0.01750004 0.56205461
v 0.19000000 0.01748234 0.56145678
v 0.17800040 0.01748234 0.56204998
v 0.17800040 0.02149961 0.56145678
v 0.17242215 0.02149961 0.56205461
v 0.17242215 0.01750004 0.56205461
v 0.17800040 0.01748234 0.56145678
v 0.17243592 0.02149961 0.56199995
v 0.17243592 0.01750004 0.56199995
f 1 2 6
f 1 6 3
f 1 3 7
f 1 7 4
f 1 4 9
f 1 9 13
f 1 13 10
f 1 10 5
f 1 5 2
f 2 5 10
f 2 10 11
f 2 11 6
f 3 6 11
f 3 11 8
f 3 8 12
f 3 12 7
f 4 7 12
f 4 12 9
f 8 11 12
f 9 12 14
f 9 14 13
f 10 13 14
f 10 14 11
f 11 14 12

