# https://github.com/mikedh/trimesh
v 0.06587284 -0.04825000 0.60011627
v 0.06587284 -0.04275000 0.60011627
v 0.06905549 -0.04825000 0.60011627
v 0.06587284 -0.04825000 0.60370234
v 0.06905549 -0.04275000 0.60011627
v 0.06587284 -0.04275000 0.60370234
v 0.06915801 -0.04458369 0.60087500
v 0.06921902 -0.04825000 0.60132707
v 0.06627120 -0.04825000 0.60610634
v 0.06921902 -0.04275000 0.60132707
v 0.06627120 -0.04275000 0.60610634
v 0.06940207 -0.04825000 0.60268445
v 0.06945208 -0.04825000 0.60610634
v 0.06940207 -0.04275000 0.60268445
v 0.06945208 -0.04275000 0.60610634
v 0.06943364 -0.04458369 0.60359621
v 0.06949678 -0.04825000 0.60542091
v 0.06949678 -0.04275000 0.60542091
f 1 2 5
f 1 5 3
f 1 3 8
f 1 8 12
f 1 12 17
f 1 17 13
f 1 13 9
f 1 9 4
f 1 4 6
f 1 6 2
f 2 6 11
f 2 11 15
f 2 15 18
f 2 18 14
f 2 14 10
f 2 10 5
f 3 5 7
f 3 7 8
f 4 9 11
f 4 11 6
f 5 10 7
f 7 10 8
f 8 10 14
f 8 14 12
f 9 13 15
f 9 15 11
f 12 14 16
f 12 16 17
f 13 17 18
f 13 18 15
f 14 18 16
f 16 18 17

