# https://github.com/mikedh/trimesh
v 0.19010186 -0.00746844 0.55930688
v 0.19495058 -0.00746844 0.55930688
v 0.19010186 -0.00746844 0.56009954
v 0.19010186 0.00802121 0.55930688
v 0.19495058 -0.00746844 0.56009954
v 0.19495058 -0.00489088 0.55930688
v 0.19010186 0.00802121 0.56009954
v 0.19479110 0.00802121 0.55930688
v 0.19495058 -0.00489088 0.56009954
v 0.19479110 0.00802121 0.56009954
f 1 2 5
f 1 5 3
f 1 3 7
f 1 7 4
f 1 4 8
f 1 8 6
f 1 6 2
f 2 6 9
f 2 9 5
f 3 5 9
f 3 9 10
f 3 10 7
f 4 7 10
f 4 10 8
f 6 8 10
f 6 10 9

