# https://github.com/mikedh/trimesh
v 0.24236843 0.01235979 0.55903806
v 0.23999796 0.01235961 0.56202020
v 0.23085568 0.01235979 0.56260465
v 0.23886584 0.01426439 0.55903880
v 0.24636742 0.01297235 0.55906708
v 0.24729750 0.01237774 0.55923129
v 0.24550527 0.01235979 0.56027235
v 0.23791138 0.01235979 0.56263661
v 0.23027046 0.01235979 0.56279053
v 0.24508552 0.01235979 0.56043803
v 0.24471801 0.01235979 0.56057358
v 0.24423904 0.01235979 0.56074036
v 0.24366253 0.01235979 0.56092954
v 0.24329329 0.01235979 0.56104562
v 0.24266627 0.01235979 0.56123738
v 0.24110743 0.01235979 0.56169730
v 0.22950411 0.01426682 0.56279016
v 0.24206886 0.01426906 0.56058423
v 0.24310170 0.01424364 0.55998325
v 0.24382277 0.01420943 0.55925260
v 0.24431742 0.01399596 0.55914606
v 0.24602256 0.01315423 0.55906966
v 0.24569860 0.01328022 0.55918574
v 0.24684465 0.01264953 0.55920704
v 0.24609745 0.01296805 0.55938411
v 0.24563416 0.01312451 0.55955309
v 0.24631168 0.01271215 0.55956962
v 0.24671228 0.01244391 0.55960451
v 0.24612880 0.01244335 0.55993403
v 0.24514125 0.01263233 0.56026978
v 0.24475807 0.01272374 0.56037888
v 0.24092281 0.01426906 0.56109925
v 0.24020870 0.01426906 0.56138248
v 0.23732442 0.01248316 0.56279053
v 0.23617140 0.01426906 0.56279053
v 0.23971406 0.01426906 0.56156909
v 0.23895815 0.01426906 0.56184167
v 0.23835378 0.01426906 0.56205473
v 0.23762225 0.01426906 0.56230563
v 0.23675662 0.01426906 0.56259840
v 0.23665386 0.01360360 0.56279053
v 0.24157944 0.01423317 0.56083917
v 0.24203054 0.01416401 0.56068121
v 0.24238585 0.01407260 0.56057689
v 0.24430697 0.01325741 0.56023782
v 0.24382277 0.01360902 0.56020770
v 0.24305990 0.01393558 0.56033921
v 0.24257047 0.01425093 0.56032819
v 0.24312260 0.01411335 0.56013386
v 0.24469711 0.01353855 0.55972133
v 0.24421117 0.01382455 0.55968607
v 0.24488696 0.01368566 0.55921880
v 0.24531890 0.01345612 0.55924231
v 0.24514125 0.01339387 0.55955272
v 0.24591631 0.01285234 0.55968533
v 0.24438709 0.01352640 0.55995423
v 0.24552443 0.01278393 0.55997811
v 0.24481381 0.01278991 0.56031754
v 0.24425298 0.01300637 0.56042848
v 0.24349881 0.01334976 0.56054713
v 0.24257918 0.01386324 0.56063125
v 0.24355454 0.01342808 0.56047403
f 1 2 3
f 1 3 4
f 1 4 5
f 1 5 6
f 1 6 7
f 1 7 2
f 2 8 9
f 2 9 3
f 2 7 10
f 2 10 11
f 2 11 12
f 2 12 13
f 2 13 14
f 2 14 15
f 2 15 16
f 2 16 8
f 3 9 4
f 4 9 17
f 4 17 18
f 4 18 19
f 4 19 20
f 4 20 21
f 4 21 22
f 4 22 5
f 5 22 23
f 5 23 24
f 5 24 6
f 6 24 25
f 6 25 26
f 6 26 27
f 6 27 28
f 6 28 7
f 7 28 29
f 7 29 30
f 7 30 31
f 7 31 32
f 7 32 33
f 7 33 10
f 8 34 9
f 8 16 34
f 9 34 41
f 9 41 35
f 9 35 17
f 10 33 36
f 10 36 11
f 11 36 37
f 11 37 38
f 11 38 12
f 12 38 39
f 12 39 40
f 12 40 35
f 12 35 13
f 13 35 14
f 14 35 15
f 15 35 41
f 15 41 16
f 16 41 34
f 17 35 18
f 18 42 43
f 18 43 44
f 18 44 45
f 18 45 46
f 18 46 47
f 18 47 48
f 18 48 19
f 18 35 40
f 18 40 39
f 18 39 38
f 18 38 37
f 18 37 36
f 18 36 33
f 18 33 32
f 18 32 42
f 19 48 49
f 19 49 50
f 19 50 51
f 19 51 20
f 20 51 52
f 20 52 21
f 21 52 22
f 22 52 53
f 22 53 23
f 23 53 25
f 23 25 24
f 25 53 51
f 25 51 54
f 25 54 26
f 26 54 51
f 26 51 50
f 26 50 55
f 26 55 27
f 27 55 28
f 28 55 56
f 28 56 46
f 28 46 57
f 28 57 29
f 29 57 45
f 29 45 58
f 29 58 30
f 30 58 31
f 31 58 59
f 31 59 32
f 32 59 60
f 32 60 42
f 42 60 61
f 42 61 43
f 43 61 62
f 43 62 45
f 43 45 44
f 45 57 46
f 45 62 58
f 46 56 48
f 46 48 47
f 48 56 49
f 49 56 50
f 50 56 55
f 51 53 52
f 58 62 60
f 58 60 59
f 60 62 61

