# https://github.com/mikedh/trimesh
v 0.19010254 -0.00804045 0.55769580
v 0.19010254 -0.00804045 0.55819474
v 0.19010254 -0.00803634 0.55769320
v 0.19011563 -0.00804045 0.55769320
v 0.19713465 -0.00804045 0.55819474
v 0.19010254 0.00597196 0.55819474
v 0.19010254 0.00597196 0.55769320
v 0.19713465 -0.00804045 0.55769320
v 0.19713465 0.00597196 0.55819474
v 0.19713465 0.00597196 0.55769320
f 1 2 6
f 1 6 7
f 1 7 3
f 1 3 4
f 1 4 8
f 1 8 5
f 1 5 2
f 2 5 9
f 2 9 6
f 3 7 10
f 3 10 8
f 3 8 4
f 5 8 10
f 5 10 9
f 6 9 10
f 6 10 7

