# https://github.com/mikedh/trimesh
v 0.04085668 -0.04825000 0.62921661
v 0.04327060 -0.04825000 0.62895138
v 0.04085668 -0.04825000 0.63247225
v 0.04085668 -0.04275000 0.62921661
v 0.04611591 -0.04825000 0.62895138
v 0.04327060 -0.04275000 0.62895138
v 0.04093854 -0.04825000 0.63247950
v 0.04085668 -0.04275000 0.63247225
v 0.04611591 -0.04825000 0.63217731
v 0.04611591 -0.04275000 0.62895138
v 0.04367678 -0.04825000 0.63244877
v 0.04093854 -0.04275000 0.63247950
v 0.04611591 -0.04275000 0.63217731
v 0.04367678 -0.04275000 0.63244877
f 1 2 5
f 1 5 9
f 1 9 11
f 1 11 7
f 1 7 3
f 1 3 8
f 1 8 4
f 1 4 6
f 1 6 2
f 2 6 10
f 2 10 5
f 3 7 12
f 3 12 8
f 4 8 12
f 4 12 14
f 4 14 13
f 4 13 10
f 4 10 6
f 5 10 13
f 5 13 9
f 7 11 14
f 7 14 12
f 9 13 14
f 9 14 11

