# https://github.com/mikedh/trimesh
v -0.01176143 0.03675000 0.52016327
v -0.01197324 0.03599809 0.52060435
v -0.01181792 0.03599809 0.52028102
v -0.01176143 0.03599809 0.52016327
v -0.02137730 0.03675000 0.52016327
v -0.01200430 0.03675000 0.52066804
v -0.01234695 0.03566942 0.52138225
v -0.01181792 0.03566942 0.52028102
v -0.01905406 0.03566942 0.52016327
v -0.02137824 0.03599809 0.52016327
v -0.02137730 0.03675000 0.53002222
v -0.01243732 0.03675000 0.52156659
v -0.01241191 0.03566942 0.52151544
v -0.02137824 0.03566942 0.52016327
v -0.02137824 0.03599809 0.53002222
v -0.02137730 0.03599809 0.53002222
v -0.02107984 0.03566942 0.52988903
v -0.02087462 0.03675000 0.52979638
v -0.01243732 0.03599809 0.52156659
v -0.01347657 0.03675000 0.52326718
v -0.01337773 0.03599809 0.52310696
v -0.01260959 0.03599809 0.52184938
v -0.01247403 0.03599809 0.52162740
v -0.01243732 0.03566942 0.52156563
v -0.02137824 0.03566942 0.53002222
v -0.02087556 0.03566942 0.52979638
v -0.02087462 0.03599809 0.52979638
v -0.02075036 0.03599809 0.52972496
v -0.01931104 0.03599809 0.52889397
v -0.01914819 0.03675000 0.52879939
v -0.01407809 0.03675000 0.52406246
v -0.01367614 0.03599809 0.52353259
v -0.01350387 0.03566942 0.52330482
v -0.01347657 0.03599809 0.52326814
v -0.01254369 0.03566942 0.52174128
v -0.01347657 0.03566942 0.52326814
v -0.01914819 0.03566942 0.52879939
v -0.01899475 0.03599809 0.52868936
v -0.01776064 0.03599809 0.52780239
v -0.01752907 0.03675000 0.52763542
v -0.01459395 0.03599809 0.52474288
v -0.01468055 0.03675000 0.52485677
v -0.01468055 0.03566942 0.52485581
v -0.01892792 0.03566942 0.52864110
v -0.01752907 0.03566942 0.52763542
v -0.01742176 0.03599809 0.52754084
v -0.01728056 0.03599809 0.52741633
v -0.01678164 0.03675000 0.52697623
v -0.01468055 0.03599809 0.52485677
v -0.01603610 0.03675000 0.52631607
v -0.01470879 0.03566942 0.52488862
v -0.01737469 0.03566942 0.52749934
v -0.01672799 0.03599809 0.52692894
v -0.01610387 0.03566942 0.52637687
v -0.01603610 0.03599809 0.52631607
v -0.01593820 0.03599809 0.52621087
v -0.01603704 0.03566942 0.52631607
f 1 2 3
f 1 3 8
f 1 8 4
f 1 4 9
f 1 9 14
f 1 14 10
f 1 10 5
f 1 5 11
f 1 11 18
f 1 18 30
f 1 30 40
f 1 40 48
f 1 48 50
f 1 50 42
f 1 42 31
f 1 31 20
f 1 20 12
f 1 12 6
f 1 6 7
f 1 7 2
f 2 8 3
f 2 7 8
f 4 8 9
f 5 10 15
f 5 15 11
f 6 12 7
f 7 12 13
f 7 13 24
f 7 24 35
f 7 35 36
f 7 36 33
f 7 33 43
f 7 43 51
f 7 51 57
f 7 57 54
f 7 54 52
f 7 52 45
f 7 45 44
f 7 44 37
f 7 37 26
f 7 26 17
f 7 17 25
f 7 25 14
f 7 14 9
f 7 9 8
f 10 14 25
f 10 25 15
f 11 15 25
f 11 25 16
f 11 16 17
f 11 17 18
f 12 19 13
f 12 20 21
f 12 21 22
f 12 22 23
f 12 23 19
f 13 19 24
f 16 25 17
f 17 26 27
f 17 27 18
f 18 27 28
f 18 28 29
f 18 29 30
f 19 23 24
f 20 31 32
f 20 32 33
f 20 33 34
f 20 34 21
f 21 35 22
f 21 34 36
f 21 36 35
f 22 35 23
f 23 35 24
f 26 28 27
f 26 37 28
f 28 37 29
f 29 37 30
f 30 37 38
f 30 38 39
f 30 39 40
f 31 41 32
f 31 42 41
f 32 41 33
f 33 36 34
f 33 41 43
f 37 44 38
f 38 44 39
f 39 45 40
f 39 44 45
f 40 45 46
f 40 46 47
f 40 47 48
f 41 49 43
f 41 42 49
f 42 50 51
f 42 51 49
f 43 49 51
f 45 52 46
f 46 52 47
f 47 53 48
f 47 52 53
f 48 53 54
f 48 54 50
f 50 54 55
f 50 55 56
f 50 56 51
f 51 56 57
f 52 54 53
f 54 57 55
f 55 57 56

