# https://github.com/mikedh/trimesh
v -0.02696117 0.02624480 0.50940153
v -0.03089385 0.02624480 0.50810093
v -0.02696117 0.02495013 0.50940153
v -0.02696117 0.02624480 0.50355976
v -0.03089385 0.02495013 0.50810093
v -0.03089385 0.02624480 0.50307337
v -0.02696117 0.02495013 0.50355976
v -0.02756478 0.02624480 0.50335684
v -0.03089385 0.02495013 0.50307337
v -0.03022364 0.02624480 0.50302279
v -0.02756786 0.02495013 0.50335621
v -0.02757171 0.02624480 0.50335496
v -0.03022364 0.02495013 0.50302279
v -0.02977440 0.02624480 0.50303403
v -0.02800439 0.02495013 0.50325631
v -0.02785888 0.02581666 0.50328940
v -0.02843400 0.02624480 0.50315828
v -0.02932863 0.02495013 0.50304527
v -0.02932863 0.02624480 0.50304527
v -0.02844093 0.02495013 0.50315703
v -0.02844786 0.02624480 0.50315579
v -0.02888516 0.02495013 0.50310084
v -0.02888516 0.02559993 0.50310084
f 1 2 5
f 1 5 3
f 1 3 7
f 1 7 4
f 1 4 8
f 1 8 12
f 1 12 17
f 1 17 21
f 1 21 19
f 1 19 14
f 1 14 10
f 1 10 6
f 1 6 2
f 2 6 9
f 2 9 5
f 3 5 9
f 3 9 13
f 3 13 18
f 3 18 22
f 3 22 20
f 3 20 15
f 3 15 11
f 3 11 7
f 4 7 8
f 6 10 13
f 6 13 9
f 7 11 8
f 8 11 12
f 10 14 13
f 11 15 12
f 12 15 16
f 12 16 17
f 13 14 18
f 14 19 18
f 15 20 17
f 15 17 16
f 17 20 21
f 18 19 23
f 18 23 22
f 19 21 23
f 20 22 21
f 21 22 23

