# https://github.com/mikedh/trimesh
v 0.24050000 -0.01234092 0.55698543
v 0.24050000 -0.01089863 0.55456647
v 0.24051648 -0.01198824 0.55474262
v 0.24211710 -0.01234092 0.55490992
v 0.24305211 -0.01234092 0.55743228
v 0.24050000 0.00558417 0.55642726
v 0.24050000 -0.00981428 0.55444377
v 0.24350092 -0.00913700 0.55444251
v 0.24350092 -0.00985815 0.55452441
v 0.24251710 -0.01028276 0.55454813
v 0.24153264 -0.01126534 0.55465882
v 0.24256400 -0.01149169 0.55475021
v 0.24158018 -0.01190753 0.55477994
v 0.24290632 -0.01234092 0.55496969
v 0.24364735 -0.01163030 0.55484762
v 0.24697601 -0.01234092 0.55743228
v 0.24697220 -0.01062842 0.55743197
v 0.24327969 0.00558417 0.55643611
v 0.24186100 0.00558417 0.55423948
v 0.24050000 0.00530870 0.55422936
v 0.24050000 -0.00883521 0.55436439
v 0.24697601 -0.00810178 0.55442037
v 0.24697601 -0.00873520 0.55449374
v 0.24463815 -0.00959496 0.55452758
v 0.24430852 -0.01030031 0.55462024
v 0.24338365 -0.01065298 0.55463795
v 0.24577539 -0.00980551 0.55460506
v 0.24568410 -0.01043366 0.55471701
v 0.24454687 -0.01090565 0.55474547
v 0.24541913 -0.01125657 0.55488999
v 0.24361756 -0.01229354 0.55502345
v 0.24541216 -0.01224091 0.55524830
v 0.24614432 -0.01223915 0.55541053
v 0.24697601 -0.01009326 0.55472808
v 0.24686380 -0.01214967 0.55554936
v 0.24697601 0.00558417 0.55644592
v 0.24552055 0.00558417 0.55425466
v 0.24691198 0.00530168 0.55425276
v 0.24697601 0.00425418 0.55422809
v 0.24697601 0.00353128 0.55421766
v 0.24050000 0.00290839 0.55420564
v 0.24050000 -0.00811056 0.55432170
v 0.24697601 -0.00686127 0.55432265
v 0.24689360 -0.00943353 0.55459652
v 0.24638711 -0.00901944 0.55451113
v 0.24629646 -0.01015117 0.55469677
v 0.24691515 -0.01070211 0.55487576
v 0.24599408 -0.01146186 0.55501523
v 0.24448348 -0.01212335 0.55506519
v 0.24524861 -0.01199702 0.55511484
v 0.24661151 -0.01163030 0.55517303
v 0.24697601 0.00279434 0.55421165
v 0.24697601 0.00183983 0.55420785
v 0.24697601 0.00101166 0.55420690
v 0.24050000 -0.00064118 0.55420184
v 0.24050000 -0.00714201 0.55427806
v 0.24697601 -0.00531371 0.55425371
v 0.24697601 -0.00102193 0.55420690
v 0.24697601 -0.00182028 0.55420754
v 0.24050000 -0.00325029 0.55420690
v 0.24050000 -0.00625769 0.55424960
v 0.24697601 -0.00399775 0.55422366
v 0.24697601 -0.00294323 0.55421291
v 0.24050000 -0.00507684 0.55422461
f 1 2 3
f 1 3 4
f 1 4 14
f 1 14 16
f 1 16 5
f 1 5 6
f 1 6 20
f 1 20 41
f 1 41 55
f 1 55 60
f 1 60 64
f 1 64 61
f 1 61 56
f 1 56 42
f 1 42 21
f 1 21 7
f 1 7 2
f 2 7 8
f 2 8 9
f 2 9 10
f 2 10 11
f 2 11 3
f 3 12 13
f 3 13 4
f 3 11 12
f 4 13 15
f 4 15 14
f 5 16 17
f 5 17 6
f 6 18 36
f 6 36 37
f 6 37 19
f 6 19 20
f 6 17 18
f 7 21 22
f 7 22 8
f 8 22 9
f 9 22 23
f 9 23 24
f 9 24 10
f 10 24 25
f 10 25 11
f 11 25 26
f 11 26 12
f 12 15 13
f 12 26 25
f 12 25 27
f 12 27 28
f 12 28 29
f 12 29 15
f 14 15 30
f 14 30 31
f 14 31 32
f 14 32 33
f 14 33 16
f 15 29 34
f 15 34 30
f 16 33 35
f 16 35 34
f 16 34 23
f 16 23 22
f 16 22 43
f 16 43 57
f 16 57 62
f 16 62 63
f 16 63 59
f 16 59 58
f 16 58 54
f 16 54 53
f 16 53 52
f 16 52 40
f 16 40 39
f 16 39 36
f 16 36 17
f 17 36 18
f 19 37 38
f 19 38 39
f 19 39 20
f 20 39 40
f 20 40 41
f 21 42 43
f 21 43 22
f 23 34 44
f 23 44 45
f 23 45 24
f 24 45 25
f 25 45 27
f 27 46 28
f 27 45 44
f 27 44 46
f 28 46 34
f 28 34 29
f 30 34 47
f 30 47 48
f 30 48 31
f 31 49 32
f 31 48 49
f 32 49 50
f 32 50 51
f 32 51 33
f 33 51 35
f 34 35 47
f 34 46 44
f 35 51 47
f 36 39 38
f 36 38 37
f 40 52 41
f 41 52 53
f 41 53 54
f 41 54 55
f 42 56 43
f 43 56 57
f 47 51 48
f 48 51 50
f 48 50 49
f 54 58 55
f 55 58 59
f 55 59 60
f 56 61 57
f 57 61 62
f 59 63 60
f 60 63 64
f 61 64 62
f 62 64 63

