# https://github.com/mikedh/trimesh
v -0.01176143 0.03437312 0.52016327
v -0.01176143 0.03258635 0.52016327
v -0.02137730 0.03437312 0.52016327
v -0.01190733 0.03437312 0.52046630
v -0.01196286 0.03386959 0.52058307
v -0.02137730 0.03258635 0.52016327
v -0.01226595 0.03258635 0.52121228
v -0.02137730 0.03437312 0.53002222
v -0.01198263 0.03437312 0.52062264
v -0.01243443 0.03437312 0.52155970
v -0.01242596 0.03258635 0.52154426
v -0.02137260 0.03258635 0.53002126
v -0.02137448 0.03288980 0.53002222
v -0.02137165 0.03386976 0.53002126
v -0.02127753 0.03437312 0.52997783
v -0.01266410 0.03437312 0.52193800
v -0.01258033 0.03386959 0.52180193
v -0.01252009 0.03288980 0.52170349
v -0.01254550 0.03258635 0.52174499
v -0.02087373 0.03258635 0.52979544
v -0.02087373 0.03437312 0.52979544
v -0.01298413 0.03437312 0.52246202
v -0.01346793 0.03437312 0.52325336
v -0.01326180 0.03258635 0.52291753
v -0.02073442 0.03288980 0.52971534
v -0.01950326 0.03258635 0.52900506
v -0.02067795 0.03437312 0.52968253
v -0.01340957 0.03288980 0.52315879
v -0.01360347 0.03437312 0.52343479
v -0.01347734 0.03386959 0.52326880
v -0.01347734 0.03258635 0.52326880
v -0.01910417 0.03258635 0.52876862
v -0.01918982 0.03288980 0.52882363
v -0.01914653 0.03386959 0.52879854
v -0.01996542 0.03437312 0.52927141
v -0.01374937 0.03437312 0.52362780
v -0.01364206 0.03386959 0.52348690
v -0.01357241 0.03288980 0.52339523
v -0.01451367 0.03258635 0.52463821
v -0.01836434 0.03258635 0.52823688
v -0.01914747 0.03437312 0.52879854
v -0.01841611 0.03386976 0.52827355
v -0.01878038 0.03437312 0.52853508
v -0.01400162 0.03437312 0.52396074
v -0.01413716 0.03386976 0.52414024
v -0.01467086 0.03437312 0.52484377
v -0.01468121 0.03258635 0.52485728
v -0.01748803 0.03258635 0.52759995
v -0.01752757 0.03386959 0.52763469
v -0.01789466 0.03437312 0.52789815
v -0.01482334 0.03437312 0.52501072
v -0.01482146 0.03258635 0.52500879
v -0.01486664 0.03386976 0.52505801
v -0.01672844 0.03258635 0.52692827
v -0.01658349 0.03288980 0.52680089
v -0.01657502 0.03386959 0.52679413
v -0.01734685 0.03437312 0.52747449
v -0.01752851 0.03437312 0.52763469
v -0.01661172 0.03437312 0.52682598
v -0.01602532 0.03437312 0.52630389
v -0.01603662 0.03386976 0.52631547
v -0.01606203 0.03258635 0.52633766
f 1 2 6
f 1 6 3
f 1 3 8
f 1 8 15
f 1 15 21
f 1 21 27
f 1 27 35
f 1 35 41
f 1 41 43
f 1 43 50
f 1 50 58
f 1 58 57
f 1 57 59
f 1 59 60
f 1 60 51
f 1 51 46
f 1 46 44
f 1 44 36
f 1 36 29
f 1 29 23
f 1 23 22
f 1 22 16
f 1 16 10
f 1 10 9
f 1 9 4
f 1 4 5
f 1 5 2
f 2 5 7
f 2 7 11
f 2 11 19
f 2 19 24
f 2 24 31
f 2 31 39
f 2 39 47
f 2 47 52
f 2 52 62
f 2 62 54
f 2 54 48
f 2 48 40
f 2 40 32
f 2 32 26
f 2 26 20
f 2 20 12
f 2 12 6
f 3 6 8
f 4 9 5
f 5 9 10
f 5 10 11
f 5 11 7
f 6 12 13
f 6 13 8
f 8 13 14
f 8 14 15
f 10 16 17
f 10 17 18
f 10 18 11
f 11 18 19
f 12 20 13
f 13 20 14
f 14 20 21
f 14 21 15
f 16 22 17
f 17 22 23
f 17 23 24
f 17 24 18
f 18 24 19
f 20 25 21
f 20 26 25
f 21 25 27
f 23 28 24
f 23 29 30
f 23 30 28
f 24 28 31
f 25 26 27
f 26 32 33
f 26 33 34
f 26 34 35
f 26 35 27
f 28 30 31
f 29 36 37
f 29 37 30
f 30 37 38
f 30 38 31
f 31 38 39
f 32 34 33
f 32 40 34
f 34 41 35
f 34 40 42
f 34 42 43
f 34 43 41
f 36 44 37
f 37 44 45
f 37 45 39
f 37 39 38
f 39 45 46
f 39 46 47
f 40 48 49
f 40 49 42
f 42 49 43
f 43 49 50
f 44 46 45
f 46 51 47
f 47 51 53
f 47 53 52
f 48 54 55
f 48 55 56
f 48 56 49
f 49 57 58
f 49 58 50
f 49 56 59
f 49 59 57
f 51 60 53
f 52 53 60
f 52 60 61
f 52 61 62
f 54 62 55
f 55 62 56
f 56 62 61
f 56 61 59
f 59 61 60

