# https://github.com/mikedh/trimesh
v 0.20569949 0.02362881 0.56705555
v 0.20083701 0.02503508 0.56705721
v 0.21311452 0.02372087 0.56708449
v 0.20941042 0.02364123 0.56864550
v 0.19725251 0.02362881 0.57212551
v 0.17898489 0.02362881 0.57317224
v 0.17820922 0.02503881 0.57221315
v 0.20858691 0.02499492 0.56787822
v 0.21035695 0.02472233 0.56734411
v 0.21118046 0.02447073 0.56722918
v 0.19827763 0.02503881 0.57117799
v 0.21201423 0.02396268 0.56734907
v 0.21035012 0.02419828 0.56786830
v 0.21110871 0.02394736 0.56776164
v 0.21052097 0.02368360 0.56819902
v 0.20642733 0.02363902 0.56967486
v 0.20869284 0.02406150 0.56863227
v 0.20765747 0.02399787 0.56904897
v 0.19816829 0.02367463 0.57189069
v 0.18937960 0.02367160 0.57396927
v 0.18700474 0.02362881 0.57452406
v 0.20400805 0.02369189 0.57038757
v 0.20248062 0.02373067 0.57079435
v 0.18171854 0.02365296 0.57547405
v 0.17994167 0.02407296 0.57550217
v 0.17994167 0.02484075 0.57513589
v 0.18183814 0.02503467 0.57481179
v 0.18287693 0.02503881 0.57465552
v 0.20461628 0.02485925 0.56951777
v 0.20677587 0.02485318 0.56875050
v 0.20792742 0.02474000 0.56839994
v 0.20950269 0.02484517 0.56761613
v 0.18614706 0.02503881 0.57404286
v 0.19559865 0.02502832 0.57183612
v 0.19645292 0.02495558 0.57167324
v 0.19943943 0.02480970 0.57102421
v 0.20079601 0.02477243 0.57069431
v 0.20935917 0.02426729 0.56821969
v 0.20644783 0.02427363 0.56930115
v 0.20538854 0.02392873 0.56984767
v 0.20570291 0.02481812 0.56917382
v 0.19627865 0.02423596 0.57208830
v 0.19044231 0.02436335 0.57341532
v 0.19971963 0.02384329 0.57144422
v 0.18838182 0.02380934 0.57414290
v 0.18505360 0.02369092 0.57490108
v 0.18700474 0.02432429 0.57422806
v 0.20303077 0.02417426 0.57042643
v 0.20140766 0.02390485 0.57099527
v 0.18173905 0.02439012 0.57515160
v 0.18387471 0.02397496 0.57500030
v 0.18293502 0.02396489 0.57516070
v 0.18103855 0.02480556 0.57503089
v 0.18391230 0.02487139 0.57456788
v 0.20223801 0.02470701 0.57033713
v 0.20391920 0.02447445 0.56998988
v 0.18510827 0.02478127 0.57439094
v 0.18732594 0.02492798 0.57385270
v 0.19044231 0.02487015 0.57315487
v 0.19559865 0.02453394 0.57210566
v 0.19771723 0.02467665 0.57152029
v 0.20040305 0.02427557 0.57106885
v 0.18975548 0.02451627 0.57350544
v 0.18876794 0.02463304 0.57367576
f 1 2 3
f 1 3 4
f 1 4 5
f 1 5 21
f 1 21 6
f 1 6 7
f 1 7 2
f 2 8 9
f 2 9 10
f 2 10 3
f 2 7 11
f 2 11 8
f 3 10 12
f 3 12 13
f 3 13 14
f 3 14 15
f 3 15 4
f 4 16 5
f 4 15 17
f 4 17 18
f 4 18 16
f 5 19 20
f 5 20 21
f 5 16 22
f 5 22 23
f 5 23 19
f 6 21 24
f 6 24 25
f 6 25 7
f 7 25 26
f 7 26 27
f 7 27 28
f 7 28 33
f 7 33 11
f 8 29 30
f 8 30 31
f 8 31 13
f 8 13 32
f 8 32 9
f 8 11 29
f 9 32 10
f 10 32 13
f 10 13 12
f 11 33 34
f 11 34 35
f 11 35 36
f 11 36 37
f 11 37 29
f 13 31 38
f 13 38 14
f 14 38 15
f 15 38 17
f 16 18 39
f 16 39 40
f 16 40 22
f 17 38 31
f 17 31 30
f 17 30 41
f 17 41 39
f 17 39 18
f 19 42 43
f 19 43 20
f 19 23 44
f 19 44 42
f 20 43 45
f 20 45 21
f 21 46 24
f 21 45 47
f 21 47 46
f 22 40 48
f 22 48 23
f 23 48 49
f 23 49 44
f 24 50 25
f 24 46 51
f 24 51 52
f 24 52 50
f 25 50 26
f 26 50 53
f 26 53 27
f 27 53 50
f 27 50 28
f 28 54 33
f 28 50 54
f 29 37 55
f 29 55 56
f 29 56 39
f 29 39 41
f 29 41 30
f 33 54 57
f 33 57 47
f 33 47 58
f 33 58 34
f 34 58 59
f 34 59 35
f 35 59 60
f 35 60 61
f 35 61 36
f 36 62 37
f 36 61 62
f 37 62 48
f 37 48 55
f 39 56 40
f 40 56 48
f 42 60 63
f 42 63 43
f 42 44 62
f 42 62 60
f 43 63 45
f 44 49 62
f 45 63 47
f 46 47 57
f 46 57 51
f 47 63 64
f 47 64 58
f 48 56 55
f 48 62 49
f 50 52 54
f 51 54 52
f 51 57 54
f 58 64 59
f 59 64 63
f 59 63 60
f 60 62 61

