# https://github.com/mikedh/trimesh
v 0.01751752 0.02160000 0.59392371
v 0.02034428 0.02160000 0.59392371
v 0.01755565 0.02160000 0.59411228
v 0.01752925 0.02665099 0.59398197
v 0.01751752 0.03675000 0.59392371
v 0.02251201 0.02160000 0.59393217
v 0.02034428 0.03675000 0.59392371
v 0.01767347 0.02160000 0.59449318
v 0.01755565 0.03675000 0.59411228
v 0.02251201 0.02160000 0.59697622
v 0.02251201 0.03675000 0.59393217
v 0.01775072 0.02160000 0.59467705
v 0.01772481 0.03169901 0.59461566
v 0.01767347 0.03675000 0.59449318
v 0.02232085 0.02160000 0.59701976
v 0.02251201 0.03675000 0.59697622
v 0.01782845 0.02160000 0.59486061
v 0.01775072 0.03675000 0.59467705
v 0.02212628 0.02160000 0.59706393
v 0.02232085 0.03675000 0.59701976
v 0.01801912 0.02160000 0.59521081
v 0.01795556 0.03169901 0.59509428
v 0.01782845 0.03675000 0.59486061
v 0.02192828 0.02160000 0.59708899
v 0.02212628 0.03675000 0.59706393
v 0.01813107 0.02160000 0.59537557
v 0.01801912 0.03675000 0.59521081
v 0.02173077 0.02160000 0.59711373
v 0.02192828 0.03675000 0.59708899
v 0.01824352 0.02160000 0.59554002
v 0.01816872 0.02665099 0.59543070
v 0.01813107 0.03675000 0.59537557
v 0.02133183 0.02160000 0.59712376
v 0.02173077 0.03675000 0.59711373
v 0.01837161 0.02160000 0.59569288
v 0.01824352 0.03675000 0.59554002
v 0.02093436 0.02160000 0.59709369
v 0.02133183 0.03675000 0.59712376
v 0.01849970 0.02160000 0.59584543
v 0.01837161 0.03675000 0.59569288
v 0.02080334 0.02665099 0.59707082
v 0.02073783 0.02160000 0.59705923
v 0.02093436 0.03675000 0.59709369
v 0.01864245 0.02160000 0.59598482
v 0.01849970 0.03675000 0.59584543
v 0.02073783 0.03675000 0.59705923
v 0.02054179 0.02160000 0.59702446
v 0.02067232 0.03169901 0.59704764
v 0.01878521 0.02160000 0.59612390
v 0.01864245 0.03675000 0.59598482
v 0.02054179 0.03675000 0.59702446
v 0.02015752 0.02160000 0.59691671
v 0.01909712 0.02160000 0.59637261
v 0.01878521 0.03675000 0.59612390
v 0.02015752 0.03675000 0.59691671
v 0.01978694 0.02160000 0.59677074
v 0.01943201 0.02160000 0.59658906
v 0.01920859 0.03169901 0.59644466
v 0.01909712 0.03675000 0.59637261
v 0.01978694 0.03675000 0.59677074
v 0.01966863 0.03169901 0.59671028
v 0.01943201 0.03675000 0.59658906
f 1 2 6
f 1 6 10
f 1 10 15
f 1 15 19
f 1 19 24
f 1 24 28
f 1 28 33
f 1 33 37
f 1 37 42
f 1 42 47
f 1 47 52
f 1 52 56
f 1 56 57
f 1 57 53
f 1 53 49
f 1 49 44
f 1 44 39
f 1 39 35
f 1 35 30
f 1 30 26
f 1 26 21
f 1 21 17
f 1 17 12
f 1 12 8
f 1 8 3
f 1 3 4
f 1 4 5
f 1 5 7
f 1 7 2
f 2 7 11
f 2 11 6
f 3 8 14
f 3 14 9
f 3 9 4
f 4 9 5
f 5 9 14
f 5 14 18
f 5 18 23
f 5 23 27
f 5 27 32
f 5 32 36
f 5 36 40
f 5 40 45
f 5 45 50
f 5 50 54
f 5 54 59
f 5 59 62
f 5 62 60
f 5 60 55
f 5 55 51
f 5 51 46
f 5 46 43
f 5 43 38
f 5 38 34
f 5 34 29
f 5 29 25
f 5 25 20
f 5 20 16
f 5 16 11
f 5 11 7
f 6 11 16
f 6 16 10
f 8 12 13
f 8 13 14
f 10 16 20
f 10 20 15
f 12 17 23
f 12 23 18
f 12 18 13
f 13 18 14
f 15 20 25
f 15 25 19
f 17 21 22
f 17 22 23
f 19 25 29
f 19 29 24
f 21 26 32
f 21 32 27
f 21 27 22
f 22 27 23
f 24 29 34
f 24 34 28
f 26 30 31
f 26 31 32
f 28 34 38
f 28 38 33
f 30 35 40
f 30 40 36
f 30 36 31
f 31 36 32
f 33 38 43
f 33 43 37
f 35 39 45
f 35 45 40
f 37 41 42
f 37 43 41
f 39 44 50
f 39 50 45
f 41 43 46
f 41 46 48
f 41 48 42
f 42 48 47
f 44 49 54
f 44 54 50
f 46 51 48
f 47 48 51
f 47 51 55
f 47 55 52
f 49 53 59
f 49 59 54
f 52 55 60
f 52 60 56
f 53 57 58
f 53 58 59
f 56 60 61
f 56 61 57
f 57 61 62
f 57 62 58
f 58 62 59
f 60 62 61

