# https://github.com/mikedh/trimesh
v -0.00158893 -0.02094285 0.55552186
v 0.00883032 -0.02094285 0.54745538
v 0.00167898 -0.02094285 0.55552186
v -0.00158893 0.02857161 0.55552186
v 0.00993027 -0.02094285 0.54887520
v 0.00883032 0.02857161 0.54745538
v 0.00889757 0.02857161 0.54754145
v 0.00234693 -0.02094285 0.55500542
v 0.00231045 0.02857161 0.55503385
v 0.00167898 0.02857161 0.55552186
v 0.01005565 -0.02094285 0.54903709
v 0.01005565 0.02857161 0.54903709
f 1 2 5
f 1 5 11
f 1 11 8
f 1 8 3
f 1 3 10
f 1 10 4
f 1 4 6
f 1 6 2
f 2 6 7
f 2 7 5
f 3 8 9
f 3 9 10
f 4 10 9
f 4 9 12
f 4 12 7
f 4 7 6
f 5 7 11
f 7 12 11
f 8 11 9
f 9 11 12

