# https://github.com/mikedh/trimesh
v 0.22612106 0.00351270 0.55800016
v 0.22886975 0.00351270 0.55800016
v 0.22612106 0.00351270 0.55981052
v 0.22612106 0.00649343 0.55720027
v 0.22886975 0.00351270 0.55971443
v 0.22886975 0.00723647 0.55720027
v 0.22640788 0.00351270 0.55980056
v 0.22612106 0.00916640 0.55981078
v 0.22612106 0.00977579 0.55720027
v 0.22886975 0.00922587 0.55971443
v 0.22886975 0.00922587 0.55720027
v 0.22612106 0.00977579 0.55981052
f 1 2 5
f 1 5 7
f 1 7 3
f 1 3 8
f 1 8 12
f 1 12 9
f 1 9 4
f 1 4 2
f 2 4 6
f 2 6 11
f 2 11 10
f 2 10 5
f 3 7 8
f 4 9 11
f 4 11 6
f 5 10 8
f 5 8 7
f 8 10 12
f 9 12 10
f 9 10 11

