# https://github.com/mikedh/trimesh
v 0.05987773 0.04225000 0.62584990
v 0.05883446 0.04225000 0.62674436
v 0.05952781 0.04041631 0.62615071
v 0.05987773 0.03675000 0.62584990
v 0.05987773 0.04225000 0.61596689
v 0.05658864 0.04225000 0.62831100
v 0.05733670 0.03858369 0.62778923
v 0.05883446 0.03675000 0.62674436
v 0.05987773 0.03675000 0.61596689
v 0.05434445 0.04225000 0.62195793
v 0.05539315 0.04225000 0.62897919
v 0.05658864 0.03675000 0.62831100
v 0.05434445 0.03675000 0.62195793
v 0.05434445 0.04225000 0.62956484
v 0.05539315 0.03675000 0.62897919
v 0.05434445 0.03675000 0.62956484
f 1 2 3
f 1 3 4
f 1 4 9
f 1 9 5
f 1 5 10
f 1 10 14
f 1 14 11
f 1 11 6
f 1 6 2
f 2 6 7
f 2 7 8
f 2 8 3
f 3 8 4
f 4 8 12
f 4 12 15
f 4 15 16
f 4 16 13
f 4 13 9
f 5 9 13
f 5 13 10
f 6 11 15
f 6 15 12
f 6 12 7
f 7 12 8
f 10 13 16
f 10 16 14
f 11 14 16
f 11 16 15

