# https://github.com/mikedh/trimesh
v -0.11262631 0.10360279 0.31815908
v -0.11262631 0.10382294 0.31815908
v -0.10992973 0.10349627 0.31815908
v -0.11262631 0.10311121 0.31982634
v -0.11262631 0.10382294 0.31982634
v -0.11230850 0.10382294 0.31815908
v -0.10992973 0.10355744 0.31815908
v -0.10992973 0.10323146 0.31982634
v -0.11159450 0.10382294 0.31982634
v -0.10992973 0.10329681 0.31982634
f 1 2 6
f 1 6 7
f 1 7 3
f 1 3 4
f 1 4 5
f 1 5 2
f 2 5 9
f 2 9 6
f 3 7 10
f 3 10 8
f 3 8 4
f 4 8 10
f 4 10 9
f 4 9 5
f 6 9 7
f 7 9 10

