# https://github.com/mikedh/trimesh
v 0.02612995 0.11221825 0.34664422
v 0.02611628 0.11727019 0.34383652
v 0.02608113 0.11537585 0.34648508
v 0.01948106 0.11344596 0.34664422
v 0.02612995 0.11976116 0.33527541
v 0.02612995 0.11932230 0.34074837
v 0.02602385 0.11866789 0.34179445
v 0.02582403 0.11802015 0.34283607
v 0.02509177 0.11749018 0.34384653
v 0.02584160 0.11631135 0.34527876
v 0.02496159 0.11563695 0.34645838
v 0.02389022 0.11587582 0.34643167
v 0.02281950 0.11610025 0.34640273
v 0.02175008 0.11631246 0.34637491
v 0.02071190 0.11650245 0.34634709
v 0.01955266 0.11670467 0.34630146
v 0.01950254 0.11822791 0.34423046
v 0.01948106 0.12270989 0.33733083
v 0.01948106 0.12111998 0.33527541
v 0.02103605 0.12354651 0.33541006
v 0.02216861 0.12332208 0.33543343
v 0.02330116 0.12308209 0.33545791
v 0.02443437 0.12282544 0.33548351
v 0.02579604 0.12248324 0.33553470
v 0.02612344 0.12129441 0.33751000
v 0.02600172 0.12068889 0.33858500
v 0.02583770 0.12006226 0.33967448
v 0.02443958 0.12041779 0.33960660
v 0.02507615 0.11937007 0.34104550
v 0.02456455 0.11857567 0.34242209
v 0.02401389 0.11775572 0.34379200
v 0.02448644 0.11665356 0.34520865
v 0.02341897 0.11690688 0.34515301
v 0.02235281 0.11714686 0.34509625
v 0.02128534 0.11737241 0.34504061
v 0.02007012 0.11761017 0.34497718
v 0.01972124 0.11914231 0.34287613
v 0.01953509 0.12057445 0.34077397
v 0.02077960 0.11846012 0.34362508
v 0.01964639 0.12356762 0.33578843
v 0.01974728 0.12142440 0.33938403
v 0.01994255 0.12214325 0.33815879
v 0.02151902 0.12193993 0.33805418
v 0.02076072 0.12292432 0.33659969
v 0.02188221 0.12269434 0.33664977
v 0.02300305 0.12244657 0.33669985
v 0.02412519 0.12218436 0.33675104
v 0.02568799 0.12189105 0.33664532
v 0.02486201 0.12117331 0.33820998
v 0.02374702 0.12144440 0.33815767
v 0.02333306 0.12068111 0.33955318
v 0.02397744 0.11963895 0.34099097
v 0.02347625 0.11883566 0.34236645
v 0.02293536 0.11800348 0.34373636
v 0.02185748 0.11823902 0.34368072
v 0.02130031 0.11931119 0.34225739
v 0.01990805 0.11981560 0.34184007
v 0.02068457 0.12035669 0.34083072
v 0.02112067 0.12116109 0.33944746
v 0.02222719 0.12092888 0.33949976
v 0.02263400 0.12169995 0.33810537
v 0.02288004 0.11989338 0.34093756
v 0.02238861 0.11908120 0.34231303
v 0.02178328 0.12013336 0.34088414
f 1 2 3
f 1 3 4
f 1 4 5
f 1 5 6
f 1 6 2
f 2 7 8
f 2 8 9
f 2 9 10
f 2 10 3
f 2 6 7
f 3 11 4
f 3 10 11
f 4 11 12
f 4 12 13
f 4 13 14
f 4 14 15
f 4 15 16
f 4 16 17
f 4 17 18
f 4 18 19
f 4 19 5
f 5 19 20
f 5 20 21
f 5 21 22
f 5 22 23
f 5 23 24
f 5 24 25
f 5 25 6
f 6 25 26
f 6 26 27
f 6 27 28
f 6 28 29
f 6 29 7
f 7 29 30
f 7 30 8
f 8 30 9
f 9 30 31
f 9 31 32
f 9 32 10
f 10 32 11
f 11 32 12
f 12 32 33
f 12 33 13
f 13 33 34
f 13 34 14
f 14 34 35
f 14 35 15
f 15 35 36
f 15 36 16
f 16 36 17
f 17 37 38
f 17 38 18
f 17 36 39
f 17 39 37
f 18 40 19
f 18 38 41
f 18 41 42
f 18 42 43
f 18 43 44
f 18 44 40
f 19 40 20
f 20 40 44
f 20 44 45
f 20 45 21
f 21 45 46
f 21 46 22
f 22 46 47
f 22 47 23
f 23 47 48
f 23 48 24
f 24 48 25
f 25 48 47
f 25 47 49
f 25 49 26
f 26 49 28
f 26 28 27
f 28 49 50
f 28 50 51
f 28 51 52
f 28 52 29
f 29 52 30
f 30 52 53
f 30 53 31
f 31 53 54
f 31 54 33
f 31 33 32
f 33 54 34
f 34 54 55
f 34 55 35
f 35 55 39
f 35 39 36
f 37 39 56
f 37 56 57
f 37 57 38
f 38 58 41
f 38 57 58
f 39 55 56
f 41 59 42
f 41 58 59
f 42 59 43
f 43 45 44
f 43 59 60
f 43 60 61
f 43 61 45
f 45 61 46
f 46 61 50
f 46 50 47
f 47 50 49
f 50 61 51
f 51 62 52
f 51 61 60
f 51 60 62
f 52 62 53
f 53 63 54
f 53 62 63
f 54 63 55
f 55 63 56
f 56 63 64
f 56 64 58
f 56 58 57
f 58 64 59
f 59 64 60
f 60 64 62
f 62 64 63

