# https://github.com/mikedh/trimesh
v -0.11955886 -0.10016339 0.31396079
v -0.11955886 -0.09839549 0.31396079
v -0.11789160 -0.10016339 0.31396079
v -0.11955886 -0.10016339 0.31680805
v -0.11897019 -0.09839549 0.31396079
v -0.11955886 -0.09839549 0.31678269
v -0.11789160 -0.09914765 0.31396079
v -0.11789160 -0.10016339 0.31680805
v -0.11955886 -0.09862775 0.31680805
v -0.11833534 -0.09839549 0.31680805
v -0.11789160 -0.09870459 0.31680805
v -0.11955021 -0.09839549 0.31680805
f 1 2 5
f 1 5 7
f 1 7 3
f 1 3 8
f 1 8 4
f 1 4 9
f 1 9 6
f 1 6 2
f 2 6 12
f 2 12 10
f 2 10 5
f 3 7 11
f 3 11 8
f 4 8 11
f 4 11 10
f 4 10 12
f 4 12 9
f 5 10 11
f 5 11 7
f 6 9 12

