# https://github.com/mikedh/trimesh
v -0.12563914 0.09315865 0.31872087
v -0.12563914 0.09315865 0.32043469
v -0.12563914 0.09484384 0.31872087
v -0.12449730 0.09315865 0.31872087
v -0.12563914 0.09433688 0.32043469
v -0.12417502 0.09315865 0.32043469
v -0.12563914 0.09484384 0.32012984
v -0.12253988 0.09484384 0.31872087
v -0.12221325 0.09484384 0.32043469
v -0.12441781 0.09484384 0.32043469
f 1 2 5
f 1 5 7
f 1 7 3
f 1 3 8
f 1 8 4
f 1 4 6
f 1 6 2
f 2 6 9
f 2 9 10
f 2 10 5
f 3 7 10
f 3 10 9
f 3 9 8
f 4 8 9
f 4 9 6
f 5 10 7

