# https://github.com/mikedh/trimesh
v -0.01268894 0.13143732 0.29094169
v -0.01268894 0.13190691 0.29649240
v -0.01240054 0.13393325 0.29160727
v -0.01040172 0.13393889 0.29125954
v -0.00862563 0.13396177 0.29115359
v 0.00071169 0.13407400 0.29100363
v 0.01011183 0.13411789 0.29096505
v 0.01648234 0.13128246 0.29094169
v 0.01648234 0.13164359 0.29649240
v -0.01230916 0.13430441 0.29628267
v -0.01236627 0.13423262 0.29501018
v -0.00097874 0.13444892 0.29644513
v -0.01237770 0.13412823 0.29359642
v -0.01091571 0.13409406 0.29288900
v -0.00975354 0.13408811 0.29257224
v -0.00744919 0.13402196 0.29151273
v -0.00623277 0.13402980 0.29139374
v -0.00103870 0.13406867 0.29109110
v -0.00099873 0.13419093 0.29233208
v 0.00838714 0.13413011 0.29101667
v 0.01156811 0.13414234 0.29160238
v 0.01414087 0.13401632 0.29178223
v 0.01612827 0.13377713 0.29121662
v 0.00950933 0.13423732 0.29219407
v 0.01621393 0.13388215 0.29252442
v 0.01623963 0.13399877 0.29430439
v 0.01569424 0.13414297 0.29632614
v 0.00902676 0.13448497 0.29642068
v -0.00500778 0.13440660 0.29624953
v -0.01025324 0.13432761 0.29607729
v -0.01087573 0.13424861 0.29483903
v -0.00972498 0.13420911 0.29399414
v 0.00784746 0.13446428 0.29587734
v -0.00093019 0.13439783 0.29525196
v -0.00262062 0.13442572 0.29613597
v -0.00855710 0.13421852 0.29386157
v -0.00682384 0.13417181 0.29294985
v -0.00859137 0.13409594 0.29243477
v -0.00478791 0.13406993 0.29156489
v -0.00277196 0.13410786 0.29166432
v -0.00037624 0.13430911 0.29373443
v 0.00775894 0.13424892 0.29231361
v -0.00391414 0.13418591 0.29263200
v -0.00272627 0.13425080 0.29323511
v 0.01130827 0.13432353 0.29377681
v 0.01245330 0.13422165 0.29296289
v 0.01422083 0.13414265 0.29344918
v 0.00955216 0.13435018 0.29369205
v 0.01484617 0.13417870 0.29494063
v 0.01311862 0.13435895 0.29631853
v 0.00900392 0.13444014 0.29522534
v 0.01044878 0.13443952 0.29566218
v -0.00384846 0.13439250 0.29567903
v -0.00687524 0.13436930 0.29593983
v -0.00852284 0.13434234 0.29586104
v -0.00737780 0.13427870 0.29444837
v 0.00780177 0.13436052 0.29380506
v -0.00269486 0.13435237 0.29468798
v -0.00620992 0.13428717 0.29432232
v -0.00506203 0.13424140 0.29347743
v -0.00154697 0.13430817 0.29384636
v -0.00387702 0.13430065 0.29407836
v 0.01309292 0.13431068 0.29501181
v -0.00503062 0.13434046 0.29492162
f 1 2 3
f 1 3 4
f 1 4 5
f 1 5 6
f 1 6 7
f 1 7 8
f 1 8 9
f 1 9 2
f 2 10 11
f 2 11 3
f 2 9 12
f 2 12 10
f 3 13 14
f 3 14 15
f 3 15 4
f 3 11 13
f 4 15 16
f 4 16 5
f 5 16 17
f 5 17 18
f 5 18 6
f 6 18 19
f 6 19 20
f 6 20 7
f 7 21 22
f 7 22 23
f 7 23 8
f 7 20 24
f 7 24 21
f 8 23 25
f 8 25 26
f 8 26 9
f 9 26 27
f 9 27 28
f 9 28 12
f 10 12 29
f 10 29 30
f 10 30 31
f 10 31 11
f 11 31 32
f 11 32 13
f 12 28 33
f 12 33 34
f 12 34 35
f 12 35 29
f 13 32 15
f 13 15 14
f 15 32 36
f 15 36 37
f 15 37 38
f 15 38 16
f 16 38 17
f 17 38 39
f 17 39 18
f 18 39 40
f 18 40 19
f 19 41 42
f 19 42 20
f 19 40 43
f 19 43 44
f 19 44 41
f 20 42 24
f 21 24 45
f 21 45 46
f 21 46 22
f 22 46 47
f 22 47 25
f 22 25 23
f 24 42 48
f 24 48 45
f 25 47 26
f 26 47 49
f 26 49 27
f 27 49 50
f 27 50 28
f 28 51 33
f 28 50 52
f 28 52 51
f 29 53 54
f 29 54 30
f 29 35 53
f 30 55 31
f 30 54 55
f 31 55 56
f 31 56 32
f 32 56 36
f 33 51 34
f 34 51 57
f 34 57 41
f 34 41 58
f 34 58 53
f 34 53 35
f 36 56 59
f 36 59 60
f 36 60 37
f 37 60 43
f 37 43 38
f 38 43 39
f 39 43 40
f 41 44 61
f 41 61 58
f 41 57 42
f 42 57 48
f 43 60 44
f 44 60 62
f 44 62 61
f 45 52 63
f 45 63 46
f 45 48 52
f 46 63 47
f 47 63 49
f 48 57 51
f 48 51 52
f 49 63 50
f 50 63 52
f 53 58 64
f 53 64 54
f 54 64 55
f 55 64 56
f 56 64 59
f 58 62 64
f 58 61 62
f 59 64 62
f 59 62 60

