# https://github.com/mikedh/trimesh
v -0.10940977 -0.10923245 0.30441464
v -0.11121042 -0.10923245 0.30441464
v -0.10961652 -0.11068638 0.30441464
v -0.10940977 -0.11081349 0.30438597
v -0.10940977 -0.10923245 0.30218014
v -0.11121042 -0.10974703 0.30306247
v -0.11118962 -0.10970691 0.30433645
v -0.11062630 -0.11005871 0.30441464
v -0.11120020 -0.10923245 0.30218275
v -0.11121042 -0.10924186 0.29775806
v -0.11002209 -0.11044584 0.30429474
v -0.10940977 -0.11083132 0.30403929
v -0.10940977 -0.10924186 0.29775806
v -0.11121042 -0.10975924 0.30266106
v -0.11097688 -0.10989907 0.30307681
v -0.11112740 -0.10978681 0.30346845
v -0.11115754 -0.10975082 0.30385683
v -0.11019588 -0.11037849 0.29775806
v -0.11119138 -0.10974158 0.29784929
v -0.11121042 -0.10974455 0.29825983
v -0.10995793 -0.11051155 0.30377277
v -0.10940977 -0.11084569 0.30373823
v -0.10940977 -0.11089571 0.29870295
v -0.10942335 -0.11087441 0.29817121
v -0.10953350 -0.11079038 0.29775806
v -0.11090127 -0.10995982 0.30267931
v -0.11121042 -0.10977823 0.30176309
v -0.11120566 -0.10977377 0.30218275
v -0.10990029 -0.11056421 0.30337070
v -0.10983614 -0.11061869 0.30296864
v -0.11032543 -0.11030651 0.29800113
v -0.11053130 -0.11018979 0.29841231
v -0.11072342 -0.11007902 0.29882090
v -0.11121042 -0.10975875 0.29871403
v -0.10940977 -0.11085922 0.30342805
v -0.10940977 -0.11090495 0.29915910
v -0.10964807 -0.11075026 0.29863583
v -0.11080661 -0.11003164 0.30223032
v -0.10976493 -0.11067498 0.30256527
v -0.11072642 -0.11008942 0.30187973
v -0.11121042 -0.10978351 0.30133821
v -0.10940977 -0.11087226 0.30309636
v -0.10940977 -0.11088646 0.30267083
v -0.10981975 -0.11065369 0.29904507
v -0.11001839 -0.11053697 0.29943866
v -0.11090250 -0.10997353 0.29922753
v -0.11121042 -0.10977047 0.29916106
v -0.10940977 -0.11091189 0.29961069
v -0.10965424 -0.11075258 0.30217493
v -0.11062577 -0.11015925 0.30147767
v -0.11121042 -0.10978648 0.30091008
v -0.10940977 -0.11089884 0.30221142
v -0.10940977 -0.11091651 0.30005707
v -0.11012908 -0.11047341 0.29986093
v -0.11026814 -0.11038938 0.30026756
v -0.11121042 -0.10978582 0.30001667
v -0.11114009 -0.10982594 0.29961721
v -0.10950407 -0.11085163 0.30176439
v -0.11051614 -0.11023238 0.30107625
v -0.10945648 -0.11088696 0.30135385
v -0.11121042 -0.10978731 0.30047674
v -0.10940977 -0.11091882 0.30096417
v -0.10940977 -0.11091898 0.30050019
v -0.11039664 -0.11030915 0.30067223
f 1 2 8
f 1 8 3
f 1 3 4
f 1 4 12
f 1 12 22
f 1 22 35
f 1 35 42
f 1 42 43
f 1 43 52
f 1 52 62
f 1 62 63
f 1 63 53
f 1 53 48
f 1 48 36
f 1 36 23
f 1 23 13
f 1 13 5
f 1 5 9
f 1 9 2
f 2 6 7
f 2 7 8
f 2 9 10
f 2 10 20
f 2 20 34
f 2 34 47
f 2 47 56
f 2 56 61
f 2 61 51
f 2 51 41
f 2 41 27
f 2 27 14
f 2 14 6
f 3 8 11
f 3 11 12
f 3 12 4
f 5 13 10
f 5 10 9
f 6 14 15
f 6 15 16
f 6 16 17
f 6 17 7
f 7 17 8
f 8 17 11
f 10 13 25
f 10 25 18
f 10 18 19
f 10 19 20
f 11 17 21
f 11 21 12
f 12 21 22
f 13 23 24
f 13 24 25
f 14 26 15
f 14 27 28
f 14 28 26
f 15 29 21
f 15 21 17
f 15 17 16
f 15 26 30
f 15 30 29
f 18 25 24
f 18 24 31
f 18 31 19
f 19 31 32
f 19 32 20
f 20 32 33
f 20 33 34
f 21 29 22
f 22 29 35
f 23 36 37
f 23 37 24
f 24 37 31
f 26 28 38
f 26 38 39
f 26 39 30
f 27 40 38
f 27 38 28
f 27 41 40
f 29 30 42
f 29 42 35
f 30 39 43
f 30 43 42
f 31 37 32
f 32 37 44
f 32 44 33
f 33 44 45
f 33 45 46
f 33 46 34
f 34 46 47
f 36 44 37
f 36 48 44
f 38 40 39
f 39 40 49
f 39 49 43
f 40 41 50
f 40 50 49
f 41 51 50
f 43 49 52
f 44 48 45
f 45 48 53
f 45 53 54
f 45 54 46
f 46 54 55
f 46 55 56
f 46 56 57
f 46 57 47
f 47 57 56
f 49 50 58
f 49 58 52
f 50 51 59
f 50 59 60
f 50 60 58
f 51 61 59
f 52 58 60
f 52 60 62
f 53 63 54
f 54 63 55
f 55 63 62
f 55 62 64
f 55 64 56
f 56 64 61
f 59 61 64
f 59 64 62
f 59 62 60

