# https://github.com/mikedh/trimesh
v -0.11677536 0.10083696 0.31702889
v -0.11677536 0.10083696 0.31815908
v -0.11677536 0.10121872 0.31549897
v -0.11564161 0.10083696 0.31549897
v -0.11435775 0.10083696 0.31815908
v -0.11677536 0.10361248 0.31815908
v -0.11677536 0.10382294 0.31549897
v -0.11501332 0.10083696 0.31549897
v -0.11396165 0.10299394 0.31549897
v -0.11396165 0.10265427 0.31815908
v -0.11670457 0.10366655 0.31815908
v -0.11677536 0.10369812 0.31784528
v -0.11677536 0.10382294 0.31737368
v -0.11396165 0.10382294 0.31549897
v -0.11396165 0.10382294 0.31815908
v -0.11660375 0.10374343 0.31815908
v -0.11669355 0.10376477 0.31782992
v -0.11677536 0.10379079 0.31749894
v -0.11673872 0.10382294 0.31748071
v -0.11649661 0.10382294 0.31815908
v -0.11661202 0.10382294 0.31783929
v -0.11662056 0.10382294 0.31781560
v -0.11673432 0.10382294 0.31749347
f 1 2 6
f 1 6 12
f 1 12 18
f 1 18 13
f 1 13 7
f 1 7 3
f 1 3 4
f 1 4 8
f 1 8 5
f 1 5 2
f 2 5 10
f 2 10 15
f 2 15 20
f 2 20 16
f 2 16 11
f 2 11 6
f 3 7 14
f 3 14 9
f 3 9 8
f 3 8 4
f 5 8 9
f 5 9 10
f 6 11 12
f 7 13 19
f 7 19 23
f 7 23 22
f 7 22 21
f 7 21 20
f 7 20 15
f 7 15 14
f 9 14 15
f 9 15 10
f 11 16 17
f 11 17 12
f 12 17 18
f 13 18 19
f 16 20 21
f 16 21 22
f 16 22 17
f 17 22 23
f 17 23 18
f 18 23 19

