DBRep_DrawableShape

CASCADE Topology V3, (c) Open Cascade
Locations 63
1
              1               0               0               1 
              0               1               0              76 
              0               0               1              62 
1
              1               0               0              -0 
              0               1               0              -0 
              0               0               1            -1.5 
1
              1              -0               0               0 
              0 2.22044604925031e-16              -1               0 
              0               1 2.22044604925031e-16               0 
1
              1               0               0               0 
              0               1               0           27.75 
              0               0               1               0 
2  2 1 3 1 4 1 0
1
              1               0               0              -0 
              0               1               0              -0 
              0               0               1              -5 
1
              1              -0               0               0 
              0 2.22044604925031e-16              -1               0 
              0               1 2.22044604925031e-16               0 
1
              1               0               0 -11.6913429510899 
              0               1               0           27.75 
              0               0               1           -6.75 
2  6 1 7 1 8 1 0
1
              1               0               0              -0 
              0               1               0              -0 
              0               0               1              -5 
1
              1              -0               0               0 
              0 2.22044604925031e-16              -1               0 
              0               1 2.22044604925031e-16               0 
1
              1               0               0 -2.47990976827339e-15 
              0               1               0           27.75 
              0               0               1           -13.5 
2  10 1 11 1 12 1 0
1
              1               0               0              -0 
              0               1               0              -0 
              0               0               1              -5 
1
              1              -0               0               0 
              0 2.22044604925031e-16              -1               0 
              0               1 2.22044604925031e-16               0 
1
              1               0               0               6 
              0               1               0           27.75 
              0               0               1 -10.3923048454133 
2  14 1 15 1 16 1 0
1
              1               0               0              -0 
              0               1               0              -0 
              0               0               1              -5 
1
              1              -0               0               0 
              0 2.22044604925031e-16              -1               0 
              0               1 2.22044604925031e-16               0 
1
              1               0               0 11.6913429510899 
              0               1               0           27.75 
              0               0               1 -6.75000000000001 
2  18 1 19 1 20 1 0
1
              1               0               0              -0 
              0               1               0              -0 
              0               0               1              -5 
1
              1              -0               0               0 
              0 2.22044604925031e-16              -1               0 
              0               1 2.22044604925031e-16               0 
1
              1               0               0             -12 
              0               1               0           27.75 
              0               0               1 1.46957615897682e-15 
2  22 1 23 1 24 1 0
1
              1               0               0              -0 
              0               1               0              -0 
              0               0               1              -5 
1
              1              -0               0               0 
              0 2.22044604925031e-16              -1               0 
              0               1 2.22044604925031e-16               0 
1
              1               0               0 -11.6913429510899 
              0               1               0           27.75 
              0               0               1            6.75 
2  26 1 27 1 28 1 0
1
              1               0               0              -0 
              0               1               0              -0 
              0               0               1           -0.65 
1
              1              -0               0               0 
              0 2.22044604925031e-16              -1               0 
              0               1 2.22044604925031e-16               0 
1
              1               0               0               0 
              0               1               0            25.6 
              0               0               1               0 
2  30 1 31 1 32 1 0
2  2 1 3 1 4 1 32 -1 31 -1 30 -1 0
1
              1               0               0              -0 
              0               1               0              -0 
              0               0               1              -5 
1
              1              -0               0               0 
              0 2.22044604925031e-16              -1               0 
              0               1 2.22044604925031e-16               0 
1
              1               0               0 11.6913429510899 
              0               1               0           27.75 
              0               0               1            6.75 
2  35 1 36 1 37 1 0
1
              1               0               0              -0 
              0               1               0              -0 
              0               0               1              -5 
1
              1              -0               0               0 
              0 2.22044604925031e-16              -1               0 
              0               1 2.22044604925031e-16               0 
1
              1               0               0               6 
              0               1               0           27.75 
              0               0               1 10.3923048454133 
2  39 1 40 1 41 1 0
1
              1               0               0              -0 
              0               1               0              -0 
              0               0               1              -5 
1
              1              -0               0               0 
              0 2.22044604925031e-16              -1               0 
              0               1 2.22044604925031e-16               0 
1
              1               0               0 8.26636589424463e-16 
              0               1               0           27.75 
              0               0               1            13.5 
2  43 1 44 1 45 1 0
1
              1               0               0              -0 
              0               1               0              -0 
              0               0               1              -5 
1
              1              -0               0               0 
              0 2.22044604925031e-16              -1               0 
              0               1 2.22044604925031e-16               0 
1
              1               0               0               0 
              0               1               0           27.75 
              0               0               1               0 
2  47 1 48 1 49 1 0
2  8 -1 7 -1 6 -1 0
2  12 -1 11 -1 10 -1 0
2  16 -1 15 -1 14 -1 0
2  20 -1 19 -1 18 -1 0
2  24 -1 23 -1 22 -1 0
2  28 -1 27 -1 26 -1 0
2  37 -1 36 -1 35 -1 0
2  41 -1 40 -1 39 -1 0
2  45 -1 44 -1 43 -1 0
1
              1               0               0              -0 
              0               1               0              -0 
              0               0               1            -2.5 
1
              1              -0               0               0 
              0 2.22044604925031e-16              -1               0 
              0               1 2.22044604925031e-16               0 
1
              1               0               0               0 
              0               1               0            25.6 
              0               0               1               0 
2  60 1 61 1 62 1 0
Curve2ds 75
1 0 3 1 0 
2 0 0 1 0 -0 1 20
1 6.2831853071795862 -0 0 1 
1 0 -0 0 1 
1 0 0 1 0 
2 0 0 1 0 -0 1 20
2 -11.69134295108992 -6.7500000000000009 1 0 -0 1 1.6000000000000001
1 0 6.5 1 0 
2 -2.4799097682733899e-15 -13.5 1 0 -0 1 1.6000000000000001
1 0 6.5 1 0 
2 6.0000000000000018 -10.392304845413264 1 0 -0 1 2.0249999999999999
1 0 6.5 1 0 
2 11.691342951089919 -6.7500000000000053 1 0 -0 1 1.6000000000000001
1 0 6.5 1 0 
2 -12 1.4695761589768238e-15 1 0 -0 1 2.0249999999999999
1 0 6.5 1 0 
2 -11.691342951089922 6.75 1 0 -0 1 1.6000000000000001
1 0 6.5 1 0 
1 0 0 1 0 
2 0 0 1 0 -0 1 8.9800000000000004
2 0 -4.77395900588817e-16 1 0 -0 1 8.9800000000000004
2 11.691342951089922 6.75 1 0 -0 1 1.6000000000000001
1 0 6.5 1 0 
2 6.0000000000000018 10.392304845413264 1 0 -0 1 2.0249999999999999
1 0 6.5 1 0 
2 8.2663658942446343e-16 13.5 1 0 -0 1 1.6000000000000001
1 0 6.5 1 0 
2 -11.69134295108992 -6.7500000000000018 1 0 -0 1 1.6000000000000001
1 0 3.5 1 0 
2 -2.4799097682733899e-15 -13.500000000000002 1 0 -0 1 1.6000000000000001
1 0 3.5 1 0 
2 6.0000000000000018 -10.392304845413266 1 0 -0 1 2.0249999999999999
1 0 3.5 1 0 
2 11.691342951089919 -6.7500000000000062 1 0 -0 1 1.6000000000000001
1 0 3.5 1 0 
2 -12 1.4695761589768238e-15 1 0 -0 1 2.0249999999999999
1 0 3.5 1 0 
2 -11.691342951089922 6.7499999999999991 1 0 -0 1 1.6000000000000001
1 0 3.5 1 0 
2 0 0 1 0 -0 1 4
1 0 3.5 1 0 
1 0 3.5 1 0 
2 11.691342951089922 6.7499999999999991 1 0 -0 1 1.6000000000000001
1 0 3.5 1 0 
2 6.0000000000000018 10.392304845413262 1 0 -0 1 2.0249999999999999
1 0 3.5 1 0 
2 8.2663658942446343e-16 13.499999999999998 1 0 -0 1 1.6000000000000001
1 0 3.5 1 0 
1 6.2831853071795862 -0 0 1 
1 0 -0 0 1 
1 6.2831853071795862 -0 0 1 
1 0 -0 0 1 
1 6.2831853071795862 -0 0 1 
1 0 -0 0 1 
1 6.2831853071795862 -0 0 1 
1 0 -0 0 1 
1 6.2831853071795862 -0 0 1 
1 0 -0 0 1 
1 6.2831853071795862 -0 0 1 
1 0 -0 0 1 
1 0 1.3 1 0 
2 0 0 1 0 -0 1 8.9800000000000004
1 6.2831853071795862 -0 0 1 
1 0 -0 0 1 
1 6.2831853071795862 -0 0 1 
1 0 -0 0 1 
1 6.2831853071795862 -0 0 1 
1 0 -0 0 1 
1 6.2831853071795862 -0 0 1 
1 0 -0 0 1 
1 0 7.8000000000000007 -0 -1 
1 6.2831853071795862 7.8000000000000007 -0 -1 
2 0 4.6838616247497576e-31 1 0 -0 1 4
1 0 3.1500000000000021 1 0 
1 0 7.8000000000000007 1 0 
Curves 36
2 0 0 3 0 0 1 1 0 -0 -0 1 0 20
1 20 -4.898587196589413e-15 0 0 0 1 
2 0 0 0 0 0 1 1 0 -0 -0 1 0 20
2 -11.69134295108992 26.25 -6.7500000000000009 0 -1 2.2204460492503131e-16 1 0 0 -0 2.2204460492503131e-16 1 1.6000000000000001
2 -2.4799097682733899e-15 26.25 -13.5 0 -1 2.2204460492503131e-16 1 0 0 -0 2.2204460492503131e-16 1 1.6000000000000001
2 6.0000000000000018 26.25 -10.392304845413264 0 -1 2.2204460492503131e-16 1 0 0 -0 2.2204460492503131e-16 1 2.0249999999999999
2 11.691342951089919 26.25 -6.7500000000000053 0 -1 2.2204460492503131e-16 1 0 0 -0 2.2204460492503131e-16 1 1.6000000000000001
2 -12 26.25 1.8026430663643707e-15 0 -1 2.2204460492503131e-16 1 0 0 -0 2.2204460492503131e-16 1 2.0249999999999999
2 -11.691342951089922 26.25 6.75 0 -1 2.2204460492503131e-16 1 0 0 -0 2.2204460492503131e-16 1 1.6000000000000001
2 0 0 0 0 0 1 1 0 -0 -0 1 0 8.9800000000000004
2 11.691342951089922 26.25 6.75 0 -1 2.2204460492503131e-16 1 0 0 -0 2.2204460492503131e-16 1 1.6000000000000001
2 6.0000000000000018 26.25 10.392304845413264 0 -1 2.2204460492503131e-16 1 0 0 -0 2.2204460492503131e-16 1 2.0249999999999999
2 8.2663658942446343e-16 26.25 13.5 0 -1 2.2204460492503131e-16 1 0 0 -0 2.2204460492503131e-16 1 1.6000000000000001
2 -11.69134295108992 29.25 -6.7500000000000018 0 -1 2.2204460492503131e-16 1 0 0 -0 2.2204460492503131e-16 1 1.6000000000000001
2 -2.4799097682733899e-15 29.25 -13.500000000000002 0 -1 2.2204460492503131e-16 1 0 0 -0 2.2204460492503131e-16 1 1.6000000000000001
2 6.0000000000000018 29.25 -10.392304845413266 0 -1 2.2204460492503131e-16 1 0 0 -0 2.2204460492503131e-16 1 2.0249999999999999
2 11.691342951089919 29.25 -6.7500000000000062 0 -1 2.2204460492503131e-16 1 0 0 -0 2.2204460492503131e-16 1 1.6000000000000001
2 -12 29.25 1.1365092515892768e-15 0 -1 2.2204460492503131e-16 1 0 0 -0 2.2204460492503131e-16 1 2.0249999999999999
2 -11.691342951089922 29.25 6.7499999999999991 0 -1 2.2204460492503131e-16 1 0 0 -0 2.2204460492503131e-16 1 1.6000000000000001
2 0 29.25 -3.3306690738754696e-16 0 -1 2.2204460492503131e-16 1 0 0 -0 2.2204460492503131e-16 1 4
2 11.691342951089922 29.25 6.7499999999999991 0 -1 2.2204460492503131e-16 1 0 0 -0 2.2204460492503131e-16 1 1.6000000000000001
2 6.0000000000000018 29.25 10.392304845413262 0 -1 2.2204460492503131e-16 1 0 0 -0 2.2204460492503131e-16 1 2.0249999999999999
2 8.2663658942446343e-16 29.25 13.499999999999998 0 -1 2.2204460492503131e-16 1 0 0 -0 2.2204460492503131e-16 1 1.6000000000000001
1 1.6000000000000001 -3.9188697572715305e-16 0 0 0 1 
1 1.6000000000000001 -3.9188697572715305e-16 0 0 0 1 
1 2.0249999999999999 -4.9598195365467806e-16 0 0 0 1 
1 1.6000000000000001 -3.9188697572715305e-16 0 0 0 1 
1 2.0249999999999999 -4.9598195365467806e-16 0 0 0 1 
1 1.6000000000000001 -3.9188697572715305e-16 0 0 0 1 
2 0 0 1.3 0 0 1 1 0 -0 -0 1 0 8.9800000000000004
1 8.9800000000000004 -2.1994656512686463e-15 0 0 0 1 
1 1.6000000000000001 -3.9188697572715305e-16 0 0 0 1 
1 2.0249999999999999 -4.9598195365467806e-16 0 0 0 1 
1 1.6000000000000001 -3.9188697572715305e-16 0 0 0 1 
8 0 4.3000000000000007
1 4 24.949999999999999 -8.3538844611661174e-16 0 1 -1.1102230246251588e-16 
2 0 24.949999999999999 1.4432899320127082e-16 0 -1 2.2204460492503131e-16 1 0 0 -0 2.2204460492503131e-16 1 4
Polygon3D 0
PolygonOnTriangulations 0
Surfaces 18
2 0 0 0 0 0 1 1 0 -0 -0 1 0 20
1 0 0 3 0 0 1 1 0 -0 -0 1 0 
1 0 0 0 0 0 1 1 0 -0 -0 1 0 
2 0 0 0 0 0 1 1 0 -0 -0 1 0 1.6000000000000001
2 0 0 0 0 0 1 1 0 -0 -0 1 0 1.6000000000000001
2 0 0 0 0 0 1 1 0 -0 -0 1 0 2.0249999999999999
2 0 0 0 0 0 1 1 0 -0 -0 1 0 1.6000000000000001
2 0 0 0 0 0 1 1 0 -0 -0 1 0 2.0249999999999999
2 0 0 0 0 0 1 1 0 -0 -0 1 0 1.6000000000000001
2 0 0 0 0 0 1 1 0 -0 -0 1 0 8.9800000000000004
1 0 0 0 0 0 1 1 0 -0 -0 1 0 
2 0 0 0 0 0 1 1 0 -0 -0 1 0 1.6000000000000001
2 0 0 0 0 0 1 1 0 -0 -0 1 0 2.0249999999999999
2 0 0 0 0 0 1 1 0 -0 -0 1 0 1.6000000000000001
2 0 0 0 0 0 1 1 0 -0 -0 1 0 4
2 0 32.75 -1.1102230246251565e-15 0 -1 2.2204460492503131e-16 1 0 0 0 2.2204460492503131e-16 1 4
1 0 0 1.3 0 0 1 1 0 -0 -0 1 0 
2 0 0 0 0 0 1 1 0 -0 -0 1 0 4
Triangulations 0

TShapes 113
Ve
1e-07
20 -4.89858719658941e-15 3
0 0

0101101
*
Ed
 1e-07 1 1 0
1  1 0 0 6.28318530717959
2  1 1 0 0 6.28318530717959
2  2 2 0 0 6.28318530717959
0

0101000
+113 0 -113 0 *
Ve
1e-07
20 -4.89858719658941e-15 0
0 0

0101101
*
Ed
 1e-07 1 1 0
1  2 0 0 3
3  3 4CN 1 0 0 3
0

0101000
-113 0 +111 0 *
Ed
 1e-07 1 1 0
1  3 0 0 6.28318530717959
2  5 1 0 0 6.28318530717959
2  6 3 0 0 6.28318530717959
0

0101000
+111 0 -111 0 *
Wi

0101100
-112 0 +110 0 +109 0 -110 0 *
Fa
0  1e-07 1 0

0111000
+108 0 *
Wi

0101100
+112 5 *
Ve
1.00000000888178e-07
-10.0913429510899 26.25 -6.75
0 0

0101101
*
Ed
 1e-07 1 1 0
1  4 0 0 6.28318530717959
2  7 2 5 0 6.28318530717959
2  8 4 9 0 6.28318530717959
0

0101100
+105 0 -105 0 *
Wi

0101100
-104 0 *
Ve
1.00000003552714e-07
1.6 26.25 -13.5
0 0

0101101
*
Ed
 1e-07 1 1 0
1  5 0 0 6.28318530717959
2  9 2 5 0 6.28318530717959
2  10 5 13 0 6.28318530717959
0

0101100
+102 0 -102 0 *
Wi

0101100
-101 0 *
Ve
1.00000003552714e-07
8.025 26.25 -10.3923048454133
0 0

0101101
*
Ed
 1e-07 1 1 0
1  6 0 0 6.28318530717959
2  11 2 5 0 6.28318530717959
2  12 6 17 0 6.28318530717959
0

0101100
+99 0 -99 0 *
Wi

0101100
-98 0 *
Ve
1.00000000888178e-07
13.2913429510899 26.25 -6.75000000000001
0 0

0101101
*
Ed
 1e-07 1 1 0
1  7 0 0 6.28318530717959
2  13 2 5 0 6.28318530717959
2  14 7 21 0 6.28318530717959
0

0101100
+96 0 -96 0 *
Wi

0101100
-95 0 *
Ve
1.00000000495982e-07
-9.975 26.25 1.30666111270969e-15
0 0

0101101
*
Ed
 1e-07 1 1 0
1  8 0 0 6.28318530717959
2  15 2 5 0 6.28318530717959
2  16 8 25 0 6.28318530717959
0

0101100
+93 0 -93 0 *
Wi

0101100
-92 0 *
Ve
1.00000000888178e-07
-10.0913429510899 26.25 6.75
0 0

0101101
*
Ed
 1e-07 1 1 0
1  9 0 0 6.28318530717959
2  17 2 5 0 6.28318530717959
2  18 9 29 0 6.28318530717959
0

0101100
+90 0 -90 0 *
Wi

0101100
-89 0 *
Ve
1e-07
8.98 -2.19946565126865e-15 0
0 0

0101101
*
Ed
 1e-07 1 1 0
1  10 0 0 6.28318530717959
2  19 10 0 0 6.28318530717959
2  20 11 0 0 6.28318530717959
2  21 2 34 0 6.28318530717959
0

0101000
+87 0 -87 0 *
Wi

0101100
-86 33 *
Ve
1.00000000888178e-07
13.2913429510899 26.25 6.75
0 0

0101101
*
Ed
 1e-07 1 1 0
1  11 0 0 6.28318530717959
2  22 2 5 0 6.28318530717959
2  23 12 38 0 6.28318530717959
0

0101100
+84 0 -84 0 *
Wi

0101100
-83 0 *
Ve
1.00000003552714e-07
8.025 26.25 10.3923048454133
0 0

0101101
*
Ed
 1e-07 1 1 0
1  12 0 0 6.28318530717959
2  24 2 5 0 6.28318530717959
2  25 13 42 0 6.28318530717959
0

0101100
+81 0 -81 0 *
Wi

0101100
-80 0 *
Ve
1.00000003552714e-07
1.6 26.25 13.5
0 0

0101101
*
Ed
 1e-07 1 1 0
1  13 0 0 6.28318530717959
2  26 2 5 0 6.28318530717959
2  27 14 46 0 6.28318530717959
0

0101100
+78 0 -78 0 *
Wi

0101100
-77 0 *
Fa
0  1e-07 2 5

0101000
+106 0 +103 0 +100 0 +97 0 +94 0 +91 0 +88 0 +85 0 +82 0 +79 0 
+76 0 *
Wi

0101100
+109 5 *
Ve
1.00000000888178e-07
-10.0913429510899 29.25 -6.75
0 0

0101101
*
Ed
 1e-07 1 1 0
1  14 0 0 6.28318530717959
2  28 3 5 0 6.28318530717959
2  29 4 9 0 6.28318530717959
0

0101100
+73 0 -73 0 *
Wi

0101100
-72 0 *
Ve
1.00000003552714e-07
1.6 29.25 -13.5
0 0

0101101
*
Ed
 1e-07 1 1 0
1  15 0 0 6.28318530717959
2  30 3 5 0 6.28318530717959
2  31 5 13 0 6.28318530717959
0

0101100
+70 0 -70 0 *
Wi

0101100
-69 0 *
Ve
1.00000003552714e-07
8.025 29.25 -10.3923048454133
0 0

0101101
*
Ed
 1e-07 1 1 0
1  16 0 0 6.28318530717959
2  32 3 5 0 6.28318530717959
2  33 6 17 0 6.28318530717959
0

0101100
+67 0 -67 0 *
Wi

0101100
-66 0 *
Ve
1.00000000888178e-07
13.2913429510899 29.25 -6.75000000000001
0 0

0101101
*
Ed
 1e-07 1 1 0
1  17 0 0 6.28318530717959
2  34 3 5 0 6.28318530717959
2  35 7 21 0 6.28318530717959
0

0101100
+64 0 -64 0 *
Wi

0101100
-63 0 *
Ve
1.00000000495982e-07
-9.975 29.25 6.40527297934598e-16
0 0

0101101
*
Ed
 1e-07 1 1 0
1  18 0 0 6.28318530717959
2  36 3 5 0 6.28318530717959
2  37 8 25 0 6.28318530717959
0

0101100
+61 0 -61 0 *
Wi

0101100
-60 0 *
Ve
1.00000000888178e-07
-10.0913429510899 29.25 6.75
0 0

0101101
*
Ed
 1e-07 1 1 0
1  19 0 0 6.28318530717959
2  38 3 5 0 6.28318530717959
2  39 9 29 0 6.28318530717959
0

0101100
+58 0 -58 0 *
Wi

0101100
-57 0 *
Ve
1.00000000979717e-07
4 29.25 -1.31278434670543e-15
0 0

0101101
*
Ed
 1e-07 1 1 0
1  20 0 0 6.28318530717959
2  40 3 5 0 6.28318530717959
2  41 15 50 0 6.28318530717959
2  42 16 0 0 6.28318530717959
0

0101000
+55 0 -55 0 *
Wi

0101100
-54 0 *
Ve
1.00000000888178e-07
13.2913429510899 29.25 6.75
0 0

0101101
*
Ed
 1e-07 1 1 0
1  21 0 0 6.28318530717959
2  43 3 5 0 6.28318530717959
2  44 12 38 0 6.28318530717959
0

0101100
+52 0 -52 0 *
Wi

0101100
-51 0 *
Ve
1.00000003552714e-07
8.025 29.25 10.3923048454133
0 0

0101101
*
Ed
 1e-07 1 1 0
1  22 0 0 6.28318530717959
2  45 3 5 0 6.28318530717959
2  46 13 42 0 6.28318530717959
0

0101100
+49 0 -49 0 *
Wi

0101100
-48 0 *
Ve
1.00000003552714e-07
1.6 29.25 13.5
0 0

0101101
*
Ed
 1e-07 1 1 0
1  23 0 0 6.28318530717959
2  47 3 5 0 6.28318530717959
2  48 14 46 0 6.28318530717959
0

0101100
+46 0 -46 0 *
Wi

0101100
-45 0 *
Fa
0  1e-07 3 5

0101000
+74 0 +71 0 +68 0 +65 0 +62 0 +59 0 +56 0 +53 0 +50 0 +47 0 
+44 0 *
Ed
 1e-07 1 1 0
1  24 0 3.5 6.5
3  49 50CN 4 0 3.5 6.5
0

0101000
+73 51 -105 51 *
Wi

0101100
-104 0 +42 9 +72 0 -42 9 *
Fa
0  1e-07 4 9

0101000
+41 0 *
Ed
 1e-07 1 1 0
1  25 0 3.5 6.5
3  51 52CN 5 0 3.5 6.5
0

0101000
+70 52 -102 52 *
Wi

0101100
-101 0 +39 13 +69 0 -39 13 *
Fa
0  1e-07 5 13

0101000
+38 0 *
Ed
 1e-07 1 1 0
1  26 0 3.5 6.5
3  53 54CN 6 0 3.5 6.5
0

0101000
+67 53 -99 53 *
Wi

0101100
-98 0 +36 17 +66 0 -36 17 *
Fa
0  1e-07 6 17

0101000
+35 0 *
Ed
 1e-07 1 1 0
1  27 0 3.5 6.5
3  55 56CN 7 0 3.5 6.5
0

0101000
+64 54 -96 54 *
Wi

0101100
-95 0 +33 21 +63 0 -33 21 *
Fa
0  1e-07 7 21

0101000
+32 0 *
Ed
 1e-07 1 1 0
1  28 0 3.5 6.5
3  57 58CN 8 0 3.5 6.5
0

0101000
+61 55 -93 55 *
Wi

0101100
-92 0 +30 25 +60 0 -30 25 *
Fa
0  1e-07 8 25

0101000
+29 0 *
Ed
 1e-07 1 1 0
1  29 0 3.5 6.5
3  59 60CN 9 0 3.5 6.5
0

0101000
+58 56 -90 56 *
Wi

0101100
-89 0 +27 29 +57 0 -27 29 *
Fa
0  1e-07 9 29

0101000
+26 0 *
Ve
1e-07
8.98 -2.19946565126865e-15 1.3
0 0

0101101
*
Ed
 1e-07 1 1 0
1  30 0 0 6.28318530717959
2  61 10 0 0 6.28318530717959
2  62 17 0 0 6.28318530717959
0

0101000
+24 0 -24 0 *
Ed
 1e-07 1 1 0
1  31 0 0 1.3
3  63 64CN 10 0 0 1.3
0

0101000
-24 0 +87 0 *
Wi

0101100
-23 0 +22 0 +86 0 -22 0 *
Fa
0  1e-07 10 0

0111000
+21 0 *
Ed
 1e-07 1 1 0
1  32 0 3.5 6.5
3  65 66CN 12 0 3.5 6.5
0

0101000
+52 57 -84 57 *
Wi

0101100
-83 0 +19 38 +51 0 -19 38 *
Fa
0  1e-07 12 38

0101000
+18 0 *
Ed
 1e-07 1 1 0
1  33 0 3.5 6.5
3  67 68CN 13 0 3.5 6.5
0

0101000
+49 58 -81 58 *
Wi

0101100
-80 0 +16 42 +48 0 -16 42 *
Fa
0  1e-07 13 42

0101000
+15 0 *
Ed
 1e-07 1 1 0
1  34 0 3.5 6.5
3  69 70CN 14 0 3.5 6.5
0

0101000
+46 59 -78 59 *
Wi

0101100
-77 0 +13 46 +45 0 -13 46 *
Fa
0  1e-07 14 46

0101000
+12 0 *
Ve
1.00000000979717e-07
4 24.95 -8.35388446116612e-16
0 0

0101101
*
Ed
 1e-07 1 1 0
1  35 0 0 4.3
3  71 72C0 16 0 0 4.3
0

0101000
+10 0 -55 0 *
Ed
 1e-07 1 1 0
1  36 0 0 6.28318530717959
2  73 17 33 0 6.28318530717959
2  74 18 63 0 6.28318530717959
2  75 16 0 0 6.28318530717959
0

0101000
+10 0 -10 0 *
Wi

0101100
+54 0 -9 0 -8 0 +9 0 *
Fa
0  0 16 0

0111000
+7 0 *
Wi

0101100
+23 33 *
Wi

0101100
-8 0 *
Fa
0  1e-07 17 33

0101000
+5 0 +4 0 *
Sh

0101100
+107 5 +75 0 -43 0 -40 0 -37 0 -34 0 -31 0 -28 0 -25 0 +20 33 
-17 0 -14 0 -11 0 -6 0 +3 0 *
So

0100000
+2 0 *

+1 1 