# https://github.com/mikedh/trimesh

o beak_native_input_flange_113.obj
v 0.00554108 0.02807816 0.01711765
v 0.00530556 0.02807816 0.01720027
v 0.00547981 0.02789582 0.01713933
v 0.00554108 0.02789582 0.01711765
v 0.00554108 0.02807816 0.01239065
v 0.00427152 0.02807816 0.01747739
v 0.00530556 0.02789582 0.01720027
v 0.00554108 0.02789582 0.01239065
v 0.00554046 0.02807816 0.01239007
v 0.00427152 0.02789582 0.01747739
v 0.00427152 0.02807816 0.01149189
v 0.00427152 0.02789582 0.01149189
f 1 2 3
f 1 3 4
f 1 4 8
f 1 8 5
f 1 5 9
f 1 9 11
f 1 11 6
f 1 6 2
f 2 6 10
f 2 10 7
f 2 7 3
f 3 7 10
f 3 10 12
f 3 12 8
f 3 8 4
f 5 8 9
f 6 11 12
f 6 12 10
f 8 12 9
f 9 12 11

