# https://github.com/mikedh/trimesh

o beak_native_input_flange_091.obj
v -0.00649429 0.02909028 -0.01678321
v -0.00657672 0.02909028 -0.01675378
v -0.00657646 0.02954345 -0.01675451
v -0.00650777 0.02999857 -0.01677880
v -0.00649442 0.02981655 -0.01678321
v -0.00649429 0.02954345 -0.01678321
v -0.00649416 0.02954345 -0.01239898
v -0.00649429 0.02909028 -0.01196696
v -0.00779144 0.02909028 -0.01622387
v -0.00753119 0.02954345 -0.01633795
v -0.00677444 0.02999857 -0.01666840
v -0.00657646 0.02981655 -0.01675451
v -0.00657646 0.02999857 -0.01675378
v -0.00780582 0.03062325 -0.01215463
v -0.00650764 0.03062325 -0.01215463
v -0.00649416 0.02981655 -0.01239898
v -0.00649416 0.02954345 -0.01196622
v -0.00720430 0.02954345 -0.00926517
v -0.00741422 0.02909028 -0.01124202
v -0.00780569 0.02981655 -0.01621725
v -0.00780569 0.02999857 -0.01621725
v -0.00776474 0.02981655 -0.01623565
v -0.00779144 0.02909028 -0.01124202
v -0.00780582 0.02999857 -0.01215463
v -0.00780582 0.03062325 -0.00954337
v -0.00650764 0.03062325 -0.01196254
v -0.00649416 0.02981655 -0.01196622
v -0.00720430 0.02981655 -0.00926517
v -0.00779157 0.02954345 -0.00926517
v -0.00780569 0.02981655 -0.01135021
v -0.00780582 0.02999857 -0.00954337
v -0.00779157 0.02981655 -0.00926517
v -0.00741333 0.03062325 -0.00954337
f 1 2 3
f 1 3 4
f 1 4 5
f 1 5 6
f 1 6 16
f 1 16 7
f 1 7 17
f 1 17 8
f 1 8 19
f 1 19 23
f 1 23 9
f 1 9 2
f 2 9 3
f 3 9 10
f 3 10 11
f 3 11 12
f 3 12 4
f 4 12 13
f 4 13 14
f 4 14 15
f 4 15 5
f 5 15 16
f 5 16 6
f 7 16 27
f 7 27 17
f 8 17 18
f 8 18 19
f 9 20 21
f 9 21 22
f 9 22 10
f 9 23 30
f 9 30 20
f 10 22 11
f 11 13 12
f 11 22 21
f 11 21 14
f 11 14 13
f 14 21 20
f 14 20 24
f 14 24 31
f 14 31 25
f 14 25 33
f 14 33 26
f 14 26 15
f 15 26 27
f 15 27 16
f 17 27 28
f 17 28 18
f 18 28 32
f 18 32 29
f 18 29 23
f 18 23 19
f 20 30 31
f 20 31 24
f 23 29 31
f 23 31 30
f 25 31 29
f 25 29 32
f 25 32 28
f 25 28 33
f 26 33 28
f 26 28 27

