# https://github.com/mikedh/trimesh

o beak_native_input_flange_084.obj
v -0.00071689 0.02981643 0.01206745
v -0.00107147 0.02981643 0.01468783
v -0.00071689 0.02954324 0.01206745
v -0.00071689 0.02981643 -0.01038444
v -0.00649416 0.02981643 0.01468783
v -0.00107147 0.02954324 0.01468783
v -0.00071689 0.02909027 0.01206499
v -0.00071689 0.02909027 -0.01038444
v -0.00415464 0.02909027 -0.01049537
v -0.00434974 0.02981643 -0.01038444
v -0.00649416 0.02954324 0.01468783
v -0.00649416 0.02981643 -0.00881666
v -0.00110709 0.02909027 0.01465332
v -0.00415464 0.02888270 -0.00920860
v -0.00415464 0.02888270 -0.01049291
v -0.00415577 0.02888270 -0.01049537
v -0.00415464 0.02902638 -0.01049537
v -0.00435313 0.02909027 -0.01049537
v -0.00649416 0.02909027 0.01465332
v -0.00649416 0.02954324 -0.00881666
v -0.00484852 0.02888270 -0.00920860
v -0.00435313 0.02888270 -0.01049537
v -0.00649416 0.02909027 -0.00881419
f 1 2 6
f 1 6 3
f 1 3 7
f 1 7 8
f 1 8 4
f 1 4 10
f 1 10 12
f 1 12 5
f 1 5 2
f 2 5 11
f 2 11 6
f 3 6 7
f 4 8 17
f 4 17 9
f 4 9 18
f 4 18 10
f 5 12 20
f 5 20 23
f 5 23 19
f 5 19 11
f 6 11 19
f 6 19 13
f 6 13 7
f 7 13 14
f 7 14 15
f 7 15 8
f 8 15 16
f 8 16 17
f 9 17 16
f 9 16 22
f 9 22 18
f 10 18 12
f 12 18 22
f 12 22 20
f 13 19 21
f 13 21 14
f 14 21 22
f 14 22 16
f 14 16 15
f 19 23 21
f 20 22 23
f 21 23 22

