# https://github.com/mikedh/trimesh

o beak_input_bush_candidate_008.obj
v 0.00101470 0.03299999 0.00489265
v 0.00074505 0.03299999 0.00494344
v 0.00086739 0.03283332 0.00492053
v 0.00101470 0.03250000 0.00489265
v 0.00101470 0.03300092 0.00282147
v 0.00088404 0.03300092 0.00286692
v 0.00066755 0.03300092 0.00292497
v 0.00055706 0.03300092 0.00294598
v 0.00037356 0.03299999 0.00498545
v 0.00062111 0.03266671 0.00495757
v 0.00074505 0.03250000 0.00494344
v 0.00044690 0.03300092 0.00296660
v 0.00101470 0.03250000 0.00229404
v 0.00101470 0.03300092 0.00229404
v -0.00000017 0.03299999 0.00499920
v 0.00037356 0.03250000 0.00498545
v 0.00022401 0.03300092 0.00299181
v -0.00000017 0.03300092 0.00300021
v -0.00225696 0.03250000 0.00109785
v -0.00225696 0.03300092 0.00109785
v -0.00000017 0.03250000 0.00499920
v -0.00037390 0.03299999 0.00498545
v -0.00022434 0.03300092 0.00299181
v -0.00225696 0.03250000 0.00445802
v -0.00225696 0.03299999 0.00445802
v -0.00222782 0.03300092 0.00200721
v -0.00037390 0.03250000 0.00498545
v -0.00055964 0.03299999 0.00496445
v -0.00062113 0.03283332 0.00495757
v -0.00044724 0.03300092 0.00296660
v -0.00216921 0.03250000 0.00450423
v -0.00216921 0.03299999 0.00450423
v -0.00130134 0.03300092 0.00270308
v -0.00149957 0.03300092 0.00259843
v -0.00159469 0.03300092 0.00253885
v -0.00168948 0.03300092 0.00247889
v -0.00187042 0.03300092 0.00234598
v -0.00204047 0.03300092 0.00219932
v -0.00211958 0.03300092 0.00212026
v -0.00055964 0.03250000 0.00496445
v -0.00074475 0.03299999 0.00494344
v -0.00074475 0.03250000 0.00494344
v -0.00055772 0.03300092 0.00294598
v -0.00182655 0.03250000 0.00465394
v -0.00205489 0.03283332 0.00455426
v -0.00182655 0.03299999 0.00465394
v -0.00119854 0.03300092 0.00274814
v -0.00086740 0.03266671 0.00492053
v -0.00092889 0.03299999 0.00490869
v -0.00092889 0.03250000 0.00490869
v -0.00066725 0.03300092 0.00292497
v -0.00111239 0.03299999 0.00487393
v -0.00147363 0.03250000 0.00477730
v -0.00170870 0.03283332 0.00469519
v -0.00147363 0.03299999 0.00477730
v -0.00099006 0.03300092 0.00282987
v -0.00109574 0.03300092 0.00279283
v -0.00099006 0.03283332 0.00489723
v -0.00111239 0.03250000 0.00487393
v -0.00077581 0.03300092 0.00289595
v -0.00129301 0.03299999 0.00482581
v -0.00129301 0.03250000 0.00482581
v -0.00135322 0.03283332 0.00480977
v -0.00088406 0.03300092 0.00286692
f 1 2 3
f 1 3 4
f 1 4 13
f 1 13 14
f 1 14 5
f 1 5 6
f 1 6 7
f 1 7 8
f 1 8 2
f 2 9 10
f 2 10 11
f 2 11 3
f 2 8 12
f 2 12 17
f 2 17 9
f 3 11 4
f 4 11 16
f 4 16 21
f 4 21 27
f 4 27 40
f 4 40 42
f 4 42 50
f 4 50 59
f 4 59 62
f 4 62 53
f 4 53 44
f 4 44 31
f 4 31 24
f 4 24 19
f 4 19 13
f 5 14 20
f 5 20 26
f 5 26 39
f 5 39 38
f 5 38 37
f 5 37 36
f 5 36 35
f 5 35 34
f 5 34 33
f 5 33 47
f 5 47 57
f 5 57 56
f 5 56 64
f 5 64 60
f 5 60 51
f 5 51 43
f 5 43 30
f 5 30 23
f 5 23 18
f 5 18 17
f 5 17 12
f 5 12 8
f 5 8 7
f 5 7 6
f 9 15 21
f 9 21 16
f 9 16 10
f 9 17 18
f 9 18 15
f 10 16 11
f 13 19 20
f 13 20 14
f 15 18 22
f 15 22 27
f 15 27 21
f 18 23 22
f 19 24 25
f 19 25 20
f 20 25 26
f 22 23 30
f 22 30 28
f 22 28 29
f 22 29 27
f 24 31 32
f 24 32 25
f 25 32 33
f 25 33 34
f 25 34 35
f 25 35 36
f 25 36 37
f 25 37 38
f 25 38 39
f 25 39 26
f 27 29 40
f 28 30 41
f 28 41 29
f 29 41 42
f 29 42 40
f 30 43 41
f 31 44 45
f 31 45 32
f 32 45 46
f 32 46 47
f 32 47 33
f 41 48 42
f 41 43 49
f 41 49 48
f 42 48 50
f 43 51 52
f 43 52 49
f 44 53 54
f 44 54 46
f 44 46 45
f 46 54 55
f 46 55 56
f 46 56 57
f 46 57 47
f 48 49 58
f 48 58 59
f 48 59 50
f 49 52 58
f 51 60 61
f 51 61 52
f 52 61 63
f 52 63 62
f 52 62 59
f 52 59 58
f 53 55 54
f 53 62 63
f 53 63 55
f 55 63 61
f 55 61 64
f 55 64 56
f 60 64 61

