# https://github.com/mikedh/trimesh

o beak_native_output_arm_008.obj
v -0.00599994 0.02775000 -0.01639186
v -0.00613820 0.02775000 -0.01638712
v -0.00599994 0.03225000 -0.01639186
v -0.00585046 0.02925029 -0.01638664
v -0.00577572 0.02775000 -0.01638380
v -0.00613820 0.03225000 -0.01638712
v -0.00613820 0.02775000 -0.01203608
v -0.00577572 0.03225000 -0.01638380
v -0.00555151 0.02775000 -0.01637526
v -0.00613820 0.03225000 -0.01203608
v -0.00482191 0.02775000 -0.01154604
v -0.00555151 0.03225000 -0.01637526
v -0.00525449 0.03074971 -0.01634205
v -0.00510579 0.02775000 -0.01632497
v -0.00482191 0.03225000 -0.01154604
v -0.00482191 0.02775000 -0.01627137
v -0.00510579 0.03225000 -0.01632497
v -0.00495889 0.02925029 -0.01629746
v -0.00482191 0.03225000 -0.01627137
f 1 2 6
f 1 6 3
f 1 3 4
f 1 4 5
f 1 5 9
f 1 9 14
f 1 14 16
f 1 16 11
f 1 11 7
f 1 7 2
f 2 7 10
f 2 10 6
f 3 6 10
f 3 10 15
f 3 15 19
f 3 19 17
f 3 17 12
f 3 12 8
f 3 8 4
f 4 8 12
f 4 12 9
f 4 9 5
f 7 11 15
f 7 15 10
f 9 12 13
f 9 13 14
f 11 16 19
f 11 19 15
f 12 17 13
f 13 17 14
f 14 17 18
f 14 18 16
f 16 18 19
f 17 19 18

