# https://github.com/mikedh/trimesh

o camera_fastened_open_face_037.obj
v 0.10511569 -0.01241922 0.00569651
v 0.10641697 -0.01296450 0.00927177
v 0.10659695 -0.01334596 0.00976626
v 0.10661717 -0.01335487 0.00982182
v 0.10667629 -0.01348275 0.00998423
v 0.10678529 -0.01054004 0.01028375
v 0.10746175 -0.01202004 0.01214224
v 0.10762640 -0.01223152 0.01259467
v 0.10777628 -0.00237472 0.01300641
v 0.10784276 -0.00282024 0.01318909
v 0.10792044 -0.00325000 0.01340253
v 0.10821605 -0.00442112 0.01421472
v 0.10888115 -0.00585630 0.01604199
v 0.10919044 -0.00621122 0.01689185
f 1 9 13
f 13 9 14
f 8 13 14
f 1 13 7
f 13 8 7
f 14 9 10
f 10 9 1
f 6 8 14
f 14 12 6
f 5 7 8
f 11 12 14
f 14 10 11
f 11 6 12
f 11 10 1
f 1 6 11
f 1 7 3
f 3 5 1
f 7 5 3
f 8 6 2
f 2 6 1
f 4 5 8
f 8 2 4
f 1 5 4
f 4 2 1

