# https://github.com/mikedh/trimesh

o camera_fastened_open_face_077.obj
v 0.11107738 -0.01902989 0.02207613
v 0.11107738 -0.01897011 0.02207613
v 0.11107738 -0.01885087 0.02207611
v 0.11107853 -0.01911940 0.02207926
v 0.11108043 -0.01920824 0.02208449
v 0.11108307 -0.01929592 0.02209178
v 0.11108645 -0.01938194 0.02210105
v 0.11109055 -0.01946583 0.02211230
v 0.11109533 -0.01954711 0.02212543
v 0.11110077 -0.01962533 0.02214040
v 0.11110685 -0.01970005 0.02215706
v 0.11178085 -0.01260740 0.02400888
v 0.11178481 -0.01256406 0.02401978
v 0.11187249 -0.01249450 0.02426068
v 0.11196748 -0.01236852 0.02452164
v 0.11204777 -0.01230561 0.02474225
v 0.11293458 -0.01362790 0.02717875
v 0.11327448 -0.01296450 0.02811261
v 0.11353954 -0.01900000 0.02884088
v 0.11367081 -0.01987966 0.02920154
v 0.11371877 -0.01999149 0.02933325
v 0.11377188 -0.01791884 0.02947925
v 0.11394997 -0.01780000 0.02996851
v 0.11402621 -0.01782174 0.03017798
v 0.11429168 -0.01902989 0.02856830
v 0.11429206 -0.01894022 0.02856936
v 0.11429359 -0.01911940 0.02857355
v 0.11429474 -0.01885087 0.02857668
v 0.11429969 -0.01923763 0.02859029
v 0.11429969 -0.01876237 0.02859029
v 0.11430423 -0.01929592 0.02860278
v 0.11430688 -0.01867519 0.02861007
v 0.11431291 -0.01938194 0.02862663
v 0.11431629 -0.01858982 0.02863590
v 0.11432376 -0.01946583 0.02865643
v 0.11432785 -0.01850676 0.02866768
v 0.11433672 -0.01954711 0.02869206
v 0.11434150 -0.01842645 0.02870518
v 0.11435173 -0.01837467 0.02873328
v 0.11435717 -0.01965066 0.02874823
v 0.11436869 -0.01970005 0.02877987
v 0.11437476 -0.01827588 0.02879657
v 0.11438751 -0.01977086 0.02883160
v 0.11439419 -0.01820647 0.02884993
v 0.11440809 -0.01983736 0.02888816
v 0.11441533 -0.01814149 0.02890804
v 0.11443032 -0.01989917 0.02894922
v 0.11443032 -0.01810083 0.02894922
v 0.11445406 -0.01995596 0.02901442
v 0.11446229 -0.01802628 0.02903705
v 0.11448784 -0.01797668 0.02910724
f 15 16 51
f 51 13 15
f 15 14 16
f 13 14 15
f 11 49 21
f 16 14 17
f 24 49 51
f 21 49 24
f 24 20 21
f 12 14 13
f 13 3 12
f 19 20 22
f 10 11 21
f 21 20 10
f 20 19 10
f 10 19 22
f 22 17 10
f 10 17 14
f 18 17 22
f 16 17 18
f 18 24 51
f 51 16 18
f 51 28 38
f 51 49 41
f 41 28 51
f 2 3 1
f 2 12 3
f 14 12 2
f 1 10 2
f 2 10 14
f 9 10 8
f 23 18 22
f 24 18 23
f 22 20 23
f 20 24 23
f 50 13 51
f 50 48 13
f 44 42 13
f 48 50 44
f 44 50 51
f 51 38 44
f 44 38 42
f 34 3 13
f 32 3 34
f 34 38 28
f 13 42 39
f 39 38 13
f 42 38 39
f 28 41 31
f 11 10 31
f 4 5 1
f 13 48 46
f 46 44 13
f 48 44 46
f 13 38 36
f 36 34 13
f 38 34 36
f 32 34 30
f 30 34 28
f 30 3 32
f 30 28 3
f 49 11 47
f 11 45 47
f 11 41 43
f 43 45 11
f 43 47 45
f 43 41 49
f 49 47 43
f 35 31 41
f 5 4 27
f 8 7 27
f 11 35 37
f 37 35 41
f 11 31 33
f 33 35 11
f 31 35 33
f 5 27 6
f 6 27 7
f 1 5 6
f 6 10 1
f 8 10 6
f 6 7 8
f 25 4 1
f 25 27 4
f 1 3 25
f 28 27 25
f 29 9 8
f 8 27 29
f 10 9 29
f 29 31 10
f 28 31 29
f 29 27 28
f 40 41 11
f 11 37 40
f 40 37 41
f 3 28 26
f 26 25 3
f 28 25 26

