# https://github.com/mikedh/trimesh

o camera_face_3_m2x10_001.obj
v 0.11006876 0.01897509 0.03031795
v 0.11006876 0.01902491 0.03031795
v 0.11007035 0.01890050 0.03032233
v 0.11007130 0.01912427 0.03032495
v 0.11007384 0.01882646 0.03033193
v 0.11007384 0.01917354 0.03033193
v 0.11007922 0.01875340 0.03034670
v 0.11008143 0.01927068 0.03035276
v 0.11008645 0.01931828 0.03036656
v 0.11008926 0.01865819 0.03037431
v 0.11009548 0.01861181 0.03039142
v 0.11009890 0.01941104 0.03040078
v 0.11010629 0.01854408 0.03042110
v 0.11010629 0.01945592 0.03042110
v 0.11011879 0.01952111 0.03045544
v 0.11163459 0.01900000 0.02974704
v 0.11163555 0.01892527 0.02974966
v 0.11163555 0.01907473 0.02974966
v 0.11163840 0.01885096 0.02975754
v 0.11163840 0.01914904 0.02975754
v 0.11164317 0.01877748 0.02977060
v 0.11164317 0.01922252 0.02977060
v 0.11164979 0.01870524 0.02978879
v 0.11164979 0.01929476 0.02978879
v 0.11165401 0.01933005 0.02980038
v 0.11165823 0.01863466 0.02981201
v 0.11165823 0.01936534 0.02981201
v 0.11166335 0.01939961 0.02982605
v 0.11166846 0.01856612 0.02984012
v 0.11166846 0.01943388 0.02984012
v 0.11168041 0.01850000 0.02987296
v 0.11168041 0.01950000 0.02987296
v 0.11168722 0.01846834 0.02989163
v 0.11168722 0.01953166 0.02989163
v 0.11169402 0.01956332 0.02991031
v 0.11170161 0.01840660 0.02993118
v 0.11170161 0.01959340 0.02993118
v 0.11170921 0.01837651 0.02995206
v 0.11171755 0.01834817 0.02997498
v 0.11171755 0.01965183 0.02997498
v 0.11172590 0.01831983 0.02999789
v 0.11172590 0.01968017 0.02999789
v 0.11173494 0.01970661 0.03002274
v 0.11174398 0.01826695 0.03004758
v 0.11175367 0.01975744 0.03007422
v 0.11176336 0.01821817 0.03010086
v 0.11176336 0.01978183 0.03010086
v 0.11178394 0.01817376 0.03015738
v 0.11178394 0.01982624 0.03015738
v 0.11180560 0.01813397 0.03021689
v 0.11180560 0.01986603 0.03021689
v 0.11181690 0.01811650 0.03024796
v 0.11181690 0.01988350 0.03024796
v 0.11320139 0.01895018 0.02917875
v 0.11320139 0.01904982 0.02917875
v 0.11320773 0.01880197 0.02919621
v 0.11320773 0.01919803 0.02919621
v 0.11321373 0.01872932 0.02921269
v 0.11322157 0.01934181 0.02923423
v 0.11322779 0.01938819 0.02925134
v 0.11324258 0.01852204 0.02929197
v 0.11324258 0.01947796 0.02929197
v 0.11327030 0.01839657 0.02936810
v 0.11330411 0.01828458 0.02946098
v 0.11335732 0.01983950 0.02960718
v 0.11336453 0.01814724 0.02962701
v 0.11338683 0.01811068 0.02968827
v 0.11633305 0.01900000 0.02803693
v 0.11633401 0.01892527 0.02803955
v 0.11633401 0.01907473 0.02803955
v 0.11633687 0.01885096 0.02804742
v 0.11633687 0.01914904 0.02804742
v 0.11634163 0.01877748 0.02806049
v 0.11634163 0.01922252 0.02806049
v 0.11634825 0.01870524 0.02807867
v 0.11634825 0.01929476 0.02807867
v 0.11635669 0.01863466 0.02810193
v 0.11635669 0.01936534 0.02810193
v 0.11636693 0.01856612 0.02813000
v 0.11636693 0.01943388 0.02813000
v 0.11637888 0.01850000 0.02816284
v 0.11637888 0.01950000 0.02816284
v 0.11639249 0.01843668 0.02820020
v 0.11639249 0.01956332 0.02820020
v 0.11640767 0.01837651 0.02824194
v 0.11640767 0.01962349 0.02824194
v 0.11642436 0.01831983 0.02828778
v 0.11642436 0.01968017 0.02828778
v 0.11644244 0.01826695 0.02833746
v 0.11644244 0.01973305 0.02833746
v 0.11646182 0.01821817 0.02839075
v 0.11646182 0.01978183 0.02839075
v 0.11648241 0.01817376 0.02844727
v 0.11648241 0.01982624 0.02844727
v 0.11650406 0.01813397 0.02850677
v 0.11650406 0.01986603 0.02850677
v 0.11652667 0.01990097 0.02856891
f 52 67 97
f 97 53 52
f 52 50 67
f 97 67 95
f 67 50 95
f 50 52 13
f 15 52 53
f 15 13 52
f 2 16 1
f 70 76 84
f 84 76 80
f 1 16 54
f 68 70 69
f 50 13 48
f 61 79 81
f 97 94 96
f 76 70 74
f 74 70 72
f 94 47 49
f 49 47 15
f 92 94 90
f 90 47 92
f 92 47 94
f 88 42 90
f 88 94 84
f 90 94 88
f 45 47 90
f 15 47 45
f 84 80 82
f 78 80 76
f 73 69 75
f 71 69 73
f 75 69 83
f 83 79 75
f 81 79 83
f 97 95 93
f 93 94 97
f 87 83 93
f 13 44 46
f 46 48 13
f 46 93 48
f 13 15 11
f 54 69 17
f 69 3 17
f 1 54 17
f 17 3 1
f 5 21 7
f 5 11 6
f 1 3 5
f 72 70 20
f 51 15 53
f 51 49 15
f 15 37 35
f 15 42 40
f 40 37 15
f 42 88 40
f 90 42 43
f 43 45 90
f 43 42 15
f 15 45 43
f 84 82 34
f 34 35 84
f 15 35 34
f 15 34 32
f 32 34 82
f 41 44 13
f 85 83 87
f 87 93 89
f 89 46 44
f 50 48 66
f 66 93 95
f 48 93 66
f 66 95 50
f 21 73 58
f 58 73 75
f 75 23 58
f 13 11 29
f 29 11 79
f 29 61 13
f 79 61 29
f 75 79 77
f 14 11 15
f 6 11 14
f 15 32 14
f 19 5 3
f 4 2 1
f 4 5 6
f 1 5 4
f 6 20 4
f 4 20 70
f 57 22 74
f 57 74 72
f 72 20 57
f 65 51 96
f 94 49 65
f 49 51 65
f 65 96 94
f 37 40 86
f 86 88 84
f 86 40 88
f 63 85 38
f 83 85 63
f 38 85 39
f 13 38 39
f 39 41 13
f 87 41 39
f 39 85 87
f 44 41 64
f 64 89 44
f 64 41 87
f 87 89 64
f 93 46 91
f 91 89 93
f 46 89 91
f 79 11 26
f 26 77 79
f 75 77 26
f 62 82 80
f 62 32 82
f 62 14 32
f 56 73 21
f 56 19 71
f 71 73 56
f 70 55 18
f 18 4 70
f 18 55 2
f 2 4 18
f 81 83 33
f 10 23 75
f 75 26 10
f 10 26 11
f 7 23 10
f 10 5 7
f 11 5 10
f 6 14 12
f 12 9 6
f 83 63 36
f 36 33 83
f 36 63 38
f 36 38 13
f 13 33 36
f 31 61 81
f 81 33 31
f 13 61 31
f 31 33 13
f 9 12 27
f 80 12 30
f 30 12 14
f 30 62 80
f 14 62 30
f 9 24 8
f 8 22 6
f 6 9 8
f 9 27 25
f 78 27 60
f 80 78 60
f 59 27 78
f 59 78 76
f 59 25 27
f 76 25 59
f 28 12 80
f 80 60 28
f 28 27 12
f 28 60 27
f 69 54 16
f 69 16 68
f 83 69 70
f 83 70 84
f 93 83 84
f 84 94 93
f 16 2 55
f 68 16 55
f 55 70 68
f 97 96 51
f 51 53 97
f 58 23 7
f 7 21 58
f 19 69 71
f 19 3 69
f 6 22 57
f 57 20 6
f 86 35 37
f 84 35 86
f 5 19 56
f 21 5 56
f 8 24 76
f 76 74 8
f 74 22 8
f 76 24 25
f 25 24 9

