# https://github.com/mikedh/trimesh

o camera_fastened_open_face_047.obj
v 0.10480404 0.00874287 0.00484024
v 0.10481335 0.00898439 0.00486581
v 0.10482880 0.00922319 0.00490826
v 0.10485031 0.00945795 0.00496738
v 0.10511569 0.01241922 0.00569651
v 0.10574356 0.00582858 0.00742155
v 0.10705930 0.00874287 0.00401941
v 0.10706860 0.00898439 0.00404498
v 0.10708406 0.00922319 0.00408743
v 0.10710558 0.00945795 0.00414655
v 0.10737095 0.01241922 0.00487567
v 0.10762881 0.00048575 0.01260126
v 0.10767833 0.00144639 0.01273730
v 0.10772136 0.00191591 0.01285553
v 0.10777628 0.00237472 0.01300641
v 0.10799881 0.00582858 0.00660071
v 0.10893916 0.01012883 0.00918430
v 0.10988406 0.00048575 0.01178040
v 0.10993359 0.00144639 0.01191644
v 0.10997662 0.00191591 0.01203467
v 0.11003152 0.00237472 0.01218555
f 5 11 3
f 17 11 5
f 1 16 6
f 6 3 1
f 6 14 5
f 12 6 18
f 18 6 16
f 7 16 1
f 5 14 15
f 15 17 5
f 21 17 15
f 15 14 12
f 12 14 13
f 13 6 12
f 14 6 13
f 5 3 4
f 4 6 5
f 3 6 4
f 19 18 16
f 1 3 2
f 8 2 3
f 8 7 1
f 1 2 8
f 21 18 20
f 18 19 20
f 20 17 21
f 11 17 20
f 20 10 11
f 9 3 11
f 11 10 9
f 9 8 3
f 7 8 9
f 16 7 9
f 9 19 16
f 10 20 9
f 9 20 19
f 12 18 15
f 15 18 21

