# https://github.com/mikedh/trimesh

o camera_fastened_open_face_075.obj
v 0.10608060 -0.01967598 0.00834753
v 0.10609692 -0.01960000 0.00839246
v 0.10612354 -0.01943841 0.00846558
v 0.10614162 -0.01926702 0.00851526
v 0.10614732 -0.01882115 0.00853088
v 0.10615190 -0.01900000 0.00854352
v 0.10833585 -0.01967598 0.00752673
v 0.10836652 -0.01952066 0.00761096
v 0.10840259 -0.01882115 0.00771008
v 0.10840602 -0.01908968 0.00771948
v 0.10840602 -0.01891032 0.00771948
v 0.10984572 -0.01900000 0.01869220
v 0.10984573 -0.01882115 0.01869217
v 0.10985389 -0.01963799 0.01871463
v 0.10985484 -0.01971209 0.01871719
v 0.11107738 -0.01897011 0.02207613
v 0.11107738 -0.01885087 0.02207611
v 0.11110077 -0.01962533 0.02214040
v 0.11110685 -0.01970005 0.02215706
v 0.11210098 -0.01967598 0.01787134
v 0.11210099 -0.01882115 0.01787134
v 0.11210271 -0.01913426 0.01787604
v 0.11210815 -0.01956033 0.01789102
v 0.11211009 -0.01971209 0.01789639
v 0.11333264 -0.01885087 0.02125529
v 0.11333569 -0.01920824 0.02126365
v 0.11335059 -0.01965066 0.02130459
v 0.11335059 -0.01954711 0.02130459
v 0.11336210 -0.01970005 0.02133624
f 1 5 7
f 5 9 7
f 25 19 29
f 25 17 19
f 1 15 2
f 2 15 19
f 2 5 1
f 29 19 24
f 19 15 24
f 17 25 13
f 25 21 13
f 5 2 6
f 6 2 3
f 6 13 5
f 12 13 6
f 17 13 16
f 16 13 12
f 3 2 14
f 14 12 3
f 14 2 19
f 9 21 11
f 11 7 9
f 8 7 11
f 26 25 29
f 26 21 25
f 3 12 4
f 4 6 3
f 12 6 4
f 18 16 12
f 12 14 18
f 18 14 19
f 19 17 18
f 17 16 18
f 22 11 21
f 21 26 22
f 8 11 10
f 11 22 10
f 8 10 23
f 23 10 22
f 20 7 8
f 28 26 29
f 27 22 26
f 27 23 22
f 26 28 27
f 27 28 29
f 29 20 27
f 1 7 24
f 24 15 1
f 13 21 9
f 13 9 5
f 20 24 7
f 29 24 20
f 27 20 8
f 8 23 27

