# https://github.com/mikedh/trimesh

o camera_fastened_open_face_056.obj
v 0.10606236 0.01974819 0.00829749
v 0.10608060 0.01967598 0.00834753
v 0.10609692 0.01840000 0.00839246
v 0.10609692 0.01960000 0.00839246
v 0.10611127 0.01847934 0.00843182
v 0.10612354 0.01856159 0.00846558
v 0.10612354 0.01943841 0.00846558
v 0.10614162 0.01873298 0.00851526
v 0.10614162 0.01926702 0.00851526
v 0.10615190 0.01900000 0.00854352
v 0.10712266 0.01431175 0.01121061
v 0.10764368 0.01230561 0.01264215
v 0.10772398 0.01236852 0.01286273
v 0.10773115 0.01240819 0.01288242
v 0.10790663 0.01256406 0.01336456
v 0.10791346 0.01265149 0.01338330
v 0.10799652 0.01266057 0.01361154
v 0.10984572 0.01900000 0.01869220
v 0.10984572 0.01471410 0.01869218
v 0.10984573 0.01960000 0.01869220
v 0.10984573 0.01974819 0.01869217
v 0.10985290 0.01956033 0.01871188
v 0.10985484 0.01971209 0.01871719
f 19 18 12
f 1 23 2
f 12 18 10
f 23 19 16
f 16 2 23
f 21 23 1
f 1 20 21
f 21 20 23
f 23 20 22
f 22 20 18
f 22 19 23
f 18 19 22
f 18 20 7
f 15 16 19
f 1 2 3
f 2 5 3
f 12 3 11
f 11 3 5
f 2 16 14
f 14 5 2
f 14 11 5
f 12 11 14
f 16 15 14
f 9 10 18
f 18 7 9
f 9 7 10
f 4 20 1
f 4 7 20
f 1 3 4
f 10 7 4
f 4 3 10
f 17 19 12
f 17 15 19
f 6 3 12
f 10 3 6
f 12 14 13
f 13 14 15
f 13 17 12
f 15 17 13
f 12 10 8
f 8 6 12
f 10 6 8

