# https://github.com/mikedh/trimesh

o camera_fastened_open_face_156.obj
v 0.11333226 0.01894022 0.02125423
v 0.11333226 0.01905978 0.02125423
v 0.11333379 0.01888060 0.02125842
v 0.11333379 0.01923763 0.02125842
v 0.11333834 0.01941018 0.02127094
v 0.11334172 0.01949324 0.02128021
v 0.11335059 0.01965066 0.02130459
v 0.11336210 0.01970005 0.02133624
v 0.11353954 0.01900000 0.02884088
v 0.11354070 0.01891032 0.02884399
v 0.11354070 0.01908968 0.02884399
v 0.11354413 0.01882115 0.02885345
v 0.11354413 0.01917885 0.02885345
v 0.11354984 0.01873298 0.02886914
v 0.11354984 0.01926702 0.02886914
v 0.11355777 0.01864629 0.02889093
v 0.11355777 0.01935371 0.02889093
v 0.11356792 0.01856159 0.02891882
v 0.11356792 0.01943841 0.02891882
v 0.11358018 0.01847934 0.02895251
v 0.11358018 0.01952066 0.02895251
v 0.11359453 0.01840000 0.02899194
v 0.11359453 0.01960000 0.02899194
v 0.11361086 0.01832402 0.02903680
v 0.11361086 0.01967598 0.02903680
v 0.11362909 0.01825181 0.02908685
v 0.11362909 0.01974819 0.02908685
v 0.11364911 0.01818379 0.02914191
v 0.11364911 0.01981621 0.02914191
v 0.11367081 0.01812034 0.02920154
v 0.11367081 0.01987966 0.02920154
v 0.11369408 0.01806180 0.02926544
v 0.11369408 0.01993820 0.02926544
v 0.11371877 0.01800851 0.02933325
v 0.11371877 0.01999149 0.02933325
v 0.11374475 0.01796077 0.02940466
v 0.11377188 0.01791884 0.02947925
v 0.11378595 0.01790089 0.02951788
v 0.11380002 0.01788295 0.02955652
v 0.11382899 0.01785331 0.02963611
v 0.11385864 0.01783009 0.02971759
v 0.11388879 0.01781340 0.02980042
v 0.11403326 0.01265149 0.02318018
v 0.11403611 0.01260740 0.02318802
v 0.11404008 0.01256406 0.02319894
v 0.11422273 0.01236852 0.02370078
v 0.11430303 0.01230561 0.02392139
v 0.11471194 0.01780112 0.02972296
v 0.11523094 0.02000740 0.02880983
v 0.11527042 0.01348275 0.02657926
v 0.11534976 0.01334596 0.02679724
v 0.11552974 0.01296450 0.02729177
v 0.11553475 0.01782452 0.02964457
v 0.11557557 0.01283455 0.02741768
v 0.11559511 0.01285217 0.02747137
v 0.11579939 0.01917885 0.02803259
v 0.11584979 0.01960000 0.02817108
v 0.11586612 0.01967598 0.02821594
v 0.11592607 0.01987966 0.02838068
v 0.11597403 0.01999149 0.02851245
v 0.11608426 0.01785331 0.02881525
v 0.11617456 0.01780336 0.02906335
v 0.11635518 0.01788295 0.02955963
f 35 42 63
f 63 42 53
f 53 55 63
f 54 42 47
f 54 55 42
f 63 55 62
f 62 60 63
f 49 35 63
f 63 60 49
f 42 35 31
f 42 55 48
f 48 53 42
f 55 53 48
f 47 43 50
f 50 43 61
f 55 54 52
f 61 62 52
f 52 62 55
f 52 54 47
f 60 62 58
f 4 3 1
f 61 43 4
f 4 43 3
f 7 58 4
f 60 7 8
f 8 49 60
f 35 49 8
f 47 46 44
f 44 43 47
f 44 46 45
f 45 3 44
f 3 43 44
f 51 50 61
f 61 52 51
f 47 50 51
f 51 52 47
f 59 7 60
f 60 58 59
f 59 58 7
f 2 4 1
f 61 4 56
f 56 62 61
f 56 58 62
f 33 31 35
f 35 8 33
f 33 8 31
f 42 31 41
f 31 37 41
f 47 42 41
f 41 46 47
f 9 37 31
f 4 2 9
f 9 2 1
f 36 34 45
f 45 37 36
f 25 8 7
f 25 9 31
f 28 26 45
f 57 4 58
f 58 56 57
f 57 56 4
f 12 3 14
f 14 9 12
f 46 41 40
f 39 40 41
f 45 46 39
f 46 40 39
f 31 8 29
f 29 25 31
f 16 3 45
f 14 3 16
f 34 36 32
f 32 36 37
f 45 34 32
f 22 20 45
f 15 13 9
f 15 17 7
f 7 13 15
f 6 13 7
f 5 13 6
f 7 4 6
f 4 5 6
f 4 9 11
f 9 13 11
f 11 5 4
f 11 13 5
f 10 9 1
f 10 12 9
f 1 3 10
f 3 12 10
f 38 41 37
f 38 39 41
f 38 37 45
f 45 39 38
f 8 25 27
f 27 29 8
f 25 29 27
f 37 9 30
f 30 32 37
f 30 28 45
f 45 32 30
f 18 9 14
f 18 22 9
f 14 16 18
f 20 22 18
f 45 20 18
f 18 16 45
f 19 15 9
f 17 15 19
f 7 17 19
f 19 21 7
f 28 30 24
f 26 28 24
f 9 22 24
f 24 30 9
f 45 26 24
f 24 22 45
f 21 19 23
f 23 25 7
f 7 21 23
f 9 25 23
f 23 19 9

