# https://github.com/mikedh/trimesh

o compute_dual_shelf_frame_carrier_255.obj
v -0.11497698 -0.03575959 0.31357499
v -0.11494240 -0.03583140 0.31357499
v -0.11490254 -0.03590044 0.31357499
v -0.11485764 -0.03596630 0.31357499
v -0.11480794 -0.03602862 0.31357499
v -0.11475372 -0.03608705 0.31357499
v -0.11469529 -0.03614127 0.31357499
v -0.11463297 -0.03619097 0.31357499
v -0.11456711 -0.03623587 0.31357499
v -0.11449807 -0.03627573 0.31357499
v -0.11442625 -0.03631032 0.31357499
v -0.11435205 -0.03633944 0.31357499
v -0.11427588 -0.03636293 0.31357499
v -0.11419817 -0.03638067 0.31357499
v -0.11411934 -0.03639255 0.31357499
v -0.09746547 -0.03463938 0.31357499
v -0.09611957 -0.03559553 0.31357499
v -0.11497698 -0.03575959 0.31362499
v -0.11494240 -0.03583140 0.31362499
v -0.11490254 -0.03590044 0.31362499
v -0.11485764 -0.03596630 0.31362499
v -0.11480794 -0.03602862 0.31362499
v -0.11475372 -0.03608705 0.31362499
v -0.11469529 -0.03614127 0.31362499
v -0.11463297 -0.03619097 0.31362499
v -0.11456711 -0.03623587 0.31362499
v -0.11449807 -0.03627573 0.31362499
v -0.11442625 -0.03631032 0.31362499
v -0.11435205 -0.03633944 0.31362499
v -0.11427588 -0.03636293 0.31362499
v -0.11419817 -0.03638067 0.31362499
v -0.11411934 -0.03639255 0.31362499
v -0.09746547 -0.03463938 0.31362499
v -0.09611957 -0.03559553 0.31362499
f 1 18 33
f 33 16 1
f 33 34 17
f 17 16 33
f 17 34 32
f 32 15 17
f 19 18 1
f 1 2 19
f 10 16 17
f 1 16 10
f 17 15 10
f 10 2 1
f 10 9 8
f 15 14 10
f 8 7 10
f 10 5 4
f 4 3 10
f 10 12 11
f 10 14 13
f 10 7 6
f 10 3 2
f 6 5 10
f 13 12 10
f 8 9 26
f 26 25 8
f 20 3 4
f 4 21 20
f 2 3 20
f 20 19 2
f 24 7 8
f 8 25 24
f 6 7 24
f 24 23 6
f 4 5 22
f 22 21 4
f 22 5 6
f 6 23 22
f 15 32 31
f 31 14 15
f 13 14 31
f 31 30 13
f 11 12 29
f 29 28 11
f 29 12 13
f 13 30 29
f 34 33 27
f 27 33 18
f 27 32 34
f 27 20 21
f 18 19 27
f 21 22 27
f 25 26 27
f 27 24 25
f 27 31 32
f 28 29 27
f 19 20 27
f 23 24 27
f 27 22 23
f 30 31 27
f 27 29 30
f 27 10 11
f 11 28 27
f 9 10 27
f 27 26 9

