# https://github.com/mikedh/trimesh

o compute_frame_1_m3x12_009.obj
v -0.07950000 -0.03400000 0.32509999
v -0.07949860 -0.03403736 0.32109999
v -0.07949720 -0.03392527 0.32109999
v -0.07949580 -0.03411209 0.32509999
v -0.07949580 -0.03388791 0.32509999
v -0.07949162 -0.03414925 0.32109999
v -0.07948743 -0.03381359 0.32109999
v -0.07948325 -0.03422356 0.32509999
v -0.07948325 -0.03377644 0.32509999
v -0.07946935 -0.03429704 0.32109999
v -0.07946935 -0.03370296 0.32109999
v -0.07946239 -0.03433378 0.32509999
v -0.07946239 -0.03366622 0.32509999
v -0.07945272 -0.03436990 0.32109999
v -0.07945272 -0.03363010 0.32109999
v -0.07943336 -0.03444213 0.32509999
v -0.07943336 -0.03355787 0.32509999
v -0.07942101 -0.03447742 0.32109999
v -0.07940866 -0.03348728 0.32109999
v -0.07939631 -0.03454801 0.32509999
v -0.07939631 -0.03345199 0.32509999
v -0.07938136 -0.03458228 0.32109999
v -0.07936641 -0.03338345 0.32109999
v -0.07935146 -0.03465083 0.32509999
v -0.07935146 -0.03334917 0.32509999
v -0.07933398 -0.03468388 0.32109999
v -0.07933398 -0.03331612 0.32109999
v -0.07929904 -0.03475000 0.32509999
v -0.07929904 -0.03325000 0.32509999
v -0.07927915 -0.03321834 0.32109999
v -0.07925925 -0.03481332 0.32109999
v -0.07923936 -0.03484498 0.32509999
v -0.07923936 -0.03315502 0.32509999
v -0.07921715 -0.03312494 0.32109999
v -0.07919495 -0.03490515 0.32109999
v -0.07917274 -0.03493523 0.32509999
v -0.07917274 -0.03306477 0.32509999
v -0.07914836 -0.03496358 0.32109999
v -0.07914836 -0.03303642 0.32109999
v -0.07909958 -0.03502026 0.32509999
v -0.07909958 -0.03297974 0.32509999
v -0.07904670 -0.03292686 0.32109999
v -0.07902026 -0.03290042 0.32509999
v -0.07896357 -0.03285164 0.32109999
v -0.07893523 -0.03517275 0.32509999
v -0.07893523 -0.03282725 0.32509999
v -0.07890515 -0.03280505 0.32109999
v -0.07884498 -0.03523936 0.32509999
v -0.07884498 -0.03276064 0.32509999
v -0.07878166 -0.03272086 0.32109999
v -0.07875000 -0.03529904 0.32509999
v -0.07875000 -0.03270096 0.32509999
v -0.07871694 -0.03268349 0.32109999
v -0.07865083 -0.03264855 0.32509999
v -0.07858228 -0.03261864 0.32109999
v -0.07854801 -0.03260369 0.32509999
v -0.07847742 -0.03257899 0.32109999
v -0.07844213 -0.03256664 0.32509999
v -0.07836990 -0.03254729 0.32109999
v -0.07833378 -0.03253761 0.32509999
v -0.07829704 -0.03253066 0.32109999
v -0.07822356 -0.03251675 0.32509999
v -0.07818641 -0.03251257 0.32109999
v -0.07811210 -0.03250420 0.32509999
v -0.07803737 -0.03250140 0.32109999
v -0.07800000 -0.03250000 0.32509999
v -0.07792527 -0.03250280 0.32109999
v -0.07788790 -0.03250420 0.32509999
v -0.07781359 -0.03251257 0.32109999
v -0.07777644 -0.03251675 0.32509999
v -0.07773970 -0.03252371 0.32109999
v -0.07766622 -0.03253761 0.32509999
v -0.07759399 -0.03255696 0.32109999
v -0.07755787 -0.03256664 0.32509999
v -0.07748728 -0.03259134 0.32109999
v -0.07745199 -0.03260369 0.32509999
v -0.07738345 -0.03263360 0.32109999
v -0.07734917 -0.03264855 0.32509999
v -0.07731612 -0.03266602 0.32109999
v -0.07725000 -0.03270096 0.32509999
v -0.07718668 -0.03274075 0.32109999
v -0.07715502 -0.03276064 0.32509999
v -0.07712494 -0.03278285 0.32109999
v -0.07706477 -0.03282725 0.32509999
v -0.07700808 -0.03287603 0.32109999
v -0.07697974 -0.03509958 0.32509999
v -0.07697974 -0.03290042 0.32509999
v -0.07692686 -0.03295330 0.32109999
v -0.07690042 -0.03502026 0.32509999
v -0.07690042 -0.03297974 0.32509999
v -0.07687603 -0.03499192 0.32109999
v -0.07685164 -0.03303642 0.32109999
v -0.07682726 -0.03493523 0.32509999
v -0.07682726 -0.03306477 0.32509999
v -0.07680505 -0.03490515 0.32109999
v -0.07680505 -0.03309485 0.32109999
v -0.07676064 -0.03484498 0.32509999
v -0.07676064 -0.03315502 0.32509999
v -0.07674075 -0.03481332 0.32109999
v -0.07672085 -0.03321834 0.32109999
v -0.07670096 -0.03475000 0.32509999
v -0.07670096 -0.03325000 0.32509999
v -0.07668349 -0.03471694 0.32109999
v -0.07666602 -0.03331612 0.32109999
v -0.07664854 -0.03465083 0.32509999
v -0.07664854 -0.03334917 0.32509999
v -0.07663359 -0.03461655 0.32109999
v -0.07661864 -0.03341772 0.32109999
v -0.07660369 -0.03454801 0.32509999
v -0.07660369 -0.03345199 0.32509999
v -0.07659134 -0.03451272 0.32109999
v -0.07659134 -0.03348728 0.32109999
v -0.07656664 -0.03444213 0.32509999
v -0.07656664 -0.03355787 0.32509999
v -0.07655696 -0.03440601 0.32109999
v -0.07655696 -0.03359399 0.32109999
v -0.07653761 -0.03433378 0.32509999
v -0.07653761 -0.03366622 0.32509999
v -0.07653065 -0.03429704 0.32109999
v -0.07653065 -0.03370296 0.32109999
v -0.07651675 -0.03422356 0.32509999
v -0.07651675 -0.03377644 0.32509999
v -0.07651257 -0.03418641 0.32109999
v -0.07651048 -0.03416783 0.32509999
v -0.07651048 -0.03383217 0.32509999
v -0.07650838 -0.03385075 0.32109999
v -0.07650420 -0.03411209 0.32509999
v -0.07650420 -0.03388791 0.32509999
v -0.07650280 -0.03407473 0.32109999
v -0.07650210 -0.03405605 0.32509999
v -0.07650210 -0.03394395 0.32509999
v -0.07650140 -0.03396264 0.32109999
v -0.07650000 -0.03400000 0.32509999
f 38 91 51
f 51 91 86
f 87 90 88
f 1 2 4
f 12 8 10
f 45 40 38
f 38 40 36
f 110 108 106
f 42 41 43
f 39 41 42
f 78 80 79
f 79 80 81
f 84 87 85
f 85 87 88
f 8 4 6
f 6 4 2
f 6 10 8
f 22 20 18
f 48 38 51
f 48 45 38
f 24 20 22
f 26 31 28
f 28 24 26
f 26 24 22
f 28 31 32
f 38 36 35
f 36 32 35
f 35 32 31
f 89 86 91
f 91 93 89
f 102 100 98
f 94 98 96
f 96 98 100
f 102 106 104
f 104 100 102
f 104 106 108
f 118 116 114
f 112 108 110
f 110 114 112
f 112 114 116
f 118 122 120
f 120 116 118
f 54 55 53
f 53 52 54
f 50 52 53
f 19 21 23
f 3 2 1
f 23 21 25
f 37 39 34
f 41 39 37
f 81 80 82
f 78 79 77
f 84 85 83
f 83 82 84
f 81 82 83
f 75 74 76
f 76 77 75
f 78 77 76
f 72 71 70
f 67 65 66
f 72 74 73
f 73 71 72
f 73 74 75
f 12 10 14
f 16 18 20
f 16 14 18
f 12 14 16
f 105 101 103
f 133 132 131
f 132 128 131
f 126 128 132
f 126 120 122
f 90 94 92
f 94 96 92
f 88 90 92
f 46 47 44
f 44 43 46
f 42 43 44
f 50 47 49
f 49 52 50
f 49 47 46
f 56 55 54
f 62 61 60
f 59 58 60
f 60 61 59
f 11 13 15
f 9 13 11
f 29 30 27
f 27 25 29
f 23 25 27
f 33 37 34
f 34 30 33
f 33 30 29
f 68 67 66
f 69 70 71
f 69 68 70
f 67 68 69
f 101 97 99
f 99 103 101
f 105 103 107
f 107 109 105
f 111 109 107
f 113 109 111
f 117 119 121
f 125 126 122
f 128 126 125
f 61 62 63
f 58 59 57
f 57 56 58
f 55 56 57
f 19 15 17
f 21 19 17
f 17 15 13
f 5 3 1
f 7 9 11
f 7 5 9
f 3 5 7
f 95 97 93
f 95 99 97
f 95 93 91
f 115 113 111
f 117 113 115
f 115 119 117
f 129 132 133
f 65 63 64
f 66 65 64
f 64 63 62
f 123 121 119
f 127 123 129
f 130 129 133
f 130 127 129
f 121 123 124
f 123 127 124
f 123 39 42
f 11 15 123
f 123 53 55
f 123 14 10
f 91 38 123
f 123 26 22
f 108 112 123
f 123 85 88
f 81 83 123
f 38 35 123
f 88 92 123
f 2 3 123
f 123 19 23
f 123 6 2
f 22 18 123
f 123 69 71
f 123 126 132
f 123 104 108
f 123 115 111
f 34 39 123
f 111 107 123
f 123 79 81
f 75 77 123
f 65 67 123
f 10 6 123
f 123 73 75
f 31 26 123
f 123 35 31
f 123 96 100
f 100 104 123
f 123 112 116
f 116 120 123
f 50 53 123
f 123 47 50
f 42 44 123
f 123 63 65
f 55 57 123
f 123 30 34
f 123 77 79
f 123 83 85
f 23 27 123
f 71 73 123
f 18 14 123
f 123 7 11
f 123 95 91
f 120 126 123
f 123 92 96
f 123 44 47
f 123 59 61
f 123 15 19
f 123 27 30
f 67 69 123
f 103 99 123
f 123 107 103
f 61 63 123
f 123 57 59
f 3 7 123
f 99 95 123
f 119 115 123
f 132 129 123
f 110 106 124
f 90 87 124
f 124 94 90
f 124 101 105
f 78 76 124
f 1 4 124
f 124 43 41
f 124 49 46
f 124 24 28
f 51 86 124
f 28 32 124
f 124 113 117
f 124 25 21
f 124 8 12
f 84 82 124
f 124 48 51
f 102 98 124
f 124 114 110
f 124 56 54
f 105 109 124
f 124 87 84
f 124 80 78
f 124 4 8
f 40 45 124
f 124 36 40
f 124 33 29
f 86 89 124
f 124 122 118
f 124 106 102
f 46 43 124
f 54 52 124
f 124 5 1
f 41 37 124
f 124 74 72
f 45 48 124
f 20 24 124
f 124 32 36
f 124 89 93
f 12 16 124
f 93 97 124
f 66 64 124
f 124 98 94
f 118 114 124
f 133 131 124
f 60 58 124
f 124 125 122
f 29 25 124
f 21 17 124
f 124 82 80
f 124 76 74
f 72 70 124
f 124 16 20
f 124 97 101
f 124 68 66
f 124 131 128
f 52 49 124
f 58 56 124
f 124 62 60
f 13 9 124
f 37 33 124
f 70 68 124
f 109 113 124
f 117 121 124
f 128 125 124
f 124 17 13
f 9 5 124
f 124 64 62
f 124 130 133
f 127 130 124

