# https://github.com/mikedh/trimesh

o compute_dual_shelf_frame_carrier_355.obj
v -0.08862681 -0.03160149 0.31562499
v -0.08703553 -0.03494945 0.31562499
v -0.08700000 -0.03499759 0.31562499
v -0.08500000 -0.03120000 0.31562499
v -0.07925093 -0.03499759 0.31562499
v -0.07400000 -0.03000000 0.31562499
v -0.08862681 -0.03160149 0.31557499
v -0.08703553 -0.03494945 0.31557499
v -0.08700000 -0.03499759 0.31557499
v -0.08500000 -0.03120000 0.31557499
v -0.07925093 -0.03499759 0.31557499
v -0.07400000 -0.03000000 0.31557499
f 1 2 5
f 5 4 1
f 6 4 5
f 5 2 3
f 6 5 12
f 12 5 11
f 9 5 3
f 11 5 9
f 1 4 10
f 10 7 1
f 10 4 6
f 6 12 10
f 8 12 11
f 11 9 8
f 7 10 8
f 8 10 12
f 8 2 1
f 1 7 8
f 3 2 8
f 8 9 3

