# https://github.com/mikedh/trimesh

o compute_frame_0_top_washer_001.obj
v -0.09950000 -0.03400000 0.32059999
v -0.09950000 -0.03400000 0.32109999
v -0.09949021 -0.03426155 0.32059999
v -0.09949021 -0.03426155 0.32109999
v -0.09949021 -0.03373845 0.32059999
v -0.09949021 -0.03373845 0.32109999
v -0.09946091 -0.03452165 0.32059999
v -0.09946091 -0.03452165 0.32109999
v -0.09946091 -0.03347835 0.32059999
v -0.09946091 -0.03347835 0.32109999
v -0.09941225 -0.03477882 0.32059999
v -0.09941225 -0.03477882 0.32109999
v -0.09941225 -0.03322118 0.32059999
v -0.09941225 -0.03322118 0.32109999
v -0.09934451 -0.03503164 0.32059999
v -0.09934451 -0.03503164 0.32109999
v -0.09934451 -0.03296836 0.32059999
v -0.09934451 -0.03296836 0.32109999
v -0.09925806 -0.03527869 0.32059999
v -0.09925806 -0.03527869 0.32109999
v -0.09925806 -0.03272131 0.32059999
v -0.09925806 -0.03272131 0.32109999
v -0.09920572 -0.03260136 0.32059999
v -0.09915339 -0.03248141 0.32059999
v -0.09915339 -0.03248141 0.32109999
v -0.09907186 -0.03232714 0.32076666
v -0.09903109 -0.03225000 0.32059999
v -0.09903109 -0.03225000 0.32109999
v -0.09898467 -0.03217613 0.32076666
v -0.09889184 -0.03202838 0.32059999
v -0.09889184 -0.03202838 0.32109999
v -0.09873641 -0.03181779 0.32059999
v -0.09873641 -0.03181779 0.32109999
v -0.09856568 -0.03161940 0.32059999
v -0.09856568 -0.03161940 0.32109999
v -0.09838061 -0.03143432 0.32059999
v -0.09838061 -0.03143432 0.32109999
v -0.09818221 -0.03126359 0.32059999
v -0.09818221 -0.03126359 0.32109999
v -0.09797162 -0.03110816 0.32059999
v -0.09797162 -0.03110816 0.32109999
v -0.09786649 -0.03522431 0.32059999
v -0.09786649 -0.03522431 0.32109999
v -0.09775000 -0.03096891 0.32059999
v -0.09775000 -0.03096891 0.32109999
v -0.09751859 -0.03084661 0.32059999
v -0.09751859 -0.03084661 0.32109999
v -0.09727869 -0.03074194 0.32059999
v -0.09727869 -0.03074194 0.32109999
v -0.09725093 -0.03499759 0.32059999
v -0.09725093 -0.03499759 0.32109999
v -0.09703165 -0.03065549 0.32059999
v -0.09703165 -0.03065549 0.32109999
v -0.09677882 -0.03058775 0.32059999
v -0.09677882 -0.03058775 0.32109999
v -0.09652164 -0.03053909 0.32059999
v -0.09652164 -0.03053909 0.32109999
v -0.09626156 -0.03050979 0.32059999
v -0.09626156 -0.03050979 0.32109999
v -0.09600000 -0.03050000 0.32059999
v -0.09600000 -0.03050000 0.32109999
v -0.09573844 -0.03050979 0.32059999
v -0.09573844 -0.03050979 0.32109999
v -0.09547836 -0.03053909 0.32059999
v -0.09547836 -0.03053909 0.32109999
v -0.09522118 -0.03058775 0.32059999
v -0.09522118 -0.03058775 0.32109999
v -0.09500242 -0.03274907 0.32059999
v -0.09500242 -0.03274907 0.32109999
v -0.09496835 -0.03065549 0.32059999
v -0.09496835 -0.03065549 0.32109999
v -0.09477569 -0.03213351 0.32059999
v -0.09477569 -0.03213351 0.32109999
v -0.09472131 -0.03074194 0.32059999
v -0.09472131 -0.03074194 0.32109999
f 29 30 27
f 27 28 29
f 31 29 28
f 30 29 31
f 27 24 26
f 26 28 27
f 28 26 25
f 25 26 24
f 50 68 69
f 51 50 69
f 43 42 50
f 43 50 51
f 19 42 43
f 43 20 19
f 16 15 19
f 19 20 16
f 11 15 16
f 16 12 11
f 3 4 2
f 3 2 1
f 8 7 11
f 11 12 8
f 4 3 8
f 8 3 7
f 73 72 74
f 74 75 73
f 73 69 68
f 68 72 73
f 64 62 65
f 65 62 63
f 67 66 64
f 64 65 67
f 34 35 37
f 37 36 34
f 58 56 59
f 59 56 57
f 74 70 71
f 71 75 74
f 71 70 66
f 66 67 71
f 33 35 34
f 34 32 33
f 6 10 9
f 9 5 6
f 1 2 6
f 6 5 1
f 22 21 17
f 17 18 22
f 63 62 61
f 62 60 61
f 61 60 58
f 58 59 61
f 45 47 46
f 46 44 45
f 40 41 45
f 45 44 40
f 57 56 55
f 56 54 55
f 55 54 52
f 52 53 55
f 39 41 40
f 40 38 39
f 36 37 39
f 39 38 36
f 32 30 31
f 31 33 32
f 17 13 14
f 14 18 17
f 9 10 14
f 14 13 9
f 49 53 52
f 52 48 49
f 46 47 49
f 49 48 46
f 74 72 23
f 23 24 27
f 23 42 19
f 23 13 17
f 19 15 23
f 23 3 1
f 23 56 58
f 23 68 50
f 23 15 11
f 50 42 23
f 52 54 23
f 11 7 23
f 23 70 74
f 64 66 23
f 40 44 23
f 1 5 23
f 23 72 68
f 27 30 23
f 7 3 23
f 66 70 23
f 23 62 64
f 23 5 9
f 58 60 23
f 34 36 23
f 23 32 34
f 17 21 23
f 23 38 40
f 23 60 62
f 23 54 56
f 23 30 32
f 9 13 23
f 23 48 52
f 23 44 46
f 36 38 23
f 46 48 23
f 21 22 23
f 25 43 51
f 51 69 25
f 25 73 75
f 25 16 20
f 2 4 25
f 57 55 25
f 20 43 25
f 75 71 25
f 12 16 25
f 25 8 12
f 25 65 63
f 4 8 25
f 25 31 28
f 53 49 25
f 63 61 25
f 25 6 2
f 69 73 25
f 25 45 41
f 25 67 65
f 25 37 35
f 41 39 25
f 25 59 57
f 18 14 25
f 25 71 67
f 35 33 25
f 10 6 25
f 25 22 18
f 25 61 59
f 47 45 25
f 25 55 53
f 25 39 37
f 33 31 25
f 25 14 10
f 25 49 47
f 24 23 25
f 25 23 22

