# https://github.com/mikedh/trimesh

o compute_dual_shelf_frame_carrier_086.obj
v -0.15000000 -0.01850000 0.32690001
v -0.15000000 -0.02000000 0.32690001
v -0.15000000 -0.01850000 0.32890001
v -0.14620000 -0.01850000 0.32890001
v -0.14620000 -0.01434956 0.32690001
v -0.14620000 -0.01434956 0.32890001
v -0.14497500 -0.01912500 0.32690001
v -0.14427500 -0.01630000 0.32690001
v -0.14416440 -0.01369385 0.32690001
f 1 2 3
f 2 7 4
f 4 3 2
f 4 6 3
f 9 6 4
f 5 6 9
f 9 4 8
f 8 4 7
f 1 3 5
f 3 6 5
f 8 2 1
f 1 5 8
f 8 7 2
f 8 5 9

