# https://github.com/mikedh/trimesh

o compute_dual_shelf_frame_carrier_395.obj
v -0.08534360 -0.03198756 0.31559999
v -0.07960000 -0.03400000 0.31359999
v -0.07959553 -0.03411957 0.31359999
v -0.07959553 -0.03388043 0.31359999
v -0.07958213 -0.03423847 0.31359999
v -0.07958213 -0.03376153 0.31359999
v -0.07955988 -0.03435603 0.31359999
v -0.07955988 -0.03364397 0.31359999
v -0.07952892 -0.03447161 0.31359999
v -0.07952892 -0.03352839 0.31359999
v -0.07948940 -0.03458455 0.31359999
v -0.07948940 -0.03341545 0.31359999
v -0.07944155 -0.03469421 0.31359999
v -0.07944155 -0.03330579 0.31359999
v -0.07938564 -0.03480000 0.31359999
v -0.07938564 -0.03320000 0.31359999
v -0.07932198 -0.03490131 0.31359999
v -0.07932198 -0.03309869 0.31359999
v -0.07925093 -0.03499759 0.31359999
v -0.07925093 -0.03499759 0.31559999
v -0.07925093 -0.03300241 0.31359999
v -0.07917288 -0.03291172 0.31359999
v -0.07908828 -0.03282712 0.31359999
v -0.07899758 -0.03274907 0.31359999
v -0.07890131 -0.03267802 0.31359999
v -0.07880000 -0.03261436 0.31359999
v -0.07869421 -0.03255845 0.31359999
v -0.07858455 -0.03251060 0.31359999
v -0.07847161 -0.03247108 0.31359999
v -0.07835603 -0.03244012 0.31359999
v -0.07823846 -0.03241787 0.31359999
v -0.07811957 -0.03240447 0.31359999
v -0.07800000 -0.03240000 0.31359999
v -0.07788043 -0.03240447 0.31359999
v -0.07776154 -0.03241787 0.31359999
v -0.07764397 -0.03244012 0.31359999
v -0.07752839 -0.03247108 0.31359999
v -0.07741545 -0.03251060 0.31359999
v -0.07730579 -0.03255845 0.31359999
v -0.07720000 -0.03261436 0.31359999
v -0.07709869 -0.03267802 0.31359999
v -0.07700242 -0.03274907 0.31359999
v -0.07691172 -0.03282712 0.31359999
v -0.07682712 -0.03291172 0.31359999
v -0.07674907 -0.03499759 0.31359999
v -0.07674907 -0.03300241 0.31359999
v -0.07667802 -0.03490131 0.31359999
v -0.07667802 -0.03309869 0.31359999
v -0.07661436 -0.03480000 0.31359999
v -0.07661436 -0.03320000 0.31359999
v -0.07655845 -0.03469421 0.31359999
v -0.07655845 -0.03330579 0.31359999
v -0.07651060 -0.03458455 0.31359999
v -0.07651060 -0.03341545 0.31359999
v -0.07647108 -0.03447161 0.31359999
v -0.07647108 -0.03352839 0.31359999
v -0.07644012 -0.03435603 0.31359999
v -0.07644012 -0.03364397 0.31359999
v -0.07641787 -0.03423847 0.31359999
v -0.07641787 -0.03376153 0.31359999
v -0.07640447 -0.03411957 0.31359999
v -0.07640447 -0.03388043 0.31359999
v -0.07640000 -0.03400000 0.31359999
v -0.07568968 -0.03575959 0.31559999
v -0.07510000 -0.03450000 0.31559999
v -0.07400000 -0.03000000 0.31559999
f 1 66 31
f 1 19 20
f 20 19 64
f 64 19 45
f 1 2 3
f 3 5 1
f 7 9 1
f 1 5 7
f 17 19 1
f 1 15 17
f 13 15 1
f 64 45 47
f 47 49 64
f 51 65 64
f 64 49 51
f 4 2 1
f 1 6 4
f 1 10 8
f 8 6 1
f 1 21 18
f 18 16 1
f 1 16 14
f 29 28 1
f 27 26 1
f 1 28 27
f 22 21 1
f 1 23 22
f 1 26 25
f 59 61 66
f 62 60 66
f 48 46 66
f 32 31 66
f 39 38 66
f 1 9 11
f 11 13 1
f 55 65 53
f 65 51 53
f 12 10 1
f 1 14 12
f 1 31 30
f 30 29 1
f 24 23 1
f 1 25 24
f 57 59 66
f 66 65 57
f 57 65 55
f 66 61 63
f 63 62 66
f 66 52 50
f 50 48 66
f 66 60 58
f 58 56 66
f 54 52 66
f 66 56 54
f 66 34 33
f 33 32 66
f 66 38 37
f 37 36 66
f 35 34 66
f 66 36 35
f 66 46 44
f 44 43 66
f 42 41 66
f 66 43 42
f 66 41 40
f 40 39 66
f 20 65 66
f 20 66 1
f 64 65 20
f 9 7 40
f 40 8 10
f 60 62 40
f 40 47 45
f 26 27 40
f 40 33 34
f 40 45 19
f 40 11 9
f 55 53 40
f 40 25 26
f 40 50 52
f 40 3 2
f 19 17 40
f 38 39 40
f 2 4 40
f 40 18 21
f 10 12 40
f 21 22 40
f 23 24 40
f 46 48 40
f 31 32 40
f 34 35 40
f 5 3 40
f 40 7 5
f 40 17 15
f 15 13 40
f 49 47 40
f 40 51 49
f 40 4 6
f 6 8 40
f 16 18 40
f 40 14 16
f 28 29 40
f 40 27 28
f 40 22 23
f 40 30 31
f 61 59 40
f 40 57 55
f 40 63 61
f 40 58 60
f 52 54 40
f 40 37 38
f 40 44 46
f 41 42 40
f 13 11 40
f 40 53 51
f 40 12 14
f 29 30 40
f 40 24 25
f 59 57 40
f 62 63 40
f 48 50 40
f 56 58 40
f 40 54 56
f 32 33 40
f 36 37 40
f 40 35 36
f 43 44 40
f 40 42 43

