# https://github.com/mikedh/trimesh

o compute_frame_2_m3x16_006.obj
v -0.09712397 0.03499192 0.31843333
v -0.09709958 0.03502026 0.31309999
v -0.09709958 0.03502026 0.32109999
v -0.09702026 0.03509958 0.31309999
v -0.09702026 0.03509958 0.32109999
v -0.09699192 0.03512397 0.31843333
v -0.09693523 0.03517275 0.31309999
v -0.09693523 0.03517275 0.32109999
v -0.09689011 0.03520605 0.32109999
v -0.09684498 0.03523936 0.31309999
v -0.09679749 0.03526920 0.32109999
v -0.09678166 0.03527914 0.31843333
v -0.09675000 0.03529904 0.31309999
v -0.09675000 0.03529904 0.32109999
v -0.09665083 0.03535145 0.31309999
v -0.09665083 0.03535145 0.32109999
v -0.09661655 0.03536640 0.31843333
v -0.09654801 0.03539631 0.31309999
v -0.09654801 0.03539631 0.32109999
v -0.09644213 0.03543336 0.31309999
v -0.09644213 0.03543336 0.32109999
v -0.09640601 0.03544304 0.31843333
v -0.09633378 0.03546239 0.31309999
v -0.09633378 0.03546239 0.32109999
v -0.09622356 0.03548325 0.31309999
v -0.09622356 0.03548325 0.32109999
v -0.09618641 0.03548743 0.31843333
v -0.09611210 0.03549580 0.31309999
v -0.09611210 0.03549580 0.32109999
v -0.09605605 0.03549790 0.32109999
v -0.09600000 0.03550000 0.31309999
v -0.09594395 0.03549790 0.32109999
v -0.09588790 0.03549580 0.31309999
v -0.09588790 0.03549580 0.32109999
v -0.09577644 0.03548325 0.31309999
v -0.09577644 0.03548325 0.32109999
v -0.09572133 0.03547282 0.31309999
v -0.09572133 0.03547282 0.32109999
v -0.09566622 0.03546239 0.31309999
v -0.09561205 0.03544788 0.32109999
v -0.09555787 0.03543336 0.31309999
v -0.09555787 0.03543336 0.32109999
v -0.09552258 0.03542101 0.31843333
v -0.09545199 0.03539631 0.31309999
v -0.09545199 0.03539631 0.32109999
v -0.09534917 0.03535145 0.31309999
v -0.09534917 0.03535145 0.32109999
v -0.09531612 0.03533398 0.31843333
v -0.09525000 0.03529904 0.31309999
v -0.09525000 0.03529904 0.32109999
v -0.09521834 0.03527914 0.31843333
v -0.09520251 0.03526920 0.32109999
v -0.09515502 0.03523936 0.31309999
v -0.09510989 0.03520605 0.32109999
v -0.09506477 0.03517275 0.31309999
v -0.09506477 0.03517275 0.32109999
v -0.09502225 0.03513616 0.32109999
v -0.09497974 0.03509958 0.31309999
f 2 58 1
f 1 58 57
f 1 57 3
f 3 2 1
f 51 53 49
f 49 50 51
f 22 23 20
f 22 21 24
f 24 23 22
f 20 21 22
f 27 28 25
f 27 26 29
f 29 28 27
f 25 26 27
f 40 42 39
f 39 42 41
f 49 46 48
f 46 47 48
f 48 50 49
f 48 47 50
f 17 18 15
f 19 18 17
f 17 16 19
f 15 16 17
f 44 41 43
f 45 44 43
f 43 42 45
f 41 42 43
f 40 39 38
f 39 37 38
f 30 32 31
f 52 51 50
f 53 51 52
f 52 54 53
f 13 10 12
f 11 14 12
f 12 10 11
f 12 14 13
f 11 10 9
f 7 4 6
f 4 5 6
f 6 8 7
f 6 5 8
f 20 18 21
f 21 18 19
f 25 23 26
f 26 23 24
f 15 13 14
f 14 16 15
f 58 2 37
f 37 13 15
f 20 23 37
f 2 4 37
f 15 18 37
f 37 28 31
f 31 33 37
f 49 53 37
f 37 55 58
f 44 46 37
f 37 4 7
f 37 41 44
f 7 10 37
f 37 33 35
f 25 28 37
f 37 53 55
f 37 46 49
f 37 23 25
f 37 18 20
f 37 39 41
f 37 10 13
f 38 37 35
f 35 36 38
f 35 33 34
f 34 36 35
f 34 33 31
f 31 32 34
f 31 28 30
f 30 28 29
f 58 55 56
f 56 57 58
f 55 53 56
f 53 54 56
f 47 46 44
f 47 44 45
f 5 4 2
f 2 3 5
f 9 3 57
f 24 21 9
f 45 42 9
f 36 34 9
f 9 14 11
f 19 16 9
f 9 21 19
f 57 56 9
f 29 26 9
f 9 26 24
f 9 47 45
f 50 47 9
f 16 14 9
f 9 52 50
f 9 42 40
f 40 38 9
f 9 30 29
f 9 5 3
f 9 38 36
f 9 34 32
f 32 30 9
f 54 52 9
f 9 56 54
f 8 5 9
f 9 10 7
f 7 8 9

