# https://github.com/mikedh/trimesh

o head_integral_print_shell_147.obj
v 0.10317525 0.02406785 0.00029211
v 0.10327162 0.02428115 0.00055690
v 0.10337079 0.02448323 0.00082935
v 0.10347259 0.02467376 0.00110904
v 0.10348987 0.02114434 0.00115653
v 0.10357687 0.02485246 0.00139555
v 0.10368347 0.02501906 0.00168843
v 0.10379222 0.02517329 0.00198723
v 0.10390296 0.02531492 0.00229149
v 0.10393949 0.02057148 0.00239185
v 0.10395924 0.02537932 0.00244612
v 0.10401552 0.02544372 0.00260074
v 0.10412972 0.02555951 0.00291451
v 0.10424539 0.02566210 0.00323230
v 0.10436235 0.02575133 0.00355363
v 0.10477743 0.02382268 0.00469407
v 0.10492594 0.02282049 0.00510210
v 0.10535747 0.01914282 0.00628770
v 0.10539320 0.01950834 0.00638587
v 0.10540040 0.01955116 0.00640566
v 0.10312827 0.02406785 0.00030921
v 0.10322464 0.02428115 0.00057400
v 0.10332380 0.02448323 0.00084645
v 0.10342560 0.02467376 0.00112614
v 0.10344289 0.02114434 0.00117363
v 0.10352988 0.02485246 0.00141265
v 0.10354088 0.02153565 0.00144285
v 0.10363648 0.02501906 0.00170553
v 0.10374524 0.02517329 0.00200433
v 0.10385598 0.02531492 0.00230859
v 0.10389251 0.02057148 0.00240895
v 0.10392707 0.02071644 0.00250390
v 0.10396854 0.02544372 0.00261784
v 0.10402564 0.02550162 0.00277472
v 0.10408274 0.02555951 0.00293161
v 0.10414057 0.02561080 0.00309050
v 0.10419841 0.02566210 0.00324940
v 0.10431536 0.02575133 0.00357073
v 0.10473045 0.02382268 0.00471117
v 0.10487896 0.02282049 0.00511920
v 0.10531048 0.01914282 0.00630480
v 0.10531565 0.01923703 0.00631901
v 0.10533959 0.01946473 0.00638478
v 0.10535342 0.01955116 0.00642277
f 1 5 21
f 21 5 25
f 15 16 17
f 43 41 44
f 19 17 20
f 18 10 19
f 20 18 19
f 38 37 36
f 2 1 21
f 32 27 25
f 44 40 39
f 39 43 44
f 41 43 42
f 31 41 42
f 22 2 21
f 27 23 22
f 34 39 38
f 27 43 34
f 43 39 34
f 34 23 27
f 29 23 34
f 15 17 14
f 17 19 14
f 7 8 11
f 11 8 9
f 11 12 13
f 13 14 11
f 5 1 11
f 44 41 18
f 20 44 18
f 17 44 20
f 17 40 44
f 31 25 10
f 10 25 5
f 10 18 41
f 10 41 31
f 15 38 39
f 39 16 15
f 40 17 39
f 39 17 16
f 42 43 27
f 27 32 42
f 42 25 31
f 42 32 25
f 9 8 30
f 30 8 29
f 3 23 24
f 3 24 4
f 23 3 22
f 22 3 2
f 25 27 22
f 21 25 22
f 24 26 6
f 4 24 6
f 6 3 4
f 2 3 6
f 29 8 28
f 28 8 7
f 28 6 26
f 7 6 28
f 28 23 29
f 28 26 24
f 24 23 28
f 38 36 34
f 34 36 35
f 34 30 29
f 34 33 30
f 35 13 34
f 13 12 34
f 34 12 33
f 14 38 15
f 14 37 38
f 14 13 35
f 35 36 14
f 14 36 37
f 11 19 10
f 11 14 19
f 11 10 5
f 1 2 11
f 11 6 7
f 2 6 11
f 30 33 11
f 33 12 11
f 9 30 11

