# https://github.com/mikedh/trimesh

o head_frame_camera_fastened_carrier_292.obj
v 0.08782944 0.02230000 -0.00201090
v 0.08835314 0.02289394 -0.00760017
v 0.08850000 0.01950000 -0.00950000
v 0.09079311 0.02650000 -0.00728131
v 0.09096550 0.01950000 -0.00708624
v 0.09096550 0.02650000 -0.00708624
v 0.09115192 0.01950000 -0.00690454
v 0.09115192 0.02650000 -0.00690454
v 0.09135132 0.01950000 -0.00673718
v 0.09135132 0.02650000 -0.00673718
v 0.09156261 0.01950000 -0.00658514
v 0.09156261 0.02650000 -0.00658514
v 0.09167361 0.01950000 -0.00651718
v 0.09178461 0.01950000 -0.00644922
v 0.09178461 0.02650000 -0.00644922
v 0.09201610 0.01950000 -0.00633014
v 0.09201610 0.02650000 -0.00633014
v 0.09213595 0.01950000 -0.00627939
v 0.09225580 0.01950000 -0.00622864
v 0.09225580 0.02650000 -0.00622864
v 0.09237910 0.01950000 -0.00618692
v 0.09241747 0.02650000 -0.01012500
v 0.09246721 0.02650000 -0.01020416
v 0.09250240 0.01950000 -0.00614520
v 0.09250240 0.02650000 -0.00614520
v 0.09252271 0.02650000 -0.01027936
v 0.09258368 0.02650000 -0.01035022
v 0.09264978 0.02650000 -0.01041632
v 0.09272064 0.02650000 -0.01047729
v 0.09275450 0.01950000 -0.00608032
v 0.09275450 0.02650000 -0.00608032
v 0.09275825 0.01950000 -0.01050504
v 0.09277078 0.02416667 -0.01051428
v 0.09301073 0.01950000 -0.00603436
v 0.09301073 0.02650000 -0.00603436
v 0.09326967 0.01950000 -0.00600757
v 0.09326967 0.02650000 -0.00600757
v 0.09352988 0.01950000 -0.00600012
v 0.09352988 0.02650000 -0.00600012
v 0.09365990 0.01950000 -0.00600607
v 0.09378992 0.01950000 -0.00601202
v 0.09378992 0.02650000 -0.00601202
v 0.09391914 0.01950000 -0.00602762
v 0.09395668 0.02650000 -0.00833643
v 0.09396221 0.02416667 -0.00603282
v 0.09399952 0.01950000 -0.00835510
v 0.09399952 0.02300000 -0.00835510
v 0.09401380 0.02183333 -0.00836133
v 0.09404836 0.01950000 -0.00604321
f 1 4 2
f 2 3 1
f 22 2 4
f 3 2 27
f 33 32 3
f 3 29 33
f 33 48 32
f 1 3 5
f 5 7 1
f 9 11 1
f 1 7 9
f 28 29 3
f 3 27 28
f 2 22 23
f 46 48 49
f 32 48 46
f 44 33 29
f 6 4 1
f 12 10 1
f 37 35 1
f 1 30 34
f 34 36 1
f 14 16 1
f 24 30 1
f 26 27 2
f 2 23 26
f 49 44 45
f 1 49 45
f 45 44 42
f 45 42 1
f 48 33 47
f 33 44 47
f 1 10 8
f 8 6 1
f 1 17 15
f 15 12 1
f 1 42 39
f 39 37 1
f 20 17 1
f 1 25 20
f 1 35 31
f 31 25 1
f 43 49 1
f 1 41 43
f 1 36 38
f 1 11 13
f 13 14 1
f 40 41 1
f 1 38 40
f 1 16 18
f 18 19 1
f 21 24 1
f 1 19 21
f 47 44 49
f 49 48 47
f 31 23 22
f 31 8 10
f 31 44 29
f 31 22 4
f 29 28 31
f 4 6 31
f 31 15 17
f 31 28 27
f 31 39 42
f 42 44 31
f 27 26 31
f 10 12 31
f 35 37 31
f 17 20 31
f 31 26 23
f 6 8 31
f 12 15 31
f 37 39 31
f 31 20 25
f 21 34 30
f 11 9 21
f 3 32 21
f 21 46 49
f 21 5 3
f 30 24 21
f 21 38 36
f 7 5 21
f 21 9 7
f 32 46 21
f 49 43 21
f 36 34 21
f 16 14 21
f 21 13 11
f 21 43 41
f 41 40 21
f 14 13 21
f 21 18 16
f 21 40 38
f 19 18 21

