# https://github.com/mikedh/trimesh

o head_frame_camera_fastened_carrier_200.obj
v 0.06352494 -0.02825000 0.03468308
v 0.06376636 -0.02825000 0.03076321
v 0.06403247 -0.03000000 0.03062762
v 0.06410776 -0.03058333 0.03060126
v 0.06410776 -0.03058333 0.03363275
v 0.06426097 -0.03113497 0.03055713
v 0.06442723 -0.02825000 0.03488579
v 0.06447024 -0.02825000 0.02994914
v 0.06484750 -0.02825000 0.02952618
v 0.06485568 -0.03175000 0.03370213
v 0.06490039 -0.02825000 0.02949823
v 0.06495523 -0.02825000 0.02947430
v 0.06501170 -0.02825000 0.02945453
v 0.06506948 -0.02825000 0.02943906
v 0.06508862 -0.02825000 0.03058807
v 0.06512827 -0.02825000 0.02942792
v 0.06518771 -0.02825000 0.02942123
v 0.06554710 -0.02825000 0.03474595
v 0.06586944 -0.02825000 0.02962539
v 0.06640188 -0.02825000 0.03422516
v 0.06643129 -0.02825000 0.02999352
v 0.06676580 -0.02825000 0.03390973
v 0.06749675 -0.03015000 0.03493193
v 0.06773890 -0.02981897 0.02955200
v 0.06863853 -0.02825000 0.03155743
v 0.06876310 -0.03055588 0.03251898
f 1 10 23
f 23 10 26
f 26 25 23
f 26 10 6
f 17 15 19
f 5 10 1
f 5 6 10
f 1 15 2
f 17 19 24
f 26 6 24
f 19 21 24
f 24 21 25
f 24 25 26
f 22 23 25
f 22 20 23
f 18 20 15
f 23 20 18
f 1 23 7
f 23 18 7
f 7 15 1
f 7 18 15
f 4 9 6
f 1 2 4
f 4 5 1
f 6 5 4
f 17 24 16
f 16 24 6
f 6 9 11
f 9 4 8
f 6 13 14
f 14 16 6
f 12 13 6
f 6 11 12
f 2 8 3
f 3 4 2
f 3 8 4
f 21 19 15
f 21 15 25
f 25 15 22
f 15 20 22
f 15 9 8
f 8 2 15
f 12 9 15
f 12 15 17
f 17 16 12
f 12 11 9
f 12 14 13
f 16 14 12

