# https://github.com/mikedh/trimesh

o head_frame_camera_fastened_carrier_285.obj
v 0.08835022 0.01950000 -0.02330609
v 0.08847729 0.01950000 -0.02500177
v 0.08911075 0.01950000 -0.02570104
v 0.08931370 0.01950000 -0.02122137
v 0.08952160 0.01950000 -0.02579277
v 0.08969548 0.02043023 -0.02147546
v 0.09035481 0.01950000 -0.02219448
v 0.09053108 0.01950000 -0.02247241
v 0.09065340 0.01950000 -0.02270386
v 0.09070573 0.01950000 -0.02562106
v 0.09075806 0.01950000 -0.02550110
v 0.09084450 0.01950000 -0.02525409
v 0.09087250 0.01950000 -0.02326273
v 0.09091225 0.01950000 -0.02500128
v 0.09096091 0.01950000 -0.02474408
v 0.09096091 0.01950000 -0.02370081
v 0.09098004 0.02016667 -0.02457603
v 0.09099022 0.01950000 -0.02396088
v 0.09099022 0.01950000 -0.02448401
v 0.09099470 0.02083333 -0.02440222
v 0.09100002 0.01950000 -0.02422392
f 1 4 6
f 2 4 1
f 2 3 4
f 20 3 2
f 1 6 2
f 2 6 20
f 5 3 20
f 20 10 5
f 4 3 5
f 5 10 4
f 19 20 21
f 19 17 20
f 7 6 4
f 7 8 6
f 20 17 14
f 12 14 4
f 20 14 12
f 15 19 4
f 4 14 15
f 17 19 15
f 15 14 17
f 4 13 9
f 9 7 4
f 8 7 9
f 9 13 20
f 20 6 9
f 6 8 9
f 4 19 18
f 18 19 21
f 21 20 18
f 4 10 11
f 11 12 4
f 11 10 20
f 20 12 11
f 16 13 4
f 4 18 16
f 20 13 16
f 16 18 20

