# https://github.com/mikedh/trimesh

o head_frame_camera_fastened_carrier_328.obj
v 0.09716492 -0.02502500 -0.02210905
v 0.09791636 -0.02502500 -0.02055802
v 0.09799449 -0.02502500 -0.02450000
v 0.10259552 -0.02502500 -0.01961957
v 0.10339851 -0.02502500 -0.02120652
v 0.10500000 -0.02502500 -0.02450000
v 0.09716492 -0.02497500 -0.02210905
v 0.09791636 -0.02497500 -0.02055802
v 0.09799449 -0.02497500 -0.02450000
v 0.10259552 -0.02497500 -0.01961957
v 0.10339851 -0.02497500 -0.02120652
v 0.10500000 -0.02497500 -0.02450000
f 5 2 1
f 1 3 5
f 5 3 6
f 4 2 5
f 6 12 5
f 5 12 11
f 4 5 10
f 10 5 11
f 9 3 1
f 1 7 9
f 6 3 9
f 9 12 6
f 11 12 8
f 8 9 7
f 8 10 11
f 12 9 8
f 1 2 8
f 8 7 1
f 8 2 4
f 4 10 8

