# https://github.com/mikedh/trimesh

o head_frame_camera_fastened_carrier_399.obj
v 0.10736240 -0.01765717 0.02999689
v 0.10739842 -0.01749631 0.03009589
v 0.10791082 -0.01908808 0.02273226
v 0.10791082 -0.01891192 0.02273226
v 0.10791186 -0.01926384 0.02273511
v 0.10791186 -0.01873616 0.02273511
v 0.10791393 -0.01943838 0.02274078
v 0.10791393 -0.01856162 0.02274078
v 0.10791703 -0.01961089 0.02274931
v 0.10791703 -0.01838911 0.02274931
v 0.10792115 -0.01978059 0.02276064
v 0.10792115 -0.01821941 0.02276064
v 0.10792627 -0.01994668 0.02277470
v 0.10792627 -0.01805332 0.02277470
v 0.10891973 -0.01712017 0.02988993
v 0.10968897 -0.01695522 0.02981055
v 0.11012210 -0.02000000 0.02880768
v 0.11046426 -0.01681047 0.02974778
v 0.11146324 -0.01900000 0.02810675
v 0.11146449 -0.01909715 0.02811017
v 0.11146449 -0.01890285 0.02811017
v 0.11146573 -0.01919430 0.02811359
v 0.11146573 -0.01880570 0.02811359
v 0.11146945 -0.01929090 0.02812381
v 0.11146945 -0.01870910 0.02812381
v 0.11147318 -0.01938751 0.02813403
v 0.11147318 -0.01861249 0.02813403
v 0.11148553 -0.01957855 0.02816797
v 0.11148553 -0.01842145 0.02816797
v 0.11150275 -0.01976636 0.02821527
v 0.11150275 -0.01823364 0.02821527
v 0.11152470 -0.01994989 0.02827563
v 0.11152470 -0.01805011 0.02827563
v 0.11155130 -0.02012810 0.02834869
v 0.11155130 -0.01787190 0.02834869
v 0.11158237 -0.02030000 0.02843408
v 0.11158237 -0.01770000 0.02843408
v 0.11161775 -0.01753537 0.02853125
v 0.11163750 -0.01745715 0.02858551
v 0.11165724 -0.01737893 0.02863977
v 0.11167893 -0.01730524 0.02869934
v 0.11170062 -0.01723155 0.02875891
v 0.11172413 -0.01716281 0.02882352
v 0.11174763 -0.01709406 0.02888812
v 0.11178828 -0.01940718 0.02899976
v 0.11179805 -0.01696724 0.02902661
v 0.11182480 -0.01690951 0.02910013
v 0.11183659 -0.02031122 0.02913251
v 0.11185155 -0.01685178 0.02917365
v 0.11187971 -0.01680006 0.02925098
v 0.11190787 -0.01674833 0.02932831
v 0.11193726 -0.01670291 0.02940909
v 0.11203610 -0.01722835 0.02968064
v 0.11209103 -0.01923580 0.02983154
v 0.11209103 -0.01876420 0.02983154
v 0.11212642 -0.01945066 0.02992877
v 0.11215192 -0.01954414 0.02999884
v 0.11215192 -0.01845586 0.02999884
f 17 57 1
f 1 57 2
f 57 58 2
f 2 14 1
f 13 17 1
f 52 14 18
f 18 53 52
f 18 2 58
f 58 53 18
f 56 58 57
f 52 53 51
f 51 53 58
f 51 14 52
f 17 13 48
f 57 17 48
f 48 56 57
f 54 56 48
f 14 2 15
f 55 51 58
f 58 56 55
f 55 56 54
f 1 7 9
f 36 48 13
f 45 48 28
f 54 48 45
f 2 18 16
f 16 15 2
f 16 18 14
f 14 15 16
f 51 55 42
f 42 41 14
f 38 31 35
f 11 13 1
f 1 9 11
f 14 35 33
f 33 31 14
f 35 31 33
f 10 23 8
f 10 8 1
f 14 27 25
f 25 23 14
f 29 42 55
f 29 45 28
f 29 38 42
f 28 19 29
f 29 19 27
f 29 27 14
f 51 42 46
f 37 35 14
f 14 38 37
f 37 38 35
f 14 41 40
f 30 13 28
f 30 32 13
f 28 48 30
f 34 36 13
f 13 32 34
f 32 30 34
f 48 36 34
f 34 30 48
f 14 23 12
f 23 10 12
f 1 14 12
f 12 10 1
f 4 19 3
f 4 3 1
f 3 19 5
f 5 19 7
f 1 3 5
f 5 7 1
f 22 9 7
f 22 11 9
f 13 11 22
f 23 25 21
f 8 23 21
f 21 19 8
f 14 46 44
f 39 40 41
f 39 38 14
f 14 40 39
f 8 19 6
f 19 4 6
f 1 8 6
f 6 4 1
f 28 13 26
f 26 19 28
f 47 46 14
f 14 49 47
f 43 46 42
f 43 44 46
f 43 42 14
f 14 44 43
f 13 22 24
f 24 26 13
f 50 47 49
f 14 51 50
f 50 49 14
f 20 24 22
f 7 19 20
f 20 22 7
f 31 38 29
f 14 31 29
f 54 45 29
f 29 55 54
f 27 19 21
f 21 25 27
f 42 38 39
f 41 42 39
f 46 47 50
f 51 46 50
f 26 24 20
f 19 26 20

