# https://github.com/mikedh/trimesh

o head_frame_camera_fastened_carrier_296.obj
v 0.08827936 0.02650000 -0.02324512
v 0.08829754 0.02593478 -0.02079396
v 0.08847729 0.02650000 -0.02500177
v 0.08901355 0.02550000 -0.02106659
v 0.08920009 0.02650000 -0.02559812
v 0.08927323 0.02650000 -0.02119755
v 0.08970184 0.02650000 -0.02586682
v 0.09006569 0.02650000 -0.02184180
v 0.09023640 0.02650000 -0.02204022
v 0.09039183 0.02650000 -0.02225079
v 0.09060601 0.02550000 -0.01998234
v 0.09065340 0.02650000 -0.02574103
v 0.09075806 0.02650000 -0.02550110
v 0.09084450 0.02364649 -0.02525409
v 0.09084450 0.02650000 -0.02525409
v 0.09091225 0.02650000 -0.02500128
v 0.09091225 0.02650000 -0.02344360
v 0.09096091 0.02650000 -0.02474408
v 0.09098193 0.02650000 -0.02384646
v 0.09099022 0.02650000 -0.02448401
v 0.09100000 0.02650000 -0.02422241
v 0.09180110 0.02416667 -0.02055802
v 0.09393340 0.02416667 -0.02079828
v 0.09399759 0.02550000 -0.02075092
v 0.09412510 0.02550000 -0.02191148
f 25 14 12
f 2 6 1
f 11 6 2
f 23 14 25
f 3 2 1
f 14 2 3
f 1 6 3
f 24 6 11
f 24 23 25
f 11 23 24
f 7 12 14
f 7 6 12
f 4 2 14
f 22 23 11
f 14 23 22
f 11 2 22
f 2 4 22
f 22 4 14
f 14 3 5
f 5 7 14
f 5 3 6
f 6 7 5
f 10 17 6
f 24 17 10
f 6 24 8
f 19 24 25
f 19 17 24
f 6 17 19
f 24 10 9
f 9 8 24
f 9 10 6
f 6 8 9
f 15 16 25
f 6 16 15
f 18 20 25
f 25 16 18
f 18 16 6
f 6 19 18
f 18 19 20
f 25 20 21
f 21 19 25
f 20 19 21
f 25 12 13
f 13 15 25
f 12 6 13
f 6 15 13

