# https://github.com/mikedh/trimesh

o head_roll_horn_adapter_033.obj
v 0.01554760 -0.00094593 -0.00543873
v 0.01586163 -0.00094593 -0.00543919
v 0.01586163 -0.00015397 -0.00708913
v 0.01554760 -0.00015397 -0.00708913
v 0.01554760 -0.00498950 -0.00543919
v 0.01586163 -0.00498950 -0.00543919
v 0.01586163 -0.00015397 -0.01009502
v 0.01554760 -0.00015397 -0.01009502
v 0.01554760 -0.00498950 -0.00801072
v 0.01586163 -0.00498950 -0.00801072
v 0.01586163 -0.00400488 -0.01009502
v 0.01554760 -0.00400488 -0.01009502
f 1 2 3
f 1 3 4
f 1 4 8
f 1 8 12
f 1 12 9
f 1 9 5
f 1 5 6
f 1 6 2
f 2 6 10
f 2 10 11
f 2 11 7
f 2 7 3
f 3 7 8
f 3 8 4
f 5 9 10
f 5 10 6
f 7 11 12
f 7 12 8
f 9 12 11
f 9 11 10

