# https://github.com/mikedh/trimesh

o head_frame_camera_fastened_carrier_286.obj
v 0.08858455 0.01949997 -0.01235848
v 0.09079311 0.01950000 -0.01171869
v 0.09087930 0.01950000 -0.01181622
v 0.09096550 0.01950000 -0.01191376
v 0.09100582 0.01950000 -0.00959322
v 0.09115192 0.01950000 -0.01209546
v 0.09135132 0.01950000 -0.01226282
v 0.09156261 0.01950000 -0.01241486
v 0.09167361 0.01950000 -0.01248282
v 0.09178461 0.01950000 -0.01255078
v 0.09201610 0.01950000 -0.01266986
v 0.09213595 0.01950000 -0.01272061
v 0.09225580 0.01950000 -0.01277136
v 0.09226396 0.01950000 -0.00968628
v 0.09250240 0.01950000 -0.01285480
v 0.09275450 0.01950000 -0.01291968
v 0.09301073 0.01950000 -0.01296564
v 0.09326967 0.01950000 -0.01299243
v 0.09339977 0.01950000 -0.01299615
v 0.09352988 0.01950000 -0.01299988
v 0.09365990 0.01950000 -0.01299393
v 0.09378992 0.01950000 -0.01298798
v 0.09391256 0.01950000 -0.01067902
v 0.09391914 0.01950000 -0.01297238
v 0.09404836 0.01950000 -0.01295679
v 0.09416910 0.01950000 -0.01158215
f 5 2 1
f 1 26 23
f 25 26 1
f 14 5 1
f 1 23 14
f 1 20 21
f 21 22 1
f 24 25 1
f 1 22 24
f 1 7 8
f 15 16 1
f 1 2 3
f 3 4 1
f 6 7 1
f 1 4 6
f 10 11 1
f 19 20 1
f 1 18 19
f 1 16 17
f 17 18 1
f 13 15 1
f 1 8 9
f 9 10 1
f 1 11 12
f 12 13 1
f 2 5 12
f 12 23 26
f 26 25 12
f 7 6 12
f 5 14 12
f 25 24 12
f 12 14 23
f 12 21 20
f 12 17 16
f 11 10 12
f 22 21 12
f 12 24 22
f 12 3 2
f 12 8 7
f 20 19 12
f 16 15 12
f 4 3 12
f 12 6 4
f 12 9 8
f 12 19 18
f 18 17 12
f 15 13 12
f 10 9 12

