# https://github.com/mikedh/trimesh

o head_integral_print_shell_216.obj
v 0.11357936 -0.01613938 0.03245883
v 0.11368090 -0.01952222 0.03273780
v 0.11371459 -0.01928253 0.03283038
v 0.11374545 -0.01790984 0.03057612
v 0.11375072 -0.01955116 0.03117536
v 0.11375755 -0.01557440 0.03060935
v 0.11377762 -0.01599839 0.03300353
v 0.11380685 -0.01998810 0.03074481
v 0.11390497 -0.01978333 0.03335342
v 0.11390923 -0.01780593 0.02985657
v 0.11393147 -0.01575434 0.03342624
v 0.11395058 -0.01612947 0.02997018
v 0.11402565 -0.01520777 0.03017644
v 0.11404256 -0.01527753 0.03022289
v 0.11413119 -0.01792331 0.03046639
v 0.11417248 -0.01491078 0.03408841
v 0.11417373 -0.02000597 0.03058327
v 0.11428467 -0.01791487 0.03439664
v 0.11428951 -0.01967411 0.03090139
v 0.11448813 -0.01725604 0.03144708
v 0.11457750 -0.02051894 0.03520119
v 0.11461154 -0.01553352 0.03529471
v 0.11468636 -0.02018050 0.03550030
v 0.11503535 -0.02105542 0.03295057
v 0.11507129 -0.02095453 0.03304930
v 0.11532275 -0.01475317 0.03374020
v 0.11577545 -0.02057148 0.03498396
v 0.11577626 -0.02054774 0.03498619
v 0.11611417 -0.01890125 0.03591458
v 0.11611564 -0.01552860 0.03591862
f 22 23 30
f 30 23 29
f 23 22 18
f 27 29 23
f 24 27 21
f 21 27 23
f 21 8 24
f 23 18 21
f 10 6 12
f 12 6 13
f 28 27 24
f 30 29 28
f 29 27 28
f 5 2 1
f 5 8 2
f 24 8 17
f 17 8 10
f 2 8 9
f 8 21 9
f 30 26 16
f 16 22 30
f 16 26 13
f 13 6 16
f 16 6 1
f 8 5 4
f 4 6 10
f 10 8 4
f 1 6 4
f 4 5 1
f 2 9 3
f 22 16 11
f 11 18 22
f 7 3 11
f 24 17 25
f 25 28 24
f 10 12 14
f 14 12 13
f 13 26 14
f 20 19 15
f 15 14 20
f 19 20 30
f 30 28 19
f 1 2 3
f 3 7 1
f 1 7 11
f 11 16 1
f 11 9 21
f 11 21 18
f 11 3 9
f 25 19 28
f 17 19 25
f 30 20 14
f 14 26 30
f 15 19 17
f 15 17 10
f 10 14 15

