# https://github.com/mikedh/trimesh

o head_frame_camera_fastened_carrier_224.obj
v 0.06899225 0.02611112 0.00175362
v 0.07422506 0.02190297 -0.00088535
v 0.07553436 0.01950000 0.00451074
v 0.07553436 0.02650000 0.00451074
v 0.07558032 0.01950000 0.00425452
v 0.07558032 0.02650000 0.00425452
v 0.07564519 0.01950000 0.00400238
v 0.07564519 0.02650000 0.00400238
v 0.07572861 0.01950000 0.00375580
v 0.07572861 0.02650000 0.00375580
v 0.07583014 0.01950000 0.00351611
v 0.07583014 0.02650000 0.00351611
v 0.07594919 0.01950000 0.00328461
v 0.07594919 0.02650000 0.00328461
v 0.07608513 0.01950000 0.00306262
v 0.07608513 0.02650000 0.00306262
v 0.07623718 0.01950000 0.00285132
v 0.07623718 0.02650000 0.00285132
v 0.07640453 0.01950000 0.00265192
v 0.07658623 0.01950000 0.00246552
v 0.07784887 0.02183333 0.00451477
v 0.07785510 0.01950000 0.00450049
v 0.07787379 0.02650000 0.00445764
v 0.07856383 0.02650000 -0.00001001
v 0.07900000 0.01950000 0.00000000
v 0.07900000 0.01950000 0.00375000
v 0.07900000 0.02650000 0.00375000
v 0.08091214 0.02419231 -0.00010398
f 1 3 4
f 24 2 1
f 28 2 24
f 28 24 27
f 27 26 28
f 25 2 28
f 28 26 25
f 18 24 1
f 1 16 18
f 21 4 3
f 26 27 21
f 8 10 1
f 14 16 1
f 4 21 23
f 23 21 27
f 22 21 3
f 26 21 22
f 19 17 2
f 1 4 6
f 6 8 1
f 1 10 12
f 12 14 1
f 2 9 7
f 2 25 20
f 20 19 2
f 5 3 1
f 1 2 5
f 2 7 5
f 2 17 15
f 15 13 2
f 11 9 2
f 2 13 11
f 24 18 12
f 16 14 12
f 12 27 24
f 4 23 12
f 12 18 16
f 10 8 12
f 12 6 4
f 12 23 27
f 8 6 12
f 11 25 26
f 11 22 3
f 3 5 11
f 26 22 11
f 11 20 25
f 17 19 11
f 11 7 9
f 11 15 17
f 19 20 11
f 11 5 7
f 13 15 11

