# https://github.com/mikedh/trimesh

o head_integral_print_shell_003.obj
v 0.01975000 -0.03373658 -0.00570704
v 0.01975000 -0.03489083 -0.00401214
v 0.01975000 -0.03451768 -0.00460053
v 0.01975001 -0.03411411 -0.00519055
v 0.02013525 -0.03682172 -0.00533110
v 0.02023709 -0.03389248 -0.00563981
v 0.02100262 -0.03446538 -0.00625988
v 0.02180469 -0.03512093 -0.00435096
v 0.02212383 -0.03509524 -0.00449362
v 0.02232072 -0.03494176 -0.00598740
v 0.02236026 -0.03494851 -0.00479568
f 11 5 10
f 1 2 9
f 9 5 11
f 3 2 1
f 5 2 3
f 11 10 6
f 1 9 6
f 6 9 11
f 7 5 1
f 7 10 5
f 1 6 7
f 7 6 10
f 8 2 5
f 5 9 8
f 8 9 2
f 1 5 4
f 4 3 1
f 5 3 4

