# https://github.com/mikedh/trimesh

o head_frame_camera_fastened_carrier_325.obj
v 0.08990871 0.02550000 -0.01450000
v 0.09402782 0.02416667 -0.01827509
v 0.09411648 0.02416667 -0.01835531
v 0.09419890 0.02416667 -0.01844198
v 0.09425093 0.02550000 -0.02049756
v 0.09429829 0.02416667 -0.02043339
v 0.09429829 0.02416667 -0.01856661
v 0.09434320 0.02416667 -0.02036753
v 0.09434320 0.02416667 -0.01863247
v 0.09440427 0.02416667 -0.02026473
v 0.09440427 0.02416667 -0.01873527
v 0.09445749 0.02416667 -0.01884235
v 0.09447344 0.02416667 -0.02012109
v 0.09450257 0.02416667 -0.02004690
v 0.09450257 0.02416667 -0.01895310
v 0.09453924 0.02416667 -0.01906691
v 0.09454957 0.02416667 -0.01989455
v 0.09456730 0.02416667 -0.01918317
v 0.09457471 0.02416667 -0.01977765
v 0.09458659 0.02416667 -0.01969883
v 0.09458659 0.02416667 -0.01930117
v 0.09459702 0.02416667 -0.01942029
v 0.09459851 0.02416667 -0.01953986
v 0.09786832 0.02550000 -0.01610903
v 0.09974907 0.02550000 -0.02049756
v 0.10041545 0.02550000 -0.01801062
f 1 2 24
f 24 2 26
f 1 5 6
f 6 2 1
f 5 25 6
f 17 25 26
f 26 2 3
f 3 4 26
f 26 4 7
f 18 21 26
f 26 16 18
f 26 11 12
f 26 21 22
f 22 23 26
f 26 23 20
f 25 13 10
f 25 17 14
f 14 13 25
f 9 11 26
f 26 7 9
f 15 16 26
f 26 12 15
f 19 17 26
f 26 20 19
f 8 6 25
f 25 10 8
f 24 5 1
f 26 25 24
f 24 25 5
f 8 12 11
f 2 6 8
f 16 15 8
f 8 14 17
f 8 3 2
f 21 18 8
f 8 22 21
f 17 19 8
f 4 3 8
f 8 7 4
f 8 18 16
f 11 9 8
f 23 22 8
f 8 20 23
f 8 10 13
f 13 14 8
f 8 9 7
f 8 15 12
f 8 19 20

