# https://github.com/mikedh/trimesh

o head_frame_camera_fastened_carrier_290.obj
v 0.08650709 0.02025319 -0.01757127
v 0.08877661 0.02061111 -0.02096348
v 0.08901355 0.02150000 -0.02106659
v 0.08933470 0.01950004 -0.01566155
v 0.08990871 0.02150000 -0.01450000
v 0.09071827 0.02150000 -0.02079146
v 0.09139999 0.02550000 -0.01950000
v 0.09140448 0.02550000 -0.01961957
v 0.09140448 0.02550000 -0.01938043
v 0.09141788 0.02550000 -0.01973846
v 0.09141788 0.02550000 -0.01926154
v 0.09144011 0.02550000 -0.01985602
v 0.09144011 0.02550000 -0.01914398
v 0.09147108 0.02550000 -0.01997162
v 0.09147108 0.02550000 -0.01902838
v 0.09151060 0.02550000 -0.02008453
v 0.09151060 0.02550000 -0.01891547
v 0.09155846 0.02550000 -0.02019421
v 0.09155846 0.02550000 -0.01880579
v 0.09161436 0.02550000 -0.02029999
v 0.09161436 0.02550000 -0.01870001
v 0.09167802 0.02550000 -0.02040131
v 0.09167802 0.02550000 -0.01859869
v 0.09174907 0.02150000 -0.02049756
v 0.09174907 0.02550000 -0.02049756
v 0.09174907 0.02550000 -0.01850244
v 0.09182712 0.02550000 -0.01841174
v 0.09191173 0.02550000 -0.01832709
v 0.09200241 0.02550000 -0.01824908
v 0.09209869 0.02550000 -0.01817804
v 0.09220000 0.02550000 -0.01811438
v 0.09230579 0.02550000 -0.01805847
v 0.09241545 0.02550000 -0.01801062
v 0.09252840 0.02550000 -0.01797107
v 0.09264397 0.02550000 -0.01794012
v 0.09276154 0.02550000 -0.01791785
v 0.09288043 0.02550000 -0.01790448
v 0.09300000 0.02550000 -0.01790002
v 0.09311957 0.02550000 -0.01790448
v 0.09323846 0.02550000 -0.01791785
v 0.09335603 0.02550000 -0.01794012
v 0.09347160 0.02550000 -0.01797107
v 0.09358455 0.02550000 -0.01801062
v 0.09369421 0.02550000 -0.01805847
v 0.09380000 0.02550000 -0.01811438
v 0.09390131 0.02550000 -0.01817804
v 0.09399759 0.02550000 -0.01824908
v 0.09687665 0.02150000 -0.01685636
f 4 5 1
f 48 5 4
f 1 2 4
f 4 2 48
f 1 5 23
f 42 5 48
f 48 2 24
f 24 25 48
f 48 25 47
f 3 2 1
f 9 7 1
f 1 11 9
f 1 15 13
f 13 11 1
f 1 23 21
f 21 19 1
f 17 15 1
f 1 19 17
f 25 24 6
f 6 3 25
f 6 24 2
f 2 3 6
f 18 3 1
f 1 7 8
f 8 10 1
f 12 14 1
f 1 10 12
f 48 45 44
f 48 47 46
f 46 45 48
f 25 3 22
f 1 14 16
f 16 18 1
f 26 23 5
f 5 27 26
f 5 29 28
f 28 27 5
f 32 31 5
f 30 29 5
f 5 31 30
f 5 42 41
f 41 40 5
f 39 38 5
f 5 40 39
f 35 34 5
f 5 36 35
f 5 38 37
f 37 36 5
f 43 42 48
f 48 44 43
f 3 18 20
f 20 22 3
f 5 34 33
f 33 32 5
f 33 47 25
f 33 13 15
f 33 46 47
f 15 17 33
f 38 39 33
f 7 9 33
f 33 21 23
f 14 12 33
f 33 28 29
f 33 8 7
f 33 9 11
f 11 13 33
f 19 21 33
f 33 17 19
f 33 16 14
f 29 30 33
f 33 37 38
f 25 22 33
f 10 8 33
f 33 12 10
f 23 26 33
f 33 20 18
f 33 41 42
f 34 35 33
f 33 44 45
f 45 46 33
f 42 43 33
f 18 16 33
f 33 26 27
f 27 28 33
f 31 32 33
f 33 30 31
f 40 41 33
f 33 39 40
f 33 35 36
f 36 37 33
f 33 43 44
f 22 20 33

