# https://github.com/mikedh/trimesh

o head_frame_camera_fastened_carrier_151.obj
v 0.04862653 0.02681098 -0.00550358
v 0.04877412 0.02925000 -0.00709973
v 0.04882561 0.02525000 -0.00987054
v 0.04882561 0.02925000 -0.00987054
v 0.04883707 0.02925000 -0.00636958
v 0.04887660 0.02525000 -0.00716150
v 0.04892894 0.02525000 -0.01086369
v 0.04923301 0.02525000 -0.00647546
v 0.04935866 0.02925000 -0.01060096
v 0.04939035 0.02925000 -0.00628275
v 0.04996733 0.02925000 -0.01141132
v 0.05011407 0.02525000 -0.00743578
v 0.05029523 0.02925000 -0.00769312
v 0.05047573 0.02525000 -0.00799480
v 0.05053786 0.02925000 -0.00860206
v 0.05057070 0.02525000 -0.01101625
v 0.05077145 0.02925000 -0.01067126
v 0.05137714 0.02525000 -0.00942819
v 0.05157458 0.02741559 -0.00643607
f 11 16 7
f 8 19 1
f 6 8 1
f 1 19 10
f 10 5 1
f 1 5 2
f 1 2 4
f 16 18 14
f 14 18 19
f 3 6 1
f 1 4 3
f 3 4 7
f 19 15 13
f 13 10 19
f 11 7 9
f 7 4 9
f 19 8 12
f 12 14 19
f 5 10 17
f 17 15 19
f 19 18 17
f 17 16 11
f 17 18 16
f 16 14 12
f 12 7 16
f 8 6 12
f 12 3 7
f 6 3 12
f 17 4 2
f 17 2 5
f 17 9 4
f 11 9 17
f 10 13 17
f 17 13 15

