# https://github.com/mikedh/trimesh

o head_integral_print_shell_222.obj
v 0.11340284 -0.00645696 0.02846528
v 0.11340897 -0.00632898 0.02848213
v 0.11352099 -0.01185042 0.03229847
v 0.11360373 -0.00590091 0.03252579
v 0.11384724 -0.00826157 0.02968625
v 0.11389245 -0.00811302 0.02981048
v 0.11395978 0.00000000 0.02999547
v 0.11476489 -0.01188433 0.03220749
v 0.11485009 -0.01194492 0.03244156
v 0.11496648 -0.00808324 0.03626990
v 0.11507086 -0.01227106 0.03304813
v 0.11507086 0.00002540 0.03304813
v 0.11514878 -0.01246468 0.03326220
v 0.11514878 0.00000000 0.03326220
v 0.11600325 -0.00566667 0.03560984
f 10 13 15
f 13 10 3
f 14 10 15
f 1 3 4
f 4 3 10
f 10 14 4
f 1 4 2
f 1 2 5
f 5 3 1
f 7 2 4
f 3 5 8
f 13 3 8
f 9 8 5
f 15 13 11
f 6 5 2
f 2 7 6
f 6 9 5
f 12 14 15
f 9 6 12
f 12 6 7
f 12 4 14
f 12 7 4
f 13 8 11
f 8 9 11
f 15 11 12
f 12 11 9

