# https://github.com/mikedh/trimesh

o head_integral_print_shell_129.obj
v 0.10365857 0.01200161 0.00520168
v 0.10391519 0.01185042 0.00590674
v 0.10435491 0.01224566 0.00711485
v 0.10460403 0.00000000 0.00779932
v 0.10468136 0.01215246 0.00450321
v 0.10469407 0.00002113 0.00453813
v 0.10469407 0.01213133 0.00453813
v 0.10470678 0.00000000 0.00457305
v 0.10510786 0.00623067 0.00918357
v 0.10523908 0.00953641 0.00954411
v 0.10543352 0.01215246 0.00656976
v 0.10548254 0.01224566 0.00670443
v 0.10555921 0.00407669 0.01042365
v 0.10556669 0.00786117 0.01044421
v 0.10562986 0.00472810 0.01061776
v 0.10566941 0.00815638 0.01072643
v 0.10573166 0.00000000 0.00738890
v 0.10590082 0.00605657 0.01136222
v 0.10626558 0.00927751 0.00885583
v 0.10636672 0.00953641 0.00913369
v 0.10668684 0.00407669 0.01001323
v 0.10669844 0.00423992 0.01004510
v 0.10679705 0.00815638 0.01031601
v 0.10711566 0.00638569 0.01119138
v 0.10720917 0.00670901 0.01144832
f 6 4 1
f 1 5 6
f 25 18 13
f 4 17 13
f 4 6 8
f 8 17 4
f 4 13 15
f 15 13 18
f 25 13 21
f 21 13 17
f 1 4 2
f 16 18 25
f 10 16 20
f 23 16 25
f 23 20 16
f 12 20 23
f 25 24 23
f 23 24 19
f 3 16 10
f 1 2 3
f 3 5 1
f 3 20 12
f 10 20 3
f 3 12 5
f 22 21 17
f 12 23 11
f 11 23 19
f 18 16 14
f 16 3 14
f 5 12 7
f 12 11 7
f 7 6 5
f 15 9 4
f 18 9 15
f 4 9 3
f 3 2 4
f 22 24 25
f 25 21 22
f 17 8 22
f 22 8 6
f 6 24 22
f 14 9 18
f 14 3 9
f 7 24 6
f 7 11 19
f 19 24 7

