# https://github.com/mikedh/trimesh

o jaw_rear_bearing_000.obj
v 0.07643904 -0.02350000 -0.00035795
v 0.07619976 -0.02350000 -0.00042266
v 0.07643904 -0.02950000 -0.00035795
v 0.07643904 -0.02350000 -0.00643027
v 0.07619976 -0.02950000 -0.00042266
v 0.07586411 -0.02350000 -0.00053966
v 0.07597599 -0.02749961 -0.00050044
v 0.07643904 -0.02950000 -0.00643027
v 0.07585053 -0.02350000 -0.00703489
v 0.07586411 -0.02950000 -0.00053966
v 0.07552910 -0.02350000 -0.00065732
v 0.07575222 -0.02550039 -0.00057888
v 0.07585053 -0.02950000 -0.00703489
v 0.06983211 -0.02350000 -0.00703489
v 0.07552910 -0.02950000 -0.00065732
v 0.07520315 -0.02350000 -0.00079916
v 0.07531180 -0.02749961 -0.00075144
v 0.06983211 -0.02950000 -0.00703489
v 0.06992265 -0.02350000 -0.00669957
v 0.07520315 -0.02950000 -0.00079916
v 0.07487785 -0.02350000 -0.00094100
v 0.07487785 -0.02950000 -0.00094100
v 0.06992265 -0.02950000 -0.00669957
v 0.07007851 -0.02749961 -0.00625248
v 0.07015676 -0.02350000 -0.00602893
v 0.07456354 -0.02350000 -0.00110702
v 0.07466831 -0.02550039 -0.00105146
v 0.07456354 -0.02950000 -0.00110702
v 0.07015676 -0.02950000 -0.00602893
v 0.07034625 -0.02749961 -0.00559492
v 0.07044132 -0.02350000 -0.00537791
v 0.07424988 -0.02350000 -0.00127305
v 0.07424988 -0.02950000 -0.00127305
v 0.07044132 -0.02950000 -0.00537791
v 0.07060688 -0.02350000 -0.00506351
v 0.07364843 -0.02350000 -0.00165085
v 0.07364843 -0.02950000 -0.00165085
v 0.07060688 -0.02950000 -0.00506351
v 0.07077309 -0.02350000 -0.00474976
v 0.07336258 -0.02350000 -0.00186198
v 0.07345764 -0.02550039 -0.00179138
v 0.07336258 -0.02950000 -0.00186198
v 0.07077309 -0.02950000 -0.00474976
v 0.07115078 -0.02350000 -0.00414841
v 0.07307737 -0.02350000 -0.00207310
v 0.07326686 -0.02749961 -0.00193257
v 0.07307737 -0.02950000 -0.00207310
v 0.07115078 -0.02950000 -0.00414841
v 0.07143210 -0.02550039 -0.00376734
v 0.07136226 -0.02350000 -0.00386212
v 0.07280769 -0.02350000 -0.00230449
v 0.07280769 -0.02950000 -0.00230449
v 0.07136226 -0.02950000 -0.00386212
v 0.07157309 -0.02950000 -0.00357713
v 0.07157309 -0.02350000 -0.00357713
v 0.07253865 -0.02350000 -0.00253653
v 0.07253865 -0.02950000 -0.00253653
v 0.07203614 -0.02950000 -0.00303853
v 0.07188158 -0.02550039 -0.00321828
v 0.07203614 -0.02350000 -0.00303853
f 1 2 5
f 1 5 3
f 1 3 8
f 1 8 4
f 1 4 9
f 1 9 14
f 1 14 19
f 1 19 25
f 1 25 31
f 1 31 35
f 1 35 39
f 1 39 44
f 1 44 50
f 1 50 55
f 1 55 60
f 1 60 56
f 1 56 51
f 1 51 45
f 1 45 40
f 1 40 36
f 1 36 32
f 1 32 26
f 1 26 21
f 1 21 16
f 1 16 11
f 1 11 6
f 1 6 2
f 2 6 7
f 2 7 5
f 3 5 10
f 3 10 15
f 3 15 20
f 3 20 22
f 3 22 28
f 3 28 33
f 3 33 37
f 3 37 42
f 3 42 47
f 3 47 52
f 3 52 57
f 3 57 58
f 3 58 54
f 3 54 53
f 3 53 48
f 3 48 43
f 3 43 38
f 3 38 34
f 3 34 29
f 3 29 23
f 3 23 18
f 3 18 13
f 3 13 8
f 4 8 13
f 4 13 9
f 5 7 10
f 6 11 12
f 6 12 10
f 6 10 7
f 9 13 18
f 9 18 14
f 10 12 15
f 11 16 17
f 11 17 15
f 11 15 12
f 14 18 23
f 14 23 19
f 15 17 20
f 16 21 17
f 17 21 22
f 17 22 20
f 19 24 25
f 19 23 24
f 21 26 27
f 21 27 22
f 22 27 28
f 23 29 24
f 24 29 25
f 25 29 30
f 25 30 31
f 26 32 27
f 27 32 33
f 27 33 28
f 29 34 30
f 30 34 31
f 31 34 38
f 31 38 35
f 32 36 37
f 32 37 33
f 35 38 43
f 35 43 39
f 36 40 41
f 36 41 37
f 37 41 42
f 39 43 48
f 39 48 44
f 40 45 41
f 41 45 46
f 41 46 42
f 42 46 47
f 44 49 50
f 44 48 49
f 45 51 52
f 45 52 47
f 45 47 46
f 48 53 49
f 49 53 54
f 49 54 55
f 49 55 50
f 51 56 57
f 51 57 52
f 54 58 59
f 54 59 55
f 55 59 60
f 56 60 58
f 56 58 57
f 58 60 59

