# https://github.com/mikedh/trimesh

o left_ankle_pitch_rear_fork_037.obj
v -0.00550210 -0.05025867 0.01501266
v -0.00597520 -0.05025867 0.01484237
v -0.00550210 -0.05475000 0.01501266
v -0.00550210 -0.05025867 0.01152583
v -0.00686714 -0.05025867 0.01444366
v -0.00633943 -0.05291628 0.01467961
v -0.00597520 -0.05475000 0.01484237
v -0.00550210 -0.05475000 0.01152583
v -0.00700404 -0.05025867 0.01151933
v -0.00706752 -0.05025867 0.01435407
v -0.00706752 -0.05475000 0.01435407
v -0.00700404 -0.05475000 0.01151933
v -0.00734693 -0.05025867 0.01151933
v -0.00726066 -0.05025867 0.01425012
v -0.00734946 -0.05475000 0.01420225
v -0.00734946 -0.05475000 0.01151933
v -0.00734946 -0.05443478 0.01151933
v -0.00734946 -0.05025867 0.01152173
v -0.00734946 -0.05025867 0.01420225
f 1 2 7
f 1 7 3
f 1 3 8
f 1 8 4
f 1 4 9
f 1 9 13
f 1 13 18
f 1 18 19
f 1 19 14
f 1 14 10
f 1 10 5
f 1 5 2
f 2 5 6
f 2 6 7
f 3 7 11
f 3 11 15
f 3 15 16
f 3 16 12
f 3 12 8
f 4 8 12
f 4 12 9
f 5 10 6
f 6 11 7
f 6 10 11
f 9 12 16
f 9 16 17
f 9 17 13
f 10 14 11
f 11 14 15
f 13 17 18
f 14 19 15
f 15 19 18
f 15 18 17
f 15 17 16

