# https://github.com/mikedh/trimesh

o left_ankle_pitch_rear_fork_018.obj
v 0.00502851 -0.04974996 -0.00411472
v 0.00502851 -0.04925005 -0.00411472
v 0.00866289 -0.04975867 -0.00411472
v 0.00856863 -0.04975867 -0.00411248
v 0.00946410 -0.04975867 -0.00084134
v 0.00644242 -0.04974996 -0.00084134
v 0.00644242 -0.04925005 -0.00084134
v 0.01545069 -0.04925005 -0.00411472
v 0.01545069 -0.04975867 -0.00411472
v 0.01597126 -0.04975867 -0.00084134
v 0.01597126 -0.04925005 -0.00084134
v 0.01562850 -0.04925005 -0.00342416
v 0.01562850 -0.04975867 -0.00342416
v 0.01596484 -0.04975867 -0.00105668
v 0.01596484 -0.04925005 -0.00105668
v 0.01564885 -0.04975867 -0.00331520
v 0.01584058 -0.04925005 -0.00224683
v 0.01589735 -0.04975867 -0.00170687
v 0.01580202 -0.04975867 -0.00246473
v 0.01585237 -0.04975867 -0.00213659
v 0.01584058 -0.04975867 -0.00224683
f 1 2 8
f 1 8 9
f 1 9 3
f 1 3 4
f 1 4 5
f 1 5 6
f 1 6 7
f 1 7 2
f 2 7 11
f 2 11 15
f 2 15 17
f 2 17 12
f 2 12 8
f 3 9 13
f 3 13 16
f 3 16 19
f 3 19 21
f 3 21 20
f 3 20 18
f 3 18 14
f 3 14 10
f 3 10 5
f 3 5 4
f 5 10 11
f 5 11 7
f 5 7 6
f 8 12 13
f 8 13 9
f 10 14 15
f 10 15 11
f 12 16 13
f 12 17 16
f 14 18 15
f 15 18 17
f 16 17 19
f 17 18 20
f 17 20 21
f 17 21 19

