# https://github.com/mikedh/trimesh

o left_shin_stationary_idler_spider_026.obj
v -0.06435643 -0.04280356 -0.11607003
v -0.06435643 -0.04072419 -0.11607003
v -0.06352280 -0.04280356 -0.11607003
v -0.06466425 -0.04280356 -0.11379518
v -0.06352280 -0.04072419 -0.11607003
v -0.06466425 -0.04072419 -0.11379518
v -0.06352280 -0.04280356 -0.10893512
v -0.06466425 -0.04280356 -0.10876420
v -0.06352280 -0.04072419 -0.10893512
v -0.06466425 -0.04072419 -0.10876420
v -0.06354705 -0.04072419 -0.10892940
v -0.06379397 -0.04072419 -0.10887290
v -0.06387967 -0.04280356 -0.10885359
v -0.06454346 -0.04280356 -0.10876778
v -0.06453955 -0.04072419 -0.10876778
v -0.06385085 -0.04072419 -0.10886003
v -0.06391476 -0.04280356 -0.10884573
v -0.06453285 -0.04280356 -0.10876849
v -0.06449721 -0.04280356 -0.10877207
v -0.06453285 -0.04072419 -0.10876849
v -0.06391476 -0.04072419 -0.10884573
v -0.06392917 -0.04072419 -0.10884358
v -0.06421229 -0.04280356 -0.10880782
v -0.06447173 -0.04072419 -0.10877564
f 1 2 5
f 1 5 3
f 1 3 7
f 1 7 13
f 1 13 17
f 1 17 23
f 1 23 19
f 1 19 18
f 1 18 14
f 1 14 8
f 1 8 4
f 1 4 6
f 1 6 2
f 2 6 10
f 2 10 15
f 2 15 20
f 2 20 24
f 2 24 22
f 2 22 21
f 2 21 16
f 2 16 12
f 2 12 11
f 2 11 9
f 2 9 5
f 3 5 9
f 3 9 7
f 4 8 10
f 4 10 6
f 7 9 11
f 7 11 12
f 7 12 13
f 8 14 15
f 8 15 10
f 12 16 13
f 13 16 17
f 14 18 15
f 15 18 19
f 15 19 20
f 16 21 17
f 17 21 22
f 17 22 23
f 19 24 20
f 19 23 22
f 19 22 24

