# https://github.com/mikedh/trimesh

o left_thigh_stationary_idler_spider_003.obj
v 0.07225000 -0.02524341 -0.01300106
v 0.07223548 -0.02343748 -0.01271844
v 0.07222614 -0.02574971 -0.01253606
v 0.07222977 -0.02574971 -0.01338756
v 0.07220955 -0.02343748 -0.01366052
v 0.07211308 -0.02343748 -0.01171475
v 0.07212501 -0.02574971 -0.01176427
v 0.07094252 -0.02575175 -0.01231986
v 0.07098245 -0.02575175 -0.01324745
v 0.07081908 -0.02575175 -0.01428979
v 0.07197149 -0.02574971 -0.01483934
v 0.07211827 -0.02549644 -0.01426442
v 0.07220125 -0.02524341 -0.01373420
v 0.07209337 -0.02343748 -0.01436346
v 0.07196942 -0.02343748 -0.01115434
v 0.07193415 -0.02536981 -0.01107462
v 0.07175833 -0.02574971 -0.01057459
v 0.07080404 -0.02575175 -0.01165074
v 0.07060229 -0.02575175 -0.01493958
v 0.07175833 -0.02574971 -0.01542633
v 0.07186517 -0.02524341 -0.01513404
v 0.07184339 -0.02343748 -0.01519201
v 0.07172981 -0.02343748 -0.01052024
v 0.07049441 -0.02575175 -0.01083668
v 0.07147619 -0.02536981 -0.00999485
v 0.07107684 -0.02549644 -0.00936800
v 0.06978958 -0.02549644 -0.00803942
v 0.06813669 -0.02574971 -0.00713357
v 0.06948929 -0.02575175 -0.00942597
v 0.06997681 -0.02575175 -0.00999002
v 0.07022420 -0.02575175 -0.01565219
v 0.06965785 -0.02575175 -0.01639136
v 0.06911587 -0.02575175 -0.01690467
v 0.06854952 -0.02575175 -0.01728755
v 0.06819685 -0.02549644 -0.01884561
v 0.07038291 -0.02549644 -0.01745060
v 0.07093992 -0.02536981 -0.01681409
v 0.07154569 -0.02536981 -0.01586597
v 0.07151250 -0.02343748 -0.01592998
v 0.07129726 -0.02355731 -0.00970014
v 0.07066141 -0.02343748 -0.00885227
v 0.07049752 -0.02536981 -0.00867593
v 0.06978544 -0.02343748 -0.00803459
v 0.06923516 -0.02343748 -0.00766138
v 0.06879951 -0.02536981 -0.00741498
v 0.06850803 -0.02343748 -0.00728454
v 0.06752210 -0.02355958 -0.00694636
v 0.06766576 -0.02536981 -0.00698138
v 0.06697650 -0.02549644 -0.00683282
v 0.06710564 -0.02575175 -0.00816865
v 0.06805319 -0.02575175 -0.00845490
v 0.06891412 -0.02575175 -0.00895131
v 0.06793909 -0.02575175 -0.01759795
v 0.06765228 -0.02536981 -0.01902316
v 0.06758175 -0.02343748 -0.01904007
v 0.06844891 -0.02343748 -0.01874295
v 0.06879951 -0.02536981 -0.01858473
v 0.06961014 -0.02536981 -0.01808953
v 0.06704444 -0.02575175 -0.01784676
v 0.06695160 -0.02549644 -0.01917172
v 0.06989591 -0.02343748 -0.01788541
v 0.07050997 -0.02343748 -0.01730929
v 0.07116346 -0.02343748 -0.01651939
v 0.06915322 -0.02343748 -0.01838665
f 1 2 3
f 1 3 4
f 1 4 5
f 1 5 2
f 2 6 3
f 2 5 14
f 2 14 22
f 2 22 39
f 2 39 63
f 2 63 62
f 2 62 61
f 2 61 64
f 2 64 56
f 2 56 55
f 2 55 46
f 2 46 44
f 2 44 43
f 2 43 41
f 2 41 23
f 2 23 15
f 2 15 6
f 3 6 7
f 3 7 8
f 3 8 9
f 3 9 4
f 4 9 10
f 4 10 11
f 4 11 12
f 4 12 13
f 4 13 5
f 5 13 12
f 5 12 14
f 6 15 7
f 7 15 16
f 7 16 17
f 7 17 18
f 7 18 8
f 8 18 24
f 8 24 30
f 8 30 29
f 8 29 52
f 8 52 51
f 8 51 50
f 8 50 59
f 8 59 53
f 8 53 34
f 8 34 33
f 8 33 32
f 8 32 31
f 8 31 19
f 8 19 10
f 8 10 9
f 10 19 11
f 11 19 20
f 11 20 21
f 11 21 22
f 11 22 14
f 11 14 12
f 15 23 17
f 15 17 16
f 17 24 18
f 17 23 25
f 17 25 26
f 17 26 27
f 17 27 28
f 17 28 29
f 17 29 30
f 17 30 24
f 19 31 20
f 20 31 32
f 20 32 33
f 20 33 34
f 20 34 35
f 20 35 36
f 20 36 37
f 20 37 38
f 20 38 39
f 20 39 22
f 20 22 21
f 23 40 25
f 23 41 40
f 25 40 26
f 26 41 42
f 26 42 27
f 26 40 41
f 27 42 43
f 27 43 44
f 27 44 45
f 27 45 28
f 28 45 46
f 28 46 47
f 28 47 48
f 28 48 49
f 28 49 50
f 28 50 51
f 28 51 52
f 28 52 29
f 34 53 35
f 35 54 55
f 35 55 56
f 35 56 57
f 35 57 58
f 35 58 36
f 35 53 59
f 35 59 60
f 35 60 54
f 36 58 61
f 36 61 62
f 36 62 37
f 37 62 63
f 37 63 38
f 38 63 39
f 41 43 42
f 44 46 45
f 46 55 47
f 47 49 48
f 47 55 60
f 47 60 49
f 49 60 59
f 49 59 50
f 54 60 55
f 56 64 57
f 57 64 58
f 58 64 61

