# https://github.com/mikedh/trimesh

o left_ankle_tapped_load_plate_178.obj
v 0.04771799 -0.01657282 -0.03154107
v 0.04771799 -0.01657282 -0.03250000
v 0.03561845 -0.01657282 -0.03154107
v 0.04771799 -0.01911402 -0.03154107
v 0.04771799 -0.01911402 -0.03250000
v 0.03561845 -0.01657282 -0.03250000
v 0.03028543 -0.01723989 -0.03154107
v 0.03561845 -0.01926642 -0.03154107
v 0.03561845 -0.01926642 -0.03250000
v 0.03028543 -0.01724147 -0.03250000
v 0.03028543 -0.01723989 -0.03216177
v 0.03028543 -0.01926642 -0.03154107
v 0.03028543 -0.01926642 -0.03250000
f 1 2 6
f 1 6 3
f 1 3 7
f 1 7 12
f 1 12 8
f 1 8 4
f 1 4 5
f 1 5 2
f 2 5 9
f 2 9 13
f 2 13 10
f 2 10 6
f 3 6 11
f 3 11 7
f 4 8 9
f 4 9 5
f 6 10 11
f 7 11 10
f 7 10 13
f 7 13 12
f 8 12 13
f 8 13 9

