# https://github.com/mikedh/trimesh

o left_thigh_idler_fork_plate_096.obj
v -0.03041292 -0.03740996 -0.05561364
v -0.03041292 -0.03821124 -0.05561364
v -0.03041292 -0.03740515 -0.05564293
v -0.03044583 -0.03740515 -0.05561433
v -0.03204166 -0.03740515 -0.05454453
v -0.03204166 -0.03821124 -0.05454453
v -0.03041292 -0.03821124 -0.06166841
v -0.03041292 -0.03740515 -0.06166841
v -0.03395133 -0.03740515 -0.05454453
v -0.03395133 -0.03821124 -0.05454453
v -0.03302507 -0.03821124 -0.06166841
v -0.03302507 -0.03740515 -0.06166841
v -0.03395133 -0.03740515 -0.05946953
v -0.03395133 -0.03821124 -0.05946953
f 1 2 7
f 1 7 8
f 1 8 3
f 1 3 4
f 1 4 5
f 1 5 6
f 1 6 2
f 2 6 10
f 2 10 14
f 2 14 11
f 2 11 7
f 3 8 12
f 3 12 13
f 3 13 9
f 3 9 5
f 3 5 4
f 5 9 10
f 5 10 6
f 7 11 12
f 7 12 8
f 9 13 14
f 9 14 10
f 11 14 13
f 11 13 12

