# https://github.com/mikedh/trimesh

o left_hip_roll_carrier_arm_075.obj
v 0.03095797 -0.01807782 -0.00853535
v 0.03095797 -0.01807220 -0.00854662
v 0.03320550 -0.01807782 -0.00853535
v 0.03095797 -0.01397522 -0.00853535
v 0.03320550 -0.01795789 -0.00876874
v 0.03095797 -0.01746643 -0.00972483
v 0.03320550 -0.01749195 -0.00967510
v 0.03320550 -0.01397522 -0.00853535
v 0.03095797 -0.01286421 -0.00939994
v 0.03095797 -0.01736130 -0.00992905
v 0.03320550 -0.01736130 -0.00992905
v 0.03320550 -0.01286421 -0.00939994
v 0.03095797 -0.01286421 -0.01530825
v 0.03095797 -0.01665347 -0.01104825
v 0.03320550 -0.01707296 -0.01038521
v 0.03320550 -0.01286421 -0.01530825
v 0.03320550 -0.01301068 -0.01517564
v 0.03095797 -0.01296934 -0.01521277
v 0.03095797 -0.01646924 -0.01133932
v 0.03320550 -0.01687699 -0.01069485
v 0.03320550 -0.01310458 -0.01509011
v 0.03095797 -0.01411811 -0.01416650
v 0.03320550 -0.01647893 -0.01132341
v 0.03320550 -0.01666418 -0.01103101
v 0.03095797 -0.01642483 -0.01140894
v 0.03320550 -0.01640748 -0.01143613
v 0.03320550 -0.01411811 -0.01416650
v 0.03095797 -0.01516890 -0.01302144
v 0.03095797 -0.01640748 -0.01143613
v 0.03095797 -0.01633808 -0.01152762
v 0.03320550 -0.01632685 -0.01154221
v 0.03320550 -0.01467591 -0.01355850
v 0.03320550 -0.01532404 -0.01285171
v 0.03095797 -0.01532404 -0.01285171
f 1 2 3
f 1 3 8
f 1 8 4
f 1 4 9
f 1 9 13
f 1 13 18
f 1 18 22
f 1 22 28
f 1 28 34
f 1 34 30
f 1 30 29
f 1 29 25
f 1 25 19
f 1 19 14
f 1 14 10
f 1 10 6
f 1 6 2
f 2 5 3
f 2 6 7
f 2 7 5
f 3 5 7
f 3 7 11
f 3 11 15
f 3 15 20
f 3 20 24
f 3 24 23
f 3 23 26
f 3 26 31
f 3 31 33
f 3 33 32
f 3 32 27
f 3 27 21
f 3 21 17
f 3 17 16
f 3 16 12
f 3 12 8
f 4 8 12
f 4 12 9
f 6 10 11
f 6 11 7
f 9 12 16
f 9 16 13
f 10 14 15
f 10 15 11
f 13 16 17
f 13 17 18
f 14 19 20
f 14 20 15
f 17 21 22
f 17 22 18
f 19 23 24
f 19 24 20
f 19 25 26
f 19 26 23
f 21 27 22
f 22 27 28
f 25 29 26
f 26 29 30
f 26 30 31
f 27 32 28
f 28 32 33
f 28 33 34
f 30 34 33
f 30 33 31

