# https://github.com/mikedh/trimesh

o left_ankle_tapped_load_plate_075.obj
v -0.10434861 -0.03403114 -0.02945675
v -0.10362683 -0.03432516 -0.02945675
v -0.10434861 -0.03403114 -0.02850009
v -0.10434861 -0.03061382 -0.02945675
v -0.10294392 -0.03452534 -0.02945675
v -0.10362683 -0.03432516 -0.02850009
v -0.10434861 -0.03061382 -0.02850009
v -0.10175434 -0.03061382 -0.02945675
v -0.10175434 -0.03487400 -0.02945675
v -0.10175434 -0.03487400 -0.02850009
v -0.10176323 -0.03061382 -0.02850009
v -0.10175434 -0.03061382 -0.02851620
v -0.10175434 -0.03063258 -0.02850009
f 1 2 6
f 1 6 3
f 1 3 7
f 1 7 4
f 1 4 8
f 1 8 9
f 1 9 5
f 1 5 2
f 2 5 6
f 3 6 10
f 3 10 13
f 3 13 11
f 3 11 7
f 4 7 11
f 4 11 12
f 4 12 8
f 5 9 10
f 5 10 6
f 8 12 13
f 8 13 10
f 8 10 9
f 11 13 12

