# https://github.com/mikedh/trimesh

o left_foot_rear_saddle_046.obj
v -0.02100000 0.02300000 -0.02638032
v -0.02100000 0.02300000 -0.02849973
v -0.02100253 0.02300000 -0.02572732
v -0.02100000 0.01895123 -0.02638032
v -0.02100000 0.01895123 -0.02849973
v -0.04682564 0.02300000 -0.02849973
v -0.02100253 0.01895123 -0.02572732
v -0.04682311 0.02300000 -0.02572732
v -0.04471226 0.01895123 -0.02849973
v -0.04682564 0.01937018 -0.02849973
v -0.04682564 0.02300000 -0.02638032
v -0.04471226 0.01895123 -0.02572732
v -0.04682311 0.01937018 -0.02572732
v -0.04682564 0.01937018 -0.02638032
f 1 2 6
f 1 6 11
f 1 11 8
f 1 8 3
f 1 3 7
f 1 7 4
f 1 4 5
f 1 5 2
f 2 5 9
f 2 9 10
f 2 10 6
f 3 8 13
f 3 13 12
f 3 12 7
f 4 7 12
f 4 12 9
f 4 9 5
f 6 10 14
f 6 14 11
f 8 11 14
f 8 14 13
f 9 12 14
f 9 14 10
f 12 13 14

