# https://github.com/mikedh/trimesh

o left_ankle_pitch_base_disc_065.obj
v -0.00502101 0.02624625 0.00118189
v -0.00382145 0.02624625 0.00118189
v -0.00502101 0.02624625 0.00241857
v -0.00502101 0.02845299 0.00118189
v -0.00308900 0.02624625 0.00253849
v -0.00382145 0.02845299 0.00118189
v -0.00501912 0.02624625 0.00253849
v -0.00502101 0.02786674 0.00253849
v -0.00502101 0.02845299 0.00253849
v -0.00308900 0.02845299 0.00253849
f 1 2 5
f 1 5 7
f 1 7 3
f 1 3 8
f 1 8 9
f 1 9 4
f 1 4 6
f 1 6 2
f 2 6 10
f 2 10 5
f 3 7 8
f 4 9 10
f 4 10 6
f 5 10 9
f 5 9 8
f 5 8 7

