# https://github.com/mikedh/trimesh

o left_hip_yaw_to_roll_u_carrier_067.obj
v -0.00997159 -0.01161940 0.02554206
v -0.00909762 -0.01161975 0.02554206
v -0.00997159 -0.01161940 0.02410001
v -0.01984183 -0.01161940 0.02554206
v -0.00909762 -0.01323939 0.02554206
v -0.00909762 -0.01161975 0.02417044
v -0.00909867 -0.01161975 0.02410001
v -0.01984183 -0.01161940 0.02410001
v -0.01976926 -0.01175501 0.02554206
v -0.00909762 -0.01323939 0.02410001
v -0.01004205 -0.01515343 0.02554206
v -0.00909762 -0.01162424 0.02410001
v -0.01976926 -0.01175501 0.02410001
v -0.01905621 -0.01283915 0.02554206
v -0.01004205 -0.01515343 0.02410001
v -0.01729565 -0.01515343 0.02554206
v -0.01863973 -0.01347220 0.02410001
v -0.01863973 -0.01347220 0.02554206
v -0.01729565 -0.01515343 0.02410001
v -0.01736296 -0.01508251 0.02554206
v -0.01800135 -0.01427753 0.02410001
v -0.01769846 -0.01466082 0.02554206
v -0.01736296 -0.01508251 0.02410001
f 1 2 6
f 1 6 3
f 1 3 8
f 1 8 4
f 1 4 9
f 1 9 14
f 1 14 18
f 1 18 22
f 1 22 20
f 1 20 16
f 1 16 11
f 1 11 5
f 1 5 2
f 2 5 10
f 2 10 12
f 2 12 6
f 3 6 7
f 3 7 12
f 3 12 10
f 3 10 15
f 3 15 19
f 3 19 23
f 3 23 21
f 3 21 17
f 3 17 13
f 3 13 8
f 4 8 13
f 4 13 9
f 5 11 15
f 5 15 10
f 6 12 7
f 9 13 14
f 11 16 19
f 11 19 15
f 13 17 14
f 14 17 18
f 16 20 23
f 16 23 19
f 17 21 22
f 17 22 18
f 20 22 23
f 21 23 22

