# https://github.com/mikedh/trimesh

o left_hip_roll_output_adapter_039.obj
v 0.03004654 -0.00799919 -0.01260740
v 0.03024998 -0.00799919 -0.01260740
v 0.03004654 -0.00799919 -0.00871089
v 0.03004654 -0.00676558 -0.01366457
v 0.03024998 -0.00799919 -0.00871089
v 0.03024998 -0.00676558 -0.01366457
v 0.03004654 -0.00412873 -0.00871089
v 0.03004654 -0.00407845 -0.01366457
v 0.03024998 -0.00407845 -0.00871089
v 0.03024998 -0.00407845 -0.01366457
v 0.03004835 -0.00407845 -0.00871089
v 0.03004654 -0.00407845 -0.00872350
f 1 2 5
f 1 5 3
f 1 3 7
f 1 7 12
f 1 12 8
f 1 8 4
f 1 4 6
f 1 6 2
f 2 6 10
f 2 10 9
f 2 9 5
f 3 5 9
f 3 9 11
f 3 11 7
f 4 8 10
f 4 10 6
f 7 11 12
f 8 12 11
f 8 11 9
f 8 9 10

