# https://github.com/mikedh/trimesh

o left_shin_distal_rear_spacer_outer_3_003.obj
v 0.06371045 -0.04275000 -0.10577961
v 0.06625365 -0.04275000 -0.10577961
v 0.06374071 -0.04275000 -0.10562997
v 0.06371045 -0.03125000 -0.10577961
v 0.06730499 -0.04275000 -0.10504929
v 0.06625365 -0.03125000 -0.10577961
v 0.06379947 -0.04275000 -0.10543939
v 0.06374071 -0.03125000 -0.10562997
v 0.06730499 -0.04275000 -0.10263417
v 0.06730499 -0.03125000 -0.10504929
v 0.06385858 -0.04275000 -0.10524880
v 0.06381917 -0.03891592 -0.10537565
v 0.06379947 -0.03125000 -0.10543939
v 0.06711957 -0.04275000 -0.10264833
v 0.06730499 -0.03125000 -0.10263417
v 0.06725186 -0.03508408 -0.10263817
v 0.06401340 -0.04275000 -0.10488118
v 0.06390995 -0.03508408 -0.10512626
v 0.06385858 -0.03125000 -0.10524880
v 0.06692323 -0.04275000 -0.10268281
v 0.06711957 -0.03125000 -0.10264833
v 0.06420410 -0.04275000 -0.10453110
v 0.06407673 -0.03891592 -0.10476448
v 0.06401340 -0.03125000 -0.10488118
v 0.06672690 -0.04275000 -0.10271760
v 0.06692323 -0.03125000 -0.10268281
v 0.06431634 -0.04275000 -0.10436638
v 0.06435364 -0.03508408 -0.10431157
v 0.06420410 -0.03125000 -0.10453110
v 0.06659882 -0.03891592 -0.10275332
v 0.06653479 -0.04275000 -0.10277149
v 0.06672690 -0.03125000 -0.10271760
v 0.06442859 -0.04275000 -0.10420196
v 0.06442859 -0.03125000 -0.10420196
v 0.06431634 -0.03125000 -0.10436638
v 0.06634302 -0.04275000 -0.10282537
v 0.06653479 -0.03125000 -0.10277149
v 0.06647075 -0.03508408 -0.10278934
v 0.06455666 -0.04275000 -0.10404925
v 0.06455666 -0.03125000 -0.10404925
v 0.06597182 -0.04275000 -0.10297100
v 0.06634302 -0.03125000 -0.10282537
v 0.06468509 -0.04275000 -0.10389653
v 0.06468509 -0.03125000 -0.10389653
v 0.06585324 -0.03891592 -0.10303166
v 0.06561680 -0.04275000 -0.10315297
v 0.06597182 -0.03125000 -0.10297100
v 0.06482759 -0.04275000 -0.10375736
v 0.06478009 -0.03508408 -0.10380355
v 0.06482759 -0.03125000 -0.10375736
v 0.06561680 -0.03125000 -0.10315297
v 0.06528218 -0.04275000 -0.10336942
v 0.06497044 -0.04275000 -0.10361789
v 0.06497044 -0.03125000 -0.10361789
v 0.06528218 -0.03125000 -0.10336942
v 0.06507424 -0.03508408 -0.10353506
f 1 2 5
f 1 5 9
f 1 9 14
f 1 14 20
f 1 20 25
f 1 25 31
f 1 31 36
f 1 36 41
f 1 41 46
f 1 46 52
f 1 52 53
f 1 53 48
f 1 48 43
f 1 43 39
f 1 39 33
f 1 33 27
f 1 27 22
f 1 22 17
f 1 17 11
f 1 11 7
f 1 7 3
f 1 3 8
f 1 8 4
f 1 4 6
f 1 6 2
f 2 6 10
f 2 10 5
f 3 7 13
f 3 13 8
f 4 8 13
f 4 13 19
f 4 19 24
f 4 24 29
f 4 29 35
f 4 35 34
f 4 34 40
f 4 40 44
f 4 44 50
f 4 50 54
f 4 54 55
f 4 55 51
f 4 51 47
f 4 47 42
f 4 42 37
f 4 37 32
f 4 32 26
f 4 26 21
f 4 21 15
f 4 15 10
f 4 10 6
f 5 10 15
f 5 15 9
f 7 11 12
f 7 12 13
f 9 15 16
f 9 16 14
f 11 17 18
f 11 18 19
f 11 19 12
f 12 19 13
f 14 16 21
f 14 21 26
f 14 26 20
f 15 21 16
f 17 22 23
f 17 23 24
f 17 24 18
f 18 24 19
f 20 26 32
f 20 32 25
f 22 27 28
f 22 28 29
f 22 29 23
f 23 29 24
f 25 30 31
f 25 32 30
f 27 33 28
f 28 34 35
f 28 35 29
f 28 33 34
f 30 36 31
f 30 32 37
f 30 37 38
f 30 38 36
f 33 39 40
f 33 40 34
f 36 38 42
f 36 42 47
f 36 47 41
f 37 42 38
f 39 43 44
f 39 44 40
f 41 45 46
f 41 47 45
f 43 48 49
f 43 49 44
f 44 49 50
f 45 47 51
f 45 51 46
f 46 51 55
f 46 55 52
f 48 53 49
f 49 54 50
f 49 53 54
f 52 55 56
f 52 56 53
f 53 56 54
f 54 56 55

