# https://github.com/mikedh/trimesh

o left_ankle_tapped_load_plate_196.obj
v -0.02755361 -0.01648089 -0.03058414
v -0.02520515 -0.01648089 -0.03058414
v -0.02755361 -0.01648089 -0.02850000
v -0.02755361 -0.01174700 -0.03058414
v -0.02519893 -0.01646189 -0.03058414
v -0.02519893 -0.01648089 -0.03055660
v -0.02519893 -0.01648089 -0.02850000
v -0.02755361 -0.01174700 -0.02850000
v -0.02519893 -0.01174700 -0.03058414
v -0.02519893 -0.01174700 -0.02850000
f 1 2 6
f 1 6 7
f 1 7 3
f 1 3 8
f 1 8 4
f 1 4 9
f 1 9 5
f 1 5 2
f 2 5 6
f 3 7 10
f 3 10 8
f 4 8 10
f 4 10 9
f 5 9 10
f 5 10 7
f 5 7 6

