# https://github.com/mikedh/trimesh

o left_ankle_pitch_base_disc_042.obj
v -0.00172723 0.02845299 0.00868984
v -0.00502101 0.02845299 0.00868984
v -0.00172723 0.02624625 0.00868984
v -0.00172723 0.02845299 0.00360787
v -0.00502101 0.02625014 0.00868984
v -0.00502101 0.02845299 0.00253909
v -0.00198551 0.02624625 0.00868984
v -0.00172723 0.02624625 0.00360787
v -0.00308924 0.02845299 0.00253909
v -0.00327916 0.02624625 0.00835987
v -0.00265072 0.02624625 0.00857965
v -0.00232182 0.02624625 0.00866816
v -0.00502101 0.02624625 0.00744283
v -0.00477337 0.02624625 0.00759878
v -0.00449155 0.02624625 0.00777581
v -0.00419200 0.02624625 0.00793417
v -0.00389793 0.02624625 0.00808952
v -0.00389439 0.02624625 0.00809132
v -0.00502101 0.02786674 0.00253909
v -0.00308924 0.02624625 0.00253909
v -0.00502101 0.02624625 0.00253969
v -0.00501907 0.02624625 0.00253909
f 1 2 5
f 1 5 7
f 1 7 3
f 1 3 8
f 1 8 4
f 1 4 9
f 1 9 6
f 1 6 2
f 2 6 19
f 2 19 21
f 2 21 13
f 2 13 5
f 3 7 12
f 3 12 11
f 3 11 10
f 3 10 18
f 3 18 17
f 3 17 16
f 3 16 15
f 3 15 14
f 3 14 13
f 3 13 21
f 3 21 22
f 3 22 20
f 3 20 8
f 4 8 20
f 4 20 9
f 5 10 11
f 5 11 12
f 5 12 7
f 5 13 14
f 5 14 15
f 5 15 16
f 5 16 17
f 5 17 18
f 5 18 10
f 6 9 20
f 6 20 22
f 6 22 19
f 19 22 21

