# https://github.com/mikedh/trimesh

o left_thigh_idler_bearing_installation_004.obj
v -0.00427966 -0.04175000 0.00258293
v -0.00427966 -0.03675000 0.00258293
v -0.00111276 -0.04175000 0.00487492
v -0.00427966 -0.04175000 0.00846809
v -0.00111276 -0.03675000 0.00487492
v -0.00427966 -0.03675000 0.00846809
v -0.00111276 -0.04175000 0.00943141
v -0.00390705 -0.04175000 0.00865914
v -0.00111276 -0.03675000 0.00943141
v -0.00390705 -0.03675000 0.00865914
v -0.00118127 -0.04175000 0.00942604
v -0.00302542 -0.04175000 0.00900505
v -0.00118127 -0.03675000 0.00942604
v -0.00302542 -0.03675000 0.00900505
v -0.00211404 -0.04175000 0.00926180
v -0.00211404 -0.03675000 0.00926180
f 1 2 5
f 1 5 3
f 1 3 7
f 1 7 11
f 1 11 15
f 1 15 12
f 1 12 8
f 1 8 4
f 1 4 6
f 1 6 2
f 2 6 10
f 2 10 14
f 2 14 16
f 2 16 13
f 2 13 9
f 2 9 5
f 3 5 9
f 3 9 7
f 4 8 10
f 4 10 6
f 7 9 13
f 7 13 11
f 8 12 14
f 8 14 10
f 11 13 16
f 11 16 15
f 12 15 16
f 12 16 14

