# https://github.com/mikedh/trimesh

o left_hip_yaw_to_roll_u_carrier_140.obj
v -0.01470007 0.00827705 0.02757172
v -0.01470007 0.00926751 0.02757172
v -0.01379518 0.00827705 0.02757172
v -0.01445762 0.00804218 0.02897898
v -0.01470007 0.00827705 0.02897898
v -0.01470007 0.00926751 0.02897898
v -0.01233237 0.00926751 0.02757172
v -0.01394538 0.00804218 0.02897898
v -0.01445762 0.00804218 0.02959981
v -0.01445762 0.00926739 0.02959981
v -0.01233237 0.00926751 0.02897898
v -0.01233237 0.00926739 0.02897898
v -0.01394538 0.00804218 0.02959981
v -0.01233237 0.00926739 0.02959981
f 1 2 7
f 1 7 3
f 1 3 8
f 1 8 4
f 1 4 9
f 1 9 5
f 1 5 6
f 1 6 2
f 2 6 11
f 2 11 7
f 3 7 8
f 4 8 13
f 4 13 9
f 5 9 10
f 5 10 6
f 6 10 14
f 6 14 11
f 7 12 8
f 7 11 14
f 7 14 12
f 8 12 14
f 8 14 13
f 9 13 14
f 9 14 10

