# https://github.com/mikedh/trimesh

o left_hip_yaw_to_roll_u_carrier_026.obj
v -0.00775000 0.02046972 -0.06543185
v -0.00775000 0.02237367 -0.06718576
v -0.00375000 0.02046972 -0.06543185
v -0.00775000 0.02046972 -0.05968758
v -0.00775000 0.02738214 -0.06718576
v -0.00375000 0.02237367 -0.06718576
v -0.00375000 0.02046972 -0.05968758
v -0.00775000 0.02097813 -0.05404111
v -0.00375000 0.02738214 -0.06718576
v -0.00775000 0.02751927 -0.06686792
v -0.00375000 0.02097813 -0.05404111
v -0.00775000 0.02995494 -0.05404111
v -0.00375000 0.02751927 -0.06686792
v -0.00775000 0.02805099 -0.06563516
v -0.00375000 0.02995494 -0.05404111
v -0.00641641 0.02996334 -0.05423670
v -0.00775000 0.02999878 -0.05513103
v -0.00375000 0.02805099 -0.06563516
v -0.00775000 0.02888963 -0.06308473
v -0.00641641 0.02833085 -0.06478459
v -0.00375000 0.02999878 -0.05513103
v -0.00775000 0.02993349 -0.05647187
v -0.00375000 0.02888963 -0.06308473
v -0.00775000 0.02949691 -0.06047124
v -0.00375000 0.02993349 -0.05647187
v -0.00775000 0.02986725 -0.05781271
v -0.00375000 0.02949691 -0.06047124
v -0.00508359 0.02974412 -0.05869932
v -0.00375000 0.02986725 -0.05781271
f 1 2 6
f 1 6 3
f 1 3 7
f 1 7 4
f 1 4 8
f 1 8 12
f 1 12 17
f 1 17 22
f 1 22 26
f 1 26 24
f 1 24 19
f 1 19 14
f 1 14 10
f 1 10 5
f 1 5 2
f 2 5 9
f 2 9 6
f 3 6 9
f 3 9 13
f 3 13 18
f 3 18 23
f 3 23 27
f 3 27 29
f 3 29 25
f 3 25 21
f 3 21 15
f 3 15 11
f 3 11 7
f 4 7 11
f 4 11 8
f 5 10 13
f 5 13 9
f 8 11 15
f 8 15 12
f 10 14 18
f 10 18 13
f 12 15 16
f 12 16 17
f 14 19 20
f 14 20 18
f 15 21 16
f 16 21 17
f 17 21 25
f 17 25 22
f 18 20 23
f 19 24 27
f 19 27 23
f 19 23 20
f 22 25 29
f 22 29 26
f 24 26 28
f 24 28 27
f 26 29 28
f 27 28 29

