# https://github.com/mikedh/trimesh

o left_foot_rear_saddle_009.obj
v -0.03179293 0.02300000 -0.02450000
v -0.03179293 0.01300489 -0.02450000
v -0.03179293 0.02300000 -0.02469923
v -0.04433166 0.02300000 -0.02450000
v -0.03179293 0.01300000 -0.02450086
v -0.04137494 0.01300000 -0.02450000
v -0.03179293 0.01300000 -0.02469923
v -0.04433166 0.02300000 -0.02469923
v -0.04433166 0.01300000 -0.02450000
v -0.04433166 0.01300000 -0.02469923
f 1 2 5
f 1 5 7
f 1 7 3
f 1 3 8
f 1 8 4
f 1 4 9
f 1 9 6
f 1 6 2
f 2 6 5
f 3 7 10
f 3 10 8
f 4 8 10
f 4 10 9
f 5 6 9
f 5 9 10
f 5 10 7

