# https://github.com/mikedh/trimesh

o left_hip_roll_carrier_arm_085.obj
v 0.03053499 0.03243909 -0.01562058
v 0.03147268 0.03243909 -0.01562058
v 0.03053499 0.03243909 -0.01037783
v 0.03025000 0.03243926 -0.01562005
v 0.03025000 0.03420587 -0.01571796
v 0.03053499 0.03420587 -0.01571796
v 0.03147268 0.03355969 -0.01543063
v 0.03147268 0.03243909 -0.01037783
v 0.03025000 0.03420587 -0.01028259
v 0.03025000 0.03243926 -0.01037836
v 0.03053499 0.03420587 -0.01028259
v 0.03147268 0.03355969 -0.01056832
f 1 2 8
f 1 8 3
f 1 3 10
f 1 10 4
f 1 4 5
f 1 5 6
f 1 6 2
f 2 6 7
f 2 7 12
f 2 12 8
f 3 8 11
f 3 11 9
f 3 9 10
f 4 10 9
f 4 9 5
f 5 9 11
f 5 11 6
f 6 11 12
f 6 12 7
f 8 12 11

