# https://github.com/mikedh/trimesh

o left_thigh_output_fork_plate_108.obj
v -0.02917856 0.03302059 -0.02723621
v -0.02937457 0.03302059 -0.02758279
v -0.02917856 0.03025000 -0.02723621
v -0.02917856 0.03302059 -0.04978862
v -0.03070957 0.03302059 -0.02994488
v -0.03491563 0.03025000 -0.03738876
v -0.02917856 0.03025000 -0.04978862
v -0.03491563 0.03302059 -0.04978862
v -0.03491563 0.03302059 -0.03738876
v -0.03491563 0.03025000 -0.04978862
f 1 2 3
f 1 3 7
f 1 7 4
f 1 4 8
f 1 8 9
f 1 9 5
f 1 5 2
f 2 5 3
f 3 5 6
f 3 6 10
f 3 10 7
f 4 7 10
f 4 10 8
f 5 9 6
f 6 9 8
f 6 8 10

