# https://github.com/mikedh/trimesh

o left_shin_idler_fork_plate_088.obj
v -0.00652320 -0.04342791 -0.00715849
v -0.00724969 -0.04342791 -0.00715849
v -0.00624875 -0.04352263 -0.00715849
v -0.00624296 -0.04342791 -0.00716322
v -0.00724969 -0.04342791 -0.01060400
v -0.00724969 -0.04723685 -0.00715849
v -0.00573254 -0.04342791 -0.00757029
v -0.00624875 -0.04723685 -0.00715849
v -0.00599376 -0.04723685 -0.00736187
v -0.00573254 -0.04342791 -0.00994195
v -0.00724969 -0.04723685 -0.01060400
v -0.00573254 -0.04723685 -0.00757029
v -0.00573254 -0.04723685 -0.00994195
f 1 2 6
f 1 6 8
f 1 8 3
f 1 3 4
f 1 4 7
f 1 7 10
f 1 10 5
f 1 5 2
f 2 5 11
f 2 11 6
f 3 7 4
f 3 8 9
f 3 9 7
f 5 10 13
f 5 13 11
f 6 11 13
f 6 13 12
f 6 12 9
f 6 9 8
f 7 9 12
f 7 12 13
f 7 13 10

