# https://github.com/mikedh/trimesh

o left_thigh_idler_fork_plate_020.obj
v 0.00517459 -0.03821124 -0.01523236
v 0.00517459 -0.04174238 -0.01523236
v 0.00403662 -0.03821124 -0.01724336
v -0.02239246 -0.03821124 -0.01523236
v 0.00516335 -0.04175000 -0.01523236
v 0.00403662 -0.04174273 -0.01724336
v -0.02353044 -0.03821124 -0.01724336
v -0.02239246 -0.04175000 -0.01523236
v 0.00384274 -0.04175000 -0.01724336
v -0.02353044 -0.04175000 -0.01724336
f 1 2 6
f 1 6 3
f 1 3 7
f 1 7 4
f 1 4 8
f 1 8 5
f 1 5 2
f 2 5 6
f 3 6 9
f 3 9 10
f 3 10 7
f 4 7 10
f 4 10 8
f 5 9 6
f 5 8 10
f 5 10 9

