# https://github.com/mikedh/trimesh

o left_ankle_pitch_output_adapter_075.obj
v -0.00529689 0.04304647 -0.01379502
v -0.00529689 0.04324987 -0.01379502
v -0.00157148 0.04304647 -0.01379502
v -0.00529689 0.04215287 -0.01265095
v -0.00529689 0.04324987 -0.01146827
v -0.00157148 0.04324987 -0.01379502
v -0.00069764 0.04215287 -0.01206020
v -0.00135538 0.04215287 -0.01265095
v -0.00529689 0.04215287 -0.01073777
v -0.00529689 0.04304647 -0.01073777
v -0.00079623 0.04324987 -0.01146827
v -0.00079623 0.04324987 -0.01211257
v -0.00069764 0.04304647 -0.01206020
v -0.00069764 0.04215287 -0.01073777
v -0.00069764 0.04304647 -0.01073777
f 1 2 6
f 1 6 3
f 1 3 8
f 1 8 4
f 1 4 9
f 1 9 10
f 1 10 5
f 1 5 2
f 2 5 11
f 2 11 12
f 2 12 6
f 3 6 13
f 3 13 7
f 3 7 8
f 4 8 7
f 4 7 14
f 4 14 9
f 5 10 15
f 5 15 11
f 6 12 13
f 7 13 15
f 7 15 14
f 9 14 15
f 9 15 10
f 11 15 13
f 11 13 12

