# https://github.com/mikedh/trimesh

o left_shin_distal_front_spacer_1_001.obj
v 0.04715174 0.02525000 -0.06707796
v 0.04724147 0.02525000 -0.06736815
v 0.04981806 0.02525000 -0.06707796
v 0.04715174 0.03675000 -0.06707796
v 0.04729309 0.02908408 -0.06749081
v 0.04739633 0.02525000 -0.06773554
v 0.04724147 0.03675000 -0.06736815
v 0.05208011 0.02525000 -0.06717831
v 0.04981806 0.03675000 -0.06707796
v 0.04739633 0.03675000 -0.06773554
v 0.04758688 0.02525000 -0.06808577
v 0.05208011 0.02525000 -0.06985123
v 0.05208011 0.03675000 -0.06717831
v 0.04758688 0.03675000 -0.06808577
v 0.04769928 0.02525000 -0.06825074
v 0.05169418 0.02525000 -0.06993900
v 0.05182395 0.03291592 -0.06990955
v 0.05208011 0.03675000 -0.06985123
v 0.04769928 0.03675000 -0.06825074
v 0.04781169 0.02525000 -0.06841542
v 0.05129860 0.02525000 -0.06998875
v 0.05143078 0.02908408 -0.06997217
v 0.05169418 0.03675000 -0.06993900
v 0.04781169 0.03675000 -0.06841542
v 0.04789707 0.02908408 -0.06851720
v 0.04806785 0.02525000 -0.06872048
v 0.05090012 0.02525000 -0.06999876
v 0.05129860 0.03675000 -0.06998875
v 0.04806785 0.03675000 -0.06872048
v 0.04835344 0.02525000 -0.06899895
v 0.05050261 0.02525000 -0.06996874
v 0.05063479 0.02908408 -0.06997874
v 0.05090012 0.03675000 -0.06999876
v 0.04835344 0.03675000 -0.06899895
v 0.04866508 0.02525000 -0.06924769
v 0.05010944 0.02525000 -0.06989955
v 0.05037139 0.03291592 -0.06994586
v 0.05050261 0.03675000 -0.06996874
v 0.04866508 0.03675000 -0.06924769
v 0.04900036 0.02525000 -0.06946383
v 0.04888844 0.03291592 -0.06939178
v 0.04972592 0.02525000 -0.06979148
v 0.05010944 0.03675000 -0.06989955
v 0.04900036 0.03675000 -0.06946383
v 0.04911855 0.02908408 -0.06952473
v 0.04917789 0.02525000 -0.06955503
v 0.04954067 0.02525000 -0.06971886
v 0.04972592 0.03675000 -0.06979148
v 0.04917789 0.03675000 -0.06955503
v 0.04935494 0.02525000 -0.06964595
v 0.04935494 0.03675000 -0.06964595
v 0.04954067 0.03675000 -0.06971886
f 1 2 6
f 1 6 11
f 1 11 15
f 1 15 20
f 1 20 26
f 1 26 30
f 1 30 35
f 1 35 40
f 1 40 46
f 1 46 50
f 1 50 47
f 1 47 42
f 1 42 36
f 1 36 31
f 1 31 27
f 1 27 21
f 1 21 16
f 1 16 12
f 1 12 8
f 1 8 3
f 1 3 9
f 1 9 4
f 1 4 7
f 1 7 2
f 2 5 6
f 2 7 5
f 3 8 13
f 3 13 9
f 4 9 13
f 4 13 18
f 4 18 23
f 4 23 28
f 4 28 33
f 4 33 38
f 4 38 43
f 4 43 48
f 4 48 52
f 4 52 51
f 4 51 49
f 4 49 44
f 4 44 39
f 4 39 34
f 4 34 29
f 4 29 24
f 4 24 19
f 4 19 14
f 4 14 10
f 4 10 7
f 5 7 10
f 5 10 6
f 6 10 14
f 6 14 11
f 8 12 18
f 8 18 13
f 11 14 19
f 11 19 15
f 12 16 17
f 12 17 18
f 15 19 24
f 15 24 20
f 16 21 22
f 16 22 23
f 16 23 17
f 17 23 18
f 20 25 26
f 20 24 25
f 21 27 33
f 21 33 28
f 21 28 22
f 22 28 23
f 24 29 25
f 25 29 26
f 26 29 34
f 26 34 30
f 27 31 32
f 27 32 33
f 30 34 39
f 30 39 35
f 31 36 37
f 31 37 38
f 31 38 32
f 32 38 33
f 35 39 41
f 35 41 40
f 36 42 48
f 36 48 43
f 36 43 37
f 37 43 38
f 39 44 41
f 40 45 46
f 40 41 44
f 40 44 45
f 42 47 52
f 42 52 48
f 44 49 45
f 45 50 46
f 45 49 51
f 45 51 50
f 47 50 51
f 47 51 52

