# https://github.com/mikedh/trimesh

o left_shin_idler_fork_plate_064.obj
v -0.00487402 -0.04723732 -0.00815249
v -0.00624860 -0.04723732 -0.00715849
v -0.00487402 -0.04825000 -0.00815249
v -0.00487402 -0.04723732 -0.01001414
v -0.00680490 -0.04723732 -0.00715849
v -0.00624860 -0.04825000 -0.00715849
v -0.00487402 -0.04825000 -0.01001414
v -0.00562464 -0.04723732 -0.01001414
v -0.00680490 -0.04825000 -0.00715849
v -0.00680490 -0.04723732 -0.00996494
v -0.00562464 -0.04825000 -0.01001414
v -0.00680490 -0.04825000 -0.00996327
v -0.00680490 -0.04820737 -0.00996494
f 1 2 6
f 1 6 3
f 1 3 7
f 1 7 4
f 1 4 8
f 1 8 10
f 1 10 5
f 1 5 2
f 2 5 9
f 2 9 6
f 3 6 9
f 3 9 12
f 3 12 11
f 3 11 7
f 4 7 11
f 4 11 8
f 5 10 13
f 5 13 12
f 5 12 9
f 8 11 13
f 8 13 10
f 11 12 13

