# https://github.com/mikedh/trimesh

o left_ankle_tapped_load_plate_158.obj
v 0.06137250 -0.01934713 -0.02850000
v 0.06053868 -0.02172888 -0.02850000
v 0.06111133 -0.02009341 -0.03058414
v 0.06133416 -0.01945670 -0.03058414
v 0.06137250 -0.01934713 -0.03058414
v 0.03689698 -0.01934713 -0.02850000
v 0.06053868 -0.02172888 -0.03058271
v 0.03689698 -0.02172888 -0.02850000
v 0.06106102 -0.02023702 -0.03058414
v 0.03689698 -0.01934713 -0.03058414
v 0.06053868 -0.02172655 -0.03058414
v 0.05852361 -0.02172888 -0.03058414
v 0.03689698 -0.02172888 -0.03058414
f 1 2 3
f 1 3 4
f 1 4 5
f 1 5 10
f 1 10 6
f 1 6 8
f 1 8 2
f 2 7 3
f 2 8 13
f 2 13 12
f 2 12 7
f 3 7 9
f 3 9 11
f 3 11 12
f 3 12 13
f 3 13 10
f 3 10 5
f 3 5 4
f 6 10 13
f 6 13 8
f 7 11 9
f 7 12 11

