# https://github.com/mikedh/trimesh

o left_ankle_cross_axis_carrier_100.obj
v -0.01372836 0.04874960 -0.00468866
v -0.01372836 0.04457908 -0.00468866
v -0.01389037 0.04874960 -0.00863746
v -0.01943578 0.04874960 -0.00468866
v -0.01389037 0.04457908 -0.00863746
v -0.01943578 0.04457908 -0.00468866
v -0.01802569 0.04874960 -0.00863746
v -0.01939165 0.04874960 -0.00489430
v -0.01802569 0.04457908 -0.00863746
v -0.01939165 0.04457908 -0.00489430
v -0.01813798 0.04457908 -0.00839395
v -0.01845810 0.04874960 -0.00769974
v -0.01925366 0.04508370 -0.00536780
v -0.01929165 0.04457908 -0.00523754
v -0.01918438 0.04874960 -0.00560436
v -0.01845810 0.04457908 -0.00769974
v -0.01872627 0.04457908 -0.00698389
v -0.01897655 0.04874960 -0.00631441
v -0.01907712 0.04457908 -0.00597117
v -0.01897655 0.04457908 -0.00631441
f 1 2 5
f 1 5 3
f 1 3 7
f 1 7 12
f 1 12 18
f 1 18 15
f 1 15 8
f 1 8 4
f 1 4 6
f 1 6 2
f 2 6 10
f 2 10 14
f 2 14 19
f 2 19 20
f 2 20 17
f 2 17 16
f 2 16 11
f 2 11 9
f 2 9 5
f 3 5 9
f 3 9 7
f 4 8 10
f 4 10 6
f 7 9 11
f 7 11 12
f 8 13 14
f 8 14 10
f 8 15 13
f 11 16 12
f 12 16 17
f 12 17 18
f 13 15 19
f 13 19 14
f 15 18 19
f 17 20 18
f 18 20 19

