# https://github.com/mikedh/trimesh

o left_thigh_stationary_idler_spider_002.obj
v 0.07223731 -0.02332784 -0.01275248
v 0.07222876 -0.02208316 -0.01258624
v 0.07204675 -0.02332784 -0.01146534
v 0.07215913 -0.02343748 -0.01398705
v 0.07222510 -0.02025539 -0.01346633
v 0.07218845 -0.02025539 -0.01226476
v 0.07181465 -0.02025539 -0.01076126
v 0.07167173 -0.02332784 -0.01040312
v 0.07005315 -0.02343748 -0.01774212
v 0.07169372 -0.02332784 -0.01551866
v 0.07204797 -0.02025539 -0.01453956
v 0.06993954 -0.02338266 -0.00818088
v 0.06735226 -0.02343748 -0.00690719
v 0.07106216 -0.02025539 -0.00936045
v 0.07104018 -0.02327333 -0.00932867
v 0.06902459 -0.02343748 -0.01845231
v 0.06955841 -0.02208316 -0.01812838
v 0.06964148 -0.02025539 -0.01806726
v 0.07079464 -0.02025539 -0.01697326
v 0.07098765 -0.02327333 -0.01674590
v 0.07137977 -0.02208316 -0.01616528
v 0.07162286 -0.02025539 -0.01570812
v 0.07050391 -0.02208316 -0.00867960
v 0.07011667 -0.02025539 -0.00833612
v 0.06920905 -0.02208316 -0.00764671
v 0.06860193 -0.02332784 -0.00733623
v 0.06746342 -0.02025539 -0.00693286
v 0.06615635 -0.02025539 -0.00676051
v 0.06613436 -0.02332784 -0.00676173
v 0.06495677 -0.02343748 -0.00684607
v 0.06678301 -0.02343748 -0.01918694
v 0.06795572 -0.02321851 -0.01892413
v 0.06849198 -0.02025539 -0.01871389
v 0.06863369 -0.02025539 -0.00735090
v 0.06480529 -0.02025539 -0.00688518
v 0.06365579 -0.02316369 -0.00722867
v 0.06256493 -0.02343748 -0.00779217
v 0.06731073 -0.02025539 -0.01910260
v 0.06450967 -0.02343748 -0.01904515
v 0.06584607 -0.02321851 -0.01924806
v 0.06565062 -0.02025539 -0.01921994
v 0.06329543 -0.02025539 -0.00738268
v 0.06185154 -0.02025539 -0.00835690
v 0.06165731 -0.02332784 -0.00851947
v 0.06080099 -0.02343748 -0.00955480
v 0.06176603 -0.02338266 -0.01756732
v 0.06310731 -0.02321851 -0.01852931
v 0.06430933 -0.02025539 -0.01900725
v 0.06093048 -0.02343748 -0.01664445
v 0.06088772 -0.02025539 -0.00942034
v 0.06031725 -0.02025539 -0.01043612
v 0.06022074 -0.02321851 -0.01064514
v 0.05988848 -0.02343748 -0.01173670
v 0.06190895 -0.02025539 -0.01769445
v 0.06308410 -0.02025539 -0.01851709
v 0.05983839 -0.02343748 -0.01401883
v 0.06021830 -0.02319110 -0.01530964
v 0.06074358 -0.02025539 -0.01634741
v 0.05990558 -0.02025539 -0.01168903
v 0.06020853 -0.02208316 -0.01067203
v 0.05975899 -0.02025539 -0.01292238
v 0.05975777 -0.02321851 -0.01300061
v 0.05988237 -0.02025539 -0.01423641
v 0.06016577 -0.02025539 -0.01520574
f 1 2 3
f 1 3 4
f 1 4 5
f 1 5 2
f 2 6 3
f 2 5 6
f 3 6 7
f 3 7 8
f 3 8 4
f 4 9 10
f 4 10 11
f 4 11 5
f 4 8 12
f 4 12 13
f 4 13 30
f 4 30 37
f 4 37 45
f 4 45 53
f 4 53 56
f 4 56 49
f 4 49 39
f 4 39 31
f 4 31 16
f 4 16 9
f 5 11 22
f 5 22 19
f 5 19 18
f 5 18 33
f 5 33 38
f 5 38 41
f 5 41 48
f 5 48 55
f 5 55 54
f 5 54 58
f 5 58 64
f 5 64 63
f 5 63 61
f 5 61 59
f 5 59 51
f 5 51 50
f 5 50 43
f 5 43 42
f 5 42 35
f 5 35 28
f 5 28 27
f 5 27 34
f 5 34 24
f 5 24 14
f 5 14 7
f 5 7 6
f 7 14 8
f 8 14 15
f 8 15 12
f 9 16 17
f 9 17 18
f 9 18 19
f 9 19 20
f 9 20 10
f 10 20 21
f 10 21 22
f 10 22 11
f 12 15 23
f 12 23 24
f 12 24 25
f 12 25 26
f 12 26 13
f 13 26 27
f 13 27 28
f 13 28 29
f 13 29 30
f 14 23 15
f 14 24 23
f 16 18 17
f 16 31 32
f 16 32 33
f 16 33 18
f 19 22 21
f 19 21 20
f 24 34 25
f 25 34 26
f 26 34 27
f 28 35 30
f 28 30 29
f 30 35 36
f 30 36 37
f 31 38 32
f 31 39 40
f 31 40 41
f 31 41 38
f 32 38 33
f 35 42 36
f 36 42 37
f 37 42 43
f 37 43 44
f 37 44 45
f 39 46 47
f 39 47 48
f 39 48 41
f 39 41 40
f 39 49 46
f 43 50 44
f 44 50 45
f 45 50 51
f 45 51 52
f 45 52 53
f 46 49 54
f 46 54 47
f 47 54 55
f 47 55 48
f 49 56 57
f 49 57 58
f 49 58 54
f 51 59 60
f 51 60 52
f 52 60 53
f 53 60 59
f 53 59 61
f 53 61 62
f 53 62 56
f 56 62 61
f 56 61 63
f 56 63 64
f 56 64 57
f 57 64 58

