# https://github.com/mikedh/trimesh

o left_foot_upper_fore_047.obj
v 0.04646902 0.04271449 -0.01311632
v 0.04666366 0.04260192 -0.01311632
v 0.04751878 0.04187079 -0.01346407
v 0.04751878 0.04181952 -0.01353683
v 0.04751878 0.04176490 -0.01360958
v 0.04635130 0.04276576 -0.01313426
v 0.04635130 0.04000505 -0.01311632
v 0.04684401 0.04249381 -0.01311632
v 0.04751878 0.04191425 -0.01339593
v 0.04751878 0.04169915 -0.01369033
v 0.04635130 0.04268551 -0.01323733
v 0.04635130 0.03138078 -0.01559379
v 0.04751878 0.03954363 -0.01311632
v 0.04701156 0.04239016 -0.01311632
v 0.04751878 0.04195103 -0.01333457
v 0.04751878 0.04162002 -0.01377982
v 0.04664400 0.04235672 -0.01344686
v 0.04635130 0.04260192 -0.01333554
v 0.04635130 0.03862637 -0.01559379
v 0.04751878 0.03182771 -0.01559379
v 0.04751878 0.04204799 -0.01313669
v 0.04741455 0.04212824 -0.01311632
v 0.04714562 0.04230545 -0.01311632
v 0.04751878 0.04198335 -0.01327540
v 0.04751878 0.04153531 -0.01386906
v 0.04635130 0.04251164 -0.01343327
v 0.04635130 0.03906662 -0.01543519
v 0.04664400 0.03888495 -0.01549703
v 0.04709922 0.03860074 -0.01559379
v 0.04751878 0.03764447 -0.01559379
v 0.04751878 0.04201233 -0.01321599
v 0.04729203 0.04220960 -0.01311632
v 0.04635130 0.04241022 -0.01353489
v 0.04751878 0.04143611 -0.01396461
v 0.04635130 0.03975317 -0.01515169
v 0.04664400 0.03956258 -0.01521911
v 0.04751878 0.03899306 -0.01541700
v 0.04734437 0.03856953 -0.01559379
v 0.04751878 0.03855059 -0.01559209
v 0.04635130 0.04228873 -0.01364717
v 0.04751878 0.04131797 -0.01407059
v 0.04664400 0.04204577 -0.01375339
v 0.04635130 0.03984233 -0.01511023
v 0.04751878 0.03966400 -0.01510537
v 0.04635130 0.03993038 -0.01506924
v 0.04635130 0.04215053 -0.01376721
v 0.04751878 0.04118757 -0.01418020
v 0.04635130 0.04010648 -0.01498679
v 0.04635130 0.04061136 -0.01474210
v 0.04751878 0.04006635 -0.01490094
v 0.04635130 0.04199450 -0.01389137
v 0.04751878 0.04103488 -0.01429709
v 0.04697167 0.04148516 -0.01410696
v 0.04635130 0.04100479 -0.01453330
v 0.04751878 0.04037842 -0.01472682
v 0.04635130 0.04180948 -0.01402863
v 0.04751878 0.04085433 -0.01442586
v 0.04664400 0.04157097 -0.01412855
v 0.04635130 0.04132355 -0.01434850
v 0.04751878 0.04063811 -0.01456894
v 0.04635130 0.04158769 -0.01418069
v 0.04664400 0.04135030 -0.01427818
f 1 2 3
f 1 3 4
f 1 4 5
f 1 5 6
f 1 6 7
f 1 7 13
f 1 13 22
f 1 22 32
f 1 32 23
f 1 23 14
f 1 14 8
f 1 8 2
f 2 8 9
f 2 9 3
f 3 9 15
f 3 15 24
f 3 24 31
f 3 31 21
f 3 21 13
f 3 13 20
f 3 20 30
f 3 30 39
f 3 39 37
f 3 37 44
f 3 44 50
f 3 50 55
f 3 55 60
f 3 60 57
f 3 57 52
f 3 52 47
f 3 47 41
f 3 41 34
f 3 34 25
f 3 25 16
f 3 16 10
f 3 10 5
f 3 5 4
f 5 10 11
f 5 11 6
f 6 11 18
f 6 18 26
f 6 26 33
f 6 33 40
f 6 40 46
f 6 46 51
f 6 51 56
f 6 56 61
f 6 61 59
f 6 59 54
f 6 54 49
f 6 49 48
f 6 48 45
f 6 45 43
f 6 43 35
f 6 35 27
f 6 27 19
f 6 19 12
f 6 12 7
f 7 12 13
f 8 14 15
f 8 15 9
f 10 16 17
f 10 17 11
f 11 17 18
f 12 19 29
f 12 29 38
f 12 38 30
f 12 30 20
f 12 20 13
f 13 21 22
f 14 23 24
f 14 24 15
f 16 25 26
f 16 26 17
f 17 26 18
f 19 27 28
f 19 28 29
f 21 31 22
f 22 31 32
f 23 32 24
f 24 32 31
f 25 33 26
f 25 34 33
f 27 35 36
f 27 36 37
f 27 37 28
f 28 37 29
f 29 37 38
f 30 38 39
f 33 34 40
f 34 41 42
f 34 42 40
f 35 43 36
f 36 44 37
f 36 43 45
f 36 45 44
f 37 39 38
f 40 42 46
f 41 47 46
f 41 46 42
f 44 45 48
f 44 48 49
f 44 49 50
f 46 47 51
f 47 52 53
f 47 53 51
f 49 54 50
f 50 54 55
f 51 53 56
f 52 57 58
f 52 58 56
f 52 56 53
f 54 59 55
f 55 59 60
f 56 58 61
f 57 60 62
f 57 62 61
f 57 61 58
f 59 61 62
f 59 62 60

