# https://github.com/mikedh/trimesh

o left_shin_distal_front_spacer_4_001.obj
v 0.04715174 0.02525000 -0.11292204
v 0.04981806 0.02525000 -0.11292204
v 0.04724147 0.02525000 -0.11263185
v 0.04715174 0.03675000 -0.11292204
v 0.05208011 0.02525000 -0.11282169
v 0.04981806 0.03675000 -0.11292204
v 0.04739633 0.02525000 -0.11226446
v 0.04729309 0.03291592 -0.11250919
v 0.04724147 0.03675000 -0.11263185
v 0.05208011 0.02525000 -0.11014877
v 0.05208011 0.03675000 -0.11282169
v 0.04758688 0.02525000 -0.11191423
v 0.04739633 0.03675000 -0.11226446
v 0.05169418 0.02525000 -0.11006100
v 0.05208011 0.03675000 -0.11014877
v 0.05182395 0.03291592 -0.11009045
v 0.04769928 0.02525000 -0.11174926
v 0.04758688 0.03675000 -0.11191423
v 0.05129860 0.02525000 -0.11001125
v 0.05169418 0.03675000 -0.11006100
v 0.05143078 0.03291592 -0.11002783
v 0.04781169 0.02525000 -0.11158458
v 0.04769928 0.03675000 -0.11174926
v 0.05090012 0.02525000 -0.11000124
v 0.05129860 0.03675000 -0.11001125
v 0.04806785 0.02525000 -0.11127952
v 0.04789707 0.03291592 -0.11148280
v 0.04781169 0.03675000 -0.11158458
v 0.05050261 0.02525000 -0.11003126
v 0.05090012 0.03675000 -0.11000124
v 0.05063479 0.03291592 -0.11002126
v 0.04835344 0.02525000 -0.11100105
v 0.04806785 0.03675000 -0.11127952
v 0.05010944 0.02525000 -0.11010045
v 0.05050261 0.03675000 -0.11003126
v 0.05037139 0.03291592 -0.11005414
v 0.04866508 0.02525000 -0.11075231
v 0.04835344 0.03675000 -0.11100105
v 0.04972592 0.02525000 -0.11020852
v 0.05010944 0.03675000 -0.11010045
v 0.04900036 0.02525000 -0.11053617
v 0.04888844 0.02908408 -0.11060822
v 0.04866508 0.03675000 -0.11075231
v 0.04954067 0.02525000 -0.11028114
v 0.04972592 0.03675000 -0.11020852
v 0.04917789 0.02525000 -0.11044497
v 0.04911855 0.03291592 -0.11047527
v 0.04900036 0.03675000 -0.11053617
v 0.04935494 0.02525000 -0.11035405
v 0.04954067 0.03675000 -0.11028114
v 0.04935494 0.03675000 -0.11035405
v 0.04917789 0.03675000 -0.11044497
f 1 2 5
f 1 5 10
f 1 10 14
f 1 14 19
f 1 19 24
f 1 24 29
f 1 29 34
f 1 34 39
f 1 39 44
f 1 44 49
f 1 49 46
f 1 46 41
f 1 41 37
f 1 37 32
f 1 32 26
f 1 26 22
f 1 22 17
f 1 17 12
f 1 12 7
f 1 7 3
f 1 3 9
f 1 9 4
f 1 4 6
f 1 6 2
f 2 6 11
f 2 11 5
f 3 7 8
f 3 8 9
f 4 9 13
f 4 13 18
f 4 18 23
f 4 23 28
f 4 28 33
f 4 33 38
f 4 38 43
f 4 43 48
f 4 48 52
f 4 52 51
f 4 51 50
f 4 50 45
f 4 45 40
f 4 40 35
f 4 35 30
f 4 30 25
f 4 25 20
f 4 20 15
f 4 15 11
f 4 11 6
f 5 11 15
f 5 15 10
f 7 12 18
f 7 18 13
f 7 13 8
f 8 13 9
f 10 15 16
f 10 16 14
f 12 17 23
f 12 23 18
f 14 16 20
f 14 20 21
f 14 21 19
f 15 20 16
f 17 22 28
f 17 28 23
f 19 21 25
f 19 25 30
f 19 30 24
f 20 25 21
f 22 26 27
f 22 27 28
f 24 30 31
f 24 31 29
f 26 32 38
f 26 38 33
f 26 33 27
f 27 33 28
f 29 31 35
f 29 35 36
f 29 36 34
f 30 35 31
f 32 37 43
f 32 43 38
f 34 36 40
f 34 40 45
f 34 45 39
f 35 40 36
f 37 41 42
f 37 42 43
f 39 45 50
f 39 50 44
f 41 46 47
f 41 47 48
f 41 48 42
f 42 48 43
f 44 50 51
f 44 51 49
f 46 49 47
f 47 51 52
f 47 52 48
f 47 49 51

