# https://github.com/mikedh/trimesh

o left_foot_upper_aft_049.obj
v -0.12099584 -0.02071066 -0.01442835
v -0.12198984 -0.02152623 -0.01442835
v -0.12234512 -0.02077571 -0.01430204
v -0.12128712 -0.02071066 -0.01386837
v -0.10902734 -0.02464870 -0.01442847
v -0.11703160 -0.02273696 -0.01442847
v -0.12171163 -0.02209810 -0.01442835
v -0.12108075 -0.02358749 -0.01394143
v -0.12143994 -0.02285250 -0.01386837
v -0.12178869 -0.02210101 -0.01386837
v -0.12207475 -0.02147380 -0.01386837
v -0.11559872 -0.02684394 -0.01442847
v -0.12236864 -0.02082037 -0.01386837
v -0.11703160 -0.02456811 -0.01313038
v -0.10902734 -0.02746533 -0.01313038
v -0.10902734 -0.02911006 -0.01442847
v -0.12151440 -0.02249812 -0.01442835
v -0.12132761 -0.02287678 -0.01442835
v -0.12099584 -0.02355836 -0.01437142
v -0.12073722 -0.02398459 -0.01386837
v -0.11642553 -0.02747892 -0.01313038
v -0.11490253 -0.02714201 -0.01442847
v -0.11301902 -0.02836245 -0.01407612
v -0.11301902 -0.02883141 -0.01363140
v -0.11702637 -0.02631770 -0.01431805
v -0.11799425 -0.02558660 -0.01442835
v -0.11848929 -0.02525941 -0.01442835
v -0.12035451 -0.02398362 -0.01442835
v -0.10960990 -0.03052177 -0.01313038
v -0.10916972 -0.03062857 -0.01317866
v -0.10902734 -0.03020817 -0.01361691
v -0.10902734 -0.02970620 -0.01401386
v -0.10999000 -0.02883529 -0.01442847
v -0.11837957 -0.02575749 -0.01386837
v -0.11878971 -0.02545844 -0.01386837
v -0.11951072 -0.02492541 -0.01386837
v -0.12032055 -0.02430791 -0.01386837
v -0.11701331 -0.02708279 -0.01327993
v -0.11563921 -0.02790710 -0.01313038
v -0.11412927 -0.02747018 -0.01442847
v -0.11301902 -0.02806050 -0.01432542
v -0.11102057 -0.02940231 -0.01374385
v -0.11024731 -0.03029167 -0.01313038
v -0.11110155 -0.02994991 -0.01316583
v -0.11173244 -0.02974698 -0.01313038
v -0.11287665 -0.02927220 -0.01318425
v -0.11701331 -0.02665364 -0.01395236
v -0.11834300 -0.02550796 -0.01425198
v -0.11891380 -0.02499046 -0.01440929
v -0.11962828 -0.02450791 -0.01440331
v -0.11834300 -0.02562253 -0.01410433
v -0.11762591 -0.02629246 -0.01386837
v -0.11900915 -0.02515260 -0.01410827
v -0.11102057 -0.02892947 -0.01413749
v -0.11262847 -0.02805079 -0.01442847
v -0.11107935 -0.02857994 -0.01438375
v -0.11059737 -0.02866053 -0.01442847
v -0.11701070 -0.02687404 -0.01365223
v -0.11484244 -0.02832944 -0.01313038
v -0.11060521 -0.03016156 -0.01313038
v -0.11222486 -0.02956154 -0.01313038
v -0.11364860 -0.02894306 -0.01313038
v -0.11224446 -0.02816633 -0.01442847
v -0.11447410 -0.02849936 -0.01316151
f 1 2 3
f 1 3 4
f 1 4 5
f 1 5 6
f 1 6 2
f 2 7 8
f 2 8 9
f 2 9 10
f 2 10 11
f 2 11 3
f 2 6 12
f 2 12 7
f 3 11 13
f 3 13 4
f 4 13 14
f 4 14 15
f 4 15 5
f 5 15 31
f 5 31 32
f 5 32 16
f 5 16 33
f 5 33 57
f 5 57 63
f 5 63 55
f 5 55 40
f 5 40 22
f 5 22 12
f 5 12 6
f 7 17 8
f 7 12 17
f 8 18 19
f 8 19 20
f 8 20 9
f 8 17 18
f 9 20 21
f 9 21 10
f 10 21 11
f 11 21 13
f 12 22 23
f 12 23 24
f 12 24 25
f 12 25 26
f 12 26 27
f 12 27 28
f 12 28 18
f 12 18 17
f 13 21 14
f 14 21 39
f 14 39 59
f 14 59 62
f 14 62 61
f 14 61 45
f 14 45 60
f 14 60 43
f 14 43 29
f 14 29 15
f 15 29 30
f 15 30 31
f 16 32 33
f 18 28 19
f 19 28 34
f 19 34 35
f 19 35 36
f 19 36 37
f 19 37 20
f 20 37 38
f 20 38 21
f 21 38 39
f 22 40 23
f 23 40 41
f 23 41 31
f 23 31 42
f 23 42 24
f 24 42 30
f 24 30 29
f 24 29 43
f 24 43 44
f 24 44 45
f 24 45 46
f 24 46 47
f 24 47 25
f 25 47 26
f 26 47 27
f 27 47 48
f 27 48 49
f 27 49 28
f 28 49 50
f 28 50 51
f 28 51 52
f 28 52 53
f 28 53 34
f 30 42 31
f 31 41 54
f 31 54 32
f 32 54 55
f 32 55 56
f 32 56 57
f 32 57 33
f 34 38 35
f 34 53 58
f 34 58 38
f 35 38 36
f 36 38 37
f 38 58 39
f 39 58 59
f 40 55 41
f 41 55 54
f 43 60 44
f 44 60 45
f 45 61 46
f 46 61 62
f 46 62 47
f 47 52 51
f 47 51 50
f 47 50 48
f 47 62 58
f 47 58 52
f 48 50 49
f 52 58 53
f 55 63 56
f 56 63 57
f 58 62 64
f 58 64 59
f 59 64 62

