# https://github.com/mikedh/trimesh

o left_shin_output_adapter_104.obj
v 0.01097581 0.02949928 0.00532024
v 0.01097581 0.02915022 0.00532024
v 0.01097581 0.02949928 0.00256678
v 0.01096129 0.03026286 0.00532763
v 0.01064629 0.02949928 0.00796071
v 0.01097581 0.02915022 0.00256678
v 0.01064629 0.02915022 0.00796071
v 0.00862176 0.02949928 0.00256678
v 0.01096129 0.03026286 0.00256731
v 0.01032784 0.03026286 0.00758637
v 0.00862176 0.02949928 0.00796071
v 0.00862176 0.02915022 0.00256678
v 0.00862176 0.02915022 0.00796071
v 0.00862176 0.03026286 0.00256731
v 0.00862176 0.03026286 0.00758637
f 1 2 6
f 1 6 3
f 1 3 9
f 1 9 4
f 1 4 5
f 1 5 7
f 1 7 2
f 2 7 13
f 2 13 12
f 2 12 6
f 3 6 12
f 3 12 8
f 3 8 14
f 3 14 9
f 4 10 5
f 4 9 14
f 4 14 15
f 4 15 10
f 5 10 15
f 5 15 11
f 5 11 13
f 5 13 7
f 8 12 13
f 8 13 11
f 8 11 15
f 8 15 14

