# https://github.com/mikedh/trimesh

o left_ankle_tapped_load_plate_148.obj
v 0.02801386 0.01876756 -0.02945695
v 0.02801386 0.01876756 -0.03154068
v 0.02706688 0.01876756 -0.02945695
v 0.02847706 0.01686541 -0.02945695
v 0.02705686 0.01876756 -0.03154068
v 0.02847706 0.01686541 -0.03154068
v 0.02705686 0.01876756 -0.03150253
v 0.02705686 0.01875802 -0.02945695
v 0.02847706 0.01665098 -0.02945695
v 0.02705686 0.01665098 -0.03154068
v 0.02847706 0.01665098 -0.03154068
v 0.02705686 0.01665802 -0.02945695
v 0.02707411 0.01665098 -0.02945695
v 0.02705686 0.01665098 -0.02983763
f 1 2 5
f 1 5 7
f 1 7 3
f 1 3 8
f 1 8 12
f 1 12 13
f 1 13 9
f 1 9 4
f 1 4 6
f 1 6 2
f 2 6 11
f 2 11 10
f 2 10 5
f 3 7 8
f 4 9 11
f 4 11 6
f 5 10 14
f 5 14 12
f 5 12 8
f 5 8 7
f 9 13 14
f 9 14 10
f 9 10 11
f 12 14 13

