# https://github.com/mikedh/trimesh

o left_shin_stationary_idler_spider_025.obj
v -0.06994780 -0.04865000 -0.11566366
v -0.06605820 -0.04865000 -0.11566366
v -0.06998979 -0.04865000 -0.11524836
v -0.06995649 -0.04505031 -0.11557839
v -0.06995600 -0.04326969 -0.11558005
v -0.06605820 -0.04326969 -0.11566366
v -0.06505913 -0.04865000 -0.11375160
v -0.06998979 -0.04595037 -0.11524836
v -0.06998979 -0.04865000 -0.11475055
v -0.06998931 -0.04326969 -0.11524947
v -0.06505913 -0.04326969 -0.11375160
v -0.06509195 -0.04865000 -0.11000666
v -0.06998979 -0.04326969 -0.11475110
v -0.06994008 -0.04865000 -0.11425495
v -0.06998979 -0.04595037 -0.11475055
v -0.06509243 -0.04326969 -0.11000666
v -0.06537333 -0.04865000 -0.11002493
v -0.06994008 -0.04595037 -0.11425495
v -0.06994008 -0.04326969 -0.11425606
v -0.06989085 -0.04595037 -0.11401075
v -0.06986575 -0.04865000 -0.11388893
v -0.06561996 -0.04326969 -0.11004321
v -0.06545586 -0.04505031 -0.11003103
v -0.06562141 -0.04865000 -0.11004376
v -0.06990726 -0.04505031 -0.11409215
v -0.06984162 -0.04326969 -0.11376711
v -0.06969441 -0.04865000 -0.11329034
v -0.06611032 -0.04326969 -0.11012959
v -0.06611177 -0.04865000 -0.11013014
v -0.06979239 -0.04505031 -0.11360763
v -0.06969441 -0.04326969 -0.11329034
v -0.06959789 -0.04595037 -0.11306109
v -0.06954914 -0.04865000 -0.11294702
v -0.06635068 -0.04326969 -0.11019715
v -0.06659152 -0.04595037 -0.11026470
v -0.06659152 -0.04865000 -0.11026470
v -0.06950039 -0.04326969 -0.11283184
v -0.06926245 -0.04865000 -0.11239549
v -0.06659055 -0.04326969 -0.11026470
v -0.06682415 -0.04326969 -0.11035607
v -0.06690089 -0.04505031 -0.11038597
v -0.06705533 -0.04865000 -0.11044688
v -0.06926293 -0.04326969 -0.11239549
v -0.06890192 -0.04865000 -0.11188827
v -0.06898300 -0.04326969 -0.11198573
v -0.06705678 -0.04326969 -0.11044744
v -0.06735119 -0.04684989 -0.11059805
v -0.06749840 -0.04865000 -0.11067392
v -0.06866205 -0.04865000 -0.11160198
v -0.06866349 -0.04326969 -0.11160365
v -0.06749743 -0.04326969 -0.11067336
v -0.06749840 -0.04595037 -0.11067392
v -0.06791540 -0.04326969 -0.11094359
v -0.06791588 -0.04595037 -0.11094414
v -0.06801338 -0.04865000 -0.11102167
v -0.06830537 -0.04865000 -0.11125479
v -0.06830682 -0.04326969 -0.11125590
v -0.06854332 -0.04505031 -0.11148625
v -0.06866205 -0.04595037 -0.11160198
f 1 2 7
f 1 7 12
f 1 12 17
f 1 17 24
f 1 24 29
f 1 29 36
f 1 36 42
f 1 42 48
f 1 48 55
f 1 55 56
f 1 56 49
f 1 49 44
f 1 44 38
f 1 38 33
f 1 33 27
f 1 27 21
f 1 21 14
f 1 14 9
f 1 9 3
f 1 3 4
f 1 4 5
f 1 5 6
f 1 6 2
f 2 6 11
f 2 11 7
f 3 8 4
f 3 9 15
f 3 15 13
f 3 13 8
f 4 10 5
f 4 8 10
f 5 10 13
f 5 13 19
f 5 19 26
f 5 26 31
f 5 31 37
f 5 37 43
f 5 43 45
f 5 45 50
f 5 50 57
f 5 57 53
f 5 53 51
f 5 51 46
f 5 46 40
f 5 40 39
f 5 39 34
f 5 34 28
f 5 28 22
f 5 22 16
f 5 16 11
f 5 11 6
f 7 11 12
f 8 13 10
f 9 14 18
f 9 18 15
f 11 16 12
f 12 16 17
f 13 15 18
f 13 18 19
f 14 20 25
f 14 25 18
f 14 21 20
f 16 22 23
f 16 23 17
f 17 23 22
f 17 22 24
f 18 25 19
f 19 25 26
f 20 21 26
f 20 26 25
f 21 27 26
f 22 28 29
f 22 29 24
f 26 27 30
f 26 30 31
f 27 32 31
f 27 31 30
f 27 33 32
f 28 34 35
f 28 35 36
f 28 36 29
f 31 32 37
f 32 33 37
f 33 38 37
f 34 39 35
f 35 39 40
f 35 40 41
f 35 41 36
f 36 41 42
f 37 38 43
f 38 44 45
f 38 45 43
f 40 46 41
f 41 46 42
f 42 46 47
f 42 47 48
f 44 49 50
f 44 50 45
f 46 51 47
f 47 51 48
f 48 51 52
f 48 52 53
f 48 53 54
f 48 54 55
f 49 56 57
f 49 57 58
f 49 58 59
f 49 59 50
f 50 59 58
f 50 58 57
f 51 53 52
f 53 57 55
f 53 55 54
f 55 57 56

