# https://github.com/mikedh/trimesh

o left_shin_idler_fork_plate_081.obj
v 0.05151729 -0.04275000 -0.07178497
v 0.05151729 -0.04825000 -0.07178497
v 0.05151729 -0.04275000 -0.07202974
v 0.03369981 -0.04275000 -0.07178497
v 0.05151729 -0.04825000 -0.07202974
v 0.03369981 -0.04825000 -0.07178497
v 0.04624966 -0.04275000 -0.07266053
v 0.03369981 -0.04275000 -0.07193838
v 0.04624966 -0.04825000 -0.07266053
v 0.03369981 -0.04825000 -0.07193838
v 0.03581034 -0.04275000 -0.07266053
v 0.03581034 -0.04825000 -0.07266053
f 1 2 5
f 1 5 3
f 1 3 7
f 1 7 11
f 1 11 8
f 1 8 4
f 1 4 6
f 1 6 2
f 2 6 10
f 2 10 12
f 2 12 9
f 2 9 5
f 3 5 9
f 3 9 7
f 4 8 10
f 4 10 6
f 7 9 12
f 7 12 11
f 8 11 12
f 8 12 10

