# https://github.com/mikedh/trimesh

o left_shin_distal_rear_spacer_outer_0_003.obj
v 0.06380715 -0.04275000 -0.07218026
v 0.06656167 -0.04275000 -0.07218026
v 0.06385851 -0.04275000 -0.07201478
v 0.06380715 -0.03125000 -0.07218026
v 0.06730499 -0.04275000 -0.07181529
v 0.06656167 -0.03125000 -0.07218026
v 0.06401327 -0.04275000 -0.07164737
v 0.06396157 -0.03891592 -0.07176984
v 0.06385851 -0.03125000 -0.07201478
v 0.06730499 -0.04275000 -0.06940014
v 0.06730499 -0.03125000 -0.07181529
v 0.06420398 -0.04275000 -0.07129710
v 0.06414030 -0.03508408 -0.07141385
v 0.06401327 -0.03125000 -0.07164737
v 0.06711942 -0.04275000 -0.06941429
v 0.06730499 -0.03125000 -0.06940014
v 0.06442859 -0.04275000 -0.07096751
v 0.06435360 -0.03508408 -0.07107746
v 0.06420398 -0.03125000 -0.07129710
v 0.06685749 -0.03891592 -0.06946029
v 0.06672670 -0.04275000 -0.06948342
v 0.06711942 -0.03125000 -0.06941429
v 0.06698863 -0.03508408 -0.06943715
v 0.06468504 -0.04275000 -0.07066242
v 0.06459944 -0.03891592 -0.07076421
v 0.06442859 -0.03125000 -0.07096751
v 0.06672670 -0.03125000 -0.06948342
v 0.06653496 -0.04275000 -0.06953731
v 0.06659865 -0.03891592 -0.06951935
v 0.06497059 -0.04275000 -0.07038400
v 0.06468504 -0.03125000 -0.07066242
v 0.06653496 -0.03125000 -0.06953731
v 0.06634288 -0.04275000 -0.06959147
v 0.06634288 -0.03125000 -0.06959147
v 0.06528216 -0.04275000 -0.07013525
v 0.06507433 -0.03508408 -0.07030099
v 0.06497059 -0.03125000 -0.07038400
v 0.06615731 -0.04275000 -0.06966414
v 0.06615731 -0.03125000 -0.06966414
v 0.06561668 -0.04275000 -0.06991915
v 0.06528216 -0.03125000 -0.07013525
v 0.06597173 -0.04275000 -0.06973708
v 0.06597173 -0.03125000 -0.06973708
v 0.06579437 -0.04275000 -0.06982798
v 0.06561668 -0.03125000 -0.06991915
v 0.06585327 -0.03891592 -0.06979777
v 0.06579437 -0.03125000 -0.06982798
f 1 2 5
f 1 5 10
f 1 10 15
f 1 15 21
f 1 21 28
f 1 28 33
f 1 33 38
f 1 38 42
f 1 42 44
f 1 44 40
f 1 40 35
f 1 35 30
f 1 30 24
f 1 24 17
f 1 17 12
f 1 12 7
f 1 7 3
f 1 3 9
f 1 9 4
f 1 4 6
f 1 6 2
f 2 6 11
f 2 11 5
f 3 7 8
f 3 8 9
f 4 9 14
f 4 14 19
f 4 19 26
f 4 26 31
f 4 31 37
f 4 37 41
f 4 41 45
f 4 45 47
f 4 47 43
f 4 43 39
f 4 39 34
f 4 34 32
f 4 32 27
f 4 27 22
f 4 22 16
f 4 16 11
f 4 11 6
f 5 11 16
f 5 16 10
f 7 12 13
f 7 13 14
f 7 14 8
f 8 14 9
f 10 16 22
f 10 22 15
f 12 17 18
f 12 18 19
f 12 19 13
f 13 19 14
f 15 20 21
f 15 22 23
f 15 23 20
f 17 24 25
f 17 25 26
f 17 26 18
f 18 26 19
f 20 23 27
f 20 27 21
f 21 27 29
f 21 29 28
f 22 27 23
f 24 30 37
f 24 37 31
f 24 31 25
f 25 31 26
f 27 32 29
f 28 29 33
f 29 32 34
f 29 34 33
f 30 35 36
f 30 36 37
f 33 34 39
f 33 39 38
f 35 40 45
f 35 45 41
f 35 41 36
f 36 41 37
f 38 39 43
f 38 43 42
f 40 44 47
f 40 47 45
f 42 46 44
f 42 43 46
f 43 47 46
f 44 46 47

