# https://github.com/mikedh/trimesh

o left_thigh_idler_fork_plate_025.obj
v -0.04841226 -0.04174785 -0.12199070
v -0.04841226 -0.03625108 -0.12199070
v -0.04645213 -0.04174946 -0.12199070
v -0.04810569 -0.04174946 -0.12114803
v -0.04708984 -0.04174946 -0.11319910
v -0.04810569 -0.03625054 -0.12114803
v -0.04645213 -0.03625054 -0.12199070
v -0.04708984 -0.03625054 -0.11319910
v -0.03843641 -0.04174946 -0.12199070
v -0.03759254 -0.04174946 -0.11319910
v -0.03843641 -0.03625054 -0.12199070
v -0.03759254 -0.03625054 -0.11319910
v -0.03833493 -0.04174946 -0.12158357
v -0.03757865 -0.04174946 -0.11344096
v -0.03833493 -0.03625054 -0.12158357
v -0.03757865 -0.03625054 -0.11344096
v -0.03800700 -0.04174946 -0.12025372
v -0.03750068 -0.04174946 -0.11480782
v -0.03800700 -0.03625054 -0.12025372
v -0.03750068 -0.03625054 -0.11480782
v -0.03761818 -0.04174946 -0.11754412
v -0.03761818 -0.03625054 -0.11754412
f 1 2 7
f 1 7 11
f 1 11 9
f 1 9 3
f 1 3 4
f 1 4 5
f 1 5 8
f 1 8 2
f 2 6 7
f 2 8 6
f 3 9 13
f 3 13 17
f 3 17 21
f 3 21 18
f 3 18 14
f 3 14 10
f 3 10 5
f 3 5 4
f 5 10 12
f 5 12 8
f 6 8 12
f 6 12 16
f 6 16 20
f 6 20 22
f 6 22 19
f 6 19 15
f 6 15 11
f 6 11 7
f 9 11 15
f 9 15 13
f 10 14 16
f 10 16 12
f 13 15 19
f 13 19 17
f 14 18 20
f 14 20 16
f 17 19 22
f 17 22 21
f 18 21 22
f 18 22 20

