# https://github.com/mikedh/trimesh

o left_thigh_output_fork_plate_094.obj
v -0.08075608 0.03575000 -0.12885223
v -0.08106701 0.03575000 -0.12848172
v -0.08084268 0.03208369 -0.12874903
v -0.08075608 0.03025000 -0.12885223
v -0.08872255 0.03575000 -0.12885223
v -0.08106701 0.03025000 -0.12848172
v -0.08144723 0.03575000 -0.12802919
v -0.08129135 0.03391631 -0.12821449
v -0.08872255 0.03025000 -0.12885223
v -0.08899225 0.03575000 -0.12836925
v -0.08144723 0.03025000 -0.12802919
v -0.08918112 0.03575000 -0.12802919
v -0.08899225 0.03025000 -0.12836925
v -0.08918112 0.03025000 -0.12802919
f 1 2 3
f 1 3 4
f 1 4 9
f 1 9 5
f 1 5 10
f 1 10 12
f 1 12 7
f 1 7 2
f 2 6 3
f 2 7 8
f 2 8 6
f 3 6 4
f 4 6 11
f 4 11 14
f 4 14 13
f 4 13 9
f 5 9 13
f 5 13 10
f 6 8 11
f 7 11 8
f 7 12 14
f 7 14 11
f 10 13 14
f 10 14 12

