# https://github.com/mikedh/trimesh

o logic_buck_frame_carrier_029.obj
v 0.06768000 0.05216000 0.32559999
v 0.06768000 0.05216000 0.32759999
v 0.06983634 0.05031259 0.32759999
v 0.07098070 0.04943773 0.32759999
v 0.07151731 0.05024369 0.32559999
v 0.07495359 0.04996254 0.32559999
v 0.07495359 0.04996254 0.32759999
v 0.08256000 0.05216000 0.32693333
v 0.08492372 0.05149333 0.32559999
v 0.08492372 0.05149333 0.32759999
f 3 2 1
f 1 4 3
f 1 2 8
f 8 9 1
f 2 10 8
f 8 10 9
f 5 4 1
f 5 6 4
f 4 6 7
f 9 6 5
f 1 9 5
f 7 10 2
f 7 3 4
f 2 3 7
f 7 6 9
f 9 10 7

