# https://github.com/mikedh/trimesh

o lower_grip_shell_191.obj
v 0.05499074 -0.01187058 -0.03034625
v 0.05500000 -0.01592954 -0.02649475
v 0.05500000 -0.01390709 -0.03026807
v 0.05500315 -0.01187377 -0.03142618
v 0.05502960 -0.01188048 -0.03142441
v 0.05507741 -0.01189210 -0.03142117
v 0.05514674 -0.01190793 -0.03141641
v 0.05633485 -0.01198589 -0.02558083
v 0.05831036 -0.01126522 -0.03160030
v 0.05835397 -0.01123392 -0.03159849
v 0.05839716 -0.01120204 -0.03159674
v 0.05843992 -0.01116958 -0.03159503
v 0.05848223 -0.01113654 -0.03159336
v 0.05850993 -0.01111442 -0.03159235
v 0.05851157 -0.01523969 -0.02647937
v 0.05855151 -0.01108045 -0.03159074
v 0.05859263 -0.01104593 -0.03158917
v 0.05863328 -0.01101086 -0.03158767
v 0.05867346 -0.01097524 -0.03158618
v 0.05871316 -0.01093908 -0.03158474
v 0.05875237 -0.01090239 -0.03158333
v 0.05879109 -0.01086518 -0.03158195
v 0.05882931 -0.01082745 -0.03158063
v 0.05886702 -0.01078921 -0.03157933
v 0.05890421 -0.01075047 -0.03157806
v 0.05894088 -0.01071122 -0.03157686
v 0.05897702 -0.01067149 -0.03157568
v 0.05901262 -0.01063128 -0.03157454
v 0.05904769 -0.01059058 -0.03157347
v 0.05908220 -0.01054942 -0.03157241
v 0.05911617 -0.01050780 -0.03157139
v 0.05914956 -0.01046573 -0.03157041
v 0.05918239 -0.01042321 -0.03156948
v 0.05921464 -0.01038025 -0.03156858
v 0.05924632 -0.01033686 -0.03156773
v 0.05927741 -0.01029305 -0.03156687
v 0.05927807 -0.01097998 -0.02540195
v 0.05929163 -0.01801524 -0.02957576
v 0.05930791 -0.01024883 -0.03156610
v 0.05933782 -0.01020420 -0.03156535
v 0.05936712 -0.01015917 -0.03156464
v 0.05939582 -0.01011374 -0.03156399
v 0.05942390 -0.01006794 -0.03156335
v 0.05945137 -0.01002176 -0.03156276
v 0.05945641 -0.01001328 -0.03011230
v 0.05946746 -0.00999404 -0.03083718
v 0.06029497 -0.00997038 -0.03005585
v 0.06060780 -0.01145846 -0.02998676
v 0.06060780 -0.01010826 -0.03003119
f 37 38 48
f 1 2 8
f 8 2 37
f 38 37 15
f 15 2 38
f 37 2 15
f 48 38 44
f 7 9 38
f 3 2 1
f 38 2 3
f 49 37 48
f 48 44 49
f 4 3 1
f 4 44 9
f 38 3 4
f 9 7 6
f 6 7 38
f 1 8 45
f 45 8 37
f 5 4 9
f 9 6 5
f 38 4 5
f 5 6 38
f 21 18 9
f 21 22 38
f 9 44 42
f 42 35 9
f 29 21 9
f 47 49 44
f 37 49 47
f 47 45 37
f 38 9 10
f 9 18 14
f 38 13 14
f 38 18 19
f 43 44 38
f 38 42 43
f 43 42 44
f 35 42 39
f 33 29 9
f 38 26 27
f 26 29 27
f 46 47 44
f 45 47 46
f 1 45 46
f 46 4 1
f 44 4 46
f 11 10 9
f 9 14 11
f 38 10 11
f 38 14 16
f 16 14 18
f 25 26 38
f 38 24 25
f 25 24 26
f 22 21 23
f 38 22 23
f 23 24 38
f 26 24 23
f 23 29 26
f 21 29 23
f 18 21 20
f 20 19 18
f 20 21 38
f 38 19 20
f 38 35 36
f 36 39 38
f 35 39 36
f 38 39 40
f 40 39 42
f 9 35 34
f 34 33 9
f 34 35 38
f 38 33 34
f 29 33 31
f 28 29 38
f 38 27 28
f 28 27 29
f 12 14 13
f 12 11 14
f 12 13 38
f 38 11 12
f 17 18 38
f 38 16 17
f 17 16 18
f 41 42 38
f 38 40 41
f 41 40 42
f 38 29 30
f 30 31 38
f 29 31 30
f 32 33 38
f 38 31 32
f 32 31 33

