# https://github.com/mikedh/trimesh

o lower_grip_shell_144.obj
v 0.04525023 -0.00864506 -0.03086536
v 0.04800000 -0.01147571 -0.03072772
v 0.04828386 -0.01704854 -0.03049044
v 0.05000002 -0.00974513 -0.03065433
v 0.05000030 -0.00977252 -0.03065405
v 0.05000056 -0.00969034 -0.03065482
v 0.05000096 -0.00979991 -0.03065375
v 0.05000341 -0.00985464 -0.03065308
v 0.05000520 -0.00988197 -0.03065271
v 0.05000616 -0.00958092 -0.03065549
v 0.05000990 -0.00993655 -0.03065189
v 0.05001280 -0.00996379 -0.03065143
v 0.05001974 -0.01001813 -0.03065045
v 0.05002376 -0.01004522 -0.03064993
v 0.05002815 -0.01007226 -0.03064938
v 0.05003805 -0.01012613 -0.03064822
v 0.05052805 -0.01048368 -0.03061820
v 0.05066688 -0.00918653 -0.03062968
v 0.05066711 -0.00911348 -0.03063035
v 0.05066751 -0.00922305 -0.03062929
v 0.05066798 -0.00907696 -0.03063064
v 0.05067240 -0.00933250 -0.03062795
v 0.05067358 -0.00896754 -0.03063131
v 0.05068180 -0.00944166 -0.03062630
v 0.05069566 -0.00955033 -0.03062435
v 0.05070127 -0.00958642 -0.03062364
v 0.05071398 -0.00965833 -0.03062211
f 2 3 1
f 1 3 23
f 23 3 27
f 27 3 17
f 3 2 17
f 10 2 1
f 1 23 10
f 27 17 16
f 16 17 2
f 24 23 27
f 24 22 23
f 23 22 18
f 22 24 11
f 21 10 23
f 20 18 22
f 24 25 13
f 27 16 26
f 26 24 27
f 26 25 24
f 9 11 2
f 22 11 9
f 23 18 19
f 19 21 23
f 2 10 6
f 10 21 6
f 21 19 6
f 6 4 2
f 18 4 6
f 6 19 18
f 8 20 22
f 8 9 2
f 22 9 8
f 5 20 2
f 18 20 5
f 2 4 5
f 5 4 18
f 12 13 2
f 24 13 12
f 2 11 12
f 12 11 24
f 15 16 2
f 15 26 16
f 25 26 14
f 14 15 2
f 26 15 14
f 2 20 7
f 7 8 2
f 20 8 7
f 14 13 25
f 2 13 14

