# https://github.com/mikedh/trimesh

o lower_neck_bridge_085.obj
v -0.03343060 -0.02958290 0.04774285
v -0.03535965 -0.02958290 0.04825724
v -0.03343060 -0.02991973 0.04774285
v -0.03343060 -0.02958290 0.04560185
v -0.03535965 -0.02991686 0.04825724
v -0.03877751 -0.02958290 0.04825724
v -0.03541305 -0.02991973 0.04825724
v -0.03343060 -0.02991973 0.04560185
v -0.03839851 -0.02991973 0.04211466
v -0.03877751 -0.02958290 0.04184868
v -0.03877751 -0.02991973 0.04825724
v -0.03877751 -0.02991973 0.04184868
f 1 2 5
f 1 5 3
f 1 3 8
f 1 8 4
f 1 4 10
f 1 10 6
f 1 6 2
f 2 6 11
f 2 11 7
f 2 7 5
f 3 5 7
f 3 7 11
f 3 11 12
f 3 12 9
f 3 9 8
f 4 8 9
f 4 9 10
f 6 10 12
f 6 12 11
f 9 12 10

