# https://github.com/mikedh/trimesh

o lower_neck_idler_fork_plate_047.obj
v -0.05805040 -0.04175000 0.11401374
v -0.05927593 -0.04175000 0.11564140
v -0.05730022 -0.04063073 0.11278712
v -0.05805040 -0.04175000 0.12706735
v -0.05927593 -0.04175000 0.12779304
v -0.05927593 -0.03625000 0.11564140
v -0.05730022 -0.03625000 0.11278712
v -0.05730022 -0.04063073 0.12654585
v -0.05784772 -0.04063073 0.12694836
v -0.05927593 -0.03625000 0.12779304
v -0.05730022 -0.03625000 0.12654585
v -0.05784772 -0.03625000 0.12694836
f 1 2 3
f 1 3 8
f 1 8 4
f 1 4 5
f 1 5 2
f 2 5 10
f 2 10 6
f 2 6 7
f 2 7 3
f 3 7 11
f 3 11 8
f 4 8 9
f 4 9 5
f 5 9 12
f 5 12 10
f 6 10 12
f 6 12 11
f 6 11 7
f 8 11 12
f 8 12 9

