# https://github.com/mikedh/trimesh

o lower_grip_carrier_123.obj
v 0.06911542 -0.00423952 -0.02632499
v 0.06911542 0.00000000 -0.02632499
v 0.06932553 -0.00474919 -0.02632499
v 0.07241028 0.00233333 -0.02632499
v 0.07255035 -0.00549946 -0.02632499
v 0.07405771 -0.00561976 -0.02632499
v 0.07405771 0.00138024 -0.02632499
v 0.07570514 -0.00141317 -0.02632499
v 0.06911542 -0.00423952 -0.02627499
v 0.06911542 0.00000000 -0.02627499
v 0.06932553 -0.00474919 -0.02627499
v 0.07241028 0.00233333 -0.02627499
v 0.07255035 -0.00549946 -0.02627499
v 0.07405771 -0.00561976 -0.02627499
v 0.07405771 0.00138024 -0.02627499
v 0.07570514 -0.00141317 -0.02627499
f 10 2 1
f 1 9 10
f 8 7 16
f 16 7 15
f 16 6 8
f 16 14 6
f 1 2 5
f 5 7 8
f 8 6 5
f 5 2 4
f 4 7 5
f 5 3 1
f 1 3 11
f 11 9 1
f 12 7 4
f 15 7 12
f 4 2 12
f 2 10 12
f 13 10 9
f 13 16 15
f 9 11 13
f 14 16 13
f 15 12 13
f 13 12 10
f 6 14 13
f 13 5 6
f 3 5 13
f 13 11 3

