# https://github.com/mikedh/trimesh

o lower_neck_idler_fork_plate_097.obj
v -0.00420825 -0.04175000 -0.01542392
v -0.00450556 -0.04175000 -0.01535192
v -0.00439982 -0.03700000 -0.01537763
v -0.00420825 -0.03700000 -0.01542392
v -0.00420825 -0.04175000 -0.00851009
v -0.00523601 -0.04175000 -0.01509773
v -0.00460819 -0.03700000 -0.01531666
v -0.00450556 -0.03700000 -0.01535192
v -0.00420825 -0.03700000 -0.00851009
v -0.00523601 -0.04175000 -0.00791942
v -0.00523601 -0.03700000 -0.01509773
v -0.00491617 -0.03700000 -0.01520940
v -0.00523601 -0.03700000 -0.00791942
f 1 2 3
f 1 3 4
f 1 4 9
f 1 9 5
f 1 5 10
f 1 10 6
f 1 6 2
f 2 6 7
f 2 7 8
f 2 8 3
f 3 8 7
f 3 7 12
f 3 12 11
f 3 11 13
f 3 13 9
f 3 9 4
f 5 9 13
f 5 13 10
f 6 11 12
f 6 12 7
f 6 10 13
f 6 13 11

