# https://github.com/mikedh/trimesh

o lower_grip_backbone_061.obj
v 0.05270000 -0.00799987 -0.03100000
v 0.05270766 -0.00821358 -0.03060164
v 0.05270383 -0.00814878 -0.02919143
v 0.05270293 -0.00812232 -0.02919143
v 0.05270045 -0.00799131 -0.02919143
v 0.05270360 -0.00785997 -0.02919143
v 0.05270923 -0.00775323 -0.03100000
v 0.05270833 -0.00821358 -0.03100000
v 0.05270766 -0.00821358 -0.03058216
v 0.05270766 -0.00821347 -0.03038634
v 0.05270788 -0.00821347 -0.02919143
v 0.05270473 -0.00783350 -0.02919143
v 0.05271397 -0.00770194 -0.02919143
v 0.05271690 -0.00767559 -0.02919143
v 0.05273695 -0.00750833 -0.03100000
v 0.05466702 -0.00821358 -0.03100000
v 0.05466702 -0.00821358 -0.03058216
v 0.05466724 -0.00821347 -0.02919143
v 0.05273199 -0.00754402 -0.02919143
v 0.05275317 -0.00741235 -0.02919143
v 0.05277706 -0.00729353 -0.03058216
v 0.05278314 -0.00726586 -0.03100000
v 0.05500184 -0.00709169 -0.03100000
v 0.05466724 -0.00821347 -0.03058198
v 0.05500184 -0.00709169 -0.03058216
v 0.05500161 -0.00709202 -0.02919143
v 0.05275835 -0.00738611 -0.02919143
v 0.05277706 -0.00729353 -0.03058198
v 0.05278336 -0.00726311 -0.03058198
v 0.05279125 -0.00723280 -0.03058216
v 0.05282955 -0.00709169 -0.03100000
v 0.05282933 -0.00709169 -0.03058216
v 0.05282775 -0.00709202 -0.02919143
v 0.05278539 -0.00725444 -0.02919143
v 0.05281919 -0.00712343 -0.02919143
v 0.05282820 -0.00709202 -0.02978419
v 0.05282775 -0.00709202 -0.02933183
v 0.05282617 -0.00709740 -0.02919143
f 1 2 3
f 1 3 4
f 1 4 5
f 1 5 6
f 1 6 7
f 1 7 15
f 1 15 22
f 1 22 31
f 1 31 23
f 1 23 16
f 1 16 8
f 1 8 2
f 2 8 16
f 2 16 17
f 2 17 9
f 2 9 3
f 3 9 10
f 3 10 11
f 3 11 18
f 3 18 26
f 3 26 33
f 3 33 38
f 3 38 35
f 3 35 34
f 3 34 27
f 3 27 20
f 3 20 19
f 3 19 14
f 3 14 13
f 3 13 12
f 3 12 6
f 3 6 5
f 3 5 4
f 6 12 7
f 7 12 13
f 7 13 14
f 7 14 15
f 9 11 10
f 9 17 18
f 9 18 11
f 14 19 15
f 15 20 21
f 15 21 22
f 15 19 20
f 16 23 24
f 16 24 18
f 16 18 17
f 18 24 23
f 18 23 25
f 18 25 26
f 20 27 21
f 21 27 28
f 21 28 29
f 21 29 22
f 22 29 30
f 22 30 31
f 23 31 32
f 23 32 25
f 25 32 33
f 25 33 26
f 27 34 28
f 28 34 29
f 29 34 35
f 29 35 30
f 30 35 36
f 30 36 31
f 31 36 37
f 31 37 32
f 32 37 33
f 33 37 38
f 35 38 37
f 35 37 36

