# https://github.com/mikedh/trimesh

o lower_grip_shell_132.obj
v 0.03866667 0.00528062 -0.03335966
v 0.03866667 0.00573873 -0.03335767
v 0.03866667 0.00621122 -0.03335516
v 0.03866667 0.00673057 -0.03335187
v 0.03866667 0.00724263 -0.03334776
v 0.03866667 0.00772746 -0.03334330
v 0.03866667 0.00801467 -0.03334023
v 0.03866667 0.00848947 -0.03333453
v 0.04100000 0.00508667 -0.03328333
v 0.04100000 0.00553990 -0.03328149
v 0.04100000 0.00599614 -0.03327924
v 0.04100000 0.00624278 -0.03327777
v 0.04100000 0.00648942 -0.03327631
v 0.04100000 0.00662736 -0.03327533
v 0.04100000 0.00676529 -0.03327435
v 0.04100000 0.00707638 -0.03327179
v 0.04100000 0.00738748 -0.03326923
v 0.04100000 0.00779836 -0.03326514
v 0.04100000 0.00824909 -0.03326001
v 0.04100572 0.00892379 -0.03325072
v 0.04333333 0.00660364 -0.03317898
v 0.04450000 0.00545424 -0.03313733
v 0.04450000 0.00638913 -0.03313220
v 0.04450000 0.00652281 -0.03313129
v 0.04450000 0.00666075 -0.03313031
v 0.04450000 0.00727334 -0.03312524
v 0.04450000 0.00747245 -0.03312329
v 0.04450000 0.00767790 -0.03312125
v 0.04450000 0.00812168 -0.03311618
v 0.04566667 0.00644482 -0.03308356
v 0.04566667 0.00682690 -0.03308063
v 0.04566667 0.00736804 -0.03307595
v 0.04566667 0.00778335 -0.03307161
v 0.04800146 0.00487198 -0.03299508
v 0.04800987 0.00583904 -0.03299048
v 0.04806375 0.00888949 -0.03295736
f 34 36 1
f 1 36 8
f 36 20 8
f 9 34 1
f 1 10 9
f 36 34 35
f 22 35 34
f 10 35 22
f 34 9 22
f 22 9 10
f 11 35 10
f 36 35 32
f 2 10 1
f 2 11 10
f 3 11 2
f 19 8 20
f 17 32 26
f 5 6 17
f 5 15 4
f 17 6 18
f 8 19 7
f 7 18 6
f 19 18 7
f 36 32 33
f 13 3 4
f 13 23 35
f 31 32 35
f 31 26 32
f 16 5 17
f 15 5 16
f 36 33 29
f 29 33 19
f 29 20 36
f 29 19 20
f 27 32 17
f 28 18 19
f 19 33 28
f 28 33 32
f 32 27 28
f 4 15 14
f 14 13 4
f 14 15 21
f 21 13 14
f 12 11 3
f 3 13 12
f 35 11 12
f 12 13 35
f 21 15 25
f 15 16 25
f 25 16 17
f 17 26 25
f 26 31 25
f 21 25 24
f 24 13 21
f 30 31 35
f 30 25 31
f 30 24 25
f 35 23 30
f 23 13 30
f 13 24 30
f 7 2 1
f 1 8 7
f 4 3 7
f 3 2 7
f 7 5 4
f 6 5 7
f 28 27 17
f 17 18 28

