# https://github.com/mikedh/trimesh

o lower_grip_carrier_082.obj
v 0.04672323 -0.00536330 -0.02427499
v 0.04924126 -0.00144167 -0.02427499
v 0.05427733 -0.00640159 -0.02427499
v 0.05436017 0.00213386 -0.02427499
v 0.05477540 0.00201945 -0.02427499
v 0.05498038 -0.00588272 -0.02427499
v 0.05503407 0.00193748 -0.02427499
v 0.04672323 -0.00536330 -0.02432499
v 0.04924126 -0.00144167 -0.02432499
v 0.05427733 -0.00640159 -0.02432499
v 0.05436017 0.00213386 -0.02432499
v 0.05477540 0.00201945 -0.02432499
v 0.05498038 -0.00588272 -0.02432499
v 0.05503407 0.00193748 -0.02432499
f 7 6 14
f 14 6 13
f 10 3 1
f 1 8 10
f 10 6 3
f 13 6 10
f 1 2 9
f 9 8 1
f 5 2 1
f 1 3 5
f 5 6 7
f 3 6 5
f 5 4 2
f 2 4 11
f 11 9 2
f 12 14 13
f 13 10 12
f 12 10 8
f 8 9 12
f 9 11 12
f 7 14 12
f 12 5 7
f 4 5 12
f 12 11 4

