# https://github.com/mikedh/trimesh

o lower_neck_idler_fork_plate_113.obj
v -0.00276898 -0.03625000 -0.01098020
v -0.00523755 -0.03625000 -0.01098020
v -0.00276898 -0.03700000 -0.01098020
v -0.00276898 -0.03625000 -0.01208632
v -0.00523755 -0.03700000 -0.01098020
v -0.00744954 -0.03625000 -0.01208679
v -0.00276898 -0.03700000 -0.01208632
v -0.00276944 -0.03625000 -0.01575021
v -0.00744954 -0.03700000 -0.01208679
v -0.00744954 -0.03625000 -0.01415896
v -0.00276944 -0.03700000 -0.01575021
v -0.00295545 -0.03625000 -0.01572453
v -0.00744954 -0.03700000 -0.01415896
v -0.00601138 -0.03625000 -0.01482711
v -0.00295545 -0.03700000 -0.01572453
v -0.00450632 -0.03625000 -0.01535239
v -0.00601138 -0.03700000 -0.01482711
v -0.00580612 -0.03700000 -0.01489902
v -0.00450632 -0.03700000 -0.01535239
f 1 2 5
f 1 5 3
f 1 3 7
f 1 7 4
f 1 4 8
f 1 8 12
f 1 12 16
f 1 16 14
f 1 14 10
f 1 10 6
f 1 6 2
f 2 6 9
f 2 9 5
f 3 5 9
f 3 9 13
f 3 13 17
f 3 17 18
f 3 18 19
f 3 19 15
f 3 15 11
f 3 11 7
f 4 7 11
f 4 11 8
f 6 10 13
f 6 13 9
f 8 11 15
f 8 15 12
f 10 14 17
f 10 17 13
f 12 15 19
f 12 19 16
f 14 18 17
f 14 16 18
f 16 19 18

