# https://github.com/mikedh/trimesh

o lower_neck_bridge_083.obj
v -0.03755155 -0.02991973 0.05518942
v -0.03877772 -0.02991973 0.05652299
v -0.03886174 -0.02958290 0.05652161
v -0.03886174 -0.02943724 0.05652146
v -0.03755155 -0.02958290 0.05518942
v -0.03343061 -0.02991973 0.05518942
v -0.03877772 -0.02991973 0.05674624
v -0.03886174 -0.02958290 0.05674624
v -0.03886174 -0.02924608 0.05652146
v -0.03754942 -0.02924608 0.05529944
v -0.03343061 -0.02958290 0.05518942
v -0.03343061 -0.02991973 0.05674624
v -0.03886174 -0.02924608 0.05674624
v -0.03694165 -0.02924608 0.05529944
v -0.03343061 -0.02958290 0.05674624
v -0.03694165 -0.02924608 0.05674624
f 1 2 3
f 1 3 4
f 1 4 9
f 1 9 5
f 1 5 11
f 1 11 6
f 1 6 12
f 1 12 7
f 1 7 2
f 2 7 8
f 2 8 3
f 3 8 13
f 3 13 9
f 3 9 4
f 5 10 14
f 5 14 11
f 5 9 10
f 6 11 15
f 6 15 12
f 7 12 15
f 7 15 16
f 7 16 13
f 7 13 8
f 9 13 16
f 9 16 14
f 9 14 10
f 11 14 16
f 11 16 15

