# https://github.com/mikedh/trimesh

o lower_neck_idler_fork_plate_006.obj
v -0.06832375 -0.04175000 0.07645367
v -0.07406323 -0.04175000 0.07652107
v -0.06832375 -0.03625000 0.07645367
v -0.03900281 -0.04175000 0.07645367
v -0.07519695 -0.04175000 0.07662169
v -0.07497375 -0.03808369 0.07660176
v -0.07406323 -0.03625000 0.07652107
v -0.03900281 -0.03625000 0.07645367
v -0.04581224 -0.04175000 0.08615071
v -0.07519695 -0.03625000 0.07662169
v -0.07519695 -0.04175000 0.08613647
v -0.04581224 -0.03625000 0.08615071
v -0.07085337 -0.04175000 0.08615071
v -0.07519695 -0.03625000 0.08613647
v -0.07085337 -0.03625000 0.08615071
f 1 2 7
f 1 7 3
f 1 3 8
f 1 8 4
f 1 4 9
f 1 9 13
f 1 13 11
f 1 11 5
f 1 5 2
f 2 5 6
f 2 6 7
f 3 7 10
f 3 10 14
f 3 14 15
f 3 15 12
f 3 12 8
f 4 8 12
f 4 12 9
f 5 10 6
f 5 11 14
f 5 14 10
f 6 10 7
f 9 12 15
f 9 15 13
f 11 13 15
f 11 15 14

