# https://github.com/mikedh/trimesh

o lower_grip_shell_140.obj
v 0.04322672 -0.02234025 -0.02927672
v 0.04382632 -0.02158751 -0.02728969
v 0.04451502 -0.02388637 -0.03081113
v 0.04528255 -0.02313622 -0.03127063
v 0.04596470 -0.02368558 -0.03081056
v 0.04599824 -0.02064022 -0.03006649
v 0.04770786 -0.02473008 -0.02806995
v 0.04855494 -0.02287839 -0.02563719
v 0.04856326 -0.02094402 -0.03197881
v 0.04987660 -0.02327134 -0.02620730
v 0.05334570 -0.02135123 -0.02829656
v 0.05499919 -0.02347077 -0.02895973
f 1 6 4
f 2 6 1
f 1 7 2
f 2 7 8
f 6 2 11
f 11 2 8
f 10 7 12
f 8 7 10
f 12 11 10
f 10 11 8
f 9 4 6
f 9 11 12
f 6 11 9
f 12 7 3
f 3 7 1
f 1 4 3
f 12 3 5
f 5 3 4
f 5 9 12
f 4 9 5

