# https://github.com/mikedh/trimesh

o lower_grip_shell_177.obj
v 0.04821119 0.01560311 -0.03056953
v 0.05001139 0.01131751 -0.03060757
v 0.05068003 0.01033561 -0.03059721
v 0.05202278 0.00842630 -0.03057562
v 0.05254097 0.01000861 -0.03125307
v 0.05383602 0.01400059 -0.02636967
v 0.05424902 0.01159640 -0.03147955
v 0.05429825 0.01161995 -0.03147592
v 0.05434779 0.01164283 -0.03147229
v 0.05439764 0.01166503 -0.03146866
v 0.05444778 0.01168654 -0.03146500
v 0.05449821 0.01170737 -0.03146136
v 0.05454892 0.01172751 -0.03145770
v 0.05459989 0.01174696 -0.03145407
v 0.05465114 0.01176571 -0.03145041
v 0.05470262 0.01178376 -0.03144678
v 0.05475436 0.01180110 -0.03144312
v 0.05480633 0.01181774 -0.03143945
v 0.05485851 0.01183367 -0.03143582
v 0.05491091 0.01184888 -0.03143216
v 0.05496352 0.01186338 -0.03142853
v 0.05498991 0.01187028 -0.03142664
v 0.05500000 0.01390710 -0.02637006
v 0.05500000 0.01396041 -0.03026569
v 0.05560244 0.01208610 -0.02621900
f 6 4 25
f 1 7 5
f 22 24 25
f 25 4 22
f 1 24 22
f 4 5 22
f 22 5 7
f 2 6 1
f 1 5 2
f 25 24 23
f 23 6 25
f 23 24 1
f 1 6 23
f 4 6 3
f 6 2 3
f 3 5 4
f 3 2 5
f 21 22 7
f 1 22 21
f 1 10 9
f 9 10 7
f 14 10 12
f 7 10 16
f 16 21 7
f 16 10 14
f 8 7 1
f 1 9 8
f 8 9 7
f 1 14 13
f 13 12 1
f 14 12 13
f 11 10 1
f 1 12 11
f 11 12 10
f 15 14 1
f 1 16 15
f 15 16 14
f 21 16 19
f 1 21 20
f 20 19 1
f 21 19 20
f 17 19 16
f 17 16 1
f 1 19 18
f 18 17 1
f 19 17 18

