# https://github.com/mikedh/trimesh

o lower_neck_distal_rear_spacer_outer_1_004.obj
v -0.09342687 -0.03625000 0.11941428
v -0.09337551 -0.03625000 0.11924881
v -0.09067235 -0.03625000 0.11941428
v -0.09342687 -0.03125000 0.11941428
v -0.09322075 -0.03625000 0.11888139
v -0.09337551 -0.03125000 0.11924881
v -0.09327245 -0.03291699 0.11900386
v -0.08992937 -0.03625000 0.11904931
v -0.09067235 -0.03125000 0.11941428
v -0.09303004 -0.03625000 0.11853112
v -0.09322075 -0.03125000 0.11888139
v -0.09309372 -0.03291699 0.11864788
v -0.08992937 -0.03625000 0.11663417
v -0.08992937 -0.03125000 0.11904931
v -0.09280543 -0.03625000 0.11820153
v -0.09303004 -0.03125000 0.11853112
v -0.09288041 -0.03291699 0.11831149
v -0.09011460 -0.03625000 0.11664832
v -0.08992937 -0.03125000 0.11663417
v -0.09267738 -0.03625000 0.11804885
v -0.09280543 -0.03125000 0.11820153
v -0.09050732 -0.03625000 0.11671745
v -0.09024539 -0.03458301 0.11667118
v -0.09011460 -0.03125000 0.11664832
v -0.09254898 -0.03625000 0.11789644
v -0.09267738 -0.03125000 0.11804885
v -0.09069906 -0.03625000 0.11677133
v -0.09063537 -0.03291699 0.11675337
v -0.09050732 -0.03125000 0.11671745
v -0.09037653 -0.03291699 0.11669431
v -0.09226343 -0.03625000 0.11761802
v -0.09254898 -0.03125000 0.11789644
v -0.09089114 -0.03625000 0.11682549
v -0.09089114 -0.03125000 0.11682549
v -0.09069906 -0.03125000 0.11677133
v -0.09215969 -0.03458301 0.11753501
v -0.09195186 -0.03625000 0.11736927
v -0.09226343 -0.03125000 0.11761802
v -0.09107671 -0.03625000 0.11689816
v -0.09107671 -0.03125000 0.11689816
v -0.09195186 -0.03125000 0.11736927
v -0.09161734 -0.03625000 0.11715317
v -0.09172862 -0.03291699 0.11722502
v -0.09126229 -0.03625000 0.11697110
v -0.09126229 -0.03125000 0.11697110
v -0.09161734 -0.03125000 0.11715317
v -0.09143964 -0.03625000 0.11706200
v -0.09138075 -0.03291699 0.11703179
v -0.09143964 -0.03125000 0.11706200
f 1 2 5
f 1 5 10
f 1 10 15
f 1 15 20
f 1 20 25
f 1 25 31
f 1 31 37
f 1 37 42
f 1 42 47
f 1 47 44
f 1 44 39
f 1 39 33
f 1 33 27
f 1 27 22
f 1 22 18
f 1 18 13
f 1 13 8
f 1 8 3
f 1 3 9
f 1 9 4
f 1 4 6
f 1 6 2
f 2 6 7
f 2 7 5
f 3 8 14
f 3 14 9
f 4 9 14
f 4 14 19
f 4 19 24
f 4 24 29
f 4 29 35
f 4 35 34
f 4 34 40
f 4 40 45
f 4 45 49
f 4 49 46
f 4 46 41
f 4 41 38
f 4 38 32
f 4 32 26
f 4 26 21
f 4 21 16
f 4 16 11
f 4 11 6
f 5 7 11
f 5 11 12
f 5 12 10
f 6 11 7
f 8 13 19
f 8 19 14
f 10 12 16
f 10 16 17
f 10 17 15
f 11 16 12
f 13 18 24
f 13 24 19
f 15 17 21
f 15 21 26
f 15 26 20
f 16 21 17
f 18 22 23
f 18 23 24
f 20 26 32
f 20 32 25
f 22 27 28
f 22 28 29
f 22 29 30
f 22 30 23
f 23 30 24
f 24 30 29
f 25 32 38
f 25 38 31
f 27 33 28
f 28 34 35
f 28 35 29
f 28 33 34
f 31 36 37
f 31 38 36
f 33 39 40
f 33 40 34
f 36 38 41
f 36 41 37
f 37 41 43
f 37 43 42
f 39 44 45
f 39 45 40
f 41 46 43
f 42 43 46
f 42 46 49
f 42 49 47
f 44 47 48
f 44 48 45
f 45 48 49
f 47 49 48

