# https://github.com/mikedh/trimesh

o lower_neck_bridge_035.obj
v -0.04000110 0.03025000 0.05493839
v -0.03950047 0.02694929 0.05424070
v -0.03950047 0.03025000 0.05424070
v -0.04100249 0.03025000 0.05493839
v -0.04000198 0.02225078 0.05493839
v -0.03950047 0.02225078 0.05423997
v -0.03950047 0.03025000 0.04741193
v -0.04100249 0.03025000 0.04741193
v -0.04100249 0.02225078 0.05493839
v -0.03950047 0.02225078 0.04741341
v -0.03950047 0.02293833 0.04741193
v -0.04100249 0.02225391 0.04741193
v -0.04100249 0.02225078 0.04741414
f 1 2 3
f 1 3 7
f 1 7 8
f 1 8 4
f 1 4 9
f 1 9 5
f 1 5 2
f 2 5 6
f 2 6 10
f 2 10 11
f 2 11 7
f 2 7 3
f 4 8 12
f 4 12 13
f 4 13 9
f 5 9 13
f 5 13 10
f 5 10 6
f 7 11 12
f 7 12 8
f 10 13 12
f 10 12 11

