# https://github.com/mikedh/trimesh

o lower_neck_output_adapter_065.obj
v -0.01047804 0.02674771 0.01444178
v -0.01047745 0.02625021 0.01475433
v -0.01047804 0.02674771 0.01497014
v -0.01047804 0.02705102 0.01444178
v -0.00910264 0.02674771 0.01444178
v -0.01047745 0.02625021 0.01701117
v -0.00886695 0.02625021 0.01475433
v -0.01047804 0.02705102 0.01497014
v -0.00910264 0.02705102 0.01444178
v -0.00438274 0.02674763 0.01457275
v -0.00716396 0.02625021 0.01478360
v -0.00999889 0.02625021 0.01731975
v -0.01047685 0.02674763 0.01701216
v -0.01047745 0.02674755 0.01701117
v -0.01047685 0.02705087 0.01701216
v -0.00999770 0.02705087 0.01732025
v -0.00995593 0.02705087 0.01734208
v -0.00824757 0.02705087 0.01821723
v -0.00822430 0.02705087 0.01822914
v -0.00817955 0.02705087 0.01824700
v -0.00648551 0.02705087 0.01891279
v -0.00637154 0.02705087 0.01895744
v -0.00521991 0.02705087 0.01928190
v -0.00445255 0.02705087 0.01949721
v -0.00438333 0.02705087 0.01951011
v -0.00856442 0.02705102 0.01497014
v -0.00438274 0.02705095 0.01457275
v -0.00438274 0.02674763 0.01506738
v -0.00716396 0.02625021 0.01864687
v -0.00999889 0.02674755 0.01731975
v -0.00822490 0.02625021 0.01822963
v -0.00822490 0.02674755 0.01822963
v -0.00799457 0.02674755 0.01832042
v -0.00637154 0.02674763 0.01895744
v -0.00445255 0.02674763 0.01949721
v -0.00438333 0.02674763 0.01951011
v -0.00438274 0.02705095 0.01506738
f 1 2 6
f 1 6 3
f 1 3 8
f 1 8 4
f 1 4 9
f 1 9 5
f 1 5 7
f 1 7 2
f 2 7 11
f 2 11 29
f 2 29 31
f 2 31 12
f 2 12 6
f 3 6 14
f 3 14 8
f 4 8 26
f 4 26 9
f 5 9 27
f 5 27 10
f 5 10 11
f 5 11 7
f 6 12 13
f 6 13 15
f 6 15 14
f 8 14 15
f 8 15 16
f 8 16 17
f 8 17 18
f 8 18 19
f 8 19 20
f 8 20 21
f 8 21 22
f 8 22 23
f 8 23 24
f 8 24 25
f 8 25 26
f 9 26 27
f 10 27 37
f 10 37 28
f 10 28 29
f 10 29 11
f 12 17 30
f 12 30 15
f 12 15 13
f 12 31 17
f 15 30 16
f 16 30 17
f 17 31 32
f 17 32 18
f 18 32 19
f 19 32 20
f 20 32 33
f 20 33 21
f 21 33 29
f 21 29 34
f 21 34 22
f 22 34 23
f 23 34 35
f 23 35 24
f 24 35 36
f 24 36 25
f 25 36 28
f 25 28 37
f 25 37 26
f 26 37 27
f 28 36 29
f 29 33 31
f 29 36 35
f 29 35 34
f 31 33 32

