# https://github.com/mikedh/trimesh

o lower_grip_shell_104.obj
v 0.03442261 -0.02501040 -0.02663808
v 0.03486080 -0.02217890 -0.03022279
v 0.03505554 -0.02443014 -0.02617000
v 0.03524371 -0.02452325 -0.02626242
v 0.03531302 -0.02450999 -0.02625574
v 0.03540475 -0.02451408 -0.02626558
v 0.03541222 -0.02294456 -0.02964897
v 0.03554881 -0.02272713 -0.02982239
v 0.03621144 -0.02306502 -0.02539663
v 0.03879235 -0.01946245 -0.03067899
v 0.03891157 -0.02207436 -0.02737685
v 0.03921764 -0.02124460 -0.03026539
v 0.03937609 -0.02153901 -0.03016864
v 0.03940833 -0.02127207 -0.03024750
v 0.03948103 -0.02126368 -0.03024597
v 0.03959867 -0.02220634 -0.02745474
v 0.03962571 -0.02126465 -0.03023792
v 0.03969691 -0.02167629 -0.03009833
v 0.03969788 -0.02134366 -0.03021134
v 0.03969804 -0.02124600 -0.03023932
v 0.03969817 -0.02144221 -0.03018062
v 0.03980598 -0.02162698 -0.03011002
v 0.03984233 -0.02160780 -0.03011489
v 0.03989291 -0.02145269 -0.03016590
v 0.03991504 -0.02156944 -0.03012463
v 0.04011310 -0.02201240 -0.02992617
v 0.04040335 -0.02232224 -0.02763158
v 0.04770786 -0.02473008 -0.02806995
f 1 9 2
f 2 9 10
f 1 28 6
f 28 9 6
f 28 10 27
f 27 9 28
f 7 28 1
f 1 2 7
f 3 9 1
f 3 6 9
f 10 9 11
f 8 2 28
f 28 7 8
f 8 7 2
f 28 2 26
f 12 2 10
f 1 6 4
f 4 3 1
f 9 27 16
f 16 11 9
f 16 27 10
f 10 11 16
f 18 26 2
f 6 3 5
f 5 4 6
f 3 4 5
f 2 19 13
f 25 24 28
f 28 26 25
f 25 13 24
f 2 13 25
f 2 12 14
f 14 19 2
f 21 19 24
f 24 13 21
f 21 13 19
f 26 18 22
f 22 18 2
f 24 19 20
f 20 12 10
f 20 10 28
f 28 24 20
f 23 25 26
f 26 22 23
f 2 25 23
f 23 22 2
f 19 14 17
f 17 20 19
f 15 14 12
f 12 20 15
f 15 17 14
f 20 17 15

