# https://github.com/mikedh/trimesh

o lower_grip_carrier_026.obj
v 0.02500000 0.00000000 -0.02427499
v 0.02500000 0.00565000 -0.02427499
v 0.02511708 -0.00188333 -0.02427499
v 0.02607142 -0.00198828 -0.02427499
v 0.02627421 -0.00198828 -0.02427499
v 0.02632381 0.00605834 -0.02427499
v 0.02984407 0.00141317 -0.02427499
v 0.03160419 0.00514893 -0.02427499
v 0.02500000 0.00000000 -0.02432499
v 0.02500000 0.00565000 -0.02432499
v 0.02511708 -0.00188333 -0.02432499
v 0.02607142 -0.00198828 -0.02432499
v 0.02627421 -0.00198828 -0.02432499
v 0.02632381 0.00605834 -0.02432499
v 0.02984407 0.00141317 -0.02432499
v 0.03160419 0.00514893 -0.02432499
f 16 14 6
f 16 6 8
f 1 2 10
f 10 9 1
f 6 14 10
f 10 2 6
f 4 2 1
f 8 6 4
f 1 3 4
f 6 2 4
f 4 7 8
f 5 7 4
f 11 3 1
f 1 9 11
f 15 16 8
f 8 7 15
f 15 7 5
f 5 13 15
f 14 16 12
f 9 10 12
f 12 11 9
f 12 10 14
f 16 15 12
f 12 15 13
f 5 4 12
f 12 13 5
f 12 4 3
f 3 11 12

