# https://github.com/mikedh/trimesh

o lower_grip_backbone_011.obj
v 0.05648144 0.00926072 -0.02919125
v 0.05648144 0.00926072 -0.02877205
v 0.05651483 0.01125857 -0.02919125
v 0.05753712 0.00508188 -0.02919125
v 0.05754044 0.00467044 -0.02881063
v 0.05750264 0.01093613 -0.02877201
v 0.05652145 0.01125664 -0.02877205
v 0.05926717 0.00467044 -0.02877201
v 0.05668894 0.01122633 -0.02877205
v 0.05674302 0.01121343 -0.02919125
v 0.05771482 0.00518184 -0.02919125
v 0.05838145 0.00467044 -0.02879869
v 0.05816540 0.00467044 -0.02880513
v 0.05738564 0.01099417 -0.02877205
v 0.05726672 0.01104576 -0.02877205
v 0.05715938 0.01108832 -0.02877205
v 0.05703687 0.01113153 -0.02877205
v 0.05692678 0.01116571 -0.02877205
v 0.05680151 0.01119924 -0.02877205
v 0.05926661 0.01014615 -0.02877201
v 0.05783485 0.00525793 -0.02919125
v 0.05794880 0.00533854 -0.02919125
v 0.05805862 0.00542173 -0.02919125
v 0.05816292 0.00550944 -0.02919125
v 0.05826253 0.00559907 -0.02919125
v 0.05838255 0.00571838 -0.02919125
v 0.05852024 0.00587186 -0.02919125
v 0.05864661 0.00603115 -0.02919125
v 0.05874953 0.00617625 -0.02919125
v 0.05885411 0.00634520 -0.02919125
v 0.05893716 0.00649804 -0.02919125
v 0.05902077 0.00667474 -0.02919125
v 0.05909333 0.00685402 -0.02919125
v 0.05914852 0.00701459 -0.02919125
v 0.05919460 0.00717646 -0.02919125
v 0.05923709 0.00736283 -0.02919125
v 0.05926551 0.00752857 -0.02919125
v 0.05928482 0.00769495 -0.02919125
v 0.05929614 0.00785875 -0.02919125
v 0.05929972 0.00799869 -0.02919125
v 0.05929972 0.00799869 -0.02877201
v 0.05693561 0.01116377 -0.02919125
v 0.05727665 0.01104125 -0.02919125
v 0.05716822 0.01108510 -0.02919125
v 0.05702501 0.01113540 -0.02919125
v 0.05929393 0.00818377 -0.02919125
v 0.05927572 0.00839142 -0.02919125
v 0.05924426 0.00859972 -0.02919125
v 0.05919874 0.00880608 -0.02919125
v 0.05913941 0.00901244 -0.02919125
v 0.05907485 0.00919624 -0.02919125
v 0.05899731 0.00937809 -0.02919125
v 0.05889660 0.00957801 -0.02919125
v 0.05878044 0.00977470 -0.02919125
v 0.05864799 0.00996687 -0.02919125
v 0.05849899 0.01015389 -0.02919125
v 0.05833316 0.01033188 -0.02919125
v 0.05809477 0.01054791 -0.02919125
v 0.05802165 0.01060659 -0.02919125
v 0.05789941 0.01069623 -0.02919125
v 0.05782270 0.01074976 -0.02919125
v 0.05769412 0.01082972 -0.02919125
v 0.05761300 0.01087809 -0.02919125
v 0.05743641 0.01096902 -0.02919125
f 1 2 3
f 1 3 10
f 1 10 42
f 1 42 45
f 1 45 44
f 1 44 43
f 1 43 64
f 1 64 63
f 1 63 62
f 1 62 61
f 1 61 60
f 1 60 59
f 1 59 58
f 1 58 57
f 1 57 56
f 1 56 55
f 1 55 54
f 1 54 53
f 1 53 52
f 1 52 51
f 1 51 50
f 1 50 49
f 1 49 48
f 1 48 47
f 1 47 46
f 1 46 40
f 1 40 39
f 1 39 38
f 1 38 37
f 1 37 36
f 1 36 35
f 1 35 34
f 1 34 33
f 1 33 32
f 1 32 31
f 1 31 30
f 1 30 29
f 1 29 28
f 1 28 27
f 1 27 26
f 1 26 25
f 1 25 24
f 1 24 23
f 1 23 22
f 1 22 21
f 1 21 11
f 1 11 4
f 1 4 5
f 1 5 2
f 2 6 7
f 2 7 3
f 2 5 8
f 2 8 6
f 3 7 9
f 3 9 10
f 4 11 8
f 4 8 12
f 4 12 13
f 4 13 5
f 5 13 12
f 5 12 8
f 6 14 15
f 6 15 16
f 6 16 17
f 6 17 18
f 6 18 19
f 6 19 9
f 6 9 7
f 6 8 41
f 6 41 20
f 6 20 14
f 8 11 21
f 8 21 22
f 8 22 23
f 8 23 24
f 8 24 25
f 8 25 26
f 8 26 27
f 8 27 28
f 8 28 29
f 8 29 30
f 8 30 31
f 8 31 32
f 8 32 33
f 8 33 34
f 8 34 35
f 8 35 36
f 8 36 37
f 8 37 38
f 8 38 39
f 8 39 40
f 8 40 41
f 9 19 10
f 10 19 42
f 14 20 43
f 14 43 15
f 15 43 44
f 15 44 16
f 16 44 17
f 17 44 45
f 17 45 42
f 17 42 18
f 18 42 19
f 20 40 46
f 20 46 47
f 20 47 48
f 20 48 49
f 20 49 50
f 20 50 51
f 20 51 52
f 20 52 53
f 20 53 54
f 20 54 55
f 20 55 56
f 20 56 57
f 20 57 58
f 20 58 59
f 20 59 60
f 20 60 61
f 20 61 62
f 20 62 63
f 20 63 64
f 20 64 43
f 20 41 40

