# https://github.com/mikedh/trimesh

o lower_grip_shell_121.obj
v 0.03339511 -0.02542475 -0.03066525
v 0.04378207 -0.02298648 -0.03149124
v 0.04413258 -0.02281677 -0.03154053
v 0.04423204 -0.02304152 -0.03142010
v 0.04451502 -0.02388637 -0.03081113
v 0.04453234 -0.02291130 -0.03146186
v 0.04472522 -0.02304722 -0.03137396
v 0.04472522 -0.02304485 -0.03137527
v 0.04472522 -0.02304247 -0.03137659
v 0.04480681 -0.02303009 -0.03137602
v 0.04496999 -0.02299051 -0.03138306
v 0.04503108 -0.02291358 -0.03141760
v 0.04516675 -0.02210434 -0.03177359
v 0.04520266 -0.02304227 -0.03133230
v 0.04856326 -0.02094402 -0.03197881
f 1 2 4
f 5 15 1
f 1 4 5
f 1 15 13
f 13 2 1
f 15 5 14
f 7 5 4
f 7 14 5
f 7 4 2
f 12 13 15
f 15 14 12
f 2 13 3
f 13 12 3
f 11 12 14
f 2 12 11
f 6 12 2
f 2 3 6
f 6 3 12
f 14 7 10
f 10 11 14
f 2 11 9
f 11 10 9
f 8 7 2
f 2 9 8
f 8 10 7
f 8 9 10

