# https://github.com/mikedh/trimesh

o lower_grip_backbone_005.obj
v 0.01695700 0.01249843 -0.02742603
v 0.01695700 0.01249843 -0.02628044
v 0.01695700 0.01650000 -0.02742603
v 0.01700025 -0.01044798 -0.02742603
v 0.02145831 0.01249843 -0.02628044
v 0.01695700 0.01650000 -0.02628044
v 0.01700025 -0.01044798 -0.02630007
v 0.01984584 0.01650000 -0.02742603
v 0.02155968 -0.01044798 -0.02742603
v 0.02145831 0.01650000 -0.02628044
v 0.02155968 -0.01044798 -0.02630007
v 0.02148219 0.01650000 -0.02631554
v 0.02155968 0.01499908 -0.02742603
v 0.02155968 0.01499908 -0.02630007
f 1 2 6
f 1 6 3
f 1 3 8
f 1 8 13
f 1 13 9
f 1 9 4
f 1 4 7
f 1 7 2
f 2 5 10
f 2 10 6
f 2 7 11
f 2 11 5
f 3 6 10
f 3 10 12
f 3 12 8
f 4 9 11
f 4 11 7
f 5 11 14
f 5 14 10
f 8 12 13
f 9 13 14
f 9 14 11
f 10 14 12
f 12 14 13

