# https://github.com/mikedh/trimesh

o lower_neck_idler_fork_plate_025.obj
v -0.06281126 -0.04063099 0.06859837
v -0.06832504 -0.04063099 0.07645272
v -0.06281126 -0.03732513 0.06859837
v -0.03348967 -0.04063099 0.06859837
v -0.06832504 -0.03732513 0.07645272
v -0.03900345 -0.04063099 0.07645272
v -0.03348967 -0.03732513 0.06859837
v -0.03823964 -0.04063099 0.07536483
v -0.03900345 -0.03732513 0.07645272
f 1 2 5
f 1 5 3
f 1 3 7
f 1 7 4
f 1 4 8
f 1 8 6
f 1 6 2
f 2 6 9
f 2 9 5
f 3 5 9
f 3 9 7
f 4 7 8
f 6 8 9
f 7 9 8

