# https://github.com/mikedh/trimesh

o lower_grip_cassette_pad_019.obj
v 0.02805000 0.00835000 -0.02432499
v 0.02805168 0.00830516 -0.02432499
v 0.02805168 0.00839484 -0.02432499
v 0.02805670 0.00826057 -0.02432499
v 0.02805670 0.00843943 -0.02432499
v 0.02806505 0.00821649 -0.02432499
v 0.02806505 0.00848351 -0.02432499
v 0.02807666 0.00817315 -0.02432499
v 0.02807666 0.00852685 -0.02432499
v 0.02809148 0.00813080 -0.02432499
v 0.02809148 0.00856920 -0.02432499
v 0.02810942 0.00861033 -0.02432499
v 0.02813039 0.00865000 -0.02432499
v 0.02815426 0.00868799 -0.02432499
v 0.02818090 0.00872409 -0.02432499
v 0.02821017 0.00875810 -0.02432499
v 0.02824190 0.00878983 -0.02432499
v 0.02827591 0.00881910 -0.02432499
v 0.02831201 0.00884574 -0.02432499
v 0.02835000 0.00886962 -0.02432499
v 0.02838967 0.00889058 -0.02432499
v 0.02843079 0.00890852 -0.02432499
v 0.02847315 0.00892334 -0.02432499
v 0.02851649 0.00893496 -0.02432499
v 0.02856058 0.00894330 -0.02432499
v 0.02860516 0.00894832 -0.02432499
v 0.03102197 0.00390000 -0.02432499
v 0.03688295 0.00456159 -0.02432499
v 0.03743333 0.00986667 -0.02432499
v 0.03800000 0.00620000 -0.02432499
v 0.02805000 0.00835000 -0.02427499
v 0.02805168 0.00830516 -0.02427499
v 0.02805168 0.00839484 -0.02427499
v 0.02805670 0.00826057 -0.02427499
v 0.02805670 0.00843943 -0.02427499
v 0.02806505 0.00821649 -0.02427499
v 0.02806505 0.00848351 -0.02427499
v 0.02807666 0.00817315 -0.02427499
v 0.02807666 0.00852685 -0.02427499
v 0.02809148 0.00813080 -0.02427499
v 0.02809148 0.00856920 -0.02427499
v 0.02810942 0.00861033 -0.02427499
v 0.02813039 0.00865000 -0.02427499
v 0.02815426 0.00868799 -0.02427499
v 0.02818090 0.00872409 -0.02427499
v 0.02821017 0.00875810 -0.02427499
v 0.02824190 0.00878983 -0.02427499
v 0.02827591 0.00881910 -0.02427499
v 0.02831201 0.00884574 -0.02427499
v 0.02835000 0.00886962 -0.02427499
v 0.02838967 0.00889058 -0.02427499
v 0.02843079 0.00890852 -0.02427499
v 0.02847315 0.00892334 -0.02427499
v 0.02851649 0.00893496 -0.02427499
v 0.02856058 0.00894330 -0.02427499
v 0.02860516 0.00894832 -0.02427499
v 0.03102197 0.00390000 -0.02427499
v 0.03688295 0.00456159 -0.02427499
v 0.03743333 0.00986667 -0.02427499
v 0.03800000 0.00620000 -0.02427499
f 27 28 57
f 57 28 58
f 40 10 27
f 27 57 40
f 60 28 30
f 58 28 60
f 30 29 60
f 29 59 60
f 56 59 29
f 29 26 56
f 56 26 25
f 25 55 56
f 1 2 32
f 32 31 1
f 32 2 4
f 4 34 32
f 10 40 38
f 38 8 10
f 36 34 4
f 4 6 36
f 36 6 8
f 8 38 36
f 1 31 33
f 33 3 1
f 5 3 33
f 33 35 5
f 11 9 39
f 39 41 11
f 16 15 45
f 45 46 16
f 42 12 11
f 11 41 42
f 13 12 42
f 42 43 13
f 23 26 29
f 30 28 23
f 23 29 30
f 27 10 23
f 23 28 27
f 10 8 23
f 23 2 1
f 23 6 4
f 25 26 23
f 4 2 23
f 11 12 23
f 1 3 23
f 23 24 25
f 8 6 23
f 23 15 16
f 16 17 23
f 23 9 11
f 20 21 23
f 23 3 5
f 13 14 23
f 5 7 23
f 23 19 20
f 23 12 13
f 23 17 18
f 23 21 22
f 18 19 23
f 23 7 9
f 23 14 15
f 54 55 25
f 25 24 54
f 51 21 20
f 20 50 51
f 22 21 51
f 51 52 22
f 47 17 16
f 16 46 47
f 18 17 47
f 47 48 18
f 20 19 49
f 49 50 20
f 49 19 18
f 18 48 49
f 5 35 37
f 37 7 5
f 9 7 37
f 37 39 9
f 44 14 13
f 13 43 44
f 15 14 44
f 44 45 15
f 53 57 58
f 58 60 53
f 59 56 53
f 53 40 57
f 53 60 59
f 53 38 40
f 31 32 53
f 34 36 53
f 53 56 55
f 53 32 34
f 41 39 53
f 53 51 50
f 53 42 41
f 53 36 38
f 53 33 31
f 46 45 53
f 55 54 53
f 53 47 46
f 35 33 53
f 50 49 53
f 53 37 35
f 43 42 53
f 53 44 43
f 52 51 53
f 48 47 53
f 53 49 48
f 39 37 53
f 45 44 53
f 53 23 22
f 22 52 53
f 24 23 53
f 53 54 24

