# https://github.com/mikedh/trimesh

o neck_frame_spacer_0_004.obj
v 0.03368530 -0.03556741 0.32259999
v 0.03297329 -0.03522561 0.32259999
v 0.03368530 -0.03798380 0.32259999
v 0.03368530 -0.03556741 0.31859999
v 0.03019661 -0.03522561 0.32259999
v 0.03297329 -0.03522561 0.31859999
v 0.03346299 -0.03796355 0.32259999
v 0.03368530 -0.03798380 0.31859999
v 0.03019968 -0.03523506 0.32259999
v 0.03019661 -0.03522561 0.31859999
v 0.03328644 -0.03793169 0.32259999
v 0.03346299 -0.03796355 0.31859999
v 0.03025535 -0.03540569 0.32259999
v 0.03021812 -0.03529175 0.32126640
v 0.03019968 -0.03523506 0.31859999
v 0.03310989 -0.03789956 0.32259999
v 0.03328644 -0.03793169 0.31859999
v 0.03032569 -0.03557065 0.32259999
v 0.03025535 -0.03540569 0.31859999
v 0.03030213 -0.03551557 0.32126640
v 0.03276361 -0.03780399 0.32259999
v 0.03310989 -0.03789956 0.31859999
v 0.03039638 -0.03573561 0.32259999
v 0.03034926 -0.03562573 0.31993359
v 0.03032569 -0.03557065 0.31859999
v 0.03259560 -0.03774108 0.32259999
v 0.03265160 -0.03776214 0.32126640
v 0.03276361 -0.03780399 0.31859999
v 0.03048141 -0.03589383 0.32259999
v 0.03039638 -0.03573561 0.31859999
v 0.03242758 -0.03767790 0.32259999
v 0.03259560 -0.03774108 0.31859999
v 0.03056645 -0.03605177 0.32259999
v 0.03048141 -0.03589383 0.31859999
v 0.03226606 -0.03760015 0.32259999
v 0.03221210 -0.03757423 0.32126640
v 0.03242758 -0.03767790 0.31859999
v 0.03066514 -0.03620161 0.32259999
v 0.03056645 -0.03605177 0.31859999
v 0.03210419 -0.03752212 0.32259999
v 0.03210419 -0.03752212 0.31859999
v 0.03226606 -0.03760015 0.31859999
v 0.03076417 -0.03635119 0.32259999
v 0.03066514 -0.03620161 0.31859999
v 0.03195018 -0.03743033 0.32259999
v 0.03195018 -0.03743033 0.31859999
v 0.03087584 -0.03649158 0.32259999
v 0.03076417 -0.03635119 0.31859999
v 0.03083862 -0.03644487 0.31993359
v 0.03179650 -0.03733826 0.32259999
v 0.03179650 -0.03733826 0.31859999
v 0.03098785 -0.03663170 0.32259999
v 0.03087584 -0.03649158 0.31859999
v 0.03150623 -0.03712713 0.32259999
v 0.03160288 -0.03719760 0.31993359
v 0.03150623 -0.03712713 0.31859999
v 0.03123577 -0.03689116 0.32259999
v 0.03098785 -0.03663170 0.31859999
v 0.03141608 -0.03704856 0.31993359
v 0.03123577 -0.03689116 0.31859999
f 1 2 5
f 1 5 9
f 1 9 13
f 1 13 18
f 1 18 23
f 1 23 29
f 1 29 33
f 1 33 38
f 1 38 43
f 1 43 47
f 1 47 52
f 1 52 57
f 1 57 54
f 1 54 50
f 1 50 45
f 1 45 40
f 1 40 35
f 1 35 31
f 1 31 26
f 1 26 21
f 1 21 16
f 1 16 11
f 1 11 7
f 1 7 3
f 1 3 8
f 1 8 4
f 1 4 6
f 1 6 2
f 2 6 10
f 2 10 5
f 3 7 12
f 3 12 8
f 4 8 12
f 4 12 17
f 4 17 22
f 4 22 28
f 4 28 32
f 4 32 37
f 4 37 42
f 4 42 41
f 4 41 46
f 4 46 51
f 4 51 56
f 4 56 60
f 4 60 58
f 4 58 53
f 4 53 48
f 4 48 44
f 4 44 39
f 4 39 34
f 4 34 30
f 4 30 25
f 4 25 19
f 4 19 15
f 4 15 10
f 4 10 6
f 5 10 15
f 5 15 14
f 5 14 9
f 7 11 17
f 7 17 12
f 9 14 13
f 11 16 22
f 11 22 17
f 13 14 19
f 13 19 20
f 13 20 18
f 14 15 19
f 16 21 28
f 16 28 22
f 18 20 25
f 18 25 24
f 18 24 23
f 19 25 20
f 21 26 27
f 21 27 28
f 23 24 30
f 23 30 34
f 23 34 29
f 24 25 30
f 26 31 37
f 26 37 32
f 26 32 27
f 27 32 28
f 29 34 39
f 29 39 33
f 31 35 36
f 31 36 37
f 33 39 44
f 33 44 38
f 35 40 36
f 36 40 41
f 36 41 42
f 36 42 37
f 38 44 48
f 38 48 43
f 40 45 46
f 40 46 41
f 43 48 49
f 43 49 47
f 45 50 51
f 45 51 46
f 47 49 53
f 47 53 58
f 47 58 52
f 48 53 49
f 50 54 55
f 50 55 51
f 51 55 56
f 52 58 60
f 52 60 57
f 54 57 59
f 54 59 56
f 54 56 55
f 56 59 60
f 57 60 59

