# https://github.com/mikedh/trimesh

o neck_cable_0_004.obj
v -0.01541255 0.02984098 0.06477573
v -0.01530646 0.03003415 0.06691623
v -0.01518458 0.02938548 0.06478914
v -0.01510822 0.02965457 0.06692790
v -0.01474881 0.02914718 0.06481478
v -0.01472929 0.02945599 0.06695019
v -0.01436577 0.02940806 0.06697157
v -0.01433076 0.02908967 0.06483937
v -0.01405191 0.02940042 0.06699003
v -0.01396982 0.02908050 0.06486060
v -0.01376511 0.02940000 0.06700690
v -0.01364000 0.02908000 0.06488000
v -0.01347831 0.02940042 0.06702377
v -0.01331018 0.02908050 0.06489940
v -0.01316445 0.02940806 0.06704224
v -0.01294924 0.02908967 0.06492063
f 15 16 1
f 1 16 14
f 16 15 14
f 2 15 1
f 15 2 4
f 4 5 6
f 13 14 15
f 12 14 13
f 8 5 14
f 6 5 8
f 8 7 6
f 5 4 3
f 3 2 1
f 3 4 2
f 6 7 11
f 11 13 15
f 12 13 11
f 15 4 11
f 11 4 6
f 7 8 10
f 10 14 12
f 10 8 14
f 9 11 7
f 7 10 9
f 12 11 9
f 9 10 12
f 14 5 3
f 1 14 3

