# https://github.com/mikedh/trimesh

o neck_power_frame_0_m3_nut_000.obj
v 0.03135381 -0.03491667 0.31350000
v 0.03161843 -0.03537500 0.31270000
v 0.03188305 -0.03583333 0.31430000
v 0.03241229 -0.03675000 0.31270000
v 0.03241229 -0.03675000 0.31390000
v 0.03291747 -0.03462500 0.31270000
v 0.03334862 -0.03506595 0.31430000
v 0.03452924 -0.03675000 0.31430000
v 0.03472922 -0.03501430 0.31430000
v 0.03491631 -0.03485022 0.31270000
v 0.03558771 -0.03675000 0.31270000
f 1 3 7
f 7 6 1
f 9 6 7
f 1 6 2
f 10 9 11
f 10 6 9
f 3 5 8
f 11 9 8
f 2 3 1
f 4 5 2
f 2 5 3
f 4 2 10
f 11 4 10
f 10 2 6
f 9 7 8
f 8 7 3
f 8 5 4
f 8 4 11

