# https://github.com/mikedh/trimesh

o neck_cable_0_003.obj
v -0.01541255 0.02984098 0.06477573
v -0.01518458 0.02938548 0.06478914
v -0.01474881 0.02914718 0.06481478
v -0.01433076 0.02908967 0.06483937
v -0.01428669 0.02979269 0.04300667
v -0.01403889 0.02931821 0.04302124
v -0.01396982 0.02908050 0.06486060
v -0.01364000 0.02908000 0.06488000
v -0.01356523 0.02906998 0.04304910
v -0.01331018 0.02908050 0.06489940
v -0.01311082 0.02901008 0.04307583
v -0.01271850 0.02900052 0.04309891
v -0.01236000 0.02900000 0.04312000
f 10 5 1
f 13 5 10
f 5 6 2
f 1 5 2
f 9 4 3
f 3 6 9
f 3 2 6
f 11 4 9
f 7 11 12
f 4 11 7
f 8 12 13
f 8 7 12
f 13 10 8
f 11 5 13
f 11 6 5
f 9 6 11
f 13 12 11
f 8 10 1
f 1 2 8
f 8 3 4
f 2 3 8
f 4 7 8

