# https://github.com/mikedh/trimesh

o neck_yaw_to_pitch_front_cradle_054.obj
v -0.01375427 0.00841238 0.02960001
v -0.01375427 0.00841238 0.02813043
v -0.02139214 0.00841238 0.02960001
v -0.01431023 0.00634283 0.02960001
v -0.01431023 0.00634283 0.02813043
v -0.02139214 0.00841238 0.02813043
v -0.02156383 0.00799904 0.02960001
v -0.02210671 0.00634283 0.02960001
v -0.02210671 0.00634283 0.02813043
v -0.02156383 0.00799904 0.02813043
v -0.02209608 0.00638153 0.02960001
v -0.02209608 0.00638153 0.02813043
f 1 2 6
f 1 6 3
f 1 3 7
f 1 7 11
f 1 11 8
f 1 8 4
f 1 4 5
f 1 5 2
f 2 5 9
f 2 9 12
f 2 12 10
f 2 10 6
f 3 6 10
f 3 10 7
f 4 8 9
f 4 9 5
f 7 10 12
f 7 12 11
f 8 11 12
f 8 12 9

