# https://github.com/mikedh/trimesh

o neck_yaw_to_pitch_front_cradle_028.obj
v -0.02299634 -0.00035168 0.02410001
v -0.02290671 -0.00205149 0.02410001
v -0.02293116 -0.00159779 0.02813043
v -0.02299634 -0.00035168 0.02813043
v -0.02296884 0.00089652 0.02813043
v -0.02295865 0.00135232 0.02410001
v -0.02279978 -0.00289826 0.02410001
v -0.02279265 -0.00295680 0.02813043
v -0.02289245 -0.00216439 0.02813043
v -0.02295865 0.00135232 0.02813043
v -0.02290467 0.00191683 0.02776629
v -0.02287718 0.00220327 0.02410001
v -0.02269284 -0.00374084 0.02410001
v -0.02269284 -0.00374084 0.02813043
v -0.02287718 0.00220327 0.02813043
v -0.01259296 0.00220327 0.02410001
v -0.02235370 -0.00541138 0.02410001
v -0.02257979 -0.00429909 0.02593374
v -0.02251156 -0.00463570 0.02813043
v -0.01259296 0.00220327 0.02813043
v -0.01272027 -0.01915623 0.02410001
v -0.02212251 -0.00623306 0.02410001
v -0.02223047 -0.00585045 0.02813043
v -0.02235370 -0.00541138 0.02813043
v -0.01272027 -0.01915623 0.02813043
v -0.01321523 -0.01880916 0.02813043
v -0.01422450 -0.01807320 0.02410001
v -0.02189133 -0.00705056 0.02410001
v -0.02204613 -0.00650487 0.02593374
v -0.02192290 -0.00694184 0.02813043
v -0.01348919 -0.01861053 0.02813043
v -0.01422450 -0.01807320 0.02813043
v -0.01482946 -0.01756095 0.02813043
v -0.01487325 -0.01752332 0.02410001
v -0.02160107 -0.00785133 0.02410001
v -0.02152367 -0.00806669 0.02813043
v -0.02173652 -0.00747917 0.02813043
v -0.01552302 -0.01697135 0.02813043
v -0.01552302 -0.01697135 0.02410001
v -0.02130980 -0.00864792 0.02410001
v -0.02126397 -0.00875037 0.02813043
v -0.01641211 -0.01609531 0.02813043
v -0.01613001 -0.01637339 0.02410001
v -0.02061115 -0.01020138 0.02410001
v -0.02107759 -0.00916644 0.02593374
v -0.02079854 -0.00978740 0.02813043
v -0.01673598 -0.01577333 0.02410001
v -0.01681134 -0.01568970 0.02813043
v -0.01980047 -0.01169838 0.02410001
v -0.02009785 -0.01115060 0.02813043
v -0.02055717 -0.01030174 0.02813043
v -0.01711077 -0.01534890 0.02593374
v -0.01729714 -0.01513355 0.02410001
v -0.01755888 -0.01483666 0.02813043
v -0.01894192 -0.01303649 0.02813043
v -0.01980047 -0.01169838 0.02813043
v -0.01887980 -0.01313267 0.02410001
v -0.01785626 -0.01449377 0.02410001
v -0.01785626 -0.01449377 0.02813043
v -0.01874333 -0.01331456 0.02813043
f 1 2 3
f 1 3 4
f 1 4 5
f 1 5 6
f 1 6 12
f 1 12 16
f 1 16 21
f 1 21 27
f 1 27 34
f 1 34 39
f 1 39 43
f 1 43 47
f 1 47 53
f 1 53 58
f 1 58 57
f 1 57 49
f 1 49 44
f 1 44 40
f 1 40 35
f 1 35 28
f 1 28 22
f 1 22 17
f 1 17 13
f 1 13 7
f 1 7 2
f 2 7 8
f 2 8 9
f 2 9 3
f 3 9 8
f 3 8 14
f 3 14 19
f 3 19 24
f 3 24 23
f 3 23 30
f 3 30 37
f 3 37 36
f 3 36 41
f 3 41 46
f 3 46 51
f 3 51 50
f 3 50 56
f 3 56 55
f 3 55 60
f 3 60 59
f 3 59 54
f 3 54 48
f 3 48 42
f 3 42 38
f 3 38 33
f 3 33 32
f 3 32 31
f 3 31 26
f 3 26 25
f 3 25 20
f 3 20 15
f 3 15 10
f 3 10 5
f 3 5 4
f 5 10 6
f 6 10 11
f 6 11 12
f 7 13 8
f 8 13 14
f 10 15 11
f 11 15 12
f 12 15 20
f 12 20 16
f 13 17 18
f 13 18 14
f 14 18 19
f 16 20 25
f 16 25 21
f 17 22 23
f 17 23 24
f 17 24 19
f 17 19 18
f 21 25 26
f 21 26 27
f 22 28 29
f 22 29 23
f 23 29 30
f 26 31 27
f 27 31 32
f 27 32 33
f 27 33 34
f 28 35 36
f 28 36 37
f 28 37 30
f 28 30 29
f 33 38 39
f 33 39 34
f 35 40 36
f 36 40 41
f 38 42 43
f 38 43 39
f 40 44 45
f 40 45 41
f 41 45 46
f 42 47 43
f 42 48 47
f 44 49 50
f 44 50 51
f 44 51 46
f 44 46 45
f 47 48 52
f 47 52 53
f 48 54 52
f 49 55 56
f 49 56 50
f 49 57 55
f 52 54 58
f 52 58 53
f 54 59 58
f 55 57 60
f 57 58 60
f 58 59 60

