# https://github.com/mikedh/trimesh

o radxa_zero_3w_pcb_2_m2x6_001.obj
v -0.08710007 0.01150007 0.29980001
v -0.08710007 0.01150007 0.30580001
v -0.08709867 0.01146271 0.29980001
v -0.08709867 0.01146271 0.30280001
v -0.08709867 0.01153744 0.29980001
v -0.08709867 0.01153744 0.30280001
v -0.08709727 0.01142534 0.29980001
v -0.08709727 0.01142534 0.30580001
v -0.08709727 0.01157480 0.29980001
v -0.08709727 0.01157480 0.30580001
v -0.08709448 0.01140057 0.30380001
v -0.08709448 0.01159958 0.30180001
v -0.08709309 0.01138819 0.29980001
v -0.08709309 0.01161196 0.29980001
v -0.08708891 0.01135103 0.29980001
v -0.08708891 0.01135103 0.30580001
v -0.08708891 0.01164912 0.29980001
v -0.08708891 0.01164912 0.30580001
v -0.08708427 0.01132654 0.30180001
v -0.08708427 0.01167361 0.30180001
v -0.08707500 0.01127755 0.29980001
v -0.08707500 0.01127755 0.30280001
v -0.08707500 0.01172260 0.29980001
v -0.08707500 0.01172260 0.30280001
v -0.08706855 0.01125347 0.30380001
v -0.08706855 0.01174667 0.30380001
v -0.08706532 0.01124144 0.29980001
v -0.08706532 0.01175871 0.29980001
v -0.08705564 0.01120532 0.29980001
v -0.08705564 0.01120532 0.30580001
v -0.08705564 0.01179483 0.29980001
v -0.08705564 0.01179483 0.30580001
v -0.08704329 0.01183012 0.29980001
v -0.08704329 0.01183012 0.30280001
v -0.08703094 0.01113473 0.29980001
v -0.08703094 0.01113473 0.30580001
v -0.08703094 0.01186541 0.29980001
v -0.08703094 0.01186541 0.30580001
v -0.08702098 0.01111189 0.30380001
v -0.08702098 0.01188826 0.30180001
v -0.08701599 0.01110046 0.29980001
v -0.08701599 0.01189969 0.29980001
v -0.08701101 0.01191111 0.30380001
v -0.08700104 0.01106619 0.29980001
v -0.08700104 0.01106619 0.30580001
v -0.08700104 0.01193396 0.29980001
v -0.08700104 0.01193396 0.30280001
v -0.08698939 0.01104415 0.30380001
v -0.08698939 0.01195600 0.30380001
v -0.08698357 0.01103313 0.29980001
v -0.08698357 0.01196702 0.29980001
v -0.08696609 0.01100007 0.29980001
v -0.08696609 0.01100007 0.30580001
v -0.08696609 0.01200007 0.29980001
v -0.08696609 0.01200007 0.30580001
v -0.08693957 0.01095786 0.30380001
v -0.08693957 0.01204229 0.30180001
v -0.08692631 0.01093675 0.29980001
v -0.08692631 0.01093675 0.30580001
v -0.08692631 0.01206339 0.29980001
v -0.08692631 0.01206339 0.30580001
v -0.08691151 0.01091670 0.30180001
v -0.08691151 0.01208345 0.30380001
v -0.08689671 0.01089664 0.30380001
v -0.08689671 0.01210351 0.30180001
v -0.08688190 0.01087658 0.29980001
v -0.08688190 0.01087658 0.30280001
v -0.08688190 0.01212356 0.29980001
v -0.08688190 0.01212356 0.30580001
v -0.08684938 0.01083880 0.30180001
v -0.08684938 0.01216135 0.30180001
v -0.08683312 0.01081990 0.29980001
v -0.08683312 0.01081990 0.30580001
v -0.08683312 0.01218025 0.29980001
v -0.08683312 0.01218025 0.30580001
v -0.08681550 0.01080228 0.30380001
v -0.08681550 0.01219787 0.30180001
v -0.08678024 0.01076702 0.29980001
v -0.08678024 0.01076702 0.30580001
v -0.08678024 0.01223313 0.29980001
v -0.08678024 0.01223313 0.30580001
v -0.08674246 0.01073450 0.30180001
v -0.08674246 0.01226565 0.30380001
v -0.08672356 0.01071824 0.29980001
v -0.08672356 0.01071824 0.30580001
v -0.08672356 0.01228191 0.29980001
v -0.08672356 0.01228191 0.30280001
v -0.08666339 0.01067383 0.29980001
v -0.08666339 0.01067383 0.30580001
v -0.08666339 0.01232631 0.29980001
v -0.08666339 0.01232631 0.30580001
v -0.08662118 0.01064731 0.30180001
v -0.08662118 0.01235284 0.30380001
v -0.08660007 0.01063405 0.29980001
v -0.08660007 0.01063405 0.30580001
v -0.08660007 0.01236610 0.29980001
v -0.08660007 0.01236610 0.30280001
v -0.08653396 0.01059910 0.29980001
v -0.08653396 0.01059910 0.30580001
v -0.08653396 0.01240104 0.29980001
v -0.08653396 0.01240104 0.30580001
v -0.08646542 0.01056920 0.29980001
v -0.08646542 0.01056920 0.30580001
v -0.08646542 0.01243095 0.29980001
v -0.08646542 0.01243095 0.30580001
v -0.08639483 0.01054450 0.29980001
v -0.08639483 0.01054450 0.30280001
v -0.08639483 0.01245565 0.29980001
v -0.08639483 0.01245565 0.30580001
v -0.08632259 0.01052515 0.29980001
v -0.08632259 0.01052515 0.30580001
v -0.08632259 0.01247500 0.29980001
v -0.08632259 0.01247500 0.30280001
v -0.08624911 0.01051124 0.29980001
v -0.08624911 0.01051124 0.30580001
v -0.08624911 0.01248890 0.29980001
v -0.08624911 0.01248890 0.30580001
v -0.08617480 0.01050287 0.29980001
v -0.08617480 0.01050287 0.30580001
v -0.08617480 0.01249728 0.29980001
v -0.08617480 0.01249728 0.30580001
v -0.08610007 0.01050007 0.29980001
v -0.08610007 0.01050007 0.30580001
v -0.08610007 0.01250007 0.29980001
v -0.08610007 0.01250007 0.30580001
v -0.08602534 0.01050287 0.29980001
v -0.08602534 0.01050287 0.30580001
v -0.08602534 0.01249728 0.29980001
v -0.08602534 0.01249728 0.30580001
v -0.08595103 0.01051124 0.29980001
v -0.08595103 0.01051124 0.30580001
v -0.08595103 0.01248890 0.29980001
v -0.08595103 0.01248890 0.30280001
v -0.08587755 0.01052515 0.29980001
v -0.08587755 0.01052515 0.30280001
v -0.08587755 0.01247500 0.29980001
v -0.08587755 0.01247500 0.30580001
v -0.08580531 0.01054450 0.29980001
v -0.08580531 0.01054450 0.30580001
v -0.08580531 0.01245565 0.29980001
v -0.08580531 0.01245565 0.30580001
v -0.08573473 0.01056920 0.29980001
v -0.08573473 0.01056920 0.30580001
v -0.08573473 0.01243095 0.29980001
v -0.08573473 0.01243095 0.30580001
v -0.08568904 0.01058914 0.30180001
v -0.08568904 0.01241101 0.30380001
v -0.08566619 0.01059910 0.29980001
v -0.08566619 0.01059910 0.30580001
v -0.08566619 0.01240104 0.29980001
v -0.08566619 0.01240104 0.30280001
v -0.08560007 0.01063405 0.29980001
v -0.08560007 0.01063405 0.30280001
v -0.08560007 0.01236610 0.29980001
v -0.08560007 0.01236610 0.30580001
v -0.08553675 0.01067383 0.29980001
v -0.08553675 0.01067383 0.30580001
v -0.08553675 0.01232631 0.29980001
v -0.08553675 0.01232631 0.30280001
v -0.08547659 0.01071824 0.29980001
v -0.08547659 0.01071824 0.30580001
v -0.08547659 0.01228191 0.29980001
v -0.08547659 0.01228191 0.30580001
v -0.08541990 0.01076702 0.29980001
v -0.08541990 0.01076702 0.30580001
v -0.08541990 0.01223313 0.29980001
v -0.08541990 0.01223313 0.30580001
v -0.08536702 0.01081990 0.29980001
v -0.08536702 0.01081990 0.30580001
v -0.08536702 0.01218025 0.29980001
v -0.08536702 0.01218025 0.30580001
v -0.08535076 0.01083880 0.30380001
v -0.08535076 0.01216135 0.30180001
v -0.08533450 0.01214246 0.30380001
v -0.08531824 0.01087658 0.29980001
v -0.08531824 0.01087658 0.30580001
v -0.08531824 0.01212356 0.29980001
v -0.08531824 0.01212356 0.30280001
v -0.08530344 0.01089664 0.30380001
v -0.08530344 0.01210351 0.30380001
v -0.08528864 0.01091670 0.30180001
v -0.08528864 0.01208345 0.30180001
v -0.08527383 0.01093675 0.29980001
v -0.08527383 0.01093675 0.30580001
v -0.08527383 0.01206339 0.29980001
v -0.08527383 0.01206339 0.30580001
v -0.08524731 0.01097897 0.30180001
v -0.08524731 0.01202118 0.30380001
v -0.08523405 0.01100007 0.29980001
v -0.08523405 0.01100007 0.30580001
v -0.08523405 0.01200007 0.29980001
v -0.08523405 0.01200007 0.30580001
v -0.08521658 0.01103313 0.29980001
v -0.08521658 0.01196702 0.29980001
v -0.08521075 0.01104415 0.30180001
v -0.08521075 0.01195600 0.30380001
v -0.08519910 0.01106619 0.29980001
v -0.08519910 0.01106619 0.30580001
v -0.08519910 0.01193396 0.29980001
v -0.08519910 0.01193396 0.30580001
v -0.08518415 0.01110046 0.29980001
v -0.08518415 0.01110046 0.30280001
v -0.08518415 0.01189969 0.29980001
v -0.08518415 0.01189969 0.30280001
v -0.08516920 0.01113473 0.29980001
v -0.08516920 0.01113473 0.30580001
v -0.08516920 0.01186541 0.29980001
v -0.08516920 0.01186541 0.30280001
v -0.08514450 0.01120532 0.29980001
v -0.08514450 0.01120532 0.30580001
v -0.08514450 0.01179483 0.29980001
v -0.08514450 0.01179483 0.30580001
v -0.08512514 0.01127755 0.29980001
v -0.08512514 0.01127755 0.30580001
v -0.08512514 0.01172260 0.29980001
v -0.08512514 0.01172260 0.30580001
v -0.08511124 0.01135103 0.29980001
v -0.08511124 0.01135103 0.30580001
v -0.08511124 0.01164912 0.29980001
v -0.08511124 0.01164912 0.30580001
v -0.08510287 0.01142534 0.29980001
v -0.08510287 0.01142534 0.30580001
v -0.08510287 0.01157480 0.29980001
v -0.08510287 0.01157480 0.30580001
v -0.08510007 0.01150007 0.29980001
v -0.08510007 0.01150007 0.30580001
f 76 72 78
f 73 72 76
f 81 80 77
f 76 78 79
f 79 73 76
f 38 55 49
f 40 37 38
f 181 175 183
f 183 184 181
f 186 185 182
f 75 81 77
f 11 8 7
f 4 8 2
f 45 44 48
f 45 36 39
f 39 36 35
f 82 78 84
f 82 79 78
f 107 111 103
f 139 131 135
f 12 10 18
f 12 9 10
f 2 10 6
f 43 40 38
f 38 49 43
f 43 49 47
f 77 80 74
f 74 75 77
f 60 54 57
f 55 61 57
f 57 54 55
f 57 61 60
f 65 68 60
f 69 68 65
f 159 155 163
f 129 137 133
f 183 189 187
f 187 190 184
f 187 184 183
f 189 190 187
f 184 176 179
f 179 181 184
f 179 176 175
f 175 181 179
f 198 202 206
f 117 113 109
f 13 11 7
f 8 11 16
f 50 48 44
f 45 48 53
f 41 39 35
f 85 82 84
f 79 82 85
f 9 12 14
f 20 17 18
f 18 32 26
f 34 32 38
f 71 68 69
f 69 75 71
f 71 74 68
f 75 74 71
f 37 40 42
f 63 61 69
f 69 65 63
f 60 61 63
f 63 65 60
f 172 168 175
f 172 169 168
f 175 176 172
f 176 169 172
f 195 193 197
f 197 198 195
f 195 198 190
f 200 212 208
f 80 81 83
f 83 81 91
f 91 87 83
f 15 21 19
f 19 16 15
f 22 19 21
f 16 19 22
f 59 53 56
f 56 53 52
f 52 58 56
f 56 58 59
f 70 66 72
f 72 73 70
f 70 67 66
f 73 67 70
f 73 59 64
f 64 67 73
f 157 149 153
f 17 20 23
f 147 145 155
f 155 151 147
f 144 145 147
f 196 192 200
f 200 199 196
f 188 191 185
f 188 192 191
f 185 186 188
f 186 192 188
f 180 186 182
f 178 174 180
f 182 185 177
f 93 90 91
f 91 101 93
f 101 97 93
f 30 16 25
f 16 22 25
f 62 58 66
f 59 58 62
f 62 64 59
f 142 148 146
f 146 143 142
f 148 149 146
f 149 143 146
f 28 23 26
f 26 23 24
f 18 26 24
f 24 23 20
f 24 20 18
f 194 196 199
f 173 177 170
f 173 170 171
f 171 174 173
f 200 208 204
f 94 95 92
f 92 88 94
f 92 89 88
f 92 95 89
f 114 118 115
f 115 118 119
f 156 160 161
f 161 157 156
f 161 164 165
f 161 160 164
f 123 118 122
f 119 118 123
f 137 140 136
f 141 140 137
f 225 226 222
f 222 221 225
f 225 223 224
f 224 226 225
f 120 116 121
f 121 116 117
f 113 116 112
f 117 116 113
f 1 3 4
f 4 2 1
f 4 3 7
f 7 8 4
f 30 29 36
f 36 29 35
f 111 106 110
f 107 106 111
f 110 114 111
f 114 115 111
f 127 126 130
f 130 131 127
f 122 126 127
f 127 123 122
f 135 138 139
f 135 134 138
f 135 131 130
f 130 134 135
f 144 140 145
f 145 140 141
f 132 128 133
f 133 128 129
f 133 137 136
f 136 132 133
f 205 209 210
f 210 206 205
f 210 209 213
f 213 214 210
f 164 168 169
f 165 164 169
f 205 206 201
f 206 202 201
f 197 201 198
f 198 201 202
f 170 166 167
f 167 171 170
f 220 219 215
f 215 216 220
f 223 219 220
f 220 224 223
f 212 216 215
f 215 211 212
f 125 128 124
f 129 128 125
f 124 120 125
f 120 121 125
f 112 108 109
f 109 113 112
f 109 108 104
f 104 105 109
f 87 90 86
f 91 90 87
f 16 13 15
f 11 13 16
f 53 50 52
f 48 50 53
f 41 44 45
f 45 39 41
f 102 99 98
f 102 103 99
f 102 106 107
f 107 103 102
f 18 17 14
f 14 12 18
f 1 2 5
f 2 6 5
f 10 9 5
f 5 6 10
f 40 43 42
f 42 43 47
f 47 46 42
f 51 49 55
f 55 54 51
f 47 49 51
f 51 46 47
f 162 163 167
f 167 166 162
f 162 158 159
f 159 163 162
f 159 158 154
f 154 155 159
f 151 154 150
f 155 154 151
f 218 214 213
f 213 217 218
f 221 222 218
f 218 217 221
f 189 193 195
f 195 190 189
f 208 211 207
f 208 212 211
f 100 105 104
f 100 101 105
f 97 100 96
f 101 100 97
f 83 86 80
f 83 87 86
f 84 88 89
f 89 85 84
f 143 138 142
f 139 138 143
f 148 152 153
f 153 149 148
f 156 157 153
f 153 152 156
f 38 37 33
f 33 34 38
f 33 31 32
f 32 34 33
f 147 150 144
f 147 151 150
f 180 171 186
f 180 174 171
f 177 180 182
f 178 180 177
f 96 90 93
f 93 97 96
f 25 29 30
f 25 27 29
f 21 27 25
f 25 22 21
f 66 67 62
f 67 64 62
f 95 94 98
f 98 99 95
f 45 53 95
f 95 55 38
f 95 36 45
f 95 61 55
f 95 145 141
f 206 210 95
f 119 123 95
f 95 121 117
f 129 125 95
f 95 16 30
f 95 10 2
f 38 32 95
f 95 161 165
f 226 224 95
f 165 169 95
f 95 198 206
f 2 8 95
f 95 115 119
f 200 192 95
f 95 131 139
f 95 127 131
f 141 137 95
f 95 222 226
f 95 220 216
f 91 81 95
f 95 101 91
f 30 36 95
f 95 75 69
f 73 79 95
f 95 59 73
f 157 161 95
f 99 103 95
f 18 10 95
f 95 32 18
f 69 61 95
f 167 163 95
f 95 137 129
f 85 89 95
f 184 190 95
f 95 176 184
f 214 218 95
f 95 171 167
f 95 212 200
f 117 109 95
f 81 75 95
f 95 111 115
f 95 103 111
f 123 127 95
f 95 163 155
f 155 145 95
f 95 210 214
f 95 169 176
f 190 198 95
f 186 171 95
f 224 220 95
f 216 212 95
f 95 125 121
f 95 109 105
f 105 101 95
f 8 16 95
f 95 53 59
f 79 85 95
f 95 149 157
f 95 218 222
f 95 192 186
f 139 143 95
f 95 143 149
f 32 31 28
f 28 26 32
f 194 168 164
f 52 50 194
f 194 148 142
f 194 14 17
f 194 193 189
f 194 223 225
f 194 140 144
f 144 150 194
f 142 138 194
f 104 108 194
f 35 29 194
f 194 58 52
f 194 209 205
f 194 120 124
f 194 3 1
f 98 94 194
f 122 118 194
f 183 175 194
f 194 189 183
f 194 78 72
f 194 126 122
f 194 88 84
f 194 74 80
f 225 221 194
f 166 170 194
f 112 116 194
f 194 90 96
f 194 21 15
f 194 114 110
f 84 78 194
f 164 160 194
f 130 126 194
f 156 152 194
f 194 134 130
f 17 23 194
f 194 51 54
f 124 128 194
f 194 217 213
f 215 219 194
f 194 177 185
f 7 3 194
f 80 86 194
f 29 27 194
f 194 118 114
f 72 66 194
f 110 106 194
f 175 168 194
f 194 160 156
f 194 152 148
f 138 134 194
f 194 102 98
f 60 68 194
f 194 54 60
f 1 5 194
f 136 140 194
f 194 132 136
f 194 154 158
f 213 209 194
f 205 201 194
f 194 219 223
f 194 116 120
f 194 108 112
f 207 211 194
f 15 13 194
f 194 41 35
f 94 88 194
f 194 100 104
f 68 74 194
f 37 42 194
f 194 162 166
f 194 128 132
f 197 193 194
f 194 201 197
f 185 191 194
f 194 33 37
f 194 211 215
f 86 90 194
f 194 13 7
f 194 27 21
f 194 50 44
f 44 41 194
f 66 58 194
f 106 102 194
f 9 14 194
f 194 5 9
f 194 42 46
f 46 51 194
f 158 162 194
f 150 154 194
f 221 217 194
f 194 28 31
f 96 100 194
f 194 203 207
f 31 33 194
f 170 177 194
f 199 203 194
f 23 28 194
f 191 192 194
f 192 196 194
f 178 177 173
f 173 174 178
f 204 203 199
f 204 199 200
f 204 208 207
f 207 203 204

