# https://github.com/mikedh/trimesh

o right_foot_upper_aft_067.obj
v -0.11614897 -0.02402196 -0.01010182
v -0.11301959 -0.02708933 -0.01010182
v -0.11359033 -0.02708933 -0.01188983
v -0.11790928 -0.02402196 -0.01188983
v -0.11913188 -0.02402196 -0.01037715
v -0.11881385 -0.02408111 -0.01010182
v -0.11648351 -0.02682568 -0.01010182
v -0.11619132 -0.02708933 -0.01010935
v -0.11720860 -0.02708933 -0.01163585
v -0.11733208 -0.02703138 -0.01188598
v -0.11775206 -0.02663921 -0.01188983
v -0.12035377 -0.02402196 -0.01188983
v -0.11933074 -0.02402196 -0.01058597
v -0.11809378 -0.02501799 -0.01010182
v -0.11831634 -0.02473122 -0.01010182
v -0.11656894 -0.02674821 -0.01010182
v -0.11701117 -0.02648697 -0.01025340
v -0.11701117 -0.02669026 -0.01049548
v -0.11639377 -0.02708933 -0.01032499
v -0.11714973 -0.02708933 -0.01145643
v -0.11841756 -0.02600171 -0.01188983
v -0.11793369 -0.02646805 -0.01188983
v -0.12022957 -0.02415588 -0.01188983
v -0.11900984 -0.02517744 -0.01144436
v -0.11701117 -0.02685031 -0.01071498
v -0.12026690 -0.02402196 -0.01175260
v -0.11945279 -0.02402196 -0.01071900
v -0.11834434 -0.02494232 -0.01031239
v -0.11734285 -0.02594706 -0.01010182
v -0.11665940 -0.02666593 -0.01010182
v -0.11701117 -0.02634944 -0.01011092
v -0.11834434 -0.02523900 -0.01059455
v -0.11977872 -0.02402196 -0.01109428
v -0.11990435 -0.02402196 -0.01125059
v -0.12004076 -0.02402196 -0.01142773
v -0.11834434 -0.02546331 -0.01084118
v -0.11900984 -0.02503361 -0.01123974
v -0.11834434 -0.02563867 -0.01106470
v -0.11701117 -0.02677043 -0.01060523
v -0.11662781 -0.02708933 -0.01059648
v -0.11709876 -0.02708933 -0.01132043
v -0.11834434 -0.02604195 -0.01180143
v -0.11857478 -0.02584707 -0.01188983
v -0.12012619 -0.02426579 -0.01188983
v -0.11900984 -0.02523990 -0.01154360
v -0.11834434 -0.02577650 -0.01126722
v -0.11701117 -0.02697552 -0.01091347
v -0.11683529 -0.02708933 -0.01086498
v -0.11953319 -0.02402196 -0.01080862
v -0.11726388 -0.02604135 -0.01010182
v -0.11962868 -0.02402196 -0.01091837
v -0.11703056 -0.02708843 -0.01116710
v -0.11913691 -0.02528944 -0.01188983
v -0.11898686 -0.02544079 -0.01188983
v -0.11886769 -0.02555880 -0.01188983
v -0.11987205 -0.02453334 -0.01188983
v -0.11900984 -0.02528915 -0.01162955
v -0.11953750 -0.02488196 -0.01188983
v -0.11928695 -0.02513750 -0.01188983
v -0.11976723 -0.02464324 -0.01188983
v -0.11964088 -0.02477476 -0.01188983
f 1 2 3
f 1 3 4
f 1 4 12
f 1 12 26
f 1 26 35
f 1 35 34
f 1 34 33
f 1 33 51
f 1 51 49
f 1 49 27
f 1 27 13
f 1 13 5
f 1 5 6
f 1 6 15
f 1 15 14
f 1 14 29
f 1 29 50
f 1 50 30
f 1 30 16
f 1 16 7
f 1 7 2
f 2 7 8
f 2 8 19
f 2 19 40
f 2 40 48
f 2 48 41
f 2 41 20
f 2 20 9
f 2 9 3
f 3 9 10
f 3 10 11
f 3 11 22
f 3 22 21
f 3 21 43
f 3 43 55
f 3 55 54
f 3 54 53
f 3 53 59
f 3 59 58
f 3 58 61
f 3 61 60
f 3 60 56
f 3 56 44
f 3 44 23
f 3 23 12
f 3 12 4
f 5 13 14
f 5 14 15
f 5 15 6
f 7 16 17
f 7 17 18
f 7 18 8
f 8 18 19
f 9 20 21
f 9 21 22
f 9 22 11
f 9 11 10
f 12 23 24
f 12 24 25
f 12 25 26
f 13 27 14
f 14 27 28
f 14 28 29
f 16 30 17
f 17 30 31
f 17 31 32
f 17 32 33
f 17 33 34
f 17 34 35
f 17 35 36
f 17 36 18
f 18 36 35
f 18 35 37
f 18 37 38
f 18 38 39
f 18 39 40
f 18 40 19
f 20 41 42
f 20 42 21
f 21 42 43
f 23 44 45
f 23 45 46
f 23 46 24
f 24 46 25
f 25 39 38
f 25 38 26
f 25 46 47
f 25 47 48
f 25 48 40
f 25 40 39
f 26 37 35
f 26 38 37
f 27 49 28
f 28 49 29
f 29 49 51
f 29 51 33
f 29 33 50
f 30 50 31
f 31 50 32
f 32 50 33
f 41 48 52
f 41 52 53
f 41 53 54
f 41 54 55
f 41 55 42
f 42 55 43
f 44 56 45
f 45 57 47
f 45 47 46
f 45 56 57
f 47 52 48
f 47 57 58
f 47 58 52
f 52 58 59
f 52 59 53
f 56 60 57
f 57 60 61
f 57 61 58

