# https://github.com/mikedh/trimesh

o right_hip_yaw_to_roll_u_carrier_098.obj
v 0.00088613 0.02298298 0.02757172
v 0.00088613 0.02298298 0.02699157
v -0.00116952 0.02297005 0.02757172
v 0.00239602 0.02285691 0.02757172
v 0.00239602 0.02285691 0.02699157
v -0.00116952 0.02297005 0.02699157
v -0.00142260 0.02294581 0.02699157
v -0.00258471 0.02283428 0.02699157
v -0.00317868 0.02277610 0.02757172
v 0.00293145 0.02281166 0.02757172
v 0.00292284 0.02281166 0.02699157
v -0.00321483 0.02277286 0.02699157
v -0.00335601 0.02274700 0.02757172
v 0.00303647 0.02279388 0.02699157
v 0.00346344 0.02271953 0.02757172
v -0.00350407 0.02271953 0.02699157
v -0.00374682 0.02267427 0.02699157
v -0.00487794 0.02246253 0.02757172
v 0.00478050 0.02249001 0.02757172
v 0.00426056 0.02258052 0.02699157
v -0.00454050 0.02252557 0.02699157
v -0.00505872 0.02242859 0.02757172
v 0.00469269 0.02250456 0.02699157
v 0.00495611 0.02245769 0.02757172
v 0.00495611 0.02245769 0.02699157
v -0.00497091 0.02244475 0.02699157
v -0.00523605 0.02239465 0.02699157
v -0.00523605 0.02239465 0.02757172
v 0.00512999 0.02241243 0.02757172
v 0.00520230 0.02239303 0.02699157
v -0.00547880 0.02232676 0.02699157
v -0.00545125 0.02233485 0.02757172
v 0.00530044 0.02236717 0.02757172
v 0.00642123 0.02206654 0.02757172
v 0.00693428 0.02192754 0.02699157
v -0.00591610 0.02220393 0.02699157
v -0.00562342 0.02228636 0.02757172
v 0.00686541 0.02194693 0.02757172
v 0.00694117 0.02192592 0.02757172
v 0.00719425 0.02183379 0.02699157
v -0.00617434 0.02213119 0.02699157
v -0.00602973 0.02217160 0.02757172
v 0.00712022 0.02186127 0.02757172
v 0.00761950 0.02167863 0.02699157
v -0.00629486 0.02209563 0.02699157
v -0.00631380 0.02209079 0.02757172
v 0.00728377 0.02180147 0.02757172
v 0.00772452 0.02163984 0.02757172
v 0.00885736 0.02122445 0.02699157
v -0.00631380 0.00647084 0.02699157
v -0.00631380 0.00647084 0.02757172
v 0.00884014 0.02122930 0.02757172
v 0.00894000 0.02118727 0.02757172
v 0.00936008 0.02098847 0.02699157
v 0.00910528 0.00647084 0.02699157
v 0.00910528 0.00647084 0.02757172
v 0.01073051 0.02034195 0.02757172
v 0.01027944 0.02055530 0.02699157
v 0.01127455 0.00931553 0.02699157
v 0.01127455 0.00931553 0.02757172
v 0.01125217 0.02003485 0.02757172
v 0.01127455 0.02002354 0.02699157
v 0.01073051 0.02034195 0.02699157
f 1 2 6
f 1 6 3
f 1 3 9
f 1 9 13
f 1 13 18
f 1 18 22
f 1 22 28
f 1 28 32
f 1 32 37
f 1 37 42
f 1 42 46
f 1 46 51
f 1 51 56
f 1 56 60
f 1 60 61
f 1 61 57
f 1 57 53
f 1 53 52
f 1 52 48
f 1 48 47
f 1 47 43
f 1 43 39
f 1 39 38
f 1 38 34
f 1 34 33
f 1 33 29
f 1 29 24
f 1 24 19
f 1 19 15
f 1 15 10
f 1 10 4
f 1 4 5
f 1 5 2
f 2 5 11
f 2 11 14
f 2 14 20
f 2 20 23
f 2 23 25
f 2 25 30
f 2 30 35
f 2 35 40
f 2 40 44
f 2 44 49
f 2 49 54
f 2 54 58
f 2 58 63
f 2 63 62
f 2 62 59
f 2 59 55
f 2 55 50
f 2 50 45
f 2 45 41
f 2 41 36
f 2 36 31
f 2 31 27
f 2 27 26
f 2 26 21
f 2 21 17
f 2 17 16
f 2 16 12
f 2 12 8
f 2 8 7
f 2 7 6
f 3 6 7
f 3 7 8
f 3 8 9
f 4 10 5
f 5 10 11
f 8 12 9
f 9 12 13
f 10 14 11
f 10 15 14
f 12 16 13
f 13 16 17
f 13 17 18
f 14 15 19
f 14 19 20
f 17 21 18
f 18 21 26
f 18 26 22
f 19 23 20
f 19 24 25
f 19 25 23
f 22 26 27
f 22 27 28
f 24 29 25
f 25 29 30
f 27 31 32
f 27 32 28
f 29 33 30
f 30 33 34
f 30 34 35
f 31 36 32
f 32 36 41
f 32 41 37
f 34 38 35
f 35 38 39
f 35 39 40
f 37 41 42
f 39 43 40
f 40 43 44
f 41 45 46
f 41 46 42
f 43 47 44
f 44 48 49
f 44 47 48
f 45 50 46
f 46 50 51
f 48 52 49
f 49 52 53
f 49 53 54
f 50 55 56
f 50 56 51
f 53 57 58
f 53 58 54
f 55 59 60
f 55 60 56
f 57 61 62
f 57 62 63
f 57 63 58
f 59 62 60
f 60 62 61

