# https://github.com/mikedh/trimesh

o right_foot_front_saddle_037.obj
v 0.02660000 0.00500773 -0.02365184
v 0.02660054 0.00500894 -0.02447747
v 0.03209946 0.00500773 -0.02365184
v 0.02660000 0.00500773 -0.02310344
v 0.02660000 0.01685981 -0.02365184
v 0.03209838 0.00500894 -0.02447747
v 0.02660054 0.01554587 -0.02447747
v 0.03209946 0.00500773 -0.02310344
v 0.03210000 0.01620647 -0.02337757
v 0.02660000 0.01620526 -0.02310344
v 0.02660000 0.01685981 -0.02337757
v 0.03046873 0.01736796 -0.02420185
v 0.02660054 0.01620647 -0.02420172
v 0.03209838 0.01554587 -0.02447747
v 0.03209892 0.01620768 -0.02420185
v 0.03210000 0.01620647 -0.02310344
v 0.03210000 0.01660936 -0.02337757
v 0.02979200 0.01660936 -0.02310344
v 0.03046873 0.01736796 -0.02392664
v 0.03209892 0.01736796 -0.02420185
v 0.03210000 0.01660936 -0.02310344
v 0.03209892 0.01736796 -0.02392664
f 1 2 6
f 1 6 3
f 1 3 8
f 1 8 4
f 1 4 10
f 1 10 11
f 1 11 5
f 1 5 7
f 1 7 2
f 2 7 14
f 2 14 6
f 3 6 9
f 3 9 16
f 3 16 8
f 4 8 16
f 4 16 21
f 4 21 18
f 4 18 10
f 5 11 19
f 5 19 12
f 5 12 13
f 5 13 7
f 6 14 20
f 6 20 15
f 6 15 9
f 7 13 12
f 7 12 20
f 7 20 14
f 9 15 20
f 9 20 17
f 9 17 21
f 9 21 16
f 10 18 11
f 11 18 19
f 12 19 22
f 12 22 20
f 17 20 22
f 17 22 21
f 18 21 22
f 18 22 19

