# https://github.com/mikedh/trimesh

o right_ankle_tapped_load_plate_198.obj
v 0.06206192 0.01683420 -0.02850009
v 0.06206705 0.01681294 -0.02850009
v 0.06208499 0.01674158 -0.02945675
v 0.06206192 0.01683420 -0.02945675
v 0.03630804 0.01683420 -0.02850009
v 0.06245404 0.01516602 -0.02850009
v 0.06236177 0.01555996 -0.02945675
v 0.03630804 0.01683420 -0.02945675
v 0.03630804 0.01494567 -0.02850009
v 0.06248736 0.01494567 -0.02850009
v 0.06245404 0.01516602 -0.02945675
v 0.03630804 0.01494567 -0.02945675
v 0.06248736 0.01494567 -0.02945675
f 1 2 3
f 1 3 4
f 1 4 8
f 1 8 5
f 1 5 9
f 1 9 10
f 1 10 6
f 1 6 2
f 2 6 3
f 3 6 7
f 3 7 11
f 3 11 13
f 3 13 12
f 3 12 8
f 3 8 4
f 5 8 12
f 5 12 9
f 6 10 13
f 6 13 11
f 6 11 7
f 9 12 13
f 9 13 10

