# https://github.com/mikedh/trimesh

o right_shin_output_adapter_153.obj
v 0.01094524 -0.03275970 -0.00816303
v 0.01094524 -0.03306309 -0.00816303
v 0.01094524 -0.03177967 -0.00816327
v 0.01055246 -0.03275970 -0.00562824
v 0.01055246 -0.03306309 -0.00562824
v 0.00862176 -0.03306309 -0.00816303
v 0.01094524 -0.03275970 -0.00816327
v 0.00862176 -0.03177967 -0.00816327
v 0.01018902 -0.03177967 -0.00619996
v 0.00862176 -0.03275970 -0.00562824
v 0.00862176 -0.03306309 -0.00562824
v 0.00862176 -0.03275970 -0.00816327
v 0.00862176 -0.03177967 -0.00619996
f 1 2 7
f 1 7 3
f 1 3 4
f 1 4 5
f 1 5 2
f 2 5 11
f 2 11 6
f 2 6 12
f 2 12 7
f 3 7 12
f 3 12 8
f 3 8 13
f 3 13 9
f 3 9 4
f 4 9 13
f 4 13 10
f 4 10 11
f 4 11 5
f 6 11 10
f 6 10 13
f 6 13 8
f 6 8 12

