# https://github.com/mikedh/trimesh

o right_ankle_pitch_bearing_cover_007.obj
v 0.00566771 0.05575000 0.01279052
v 0.00559452 0.05575000 0.01282277
v 0.00566771 0.05475000 0.01279052
v 0.00566771 0.05575000 0.00632956
v 0.00559452 0.05475000 0.01282277
v 0.00511453 0.05575000 0.01303204
v 0.00566771 0.05475000 0.00632956
v 0.00310710 0.05575000 0.00791201
v 0.00511453 0.05475000 0.01303204
v 0.00412673 0.05575000 0.01337748
v 0.00478518 0.05508340 0.01314743
v 0.00310710 0.05475000 0.00791201
v 0.00310710 0.05575000 0.01365054
v 0.00412673 0.05475000 0.01337748
v 0.00362118 0.05575000 0.01351294
v 0.00310710 0.05475000 0.01365054
v 0.00311538 0.05575000 0.01364839
v 0.00362118 0.05475000 0.01351294
v 0.00311538 0.05475000 0.01364839
f 1 2 5
f 1 5 3
f 1 3 7
f 1 7 4
f 1 4 8
f 1 8 13
f 1 13 17
f 1 17 15
f 1 15 10
f 1 10 6
f 1 6 2
f 2 6 9
f 2 9 5
f 3 5 9
f 3 9 14
f 3 14 18
f 3 18 19
f 3 19 16
f 3 16 12
f 3 12 7
f 4 7 12
f 4 12 8
f 6 10 11
f 6 11 9
f 8 12 16
f 8 16 13
f 9 11 14
f 10 14 11
f 10 15 18
f 10 18 14
f 13 16 19
f 13 19 17
f 15 17 19
f 15 19 18

