# https://github.com/mikedh/trimesh

o right_ankle_pitch_bearing_007.obj
v -0.00256668 0.05475000 -0.00428808
v -0.00412841 0.05475000 -0.00282057
v -0.00256668 0.04975000 -0.00428808
v -0.00847107 0.05475000 -0.00428808
v -0.00412841 0.04975000 -0.00282057
v -0.00907081 0.05475000 -0.00282057
v -0.00847107 0.04975000 -0.00428808
v -0.00855893 0.05475000 -0.00412187
v -0.00907081 0.04975000 -0.00282057
v -0.00884288 0.05475000 -0.00347079
v -0.00855893 0.04975000 -0.00412187
v -0.00865379 0.05308301 -0.00390479
v -0.00884288 0.04975000 -0.00347079
f 1 2 5
f 1 5 3
f 1 3 7
f 1 7 4
f 1 4 8
f 1 8 10
f 1 10 6
f 1 6 2
f 2 6 9
f 2 9 5
f 3 5 9
f 3 9 13
f 3 13 11
f 3 11 7
f 4 7 11
f 4 11 8
f 6 10 13
f 6 13 9
f 8 11 12
f 8 12 10
f 10 12 13
f 11 13 12

