# https://github.com/mikedh/trimesh

o right_foot_front_saddle_123.obj
v 0.04759604 -0.01723317 -0.02549386
v 0.04813810 -0.01934729 -0.02549386
v 0.04759604 -0.01723317 -0.02573951
v 0.03040396 -0.01723317 -0.02549386
v 0.04813810 -0.01934770 -0.02549386
v 0.04813810 -0.01934770 -0.02573951
v 0.03040396 -0.01723317 -0.02573951
v 0.02986190 -0.01934770 -0.02549386
v 0.02986190 -0.01934770 -0.02573951
f 1 2 3
f 1 3 7
f 1 7 4
f 1 4 8
f 1 8 5
f 1 5 2
f 2 5 6
f 2 6 3
f 3 6 9
f 3 9 7
f 4 7 9
f 4 9 8
f 5 8 9
f 5 9 6

