# https://github.com/mikedh/trimesh

o right_shin_output_fork_plate_084.obj
v 0.01965725 -0.03675000 0.00366495
v 0.01964777 -0.03675000 0.00373416
v 0.01965725 -0.04225000 0.00366495
v 0.01273987 -0.03675000 0.00366495
v 0.01964777 -0.04225000 0.00373416
v 0.01941279 -0.03675000 0.00470496
v 0.01949134 -0.04041631 0.00438112
v 0.01273987 -0.04225000 0.00366495
v 0.01273987 -0.03675000 0.00404691
v 0.01941279 -0.04225000 0.00470496
v 0.01917781 -0.03675000 0.00567503
v 0.01917781 -0.04225000 0.00567503
v 0.01273987 -0.04225000 0.00404691
v 0.01450324 -0.03675000 0.00744564
v 0.01884666 -0.03675000 0.00661770
v 0.01884666 -0.04225000 0.00661770
v 0.01450324 -0.04225000 0.00744564
v 0.01855548 -0.03675000 0.00744564
v 0.01873628 -0.04041631 0.00693156
v 0.01855548 -0.04225000 0.00744564
f 1 2 5
f 1 5 3
f 1 3 8
f 1 8 4
f 1 4 9
f 1 9 14
f 1 14 18
f 1 18 15
f 1 15 11
f 1 11 6
f 1 6 2
f 2 6 7
f 2 7 5
f 3 5 10
f 3 10 12
f 3 12 16
f 3 16 20
f 3 20 17
f 3 17 13
f 3 13 8
f 4 8 13
f 4 13 9
f 5 7 10
f 6 11 7
f 7 11 12
f 7 12 10
f 9 13 17
f 9 17 14
f 11 15 16
f 11 16 12
f 14 17 20
f 14 20 18
f 15 19 16
f 15 18 19
f 16 19 20
f 18 20 19

