# https://github.com/mikedh/trimesh

o right_thigh_idler_bearing_installation_001.obj
v 0.00950000 0.04175000 0.00000058
v 0.00948413 0.03841699 0.00031621
v 0.00950000 0.03675000 0.00000058
v 0.00948413 0.04008301 -0.00031505
v 0.00945239 0.04175000 -0.00094524
v 0.00945239 0.04175000 0.00094640
v 0.00945239 0.03675000 0.00094640
v 0.00945239 0.03675000 -0.00094524
v 0.00931160 0.04175000 -0.00188133
v 0.00931160 0.04175000 0.00188249
v 0.00931160 0.03675000 0.00188249
v 0.00931160 0.03675000 -0.00188133
v 0.00915546 0.04008301 -0.00249422
v 0.00913856 0.04175000 -0.00256016
v 0.00907764 0.04175000 0.00280020
v 0.00907764 0.03675000 0.00280020
v 0.00913856 0.03675000 -0.00256016
v 0.00428837 0.04175000 -0.00256016
v 0.00891587 0.04175000 0.00324447
v 0.00891587 0.03675000 0.00324447
v 0.00428837 0.03675000 -0.00256016
v 0.00427045 0.04175000 0.00259050
v 0.00875358 0.04175000 0.00368981
v 0.00875358 0.03675000 0.00368981
v 0.00427045 0.03675000 0.00259050
v 0.00427045 0.04175000 0.00848269
v 0.00834300 0.04175000 0.00454267
v 0.00861689 0.03841699 0.00397410
v 0.00834300 0.03675000 0.00454267
v 0.00427045 0.03675000 0.00848269
v 0.00433445 0.04175000 0.00845350
v 0.00784897 0.04175000 0.00535121
v 0.00801382 0.03841699 0.00508206
v 0.00784897 0.03675000 0.00535121
v 0.00433445 0.03675000 0.00845350
v 0.00515459 0.04175000 0.00798005
v 0.00756330 0.04175000 0.00572846
v 0.00765852 0.03841699 0.00560307
v 0.00756330 0.03675000 0.00572846
v 0.00515459 0.03675000 0.00798005
v 0.00566705 0.03841699 0.00761145
v 0.00592353 0.04175000 0.00742661
v 0.00727712 0.04175000 0.00610571
v 0.00727712 0.03675000 0.00610571
v 0.00592353 0.03675000 0.00742661
v 0.00639657 0.03841699 0.00700937
v 0.00663360 0.04175000 0.00679967
v 0.00663360 0.03675000 0.00679967
f 1 2 3
f 1 3 4
f 1 4 5
f 1 5 9
f 1 9 14
f 1 14 18
f 1 18 22
f 1 22 26
f 1 26 31
f 1 31 36
f 1 36 42
f 1 42 47
f 1 47 43
f 1 43 37
f 1 37 32
f 1 32 27
f 1 27 23
f 1 23 19
f 1 19 15
f 1 15 10
f 1 10 6
f 1 6 2
f 2 6 7
f 2 7 3
f 3 7 11
f 3 11 16
f 3 16 20
f 3 20 24
f 3 24 29
f 3 29 34
f 3 34 39
f 3 39 44
f 3 44 48
f 3 48 45
f 3 45 40
f 3 40 35
f 3 35 30
f 3 30 25
f 3 25 21
f 3 21 17
f 3 17 12
f 3 12 8
f 3 8 4
f 4 8 5
f 5 8 12
f 5 12 9
f 6 10 11
f 6 11 7
f 9 12 13
f 9 13 14
f 10 15 16
f 10 16 11
f 12 17 13
f 13 17 14
f 14 17 21
f 14 21 18
f 15 19 20
f 15 20 16
f 18 21 25
f 18 25 22
f 19 23 24
f 19 24 20
f 22 25 30
f 22 30 26
f 23 27 28
f 23 28 24
f 24 28 29
f 26 30 35
f 26 35 31
f 27 29 28
f 27 32 33
f 27 33 29
f 29 33 34
f 31 35 40
f 31 40 36
f 32 37 38
f 32 38 34
f 32 34 33
f 34 38 39
f 36 40 41
f 36 41 42
f 37 43 38
f 38 43 44
f 38 44 39
f 40 45 41
f 41 45 42
f 42 45 46
f 42 46 47
f 43 47 48
f 43 48 44
f 45 48 46
f 46 48 47

