# https://github.com/mikedh/trimesh

o right_hip_roll_carrier_arm_002.obj
v 0.03575000 -0.02507799 0.00307983
v 0.03025000 -0.02507799 0.00307983
v 0.03575000 -0.03021848 0.00106818
v 0.03575000 -0.02507799 -0.02268742
v 0.03025000 -0.03021848 0.00106818
v 0.03025000 -0.02507799 -0.02268742
v 0.03575000 -0.03021848 -0.02075047
v 0.03575000 -0.02888026 -0.02417615
v 0.03025000 -0.03021848 -0.02075047
v 0.03025000 -0.02888026 -0.02417615
f 1 2 5
f 1 5 3
f 1 3 7
f 1 7 8
f 1 8 4
f 1 4 6
f 1 6 2
f 2 6 10
f 2 10 9
f 2 9 5
f 3 5 9
f 3 9 7
f 4 8 10
f 4 10 6
f 7 9 10
f 7 10 8

