# https://github.com/mikedh/trimesh

o right_ankle_tapped_load_plate_033.obj
v 0.05662108 0.02837325 -0.02967918
v 0.05707946 0.02772423 -0.02967918
v 0.05662108 0.02837325 -0.03154089
v -0.04982919 0.02837325 -0.02967918
v 0.05797489 0.02645321 -0.02967918
v 0.05811347 0.02625512 -0.03154089
v -0.04982919 0.02837325 -0.03154089
v -0.04982919 0.02473306 -0.02967918
v 0.05834799 0.02592196 -0.02967918
v 0.05872109 0.02539036 -0.03154089
v -0.04982919 0.02473306 -0.03154089
v -0.04934949 0.02469416 -0.02967918
v 0.05872109 0.02539036 -0.02967918
v 0.05907286 0.02469416 -0.03154089
v -0.04934949 0.02469416 -0.03154089
v 0.05907286 0.02469416 -0.02967918
f 1 2 3
f 1 3 7
f 1 7 4
f 1 4 8
f 1 8 12
f 1 12 16
f 1 16 13
f 1 13 9
f 1 9 5
f 1 5 2
f 2 5 6
f 2 6 3
f 3 6 10
f 3 10 14
f 3 14 15
f 3 15 11
f 3 11 7
f 4 7 11
f 4 11 8
f 5 9 10
f 5 10 6
f 8 11 15
f 8 15 12
f 9 13 10
f 10 13 16
f 10 16 14
f 12 15 14
f 12 14 16

