# https://github.com/mikedh/trimesh

o right_foot_upper_aft_011.obj
v -0.08699952 0.03306592 -0.01368716
v -0.08593434 0.03180628 -0.01439108
v -0.08904327 0.03234913 -0.01400868
v -0.08904327 0.03297615 -0.01364203
v -0.08707746 0.02827282 -0.01363263
v -0.08316532 0.02790110 -0.01603372
v -0.08504670 0.03066026 -0.01494740
v -0.08729612 0.03098429 -0.01474457
v -0.08904327 0.03064903 -0.01485104
v -0.09104372 0.03042460 -0.01489100
v -0.09303768 0.03020016 -0.01493095
v -0.08542340 0.03115401 -0.01471496
v -0.09303768 0.03098008 -0.01454268
v -0.09303768 0.03175999 -0.01415393
v -0.09082939 0.03276153 -0.01367846
v -0.09178415 0.03275592 -0.01363263
v -0.08317181 0.01897980 -0.01603372
v -0.10528287 0.02711418 -0.01363263
v -0.08476958 0.02787726 -0.01603372
v -0.08416771 0.02802454 -0.01598671
v -0.08362213 0.02861930 -0.01578623
v -0.08504670 0.02923088 -0.01553475
v -0.09303768 0.02809047 -0.01580880
v -0.09703209 0.02956193 -0.01508913
v -0.09503380 0.03143456 -0.01423667
v -0.09645836 0.03232949 -0.01363263
v -0.09303768 0.03264511 -0.01363263
v -0.08904327 0.01873572 -0.01603372
v -0.10364397 0.03135460 -0.01363263
v -0.10516379 0.03108668 -0.01364109
v -0.10515297 0.02934310 -0.01475444
v -0.10515297 0.02800350 -0.01542781
v -0.10515297 0.02655870 -0.01603372
v -0.10515297 0.01879884 -0.01603372
v -0.10102866 0.01873572 -0.01603372
v -0.08593434 0.02782536 -0.01603372
v -0.08904327 0.02827002 -0.01582431
v -0.09104372 0.02818025 -0.01581655
v -0.09706889 0.02731617 -0.01600787
v -0.09906501 0.02712400 -0.01603325
v -0.10112175 0.02696970 -0.01603372
v -0.10102866 0.02889563 -0.01523908
v -0.09903037 0.03000238 -0.01477935
v -0.09703209 0.03110772 -0.01431940
v -0.09703209 0.03166180 -0.01399388
v -0.09719230 0.03223551 -0.01364156
v -0.09998513 0.03191008 -0.01363263
v -0.10302695 0.03097447 -0.01396943
v -0.10515297 0.03038673 -0.01413114
v -0.10207219 0.03160990 -0.01363263
v -0.10290138 0.03143877 -0.01365872
v -0.10369160 0.02927156 -0.01488653
v -0.10502307 0.02993084 -0.01442046
v -0.10102866 0.03034464 -0.01451471
v -0.10302695 0.02848043 -0.01532439
v -0.10434759 0.02664707 -0.01603372
v -0.10381717 0.02670178 -0.01603372
v -0.10302695 0.02754341 -0.01571713
v -0.09917110 0.03192271 -0.01369186
v -0.10102866 0.03163374 -0.01373323
v -0.10302695 0.03044564 -0.01428508
f 1 2 3
f 1 3 4
f 1 4 5
f 1 5 6
f 1 6 7
f 1 7 2
f 2 8 9
f 2 9 10
f 2 10 11
f 2 11 3
f 2 7 12
f 2 12 8
f 3 11 13
f 3 13 14
f 3 14 15
f 3 15 4
f 4 15 16
f 4 16 5
f 5 17 6
f 5 16 27
f 5 27 26
f 5 26 47
f 5 47 50
f 5 50 29
f 5 29 18
f 5 18 17
f 6 17 28
f 6 28 35
f 6 35 34
f 6 34 33
f 6 33 56
f 6 56 57
f 6 57 41
f 6 41 36
f 6 36 19
f 6 19 20
f 6 20 21
f 6 21 7
f 7 22 23
f 7 23 9
f 7 9 8
f 7 8 12
f 7 21 22
f 9 23 10
f 10 23 11
f 11 23 24
f 11 24 13
f 13 24 25
f 13 25 14
f 14 25 26
f 14 26 27
f 14 27 16
f 14 16 15
f 17 18 28
f 18 29 30
f 18 30 31
f 18 31 32
f 18 32 33
f 18 33 34
f 18 34 35
f 18 35 28
f 19 21 20
f 19 36 21
f 21 36 37
f 21 37 22
f 22 37 38
f 22 38 23
f 23 38 39
f 23 39 40
f 23 40 24
f 24 40 41
f 24 41 42
f 24 42 43
f 24 43 44
f 24 44 25
f 25 45 26
f 25 44 45
f 26 45 46
f 26 46 47
f 29 48 49
f 29 49 30
f 29 50 51
f 29 51 48
f 30 49 31
f 31 52 32
f 31 49 53
f 31 53 54
f 31 54 52
f 32 52 55
f 32 55 56
f 32 56 33
f 36 41 40
f 36 40 39
f 36 39 37
f 37 39 38
f 41 57 42
f 42 54 43
f 42 57 58
f 42 58 55
f 42 55 54
f 43 54 44
f 44 54 45
f 45 54 46
f 46 54 59
f 46 59 47
f 47 59 60
f 47 60 50
f 48 61 53
f 48 53 49
f 48 51 50
f 48 50 60
f 48 60 54
f 48 54 61
f 52 54 55
f 53 61 54
f 54 60 59
f 55 58 56
f 56 58 57

