# https://github.com/mikedh/trimesh

o right_ankle_tapped_load_plate_036.obj
v -0.09127239 -0.03741912 -0.03154089
v -0.09007428 -0.03760314 -0.03154089
v -0.09127239 -0.03741912 -0.02850000
v -0.09127239 -0.02706258 -0.03154089
v -0.08693481 -0.03808495 -0.03154089
v -0.08548849 -0.03830689 -0.02850000
v -0.09127239 -0.02706258 -0.02850000
v -0.08418916 -0.02776521 -0.03154089
v -0.08548849 -0.03830689 -0.03154089
v -0.08418916 -0.03845522 -0.02850000
v -0.08418916 -0.02776521 -0.02850000
v -0.08418916 -0.03845522 -0.03154089
f 1 2 3
f 1 3 7
f 1 7 4
f 1 4 8
f 1 8 12
f 1 12 9
f 1 9 5
f 1 5 2
f 2 5 6
f 2 6 3
f 3 6 10
f 3 10 11
f 3 11 7
f 4 7 11
f 4 11 8
f 5 9 6
f 6 9 12
f 6 12 10
f 8 11 10
f 8 10 12

