# https://github.com/mikedh/trimesh

o right_foot_front_saddle_020.obj
v 0.03210000 0.01538790 0.01275601
v 0.03210000 0.01563528 0.01246976
v 0.03120502 0.01542518 0.01271366
v 0.03120502 0.01538790 0.01275601
v 0.03210000 -0.01538791 0.01275601
v 0.03210000 0.01652310 0.01126660
v 0.03120502 0.01578099 0.01227383
v 0.03120502 0.01563528 0.01246976
v 0.03120502 -0.01538791 0.01275601
v 0.03120502 -0.01547601 0.01265416
v 0.03210000 -0.01563528 0.01246976
v 0.03120502 0.01652310 0.01126660
v 0.03120502 0.01645194 0.01136443
v 0.03210000 0.01730927 0.01001814
v 0.03120502 0.01698735 0.01053034
v 0.03120502 -0.01563528 0.01246976
v 0.03120502 -0.01578099 0.01227383
v 0.03210000 -0.01652311 0.01126660
v 0.03120502 0.01730927 0.01001814
v 0.03210000 -0.01730928 0.01001814
v 0.03120502 -0.01633334 0.01152524
v 0.03120502 -0.01652311 0.01126660
v 0.03120502 -0.01669593 0.01099402
v 0.03120502 -0.01730928 0.01001814
f 1 2 3
f 1 3 4
f 1 4 9
f 1 9 5
f 1 5 11
f 1 11 18
f 1 18 20
f 1 20 14
f 1 14 6
f 1 6 2
f 2 6 7
f 2 7 8
f 2 8 3
f 3 8 7
f 3 7 13
f 3 13 12
f 3 12 15
f 3 15 19
f 3 19 24
f 3 24 23
f 3 23 22
f 3 22 21
f 3 21 17
f 3 17 16
f 3 16 10
f 3 10 9
f 3 9 4
f 5 9 10
f 5 10 11
f 6 12 13
f 6 13 7
f 6 14 15
f 6 15 12
f 10 16 11
f 11 16 17
f 11 17 18
f 14 19 15
f 14 20 24
f 14 24 19
f 17 21 18
f 18 21 22
f 18 22 23
f 18 23 20
f 20 23 24

