# https://github.com/mikedh/trimesh

o right_shin_bearing_outer_retainer_006.obj
v 0.00230187 0.04924961 -0.00818237
v 0.00188892 0.04925000 -0.00827683
v -0.00109206 0.04925000 -0.00842819
v 0.00230187 0.04825000 -0.00818237
v 0.00230187 0.04925000 -0.00940523
v -0.00109206 0.04825000 -0.00842819
v -0.00109206 0.04925000 -0.01393988
v 0.00230187 0.04825000 -0.01380331
v 0.00230187 0.04925000 -0.01380331
v -0.00109206 0.04825000 -0.01393988
v -0.00034889 0.04925000 -0.01399565
v 0.00173843 0.04825000 -0.01387387
v 0.00150754 0.04858340 -0.01390290
v 0.00173843 0.04925000 -0.01387387
v -0.00034889 0.04825000 -0.01399565
v 0.00034876 0.04925000 -0.01397801
v 0.00058132 0.04891660 -0.01397232
v 0.00104609 0.04825000 -0.01396037
v 0.00104609 0.04925000 -0.01396037
v 0.00034876 0.04825000 -0.01397801
f 1 2 3
f 1 3 6
f 1 6 4
f 1 4 8
f 1 8 9
f 1 9 5
f 1 5 2
f 2 5 9
f 2 9 14
f 2 14 19
f 2 19 16
f 2 16 11
f 2 11 7
f 2 7 3
f 3 7 10
f 3 10 6
f 4 6 10
f 4 10 15
f 4 15 20
f 4 20 18
f 4 18 12
f 4 12 8
f 7 11 15
f 7 15 10
f 8 12 13
f 8 13 9
f 9 13 14
f 11 16 17
f 11 17 15
f 12 18 13
f 13 18 19
f 13 19 14
f 15 17 20
f 16 19 17
f 17 19 18
f 17 18 20

