# https://github.com/mikedh/trimesh

o right_shin_output_fork_plate_089.obj
v -0.01852967 -0.04225000 0.00747244
v -0.01449996 -0.04225000 0.00747244
v -0.01835321 -0.04225000 0.00788464
v -0.01848439 -0.03858369 0.00757874
v -0.01852967 -0.03675000 0.00747244
v -0.01449996 -0.03675000 0.00747244
v -0.01376096 -0.04225000 0.00877765
v -0.01835321 -0.03675000 0.00788464
v -0.01795874 -0.04225000 0.00880234
v -0.01376096 -0.03675000 0.00877765
v -0.01376096 -0.04225000 0.01447929
v -0.01795874 -0.03675000 0.00880234
v -0.01747509 -0.04225000 0.00967614
v -0.01376096 -0.03675000 0.01447929
v -0.01383892 -0.04225000 0.01440453
v -0.01747509 -0.03675000 0.00967614
v -0.01699099 -0.04225000 0.01054994
v -0.01383892 -0.03675000 0.01440453
v -0.01455925 -0.04225000 0.01371249
v -0.01699099 -0.03675000 0.01054994
v -0.01585425 -0.04225000 0.01219191
v -0.01455925 -0.03675000 0.01371249
v -0.01542289 -0.04041631 0.01269877
v -0.01585425 -0.03675000 0.01219191
f 1 2 7
f 1 7 11
f 1 11 15
f 1 15 19
f 1 19 21
f 1 21 17
f 1 17 13
f 1 13 9
f 1 9 3
f 1 3 4
f 1 4 5
f 1 5 6
f 1 6 2
f 2 6 10
f 2 10 7
f 3 8 4
f 3 9 12
f 3 12 8
f 4 8 5
f 5 8 12
f 5 12 16
f 5 16 20
f 5 20 24
f 5 24 22
f 5 22 18
f 5 18 14
f 5 14 10
f 5 10 6
f 7 10 14
f 7 14 11
f 9 13 16
f 9 16 12
f 11 14 18
f 11 18 15
f 13 17 20
f 13 20 16
f 15 18 22
f 15 22 19
f 17 21 24
f 17 24 20
f 19 22 23
f 19 23 21
f 21 23 24
f 22 24 23

