# https://github.com/mikedh/trimesh

o right_ankle_pitch_rear_fork_028.obj
v -0.00664319 0.05475000 -0.00678981
v -0.00877927 0.05475000 -0.00363070
v -0.00664319 0.05025867 -0.00678981
v -0.00664319 0.05475000 -0.00987857
v -0.01557939 0.05475000 -0.00363070
v -0.00877927 0.05025867 -0.00363070
v -0.00664319 0.05025867 -0.00987857
v -0.00735259 0.05475000 -0.01419829
v -0.01557939 0.05025867 -0.00363070
v -0.01556627 0.05475000 -0.00369690
v -0.01557152 0.05025867 -0.00367208
v -0.00735259 0.05025867 -0.01419829
v -0.00788005 0.05475000 -0.01392521
v -0.01556627 0.05025867 -0.00369690
v -0.01524612 0.05475000 -0.00485131
v -0.01535371 0.05108343 -0.00446548
v -0.01544906 0.05025867 -0.00412102
v -0.00788005 0.05025867 -0.01392521
v -0.00838914 0.05475000 -0.01361178
v -0.01484200 0.05475000 -0.00597572
v -0.01500732 0.05025867 -0.00551644
v -0.01524612 0.05025867 -0.00485131
v -0.00889823 0.05025867 -0.01329732
v -0.00838914 0.05200007 -0.01361178
v -0.00889823 0.05475000 -0.01329732
v -0.01435390 0.05475000 -0.00706807
v -0.01484200 0.05025867 -0.00597572
v -0.00977821 0.05025867 -0.01266012
v -0.00938283 0.05475000 -0.01294562
v -0.01378533 0.05475000 -0.00812214
v -0.01435390 0.05025867 -0.00706807
v -0.00986656 0.05025867 -0.01259391
v -0.00986656 0.05475000 -0.01259391
v -0.01313978 0.05475000 -0.00912759
v -0.01337683 0.05025867 -0.00876037
v -0.01378533 0.05025867 -0.00812214
v -0.01078064 0.05025867 -0.01182328
v -0.01078064 0.05475000 -0.01182328
v -0.01300770 0.05025867 -0.00930344
v -0.01313978 0.05025867 -0.00912759
v -0.01242076 0.05475000 -0.01008442
v -0.01163263 0.05025867 -0.01098436
v -0.01163263 0.05475000 -0.01098436
v -0.01242076 0.05025867 -0.01008442
v -0.01202713 0.05475000 -0.01053439
f 1 2 6
f 1 6 3
f 1 3 7
f 1 7 4
f 1 4 8
f 1 8 13
f 1 13 19
f 1 19 25
f 1 25 29
f 1 29 33
f 1 33 38
f 1 38 43
f 1 43 45
f 1 45 41
f 1 41 34
f 1 34 30
f 1 30 26
f 1 26 20
f 1 20 15
f 1 15 10
f 1 10 5
f 1 5 2
f 2 5 9
f 2 9 6
f 3 6 9
f 3 9 11
f 3 11 14
f 3 14 17
f 3 17 22
f 3 22 21
f 3 21 27
f 3 27 31
f 3 31 36
f 3 36 35
f 3 35 40
f 3 40 39
f 3 39 44
f 3 44 42
f 3 42 37
f 3 37 32
f 3 32 28
f 3 28 23
f 3 23 18
f 3 18 12
f 3 12 7
f 4 7 12
f 4 12 8
f 5 10 11
f 5 11 9
f 8 12 18
f 8 18 13
f 10 14 11
f 10 15 16
f 10 16 17
f 10 17 14
f 13 18 24
f 13 24 19
f 15 20 21
f 15 21 22
f 15 22 16
f 16 22 17
f 18 23 24
f 19 24 23
f 19 23 25
f 20 26 31
f 20 31 27
f 20 27 21
f 23 28 25
f 25 28 29
f 26 30 36
f 26 36 31
f 28 32 33
f 28 33 29
f 30 34 35
f 30 35 36
f 32 37 38
f 32 38 33
f 34 39 40
f 34 40 35
f 34 41 39
f 37 42 43
f 37 43 38
f 39 41 44
f 41 45 44
f 42 44 45
f 42 45 43

