# https://github.com/mikedh/trimesh

o right_shin_output_adapter_069.obj
v -0.01989641 -0.02700889 0.00178401
v -0.01979533 -0.02700889 0.00279395
v -0.01989641 -0.02625003 0.00178401
v -0.00376055 -0.02700889 0.00178401
v -0.01977637 -0.02700889 0.00298086
v -0.01977637 -0.02625003 0.00298086
v -0.00879116 -0.02624480 0.00178401
v -0.00376055 -0.02624480 0.00178401
v -0.00376055 -0.02700889 0.00536615
v -0.01974794 -0.02700889 0.00312218
v -0.01938151 -0.02625003 0.00493482
v -0.00870429 -0.02624480 0.00221253
v -0.00376055 -0.02624480 0.00536615
v -0.01924725 -0.02700889 0.00536615
v -0.01938151 -0.02700889 0.00493482
v -0.01933886 -0.02700889 0.00507264
v -0.01924725 -0.02625003 0.00536615
v -0.00844052 -0.02624480 0.00306818
v -0.00870271 -0.02624480 0.00221954
v -0.00719747 -0.02624480 0.00536615
v -0.00741070 -0.02624480 0.00505370
v -0.00766184 -0.02624480 0.00468514
v -0.00766342 -0.02624480 0.00468234
v -0.00808829 -0.02624480 0.00390243
v -0.00809303 -0.02624480 0.00389297
v -0.00809461 -0.02624480 0.00388946
v -0.00826677 -0.02624480 0.00348232
f 1 2 3
f 1 3 7
f 1 7 8
f 1 8 4
f 1 4 9
f 1 9 14
f 1 14 16
f 1 16 15
f 1 15 10
f 1 10 5
f 1 5 2
f 2 5 6
f 2 6 3
f 3 6 7
f 4 8 13
f 4 13 9
f 5 10 6
f 6 10 11
f 6 11 7
f 7 12 19
f 7 19 18
f 7 18 27
f 7 27 26
f 7 26 25
f 7 25 24
f 7 24 23
f 7 23 22
f 7 22 21
f 7 21 20
f 7 20 13
f 7 13 8
f 7 11 12
f 9 13 20
f 9 20 17
f 9 17 14
f 10 15 11
f 11 15 16
f 11 16 17
f 11 17 18
f 11 18 19
f 11 19 12
f 14 17 16
f 17 20 21
f 17 21 22
f 17 22 23
f 17 23 24
f 17 24 25
f 17 25 26
f 17 26 27
f 17 27 18

