# https://github.com/mikedh/trimesh

o right_hip_roll_output_adapter_031.obj
v 0.03024987 -0.00910971 0.01442932
v 0.03024987 -0.00925636 0.01442932
v 0.03024987 -0.00905340 0.01318380
v 0.03024948 -0.00925636 0.01771809
v 0.03024987 -0.00925636 0.00689970
v 0.03024948 -0.00947759 0.01761050
v 0.03024948 -0.01101748 0.01668994
v 0.03024948 -0.01174365 0.01616283
v 0.03024948 -0.01182657 0.01610196
v 0.03024987 -0.00905340 0.00689970
v 0.02915086 -0.00866602 0.01800176
v 0.02824957 -0.00866912 0.01800067
v 0.02625044 -0.00925636 0.01771809
v 0.03024948 -0.01182657 0.00834411
v 0.03024948 -0.01009887 0.00689861
v 0.02625044 -0.00947759 0.01761050
v 0.02625044 -0.01101748 0.01668994
v 0.02625044 -0.01174365 0.01616283
v 0.02625044 -0.01182657 0.01610196
v 0.03024948 -0.00925636 0.00689861
v 0.03004628 -0.00905340 0.00689861
v 0.02915086 -0.00866602 0.00689970
v 0.02625005 -0.00866602 0.01800176
v 0.02625005 -0.00866912 0.01800067
v 0.02625005 -0.00925605 0.01771701
v 0.02625044 -0.01182657 0.00834411
v 0.02625044 -0.01009887 0.00689861
v 0.02705189 -0.00902400 0.00689861
v 0.02625005 -0.00866602 0.00689970
v 0.02625005 -0.00925605 0.00689970
v 0.02625044 -0.00925636 0.00689861
v 0.02674807 -0.00902400 0.00689861
f 1 2 5
f 1 5 10
f 1 10 3
f 1 3 4
f 1 4 2
f 2 4 6
f 2 6 7
f 2 7 8
f 2 8 9
f 2 9 14
f 2 14 5
f 3 10 22
f 3 22 11
f 3 11 4
f 4 11 12
f 4 12 24
f 4 24 13
f 4 13 16
f 4 16 6
f 5 14 15
f 5 15 20
f 5 20 10
f 6 16 17
f 6 17 7
f 7 17 18
f 7 18 8
f 8 18 19
f 8 19 9
f 9 19 26
f 9 26 14
f 10 20 21
f 10 21 22
f 11 23 24
f 11 24 12
f 11 22 29
f 11 29 23
f 13 24 25
f 13 25 16
f 14 26 27
f 14 27 15
f 15 27 31
f 15 31 32
f 15 32 28
f 15 28 21
f 15 21 20
f 16 25 17
f 17 25 18
f 18 25 19
f 19 25 30
f 19 30 26
f 21 28 22
f 22 28 32
f 22 32 29
f 23 29 30
f 23 30 25
f 23 25 24
f 26 30 27
f 27 30 29
f 27 29 31
f 29 32 31

