# https://github.com/mikedh/trimesh

o right_shin_idler_fork_plate_090.obj
v 0.02798567 0.04707697 -0.03969085
v 0.02798567 0.04376278 -0.03969085
v 0.02798567 0.04707697 -0.04184212
v 0.02369835 0.04707697 -0.03969085
v 0.02798567 0.04376278 -0.04184212
v 0.02369835 0.04376278 -0.03969085
v 0.02509500 0.04707697 -0.04184212
v 0.02369835 0.04707697 -0.03993094
v 0.02509500 0.04376278 -0.04184212
v 0.02369835 0.04376278 -0.03993094
f 1 2 5
f 1 5 3
f 1 3 7
f 1 7 8
f 1 8 4
f 1 4 6
f 1 6 2
f 2 6 10
f 2 10 9
f 2 9 5
f 3 5 9
f 3 9 7
f 4 8 10
f 4 10 6
f 7 9 10
f 7 10 8

