# https://github.com/mikedh/trimesh

o right_thigh_output_fork_plate_145.obj
v -0.00291103 -0.03212194 0.01319199
v -0.00291103 -0.03575000 0.01319199
v -0.00291103 -0.03212194 0.00991532
v -0.00654597 -0.03212194 0.01319199
v -0.00291103 -0.03575000 0.00991532
v -0.00654597 -0.03575000 0.01319199
v -0.00855630 -0.03212194 0.00991532
v -0.00855630 -0.03212194 0.01235791
v -0.00855630 -0.03575000 0.00991532
v -0.00855630 -0.03575000 0.01235791
f 1 2 5
f 1 5 3
f 1 3 7
f 1 7 8
f 1 8 4
f 1 4 6
f 1 6 2
f 2 6 10
f 2 10 9
f 2 9 5
f 3 5 9
f 3 9 7
f 4 8 10
f 4 10 6
f 7 9 10
f 7 10 8

