# https://github.com/mikedh/trimesh

o right_shin_output_fork_plate_083.obj
v 0.01855556 -0.03675000 0.00744621
v 0.01851585 -0.03675000 0.00756029
v 0.01855556 -0.04225000 0.00744621
v 0.01450340 -0.03675000 0.00744621
v 0.01851585 -0.04225000 0.00756029
v 0.01766945 -0.03675000 0.00936936
v 0.01450340 -0.04225000 0.00744621
v 0.01276069 -0.03675000 0.00944489
v 0.01766945 -0.04225000 0.00936936
v 0.01762407 -0.03675000 0.00944489
v 0.01276069 -0.04225000 0.00944489
v 0.01762407 -0.04225000 0.00944489
f 1 2 5
f 1 5 3
f 1 3 7
f 1 7 4
f 1 4 8
f 1 8 10
f 1 10 6
f 1 6 2
f 2 6 9
f 2 9 5
f 3 5 9
f 3 9 12
f 3 12 11
f 3 11 7
f 4 7 11
f 4 11 8
f 6 10 12
f 6 12 9
f 8 11 12
f 8 12 10

