# https://github.com/mikedh/trimesh

o right_shin_output_adapter_092.obj
v -0.01425784 -0.03624669 0.01399718
v -0.01352640 -0.03674992 0.01470948
v -0.01323271 -0.03674992 0.01499614
v -0.01323341 -0.03624669 0.01499614
v -0.01425784 -0.03594339 0.01399718
v -0.00924147 -0.03624669 0.01399718
v -0.00891438 -0.03674992 0.01470948
v -0.01319583 -0.03624669 0.01502622
v -0.01167449 -0.03674992 0.01623938
v -0.01323341 -0.03594339 0.01499614
v -0.00924147 -0.03594339 0.01399718
v -0.00714808 -0.03674992 0.01476964
v -0.01236835 -0.03624669 0.01568612
v -0.01314433 -0.03594339 0.01506723
v -0.01000075 -0.03674992 0.01731992
v -0.01008148 -0.03624677 0.01726842
v -0.01167449 -0.03594339 0.01623938
v -0.00719749 -0.03594339 0.01481294
v -0.00714808 -0.03624677 0.01476964
v -0.00714808 -0.03674992 0.01865293
v -0.00996734 -0.03594339 0.01733723
v -0.01000075 -0.03594339 0.01731992
v -0.00911412 -0.03674992 0.01777474
v -0.00980380 -0.03624669 0.01742154
v -0.01008148 -0.03624669 0.01726842
v -0.01012950 -0.03594339 0.01723697
v -0.00719749 -0.03594339 0.01863379
v -0.00714808 -0.03624677 0.01865293
v -0.00719749 -0.03624669 0.01863379
v -0.00729840 -0.03674992 0.01859414
v -0.00836319 -0.03594339 0.01815983
v -0.00822609 -0.03674992 0.01822956
v -0.00822609 -0.03624669 0.01823001
v -0.00822609 -0.03594339 0.01823001
v -0.00796303 -0.03624677 0.01833346
v -0.00818225 -0.03624677 0.01824733
f 1 2 3
f 1 3 4
f 1 4 10
f 1 10 5
f 1 5 11
f 1 11 6
f 1 6 7
f 1 7 2
f 2 7 12
f 2 12 20
f 2 20 30
f 2 30 32
f 2 32 23
f 2 23 15
f 2 15 9
f 2 9 3
f 3 8 4
f 3 9 8
f 4 8 10
f 5 10 14
f 5 14 17
f 5 17 26
f 5 26 22
f 5 22 21
f 5 21 31
f 5 31 34
f 5 34 27
f 5 27 18
f 5 18 11
f 6 11 19
f 6 19 12
f 6 12 7
f 8 9 13
f 8 13 14
f 8 14 10
f 9 15 16
f 9 16 25
f 9 25 17
f 9 17 13
f 11 18 19
f 12 19 28
f 12 28 20
f 13 17 14
f 15 21 22
f 15 22 25
f 15 25 16
f 15 23 24
f 15 24 21
f 17 25 26
f 18 27 28
f 18 28 19
f 20 28 27
f 20 27 29
f 20 29 30
f 21 24 31
f 22 26 25
f 23 32 33
f 23 33 24
f 24 33 31
f 27 34 35
f 27 35 29
f 29 35 30
f 30 35 36
f 30 36 32
f 31 33 34
f 32 36 33
f 33 36 34
f 34 36 35

