# https://github.com/mikedh/trimesh

o right_thigh_stationary_idler_spider_029.obj
v 0.08761101 0.01958320 -0.02968968
v 0.08761101 0.01825020 -0.02985384
v 0.08761101 0.02025000 -0.02985384
v 0.08761018 0.02025000 -0.02936196
v 0.08761059 0.01891680 -0.02952552
v 0.08758754 0.01825020 -0.03009857
v 0.08757972 0.01958320 -0.03018035
v 0.08761018 0.01825020 -0.02936196
v 0.08758754 0.02025000 -0.03009857
v 0.08756120 0.02025000 -0.02887250
v 0.08756367 0.01825020 -0.03034330
v 0.08756367 0.02025000 -0.03034330
v 0.08756120 0.01825020 -0.02887250
v 0.08746405 0.02025000 -0.02839031
v 0.08751633 0.01825020 -0.03058440
v 0.08751633 0.02025000 -0.03058440
v 0.08746405 0.01825020 -0.02839031
v 0.08745582 0.02025000 -0.02836365
v 0.08746858 0.01825020 -0.03082610
v 0.08746858 0.02025000 -0.03082610
v 0.08745582 0.01825020 -0.02836365
v 0.08361065 0.02025000 -0.02836365
v 0.08732615 0.01825020 -0.03129678
v 0.08737390 0.01891680 -0.03113989
v 0.08732615 0.02025000 -0.03129678
v 0.08361065 0.01825020 -0.02836365
v 0.08340606 0.02025000 -0.03100722
v 0.08713844 0.01825020 -0.03175050
v 0.08726358 0.01891680 -0.03144822
v 0.08713844 0.02025000 -0.03175050
v 0.08340606 0.01825020 -0.03100722
v 0.08340606 0.02025000 -0.03455157
v 0.08706146 0.01891680 -0.03189528
v 0.08702277 0.01825020 -0.03196797
v 0.08702277 0.02025000 -0.03196797
v 0.08340606 0.01825020 -0.03455157
v 0.08382594 0.02025000 -0.03446858
v 0.08690709 0.01825020 -0.03218484
v 0.08690709 0.02025000 -0.03218484
v 0.08382594 0.01825020 -0.03446858
v 0.08398277 0.01958320 -0.03442133
v 0.08429645 0.02025000 -0.03432623
v 0.08681612 0.01891680 -0.03232113
v 0.08663376 0.01825020 -0.03259373
v 0.08663376 0.02025000 -0.03259373
v 0.08429645 0.01825020 -0.03432623
v 0.08452409 0.02025000 -0.03423233
v 0.08444834 0.01891680 -0.03426383
v 0.08632215 0.01825020 -0.03297415
v 0.08642588 0.01958320 -0.03284755
v 0.08632215 0.02025000 -0.03297415
v 0.08452409 0.01825020 -0.03423233
v 0.08475131 0.02025000 -0.03413844
v 0.08475131 0.01825020 -0.03413844
v 0.08597431 0.01825020 -0.03332186
v 0.08597431 0.02025000 -0.03332186
v 0.08489580 0.01958320 -0.03406151
v 0.08518519 0.02025000 -0.03390704
v 0.08518519 0.01825020 -0.03390704
v 0.08559395 0.01825020 -0.03363383
v 0.08584752 0.01891680 -0.03342606
v 0.08559395 0.02025000 -0.03363383
v 0.08545811 0.01958320 -0.03372470
f 1 2 3
f 1 3 4
f 1 4 5
f 1 5 2
f 2 6 7
f 2 7 3
f 2 5 8
f 2 8 13
f 2 13 17
f 2 17 21
f 2 21 26
f 2 26 31
f 2 31 36
f 2 36 40
f 2 40 46
f 2 46 52
f 2 52 54
f 2 54 59
f 2 59 60
f 2 60 55
f 2 55 49
f 2 49 44
f 2 44 38
f 2 38 34
f 2 34 28
f 2 28 23
f 2 23 19
f 2 19 15
f 2 15 11
f 2 11 6
f 3 7 9
f 3 9 12
f 3 12 16
f 3 16 20
f 3 20 25
f 3 25 30
f 3 30 35
f 3 35 39
f 3 39 45
f 3 45 51
f 3 51 56
f 3 56 62
f 3 62 58
f 3 58 53
f 3 53 47
f 3 47 42
f 3 42 37
f 3 37 32
f 3 32 27
f 3 27 22
f 3 22 18
f 3 18 14
f 3 14 10
f 3 10 4
f 4 10 13
f 4 13 8
f 4 8 5
f 6 11 7
f 7 11 12
f 7 12 9
f 10 14 17
f 10 17 13
f 11 15 16
f 11 16 12
f 14 18 21
f 14 21 17
f 15 19 20
f 15 20 16
f 18 22 26
f 18 26 21
f 19 23 24
f 19 24 20
f 20 24 25
f 22 27 31
f 22 31 26
f 23 28 29
f 23 29 25
f 23 25 24
f 25 29 30
f 27 32 36
f 27 36 31
f 28 33 30
f 28 30 29
f 28 34 33
f 30 33 35
f 32 37 40
f 32 40 36
f 33 34 35
f 34 38 39
f 34 39 35
f 37 41 40
f 37 42 41
f 38 43 39
f 38 44 43
f 39 43 45
f 40 41 46
f 41 42 46
f 42 47 48
f 42 48 46
f 43 44 45
f 44 49 50
f 44 50 45
f 45 50 51
f 46 48 52
f 47 53 48
f 48 53 54
f 48 54 52
f 49 51 50
f 49 55 56
f 49 56 51
f 53 57 54
f 53 58 57
f 54 57 59
f 55 60 61
f 55 61 56
f 56 61 62
f 57 58 59
f 58 62 63
f 58 63 59
f 59 63 60
f 60 63 62
f 60 62 61

