# https://github.com/mikedh/trimesh

o right_foot_rear_saddle_018.obj
v -0.02625113 0.02399947 -0.00222890
v -0.03175000 0.02399947 -0.00222890
v -0.02625113 0.01937108 -0.00222890
v -0.02625113 0.02399947 -0.02445494
v -0.03175000 0.01912295 -0.00222890
v -0.03175000 0.02399947 -0.01225194
v -0.02675983 0.01912295 -0.00222890
v -0.02675929 0.01860663 -0.00428485
v -0.02625113 0.01937108 -0.01949454
v -0.02625113 0.01958119 -0.02445494
v -0.03174354 0.02399947 -0.02445494
v -0.03175000 0.01860663 -0.00428485
v -0.03175000 0.02399736 -0.02445494
v -0.02675929 0.01860663 -0.01949890
v -0.02748010 0.01860663 -0.02445494
v -0.03175000 0.01860663 -0.02445494
f 1 2 5
f 1 5 7
f 1 7 3
f 1 3 9
f 1 9 10
f 1 10 4
f 1 4 11
f 1 11 6
f 1 6 2
f 2 6 13
f 2 13 16
f 2 16 12
f 2 12 5
f 3 7 8
f 3 8 14
f 3 14 9
f 4 10 15
f 4 15 16
f 4 16 13
f 4 13 11
f 5 12 8
f 5 8 7
f 6 11 13
f 8 12 16
f 8 16 15
f 8 15 14
f 9 14 10
f 10 14 15

