# https://github.com/mikedh/trimesh

o right_foot_upper_fore_014.obj
v 0.03589600 0.03563525 0.00030944
v 0.03790183 0.03563525 0.00030944
v 0.03600858 0.03563525 0.00018723
v 0.04052553 0.02172953 -0.00205823
v 0.03955588 0.02172953 -0.00099158
v 0.03857599 0.02172953 0.00008668
v 0.03839434 0.02172953 0.00029011
v 0.03837771 0.02172953 0.00030944
v 0.04460371 0.03563525 -0.00590638
v 0.03800417 0.03529629 0.00030944
v 0.03644607 0.03563525 -0.00028692
v 0.04662617 0.02172953 -0.00759260
v 0.03724815 0.03563525 -0.00110605
v 0.04014304 0.03563525 -0.00400203
v 0.04052553 0.03563525 -0.00438414
v 0.04040912 0.02172953 0.00030944
v 0.04655070 0.03513702 -0.00759260
v 0.04550173 0.03563525 -0.00674253
v 0.04460371 0.03448903 -0.00561632
v 0.03840713 0.03376482 0.00030944
v 0.04896332 0.02172953 -0.00759260
v 0.04078393 0.03563525 -0.00460226
v 0.04364685 0.03563525 -0.00698463
v 0.04438880 0.03563525 -0.00759260
v 0.04350102 0.02172953 -0.00251923
v 0.04034772 0.02226860 0.00030944
v 0.04699715 0.03341905 -0.00759260
v 0.04640103 0.03563525 -0.00759260
v 0.04558360 0.03563525 -0.00681988
v 0.04664280 0.03357696 -0.00729945
v 0.03883567 0.03190664 0.00030944
v 0.04460371 0.03280374 -0.00523730
v 0.04460371 0.02214609 -0.00357274
v 0.04517425 0.02172953 -0.00406313
v 0.04885970 0.02269878 -0.00759260
v 0.04460371 0.02172953 -0.00353174
v 0.04014816 0.02400699 0.00030944
v 0.04664280 0.03184266 -0.00692894
v 0.04744232 0.03146558 -0.00759260
v 0.03927444 0.02969588 0.00030944
v 0.04460371 0.02377148 -0.00377307
v 0.04010722 0.02435548 0.00030944
v 0.04460371 0.02539824 -0.00397418
v 0.04839918 0.02612109 -0.00759260
v 0.04664280 0.02578621 -0.00591798
v 0.04785679 0.02936917 -0.00759260
v 0.03971578 0.02710396 0.00030944
v 0.04460371 0.02846390 -0.00442977
v 0.04838127 0.02623136 -0.00759260
v 0.04664280 0.02731904 -0.00614616
v 0.04836080 0.02635524 -0.00759260
f 1 2 9
f 1 9 18
f 1 18 29
f 1 29 28
f 1 28 24
f 1 24 23
f 1 23 22
f 1 22 15
f 1 15 14
f 1 14 13
f 1 13 11
f 1 11 3
f 1 3 4
f 1 4 5
f 1 5 6
f 1 6 7
f 1 7 8
f 1 8 16
f 1 16 26
f 1 26 37
f 1 37 42
f 1 42 47
f 1 47 40
f 1 40 31
f 1 31 20
f 1 20 10
f 1 10 2
f 2 10 9
f 3 11 4
f 4 12 21
f 4 21 34
f 4 34 36
f 4 36 25
f 4 25 16
f 4 16 8
f 4 8 7
f 4 7 6
f 4 6 5
f 4 11 13
f 4 13 14
f 4 14 15
f 4 15 12
f 9 17 18
f 9 10 19
f 9 19 17
f 10 20 19
f 12 15 22
f 12 22 23
f 12 23 24
f 12 24 28
f 12 28 17
f 12 17 27
f 12 27 39
f 12 39 46
f 12 46 51
f 12 51 49
f 12 49 44
f 12 44 35
f 12 35 21
f 16 25 26
f 17 28 29
f 17 29 18
f 17 19 30
f 17 30 27
f 19 20 30
f 20 31 32
f 20 32 27
f 20 27 30
f 21 33 34
f 21 35 33
f 25 36 33
f 25 33 37
f 25 37 26
f 27 32 38
f 27 38 39
f 31 39 38
f 31 38 32
f 31 40 39
f 33 36 34
f 33 35 41
f 33 41 42
f 33 42 37
f 35 43 41
f 35 44 45
f 35 45 43
f 39 40 46
f 40 47 48
f 40 48 46
f 41 43 42
f 42 43 47
f 43 45 47
f 44 49 47
f 44 47 45
f 46 48 50
f 46 50 51
f 47 49 50
f 47 50 48
f 49 51 50

