# https://github.com/mikedh/trimesh

o right_shin_idler_fork_plate_080.obj
v 0.02268568 0.04376313 -0.04016161
v 0.02268568 0.04376313 -0.03969070
v 0.02268568 0.04707697 -0.04016161
v 0.02453821 0.04275000 -0.04028042
v 0.02287011 0.04275000 -0.04006145
v 0.02286993 0.04275000 -0.03969070
v 0.02268568 0.04707697 -0.03969070
v 0.02369818 0.04707697 -0.03993080
v 0.02453821 0.04376270 -0.04028042
v 0.02453821 0.04275000 -0.03969070
v 0.02369818 0.04707697 -0.03969070
v 0.02453821 0.04376270 -0.03969070
f 1 2 7
f 1 7 3
f 1 3 9
f 1 9 4
f 1 4 5
f 1 5 6
f 1 6 2
f 2 6 10
f 2 10 12
f 2 12 11
f 2 11 7
f 3 7 11
f 3 11 8
f 3 8 9
f 4 10 6
f 4 6 5
f 4 9 12
f 4 12 10
f 8 11 12
f 8 12 9

