# https://github.com/mikedh/trimesh

o right_ankle_pitch_rear_fork_017.obj
v 0.00646417 0.04925005 0.00064999
v 0.00432321 0.04925005 0.00484831
v 0.00646417 0.04974991 0.00064999
v 0.01597585 0.04925005 0.00064999
v 0.00432321 0.04974991 0.00484831
v 0.01524243 0.04925005 0.00484831
v 0.00948112 0.04975862 0.00064999
v 0.01597585 0.04975862 0.00064999
v 0.01594848 0.04975862 0.00122462
v 0.01595646 0.04925005 0.00105239
v 0.00817169 0.04975862 0.00484831
v 0.01540668 0.04925005 0.00427245
v 0.01524585 0.04925040 0.00484831
v 0.01594277 0.04975862 0.00133518
v 0.01594277 0.04925005 0.00133518
v 0.01524585 0.04975862 0.00484831
v 0.01542151 0.04975862 0.00421902
v 0.01556637 0.04925005 0.00369577
v 0.01591654 0.04975862 0.00155509
v 0.01587091 0.04925005 0.00192872
v 0.01556637 0.04975862 0.00369577
v 0.01579791 0.04925005 0.00252267
v 0.01575571 0.04975862 0.00274011
v 0.01558804 0.04975862 0.00358725
v 0.01581160 0.04975862 0.00241333
v 0.01578765 0.04975862 0.00257693
v 0.01579791 0.04975862 0.00252267
f 1 2 5
f 1 5 3
f 1 3 7
f 1 7 8
f 1 8 4
f 1 4 10
f 1 10 15
f 1 15 20
f 1 20 22
f 1 22 18
f 1 18 12
f 1 12 6
f 1 6 2
f 2 6 13
f 2 13 16
f 2 16 11
f 2 11 5
f 3 5 7
f 4 8 9
f 4 9 10
f 5 11 7
f 6 12 13
f 7 11 16
f 7 16 17
f 7 17 21
f 7 21 24
f 7 24 23
f 7 23 26
f 7 26 27
f 7 27 25
f 7 25 19
f 7 19 14
f 7 14 9
f 7 9 8
f 9 14 15
f 9 15 10
f 12 17 16
f 12 16 13
f 12 18 17
f 14 19 15
f 15 19 20
f 17 18 21
f 18 22 23
f 18 23 24
f 18 24 21
f 19 25 20
f 20 25 22
f 22 26 23
f 22 25 27
f 22 27 26

