# https://github.com/mikedh/trimesh

o right_ankle_tapped_load_plate_157.obj
v -0.04791169 0.01731266 -0.03154068
v -0.04704340 0.01731266 -0.03154068
v -0.04791952 0.01731266 -0.03118693
v -0.04791952 0.01732681 -0.03154068
v -0.04638180 0.01918985 -0.03154068
v -0.04704340 0.01731266 -0.02945695
v -0.04791952 0.01731266 -0.02945695
v -0.04791952 0.01918103 -0.03154068
v -0.04790537 0.01918985 -0.03154068
v -0.04638180 0.01918985 -0.02945695
v -0.04791952 0.01918985 -0.02945695
v -0.04791952 0.01918985 -0.03136136
f 1 2 6
f 1 6 7
f 1 7 3
f 1 3 4
f 1 4 8
f 1 8 9
f 1 9 5
f 1 5 2
f 2 5 10
f 2 10 6
f 3 7 11
f 3 11 12
f 3 12 8
f 3 8 4
f 5 9 12
f 5 12 11
f 5 11 10
f 6 10 11
f 6 11 7
f 8 12 9

