# https://github.com/mikedh/trimesh

o right_foot_front_saddle_153.obj
v 0.02920027 -0.00968448 -0.01415710
v 0.03009113 -0.00968448 -0.01415710
v 0.02895461 -0.00968448 -0.01408955
v 0.02920027 -0.00957007 -0.01415710
v 0.03009113 -0.00957007 -0.01415710
v 0.03009113 -0.00968448 -0.01215689
v 0.02895461 -0.00958254 -0.01408955
v 0.02895461 -0.00968448 -0.01226419
v 0.02920027 -0.00832850 -0.01229160
v 0.03009113 -0.00832850 -0.01229160
v 0.03009113 -0.00832850 -0.01215689
v 0.02920027 -0.00968448 -0.01215689
v 0.02895461 -0.00884005 -0.01249600
v 0.02895461 -0.00884005 -0.01226419
v 0.02920027 -0.00832850 -0.01215689
f 1 2 6
f 1 6 12
f 1 12 8
f 1 8 3
f 1 3 7
f 1 7 4
f 1 4 5
f 1 5 2
f 2 5 10
f 2 10 11
f 2 11 6
f 3 8 14
f 3 14 13
f 3 13 7
f 4 7 9
f 4 9 10
f 4 10 5
f 6 11 15
f 6 15 12
f 7 13 9
f 8 12 15
f 8 15 14
f 9 13 14
f 9 14 15
f 9 15 11
f 9 11 10

