# https://github.com/mikedh/trimesh

o right_ankle_pitch_output_adapter_008.obj
v -0.00086060 -0.03925000 0.01996781
v -0.00149467 -0.03925000 0.01994366
v -0.00086060 -0.04325000 0.01996781
v -0.00086060 -0.03925000 0.01484784
v -0.00149467 -0.04325000 0.01994366
v -0.00298125 -0.03925000 0.01977649
v -0.00248572 -0.04191641 0.01983243
v -0.00086060 -0.04325000 0.01484784
v -0.00159933 -0.03925000 0.01347425
v -0.00298125 -0.04325000 0.01977649
v -0.00445002 -0.03925000 0.01949809
v -0.00159933 -0.04325000 0.01347425
v -0.00529689 -0.03925000 0.01347425
v -0.00445002 -0.04325000 0.01949809
v -0.00517269 -0.03925000 0.01930486
v -0.00529689 -0.04325000 0.01347425
v -0.00529689 -0.03925000 0.01927117
v -0.00517269 -0.04325000 0.01930486
v -0.00529689 -0.04325000 0.01927117
f 1 2 5
f 1 5 3
f 1 3 8
f 1 8 4
f 1 4 9
f 1 9 13
f 1 13 17
f 1 17 15
f 1 15 11
f 1 11 6
f 1 6 2
f 2 6 7
f 2 7 5
f 3 5 10
f 3 10 14
f 3 14 18
f 3 18 19
f 3 19 16
f 3 16 12
f 3 12 8
f 4 8 12
f 4 12 9
f 5 7 10
f 6 11 14
f 6 14 10
f 6 10 7
f 9 12 16
f 9 16 13
f 11 15 18
f 11 18 14
f 13 16 19
f 13 19 17
f 15 17 19
f 15 19 18

