# https://github.com/mikedh/trimesh

o right_hip_roll_output_adapter_127.obj
v 0.02674797 0.01137689 -0.01643068
v 0.02625005 0.01245761 -0.01564491
v 0.02674797 0.01247097 -0.01563608
v 0.02804434 0.01167009 -0.01621790
v 0.02804434 0.01137689 -0.01643068
v 0.02674797 0.01137689 -0.00831874
v 0.02625005 0.01247026 -0.01563520
v 0.02625005 0.01245761 -0.00815541
v 0.02625005 0.01382239 -0.01445567
v 0.02804434 0.01247097 -0.01563608
v 0.02804434 0.01137689 -0.00831874
v 0.02625005 0.01314738 -0.00741114
v 0.02674780 0.01382239 -0.01445567
v 0.02625005 0.01506132 -0.01315783
v 0.02674797 0.01490733 -0.01331940
v 0.02758312 0.01464858 -0.01359044
v 0.02804434 0.01382169 -0.01445567
v 0.02804434 0.01262847 -0.00804593
v 0.02674780 0.01314738 -0.00741114
v 0.02625005 0.01856012 -0.00741114
v 0.02804434 0.01450584 -0.01373965
v 0.02625005 0.01618001 -0.01175581
v 0.02804434 0.01611462 -0.01183880
v 0.02674780 0.01506132 -0.01315783
v 0.02804434 0.01504022 -0.01317990
v 0.02804434 0.01828871 -0.00804593
v 0.02674780 0.01856012 -0.00741114
v 0.02625005 0.01837168 -0.00785346
v 0.02674780 0.01618001 -0.01175581
v 0.02625005 0.01667431 -0.01100801
v 0.02674780 0.01642611 -0.01138411
v 0.02804434 0.01623767 -0.01166929
v 0.02804434 0.01617931 -0.01175669
v 0.02804434 0.01506062 -0.01315783
v 0.02804434 0.01828731 -0.00805123
v 0.02804434 0.01805809 -0.00858802
v 0.02625005 0.01801871 -0.00867896
v 0.02625005 0.01716792 -0.01025844
v 0.02674797 0.01704557 -0.01044561
v 0.02804434 0.01672494 -0.01093120
v 0.02804434 0.01801871 -0.00867896
v 0.02804434 0.01781902 -0.00905065
v 0.02674780 0.01738026 -0.00986555
v 0.02674797 0.01718198 -0.01023372
v 0.02674797 0.01716792 -0.01025932
v 0.02804434 0.01715174 -0.01028404
v 0.02804434 0.01749206 -0.00965808
v 0.02804434 0.01716792 -0.01025932
f 1 2 3
f 1 3 4
f 1 4 5
f 1 5 11
f 1 11 6
f 1 6 8
f 1 8 2
f 2 7 3
f 2 8 12
f 2 12 20
f 2 20 28
f 2 28 37
f 2 37 38
f 2 38 30
f 2 30 22
f 2 22 14
f 2 14 9
f 2 9 7
f 3 7 9
f 3 9 13
f 3 13 10
f 3 10 4
f 4 10 17
f 4 17 21
f 4 21 25
f 4 25 34
f 4 34 23
f 4 23 33
f 4 33 32
f 4 32 40
f 4 40 46
f 4 46 48
f 4 48 47
f 4 47 42
f 4 42 41
f 4 41 36
f 4 36 35
f 4 35 26
f 4 26 18
f 4 18 11
f 4 11 5
f 6 11 19
f 6 19 12
f 6 12 8
f 9 14 15
f 9 15 16
f 9 16 13
f 10 13 17
f 11 18 19
f 12 19 27
f 12 27 20
f 13 16 21
f 13 21 17
f 14 22 23
f 14 23 24
f 14 24 15
f 15 24 25
f 15 25 16
f 16 25 21
f 18 26 27
f 18 27 19
f 20 27 28
f 22 29 23
f 22 30 31
f 22 31 32
f 22 32 29
f 23 29 33
f 23 34 24
f 24 34 25
f 26 35 27
f 27 35 28
f 28 35 36
f 28 36 37
f 29 32 33
f 30 38 39
f 30 39 31
f 31 39 40
f 31 40 32
f 36 41 37
f 37 42 43
f 37 43 44
f 37 44 38
f 37 41 42
f 38 44 45
f 38 45 39
f 39 45 46
f 39 46 40
f 42 47 43
f 43 47 44
f 44 48 45
f 44 47 48
f 45 48 46

