# https://github.com/mikedh/trimesh

o right_hip_roll_output_adapter_030.obj
v 0.02804434 -0.00076184 -0.01997926
v 0.02804434 0.00089719 -0.01997926
v 0.02915116 -0.00076184 -0.01997926
v 0.02804434 -0.00076184 -0.01490730
v 0.02915116 0.00089719 -0.01997926
v 0.02804434 0.00188271 -0.01989034
v 0.02915116 -0.00076184 -0.01520110
v 0.02819093 -0.00076184 -0.01490730
v 0.02804434 0.00156112 -0.01384209
v 0.02915116 0.00115369 -0.01995583
v 0.02838973 0.00188763 -0.01988974
v 0.02804434 0.00188763 -0.01988974
v 0.02915116 -0.00075977 -0.01490911
v 0.02838973 -0.00076184 -0.01496799
v 0.02838973 -0.00076132 -0.01490730
v 0.02838962 0.00156112 -0.01384209
v 0.02804434 0.00188763 -0.01384209
v 0.02915116 0.00115369 -0.01460630
v 0.02838973 0.00188763 -0.01489349
v 0.02838962 0.00188763 -0.01384209
f 1 2 5
f 1 5 3
f 1 3 7
f 1 7 14
f 1 14 8
f 1 8 4
f 1 4 9
f 1 9 17
f 1 17 12
f 1 12 6
f 1 6 2
f 2 6 5
f 3 5 10
f 3 10 18
f 3 18 13
f 3 13 7
f 4 8 16
f 4 16 9
f 5 6 11
f 5 11 10
f 6 12 11
f 7 13 14
f 8 15 16
f 8 14 13
f 8 13 15
f 9 16 20
f 9 20 17
f 10 11 19
f 10 19 18
f 11 12 17
f 11 17 20
f 11 20 19
f 13 18 16
f 13 16 15
f 16 18 20
f 18 19 20

