# https://github.com/mikedh/trimesh

o right_thigh_output_fork_plate_004.obj
v -0.06214066 -0.03129550 -0.08555377
v -0.05472640 -0.03129550 -0.07243814
v -0.06214066 -0.03025010 -0.08555377
v -0.03786372 -0.03129550 -0.08555377
v -0.05110482 -0.03129550 -0.06603226
v -0.05110482 -0.03025010 -0.06603226
v -0.03786372 -0.03025010 -0.08555377
v -0.03786372 -0.03129550 -0.06603226
v -0.03786372 -0.03025010 -0.06603226
f 1 2 3
f 1 3 7
f 1 7 4
f 1 4 8
f 1 8 5
f 1 5 2
f 2 5 6
f 2 6 3
f 3 6 9
f 3 9 7
f 4 7 9
f 4 9 8
f 5 8 9
f 5 9 6

