# https://github.com/mikedh/trimesh

o right_ankle_pitch_output_post_4_003.obj
v 0.00118274 -0.02925000 0.01242343
v 0.00118274 -0.02925000 0.01020852
v -0.00107296 -0.02925000 0.01231407
v 0.00118274 -0.03925000 0.01242343
v 0.00115513 -0.02925000 0.01019879
v 0.00118274 -0.03925000 0.01020852
v -0.00107296 -0.02925000 0.01017009
v -0.00107296 -0.03925000 0.01231407
v 0.00111383 -0.03258399 0.01018432
v 0.00103146 -0.02925000 0.01015562
v 0.00115513 -0.03925000 0.01019879
v -0.00103145 -0.02925000 0.01015562
v -0.00107296 -0.03925000 0.01017009
v 0.00103146 -0.03925000 0.01015562
v 0.00077881 -0.02925000 0.01008777
v -0.00077880 -0.02925000 0.01008777
v -0.00103145 -0.03925000 0.01015562
v 0.00077881 -0.03925000 0.01008777
v 0.00052153 -0.02925000 0.01003914
v -0.00052152 -0.02925000 0.01003914
v -0.00077880 -0.03925000 0.01008777
v 0.00052153 -0.03925000 0.01003914
v 0.00034817 -0.03258399 0.01001969
v 0.00026138 -0.02925000 0.01000996
v -0.00026136 -0.02925000 0.01000996
v -0.00043495 -0.03591601 0.01002942
v -0.00052152 -0.03925000 0.01003914
v 0.00026138 -0.03925000 0.01000996
v 0.00013064 -0.02925000 0.01000498
v 0.00017436 -0.03258399 0.01000664
v -0.00013062 -0.02925000 0.01000498
v -0.00017435 -0.03591601 0.01000664
v -0.00026136 -0.03925000 0.01000996
v 0.00013064 -0.03925000 0.01000498
v 0.00000012 -0.02925000 0.01000024
v 0.00008713 -0.03591601 0.01000332
v -0.00008712 -0.03258399 0.01000332
v -0.00013062 -0.03925000 0.01000498
v 0.00000012 -0.03925000 0.01000024
f 1 2 5
f 1 5 10
f 1 10 15
f 1 15 19
f 1 19 24
f 1 24 29
f 1 29 35
f 1 35 31
f 1 31 25
f 1 25 20
f 1 20 16
f 1 16 12
f 1 12 7
f 1 7 3
f 1 3 8
f 1 8 4
f 1 4 6
f 1 6 2
f 2 6 11
f 2 11 5
f 3 7 13
f 3 13 8
f 4 8 13
f 4 13 17
f 4 17 21
f 4 21 27
f 4 27 33
f 4 33 38
f 4 38 39
f 4 39 34
f 4 34 28
f 4 28 22
f 4 22 18
f 4 18 14
f 4 14 11
f 4 11 6
f 5 9 10
f 5 11 9
f 7 12 17
f 7 17 13
f 9 11 14
f 9 14 10
f 10 14 18
f 10 18 15
f 12 16 21
f 12 21 17
f 15 18 22
f 15 22 19
f 16 20 27
f 16 27 21
f 19 23 24
f 19 22 23
f 20 25 26
f 20 26 27
f 22 28 23
f 23 28 24
f 24 28 30
f 24 30 29
f 25 31 32
f 25 32 33
f 25 33 26
f 26 33 27
f 28 34 30
f 29 30 36
f 29 36 35
f 30 34 36
f 31 35 37
f 31 37 32
f 32 38 33
f 32 37 38
f 34 39 36
f 35 36 39
f 35 39 37
f 37 39 38

