# https://github.com/mikedh/trimesh

o right_hip_roll_carrier_arm_071.obj
v 0.03095797 -0.03624976 -0.01739973
v 0.03095797 -0.03479797 -0.01739973
v 0.03320550 -0.03624976 -0.01739973
v 0.03095797 -0.03624976 -0.00830601
v 0.03320550 -0.03479797 -0.01739973
v 0.03095797 -0.03374595 -0.01547969
v 0.03320550 -0.03624976 -0.00830601
v 0.03095797 -0.03469012 -0.00830601
v 0.03320550 -0.03374595 -0.01547969
v 0.03095797 -0.03374595 -0.01051980
v 0.03320550 -0.03469012 -0.00830601
v 0.03320550 -0.03374595 -0.01051980
f 1 2 5
f 1 5 3
f 1 3 7
f 1 7 4
f 1 4 8
f 1 8 10
f 1 10 6
f 1 6 2
f 2 6 9
f 2 9 5
f 3 5 9
f 3 9 12
f 3 12 11
f 3 11 7
f 4 7 11
f 4 11 8
f 6 10 12
f 6 12 9
f 8 11 12
f 8 12 10

