# https://github.com/mikedh/trimesh

o right_thigh_stationary_idler_spider_024.obj
v 0.04914736 0.01825039 -0.03461102
v 0.04865806 0.01825039 -0.03456349
v 0.04914736 0.02025000 -0.03461102
v 0.04931106 0.01958307 -0.03461102
v 0.04963907 0.01825039 -0.03461023
v 0.04849677 0.01958307 -0.03453181
v 0.04865806 0.02025000 -0.03456349
v 0.04841643 0.01825039 -0.03451596
v 0.04963907 0.02025000 -0.03461023
v 0.05012837 0.01825039 -0.03456072
v 0.04841643 0.02025000 -0.03451596
v 0.04814520 0.01825039 -0.03445933
v 0.04833609 0.01891693 -0.03450012
v 0.05012837 0.02025000 -0.03456072
v 0.05061042 0.01825039 -0.03446368
v 0.04817541 0.02025000 -0.03446804
v 0.04811560 0.01825039 -0.03059166
v 0.04811560 0.02025000 -0.03445022
v 0.05061042 0.02025000 -0.03446368
v 0.05084600 0.01825039 -0.03439160
v 0.04811560 0.02025000 -0.03059166
v 0.05067022 0.01825039 -0.03056473
v 0.05084600 0.02025000 -0.03439160
v 0.05108099 0.01825039 -0.03431951
v 0.05067022 0.02025000 -0.03056473
v 0.05428619 0.01825039 -0.03056473
v 0.05108099 0.02025000 -0.03431951
v 0.05153344 0.01825039 -0.03413019
v 0.05428619 0.02025000 -0.03056473
v 0.05423847 0.01825039 -0.03080752
v 0.05153344 0.02025000 -0.03413019
v 0.05196656 0.01825039 -0.03389690
v 0.05423847 0.02025000 -0.03080752
v 0.05416839 0.01825039 -0.03104319
v 0.05196656 0.02025000 -0.03389690
v 0.05237491 0.01825039 -0.03362242
v 0.05416839 0.02025000 -0.03104319
v 0.05414484 0.01891693 -0.03112200
v 0.05409772 0.01825039 -0.03127885
v 0.05237491 0.02025000 -0.03362242
v 0.05275366 0.01825039 -0.03330873
v 0.05409772 0.02025000 -0.03127885
v 0.05391166 0.01825039 -0.03173433
v 0.05397388 0.01891693 -0.03158264
v 0.05403610 0.01958307 -0.03143055
v 0.05275366 0.02025000 -0.03330873
v 0.05292703 0.01825039 -0.03313446
v 0.05391166 0.02025000 -0.03173433
v 0.05379689 0.01825039 -0.03195178
v 0.05383555 0.01958307 -0.03187930
v 0.05292703 0.02025000 -0.03313446
v 0.05310040 0.01825039 -0.03295979
v 0.05379689 0.02025000 -0.03195178
v 0.05368212 0.01825039 -0.03216883
v 0.05375883 0.01891693 -0.03202426
v 0.05368212 0.02025000 -0.03216883
v 0.05310040 0.02025000 -0.03295979
v 0.05341089 0.01825039 -0.03257916
v 0.05341089 0.02025000 -0.03257916
f 1 2 7
f 1 7 3
f 1 3 4
f 1 4 5
f 1 5 10
f 1 10 15
f 1 15 20
f 1 20 24
f 1 24 28
f 1 28 32
f 1 32 36
f 1 36 41
f 1 41 47
f 1 47 52
f 1 52 58
f 1 58 54
f 1 54 49
f 1 49 43
f 1 43 39
f 1 39 34
f 1 34 30
f 1 30 26
f 1 26 22
f 1 22 17
f 1 17 12
f 1 12 8
f 1 8 2
f 2 6 7
f 2 8 6
f 3 7 11
f 3 11 16
f 3 16 18
f 3 18 21
f 3 21 25
f 3 25 29
f 3 29 33
f 3 33 37
f 3 37 42
f 3 42 48
f 3 48 53
f 3 53 56
f 3 56 59
f 3 59 57
f 3 57 51
f 3 51 46
f 3 46 40
f 3 40 35
f 3 35 31
f 3 31 27
f 3 27 23
f 3 23 19
f 3 19 14
f 3 14 9
f 3 9 4
f 4 9 5
f 5 9 14
f 5 14 10
f 6 8 13
f 6 13 11
f 6 11 7
f 8 12 13
f 10 14 19
f 10 19 15
f 11 13 16
f 12 17 18
f 12 18 16
f 12 16 13
f 15 19 23
f 15 23 20
f 17 21 18
f 17 22 25
f 17 25 21
f 20 23 27
f 20 27 24
f 22 26 29
f 22 29 25
f 24 27 31
f 24 31 28
f 26 30 33
f 26 33 29
f 28 31 35
f 28 35 32
f 30 34 37
f 30 37 33
f 32 35 40
f 32 40 36
f 34 38 37
f 34 39 38
f 36 40 46
f 36 46 41
f 37 38 42
f 38 39 42
f 39 43 44
f 39 44 45
f 39 45 42
f 41 46 51
f 41 51 47
f 42 45 48
f 43 49 50
f 43 50 48
f 43 48 44
f 44 48 45
f 47 51 57
f 47 57 52
f 48 50 53
f 49 54 55
f 49 55 50
f 50 55 56
f 50 56 53
f 52 57 59
f 52 59 58
f 54 58 59
f 54 59 56
f 54 56 55

