# https://github.com/mikedh/trimesh

o right_foot_front_saddle_086.obj
v 0.02760394 -0.00954220 -0.01428030
v 0.02760394 -0.00697366 -0.01508172
v 0.02660000 -0.00954220 -0.01428030
v 0.02760394 -0.02399833 -0.01428030
v 0.02760394 -0.00697366 -0.02015297
v 0.02660000 -0.00697366 -0.01508172
v 0.02660000 -0.02399833 -0.01428030
v 0.02760394 -0.02400000 -0.01555544
v 0.02660000 -0.00697366 -0.02015297
v 0.02760394 -0.02400000 -0.02015297
v 0.02660000 -0.02399833 -0.02015297
v 0.02708787 -0.02400000 -0.02015297
f 1 2 6
f 1 6 3
f 1 3 7
f 1 7 4
f 1 4 8
f 1 8 10
f 1 10 5
f 1 5 2
f 2 5 9
f 2 9 6
f 3 6 9
f 3 9 11
f 3 11 7
f 4 7 8
f 5 10 12
f 5 12 11
f 5 11 9
f 7 11 12
f 7 12 8
f 8 12 10

