# https://github.com/mikedh/trimesh

o right_thigh_idler_fork_plate_091.obj
v 0.01592673 0.04174946 -0.00130703
v 0.01594361 0.03705325 -0.00112581
v 0.01584232 0.04174946 -0.00223697
v 0.00940365 0.04174946 -0.00130703
v 0.01594361 0.03625054 -0.00112581
v 0.00943039 0.03705325 -0.00112581
v 0.01584232 0.03625054 -0.00223697
v 0.01582403 0.03705325 -0.00233314
v 0.01578956 0.04174946 -0.00250934
v 0.00915745 0.04174946 -0.00250934
v 0.00875719 0.03675015 -0.00112581
v 0.00875719 0.03625054 -0.00112581
v 0.01578956 0.03625054 -0.00250921
v 0.01578956 0.03705325 -0.00250934
v 0.00915745 0.03705325 -0.00250934
v 0.00875719 0.03675015 -0.00250921
v 0.00875719 0.03625054 -0.00250921
f 1 2 3
f 1 3 9
f 1 9 10
f 1 10 4
f 1 4 6
f 1 6 2
f 2 5 7
f 2 7 3
f 2 6 11
f 2 11 12
f 2 12 5
f 3 7 8
f 3 8 9
f 4 10 11
f 4 11 6
f 5 12 17
f 5 17 13
f 5 13 7
f 7 13 8
f 8 13 14
f 8 14 9
f 9 14 15
f 9 15 10
f 10 15 17
f 10 17 16
f 10 16 11
f 11 16 17
f 11 17 12
f 13 17 15
f 13 15 14

