# https://github.com/mikedh/trimesh

o right_thigh_output_adapter_034.obj
v -0.01046226 -0.02700607 0.00572603
v -0.01048496 -0.02700607 0.00779919
v -0.01046226 -0.02625001 0.00572603
v -0.00438214 -0.02700607 0.00572603
v -0.01048496 -0.02700607 0.00844099
v -0.01048496 -0.02625001 0.00779919
v -0.00687202 -0.02624434 0.00576376
v -0.00683378 -0.02624434 0.00572603
v -0.00438214 -0.02624434 0.00572603
v -0.00438214 -0.02700607 0.00844099
v -0.01048496 -0.02625001 0.00844099
v -0.00658587 -0.02624434 0.00610499
v -0.00438214 -0.02624434 0.00783214
v -0.00438214 -0.02625001 0.00844099
v -0.00449026 -0.02624434 0.00777687
v -0.00449385 -0.02624434 0.00777474
v -0.00523579 -0.02624434 0.00729532
v -0.00524237 -0.02624434 0.00729106
v -0.00594249 -0.02624434 0.00673324
v -0.00658049 -0.02624434 0.00611084
f 1 2 6
f 1 6 3
f 1 3 8
f 1 8 9
f 1 9 4
f 1 4 10
f 1 10 5
f 1 5 2
f 2 5 11
f 2 11 6
f 3 6 7
f 3 7 8
f 4 9 13
f 4 13 14
f 4 14 10
f 5 10 14
f 5 14 11
f 6 11 7
f 7 12 20
f 7 20 19
f 7 19 18
f 7 18 17
f 7 17 16
f 7 16 15
f 7 15 13
f 7 13 9
f 7 9 8
f 7 11 12
f 11 14 13
f 11 13 15
f 11 15 16
f 11 16 17
f 11 17 18
f 11 18 19
f 11 19 20
f 11 20 12

