# https://github.com/mikedh/trimesh

o right_hip_roll_output_adapter_020.obj
v 0.03024961 -0.00754973 -0.00828496
v 0.02625039 -0.00754973 -0.00828496
v 0.03024961 -0.01124532 -0.00828496
v 0.03024961 -0.00754973 -0.01269110
v 0.02625039 -0.00754973 -0.01269110
v 0.02625039 -0.01124532 -0.00828496
v 0.03024961 -0.01212718 -0.00828842
v 0.03024961 -0.00847260 -0.01269974
v 0.02625039 -0.00847260 -0.01269974
v 0.02625039 -0.01212718 -0.00828842
v 0.03024961 -0.01802536 -0.00866395
v 0.03024961 -0.01542696 -0.01269974
v 0.02625039 -0.01542696 -0.01269974
v 0.02625039 -0.01802536 -0.00866395
v 0.03024961 -0.01801921 -0.00867821
v 0.03024961 -0.01562077 -0.01245688
v 0.02625039 -0.01562077 -0.01245688
v 0.02625039 -0.01801921 -0.00867821
v 0.02758372 -0.01745216 -0.00973178
v 0.03024961 -0.01716812 -0.01025856
v 0.03024961 -0.01617962 -0.01175551
v 0.02625039 -0.01617962 -0.01175551
v 0.02625039 -0.01716812 -0.01025856
f 1 2 6
f 1 6 3
f 1 3 7
f 1 7 11
f 1 11 15
f 1 15 20
f 1 20 21
f 1 21 16
f 1 16 12
f 1 12 8
f 1 8 4
f 1 4 5
f 1 5 2
f 2 5 9
f 2 9 13
f 2 13 17
f 2 17 22
f 2 22 23
f 2 23 18
f 2 18 14
f 2 14 10
f 2 10 6
f 3 6 10
f 3 10 7
f 4 8 9
f 4 9 5
f 7 10 14
f 7 14 11
f 8 12 13
f 8 13 9
f 11 14 18
f 11 18 15
f 12 16 17
f 12 17 13
f 15 18 19
f 15 19 20
f 16 21 22
f 16 22 17
f 18 23 19
f 19 23 20
f 20 23 22
f 20 22 21

