# https://github.com/mikedh/trimesh

o right_shin_output_adapter_004.obj
v 0.00303883 -0.02495013 0.00844024
v 0.00243183 -0.02495013 0.00864379
v 0.00243529 -0.02624480 0.00864316
v 0.00303883 -0.02624480 0.00844024
v 0.00303883 -0.02495013 0.00259847
v 0.00199541 -0.02495013 0.00874369
v 0.00242837 -0.02624480 0.00864504
v 0.00303883 -0.02624480 0.00259847
v -0.00088552 -0.02495013 0.00390094
v 0.00214101 -0.02581666 0.00871060
v 0.00155898 -0.02495013 0.00884297
v 0.00156628 -0.02624480 0.00884172
v -0.00088552 -0.02624480 0.00390094
v -0.00088552 -0.02495013 0.00892726
v 0.00155207 -0.02624480 0.00884421
v 0.00156283 -0.02624480 0.00884234
v 0.00111488 -0.02495013 0.00889916
v -0.00088552 -0.02624480 0.00892726
v -0.00022359 -0.02495013 0.00897721
v 0.00111488 -0.02559993 0.00889916
v 0.00067116 -0.02624480 0.00895473
v 0.00067116 -0.02495013 0.00895473
v -0.00022359 -0.02624480 0.00897721
v 0.00022551 -0.02624480 0.00896597
v 0.00022398 -0.02495013 0.00896597
f 1 2 3
f 1 3 4
f 1 4 8
f 1 8 5
f 1 5 9
f 1 9 14
f 1 14 19
f 1 19 25
f 1 25 22
f 1 22 17
f 1 17 11
f 1 11 6
f 1 6 2
f 2 6 7
f 2 7 3
f 3 7 12
f 3 12 16
f 3 16 15
f 3 15 21
f 3 21 24
f 3 24 23
f 3 23 18
f 3 18 13
f 3 13 8
f 3 8 4
f 5 8 13
f 5 13 9
f 6 10 7
f 6 11 12
f 6 12 10
f 7 10 12
f 9 13 18
f 9 18 14
f 11 15 16
f 11 16 12
f 11 17 15
f 14 18 23
f 14 23 19
f 15 17 20
f 15 20 21
f 17 22 21
f 17 21 20
f 19 23 24
f 19 24 25
f 21 22 24
f 22 25 24

