# https://github.com/mikedh/trimesh

o right_ankle_roll_output_adapter_024.obj
v 0.02474265 -0.02000000 0.00000000
v 0.02474265 -0.01994571 -0.00143852
v 0.02550278 -0.02000000 0.00000000
v 0.02550278 -0.01996642 0.00088548
v 0.02474265 -0.01994428 0.00145968
v 0.02474265 -0.01984998 -0.00232098
v 0.02550278 -0.01992070 -0.00169540
v 0.02550278 -0.01996642 -0.00088548
v 0.02550278 -0.01992070 0.00169540
v 0.02474265 -0.01984426 0.00237537
v 0.02550278 -0.01977640 -0.00297979
v 0.02474265 -0.01973925 -0.00317623
v 0.02550278 -0.01977640 0.00297980
v 0.02474265 -0.01977640 0.00297980
v 0.02550278 -0.01949850 -0.00444854
v 0.02474265 -0.01949850 -0.00444854
v 0.02474265 -0.01965353 0.00362955
v 0.02550278 -0.01954851 0.00418259
v 0.02474265 -0.01949850 0.00444854
v 0.02474265 -0.01911131 -0.00589008
v 0.02550278 -0.01902130 -0.00614998
v 0.02550278 -0.01902130 0.00614998
v 0.02474265 -0.01932705 0.00508922
v 0.02474265 -0.01874483 -0.00693573
v 0.02550278 -0.01853480 -0.00749180
v 0.02550278 -0.01855481 0.00744647
v 0.02474265 -0.01865482 0.00718052
v 0.02474265 -0.01911131 0.00589008
v 0.02474265 -0.01805902 -0.00857975
v 0.02550278 -0.01805974 -0.00858278
v 0.02550278 -0.01801902 0.00867646
v 0.02474265 -0.01797330 0.00875806
v 0.02474265 -0.01749824 -0.00965865
v 0.02550278 -0.01776470 -0.00915395
v 0.02474265 -0.01770969 0.00926275
v 0.02550278 -0.01726535 0.01008476
v 0.02538470 -0.01756324 0.00953776
v 0.02474265 -0.01658383 -0.01116668
v 0.02550278 -0.01717533 -0.01022680
v 0.02474265 -0.01722748 0.01014218
v 0.02550278 -0.01663312 0.01108810
v 0.02474265 -0.01619735 -0.01171065
v 0.02550278 -0.01644381 -0.01136311
v 0.02474265 -0.01645095 0.01136009
v 0.02550278 -0.01628164 0.01159279
v 0.02474265 -0.01563727 -0.01246920
v 0.02550278 -0.01550368 -0.01262333
v 0.02474265 -0.01604947 0.01191011
v 0.02474265 -0.01563727 0.01246920
v 0.02550278 -0.01550368 0.01262333
v 0.02474265 -0.01511434 -0.01307665
v 0.02550278 -0.01466143 -0.01360249
v 0.02550278 -0.01466143 0.01360249
v 0.02474265 -0.01452498 0.01373849
v 0.02474265 -0.01450140 -0.01375964
v 0.02474265 -0.01360414 -0.01466023
v 0.02550278 -0.01374916 -0.01451517
v 0.02550278 -0.01418493 0.01407999
v 0.02474265 -0.01372701 0.01453632
v 0.02474265 -0.01288976 -0.01527372
v 0.02550278 -0.01270188 -0.01543691
v 0.02550278 -0.01360414 0.01466023
v 0.02474265 -0.01288976 0.01527372
v 0.02550278 -0.01270188 0.01543691
f 1 2 3
f 1 3 4
f 1 4 5
f 1 5 10
f 1 10 14
f 1 14 17
f 1 17 19
f 1 19 23
f 1 23 28
f 1 28 27
f 1 27 32
f 1 32 35
f 1 35 40
f 1 40 44
f 1 44 48
f 1 48 49
f 1 49 54
f 1 54 59
f 1 59 63
f 1 63 60
f 1 60 56
f 1 56 55
f 1 55 51
f 1 51 46
f 1 46 42
f 1 42 38
f 1 38 33
f 1 33 29
f 1 29 24
f 1 24 20
f 1 20 16
f 1 16 12
f 1 12 6
f 1 6 2
f 2 6 7
f 2 7 8
f 2 8 3
f 3 8 7
f 3 7 11
f 3 11 15
f 3 15 21
f 3 21 25
f 3 25 30
f 3 30 34
f 3 34 39
f 3 39 43
f 3 43 47
f 3 47 52
f 3 52 57
f 3 57 61
f 3 61 64
f 3 64 62
f 3 62 58
f 3 58 53
f 3 53 50
f 3 50 45
f 3 45 41
f 3 41 36
f 3 36 31
f 3 31 26
f 3 26 22
f 3 22 18
f 3 18 13
f 3 13 9
f 3 9 4
f 4 9 5
f 5 9 10
f 6 11 7
f 6 12 11
f 9 13 14
f 9 14 10
f 11 12 15
f 12 16 15
f 13 17 14
f 13 18 19
f 13 19 17
f 15 16 20
f 15 20 21
f 18 22 23
f 18 23 19
f 20 24 21
f 21 24 25
f 22 26 27
f 22 27 28
f 22 28 23
f 24 29 25
f 25 29 30
f 26 31 32
f 26 32 27
f 29 33 34
f 29 34 30
f 31 35 32
f 31 36 37
f 31 37 35
f 33 38 39
f 33 39 34
f 35 37 36
f 35 36 40
f 36 41 40
f 38 42 43
f 38 43 39
f 40 41 44
f 41 45 44
f 42 46 43
f 43 46 47
f 44 45 48
f 45 49 48
f 45 50 49
f 46 51 52
f 46 52 47
f 49 50 53
f 49 53 54
f 51 55 52
f 52 55 56
f 52 56 57
f 53 58 54
f 54 58 59
f 56 60 61
f 56 61 57
f 58 62 59
f 59 62 63
f 60 63 64
f 60 64 61
f 62 64 63

