# https://github.com/mikedh/trimesh

o right_foot_rear_saddle_022.obj
v -0.02513823 -0.01934691 -0.02548420
v -0.02494056 -0.02300000 -0.02469942
v -0.02513823 -0.01934691 -0.02469933
v -0.02494056 -0.01300000 -0.02469942
v -0.02471291 -0.01705051 -0.02548420
v -0.02100041 -0.01934691 -0.02548420
v -0.02494056 -0.02300000 -0.02450000
v -0.02100041 -0.02300000 -0.02469942
v -0.02494056 -0.01300000 -0.02450000
v -0.02100041 -0.01300000 -0.02469942
v -0.02389547 -0.01300098 -0.02548420
v -0.02100041 -0.01300098 -0.02548420
v -0.02100041 -0.02300000 -0.02450000
v -0.02100041 -0.01300000 -0.02450000
f 1 2 7
f 1 7 3
f 1 3 9
f 1 9 4
f 1 4 5
f 1 5 11
f 1 11 12
f 1 12 6
f 1 6 8
f 1 8 2
f 2 8 13
f 2 13 7
f 3 7 9
f 4 9 14
f 4 14 10
f 4 10 12
f 4 12 11
f 4 11 5
f 6 12 10
f 6 10 14
f 6 14 13
f 6 13 8
f 7 13 14
f 7 14 9

