# https://github.com/mikedh/trimesh

o servo_buck_frame_carrier_037.obj
v 0.08119600 -0.03339600 0.32759999
v 0.08119600 -0.03339600 0.33120000
v 0.08120215 -0.03356041 0.32759999
v 0.08120215 -0.03356041 0.33120000
v 0.08120215 -0.03323159 0.32940000
v 0.08120215 -0.03323159 0.33120000
v 0.08122057 -0.03372389 0.32759999
v 0.08122057 -0.03372389 0.33120000
v 0.08122057 -0.03306811 0.32759999
v 0.08122057 -0.03306811 0.33120000
v 0.08125116 -0.03388555 0.32759999
v 0.08125116 -0.03388555 0.33120000
v 0.08125116 -0.03290645 0.32940000
v 0.08125116 -0.03290645 0.33120000
v 0.08127955 -0.03399149 0.32880000
v 0.08127955 -0.03280051 0.33000000
v 0.08129374 -0.03404446 0.32759999
v 0.08129374 -0.03404446 0.33120000
v 0.08129374 -0.03274754 0.32759999
v 0.08129374 -0.03274754 0.33120000
v 0.08134808 -0.03419975 0.32759999
v 0.08134808 -0.03419975 0.33120000
v 0.08134808 -0.03259225 0.32759999
v 0.08134808 -0.03259225 0.33120000
v 0.08141387 -0.03435054 0.32759999
v 0.08141387 -0.03435054 0.33120000
v 0.08141387 -0.03244146 0.32759999
v 0.08141387 -0.03244146 0.33120000
v 0.08149075 -0.03449600 0.32940000
v 0.08149075 -0.03449600 0.33120000
v 0.08149075 -0.03229600 0.32759999
v 0.08149075 -0.03229600 0.33120000
v 0.08157828 -0.03463530 0.32759999
v 0.08157828 -0.03463530 0.33120000
v 0.08157828 -0.03215670 0.32940000
v 0.08157828 -0.03215670 0.33120000
v 0.08167597 -0.03476768 0.32940000
v 0.08167597 -0.03476768 0.33120000
v 0.08167597 -0.03202432 0.32759999
v 0.08167597 -0.03202432 0.33120000
v 0.08171174 -0.03198276 0.32880000
v 0.08178329 -0.03489238 0.32759999
v 0.08178329 -0.03489238 0.33120000
v 0.08178329 -0.03189962 0.32759999
v 0.08178329 -0.03189962 0.33120000
v 0.08189962 -0.03500871 0.32940000
v 0.08189962 -0.03500871 0.33120000
v 0.08189962 -0.03178329 0.32759999
v 0.08189962 -0.03178329 0.33120000
v 0.08202432 -0.03511603 0.33120000
v 0.08202432 -0.03167597 0.32940000
v 0.08202432 -0.03167597 0.33120000
v 0.08215669 -0.03521373 0.33120000
v 0.08215669 -0.03157827 0.32759999
v 0.08215669 -0.03157827 0.33120000
v 0.08229600 -0.03530125 0.33120000
v 0.08229600 -0.03149074 0.32759999
v 0.08229600 -0.03149074 0.33120000
v 0.08244145 -0.03537813 0.33120000
v 0.08244145 -0.03141387 0.32940000
v 0.08244145 -0.03141387 0.33120000
v 0.08259225 -0.03544392 0.33120000
v 0.08259225 -0.03134808 0.32759999
v 0.08259225 -0.03134808 0.33120000
v 0.08259675 -0.03337607 0.32746666
v 0.08259749 -0.03343586 0.32746666
v 0.08260047 -0.03347560 0.32746666
v 0.08260047 -0.03331640 0.32746666
v 0.08260864 -0.03325717 0.32746666
v 0.08261235 -0.03355442 0.32746666
v 0.08262122 -0.03319872 0.32746666
v 0.08262638 -0.03361254 0.32746666
v 0.08263813 -0.03365063 0.32746666
v 0.08263813 -0.03314137 0.32746666
v 0.08265927 -0.03308545 0.32746666
v 0.08266725 -0.03372483 0.32746666
v 0.08269386 -0.03377837 0.32746666
v 0.08269386 -0.03301363 0.32746666
v 0.08272440 -0.03382977 0.32746666
v 0.08272440 -0.03296223 0.32746666
v 0.08274685 -0.03386270 0.32746666
v 0.08274754 -0.03549826 0.33120000
v 0.08274754 -0.03129374 0.32759999
v 0.08274754 -0.03129374 0.33120000
v 0.08275869 -0.03291325 0.32746666
v 0.08278354 -0.03288209 0.32746666
v 0.08279655 -0.03392502 0.32746666
v 0.08282366 -0.03283776 0.32746666
v 0.08283776 -0.03396834 0.32746666
v 0.08286698 -0.03399545 0.32746666
v 0.08286698 -0.03279655 0.32746666
v 0.08290646 -0.03125116 0.32759999
v 0.08290646 -0.03125116 0.33120000
v 0.08291325 -0.03275869 0.32746666
v 0.08292930 -0.03404515 0.32746666
v 0.08296223 -0.03272440 0.32746666
v 0.08297912 -0.03407821 0.32746666
v 0.08301363 -0.03409814 0.32746666
v 0.08301363 -0.03269386 0.32746666
v 0.08306811 -0.03122057 0.32940000
v 0.08306811 -0.03122057 0.33120000
v 0.08308545 -0.03413272 0.32746666
v 0.08308545 -0.03265928 0.32746666
v 0.08312255 -0.03264472 0.32746666
v 0.08314137 -0.03415387 0.32746666
v 0.08317946 -0.03262638 0.32746666
v 0.08319872 -0.03417078 0.32746666
v 0.08323159 -0.03120215 0.32759999
v 0.08323159 -0.03120215 0.33120000
v 0.08323758 -0.03261235 0.32746666
v 0.08325717 -0.03418336 0.32746666
v 0.08331640 -0.03419153 0.32746666
v 0.08331640 -0.03260047 0.32746666
v 0.08335614 -0.03259749 0.32746666
v 0.08337607 -0.03419525 0.32746666
v 0.08339600 -0.03119600 0.32759999
v 0.08339600 -0.03119600 0.33120000
v 0.08341593 -0.03419525 0.32746666
v 0.08343586 -0.03259749 0.32746666
v 0.08347560 -0.03260047 0.32746666
v 0.08349542 -0.03418930 0.32746666
v 0.08353483 -0.03418336 0.32746666
v 0.08355443 -0.03261235 0.32746666
v 0.08356041 -0.03120215 0.32940000
v 0.08356041 -0.03120215 0.33120000
v 0.08359328 -0.03262122 0.32746666
v 0.08361254 -0.03416562 0.32746666
v 0.08365063 -0.03415387 0.32746666
v 0.08365063 -0.03263813 0.32746666
v 0.08370655 -0.03265928 0.32746666
v 0.08372389 -0.03122057 0.32759999
v 0.08372389 -0.03122057 0.33120000
v 0.08372483 -0.03412475 0.32746666
v 0.08376074 -0.03268454 0.32746666
v 0.08377837 -0.03409814 0.32746666
v 0.08382977 -0.03406760 0.32746666
v 0.08382977 -0.03272440 0.32746666
v 0.08386270 -0.03274685 0.32746666
v 0.08387875 -0.03403331 0.32746666
v 0.08388554 -0.03125116 0.32759999
v 0.08388554 -0.03125116 0.33120000
v 0.08390991 -0.03278354 0.32746666
v 0.08392502 -0.03399545 0.32746666
v 0.08396834 -0.03395424 0.32746666
v 0.08396834 -0.03283776 0.32746666
v 0.08399545 -0.03286698 0.32746666
v 0.08400846 -0.03390991 0.32746666
v 0.08403330 -0.03387875 0.32746666
v 0.08403330 -0.03291325 0.32746666
v 0.08404446 -0.03549826 0.33120000
v 0.08404446 -0.03129374 0.32940000
v 0.08404446 -0.03129374 0.33120000
v 0.08407821 -0.03381289 0.32746666
v 0.08407821 -0.03297911 0.32746666
v 0.08410746 -0.03376074 0.32746666
v 0.08410746 -0.03303126 0.32746666
v 0.08412475 -0.03306717 0.32746666
v 0.08413273 -0.03370655 0.32746666
v 0.08414729 -0.03312255 0.32746666
v 0.08415387 -0.03365063 0.32746666
v 0.08416562 -0.03317946 0.32746666
v 0.08417078 -0.03359328 0.32746666
v 0.08417965 -0.03323758 0.32746666
v 0.08418336 -0.03353483 0.32746666
v 0.08418930 -0.03329658 0.32746666
v 0.08419153 -0.03347560 0.32746666
v 0.08419451 -0.03335614 0.32746666
v 0.08419525 -0.03341593 0.32746666
v 0.08419975 -0.03544392 0.33120000
v 0.08419975 -0.03134808 0.32759999
v 0.08419975 -0.03134808 0.33120000
v 0.08435055 -0.03141387 0.32940000
v 0.08435055 -0.03141387 0.33120000
v 0.08449600 -0.03530125 0.33120000
v 0.08449600 -0.03149074 0.32759999
v 0.08449600 -0.03149074 0.33120000
v 0.08463531 -0.03521373 0.33120000
v 0.08463531 -0.03157827 0.32759999
v 0.08463531 -0.03157827 0.33120000
v 0.08476768 -0.03511603 0.33120000
v 0.08476768 -0.03167597 0.32759999
v 0.08476768 -0.03167597 0.33120000
v 0.08489238 -0.03500871 0.32759999
v 0.08489238 -0.03500871 0.33120000
v 0.08489238 -0.03178329 0.32759999
v 0.08489238 -0.03178329 0.33120000
v 0.08500871 -0.03489238 0.32940000
v 0.08500871 -0.03489238 0.33120000
v 0.08500871 -0.03189962 0.32759999
v 0.08500871 -0.03189962 0.33120000
v 0.08511603 -0.03476768 0.33120000
v 0.08511603 -0.03202432 0.33120000
v 0.08521372 -0.03463530 0.33120000
v 0.08521372 -0.03215670 0.33120000
v 0.08530125 -0.03449600 0.33120000
v 0.08530125 -0.03229600 0.33120000
v 0.08537813 -0.03435054 0.33120000
v 0.08537813 -0.03244146 0.33120000
v 0.08544392 -0.03419975 0.33120000
v 0.08544392 -0.03259225 0.33120000
v 0.08549826 -0.03404446 0.33120000
v 0.08549826 -0.03274754 0.33120000
f 201 183 189
f 82 42 183
f 201 189 202
f 200 202 189
f 170 140 151
f 150 82 183
f 19 9 13
f 5 9 1
f 189 196 198
f 198 200 189
f 189 190 192
f 183 174 169
f 169 150 183
f 51 54 48
f 124 131 116
f 194 196 189
f 189 192 194
f 29 25 33
f 42 82 62
f 62 59 42
f 11 17 15
f 15 17 18
f 11 15 12
f 12 15 18
f 199 183 201
f 183 195 193
f 177 174 183
f 39 31 35
f 16 20 19
f 20 16 14
f 57 60 63
f 100 108 92
f 46 53 50
f 42 53 46
f 50 47 46
f 42 59 56
f 56 53 42
f 197 195 183
f 183 199 197
f 187 193 191
f 183 193 187
f 191 188 187
f 183 184 180
f 180 177 183
f 41 44 39
f 45 44 41
f 39 40 41
f 41 40 45
f 48 54 94
f 23 27 75
f 48 94 91
f 54 57 96
f 96 94 54
f 74 19 23
f 23 75 74
f 78 27 31
f 78 75 27
f 99 57 63
f 99 96 57
f 9 19 71
f 19 74 71
f 80 31 39
f 80 78 31
f 63 83 104
f 1 9 68
f 68 65 1
f 39 44 86
f 103 99 63
f 63 104 103
f 106 83 92
f 106 104 83
f 9 71 69
f 69 68 9
f 85 80 39
f 39 86 85
f 88 86 44
f 88 44 48
f 48 91 88
f 92 108 113
f 110 106 92
f 92 113 110
f 114 108 116
f 114 113 108
f 116 131 120
f 119 114 116
f 116 120 119
f 178 181 138
f 137 175 178
f 178 138 137
f 142 181 185
f 142 138 181
f 170 175 134
f 175 137 134
f 145 185 189
f 145 142 185
f 129 140 170
f 168 189 183
f 170 134 130
f 130 129 170
f 123 131 140
f 123 120 131
f 183 42 115
f 140 129 126
f 126 123 140
f 189 154 149
f 156 154 189
f 189 168 167
f 167 165 189
f 161 159 189
f 42 33 87
f 87 89 42
f 146 145 189
f 189 149 146
f 189 159 157
f 157 156 189
f 189 165 163
f 163 161 189
f 33 25 77
f 166 168 183
f 183 158 160
f 160 162 183
f 148 153 183
f 155 158 183
f 183 153 155
f 121 122 183
f 183 122 127
f 183 136 139
f 183 133 135
f 135 136 183
f 112 115 42
f 42 111 112
f 42 102 105
f 95 97 42
f 98 102 42
f 42 97 98
f 81 87 33
f 76 25 21
f 76 77 25
f 183 162 164
f 164 166 183
f 183 144 147
f 147 148 183
f 183 115 118
f 118 121 183
f 128 133 183
f 183 127 128
f 143 144 183
f 183 139 143
f 107 111 42
f 42 105 107
f 42 89 90
f 90 95 42
f 33 77 79
f 79 81 33
f 21 17 73
f 73 76 21
f 72 17 11
f 72 73 17
f 11 7 70
f 70 72 11
f 67 7 3
f 67 70 7
f 66 67 3
f 66 3 1
f 1 65 66
f 2 6 5
f 1 2 5
f 22 17 21
f 18 17 22
f 23 19 20
f 20 24 23
f 108 109 117
f 108 117 116
f 64 84 83
f 83 63 64
f 84 93 83
f 83 93 92
f 117 125 124
f 116 117 124
f 124 125 132
f 132 131 124
f 189 185 186
f 186 190 189
f 37 33 42
f 26 29 30
f 25 29 26
f 21 25 26
f 26 22 21
f 12 7 11
f 8 7 12
f 1 3 4
f 4 2 1
f 3 7 4
f 4 7 8
f 36 35 32
f 32 35 31
f 14 19 13
f 14 16 19
f 54 51 55
f 55 51 52
f 64 63 61
f 63 60 61
f 54 55 57
f 57 55 58
f 58 61 57
f 57 61 60
f 52 51 49
f 49 51 48
f 48 44 49
f 49 44 45
f 40 35 36
f 39 35 40
f 101 109 100
f 109 108 100
f 100 93 101
f 92 93 100
f 170 151 152
f 152 171 170
f 170 171 173
f 173 172 170
f 170 172 175
f 33 37 34
f 37 38 34
f 30 29 34
f 34 29 33
f 187 188 184
f 187 184 183
f 10 5 6
f 9 5 10
f 13 9 10
f 10 14 13
f 140 131 141
f 141 131 132
f 141 152 151
f 141 151 140
f 178 175 176
f 179 178 176
f 172 173 176
f 176 175 172
f 182 181 178
f 182 178 179
f 182 186 185
f 185 181 182
f 43 37 42
f 43 38 37
f 42 46 43
f 43 46 47
f 50 53 28
f 28 169 174
f 28 40 36
f 201 202 28
f 101 93 28
f 24 20 28
f 28 198 196
f 28 84 64
f 132 125 28
f 28 12 18
f 28 6 2
f 82 150 28
f 52 49 28
f 202 200 28
f 196 194 28
f 179 176 28
f 28 141 132
f 2 4 28
f 191 193 28
f 28 188 191
f 28 55 52
f 28 109 101
f 200 198 28
f 28 125 117
f 28 192 190
f 28 62 82
f 18 22 28
f 28 26 30
f 28 199 201
f 174 177 28
f 150 169 28
f 36 32 28
f 28 180 184
f 64 61 28
f 117 109 28
f 28 93 84
f 28 10 6
f 28 194 192
f 190 186 28
f 30 34 28
f 59 62 28
f 28 47 50
f 22 26 28
f 8 12 28
f 28 4 8
f 28 56 59
f 28 193 195
f 195 197 28
f 184 188 28
f 38 43 28
f 20 14 28
f 58 55 28
f 28 61 58
f 28 49 45
f 45 40 28
f 171 152 28
f 28 173 171
f 28 34 38
f 28 182 179
f 53 56 28
f 28 197 199
f 177 180 28
f 14 10 28
f 152 141 28
f 28 176 173
f 186 182 28
f 28 43 47
f 23 24 28
f 28 27 23
f 28 32 31
f 31 27 28
f 75 78 66
f 66 91 94
f 65 68 66
f 94 96 66
f 66 74 75
f 99 103 66
f 96 99 66
f 66 71 74
f 78 80 66
f 80 85 66
f 66 88 91
f 66 69 71
f 66 103 104
f 104 106 66
f 68 69 66
f 66 85 86
f 86 88 66
f 106 110 66
f 66 110 113
f 113 114 66
f 114 119 66
f 66 119 120
f 66 130 134
f 66 137 138
f 138 142 66
f 66 134 137
f 142 145 66
f 66 126 129
f 120 123 66
f 129 130 66
f 159 161 66
f 66 118 115
f 145 146 66
f 123 126 66
f 66 105 102
f 66 167 168
f 66 163 165
f 66 160 158
f 66 149 154
f 154 156 66
f 165 167 66
f 66 157 159
f 87 81 66
f 158 155 66
f 66 135 133
f 89 87 66
f 66 146 149
f 156 157 66
f 161 163 66
f 168 166 66
f 66 164 162
f 66 147 144
f 133 128 66
f 115 112 66
f 111 107 66
f 102 98 66
f 66 79 77
f 162 160 66
f 153 148 66
f 66 155 153
f 122 121 66
f 66 127 122
f 66 139 136
f 136 135 66
f 66 112 111
f 144 143 66
f 97 95 66
f 66 98 97
f 66 90 89
f 77 76 66
f 166 164 66
f 148 147 66
f 121 118 66
f 66 128 127
f 66 143 139
f 66 107 105
f 95 90 66
f 81 79 66
f 76 73 66
f 73 72 66
f 72 70 66
f 70 67 66

