# https://github.com/mikedh/trimesh

o servo_buck_pcb_0_m2x6_006.obj
v 0.09541937 -0.04511852 0.33521599
v 0.09553369 -0.04503415 0.33521599
v 0.09559385 -0.04499635 0.33421599
v 0.09559385 -0.04499635 0.33521599
v 0.09565400 -0.04495855 0.33321599
v 0.09565400 -0.04495855 0.33521599
v 0.09573774 -0.04491429 0.33454932
v 0.09577962 -0.04489216 0.33321599
v 0.09577962 -0.04489216 0.33521599
v 0.09590985 -0.04483534 0.33321599
v 0.09590985 -0.04483534 0.33521599
v 0.09595456 -0.04481970 0.33388266
v 0.09604397 -0.04478841 0.33321599
v 0.09604397 -0.04478841 0.33521599
v 0.09611259 -0.04477002 0.33421599
v 0.09611259 -0.04477002 0.33521599
v 0.09618121 -0.04475164 0.33321599
v 0.09618121 -0.04475164 0.33421599
v 0.09618121 -0.04475164 0.33521599
v 0.09622775 -0.04474283 0.33388266
v 0.09632082 -0.04472522 0.33321599
v 0.09632082 -0.04472522 0.33521599
v 0.09646201 -0.04470931 0.33321599
v 0.09646201 -0.04470931 0.33521599
v 0.09650934 -0.04470754 0.33388266
v 0.09660400 -0.04470400 0.33321599
v 0.09660400 -0.04470400 0.33521599
v 0.09669866 -0.04470754 0.33388266
v 0.09674599 -0.04470931 0.33321599
v 0.09674599 -0.04470931 0.33521599
v 0.09681658 -0.04471727 0.33421599
v 0.09681658 -0.04471727 0.33521599
v 0.09688718 -0.04472522 0.33321599
v 0.09688718 -0.04472522 0.33521599
v 0.09698025 -0.04474283 0.33454932
v 0.09702679 -0.04475164 0.33321599
v 0.09702679 -0.04475164 0.33521599
v 0.09709541 -0.04477002 0.33421599
v 0.09709541 -0.04477002 0.33521599
v 0.09716403 -0.04478841 0.33321599
v 0.09716403 -0.04478841 0.33521599
v 0.09720874 -0.04480405 0.33388266
v 0.09725344 -0.04481970 0.33454932
v 0.09729815 -0.04483534 0.33321599
v 0.09729815 -0.04483534 0.33521599
v 0.09742838 -0.04489216 0.33321599
v 0.09742838 -0.04489216 0.33521599
v 0.09747026 -0.04491429 0.33388266
v 0.09755400 -0.04495855 0.33321599
v 0.09755400 -0.04495855 0.33521599
v 0.09761415 -0.04499635 0.33421599
v 0.09761415 -0.04499635 0.33521599
v 0.09766104 -0.04505502 0.33521599
v 0.09767431 -0.04503415 0.33521599
f 1 5 49
f 1 49 53
f 54 51 52
f 2 4 3
f 1 2 3
f 3 5 1
f 9 8 7
f 5 6 7
f 6 9 7
f 7 8 5
f 25 24 27
f 26 23 25
f 25 27 26
f 25 23 24
f 48 50 49
f 49 46 48
f 46 47 48
f 48 47 50
f 12 10 11
f 12 13 10
f 11 14 12
f 12 14 13
f 40 41 42
f 40 42 44
f 22 21 20
f 28 29 26
f 27 30 28
f 26 27 28
f 28 30 29
f 33 29 31
f 40 36 38
f 35 36 33
f 33 34 35
f 35 37 36
f 34 37 35
f 43 45 44
f 43 44 42
f 41 45 43
f 43 42 41
f 17 20 21
f 18 20 17
f 13 15 17
f 54 53 51
f 51 53 49
f 52 51 49
f 49 50 52
f 11 10 8
f 8 9 11
f 3 4 6
f 3 6 5
f 22 24 23
f 23 21 22
f 46 44 45
f 45 47 46
f 22 20 19
f 19 20 18
f 5 8 17
f 17 49 5
f 17 46 49
f 10 13 17
f 17 23 26
f 17 8 10
f 26 29 17
f 21 23 17
f 40 44 17
f 17 36 40
f 17 29 33
f 33 36 17
f 17 44 46
f 16 19 18
f 18 17 16
f 16 17 15
f 13 14 16
f 16 15 13
f 32 34 33
f 33 31 32
f 29 30 32
f 32 31 29
f 1 53 39
f 6 4 39
f 39 2 1
f 39 53 54
f 54 52 39
f 27 24 39
f 11 9 39
f 50 47 39
f 39 52 50
f 39 14 11
f 39 4 2
f 39 24 22
f 39 9 6
f 39 30 27
f 34 32 39
f 39 45 41
f 39 16 14
f 39 37 34
f 47 45 39
f 22 19 39
f 19 16 39
f 39 32 30
f 39 41 40
f 40 38 39
f 36 37 39
f 39 38 36

