# https://github.com/mikedh/trimesh

o torso_mounted_shell_left_aft_210.obj
v -0.13574811 0.08452339 0.31278923
v -0.13560296 0.08858423 0.31013858
v -0.13551009 0.08499437 0.31077860
v -0.13547886 0.08859083 0.31203637
v -0.13545130 0.08505188 0.31060500
v -0.13540891 0.08869833 0.31187855
v -0.13536325 0.08873918 0.31197300
v -0.13531227 0.08519346 0.31050839
v -0.13530884 0.08520561 0.31041404
v -0.13512122 0.08914866 0.30982039
v -0.13477321 0.08943045 0.31166134
v -0.13476027 0.08943538 0.31175219
v -0.13462284 0.08970267 0.30996721
v -0.13413180 0.09026579 0.30966569
v -0.13412076 0.09016148 0.31152681
v -0.13410587 0.09018772 0.31143366
v -0.13405725 0.09025478 0.31122508
v -0.13404801 0.09023811 0.31146711
v -0.13396952 0.08681931 0.31000534
v -0.13361212 0.09077659 0.31069367
v -0.13179509 0.09035368 0.31098450
v -0.13099962 0.09004727 0.31091950
v -0.13099252 0.09004933 0.31086389
v -0.13090984 0.09022900 0.30945940
v -0.13087891 0.09025655 0.30947763
v -0.12974261 0.09150699 0.30942549
f 22 15 1
f 4 2 1
f 1 15 4
f 8 26 1
f 1 9 8
f 8 9 26
f 1 2 3
f 1 26 23
f 23 22 1
f 26 22 23
f 21 22 26
f 15 22 21
f 2 4 6
f 26 14 20
f 24 14 26
f 10 9 2
f 2 6 10
f 14 24 10
f 2 9 5
f 5 3 2
f 5 9 1
f 1 3 5
f 7 6 4
f 26 20 18
f 18 20 15
f 18 21 26
f 15 21 18
f 26 9 25
f 25 24 26
f 9 24 25
f 19 24 9
f 9 10 19
f 19 10 24
f 12 4 15
f 12 7 4
f 6 7 12
f 17 20 14
f 6 12 11
f 11 10 6
f 13 17 14
f 13 11 17
f 14 10 13
f 10 11 13
f 17 11 16
f 15 20 16
f 20 17 16
f 16 12 15
f 16 11 12

