# https://github.com/mikedh/trimesh

o torso_mounted_shell_right_aft_288.obj
v -0.11911818 -0.06417592 0.23134817
v -0.11911817 -0.06275173 0.23039834
v -0.11908639 -0.06514573 0.23198431
v -0.11817136 -0.07021648 0.23439951
v -0.11817133 -0.06893647 0.23341148
v -0.11817132 -0.06828729 0.23292649
v -0.11817130 -0.06763810 0.23244151
v -0.11817129 -0.06697991 0.23196568
v -0.11817128 -0.06632171 0.23148985
v -0.11817126 -0.06498763 0.23055676
v -0.11817125 -0.06363619 0.22964250
v -0.11723430 -0.07201132 0.23466056
v -0.11723427 -0.07081225 0.23370007
v -0.11723425 -0.06959634 0.23275561
v -0.11723424 -0.06836386 0.23182741
v -0.11723424 -0.06711509 0.23091570
v -0.11723424 -0.06585032 0.23002071
v -0.11723423 -0.06456985 0.22914267
v -0.11723420 -0.06327399 0.22828181
v -0.11630201 -0.07155103 0.23329992
v -0.11630201 -0.07039924 0.23239729
v -0.11630200 -0.06923257 0.23150934
v -0.11568031 -0.07139670 0.23264380
v -0.11547115 -0.06614647 0.22836758
v -0.11536947 -0.07144547 0.23234394
f 1 2 11
f 11 2 19
f 24 2 25
f 19 2 24
f 3 2 1
f 3 4 12
f 21 24 25
f 25 2 23
f 2 3 23
f 23 12 25
f 23 3 12
f 25 12 20
f 20 21 25
f 18 11 19
f 19 24 18
f 1 11 10
f 11 18 10
f 24 21 22
f 22 15 24
f 21 14 22
f 22 14 15
f 16 15 7
f 24 15 16
f 12 4 13
f 4 14 13
f 13 20 12
f 21 20 13
f 13 14 21
f 15 14 5
f 5 14 4
f 4 3 5
f 8 16 7
f 7 3 8
f 17 10 18
f 24 16 17
f 17 18 24
f 7 15 6
f 15 5 6
f 6 3 7
f 6 5 3
f 10 17 9
f 9 8 3
f 16 8 9
f 9 17 16
f 9 3 1
f 1 10 9

