# https://github.com/mikedh/trimesh

o torso_mounted_shell_right_aft_324.obj
v -0.11640930 -0.07371886 0.23878053
v -0.11505721 -0.07360032 0.23383722
v -0.11505719 -0.07464483 0.23471097
v -0.11505719 -0.07567589 0.23559700
v -0.11505719 -0.07669333 0.23649515
v -0.11505719 -0.07769696 0.23740528
v -0.11490107 -0.07467774 0.23458387
v -0.11490104 -0.07868952 0.23816776
v -0.11443277 -0.07583725 0.23509141
v -0.11443272 -0.07633006 0.23552522
v -0.11443267 -0.07682286 0.23595903
v -0.11443265 -0.07730925 0.23639840
v -0.11443263 -0.07779564 0.23683777
v -0.11443261 -0.07875545 0.23772750
v -0.11443261 -0.07970212 0.23862810
v -0.11443261 -0.08063551 0.23953947
v -0.11349177 -0.08177782 0.23969683
v -0.11330220 -0.07642929 0.23448837
v -0.11259776 -0.07440514 0.23602608
v -0.11230047 -0.07424634 0.23559903
v -0.11221421 -0.08117760 0.23770249
v -0.11200286 -0.07415255 0.23519707
v -0.11142177 -0.07928084 0.23927554
v -0.11112723 -0.08005441 0.23968420
v -0.11112331 -0.07837930 0.23806614
v -0.11068498 -0.08030631 0.23949110
f 22 2 1
f 24 17 26
f 26 17 21
f 1 8 16
f 16 24 1
f 17 24 16
f 16 21 17
f 25 22 26
f 26 21 25
f 25 21 22
f 2 22 18
f 22 21 18
f 26 22 20
f 20 19 26
f 20 22 1
f 1 19 20
f 23 24 26
f 26 19 23
f 1 24 23
f 23 19 1
f 15 16 8
f 21 16 15
f 1 2 3
f 3 4 1
f 11 18 21
f 21 15 14
f 14 13 21
f 14 15 8
f 6 8 1
f 6 14 8
f 13 14 6
f 7 3 2
f 21 13 12
f 12 11 21
f 4 3 9
f 3 7 9
f 2 18 9
f 9 7 2
f 11 12 5
f 13 6 5
f 5 12 13
f 4 11 5
f 1 4 5
f 5 6 1
f 10 11 4
f 4 9 10
f 18 11 10
f 10 9 18

