# https://github.com/mikedh/trimesh

o torso_mounted_shell_right_aft_321.obj
v -0.11411902 -0.07879878 0.23749788
v -0.11396222 -0.07930034 0.23782793
v -0.11396220 -0.07978673 0.23826730
v -0.11349234 -0.07910353 0.23709490
v -0.11349219 -0.07955528 0.23752379
v -0.11349205 -0.08000702 0.23795269
v -0.11349186 -0.08089849 0.23882004
v -0.11349177 -0.08177782 0.23969683
v -0.11330220 -0.07642929 0.23448837
v -0.11317744 -0.08186982 0.23949681
v -0.11254900 -0.08308211 0.23999797
v -0.11221421 -0.08117760 0.23770249
f 12 9 11
f 12 11 8
f 1 9 4
f 4 9 12
f 10 11 9
f 10 8 11
f 12 8 7
f 8 10 2
f 2 9 1
f 2 10 9
f 12 7 6
f 5 4 12
f 12 6 5
f 1 4 5
f 5 6 1
f 1 6 3
f 3 6 7
f 3 7 8
f 3 2 1
f 8 2 3

