# https://github.com/mikedh/trimesh

o torso_mounted_shell_right_aft_136.obj
v -0.15522858 -0.05415214 0.31941910
v -0.15520556 -0.05441630 0.31871299
v -0.15509870 -0.05427237 0.32003029
v -0.15506777 -0.05476517 0.31866595
v -0.15504705 -0.05470803 0.31907913
v -0.15503433 -0.05441109 0.32009344
v -0.15502899 -0.05468035 0.31932925
v -0.15492605 -0.05513015 0.31861872
v -0.15484175 -0.05407388 0.32244986
v -0.15481633 -0.05523427 0.31922258
v -0.15478717 -0.05497868 0.32022403
v -0.15476554 -0.05528244 0.31947414
v -0.15474839 -0.05553058 0.31874101
v -0.15464892 -0.05532189 0.32022224
v -0.15457181 -0.05578807 0.31936961
v -0.15457041 -0.05556601 0.32006294
v -0.15448594 -0.05591699 0.31961994
v -0.15448399 -0.05568205 0.32034933
v -0.15446780 -0.05623928 0.31864196
v -0.15441840 -0.05590200 0.32016966
v -0.15436370 -0.05632246 0.31925255
v -0.15431220 -0.05637170 0.31951893
v -0.15429488 -0.05662199 0.31876462
v -0.15426640 -0.05623798 0.32027639
v -0.15412249 -0.05686021 0.31940115
v -0.15406017 -0.05679603 0.32008409
v -0.15403621 -0.05698744 0.31966923
v -0.15401139 -0.05732897 0.31866087
v -0.15393756 -0.05696270 0.32047858
v -0.15392756 -0.05751112 0.31872228
v -0.15386686 -0.05742572 0.31955340
v -0.15384374 -0.05769327 0.31878370
v -0.15375409 -0.05746215 0.32029881
v -0.15375381 -0.05788800 0.31884688
v -0.15368044 -0.05790014 0.31942527
v -0.15366388 -0.05808273 0.31891005
v -0.15359545 -0.05802118 0.31970791
v -0.15359408 -0.05780610 0.32040978
v -0.15355575 -0.05840094 0.31867583
v -0.15347140 -0.05849786 0.31904009
v -0.15345118 -0.05833499 0.31978562
v -0.15343408 -0.05815005 0.32052076
v -0.15342874 -0.05844793 0.31957878
v -0.15339380 -0.05874637 0.31879859
v -0.15330691 -0.05864880 0.31986333
v -0.15326101 -0.05852043 0.32062582
v -0.15321969 -0.05911655 0.31892487
v -0.15316199 -0.05902360 0.31973595
v -0.15309982 -0.05945703 0.31868723
v -0.15308794 -0.05889080 0.32073087
v -0.15303291 -0.05951214 0.31905473
v -0.15299732 -0.05944127 0.31959662
v -0.15294569 -0.05980574 0.31869092
v -0.15294394 -0.05978318 0.31880969
v -0.15293774 -0.05930216 0.32053304
v -0.15287878 -0.05962929 0.31989536
v -0.15283301 -0.05993360 0.31918834
v -0.15279647 -0.06013134 0.31875227
v -0.15277599 -0.06013365 0.31893566
v -0.15273513 -0.05999773 0.31975473
v -0.15271575 -0.06029651 0.31881500
v -0.15270346 -0.05971548 0.32091008
v -0.15261982 -0.06038060 0.31932623
v -0.15260174 -0.06000398 0.32076296
v -0.15259619 -0.06028991 0.31983562
v -0.15259542 -0.06050907 0.31906520
v -0.15251810 -0.05462326 0.31868039
v -0.15245725 -0.06058210 0.31991650
v -0.15245396 -0.05455333 0.31944031
v -0.15242971 -0.05448946 0.32011608
v -0.15234785 -0.05462921 0.31996214
v -0.15234602 -0.06069593 0.32035372
v -0.15229262 -0.05472429 0.32007526
v -0.15223830 -0.06075856 0.32098038
v -0.15146784 -0.05714858 0.31865490
v -0.15080269 -0.06222298 0.32579558
v -0.15059063 -0.05917487 0.31867956
v -0.15024116 -0.05995125 0.31872569
v -0.15006329 -0.06031643 0.31885217
v -0.15001744 -0.06036268 0.31906727
v -0.14985295 -0.06021380 0.32075854
v -0.14983358 -0.06042808 0.32023983
v -0.14900359 -0.06168296 0.32310242
f 83 76 66
f 70 76 83
f 70 9 76
f 1 9 70
f 70 69 1
f 83 66 79
f 79 66 61
f 73 70 83
f 76 62 74
f 69 70 71
f 70 73 71
f 81 73 83
f 81 71 73
f 72 66 76
f 76 74 72
f 82 81 83
f 79 81 82
f 1 2 5
f 5 2 8
f 28 30 31
f 31 25 28
f 58 79 61
f 58 78 79
f 61 66 58
f 67 78 77
f 79 78 67
f 69 71 67
f 1 69 67
f 67 2 1
f 67 81 79
f 71 81 67
f 83 79 80
f 80 82 83
f 79 82 80
f 64 74 62
f 1 5 7
f 30 28 39
f 39 28 8
f 78 58 53
f 77 78 53
f 8 77 53
f 59 58 66
f 54 58 59
f 66 57 59
f 75 77 8
f 8 67 75
f 75 67 77
f 8 2 4
f 4 67 8
f 2 67 4
f 55 64 50
f 50 64 62
f 76 9 50
f 50 62 76
f 74 64 68
f 66 72 68
f 68 72 74
f 1 7 3
f 3 9 1
f 10 7 5
f 10 5 8
f 14 18 9
f 27 25 31
f 27 22 25
f 23 28 25
f 31 30 32
f 30 39 32
f 54 59 51
f 51 59 57
f 29 38 42
f 9 29 42
f 31 32 34
f 34 32 39
f 36 39 40
f 36 34 39
f 31 34 36
f 49 39 8
f 8 53 49
f 49 58 54
f 49 53 58
f 54 51 49
f 63 57 66
f 66 68 63
f 65 68 64
f 65 63 68
f 12 14 7
f 12 10 15
f 7 10 12
f 6 3 7
f 7 14 6
f 9 3 6
f 33 38 29
f 33 27 31
f 27 33 26
f 25 22 21
f 21 23 25
f 21 22 15
f 15 10 19
f 19 21 15
f 23 21 19
f 8 28 19
f 28 23 19
f 47 49 51
f 55 50 46
f 46 42 55
f 46 50 9
f 9 42 46
f 56 64 55
f 11 14 9
f 9 6 11
f 11 6 14
f 18 14 24
f 14 20 24
f 9 18 24
f 24 29 9
f 24 33 29
f 22 27 24
f 27 26 24
f 24 26 33
f 14 12 16
f 16 20 14
f 13 10 8
f 8 19 13
f 13 19 10
f 49 47 44
f 40 44 43
f 43 44 47
f 31 36 35
f 57 63 60
f 60 56 57
f 63 65 60
f 60 65 64
f 64 56 60
f 48 47 51
f 48 43 47
f 48 56 55
f 52 51 57
f 57 56 52
f 52 48 51
f 56 48 52
f 17 24 20
f 17 16 12
f 20 16 17
f 17 12 15
f 15 22 17
f 22 24 17
f 37 36 40
f 40 43 37
f 37 35 36
f 37 42 38
f 38 33 37
f 42 37 41
f 41 37 43
f 43 48 45
f 45 41 43
f 45 48 55
f 55 42 45
f 42 41 45
f 40 39 44
f 39 49 44
f 31 35 37
f 37 33 31

