# https://github.com/mikedh/trimesh

o torso_mounted_shell_right_fore_397.obj
v 0.13287288 -0.03179446 0.29412215
v 0.13287445 -0.03092362 0.29303800
v 0.13287446 -0.03136640 0.29357100
v 0.13287473 -0.03114662 0.29330219
v 0.13348950 -0.02928018 0.29297923
v 0.13471590 -0.02640341 0.29343560
v 0.13471904 -0.02466174 0.29126729
v 0.13471906 -0.02554730 0.29233330
v 0.13471959 -0.02510773 0.29179567
f 9 7 6
f 6 2 1
f 7 2 6
f 1 2 3
f 4 3 2
f 4 7 9
f 4 2 7
f 9 6 8
f 8 6 1
f 1 3 8
f 3 4 5
f 5 4 9
f 5 8 3
f 9 8 5

