# https://github.com/mikedh/trimesh

o torso_mounted_shell_right_aft_094.obj
v -0.15727424 -0.04891540 0.31956360
v -0.15727001 -0.04893602 0.31947088
v -0.15721876 -0.04918728 0.31894560
v -0.15717926 -0.04935704 0.31876329
v -0.15705882 -0.04970174 0.31867315
v -0.15689795 -0.05012463 0.31868832
v -0.15661223 -0.05089416 0.31860483
v -0.15659766 -0.04714345 0.32816407
v -0.15657781 -0.05069356 0.31963958
v -0.15643350 -0.05102703 0.31975406
v -0.15641386 -0.05136803 0.31873288
v -0.15628919 -0.05136050 0.31986853
v -0.15613613 -0.05210328 0.31864464
v -0.15593875 -0.05256843 0.31877232
v -0.15573046 -0.05305662 0.31890568
v -0.15566770 -0.05327544 0.31868078
v -0.15561337 -0.05303817 0.31993183
v -0.15556987 -0.05350253 0.31874433
v -0.15551022 -0.05356978 0.31904378
v -0.15547204 -0.05372961 0.31880788
v -0.15545875 -0.05338603 0.32005275
v -0.15530413 -0.05373388 0.32017367
v -0.15527681 -0.05411024 0.31918538
v -0.15526526 -0.05420709 0.31894057
v -0.15520556 -0.05441630 0.31871299
v -0.15505054 -0.05479066 0.31872374
v -0.15504705 -0.05470803 0.31907913
v -0.15502899 -0.05468035 0.31932925
v -0.15501255 -0.05485710 0.31883962
v -0.15493169 -0.05497115 0.31915086
v -0.15488224 -0.05518611 0.31879017
v -0.15485854 -0.05522642 0.31885032
v -0.15484175 -0.05407388 0.32244986
v -0.15481633 -0.05523427 0.31922258
v -0.15480800 -0.05532186 0.31897141
v -0.15476554 -0.05528244 0.31947414
v -0.15468634 -0.05520245 0.32023597
v -0.15465928 -0.05545787 0.31972015
v -0.15464892 -0.05532189 0.32022224
f 39 33 22
f 1 8 2
f 2 3 1
f 8 3 2
f 12 22 33
f 12 8 1
f 12 33 8
f 6 7 1
f 1 5 6
f 6 5 7
f 1 3 4
f 4 5 1
f 4 3 8
f 7 5 26
f 1 7 9
f 31 4 8
f 5 4 31
f 31 26 5
f 39 38 37
f 37 38 8
f 37 33 39
f 8 33 37
f 22 23 28
f 23 27 28
f 10 12 1
f 1 9 10
f 22 12 21
f 12 17 21
f 21 23 22
f 21 17 23
f 29 31 35
f 35 34 29
f 32 31 8
f 35 31 32
f 8 38 32
f 32 38 35
f 39 22 36
f 22 28 36
f 36 28 34
f 36 38 39
f 35 38 36
f 36 34 35
f 34 28 30
f 30 28 27
f 30 29 34
f 27 29 30
f 25 29 27
f 7 26 25
f 26 31 25
f 31 29 25
f 7 25 13
f 13 25 16
f 19 15 16
f 12 15 19
f 23 17 19
f 19 17 12
f 24 20 25
f 23 19 24
f 24 19 20
f 11 9 7
f 7 13 11
f 11 13 9
f 16 15 14
f 14 13 16
f 9 13 14
f 14 15 12
f 14 10 9
f 12 10 14
f 18 19 16
f 20 19 18
f 16 25 18
f 25 20 18
f 24 25 27
f 24 27 23

