# https://github.com/mikedh/trimesh

o torso_mounted_shell_right_fore_133.obj
v 0.05950266 -0.10238033 0.25234541
v 0.05985841 -0.10152315 0.25137613
v 0.05998989 -0.09958348 0.24880078
v 0.05999091 -0.10011340 0.24948378
v 0.06008173 -0.10017830 0.24963335
v 0.06009270 -0.09607932 0.24859169
v 0.06013634 -0.10031916 0.24986350
v 0.06042692 -0.09572247 0.24837931
v 0.06044632 -0.09634296 0.24916675
v 0.06130105 -0.09762697 0.24718184
v 0.07289235 -0.09565911 0.25407042
f 11 10 8
f 1 4 7
f 7 10 11
f 1 11 9
f 11 8 9
f 10 4 3
f 3 4 1
f 2 11 1
f 1 7 2
f 2 7 11
f 5 4 10
f 10 7 5
f 5 7 4
f 1 9 6
f 6 9 8
f 6 3 1
f 6 8 10
f 10 3 6

