# https://github.com/mikedh/trimesh

o torso_roof_frame_carrier_left_aft_061.obj
v -0.09600000 0.02946667 0.31857499
v -0.09600000 0.03240000 0.31857499
v -0.09444012 0.03435603 0.31857499
v -0.09113077 0.03020893 0.31857499
v -0.09107198 0.03022006 0.31857499
v -0.09101419 0.03023554 0.31857499
v -0.09095773 0.03025530 0.31857499
v -0.09090289 0.03027922 0.31857499
v -0.09085000 0.03030718 0.31857499
v -0.09079934 0.03033901 0.31857499
v -0.09075121 0.03037453 0.31857499
v -0.09070586 0.03041356 0.31857499
v -0.09066356 0.03045586 0.31857499
v -0.09062453 0.03050121 0.31857499
v -0.09058901 0.03054934 0.31857499
v -0.09055718 0.03060000 0.31857499
v -0.09052922 0.03065289 0.31857499
v -0.09050530 0.03070773 0.31857499
v -0.09048554 0.03076420 0.31857499
v -0.08914671 0.03545201 0.31857499
v -0.09600000 0.02946667 0.31862499
v -0.09600000 0.03240000 0.31862499
v -0.09444012 0.03435603 0.31862499
v -0.09113077 0.03020893 0.31862499
v -0.09107198 0.03022006 0.31862499
v -0.09101419 0.03023554 0.31862499
v -0.09095773 0.03025530 0.31862499
v -0.09090289 0.03027922 0.31862499
v -0.09085000 0.03030718 0.31862499
v -0.09079934 0.03033901 0.31862499
v -0.09075121 0.03037453 0.31862499
v -0.09070586 0.03041356 0.31862499
v -0.09066356 0.03045586 0.31862499
v -0.09062453 0.03050121 0.31862499
v -0.09058901 0.03054934 0.31862499
v -0.09055718 0.03060000 0.31862499
v -0.09052922 0.03065289 0.31862499
v -0.09050530 0.03070773 0.31862499
v -0.09048554 0.03076420 0.31862499
v -0.08914671 0.03545201 0.31862499
f 22 2 1
f 1 21 22
f 22 3 2
f 23 3 22
f 20 3 40
f 40 3 23
f 40 19 20
f 39 19 40
f 24 21 1
f 1 4 24
f 16 17 37
f 37 36 16
f 11 3 20
f 1 2 11
f 11 4 1
f 2 3 11
f 8 7 11
f 20 19 11
f 16 15 11
f 11 9 8
f 11 17 16
f 19 18 11
f 11 13 12
f 11 5 4
f 11 18 17
f 10 9 11
f 14 13 11
f 11 15 14
f 6 5 11
f 11 7 6
f 31 30 11
f 11 30 10
f 32 11 12
f 31 11 32
f 38 19 39
f 38 18 19
f 17 18 38
f 38 37 17
f 14 15 35
f 34 14 35
f 16 36 35
f 35 15 16
f 27 7 8
f 27 8 28
f 6 7 27
f 27 26 6
f 25 24 4
f 4 5 25
f 25 5 6
f 6 26 25
f 8 9 29
f 28 8 29
f 29 9 10
f 10 30 29
f 33 22 21
f 23 22 33
f 33 40 23
f 39 40 33
f 21 24 33
f 34 35 33
f 28 29 33
f 33 38 39
f 24 25 33
f 36 37 33
f 33 27 28
f 33 30 31
f 31 32 33
f 37 38 33
f 33 35 36
f 26 27 33
f 33 25 26
f 33 29 30
f 33 13 14
f 33 14 34
f 12 13 33
f 33 32 12

