# https://github.com/mikedh/trimesh

o torso_roof_frame_carrier_left_fore_081.obj
v 0.05258455 0.03548940 0.32757499
v 0.05355988 0.03435603 0.32757499
v 0.05551872 0.03833944 0.32757499
v 0.05885329 0.03545201 0.32757499
v 0.06150000 0.04400000 0.32757499
v 0.05258455 0.03548940 0.32762499
v 0.05355988 0.03435603 0.32762499
v 0.05551872 0.03833944 0.32762499
v 0.05885329 0.03545201 0.32762499
v 0.06150000 0.04400000 0.32762499
f 1 3 4
f 4 2 1
f 4 3 5
f 10 4 5
f 9 4 10
f 1 2 7
f 7 6 1
f 2 4 7
f 7 4 9
f 9 10 8
f 8 7 9
f 6 7 8
f 8 3 1
f 1 6 8
f 5 3 8
f 8 10 5

