# https://github.com/mikedh/trimesh

o torso_mounted_shell_left_aft_337.obj
v -0.10805623 0.09960324 0.26277306
v -0.10791054 0.09937538 0.26212581
v -0.10790964 0.09981294 0.26298529
v -0.10765183 0.09814199 0.25947955
v -0.10762044 0.09847131 0.26002957
v -0.10761645 0.10023234 0.26340975
v -0.10761516 0.10064942 0.26426459
v -0.10695117 0.10182569 0.26593157
v -0.10135418 0.10341229 0.26116492
f 1 4 8
f 8 4 9
f 1 8 7
f 7 8 9
f 9 4 5
f 6 7 9
f 9 5 2
f 2 6 9
f 2 4 1
f 2 5 4
f 3 2 1
f 6 2 3
f 1 7 3
f 7 6 3

