# https://github.com/mikedh/trimesh

o torso_mounted_shell_right_aft_170.obj
v -0.14559634 -0.07460224 0.31742454
v -0.14478855 -0.07634729 0.31526785
v -0.14421443 -0.07643714 0.31925418
v -0.14398686 -0.07688921 0.31883502
v -0.14389908 -0.07710351 0.31845878
v -0.14350175 -0.07379468 0.31498860
v -0.14348261 -0.07774870 0.31830808
v -0.14324986 -0.07804239 0.31846705
v -0.14320517 -0.07807829 0.31859252
v -0.14312607 -0.07816307 0.31870784
v -0.14308680 -0.07818379 0.31886591
v -0.14306939 -0.07467103 0.31374902
v -0.14293141 -0.07935215 0.31275503
v -0.14285311 -0.07878524 0.31747049
v -0.14284301 -0.07891352 0.31683210
v -0.14283804 -0.07871883 0.31792176
v -0.14281183 -0.07870941 0.31814791
v -0.14280257 -0.07902599 0.31649017
v -0.14277132 -0.07872334 0.31834919
v -0.14275620 -0.07932016 0.31507479
v -0.14274941 -0.07913599 0.31625652
v -0.14271331 -0.07876223 0.31854017
v -0.14266834 -0.07879814 0.31865848
v -0.14261465 -0.07884532 0.31877745
v -0.14259446 -0.07919377 0.31710988
v -0.14256040 -0.07546071 0.31368247
v -0.14246632 -0.07935642 0.31715062
v -0.14208031 -0.07984524 0.31727888
v -0.14207999 -0.07982339 0.31740076
v -0.14207990 -0.07986774 0.31715697
v -0.14207938 -0.07980161 0.31752262
v -0.14207807 -0.07989177 0.31703502
v -0.14207787 -0.07978068 0.31764447
v -0.14207464 -0.07976169 0.31776636
v -0.14207415 -0.07991825 0.31691304
v -0.14206883 -0.07974575 0.31788832
v -0.14206743 -0.07994807 0.31679102
v -0.14205960 -0.07973397 0.31801038
v -0.14205722 -0.07998216 0.31666896
v -0.14204612 -0.07972741 0.31813259
v -0.14204274 -0.08002153 0.31654682
v -0.14202761 -0.07972709 0.31825500
v -0.14202318 -0.08006725 0.31642455
v -0.14201047 -0.08009379 0.31636333
v -0.14200332 -0.07973396 0.31837770
v -0.14199775 -0.08012034 0.31630210
v -0.14198791 -0.07974148 0.31843922
v -0.14197249 -0.07974900 0.31850074
v -0.14196564 -0.08018187 0.31617943
v -0.14194585 -0.08021736 0.31611796
v -0.14193436 -0.07977318 0.31862422
v -0.14192606 -0.08025285 0.31605648
v -0.14191529 -0.07538222 0.31994969
v -0.14188817 -0.07980746 0.31874819
v -0.14187824 -0.08033429 0.31593316
v -0.14182140 -0.08042715 0.31580935
v -0.14175478 -0.08053240 0.31568494
v -0.14133545 -0.08115841 0.31512770
v -0.14118143 -0.07939014 0.31881072
v -0.14085557 -0.07915881 0.31877970
v -0.14024600 -0.07879962 0.31356564
v -0.13987924 -0.07846402 0.31868275
v -0.13969539 -0.07932420 0.31522697
v -0.13963550 -0.07959981 0.31397544
f 64 58 13
f 13 2 12
f 12 2 1
f 3 53 1
f 3 54 53
f 1 2 3
f 20 13 58
f 20 2 13
f 64 13 61
f 61 12 64
f 64 12 6
f 1 53 6
f 6 12 1
f 64 6 62
f 62 6 53
f 59 54 58
f 53 54 59
f 13 12 26
f 26 61 13
f 12 61 26
f 58 54 31
f 2 7 5
f 2 20 15
f 15 7 2
f 63 58 64
f 64 62 63
f 63 62 58
f 60 59 58
f 53 59 60
f 57 20 58
f 4 5 7
f 4 3 2
f 2 5 4
f 58 28 30
f 58 31 29
f 29 28 58
f 54 3 11
f 11 24 54
f 3 4 11
f 11 4 7
f 20 57 56
f 56 57 58
f 32 35 58
f 58 30 32
f 32 15 35
f 32 30 15
f 55 52 20
f 20 56 55
f 58 52 55
f 55 56 58
f 20 52 50
f 50 49 20
f 50 52 58
f 58 49 50
f 20 49 46
f 46 49 58
f 20 43 41
f 41 43 58
f 58 39 41
f 35 15 18
f 18 15 20
f 14 29 31
f 28 29 14
f 7 15 14
f 14 8 7
f 16 8 14
f 54 24 51
f 51 48 54
f 24 48 51
f 33 31 54
f 33 14 31
f 11 19 22
f 54 40 38
f 38 36 54
f 40 22 38
f 38 22 19
f 16 36 17
f 17 8 16
f 36 38 17
f 17 38 19
f 9 11 7
f 7 8 9
f 8 17 9
f 44 43 20
f 20 46 44
f 58 43 44
f 44 46 58
f 35 18 37
f 58 35 37
f 37 39 58
f 21 41 39
f 39 37 21
f 21 37 18
f 20 41 21
f 21 18 20
f 25 14 15
f 15 30 25
f 28 14 27
f 27 30 28
f 14 25 27
f 27 25 30
f 24 40 42
f 42 45 24
f 42 40 54
f 54 45 42
f 47 48 24
f 24 45 47
f 54 48 47
f 47 45 54
f 54 36 34
f 34 33 54
f 34 36 16
f 16 14 34
f 14 33 34
f 23 40 24
f 23 22 40
f 24 11 23
f 11 22 23
f 10 17 19
f 10 9 17
f 10 19 11
f 11 9 10
f 58 62 60
f 60 62 53

