# https://github.com/mikedh/trimesh

o torso_roof_m3x8_right_aft_000.obj
v -0.09623032 -0.08142095 0.36988307
v -0.09618771 -0.08150806 0.36982668
v -0.09613793 -0.08159396 0.36977446
v -0.09608125 -0.08167816 0.36972670
v -0.09601799 -0.08176019 0.36968367
v -0.09594850 -0.08183959 0.36964559
v -0.09587317 -0.08191592 0.36961272
v -0.09579242 -0.08198876 0.36958519
v -0.09570670 -0.08205769 0.36956319
v -0.09541888 -0.07971113 0.36800297
v -0.09538122 -0.07979873 0.36794401
v -0.09522527 -0.08005424 0.36779209
v -0.09499557 -0.07890014 0.36703279
v -0.09497797 -0.07894407 0.36700267
v -0.09495667 -0.07898762 0.36697448
v -0.09493537 -0.07903118 0.36694629
v -0.09488559 -0.07911707 0.36689406
v -0.09484174 -0.08042798 0.36763747
v -0.09482891 -0.07920127 0.36684630
v -0.09476565 -0.07928330 0.36680327
v -0.09473090 -0.07932300 0.36678423
v -0.09469616 -0.07936271 0.36676520
v -0.09462083 -0.07943904 0.36673232
v -0.09458045 -0.07947546 0.36671855
v -0.09454008 -0.07951187 0.36670479
v -0.09449722 -0.07954633 0.36669379
v -0.09445436 -0.07958080 0.36668279
f 1 9 10
f 18 9 27
f 18 10 9
f 27 13 18
f 13 10 18
f 1 11 2
f 11 15 2
f 20 21 6
f 21 15 26
f 26 13 27
f 26 15 13
f 13 15 14
f 14 15 11
f 14 11 1
f 1 10 14
f 14 10 13
f 17 15 21
f 16 2 15
f 15 17 16
f 16 17 2
f 20 6 5
f 5 12 20
f 4 12 5
f 5 9 1
f 21 23 22
f 22 6 21
f 23 6 22
f 9 5 8
f 27 9 8
f 25 23 21
f 21 26 25
f 25 26 27
f 27 8 25
f 19 21 20
f 19 17 21
f 20 12 19
f 19 12 4
f 2 17 3
f 1 2 3
f 3 19 4
f 17 19 3
f 3 5 1
f 4 5 3
f 7 6 23
f 7 5 6
f 7 8 5
f 23 25 24
f 24 25 8
f 24 7 23
f 8 7 24

