# https://github.com/mikedh/trimesh

o torso_mounted_shell_right_aft_370.obj
v -0.10432311 -0.07767328 0.37107672
v -0.10415518 -0.08393702 0.36538887
v -0.10045693 -0.07968305 0.37105008
v -0.10044630 -0.08127165 0.36966257
v -0.10001695 -0.08133146 0.36980759
v -0.10000864 -0.08008837 0.37089828
v -0.09987502 -0.08134235 0.36986331
v -0.09987137 -0.08136902 0.36984112
v -0.09986089 -0.08023126 0.37084016
v -0.09982121 -0.08160884 0.36964745
v -0.09960517 -0.08122397 0.37009115
f 3 2 1
f 1 2 4
f 1 11 9
f 11 2 9
f 10 2 11
f 10 4 2
f 6 3 1
f 1 9 6
f 2 3 6
f 6 9 2
f 8 10 11
f 4 10 8
f 1 4 5
f 4 8 5
f 1 5 7
f 7 5 8
f 7 11 1
f 7 8 11

