# https://github.com/mikedh/trimesh

o torso_compute_mount_chassis_plate_047.obj
v -0.07811957 0.03559553 0.31559999
v -0.07811957 0.03559553 0.31859999
v -0.07651060 0.03458455 0.31559999
v -0.07651060 0.03458455 0.31859999
v -0.06470652 0.03706518 0.31559999
v -0.06470652 0.03706518 0.31859999
v -0.06462681 0.03706518 0.31559999
v -0.06462681 0.03706518 0.31859999
v -0.06454732 0.03705922 0.31559999
v -0.06454732 0.03705922 0.31859999
v -0.06446850 0.03704734 0.31559999
v -0.06446850 0.03704734 0.31859999
v -0.06439079 0.03702960 0.31559999
v -0.06439079 0.03702960 0.31859999
v -0.06431461 0.03700610 0.31559999
v -0.06431461 0.03700610 0.31859999
v -0.06424041 0.03697698 0.31559999
v -0.06424041 0.03697698 0.31859999
v -0.06416859 0.03694240 0.31559999
v -0.06416859 0.03694240 0.31859999
v -0.06409956 0.03690254 0.31559999
v -0.06409956 0.03690254 0.31859999
v -0.06403370 0.03685764 0.31559999
v -0.06403370 0.03685764 0.31859999
v -0.06397138 0.03680794 0.31559999
v -0.06397138 0.03680794 0.31859999
v -0.06391295 0.03675372 0.31559999
v -0.06391295 0.03675372 0.31859999
v -0.06385873 0.03669529 0.31559999
v -0.06385873 0.03669529 0.31859999
v -0.06380903 0.03663297 0.31559999
v -0.06380903 0.03663297 0.31859999
v -0.06376412 0.03656710 0.31559999
v -0.06376412 0.03656710 0.31859999
v -0.06372427 0.03649807 0.31559999
v -0.06372427 0.03649807 0.31859999
v -0.06368968 0.03642625 0.31559999
v -0.06368968 0.03642625 0.31859999
f 4 2 1
f 1 3 4
f 37 38 4
f 4 3 37
f 1 2 6
f 6 5 1
f 33 31 34
f 34 31 32
f 10 11 9
f 12 11 10
f 28 27 25
f 28 25 26
f 22 24 23
f 21 22 23
f 23 24 26
f 26 25 23
f 36 38 37
f 37 35 36
f 36 35 33
f 33 34 36
f 17 15 16
f 18 17 16
f 37 3 19
f 19 3 1
f 1 5 19
f 19 35 37
f 5 7 19
f 19 11 13
f 19 27 29
f 13 15 19
f 33 35 19
f 19 7 9
f 21 23 19
f 29 31 19
f 25 27 19
f 19 31 33
f 19 15 17
f 9 11 19
f 19 23 25
f 19 20 22
f 19 22 21
f 18 20 19
f 19 17 18
f 5 6 8
f 8 7 5
f 9 7 8
f 8 10 9
f 30 31 29
f 32 31 30
f 29 27 30
f 27 28 30
f 14 4 38
f 2 4 14
f 14 6 2
f 14 24 22
f 22 20 14
f 14 34 32
f 18 16 14
f 38 36 14
f 26 24 14
f 14 28 26
f 14 20 18
f 12 10 14
f 14 8 6
f 14 36 34
f 32 30 14
f 10 8 14
f 14 30 28
f 13 11 14
f 14 11 12
f 14 15 13
f 14 16 15

