# https://github.com/mikedh/trimesh

o torso_roof_frame_carrier_left_fore_074.obj
v 0.04970072 0.06455549 0.38011447
v 0.04991712 0.06448063 0.38012076
v 0.04991957 0.06532707 0.37861727
v 0.04992796 0.06507979 0.37827265
v 0.04998376 0.06505841 0.37827553
v 0.05006536 0.06574721 0.37932230
v 0.05009666 0.06501920 0.37827892
v 0.05013787 0.06441955 0.38011788
v 0.05015377 0.06500137 0.37827941
v 0.05021186 0.06498719 0.37827750
v 0.05032869 0.06496254 0.37827129
v 0.05036174 0.06437258 0.38010584
v 0.05038744 0.06495208 0.37826700
v 0.05044652 0.06494540 0.37826033
v 0.05050559 0.06493872 0.37825367
v 0.05056467 0.06493587 0.37824468
v 0.05057903 0.06559469 0.37932192
v 0.05058749 0.06433998 0.38008469
v 0.05062375 0.06493301 0.37823569
v 0.05081384 0.06432194 0.38005457
v 0.05158513 0.06539130 0.37827563
v 0.05158785 0.06574690 0.37904598
v 0.05203500 0.06611334 0.37874153
v 0.05315066 0.06597414 0.37862371
v 0.05337430 0.06445655 0.37950756
v 0.05365765 0.06584591 0.37860974
v 0.05419864 0.06425412 0.37948115
v 0.05426151 0.06507116 0.37897202
f 27 19 28
f 26 22 28
f 19 27 20
f 12 20 27
f 25 27 28
f 28 22 25
f 25 12 27
f 22 12 25
f 6 22 23
f 1 12 6
f 20 12 18
f 19 4 21
f 28 19 21
f 21 26 28
f 21 4 23
f 23 4 3
f 3 6 23
f 3 4 1
f 1 6 3
f 17 12 22
f 22 6 17
f 17 6 12
f 24 21 23
f 26 21 24
f 23 22 24
f 22 26 24
f 7 2 1
f 9 2 7
f 13 18 12
f 5 4 19
f 9 7 5
f 1 4 5
f 5 7 1
f 8 2 9
f 8 12 1
f 1 2 8
f 18 13 14
f 11 14 13
f 11 13 12
f 12 8 11
f 9 5 11
f 10 8 9
f 9 11 10
f 10 11 8
f 15 11 5
f 14 11 15
f 20 18 15
f 18 14 15
f 16 5 19
f 16 15 5
f 19 20 16
f 20 15 16

