# https://github.com/mikedh/trimesh

o torso_mounted_shell_left_fore_533.obj
v 0.14380663 0.00012000 0.30287920
v 0.14432330 0.00018572 0.30185184
v 0.14437167 0.00028429 0.30200824
v 0.14437167 0.00035001 0.30200930
v 0.14437167 0.00041571 0.30201071
v 0.14437167 0.00071339 0.30202065
v 0.14437167 0.00100865 0.30203889
v 0.14437167 0.00133656 0.30206179
v 0.14437167 0.00146751 0.30207446
v 0.14437167 0.00169850 0.30209930
v 0.14437167 0.00182920 0.30211478
v 0.14437167 0.00215498 0.30216225
v 0.14437167 0.00277365 0.30227000
v 0.14437167 0.00316130 0.30234992
v 0.14437167 0.00335423 0.30239508
v 0.14437167 0.00348244 0.30242724
v 0.14437167 0.00377212 0.30250351
v 0.14437167 0.00427867 0.30265950
v 0.14437167 0.00524811 0.30301142
v 0.14437167 0.00631545 0.30348981
v 0.14452374 0.00012000 0.30672190
v 0.14522620 0.00012000 0.30494690
v 0.14529875 0.00021858 0.30518085
v 0.14529875 0.00026786 0.30518151
v 0.14529875 0.00031715 0.30518244
v 0.14529875 0.00036642 0.30518363
v 0.14529875 0.00041570 0.30518508
v 0.14529875 0.00046496 0.30518680
v 0.14529875 0.00061587 0.30519219
v 0.14529875 0.00066512 0.30519417
v 0.14529875 0.00105875 0.30521955
v 0.14529875 0.00115700 0.30522852
v 0.14529875 0.00125516 0.30523856
v 0.14529875 0.00140542 0.30525470
v 0.14529875 0.00150349 0.30526578
v 0.14529875 0.00160146 0.30527793
v 0.14529875 0.00199216 0.30533698
v 0.14529875 0.00214112 0.30536379
v 0.14529875 0.00252948 0.30543955
v 0.14529875 0.00272260 0.30548368
v 0.14529875 0.00281886 0.30550728
v 0.14529875 0.00306193 0.30556931
v 0.14529875 0.00325338 0.30562168
v 0.14529875 0.00382176 0.30580330
v 0.14529875 0.00396621 0.30585109
v 0.14529875 0.00470754 0.30614955
v 0.14529875 0.00484879 0.30620754
v 0.14529875 0.00556721 0.30656867
v 0.14808000 0.00012000 0.31470000
v 0.14808000 0.00042181 0.31471077
v 0.14808000 0.00072232 0.31474306
v 0.14808000 0.00102024 0.31479668
v 0.14808000 0.00131427 0.31487145
v 0.14808000 0.00160316 0.31496703
v 0.14808000 0.00188566 0.31508300
f 21 20 1
f 1 2 22
f 55 21 49
f 1 20 19
f 20 21 48
f 21 55 48
f 18 17 1
f 1 19 18
f 47 19 20
f 20 48 47
f 47 48 55
f 13 2 1
f 1 14 13
f 1 17 16
f 45 18 19
f 15 14 1
f 1 16 15
f 15 40 14
f 19 47 46
f 46 45 19
f 2 13 12
f 14 40 39
f 40 52 39
f 39 13 14
f 41 15 16
f 41 53 52
f 40 15 41
f 41 52 40
f 2 12 11
f 37 12 13
f 45 46 54
f 18 45 44
f 17 18 43
f 43 44 53
f 18 44 43
f 42 16 17
f 17 43 42
f 42 43 53
f 42 41 16
f 53 41 42
f 10 9 2
f 2 11 10
f 38 37 13
f 13 39 38
f 38 39 52
f 50 31 32
f 30 31 50
f 50 29 30
f 30 29 6
f 2 3 23
f 49 22 23
f 23 22 2
f 2 6 5
f 6 27 5
f 35 10 11
f 36 11 12
f 37 51 36
f 12 37 36
f 36 35 11
f 51 35 36
f 9 10 34
f 10 35 34
f 34 35 51
f 9 32 8
f 8 32 31
f 2 9 8
f 7 30 6
f 31 30 7
f 7 8 31
f 7 6 2
f 2 8 7
f 6 29 28
f 28 27 6
f 49 27 28
f 4 3 2
f 2 5 4
f 26 27 49
f 26 5 27
f 9 34 33
f 33 32 9
f 50 32 33
f 3 4 24
f 49 23 24
f 24 23 3
f 25 4 5
f 25 26 49
f 5 26 25
f 49 24 25
f 25 24 4
f 49 21 22
f 22 21 1
f 54 47 55
f 54 46 47
f 44 54 53
f 45 54 44
f 49 50 51
f 51 55 49
f 51 54 55
f 52 53 51
f 53 54 51
f 37 38 51
f 51 38 52
f 28 50 49
f 28 29 50
f 33 51 50
f 33 34 51

