# https://github.com/mikedh/trimesh

o torso_mounted_shell_right_fore_257.obj
v 0.08475228 -0.02574240 0.21926621
v 0.08582239 -0.03128301 0.22182241
v 0.08582239 -0.03052296 0.22156594
v 0.08582239 -0.02975828 0.22132035
v 0.08617909 -0.03562664 0.22360820
v 0.08689250 -0.03833405 0.22491320
v 0.08689250 -0.03682361 0.22437862
v 0.08689250 -0.03606475 0.22411943
v 0.08689250 -0.03530352 0.22386566
v 0.08689250 -0.03068930 0.22245789
v 0.08689600 -0.03395518 0.22343803
f 1 6 5
f 1 5 10
f 10 6 11
f 10 5 6
f 11 8 9
f 2 6 1
f 1 8 2
f 11 6 7
f 7 8 11
f 6 2 7
f 7 2 8
f 11 9 4
f 1 10 4
f 4 10 11
f 1 4 3
f 3 4 9
f 3 8 1
f 3 9 8

