# https://github.com/mikedh/trimesh

o torso_mounted_shell_left_aft_327.obj
v -0.11111397 0.10982197 0.29648474
v -0.11110110 0.10984369 0.29657843
v -0.11107578 0.10984350 0.29651563
v -0.11097477 0.10989365 0.29635322
v -0.11095019 0.10997503 0.29695059
v -0.11078614 0.11007641 0.29698113
v -0.11072478 0.11003262 0.29617362
v -0.11041421 0.11029235 0.29664830
v -0.11009606 0.11046184 0.29632635
v -0.10994907 0.11046448 0.29564669
v -0.10984442 0.11052118 0.29560617
v -0.10970792 0.11066293 0.29542337
v -0.10966928 0.11064574 0.29578577
v -0.10945881 0.11080344 0.29604116
f 14 6 3
f 5 3 6
f 8 6 14
f 8 5 6
f 12 5 8
f 14 3 13
f 13 3 11
f 13 12 14
f 13 11 12
f 1 3 2
f 3 5 2
f 2 12 1
f 2 5 12
f 14 12 9
f 9 8 14
f 12 8 9
f 12 11 10
f 10 7 12
f 11 7 10
f 11 3 4
f 4 7 11
f 4 3 1
f 12 7 4
f 1 12 4

