# https://github.com/mikedh/trimesh

o torso_mounted_shell_left_fore_143.obj
v 0.06459838 0.08612961 0.24040567
v 0.06463850 0.08909821 0.23963269
v 0.06464249 0.08995352 0.24053636
v 0.06464249 0.09007598 0.24066712
v 0.06464249 0.08946116 0.24001516
v 0.06464249 0.08958463 0.24014519
v 0.06464249 0.08970785 0.24027541
v 0.06464249 0.08983081 0.24040580
v 0.06464250 0.08933743 0.23988530
v 0.06511538 0.08506624 0.23967327
v 0.06541941 0.08743416 0.23850605
v 0.06550101 0.08592439 0.24083877
v 0.06570917 0.08446817 0.23959175
v 0.06624801 0.08614989 0.23776876
v 0.06624979 0.08655553 0.23816930
v 0.06625282 0.08628278 0.23790120
v 0.06625319 0.08641813 0.23803476
v 0.06677319 0.08644252 0.23842644
v 0.06814669 0.09402894 0.24714415
v 0.06934316 0.08427703 0.23846793
v 0.07041286 0.08516333 0.23998073
f 1 19 4
f 12 19 1
f 21 19 12
f 20 14 21
f 18 19 21
f 21 14 18
f 21 12 13
f 13 20 21
f 13 12 1
f 14 20 13
f 1 4 2
f 2 11 1
f 14 11 2
f 10 13 1
f 14 13 10
f 1 11 10
f 10 11 14
f 19 18 15
f 15 2 19
f 19 2 9
f 14 2 16
f 16 18 14
f 2 6 5
f 5 9 2
f 5 6 19
f 19 9 5
f 3 2 4
f 3 8 2
f 3 4 19
f 19 8 3
f 7 6 2
f 2 8 7
f 19 6 7
f 7 8 19
f 2 15 17
f 17 16 2
f 17 15 18
f 18 16 17

