# https://github.com/mikedh/trimesh

o torso_compute_mount_chassis_plate_089.obj
v -0.04676205 -0.06231762 0.31859999
v -0.04647997 -0.06258120 0.31559999
v -0.04642500 -0.06499970 0.31559999
v -0.04642500 -0.06499970 0.31859999
v -0.04611667 -0.06115017 0.31559999
v -0.04573256 -0.06010674 0.31559999
v -0.04565646 -0.05982015 0.31859999
v -0.04520151 -0.05966538 0.31559999
v -0.04520151 -0.05966538 0.31859999
v -0.04515191 -0.05965600 0.31559999
v -0.04515191 -0.05965600 0.31859999
v -0.04510175 -0.05965035 0.31559999
v -0.04510175 -0.05965035 0.31859999
v -0.04285000 -0.06500000 0.31559999
v -0.04285000 -0.06500000 0.31859999
v -0.04015000 -0.06500000 0.31559999
v -0.04015000 -0.06500000 0.31859999
v -0.03925740 -0.06201162 0.31559999
v -0.03925740 -0.06201162 0.31859999
v -0.03913441 -0.06248761 0.31559999
v -0.03913441 -0.06248761 0.31859999
v -0.03900558 -0.06304833 0.31559999
v -0.03900558 -0.06304833 0.31859999
v -0.03897905 -0.06357834 0.31559999
v -0.03897905 -0.06357834 0.31859999
f 2 3 1
f 1 3 4
f 1 7 6
f 8 6 7
f 7 9 8
f 5 2 1
f 1 6 5
f 12 13 18
f 18 13 19
f 25 16 24
f 17 16 25
f 24 22 23
f 23 25 24
f 14 16 15
f 15 16 17
f 15 3 14
f 15 4 3
f 19 13 21
f 13 11 21
f 21 7 1
f 21 15 17
f 17 25 21
f 1 4 21
f 21 9 7
f 25 23 21
f 4 15 21
f 21 11 9
f 21 18 19
f 21 20 18
f 22 20 21
f 21 23 22
f 10 22 24
f 24 16 10
f 14 3 10
f 12 18 10
f 3 2 10
f 18 20 10
f 10 16 14
f 2 5 10
f 10 20 22
f 6 8 10
f 10 5 6
f 10 13 12
f 10 11 13
f 9 11 10
f 10 8 9

