# https://github.com/mikedh/trimesh

o torso_mounted_shell_right_aft_209.obj
v -0.13537192 -0.08299045 0.32299248
v -0.13533760 -0.08285249 0.32346749
v -0.13533062 -0.08283818 0.32355721
v -0.13529447 -0.08295144 0.32346044
v -0.13527068 -0.08292261 0.32356112
v -0.13456155 -0.08429421 0.32168463
v -0.13438887 -0.08447806 0.32180072
v -0.13392762 -0.08497050 0.32192512
v -0.13378980 -0.08511769 0.32193890
v -0.13358021 -0.08483852 0.32371585
v -0.13355624 -0.08487106 0.32373862
v -0.13344523 -0.08535353 0.32253416
v -0.13343772 -0.08503661 0.32377459
v -0.13325571 -0.08521278 0.32367059
f 14 13 12
f 2 6 1
f 14 6 2
f 1 6 7
f 1 7 4
f 4 7 13
f 14 2 3
f 3 2 1
f 1 4 3
f 9 6 14
f 14 12 9
f 8 12 13
f 13 7 8
f 8 9 12
f 8 7 6
f 6 9 8
f 11 13 14
f 11 3 13
f 5 4 13
f 13 3 5
f 5 3 4
f 14 3 10
f 10 11 14
f 3 11 10

