# https://github.com/mikedh/trimesh

o torso_compute_mount_chassis_plate_186.obj
v -0.02136418 0.09127010 0.31559999
v -0.02136418 0.09127010 0.31859999
v -0.02134435 0.09133437 0.31559999
v -0.02134435 0.09133437 0.31859999
v -0.02131978 0.09139698 0.31559999
v -0.02131978 0.09139698 0.31859999
v -0.02129060 0.09145757 0.31559999
v -0.02129060 0.09145757 0.31859999
v -0.02076670 0.08626614 0.31559999
v -0.02076670 0.08626614 0.31859999
v -0.02034017 0.08283453 0.31559999
v -0.02034017 0.08283453 0.31859999
v -0.01631294 0.08290812 0.31559999
v -0.01502789 0.09158025 0.31559999
v -0.01502789 0.09158025 0.31859999
v -0.01497938 0.08273197 0.31859999
v -0.01441347 0.08500461 0.31559999
v -0.01425366 0.08495195 0.31859999
v -0.01417354 0.09120636 0.31559999
v -0.01417354 0.09120636 0.31859999
v -0.01337310 0.09069422 0.31559999
v -0.01337310 0.09069422 0.31859999
f 12 11 16
f 16 11 13
f 13 17 16
f 18 17 21
f 21 22 18
f 16 17 18
f 1 9 10
f 10 2 1
f 10 9 11
f 11 12 10
f 14 7 8
f 8 15 14
f 21 19 20
f 20 22 21
f 20 19 14
f 14 15 20
f 3 9 1
f 21 17 3
f 3 13 11
f 3 19 21
f 11 9 3
f 3 7 14
f 14 19 3
f 17 13 3
f 3 5 7
f 7 5 6
f 6 8 7
f 4 12 16
f 2 10 4
f 16 18 4
f 22 20 4
f 4 18 22
f 4 10 12
f 15 8 4
f 4 20 15
f 8 6 4
f 1 2 4
f 4 3 1
f 5 3 4
f 4 6 5

