# https://github.com/mikedh/trimesh

o torso_mounted_shell_right_aft_026.obj
v -0.17008000 -0.00411460 0.31322070
v -0.17008000 -0.00426157 0.31352428
v -0.17008000 -0.00421471 0.31342196
v -0.17008000 -0.00416571 0.31332073
v -0.17008000 -0.00406140 0.31312198
v -0.17008000 -0.00400614 0.31302464
v -0.17008000 -0.00394884 0.31292874
v -0.17008000 -0.00388954 0.31283431
v -0.17008000 -0.00363295 0.31247208
v -0.17008000 -0.00356413 0.31238561
v -0.17008000 -0.00438910 0.31383714
v -0.17008000 -0.00430627 0.31362760
v -0.17008000 -0.00452764 0.31427072
v -0.17008000 -0.00449647 0.31416030
v -0.17008000 -0.00446297 0.31405124
v -0.17008000 -0.00442717 0.31394356
v -0.17008000 -0.00434879 0.31373186
v -0.17008000 -0.00382827 0.31274139
v -0.17008000 -0.00376506 0.31265002
v -0.17008000 -0.00369994 0.31256023
v -0.16974667 -0.00436184 0.31104089
v -0.16974667 -0.00446505 0.31113629
v -0.16974667 -0.00425641 0.31094780
v -0.16974667 -0.00414882 0.31085709
v -0.16974667 -0.00456599 0.31123397
v -0.16974667 -0.00466461 0.31133388
v -0.16958000 -0.00466589 0.31033329
v -0.16958000 -0.00454165 0.31023756
v -0.16958000 -0.00441510 0.31014452
v -0.16957972 -0.00698224 0.31386982
v -0.16941367 -0.00783600 0.31391390
v -0.16941333 -0.00472885 0.30949456
v -0.16908205 -0.00948388 0.31378069
v -0.16908101 -0.00945582 0.31360291
v -0.16908019 -0.00900384 0.31216809
v -0.16908015 -0.00907796 0.31234405
v -0.16908015 -0.00892560 0.31199411
v -0.16908007 -0.00884302 0.31182194
v -0.16908001 -0.00801842 0.31050917
v -0.16908001 -0.00807753 0.31058754
v -0.16908001 -0.00813664 0.31066591
v -0.16908001 -0.00789611 0.31035482
v -0.16908001 -0.00776975 0.31020294
v -0.16908000 -0.00770457 0.31012826
v -0.16908000 -0.00662058 0.30908508
v -0.16908000 -0.00669877 0.30914986
v -0.16908000 -0.00677696 0.30921465
v -0.16908000 -0.00646081 0.30895862
v -0.16908000 -0.00629772 0.30883533
v -0.16908000 -0.00914822 0.31252213
v -0.16908000 -0.00692987 0.30934728
v -0.16908000 -0.00763940 0.31005358
v -0.16908000 -0.00875586 0.31165145
v -0.16908000 -0.00613140 0.30871530
v -0.16908000 -0.00825072 0.31082500
v -0.16908000 -0.00942266 0.31342569
v -0.16908000 -0.00561392 0.30837527
v -0.16908000 -0.00596193 0.30859857
v -0.16908000 -0.00570167 0.30843024
v -0.16908000 -0.00578941 0.30848521
v -0.16908000 -0.00707921 0.30948288
v -0.16908000 -0.00757224 0.30998020
v -0.16908000 -0.00715206 0.30955214
v -0.16908000 -0.00722491 0.30962140
v -0.16908000 -0.00750509 0.30990683
v -0.16908000 -0.00729591 0.30969207
v -0.16908000 -0.00743599 0.30983478
v -0.16908000 -0.00736690 0.30976274
v -0.16907998 -0.00836061 0.31098635
v -0.16907996 -0.00846620 0.31114982
v -0.16907996 -0.00866395 0.31148252
v -0.16907996 -0.00851678 0.31123254
v -0.16907995 -0.00856736 0.31131526
v -0.16907973 -0.00921461 0.31270230
v -0.16907945 -0.00927631 0.31288375
v -0.16907944 -0.00938139 0.31324644
v -0.16907937 -0.00935682 0.31315595
v -0.16907931 -0.00933225 0.31306546
v -0.16874905 -0.01098845 0.31335795
v -0.16874768 -0.01095465 0.31315821
v -0.16874690 -0.01041491 0.31154635
v -0.16874688 -0.01050242 0.31174348
v -0.16874684 -0.01032259 0.31135138
v -0.16874672 -0.01058540 0.31194295
v -0.16874667 -0.00761900 0.30809655
v -0.16874667 -0.00780181 0.30824117
v -0.16874667 -0.00798061 0.30838923
v -0.16874667 -0.00815530 0.30854067
v -0.16874648 -0.01091391 0.31295825
v -0.16874640 -0.01066395 0.31214476
v -0.16874603 -0.01073733 0.31234828
v -0.16874588 -0.01086360 0.31275614
v -0.16874579 -0.01080431 0.31255244
v -0.16858007 -0.01091623 0.31082662
v -0.16858002 -0.00987398 0.30927753
v -0.16858002 -0.01002294 0.30946226
v -0.16858001 -0.00971997 0.30909569
v -0.16858001 -0.01016678 0.30964979
v -0.16858001 -0.00956096 0.30891680
v -0.16858000 -0.00939699 0.30874094
v -0.16858000 -0.00876802 0.30813737
v -0.16858000 -0.00887623 0.30823242
v -0.16858000 -0.00922815 0.30856819
v -0.16858000 -0.00905453 0.30839865
v -0.16857998 -0.01030545 0.30984004
v -0.16857998 -0.01080559 0.31062516
v -0.16857995 -0.01043883 0.31003288
v -0.16857994 -0.01068907 0.31042562
v -0.16857993 -0.01056676 0.31022813
v -0.16841335 -0.01063258 0.30904159
v -0.16841335 -0.01047272 0.30884783
v -0.16841335 -0.01030749 0.30865713
v -0.16841334 -0.01078701 0.30923831
v -0.16841334 -0.01013694 0.30846955
v -0.16841333 -0.00996113 0.30828517
v -0.16841333 -0.00978015 0.30810410
v -0.16841332 -0.01093595 0.30943792
v -0.16841329 -0.01107928 0.30964028
v -0.16773962 -0.00344246 0.31312199
v -0.16773506 -0.00400657 0.31430618
v -0.16707103 -0.00443936 0.30994809
v -0.16673224 -0.00532116 0.30880410
v -0.16671952 -0.00904156 0.31385345
v -0.16639645 -0.00666173 0.30804159
v -0.16638489 -0.01053733 0.31335866
v -0.16621645 -0.01095147 0.31197827
v -0.16605085 -0.01110513 0.31052854
v -0.16572178 -0.01074358 0.30770033
v -0.16572119 -0.01093779 0.30789159
v -0.16572063 -0.01112630 0.30808634
v -0.16572008 -0.01130903 0.30828449
f 1 13 10
f 10 120 119
f 10 13 120
f 131 125 126
f 126 125 79
f 57 122 124
f 124 122 125
f 119 120 121
f 120 122 121
f 121 10 119
f 131 79 118
f 79 125 123
f 123 33 79
f 125 122 123
f 123 122 120
f 120 13 123
f 13 33 123
f 79 33 34
f 127 79 131
f 131 126 127
f 127 126 79
f 128 125 131
f 128 124 125
f 10 121 29
f 32 122 57
f 32 121 122
f 32 29 121
f 31 33 13
f 31 34 33
f 13 30 31
f 56 34 31
f 31 30 56
f 129 128 131
f 116 129 115
f 128 129 116
f 57 124 85
f 124 128 85
f 128 116 85
f 94 118 79
f 59 32 57
f 57 85 59
f 29 32 58
f 58 54 29
f 85 54 58
f 131 111 112
f 112 114 131
f 115 129 130
f 130 114 115
f 130 129 131
f 131 114 130
f 131 118 117
f 117 113 131
f 110 111 131
f 131 113 110
f 56 30 76
f 76 30 13
f 10 43 42
f 14 78 13
f 101 85 116
f 47 87 101
f 101 88 47
f 29 54 49
f 49 54 85
f 85 48 49
f 10 29 24
f 24 23 10
f 47 23 24
f 32 59 60
f 60 58 32
f 60 59 85
f 85 58 60
f 97 112 111
f 105 117 118
f 113 117 98
f 96 110 113
f 39 42 96
f 12 36 17
f 78 92 77
f 77 92 76
f 13 78 77
f 77 76 13
f 56 76 89
f 76 92 89
f 89 92 94
f 111 110 95
f 95 42 43
f 51 23 47
f 47 88 51
f 115 114 100
f 114 65 100
f 114 112 99
f 99 65 114
f 102 101 116
f 116 104 102
f 88 101 102
f 102 104 61
f 102 51 88
f 61 51 102
f 86 101 87
f 85 101 86
f 87 45 86
f 86 48 85
f 86 45 48
f 28 24 29
f 29 49 28
f 28 49 48
f 47 24 46
f 46 24 45
f 46 87 47
f 46 45 87
f 55 18 19
f 55 105 118
f 17 36 50
f 50 36 84
f 78 14 75
f 74 91 75
f 35 12 2
f 36 12 35
f 1 38 4
f 84 94 90
f 94 91 90
f 90 50 84
f 90 91 74
f 74 50 90
f 94 92 93
f 93 91 94
f 93 75 91
f 93 92 78
f 78 75 93
f 56 89 80
f 79 34 80
f 80 34 56
f 80 94 79
f 80 89 94
f 118 108 109
f 109 108 70
f 8 70 7
f 1 6 5
f 39 20 9
f 10 42 9
f 9 42 39
f 23 51 21
f 10 23 21
f 21 22 10
f 61 22 21
f 21 51 61
f 103 116 115
f 67 68 100
f 67 100 65
f 61 104 63
f 63 22 61
f 68 67 26
f 26 65 10
f 26 67 65
f 27 28 48
f 24 28 27
f 48 45 27
f 45 24 27
f 105 55 41
f 19 20 41
f 41 55 19
f 117 105 41
f 41 98 117
f 18 55 69
f 8 18 69
f 69 70 8
f 69 109 70
f 17 50 11
f 11 74 16
f 11 50 74
f 15 75 14
f 16 74 15
f 74 75 15
f 37 35 2
f 84 36 82
f 36 35 82
f 82 94 84
f 53 38 1
f 1 5 53
f 94 38 53
f 44 97 43
f 44 52 97
f 44 43 10
f 10 52 44
f 99 52 62
f 65 99 62
f 10 65 62
f 62 52 10
f 68 26 25
f 10 22 25
f 25 26 10
f 64 63 104
f 22 63 64
f 64 25 22
f 64 104 116
f 116 103 64
f 39 98 40
f 98 41 40
f 40 20 39
f 40 41 20
f 107 55 118
f 107 69 55
f 118 109 107
f 109 69 107
f 3 4 38
f 38 37 3
f 3 37 2
f 1 4 3
f 83 38 94
f 83 37 38
f 35 37 81
f 81 82 35
f 37 83 81
f 94 82 81
f 81 83 94
f 118 94 106
f 106 108 118
f 72 7 70
f 70 108 72
f 71 5 6
f 71 53 5
f 94 53 71
f 71 106 94
f 66 103 68
f 66 64 103
f 68 25 66
f 25 64 66
f 73 71 6
f 6 7 73
f 7 72 73
f 73 72 108
f 108 106 73
f 106 71 73
f 113 98 96
f 96 98 39
f 95 96 42
f 110 96 95
f 43 97 95
f 95 97 111
f 9 7 6
f 1 10 9
f 9 6 1
f 8 7 9
f 19 18 9
f 9 18 8
f 9 20 19
f 52 99 112
f 112 97 52
f 100 68 103
f 115 100 103
f 11 16 2
f 2 12 11
f 11 12 17
f 16 15 3
f 3 13 1
f 2 16 3
f 3 14 13
f 3 15 14

