# https://github.com/mikedh/trimesh

o torso_mounted_shell_left_fore_073.obj
v 0.04982828 0.06032681 0.38866128
v 0.04986518 0.06226244 0.38758846
v 0.05006877 0.06608797 0.38544571
v 0.05142665 0.06438549 0.38308994
v 0.05151676 0.06438504 0.38307476
v 0.05153906 0.06438538 0.38307144
v 0.05219659 0.05794037 0.38964669
v 0.05375792 0.06615044 0.38487823
v 0.05405740 0.06628772 0.38474849
v 0.05447647 0.06653152 0.38453791
v 0.05508028 0.05973178 0.38824973
v 0.05510500 0.05974194 0.38823968
v 0.05516358 0.05976805 0.38821472
v 0.05522110 0.05979578 0.38818903
v 0.05527750 0.05982510 0.38816265
v 0.05531530 0.05984623 0.38814414
v 0.05533275 0.05985598 0.38813560
v 0.05538678 0.05988840 0.38810790
v 0.05543955 0.05992232 0.38807957
f 6 10 19
f 7 6 19
f 4 7 1
f 4 3 10
f 10 3 8
f 1 7 2
f 2 4 1
f 3 4 2
f 6 7 5
f 7 4 5
f 10 6 5
f 5 4 10
f 10 8 9
f 11 8 3
f 11 2 7
f 3 2 11
f 7 15 14
f 18 7 19
f 7 14 13
f 17 15 7
f 7 18 17
f 12 13 11
f 12 11 7
f 7 13 12
f 15 17 16
f 16 17 18
f 16 14 15
f 13 14 9
f 13 9 8
f 8 11 13
f 10 9 16
f 19 10 16
f 9 14 16
f 16 18 19

