# https://github.com/mikedh/trimesh

o torso_mounted_shell_right_fore_089.obj
v 0.04902031 -0.06508604 0.37991484
v 0.04965824 -0.06848460 0.37772871
v 0.04965839 -0.06848466 0.37772865
v 0.04972061 -0.06506983 0.37979752
v 0.04976049 -0.06852738 0.37768408
v 0.04976065 -0.06852744 0.37768402
v 0.04981313 -0.06854674 0.37766273
v 0.04981328 -0.06854679 0.37766267
v 0.04986640 -0.06856461 0.37764217
v 0.04992026 -0.06858100 0.37762240
v 0.04992042 -0.06858105 0.37762234
v 0.04992059 -0.06858109 0.37762228
v 0.04997514 -0.06859601 0.37760329
v 0.05003033 -0.06860946 0.37758507
v 0.05003050 -0.06860950 0.37758502
v 0.05003066 -0.06860953 0.37758497
v 0.05006847 -0.06966174 0.37958348
v 0.05008645 -0.06862149 0.37756755
v 0.05014296 -0.06863200 0.37755089
v 0.05014679 -0.07019506 0.38056755
v 0.05017170 -0.07020681 0.38055588
v 0.05019716 -0.07021789 0.38054449
v 0.05019996 -0.06864100 0.37753505
v 0.05025740 -0.06864847 0.37752007
v 0.05027411 -0.07024964 0.38051118
v 0.05027533 -0.06934732 0.38503014
v 0.05031524 -0.06865443 0.37750593
v 0.05031619 -0.06930709 0.38504723
v 0.05032625 -0.07077305 0.38150605
v 0.05032659 -0.07026894 0.38048990
v 0.05035331 -0.07027791 0.38047958
v 0.05035831 -0.06926782 0.38506349
v 0.05035983 -0.07078827 0.38149068
v 0.05037342 -0.06865886 0.37749266
v 0.05037987 -0.07028682 0.38046933
v 0.05040166 -0.06922957 0.38507894
v 0.05040680 -0.07029501 0.38045945
v 0.05041016 -0.06976565 0.37945813
v 0.05042800 -0.07081678 0.38146092
v 0.05043189 -0.06866176 0.37748028
v 0.05043389 -0.07030325 0.38044952
v 0.05044619 -0.06919235 0.38509352
v 0.05046132 -0.07031075 0.38043995
v 0.05046281 -0.07083016 0.38144645
v 0.05048860 -0.07031821 0.38043045
v 0.05049060 -0.06866312 0.37746879
v 0.05049186 -0.06915621 0.38510723
v 0.05051556 -0.07084899 0.38142541
v 0.05051620 -0.07032494 0.38042134
v 0.05053864 -0.06912118 0.38512007
v 0.05054396 -0.07033170 0.38041218
v 0.05054949 -0.06866295 0.37745820
v 0.05057202 -0.07033772 0.38040342
v 0.05058648 -0.06908728 0.38513204
v 0.05058698 -0.07087183 0.38139853
v 0.05059992 -0.07034370 0.38039472
v 0.05060852 -0.06866125 0.37744851
v 0.05060869 -0.06866124 0.37744849
v 0.05062333 -0.07088232 0.38138553
v 0.05063533 -0.06905455 0.38514312
v 0.05065642 -0.07035420 0.38037805
v 0.05066762 -0.06865801 0.37743975
v 0.05066780 -0.06865800 0.37743973
v 0.05068517 -0.06902302 0.38515328
v 0.05069661 -0.07090126 0.38136068
v 0.05071342 -0.07036320 0.38036222
v 0.05072675 -0.06865323 0.37743193
v 0.05073382 -0.07090978 0.38134873
v 0.05073593 -0.06899271 0.38516249
v 0.05077086 -0.07037068 0.38034723
v 0.05078585 -0.06864693 0.37742503
v 0.05078757 -0.06896366 0.38517083
v 0.05078996 -0.07092128 0.38133153
v 0.05082870 -0.07037664 0.38033310
v 0.05084005 -0.06893588 0.38517821
v 0.05084488 -0.06863912 0.37741906
v 0.05084505 -0.06863909 0.37741905
v 0.05086557 -0.07093427 0.38130988
v 0.05088688 -0.07038107 0.38031983
v 0.05089333 -0.06890941 0.38518465
v 0.05090377 -0.06862979 0.37741405
v 0.05090395 -0.06862976 0.37741404
v 0.05091612 -0.07038252 0.38031363
v 0.05092281 -0.07094225 0.38129463
v 0.05094535 -0.07038397 0.38030744
v 0.05094735 -0.06888427 0.38519017
v 0.05096248 -0.06861895 0.37740999
v 0.05098058 -0.07094872 0.38128020
v 0.05100206 -0.06886047 0.38519472
v 0.05100406 -0.07038533 0.38029596
v 0.05101931 -0.07095219 0.38127105
v 0.05102095 -0.06860661 0.37740689
v 0.05102112 -0.06860657 0.37740688
v 0.05104941 -0.06980296 0.37931930
v 0.05105742 -0.06883805 0.38519832
v 0.05106295 -0.07038516 0.38028537
v 0.05107913 -0.06859279 0.37740474
v 0.05111338 -0.06881702 0.38520098
v 0.05112198 -0.07038345 0.38027569
v 0.05113697 -0.06857750 0.37740355
v 0.05113714 -0.06857745 0.37740355
v 0.05115162 -0.07038183 0.38027128
v 0.05116988 -0.06879739 0.38520269
v 0.05118108 -0.07038021 0.38026691
v 0.05119441 -0.06856074 0.37740333
v 0.05121073 -0.07037782 0.38026299
v 0.05122688 -0.06877920 0.38520342
v 0.05124021 -0.07037544 0.38025909
v 0.05125142 -0.06854256 0.37740405
v 0.05125158 -0.06854250 0.37740406
v 0.05128432 -0.06876245 0.38520317
v 0.05129931 -0.07036914 0.38025220
v 0.05130792 -0.06852293 0.37740575
v 0.05131289 -0.07095644 0.38121514
v 0.05134216 -0.06874716 0.38520198
v 0.05135834 -0.07036132 0.38024624
v 0.05136387 -0.06850190 0.37740840
v 0.05137201 -0.07095269 0.38120669
v 0.05138787 -0.07035665 0.38024371
v 0.05140034 -0.06873334 0.38519985
v 0.05141723 -0.07035199 0.38024122
v 0.05141923 -0.06847948 0.37741200
v 0.05143113 -0.07094740 0.38119918
v 0.05144668 -0.07034656 0.38023918
v 0.05145882 -0.06872100 0.38519673
v 0.05147395 -0.06845569 0.37741656
v 0.05147594 -0.07034115 0.38023716
v 0.05149020 -0.07094059 0.38119260
v 0.05151752 -0.06871017 0.38519268
v 0.05152796 -0.06843053 0.37742207
v 0.05153441 -0.07032882 0.38023406
v 0.05154918 -0.07093227 0.38118695
v 0.05156359 -0.07032189 0.38023298
v 0.05157642 -0.06870084 0.38518767
v 0.05158124 -0.06840406 0.37742852
v 0.05159259 -0.07031500 0.38023191
v 0.05160801 -0.07092244 0.38118225
v 0.05163372 -0.06837629 0.37743590
v 0.05163544 -0.06869302 0.38518172
v 0.05165043 -0.07029971 0.38023072
v 0.05166664 -0.07091110 0.38117851
v 0.05167924 -0.07029131 0.38023061
v 0.05168537 -0.06834724 0.37744422
v 0.05169455 -0.06868671 0.38517479
v 0.05170787 -0.07028295 0.38023050
v 0.05172502 -0.07089827 0.38117573
v 0.05173598 -0.06831703 0.37745343
v 0.05173613 -0.06831694 0.37745346
v 0.05175367 -0.06868195 0.38516698
v 0.05176488 -0.07026476 0.38023123
v 0.05178596 -0.06828541 0.37746362
v 0.05178611 -0.06828531 0.37746365
v 0.05179321 -0.07025492 0.38023207
v 0.05180231 -0.07087887 0.38117350
v 0.05181278 -0.06867870 0.38515822
v 0.05182138 -0.07024514 0.38023291
v 0.05183481 -0.06825267 0.37747469
v 0.05184079 -0.07086818 0.38117303
v 0.05187180 -0.06867699 0.38514855
v 0.05187733 -0.07022411 0.38023556
v 0.05188265 -0.06821877 0.37748665
v 0.05188279 -0.06821867 0.37748669
v 0.05188803 -0.06956985 0.37930900
v 0.05189808 -0.07085094 0.38117313
v 0.05192943 -0.06818373 0.37749950
v 0.05193069 -0.06867683 0.38513796
v 0.05193270 -0.07020168 0.38023917
v 0.05195492 -0.07083227 0.38117418
v 0.05197497 -0.06814771 0.37751317
v 0.05197511 -0.06814760 0.37751321
v 0.05197524 -0.06814749 0.37751326
v 0.05198741 -0.07017789 0.38024372
v 0.05198940 -0.06867819 0.38512645
v 0.05201124 -0.07081217 0.38117619
v 0.05201963 -0.06811038 0.37752780
v 0.05204143 -0.07015274 0.38024924
v 0.05204455 -0.06948530 0.37933207
v 0.05204787 -0.06868109 0.38511406
v 0.05206298 -0.06807212 0.37754323
v 0.05208540 -0.07078323 0.38118036
v 0.05209470 -0.07012627 0.38025568
v 0.05210606 -0.06868552 0.38510079
v 0.05214033 -0.07075989 0.38118459
v 0.05214719 -0.07009850 0.38026307
v 0.05216389 -0.06869147 0.38508666
v 0.05219452 -0.07073522 0.38118978
v 0.05219883 -0.07006944 0.38027139
v 0.05222134 -0.06869896 0.38507167
v 0.05222414 -0.07005434 0.38027600
v 0.05224810 -0.07070917 0.38119592
v 0.05224959 -0.07003914 0.38028063
v 0.05227834 -0.06870795 0.38505583
v 0.05228340 -0.07069105 0.38120054
v 0.05229942 -0.07000761 0.38029079
v 0.05229950 -0.07000756 0.38029081
v 0.05232392 -0.06999120 0.38029633
v 0.05233484 -0.06871845 0.38503917
v 0.05234828 -0.06997488 0.38030185
v 0.05235277 -0.07065320 0.38121100
v 0.05239080 -0.06873045 0.38502172
v 0.05239612 -0.06994098 0.38031381
v 0.05240378 -0.07062334 0.38121993
v 0.05241957 -0.06992341 0.38032026
v 0.05243741 -0.07060267 0.38122642
v 0.05244289 -0.06990594 0.38032666
v 0.05244616 -0.06874395 0.38500344
v 0.05246566 -0.06988793 0.38033350
v 0.05248691 -0.07057074 0.38123688
v 0.05248857 -0.06986981 0.38034039
v 0.05250087 -0.06875891 0.38498439
v 0.05251090 -0.06985114 0.38034769
v 0.05253310 -0.06983259 0.38035496
v 0.05255132 -0.07052635 0.38125221
v 0.05255489 -0.06877534 0.38496456
v 0.05257644 -0.06979433 0.38037040
v 0.05258291 -0.07050334 0.38126050
v 0.05260817 -0.06879321 0.38494402
v 0.05264445 -0.07045596 0.38127819
v 0.05266065 -0.06881252 0.38492272
v 0.05267461 -0.07043143 0.38128764
v 0.05271230 -0.06883324 0.38490071
v 0.05273315 -0.07038115 0.38130764
v 0.05276305 -0.06885535 0.38487801
v 0.05281289 -0.06887884 0.38485466
v 0.05286174 -0.06890369 0.38483065
v 0.05290958 -0.06892986 0.38480602
v 0.05295636 -0.06895735 0.38478078
v 0.05300203 -0.06898612 0.38475496
v 0.05304656 -0.06901615 0.38472859
v 0.05308656 -0.06464930 0.38266861
v 0.05308985 -0.06423509 0.38185000
v 0.05308990 -0.06904741 0.38470168
v 0.05313203 -0.06907987 0.38467424
v 0.05314832 -0.06467150 0.38264765
v 0.05317289 -0.06911351 0.38464632
v 0.05318982 -0.06468777 0.38263281
v 0.05320953 -0.06428250 0.38180131
v 0.05321246 -0.06914830 0.38461794
v 0.05325069 -0.06918420 0.38458913
v 0.05326952 -0.06471756 0.38260141
v 0.05328756 -0.07131087 0.38328694
v 0.05328756 -0.06922118 0.38455992
v 0.05328804 -0.06431534 0.38176705
v 0.05332302 -0.07126713 0.38330715
v 0.05332302 -0.06925920 0.38453032
v 0.05335706 -0.07122259 0.38332811
v 0.05335706 -0.06929824 0.38450035
v 0.05338868 -0.06476648 0.38255287
v 0.05338964 -0.07117731 0.38334978
v 0.05338964 -0.06933826 0.38447005
v 0.05341636 -0.06437357 0.38170969
v 0.05342072 -0.07113133 0.38337212
v 0.05342072 -0.06937923 0.38443944
v 0.05344261 -0.06602846 0.38499003
v 0.05345029 -0.07108469 0.38339519
v 0.05345029 -0.06942110 0.38440859
v 0.05347831 -0.07103743 0.38341887
v 0.05347831 -0.06946384 0.38437746
v 0.05350476 -0.07098959 0.38344323
v 0.05350476 -0.06950741 0.38434612
v 0.05350564 -0.06481803 0.38250181
v 0.05352961 -0.07094122 0.38346816
v 0.05352961 -0.06955177 0.38431456
v 0.05355285 -0.07089235 0.38349370
v 0.05355285 -0.06959689 0.38428286
v 0.05355582 -0.06444280 0.38164409
v 0.05356612 -0.06607285 0.38494811
v 0.05357446 -0.07084304 0.38351982
v 0.05357446 -0.06964271 0.38425103
v 0.05359440 -0.07079332 0.38354650
v 0.05359440 -0.06968921 0.38421907
v 0.05360354 -0.06971277 0.38420307
v 0.05361267 -0.07074325 0.38357369
v 0.05361267 -0.06973634 0.38418706
v 0.05362046 -0.06487277 0.38244927
v 0.05362925 -0.07069286 0.38360137
v 0.05362925 -0.06978405 0.38415499
v 0.05364159 -0.06448842 0.38160110
v 0.05364413 -0.07064220 0.38362953
v 0.05364413 -0.06983231 0.38412288
v 0.05364912 -0.06610540 0.38491844
v 0.05365729 -0.07059131 0.38365813
v 0.05365729 -0.06988107 0.38409078
v 0.05365903 -0.06489282 0.38243123
v 0.05366872 -0.07054025 0.38368715
v 0.05366872 -0.06993028 0.38405873
v 0.05367356 -0.06995510 0.38404273
v 0.05367840 -0.07048906 0.38371657
v 0.05367840 -0.06997992 0.38402672
v 0.05368634 -0.07043777 0.38374639
v 0.05368634 -0.07002991 0.38399483
v 0.05368782 -0.06612058 0.38490461
v 0.05369252 -0.07038645 0.38377651
v 0.05369252 -0.07008024 0.38396306
v 0.05369694 -0.07033514 0.38380696
v 0.05369694 -0.07013084 0.38393141
v 0.05369827 -0.07030951 0.38382234
v 0.05369959 -0.07028387 0.38383773
v 0.05369959 -0.07018168 0.38389998
v 0.05370048 -0.07023270 0.38386873
v 0.05373305 -0.06493066 0.38239527
v 0.05375069 -0.06455047 0.38154470
v 0.05375792 -0.06615044 0.38487823
v 0.05380552 -0.06497052 0.38235841
v 0.05380736 -0.06617076 0.38485813
v 0.05384331 -0.06499164 0.38233990
v 0.05384622 -0.06460839 0.38149292
v 0.05388446 -0.06540597 0.38315917
v 0.05392452 -0.06622299 0.38480820
v 0.05393539 -0.06392946 0.37972673
v 0.05395114 -0.06505567 0.38228318
v 0.05396136 -0.06468351 0.38142794
v 0.05402938 -0.06400684 0.37966252
v 0.05403956 -0.06627845 0.38475683
v 0.05405643 -0.06512267 0.38222516
v 0.05406275 -0.06475438 0.38136768
v 0.05411670 -0.06631854 0.38472076
v 0.05412038 -0.06408684 0.37959728
v 0.05415237 -0.06633709 0.38470407
v 0.05415911 -0.06519260 0.38216588
v 0.05418728 -0.06635660 0.38468698
v 0.05420832 -0.06416940 0.37953099
v 0.05422471 -0.06524013 0.38212567
v 0.05425907 -0.06526539 0.38210544
v 0.05426286 -0.06639885 0.38464996
v 0.05429311 -0.06425446 0.37946379
v 0.05437092 -0.06646368 0.38459456
v 0.05437469 -0.06434191 0.37939568
v 0.05445297 -0.06443171 0.37932677
v 0.05447647 -0.06653152 0.38453791
v 0.05452790 -0.06452376 0.37925710
v 0.05457940 -0.06660231 0.38448006
v 0.05459939 -0.06461797 0.37918672
v 0.05461091 -0.06662547 0.38446152
v 0.05466739 -0.06471427 0.37911571
v 0.05467963 -0.06667599 0.38442107
v 0.05473183 -0.06481258 0.37904412
v 0.05477706 -0.06675248 0.38436099
v 0.05479267 -0.06491279 0.37897203
v 0.05480669 -0.06677732 0.38434183
v 0.05484984 -0.06501482 0.37889949
v 0.05487160 -0.06683173 0.38429986
v 0.05487558 -0.06584919 0.38165370
v 0.05490026 -0.06685737 0.38428043
v 0.05490329 -0.06511858 0.37882656
v 0.05492813 -0.06517129 0.37878995
v 0.05495083 -0.06594231 0.38158578
v 0.05495298 -0.06522399 0.37875334
v 0.05496318 -0.06691366 0.38423776
v 0.05499886 -0.06533093 0.37867986
v 0.05502264 -0.06603761 0.38151719
v 0.05504088 -0.06543932 0.37860619
v 0.05505170 -0.06699819 0.38417473
v 0.05506727 -0.06610100 0.38147126
v 0.05509097 -0.06613501 0.38144799
v 0.05509926 -0.06642512 0.38235511
v 0.05510047 -0.06590607 0.38049795
v 0.05511047 -0.06705811 0.38413076
v 0.05512320 -0.06618417 0.38141220
v 0.05513710 -0.06708526 0.38411083
v 0.05514713 -0.06648865 0.38230938
v 0.05515622 -0.06600955 0.38042641
v 0.05516270 -0.06711315 0.38409067
v 0.05516522 -0.06625019 0.38136761
v 0.05517081 -0.06652098 0.38228707
v 0.05521636 -0.06658592 0.38224093
v 0.05521929 -0.06717478 0.38404611
v 0.05529820 -0.06726668 0.38398063
v 0.05532166 -0.06729592 0.38396009
f 29 26 1
f 241 26 29
f 1 231 310
f 337 345 328
f 230 231 1
f 1 254 230
f 339 345 337
f 337 364 339
f 350 352 345
f 139 144 254
f 20 29 1
f 1 2 20
f 326 328 322
f 1 328 4
f 4 328 345
f 231 230 234
f 234 230 254
f 345 352 126
f 126 122 345
f 352 350 362
f 369 352 362
f 246 26 241
f 246 249 26
f 352 249 246
f 352 255 252
f 252 249 352
f 255 249 252
f 42 249 255
f 229 139 255
f 279 229 255
f 369 282 279
f 313 322 328
f 1 310 313
f 313 328 1
f 105 345 109
f 345 122 117
f 117 113 345
f 366 365 369
f 369 362 366
f 366 362 364
f 337 328 329
f 345 339 341
f 341 362 345
f 357 339 364
f 364 362 357
f 357 341 339
f 362 341 357
f 348 362 350
f 241 352 244
f 244 246 241
f 352 246 244
f 255 139 64
f 64 42 255
f 26 249 28
f 249 42 28
f 1 26 28
f 369 253 256
f 229 279 277
f 277 280 369
f 259 279 255
f 369 262 259
f 369 279 276
f 91 114 241
f 1 4 67
f 322 313 318
f 324 338 310
f 309 221 314
f 267 234 254
f 352 179 175
f 345 113 110
f 110 109 345
f 222 352 241
f 359 366 364
f 355 366 359
f 359 364 337
f 365 366 354
f 337 329 335
f 333 335 331
f 331 335 329
f 331 351 333
f 346 350 345
f 346 348 350
f 367 343 329
f 367 329 328
f 103 64 139
f 50 254 1
f 36 42 1
f 36 28 42
f 369 242 245
f 139 229 166
f 229 217 166
f 166 188 178
f 214 217 303
f 219 221 309
f 219 217 221
f 242 233 232
f 232 245 242
f 229 245 232
f 232 338 229
f 349 233 353
f 353 318 349
f 322 318 353
f 239 367 238
f 238 242 239
f 238 233 242
f 287 289 369
f 369 280 283
f 369 269 271
f 369 263 265
f 265 269 369
f 369 295 293
f 369 268 264
f 264 262 369
f 268 259 264
f 264 259 262
f 229 277 260
f 260 245 229
f 256 245 260
f 277 274 260
f 260 274 269
f 269 265 260
f 294 277 279
f 294 296 369
f 279 259 273
f 273 276 279
f 369 276 273
f 257 352 369
f 369 259 257
f 257 255 352
f 257 259 255
f 39 44 241
f 241 44 48
f 78 84 241
f 241 73 78
f 241 59 65
f 132 137 241
f 241 114 118
f 118 123 241
f 241 84 88
f 88 91 241
f 114 91 90
f 1 40 34
f 71 4 345
f 71 67 4
f 185 188 254
f 178 188 185
f 144 139 149
f 254 144 149
f 149 155 254
f 223 314 221
f 330 327 226
f 226 327 225
f 305 219 309
f 305 292 303
f 303 217 305
f 217 219 305
f 352 138 135
f 143 138 352
f 199 138 143
f 184 138 199
f 113 117 156
f 156 110 113
f 241 137 141
f 241 174 180
f 171 170 352
f 352 175 171
f 215 179 352
f 352 222 215
f 215 222 179
f 365 351 361
f 369 365 361
f 361 356 369
f 351 331 347
f 369 356 347
f 347 331 329
f 329 343 347
f 239 242 368
f 368 367 239
f 368 242 369
f 343 367 368
f 369 347 368
f 368 347 343
f 64 103 86
f 42 64 60
f 60 50 42
f 60 64 254
f 1 42 47
f 47 50 1
f 42 50 47
f 1 28 32
f 32 36 1
f 28 36 32
f 250 256 253
f 250 253 369
f 139 166 159
f 159 149 139
f 155 149 159
f 254 155 159
f 159 166 254
f 188 166 200
f 254 197 200
f 200 267 254
f 206 267 200
f 173 178 254
f 254 166 173
f 173 166 178
f 342 232 233
f 360 238 363
f 363 238 367
f 363 367 328
f 322 353 358
f 235 353 233
f 233 238 235
f 235 358 353
f 360 358 235
f 235 238 360
f 338 324 336
f 336 334 228
f 228 229 336
f 229 338 336
f 289 287 291
f 369 289 291
f 272 271 269
f 269 274 272
f 272 274 369
f 369 271 272
f 258 260 369
f 369 256 258
f 256 260 258
f 277 294 286
f 280 277 286
f 286 287 369
f 294 291 286
f 286 291 287
f 270 259 268
f 270 273 259
f 270 268 369
f 369 273 270
f 285 279 282
f 285 282 369
f 369 288 285
f 279 285 290
f 290 285 288
f 290 288 369
f 369 293 290
f 290 293 295
f 299 290 298
f 296 294 299
f 299 294 279
f 279 290 299
f 369 296 299
f 241 29 33
f 33 39 241
f 55 59 241
f 241 48 55
f 68 73 241
f 241 65 68
f 241 123 128
f 128 132 241
f 123 118 108
f 67 71 108
f 70 88 84
f 40 90 85
f 85 90 91
f 1 34 27
f 46 40 1
f 46 90 40
f 114 90 96
f 90 46 96
f 254 178 182
f 182 185 254
f 178 185 182
f 224 223 221
f 224 226 225
f 229 226 224
f 321 319 224
f 224 319 223
f 224 217 229
f 221 217 224
f 278 302 310
f 310 266 278
f 251 266 310
f 227 229 228
f 227 226 229
f 330 226 227
f 281 267 206
f 206 292 281
f 234 267 281
f 231 281 240
f 240 281 292
f 352 170 169
f 169 165 352
f 162 161 352
f 352 165 162
f 151 148 352
f 352 152 151
f 352 161 157
f 157 152 352
f 130 126 352
f 352 135 130
f 352 148 147
f 147 143 352
f 168 156 174
f 168 174 241
f 160 180 174
f 160 156 117
f 174 156 160
f 241 180 183
f 220 222 241
f 241 218 220
f 107 103 139
f 139 120 107
f 254 103 107
f 107 111 254
f 254 50 54
f 54 60 254
f 50 60 54
f 247 245 256
f 256 250 247
f 369 245 247
f 247 250 369
f 210 166 217
f 210 200 166
f 206 200 210
f 217 214 210
f 210 292 206
f 210 214 303
f 303 292 210
f 188 200 192
f 192 200 197
f 254 188 192
f 192 197 254
f 338 232 340
f 232 342 340
f 340 342 313
f 344 233 349
f 344 342 233
f 349 318 344
f 297 290 295
f 298 290 297
f 297 295 369
f 369 298 297
f 369 299 300
f 21 33 29
f 59 55 41
f 35 55 48
f 61 78 73
f 23 19 1
f 112 128 123
f 123 108 112
f 112 108 71
f 79 34 40
f 1 6 5
f 7 6 1
f 44 39 25
f 6 7 25
f 1 27 24
f 24 23 1
f 70 23 24
f 74 27 34
f 74 79 91
f 34 79 74
f 91 88 74
f 1 57 52
f 52 46 1
f 57 96 52
f 52 96 46
f 1 67 63
f 63 62 1
f 58 57 1
f 1 62 58
f 104 118 114
f 114 96 99
f 99 96 57
f 137 132 121
f 76 71 345
f 76 112 71
f 345 92 87
f 87 82 345
f 330 227 332
f 228 334 332
f 332 227 228
f 323 336 324
f 334 336 323
f 302 311 307
f 310 302 307
f 307 312 310
f 314 223 317
f 223 319 317
f 225 327 325
f 325 224 225
f 321 224 325
f 301 278 266
f 309 314 261
f 266 251 275
f 275 261 314
f 251 261 275
f 302 278 306
f 306 311 302
f 327 311 306
f 306 325 327
f 321 325 306
f 231 234 236
f 236 281 231
f 234 281 236
f 143 147 177
f 109 110 150
f 110 168 150
f 110 156 153
f 153 168 110
f 156 168 153
f 241 141 146
f 141 131 146
f 167 183 180
f 241 183 186
f 170 171 211
f 211 171 175
f 209 220 218
f 170 211 209
f 209 211 220
f 254 120 125
f 125 129 254
f 120 129 125
f 134 120 139
f 134 129 120
f 134 139 254
f 254 129 134
f 115 120 254
f 254 111 115
f 115 107 120
f 111 107 115
f 254 64 69
f 80 86 254
f 254 75 80
f 80 75 86
f 64 86 72
f 86 75 72
f 72 69 64
f 72 75 254
f 254 69 72
f 98 103 254
f 254 95 98
f 98 95 103
f 89 86 103
f 103 95 89
f 254 86 89
f 89 95 254
f 37 35 10
f 55 35 37
f 66 70 84
f 66 23 70
f 84 78 66
f 78 61 66
f 51 68 65
f 1 19 18
f 83 85 91
f 91 79 83
f 33 22 17
f 6 25 17
f 17 25 39
f 17 5 6
f 39 33 17
f 8 7 1
f 30 48 44
f 44 25 30
f 30 25 7
f 106 108 118
f 102 104 114
f 101 345 105
f 101 100 345
f 345 100 97
f 345 82 81
f 119 121 132
f 82 87 127
f 127 87 92
f 127 141 137
f 127 131 141
f 92 131 127
f 316 324 310
f 316 323 324
f 310 312 316
f 312 320 316
f 312 307 315
f 330 332 315
f 315 332 320
f 315 320 312
f 308 319 321
f 278 301 308
f 308 301 319
f 243 261 251
f 243 251 310
f 266 275 284
f 321 306 304
f 304 306 278
f 304 308 321
f 278 308 304
f 199 143 187
f 143 177 187
f 216 218 241
f 241 213 216
f 208 213 241
f 105 109 145
f 109 150 145
f 145 101 105
f 172 186 183
f 126 130 176
f 176 172 126
f 186 172 176
f 193 184 199
f 193 199 241
f 212 211 175
f 212 175 179
f 179 222 212
f 222 220 212
f 220 211 212
f 1 13 12
f 128 112 116
f 112 76 116
f 132 128 116
f 116 76 132
f 3 17 22
f 5 17 3
f 3 2 1
f 1 5 3
f 10 35 9
f 1 10 9
f 9 8 1
f 31 35 48
f 94 63 67
f 67 108 94
f 94 106 63
f 108 106 94
f 93 92 345
f 345 97 93
f 133 146 131
f 77 76 345
f 345 81 77
f 124 127 137
f 82 127 124
f 292 305 248
f 201 216 213
f 157 213 198
f 213 208 198
f 204 208 241
f 241 146 154
f 164 150 168
f 164 145 150
f 164 168 241
f 163 130 135
f 163 176 130
f 186 176 190
f 241 186 190
f 190 193 241
f 176 163 190
f 190 163 135
f 1 15 14
f 14 13 1
f 15 51 14
f 14 51 65
f 65 49 14
f 45 49 65
f 59 43 45
f 45 65 59
f 13 14 45
f 45 14 49
f 11 10 1
f 1 12 11
f 16 15 1
f 1 18 16
f 68 53 56
f 73 68 56
f 19 61 56
f 56 61 73
f 56 18 19
f 237 248 243
f 231 240 237
f 237 310 231
f 237 243 310
f 216 203 205
f 205 207 218
f 218 216 205
f 208 204 194
f 199 187 202
f 241 199 202
f 202 204 241
f 145 164 158
f 241 154 158
f 158 164 241
f 146 133 136
f 136 154 146
f 193 190 181
f 181 190 135
f 181 135 138
f 138 184 181
f 184 193 181
f 53 16 38
f 38 16 18
f 38 56 53
f 18 56 38
f 196 198 208
f 157 198 196
f 196 151 152
f 152 157 196
f 204 202 191
f 148 151 191
f 191 147 148
f 191 202 147
f 151 194 191
f 191 194 204
f 189 187 177
f 189 202 187
f 189 177 147
f 147 202 189
f 140 158 154
f 154 136 140
f 101 145 142
f 145 158 142
f 208 194 195
f 195 196 208
f 195 194 151
f 151 196 195
f 355 359 335
f 335 359 337
f 335 366 355
f 335 354 366
f 365 354 351
f 354 335 351
f 351 335 333
f 362 348 346
f 345 362 346
f 274 277 369
f 260 263 369
f 260 265 263
f 347 361 351
f 356 361 347
f 326 360 363
f 363 328 326
f 326 322 358
f 358 360 326
f 291 294 369
f 286 283 280
f 369 283 286
f 310 338 340
f 340 313 310
f 344 318 313
f 313 342 344
f 300 298 369
f 300 299 298
f 21 20 2
f 29 20 21
f 70 24 74
f 88 70 74
f 74 24 27
f 167 160 117
f 167 117 122
f 180 160 167
f 218 207 209
f 209 207 169
f 209 169 170
f 19 23 66
f 66 61 19
f 83 79 40
f 40 85 83
f 62 104 102
f 102 58 62
f 102 99 57
f 114 99 102
f 57 58 102
f 118 104 106
f 106 104 62
f 62 63 106
f 320 332 316
f 334 323 316
f 316 332 334
f 315 327 330
f 315 307 311
f 315 311 327
f 284 275 314
f 314 317 284
f 284 317 319
f 284 301 266
f 319 301 284
f 172 167 122
f 122 126 172
f 183 167 172
f 3 21 2
f 33 21 3
f 3 22 33
f 31 9 35
f 8 9 31
f 7 8 31
f 31 30 7
f 48 30 31
f 92 93 133
f 133 131 92
f 77 81 121
f 121 119 77
f 132 76 77
f 77 119 132
f 137 121 124
f 124 81 82
f 121 81 124
f 309 261 248
f 248 305 309
f 261 243 248
f 201 213 157
f 201 157 161
f 203 201 161
f 161 162 203
f 216 201 203
f 45 12 13
f 43 12 45
f 55 37 11
f 11 41 55
f 11 37 10
f 59 41 11
f 11 43 59
f 11 12 43
f 16 51 15
f 16 53 68
f 68 51 16
f 292 248 237
f 237 240 292
f 205 203 162
f 205 162 165
f 165 169 205
f 169 207 205
f 136 133 93
f 136 93 97
f 140 136 97
f 140 97 100
f 100 101 142
f 142 140 100
f 158 140 142

