# https://github.com/mikedh/trimesh

o torso_mounted_shell_right_aft_303.obj
v -0.11564670 -0.10695656 0.29928044
v -0.11556086 -0.10416521 0.30243638
v -0.11507950 -0.10734903 0.29882355
v -0.11481735 -0.10752066 0.29862868
v -0.11473825 -0.10757425 0.29857408
v -0.11472350 -0.10760790 0.29903569
v -0.11454665 -0.10480450 0.29955262
v -0.11359060 -0.10551421 0.30043090
v -0.11253017 -0.10608314 0.29697588
v -0.11229981 -0.10631418 0.29856690
v -0.11192378 -0.10652185 0.29773710
f 9 2 11
f 6 2 1
f 1 2 7
f 7 9 1
f 2 9 7
f 2 6 8
f 5 9 11
f 11 6 5
f 11 2 10
f 2 8 10
f 10 6 11
f 10 8 6
f 9 5 4
f 3 4 5
f 3 5 6
f 3 6 1
f 1 9 3
f 9 4 3

