# https://github.com/mikedh/trimesh

o torso_mounted_shell_right_aft_451.obj
v -0.03749085 -0.12730855 0.27980103
v -0.02966928 -0.13038959 0.28092287
v -0.02691070 -0.12868352 0.28374015
v -0.02549367 -0.13002495 0.27902273
v -0.02545869 -0.12764361 0.27941638
v -0.02529630 -0.12791461 0.28039492
v -0.02524699 -0.12869581 0.28358372
v -0.02507283 -0.12853046 0.28283303
v -0.02447036 -0.12832301 0.27659603
f 1 2 3
f 5 9 1
f 1 9 4
f 4 2 1
f 1 3 7
f 7 5 1
f 7 3 2
f 2 4 7
f 5 7 8
f 8 4 9
f 8 7 4
f 9 5 6
f 6 8 9
f 5 8 6

