# https://github.com/mikedh/trimesh

o upper_grip_shell_194.obj
v 0.14158333 -0.00503119 -0.02016180
v 0.14158333 -0.00481285 -0.02016028
v 0.14158333 -0.00447109 -0.02015839
v 0.14158333 -0.00432943 -0.02015763
v 0.14158333 -0.00412383 -0.02015672
v 0.14158333 -0.00390373 -0.02015586
v 0.14158333 -0.00368206 -0.02015509
v 0.14158333 -0.00347562 -0.02015450
v 0.14158333 -0.00314485 -0.02015373
v 0.14158333 -0.00297534 -0.02015336
v 0.14158333 -0.00264443 -0.02015285
v 0.14158333 -0.00241627 -0.02015257
v 0.14158333 -0.00227621 -0.02015240
v 0.14158333 -0.00201770 -0.02015218
v 0.14158333 -0.00171222 -0.02015200
v 0.14158333 -0.00151867 -0.02015192
v 0.14158333 -0.00130948 -0.02015186
v 0.14158333 -0.00107697 -0.02015181
v 0.14158333 -0.00078644 -0.02015177
v 0.14158333 -0.00048701 -0.02015177
v 0.14158333 -0.00006005 -0.02015179
v 0.14237500 -0.00466444 -0.02038538
v 0.14237500 -0.00451859 -0.02038461
v 0.14237500 -0.00420628 -0.02038303
v 0.14237500 -0.00400191 -0.02038217
v 0.14237500 -0.00378039 -0.02038135
v 0.14237500 -0.00366855 -0.02038098
v 0.14237500 -0.00356943 -0.02038068
v 0.14237500 -0.00335889 -0.02038010
v 0.14237500 -0.00324907 -0.02037985
v 0.14237500 -0.00286686 -0.02037906
v 0.14237500 -0.00276083 -0.02037891
v 0.14237500 -0.00248571 -0.02037854
v 0.14237500 -0.00218026 -0.02037820
v 0.14237500 -0.00208227 -0.02037811
v 0.14237500 -0.00199444 -0.02037805
v 0.14237500 -0.00189899 -0.02037799
v 0.14237500 -0.00162773 -0.02037784
v 0.14237500 -0.00153981 -0.02037781
v 0.14237500 -0.00133461 -0.02037775
v 0.14237500 -0.00122602 -0.02037772
v 0.14237500 -0.00085679 -0.02037766
v 0.14237500 -0.00040765 -0.02037766
v 0.14237500 0.00000000 -0.02037769
v 0.14316667 -0.00452446 -0.02061064
v 0.14316667 -0.00366352 -0.02060691
v 0.14316667 -0.00324850 -0.02060577
v 0.14316667 -0.00196610 -0.02060392
v 0.14316667 -0.00154832 -0.02060370
v 0.14475000 -0.00453621 -0.02106268
v 0.14475000 -0.00424450 -0.02106116
v 0.14475000 -0.00404487 -0.02106024
v 0.14475000 -0.00385342 -0.02105945
v 0.14475000 -0.00365347 -0.02105878
v 0.14475000 -0.00342978 -0.02105804
v 0.14475000 -0.00324737 -0.02105762
v 0.14475000 -0.00302774 -0.02105713
v 0.14475000 -0.00277184 -0.02105664
v 0.14475000 -0.00255979 -0.02105634
v 0.14475000 -0.00229609 -0.02105603
v 0.14475000 -0.00210540 -0.02105585
v 0.14475000 -0.00190942 -0.02105566
v 0.14475000 -0.00173376 -0.02105554
v 0.14475000 -0.00156534 -0.02105548
v 0.14475000 -0.00138950 -0.02105542
v 0.14475000 -0.00119282 -0.02105536
v 0.14475000 -0.00073487 -0.02105530
v 0.14475000 -0.00042845 -0.02105530
v 0.14475000 0.00000000 -0.02105536
v 0.14475059 -0.00484360 -0.02106473
f 69 70 1
f 1 44 69
f 21 44 1
f 1 70 2
f 20 43 21
f 70 56 55
f 43 20 68
f 68 69 44
f 44 21 68
f 21 43 68
f 68 67 70
f 70 69 68
f 22 2 70
f 70 50 22
f 51 50 70
f 70 67 66
f 66 65 70
f 63 62 70
f 57 56 70
f 70 58 57
f 3 22 4
f 2 22 3
f 4 22 23
f 23 51 4
f 42 67 19
f 42 66 67
f 70 65 64
f 64 63 70
f 70 62 61
f 61 60 70
f 59 58 70
f 70 60 59
f 29 55 56
f 6 5 25
f 53 6 25
f 24 5 4
f 4 51 24
f 8 7 28
f 28 7 55
f 28 29 8
f 55 29 28
f 26 7 6
f 26 6 53
f 50 51 45
f 45 22 50
f 51 23 45
f 45 23 22
f 49 64 65
f 8 29 9
f 56 57 47
f 47 29 56
f 52 24 51
f 70 53 52
f 52 51 70
f 53 25 52
f 52 25 5
f 5 24 52
f 54 26 53
f 54 53 70
f 70 55 54
f 55 7 27
f 7 26 27
f 18 42 19
f 66 42 41
f 41 17 66
f 41 18 17
f 42 18 41
f 35 14 13
f 35 61 62
f 15 14 37
f 63 15 37
f 33 60 13
f 33 59 60
f 31 11 10
f 31 57 58
f 31 10 57
f 58 59 31
f 29 47 30
f 10 9 30
f 30 9 29
f 57 10 30
f 30 47 57
f 46 54 55
f 26 54 46
f 55 27 46
f 46 27 26
f 13 60 34
f 34 35 13
f 60 61 34
f 61 35 34
f 62 63 48
f 48 35 62
f 38 16 15
f 38 15 63
f 63 64 38
f 64 49 38
f 17 16 40
f 66 17 40
f 40 16 66
f 12 33 13
f 11 33 12
f 32 31 59
f 11 31 32
f 59 33 32
f 32 33 11
f 14 35 36
f 35 48 36
f 36 48 63
f 63 37 36
f 36 37 14
f 39 38 49
f 16 38 39
f 39 49 65
f 65 66 39
f 66 16 39
f 68 20 19
f 19 67 68
f 19 20 12
f 12 21 1
f 1 2 12
f 12 3 4
f 12 7 8
f 12 20 21
f 4 5 12
f 15 16 12
f 13 14 12
f 12 5 6
f 6 7 12
f 2 3 12
f 8 9 12
f 12 18 19
f 12 14 15
f 10 11 12
f 12 9 10
f 17 18 12
f 12 16 17

