# https://github.com/mikedh/trimesh

o upper_grip_shell_199.obj
v 0.13843138 0.00636731 -0.01928546
v 0.13851744 0.00656207 -0.01931171
v 0.13855307 0.00934748 -0.01938080
v 0.13862364 0.00914423 -0.01939417
v 0.13862607 0.00686351 -0.01934589
v 0.13864172 0.00691470 -0.01935095
v 0.13864688 0.00538997 -0.01933657
v 0.13865460 0.00904108 -0.01939978
v 0.13865666 0.00696615 -0.01935583
v 0.13866901 0.00898916 -0.01940228
v 0.13868266 0.00893703 -0.01940460
v 0.13869559 0.00888469 -0.01940674
v 0.13869714 0.00712184 -0.01936945
v 0.13871921 0.00877945 -0.01941040
v 0.13873105 0.00727936 -0.01938141
v 0.13873118 0.00558620 -0.01936141
v 0.13873984 0.00867354 -0.01941333
v 0.13874994 0.00738523 -0.01938849
v 0.13875745 0.00856706 -0.01941553
v 0.13875827 0.00743839 -0.01939172
v 0.13876512 0.00851362 -0.01941632
v 0.13876585 0.00749169 -0.01939478
v 0.13877267 0.00754510 -0.01939764
v 0.13877820 0.00840645 -0.01941730
v 0.13878406 0.00765226 -0.01940277
v 0.13878822 0.00829893 -0.01941754
v 0.13879240 0.00775975 -0.01940717
v 0.13879518 0.00819118 -0.01941705
v 0.13879543 0.00781360 -0.01940906
v 0.13879909 0.00808329 -0.01941571
v 0.13879919 0.00792142 -0.01941229
v 0.13879993 0.00797537 -0.01941364
v 0.13882801 0.00584592 -0.01939050
v 0.13884619 0.00587612 -0.01939583
v 0.13886396 0.00590659 -0.01940106
v 0.13889825 0.00605423 -0.01941201
v 0.13897698 0.00525967 -0.01942728
v 0.13902891 0.00971866 -0.01952785
v 0.13903123 0.00651785 -0.01945414
v 0.13904076 0.00546963 -0.01944647
v 0.13904377 0.00655116 -0.01945807
v 0.13905584 0.00658466 -0.01946187
v 0.13905601 0.00549108 -0.01945087
v 0.13906562 0.00905625 -0.01951524
v 0.13906745 0.00661835 -0.01946556
v 0.13907859 0.00665222 -0.01946912
v 0.13909946 0.00672048 -0.01947587
v 0.13910787 0.00891905 -0.01952293
v 0.13911411 0.00574864 -0.01946912
v 0.13916742 0.00596888 -0.01948599
v 0.13917419 0.00849717 -0.01953013
v 0.13919971 0.00792750 -0.01952417
v 0.13922694 0.00621001 -0.01950500
v 0.13926864 0.00644608 -0.01951932
v 0.13927821 0.00647099 -0.01952231
v 0.13928744 0.00649604 -0.01952521
v 0.13929489 0.00898666 -0.01957730
v 0.13929633 0.00652124 -0.01952802
v 0.13930354 0.00896118 -0.01957892
v 0.13930486 0.00654658 -0.01953073
v 0.13931799 0.00504408 -0.01952053
v 0.13934133 0.00883197 -0.01958566
v 0.13936992 0.00870023 -0.01959003
v 0.13938256 0.00846222 -0.01958743
v 0.13938910 0.00840863 -0.01958792
v 0.13939759 0.00816654 -0.01958459
v 0.14000000 0.00490976 -0.01970880
v 0.14000000 0.00516284 -0.01971045
v 0.14000000 0.00533237 -0.01971176
v 0.14000000 0.00550190 -0.01971307
v 0.14000000 0.00575953 -0.01971539
v 0.14000000 0.00600454 -0.01971777
v 0.14000000 0.00628059 -0.01972083
v 0.14000000 0.00674915 -0.01972745
v 0.14000000 0.00721771 -0.01973407
v 0.14000000 0.00728415 -0.01973517
v 0.14000000 0.00758502 -0.01974060
v 0.14000000 0.00788572 -0.01974658
v 0.14000000 0.00814190 -0.01975214
v 0.14000000 0.00841082 -0.01975854
v 0.14000000 0.00872692 -0.01976672
v 0.14000000 0.01041091 -0.01982574
v 0.14158333 0.00491879 -0.02016093
v 0.14158333 0.00844472 -0.02021320
v 0.14158333 0.01020400 -0.02027289
v 0.14237500 0.00492331 -0.02038699
v 0.14237500 0.00503975 -0.02038776
v 0.14237500 0.00536528 -0.02039023
v 0.14237500 0.00561264 -0.02039240
v 0.14237500 0.00572536 -0.02039346
v 0.14237500 0.00584787 -0.02039465
v 0.14237500 0.00597488 -0.02039603
v 0.14237500 0.00611291 -0.02039755
v 0.14237500 0.00654408 -0.02040335
v 0.14237500 0.00701264 -0.02040997
v 0.14237500 0.00707643 -0.02041101
v 0.14237500 0.00736530 -0.02041611
v 0.14237500 0.00765401 -0.02042169
v 0.14237500 0.00789998 -0.02042691
v 0.14316667 0.00492109 -0.02061302
v 0.14316667 0.00521574 -0.02061517
v 0.14316667 0.00548465 -0.02061739
v 0.14316667 0.00563882 -0.02061877
v 0.14316667 0.00588032 -0.02062120
v 0.14316667 0.00634446 -0.02062699
v 0.14316667 0.00698682 -0.02063597
v 0.14316667 0.00719978 -0.02063969
v 0.14316667 0.00748453 -0.02064500
v 0.14316667 0.00774075 -0.02065021
v 0.14420558 0.00916855 -0.02098510
v 0.14475201 0.00793214 -0.02110838
f 3 7 1
f 85 7 82
f 61 100 67
f 7 85 61
f 61 85 100
f 82 7 38
f 7 3 38
f 38 81 82
f 3 81 38
f 84 80 111
f 84 81 80
f 111 100 110
f 100 85 110
f 110 84 111
f 81 84 110
f 82 81 110
f 110 85 82
f 37 61 67
f 7 61 37
f 80 81 63
f 80 63 17
f 111 80 79
f 24 17 1
f 109 108 111
f 106 105 111
f 111 103 102
f 111 105 104
f 104 103 111
f 1 7 16
f 16 33 1
f 7 40 16
f 49 33 16
f 57 81 3
f 3 44 57
f 57 44 81
f 81 44 59
f 26 24 1
f 79 24 26
f 17 24 21
f 65 79 80
f 65 24 79
f 65 21 24
f 98 109 78
f 108 109 98
f 78 77 98
f 98 77 108
f 99 79 78
f 78 109 99
f 111 79 99
f 99 109 111
f 105 106 94
f 108 77 97
f 77 76 97
f 29 31 1
f 1 25 29
f 29 78 31
f 29 77 78
f 70 88 102
f 49 16 70
f 70 16 43
f 1 33 34
f 1 31 30
f 30 26 1
f 78 79 30
f 80 17 19
f 17 21 19
f 31 78 52
f 95 106 75
f 95 94 106
f 105 94 73
f 73 54 1
f 1 53 73
f 75 106 96
f 96 76 75
f 27 25 77
f 77 29 27
f 27 29 25
f 22 20 76
f 22 76 77
f 102 88 101
f 101 100 111
f 111 102 101
f 100 101 87
f 1 34 36
f 13 9 75
f 1 9 13
f 4 3 1
f 4 44 3
f 4 59 44
f 81 62 12
f 26 30 28
f 78 30 32
f 32 52 78
f 32 30 31
f 31 52 32
f 80 19 51
f 51 19 21
f 93 104 105
f 105 73 93
f 72 73 53
f 72 36 50
f 74 95 75
f 75 9 74
f 9 73 74
f 107 97 76
f 76 96 107
f 107 96 106
f 108 97 107
f 111 108 107
f 107 106 111
f 77 25 23
f 23 22 77
f 25 22 23
f 67 100 83
f 100 86 83
f 88 70 69
f 69 70 43
f 68 101 88
f 68 87 101
f 88 69 68
f 67 83 68
f 68 37 67
f 68 83 86
f 7 37 68
f 68 86 100
f 100 87 68
f 68 40 7
f 68 69 43
f 43 16 68
f 68 16 40
f 50 36 35
f 35 36 34
f 15 13 75
f 75 76 15
f 20 22 15
f 15 22 25
f 15 25 1
f 1 13 15
f 41 73 56
f 41 55 73
f 6 5 73
f 1 17 14
f 14 4 1
f 81 12 14
f 14 17 63
f 14 63 81
f 8 10 48
f 8 4 10
f 8 48 81
f 81 4 8
f 62 10 11
f 11 12 62
f 11 14 12
f 10 4 11
f 4 14 11
f 79 26 66
f 26 28 66
f 66 30 79
f 66 28 30
f 80 51 64
f 64 51 21
f 64 65 80
f 21 65 64
f 103 104 91
f 71 91 72
f 49 70 71
f 71 72 50
f 71 33 49
f 71 34 33
f 50 35 71
f 71 35 34
f 92 93 73
f 73 72 92
f 104 93 92
f 92 91 104
f 72 91 92
f 76 20 18
f 18 15 76
f 20 15 18
f 5 6 2
f 2 9 1
f 2 6 9
f 55 41 39
f 54 73 39
f 73 55 39
f 39 2 54
f 39 41 5
f 5 2 39
f 56 73 58
f 73 45 58
f 60 45 73
f 5 41 42
f 42 45 5
f 42 58 45
f 42 41 56
f 56 58 42
f 47 73 9
f 9 6 47
f 47 6 73
f 103 71 89
f 89 71 70
f 89 102 103
f 89 70 102
f 103 91 90
f 90 71 103
f 91 71 90
f 5 45 46
f 45 60 46
f 73 5 46
f 46 60 73
f 81 48 10
f 10 62 81
f 81 59 4
f 1 36 72
f 72 53 1
f 74 73 94
f 94 95 74
f 1 54 2

