# https://github.com/mikedh/trimesh

o upper_grip_shell_214.obj
v 0.14316667 0.00521574 -0.02061517
v 0.14316667 0.00548465 -0.02061739
v 0.14316667 0.00563882 -0.02061877
v 0.14316667 0.00588032 -0.02062120
v 0.14316667 0.00634446 -0.02062699
v 0.14316667 0.00698682 -0.02063597
v 0.14316667 0.00719978 -0.02063969
v 0.14316667 0.00748453 -0.02064500
v 0.14316667 0.00774075 -0.02065021
v 0.14316667 0.00999591 -0.02071995
v 0.14420558 0.00916855 -0.02098510
v 0.14475000 0.00491666 -0.02106506
v 0.14475000 0.00507266 -0.02106622
v 0.14475000 0.00522867 -0.02106738
v 0.14475000 0.00546574 -0.02106940
v 0.14475000 0.00569120 -0.02107153
v 0.14475000 0.00581821 -0.02107291
v 0.14475000 0.00594523 -0.02107428
v 0.14475000 0.00680758 -0.02108588
v 0.14475000 0.00686872 -0.02108685
v 0.14475000 0.00700715 -0.02108923
v 0.14475000 0.00714559 -0.02109161
v 0.14475000 0.00742230 -0.02109680
v 0.14475000 0.00765805 -0.02110168
v 0.14475000 0.01036117 -0.02119257
v 0.14475201 0.00793214 -0.02110838
v 0.14475789 0.01001800 -0.02117903
v 0.14945327 0.00922835 -0.02255961
v 0.14950000 0.00488500 -0.02248145
v 0.15389131 0.00712620 -0.02379999
f 28 25 30
f 30 29 28
f 10 29 1
f 25 28 10
f 10 28 29
f 30 25 27
f 27 11 30
f 25 10 27
f 10 11 27
f 26 24 30
f 30 11 26
f 9 11 10
f 24 26 9
f 9 26 11
f 12 29 30
f 1 29 12
f 30 15 14
f 30 19 18
f 5 18 19
f 13 12 30
f 30 14 13
f 1 12 13
f 13 14 1
f 30 24 23
f 23 22 30
f 24 9 23
f 20 19 30
f 16 15 30
f 30 22 21
f 21 20 30
f 20 21 6
f 6 5 19
f 19 20 6
f 6 21 22
f 30 18 17
f 17 16 30
f 16 17 4
f 18 5 4
f 4 17 18
f 8 23 9
f 22 23 8
f 15 16 3
f 16 4 3
f 7 6 22
f 22 8 7
f 15 3 2
f 1 14 2
f 2 14 15
f 2 9 10
f 2 10 1
f 2 8 9
f 5 6 2
f 2 4 5
f 6 7 2
f 2 3 4
f 2 7 8

