# https://github.com/mikedh/trimesh

o upper_neck_output_adapter_019.obj
v 0.00734072 0.02624480 -0.00516544
v 0.00734072 0.02625097 -0.01860052
v 0.00804618 0.02625097 -0.01828293
v 0.00912413 0.02625097 -0.01779472
v 0.00998718 0.02625097 -0.01729806
v 0.01022553 0.02625097 -0.01715954
v 0.00741753 0.02624480 -0.00506408
v 0.00734072 0.02624480 -0.00148443
v 0.00734072 0.03675000 -0.01860052
v 0.00804618 0.03675000 -0.01828293
v 0.00912413 0.03675000 -0.01779472
v 0.00998718 0.03675000 -0.01729806
v 0.00788662 0.02624480 -0.00429713
v 0.00788464 0.02624480 -0.00430051
v 0.00741979 0.02624480 -0.00506070
v 0.01022553 0.03675000 -0.01715954
v 0.01022553 0.02625097 -0.00134253
v 0.00880247 0.02624480 -0.00177837
v 0.00880191 0.02624480 -0.00178175
v 0.00858134 0.02624480 -0.00264837
v 0.00842771 0.02624480 -0.00307070
v 0.00827521 0.02624480 -0.00348964
v 0.00804618 0.02624480 -0.00162465
v 0.00886799 0.02624583 -0.00134253
v 0.00804618 0.02624583 -0.00134253
v 0.00734072 0.02624583 -0.00134422
v 0.00734072 0.03675000 -0.00134422
v 0.01022553 0.03675000 -0.00134253
v 0.00804618 0.03675000 -0.00134253
f 1 2 3
f 1 3 4
f 1 4 5
f 1 5 6
f 1 6 7
f 1 7 15
f 1 15 14
f 1 14 13
f 1 13 22
f 1 22 21
f 1 21 20
f 1 20 19
f 1 19 18
f 1 18 23
f 1 23 8
f 1 8 26
f 1 26 27
f 1 27 9
f 1 9 2
f 2 9 10
f 2 10 3
f 3 10 11
f 3 11 4
f 4 11 12
f 4 12 5
f 5 12 16
f 5 16 6
f 6 13 14
f 6 14 15
f 6 15 7
f 6 16 28
f 6 28 17
f 6 17 18
f 6 18 19
f 6 19 20
f 6 20 21
f 6 21 22
f 6 22 13
f 8 23 24
f 8 24 25
f 8 25 26
f 9 27 29
f 9 29 28
f 9 28 16
f 9 16 12
f 9 12 11
f 9 11 10
f 17 28 29
f 17 29 25
f 17 25 24
f 17 24 18
f 18 24 23
f 25 29 27
f 25 27 26

