# https://github.com/mikedh/trimesh

o upper_grip_shell_268.obj
v 0.16035156 -0.01219154 -0.02942417
v 0.16950000 -0.00384623 -0.02514801
v 0.17066667 -0.00318013 -0.02539758
v 0.17066667 -0.00298613 -0.02539478
v 0.17066667 -0.00279816 -0.02539256
v 0.17066667 -0.00257166 -0.02539030
v 0.17066667 -0.00227305 -0.02538794
v 0.17066667 -0.00210693 -0.02538698
v 0.17066667 -0.00187614 -0.02538588
v 0.17066667 -0.00165586 -0.02538511
v 0.17066667 -0.00141640 -0.02538448
v 0.17066667 -0.00120841 -0.02538413
v 0.17066667 -0.00105049 -0.02538397
v 0.17066667 -0.00083047 -0.02538381
v 0.17066667 -0.00053611 -0.02538369
v 0.17066667 -0.00038108 -0.02538367
v 0.17066667 -0.00000323 -0.02538367
v 0.17125000 -0.00316955 -0.02552774
v 0.17125000 -0.00296674 -0.02552460
v 0.17125000 -0.00280551 -0.02552249
v 0.17125000 -0.00258483 -0.02552005
v 0.17125000 -0.00213691 -0.02551651
v 0.17125000 -0.00191167 -0.02551529
v 0.17125000 -0.00169058 -0.02551440
v 0.17125000 -0.00149071 -0.02551382
v 0.17125000 -0.00141854 -0.02551364
v 0.17125000 -0.00133139 -0.02551346
v 0.17125000 -0.00122955 -0.02551328
v 0.17125000 -0.00110655 -0.02551312
v 0.17125000 -0.00089837 -0.02551294
v 0.17125000 -0.00045683 -0.02551276
v 0.17125000 0.00002562 -0.02551276
v 0.17300000 -0.00311132 -0.02591888
v 0.17300000 -0.00291591 -0.02591504
v 0.17300000 -0.00273218 -0.02591193
v 0.17300000 -0.00265915 -0.02591089
v 0.17300000 -0.00258612 -0.02590985
v 0.17300000 -0.00198041 -0.02590387
v 0.17300000 -0.00177635 -0.02590265
v 0.17300000 -0.00157606 -0.02590173
v 0.17300000 -0.00139499 -0.02590112
v 0.17300000 -0.00125066 -0.02590076
v 0.17300000 -0.00114881 -0.02590057
v 0.17300000 -0.00104696 -0.02590039
v 0.17300000 -0.00045835 -0.02590002
v 0.17300000 0.00007023 -0.02590002
v 0.17300002 -0.00030403 -0.02590003
v 0.17300007 -0.00226747 -0.02590620
v 0.17300019 -0.00076018 -0.02590018
v 0.17300786 -0.00569803 -0.02601662
v 0.17416667 -0.00003648 -0.02619749
v 0.17436596 -0.00268122 -0.02626074
v 0.17454778 -0.00184233 -0.02629671
v 0.17475000 -0.00030386 -0.02634619
v 0.17475000 -0.00017967 -0.02634619
v 0.17475494 -0.00089489 -0.02634778
v 0.18005683 0.00275289 -0.03142500
f 1 57 50
f 50 2 1
f 17 57 1
f 1 2 17
f 46 51 57
f 57 51 55
f 51 46 55
f 57 17 32
f 32 46 57
f 57 55 56
f 56 55 54
f 2 50 33
f 52 33 50
f 52 50 57
f 57 56 53
f 53 52 57
f 6 7 2
f 14 13 30
f 2 13 14
f 24 23 40
f 9 23 24
f 46 45 47
f 47 55 46
f 54 55 47
f 47 45 54
f 41 24 40
f 40 53 41
f 2 11 12
f 12 13 2
f 49 14 30
f 49 44 56
f 49 56 54
f 54 45 49
f 2 4 5
f 5 6 2
f 3 4 2
f 2 18 3
f 38 48 53
f 7 6 38
f 6 48 38
f 33 52 34
f 2 33 34
f 34 18 2
f 52 53 37
f 53 48 37
f 8 23 9
f 2 7 8
f 8 9 2
f 9 24 10
f 10 11 2
f 2 9 10
f 24 41 10
f 42 41 53
f 42 53 56
f 28 12 11
f 13 12 29
f 30 13 29
f 29 28 44
f 12 28 29
f 29 49 30
f 44 49 29
f 15 45 31
f 15 49 45
f 14 49 15
f 31 16 15
f 15 16 2
f 2 14 15
f 21 48 6
f 6 5 21
f 39 53 40
f 39 38 53
f 40 23 39
f 35 34 52
f 18 34 35
f 35 3 18
f 20 37 48
f 48 21 20
f 20 21 5
f 20 5 4
f 11 10 25
f 25 10 41
f 27 28 11
f 42 28 27
f 44 28 43
f 43 28 42
f 56 44 43
f 43 42 56
f 23 8 22
f 22 39 23
f 22 8 7
f 7 38 22
f 38 39 22
f 52 37 36
f 36 35 52
f 41 42 26
f 26 25 41
f 11 25 26
f 26 27 11
f 42 27 26
f 35 36 19
f 4 3 19
f 3 35 19
f 19 36 37
f 19 20 4
f 37 20 19
f 32 31 45
f 46 32 45
f 16 31 32
f 16 32 17
f 16 17 2

