# https://github.com/mikedh/trimesh

o upper_neck_output_adapter_205.obj
v -0.00630794 0.03437165 -0.00989118
v -0.00869172 0.03437165 -0.00989118
v -0.00630794 0.03386838 -0.00989118
v -0.00630794 0.03437165 -0.01390810
v -0.00869172 0.03386838 -0.00989118
v -0.00869172 0.03437165 -0.01281687
v -0.00630794 0.03386838 -0.01390810
v -0.00675268 0.03437165 -0.01390810
v -0.00869172 0.03386838 -0.01279327
v -0.00869172 0.03386932 -0.01281687
v -0.00675268 0.03386838 -0.01390810
v -0.00869148 0.03386838 -0.01281687
f 1 2 5
f 1 5 3
f 1 3 7
f 1 7 4
f 1 4 8
f 1 8 6
f 1 6 2
f 2 6 10
f 2 10 9
f 2 9 5
f 3 5 9
f 3 9 12
f 3 12 11
f 3 11 7
f 4 7 11
f 4 11 8
f 6 8 11
f 6 11 10
f 9 10 12
f 10 11 12

