# https://github.com/mikedh/trimesh

o upper_grip_carrier_012.obj
v 0.09961029 -0.00244167 -0.02827499
v 0.10041544 0.00233750 -0.02827499
v 0.10122058 0.00400000 -0.02827499
v 0.10283087 -0.00732500 -0.02827499
v 0.10396637 0.00221792 -0.02827499
v 0.10400000 -0.00665000 -0.02827499
v 0.10400000 0.00000000 -0.02827499
v 0.09961029 -0.00244167 -0.02832499
v 0.10041544 0.00233750 -0.02832499
v 0.10122058 0.00400000 -0.02832499
v 0.10283087 -0.00732500 -0.02832499
v 0.10396637 0.00221792 -0.02832499
v 0.10400000 -0.00665000 -0.02832499
v 0.10400000 0.00000000 -0.02832499
f 3 5 10
f 10 5 12
f 11 4 1
f 1 8 11
f 6 4 11
f 11 13 6
f 7 2 1
f 1 4 7
f 7 4 6
f 3 2 7
f 7 5 3
f 1 2 9
f 9 8 1
f 9 2 3
f 3 10 9
f 8 9 14
f 14 10 12
f 14 11 8
f 13 11 14
f 14 9 10
f 12 5 14
f 5 7 14
f 6 13 14
f 14 7 6

