# https://github.com/mikedh/trimesh

o upper_neck_idler_fork_plate_087.obj
v 0.03761287 -0.04382665 0.05164030
v 0.03761287 -0.04721466 0.05164030
v 0.03761287 -0.04382665 0.05102559
v 0.03316629 -0.04382665 0.05164030
v 0.03761287 -0.04721466 0.05102559
v 0.03316629 -0.04721466 0.05164030
v 0.03693076 -0.04382665 0.05016477
v 0.03316629 -0.04382665 0.05016477
v 0.03693076 -0.04721466 0.05016477
v 0.03316629 -0.04721466 0.05016477
f 1 2 5
f 1 5 3
f 1 3 7
f 1 7 8
f 1 8 4
f 1 4 6
f 1 6 2
f 2 6 10
f 2 10 9
f 2 9 5
f 3 5 9
f 3 9 7
f 4 8 10
f 4 10 6
f 7 9 10
f 7 10 8

