# https://github.com/mikedh/trimesh

o upper_neck_bridge_014.obj
v 0.03271325 0.03674922 0.04741867
v 0.03170350 0.03674922 0.04741867
v 0.03271325 0.02875078 0.04741867
v 0.03271325 0.03674922 0.04426403
v 0.03170350 0.03674922 0.04352380
v 0.03170350 0.02875078 0.04741867
v 0.03271325 0.02875078 0.04426288
v 0.03231631 0.02875078 0.04352265
v 0.03231512 0.03674922 0.04352265
v 0.03170607 0.03674922 0.04352265
v 0.03170350 0.03674295 0.04352265
v 0.03170350 0.02875078 0.04352265
f 1 2 6
f 1 6 3
f 1 3 7
f 1 7 4
f 1 4 9
f 1 9 10
f 1 10 5
f 1 5 2
f 2 5 11
f 2 11 12
f 2 12 6
f 3 6 12
f 3 12 8
f 3 8 7
f 4 7 8
f 4 8 9
f 5 10 11
f 8 12 11
f 8 11 10
f 8 10 9

