# https://github.com/mikedh/trimesh

o upper_grip_cassette_pad_027.obj
v 0.11008976 0.00765866 -0.03129999
v 0.11012344 0.00770806 -0.03129999
v 0.11016071 0.00775480 -0.03129999
v 0.11020138 0.00779862 -0.03129999
v 0.11024520 0.00783929 -0.03129999
v 0.11029195 0.00787656 -0.03129999
v 0.11034134 0.00791024 -0.03129999
v 0.11039311 0.00794013 -0.03129999
v 0.11044698 0.00796607 -0.03129999
v 0.11050263 0.00798791 -0.03129999
v 0.11055976 0.00800553 -0.03129999
v 0.11061804 0.00801884 -0.03129999
v 0.11067716 0.00802775 -0.03129999
v 0.11073678 0.00803221 -0.03129999
v 0.11580000 0.00500000 -0.03129999
v 0.11580112 0.00502989 -0.03029999
v 0.11580671 0.00511940 -0.03029999
v 0.11581896 0.00520824 -0.03029999
v 0.11584558 0.00532481 -0.03029999
v 0.11586319 0.00538194 -0.03029999
v 0.11589491 0.00546583 -0.03029999
v 0.11594679 0.00557355 -0.03029999
v 0.11599260 0.00565066 -0.03029999
v 0.11604404 0.00572412 -0.03029999
v 0.11610082 0.00579353 -0.03029999
v 0.11614148 0.00583736 -0.03029999
v 0.11620647 0.00589917 -0.03029999
v 0.11629995 0.00597372 -0.03029999
v 0.11634934 0.00600740 -0.03029999
v 0.11645289 0.00606719 -0.03029999
v 0.11650675 0.00609312 -0.03029999
v 0.11658982 0.00612693 -0.03029999
v 0.11667519 0.00615443 -0.03029999
v 0.11679176 0.00618104 -0.03029999
v 0.11688060 0.00619330 -0.03029999
v 0.11694022 0.00619776 -0.03029999
v 0.11702989 0.00619888 -0.03029999
v 0.11711940 0.00619330 -0.03029999
v 0.11723764 0.00617547 -0.03029999
v 0.11729592 0.00616217 -0.03029999
v 0.11738194 0.00613681 -0.03029999
v 0.11746583 0.00610509 -0.03029999
v 0.11757356 0.00605321 -0.03029999
v 0.11762533 0.00602332 -0.03029999
v 0.11772412 0.00595596 -0.03029999
v 0.11777086 0.00591869 -0.03029999
v 0.11783736 0.00585851 -0.03029999
v 0.11789918 0.00579353 -0.03029999
v 0.11795596 0.00572412 -0.03029999
v 0.11800740 0.00565066 -0.03029999
v 0.11805321 0.00557355 -0.03029999
v 0.11809312 0.00549324 -0.03029999
v 0.11813681 0.00538194 -0.03029999
v 0.11815442 0.00532481 -0.03029999
v 0.11818104 0.00520824 -0.03029999
v 0.11818995 0.00514913 -0.03029999
v 0.11819776 0.00505978 -0.03029999
v 0.11820000 0.00500000 -0.03129999
v 0.12269656 0.00803221 -0.03129999
v 0.12275617 0.00802775 -0.03129999
f 1 15 16
f 58 16 15
f 57 58 60
f 60 56 57
f 16 58 57
f 1 16 17
f 17 18 1
f 1 18 19
f 1 21 22
f 22 23 1
f 60 59 38
f 20 21 1
f 1 19 20
f 60 38 39
f 37 38 59
f 37 59 14
f 37 14 36
f 60 43 44
f 60 41 42
f 42 43 60
f 55 56 60
f 60 51 52
f 52 53 60
f 60 46 47
f 47 48 60
f 60 48 49
f 24 3 2
f 23 24 2
f 1 23 2
f 25 3 24
f 27 5 4
f 27 4 26
f 32 9 31
f 34 13 12
f 40 41 60
f 60 39 40
f 45 46 60
f 60 44 45
f 60 53 54
f 54 55 60
f 50 51 60
f 60 49 50
f 9 32 10
f 10 32 33
f 10 33 11
f 13 34 35
f 4 3 25
f 26 4 25
f 6 5 27
f 27 28 6
f 11 33 34
f 34 12 11
f 6 28 29
f 29 7 6
f 10 15 1
f 60 58 10
f 10 58 15
f 10 59 60
f 14 59 10
f 1 2 10
f 8 9 10
f 10 7 8
f 4 5 10
f 10 3 4
f 10 5 6
f 10 13 14
f 11 12 10
f 10 2 3
f 6 7 10
f 12 13 10
f 14 13 35
f 36 14 35
f 30 52 51
f 26 25 30
f 16 57 30
f 30 37 36
f 30 22 21
f 30 57 56
f 30 17 16
f 30 54 53
f 21 20 30
f 36 35 30
f 30 42 41
f 18 17 30
f 30 19 18
f 30 24 23
f 23 22 30
f 30 32 31
f 41 40 30
f 56 55 30
f 30 47 46
f 30 20 19
f 51 50 30
f 30 27 26
f 30 39 38
f 38 37 30
f 30 44 43
f 43 42 30
f 46 45 30
f 53 52 30
f 48 47 30
f 30 49 48
f 30 25 24
f 28 27 30
f 33 32 30
f 30 34 33
f 30 40 39
f 30 45 44
f 55 54 30
f 30 50 49
f 30 29 28
f 30 35 34
f 30 9 8
f 31 9 30
f 8 7 30
f 7 29 30

