# https://github.com/mikedh/trimesh

o upper_grip_carrier_081.obj
v 0.12572323 -0.00536330 -0.03132499
v 0.12824126 -0.00144167 -0.03132499
v 0.13327733 -0.00640159 -0.03132499
v 0.13336017 0.00213386 -0.03132499
v 0.13398038 -0.00588272 -0.03132499
v 0.13403407 0.00193748 -0.03132499
v 0.12572323 -0.00536330 -0.03127499
v 0.12824126 -0.00144167 -0.03127499
v 0.13327733 -0.00640159 -0.03127499
v 0.13336017 0.00213386 -0.03127499
v 0.13398038 -0.00588272 -0.03127499
v 0.13403407 0.00193748 -0.03127499
f 12 5 6
f 11 5 12
f 1 3 9
f 9 7 1
f 3 5 9
f 9 5 11
f 1 2 4
f 4 3 1
f 6 5 4
f 4 5 3
f 8 2 1
f 1 7 8
f 11 12 10
f 10 9 11
f 7 9 10
f 10 8 7
f 10 12 6
f 6 4 10
f 10 4 2
f 2 8 10

