# https://github.com/mikedh/trimesh

o upper_grip_shell_099.obj
v 0.11310823 -0.02597079 -0.02379038
v 0.11390733 -0.02511273 -0.02557903
v 0.11391162 -0.02512328 -0.02556508
v 0.11418986 -0.02600973 -0.02005318
v 0.11434925 -0.02527730 -0.02535369
v 0.11493764 -0.02595853 -0.02017310
v 0.11562639 -0.02591169 -0.02049568
v 0.11679051 -0.02579719 -0.02295263
v 0.11700000 -0.02578306 -0.02287488
v 0.11700000 -0.02577811 -0.02297900
v 0.11736033 -0.02574038 -0.02308276
v 0.11748044 -0.02573809 -0.02291783
v 0.11748044 -0.02573731 -0.02293536
v 0.11759278 -0.02568151 -0.02366046
v 0.11772066 -0.02571617 -0.02292615
v 0.11772066 -0.02571503 -0.02295245
v 0.11772066 -0.02571384 -0.02297876
v 0.11772066 -0.02571258 -0.02300513
v 0.11772066 -0.02571127 -0.02303143
v 0.11772066 -0.02570994 -0.02305695
v 0.11772066 -0.02570855 -0.02308246
v 0.11772066 -0.02570709 -0.02310797
v 0.11790078 -0.02569376 -0.02303458
v 0.11790078 -0.02568979 -0.02311234
v 0.11790078 -0.02568838 -0.02313654
v 0.11808090 -0.02567249 -0.02311670
v 0.11808090 -0.02567118 -0.02313959
v 0.11819484 -0.02571684 -0.02060518
v 0.11826097 -0.02563487 -0.02337231
v 0.11844104 -0.02559923 -0.02359357
v 0.11918879 -0.02556006 -0.02307929
v 0.11999826 -0.02519918 -0.02498433
f 4 2 1
f 5 32 1
f 5 2 32
f 1 32 14
f 28 31 32
f 32 2 28
f 2 4 28
f 1 2 3
f 3 5 1
f 2 5 3
f 32 31 30
f 30 14 32
f 28 7 9
f 6 28 4
f 4 7 6
f 6 7 28
f 31 28 15
f 28 9 15
f 1 14 8
f 8 4 1
f 8 7 4
f 8 9 7
f 31 15 26
f 26 27 31
f 14 30 29
f 29 27 14
f 29 30 31
f 31 27 29
f 10 8 14
f 9 8 10
f 12 15 9
f 11 10 14
f 22 11 14
f 19 20 26
f 26 18 19
f 10 20 19
f 19 18 10
f 17 18 26
f 17 13 9
f 26 20 21
f 11 22 21
f 14 27 25
f 25 22 14
f 27 22 25
f 23 26 15
f 23 17 26
f 15 12 16
f 16 23 15
f 17 23 16
f 13 17 16
f 9 13 16
f 16 12 9
f 27 26 24
f 24 22 27
f 26 21 24
f 24 21 22
f 10 18 17
f 9 10 17
f 21 20 10
f 10 11 21

