# https://github.com/mikedh/trimesh

o upper_neck_output_fork_plate_114.obj
v -0.00935389 0.03675000 -0.01300543
v -0.00935389 0.04225000 -0.01300543
v -0.00691734 0.03675000 -0.01268048
v -0.00935389 0.03675000 -0.00846113
v -0.00691734 0.04225000 -0.01268048
v -0.00935389 0.04225000 -0.00846113
v -0.00691734 0.03675000 -0.00746352
v -0.00888399 0.03675000 -0.00746352
v -0.00691734 0.04225000 -0.00746352
v -0.00888399 0.04225000 -0.00746352
f 1 2 5
f 1 5 3
f 1 3 7
f 1 7 8
f 1 8 4
f 1 4 6
f 1 6 2
f 2 6 10
f 2 10 9
f 2 9 5
f 3 5 9
f 3 9 7
f 4 8 10
f 4 10 6
f 7 9 10
f 7 10 8

