# https://github.com/mikedh/trimesh

o upper_grip_carrier_051.obj
v 0.10458574 0.00921631 -0.02829999
v 0.11213480 0.00555223 -0.02829999
v 0.11564999 0.00500000 -0.03129999
v 0.11565378 0.00510089 -0.03129999
v 0.11566508 0.00520121 -0.03129999
v 0.11568385 0.00469960 -0.02829999
v 0.11568385 0.00530040 -0.03129999
v 0.11570998 0.00539792 -0.03129999
v 0.11574332 0.00549321 -0.03129999
v 0.11578369 0.00558574 -0.03129999
v 0.11583087 0.00567500 -0.03129999
v 0.11588458 0.00576048 -0.03129999
v 0.11594453 0.00584171 -0.03129999
v 0.11601038 0.00591823 -0.03129999
v 0.11608177 0.00598962 -0.03129999
v 0.11615829 0.00605547 -0.03129999
v 0.11623952 0.00611542 -0.03129999
v 0.11632500 0.00616913 -0.03129999
v 0.11641426 0.00621631 -0.03129999
v 0.11650679 0.00625668 -0.03129999
v 0.11660208 0.00629002 -0.03129999
v 0.11669960 0.00631615 -0.03129999
v 0.11679880 0.00633492 -0.03129999
v 0.11689911 0.00634623 -0.03129999
v 0.11700000 0.00635000 -0.03129999
v 0.11710089 0.00634623 -0.03129999
v 0.11720120 0.00633492 -0.03129999
v 0.11730040 0.00631615 -0.03129999
v 0.11739792 0.00629002 -0.03129999
v 0.11749321 0.00625668 -0.03129999
v 0.11758574 0.00621631 -0.03129999
v 0.11767500 0.00616913 -0.03129999
v 0.11776048 0.00611542 -0.03129999
v 0.11784171 0.00605547 -0.03129999
v 0.11791823 0.00598962 -0.03129999
v 0.11798962 0.00591823 -0.03129999
v 0.11805547 0.00584171 -0.03129999
v 0.11811542 0.00576048 -0.03129999
v 0.11816913 0.00567500 -0.03129999
v 0.11821631 0.00558574 -0.03129999
v 0.11825668 0.00549321 -0.03129999
v 0.11829002 0.00539792 -0.03129999
v 0.11831615 0.00530040 -0.03129999
v 0.11833492 0.00520121 -0.03129999
v 0.11834622 0.00510089 -0.03129999
v 0.11835001 0.00500000 -0.03129999
v 0.11835001 0.00500000 -0.02829999
v 0.11929287 0.01060815 -0.02829999
v 0.12270030 0.00823208 -0.02829999
f 1 3 2
f 2 3 6
f 33 48 49
f 6 3 46
f 1 48 24
f 44 43 49
f 41 40 49
f 49 36 35
f 48 33 32
f 32 31 48
f 30 29 48
f 48 31 30
f 25 24 48
f 48 26 25
f 48 29 28
f 49 46 45
f 45 44 49
f 49 43 42
f 42 41 49
f 34 33 49
f 49 35 34
f 49 40 39
f 39 38 49
f 37 36 49
f 49 38 37
f 27 26 48
f 48 28 27
f 1 7 5
f 1 9 8
f 8 7 1
f 1 14 13
f 13 12 1
f 10 9 1
f 22 21 1
f 20 19 1
f 1 21 20
f 15 14 1
f 1 19 18
f 18 17 1
f 4 3 1
f 1 5 4
f 1 12 11
f 11 10 1
f 1 24 23
f 23 22 1
f 1 17 16
f 16 15 1
f 1 2 47
f 47 48 1
f 49 48 47
f 47 2 6
f 49 47 46
f 46 47 6
f 40 41 16
f 16 46 3
f 16 8 9
f 29 30 16
f 33 34 16
f 16 28 29
f 19 20 16
f 16 42 43
f 16 32 33
f 24 25 16
f 26 27 16
f 9 10 16
f 43 44 16
f 16 45 46
f 16 35 36
f 16 39 40
f 31 32 16
f 16 30 31
f 16 25 26
f 36 37 16
f 16 18 19
f 16 13 14
f 16 11 12
f 14 15 16
f 44 45 16
f 41 42 16
f 16 34 35
f 38 39 16
f 16 37 38
f 16 27 28
f 16 5 7
f 7 8 16
f 12 13 16
f 3 4 16
f 21 22 16
f 16 20 21
f 16 23 24
f 17 18 16
f 16 4 5
f 10 11 16
f 22 23 16

