# https://github.com/mikedh/trimesh

o upper_neck_idler_fork_plate_015.obj
v 0.07971217 -0.04275000 0.07675687
v 0.07331387 -0.04275000 0.07504895
v 0.07971217 -0.04825000 0.07675687
v 0.07971217 -0.04275000 0.06661235
v 0.07331387 -0.04825000 0.07504895
v 0.07331387 -0.04275000 0.06556503
v 0.07971217 -0.04825000 0.06661235
v 0.07855716 -0.04275000 0.06632861
v 0.07331387 -0.04825000 0.06556503
v 0.07451711 -0.04275000 0.06561543
v 0.07855716 -0.04825000 0.06632861
v 0.07722738 -0.04275000 0.06600215
v 0.07451711 -0.04825000 0.06561543
v 0.07632417 -0.04641631 0.06587288
v 0.07722738 -0.04825000 0.06600215
f 1 2 5
f 1 5 3
f 1 3 7
f 1 7 4
f 1 4 8
f 1 8 12
f 1 12 10
f 1 10 6
f 1 6 2
f 2 6 9
f 2 9 5
f 3 5 9
f 3 9 13
f 3 13 15
f 3 15 11
f 3 11 7
f 4 7 11
f 4 11 8
f 6 10 13
f 6 13 9
f 8 11 15
f 8 15 12
f 10 12 14
f 10 14 13
f 12 15 14
f 13 14 15

