# https://github.com/mikedh/trimesh

o upper_grip_carrier_046.obj
v 0.11236432 -0.00201945 -0.03129999
v 0.11239199 -0.00517015 -0.03129999
v 0.11241038 -0.00527883 -0.03129999
v 0.11243020 -0.00539153 -0.03129999
v 0.11565126 -0.00496637 -0.03029999
v 0.11565755 -0.00486567 -0.03029999
v 0.11567134 -0.00476573 -0.03029999
v 0.11570127 -0.00463459 -0.03029999
v 0.11572109 -0.00457032 -0.03029999
v 0.11575677 -0.00447595 -0.03029999
v 0.11581514 -0.00435475 -0.03029999
v 0.11586668 -0.00426801 -0.03029999
v 0.11590457 0.00138610 -0.03129999
v 0.11592455 -0.00418537 -0.03029999
v 0.11598843 -0.00410727 -0.03029999
v 0.11603417 -0.00405797 -0.03029999
v 0.11610728 -0.00398843 -0.03029999
v 0.11621244 -0.00390456 -0.03029999
v 0.11626801 -0.00386667 -0.03029999
v 0.11638451 -0.00379942 -0.03029999
v 0.11644510 -0.00377023 -0.03029999
v 0.11653855 -0.00373221 -0.03029999
v 0.11663459 -0.00370127 -0.03029999
v 0.11676573 -0.00367133 -0.03029999
v 0.11686567 -0.00365754 -0.03029999
v 0.11693274 -0.00365252 -0.03029999
v 0.11703363 -0.00365126 -0.03029999
v 0.11713433 -0.00365754 -0.03029999
v 0.11726733 -0.00367759 -0.03029999
v 0.11733291 -0.00369256 -0.03029999
v 0.11742968 -0.00372109 -0.03029999
v 0.11752405 -0.00375678 -0.03029999
v 0.11764525 -0.00381514 -0.03029999
v 0.11770350 -0.00384877 -0.03029999
v 0.11781463 -0.00392454 -0.03029999
v 0.11786721 -0.00396648 -0.03029999
v 0.11794203 -0.00403418 -0.03029999
v 0.11801157 -0.00410727 -0.03029999
v 0.11807545 -0.00418537 -0.03029999
v 0.11813332 -0.00426801 -0.03029999
v 0.11813332 0.00144167 -0.03129999
v 0.11818486 -0.00435475 -0.03029999
v 0.11822977 -0.00444510 -0.03029999
v 0.11827891 -0.00457032 -0.03029999
v 0.11829873 -0.00463459 -0.03029999
v 0.11832866 -0.00476573 -0.03029999
v 0.11833868 -0.00483223 -0.03029999
v 0.11834748 -0.00493274 -0.03029999
v 0.11835001 -0.00500000 -0.03129999
f 49 41 48
f 48 4 49
f 5 4 48
f 2 5 1
f 16 13 1
f 3 4 5
f 5 2 3
f 41 13 26
f 1 5 6
f 6 7 1
f 1 7 8
f 1 12 14
f 1 10 11
f 11 12 1
f 9 10 1
f 1 8 9
f 15 16 1
f 1 14 15
f 13 16 17
f 17 18 13
f 13 18 19
f 13 23 24
f 13 21 22
f 22 23 13
f 20 21 13
f 13 19 20
f 25 26 13
f 13 24 25
f 41 45 46
f 41 43 44
f 44 45 41
f 41 37 38
f 42 43 41
f 41 40 42
f 41 26 27
f 27 28 41
f 41 28 29
f 41 34 35
f 41 31 32
f 47 48 41
f 41 46 47
f 39 40 41
f 41 38 39
f 30 31 41
f 41 29 30
f 36 37 41
f 41 35 36
f 33 34 41
f 41 32 33
f 3 41 49
f 1 13 3
f 49 4 3
f 3 13 41
f 3 2 1
f 33 11 10
f 5 48 33
f 40 39 33
f 33 44 43
f 33 6 5
f 10 9 33
f 16 15 33
f 33 22 21
f 7 6 33
f 33 8 7
f 33 14 12
f 12 11 33
f 33 17 16
f 21 20 33
f 26 25 33
f 43 42 33
f 33 9 8
f 33 15 14
f 18 17 33
f 33 19 18
f 33 24 23
f 23 22 33
f 33 32 31
f 33 38 37
f 33 27 26
f 31 30 33
f 33 20 19
f 33 25 24
f 33 46 45
f 45 44 33
f 48 47 33
f 33 42 40
f 28 27 33
f 33 29 28
f 33 35 34
f 37 36 33
f 33 47 46
f 33 39 38
f 33 30 29
f 33 36 35

