# https://github.com/mikedh/trimesh

o upper_neck_output_adapter_202.obj
v -0.00714468 0.03437185 -0.01865467
v -0.00714468 0.03467517 -0.01865467
v -0.00714468 0.03437185 -0.01476648
v -0.00803193 0.03437185 -0.01830621
v -0.00785949 0.03467517 -0.01837399
v -0.00716972 0.03566773 -0.01864421
v -0.00714468 0.03566773 -0.01865376
v -0.00813137 0.03566773 -0.01826708
v -0.00923973 0.03467517 -0.01400722
v -0.00923069 0.03437185 -0.01407545
v -0.00714468 0.03566773 -0.01476648
v -0.00822663 0.03437185 -0.01822932
v -0.00822663 0.03467517 -0.01822932
v -0.00822593 0.03566773 -0.01822932
v -0.01424755 0.03467517 -0.01400722
v -0.00923973 0.03566773 -0.01400722
v -0.01417662 0.03437185 -0.01407545
v -0.00981478 0.03437185 -0.01741547
v -0.00920218 0.03467517 -0.01772982
v -0.00846860 0.03566773 -0.01810559
v -0.01424755 0.03566773 -0.01400722
v -0.01326017 0.03467517 -0.01497028
v -0.01387971 0.03437185 -0.01436569
v -0.01410848 0.03437185 -0.01414233
v -0.01000113 0.03437185 -0.01731994
v -0.00966250 0.03467517 -0.01749372
v -0.00996288 0.03566773 -0.01733950
v -0.01355499 0.03566773 -0.01468232
v -0.01327338 0.03566773 -0.01495663
v -0.01324279 0.03467517 -0.01498711
v -0.01324487 0.03437185 -0.01498438
v -0.01000113 0.03467517 -0.01731994
v -0.01167411 0.03437185 -0.01623905
v -0.01167480 0.03467517 -0.01623905
v -0.01004632 0.03467517 -0.01729083
v -0.01000043 0.03566773 -0.01731994
v -0.01323236 0.03566773 -0.01499621
v -0.01323305 0.03467517 -0.01499576
v -0.01323305 0.03437185 -0.01499576
v -0.01170053 0.03437185 -0.01621812
v -0.01169566 0.03467517 -0.01622267
v -0.01167480 0.03566773 -0.01623905
v -0.01154964 0.03566773 -0.01632003
v -0.01009639 0.03566773 -0.01725807
v -0.01319689 0.03566773 -0.01502487
v -0.01310859 0.03467517 -0.01509584
v -0.01308981 0.03467517 -0.01511085
v -0.01306965 0.03437185 -0.01512632
v -0.01203638 0.03437185 -0.01595063
v -0.01252728 0.03437185 -0.01555940
v -0.01267539 0.03467517 -0.01544158
v -0.01183542 0.03566773 -0.01611122
v -0.01289095 0.03566773 -0.01526962
f 1 2 7
f 1 7 11
f 1 11 3
f 1 3 10
f 1 10 17
f 1 17 24
f 1 24 23
f 1 23 31
f 1 31 39
f 1 39 48
f 1 48 50
f 1 50 49
f 1 49 40
f 1 40 33
f 1 33 25
f 1 25 18
f 1 18 12
f 1 12 4
f 1 4 5
f 1 5 2
f 2 6 7
f 2 5 8
f 2 8 6
f 3 9 10
f 3 11 16
f 3 16 9
f 4 12 8
f 4 8 5
f 6 8 14
f 6 14 20
f 6 20 27
f 6 27 36
f 6 36 44
f 6 44 43
f 6 43 42
f 6 42 52
f 6 52 53
f 6 53 45
f 6 45 37
f 6 37 29
f 6 29 28
f 6 28 21
f 6 21 16
f 6 16 11
f 6 11 7
f 8 12 13
f 8 13 14
f 9 15 17
f 9 17 10
f 9 16 21
f 9 21 15
f 12 18 19
f 12 19 20
f 12 20 13
f 13 20 14
f 15 21 22
f 15 22 23
f 15 23 24
f 15 24 17
f 18 25 19
f 19 25 26
f 19 26 27
f 19 27 20
f 21 28 22
f 22 28 29
f 22 29 30
f 22 30 31
f 22 31 23
f 25 32 26
f 25 33 34
f 25 34 35
f 25 35 32
f 26 32 27
f 27 32 36
f 29 37 30
f 30 37 38
f 30 38 39
f 30 39 31
f 32 35 36
f 33 40 41
f 33 41 34
f 34 42 43
f 34 43 35
f 34 41 42
f 35 43 44
f 35 44 36
f 37 45 38
f 38 45 39
f 39 45 46
f 39 46 47
f 39 47 48
f 40 49 41
f 41 49 50
f 41 50 51
f 41 51 52
f 41 52 42
f 45 53 46
f 46 53 47
f 47 53 51
f 47 51 50
f 47 50 48
f 51 53 52

