# https://github.com/mikedh/trimesh

o upper_grip_carrier_038.obj
v 0.10839363 0.00144167 -0.02827499
v 0.11025294 -0.00125293 -0.02827499
v 0.11025294 0.00557793 -0.02827499
v 0.11211225 -0.00227696 -0.02827499
v 0.11583087 0.00432500 -0.02827499
v 0.10839363 0.00144167 -0.02832499
v 0.11025294 -0.00125293 -0.02832499
v 0.11025294 0.00557793 -0.02832499
v 0.11211225 -0.00227696 -0.02832499
v 0.11583087 0.00432500 -0.02832499
f 4 9 10
f 5 4 10
f 2 3 1
f 2 4 5
f 5 3 2
f 1 3 8
f 8 6 1
f 8 3 5
f 5 10 8
f 7 10 9
f 6 8 7
f 7 8 10
f 7 2 1
f 1 6 7
f 7 9 4
f 4 2 7

