# https://github.com/mikedh/trimesh

o upper_grip_shell_017.obj
v 0.08351235 -0.02199996 -0.02689517
v 0.08372219 -0.02416207 -0.02840618
v 0.08389038 -0.02200000 -0.02810321
v 0.08390126 -0.02375745 -0.02869512
v 0.08400398 -0.02450413 -0.02820578
v 0.08402483 -0.02448476 -0.02822406
v 0.08406683 -0.02444594 -0.02826019
v 0.08410913 -0.02440705 -0.02829578
v 0.08413043 -0.02438757 -0.02831332
v 0.08415173 -0.02436810 -0.02833087
v 0.08419463 -0.02432909 -0.02836542
v 0.08423784 -0.02429003 -0.02839954
v 0.08425959 -0.02427048 -0.02841635
v 0.08428134 -0.02425093 -0.02843317
v 0.08430325 -0.02423136 -0.02844974
v 0.08432516 -0.02421179 -0.02846631
v 0.08433927 -0.02250511 -0.02939677
v 0.08434724 -0.02419221 -0.02848264
v 0.08436931 -0.02417263 -0.02849896
v 0.08441376 -0.02413345 -0.02853113
v 0.08442255 -0.02361592 -0.02884482
v 0.08445853 -0.02409426 -0.02856287
v 0.08450362 -0.02405507 -0.02859412
v 0.08452628 -0.02403553 -0.02860950
v 0.08454895 -0.02401598 -0.02862488
v 0.08457162 -0.02399658 -0.02863989
v 0.08459428 -0.02397718 -0.02865491
v 0.08463962 -0.02393869 -0.02868433
v 0.08464607 -0.02354655 -0.02890729
v 0.08468497 -0.02390051 -0.02871307
v 0.08470764 -0.02388159 -0.02872711
v 0.08473032 -0.02386266 -0.02874115
v 0.08477567 -0.02382514 -0.02876862
v 0.08482103 -0.02378796 -0.02879553
v 0.08484371 -0.02376954 -0.02880865
v 0.08486639 -0.02375113 -0.02882178
v 0.08565451 -0.02314966 -0.02921243
v 0.08584947 -0.02085610 -0.03003760
v 0.08599351 -0.02132662 -0.02989740
v 0.08600578 -0.02132449 -0.02989886
v 0.08600829 -0.02036336 -0.03020156
v 0.08603746 -0.02148424 -0.02985016
v 0.08613754 -0.02179714 -0.02975720
v 0.08616209 -0.02179288 -0.02976013
v 0.08619925 -0.02178753 -0.02976416
v 0.08698956 -0.01761451 -0.02895811
v 0.08700000 -0.02200000 -0.02724194
v 0.08700000 -0.01720000 -0.02950000
v 0.08785073 -0.02129786 -0.03001677
v 0.08864457 -0.02305271 -0.02949086
v 0.09017860 -0.02049826 -0.03031939
f 1 5 47
f 51 48 46
f 46 47 51
f 46 48 1
f 1 47 46
f 51 47 50
f 50 47 5
f 2 5 1
f 41 48 51
f 41 17 48
f 3 2 1
f 1 48 3
f 17 2 3
f 48 17 3
f 43 50 17
f 17 50 37
f 50 36 37
f 4 2 17
f 17 41 38
f 6 50 5
f 6 7 50
f 5 2 6
f 2 7 6
f 8 9 50
f 50 7 8
f 2 9 8
f 8 7 2
f 21 4 17
f 49 38 41
f 49 41 51
f 51 50 49
f 42 43 17
f 17 38 42
f 29 37 36
f 36 21 29
f 17 37 29
f 29 21 17
f 38 49 45
f 45 49 50
f 4 21 32
f 50 43 44
f 44 45 50
f 23 22 4
f 50 22 23
f 4 28 27
f 27 28 50
f 35 21 36
f 35 34 21
f 35 36 50
f 50 34 35
f 30 28 4
f 50 28 30
f 21 34 33
f 33 32 21
f 33 34 50
f 50 32 33
f 50 9 10
f 10 11 50
f 10 9 2
f 2 11 10
f 50 11 12
f 12 11 2
f 20 22 50
f 50 19 20
f 4 22 20
f 2 4 20
f 20 19 2
f 43 42 39
f 39 42 38
f 38 45 40
f 45 44 40
f 40 39 38
f 4 25 24
f 24 23 4
f 24 25 50
f 50 23 24
f 26 25 4
f 4 27 26
f 50 25 26
f 26 27 50
f 4 32 31
f 31 30 4
f 31 32 50
f 50 30 31
f 13 14 50
f 50 12 13
f 2 14 13
f 13 12 2
f 50 14 15
f 15 16 50
f 15 14 2
f 2 16 15
f 18 19 50
f 50 16 18
f 2 19 18
f 18 16 2
f 43 39 40
f 40 44 43

