# https://github.com/mikedh/trimesh

o upper_neck_output_adapter_097.obj
v -0.01270730 0.03056314 -0.00189603
v -0.01272700 0.03177673 -0.00188841
v -0.01295430 0.03177673 -0.00178461
v -0.01295289 0.03025985 -0.00178461
v -0.01270730 0.03025985 -0.00189603
v -0.01270730 0.03056314 -0.01043369
v -0.01272700 0.03177673 -0.01043464
v -0.01277345 0.03228047 -0.00792715
v -0.01320904 0.03228047 -0.00624438
v -0.01778809 0.03177673 -0.00178365
v -0.01462843 0.03056314 -0.00178365
v -0.01383887 0.03025985 -0.00178365
v -0.01330616 0.03005461 -0.00178365
v -0.01309645 0.03005461 -0.00178461
v -0.01270730 0.03025985 -0.01043369
v -0.01309645 0.03025985 -0.01151268
v -0.01592185 0.03025985 -0.01151268
v -0.01706257 0.03177673 -0.01043178
v -0.01833347 0.03228047 -0.00792715
v -0.01897737 0.03228047 -0.00624438
v -0.01989641 0.03177673 -0.00178365
v -0.01989641 0.03005461 -0.00178365
v -0.01309645 0.03005461 -0.01151268
v -0.01632719 0.03025767 -0.01151268
v -0.01632719 0.03005461 -0.01151268
v -0.01706538 0.03056314 -0.01042702
v -0.01710198 0.03025985 -0.01036131
v -0.01762765 0.03056314 -0.00939660
v -0.01756713 0.03177673 -0.00950612
v -0.01801821 0.03177673 -0.00867663
v -0.01834754 0.03228047 -0.00789477
v -0.01924266 0.03025985 -0.00538823
v -0.01938059 0.03177673 -0.00493683
v -0.01940170 0.03177673 -0.00483397
v -0.01956778 0.03177673 -0.00401116
v -0.01977537 0.03177673 -0.00298169
v -0.01879299 0.03228047 -0.00683863
v -0.01880003 0.03056314 -0.00681863
v -0.01981197 0.03056314 -0.00262742
v -0.01982323 0.03025985 -0.00251314
v -0.01977537 0.03005461 -0.00298169
v -0.01706397 0.03005461 -0.01042607
v -0.01706538 0.03025985 -0.01042607
v -0.01740598 0.03005461 -0.00980324
v -0.01709494 0.03005461 -0.01037083
v -0.01801891 0.03005461 -0.00867759
v -0.01801891 0.03025985 -0.00867759
v -0.01804354 0.03177673 -0.00861664
v -0.01881410 0.03005461 -0.00677102
v -0.01938059 0.03005461 -0.00493587
v -0.01938059 0.03025985 -0.00493683
v -0.01941437 0.03056314 -0.00477303
v -0.01953963 0.03056314 -0.00415401
v -0.01968319 0.03025985 -0.00344357
v -0.01861284 0.03056314 -0.00726909
v -0.01879299 0.03005461 -0.00683863
v -0.01951711 0.03025985 -0.00426448
f 1 2 3
f 1 3 4
f 1 4 5
f 1 5 15
f 1 15 6
f 1 6 7
f 1 7 2
f 2 7 8
f 2 8 9
f 2 9 3
f 3 10 11
f 3 11 12
f 3 12 13
f 3 13 4
f 3 9 10
f 4 13 14
f 4 14 5
f 5 14 23
f 5 23 15
f 6 15 23
f 6 23 16
f 6 16 7
f 7 16 17
f 7 17 18
f 7 18 19
f 7 19 8
f 8 19 31
f 8 31 37
f 8 37 20
f 8 20 9
f 9 20 21
f 9 21 10
f 10 21 22
f 10 22 13
f 10 13 12
f 10 12 11
f 13 22 41
f 13 41 50
f 13 50 49
f 13 49 56
f 13 56 46
f 13 46 44
f 13 44 45
f 13 45 42
f 13 42 25
f 13 25 23
f 13 23 14
f 16 23 25
f 16 25 24
f 16 24 17
f 17 24 18
f 18 24 25
f 18 25 26
f 18 26 27
f 18 27 28
f 18 28 29
f 18 29 19
f 19 29 30
f 19 30 31
f 20 32 33
f 20 33 34
f 20 34 35
f 20 35 36
f 20 36 21
f 20 37 38
f 20 38 32
f 21 36 39
f 21 39 22
f 22 39 40
f 22 40 41
f 25 42 43
f 25 43 26
f 26 43 27
f 27 44 28
f 27 43 42
f 27 42 45
f 27 45 44
f 28 46 47
f 28 47 29
f 28 44 46
f 29 47 30
f 30 48 31
f 30 47 48
f 31 48 37
f 32 49 50
f 32 50 51
f 32 51 33
f 32 38 49
f 33 52 34
f 33 51 52
f 34 52 53
f 34 53 35
f 35 53 54
f 35 54 36
f 36 54 41
f 36 41 39
f 37 48 55
f 37 55 56
f 37 56 38
f 38 56 49
f 39 41 40
f 41 54 50
f 46 56 55
f 46 55 47
f 47 55 48
f 50 54 57
f 50 57 52
f 50 52 51
f 52 57 53
f 53 57 54

