# https://github.com/mikedh/trimesh

o upper_neck_stationary_idler_spider_033.obj
v -0.08468435 -0.02925000 0.08658715
v -0.08468435 -0.03124980 0.08658715
v -0.08471398 -0.02925000 0.08643407
v -0.08823004 -0.02925000 0.08658715
v -0.08823004 -0.03124980 0.08658715
v -0.08471398 -0.03124980 0.08643407
v -0.08476089 -0.02925000 0.08619283
v -0.08828753 -0.02925000 0.08649388
v -0.08823956 -0.02991680 0.08657220
v -0.08828753 -0.03124980 0.08649388
v -0.08476089 -0.03124980 0.08619283
v -0.08485435 -0.03058320 0.08587841
v -0.08490126 -0.02925000 0.08572139
v -0.08828753 -0.02925000 0.08256726
v -0.08828753 -0.03124980 0.08256726
v -0.08490126 -0.03124980 0.08572139
v -0.08499437 -0.02925000 0.08549354
v -0.08791931 -0.02925000 0.08268020
v -0.08791931 -0.03124980 0.08268020
v -0.08499437 -0.03124980 0.08549354
v -0.08508749 -0.02925000 0.08526608
v -0.08776835 -0.02991680 0.08274317
v -0.08746574 -0.02925000 0.08286949
v -0.08746574 -0.03124980 0.08286949
v -0.08508749 -0.03124980 0.08526608
v -0.08524056 -0.03058320 0.08497605
v -0.08531709 -0.02925000 0.08483123
v -0.08703262 -0.02925000 0.08310285
v -0.08717688 -0.02991680 0.08302493
v -0.08703262 -0.03124980 0.08310285
v -0.08531709 -0.03124980 0.08483123
v -0.08545288 -0.02925000 0.08462620
v -0.08682841 -0.02925000 0.08324019
v -0.08676034 -0.03058320 0.08328584
v -0.08682841 -0.03124980 0.08324019
v -0.08545288 -0.03124980 0.08462620
v -0.08558867 -0.02925000 0.08442156
v -0.08662455 -0.02925000 0.08337753
v -0.08662455 -0.03124980 0.08337753
v -0.08558867 -0.03124980 0.08442156
v -0.08574386 -0.02925000 0.08423070
v -0.08624575 -0.02925000 0.08369078
v -0.08649793 -0.03058320 0.08348182
v -0.08624575 -0.03124980 0.08369078
v -0.08574386 -0.03124980 0.08423070
v -0.08589940 -0.02925000 0.08403984
v -0.08613007 -0.03058320 0.08380727
v -0.08589940 -0.03124980 0.08403984
f 1 2 6
f 1 6 3
f 1 3 7
f 1 7 13
f 1 13 17
f 1 17 21
f 1 21 27
f 1 27 32
f 1 32 37
f 1 37 41
f 1 41 46
f 1 46 42
f 1 42 38
f 1 38 33
f 1 33 28
f 1 28 23
f 1 23 18
f 1 18 14
f 1 14 8
f 1 8 4
f 1 4 5
f 1 5 2
f 2 5 10
f 2 10 15
f 2 15 19
f 2 19 24
f 2 24 30
f 2 30 35
f 2 35 39
f 2 39 44
f 2 44 48
f 2 48 45
f 2 45 40
f 2 40 36
f 2 36 31
f 2 31 25
f 2 25 20
f 2 20 16
f 2 16 11
f 2 11 6
f 3 6 11
f 3 11 7
f 4 8 9
f 4 9 5
f 5 9 10
f 7 11 12
f 7 12 13
f 8 10 9
f 8 14 15
f 8 15 10
f 11 16 12
f 12 16 13
f 13 16 20
f 13 20 17
f 14 18 19
f 14 19 15
f 17 20 25
f 17 25 21
f 18 22 19
f 18 23 22
f 19 22 24
f 21 25 26
f 21 26 27
f 22 23 24
f 23 28 29
f 23 29 24
f 24 29 30
f 25 31 26
f 26 31 27
f 27 31 36
f 27 36 32
f 28 33 34
f 28 34 30
f 28 30 29
f 30 34 35
f 32 36 40
f 32 40 37
f 33 38 34
f 34 38 39
f 34 39 35
f 37 40 45
f 37 45 41
f 38 42 43
f 38 43 39
f 39 43 44
f 41 45 48
f 41 48 46
f 42 47 44
f 42 44 43
f 42 46 47
f 44 47 48
f 46 48 47

