# https://github.com/mikedh/trimesh

o upper_neck_output_fork_plate_120.obj
v 0.02333388 0.03781576 0.04974189
v 0.02451491 0.03781576 0.05126676
v 0.02333388 0.03888130 0.04974189
v 0.03685065 0.03781576 0.04974189
v 0.02451491 0.03888130 0.05126676
v 0.03845348 0.03781576 0.05126676
v 0.03685065 0.03888130 0.04974189
v 0.03845348 0.03781576 0.05126123
v 0.03845348 0.03888130 0.05126676
v 0.03845348 0.03888130 0.05126123
f 1 2 5
f 1 5 3
f 1 3 7
f 1 7 4
f 1 4 8
f 1 8 6
f 1 6 2
f 2 6 9
f 2 9 5
f 3 5 9
f 3 9 10
f 3 10 7
f 4 7 10
f 4 10 8
f 6 8 10
f 6 10 9

