# https://github.com/mikedh/trimesh

o upper_neck_output_fork_plate_107.obj
v 0.04006882 0.03959275 0.06024602
v 0.04006882 0.03888130 0.06024602
v 0.04006882 0.03959275 0.05173263
v 0.03647861 0.03959275 0.06024602
v 0.03647861 0.03888130 0.06024602
v 0.04006882 0.03888130 0.05173263
v 0.03686694 0.03959275 0.04989950
v 0.03647861 0.03959275 0.05101862
v 0.03647861 0.03888130 0.05102368
v 0.03686659 0.03888130 0.04989950
v 0.03686694 0.03946886 0.04989950
v 0.03647896 0.03959275 0.04989950
v 0.03647861 0.03890435 0.05101862
v 0.03647896 0.03888130 0.04989950
f 1 2 6
f 1 6 3
f 1 3 7
f 1 7 12
f 1 12 8
f 1 8 4
f 1 4 5
f 1 5 2
f 2 5 9
f 2 9 14
f 2 14 10
f 2 10 6
f 3 6 11
f 3 11 7
f 4 8 13
f 4 13 9
f 4 9 5
f 6 10 11
f 7 11 10
f 7 10 14
f 7 14 12
f 8 12 14
f 8 14 13
f 9 13 14

