# https://github.com/mikedh/trimesh

o upper_neck_distal_rear_spacer_inner_2_003.obj
v 0.04465178 -0.02360000 0.09192204
v 0.04462372 -0.02360000 0.09201309
v 0.04465178 -0.02260000 0.09192204
v 0.04768918 -0.02360000 0.09192204
v 0.04457105 -0.02326660 0.09227359
v 0.04462372 -0.02260000 0.09201309
v 0.04454487 -0.02360000 0.09240390
v 0.04768918 -0.02260000 0.09192204
v 0.04718799 -0.02360000 0.09331460
v 0.04454487 -0.02260000 0.09240390
v 0.04452492 -0.02360000 0.09260223
v 0.04453146 -0.02326660 0.09253612
v 0.04718799 -0.02260000 0.09331460
v 0.04451650 -0.02360000 0.09331460
v 0.04452492 -0.02260000 0.09260223
v 0.04450528 -0.02360000 0.09280057
v 0.04451650 -0.02260000 0.09331460
v 0.04450528 -0.02360000 0.09319928
v 0.04450528 -0.02260000 0.09280057
v 0.04450528 -0.02260000 0.09319928
f 1 2 6
f 1 6 3
f 1 3 8
f 1 8 4
f 1 4 9
f 1 9 14
f 1 14 18
f 1 18 16
f 1 16 11
f 1 11 7
f 1 7 2
f 2 5 6
f 2 7 5
f 3 6 10
f 3 10 15
f 3 15 19
f 3 19 20
f 3 20 17
f 3 17 13
f 3 13 8
f 4 8 13
f 4 13 9
f 5 7 10
f 5 10 6
f 7 11 12
f 7 12 10
f 9 13 17
f 9 17 14
f 10 12 15
f 11 16 19
f 11 19 15
f 11 15 12
f 14 17 20
f 14 20 18
f 16 18 20
f 16 20 19

