# https://github.com/mikedh/trimesh

o upper_neck_distal_rear_spacer_inner_0_001.obj
v 0.09539978 -0.02360000 0.08900187
v 0.09526712 -0.02293340 0.08901158
v 0.09539978 -0.02260000 0.08900187
v 0.09559927 -0.02360000 0.08900657
v 0.09520127 -0.02360000 0.08901659
v 0.09500227 -0.02360000 0.08903162
v 0.09500227 -0.02260000 0.08903162
v 0.09520127 -0.02260000 0.08901659
v 0.09559927 -0.02260000 0.08900657
v 0.09579875 -0.02360000 0.08901158
v 0.09480571 -0.02360000 0.08906608
v 0.09487107 -0.02326660 0.08905449
v 0.09480571 -0.02260000 0.08906608
v 0.09579875 -0.02260000 0.08901158
v 0.09599629 -0.02360000 0.08903632
v 0.09460964 -0.02360000 0.08910084
v 0.09460964 -0.02260000 0.08910084
v 0.09599629 -0.02260000 0.08903632
v 0.09619431 -0.02360000 0.08906138
v 0.09422530 -0.02360000 0.08920859
v 0.09422530 -0.02260000 0.08920859
v 0.09619431 -0.02260000 0.08906138
v 0.09648452 -0.02360000 0.08912715
v 0.09385511 -0.02360000 0.08935454
v 0.09385511 -0.02260000 0.08935454
v 0.09638892 -0.02260000 0.08910554
v 0.09658011 -0.02260000 0.08914908
v 0.09658011 -0.02360000 0.09219252
v 0.09350052 -0.02360000 0.08953620
v 0.09373707 -0.02293340 0.08941499
v 0.09350052 -0.02260000 0.08953620
v 0.09658011 -0.02260000 0.09219252
v 0.09441211 -0.02360000 0.09220097
v 0.09316544 -0.02360000 0.08975263
v 0.09316544 -0.02260000 0.08975263
v 0.09441211 -0.02260000 0.09220097
v 0.09159735 -0.02293340 0.09214272
v 0.09160516 -0.02360000 0.09210670
v 0.09285377 -0.02360000 0.09000132
v 0.09285377 -0.02260000 0.09000132
v 0.09160516 -0.02260000 0.09210670
v 0.09174173 -0.02360000 0.09163156
v 0.09271087 -0.02360000 0.09014038
v 0.09271087 -0.02260000 0.09014038
v 0.09174173 -0.02260000 0.09163156
v 0.09179294 -0.02326660 0.09150910
v 0.09181928 -0.02360000 0.09144771
v 0.09256796 -0.02360000 0.09027976
v 0.09256796 -0.02260000 0.09027976
v 0.09181928 -0.02260000 0.09144771
v 0.09189683 -0.02260000 0.09126417
v 0.09189683 -0.02360000 0.09126417
v 0.09231189 -0.02360000 0.09058514
v 0.09231189 -0.02260000 0.09058514
v 0.09208753 -0.02260000 0.09091400
v 0.09208753 -0.02360000 0.09091400
v 0.09219923 -0.02360000 0.09074926
v 0.09219923 -0.02260000 0.09074926
f 1 2 3
f 1 3 9
f 1 9 4
f 1 4 10
f 1 10 15
f 1 15 19
f 1 19 23
f 1 23 28
f 1 28 33
f 1 33 38
f 1 38 42
f 1 42 47
f 1 47 52
f 1 52 56
f 1 56 57
f 1 57 53
f 1 53 48
f 1 48 43
f 1 43 39
f 1 39 34
f 1 34 29
f 1 29 24
f 1 24 20
f 1 20 16
f 1 16 11
f 1 11 6
f 1 6 5
f 1 5 2
f 2 5 6
f 2 6 7
f 2 7 8
f 2 8 3
f 3 8 7
f 3 7 13
f 3 13 17
f 3 17 21
f 3 21 25
f 3 25 31
f 3 31 35
f 3 35 40
f 3 40 44
f 3 44 49
f 3 49 54
f 3 54 58
f 3 58 55
f 3 55 51
f 3 51 50
f 3 50 45
f 3 45 41
f 3 41 36
f 3 36 32
f 3 32 27
f 3 27 26
f 3 26 22
f 3 22 18
f 3 18 14
f 3 14 9
f 4 9 14
f 4 14 10
f 6 11 12
f 6 12 7
f 7 12 13
f 10 14 18
f 10 18 15
f 11 16 17
f 11 17 13
f 11 13 12
f 15 18 22
f 15 22 19
f 16 20 21
f 16 21 17
f 19 22 23
f 20 24 25
f 20 25 21
f 22 26 23
f 23 27 28
f 23 26 27
f 24 29 30
f 24 30 25
f 25 30 31
f 27 32 28
f 28 32 36
f 28 36 33
f 29 34 35
f 29 35 31
f 29 31 30
f 33 37 38
f 33 36 37
f 34 39 40
f 34 40 35
f 36 41 37
f 37 41 38
f 38 41 45
f 38 45 42
f 39 43 44
f 39 44 40
f 42 45 46
f 42 46 47
f 43 48 49
f 43 49 44
f 45 50 46
f 46 50 51
f 46 51 52
f 46 52 47
f 48 53 54
f 48 54 49
f 51 55 56
f 51 56 52
f 53 57 58
f 53 58 54
f 55 58 57
f 55 57 56

