# https://github.com/mikedh/trimesh

o upper_grip_shell_180.obj
v 0.13287629 0.01344833 -0.01801189
v 0.13358336 0.01038170 -0.01770001
v 0.13364213 0.01094971 -0.01770001
v 0.13371112 0.00972709 -0.01770001
v 0.13393764 0.01165161 -0.01819394
v 0.13402937 0.01167394 -0.01770001
v 0.13408446 0.01168806 -0.01770001
v 0.13413977 0.01170135 -0.01770001
v 0.13419527 0.01171381 -0.01770001
v 0.13425093 0.01172544 -0.01770001
v 0.13430678 0.01173623 -0.01770001
v 0.13436278 0.01174619 -0.01770001
v 0.13441893 0.01175531 -0.01770001
v 0.13447519 0.01176359 -0.01770001
v 0.13453159 0.01177102 -0.01770001
v 0.13458807 0.01177761 -0.01770001
v 0.13464467 0.01178335 -0.01770001
v 0.13470134 0.01178824 -0.01770001
v 0.13475807 0.01179229 -0.01770001
v 0.13481485 0.01179549 -0.01770001
v 0.13487169 0.01179783 -0.01770001
v 0.13492854 0.01179933 -0.01770001
v 0.13498541 0.01179997 -0.01770001
v 0.13504230 0.01179976 -0.01770001
v 0.13509915 0.01179871 -0.01770001
v 0.13512851 0.00961293 -0.01770001
v 0.13515601 0.01179680 -0.01770001
v 0.13521281 0.01179404 -0.01770001
v 0.13526958 0.01179043 -0.01770001
v 0.13529167 0.01581592 -0.01894304
v 0.13532628 0.01178597 -0.01770001
v 0.13538290 0.01178066 -0.01770001
v 0.13543945 0.01177450 -0.01770001
v 0.13549590 0.01176750 -0.01770001
v 0.13555223 0.01175966 -0.01770001
v 0.13560844 0.01175097 -0.01770001
v 0.13566452 0.01174145 -0.01770001
v 0.13572044 0.01173108 -0.01770001
v 0.13577620 0.01171988 -0.01770001
v 0.13583179 0.01170785 -0.01770001
v 0.13588719 0.01169498 -0.01770001
v 0.13594240 0.01168129 -0.01770001
v 0.13599739 0.01166677 -0.01770001
v 0.13605217 0.01165143 -0.01770001
v 0.13610670 0.01163527 -0.01770001
v 0.13616098 0.01161830 -0.01770001
v 0.13621501 0.01160052 -0.01770001
v 0.13623048 0.00955083 -0.01770001
v 0.13626877 0.01158193 -0.01770001
v 0.13632224 0.01156254 -0.01770001
v 0.13637541 0.01154235 -0.01770001
v 0.13642827 0.01152137 -0.01770001
v 0.13648082 0.01149960 -0.01770001
v 0.13653304 0.01147704 -0.01770001
v 0.13658490 0.01145370 -0.01770001
v 0.13663641 0.01142960 -0.01770001
v 0.13668758 0.01140472 -0.01770001
v 0.13673834 0.01137908 -0.01770001
v 0.13678873 0.01135268 -0.01770001
v 0.13683870 0.01132553 -0.01770001
v 0.13688828 0.01129764 -0.01770001
v 0.13693741 0.01126901 -0.01770001
v 0.13698613 0.01123965 -0.01770001
v 0.13703439 0.01120956 -0.01770001
v 0.13708220 0.01117875 -0.01770001
v 0.13712955 0.01114723 -0.01770001
v 0.13717641 0.01111500 -0.01770001
v 0.13722279 0.01108208 -0.01770001
v 0.13726868 0.01104846 -0.01770001
v 0.13731404 0.01101416 -0.01770001
v 0.13735890 0.01097919 -0.01770001
v 0.13740323 0.01094355 -0.01770001
v 0.13744702 0.01090725 -0.01770001
v 0.13749025 0.01087030 -0.01770001
v 0.13753294 0.01083271 -0.01770001
v 0.13757506 0.01079448 -0.01770001
v 0.13761659 0.01075562 -0.01770001
v 0.13765755 0.01071615 -0.01770001
v 0.13769789 0.01067607 -0.01770001
v 0.13773766 0.01063539 -0.01770001
v 0.13777678 0.01059412 -0.01770001
v 0.13781531 0.01055227 -0.01770001
v 0.13785320 0.01050984 -0.01770001
v 0.13789043 0.01046686 -0.01770001
v 0.13792703 0.01042332 -0.01770001
v 0.13796298 0.01037924 -0.01770001
v 0.13799826 0.01033462 -0.01770001
v 0.13803287 0.01028949 -0.01770001
v 0.13806679 0.01024384 -0.01770001
v 0.13810004 0.01019768 -0.01770001
v 0.13813258 0.01015104 -0.01770001
v 0.13816441 0.01010391 -0.01770001
v 0.13819556 0.01005631 -0.01770001
v 0.13822598 0.01000825 -0.01770001
v 0.13830214 0.00988040 -0.01932916
v 0.13887680 0.01004169 -0.01949654
v 0.13915107 0.01014566 -0.01957745
v 0.13939712 0.01030955 -0.01965285
v 0.14000000 0.01260035 -0.01995337
v 0.14010509 0.01642041 -0.02039730
f 100 95 30
f 48 95 94
f 1 30 5
f 5 30 95
f 26 95 48
f 100 30 67
f 4 5 95
f 95 26 4
f 4 2 1
f 1 5 4
f 1 6 7
f 100 94 99
f 99 98 100
f 94 98 99
f 97 98 94
f 100 98 97
f 71 72 100
f 100 67 68
f 68 69 100
f 3 7 6
f 1 2 3
f 3 6 1
f 96 95 100
f 100 97 96
f 96 94 95
f 96 97 94
f 42 30 1
f 100 69 70
f 70 71 100
f 1 7 8
f 100 72 73
f 100 75 76
f 82 83 100
f 100 78 79
f 79 80 100
f 93 94 100
f 90 91 100
f 85 86 100
f 87 88 100
f 100 86 87
f 29 31 1
f 37 38 1
f 30 46 47
f 47 49 30
f 51 52 30
f 30 54 55
f 30 52 53
f 53 54 30
f 66 67 30
f 30 62 63
f 63 64 30
f 30 57 58
f 58 59 30
f 61 62 30
f 13 14 1
f 1 12 13
f 1 10 11
f 11 12 1
f 9 10 1
f 1 8 9
f 74 75 100
f 100 73 74
f 77 78 100
f 100 76 77
f 100 80 81
f 81 82 100
f 100 91 92
f 92 93 100
f 100 88 89
f 89 90 100
f 100 83 84
f 84 85 100
f 1 14 15
f 15 16 1
f 17 18 1
f 1 16 17
f 21 22 1
f 1 20 21
f 1 18 19
f 19 20 1
f 1 27 28
f 28 29 1
f 1 22 23
f 23 24 1
f 25 27 1
f 1 24 25
f 1 31 32
f 32 33 1
f 34 35 1
f 1 33 34
f 1 35 36
f 36 37 1
f 1 38 39
f 39 40 1
f 41 42 1
f 1 40 41
f 45 46 30
f 30 44 45
f 30 42 43
f 43 44 30
f 30 49 50
f 50 51 30
f 56 57 30
f 30 55 56
f 30 64 65
f 65 66 30
f 30 59 60
f 60 61 30
f 60 68 67
f 48 94 60
f 60 26 48
f 75 74 60
f 52 51 60
f 2 4 60
f 60 28 27
f 60 63 62
f 60 4 26
f 60 92 91
f 72 71 60
f 60 70 69
f 60 3 2
f 60 8 7
f 60 79 78
f 88 87 60
f 18 17 60
f 60 36 35
f 69 68 60
f 42 41 60
f 60 53 52
f 7 3 60
f 62 61 60
f 60 73 72
f 83 82 60
f 94 93 60
f 60 89 88
f 60 84 83
f 31 29 60
f 27 25 60
f 38 37 60
f 71 70 60
f 60 47 46
f 60 50 49
f 67 66 60
f 60 58 57
f 14 13 60
f 60 11 10
f 10 9 60
f 60 76 75
f 78 77 60
f 80 79 60
f 60 81 80
f 91 90 60
f 86 85 60
f 60 87 86
f 60 15 14
f 22 21 60
f 60 19 18
f 60 23 22
f 60 32 31
f 35 34 60
f 60 39 38
f 46 45 60
f 49 47 60
f 60 43 42
f 60 55 54
f 54 53 60
f 57 56 60
f 64 63 60
f 59 58 60
f 60 65 64
f 60 13 12
f 12 11 60
f 60 9 8
f 60 74 73
f 60 77 76
f 82 81 60
f 93 92 60
f 90 89 60
f 85 84 60
f 16 15 60
f 60 17 16
f 60 21 20
f 20 19 60
f 29 28 60
f 24 23 60
f 60 25 24
f 33 32 60
f 60 34 33
f 37 36 60
f 40 39 60
f 60 41 40
f 60 45 44
f 44 43 60
f 51 50 60
f 60 56 55
f 66 65 60

