# https://github.com/mikedh/trimesh

o upper_grip_shell_132.obj
v 0.11578841 0.02530135 -0.01749378
v 0.11808465 0.02549858 -0.01871315
v 0.12052884 0.02528455 -0.01949725
v 0.12140980 0.02522098 -0.02003632
v 0.12167582 0.02522584 -0.02070227
v 0.12203383 0.02517345 -0.02080658
v 0.12307972 0.02494897 -0.02027044
v 0.12311134 0.02496607 -0.02053833
v 0.12367596 0.02371629 -0.01775233
v 0.12372148 0.02486382 -0.02062939
f 1 9 2
f 6 9 1
f 10 9 6
f 3 2 9
f 7 9 10
f 7 3 9
f 1 2 5
f 5 6 1
f 10 6 8
f 8 7 10
f 2 3 4
f 4 5 2
f 3 7 4
f 6 5 4
f 4 8 6
f 7 8 4

