# https://github.com/mikedh/trimesh

o usb_hub_hat_b_pcb_1_top_washer_000.obj
v -0.14536035 0.01003390 0.32590001
v -0.14532256 0.01000138 0.32556668
v -0.14530367 0.00998512 0.32540001
v -0.14530367 0.00998512 0.32590001
v -0.14524698 0.00993634 0.32540001
v -0.14524698 0.00993634 0.32590001
v -0.14512663 0.00984752 0.32540001
v -0.14512663 0.00984752 0.32590001
v -0.14506332 0.00980774 0.32540001
v -0.14506332 0.00980774 0.32590001
v -0.14500000 0.00976795 0.32540001
v -0.14500000 0.00976795 0.32590001
v -0.14499775 0.01012500 0.32540001
v -0.14499775 0.01012500 0.32590001
v -0.14489221 0.01005428 0.32540001
v -0.14489221 0.01005428 0.32590001
f 2 13 3
f 1 13 2
f 14 13 1
f 5 2 3
f 6 2 5
f 1 2 4
f 4 2 6
f 16 11 15
f 16 12 11
f 15 13 14
f 14 16 15
f 9 13 15
f 15 11 9
f 3 13 9
f 9 5 3
f 9 7 5
f 5 7 8
f 6 5 8
f 11 12 10
f 10 9 11
f 12 16 10
f 10 14 1
f 1 4 10
f 16 14 10
f 10 4 6
f 6 8 10
f 7 9 10
f 10 8 7

