# https://github.com/mikedh/trimesh

o wing_access_cover_left_046.obj
v -0.10879792 0.10753422 0.31554960
v -0.10879792 0.10347296 0.32952409
v -0.10879792 0.11002392 0.31738806
v -0.10812484 0.11060356 0.31639907
v -0.10674371 0.11154252 0.31559337
v -0.09864923 0.11313298 0.31554960
v -0.09093761 0.11313298 0.32952409
v -0.10853743 0.10662741 0.32947348
v -0.10862309 0.10715504 0.32796878
v -0.10879792 0.10966271 0.31910615
v -0.10785036 0.11041917 0.31819239
v -0.10672273 0.11129572 0.31703377
v -0.10556188 0.11203989 0.31650303
v -0.10404788 0.11293819 0.31608719
v -0.10325416 0.11312163 0.31739216
v -0.09683627 0.11310556 0.32915065
v -0.10717553 0.10756731 0.32912603
v -0.10259332 0.11002865 0.32924230
v -0.10859862 0.10779709 0.32619325
v -0.10874373 0.10914926 0.32137002
v -0.10754966 0.10784626 0.32780464
v -0.10768428 0.11003338 0.32032221
v -0.10666329 0.11100732 0.31863148
v -0.10551118 0.11170799 0.31835790
v -0.10436606 0.11245311 0.31776560
v -0.10293598 0.11301100 0.31875596
v -0.10222968 0.11297129 0.32054928
v -0.10006882 0.11306206 0.32436710
v -0.09804957 0.11302707 0.32765553
v -0.09848663 0.11229614 0.32901660
v -0.10537481 0.10862447 0.32899334
v -0.10639755 0.10839753 0.32808369
v -0.10038700 0.11131653 0.32895367
v -0.10406361 0.10931568 0.32904532
v -0.10855841 0.10872564 0.32330287
v -0.10721749 0.10850816 0.32646409
v -0.10832414 0.10843157 0.32473780
v -0.10740805 0.10969675 0.32224822
v -0.10636958 0.11045700 0.32161761
v -0.10656539 0.11075958 0.31997066
v -0.10543600 0.11147349 0.31961227
v -0.10429089 0.11215620 0.31935510
v -0.10120869 0.11297601 0.32259430
v -0.10418774 0.11191224 0.32062452
v -0.10284682 0.11222239 0.32219897
v -0.10255136 0.11189144 0.32390885
v -0.10128736 0.11236044 0.32456408
v -0.09922790 0.11297223 0.32603183
v -0.09990972 0.11210608 0.32750780
v -0.10393599 0.11000785 0.32735870
v -0.10546573 0.10935351 0.32684847
v -0.10157408 0.11128438 0.32733818
v -0.10704441 0.10943861 0.32386918
v -0.10653916 0.10921356 0.32549698
v -0.10606888 0.11016860 0.32326183
v -0.10513005 0.11098179 0.32222223
v -0.10531712 0.11123615 0.32086527
v -0.10401991 0.11164653 0.32199926
v -0.10426291 0.11100543 0.32378984
v -0.10213352 0.11157467 0.32562283
v -0.10382235 0.11071608 0.32547373
v -0.10083981 0.11203611 0.32629584
v -0.10273493 0.11075485 0.32707965
v -0.10564055 0.10990383 0.32491152
f 1 2 10
f 1 10 3
f 1 3 4
f 1 4 5
f 1 5 6
f 1 6 7
f 1 7 2
f 2 8 9
f 2 9 10
f 2 7 8
f 3 10 11
f 3 11 12
f 3 12 4
f 4 12 5
f 5 12 13
f 5 13 14
f 5 14 6
f 6 14 15
f 6 15 7
f 7 15 16
f 7 16 8
f 8 17 9
f 8 16 18
f 8 18 17
f 9 19 20
f 9 20 10
f 9 17 21
f 9 21 19
f 10 20 22
f 10 22 11
f 11 22 23
f 11 23 12
f 12 23 24
f 12 24 13
f 13 24 25
f 13 25 14
f 14 25 15
f 15 25 26
f 15 26 27
f 15 27 28
f 15 28 16
f 16 28 29
f 16 29 30
f 16 30 18
f 17 31 32
f 17 32 21
f 17 18 31
f 18 30 33
f 18 33 34
f 18 34 31
f 19 35 20
f 19 21 36
f 19 36 37
f 19 37 35
f 20 35 38
f 20 38 22
f 21 32 36
f 22 38 39
f 22 39 40
f 22 40 23
f 23 40 41
f 23 41 24
f 24 41 42
f 24 42 25
f 25 42 26
f 26 42 27
f 27 43 28
f 27 42 44
f 27 44 45
f 27 45 43
f 28 43 46
f 28 46 47
f 28 47 48
f 28 48 29
f 29 48 49
f 29 49 30
f 30 49 33
f 31 34 50
f 31 50 32
f 32 50 51
f 32 51 36
f 33 49 52
f 33 52 34
f 34 52 50
f 35 37 53
f 35 53 38
f 36 51 54
f 36 54 37
f 37 54 53
f 38 53 55
f 38 55 39
f 39 55 56
f 39 56 57
f 39 57 40
f 40 57 41
f 41 57 44
f 41 44 42
f 43 45 46
f 44 57 58
f 44 58 45
f 45 58 59
f 45 59 46
f 46 60 47
f 46 59 61
f 46 61 60
f 47 60 48
f 48 60 62
f 48 62 49
f 49 62 52
f 50 52 63
f 50 63 51
f 51 64 54
f 51 63 61
f 51 61 64
f 52 62 63
f 53 54 64
f 53 64 55
f 55 64 59
f 55 59 56
f 56 59 58
f 56 58 57
f 59 64 61
f 60 61 63
f 60 63 62

