# https://github.com/mikedh/trimesh

o wing_access_cover_left_024.obj
v 0.08160884 0.10379578 0.30826651
v 0.08158982 0.10384577 0.30671118
v 0.08056048 0.10463888 0.30782737
v 0.08057614 0.10456727 0.30937242
v 0.08127318 0.10328438 0.30967202
v 0.08155625 0.10387550 0.30514999
v 0.08054033 0.10468414 0.30627205
v 0.07941925 0.10553804 0.30758357
v 0.07943268 0.10545157 0.30953984
v 0.07090483 0.10873140 0.30975133
v 0.08015881 0.10182991 0.30975133
v 0.08150478 0.10388901 0.30358585
v 0.08050341 0.10470981 0.30471232
v 0.07939464 0.10558601 0.30583292
v 0.07821202 0.10648990 0.30694764
v 0.07815160 0.10645950 0.30911540
v 0.07699583 0.10734651 0.30896706
v 0.07536679 0.10854089 0.30920792
v 0.07549434 0.10855913 0.30534679
v 0.07546861 0.10856724 0.30378412
v 0.07017870 0.10873140 0.29474739
v 0.07920332 0.10194948 0.29513512
v 0.07946289 0.10196772 0.29689018
v 0.07971351 0.10199002 0.29902709
v 0.07985113 0.10200285 0.30057214
v 0.07995630 0.10200961 0.30210837
v 0.08003462 0.10200623 0.30363725
v 0.08009056 0.10199002 0.30516467
v 0.08142870 0.10388901 0.30202025
v 0.08044635 0.10471927 0.30314966
v 0.07818629 0.10652571 0.30539085
v 0.07933422 0.10561100 0.30368719
v 0.07814377 0.10654260 0.30383259
v 0.07698464 0.10741879 0.30728250
v 0.07696338 0.10746000 0.30572570
v 0.07549098 0.10854157 0.30690798
v 0.07692758 0.10748027 0.30416891
v 0.07687164 0.10748432 0.30260772
v 0.07541155 0.10856589 0.30222586
v 0.07532315 0.10855778 0.30066613
v 0.07520008 0.10854360 0.29910200
v 0.07472457 0.10851455 0.29537304
v 0.08012749 0.10407411 0.29504553
v 0.08118703 0.10386266 0.29886701
v 0.08132353 0.10387887 0.30044730
v 0.08036580 0.10471657 0.30158405
v 0.07925590 0.10561100 0.30192919
v 0.07808111 0.10654327 0.30226992
v 0.07679555 0.10747284 0.30104505
v 0.07669151 0.10744919 0.29947504
v 0.07655836 0.10741677 0.29790062
v 0.07504120 0.10852333 0.29753639
v 0.07630326 0.10735799 0.29562565
v 0.07746798 0.10642572 0.29535982
v 0.07864837 0.10551845 0.29549347
v 0.08043740 0.10424705 0.29676094
v 0.08011742 0.10468346 0.29843228
v 0.08025839 0.10470305 0.30001257
v 0.07915856 0.10559817 0.30036065
v 0.07799384 0.10653111 0.30070432
v 0.07787860 0.10650882 0.29913137
v 0.07772979 0.10647842 0.29755255
v 0.07886766 0.10555020 0.29720154
v 0.07902989 0.10557655 0.29878476
f 1 2 3
f 1 3 4
f 1 4 5
f 1 5 6
f 1 6 2
f 2 7 3
f 2 6 7
f 3 8 4
f 3 7 8
f 4 9 5
f 4 8 9
f 5 9 10
f 5 10 11
f 5 11 6
f 6 12 13
f 6 13 7
f 6 11 12
f 7 13 14
f 7 14 8
f 8 14 15
f 8 15 16
f 8 16 9
f 9 16 17
f 9 17 18
f 9 18 10
f 10 18 19
f 10 19 20
f 10 20 21
f 10 21 22
f 10 22 11
f 11 22 23
f 11 23 24
f 11 24 25
f 11 25 26
f 11 26 27
f 11 27 28
f 11 28 12
f 12 27 29
f 12 29 30
f 12 30 13
f 12 28 27
f 13 31 14
f 13 30 32
f 13 32 33
f 13 33 31
f 14 31 15
f 15 34 16
f 15 31 35
f 15 35 34
f 16 34 17
f 17 34 36
f 17 36 18
f 18 36 19
f 19 35 37
f 19 37 20
f 19 36 35
f 20 37 38
f 20 38 39
f 20 39 21
f 21 39 40
f 21 40 41
f 21 41 42
f 21 42 43
f 21 43 22
f 22 43 44
f 22 44 23
f 23 44 24
f 24 44 25
f 25 44 45
f 25 45 26
f 26 45 29
f 26 29 27
f 29 45 46
f 29 46 30
f 30 46 47
f 30 47 32
f 31 33 37
f 31 37 35
f 32 47 48
f 32 48 33
f 33 48 38
f 33 38 37
f 34 35 36
f 38 48 49
f 38 49 39
f 39 49 40
f 40 49 50
f 40 50 41
f 41 50 51
f 41 51 52
f 41 52 42
f 42 53 54
f 42 54 43
f 42 52 53
f 43 54 55
f 43 55 56
f 43 56 44
f 44 56 57
f 44 57 58
f 44 58 45
f 45 58 46
f 46 58 59
f 46 59 47
f 47 59 60
f 47 60 48
f 48 60 49
f 49 60 50
f 50 61 51
f 50 60 61
f 51 62 53
f 51 53 52
f 51 61 62
f 53 62 54
f 54 62 63
f 54 63 55
f 55 63 56
f 56 63 57
f 57 64 58
f 57 63 64
f 58 64 59
f 59 64 61
f 59 61 60
f 61 64 62
f 62 64 63

