# https://github.com/mikedh/trimesh

o wing_access_cover_right_063.obj
v -0.05505043 -0.12978293 0.32529302
v -0.05503656 -0.12946466 0.32631832
v -0.05631361 -0.12930053 0.32624789
v -0.05604031 -0.12966686 0.32519957
v -0.05528258 -0.12730747 0.32513862
v -0.05492921 -0.12170277 0.33897270
v -0.05492921 -0.12761939 0.33143804
v -0.05495739 -0.12804920 0.33034773
v -0.05502315 -0.12917449 0.32721089
v -0.05627470 -0.12892785 0.32739644
v -0.05743589 -0.12876191 0.32731789
v -0.05747615 -0.12913097 0.32617475
v -0.05750477 -0.12942113 0.32522666
v -0.05908061 -0.12914275 0.32517519
v -0.05949168 -0.12646146 0.32537564
v -0.05949303 -0.12052035 0.33897405
v -0.05904080 -0.12351267 0.33871536
v -0.05514884 -0.12418005 0.33870588
v -0.05492340 -0.12559278 0.33598484
v -0.05492340 -0.12713609 0.33259878
v -0.05604344 -0.12724309 0.33195950
v -0.05611411 -0.12769284 0.33082449
v -0.05617584 -0.12812355 0.32968542
v -0.05498468 -0.12847266 0.32921814
v -0.05500794 -0.12888070 0.32807230
v -0.05622907 -0.12853522 0.32854229
v -0.05738758 -0.12837473 0.32845560
v -0.05859753 -0.12857966 0.32723120
v -0.05854743 -0.12819882 0.32836350
v -0.05906630 -0.12885803 0.32610026
v -0.05949303 -0.12827861 0.32759690
v -0.05949303 -0.12742535 0.32995766
v -0.05949168 -0.12694476 0.33118206
v -0.05944651 -0.12631366 0.33271933
v -0.05937270 -0.12565535 0.33424035
v -0.05930426 -0.12509678 0.33547287
v -0.05923583 -0.12458083 0.33656183
v -0.05916023 -0.12404856 0.33764537
v -0.05761839 -0.12390983 0.33847021
v -0.05650908 -0.12404040 0.33858263
v -0.05522935 -0.12477579 0.33754107
v -0.05565966 -0.12525819 0.33645889
v -0.05577193 -0.12578139 0.33534014
v -0.05492340 -0.12612233 0.33487015
v -0.05492340 -0.12664281 0.33372837
v -0.05596337 -0.12677429 0.33308773
v -0.05723058 -0.12732379 0.33129041
v -0.05710891 -0.12663828 0.33297667
v -0.05717377 -0.12698647 0.33213286
v -0.05730796 -0.12781072 0.33001725
v -0.05848839 -0.12779712 0.32949174
v -0.05949303 -0.12783248 0.32886464
v -0.05839177 -0.12721498 0.33103984
v -0.05829963 -0.12671535 0.33229946
v -0.05820569 -0.12625109 0.33341550
v -0.05809968 -0.12576960 0.33452884
v -0.05798204 -0.12527088 0.33563811
v -0.05788587 -0.12488641 0.33646702
v -0.05778121 -0.12449016 0.33729457
v -0.05665848 -0.12461166 0.33743814
v -0.05678909 -0.12514484 0.33632886
v -0.05690763 -0.12565897 0.33521553
v -0.05587302 -0.12628736 0.33421596
v -0.05701364 -0.12615769 0.33409678
f 1 2 3
f 1 3 4
f 1 4 5
f 1 5 6
f 1 6 7
f 1 7 8
f 1 8 2
f 2 9 3
f 2 8 9
f 3 9 10
f 3 10 11
f 3 11 12
f 3 12 13
f 3 13 4
f 4 13 14
f 4 14 5
f 5 14 15
f 5 15 16
f 5 16 6
f 6 16 17
f 6 17 18
f 6 18 19
f 6 19 20
f 6 20 7
f 7 21 22
f 7 22 8
f 7 20 21
f 8 22 23
f 8 23 24
f 8 24 25
f 8 25 9
f 9 25 10
f 10 25 26
f 10 26 27
f 10 27 11
f 11 28 12
f 11 27 29
f 11 29 28
f 12 30 13
f 12 28 30
f 13 30 14
f 14 30 31
f 14 31 15
f 15 31 16
f 16 31 52
f 16 52 32
f 16 32 33
f 16 33 34
f 16 34 35
f 16 35 36
f 16 36 37
f 16 37 38
f 16 38 17
f 17 38 39
f 17 39 40
f 17 40 18
f 18 40 41
f 18 41 19
f 19 41 42
f 19 42 43
f 19 43 44
f 19 44 45
f 19 45 20
f 20 45 46
f 20 46 21
f 21 47 22
f 21 46 48
f 21 48 49
f 21 49 47
f 22 50 23
f 22 47 50
f 23 27 26
f 23 26 24
f 23 50 27
f 24 26 25
f 27 50 51
f 27 51 29
f 28 29 31
f 28 31 30
f 29 51 52
f 29 52 31
f 32 52 51
f 32 51 53
f 32 53 33
f 33 53 54
f 33 54 34
f 34 54 55
f 34 55 35
f 35 56 36
f 35 55 56
f 36 56 57
f 36 57 37
f 37 57 58
f 37 58 59
f 37 59 38
f 38 59 39
f 39 59 60
f 39 60 40
f 40 60 41
f 41 60 42
f 42 61 43
f 42 60 61
f 43 62 63
f 43 63 44
f 43 61 62
f 44 63 45
f 45 63 46
f 46 63 64
f 46 64 48
f 47 53 50
f 47 49 54
f 47 54 53
f 48 64 55
f 48 55 54
f 48 54 49
f 50 53 51
f 55 64 56
f 56 64 62
f 56 62 57
f 57 61 58
f 57 62 61
f 58 61 59
f 59 61 60
f 62 64 63

