# https://github.com/mikedh/trimesh

o wing_access_cover_right_033.obj
v -0.03783203 -0.11754220 0.34644509
v -0.03789666 -0.11125525 0.35451524
v -0.03787204 -0.11413063 0.35478695
v -0.03813053 -0.11985919 0.34726671
v -0.04135555 -0.12032437 0.34649440
v -0.05354784 -0.11666778 0.34668236
v -0.04004462 -0.11149228 0.35420074
v -0.03789973 -0.11314968 0.35595099
v -0.05354938 -0.11291887 0.35165584
v -0.03936145 -0.11331480 0.35573418
v -0.03948608 -0.11482839 0.35391973
v -0.03797974 -0.11528913 0.35338283
v -0.03803360 -0.11643875 0.35192848
v -0.03806437 -0.11749338 0.35055414
v -0.03881985 -0.11869892 0.34890624
v -0.04096165 -0.11884007 0.34865128
v -0.03997538 -0.11993110 0.34711411
v -0.04230490 -0.11930081 0.34794969
v -0.04324501 -0.12021162 0.34658839
v -0.05320164 -0.11937360 0.34702106
v -0.05352168 -0.11831986 0.34847635
v -0.04212795 -0.11172309 0.35387693
v -0.05336474 -0.11658522 0.35085655
v -0.05261080 -0.11538767 0.35250073
v -0.05145988 -0.11468902 0.35352241
v -0.04773634 -0.11429930 0.35429006
v -0.04768557 -0.11237025 0.35289991
v -0.04583457 -0.11215276 0.35324419
v -0.04398049 -0.11193526 0.35356986
v -0.04122322 -0.11352520 0.35544480
v -0.04308499 -0.11374092 0.35513774
v -0.04139401 -0.11501926 0.35363872
v -0.03968611 -0.11617775 0.35222809
v -0.04127092 -0.11704329 0.35106777
v -0.03982151 -0.11761145 0.35035874
v -0.04189408 -0.11807839 0.34967017
v -0.04605767 -0.11875396 0.34857126
v -0.04394818 -0.11907887 0.34820093
v -0.04570994 -0.11976154 0.34713924
v -0.04761171 -0.11988316 0.34686567
v -0.05198456 -0.11828701 0.34875085
v -0.05133064 -0.11953339 0.34705828
v -0.05280774 -0.11751291 0.34969623
v -0.05187994 -0.11639081 0.35131435
v -0.05081980 -0.11574897 0.35225322
v -0.04959811 -0.11450792 0.35391600
v -0.04836257 -0.11528380 0.35303390
v -0.04647926 -0.11507430 0.35339121
v -0.04587611 -0.11407559 0.35464365
v -0.04448209 -0.11390515 0.35489674
v -0.04533297 -0.11574897 0.35259471
v -0.04163097 -0.11607832 0.35230439
v -0.04379277 -0.11619373 0.35208387
v -0.04342504 -0.11730961 0.35064347
v -0.04587149 -0.11748627 0.35030849
v -0.04760094 -0.11885516 0.34835446
v -0.04831334 -0.11763453 0.34998840
v -0.04933039 -0.11964614 0.34709550
v -0.05057516 -0.11863323 0.34843913
v -0.05031359 -0.11771087 0.34972972
v -0.05044437 -0.11669441 0.35107894
v -0.04877955 -0.11623812 0.35180007
v -0.04708549 -0.11607832 0.35210248
v -0.04904112 -0.11855333 0.34868199
f 1 2 3
f 1 3 4
f 1 4 5
f 1 5 6
f 1 6 2
f 2 7 8
f 2 8 3
f 2 6 9
f 2 9 7
f 3 8 10
f 3 10 11
f 3 11 12
f 3 12 13
f 3 13 14
f 3 14 4
f 4 14 15
f 4 15 16
f 4 16 17
f 4 17 5
f 5 18 19
f 5 19 20
f 5 20 6
f 5 17 18
f 6 20 21
f 6 21 9
f 7 10 8
f 7 9 22
f 7 22 10
f 9 21 23
f 9 23 24
f 9 24 25
f 9 25 26
f 9 26 27
f 9 27 28
f 9 28 29
f 9 29 22
f 10 30 11
f 10 22 30
f 11 30 31
f 11 31 32
f 11 32 12
f 12 32 33
f 12 33 13
f 13 33 34
f 13 34 14
f 14 34 35
f 14 35 15
f 15 35 36
f 15 36 16
f 16 36 37
f 16 37 38
f 16 38 18
f 16 18 17
f 18 38 39
f 18 39 19
f 19 39 40
f 19 40 20
f 20 41 21
f 20 40 42
f 20 42 41
f 21 41 43
f 21 43 23
f 22 29 30
f 23 43 44
f 23 44 24
f 24 44 25
f 25 44 45
f 25 45 46
f 25 46 26
f 26 46 47
f 26 47 48
f 26 48 49
f 26 49 27
f 27 49 28
f 28 49 50
f 28 50 29
f 29 50 31
f 29 31 30
f 31 50 32
f 32 50 49
f 32 49 48
f 32 48 51
f 32 51 52
f 32 52 33
f 33 52 34
f 34 52 53
f 34 53 54
f 34 54 36
f 34 36 35
f 36 54 55
f 36 55 37
f 37 56 39
f 37 39 38
f 37 55 57
f 37 57 56
f 39 56 40
f 40 56 58
f 40 58 42
f 41 42 59
f 41 59 60
f 41 60 43
f 42 58 59
f 43 60 44
f 44 60 61
f 44 61 45
f 45 61 62
f 45 62 46
f 46 62 47
f 47 62 63
f 47 63 48
f 48 63 51
f 51 53 52
f 51 63 53
f 53 63 54
f 54 63 55
f 55 63 57
f 56 57 64
f 56 64 58
f 57 62 61
f 57 61 60
f 57 60 64
f 57 63 62
f 58 64 59
f 59 64 60

