# https://github.com/mikedh/trimesh

o wing_access_cover_right_030.obj
v 0.01947920 -0.11292312 0.35100255
v 0.01947920 -0.11194965 0.35588720
v 0.01928058 -0.11271111 0.35503549
v 0.01795477 -0.11287608 0.35503457
v 0.01716145 -0.11292312 0.35507877
v 0.01525178 -0.11292312 0.35527029
v 0.01367427 -0.11291903 0.35169864
v 0.01364859 -0.10682192 0.35852335
v 0.01947920 -0.10595889 0.35889257
v 0.01854662 -0.11213780 0.35580801
v 0.01947920 -0.11086643 0.35711734
v 0.01927887 -0.11143361 0.35650687
v 0.01755126 -0.11230209 0.35575001
v 0.01596976 -0.11292312 0.35520675
v 0.01655647 -0.11245206 0.35569292
v 0.01556055 -0.11258636 0.35563491
v 0.01455092 -0.11281336 0.35544984
v 0.01364859 -0.11282018 0.35547930
v 0.01364859 -0.10771903 0.35931152
v 0.01390485 -0.10857729 0.36010614
v 0.01881372 -0.10788332 0.36040815
v 0.01947920 -0.10796104 0.36024333
v 0.01809232 -0.11163948 0.35643689
v 0.01856260 -0.11101845 0.35707498
v 0.01947920 -0.10914583 0.35900030
v 0.01943696 -0.10992092 0.35817070
v 0.01921780 -0.11039879 0.35767532
v 0.01710495 -0.11179695 0.35637981
v 0.01611872 -0.11194011 0.35632088
v 0.01513193 -0.11206827 0.35626195
v 0.01389686 -0.11220393 0.35618829
v 0.01365544 -0.11170765 0.35676469
v 0.01364859 -0.11064079 0.35794327
v 0.01364859 -0.10948599 0.35917064
v 0.01509197 -0.10844027 0.36017980
v 0.01602284 -0.10831825 0.36023873
v 0.01695199 -0.10818463 0.36029674
v 0.01788286 -0.10803943 0.36035290
v 0.01449270 -0.10935511 0.35926456
v 0.01823956 -0.10882202 0.35949844
v 0.01932795 -0.10863251 0.35956381
v 0.01758493 -0.11118070 0.35701790
v 0.01798958 -0.11061012 0.35760258
v 0.01873325 -0.10941305 0.35881339
v 0.01835542 -0.11004090 0.35818174
v 0.01660727 -0.11132999 0.35695897
v 0.01563075 -0.11146565 0.35690004
v 0.01465308 -0.11158631 0.35684111
v 0.01388601 -0.11116911 0.35735214
v 0.01453208 -0.11059103 0.35794695
v 0.01382723 -0.11010498 0.35850861
v 0.01542985 -0.10923922 0.35932349
v 0.01636699 -0.10911174 0.35938334
v 0.01730299 -0.10897268 0.35944135
v 0.01495100 -0.10997477 0.35857951
v 0.01778754 -0.10956984 0.35875630
v 0.01702276 -0.11076282 0.35754457
v 0.01739945 -0.11019632 0.35812374
v 0.01605651 -0.11090393 0.35748565
v 0.01508969 -0.11103140 0.35742672
v 0.01548806 -0.11047173 0.35800588
v 0.01589671 -0.10985207 0.35863844
v 0.01684127 -0.10971709 0.35869737
v 0.01644461 -0.11034016 0.35806573
f 1 2 3
f 1 3 4
f 1 4 5
f 1 5 14
f 1 14 6
f 1 6 7
f 1 7 8
f 1 8 9
f 1 9 22
f 1 22 25
f 1 25 11
f 1 11 2
f 2 10 3
f 2 11 12
f 2 12 10
f 3 10 4
f 4 10 13
f 4 13 5
f 5 13 15
f 5 15 14
f 6 14 16
f 6 16 17
f 6 17 18
f 6 18 7
f 7 18 8
f 8 19 9
f 8 18 33
f 8 33 34
f 8 34 19
f 9 19 20
f 9 20 21
f 9 21 22
f 10 12 23
f 10 23 13
f 11 24 12
f 11 25 26
f 11 26 27
f 11 27 24
f 12 24 23
f 13 23 28
f 13 28 15
f 14 15 16
f 15 28 29
f 15 29 16
f 16 29 30
f 16 30 17
f 17 30 31
f 17 31 18
f 18 31 32
f 18 32 33
f 19 34 20
f 20 35 36
f 20 36 37
f 20 37 38
f 20 38 21
f 20 34 39
f 20 39 35
f 21 38 40
f 21 40 41
f 21 41 22
f 22 41 25
f 23 24 42
f 23 42 28
f 24 27 43
f 24 43 42
f 25 41 44
f 25 44 26
f 26 44 45
f 26 45 27
f 27 45 43
f 28 42 46
f 28 46 29
f 29 46 47
f 29 47 30
f 30 47 48
f 30 48 31
f 31 48 32
f 32 48 49
f 32 49 33
f 33 50 51
f 33 51 34
f 33 49 50
f 34 51 39
f 35 39 52
f 35 52 36
f 36 52 53
f 36 53 37
f 37 53 54
f 37 54 38
f 38 54 40
f 39 51 55
f 39 55 52
f 40 54 56
f 40 56 44
f 40 44 41
f 42 43 57
f 42 57 46
f 43 45 58
f 43 58 57
f 44 56 45
f 45 56 58
f 46 57 59
f 46 59 47
f 47 59 60
f 47 60 48
f 48 60 49
f 49 60 50
f 50 61 55
f 50 55 51
f 50 60 61
f 52 55 62
f 52 62 53
f 53 62 63
f 53 63 54
f 54 63 56
f 55 61 62
f 56 63 58
f 57 58 64
f 57 64 59
f 58 63 64
f 59 64 61
f 59 61 60
f 61 64 62
f 62 64 63

