# https://github.com/mikedh/trimesh

o wing_access_cover_right_051.obj
v -0.12007613 -0.09839532 0.31266423
v -0.12227429 -0.09725501 0.30927523
v -0.12155380 -0.09725501 0.31266423
v -0.12504493 -0.09839532 0.31266423
v -0.12183972 -0.09839532 0.30476406
v -0.12306500 -0.09725501 0.30557147
v -0.12299668 -0.09725501 0.30588470
v -0.12623794 -0.09725501 0.31266423
v -0.12594506 -0.09753786 0.31266423
v -0.12534792 -0.09812286 0.31254976
v -0.12508857 -0.09839532 0.31227057
v -0.12504493 -0.09839532 0.30588470
v -0.12596910 -0.09778721 0.30639281
v -0.12652259 -0.09725546 0.30685685
v -0.12653841 -0.09725501 0.30722343
v -0.12627083 -0.09725501 0.31235719
v -0.12529289 -0.09821528 0.31215302
v -0.12518788 -0.09834130 0.31185990
v -0.12517586 -0.09839141 0.31141443
v -0.12520560 -0.09839532 0.31100144
v -0.12536184 -0.09839532 0.30707804
v -0.12537006 -0.09837556 0.30614842
v -0.12570659 -0.09805510 0.30630078
v -0.12620189 -0.09757614 0.30666273
v -0.12652765 -0.09725501 0.30797207
v -0.12625502 -0.09753317 0.30698678
v -0.12612977 -0.09765372 0.30732397
v -0.12650235 -0.09728649 0.30764957
v -0.12629930 -0.09725501 0.31207722
v -0.12631764 -0.09727510 0.31166037
v -0.12610574 -0.09753674 0.31095813
v -0.12600832 -0.09764959 0.31067352
v -0.12590142 -0.09777159 0.31038737
v -0.12523406 -0.09839532 0.31058304
v -0.12576984 -0.09800543 0.30699142
v -0.12537449 -0.09838494 0.30664494
v -0.12535362 -0.09839532 0.30779187
v -0.12544723 -0.09831205 0.30733325
v -0.12582804 -0.09794639 0.30663952
v -0.12639419 -0.09737958 0.30828839
v -0.12651564 -0.09725501 0.30851731
v -0.12583816 -0.09793132 0.30765730
v -0.12612535 -0.09764858 0.30797594
v -0.12639292 -0.09725501 0.31094653
v -0.12628159 -0.09734353 0.31123500
v -0.12641316 -0.09725501 0.31065960
v -0.12526506 -0.09839532 0.31011513
v -0.12644858 -0.09725501 0.31008265
v -0.12578313 -0.09790196 0.31009889
v -0.12534286 -0.09839532 0.30828994
v -0.12563005 -0.09811973 0.30829071
v -0.12585398 -0.09789616 0.30859929
v -0.12606209 -0.09768575 0.30890246
v -0.12627716 -0.09746452 0.30923889
v -0.12650235 -0.09725501 0.30889937
v -0.12565282 -0.09804271 0.30980578
v -0.12528214 -0.09839532 0.30981583
v -0.12646566 -0.09726093 0.30965419
v -0.12649097 -0.09725501 0.30919944
v -0.12533464 -0.09839532 0.30860007
v -0.12532452 -0.09839532 0.30890633
v -0.12531250 -0.09839532 0.30923734
v -0.12551049 -0.09819373 0.30950957
f 1 2 3
f 1 3 8
f 1 8 9
f 1 9 4
f 1 4 11
f 1 11 20
f 1 20 34
f 1 34 47
f 1 47 57
f 1 57 62
f 1 62 61
f 1 61 60
f 1 60 50
f 1 50 37
f 1 37 21
f 1 21 12
f 1 12 5
f 1 5 6
f 1 6 7
f 1 7 2
f 2 7 6
f 2 6 15
f 2 15 25
f 2 25 41
f 2 41 55
f 2 55 59
f 2 59 48
f 2 48 46
f 2 46 44
f 2 44 29
f 2 29 16
f 2 16 8
f 2 8 3
f 4 9 10
f 4 10 11
f 5 12 13
f 5 13 6
f 6 13 14
f 6 14 15
f 8 16 9
f 9 16 17
f 9 17 10
f 10 17 11
f 11 17 18
f 11 18 19
f 11 19 20
f 12 21 22
f 12 22 13
f 13 22 23
f 13 23 24
f 13 24 14
f 14 24 15
f 15 24 26
f 15 26 27
f 15 27 28
f 15 28 25
f 16 29 17
f 17 29 30
f 17 30 19
f 17 19 18
f 19 31 20
f 19 30 31
f 20 31 32
f 20 32 33
f 20 33 34
f 21 35 36
f 21 36 22
f 21 37 38
f 21 38 35
f 22 36 23
f 23 36 39
f 23 39 24
f 24 39 26
f 25 28 40
f 25 40 41
f 26 35 27
f 26 39 35
f 27 35 42
f 27 42 43
f 27 43 28
f 28 43 40
f 29 44 30
f 30 45 31
f 30 44 45
f 31 45 44
f 31 44 46
f 31 46 32
f 32 46 33
f 33 47 34
f 33 46 48
f 33 48 49
f 33 49 47
f 35 38 42
f 35 39 36
f 37 50 51
f 37 51 42
f 37 42 38
f 40 43 52
f 40 52 53
f 40 53 41
f 41 53 54
f 41 54 55
f 42 51 43
f 43 51 52
f 47 49 56
f 47 56 57
f 48 58 49
f 48 59 58
f 49 58 54
f 49 54 56
f 50 60 51
f 51 60 52
f 52 60 61
f 52 61 53
f 53 61 62
f 53 62 63
f 53 63 54
f 54 63 56
f 54 58 59
f 54 59 55
f 56 63 57
f 57 63 62

