# https://github.com/mikedh/trimesh

o wing_access_cover_left_232.obj
v -0.11786042 0.10083696 0.30765499
v -0.11786042 0.10112664 0.30587522
v -0.11587777 0.10186853 0.30918524
v -0.11748043 0.10083696 0.30918524
v -0.11786042 0.10083696 0.30918524
v -0.11786042 0.10382294 0.30587522
v -0.11587777 0.10242656 0.30587522
v -0.11587777 0.10382294 0.30918524
v -0.11786042 0.10382236 0.30918524
v -0.11587777 0.10382294 0.30587522
v -0.11786042 0.10382294 0.30911783
v -0.11682077 0.10382294 0.30918524
f 1 2 3
f 1 3 4
f 1 4 5
f 1 5 9
f 1 9 11
f 1 11 6
f 1 6 2
f 2 6 10
f 2 10 7
f 2 7 3
f 3 8 12
f 3 12 9
f 3 9 5
f 3 5 4
f 3 7 10
f 3 10 8
f 6 11 12
f 6 12 8
f 6 8 10
f 9 12 11

