DBRep_DrawableShape

CASCADE Topology V3, (c) Open Cascade
Locations 10
1
0.939692620785908               0 0.342020143325669             190 
              0               1               0               0 
-0.342020143325669               0 0.939692620785908           604.5 
1
              1               0               0              -0 
              0               1               0              -0 
              0               0               1          -0.785 
1
2.22044604925031e-16               0               1               0 
              0               1               0               0 
             -1               0 2.22044604925031e-16               0 
1
              1               0               0          -0.785 
              0               1               0               0 
              0               0               1               0 
2  2 1 3 1 4 1 0
1
              1               0               0              -0 
              0               1               0              -0 
              0               0               1            -1.5 
1
2.22044604925031e-16               0               1               0 
              0               1               0               0 
             -1               0 2.22044604925031e-16               0 
1
              1               0               0          -0.785 
              0               1               0               0 
              0               0               1               0 
2  6 1 7 1 8 1 0
2  8 -1 7 -1 6 -1 0
Curve2ds 12
1 0 1.5700000000000001 1 0 
2 0 0 1 0 -0 1 2.75
1 6.2831853071795862 -0 0 1 
1 0 -0 0 1 
1 0 0 1 0 
2 0 0 1 0 -0 1 2.75
2 -2.4651903288156619e-32 0 1 0 -0 1 1.5
1 0 2.2850000000000001 1 0 
2 -2.4651903288156619e-32 0 1 0 -0 1 1.5
1 0 0.71500000000000008 1 0 
1 6.2831853071795862 -0 0 1 
1 0 -0 0 1 
Curves 6
2 0 0 1.5700000000000001 0 0 1 1 0 -0 -0 1 0 2.75
1 2.75 -6.735557395310443e-16 0 0 0 1 
2 0 0 0 0 0 1 1 0 -0 -0 1 0 2.75
2 0 0 1.7430501486614961e-16 1 0 2.2204460492503131e-16 2.2204460492503131e-16 0 -1 -0 1 0 1.5
2 -1.5700000000000001 0 -1.7430501486614956e-16 1 0 2.2204460492503131e-16 2.2204460492503131e-16 0 -1 -0 1 0 1.5
1 1.5 -3.6739403974420594e-16 0 0 0 1 
Polygon3D 0
PolygonOnTriangulations 0
Surfaces 4
2 0 0 0 0 0 1 1 0 -0 -0 1 0 2.75
1 0 0 1.5700000000000001 0 0 1 1 0 -0 -0 1 0 
1 0 0 0 0 0 1 1 0 -0 -0 1 0 
2 0 0 0 0 0 1 1 0 -0 -0 1 0 1.5
Triangulations 0

TShapes 22
Ve
1e-07
2.75 -6.73555739531044e-16 1.57
0 0

0101101
*
Ed
 1e-07 1 1 0
1  1 0 0 6.28318530717959
2  1 1 0 0 6.28318530717959
2  2 2 0 0 6.28318530717959
0

0101000
+22 0 -22 0 *
Ve
1e-07
2.75 -6.73555739531044e-16 0
0 0

0101101
*
Ed
 1e-07 1 1 0
1  2 0 0 1.57
3  3 4CN 1 0 0 1.57
0

0101000
-22 0 +20 0 *
Ed
 1e-07 1 1 0
1  3 0 0 6.28318530717959
2  5 1 0 0 6.28318530717959
2  6 3 0 0 6.28318530717959
0

0101000
+20 0 -20 0 *
Wi

0101100
-21 0 +19 0 +18 0 -19 0 *
Fa
0  1e-07 1 0

0111000
+17 0 *
Wi

0101100
+21 5 *
Ve
1.00000000443405e-07
4.44089209850063e-16 -3.67394039744206e-16 -1.5
0 0

0101101
*
Ed
 1e-07 1 1 0
1  4 0 0 6.28318530717959
2  7 2 5 0 6.28318530717959
2  8 4 9 0 6.28318530717959
0

0101100
+14 0 -14 0 *
Wi

0101100
-13 0 *
Fa
0  1e-07 2 5

0101000
+15 0 +12 0 *
Wi

0101100
+18 5 *
Ve
1.00000000367394e-07
-1.57 -3.67394039744206e-16 -1.5
0 0

0101101
*
Ed
 1e-07 1 1 0
1  5 0 0 6.28318530717959
2  9 3 5 0 6.28318530717959
2  10 4 9 0 6.28318530717959
0

0101100
+9 0 -9 0 *
Wi

0101100
-8 0 *
Fa
0  1e-07 3 5

0101000
+10 0 +7 0 *
Ed
 1e-07 1 1 0
1  6 0 0.715 2.285
3  11 12CN 4 0 0.715 2.285
0

0101000
+9 10 -14 10 *
Wi

0101100
-13 0 +5 9 +8 0 -5 9 *
Fa
0  1e-07 4 9

0101000
+4 0 *
Sh

0101100
+16 5 +11 0 -6 0 -3 0 *
So

0100000
+2 0 *

+1 1 