# Editable closed quad source; millimetres
v -12.077350269 69.922649731 32.172649731
v -12.207106781 69.792893219 32.750000000
v -12.207106781 69.792893219 33.750000000
v -12.207106781 69.792893219 34.750000000
v -12.207106781 69.792893219 35.750000000
v -12.207106781 69.792893219 36.750000000
v -12.077350269 69.922649731 37.327350269
v -12.166666667 70.166666667 32.083333333
v -12.394427191 70.052786405 32.750000000
v -12.394427191 70.052786405 33.750000000
v -12.394427191 70.052786405 34.750000000
v -12.394427191 70.052786405 35.750000000
v -12.394427191 70.052786405 36.750000000
v -12.166666667 70.166666667 37.416666667
v -12.207106781 70.500000000 32.042893219
v -12.500000000 70.500000000 32.750000000
v -12.500000000 70.500000000 33.750000000
v -12.500000000 70.500000000 34.750000000
v -12.500000000 70.500000000 35.750000000
v -12.500000000 70.500000000 36.750000000
v -12.207106781 70.500000000 37.457106781
v -12.207106781 71.000000000 32.042893219
v -12.500000000 71.000000000 32.750000000
v -12.500000000 71.000000000 33.750000000
v -12.500000000 71.000000000 34.750000000
v -12.500000000 71.000000000 35.750000000
v -12.500000000 71.000000000 36.750000000
v -12.207106781 71.000000000 37.457106781
v -12.207106781 71.500000000 32.042893219
v -12.500000000 71.500000000 32.750000000
v -12.500000000 71.500000000 33.750000000
v -12.500000000 71.500000000 34.750000000
v -12.500000000 71.500000000 35.750000000
v -12.500000000 71.500000000 36.750000000
v -12.207106781 71.500000000 37.457106781
v -12.166666667 71.833333333 32.083333333
v -12.394427191 71.947213595 32.750000000
v -12.394427191 71.947213595 33.750000000
v -12.394427191 71.947213595 34.750000000
v -12.394427191 71.947213595 35.750000000
v -12.394427191 71.947213595 36.750000000
v -12.166666667 71.833333333 37.416666667
v -12.077350269 72.077350269 32.172649731
v -12.207106781 72.207106781 32.750000000
v -12.207106781 72.207106781 33.750000000
v -12.207106781 72.207106781 34.750000000
v -12.207106781 72.207106781 35.750000000
v -12.207106781 72.207106781 36.750000000
v -12.077350269 72.077350269 37.327350269
v -1.922649731 69.922649731 32.172649731
v -1.792893219 69.792893219 32.750000000
v -1.792893219 69.792893219 33.750000000
v -1.792893219 69.792893219 34.750000000
v -1.792893219 69.792893219 35.750000000
v -1.792893219 69.792893219 36.750000000
v -1.922649731 69.922649731 37.327350269
v -1.833333333 70.166666667 32.083333333
v -1.605572809 70.052786405 32.750000000
v -1.605572809 70.052786405 33.750000000
v -1.605572809 70.052786405 34.750000000
v -1.605572809 70.052786405 35.750000000
v -1.605572809 70.052786405 36.750000000
v -1.833333333 70.166666667 37.416666667
v -1.792893219 70.500000000 32.042893219
v -1.500000000 70.500000000 32.750000000
v -1.500000000 70.500000000 33.750000000
v -1.500000000 70.500000000 34.750000000
v -1.500000000 70.500000000 35.750000000
v -1.500000000 70.500000000 36.750000000
v -1.792893219 70.500000000 37.457106781
v -1.792893219 71.000000000 32.042893219
v -1.500000000 71.000000000 32.750000000
v -1.500000000 71.000000000 33.750000000
v -1.500000000 71.000000000 34.750000000
v -1.500000000 71.000000000 35.750000000
v -1.500000000 71.000000000 36.750000000
v -1.792893219 71.000000000 37.457106781
v -1.792893219 71.500000000 32.042893219
v -1.500000000 71.500000000 32.750000000
v -1.500000000 71.500000000 33.750000000
v -1.500000000 71.500000000 34.750000000
v -1.500000000 71.500000000 35.750000000
v -1.500000000 71.500000000 36.750000000
v -1.792893219 71.500000000 37.457106781
v -1.833333333 71.833333333 32.083333333
v -1.605572809 71.947213595 32.750000000
v -1.605572809 71.947213595 33.750000000
v -1.605572809 71.947213595 34.750000000
v -1.605572809 71.947213595 35.750000000
v -1.605572809 71.947213595 36.750000000
v -1.833333333 71.833333333 37.416666667
v -1.922649731 72.077350269 32.172649731
v -1.792893219 72.207106781 32.750000000
v -1.792893219 72.207106781 33.750000000
v -1.792893219 72.207106781 34.750000000
v -1.792893219 72.207106781 35.750000000
v -1.792893219 72.207106781 36.750000000
v -1.922649731 72.077350269 37.327350269
v -10.666666667 69.792893219 32.042893219
v -10.666666667 69.500000000 32.750000000
v -10.666666667 69.500000000 33.750000000
v -10.666666667 69.500000000 34.750000000
v -10.666666667 69.500000000 35.750000000
v -10.666666667 69.500000000 36.750000000
v -10.666666667 69.792893219 37.457106781
v -8.833333333 69.792893219 32.042893219
v -8.833333333 69.500000000 32.750000000
v -8.833333333 69.500000000 33.750000000
v -8.833333333 69.500000000 34.750000000
v -8.833333333 69.500000000 35.750000000
v -8.833333333 69.500000000 36.750000000
v -8.833333333 69.792893219 37.457106781
v -7.000000000 69.792893219 32.042893219
v -7.000000000 69.500000000 32.750000000
v -7.000000000 69.500000000 33.750000000
v -7.000000000 69.500000000 34.750000000
v -7.000000000 69.500000000 35.750000000
v -7.000000000 69.500000000 36.750000000
v -7.000000000 69.792893219 37.457106781
v -5.166666667 69.792893219 32.042893219
v -5.166666667 69.500000000 32.750000000
v -5.166666667 69.500000000 33.750000000
v -5.166666667 69.500000000 34.750000000
v -5.166666667 69.500000000 35.750000000
v -5.166666667 69.500000000 36.750000000
v -5.166666667 69.792893219 37.457106781
v -3.333333333 69.792893219 32.042893219
v -3.333333333 69.500000000 32.750000000
v -3.333333333 69.500000000 33.750000000
v -3.333333333 69.500000000 34.750000000
v -3.333333333 69.500000000 35.750000000
v -3.333333333 69.500000000 36.750000000
v -3.333333333 69.792893219 37.457106781
v -10.666666667 72.207106781 32.042893219
v -10.666666667 72.500000000 32.750000000
v -10.666666667 72.500000000 33.750000000
v -10.666666667 72.500000000 34.750000000
v -10.666666667 72.500000000 35.750000000
v -10.666666667 72.500000000 36.750000000
v -10.666666667 72.207106781 37.457106781
v -8.833333333 72.207106781 32.042893219
v -8.833333333 72.500000000 32.750000000
v -8.833333333 72.500000000 33.750000000
v -8.833333333 72.500000000 34.750000000
v -8.833333333 72.500000000 35.750000000
v -8.833333333 72.500000000 36.750000000
v -8.833333333 72.207106781 37.457106781
v -7.000000000 72.207106781 32.042893219
v -7.000000000 72.500000000 32.750000000
v -7.000000000 72.500000000 33.750000000
v -7.000000000 72.500000000 34.750000000
v -7.000000000 72.500000000 35.750000000
v -7.000000000 72.500000000 36.750000000
v -7.000000000 72.207106781 37.457106781
v -5.166666667 72.207106781 32.042893219
v -5.166666667 72.500000000 32.750000000
v -5.166666667 72.500000000 33.750000000
v -5.166666667 72.500000000 34.750000000
v -5.166666667 72.500000000 35.750000000
v -5.166666667 72.500000000 36.750000000
v -5.166666667 72.207106781 37.457106781
v -3.333333333 72.207106781 32.042893219
v -3.333333333 72.500000000 32.750000000
v -3.333333333 72.500000000 33.750000000
v -3.333333333 72.500000000 34.750000000
v -3.333333333 72.500000000 35.750000000
v -3.333333333 72.500000000 36.750000000
v -3.333333333 72.207106781 37.457106781
v -10.666666667 70.052786405 31.855572809
v -10.666666667 70.500000000 31.750000000
v -10.666666667 71.000000000 31.750000000
v -10.666666667 71.500000000 31.750000000
v -10.666666667 71.947213595 31.855572809
v -8.833333333 70.052786405 31.855572809
v -8.833333333 70.500000000 31.750000000
v -8.833333333 71.000000000 31.750000000
v -8.833333333 71.500000000 31.750000000
v -8.833333333 71.947213595 31.855572809
v -7.000000000 70.052786405 31.855572809
v -7.000000000 70.500000000 31.750000000
v -7.000000000 71.000000000 31.750000000
v -7.000000000 71.500000000 31.750000000
v -7.000000000 71.947213595 31.855572809
v -5.166666667 70.052786405 31.855572809
v -5.166666667 70.500000000 31.750000000
v -5.166666667 71.000000000 31.750000000
v -5.166666667 71.500000000 31.750000000
v -5.166666667 71.947213595 31.855572809
v -3.333333333 70.052786405 31.855572809
v -3.333333333 70.500000000 31.750000000
v -3.333333333 71.000000000 31.750000000
v -3.333333333 71.500000000 31.750000000
v -3.333333333 71.947213595 31.855572809
v -10.666666667 70.052786405 37.644427191
v -10.666666667 70.500000000 37.750000000
v -10.666666667 71.000000000 37.750000000
v -10.666666667 71.500000000 37.750000000
v -10.666666667 71.947213595 37.644427191
v -8.833333333 70.052786405 37.644427191
v -8.833333333 70.500000000 37.750000000
v -8.833333333 71.000000000 37.750000000
v -8.833333333 71.500000000 37.750000000
v -8.833333333 71.947213595 37.644427191
v -7.000000000 70.052786405 37.644427191
v -7.000000000 70.500000000 37.750000000
v -7.000000000 71.000000000 37.750000000
v -7.000000000 71.500000000 37.750000000
v -7.000000000 71.947213595 37.644427191
v -5.166666667 70.052786405 37.644427191
v -5.166666667 70.500000000 37.750000000
v -5.166666667 71.000000000 37.750000000
v -5.166666667 71.500000000 37.750000000
v -5.166666667 71.947213595 37.644427191
v -3.333333333 70.052786405 37.644427191
v -3.333333333 70.500000000 37.750000000
v -3.333333333 71.000000000 37.750000000
v -3.333333333 71.500000000 37.750000000
v -3.333333333 71.947213595 37.644427191
f 2 9 8 1
f 3 10 9 2
f 4 11 10 3
f 5 12 11 4
f 6 13 12 5
f 7 14 13 6
f 9 16 15 8
f 10 17 16 9
f 11 18 17 10
f 12 19 18 11
f 13 20 19 12
f 14 21 20 13
f 16 23 22 15
f 17 24 23 16
f 18 25 24 17
f 19 26 25 18
f 20 27 26 19
f 21 28 27 20
f 23 30 29 22
f 24 31 30 23
f 25 32 31 24
f 26 33 32 25
f 27 34 33 26
f 28 35 34 27
f 30 37 36 29
f 31 38 37 30
f 32 39 38 31
f 33 40 39 32
f 34 41 40 33
f 35 42 41 34
f 37 44 43 36
f 38 45 44 37
f 39 46 45 38
f 40 47 46 39
f 41 48 47 40
f 42 49 48 41
f 50 57 58 51
f 51 58 59 52
f 52 59 60 53
f 53 60 61 54
f 54 61 62 55
f 55 62 63 56
f 57 64 65 58
f 58 65 66 59
f 59 66 67 60
f 60 67 68 61
f 61 68 69 62
f 62 69 70 63
f 64 71 72 65
f 65 72 73 66
f 66 73 74 67
f 67 74 75 68
f 68 75 76 69
f 69 76 77 70
f 71 78 79 72
f 72 79 80 73
f 73 80 81 74
f 74 81 82 75
f 75 82 83 76
f 76 83 84 77
f 78 85 86 79
f 79 86 87 80
f 80 87 88 81
f 81 88 89 82
f 82 89 90 83
f 83 90 91 84
f 85 92 93 86
f 86 93 94 87
f 87 94 95 88
f 88 95 96 89
f 89 96 97 90
f 90 97 98 91
f 1 99 100 2
f 2 100 101 3
f 3 101 102 4
f 4 102 103 5
f 5 103 104 6
f 6 104 105 7
f 99 106 107 100
f 100 107 108 101
f 101 108 109 102
f 102 109 110 103
f 103 110 111 104
f 104 111 112 105
f 106 113 114 107
f 107 114 115 108
f 108 115 116 109
f 109 116 117 110
f 110 117 118 111
f 111 118 119 112
f 113 120 121 114
f 114 121 122 115
f 115 122 123 116
f 116 123 124 117
f 117 124 125 118
f 118 125 126 119
f 120 127 128 121
f 121 128 129 122
f 122 129 130 123
f 123 130 131 124
f 124 131 132 125
f 125 132 133 126
f 127 50 51 128
f 128 51 52 129
f 129 52 53 130
f 130 53 54 131
f 131 54 55 132
f 132 55 56 133
f 44 135 134 43
f 45 136 135 44
f 46 137 136 45
f 47 138 137 46
f 48 139 138 47
f 49 140 139 48
f 135 142 141 134
f 136 143 142 135
f 137 144 143 136
f 138 145 144 137
f 139 146 145 138
f 140 147 146 139
f 142 149 148 141
f 143 150 149 142
f 144 151 150 143
f 145 152 151 144
f 146 153 152 145
f 147 154 153 146
f 149 156 155 148
f 150 157 156 149
f 151 158 157 150
f 152 159 158 151
f 153 160 159 152
f 154 161 160 153
f 156 163 162 155
f 157 164 163 156
f 158 165 164 157
f 159 166 165 158
f 160 167 166 159
f 161 168 167 160
f 163 93 92 162
f 164 94 93 163
f 165 95 94 164
f 166 96 95 165
f 167 97 96 166
f 168 98 97 167
f 8 169 99 1
f 15 170 169 8
f 22 171 170 15
f 29 172 171 22
f 36 173 172 29
f 43 134 173 36
f 169 174 106 99
f 170 175 174 169
f 171 176 175 170
f 172 177 176 171
f 173 178 177 172
f 134 141 178 173
f 174 179 113 106
f 175 180 179 174
f 176 181 180 175
f 177 182 181 176
f 178 183 182 177
f 141 148 183 178
f 179 184 120 113
f 180 185 184 179
f 181 186 185 180
f 182 187 186 181
f 183 188 187 182
f 148 155 188 183
f 184 189 127 120
f 185 190 189 184
f 186 191 190 185
f 187 192 191 186
f 188 193 192 187
f 155 162 193 188
f 189 57 50 127
f 190 64 57 189
f 191 71 64 190
f 192 78 71 191
f 193 85 78 192
f 162 92 85 193
f 7 105 194 14
f 14 194 195 21
f 21 195 196 28
f 28 196 197 35
f 35 197 198 42
f 42 198 140 49
f 105 112 199 194
f 194 199 200 195
f 195 200 201 196
f 196 201 202 197
f 197 202 203 198
f 198 203 147 140
f 112 119 204 199
f 199 204 205 200
f 200 205 206 201
f 201 206 207 202
f 202 207 208 203
f 203 208 154 147
f 119 126 209 204
f 204 209 210 205
f 205 210 211 206
f 206 211 212 207
f 207 212 213 208
f 208 213 161 154
f 126 133 214 209
f 209 214 215 210
f 210 215 216 211
f 211 216 217 212
f 212 217 218 213
f 213 218 168 161
f 133 56 63 214
f 214 63 70 215
f 215 70 77 216
f 216 77 84 217
f 217 84 91 218
f 218 91 98 168
