# https://github.com/mikedh/trimesh
v 0.23663462 -0.01114982 0.54742251
v 0.22818938 -0.01115033 0.54660315
v 0.23599786 -0.01116609 0.54742114
v 0.22823502 -0.01634325 0.54742251
v 0.24550147 -0.01119406 0.54738825
v 0.24406930 -0.01116101 0.54688119
v 0.22329957 -0.01634325 0.54660299
v 0.24303484 -0.01130031 0.54663933
v 0.24195039 -0.01210513 0.54660804
v 0.23958155 -0.01364511 0.54660299
v 0.23443964 -0.01634325 0.54691360
v 0.23491558 -0.01629139 0.54725725
v 0.23546107 -0.01611701 0.54736050
v 0.24298051 -0.01277827 0.54738737
v 0.24412363 -0.01208378 0.54736988
v 0.24480821 -0.01161858 0.54735456
v 0.24372593 -0.01201362 0.54715016
v 0.24509508 -0.01128506 0.54727996
v 0.24456046 -0.01132268 0.54710508
v 0.24392369 -0.01161807 0.54701748
v 0.24312177 -0.01188855 0.54687421
v 0.24257411 -0.01208174 0.54678204
v 0.24361727 -0.01128913 0.54679431
v 0.23400282 -0.01632698 0.54662609
v 0.24259367 -0.01172026 0.54665168
v 0.24192213 -0.01242085 0.54672797
v 0.24148096 -0.01257694 0.54666540
v 0.23924904 -0.01397202 0.54669404
v 0.23824283 -0.01442654 0.54664671
v 0.24100502 -0.01298723 0.54671313
v 0.24052908 -0.01329024 0.54672051
v 0.24003793 -0.01357902 0.54672340
v 0.23516768 -0.01590856 0.54672211
v 0.23558494 -0.01594059 0.54702446
v 0.23559798 -0.01603821 0.54727089
v 0.23764518 -0.01525271 0.54736403
v 0.24153095 -0.01348750 0.54732721
v 0.24213728 -0.01317941 0.54733338
v 0.24172654 -0.01315246 0.54708928
v 0.24248283 -0.01278437 0.54714551
v 0.24347818 -0.01244017 0.54734333
v 0.23902085 -0.01467719 0.54736242
v 0.23974671 -0.01435841 0.54736330
v 0.24290662 -0.01240865 0.54706914
v 0.24192865 -0.01271573 0.54688063
v 0.24234375 -0.01241018 0.54686338
v 0.23574576 -0.01565181 0.54671241
v 0.23700625 -0.01506256 0.54668128
v 0.23868400 -0.01428927 0.54671200
v 0.24124191 -0.01333091 0.54701692
v 0.23713881 -0.01533202 0.54708976
v 0.23838409 -0.01494664 0.54735961
v 0.24112890 -0.01367816 0.54731076
v 0.23993796 -0.01403252 0.54704315
v 0.23899912 -0.01441586 0.54696357
v 0.23788207 -0.01481192 0.54683145
v 0.23746697 -0.01491614 0.54674730
v 0.23953373 -0.01418555 0.54698916
f 1 2 3
f 1 3 4
f 1 4 5
f 1 5 6
f 1 6 2
f 2 7 4
f 2 4 3
f 2 6 8
f 2 8 9
f 2 9 10
f 2 10 7
f 4 7 11
f 4 11 12
f 4 12 13
f 4 13 14
f 4 14 5
f 5 14 15
f 5 15 16
f 5 16 17
f 5 17 18
f 5 18 19
f 5 19 6
f 6 19 20
f 6 20 21
f 6 21 22
f 6 22 23
f 6 23 8
f 7 10 24
f 7 24 11
f 8 23 25
f 8 25 9
f 9 25 22
f 9 22 26
f 9 26 27
f 9 27 10
f 10 28 29
f 10 29 24
f 10 27 30
f 10 30 31
f 10 31 32
f 10 32 28
f 11 24 33
f 11 33 34
f 11 34 35
f 11 35 12
f 12 35 13
f 13 36 14
f 13 35 36
f 14 37 38
f 14 38 39
f 14 39 40
f 14 40 41
f 14 41 15
f 14 36 42
f 14 42 43
f 14 43 37
f 15 17 16
f 15 41 40
f 15 40 44
f 15 44 17
f 17 20 18
f 17 44 45
f 17 45 46
f 17 46 20
f 18 20 19
f 20 46 21
f 21 46 22
f 22 25 23
f 22 46 26
f 24 47 33
f 24 29 48
f 24 48 47
f 26 46 45
f 26 45 30
f 26 30 27
f 28 49 29
f 28 32 50
f 28 50 49
f 29 49 48
f 30 45 31
f 31 45 50
f 31 50 32
f 33 47 51
f 33 51 34
f 34 51 52
f 34 52 36
f 34 36 35
f 36 52 42
f 37 43 53
f 37 53 54
f 37 54 39
f 37 39 38
f 39 45 40
f 39 54 50
f 39 50 45
f 40 45 44
f 42 52 51
f 42 51 43
f 43 51 55
f 43 55 53
f 47 48 56
f 47 56 51
f 48 49 57
f 48 57 56
f 49 50 58
f 49 58 56
f 49 56 57
f 50 54 58
f 51 56 55
f 53 55 58
f 53 58 54
f 55 56 58

