# https://github.com/mikedh/trimesh
v 0.25420890 0.00667308 0.55014907
v 0.25420890 0.00457352 0.55014907
v 0.25420890 0.00667308 0.54935361
v 0.24152821 0.00667308 0.55014907
v 0.25420890 0.00457352 0.54930458
v 0.25160598 0.00457352 0.55014907
v 0.25420890 0.00666795 0.54930458
v 0.25420393 0.00667308 0.54930458
v 0.24152821 0.00667308 0.54930458
v 0.25160598 0.00457352 0.54930458
f 1 2 5
f 1 5 7
f 1 7 3
f 1 3 8
f 1 8 9
f 1 9 4
f 1 4 6
f 1 6 2
f 2 6 10
f 2 10 5
f 3 7 8
f 4 9 10
f 4 10 6
f 5 10 9
f 5 9 8
f 5 8 7

