# https://github.com/mikedh/trimesh
v 0.18373776 -0.02071833 0.54293497
v 0.18373776 -0.02129796 0.54303061
v 0.18373776 -0.02071833 0.54500150
v 0.18773310 -0.02071833 0.54308322
v 0.19142914 -0.02098973 0.54326336
v 0.18373776 -0.02153676 0.54307493
v 0.18431298 -0.02128515 0.54304979
v 0.18521867 -0.02071833 0.54505671
v 0.18373776 -0.02198946 0.54526381
v 0.19169961 -0.02198946 0.54558287
v 0.19169961 -0.02071833 0.54323096
v 0.19169961 -0.02072692 0.54323226
v 0.19169961 -0.02097380 0.54327088
v 0.19169961 -0.02118261 0.54331002
v 0.18700044 -0.02152942 0.54319597
v 0.18856163 -0.02113072 0.54318120
v 0.18373776 -0.02173238 0.54311251
v 0.19142525 -0.02071833 0.54528117
v 0.18373776 -0.02198946 0.54316642
v 0.19169961 -0.02198946 0.54348082
v 0.19169961 -0.02071833 0.54529050
v 0.19169961 -0.02138333 0.54334786
v 0.18817114 -0.02164689 0.54326388
v 0.18625999 -0.02172441 0.54320660
v 0.19087575 -0.02154074 0.54334630
v 0.18390690 -0.02179833 0.54313221
v 0.18373776 -0.02187200 0.54314128
v 0.18373776 -0.02196918 0.54316176
v 0.18386637 -0.02198946 0.54317135
v 0.19165830 -0.02198946 0.54347901
v 0.19169961 -0.02190535 0.54345931
v 0.19169961 -0.02150366 0.54337170
v 0.18700044 -0.02186192 0.54326388
v 0.18604175 -0.02178875 0.54321152
v 0.18650629 -0.02171508 0.54321411
v 0.19021324 -0.02174868 0.54336419
v 0.18877909 -0.02181899 0.54332349
v 0.18582351 -0.02179659 0.54320478
v 0.18453512 -0.02186503 0.54316979
v 0.18390690 -0.02198946 0.54317290
v 0.18538469 -0.02192190 0.54321463
v 0.18641587 -0.02198946 0.54326958
v 0.19079001 -0.02198946 0.54344194
v 0.19169961 -0.02189377 0.54345672
v 0.19127404 -0.02188655 0.54343754
v 0.18774947 -0.02198946 0.54332142
v 0.18625999 -0.02189079 0.54324159
v 0.18538469 -0.02183865 0.54319675
f 1 2 6
f 1 6 17
f 1 17 27
f 1 27 28
f 1 28 19
f 1 19 9
f 1 9 3
f 1 3 8
f 1 8 18
f 1 18 21
f 1 21 11
f 1 11 4
f 1 4 5
f 1 5 2
f 2 5 7
f 2 7 6
f 3 9 10
f 3 10 8
f 4 11 12
f 4 12 13
f 4 13 5
f 5 13 14
f 5 14 15
f 5 15 16
f 5 16 7
f 6 7 15
f 6 15 17
f 7 16 15
f 8 10 18
f 9 19 29
f 9 29 40
f 9 40 42
f 9 42 46
f 9 46 43
f 9 43 30
f 9 30 20
f 9 20 10
f 10 20 31
f 10 31 44
f 10 44 32
f 10 32 22
f 10 22 14
f 10 14 13
f 10 13 12
f 10 12 11
f 10 11 21
f 10 21 18
f 14 22 15
f 15 23 24
f 15 24 17
f 15 22 25
f 15 25 23
f 17 26 27
f 17 24 26
f 19 28 29
f 20 30 31
f 22 32 25
f 23 33 34
f 23 34 35
f 23 35 24
f 23 25 36
f 23 36 37
f 23 37 33
f 24 35 34
f 24 34 38
f 24 38 26
f 25 32 36
f 26 38 39
f 26 39 27
f 27 39 28
f 28 40 29
f 28 39 41
f 28 41 42
f 28 42 40
f 30 43 31
f 31 43 45
f 31 45 44
f 32 44 45
f 32 45 36
f 33 46 42
f 33 42 47
f 33 47 48
f 33 48 34
f 33 37 46
f 34 48 38
f 36 45 46
f 36 46 37
f 38 48 39
f 39 48 41
f 41 48 47
f 41 47 42
f 43 46 45

