# https://github.com/mikedh/trimesh
v 0.16000000 -0.02299566 0.54584007
v 0.16000000 -0.02225135 0.54584007
v 0.16025669 -0.02306438 0.54584007
v 0.16000000 -0.02299769 0.54594249
v 0.16000000 -0.02225135 0.54809513
v 0.16665976 -0.02225135 0.54584007
v 0.16031347 -0.02308392 0.54609855
v 0.16092503 -0.02323443 0.54584007
v 0.16000000 -0.02299980 0.54624336
v 0.16000000 -0.02292743 0.54801522
v 0.16003076 -0.02292252 0.54808828
v 0.16031347 -0.02299817 0.54809380
v 0.16046134 -0.02303714 0.54809513
v 0.16837379 -0.02225135 0.54809513
v 0.17206091 -0.02308469 0.54584073
v 0.17208338 -0.02323443 0.54584007
v 0.16088955 -0.02323443 0.54639147
v 0.16088836 -0.02323443 0.54647270
v 0.16062576 -0.02316678 0.54674311
v 0.16000000 -0.02299922 0.54691639
v 0.16000000 -0.02293869 0.54794414
v 0.16031347 -0.02302781 0.54791412
v 0.16046962 -0.02306775 0.54792582
v 0.16015733 -0.02295861 0.54808034
v 0.16062576 -0.02310701 0.54793774
v 0.16078072 -0.02314512 0.54795386
v 0.16064587 -0.02308536 0.54809513
v 0.17208338 -0.02298941 0.54809513
v 0.17205499 -0.02286642 0.54809270
v 0.17208338 -0.02323443 0.54809513
v 0.16090966 -0.02323443 0.54722321
v 0.16062576 -0.02316562 0.54697731
v 0.16062576 -0.02316658 0.54682610
v 0.16000000 -0.02299740 0.54707730
v 0.16000000 -0.02294860 0.54787284
v 0.16015733 -0.02298864 0.54789315
v 0.16031347 -0.02305033 0.54772561
v 0.16062576 -0.02312953 0.54775762
v 0.16078072 -0.02316832 0.54777373
v 0.16078072 -0.02312020 0.54809513
v 0.16110129 -0.02322702 0.54795209
v 0.16093686 -0.02318256 0.54797019
v 0.16098891 -0.02317322 0.54809513
v 0.16123732 -0.02323414 0.54809469
v 0.16116871 -0.02323443 0.54801081
v 0.16092503 -0.02323443 0.54735389
v 0.16062576 -0.02315869 0.54731548
v 0.16046962 -0.02311866 0.54729076
v 0.16000000 -0.02299509 0.54719849
v 0.16000000 -0.02295669 0.54780751
v 0.16000000 -0.02296535 0.54772694
v 0.16031347 -0.02305812 0.54763886
v 0.16078072 -0.02318477 0.54758898
v 0.16093686 -0.02321990 0.54765056
v 0.16101375 -0.02323443 0.54770751
v 0.16093686 -0.02321085 0.54774769
v 0.16062576 -0.02315552 0.54739649
v 0.16097826 -0.02323443 0.54759405
v 0.16000000 -0.02298883 0.54738678
v 0.16000000 -0.02299201 0.54730599
v 0.16000000 -0.02297478 0.54761966
v 0.16000000 -0.02298065 0.54753909
v 0.16000000 -0.02298488 0.54746757
f 1 2 6
f 1 6 16
f 1 16 8
f 1 8 3
f 1 3 4
f 1 4 9
f 1 9 20
f 1 20 34
f 1 34 49
f 1 49 60
f 1 60 59
f 1 59 63
f 1 63 62
f 1 62 61
f 1 61 51
f 1 51 50
f 1 50 35
f 1 35 21
f 1 21 10
f 1 10 5
f 1 5 2
f 2 5 14
f 2 14 6
f 3 7 4
f 3 8 7
f 4 7 9
f 5 10 11
f 5 11 12
f 5 12 13
f 5 13 27
f 5 27 40
f 5 40 43
f 5 43 30
f 5 30 28
f 5 28 14
f 6 14 15
f 6 15 16
f 7 8 17
f 7 17 18
f 7 18 19
f 7 19 20
f 7 20 9
f 8 16 30
f 8 30 45
f 8 45 55
f 8 55 58
f 8 58 46
f 8 46 31
f 8 31 18
f 8 18 17
f 10 21 22
f 10 22 23
f 10 23 12
f 10 12 24
f 10 24 11
f 11 24 12
f 12 23 13
f 13 23 25
f 13 25 26
f 13 26 27
f 14 28 29
f 14 29 15
f 15 28 16
f 15 29 28
f 16 28 30
f 18 31 32
f 18 32 33
f 18 33 19
f 19 33 20
f 20 33 32
f 20 32 34
f 21 35 36
f 21 36 22
f 22 37 38
f 22 38 23
f 22 36 37
f 23 38 39
f 23 39 25
f 25 39 26
f 26 40 27
f 26 39 41
f 26 41 42
f 26 42 40
f 30 43 44
f 30 44 45
f 31 46 47
f 31 47 48
f 31 48 32
f 32 48 34
f 34 48 49
f 35 50 36
f 36 50 37
f 37 50 51
f 37 51 52
f 37 52 38
f 38 53 54
f 38 54 39
f 38 52 53
f 39 54 55
f 39 55 56
f 39 56 41
f 40 42 45
f 40 45 43
f 41 55 45
f 41 45 42
f 41 56 55
f 43 45 44
f 46 53 57
f 46 57 47
f 46 58 53
f 47 57 48
f 48 59 60
f 48 60 49
f 48 57 59
f 51 61 52
f 52 61 62
f 52 62 63
f 52 63 57
f 52 57 53
f 53 58 54
f 54 58 55
f 57 63 59

