# https://github.com/mikedh/trimesh
v 0.17466614 -0.02173264 0.54281018
v 0.17466614 -0.02167382 0.54491836
v 0.17531609 -0.02167382 0.54281367
v 0.17482685 -0.02172785 0.54281292
v 0.17500088 -0.02179776 0.54283284
v 0.17500088 -0.02212851 0.54291225
v 0.17469100 -0.02217737 0.54291823
v 0.17467857 -0.02231040 0.54295508
v 0.17466614 -0.02231040 0.54511927
v 0.18373610 -0.02167382 0.54518624
v 0.17568990 -0.02184587 0.54286172
v 0.17526548 -0.02181708 0.54284379
v 0.17761044 -0.02167382 0.54288213
v 0.17602109 -0.02168728 0.54283632
v 0.17568990 -0.02201174 0.54290030
v 0.17568990 -0.02217724 0.54294064
v 0.17525305 -0.02227189 0.54295532
v 0.17484461 -0.02231040 0.54295732
v 0.18373610 -0.02231040 0.54535329
v 0.18373610 -0.02170317 0.54310694
v 0.18358516 -0.02167382 0.54309524
v 0.17665949 -0.02173514 0.54286495
v 0.17693918 -0.02191572 0.54291275
v 0.17693918 -0.02208209 0.54295109
v 0.17778891 -0.02178393 0.54291051
v 0.17740356 -0.02172068 0.54288512
v 0.18001488 -0.02167382 0.54296404
v 0.17857115 -0.02180792 0.54294113
v 0.17648635 -0.02220447 0.54296802
v 0.17601842 -0.02217755 0.54294910
v 0.17658579 -0.02231040 0.54299889
v 0.18262977 -0.02231040 0.54319856
v 0.18350347 -0.02230891 0.54323092
v 0.18373610 -0.02225557 0.54322744
v 0.18373610 -0.02187210 0.54314154
v 0.18326728 -0.02181272 0.54311117
v 0.18219558 -0.02187179 0.54308329
v 0.17749945 -0.02194002 0.54293516
v 0.17749945 -0.02227264 0.54301383
v 0.17821421 -0.02213175 0.54300163
v 0.17821421 -0.02196507 0.54296354
v 0.18132011 -0.02187864 0.54305267
v 0.18031322 -0.02183565 0.54300761
v 0.17946261 -0.02182649 0.54297574
v 0.17919624 -0.02182188 0.54296553
v 0.17946261 -0.02199367 0.54301159
v 0.17762820 -0.02231040 0.54302702
v 0.17693119 -0.02227918 0.54299964
v 0.18262977 -0.02215786 0.54316246
v 0.18087971 -0.02231040 0.54313432
v 0.18087971 -0.02217163 0.54310146
v 0.18373610 -0.02201778 0.54317291
v 0.18326728 -0.02197977 0.54314652
v 0.18219558 -0.02201953 0.54311516
v 0.18132011 -0.02202651 0.54308453
v 0.17817959 -0.02230417 0.54304221
v 0.17946261 -0.02216054 0.54304968
v 0.17928414 -0.02225133 0.54306511
v 0.17942354 -0.02231040 0.54308379
v 0.17869812 -0.02230068 0.54305789
v 0.18031322 -0.02200289 0.54304346
v 0.18031322 -0.02216983 0.54308080
v 0.18004419 -0.02231040 0.54310520
f 1 2 3
f 1 3 4
f 1 4 5
f 1 5 6
f 1 6 7
f 1 7 8
f 1 8 9
f 1 9 2
f 2 9 10
f 2 10 21
f 2 21 27
f 2 27 13
f 2 13 3
f 3 11 12
f 3 12 4
f 3 13 14
f 3 14 11
f 4 12 5
f 5 12 15
f 5 15 6
f 6 15 16
f 6 16 17
f 6 17 7
f 7 18 8
f 7 17 18
f 8 18 31
f 8 31 47
f 8 47 59
f 8 59 63
f 8 63 50
f 8 50 32
f 8 32 19
f 8 19 9
f 9 19 10
f 10 19 34
f 10 34 52
f 10 52 35
f 10 35 20
f 10 20 21
f 11 15 12
f 11 14 22
f 11 22 23
f 11 23 24
f 11 24 15
f 13 25 26
f 13 26 22
f 13 22 14
f 13 27 28
f 13 28 25
f 15 24 29
f 15 29 30
f 15 30 16
f 16 30 29
f 16 29 31
f 16 31 17
f 17 31 18
f 19 32 33
f 19 33 34
f 20 35 36
f 20 36 21
f 21 36 37
f 21 37 27
f 22 26 25
f 22 25 38
f 22 38 23
f 23 38 24
f 24 39 29
f 24 38 40
f 24 40 39
f 25 41 38
f 25 28 41
f 27 37 42
f 27 42 43
f 27 43 44
f 27 44 45
f 27 45 28
f 28 45 46
f 28 46 41
f 29 39 47
f 29 47 48
f 29 48 31
f 31 48 47
f 32 49 33
f 32 50 51
f 32 51 49
f 33 49 34
f 34 49 52
f 35 52 53
f 35 53 36
f 36 53 37
f 37 54 55
f 37 55 42
f 37 53 54
f 38 41 40
f 39 56 47
f 39 40 56
f 40 57 58
f 40 58 59
f 40 59 60
f 40 60 56
f 40 41 57
f 41 46 57
f 42 55 61
f 42 61 43
f 43 61 44
f 44 46 45
f 44 61 46
f 46 61 62
f 46 62 57
f 47 56 59
f 49 53 52
f 49 51 55
f 49 55 54
f 49 54 53
f 50 63 62
f 50 62 51
f 51 62 55
f 55 62 61
f 56 60 59
f 57 62 59
f 57 59 58
f 59 62 63

