# https://github.com/mikedh/trimesh
v 0.17548631 0.02550991 0.54890495
v 0.17559315 0.01914083 0.54930445
v 0.17559315 0.02514188 0.54879173
v 0.17309314 0.02529285 0.54882776
v 0.17427599 0.02540897 0.54887027
v 0.17470182 0.02531250 0.54911032
v 0.17517343 0.02535448 0.54911358
v 0.17418289 0.02516421 0.54924894
v 0.17242158 0.02492481 0.54926992
v 0.16797406 0.02413962 0.54930445
v 0.17519633 0.01905775 0.54930445
v 0.17559315 0.02196270 0.54879173
v 0.16527258 0.02391719 0.54879173
v 0.17226285 0.02515528 0.54887429
v 0.17350675 0.02515796 0.54914631
v 0.17367770 0.02535269 0.54885145
v 0.17036571 0.02488819 0.54882636
v 0.17092127 0.02496590 0.54885075
v 0.17307330 0.02504362 0.54922902
v 0.17177445 0.02487926 0.54920402
v 0.17111205 0.02475509 0.54923564
v 0.16944080 0.02442994 0.54928854
v 0.16780770 0.02419500 0.54919278
v 0.16593803 0.02372603 0.54930445
v 0.16077774 0.01642615 0.54930445
v 0.16077469 0.01906758 0.54879173
v 0.16124935 0.02301498 0.54879173
v 0.16425456 0.02369298 0.54881130
v 0.16539010 0.02390201 0.54886997
v 0.16582050 0.02402885 0.54879695
v 0.17169966 0.02505702 0.54890957
v 0.16998872 0.02480779 0.54885612
v 0.17131810 0.02496144 0.54897296
v 0.16997041 0.02462288 0.54915544
v 0.16735134 0.02409138 0.54920613
v 0.16875398 0.02445227 0.54907424
v 0.16814805 0.02435490 0.54904869
v 0.16580524 0.02391809 0.54899358
v 0.16671947 0.02402349 0.54911544
v 0.16506806 0.02362598 0.54919820
v 0.16555188 0.02370370 0.54922882
v 0.16434461 0.02342500 0.54926044
v 0.16334491 0.02320525 0.54926420
v 0.16253141 0.02302391 0.54926249
v 0.16000087 0.01638417 0.54930445
v 0.16000087 0.01894252 0.54879173
v 0.16018402 0.02267107 0.54890761
v 0.16085100 0.02286312 0.54888663
v 0.16166145 0.02308912 0.54884658
v 0.16321060 0.02338569 0.54895509
v 0.16473839 0.02369477 0.54899077
v 0.16533210 0.02383233 0.54897321
v 0.16234368 0.02321418 0.54891097
v 0.16746429 0.02430934 0.54889898
v 0.16929885 0.02465415 0.54890711
v 0.16417978 0.02349735 0.54911549
v 0.16282140 0.02323830 0.54904809
v 0.16194533 0.02297121 0.54914455
v 0.16152561 0.02279702 0.54924573
v 0.16007261 0.02246026 0.54918786
v 0.16072890 0.02263802 0.54918992
v 0.16119136 0.02281667 0.54910109
f 1 2 3
f 1 3 4
f 1 4 5
f 1 5 6
f 1 6 7
f 1 7 2
f 2 7 8
f 2 8 9
f 2 9 10
f 2 10 24
f 2 24 45
f 2 45 25
f 2 25 11
f 2 11 12
f 2 12 3
f 3 12 26
f 3 26 46
f 3 46 27
f 3 27 13
f 3 13 4
f 4 14 15
f 4 15 16
f 4 16 5
f 4 13 17
f 4 17 18
f 4 18 14
f 5 16 15
f 5 15 6
f 6 15 8
f 6 8 7
f 8 15 19
f 8 19 9
f 9 19 20
f 9 20 21
f 9 21 22
f 9 22 10
f 10 22 23
f 10 23 24
f 11 25 26
f 11 26 12
f 13 27 28
f 13 28 29
f 13 29 30
f 13 30 17
f 14 18 31
f 14 31 15
f 15 31 20
f 15 20 19
f 17 32 33
f 17 33 18
f 17 30 32
f 18 33 31
f 20 31 33
f 20 33 21
f 21 33 34
f 21 34 22
f 22 34 23
f 23 35 24
f 23 34 36
f 23 36 37
f 23 37 38
f 23 38 39
f 23 39 40
f 23 40 35
f 24 41 40
f 24 40 42
f 24 42 43
f 24 43 44
f 24 44 45
f 24 35 41
f 25 45 46
f 25 46 26
f 27 46 47
f 27 47 48
f 27 48 49
f 27 49 28
f 28 50 51
f 28 51 52
f 28 52 29
f 28 49 53
f 28 53 50
f 29 52 38
f 29 38 54
f 29 54 30
f 30 54 32
f 32 34 33
f 32 54 55
f 32 55 34
f 34 55 36
f 35 40 41
f 36 55 37
f 37 55 54
f 37 54 38
f 38 52 56
f 38 56 40
f 38 40 39
f 40 56 42
f 42 56 43
f 43 56 44
f 44 57 58
f 44 58 59
f 44 59 45
f 44 56 57
f 45 60 46
f 45 59 60
f 46 60 47
f 47 60 61
f 47 61 48
f 48 61 62
f 48 62 49
f 49 62 53
f 50 56 51
f 50 53 57
f 50 57 56
f 51 56 52
f 53 62 58
f 53 58 57
f 58 62 59
f 59 62 61
f 59 61 60

