# https://github.com/mikedh/trimesh
v 0.19750400 0.00636904 0.55029930
v 0.19750400 0.00625656 0.55029930
v 0.19750400 0.00636904 0.54989160
v 0.17900181 0.00636904 0.55029930
v 0.19750400 0.00625656 0.54970007
v 0.19664899 0.00495393 0.55029930
v 0.19750400 0.00636516 0.54970007
v 0.19746777 0.00636904 0.54970007
v 0.17900181 0.00636904 0.54970007
v 0.17900000 0.00593617 0.55029930
v 0.19664899 0.00495393 0.54970007
v 0.17900000 0.00495393 0.55029930
v 0.17900000 0.00593617 0.54970007
v 0.17900000 0.00495393 0.54970007
f 1 2 5
f 1 5 7
f 1 7 3
f 1 3 8
f 1 8 9
f 1 9 4
f 1 4 10
f 1 10 12
f 1 12 6
f 1 6 2
f 2 6 11
f 2 11 5
f 3 7 8
f 4 9 13
f 4 13 10
f 5 11 14
f 5 14 13
f 5 13 9
f 5 9 8
f 5 8 7
f 6 12 14
f 6 14 11
f 10 13 14
f 10 14 12

