# https://github.com/mikedh/trimesh
v 0.20439648 0.02440323 0.54825870
v 0.20469842 0.02431126 0.54869083
v 0.20507318 0.02428838 0.54860456
v 0.20573338 0.02424897 0.54838034
v 0.20480231 0.02436466 0.54820825
v 0.20434308 0.02398706 0.54815537
v 0.20434308 0.02336578 0.54879160
v 0.20723338 0.02401334 0.54876582
v 0.20631687 0.02412691 0.54873673
v 0.20582464 0.02419514 0.54867058
v 0.20547512 0.02424685 0.54858793
v 0.20606639 0.02420277 0.54844873
v 0.20718095 0.02407013 0.54847844
v 0.20723629 0.02407648 0.54834876
v 0.20629940 0.02419514 0.54825222
v 0.20543726 0.02429855 0.54817106
v 0.20691590 0.02412861 0.54815537
v 0.20434308 0.02212280 0.54815537
v 0.20434308 0.02125869 0.54879160
v 0.21426156 0.02007419 0.54879160
v 0.20974407 0.02367430 0.54878182
v 0.20783921 0.02394002 0.54875784
v 0.20718095 0.02405190 0.54860232
v 0.20828872 0.02391968 0.54854988
v 0.20795668 0.02397308 0.54845196
v 0.20755571 0.02404385 0.54823185
v 0.20819649 0.02395951 0.54825097
v 0.20929844 0.02380907 0.54820818
v 0.21041494 0.02364167 0.54815537
v 0.21426156 0.02070225 0.54815537
v 0.21426156 0.02292800 0.54824568
v 0.21420525 0.02290851 0.54865626
v 0.21387029 0.02297505 0.54867955
v 0.21164893 0.02337468 0.54876974
v 0.21039941 0.02358149 0.54875031
v 0.20975475 0.02371329 0.54853300
v 0.20937319 0.02375440 0.54862898
v 0.20889843 0.02380653 0.54872209
v 0.20820426 0.02389976 0.54872533
v 0.20857999 0.02389679 0.54838993
v 0.20850620 0.02386077 0.54871811
v 0.20898776 0.02384552 0.54833132
v 0.20973145 0.02374508 0.54820401
v 0.21069262 0.02358997 0.54829644
v 0.21103145 0.02354123 0.54816552
v 0.21281884 0.02322339 0.54815537
v 0.21385379 0.02301403 0.54824792
v 0.21354796 0.02305472 0.54854408
v 0.21281884 0.02320389 0.54849226
v 0.21256447 0.02322000 0.54872203
v 0.21193728 0.02333866 0.54868354
v 0.21127126 0.02346029 0.54863458
v 0.21078582 0.02352894 0.54870272
v 0.21047028 0.02361116 0.54847788
v 0.21019358 0.02366117 0.54839360
v 0.21101398 0.02351877 0.54851599
v 0.21158194 0.02343825 0.54835860
v 0.21131301 0.02349165 0.54821560
v 0.21198776 0.02337044 0.54828710
v 0.21257223 0.02326365 0.54830074
v 0.21227903 0.02329586 0.54855635
f 1 2 3
f 1 3 4
f 1 4 5
f 1 5 6
f 1 6 7
f 1 7 2
f 2 7 8
f 2 8 9
f 2 9 10
f 2 10 3
f 3 10 11
f 3 11 12
f 3 12 4
f 4 12 13
f 4 13 14
f 4 14 15
f 4 15 16
f 4 16 5
f 5 16 6
f 6 16 17
f 6 17 29
f 6 29 46
f 6 46 30
f 6 30 18
f 6 18 19
f 6 19 7
f 7 19 20
f 7 20 21
f 7 21 8
f 8 22 23
f 8 23 9
f 8 21 22
f 9 23 10
f 10 12 11
f 10 23 12
f 12 23 13
f 13 23 24
f 13 24 25
f 13 25 14
f 14 26 17
f 14 17 15
f 14 25 27
f 14 27 26
f 15 17 16
f 17 26 27
f 17 27 28
f 17 28 29
f 18 30 19
f 19 30 20
f 20 30 31
f 20 31 32
f 20 32 33
f 20 33 34
f 20 34 21
f 21 35 36
f 21 36 37
f 21 37 38
f 21 38 22
f 21 34 35
f 22 38 39
f 22 39 23
f 23 39 24
f 24 40 25
f 24 39 41
f 24 41 38
f 24 38 37
f 24 37 36
f 24 36 40
f 25 40 27
f 27 40 42
f 27 42 28
f 28 43 29
f 28 42 43
f 29 43 44
f 29 44 45
f 29 45 46
f 30 46 31
f 31 46 47
f 31 47 32
f 32 47 48
f 32 48 33
f 33 48 49
f 33 49 50
f 33 50 34
f 34 50 51
f 34 51 52
f 34 52 53
f 34 53 35
f 35 53 54
f 35 54 36
f 36 54 55
f 36 55 42
f 36 42 40
f 38 41 39
f 42 55 43
f 43 55 44
f 44 54 56
f 44 56 57
f 44 57 58
f 44 58 45
f 44 55 54
f 45 58 46
f 46 59 60
f 46 60 47
f 46 58 59
f 47 60 49
f 47 49 48
f 49 61 50
f 49 60 57
f 49 57 61
f 50 61 51
f 51 61 52
f 52 56 53
f 52 61 56
f 53 56 54
f 56 61 57
f 57 60 59
f 57 59 58

