# https://github.com/mikedh/trimesh
v 0.23566026 -0.01311995 0.54930450
v 0.23566026 -0.01609665 0.54930450
v 0.23566026 -0.01393450 0.54868282
v 0.23563506 -0.01394491 0.54867847
v 0.22278784 -0.01634345 0.54930450
v 0.23566026 -0.01610391 0.54924205
v 0.23557962 -0.01612631 0.54930450
v 0.23556324 -0.01613957 0.54924328
v 0.23566026 -0.01401466 0.54867847
v 0.23270172 -0.01503056 0.54867841
v 0.22869736 -0.01634345 0.54867853
v 0.23498110 -0.01634345 0.54930450
v 0.23566026 -0.01610675 0.54921741
v 0.23503025 -0.01632577 0.54930450
v 0.23499245 -0.01634345 0.54927496
v 0.23512601 -0.01630179 0.54921490
v 0.23566026 -0.01612505 0.54867847
v 0.23397687 -0.01634345 0.54867847
v 0.23507561 -0.01634124 0.54867847
v 0.23506931 -0.01634345 0.54867847
v 0.23566026 -0.01611338 0.54912457
v 0.23537171 -0.01621468 0.54918548
v 0.23556324 -0.01615251 0.54907603
v 0.23500379 -0.01634345 0.54923819
v 0.23502017 -0.01634345 0.54917856
v 0.23566026 -0.01612474 0.54881379
v 0.23508191 -0.01633903 0.54874000
v 0.23506931 -0.01634345 0.54873534
v 0.23566026 -0.01612032 0.54900169
v 0.23503781 -0.01634345 0.54909031
v 0.23504789 -0.01634345 0.54903209
v 0.23534525 -0.01623551 0.54901781
v 0.23566026 -0.01612411 0.54884860
v 0.23556324 -0.01616040 0.54882243
v 0.23505671 -0.01634345 0.54896063
v 0.23510459 -0.01632546 0.54897785
f 1 2 6
f 1 6 13
f 1 13 21
f 1 21 29
f 1 29 33
f 1 33 26
f 1 26 17
f 1 17 9
f 1 9 3
f 1 3 4
f 1 4 5
f 1 5 12
f 1 12 14
f 1 14 7
f 1 7 2
f 2 7 8
f 2 8 6
f 3 9 4
f 4 9 10
f 4 10 11
f 4 11 5
f 5 11 18
f 5 18 20
f 5 20 28
f 5 28 35
f 5 35 31
f 5 31 30
f 5 30 25
f 5 25 24
f 5 24 15
f 5 15 12
f 6 8 13
f 7 14 15
f 7 15 8
f 8 15 16
f 8 16 13
f 9 17 10
f 10 18 11
f 10 17 19
f 10 19 20
f 10 20 18
f 12 15 14
f 13 16 22
f 13 22 23
f 13 23 21
f 15 24 16
f 16 24 25
f 16 25 22
f 17 26 27
f 17 27 19
f 19 27 28
f 19 28 20
f 21 23 29
f 22 25 30
f 22 30 23
f 23 30 31
f 23 31 32
f 23 32 29
f 26 33 34
f 26 34 27
f 27 34 35
f 27 35 28
f 29 32 36
f 29 36 33
f 31 35 36
f 31 36 32
f 33 36 34
f 34 36 35

