# https://github.com/mikedh/trimesh
v 0.25586013 0.00457366 0.54930458
v 0.25646362 0.00483724 0.54930458
v 0.25659162 0.00464771 0.54930516
v 0.25677434 0.00457857 0.54937534
v 0.25695112 0.00457366 0.54947198
v 0.25586013 0.00457366 0.55014907
v 0.25586013 0.00560516 0.54931616
v 0.25603969 0.00538287 0.54930458
v 0.25637493 0.00499660 0.54931955
v 0.25675408 0.00472653 0.54942246
v 0.25627532 0.00509230 0.54930458
v 0.25707694 0.00458146 0.54955290
v 0.25709963 0.00457366 0.55014907
v 0.25609830 0.00587798 0.55014907
v 0.25587202 0.00604831 0.55011575
v 0.25586013 0.00604787 0.54999589
v 0.25586013 0.00570144 0.54938344
v 0.25600014 0.00559838 0.54941535
v 0.25637845 0.00521268 0.54943354
v 0.25596556 0.00549156 0.54931806
v 0.25637845 0.00510731 0.54937369
v 0.25613555 0.00526754 0.54930458
v 0.25620373 0.00518266 0.54930458
v 0.25709963 0.00467875 0.54962366
v 0.25675408 0.00487246 0.54949347
v 0.25709963 0.00502619 0.55013824
v 0.25691776 0.00522135 0.55014890
v 0.25665605 0.00543599 0.55014907
v 0.25627253 0.00574200 0.55014907
v 0.25618189 0.00581042 0.55011749
v 0.25598461 0.00596329 0.55011741
v 0.25600014 0.00593355 0.54996324
v 0.25588391 0.00599432 0.54982726
v 0.25587505 0.00592604 0.54965011
v 0.25586328 0.00582168 0.54949405
v 0.25597126 0.00572685 0.54950124
v 0.25609502 0.00560213 0.54949793
v 0.25637845 0.00534534 0.54952819
v 0.25675408 0.00499977 0.54957423
v 0.25709963 0.00477690 0.54969269
v 0.25709963 0.00503023 0.55002458
v 0.25682057 0.00529179 0.55009749
v 0.25647248 0.00557153 0.55005748
v 0.25656639 0.00550296 0.55010617
v 0.25638973 0.00564457 0.55010426
v 0.25620507 0.00577304 0.54997870
v 0.25610230 0.00584059 0.54990844
v 0.25601349 0.00588851 0.54982577
v 0.25613033 0.00577968 0.54979585
v 0.25604455 0.00580667 0.54969756
v 0.25597114 0.00580263 0.54958936
v 0.25618954 0.00559275 0.54958283
v 0.25628393 0.00547222 0.54955307
v 0.25675408 0.00512420 0.54967665
v 0.25709963 0.00487073 0.54977750
v 0.25709963 0.00497278 0.54990769
v 0.25675408 0.00528948 0.54991249
v 0.25635625 0.00564240 0.54994696
v 0.25624644 0.00570144 0.54984743
v 0.25636656 0.00559852 0.54984495
v 0.25624862 0.00564255 0.54972534
v 0.25637845 0.00552433 0.54972468
v 0.25637845 0.00544667 0.54962226
v 0.25675408 0.00521817 0.54978709
f 1 2 3
f 1 3 4
f 1 4 5
f 1 5 13
f 1 13 6
f 1 6 16
f 1 16 17
f 1 17 7
f 1 7 8
f 1 8 22
f 1 22 23
f 1 23 11
f 1 11 2
f 2 9 10
f 2 10 4
f 2 4 3
f 2 11 9
f 4 10 5
f 5 12 13
f 5 10 12
f 6 13 28
f 6 28 29
f 6 29 14
f 6 14 15
f 6 15 16
f 7 17 18
f 7 18 19
f 7 19 20
f 7 20 8
f 8 19 21
f 8 21 22
f 8 20 19
f 9 11 21
f 9 21 10
f 10 21 12
f 11 23 21
f 12 24 13
f 12 21 25
f 12 25 24
f 13 24 40
f 13 40 55
f 13 55 56
f 13 56 41
f 13 41 26
f 13 26 27
f 13 27 28
f 14 29 30
f 14 30 31
f 14 31 15
f 15 31 16
f 16 31 30
f 16 30 32
f 16 32 33
f 16 33 34
f 16 34 35
f 16 35 17
f 17 36 37
f 17 37 18
f 17 35 36
f 18 37 38
f 18 38 19
f 19 38 39
f 19 39 24
f 19 24 25
f 19 25 21
f 21 23 22
f 24 39 40
f 26 41 27
f 27 41 42
f 27 42 43
f 27 43 44
f 27 44 28
f 28 44 45
f 28 45 29
f 29 45 30
f 30 45 32
f 32 45 46
f 32 46 47
f 32 47 33
f 33 47 48
f 33 48 34
f 34 48 49
f 34 49 50
f 34 50 51
f 34 51 35
f 35 51 52
f 35 52 36
f 36 52 53
f 36 53 37
f 37 53 38
f 38 54 40
f 38 40 39
f 38 53 54
f 40 54 55
f 41 56 57
f 41 57 58
f 41 58 42
f 42 58 43
f 43 58 46
f 43 46 45
f 43 45 44
f 46 58 47
f 47 58 48
f 48 58 59
f 48 59 49
f 49 59 60
f 49 60 50
f 50 60 61
f 50 61 51
f 51 61 62
f 51 62 63
f 51 63 52
f 52 63 53
f 53 63 54
f 54 63 64
f 54 64 55
f 55 64 56
f 56 64 62
f 56 62 57
f 57 62 61
f 57 61 60
f 57 60 58
f 58 60 59
f 62 64 63

