# https://github.com/mikedh/trimesh
v 0.22051433 -0.01717050 0.55025209
v 0.22051505 -0.01716952 0.55014923
v 0.22296626 -0.01717050 0.55014923
v 0.22189990 -0.01717050 0.55125698
v 0.22051433 -0.01713198 0.55131938
v 0.22051433 -0.01219011 0.55014923
v 0.22296626 -0.01702374 0.55123699
v 0.22292449 -0.01717050 0.55120784
v 0.22296626 -0.01219011 0.55014923
v 0.22199974 -0.01717050 0.55125272
v 0.22199974 -0.01704812 0.55127680
v 0.22178230 -0.01705543 0.55128449
v 0.22091251 -0.01712564 0.55130612
v 0.22091179 -0.01697255 0.55133331
v 0.22051433 -0.01699351 0.55134362
v 0.22051433 -0.01219011 0.55182256
v 0.22296626 -0.01691014 0.55126107
v 0.22221935 -0.01717050 0.55124322
v 0.22296626 -0.01219011 0.55178751
v 0.22254864 -0.01702423 0.55125747
v 0.22199974 -0.01682774 0.55131758
v 0.22199974 -0.01660591 0.55135640
v 0.22091179 -0.01686334 0.55135198
v 0.22051433 -0.01687894 0.55136279
v 0.22199926 -0.01219011 0.55181093
v 0.22051433 -0.01241634 0.55181028
v 0.22296626 -0.01636164 0.55136181
v 0.22296626 -0.01276592 0.55175426
v 0.22199974 -0.01638309 0.55139325
v 0.22091179 -0.01674291 0.55137196
v 0.22051433 -0.01654155 0.55141291
v 0.22051433 -0.01285953 0.55178374
v 0.22199974 -0.01262453 0.55178440
v 0.22199974 -0.01604570 0.55144518
v 0.22199974 -0.01621440 0.55141979
v 0.22296626 -0.01532217 0.55151643
v 0.22199974 -0.01291852 0.55176491
v 0.22199974 -0.01334026 0.55173444
v 0.22292185 -0.01409743 0.55165565
v 0.22296626 -0.01435584 0.55162879
v 0.22199974 -0.01583021 0.55147613
v 0.22145636 -0.01562494 0.55151807
v 0.22051433 -0.01564347 0.55153789
v 0.22051433 -0.01299068 0.55177539
v 0.22296626 -0.01522417 0.55153035
v 0.22051433 -0.01315937 0.55176409
v 0.22199974 -0.01374590 0.55170201
v 0.22199974 -0.01396530 0.55168317
v 0.22199974 -0.01418422 0.55166352
v 0.22199974 -0.01451770 0.55163141
v 0.22287769 -0.01432024 0.55163469
v 0.22287769 -0.01446505 0.55161995
v 0.22296626 -0.01449089 0.55161503
v 0.22199974 -0.01561422 0.55150545
v 0.22287769 -0.01525099 0.55152937
v 0.22199974 -0.01537532 0.55153592
v 0.22145636 -0.01545771 0.55153903
v 0.22199974 -0.01514665 0.55156344
v 0.22199974 -0.01483169 0.55159882
v 0.22051433 -0.01508034 0.55159489
v 0.22292185 -0.01487070 0.55157441
v 0.22292185 -0.01497503 0.55156229
v 0.22292185 -0.01507888 0.55154968
v 0.22292185 -0.01467811 0.55159603
f 1 2 3
f 1 3 8
f 1 8 18
f 1 18 10
f 1 10 4
f 1 4 5
f 1 5 15
f 1 15 24
f 1 24 31
f 1 31 43
f 1 43 60
f 1 60 46
f 1 46 44
f 1 44 32
f 1 32 26
f 1 26 16
f 1 16 6
f 1 6 2
f 2 6 9
f 2 9 3
f 3 7 8
f 3 9 19
f 3 19 28
f 3 28 40
f 3 40 53
f 3 53 45
f 3 45 36
f 3 36 27
f 3 27 17
f 3 17 7
f 4 10 11
f 4 11 12
f 4 12 13
f 4 13 5
f 5 13 14
f 5 14 15
f 6 16 25
f 6 25 19
f 6 19 9
f 7 17 18
f 7 18 8
f 10 18 11
f 11 20 17
f 11 17 21
f 11 21 12
f 11 18 20
f 12 21 13
f 13 21 14
f 14 21 22
f 14 22 23
f 14 23 15
f 15 23 24
f 16 26 25
f 17 20 18
f 17 27 21
f 19 25 28
f 21 27 22
f 22 27 29
f 22 29 30
f 22 30 23
f 23 30 24
f 24 30 31
f 25 26 32
f 25 32 33
f 25 33 28
f 27 34 35
f 27 35 29
f 27 36 34
f 28 33 37
f 28 37 38
f 28 38 39
f 28 39 40
f 29 35 30
f 30 35 34
f 30 34 31
f 31 34 41
f 31 41 42
f 31 42 43
f 32 44 33
f 33 44 37
f 34 36 41
f 36 45 41
f 37 44 46
f 37 46 38
f 38 47 39
f 38 46 47
f 39 47 48
f 39 48 49
f 39 49 50
f 39 50 51
f 39 51 40
f 40 51 52
f 40 52 53
f 41 54 42
f 41 45 55
f 41 55 54
f 42 54 55
f 42 55 56
f 42 56 57
f 42 57 43
f 43 57 58
f 43 58 59
f 43 59 50
f 43 50 60
f 45 53 61
f 45 61 62
f 45 62 63
f 45 63 55
f 46 48 47
f 46 60 48
f 48 60 49
f 49 60 50
f 50 59 52
f 50 52 51
f 52 59 64
f 52 64 53
f 53 64 61
f 55 63 56
f 56 63 57
f 57 63 62
f 57 62 58
f 58 62 61
f 58 61 59
f 59 61 64

