# https://github.com/mikedh/trimesh
v 0.23131768 0.01499167 0.55014905
v 0.22102207 0.01219827 0.55014938
v 0.22102207 0.01499167 0.55014938
v 0.22426876 0.01492878 0.55153343
v 0.23358536 0.01490745 0.55107197
v 0.23799776 0.01460968 0.55051138
v 0.23927276 0.01448691 0.55018031
v 0.22102207 0.01219827 0.55181193
v 0.24427941 0.01243698 0.55026983
v 0.23876504 0.01225788 0.55139768
v 0.23701192 0.01224940 0.55149160
v 0.22102207 0.01465206 0.55163077
v 0.22200337 0.01468570 0.55161286
v 0.22623363 0.01412242 0.55158243
v 0.22725818 0.01413965 0.55155248
v 0.22638390 0.01480382 0.55148574
v 0.22969434 0.01484675 0.55134624
v 0.23678424 0.01367591 0.55117012
v 0.23580750 0.01464113 0.55091945
v 0.23670683 0.01466300 0.55076840
v 0.23279076 0.01487026 0.55115124
v 0.23896995 0.01424656 0.55054752
v 0.24011290 0.01396028 0.55042625
v 0.24193887 0.01317880 0.55051529
v 0.24285187 0.01288404 0.55043700
v 0.23541134 0.01225952 0.55155508
v 0.22724907 0.01236288 0.55173592
v 0.22200337 0.01250971 0.55178980
v 0.22200337 0.01401168 0.55167895
v 0.24206182 0.01244764 0.55100523
v 0.23785205 0.01248756 0.55140142
v 0.24004687 0.01240334 0.55126632
v 0.23550697 0.01384707 0.55122693
v 0.23439590 0.01392665 0.55128520
v 0.23626286 0.01301365 0.55137929
v 0.23613080 0.01256385 0.55147565
v 0.22375649 0.01405434 0.55164346
v 0.22725818 0.01350966 0.55162800
v 0.22900220 0.01336911 0.55160163
v 0.23075532 0.01319275 0.55157559
v 0.23075532 0.01335079 0.55155427
v 0.22929362 0.01387114 0.55152725
v 0.22958505 0.01406336 0.55148867
v 0.22795715 0.01475105 0.55143853
v 0.22900220 0.01459191 0.55142519
v 0.23250617 0.01386567 0.55140224
v 0.23337590 0.01409207 0.55130929
v 0.23142014 0.01472042 0.55128130
v 0.23973267 0.01325619 0.55098879
v 0.24107142 0.01279900 0.55099693
v 0.23250617 0.01456019 0.55125395
v 0.23364911 0.01436687 0.55122416
v 0.24072990 0.01350610 0.55063232
v 0.23428661 0.01306041 0.55146865
v 0.23077353 0.01406938 0.55144163
v 0.23163188 0.01316458 0.55155215
v 0.23353755 0.01261197 0.55156778
v 0.23068929 0.01243889 0.55166544
v 0.22900220 0.01253377 0.55169018
v 0.23512447 0.01318318 0.55140598
v 0.23337590 0.01423043 0.55127739
v 0.23337590 0.01345388 0.55143870
f 1 2 3
f 1 3 4
f 1 4 5
f 1 5 6
f 1 6 7
f 1 7 2
f 2 8 12
f 2 12 3
f 2 7 9
f 2 9 10
f 2 10 11
f 2 11 8
f 3 12 4
f 4 12 13
f 4 13 14
f 4 14 15
f 4 15 16
f 4 16 17
f 4 17 5
f 5 18 19
f 5 19 20
f 5 20 6
f 5 17 21
f 5 21 18
f 6 22 7
f 6 20 22
f 7 22 23
f 7 23 24
f 7 24 25
f 7 25 9
f 8 11 26
f 8 26 27
f 8 27 28
f 8 28 29
f 8 29 12
f 9 25 30
f 9 30 10
f 10 31 11
f 10 30 32
f 10 32 33
f 10 33 34
f 10 34 35
f 10 35 31
f 11 31 36
f 11 36 26
f 12 29 13
f 13 29 37
f 13 37 38
f 13 38 14
f 14 38 39
f 14 39 15
f 15 39 40
f 15 40 41
f 15 41 42
f 15 42 16
f 16 42 43
f 16 43 44
f 16 44 17
f 17 45 46
f 17 46 47
f 17 47 48
f 17 48 21
f 17 44 45
f 18 21 33
f 18 33 32
f 18 32 49
f 18 49 19
f 19 49 20
f 20 49 50
f 20 50 30
f 20 30 22
f 21 48 51
f 21 51 52
f 21 52 33
f 22 30 53
f 22 53 23
f 23 53 24
f 24 30 25
f 24 53 30
f 26 36 54
f 26 54 55
f 26 55 43
f 26 43 56
f 26 56 57
f 26 57 58
f 26 58 27
f 27 59 29
f 27 29 28
f 27 58 59
f 29 59 37
f 30 50 32
f 31 35 60
f 31 60 36
f 32 50 49
f 33 52 34
f 34 52 51
f 34 51 61
f 34 61 47
f 34 47 35
f 35 47 60
f 36 60 46
f 36 46 62
f 36 62 54
f 37 59 38
f 38 59 58
f 38 58 39
f 39 58 40
f 40 58 57
f 40 57 41
f 41 57 56
f 41 56 42
f 42 56 43
f 43 55 45
f 43 45 44
f 45 55 62
f 45 62 46
f 46 60 47
f 47 61 51
f 47 51 48
f 54 62 55

