# https://github.com/mikedh/trimesh
v 0.25820017 -0.00295924 0.55014894
v 0.25820017 -0.00250153 0.54957778
v 0.25823403 -0.00286662 0.54963843
v 0.25857248 -0.00295924 0.54981511
v 0.25886487 -0.00295082 0.54996481
v 0.25915581 -0.00290511 0.55013148
v 0.25948046 -0.00233312 0.55013789
v 0.25975215 -0.00153138 0.55014894
v 0.25820017 0.00318525 0.55014894
v 0.25820017 -0.00180444 0.54953088
v 0.25822825 -0.00210277 0.54955628
v 0.25900015 -0.00178700 0.54983411
v 0.25900015 -0.00209555 0.54986025
v 0.25862993 -0.00267114 0.54977884
v 0.25900015 -0.00268798 0.54996365
v 0.25928708 -0.00266693 0.55012073
v 0.25900015 -0.00242394 0.54990721
v 0.25955941 -0.00187963 0.55009257
v 0.25949971 -0.00154341 0.55002881
v 0.25981072 -0.00109111 0.55014894
v 0.25975872 0.00150358 0.55014894
v 0.25950244 0.00229389 0.55013807
v 0.25933876 0.00260124 0.55013129
v 0.25900528 0.00304511 0.55009294
v 0.25842693 0.00318525 0.54979612
v 0.25822697 0.00305654 0.54966848
v 0.25821943 0.00271672 0.54961088
v 0.25824222 -0.00040605 0.54952514
v 0.25822472 -0.00137921 0.54952721
v 0.25900015 -0.00130343 0.54981121
v 0.25822825 0.00199377 0.54955012
v 0.25824222 0.00161485 0.54953937
v 0.25824912 0.00071326 0.54952837
v 0.25949971 -0.00111878 0.55000811
v 0.25983495 -0.00064062 0.55014894
v 0.25979901 0.00121909 0.55014894
v 0.25949971 0.00134960 0.55001727
v 0.25949971 0.00165936 0.55003871
v 0.25961333 0.00196249 0.55013148
v 0.25925146 0.00236908 0.55002020
v 0.25900015 0.00270168 0.54996652
v 0.25864678 0.00296693 0.54985359
v 0.25872268 0.00258801 0.54980663
v 0.25900015 0.00201542 0.54985280
v 0.25823515 0.00231615 0.54957412
v 0.25900015 -0.00026291 0.54980009
v 0.25900015 -0.00058408 0.54980082
v 0.25900015 -0.00089865 0.54980302
v 0.25825618 0.00028021 0.54952990
v 0.25900015 0.00162627 0.54982495
v 0.25900015 0.00113127 0.54980705
v 0.25824912 0.00122570 0.54953295
v 0.25900015 0.00066334 0.54980125
v 0.25900015 0.00024653 0.54980009
v 0.25949971 -0.00071821 0.55000053
v 0.25983960 -0.00023163 0.55014894
v 0.25982661 0.00087325 0.55014894
v 0.25949971 0.00101820 0.55000554
v 0.25900015 0.00236306 0.54989750
v 0.25949971 0.00025315 0.54999840
v 0.25949971 -0.00028035 0.54999846
v 0.25949971 0.00063868 0.54999974
v 0.25983945 0.00024593 0.55014894
v 0.25983640 0.00058996 0.55014894
f 1 2 3
f 1 3 4
f 1 4 5
f 1 5 6
f 1 6 7
f 1 7 8
f 1 8 20
f 1 20 35
f 1 35 56
f 1 56 63
f 1 63 64
f 1 64 57
f 1 57 36
f 1 36 21
f 1 21 9
f 1 9 10
f 1 10 2
f 2 10 11
f 2 11 12
f 2 12 13
f 2 13 14
f 2 14 3
f 3 14 4
f 4 14 15
f 4 15 5
f 5 15 16
f 5 16 6
f 6 16 7
f 7 16 15
f 7 15 17
f 7 17 18
f 7 18 8
f 8 18 19
f 8 19 20
f 9 21 22
f 9 22 23
f 9 23 24
f 9 24 25
f 9 25 26
f 9 26 27
f 9 27 10
f 10 28 29
f 10 29 30
f 10 30 12
f 10 12 11
f 10 27 31
f 10 31 32
f 10 32 33
f 10 33 28
f 12 30 34
f 12 34 19
f 12 19 13
f 13 19 18
f 13 18 17
f 13 17 14
f 14 17 15
f 19 34 20
f 20 34 35
f 21 36 37
f 21 37 38
f 21 38 39
f 21 39 22
f 22 39 40
f 22 40 41
f 22 41 23
f 23 41 25
f 23 25 24
f 25 41 42
f 25 42 26
f 26 42 41
f 26 41 43
f 26 43 27
f 27 43 44
f 27 44 45
f 27 45 31
f 28 46 47
f 28 47 48
f 28 48 29
f 28 33 49
f 28 49 46
f 29 48 30
f 30 48 34
f 31 45 50
f 31 50 32
f 32 50 51
f 32 51 52
f 32 52 33
f 33 52 53
f 33 53 54
f 33 54 49
f 34 48 55
f 34 55 35
f 35 55 56
f 36 57 37
f 37 57 58
f 37 58 51
f 37 51 50
f 37 50 38
f 38 50 44
f 38 44 59
f 38 59 39
f 39 59 40
f 40 59 43
f 40 43 41
f 43 59 44
f 44 50 45
f 46 54 60
f 46 60 61
f 46 61 47
f 46 49 54
f 47 61 55
f 47 55 48
f 51 58 62
f 51 62 53
f 51 53 52
f 53 62 60
f 53 60 54
f 55 61 56
f 56 61 60
f 56 60 63
f 57 64 58
f 58 64 62
f 60 62 63
f 62 64 63

