# https://github.com/mikedh/trimesh
v 0.21432245 -0.00827803 0.55029936
v 0.21467965 -0.00827803 0.55029936
v 0.21432245 -0.00827803 0.55069950
v 0.21432245 0.00800979 0.55029936
v 0.21467965 -0.00827803 0.55042728
v 0.21546450 -0.00676022 0.55029936
v 0.21446332 -0.00827803 0.55069950
v 0.21432245 0.00800979 0.55069950
v 0.21465047 0.00800979 0.55029936
v 0.21546450 -0.00676022 0.55042728
v 0.21546450 -0.00653223 0.55069950
v 0.21546450 0.00676142 0.55029936
v 0.21443660 0.00800979 0.55069950
v 0.21465047 0.00800979 0.55042728
v 0.21546450 0.00653183 0.55069950
v 0.21546450 0.00676142 0.55042728
f 1 2 5
f 1 5 7
f 1 7 3
f 1 3 8
f 1 8 4
f 1 4 9
f 1 9 12
f 1 12 6
f 1 6 2
f 2 6 10
f 2 10 5
f 3 7 11
f 3 11 15
f 3 15 13
f 3 13 8
f 4 8 13
f 4 13 14
f 4 14 9
f 5 10 11
f 5 11 7
f 6 12 16
f 6 16 15
f 6 15 11
f 6 11 10
f 9 14 16
f 9 16 12
f 13 15 14
f 14 15 16

