# https://github.com/mikedh/trimesh
v 0.16000000 -0.01634376 0.54154185
v 0.16000000 -0.01641552 0.54155159
v 0.16000000 -0.01634376 0.54369433
v 0.16083929 -0.01634376 0.54156606
v 0.16249701 -0.01701517 0.54170240
v 0.16000000 -0.01682596 0.54161081
v 0.16000000 -0.01898061 0.54421995
v 0.16687585 -0.01634376 0.54392674
v 0.16249701 -0.01634376 0.54161739
v 0.16499940 -0.01740702 0.54183427
v 0.16687585 -0.01838044 0.54202641
v 0.16687585 -0.01840368 0.54202983
v 0.16249701 -0.01780403 0.54181979
v 0.16000000 -0.01723588 0.54167503
v 0.16000000 -0.01898061 0.54201404
v 0.16665442 -0.01898061 0.54423022
v 0.16687585 -0.01897648 0.54423048
v 0.16687585 -0.01634376 0.54178663
v 0.16329457 -0.01634376 0.54164450
v 0.16499940 -0.01660112 0.54173530
v 0.16687585 -0.01684661 0.54183243
v 0.16687585 -0.01844652 0.54203720
v 0.16586022 -0.01874829 0.54205799
v 0.16586022 -0.01834482 0.54199351
v 0.16510170 -0.01898061 0.54208089
v 0.16249701 -0.01859082 0.54195613
v 0.16000000 -0.01764502 0.54174478
v 0.16000000 -0.01886754 0.54198824
v 0.16051690 -0.01898061 0.54201351
v 0.16680720 -0.01898061 0.54422995
v 0.16687585 -0.01898061 0.54305027
v 0.16687585 -0.01655363 0.54180032
v 0.16642222 -0.01634376 0.54176347
v 0.16526659 -0.01634376 0.54171741
v 0.16667865 -0.01662693 0.54179900
v 0.16687585 -0.01660706 0.54180611
v 0.16687585 -0.01898061 0.54213037
v 0.16600897 -0.01898061 0.54210326
v 0.16499940 -0.01898061 0.54207879
v 0.16268748 -0.01898061 0.54203641
v 0.16222846 -0.01898061 0.54203036
v 0.16000000 -0.01805313 0.54182006
v 0.16000000 -0.01846072 0.54190112
v 0.16063132 -0.01898061 0.54201377
v 0.16119129 -0.01898061 0.54201904
f 1 2 6
f 1 6 14
f 1 14 27
f 1 27 42
f 1 42 43
f 1 43 28
f 1 28 15
f 1 15 7
f 1 7 3
f 1 3 8
f 1 8 18
f 1 18 33
f 1 33 34
f 1 34 19
f 1 19 9
f 1 9 4
f 1 4 5
f 1 5 2
f 2 5 6
f 3 7 8
f 4 9 5
f 5 10 11
f 5 11 12
f 5 12 13
f 5 13 6
f 5 9 10
f 6 13 14
f 7 15 29
f 7 29 44
f 7 44 45
f 7 45 41
f 7 41 40
f 7 40 39
f 7 39 25
f 7 25 38
f 7 38 37
f 7 37 31
f 7 31 30
f 7 30 16
f 7 16 17
f 7 17 8
f 8 17 31
f 8 31 37
f 8 37 22
f 8 22 12
f 8 12 11
f 8 11 21
f 8 21 36
f 8 36 32
f 8 32 18
f 9 19 10
f 10 19 20
f 10 20 21
f 10 21 11
f 12 22 23
f 12 23 24
f 12 24 13
f 13 25 26
f 13 26 27
f 13 27 14
f 13 24 23
f 13 23 25
f 15 28 29
f 16 30 17
f 17 30 31
f 18 32 33
f 19 34 35
f 19 35 20
f 20 35 21
f 21 35 36
f 22 37 23
f 23 37 38
f 23 38 25
f 25 39 26
f 26 39 40
f 26 40 41
f 26 41 42
f 26 42 27
f 28 43 29
f 29 43 44
f 32 36 35
f 32 35 33
f 33 35 34
f 41 45 43
f 41 43 42
f 43 45 44

