# https://github.com/mikedh/trimesh
v 0.21988220 -0.01925081 0.54728838
v 0.21676723 -0.01925081 0.54653103
v 0.21273804 -0.02072164 0.54706374
v 0.21963813 -0.01931640 0.54728838
v 0.22625830 -0.01945897 0.54728838
v 0.22682504 -0.01925499 0.54722025
v 0.22636034 -0.01925114 0.54656373
v 0.21273804 -0.02049942 0.54653103
v 0.22577430 -0.01945562 0.54654794
v 0.22397068 -0.02008227 0.54653103
v 0.21273804 -0.02096025 0.54653103
v 0.21282629 -0.02095992 0.54702333
v 0.21652178 -0.02019388 0.54728838
v 0.22505037 -0.01986959 0.54728838
v 0.22572466 -0.01963684 0.54723611
v 0.22600596 -0.01953862 0.54721484
v 0.22627071 -0.01944340 0.54717695
v 0.22660303 -0.01931121 0.54707063
v 0.22653822 -0.01926721 0.54677629
v 0.22628175 -0.01942249 0.54705402
v 0.22612455 -0.01934719 0.54658797
v 0.22530685 -0.01962697 0.54655891
v 0.22387554 -0.02013598 0.54659131
v 0.22305508 -0.02039786 0.54654712
v 0.22165273 -0.02085216 0.54653103
v 0.22446985 -0.01993184 0.54659109
v 0.22133971 -0.02095891 0.54655439
v 0.22151897 -0.02094452 0.54672536
v 0.22180992 -0.02089600 0.54698767
v 0.22414718 -0.02016878 0.54728838
v 0.22445744 -0.02006403 0.54723967
v 0.22479390 -0.01995242 0.54724271
v 0.22500625 -0.01987143 0.54714092
v 0.22602251 -0.01951954 0.54710095
v 0.22606388 -0.01947871 0.54694748
v 0.22624727 -0.01938066 0.54680565
v 0.22554540 -0.01958329 0.54666627
v 0.22515241 -0.01980400 0.54700635
v 0.22543509 -0.01969591 0.54694518
v 0.22498832 -0.01977187 0.54664803
v 0.22418028 -0.02007909 0.54674397
v 0.22279171 -0.02051750 0.54665715
v 0.22239872 -0.02063095 0.54659650
v 0.22200849 -0.02076180 0.54661451
v 0.22234356 -0.02068416 0.54673284
v 0.22236149 -0.02071746 0.54694615
v 0.22212294 -0.02080296 0.54702044
v 0.22313230 -0.02048252 0.54705054
v 0.22405893 -0.02018049 0.54707345
v 0.22475804 -0.01994071 0.54702956
v 0.22548335 -0.01969892 0.54706136
v 0.22571501 -0.01958697 0.54689002
v 0.22520619 -0.01975046 0.54683434
v 0.22433609 -0.02007407 0.54697113
v 0.22423681 -0.02008026 0.54682760
v 0.22370869 -0.02025127 0.54679927
v 0.22315436 -0.02042346 0.54675412
v 0.22345497 -0.02035937 0.54693384
v 0.22281515 -0.02057790 0.54699768
v 0.22379694 -0.02025880 0.54700791
f 1 2 3
f 1 3 4
f 1 4 13
f 1 13 30
f 1 30 14
f 1 14 5
f 1 5 6
f 1 6 7
f 1 7 2
f 2 8 3
f 2 7 9
f 2 9 10
f 2 10 25
f 2 25 11
f 2 11 8
f 3 11 12
f 3 12 13
f 3 13 4
f 3 8 11
f 5 14 15
f 5 15 16
f 5 16 17
f 5 17 6
f 6 18 19
f 6 19 7
f 6 17 20
f 6 20 18
f 7 19 21
f 7 21 9
f 9 21 22
f 9 22 10
f 10 23 24
f 10 24 25
f 10 22 26
f 10 26 23
f 11 27 12
f 11 25 27
f 12 27 28
f 12 28 29
f 12 29 30
f 12 30 13
f 14 31 32
f 14 32 15
f 14 30 31
f 15 32 33
f 15 33 16
f 16 33 34
f 16 34 17
f 17 34 20
f 18 20 35
f 18 35 36
f 18 36 19
f 19 36 37
f 19 37 21
f 20 34 38
f 20 38 39
f 20 39 35
f 21 37 22
f 22 37 40
f 22 40 26
f 23 26 40
f 23 40 41
f 23 41 24
f 24 42 43
f 24 43 25
f 24 41 42
f 25 44 27
f 25 43 44
f 27 44 28
f 28 44 45
f 28 45 46
f 28 46 29
f 29 46 47
f 29 47 30
f 30 47 48
f 30 48 31
f 31 48 49
f 31 49 32
f 32 49 33
f 33 50 38
f 33 38 51
f 33 51 34
f 33 49 50
f 34 51 38
f 35 52 36
f 35 39 52
f 36 52 53
f 36 53 40
f 36 40 37
f 38 50 54
f 38 54 55
f 38 55 39
f 39 55 53
f 39 53 52
f 40 53 41
f 41 56 57
f 41 57 42
f 41 53 55
f 41 55 56
f 42 57 43
f 43 57 45
f 43 45 44
f 45 57 56
f 45 56 58
f 45 58 46
f 46 58 59
f 46 59 48
f 46 48 47
f 48 59 58
f 48 58 60
f 48 60 49
f 49 60 54
f 49 54 50
f 54 60 58
f 54 58 56
f 54 56 55

