# https://github.com/mikedh/trimesh
v 0.22448025 0.02007223 0.54817261
v 0.22487494 0.01994166 0.54815101
v 0.22451002 0.02005975 0.54757955
v 0.21864814 0.02007223 0.54704779
v 0.21864814 0.02007223 0.54828000
v 0.22508000 0.01987189 0.54828000
v 0.22582087 0.01962458 0.54828000
v 0.22548351 0.01973781 0.54821930
v 0.22594214 0.01958288 0.54770805
v 0.22509103 0.01986624 0.54756217
v 0.22484628 0.01993932 0.54732350
v 0.22447143 0.02004962 0.54714070
v 0.21806604 0.01943691 0.54704767
v 0.21806824 0.02006852 0.54704815
v 0.21806604 0.02007203 0.54823185
v 0.22469744 0.01996329 0.54704779
v 0.22280779 0.01840463 0.54828036
v 0.21864814 0.01962108 0.54828000
v 0.22637872 0.01943535 0.54797689
v 0.22688806 0.01925996 0.54828000
v 0.22725188 0.01913563 0.54780277
v 0.22637872 0.01943282 0.54762130
v 0.22572275 0.01965265 0.54749798
v 0.22550335 0.01971969 0.54735789
v 0.22572275 0.01963842 0.54725207
v 0.22507118 0.01985045 0.54716374
v 0.22282654 0.01808151 0.54704827
v 0.21806604 0.01969221 0.54823185
v 0.22283646 0.01841067 0.54704767
v 0.22572275 0.01962556 0.54712960
v 0.22540633 0.01972300 0.54704779
v 0.22932895 0.01841067 0.54828000
v 0.22792660 0.01890313 0.54828000
v 0.22761019 0.01901227 0.54828000
v 0.22768846 0.01898498 0.54782630
v 0.22801590 0.01887059 0.54777128
v 0.22714274 0.01916856 0.54756253
v 0.22605128 0.01954040 0.54747457
v 0.22703359 0.01919312 0.54732145
v 0.22594214 0.01956066 0.54721840
v 0.22799385 0.01881836 0.54704779
v 0.22904120 0.01845081 0.54709291
v 0.22925288 0.01841067 0.54732579
v 0.22589253 0.01955560 0.54704779
v 0.22703359 0.01916798 0.54710824
v 0.22931021 0.01841496 0.54773122
v 0.22902687 0.01851844 0.54820941
v 0.22818017 0.01881485 0.54823632
v 0.22899821 0.01852643 0.54774136
v 0.22856163 0.01867805 0.54769237
v 0.22834334 0.01875093 0.54756229
v 0.22774359 0.01895926 0.54752465
v 0.22725188 0.01912608 0.54745563
v 0.22678774 0.01928627 0.54745780
v 0.22750214 0.01903838 0.54744501
v 0.22812505 0.01882031 0.54742860
v 0.22776784 0.01892866 0.54724048
v 0.22743489 0.01902279 0.54708254
v 0.22812505 0.01880316 0.54724579
v 0.22899821 0.01850285 0.54733207
v 0.22899821 0.01851785 0.54751596
f 1 2 3
f 1 3 4
f 1 4 5
f 1 5 6
f 1 6 2
f 2 6 7
f 2 7 8
f 2 8 9
f 2 9 10
f 2 10 3
f 3 10 11
f 3 11 12
f 3 12 4
f 4 13 14
f 4 14 15
f 4 15 5
f 4 12 16
f 4 16 13
f 5 17 6
f 5 15 28
f 5 28 18
f 5 18 17
f 6 17 7
f 7 19 9
f 7 9 8
f 7 17 20
f 7 20 19
f 9 19 21
f 9 21 22
f 9 22 23
f 9 23 10
f 10 23 11
f 11 23 24
f 11 24 25
f 11 25 26
f 11 26 12
f 12 26 16
f 13 27 28
f 13 28 15
f 13 15 14
f 13 16 29
f 13 29 27
f 16 26 30
f 16 30 31
f 16 31 29
f 17 18 28
f 17 28 27
f 17 27 32
f 17 32 33
f 17 33 34
f 17 34 20
f 19 20 34
f 19 34 21
f 21 34 33
f 21 33 35
f 21 35 36
f 21 36 37
f 21 37 22
f 22 38 23
f 22 37 38
f 23 38 24
f 24 38 25
f 25 38 39
f 25 39 40
f 25 40 26
f 26 40 30
f 27 29 41
f 27 41 42
f 27 42 43
f 27 43 32
f 29 31 44
f 29 44 41
f 30 40 45
f 30 45 44
f 30 44 31
f 32 43 46
f 32 46 47
f 32 47 33
f 33 47 48
f 33 48 35
f 35 48 36
f 36 48 47
f 36 47 49
f 36 49 50
f 36 50 51
f 36 51 52
f 36 52 37
f 37 52 53
f 37 53 54
f 37 54 38
f 38 54 39
f 39 54 53
f 39 53 55
f 39 55 56
f 39 56 57
f 39 57 40
f 40 57 45
f 41 58 59
f 41 59 42
f 41 44 58
f 42 59 43
f 43 59 60
f 43 60 61
f 43 61 46
f 44 45 58
f 45 57 58
f 46 61 49
f 46 49 47
f 49 61 51
f 49 51 50
f 51 56 52
f 51 61 56
f 52 55 53
f 52 56 55
f 56 61 60
f 56 60 59
f 56 59 57
f 57 59 58

