# https://github.com/mikedh/trimesh
v 0.24575493 -0.01126768 0.54754411
v 0.24634839 -0.01130676 0.54792010
v 0.24590862 -0.01130504 0.54764872
v 0.24547002 -0.01152402 0.54759672
v 0.24501369 -0.01162353 0.54744751
v 0.24533525 -0.01143157 0.54746272
v 0.24551967 -0.01127199 0.54744159
v 0.23594267 -0.01126768 0.54742256
v 0.23600060 -0.01126768 0.54794387
v 0.24618643 -0.01141901 0.54793989
v 0.24550076 -0.01168998 0.54777573
v 0.24590625 -0.01147306 0.54780543
v 0.24613560 -0.01132071 0.54779548
v 0.24567218 -0.01150526 0.54769618
v 0.24529624 -0.01168654 0.54764576
v 0.24463302 -0.01200864 0.54756784
v 0.24481981 -0.01179982 0.54748568
v 0.24406793 -0.01219027 0.54742460
v 0.23427104 -0.01302642 0.54742256
v 0.23600060 -0.01302642 0.54794387
v 0.24597719 -0.01154348 0.54794387
v 0.24549130 -0.01173061 0.54781839
v 0.24516738 -0.01185818 0.54774466
v 0.24469923 -0.01202104 0.54762091
v 0.24493330 -0.01188813 0.54762739
v 0.24512009 -0.01178966 0.54764112
v 0.24462593 -0.01190793 0.54747568
v 0.24420270 -0.01224174 0.54754901
v 0.24412349 -0.01222125 0.54748247
v 0.24391425 -0.01231336 0.54745374
v 0.24364825 -0.01244729 0.54743383
v 0.24261501 -0.01302642 0.54744557
v 0.24310326 -0.01299733 0.54780757
v 0.24325931 -0.01296118 0.54791122
v 0.24493094 -0.01212398 0.54794387
v 0.24574193 -0.01166244 0.54792224
v 0.24534707 -0.01184526 0.54786432
v 0.24483282 -0.01206201 0.54776170
v 0.24468859 -0.01208921 0.54769322
v 0.24405847 -0.01236431 0.54759596
v 0.24381258 -0.01245384 0.54753972
v 0.24357377 -0.01254026 0.54748650
v 0.24336689 -0.01262014 0.54744756
v 0.24309498 -0.01277818 0.54745670
v 0.24335388 -0.01271517 0.54755130
v 0.24278643 -0.01298063 0.54750747
v 0.24294839 -0.01295550 0.54759289
v 0.24315291 -0.01287889 0.54763484
v 0.24337398 -0.01284704 0.54777854
v 0.24389533 -0.01264252 0.54790341
v 0.24435521 -0.01241355 0.54791846
v 0.24471696 -0.01219405 0.54786713
v 0.24489902 -0.01207750 0.54783681
v 0.24489902 -0.01206907 0.54782441
v 0.24413650 -0.01242336 0.54773358
v 0.24430082 -0.01228891 0.54766985
v 0.24357377 -0.01259070 0.54754457
v 0.24357377 -0.01264493 0.54761530
v 0.24357377 -0.01269158 0.54768413
v 0.24411995 -0.01252149 0.54788999
v 0.24389297 -0.01255007 0.54772930
f 1 2 3
f 1 3 4
f 1 4 5
f 1 5 6
f 1 6 7
f 1 7 8
f 1 8 9
f 1 9 2
f 2 10 11
f 2 11 12
f 2 12 13
f 2 13 3
f 2 9 10
f 3 13 14
f 3 14 4
f 4 14 15
f 4 15 16
f 4 16 17
f 4 17 5
f 5 7 6
f 5 17 18
f 5 18 7
f 7 18 8
f 8 19 9
f 8 18 19
f 9 19 20
f 9 20 35
f 9 35 21
f 9 21 10
f 10 21 22
f 10 22 11
f 11 22 23
f 11 23 24
f 11 24 25
f 11 25 26
f 11 26 12
f 12 26 15
f 12 15 13
f 13 15 14
f 15 26 16
f 16 27 17
f 16 26 25
f 16 25 24
f 16 24 28
f 16 28 29
f 16 29 18
f 16 18 27
f 17 27 18
f 18 29 30
f 18 30 31
f 18 31 32
f 18 32 19
f 19 32 20
f 20 32 33
f 20 33 34
f 20 34 35
f 21 36 22
f 21 35 36
f 22 37 38
f 22 38 23
f 22 36 37
f 23 38 39
f 23 39 24
f 24 39 40
f 24 40 28
f 28 40 41
f 28 41 42
f 28 42 31
f 28 31 29
f 29 31 30
f 31 42 43
f 31 43 32
f 32 43 44
f 32 44 45
f 32 45 46
f 32 46 47
f 32 47 33
f 33 47 48
f 33 48 49
f 33 49 50
f 33 50 34
f 34 51 35
f 34 50 51
f 35 52 53
f 35 53 36
f 35 51 52
f 36 53 37
f 37 53 54
f 37 54 38
f 38 54 55
f 38 55 56
f 38 56 39
f 39 56 40
f 40 56 57
f 40 57 41
f 41 57 42
f 42 57 44
f 42 44 43
f 44 57 45
f 45 48 46
f 45 57 58
f 45 58 48
f 46 48 47
f 48 58 59
f 48 59 49
f 49 59 60
f 49 60 50
f 50 60 51
f 51 60 52
f 52 60 61
f 52 61 55
f 52 55 53
f 53 55 54
f 55 61 59
f 55 59 58
f 55 58 56
f 56 58 57
f 59 61 60

