# https://github.com/mikedh/trimesh
v 0.25856988 -0.00295924 0.54981503
v 0.25819839 -0.00295924 0.55014907
v 0.25883396 -0.00317527 0.55004177
v 0.25812006 -0.00360983 0.54976865
v 0.25805516 -0.00320374 0.54962317
v 0.25671688 -0.00350935 0.54930458
v 0.25602536 -0.00365337 0.54930458
v 0.23977578 -0.00703945 0.54930458
v 0.23920287 -0.00715918 0.54930458
v 0.25365763 -0.00758705 0.55014907
v 0.25811558 -0.00413064 0.55012468
v 0.25847365 -0.00374631 0.55011625
v 0.23600264 -0.00786001 0.54930458
v 0.23597131 -0.00786587 0.54974526
v 0.23597131 -0.00786587 0.55014907
v 0.25806635 -0.00402179 0.54995200
v 0.25781794 -0.00393052 0.54972178
v 0.25697200 -0.00404607 0.54932219
v 0.25668331 -0.00456855 0.54932624
v 0.25733231 -0.00352610 0.54937336
v 0.25033432 -0.00953714 0.54930458
v 0.25385681 -0.00742043 0.54958183
v 0.25459533 -0.00696577 0.54997424
v 0.25511676 -0.00659568 0.54999407
v 0.25638119 -0.00562691 0.55001565
v 0.25236859 -0.00837747 0.55014907
v 0.25299969 -0.00799901 0.55000052
v 0.25288331 -0.00803585 0.54941419
v 0.25735469 -0.00479630 0.55003541
v 0.25779556 -0.00437513 0.55003417
v 0.24767566 -0.01094968 0.54930739
v 0.23598697 -0.01151235 0.54942651
v 0.23597131 -0.01151235 0.55014907
v 0.25748001 -0.00419427 0.54963540
v 0.25639910 -0.00541591 0.54962755
v 0.25621111 -0.00522165 0.54933318
v 0.25702795 -0.00452669 0.54950843
v 0.25341818 -0.00768753 0.54942411
v 0.25182925 -0.00868392 0.54941924
v 0.25136824 -0.00895689 0.54944172
v 0.25092289 -0.00921143 0.54947421
v 0.25087589 -0.00923906 0.55004574
v 0.24988449 -0.00978582 0.54940551
v 0.24936306 -0.01006716 0.54934120
v 0.24866930 -0.01043557 0.54932682
v 0.25538755 -0.00614102 0.54937890
v 0.25436258 -0.00705871 0.54951727
v 0.25543231 -0.00635872 0.54990529
v 0.25584633 -0.00604221 0.54994464
v 0.25481240 -0.00671625 0.54950587
v 0.25681759 -0.00513206 0.54978122
v 0.25040593 -0.00949444 0.55013791
v 0.25141747 -0.00893177 0.55013543
v 0.25194562 -0.00862782 0.55002557
v 0.25242901 -0.00832639 0.54947652
v 0.24783455 -0.01085758 0.54987744
v 0.24703337 -0.01127623 0.54936526
v 0.24658803 -0.01149812 0.54940568
v 0.24704680 -0.01124944 0.54991629
v 0.24818591 -0.01066081 0.55009575
v 0.25600522 -0.00572571 0.54957497
v 0.24983302 -0.00981345 0.54990257
v 0.24875658 -0.01037780 0.55000722
v 0.24927130 -0.01010400 0.55007823
f 1 2 3
f 1 3 4
f 1 4 5
f 1 5 6
f 1 6 7
f 1 7 8
f 1 8 9
f 1 9 2
f 2 10 11
f 2 11 12
f 2 12 3
f 2 9 13
f 2 13 14
f 2 14 15
f 2 15 33
f 2 33 26
f 2 26 10
f 3 12 16
f 3 16 17
f 3 17 4
f 4 18 5
f 4 17 19
f 4 19 18
f 5 18 20
f 5 20 6
f 6 20 18
f 6 18 19
f 6 19 21
f 6 21 13
f 6 13 9
f 6 9 8
f 6 8 7
f 10 22 23
f 10 23 24
f 10 24 25
f 10 25 11
f 10 26 27
f 10 27 28
f 10 28 22
f 11 25 29
f 11 29 30
f 11 30 16
f 11 16 12
f 13 31 32
f 13 32 14
f 13 21 31
f 14 32 33
f 14 33 15
f 16 34 17
f 16 30 35
f 16 35 36
f 16 36 34
f 17 34 37
f 17 37 19
f 19 36 21
f 19 37 36
f 21 38 28
f 21 28 39
f 21 39 40
f 21 40 41
f 21 41 42
f 21 42 43
f 21 43 44
f 21 44 45
f 21 45 31
f 21 36 46
f 21 46 38
f 22 47 23
f 22 28 38
f 22 38 47
f 23 47 48
f 23 48 24
f 24 48 49
f 24 49 25
f 25 49 50
f 25 50 35
f 25 35 51
f 25 51 29
f 26 33 52
f 26 52 53
f 26 53 54
f 26 54 27
f 27 54 39
f 27 39 55
f 27 55 28
f 28 55 39
f 29 51 30
f 30 51 35
f 31 45 56
f 31 56 57
f 31 57 32
f 32 58 33
f 32 57 58
f 33 58 59
f 33 59 60
f 33 60 52
f 34 36 37
f 35 50 61
f 35 61 46
f 35 46 36
f 38 46 50
f 38 50 47
f 39 54 40
f 40 54 53
f 40 53 41
f 41 53 42
f 42 53 52
f 42 52 62
f 42 62 43
f 43 62 44
f 44 62 45
f 45 62 63
f 45 63 56
f 46 61 50
f 47 50 48
f 48 50 49
f 52 60 64
f 52 64 62
f 56 63 60
f 56 60 59
f 56 59 58
f 56 58 57
f 60 63 64
f 62 64 63

