# https://github.com/mikedh/trimesh
v 0.24763583 0.00540464 0.55739124
v 0.24782557 0.00536132 0.55739124
v 0.24700159 0.00407964 0.55740009
v 0.24700159 0.00540464 0.55740009
v 0.25876905 0.00540464 0.55739124
v 0.25397560 0.00407964 0.55739124
v 0.24663296 0.00407964 0.55895079
v 0.24653403 0.00540464 0.55895079
v 0.25887747 0.00540464 0.55750222
v 0.25896150 0.00540335 0.55741932
v 0.25915394 0.00525445 0.55739124
v 0.26024219 0.00423541 0.55739124
v 0.26037771 0.00407964 0.55740711
v 0.25652615 0.00407964 0.55885019
v 0.25618463 0.00408003 0.55895048
v 0.25614533 0.00425201 0.55895079
v 0.25579161 0.00526613 0.55895079
v 0.25574418 0.00538428 0.55894926
v 0.25585124 0.00540464 0.55891034
v 0.25862133 0.00540464 0.55770907
v 0.25879751 0.00537715 0.55759748
v 0.25924881 0.00504784 0.55751138
v 0.25986815 0.00459714 0.55739124
v 0.25953747 0.00490582 0.55739124
v 0.25936129 0.00506691 0.55739124
v 0.25969468 0.00470038 0.55744436
v 0.25903197 0.00516496 0.55758664
v 0.26013648 0.00429053 0.55742894
v 0.25969468 0.00459922 0.55752420
v 0.26027201 0.00407964 0.55747947
v 0.25663999 0.00407964 0.55881584
v 0.25700590 0.00407964 0.55870440
v 0.25599896 0.00472632 0.55895079
v 0.25760762 0.00407964 0.55851739
v 0.25749785 0.00450700 0.55849663
v 0.25626730 0.00540464 0.55876928
v 0.25749785 0.00464656 0.55847434
v 0.25851698 0.00540464 0.55778051
v 0.26010531 0.00410001 0.55756862
v 0.25997250 0.00407964 0.55764908
v 0.25835571 0.00540464 0.55788035
v 0.25749785 0.00410442 0.55854915
v 0.25798438 0.00407964 0.55839466
v 0.25837604 0.00407964 0.55826459
v 0.25861998 0.00407964 0.55818170
v 0.25637572 0.00540464 0.55873111
v 0.25749785 0.00487470 0.55843282
v 0.25898996 0.00407964 0.55805255
v 0.25816191 0.00540464 0.55798859
v 0.25985459 0.00407964 0.55770632
v 0.25801826 0.00540464 0.55806232
v 0.25787596 0.00540464 0.55813178
v 0.25666845 0.00540464 0.55862654
v 0.25930437 0.00407964 0.55793561
v 0.25974753 0.00407964 0.55775517
v 0.25774314 0.00540464 0.55819315
v 0.25686496 0.00540464 0.55855327
v 0.25948462 0.00407964 0.55786585
v 0.25704385 0.00540464 0.55848595
v 0.25962285 0.00407964 0.55780906
v 0.25755612 0.00540464 0.55827665
v 0.25735013 0.00540464 0.55836413
v 0.25716040 0.00540464 0.55844045
f 1 2 3
f 1 3 4
f 1 4 8
f 1 8 19
f 1 19 36
f 1 36 46
f 1 46 53
f 1 53 57
f 1 57 59
f 1 59 63
f 1 63 62
f 1 62 61
f 1 61 56
f 1 56 52
f 1 52 51
f 1 51 49
f 1 49 41
f 1 41 38
f 1 38 20
f 1 20 9
f 1 9 5
f 1 5 11
f 1 11 25
f 1 25 24
f 1 24 23
f 1 23 12
f 1 12 6
f 1 6 2
f 2 6 3
f 3 6 13
f 3 13 30
f 3 30 40
f 3 40 50
f 3 50 55
f 3 55 60
f 3 60 58
f 3 58 54
f 3 54 48
f 3 48 45
f 3 45 44
f 3 44 43
f 3 43 34
f 3 34 32
f 3 32 31
f 3 31 14
f 3 14 7
f 3 7 8
f 3 8 4
f 5 9 10
f 5 10 11
f 6 12 13
f 7 14 15
f 7 15 16
f 7 16 33
f 7 33 17
f 7 17 8
f 8 17 18
f 8 18 19
f 9 20 21
f 9 21 22
f 9 22 23
f 9 23 24
f 9 24 25
f 9 25 10
f 10 25 11
f 12 23 26
f 12 26 27
f 12 27 28
f 12 28 13
f 13 28 29
f 13 29 30
f 14 16 15
f 14 31 16
f 16 31 32
f 16 32 33
f 17 33 34
f 17 34 35
f 17 35 18
f 18 35 19
f 19 35 37
f 19 37 36
f 20 38 29
f 20 29 27
f 20 27 21
f 21 27 22
f 22 27 26
f 22 26 23
f 27 29 28
f 29 38 30
f 30 39 40
f 30 38 41
f 30 41 39
f 32 34 42
f 32 42 33
f 33 42 34
f 34 43 35
f 35 43 44
f 35 44 45
f 35 45 37
f 36 37 47
f 36 47 46
f 37 45 48
f 37 48 47
f 39 41 49
f 39 49 40
f 40 49 51
f 40 51 52
f 40 52 50
f 46 47 53
f 47 48 53
f 48 54 53
f 50 52 56
f 50 56 55
f 53 54 57
f 54 58 59
f 54 59 57
f 55 56 61
f 55 61 60
f 58 60 62
f 58 62 63
f 58 63 59
f 60 61 62

