# https://github.com/mikedh/trimesh
v 0.23334895 0.01608897 0.56075835
v 0.22885677 0.01608897 0.56260361
v 0.23088529 0.01740775 0.56075853
v 0.23659020 0.01720480 0.56075835
v 0.23838424 0.01628186 0.56075835
v 0.23864489 0.01612553 0.56077732
v 0.23842677 0.01610255 0.56095975
v 0.23816721 0.01608897 0.56113694
v 0.23404475 0.01692819 0.56260181
v 0.22750334 0.01742316 0.56260361
v 0.23508845 0.01608897 0.56258158
v 0.23607217 0.01742316 0.56083855
v 0.23663383 0.01715426 0.56082139
v 0.23695228 0.01700289 0.56080206
v 0.23744632 0.01676364 0.56077949
v 0.23807342 0.01644759 0.56075980
v 0.23842786 0.01620089 0.56083873
v 0.23691520 0.01690951 0.56100310
v 0.23659348 0.01700511 0.56111996
v 0.23672544 0.01691931 0.56114037
v 0.23762409 0.01645817 0.56108601
v 0.23606563 0.01705683 0.56143732
v 0.23688139 0.01670617 0.56129607
v 0.23557050 0.01718220 0.56162029
v 0.23789674 0.01608897 0.56129409
v 0.23459114 0.01742316 0.56197287
v 0.23510154 0.01722400 0.56186215
v 0.23390188 0.01712866 0.56254708
v 0.23342529 0.01741950 0.56258627
v 0.23454206 0.01656565 0.56258104
v 0.23425305 0.01679485 0.56258393
v 0.23602200 0.01608897 0.56219396
v 0.23651168 0.01614787 0.56194235
v 0.23438829 0.01742316 0.56208775
v 0.23540254 0.01608897 0.56245496
v 0.23478418 0.01638660 0.56256821
v 0.23636227 0.01727088 0.56085788
v 0.23579734 0.01742316 0.56111942
v 0.23671671 0.01708556 0.56087612
v 0.23674943 0.01703476 0.56093862
v 0.23699700 0.01690899 0.56093320
v 0.23762409 0.01651720 0.56101231
v 0.23670799 0.01701204 0.56101357
v 0.23584205 0.01732338 0.56124730
v 0.23561630 0.01738711 0.56133238
v 0.23590422 0.01721668 0.56135134
v 0.23601546 0.01713179 0.56138097
v 0.23633719 0.01696724 0.56135857
v 0.23554541 0.01731685 0.56148121
v 0.23504592 0.01737627 0.56174420
v 0.23633719 0.01691644 0.56141691
v 0.23759464 0.01609288 0.56145340
v 0.23706025 0.01608897 0.56172307
v 0.23495322 0.01726200 0.56191254
v 0.23413854 0.01741180 0.56223243
v 0.23532729 0.01741062 0.56151625
v 0.23406329 0.01727323 0.56237494
v 0.23376556 0.01740344 0.56243039
v 0.23679306 0.01684369 0.56119149
v 0.23564466 0.01730013 0.56143154
v 0.23458241 0.01720793 0.56215946
f 1 2 3
f 1 3 4
f 1 4 5
f 1 5 6
f 1 6 7
f 1 7 8
f 1 8 25
f 1 25 53
f 1 53 32
f 1 32 35
f 1 35 11
f 1 11 2
f 2 9 10
f 2 10 3
f 2 11 9
f 3 10 12
f 3 12 4
f 4 12 13
f 4 13 14
f 4 14 15
f 4 15 16
f 4 16 5
f 5 17 6
f 5 16 18
f 5 18 19
f 5 19 20
f 5 20 17
f 6 17 7
f 7 17 21
f 7 21 22
f 7 22 23
f 7 23 24
f 7 24 8
f 8 24 26
f 8 26 27
f 8 27 25
f 9 28 29
f 9 29 10
f 9 11 30
f 9 30 31
f 9 31 32
f 9 32 33
f 9 33 28
f 10 29 34
f 10 34 26
f 10 26 38
f 10 38 12
f 11 35 36
f 11 36 30
f 12 37 13
f 12 38 37
f 13 39 14
f 13 37 38
f 13 38 39
f 14 39 15
f 15 39 40
f 15 40 41
f 15 41 16
f 16 41 18
f 17 42 21
f 17 20 42
f 18 43 44
f 18 44 19
f 18 41 43
f 19 44 45
f 19 45 20
f 20 45 46
f 20 46 42
f 21 42 47
f 21 47 48
f 21 48 22
f 22 49 50
f 22 50 24
f 22 24 51
f 22 51 23
f 22 48 49
f 23 51 24
f 24 50 26
f 25 52 53
f 25 27 54
f 25 54 34
f 25 34 55
f 25 55 52
f 26 34 54
f 26 54 27
f 26 50 56
f 26 56 38
f 28 33 53
f 28 53 29
f 29 53 57
f 29 57 58
f 29 58 55
f 29 55 34
f 30 36 32
f 30 32 31
f 32 36 35
f 32 53 33
f 38 56 45
f 38 45 44
f 38 44 43
f 38 43 40
f 38 40 39
f 40 43 41
f 42 46 59
f 42 59 47
f 45 60 46
f 45 56 60
f 46 60 59
f 47 60 49
f 47 49 48
f 47 59 60
f 49 56 50
f 49 60 56
f 52 55 61
f 52 61 58
f 52 58 57
f 52 57 53
f 55 58 61

