# https://github.com/mikedh/trimesh
v 0.22755177 -0.00852577 0.56383578
v 0.22769712 -0.00657818 0.56383578
v 0.23494165 -0.00852577 0.56383578
v 0.21976409 -0.00852577 0.56608383
v 0.21952541 -0.00657818 0.56618602
v 0.23515279 -0.00657818 0.56383578
v 0.23498908 -0.00819326 0.56383578
v 0.22575097 -0.00852577 0.56657342
v 0.21976409 -0.00852577 0.56708785
v 0.21952541 -0.00658162 0.56708785
v 0.21952541 -0.00657818 0.56708785
v 0.22575097 -0.00657818 0.56661608
v 0.22575097 -0.00687485 0.56661131
v 0.22575097 -0.00734063 0.56660271
v 0.23513443 -0.00683024 0.56383578
v 0.23499214 -0.00817095 0.56383578
v 0.22575097 -0.00851623 0.56657374
v 0.22569130 -0.00852577 0.56659061
v 0.23503498 -0.00782300 0.56383578
v 0.22395934 -0.00852577 0.56708785
v 0.22410163 -0.00657818 0.56708785
v 0.22409857 -0.00664911 0.56708785
v 0.22407256 -0.00710192 0.56708785
v 0.22405267 -0.00740393 0.56708785
v 0.22404043 -0.00758467 0.56708785
v 0.22575097 -0.00770955 0.56659475
v 0.23513290 -0.00685045 0.56383578
v 0.22575097 -0.00806952 0.56658584
v 0.22397770 -0.00834311 0.56708785
v 0.23507017 -0.00750231 0.56383578
v 0.23510077 -0.00720545 0.56383578
v 0.22400983 -0.00796809 0.56708785
f 1 2 6
f 1 6 15
f 1 15 27
f 1 27 31
f 1 31 30
f 1 30 19
f 1 19 16
f 1 16 7
f 1 7 3
f 1 3 8
f 1 8 18
f 1 18 20
f 1 20 9
f 1 9 4
f 1 4 5
f 1 5 2
f 2 5 11
f 2 11 21
f 2 21 12
f 2 12 6
f 3 7 8
f 4 9 10
f 4 10 5
f 5 10 11
f 6 12 13
f 6 13 14
f 6 14 15
f 7 16 8
f 8 17 18
f 8 16 19
f 8 19 17
f 9 20 29
f 9 29 32
f 9 32 25
f 9 25 24
f 9 24 23
f 9 23 22
f 9 22 21
f 9 21 11
f 9 11 10
f 12 21 22
f 12 22 13
f 13 22 23
f 13 23 14
f 14 23 24
f 14 24 25
f 14 25 26
f 14 26 15
f 15 26 27
f 17 28 29
f 17 29 18
f 17 19 30
f 17 30 31
f 17 31 28
f 18 29 20
f 25 32 26
f 26 32 29
f 26 29 28
f 26 28 27
f 27 28 31

