# https://github.com/mikedh/trimesh
v 0.17900000 0.00309158 0.55420009
v 0.18315354 0.00309158 0.55420009
v 0.17900000 0.00309158 0.55460015
v 0.17900000 0.00874598 0.55420009
v 0.18315354 0.00654588 0.55420009
v 0.18315354 0.00309158 0.55460015
v 0.17900000 0.00874598 0.55460015
v 0.18277296 0.00874598 0.55420009
v 0.18304335 0.00874598 0.55451814
v 0.18311207 0.00874598 0.55460015
v 0.18315354 0.00714696 0.55460015
f 1 2 6
f 1 6 3
f 1 3 7
f 1 7 4
f 1 4 8
f 1 8 5
f 1 5 2
f 2 5 11
f 2 11 6
f 3 6 11
f 3 11 10
f 3 10 7
f 4 7 10
f 4 10 9
f 4 9 8
f 5 8 9
f 5 9 10
f 5 10 11

