# https://github.com/mikedh/trimesh
v 0.23193647 -0.01744167 0.56324985
v 0.23218800 -0.01744538 0.56313836
v 0.22608789 -0.01744167 0.56313836
v 0.22458606 -0.01744167 0.56367736
v 0.23162756 -0.01745467 0.56337427
v 0.23048837 -0.01781827 0.56367736
v 0.23049936 -0.01798661 0.56358655
v 0.23116846 -0.01778732 0.56340118
v 0.23168739 -0.01767314 0.56323534
v 0.23199020 -0.01760258 0.56314036
v 0.23167640 -0.01784952 0.56313836
v 0.22058728 -0.02060298 0.56313836
v 0.21971671 -0.02060298 0.56367736
v 0.23083757 -0.01752708 0.56366781
v 0.23113550 -0.01749861 0.56355864
v 0.23018922 -0.01806768 0.56367736
v 0.22989008 -0.01831369 0.56367393
v 0.23087054 -0.01803488 0.56339549
v 0.23139069 -0.01784024 0.56327375
v 0.23109398 -0.01803024 0.56329702
v 0.23134673 -0.01809584 0.56313836
v 0.22633453 -0.02060298 0.56363167
v 0.22948715 -0.01931847 0.56313836
v 0.22704759 -0.02060236 0.56313994
v 0.22662879 -0.02043093 0.56365462
v 0.22726493 -0.02006980 0.56366691
v 0.22791206 -0.01967712 0.56367689
v 0.22836993 -0.01938809 0.56367736
v 0.22893281 -0.01901428 0.56367615
v 0.22966053 -0.01853216 0.56364855
v 0.23020265 -0.01823355 0.56358027
v 0.22998165 -0.01854083 0.56349395
v 0.23064832 -0.01843964 0.56324410
v 0.23068739 -0.01855939 0.56313836
v 0.22659704 -0.02059648 0.56347231
v 0.22738581 -0.02025114 0.56339786
v 0.23014283 -0.01889607 0.56315551
v 0.22968617 -0.01914270 0.56318907
v 0.22920876 -0.01940480 0.56321392
v 0.22832842 -0.01981699 0.56331180
v 0.22880705 -0.01967124 0.56317751
v 0.22842976 -0.01990765 0.56314580
v 0.22728691 -0.02045785 0.56318806
v 0.22681072 -0.02055347 0.56338588
v 0.22692915 -0.02030746 0.56361251
v 0.22805492 -0.01987949 0.56340757
v 0.22790717 -0.01977676 0.56359241
v 0.22849081 -0.01951744 0.56350756
v 0.22891206 -0.01935220 0.56342598
v 0.22931499 -0.01918076 0.56335734
v 0.22894502 -0.01916993 0.56355684
v 0.22869350 -0.01920459 0.56365478
v 0.22938947 -0.01900376 0.56345949
v 0.22998165 -0.01878869 0.56332314
v 0.22968495 -0.01873361 0.56350761
v 0.22935650 -0.01877106 0.56363752
v 0.23044563 -0.01866120 0.56318358
v 0.22775943 -0.02019730 0.56322094
v 0.22816603 -0.01999616 0.56320875
v 0.22975821 -0.01901057 0.56326405
f 1 2 3
f 1 3 4
f 1 4 5
f 1 5 6
f 1 6 7
f 1 7 8
f 1 8 2
f 2 8 9
f 2 9 10
f 2 10 11
f 2 11 21
f 2 21 34
f 2 34 23
f 2 23 12
f 2 12 3
f 3 12 4
f 4 12 13
f 4 13 28
f 4 28 16
f 4 16 6
f 4 6 14
f 4 14 15
f 4 15 5
f 5 15 6
f 6 16 7
f 6 15 14
f 7 16 17
f 7 17 18
f 7 18 19
f 7 19 9
f 7 9 8
f 9 19 10
f 10 19 11
f 11 19 20
f 11 20 21
f 12 22 13
f 12 23 24
f 12 24 22
f 13 22 25
f 13 25 26
f 13 26 27
f 13 27 28
f 16 28 29
f 16 29 17
f 17 30 31
f 17 31 18
f 17 29 30
f 18 20 19
f 18 31 20
f 20 31 30
f 20 30 32
f 20 32 21
f 21 32 33
f 21 33 34
f 22 35 36
f 22 36 25
f 22 24 35
f 23 34 37
f 23 37 38
f 23 38 39
f 23 39 40
f 23 40 41
f 23 41 42
f 23 42 24
f 24 42 43
f 24 43 44
f 24 44 35
f 25 36 45
f 25 45 26
f 26 45 46
f 26 46 47
f 26 47 27
f 27 48 49
f 27 49 28
f 27 47 48
f 28 49 50
f 28 50 51
f 28 51 52
f 28 52 29
f 29 52 51
f 29 51 53
f 29 53 54
f 29 54 55
f 29 55 56
f 29 56 30
f 30 56 32
f 32 56 55
f 32 55 33
f 33 55 54
f 33 54 34
f 34 54 57
f 34 57 37
f 35 44 58
f 35 58 36
f 36 58 59
f 36 59 40
f 36 40 45
f 37 57 54
f 37 54 60
f 37 60 50
f 37 50 38
f 38 50 49
f 38 49 39
f 39 49 48
f 39 48 47
f 39 47 46
f 39 46 40
f 40 46 45
f 40 59 42
f 40 42 41
f 42 59 58
f 42 58 43
f 43 58 44
f 50 60 51
f 51 60 53
f 53 60 54

