# https://github.com/mikedh/trimesh
v 0.21031912 -0.02334504 0.55982567
v 0.21022068 -0.02370454 0.56129223
v 0.21026481 -0.02587827 0.56114150
v 0.21031997 -0.02370454 0.55982596
v 0.21031912 -0.02370454 0.55982567
v 0.20850901 -0.02370454 0.55982567
v 0.20165048 -0.02468732 0.55982596
v 0.20760269 -0.02649911 0.56129223
v 0.20178710 -0.02527298 0.56129180
v 0.20477849 -0.02705941 0.56129223
v 0.21029451 -0.02582306 0.56033199
v 0.20855484 -0.02628112 0.56114925
v 0.20937885 -0.02608686 0.56106226
v 0.20937885 -0.02605823 0.56056771
v 0.21029451 -0.02577398 0.55993836
v 0.20941534 -0.02595843 0.55984275
v 0.20859727 -0.02613430 0.55982596
v 0.20184736 -0.02728476 0.55988941
v 0.20165727 -0.02741891 0.56038927
v 0.20173788 -0.02752279 0.56124242
v 0.20668788 -0.02669215 0.56129223
v 0.20710879 -0.02660094 0.56121400
v 0.20744315 -0.02650524 0.56080228
v 0.20806519 -0.02636701 0.56073840
v 0.20435078 -0.02712935 0.56121701
v 0.20494651 -0.02700829 0.56097297
v 0.20529020 -0.02696617 0.56129223
v 0.20949935 -0.02599279 0.56019446
v 0.20986001 -0.02589995 0.56011235
v 0.20872032 -0.02620014 0.56049134
v 0.20898848 -0.02608808 0.56006196
v 0.20862952 -0.02617029 0.56007775
v 0.20810252 -0.02625904 0.55994224
v 0.20731331 -0.02641568 0.55991640
v 0.20675492 -0.02651301 0.55985180
v 0.20329340 -0.02711585 0.55995989
v 0.20259159 -0.02720542 0.55993850
v 0.20199162 -0.02734570 0.56022160
v 0.20235059 -0.02732443 0.56034505
v 0.20204848 -0.02741891 0.56066518
v 0.20170394 -0.02749048 0.56087808
v 0.20315338 -0.02731339 0.56110762
v 0.20251522 -0.02740255 0.56107762
v 0.20663187 -0.02666842 0.56074443
v 0.20595807 -0.02682997 0.56115801
v 0.20830280 -0.02628480 0.56041166
v 0.20728700 -0.02650156 0.56042487
v 0.20372874 -0.02719519 0.56080859
v 0.20440000 -0.02707168 0.56067896
v 0.20483365 -0.02698007 0.56052924
v 0.20533009 -0.02693345 0.56091052
v 0.20779448 -0.02637519 0.56027442
v 0.20655295 -0.02662712 0.56027241
v 0.20601407 -0.02672896 0.56026567
v 0.20619228 -0.02663284 0.55992027
v 0.20548708 -0.02677149 0.55997569
v 0.20282157 -0.02725409 0.56029323
v 0.20436351 -0.02696944 0.56002693
v 0.20384161 -0.02706596 0.56010216
v 0.20288607 -0.02730357 0.56065599
v 0.20591563 -0.02680584 0.56071184
v 0.20338760 -0.02719233 0.56041037
v 0.20495839 -0.02687210 0.56002808
v 0.20529869 -0.02689336 0.56049722
f 1 2 3
f 1 3 4
f 1 4 5
f 1 5 6
f 1 6 7
f 1 7 2
f 2 8 3
f 2 7 9
f 2 9 10
f 2 10 27
f 2 27 21
f 2 21 8
f 3 11 4
f 3 8 12
f 3 12 13
f 3 13 14
f 3 14 11
f 4 11 15
f 4 15 5
f 5 15 16
f 5 16 17
f 5 17 6
f 6 17 7
f 7 18 19
f 7 19 20
f 7 20 9
f 7 17 18
f 8 21 22
f 8 22 23
f 8 23 24
f 8 24 12
f 9 20 10
f 10 25 26
f 10 26 27
f 10 20 25
f 11 14 28
f 11 28 29
f 11 29 15
f 12 24 14
f 12 14 13
f 14 24 30
f 14 30 28
f 15 29 16
f 16 31 32
f 16 32 17
f 16 29 31
f 17 32 33
f 17 33 34
f 17 34 35
f 17 35 18
f 18 36 37
f 18 37 38
f 18 38 19
f 18 35 36
f 19 38 39
f 19 39 40
f 19 40 41
f 19 41 20
f 20 42 25
f 20 41 43
f 20 43 42
f 21 44 22
f 21 27 45
f 21 45 44
f 22 44 23
f 23 46 24
f 23 44 47
f 23 47 46
f 24 46 30
f 25 48 26
f 25 42 48
f 26 48 49
f 26 49 50
f 26 50 51
f 26 51 27
f 27 51 45
f 28 30 46
f 28 46 32
f 28 32 31
f 28 31 29
f 32 46 52
f 32 52 33
f 33 52 34
f 34 53 35
f 34 52 53
f 35 53 54
f 35 54 55
f 35 55 56
f 35 56 36
f 36 57 37
f 36 56 58
f 36 58 59
f 36 59 57
f 37 57 38
f 38 57 39
f 39 57 40
f 40 57 60
f 40 60 41
f 41 60 43
f 42 43 60
f 42 60 48
f 44 45 61
f 44 61 47
f 45 51 61
f 46 47 52
f 47 61 53
f 47 53 52
f 48 60 62
f 48 62 49
f 49 62 50
f 50 58 63
f 50 63 56
f 50 56 54
f 50 54 64
f 50 64 51
f 50 62 58
f 51 64 61
f 53 61 54
f 54 61 64
f 54 56 55
f 56 63 58
f 57 59 62
f 57 62 60
f 58 62 59

