# https://github.com/mikedh/trimesh
v 0.23059375 0.01240000 0.55444088
v 0.23059375 0.01240000 0.55662060
v 0.23059375 0.01308719 0.55451180
v 0.23456355 0.01240000 0.55455926
v 0.23059375 0.01320648 0.55671113
v 0.23842905 0.01240000 0.55687775
v 0.23842905 0.01320648 0.55707583
v 0.23059375 0.01320648 0.55452805
v 0.23103705 0.01320648 0.55454379
v 0.23320986 0.01320648 0.55462091
v 0.23490638 0.01300162 0.55465573
v 0.23756315 0.01240000 0.55467172
v 0.23842905 0.01240000 0.55471092
v 0.23842905 0.01320648 0.55487032
v 0.23433039 0.01320648 0.55466372
v 0.23442703 0.01320648 0.55466759
v 0.23524998 0.01311080 0.55468745
v 0.23524998 0.01320648 0.55470344
v 0.23842905 0.01296902 0.55481899
v 0.23650320 0.01320648 0.55476302
v 0.23691966 0.01320648 0.55478392
v 0.23737984 0.01314032 0.55479501
v 0.23833011 0.01320648 0.55486361
v 0.23817058 0.01317419 0.55484607
v 0.23710680 0.01320648 0.55479346
v 0.23718427 0.01320648 0.55479759
v 0.23722722 0.01320648 0.55479991
v 0.23812610 0.01320648 0.55485072
f 1 2 5
f 1 5 8
f 1 8 3
f 1 3 4
f 1 4 12
f 1 12 13
f 1 13 6
f 1 6 2
f 2 6 7
f 2 7 5
f 3 8 9
f 3 9 10
f 3 10 4
f 4 10 11
f 4 11 12
f 5 7 14
f 5 14 23
f 5 23 28
f 5 28 27
f 5 27 26
f 5 26 25
f 5 25 21
f 5 21 20
f 5 20 18
f 5 18 16
f 5 16 15
f 5 15 10
f 5 10 9
f 5 9 8
f 6 13 19
f 6 19 14
f 6 14 7
f 10 15 11
f 11 15 16
f 11 16 12
f 12 16 17
f 12 17 18
f 12 18 13
f 13 18 20
f 13 20 21
f 13 21 22
f 13 22 19
f 14 19 23
f 16 18 17
f 19 22 24
f 19 24 23
f 21 25 22
f 22 25 26
f 22 26 27
f 22 27 24
f 23 24 28
f 24 27 28

