# https://github.com/mikedh/trimesh
v 0.21370340 -0.01717489 0.56708785
v 0.20373917 -0.01717489 0.56986272
v 0.20373917 -0.01459964 0.57014051
v 0.21492197 -0.01459964 0.56708836
v 0.21481136 -0.01490771 0.56708785
v 0.22154574 -0.01670144 0.56708785
v 0.22111989 -0.01713733 0.56713114
v 0.21977780 -0.01715674 0.56753727
v 0.21792691 -0.01717489 0.56808410
v 0.20373917 -0.01717489 0.57209488
v 0.20373917 -0.01459964 0.57076104
v 0.21569993 -0.01459964 0.56708785
v 0.22198081 -0.01590907 0.56708785
v 0.22099821 -0.01631547 0.56732080
v 0.22099821 -0.01668480 0.56725690
v 0.22027924 -0.01691548 0.56743110
v 0.21740519 -0.01690413 0.56828665
v 0.21626958 -0.01717489 0.56857630
v 0.20482316 -0.01717489 0.57181244
v 0.20374470 -0.01683531 0.57213559
v 0.20373917 -0.01640169 0.57218662
v 0.20374286 -0.01459964 0.57235309
v 0.22257258 -0.01459964 0.56708785
v 0.22239191 -0.01507788 0.56708785
v 0.22174300 -0.01539881 0.56723886
v 0.22099821 -0.01584277 0.56739554
v 0.22027924 -0.01642135 0.56751717
v 0.21524827 -0.01679900 0.56893553
v 0.21566859 -0.01717489 0.56875359
v 0.20663534 -0.01701934 0.57135890
v 0.21025786 -0.01717489 0.57032812
v 0.20663534 -0.01635152 0.57144085
v 0.20663534 -0.01592597 0.57148723
v 0.20374470 -0.01591260 0.57223610
v 0.20374470 -0.01547823 0.57227836
v 0.20374470 -0.01504688 0.57231650
v 0.20659110 -0.01459964 0.57162072
v 0.22046359 -0.01459964 0.56771405
v 0.22099821 -0.01480687 0.56753469
v 0.22099821 -0.01533453 0.56746718
v 0.21524827 -0.01640068 0.56899325
v 0.21345453 -0.01664522 0.56948081
v 0.21366653 -0.01717489 0.56933753
v 0.20956101 -0.01704455 0.57054406
v 0.20950017 -0.01631900 0.57065436
v 0.21058232 -0.01692329 0.57026988
v 0.20950017 -0.01582134 0.57071105
v 0.20950017 -0.01540739 0.57075383
v 0.20663534 -0.01545201 0.57153465
v 0.20663534 -0.01502646 0.57157330
v 0.20935085 -0.01459964 0.57086928
v 0.21524827 -0.01463721 0.56920250
v 0.21920262 -0.01469040 0.56806812
v 0.21920447 -0.01523444 0.56800370
v 0.21037769 -0.01459964 0.57058220
v 0.21632858 -0.01581101 0.56876081
v 0.21345453 -0.01630916 0.56952565
v 0.21058232 -0.01649245 0.57032657
v 0.21345453 -0.01589193 0.56957874
v 0.21524827 -0.01514167 0.56915045
v 0.20950017 -0.01494578 0.57079815
v 0.21632858 -0.01531259 0.56882163
v 0.21632858 -0.01562041 0.56878452
f 1 2 3
f 1 3 4
f 1 4 5
f 1 5 12
f 1 12 23
f 1 23 24
f 1 24 13
f 1 13 6
f 1 6 7
f 1 7 8
f 1 8 9
f 1 9 18
f 1 18 29
f 1 29 43
f 1 43 31
f 1 31 19
f 1 19 10
f 1 10 2
f 2 10 21
f 2 21 11
f 2 11 3
f 3 11 22
f 3 22 37
f 3 37 51
f 3 51 55
f 3 55 38
f 3 38 23
f 3 23 12
f 3 12 4
f 4 12 5
f 6 13 14
f 6 14 15
f 6 15 16
f 6 16 8
f 6 8 7
f 8 16 9
f 9 16 17
f 9 17 18
f 10 19 20
f 10 20 21
f 11 21 22
f 13 24 25
f 13 25 26
f 13 26 14
f 14 26 27
f 14 27 15
f 15 27 16
f 16 27 17
f 17 28 29
f 17 29 18
f 17 27 26
f 17 26 28
f 19 30 20
f 19 31 30
f 20 30 32
f 20 32 21
f 21 32 33
f 21 33 34
f 21 34 35
f 21 35 22
f 22 35 36
f 22 36 37
f 23 38 39
f 23 39 24
f 24 39 25
f 25 39 40
f 25 40 26
f 26 40 41
f 26 41 28
f 28 41 42
f 28 42 43
f 28 43 29
f 30 31 44
f 30 44 45
f 30 45 32
f 31 43 42
f 31 42 46
f 31 46 44
f 32 45 47
f 32 47 33
f 33 47 48
f 33 48 49
f 33 49 34
f 34 49 35
f 35 49 50
f 35 50 36
f 36 50 37
f 37 50 51
f 38 52 53
f 38 53 54
f 38 54 39
f 38 55 52
f 39 54 40
f 40 54 41
f 41 54 56
f 41 56 42
f 42 56 57
f 42 57 46
f 44 46 58
f 44 58 45
f 45 58 59
f 45 59 47
f 46 57 58
f 47 59 60
f 47 60 48
f 48 61 49
f 48 60 52
f 48 52 61
f 49 61 50
f 50 61 51
f 51 61 55
f 52 55 61
f 52 60 53
f 53 60 62
f 53 62 54
f 54 62 59
f 54 59 63
f 54 63 56
f 56 63 59
f 56 59 57
f 57 59 58
f 59 62 60

