# https://github.com/mikedh/trimesh
v 0.21875202 -0.02140792 0.56239816
v 0.22536922 -0.02149752 0.56267470
v 0.22442643 -0.02186772 0.56254287
v 0.22200464 -0.02267368 0.56239816
v 0.21031997 -0.02367502 0.56239816
v 0.21654678 -0.02140792 0.56439334
v 0.22382982 -0.02149752 0.56402735
v 0.22467096 -0.02150189 0.56339965
v 0.22393736 -0.02177812 0.56343559
v 0.22302992 -0.02212559 0.56343012
v 0.22346449 -0.02210112 0.56300730
v 0.22267343 -0.02240226 0.56287332
v 0.22385781 -0.02205391 0.56258193
v 0.22316840 -0.02229430 0.56251417
v 0.22248782 -0.02250323 0.56260459
v 0.22151999 -0.02277902 0.56280262
v 0.22086151 -0.02299406 0.56267392
v 0.21909820 -0.02350587 0.56279618
v 0.21812448 -0.02379391 0.56265517
v 0.21768844 -0.02392066 0.56239816
v 0.21103442 -0.02569649 0.56239816
v 0.21033175 -0.02587263 0.56240128
v 0.21031997 -0.02586782 0.56331704
v 0.21031997 -0.02356838 0.56439334
v 0.21669115 -0.02398971 0.56438845
v 0.22153472 -0.02227114 0.56434725
v 0.22311978 -0.02169376 0.56418437
v 0.22222708 -0.02207402 0.56418847
v 0.22097200 -0.02260943 0.56411132
v 0.22011759 -0.02284371 0.56430741
v 0.21943996 -0.02313698 0.56417616
v 0.22118559 -0.02274536 0.56353226
v 0.22044904 -0.02303864 0.56330923
v 0.22003363 -0.02322265 0.56287606
v 0.21794771 -0.02376637 0.56357425
v 0.21749988 -0.02395213 0.56301862
v 0.21471277 -0.02472007 0.56326001
v 0.21659982 -0.02421962 0.56264170
v 0.21525192 -0.02458763 0.56263095
v 0.21234401 -0.02536344 0.56244562
v 0.21039362 -0.02583242 0.56408144
v 0.21213189 -0.02539797 0.56372151
v 0.21166049 -0.02548626 0.56431385
v 0.21503685 -0.02450590 0.56438806
v 0.21655268 -0.02407975 0.56419726
v 0.21985391 -0.02315228 0.56364632
v 0.21889344 -0.02335814 0.56406855
v 0.21792267 -0.02363175 0.56422362
v 0.21852369 -0.02358935 0.56356585
v 0.21579108 -0.02434637 0.56400586
v 0.21638769 -0.02419776 0.56381193
v 0.21696957 -0.02403823 0.56371350
v 0.21659982 -0.02419252 0.56325416
v 0.21381565 -0.02494909 0.56360276
v 0.21276090 -0.02523669 0.56354828
v 0.21103000 -0.02566284 0.56418280
v 0.21442257 -0.02476640 0.56379103
v 0.21252373 -0.02524762 0.56431580
v 0.21566734 -0.02433938 0.56425350
v 0.21442109 -0.02470084 0.56432772
v 0.21387899 -0.02487610 0.56420058
v 0.21313802 -0.02508415 0.56423788
f 1 2 3
f 1 3 4
f 1 4 20
f 1 20 21
f 1 21 5
f 1 5 6
f 1 6 2
f 2 7 8
f 2 8 9
f 2 9 10
f 2 10 11
f 2 11 3
f 2 6 7
f 3 11 12
f 3 12 13
f 3 13 14
f 3 14 4
f 4 14 15
f 4 15 16
f 4 16 17
f 4 17 18
f 4 18 19
f 4 19 20
f 5 21 22
f 5 22 23
f 5 23 24
f 5 24 6
f 6 24 25
f 6 25 26
f 6 26 27
f 6 27 7
f 7 27 26
f 7 26 28
f 7 28 8
f 8 28 26
f 8 26 9
f 9 26 29
f 9 29 10
f 10 29 30
f 10 30 31
f 10 31 32
f 10 32 11
f 11 32 12
f 12 15 14
f 12 14 13
f 12 32 33
f 12 33 16
f 12 16 15
f 16 33 34
f 16 34 17
f 17 34 18
f 18 35 36
f 18 36 19
f 18 34 35
f 19 36 37
f 19 37 38
f 19 38 20
f 20 38 39
f 20 39 40
f 20 40 21
f 21 40 23
f 21 23 22
f 23 41 24
f 23 40 42
f 23 42 41
f 24 41 43
f 24 43 44
f 24 44 25
f 25 44 45
f 25 45 46
f 25 46 47
f 25 47 48
f 25 48 31
f 25 31 30
f 25 30 26
f 26 30 29
f 31 48 47
f 31 47 32
f 32 47 46
f 32 46 33
f 33 46 45
f 33 45 49
f 33 49 35
f 33 35 34
f 35 49 45
f 35 45 50
f 35 50 51
f 35 51 52
f 35 52 53
f 35 53 36
f 36 53 37
f 37 39 38
f 37 53 54
f 37 54 55
f 37 55 39
f 39 55 40
f 40 55 42
f 41 56 43
f 41 42 56
f 42 55 54
f 42 54 43
f 42 43 56
f 43 54 57
f 43 57 58
f 43 58 44
f 44 50 59
f 44 59 45
f 44 58 60
f 44 60 50
f 45 59 50
f 50 60 61
f 50 61 51
f 51 61 57
f 51 57 53
f 51 53 52
f 53 57 54
f 57 61 62
f 57 62 58
f 58 62 60
f 60 62 61

