# https://github.com/mikedh/trimesh
v 0.21872890 0.00447492 0.55419993
v 0.21872890 0.00304896 0.55419993
v 0.21872890 0.00447492 0.55300000
v 0.19906569 0.00447492 0.55420241
v 0.21872890 0.00304896 0.55300000
v 0.19904133 0.00439995 0.55420241
v 0.19899263 0.00432402 0.55420241
v 0.19894044 0.00425171 0.55420241
v 0.19888130 0.00418372 0.55420241
v 0.19881868 0.00412021 0.55420241
v 0.19874910 0.00406172 0.55420241
v 0.19867604 0.00400839 0.55420241
v 0.19860298 0.00396065 0.55420241
v 0.19852297 0.00391877 0.55420241
v 0.19843947 0.00388290 0.55420241
v 0.19835597 0.00385330 0.55420241
v 0.19826900 0.00382999 0.55420241
v 0.19818203 0.00381338 0.55420241
v 0.19809157 0.00380333 0.55420241
v 0.19800112 0.00379998 0.55420241
v 0.18318761 0.00304896 0.55419993
v 0.18318761 0.00447492 0.55300000
v 0.19694351 0.00447492 0.55420241
v 0.18318761 0.00304896 0.55300000
v 0.19791066 0.00380333 0.55420241
v 0.19782369 0.00381338 0.55420241
v 0.19773324 0.00382999 0.55420241
v 0.19764626 0.00385330 0.55420241
v 0.19756277 0.00388290 0.55420241
v 0.19748275 0.00391877 0.55420241
v 0.19740273 0.00396065 0.55420241
v 0.19732620 0.00400839 0.55420241
v 0.19725314 0.00406172 0.55420241
v 0.19718704 0.00412021 0.55420241
v 0.19712094 0.00418372 0.55420241
v 0.19706179 0.00425184 0.55420241
v 0.19700961 0.00432402 0.55420241
v 0.19696090 0.00439995 0.55420241
v 0.18318761 0.00447492 0.55419993
f 1 2 5
f 1 5 3
f 1 3 22
f 1 22 39
f 1 39 23
f 1 23 4
f 1 4 2
f 2 4 6
f 2 6 7
f 2 7 8
f 2 8 9
f 2 9 10
f 2 10 11
f 2 11 12
f 2 12 13
f 2 13 14
f 2 14 15
f 2 15 16
f 2 16 17
f 2 17 18
f 2 18 19
f 2 19 20
f 2 20 21
f 2 21 24
f 2 24 5
f 3 5 24
f 3 24 22
f 4 23 38
f 4 38 37
f 4 37 36
f 4 36 35
f 4 35 34
f 4 34 33
f 4 33 32
f 4 32 31
f 4 31 30
f 4 30 29
f 4 29 28
f 4 28 27
f 4 27 26
f 4 26 25
f 4 25 20
f 4 20 19
f 4 19 18
f 4 18 17
f 4 17 16
f 4 16 15
f 4 15 14
f 4 14 13
f 4 13 12
f 4 12 11
f 4 11 10
f 4 10 9
f 4 9 8
f 4 8 7
f 4 7 6
f 20 25 21
f 21 25 26
f 21 26 27
f 21 27 28
f 21 28 29
f 21 29 30
f 21 30 31
f 21 31 32
f 21 32 33
f 21 33 34
f 21 34 35
f 21 35 36
f 21 36 37
f 21 37 38
f 21 38 23
f 21 23 39
f 21 39 22
f 21 22 24

