# https://github.com/mikedh/trimesh
v 0.16521387 0.01852512 0.55600728
v 0.16521387 0.01980802 0.55600728
v 0.16632963 0.01852512 0.55600728
v 0.16521387 0.01852512 0.55728791
v 0.16521387 0.01981370 0.55601070
v 0.16521857 0.01981370 0.55600728
v 0.16632963 0.01981370 0.55600728
v 0.16632963 0.01852512 0.55723886
v 0.16632963 0.01900006 0.55735664
v 0.16521387 0.01900006 0.55740296
v 0.16521387 0.01981370 0.55711931
v 0.16632963 0.01981370 0.55644245
f 1 2 6
f 1 6 7
f 1 7 3
f 1 3 8
f 1 8 4
f 1 4 10
f 1 10 11
f 1 11 5
f 1 5 2
f 2 5 6
f 3 7 12
f 3 12 9
f 3 9 8
f 4 8 9
f 4 9 10
f 5 11 12
f 5 12 7
f 5 7 6
f 9 11 10
f 9 12 11

