# https://github.com/mikedh/trimesh
v 0.15977124 -0.02301243 0.56115826
v 0.16033635 -0.02578904 0.56115826
v 0.15981259 -0.02564162 0.56117836
v 0.15975875 -0.02569873 0.56153872
v 0.15975875 -0.02354864 0.56360222
v 0.16369988 -0.02487498 0.56416456
v 0.16320110 -0.02413709 0.56115826
v 0.15994913 -0.02574733 0.56149109
v 0.16064604 -0.02587652 0.56115826
v 0.16044920 -0.02588421 0.56145366
v 0.15975875 -0.02576393 0.56193373
v 0.16001632 -0.02583035 0.56186104
v 0.15975875 -0.02588745 0.56329506
v 0.15976262 -0.02590730 0.56360222
v 0.16415903 -0.02529941 0.56431830
v 0.16320066 -0.02660428 0.56124085
v 0.16089457 -0.02594618 0.56115826
v 0.16088294 -0.02600976 0.56147160
v 0.15975875 -0.02581779 0.56235534
v 0.16004259 -0.02589555 0.56229378
v 0.16069299 -0.02605795 0.56209612
v 0.16175042 -0.02629528 0.56171287
v 0.16175042 -0.02632849 0.56191734
v 0.15975875 -0.02585181 0.56270951
v 0.16006973 -0.02594658 0.56272869
v 0.16003312 -0.02598748 0.56360005
v 0.16373089 -0.02704937 0.56417477
v 0.16408796 -0.02714899 0.56426107
v 0.16320885 -0.02667759 0.56158079
v 0.16272472 -0.02649615 0.56134416
v 0.16223627 -0.02636089 0.56134664
v 0.16199205 -0.02629649 0.56136334
v 0.16223757 -0.02642892 0.56169524
v 0.16047633 -0.02602231 0.56230739
v 0.16090921 -0.02612032 0.56210633
v 0.16323340 -0.02673510 0.56187063
v 0.16325752 -0.02677033 0.56205839
v 0.16199335 -0.02642528 0.56211654
v 0.16093549 -0.02620091 0.56280293
v 0.16111424 -0.02626531 0.56298976
v 0.16030017 -0.02606565 0.56360314
v 0.16321316 -0.02690236 0.56402382
v 0.16389585 -0.02708825 0.56390257
v 0.16333764 -0.02684444 0.56247845
v 0.16328896 -0.02680394 0.56224584
v 0.16298961 -0.02663830 0.56169617
v 0.16134338 -0.02625761 0.56223068
v 0.16175042 -0.02638883 0.56237699
v 0.16175042 -0.02640867 0.56256629
v 0.16339234 -0.02688089 0.56269404
v 0.16175042 -0.02643500 0.56286912
v 0.16347504 -0.02692544 0.56296068
v 0.16175042 -0.02644836 0.56305502
v 0.16175042 -0.02646092 0.56325670
v 0.16083470 -0.02621995 0.56362789
v 0.16056765 -0.02614300 0.56361304
v 0.16269112 -0.02675210 0.56389576
v 0.16375673 -0.02704086 0.56364119
v 0.16110218 -0.02629649 0.56364892
v 0.16360038 -0.02698133 0.56329630
v 0.16174396 -0.02647428 0.56358397
v 0.16207691 -0.02657553 0.56377513
f 1 2 3
f 1 3 4
f 1 4 5
f 1 5 6
f 1 6 7
f 1 7 17
f 1 17 9
f 1 9 2
f 2 8 3
f 2 9 10
f 2 10 8
f 3 8 4
f 4 11 19
f 4 19 24
f 4 24 13
f 4 13 5
f 4 8 12
f 4 12 11
f 5 13 14
f 5 14 15
f 5 15 6
f 6 15 7
f 7 15 16
f 7 16 17
f 8 10 12
f 9 17 18
f 9 18 10
f 10 18 12
f 11 12 20
f 11 20 19
f 12 21 20
f 12 18 22
f 12 22 23
f 12 23 21
f 13 24 25
f 13 25 14
f 14 25 26
f 14 26 27
f 14 27 28
f 14 28 15
f 15 28 16
f 16 28 29
f 16 29 30
f 16 30 17
f 17 30 31
f 17 31 32
f 17 32 18
f 18 32 29
f 18 29 33
f 18 33 22
f 19 20 25
f 19 25 24
f 20 21 34
f 20 34 25
f 21 35 34
f 21 23 35
f 22 33 23
f 23 33 36
f 23 36 37
f 23 37 38
f 23 38 35
f 25 34 39
f 25 39 40
f 25 40 41
f 25 41 26
f 26 41 27
f 27 42 43
f 27 43 28
f 27 41 42
f 28 43 44
f 28 44 45
f 28 45 37
f 28 37 36
f 28 36 29
f 29 32 30
f 29 36 46
f 29 46 33
f 30 32 31
f 33 46 36
f 34 35 47
f 34 47 48
f 34 48 49
f 34 49 39
f 35 38 47
f 37 45 38
f 38 45 47
f 39 49 50
f 39 50 51
f 39 51 40
f 40 51 52
f 40 52 53
f 40 53 54
f 40 54 55
f 40 55 56
f 40 56 41
f 41 56 42
f 42 57 58
f 42 58 43
f 42 56 55
f 42 55 59
f 42 59 57
f 43 58 60
f 43 60 52
f 43 52 50
f 43 50 44
f 44 50 49
f 44 49 48
f 44 48 45
f 45 48 47
f 50 52 51
f 52 60 54
f 52 54 53
f 54 61 59
f 54 59 55
f 54 60 61
f 57 62 58
f 57 59 62
f 58 62 61
f 58 61 60
f 59 61 62

