# https://github.com/mikedh/trimesh
v 0.18799881 -0.01717515 0.57398797
v 0.18447448 -0.01890599 0.57400039
v 0.18591379 -0.01717515 0.57400039
v 0.19562638 -0.01717515 0.57398797
v 0.18800517 -0.01890599 0.57398797
v 0.17937883 -0.01890599 0.57469531
v 0.17937883 -0.01720022 0.57498340
v 0.18000227 -0.01717515 0.57493119
v 0.18900713 -0.01717515 0.57555576
v 0.19551664 -0.01740438 0.57398797
v 0.19456240 -0.01890599 0.57398797
v 0.17974144 -0.01890599 0.57695323
v 0.17937883 -0.01884347 0.57699430
v 0.17937883 -0.01720022 0.57724005
v 0.18006588 -0.01718141 0.57717925
v 0.18083087 -0.01717515 0.57709266
v 0.18727359 -0.01717515 0.57595558
v 0.18850138 -0.01791282 0.57558218
v 0.18918684 -0.01783421 0.57543256
v 0.19541804 -0.01759515 0.57398797
v 0.19056095 -0.01843990 0.57501809
v 0.19193506 -0.01873131 0.57464342
v 0.19249965 -0.01884720 0.57448998
v 0.19173149 -0.01890599 0.57466347
v 0.17937883 -0.01853834 0.57704459
v 0.18012791 -0.01890599 0.57691981
v 0.18012791 -0.01850632 0.57698602
v 0.17937883 -0.01739896 0.57721204
v 0.17956172 -0.01720022 0.57722445
v 0.18012791 -0.01755398 0.57712545
v 0.18150042 -0.01747808 0.57697775
v 0.18150042 -0.01717515 0.57701531
v 0.18700004 -0.01717515 0.57601797
v 0.18700004 -0.01747757 0.57597977
v 0.18700004 -0.01794823 0.57591547
v 0.18781114 -0.01842533 0.57566335
v 0.19056095 -0.01810495 0.57506744
v 0.18781114 -0.01883466 0.57559873
v 0.19003452 -0.01890599 0.57506616
v 0.18012791 -0.01802820 0.57705860
v 0.18133661 -0.01890599 0.57678165
v 0.18150042 -0.01842804 0.57684023
v 0.18150042 -0.01795111 0.57691217
v 0.18333893 -0.01777610 0.57666132
v 0.18222406 -0.01717515 0.57690548
v 0.18527922 -0.01717515 0.57636973
v 0.18425818 -0.01722394 0.57657187
v 0.18425818 -0.01774255 0.57650375
v 0.18571022 -0.01890599 0.57603739
v 0.18629072 -0.01890599 0.57591866
v 0.18700004 -0.01847243 0.57583748
v 0.18425818 -0.01821660 0.57643531
v 0.18717021 -0.01890599 0.57573084
v 0.18150042 -0.01890599 0.57676223
v 0.18240377 -0.01890599 0.57663522
v 0.18380015 -0.01717515 0.57665464
v 0.18310514 -0.01890599 0.57652221
v 0.18382559 -0.01889193 0.57640538
v 0.18512336 -0.01890599 0.57615422
v 0.18425818 -0.01874521 0.57635254
v 0.18700004 -0.01890599 0.57576777
v 0.18425818 -0.01890599 0.57632517
f 1 2 3
f 1 3 8
f 1 8 16
f 1 16 32
f 1 32 45
f 1 45 56
f 1 56 46
f 1 46 33
f 1 33 17
f 1 17 9
f 1 9 4
f 1 4 10
f 1 10 20
f 1 20 11
f 1 11 5
f 1 5 2
f 2 5 11
f 2 11 24
f 2 24 39
f 2 39 53
f 2 53 61
f 2 61 50
f 2 50 49
f 2 49 59
f 2 59 62
f 2 62 57
f 2 57 55
f 2 55 54
f 2 54 41
f 2 41 26
f 2 26 12
f 2 12 6
f 2 6 3
f 3 6 7
f 3 7 8
f 4 9 10
f 6 12 13
f 6 13 25
f 6 25 28
f 6 28 14
f 6 14 7
f 7 14 8
f 8 14 15
f 8 15 16
f 9 17 18
f 9 18 19
f 9 19 20
f 9 20 10
f 11 20 21
f 11 21 22
f 11 22 23
f 11 23 24
f 12 25 13
f 12 26 27
f 12 27 25
f 14 28 29
f 14 29 15
f 15 29 30
f 15 30 16
f 16 30 31
f 16 31 32
f 17 33 34
f 17 34 18
f 18 21 19
f 18 34 35
f 18 35 36
f 18 36 21
f 19 21 37
f 19 37 20
f 20 37 21
f 21 36 38
f 21 38 39
f 21 39 24
f 21 24 22
f 22 24 23
f 25 27 40
f 25 40 28
f 26 41 27
f 27 41 42
f 27 42 40
f 28 40 29
f 29 40 30
f 30 40 43
f 30 43 31
f 31 43 44
f 31 44 45
f 31 45 32
f 33 46 34
f 34 46 47
f 34 47 48
f 34 48 35
f 35 49 50
f 35 50 51
f 35 51 36
f 35 48 52
f 35 52 49
f 36 51 38
f 38 51 53
f 38 53 39
f 40 42 43
f 41 54 42
f 42 54 55
f 42 55 43
f 43 55 44
f 44 56 45
f 44 55 57
f 44 57 58
f 44 58 52
f 44 52 48
f 44 48 47
f 44 47 56
f 46 56 47
f 49 52 60
f 49 60 59
f 50 61 51
f 51 61 53
f 52 58 60
f 57 62 58
f 58 62 60
f 59 60 62

