# https://github.com/mikedh/trimesh
v 0.21031997 -0.02370408 0.56708772
v 0.21031997 -0.02495066 0.56708772
v 0.21031997 -0.02370408 0.56576519
v 0.20542735 -0.02370408 0.56708772
v 0.20041510 -0.02542248 0.56708785
v 0.21031997 -0.02496630 0.56706727
v 0.20991043 -0.02510978 0.56708772
v 0.21021758 -0.02499204 0.56708630
v 0.21031997 -0.02542248 0.56576519
v 0.20823891 -0.02370408 0.56576519
v 0.20077402 -0.02542248 0.56576519
v 0.19856757 -0.02542248 0.56708772
v 0.20906259 -0.02542248 0.56708772
v 0.20913851 -0.02539523 0.56708772
v 0.20945487 -0.02528017 0.56708772
v 0.20957106 -0.02523728 0.56708772
v 0.20972982 -0.02517858 0.56708772
v 0.20983335 -0.02513922 0.56708772
v 0.20985981 -0.02512912 0.56708772
v 0.21031997 -0.02504452 0.56695618
v 0.21031997 -0.02542248 0.56622662
v 0.20925125 -0.02542248 0.56697703
v 0.20949974 -0.02530608 0.56702286
v 0.20974707 -0.02525057 0.56696771
v 0.20985981 -0.02522601 0.56694129
v 0.20985981 -0.02515082 0.56705639
v 0.21021988 -0.02507059 0.56697366
v 0.21031997 -0.02507782 0.56690517
v 0.21031997 -0.02538362 0.56634923
v 0.21031651 -0.02542248 0.56626210
v 0.20938585 -0.02542248 0.56689494
v 0.20931913 -0.02542214 0.56693663
v 0.20941001 -0.02539926 0.56692187
v 0.20949974 -0.02537757 0.56690491
v 0.20985981 -0.02529716 0.56682374
v 0.21003812 -0.02521911 0.56684613
v 0.21031997 -0.02512879 0.56682658
v 0.21021988 -0.02514494 0.56685973
v 0.20994954 -0.02520515 0.56692200
v 0.21031997 -0.02537740 0.56636308
v 0.21021988 -0.02542248 0.56633641
v 0.21023254 -0.02542248 0.56632683
v 0.20949974 -0.02542248 0.56682516
v 0.20956876 -0.02542248 0.56678205
v 0.21021988 -0.02524636 0.56668870
v 0.21013015 -0.02523442 0.56676560
v 0.21031997 -0.02521895 0.56667368
v 0.21031997 -0.02537000 0.56637888
v 0.21021988 -0.02537016 0.56644996
v 0.21021988 -0.02539977 0.56638665
v 0.21016581 -0.02542248 0.56637616
v 0.20972982 -0.02542248 0.56667782
v 0.21003812 -0.02532037 0.56666915
v 0.21031997 -0.02522887 0.56665672
v 0.21031997 -0.02530608 0.56651133
v 0.21021988 -0.02533938 0.56651288
v 0.20985981 -0.02541491 0.56660662
v 0.20983105 -0.02542248 0.56661037
v 0.21003812 -0.02535317 0.56660713
v 0.21003812 -0.02533686 0.56663821
v 0.21031997 -0.02523711 0.56664144
f 1 2 6
f 1 6 20
f 1 20 28
f 1 28 37
f 1 37 47
f 1 47 54
f 1 54 61
f 1 61 55
f 1 55 48
f 1 48 40
f 1 40 29
f 1 29 21
f 1 21 9
f 1 9 3
f 1 3 10
f 1 10 4
f 1 4 5
f 1 5 2
f 2 5 7
f 2 7 8
f 2 8 6
f 3 9 11
f 3 11 10
f 4 10 11
f 4 11 12
f 4 12 5
f 5 13 14
f 5 14 15
f 5 15 16
f 5 16 17
f 5 17 18
f 5 18 19
f 5 19 7
f 5 12 11
f 5 11 9
f 5 9 21
f 5 21 30
f 5 30 42
f 5 42 41
f 5 41 51
f 5 51 58
f 5 58 52
f 5 52 44
f 5 44 43
f 5 43 31
f 5 31 22
f 5 22 13
f 6 8 7
f 6 7 20
f 7 19 20
f 13 22 23
f 13 23 14
f 14 23 15
f 15 23 16
f 16 23 17
f 17 24 25
f 17 25 26
f 17 26 18
f 17 23 24
f 18 26 19
f 19 26 20
f 20 26 27
f 20 27 28
f 21 29 30
f 22 31 32
f 22 32 33
f 22 33 34
f 22 34 23
f 23 34 24
f 24 34 25
f 25 34 35
f 25 35 36
f 25 36 37
f 25 37 38
f 25 38 39
f 25 39 26
f 26 39 27
f 27 38 28
f 27 39 38
f 28 38 37
f 29 40 41
f 29 41 42
f 29 42 30
f 31 43 32
f 32 43 33
f 33 43 34
f 34 43 35
f 35 43 44
f 35 44 45
f 35 45 46
f 35 46 36
f 36 46 37
f 37 46 47
f 40 48 49
f 40 49 50
f 40 50 51
f 40 51 41
f 44 52 53
f 44 53 45
f 45 53 54
f 45 54 46
f 46 54 47
f 48 55 49
f 49 51 50
f 49 55 56
f 49 56 57
f 49 57 51
f 51 57 58
f 52 58 57
f 52 57 59
f 52 59 60
f 52 60 53
f 53 60 61
f 53 61 54
f 55 61 60
f 55 60 59
f 55 59 57
f 55 57 56

