# https://github.com/mikedh/trimesh
v 0.00458039 -0.03486873 -0.00313395
v 0.00328813 -0.03510764 -0.00224977
v 0.00204841 -0.03516530 -0.00140154
v 0.00097806 -0.03517450 -0.00066920
v 0.00000000 -0.03517500 -0.00000000
v -0.00097806 -0.03517450 0.00066920
v -0.00204841 -0.03516530 0.00140154
v -0.00328813 -0.03510764 0.00224977
v -0.00458039 -0.03486873 0.00313395
v -0.00525643 -0.03441204 0.00359651
v -0.00541959 -0.03397392 0.00370814
v -0.00544561 -0.03359565 0.00372594
v -0.00544703 -0.03325000 0.00372691
v -0.00544561 -0.03290435 0.00372594
v -0.00541959 -0.03252608 0.00370814
v -0.00525643 -0.03208796 0.00359651
v -0.00458039 -0.03163127 0.00313395
v -0.00328813 -0.03139236 0.00224977
v -0.00204841 -0.03133470 0.00140154
v -0.00097806 -0.03132550 0.00066920
v 0.00000000 -0.03132500 -0.00000000
v 0.00097806 -0.03132550 -0.00066920
v 0.00204841 -0.03133470 -0.00140154
v 0.00328813 -0.03139236 -0.00224977
v 0.00458039 -0.03163127 -0.00313395
v 0.00525643 -0.03208796 -0.00359651
v 0.00541959 -0.03252608 -0.00370814
v 0.00544561 -0.03290435 -0.00372594
v 0.00544703 -0.03325000 -0.00372691
v 0.00544561 -0.03359565 -0.00372594
v 0.00541959 -0.03397392 -0.00370814
v 0.00525643 -0.03441204 -0.00359651
v 0.00383896 -0.03546997 -0.00868501
v 0.00195931 -0.03579762 -0.00739893
v 0.00015609 -0.03587670 -0.00616515
v -0.00140079 -0.03588931 -0.00509992
v -0.00282342 -0.03589000 -0.00412654
v -0.00424605 -0.03588931 -0.00315316
v -0.00580293 -0.03587670 -0.00208793
v -0.00760615 -0.03579762 -0.00085414
v -0.00948580 -0.03546997 0.00043193
v -0.01046914 -0.03484365 0.00110475
v -0.01070645 -0.03424280 0.00126712
v -0.01074431 -0.03372403 0.00129302
v -0.01074637 -0.03325000 0.00129443
v -0.01074431 -0.03277597 0.00129302
v -0.01070645 -0.03225720 0.00126712
v -0.01046914 -0.03165635 0.00110475
v -0.00948580 -0.03103003 0.00043193
v -0.00760615 -0.03070238 -0.00085414
v -0.00580293 -0.03062330 -0.00208793
v -0.00424605 -0.03061069 -0.00315316
v -0.00282342 -0.03061000 -0.00412654
v -0.00140079 -0.03061069 -0.00509992
v 0.00015609 -0.03062330 -0.00616515
v 0.00195931 -0.03070238 -0.00739893
v 0.00383896 -0.03103003 -0.00868501
v 0.00482230 -0.03165635 -0.00935782
v 0.00505961 -0.03225720 -0.00952019
v 0.00509747 -0.03277597 -0.00954609
v 0.00509953 -0.03325000 -0.00954750
v 0.00509747 -0.03372403 -0.00954609
v 0.00505961 -0.03424280 -0.00952019
v 0.00482230 -0.03484365 -0.00935782
v -0.00476002 -0.03556247 -0.02184841
v -0.00671799 -0.03590378 -0.02050874
v -0.00859635 -0.03598615 -0.01922355
v -0.01021809 -0.03599929 -0.01811394
v -0.01170000 -0.03600000 -0.01710000
v -0.01318191 -0.03599929 -0.01608606
v -0.01480365 -0.03598615 -0.01497645
v -0.01668201 -0.03590378 -0.01369126
v -0.01863998 -0.03556247 -0.01235159
v -0.01966429 -0.03491005 -0.01165075
v -0.01991149 -0.03428417 -0.01148161
v -0.01995093 -0.03374379 -0.01145463
v -0.01995307 -0.03325000 -0.01145316
v -0.01995093 -0.03275621 -0.01145463
v -0.01991149 -0.03221583 -0.01148161
v -0.01966429 -0.03158995 -0.01165075
v -0.01863998 -0.03093753 -0.01235159
v -0.01668201 -0.03059622 -0.01369126
v -0.01480365 -0.03051385 -0.01497645
v -0.01318191 -0.03050071 -0.01608606
v -0.01170000 -0.03050000 -0.01710000
v -0.01021809 -0.03050071 -0.01811394
v -0.00859635 -0.03051385 -0.01922355
v -0.00671799 -0.03059622 -0.02050874
v -0.00476002 -0.03093753 -0.02184841
v -0.00373571 -0.03158995 -0.02254925
v -0.00348851 -0.03221583 -0.02271839
v -0.00344907 -0.03275621 -0.02274537
v -0.00344693 -0.03325000 -0.02274684
v -0.00344907 -0.03374379 -0.02274537
v -0.00348851 -0.03428417 -0.02271839
v -0.00373571 -0.03491005 -0.02254925
v -0.04691522 -0.03546997 -0.08226853
v -0.04871655 -0.03579762 -0.08103604
v -0.05044464 -0.03587670 -0.07985367
v -0.05193664 -0.03588931 -0.07883282
v -0.05330000 -0.03589000 -0.07790000
v -0.05466336 -0.03588931 -0.07696718
v -0.05615536 -0.03587670 -0.07594633
v -0.05788345 -0.03579762 -0.07476396
v -0.05968478 -0.03546997 -0.07353147
v -0.06062715 -0.03484365 -0.07288669
v -0.06085457 -0.03424280 -0.07273108
v -0.06089085 -0.03372403 -0.07270626
v -0.06089283 -0.03325000 -0.07270491
v -0.06089085 -0.03277597 -0.07270626
v -0.06085457 -0.03225720 -0.07273108
v -0.06062715 -0.03165635 -0.07288669
v -0.05968478 -0.03103003 -0.07353147
v -0.05788345 -0.03070238 -0.07476396
v -0.05615536 -0.03062330 -0.07594633
v -0.05466336 -0.03061069 -0.07696718
v -0.05330000 -0.03061000 -0.07790000
v -0.05193664 -0.03061069 -0.07883282
v -0.05044464 -0.03062330 -0.07985367
v -0.04871655 -0.03070238 -0.08103604
v -0.04691522 -0.03103003 -0.08226853
v -0.04597285 -0.03165635 -0.08291331
v -0.04574543 -0.03225720 -0.08306892
v -0.04570915 -0.03277597 -0.08309374
v -0.04570717 -0.03325000 -0.08309509
v -0.04570915 -0.03372403 -0.08309374
v -0.04574543 -0.03424280 -0.08306892
v -0.04597285 -0.03484365 -0.08291331
v -0.05718928 -0.03509997 -0.09549750
v -0.05875566 -0.03537302 -0.09442577
v -0.06025834 -0.03543892 -0.09339761
v -0.06155574 -0.03544943 -0.09250992
v -0.06274126 -0.03545000 -0.09169877
v -0.06392679 -0.03544943 -0.09088762
v -0.06522419 -0.03543892 -0.08999993
v -0.06672687 -0.03537302 -0.08897178
v -0.06829325 -0.03509997 -0.08790005
v -0.06911270 -0.03457804 -0.08733937
v -0.06931046 -0.03407733 -0.08720406
v -0.06934201 -0.03364503 -0.08718247
v -0.06934372 -0.03325000 -0.08718130
v -0.06934201 -0.03285497 -0.08718247
v -0.06931046 -0.03242267 -0.08720406
v -0.06911270 -0.03192196 -0.08733937
v -0.06829325 -0.03140003 -0.08790005
v -0.06672687 -0.03112698 -0.08897178
v -0.06522419 -0.03106108 -0.08999993
v -0.06392679 -0.03105057 -0.09088762
v -0.06274126 -0.03105000 -0.09169877
v -0.06155574 -0.03105057 -0.09250992
v -0.06025834 -0.03106108 -0.09339761
v -0.05875566 -0.03112698 -0.09442577
v -0.05718928 -0.03140003 -0.09549750
v -0.05636983 -0.03192196 -0.09605817
v -0.05617207 -0.03242267 -0.09619348
v -0.05614052 -0.03285497 -0.09621507
v -0.05613881 -0.03325000 -0.09621624
v -0.05614052 -0.03364503 -0.09621507
v -0.05617207 -0.03407733 -0.09619348
v -0.05636983 -0.03457804 -0.09605817
v -0.06111361 -0.03463748 -0.09765911
v -0.06221008 -0.03484227 -0.09690890
v -0.06326195 -0.03489169 -0.09618919
v -0.06417013 -0.03489957 -0.09556781
v -0.06500000 -0.03490000 -0.09500000
v -0.06582987 -0.03489957 -0.09443219
v -0.06673805 -0.03489169 -0.09381081
v -0.06778992 -0.03484227 -0.09309110
v -0.06888639 -0.03463748 -0.09234089
v -0.06946000 -0.03424603 -0.09194842
v -0.06959844 -0.03387050 -0.09185370
v -0.06962052 -0.03354627 -0.09183859
v -0.06962172 -0.03325000 -0.09183777
v -0.06962052 -0.03295373 -0.09183859
v -0.06959844 -0.03262950 -0.09185370
v -0.06946000 -0.03225397 -0.09194842
v -0.06888639 -0.03186252 -0.09234089
v -0.06778992 -0.03165773 -0.09309110
v -0.06673805 -0.03160831 -0.09381081
v -0.06582987 -0.03160043 -0.09443219
v -0.06500000 -0.03160000 -0.09500000
v -0.06417013 -0.03160043 -0.09556781
v -0.06326195 -0.03160831 -0.09618919
v -0.06221008 -0.03165773 -0.09690890
v -0.06111361 -0.03186252 -0.09765911
v -0.06054000 -0.03225397 -0.09805158
v -0.06040156 -0.03262950 -0.09814630
v -0.06037948 -0.03295373 -0.09816141
v -0.06037828 -0.03325000 -0.09816223
v -0.06037948 -0.03354627 -0.09816141
v -0.06040156 -0.03387050 -0.09814630
v -0.06054000 -0.03424603 -0.09805158
f 82 114 81
f 141 174 173
f 142 174 141
f 50 83 82
f 73 104 72
f 53 21 54
f 85 53 54
f 120 88 89
f 83 50 51
f 18 50 49
f 49 17 18
f 8 9 41
f 40 8 41
f 99 131 130
f 130 162 129
f 35 67 34
f 34 3 35
f 66 67 99
f 34 67 66
f 81 114 113
f 113 80 81
f 112 80 113
f 113 144 112
f 105 104 73
f 73 74 105
f 105 74 106
f 22 54 21
f 83 84 116
f 52 21 53
f 52 53 85
f 85 84 52
f 52 84 83
f 83 51 52
f 19 51 50
f 50 18 19
f 103 72 104
f 103 71 72
f 48 16 17
f 48 17 49
f 106 74 75
f 75 107 106
f 138 105 106
f 129 162 161
f 36 5 37
f 98 66 99
f 99 130 98
f 98 129 97
f 98 130 129
f 65 98 97
f 66 98 65
f 124 123 92
f 127 95 128
f 127 128 159
f 30 61 29
f 2 3 34
f 32 1 64
f 64 63 32
f 32 63 31
f 186 185 154
f 154 155 186
f 142 111 143
f 112 144 143
f 143 111 112
f 109 77 110
f 110 111 142
f 142 141 110
f 110 141 109
f 108 77 109
f 109 141 108
f 121 120 89
f 88 120 119
f 119 87 88
f 120 152 119
f 25 58 57
f 55 87 54
f 23 56 55
f 55 22 23
f 54 22 55
f 83 116 115
f 114 82 115
f 82 83 115
f 115 146 114
f 21 52 20
f 20 52 51
f 51 19 20
f 101 68 69
f 69 70 101
f 37 5 38
f 40 39 7
f 8 40 7
f 79 80 112
f 112 111 79
f 14 45 13
f 11 43 10
f 10 43 42
f 9 10 42
f 41 9 42
f 77 108 76
f 107 75 76
f 76 108 107
f 172 141 173
f 140 108 141
f 107 108 140
f 140 172 171
f 141 172 140
f 106 107 139
f 139 138 106
f 107 140 139
f 139 140 171
f 139 171 170
f 170 138 139
f 104 105 137
f 105 138 137
f 162 130 163
f 163 130 131
f 129 161 160
f 159 128 160
f 97 129 160
f 160 128 97
f 5 36 4
f 4 36 35
f 4 35 3
f 64 1 33
f 1 2 33
f 33 2 34
f 128 95 96
f 97 128 96
f 96 65 97
f 124 92 93
f 90 121 89
f 61 30 62
f 62 30 31
f 31 63 62
f 187 186 155
f 144 177 176
f 176 143 144
f 145 177 144
f 144 113 145
f 114 146 145
f 145 113 114
f 146 179 178
f 178 145 146
f 177 145 178
f 153 121 154
f 154 185 153
f 153 152 120
f 120 121 153
f 87 119 118
f 57 56 24
f 24 25 57
f 24 56 23
f 58 25 26
f 26 59 58
f 134 101 102
f 102 101 70
f 102 70 71
f 71 103 102
f 39 38 6
f 6 7 39
f 6 38 5
f 47 15 16
f 16 48 47
f 78 110 77
f 111 110 78
f 78 79 111
f 43 11 44
f 168 137 169
f 169 138 170
f 169 137 138
f 136 137 168
f 168 167 136
f 104 137 136
f 136 103 104
f 166 165 134
f 133 101 134
f 133 132 101
f 134 165 133
f 165 132 133
f 100 131 99
f 100 132 131
f 101 132 100
f 68 101 100
f 67 68 100
f 99 67 100
f 131 132 164
f 164 163 131
f 164 132 165
f 192 160 161
f 159 160 192
f 156 157 188
f 188 187 156
f 156 187 155
f 124 157 156
f 156 123 124
f 156 155 123
f 158 157 126
f 126 127 158
f 158 127 159
f 126 157 125
f 125 157 124
f 125 93 126
f 124 93 125
f 126 93 94
f 94 127 126
f 95 127 94
f 121 90 122
f 154 121 122
f 122 155 154
f 123 155 122
f 91 92 123
f 123 122 91
f 91 122 90
f 146 115 147
f 147 179 146
f 147 115 116
f 116 148 147
f 184 183 152
f 184 153 185
f 152 153 184
f 143 176 175
f 175 174 142
f 142 143 175
f 87 118 86
f 85 54 86
f 54 87 86
f 117 84 85
f 117 116 84
f 85 86 117
f 117 86 118
f 117 148 116
f 118 150 117
f 59 26 27
f 27 60 59
f 46 14 15
f 15 47 46
f 45 14 46
f 12 44 11
f 45 44 12
f 13 45 12
f 135 136 167
f 167 166 135
f 135 166 134
f 103 136 135
f 134 102 135
f 135 102 103
f 159 192 191
f 191 158 159
f 151 119 152
f 152 183 151
f 151 118 119
f 151 150 118
f 60 27 28
f 61 60 28
f 29 61 28
f 158 191 190
f 157 158 190
f 148 181 180
f 179 147 180
f 180 147 148
f 182 181 150
f 182 151 183
f 150 151 182
f 149 181 148
f 150 181 149
f 148 117 149
f 149 117 150
f 188 157 189
f 157 190 189
f 81 49 50
f 50 82 81
f 73 72 40
f 40 41 73
f 56 57 89
f 89 88 56
f 72 71 39
f 39 40 72
f 48 49 81
f 81 80 48
f 69 68 36
f 36 37 69
f 67 35 36
f 36 68 67
f 55 56 88
f 88 87 55
f 69 37 38
f 38 70 69
f 38 39 71
f 71 70 38
f 73 41 42
f 42 74 73
f 42 43 75
f 42 75 74
f 66 65 33
f 34 66 33
f 95 63 96
f 96 63 64
f 96 33 65
f 64 33 96
f 89 57 90
f 57 58 90
f 47 48 80
f 80 79 47
f 77 76 44
f 44 45 77
f 75 43 44
f 44 76 75
f 94 63 95
f 94 62 63
f 94 93 61
f 61 62 94
f 61 93 60
f 60 93 92
f 91 60 92
f 59 60 91
f 91 90 58
f 58 59 91
f 77 45 46
f 46 78 77
f 46 47 79
f 79 78 46
f 28 22 21
f 5 4 28
f 21 20 28
f 28 30 29
f 28 24 23
f 28 14 13
f 13 12 28
f 17 16 28
f 28 18 17
f 28 10 9
f 9 8 28
f 28 6 5
f 3 2 28
f 23 22 28
f 28 32 31
f 28 19 18
f 16 15 28
f 31 30 28
f 28 2 1
f 1 32 28
f 28 20 19
f 8 7 28
f 15 14 28
f 28 11 10
f 28 4 3
f 25 24 28
f 28 26 25
f 7 6 28
f 28 27 26
f 28 12 11
f 189 161 162
f 173 174 189
f 189 187 188
f 189 164 165
f 174 175 189
f 189 178 179
f 189 172 173
f 162 163 189
f 170 171 189
f 189 167 168
f 185 186 189
f 189 184 185
f 171 172 189
f 168 169 189
f 165 166 189
f 186 187 189
f 189 182 183
f 189 176 177
f 177 178 189
f 189 169 170
f 189 166 167
f 163 164 189
f 189 192 161
f 183 184 189
f 189 175 176
f 189 191 192
f 179 180 189
f 189 190 191
f 189 180 181
f 181 182 189

