# https://github.com/mikedh/trimesh
v -0.10390830 0.02144109 0.02009478
v -0.10362314 0.02102562 0.02120637
v -0.10316955 0.02036151 0.01494655
v -0.10116718 0.01403424 0.02458524
v -0.09997926 0.02028626 0.02981414
v -0.09886893 0.01951274 0.02699668
v -0.09774930 0.01983379 0.03391074
v -0.09557575 0.04225701 0.01973475
v -0.09522939 0.04155244 0.02165394
v -0.09502373 0.04109565 0.02275792
v -0.09481586 0.04060501 0.02384981
v -0.09392335 0.01853668 0.03582777
v -0.09267824 0.03850172 0.02458524
v -0.09113976 0.03903071 0.03229737
v -0.08839594 0.03672271 0.03360260
v -0.08652613 0.03705492 0.04014853
v -0.07090169 0.04554905 0.04645833
f 3 4 1
f 3 4 17
f 8 3 1
f 8 3 17
f 12 4 17
f 12 7 4
f 9 8 17
f 9 14 17
f 9 8 1
f 16 14 17
f 16 14 7
f 16 12 17
f 16 12 7
f 2 11 1
f 2 4 1
f 5 14 7
f 5 11 14
f 5 2 11
f 5 7 4
f 5 2 4
f 10 11 14
f 10 9 14
f 10 11 1
f 10 9 1

