# https://github.com/mikedh/trimesh
v -0.08719294 -0.01823054 0.04435283
v -0.08006495 -0.02934590 0.05083126
v -0.07872810 -0.02885207 0.05218987
v -0.07701308 -0.00886217 0.05543867
v -0.07499043 -0.03321734 0.05016809
v -0.07279464 -0.05114898 0.04029271
v -0.07208036 -0.02641582 0.05817261
v -0.06912066 -0.01445193 0.06016786
v -0.06857104 -0.02512974 0.06090302
v -0.06072993 -0.05370086 0.05164251
v -0.05938398 -0.03444190 0.06016786
v -0.05864100 -0.05184396 0.05429085
v -0.05341538 -0.04722404 0.06003787
f 2 6 1
f 4 6 1
f 4 2 1
f 10 6 13
f 10 2 6
f 12 10 13
f 11 6 13
f 11 9 13
f 7 4 9
f 7 9 13
f 7 12 13
f 8 4 6
f 8 11 6
f 8 4 9
f 8 11 9
f 3 4 2
f 3 7 4
f 3 7 12
f 3 10 2
f 3 12 10

