# https://github.com/mikedh/trimesh
v 0.03741298 -0.07856155 -0.04000000
v 0.03961123 -0.07458589 -0.04000000
v 0.04044859 -0.08111982 -0.02900000
v 0.04317089 -0.07620620 -0.04000000
v 0.04672500 -0.07129720 -0.04000000
v 0.04800000 -0.08341669 -0.02298236
v 0.04800000 -0.08075539 -0.02900000
v 0.04800000 -0.08058171 -0.02307793
v 0.04800000 -0.07783754 -0.02900000
v 0.04877377 -0.07350278 -0.04000000
v 0.05280721 -0.06789991 -0.04000000
v 0.05453835 -0.07024791 -0.04000000
v 0.05719597 -0.06506362 -0.04000000
v 0.06142666 -0.06562924 -0.04000000
v 0.06630035 -0.06615208 -0.03464762
v 0.06778844 -0.06517065 -0.02926345
v 0.07178555 -0.06879060 -0.02279120
f 3 6 1
f 2 3 1
f 16 15 17
f 16 2 13
f 16 2 3
f 16 14 13
f 16 15 14
f 12 15 14
f 8 16 17
f 8 16 3
f 8 6 17
f 8 3 6
f 7 12 15
f 7 6 17
f 7 15 17
f 7 4 1
f 7 6 1
f 10 7 4
f 10 7 12
f 10 14 13
f 10 4 1
f 10 2 1
f 10 2 13
f 10 12 14

