# https://github.com/mikedh/trimesh
v -0.07160847 -0.05393083 -0.03887209
v -0.06580601 -0.06204990 -0.04017194
v -0.06400000 -0.07150919 -0.02900000
v -0.06400000 -0.06825581 -0.02900000
v -0.05789126 -0.07548877 -0.02900000
v -0.05692716 -0.07298613 -0.02900000
v -0.05151999 -0.07903300 -0.02900000
v -0.04948341 -0.07710851 -0.02900000
v -0.04400000 -0.07583273 -0.04000000
v -0.04400000 -0.07263891 -0.04000000
v -0.04320184 -0.08285668 -0.02900000
v -0.04020884 -0.07746883 -0.04000000
v -0.04014568 -0.08123727 -0.02900000
f 2 3 1
f 10 13 1
f 10 2 1
f 4 13 1
f 4 3 1
f 5 2 3
f 5 9 2
f 12 10 2
f 12 9 2
f 12 10 13
f 11 12 13
f 11 12 9
f 7 5 9
f 7 11 9
f 7 4 3
f 7 4 13
f 7 5 3
f 7 11 13

