# https://github.com/mikedh/trimesh
v 0.09749787 -0.03231074 -0.02018752
v 0.10321091 -0.02579071 -0.01838423
v 0.10332703 0.00000000 -0.02234747
v 0.10354591 -0.02609615 -0.01696147
v 0.10378864 -0.02628029 -0.01589001
v 0.10428428 -0.01698624 -0.01359008
v 0.10442075 -0.02644035 -0.01313203
v 0.10469249 -0.02650916 -0.01174260
v 0.10473439 -0.01726529 -0.01121575
v 0.10484208 -0.02662765 -0.01075893
v 0.10497625 -0.01730516 -0.00983431
v 0.10506245 -0.02668362 -0.00935953
v 0.10513723 0.00000000 -0.01703961
v 0.10536525 -0.01736929 -0.00705592
v 0.10541160 -0.02677229 -0.00654668
v 0.10544822 -0.01751975 -0.00602992
v 0.10548983 -0.02684391 -0.00555151
v 0.10556129 -0.02688485 -0.00455512
v 0.10557119 -0.01754018 -0.00463204
v 0.10569925 -0.02691998 -0.00172214
v 0.10572028 -0.01756495 -0.00182926
v 0.10572150 -0.02692565 -0.00030389
v 0.10574628 -0.01756927 -0.00042593
v 0.10593613 -0.00000000 -0.02221637
v 0.10646825 0.00000000 -0.01158999
v 0.10729420 -0.00000000 -0.00603989
v 0.10759841 -0.00000000 -0.00043595
v 0.10768787 -0.00000000 -0.01682666
v 0.10896337 -0.00000000 -0.01130277
v 0.10973897 -0.00000000 -0.00568527
v 0.11000000 0.00000000 -0.00001954
f 27 3 1
f 23 27 31
f 23 22 31
f 23 27 1
f 23 22 1
f 24 28 2
f 24 3 1
f 24 2 1
f 20 30 31
f 20 22 31
f 20 22 1
f 5 7 28
f 5 7 1
f 29 7 28
f 29 30 12
f 4 28 2
f 4 5 28
f 4 2 1
f 4 5 1
f 8 29 7
f 15 30 12
f 15 17 30
f 15 12 1
f 15 17 1
f 18 20 30
f 18 17 30
f 18 20 1
f 18 17 1
f 10 7 1
f 10 8 7
f 10 12 1
f 10 29 12
f 10 8 29
f 29 24 3
f 29 27 31
f 29 27 3
f 29 24 28
f 29 30 31

