# https://github.com/mikedh/trimesh
v -0.08201982 -0.06074445 0.01950080
v -0.08192810 -0.06029341 0.02068365
v -0.08187282 -0.05705122 0.01980560
v -0.08175154 -0.05597164 0.02213137
v -0.08168659 -0.05935762 0.02302576
v -0.08158944 -0.05882162 0.02417549
v -0.08133655 -0.05772006 0.02644883
v -0.07971886 -0.05657208 0.03066022
v -0.07789169 -0.05527543 0.03472630
v -0.07382272 -0.05538237 0.03930310
v -0.06400000 -0.07575781 0.01982585
v -0.06400000 -0.07382265 0.02450047
v -0.06400000 -0.07271548 0.01987515
v -0.06400000 -0.07150919 0.02900000
v -0.06400000 -0.07068168 0.02453333
v -0.06400000 -0.06825581 0.02900000
v -0.05692716 -0.07298613 0.02900000
v -0.05687694 -0.07120900 0.03682486
v -0.05623829 -0.07040383 0.03844944
f 14 9 10
f 17 10 19
f 18 10 19
f 18 14 10
f 18 17 19
f 4 17 10
f 4 17 3
f 4 9 10
f 4 3 1
f 13 3 1
f 13 17 3
f 8 14 9
f 8 7 14
f 8 4 9
f 8 4 7
f 11 13 17
f 11 18 17
f 11 13 1
f 2 4 1
f 6 7 14
f 6 5 14
f 6 2 5
f 6 4 7
f 6 2 4
f 12 18 14
f 12 11 18
f 12 5 14
f 12 2 5
f 12 11 1
f 12 2 1

