# https://github.com/mikedh/trimesh
v 0.04800000 0.07450000 -0.00600000
v 0.04800000 0.07450000 0.00600000
v 0.04800000 0.08059076 -0.02305550
v 0.04800000 0.08140385 -0.00015446
v 0.04800000 0.08143459 -0.00046184
v 0.04800000 0.08149578 -0.00076463
v 0.04800000 0.08158679 -0.00105983
v 0.04800000 0.08170674 -0.00134451
v 0.04800000 0.08185442 -0.00161583
v 0.04800000 0.08202837 -0.00187111
v 0.04800000 0.08222687 -0.00210781
v 0.04800000 0.08244794 -0.00232358
v 0.04800000 0.08253461 -0.01751180
v 0.04800000 0.08268938 -0.00251628
v 0.04800000 0.08365752 -0.02234692
v 0.04800000 0.08395061 -0.01181050
v 0.04800000 0.08494107 -0.01856032
v 0.05411542 0.08188871 -0.00600000
v 0.06000000 0.07450000 -0.00600000
v 0.06000000 0.07862061 -0.00600000
v 0.06737814 0.07100000 -0.01800000
v 0.06840990 0.07100000 -0.01569687
v 0.07038789 0.07100000 -0.00971098
v 0.07235676 0.06988792 -0.01908430
f 2 24 1
f 20 17 24
f 21 3 1
f 21 24 1
f 21 3 24
f 15 17 24
f 15 3 24
f 23 2 24
f 23 20 24
f 23 20 2
f 18 14 17
f 18 20 17
f 4 20 2
f 4 18 20
f 4 18 14
f 4 15 17
f 4 2 1
f 4 3 1
f 4 15 3
f 4 14 17

