# https://github.com/mikedh/trimesh
v -0.03000000 -0.08161738 0.03451851
v -0.03000000 -0.07940758 0.03800000
v -0.02579160 -0.08490140 0.03565306
v -0.02523106 -0.08303641 0.03887810
v -0.02266418 -0.08903928 0.02900000
v -0.02051342 -0.08677414 0.02900000
v -0.01148687 -0.09070769 0.02900000
v -0.01039909 -0.08817021 0.02900000
v -0.00020000 -0.09127715 0.02900000
v -0.00020000 -0.08864779 0.02900000
v -0.00020000 -0.08794547 0.03561712
v -0.00020000 -0.08536972 0.03529514
v -0.00020000 -0.08399860 0.04188702
v -0.00020000 -0.08151616 0.04125562
f 2 10 14
f 2 10 1
f 2 14 13
f 2 4 13
f 11 7 9
f 11 4 13
f 11 7 4
f 3 7 5
f 3 7 4
f 3 5 1
f 3 2 1
f 3 2 4
f 6 5 1
f 6 10 1
f 11 14 13
f 11 10 9
f 11 10 14
f 6 10 9
f 6 7 9
f 6 7 5

