# https://github.com/mikedh/trimesh
v -0.08006495 -0.02934590 0.05083126
v -0.07872810 -0.02885207 0.05218987
v -0.07499043 -0.03321734 0.05016809
v -0.07382272 -0.05538237 0.03930310
v -0.07279464 -0.05114898 0.04029271
v -0.07208036 -0.02641582 0.05817261
v -0.06244345 -0.05679169 0.04435283
v -0.06072993 -0.05370086 0.05164251
v -0.05938398 -0.03444190 0.06016786
v -0.05864100 -0.05184396 0.05429085
v -0.05623829 -0.07040383 0.03844944
v -0.05341538 -0.04722404 0.06003787
v -0.05246340 -0.05434614 0.05287144
v -0.05200570 -0.05556132 0.05222209
f 9 11 14
f 3 9 11
f 4 8 1
f 4 8 11
f 12 11 14
f 12 9 14
f 5 3 11
f 5 4 11
f 5 3 1
f 5 4 1
f 10 8 11
f 10 12 11
f 6 10 12
f 6 12 9
f 6 3 1
f 6 3 9
f 2 6 1
f 2 6 10
f 2 8 1
f 2 10 8

