# https://github.com/mikedh/trimesh
v 0.00041613 -0.08892057 -0.02840000
v 0.00047073 -0.09153946 -0.02840000
v 0.00049347 -0.09596259 -0.01458977
v 0.00050137 -0.09749899 -0.00000000
v 0.00278557 -0.09489510 -0.00483399
v 0.00303037 -0.09592599 -0.01458977
v 0.00565471 -0.09737109 -0.00000000
v 0.00796023 -0.09466595 -0.00483399
v 0.00809778 -0.09569479 -0.01458977
v 0.01010756 -0.08847145 -0.02840000
v 0.01013576 -0.09109850 -0.02840000
v 0.01062552 -0.09550032 -0.01458977
v 0.01079563 -0.09702931 -0.00000000
v 0.01311682 -0.09421647 -0.00483399
v 0.01315237 -0.09525286 -0.01458977
v 0.01592288 -0.09647311 -0.00000000
v 0.01818292 -0.09460055 -0.01458977
v 0.01973049 -0.08985435 -0.02840000
v 0.02068386 -0.09419606 -0.01458977
v 0.02101501 -0.09570416 -0.00000000
f 5 4 1
f 5 4 20
f 3 4 1
f 14 10 20
f 14 5 20
f 14 10 1
f 14 5 1
f 6 3 4
f 6 11 9
f 2 3 1
f 2 6 3
f 2 6 11
f 18 10 20
f 7 13 9
f 7 6 9
f 7 6 4
f 19 18 20
f 17 16 20
f 17 19 20
f 17 19 18
f 15 17 16
f 15 16 13
f 15 18 11
f 15 17 18
f 12 13 9
f 12 15 13
f 12 11 9
f 12 15 11
f 18 2 1
f 18 10 1
f 18 2 11
f 7 16 20
f 7 4 20
f 7 16 13

