# https://github.com/mikedh/trimesh
v 0.07290263 -0.07115491 0.01384664
v 0.07303049 -0.07154539 0.01188925
v 0.07323423 -0.07187862 0.00950699
v 0.07331493 -0.07214129 0.00752594
v 0.07337597 -0.07234355 0.00553729
v 0.07346069 -0.07252771 0.00212616
v 0.07347513 -0.07255944 0.00012713
v 0.07559789 -0.06662399 0.01000279
v 0.07879194 -0.05924710 0.02203127
v 0.07900000 -0.06417299 -0.00600000
v 0.08019769 -0.06285175 0.00702907
v 0.08410824 -0.05600181 0.01645761
v 0.08438408 -0.05727984 0.02125394
v 0.08547338 -0.05474176 0.01554247
v 0.08682269 -0.05340359 0.01467690
v 0.08800961 -0.05214203 0.01396012
v 0.09228523 -0.05079133 0.01298840
v 0.09250583 -0.05112330 0.01102538
v 0.09287825 -0.05132912 0.00822356
v 0.09300233 -0.05154279 0.00623714
v 0.09310535 -0.05167915 0.00424477
v 0.09321496 -0.05173999 0.00141109
v 0.09321920 -0.05175611 -0.00058824
v 0.09527801 -0.04314396 0.00805600
v 0.09598544 -0.04203366 0.00755031
v 0.09668362 -0.04088102 0.00708938
v 0.09673006 -0.03585477 0.01785567
v 0.09914127 -0.03466283 0.02042448
v 0.10025349 -0.03453370 -0.00041591
v 0.10463303 -0.02645137 0.01212758
v 0.10501365 -0.02664079 0.00974697
v 0.10537978 -0.02673367 0.00693650
v 0.10553426 -0.02687190 0.00494589
v 0.10562740 -0.02689562 0.00353084
v 0.10572028 -0.02691927 0.00069582
f 10 9 35
f 8 9 1
f 8 10 9
f 7 8 1
f 7 8 10
f 27 9 35
f 27 28 9
f 13 28 9
f 13 28 17
f 13 9 1
f 23 7 10
f 23 10 35
f 30 27 35
f 30 27 28
f 19 3 4
f 18 19 3
f 18 13 17
f 18 28 17
f 31 30 28
f 31 18 28
f 31 18 19
f 22 23 7
f 22 23 35
f 20 19 4
f 20 5 4
f 20 5 21
f 20 33 21
f 2 18 13
f 2 18 3
f 2 13 1
f 2 3 4
f 2 5 4
f 2 7 1
f 2 5 7
f 34 22 35
f 34 33 21
f 34 22 21
f 32 31 19
f 32 20 19
f 32 20 33
f 32 34 33
f 32 31 30
f 32 30 35
f 32 34 35
f 6 5 7
f 6 22 7
f 6 5 21
f 6 22 21

