# https://github.com/mikedh/trimesh
v -0.08245387 0.04349447 -0.04034354
v -0.07908836 0.04638410 -0.03772853
v -0.07727500 0.04076262 -0.04751530
v -0.07598455 0.03888042 -0.04976197
v -0.07471146 0.03684260 -0.05190974
v -0.07347214 0.03463938 -0.05395047
v -0.07228605 0.03225644 -0.05587495
v -0.06943977 0.04908596 -0.04510690
v -0.06859070 0.04714211 -0.04724677
v -0.06778587 0.04505150 -0.04929290
v -0.06580601 0.06204990 -0.04017194
v -0.06523737 0.06016611 -0.04266790
v -0.06313013 0.05822268 -0.04623236
v -0.04400000 0.05785826 -0.05762279
v -0.04400000 0.06284934 -0.05375011
v -0.04400000 0.06460926 -0.04880344
v -0.04400000 0.07263891 -0.04000000
f 2 7 1
f 2 17 7
f 16 7 14
f 16 17 7
f 6 7 14
f 6 13 14
f 6 7 1
f 15 13 14
f 12 15 13
f 12 3 1
f 12 3 13
f 5 6 13
f 5 6 1
f 11 15 17
f 11 12 15
f 11 2 17
f 11 2 1
f 11 12 1
f 4 3 13
f 4 5 13
f 4 3 1
f 4 5 1
f 15 16 17
f 15 16 14

