DBRep_DrawableShape

CASCADE Topology V3, (c) Open Cascade
Locations 27
1
              1               0               0              26 
              0               0              -1             1.5 
              0               1               0             250 
1
              1               0               0           -7.88 
              0               1               0          -10.35 
              0               0               1            -2.5 
1
              1               0               0               0 
              0               1               0               0 
              0               0               1             5.5 
2  2 1 3 1 0
1
              1               0               0            -1.8 
              0               1               0           -1.75 
              0               0               1            -0.3 
1
              1               0               0           -5.08 
              0               1               0           -12.1 
              0               0               1             5.4 
2  5 1 6 1 0
2  2 1 3 1 6 -1 5 -1 0
1
              1               0               0            -1.8 
              0               1               0           -1.75 
              0               0               1            -0.3 
1
              1               0               0            5.08 
              0               1               0           -12.1 
              0               0               1             5.4 
2  9 1 10 1 0
2  2 1 3 1 10 -1 9 -1 0
1
              1               0               0              -0 
              0               1               0              -0 
              0               0               1            -3.5 
1
              1              -0               0               0 
              0               1              -0               0 
              0               0               1               0 
1
              1               0               0               0 
              0               1               0            5.02 
              0               0               1             5.5 
2  13 1 14 1 15 1 0
1
              1               0               0           -0.75 
              0               1               0            -5.5 
              0               0               1            -0.3 
1
              1               0               0           -5.08 
              0               1               0          -19.35 
              0               0               1             5.4 
2  17 1 18 1 6 -1 5 -1 0
2  17 1 18 1 0
1
              1               0               0           -0.75 
              0               1               0            -5.5 
              0               0               1            -0.3 
1
              1               0               0            5.08 
              0               1               0          -19.35 
              0               0               1             5.4 
2  21 1 22 1 10 -1 9 -1 0
2  21 1 22 1 0
2  15 -1 14 -1 13 -1 0
2  5 1 6 1 18 -1 17 -1 0
2  9 1 10 1 22 -1 21 -1 0
Curve2ds 130
1 0 0 1 0 
1 0 0 1 0 
1 5 0 0 -1 
1 0 0 0 1 
1 0 -20.699999999999999 1 0 
1 0 0 1 0 
1 0 0 0 -1 
1 0 0 0 1 
1 0 0 0 1 
1 0 0 1 0 
1 0 0 1 0 
1 0 15.76 1 0 
1 5 0 0 1 
1 0 0 1 0 
1 0.59999999999999998 0 0 1 
1 0 3.5 1 0 
1 2.7000000000000006 0.99999999999999978 0 1 
1 0 -3.5 1 0 
1 0 3.6000000000000001 1 0 
1 2.1000000000000005 4.5999999999999996 1 0 
1 0 -3.5 1 0 
1 0 0 1 0 
1 2.1000000000000005 0.99999999999999978 1 0 
1 0 0 0 1 
1 0 3.5 1 0 
1 2.1000000000000005 0.99999999999999978 0 1 
1 0.59999999999999998 0 0 1 
1 0 3.5 1 0 
1 2.7000000000000006 11.16 0 1 
1 0 -3.5 1 0 
1 0 3.6000000000000001 1 0 
1 2.1000000000000005 14.76 1 0 
1 0 0 0 1 
1 0 3.5 1 0 
1 2.1000000000000005 11.16 0 1 
1 0 -3.5 1 0 
1 0 0 1 0 
1 2.1000000000000005 11.16 1 0 
1 5 0 0 1 
1 0 20.699999999999999 1 0 
1 5 0 0 -1 
1 15.76 0 0 1 
2 7.8799999999999999 15.369999999999999 1 0 -0 1 1.8
1 0 6 1 0 
1 0 0 0 1 
1 0 20.699999999999999 1 0 
1 0 -20.699999999999999 1 0 
1 0 15.76 1 0 
1 0 0 0 -1 
1 15.76 0 0 1 
2 7.8799999999999999 15.369999999999999 1 0 -0 1 1.8
1 0 1 1 0 
1 0.59999999999999998 0 0 -1 
1 0 0 0 1 
1 0.59999999999999998 0 0 1 
1 0 0 1 0 
1 0.59999999999999998 0 0 -1 
1 0 0 0 1 
1 0.59999999999999998 0 0 1 
1 0 0 1 0 
1 0.59999999999999998 0 0 -1 
1 1.5 0 0 1 
1 0.59999999999999998 0 0 -1 
1 3.6000000000000001 0 0 1 
1 0 0 1 0 
1 0 3.6000000000000001 1 0 
1 0 0 0 -1 
1 3.6000000000000001 0 0 1 
1 0 0 1 0 
1 0 0 1 0 
1 0 0 0 -1 
1 0 0 0 1 
1 0 0 0 1 
1 0 0 1 0 
1 0 0 0 -1 
1 0 0 0 1 
1 0 0 0 1 
1 0 0 1 0 
1 0 0 0 -1 
1 1.5 0 0 1 
1 0.59999999999999998 0 0 -1 
1 0 0 0 1 
1 0.59999999999999998 0 0 1 
1 0 0 1 0 
1 0.59999999999999998 0 0 -1 
1 0 0 0 1 
1 0.59999999999999998 0 0 1 
1 0 0 1 0 
1 0.59999999999999998 0 0 -1 
1 1.5 0 0 1 
1 0.59999999999999998 0 0 -1 
1 3.6000000000000001 0 0 1 
1 0 0 1 0 
1 0 3.6000000000000001 1 0 
1 0 0 0 -1 
1 3.6000000000000001 0 0 1 
1 0 0 0 -1 
1 0 0 0 1 
1 0 0 0 1 
1 0 0 1 0 
1 0 0 0 -1 
1 0 0 0 1 
1 0 0 0 1 
1 0 0 1 0 
1 0 0 0 -1 
1 1.5 0 0 1 
1 0 0 1 0 
1 0 0 1 0 
1 6.2831853071795862 -0 0 1 
1 0 -0 0 1 
1 0 -11 1 0 
1 0 0 1 0 
1 -1.6653345369377348e-16 1.0499999999999998 1 0 
1 0 0 1 0 
1 0 0 1 0 
1 0 0 1 0 
1 0 1.5 1 0 
1 0 -11 1 0 
1 0 1.5 1 0 
1 -1.6653345369377348e-16 2.5499999999999998 1 0 
1 0 -11 1 0 
1 0 0 1 0 
1 -1.6653345369377348e-16 1.0499999999999998 1 0 
1 0 0 1 0 
1 0 0 1 0 
1 0 0 1 0 
1 0 1.5 1 0 
1 0 -11 1 0 
1 0 1.5 1 0 
1 -1.6653345369377348e-16 2.5499999999999998 1 0 
Curves 59
1 0 0 0 0 0 1 
1 0 0 5 -0 1 0 
1 0 20.699999999999999 0 0 0 1 
1 0 0 0 -0 1 0 
1 0 0 0 1 0 -0 
1 15.76 0 0 0 0 1 
1 0 0 5 1 0 -0 
1 0 3.5 0.59999999999999998 1 0 -0 
1 3.6000000000000001 3.5 0 0 0 1 
1 0 3.5 0 0 0 1 
1 0 3.5 0 1 0 -0 
1 0 3.5 0.59999999999999998 1 0 -0 
1 3.6000000000000001 3.5 0 0 0 1 
1 0 3.5 0 1 0 -0 
1 0 3.5 0 0 0 1 
1 0 20.699999999999999 5 1 0 -0 
1 15.76 0 5 -0 1 0 
2 0 5.0199999999999996 8 0 0 1 1 0 -0 -0 1 0 1.8
1 0 20.699999999999999 0 1 0 -0 
1 15.76 20.699999999999999 0 0 0 1 
1 15.76 0 0 -0 1 0 
2 0 5.0199999999999996 3 0 0 1 1 0 -0 -0 1 0 1.8
1 0 0 0.59999999999999998 -0 1 0 
1 0 0 0.59999999999999998 1 0 -0 
1 0 0 0.59999999999999998 -0 1 0 
1 0 0 0.59999999999999998 1 0 -0 
1 1.5 0 0.59999999999999998 -0 1 0 
1 3.6000000000000001 0 0.59999999999999998 -0 1 0 
1 3.6000000000000001 0 0 0 0 1 
1 3.6000000000000001 0 0 -0 1 0 
1 0 0 0 0 0 1 
1 0 0 0 -0 1 0 
1 0 0 0 1 0 -0 
1 0 0 0 -0 1 0 
1 0 0 0 1 0 -0 
1 1.5 0 0 -0 1 0 
1 0 0 0.59999999999999998 -0 1 0 
1 0 0 0.59999999999999998 1 0 -0 
1 0 0 0.59999999999999998 -0 1 0 
1 0 0 0.59999999999999998 1 0 -0 
1 1.5 0 0.59999999999999998 -0 1 0 
1 3.6000000000000001 0 0.59999999999999998 -0 1 0 
1 3.6000000000000001 0 0 0 0 1 
1 3.6000000000000001 0 0 -0 1 0 
1 0 0 0 -0 1 0 
1 0 0 0 1 0 -0 
1 0 0 0 -0 1 0 
1 0 0 0 1 0 -0 
1 1.5 0 0 -0 1 0 
1 0 0 0 0 0 1 
1 1.8 -4.4087284769304716e-16 0 0 0 1 
1 0 11 0 0 0 1 
1 0 0 0 0 0 1 
1 1.5 0 0 0 0 1 
1 1.5 11 0 0 0 1 
1 0 11 0 0 0 1 
1 0 0 0 0 0 1 
1 1.5 0 0 0 0 1 
1 1.5 11 0 0 0 1 
Polygon3D 0
PolygonOnTriangulations 0
Surfaces 35
1 0 0 0 1 0 -0 0 0 1 0 -1 0 
1 0 0 0 -0 1 0 0 0 1 1 0 -0 
1 0 0 5 0 0 1 1 0 -0 -0 1 0 
1 0 20.699999999999999 0 -0 1 0 0 0 1 1 0 -0 
1 0 0 0 0 0 1 1 0 -0 -0 1 0 
1 15.76 0 0 1 0 -0 0 0 1 0 -1 0 
1 0 3.5 0 -0 1 0 0 0 1 1 0 -0 
1 0 0 0.59999999999999998 0 0 1 1 0 -0 -0 1 0 
1 3.6000000000000001 0 0 1 0 -0 0 0 1 0 -1 0 
1 0 0 0 1 0 -0 0 0 1 0 -1 0 
1 0 0 0 0 0 1 1 0 -0 -0 1 0 
1 0 3.5 0 -0 1 0 0 0 1 1 0 -0 
1 0 0 0.59999999999999998 0 0 1 1 0 -0 -0 1 0 
1 3.6000000000000001 0 0 1 0 -0 0 0 1 0 -1 0 
1 0 0 0 0 0 1 1 0 -0 -0 1 0 
1 0 0 0 1 0 -0 0 0 1 0 -1 0 
2 0 0 0 0 0 1 1 0 -0 -0 1 0 1.8
1 -6.8799999999999999 -13.85 5.7000000000000002 0 0 1 1 0 -0 -0 1 0 
1 0 0 0 -0 1 0 0 0 1 1 0 -0 
1 0 0 0 1 0 -0 0 0 1 0 -1 0 
1 0 0 0.59999999999999998 0 0 1 1 0 -0 -0 1 0 
1 0 0 0 -0 1 0 0 0 1 1 0 -0 
1 1.5 0 0 1 0 -0 0 0 1 0 -1 0 
1 -6.8799999999999999 -13.85 5.1000000000000005 0 0 1 1 0 -0 -0 1 0 
1 0 0 0 0 0 1 1 0 -0 -0 1 0 
1 3.2800000000000002 -13.85 5.7000000000000002 0 0 1 1 0 -0 -0 1 0 
1 0 0 0 -0 1 0 0 0 1 1 0 -0 
1 0 0 0 1 0 -0 0 0 1 0 -1 0 
1 0 0 0.59999999999999998 0 0 1 1 0 -0 -0 1 0 
1 0 0 0 -0 1 0 0 0 1 1 0 -0 
1 1.5 0 0 1 0 -0 0 0 1 0 -1 0 
1 3.2800000000000002 -13.85 5.1000000000000005 0 0 1 1 0 -0 -0 1 0 
1 0 0 0 0 0 1 1 0 -0 -0 1 0 
1 0 11 0 -0 1 0 0 0 1 1 0 -0 
1 0 11 0 -0 1 0 0 0 1 1 0 -0 
Triangulations 0

TShapes 161
Ve
1e-07
0 0 5
0 0

0101101
*
Ve
1e-07
0 0 0
0 0

0101101
*
Ed
 1e-07 1 1 0
1  1 0 0 5
2  1 1 0 0 5
2  2 2 0 0 5
0

0101000
-161 0 +160 0 *
Ve
1e-07
0 20.7 5
0 0

0101101
*
Ed
 1e-07 1 1 0
1  2 0 0 20.7
2  3 1 0 0 20.7
2  4 3 0 0 20.7
0

0101000
-158 0 +161 0 *
Ve
1e-07
0 20.7 0
0 0

0101101
*
Ed
 1e-07 1 1 0
1  3 0 0 5
2  5 1 0 0 5
2  6 4 0 0 5
0

0101000
-158 0 +156 0 *
Ed
 1e-07 1 1 0
1  4 0 0 20.7
2  7 1 0 0 20.7
2  8 5 0 0 20.7
0

0101000
-156 0 +160 0 *
Wi

0101100
-159 0 -157 0 +155 0 +154 0 *
Fa
0  1e-07 1 0

0111000
+153 0 *
Ve
1e-07
15.76 0 0
0 0

0101101
*
Ed
 1e-07 1 1 0
1  5 0 0 15.76
2  9 2 0 0 15.76
2  10 5 0 0 15.76
0

0101000
-151 0 +160 0 *
Ve
1e-07
15.76 0 5
0 0

0101101
*
Ed
 1e-07 1 1 0
1  6 0 0 5
2  11 6 0 0 5
2  12 2 0 0 5
0

0101000
-149 0 +151 0 *
Ed
 1e-07 1 1 0
1  7 0 0 15.76
2  13 2 0 0 15.76
2  14 3 0 0 15.76
0

0101000
-149 0 +161 0 *
Wi

0101100
-150 4 -148 4 +159 4 +147 4 *
Ve
1e-07
3.6 3.5 0.6
0 0

0101101
*
Ve
1e-07
0 3.5 0.6
0 0

0101101
*
Ed
 1e-07 1 1 0
1  8 0 0 3.6
2  15 7 0 0 3.6
2  16 8 0 0 3.6
2  17 2 8 0 3.6
0

0101000
-145 0 +144 0 *
Ve
1e-07
3.6 3.5 0
0 0

0101101
*
Ed
 1e-07 1 1 0
1  9 0 0 0.6
2  18 9 0 0 0.6
2  19 7 0 0 0.6
2  20 2 8 0 0.6
0

0101000
-145 0 +142 0 *
Ve
1e-07
0 3.5 0
0 0

0101101
*
Ed
 1e-07 1 1 0
1  10 0 0 0.6
2  21 10 0 0 0.6
2  22 7 0 0 0.6
2  23 2 8 0 0.6
0

0101000
-144 0 +140 0 *
Ed
 1e-07 1 1 0
1  11 0 0 3.6
2  24 7 0 0 3.6
2  25 11 0 0 3.6
2  26 2 8 0 3.6
0

0101000
-142 0 +140 0 *
Wi

0101100
-143 7 +141 7 -139 7 +138 7 *
Ve
1e-07
3.6 3.5 0.6
0 0

0101101
*
Ve
1e-07
0 3.5 0.6
0 0

0101101
*
Ed
 1e-07 1 1 0
1  12 0 0 3.6
2  27 12 0 0 3.6
2  28 13 0 0 3.6
2  29 2 12 0 3.6
0

0101000
-136 0 +135 0 *
Ve
1e-07
3.6 3.5 0
0 0

0101101
*
Ed
 1e-07 1 1 0
1  13 0 0 0.6
2  30 14 0 0 0.6
2  31 12 0 0 0.6
2  32 2 12 0 0.6
0

0101000
-136 0 +133 0 *
Ve
1e-07
0 3.5 0
0 0

0101101
*
Ed
 1e-07 1 1 0
1  14 0 0 3.6
2  33 12 0 0 3.6
2  34 15 0 0 3.6
2  35 2 12 0 3.6
0

0101000
-133 0 +131 0 *
Ed
 1e-07 1 1 0
1  15 0 0 0.6
2  36 16 0 0 0.6
2  37 12 0 0 0.6
2  38 2 12 0 0.6
0

0101000
-135 0 +131 0 *
Wi

0101100
-134 11 +132 11 +130 11 -129 11 *
Fa
0  1e-07 2 4

0101000
+146 0 +137 0 +128 0 *
Ve
1e-07
15.76 20.7 5
0 0

0101101
*
Ed
 1e-07 1 1 0
1  16 0 0 15.76
2  39 4 0 0 15.76
2  40 3 0 0 15.76
0

0101000
-126 0 +158 0 *
Ed
 1e-07 1 1 0
1  17 0 0 20.7
2  41 6 0 0 20.7
2  42 3 0 0 20.7
0

0101000
-126 0 +149 0 *
Wi

0101100
-157 4 -125 4 +147 4 +124 4 *
Ve
1e-07
1.8 5.02 8
0 0

0101101
*
Ed
 1e-07 1 1 0
1  18 0 0 6.28318530717959
2  43 3 4 0 6.28318530717959
2  44 17 16 0 6.28318530717959
0

0101100
+122 0 -122 0 *
Wi

0101100
-121 0 *
Fa
0  1e-07 3 4

0101000
+123 0 +120 0 *
Ve
1e-07
15.76 20.7 0
0 0

0101101
*
Ed
 1e-07 1 1 0
1  19 0 0 15.76
2  45 4 0 0 15.76
2  46 5 0 0 15.76
0

0101000
-118 0 +156 0 *
Ed
 1e-07 1 1 0
1  20 0 0 5
2  47 6 0 0 5
2  48 4 0 0 5
0

0101000
-126 0 +118 0 *
Wi

0101100
-117 0 -116 0 +125 0 +155 0 *
Fa
0  1e-07 4 0

0111000
+115 0 *
Ed
 1e-07 1 1 0
1  21 0 0 20.7
2  49 6 0 0 20.7
2  50 5 0 0 20.7
0

0101000
-118 0 +151 0 *
Wi

0101100
-154 4 -117 4 +150 4 +113 4 *
Ve
1e-07
1.8 5.02 3
0 0

0101101
*
Ed
 1e-07 1 1 0
1  22 0 0 6.28318530717959
2  51 5 4 0 6.28318530717959
2  52 17 16 0 6.28318530717959
0

0101100
+111 0 -111 0 *
Wi

0101100
-110 0 *
Fa
0  1e-07 5 4

0101000
+112 0 +109 0 *
Wi

0101100
-148 0 -124 0 +116 0 +113 0 *
Fa
0  1e-07 6 0

0111000
+107 0 *
Ve
1e-07
0 0 0.6
0 0

0101101
*
Ed
 1e-07 1 1 0
1  23 0 0 3.5
2  53 10 0 0 3.5
2  54 8 0 0 3.5
0

0101000
-144 0 +105 0 *
Ve
1.00000001776357e-07
0 11 0.6
0 0

0101101
*
Ed
 1e-07 1 1 0
1  24 0 0 1.05
2  55 19 0 0 1.05
2  56 8 0 0 1.05
0

0101000
+105 0 -103 19 *
Ve
1e-07
0 0 0.6
0 0

0101101
*
Ed
 1e-07 1 1 0
1  25 0 0 11
2  57 20 0 0 11
2  58 21 0 0 11
0

0101000
-103 0 +101 0 *
Ve
1e-07
1.5 0 0.6
0 0

0101101
*
Ed
 1e-07 1 1 0
1  26 0 0 1.5
2  59 22 0 0 1.5
2  60 21 0 0 1.5
0

0101000
-99 0 +101 0 *
Ve
1.00000001776357e-07
1.5 11 0.6
0 0

0101101
*
Ed
 1e-07 1 1 0
1  27 0 0 11
2  61 23 0 0 11
2  62 21 0 0 11
0

0101000
-97 0 +99 0 *
Ve
1e-07
3.6 0 0.6
0 0

0101101
*
Ed
 1e-07 1 1 0
1  24 0 2.55 3.6
2  55 19 0 2.55 3.6
2  56 8 0 2.55 3.6
0

0101000
+97 19 -95 0 *
Ed
 1e-07 1 1 0
1  28 0 0 3.5
2  63 9 0 0 3.5
2  64 8 0 0 3.5
0

0101000
-145 0 +95 0 *
Wi

0101100
-104 7 +102 7 -100 20 +98 20 +96 20 +94 7 +93 7 -143 7 *
Fa
0  0 18 0

0101000
+92 0 *
Ve
1e-07
3.6 0 0
0 0

0101101
*
Ed
 1e-07 1 1 0
1  29 0 0 0.6
2  65 9 0 0 0.6
2  66 19 0 0 0.6
0

0101000
-95 0 +90 0 *
Ed
 1e-07 1 1 0
1  30 0 0 3.5
2  67 9 0 0 3.5
2  68 11 0 0 3.5
0

0101000
-142 0 +90 0 *
Wi

0101100
-89 0 -93 0 +141 0 +88 0 *
Fa
0  1e-07 9 0

0111000
+87 0 *
Ve
1e-07
0 0 0
0 0

0101101
*
Ed
 1e-07 1 1 0
1  31 0 0 0.6
2  69 10 0 0 0.6
2  70 19 0 0 0.6
0

0101000
-105 0 +85 0 *
Ed
 1e-07 1 1 0
1  32 0 0 3.5
2  71 10 0 0 3.5
2  72 11 0 0 3.5
0

0101000
-140 0 +85 0 *
Wi

0101100
-84 0 -104 0 +139 0 +83 0 *
Fa
0  1e-07 10 0

0111000
+82 0 *
Ve
1.00000001776357e-07
0 11 0
0 0

0101101
*
Ed
 1e-07 1 1 0
1  33 0 0 1.05
2  73 19 0 0 1.05
2  74 11 0 0 1.05
0

0101000
+85 0 -80 19 *
Ve
1e-07
0 0 0
0 0

0101101
*
Ed
 1e-07 1 1 0
1  34 0 0 11
2  75 20 0 0 11
2  76 25 0 0 11
0

0101000
-80 0 +78 0 *
Ve
1e-07
1.5 0 0
0 0

0101101
*
Ed
 1e-07 1 1 0
1  35 0 0 1.5
2  77 22 0 0 1.5
2  78 25 0 0 1.5
0

0101000
-76 0 +78 0 *
Ve
1.00000001776357e-07
1.5 11 0
0 0

0101101
*
Ed
 1e-07 1 1 0
1  36 0 0 11
2  79 23 0 0 11
2  80 25 0 0 11
0

0101000
-74 0 +76 0 *
Ed
 1e-07 1 1 0
1  33 0 2.55 3.6
2  73 19 0 2.55 3.6
2  74 11 0 2.55 3.6
0

0101000
+74 19 -90 0 *
Wi

0101100
-83 7 +79 7 -77 20 +75 20 +73 20 +72 7 +88 7 -138 7 *
Fa
0  0 24 0

0101000
+71 0 *
Ve
1e-07
0 0 0.6
0 0

0101101
*
Ed
 1e-07 1 1 0
1  37 0 0 3.5
2  81 16 0 0 3.5
2  82 13 0 0 3.5
0

0101000
-135 0 +69 0 *
Ve
1.00000001776357e-07
0 11 0.6
0 0

0101101
*
Ed
 1e-07 1 1 0
1  38 0 0 1.05
2  83 27 0 0 1.05
2  84 13 0 0 1.05
0

0101000
+69 0 -67 23 *
Ve
1e-07
0 0 0.6
0 0

0101101
*
Ed
 1e-07 1 1 0
1  39 0 0 11
2  85 28 0 0 11
2  86 29 0 0 11
0

0101000
-67 0 +65 0 *
Ve
1e-07
1.5 0 0.6
0 0

0101101
*
Ed
 1e-07 1 1 0
1  40 0 0 1.5
2  87 30 0 0 1.5
2  88 29 0 0 1.5
0

0101000
-63 0 +65 0 *
Ve
1.00000001776357e-07
1.5 11 0.6
0 0

0101101
*
Ed
 1e-07 1 1 0
1  41 0 0 11
2  89 31 0 0 11
2  90 29 0 0 11
0

0101000
-61 0 +63 0 *
Ve
1e-07
3.6 0 0.6
0 0

0101101
*
Ed
 1e-07 1 1 0
1  38 0 2.55 3.6
2  83 27 0 2.55 3.6
2  84 13 0 2.55 3.6
0

0101000
+61 23 -59 0 *
Ed
 1e-07 1 1 0
1  42 0 0 3.5
2  91 14 0 0 3.5
2  92 13 0 0 3.5
0

0101000
-136 0 +59 0 *
Wi

0101100
-68 11 +66 11 -64 24 +62 24 +60 24 +58 11 +57 11 -134 11 *
Fa
0  0 26 0

0101000
+56 0 *
Ve
1e-07
3.6 0 0
0 0

0101101
*
Ed
 1e-07 1 1 0
1  43 0 0 0.6
2  93 14 0 0 0.6
2  94 27 0 0 0.6
0

0101000
-59 0 +54 0 *
Ed
 1e-07 1 1 0
1  44 0 0 3.5
2  95 14 0 0 3.5
2  96 15 0 0 3.5
0

0101000
-133 0 +54 0 *
Wi

0101100
-53 0 -57 0 +132 0 +52 0 *
Fa
0  1e-07 14 0

0111000
+51 0 *
Ve
1e-07
0 0 0
0 0

0101101
*
Ed
 1e-07 1 1 0
1  45 0 0 3.5
2  97 16 0 0 3.5
2  98 15 0 0 3.5
0

0101000
-131 0 +49 0 *
Ve
1.00000001776357e-07
0 11 0
0 0

0101101
*
Ed
 1e-07 1 1 0
1  46 0 0 1.05
2  99 27 0 0 1.05
2  100 15 0 0 1.05
0

0101000
+49 0 -47 23 *
Ve
1e-07
0 0 0
0 0

0101101
*
Ed
 1e-07 1 1 0
1  47 0 0 11
2  101 28 0 0 11
2  102 33 0 0 11
0

0101000
-47 0 +45 0 *
Ve
1e-07
1.5 0 0
0 0

0101101
*
Ed
 1e-07 1 1 0
1  48 0 0 1.5
2  103 30 0 0 1.5
2  104 33 0 0 1.5
0

0101000
-43 0 +45 0 *
Ve
1.00000001776357e-07
1.5 11 0
0 0

0101101
*
Ed
 1e-07 1 1 0
1  49 0 0 11
2  105 31 0 0 11
2  106 33 0 0 11
0

0101000
-41 0 +43 0 *
Ed
 1e-07 1 1 0
1  46 0 2.55 3.6
2  99 27 0 2.55 3.6
2  100 15 0 2.55 3.6
0

0101000
+41 23 -54 0 *
Wi

0101100
-48 11 +46 11 -44 24 +42 24 +40 24 +39 11 +52 11 -130 11 *
Fa
0  0 32 0

0101000
+38 0 *
Ed
 1e-07 1 1 0
1  50 0 0 0.6
2  107 16 0 0 0.6
2  108 27 0 0 0.6
0

0101000
-69 0 +49 0 *
Wi

0101100
-36 0 -68 0 +129 0 +48 0 *
Fa
0  1e-07 16 0

0111000
+35 0 *
Ed
 1e-07 1 1 0
1  51 0 1 6
3  109 110CN 17 0 1 6
0

0101000
+111 25 -122 25 *
Wi

0101100
-121 0 +33 16 +110 0 -33 16 *
Fa
0  1e-07 17 16

0101000
+32 0 *
Ed
 1.00000001776357e-07 1 1 0
1  52 0 0 0.6
2  111 20 0 0 0.6
2  112 34 0 0 0.6
2  113 19 26 0 0.6
0

0101000
-103 0 +80 0 *
Wi

0101100
-79 7 -30 20 +102 7 +84 7 *
Fa
0  1e-07 19 7

0101000
+29 0 *
Ed
 1e-07 1 1 0
1  53 0 0 0.6
2  114 20 0 0 0.6
2  115 22 0 0 0.6
0

0101000
-101 0 +78 0 *
Wi

0101100
-27 0 -100 0 +30 0 +77 0 *
Fa
0  1e-07 20 0

0111000
+26 0 *
Ed
 1e-07 1 1 0
1  54 0 0 0.6
2  116 23 0 0 0.6
2  117 22 0 0 0.6
0

0101000
-99 0 +76 0 *
Wi

0101100
-75 0 -24 0 +98 0 +27 0 *
Fa
0  1e-07 22 0

0111000
+23 0 *
Ed
 1.00000001776357e-07 1 1 0
1  55 0 0 0.6
2  118 23 0 0 0.6
2  119 34 0 0 0.6
2  120 19 26 0 0.6
0

0101000
-97 0 +74 0 *
Wi

0101100
-24 0 -96 0 +21 0 +73 0 *
Fa
0  1e-07 23 0

0111000
+20 0 *
Wi

0101100
-72 7 -89 7 +94 7 +21 20 *
Fa
0  1e-07 19 7

0101000
+18 0 *
Ed
 1.00000001776357e-07 1 1 0
1  56 0 0 0.6
2  121 28 0 0 0.6
2  122 35 0 0 0.6
2  123 27 27 0 0.6
0

0101000
-67 0 +47 0 *
Wi

0101100
-46 11 -16 24 +66 11 +36 11 *
Fa
0  1e-07 27 11

0101000
+15 0 *
Ed
 1e-07 1 1 0
1  57 0 0 0.6
2  124 28 0 0 0.6
2  125 30 0 0 0.6
0

0101000
-65 0 +45 0 *
Wi

0101100
-13 0 -64 0 +16 0 +44 0 *
Fa
0  1e-07 28 0

0111000
+12 0 *
Ed
 1e-07 1 1 0
1  58 0 0 0.6
2  126 31 0 0 0.6
2  127 30 0 0 0.6
0

0101000
-63 0 +43 0 *
Wi

0101100
-42 0 -10 0 +62 0 +13 0 *
Fa
0  1e-07 30 0

0111000
+9 0 *
Ed
 1.00000001776357e-07 1 1 0
1  59 0 0 0.6
2  128 31 0 0 0.6
2  129 35 0 0 0.6
2  130 27 27 0 0.6
0

0101000
-61 0 +41 0 *
Wi

0101100
-10 0 -60 0 +7 0 +40 0 *
Fa
0  1e-07 31 0

0111000
+6 0 *
Wi

0101100
-39 11 -53 11 +58 11 +7 24 *
Fa
0  1e-07 27 11

0101000
+4 0 *
Sh

0101100
-152 4 -127 0 +119 0 +114 4 -108 0 +106 4 +91 0 +86 7 -81 7 -70 0 
+55 0 +50 11 -37 0 -34 11 -31 0 -28 0 -25 20 -22 20 +19 20 -17 0 
-14 0 -11 24 -8 24 +5 24 -3 0 *
So

0100000
+2 0 *

+1 1 