# https://github.com/mikedh/trimesh
v 0.18559866 0.02589948 0.58977600
v 0.18571304 0.02593716 0.59009024
v 0.18582741 0.02597483 0.59040448
v 0.18597879 0.02395527 0.59082037
v 0.18605743 0.02600000 0.59103650
v 0.18614037 0.02400469 0.59126434
v 0.18725467 0.02594972 0.58964775
v 0.18808267 0.02597483 0.58958362
v 0.18819769 0.02598742 0.58989963
v 0.18831270 0.02600000 0.59021564
v 0.18839563 0.02400469 0.59044348
v 0.19000138 0.02600000 0.59953335
f 11 4 1
f 12 11 10
f 12 5 6
f 6 11 12
f 4 11 6
f 1 4 6
f 6 5 1
f 7 11 1
f 8 11 7
f 7 3 8
f 9 11 8
f 9 10 11
f 5 3 2
f 1 5 2
f 10 5 12
f 5 10 9
f 9 3 5
f 8 3 9
f 3 7 2
f 2 7 1

