# https://github.com/mikedh/trimesh
v 0.19363614 -0.01574608 0.60484165
v 0.19369030 -0.01529247 0.60499045
v 0.19370691 -0.01594065 0.60503610
v 0.19374004 -0.01658339 0.60512714
v 0.19395227 -0.01651348 0.60571021
v 0.19400094 -0.01531396 0.60467442
v 0.19430386 -0.01658339 0.60492194
v 0.19437196 -0.01628130 0.60686334
v 0.19457825 -0.01611968 0.60743011
v 0.19465349 -0.01471582 0.60763684
v 0.19471902 -0.01533694 0.60781686
v 0.19478455 -0.01595807 0.60799689
v 0.19488537 -0.01617355 0.60710437
v 0.19490526 -0.01569947 0.60481997
v 0.19492060 -0.01513071 0.60837070
v 0.19493578 -0.01628130 0.60665811
v 0.19498383 -0.01635869 0.60620534
v 0.19498613 -0.01575183 0.60855072
v 0.19501364 -0.01522799 0.60511774
v 0.19507991 -0.01651348 0.60529980
v 0.19514207 -0.01611968 0.60722488
v 0.19518771 -0.01554559 0.60910455
f 1 10 2
f 2 6 1
f 10 6 2
f 1 6 7
f 19 6 10
f 3 10 1
f 3 8 10
f 20 8 5
f 20 7 14
f 14 19 20
f 14 7 6
f 6 19 14
f 10 8 9
f 8 3 4
f 4 5 8
f 1 7 4
f 4 3 1
f 4 7 20
f 20 5 4
f 15 18 22
f 10 18 15
f 22 19 15
f 15 19 10
f 10 9 11
f 11 9 12
f 11 18 10
f 12 18 11
f 21 18 12
f 22 18 21
f 21 19 22
f 20 19 21
f 12 9 13
f 13 21 12
f 21 13 16
f 17 16 8
f 17 8 20
f 20 21 17
f 21 16 17
f 16 13 9
f 16 9 8

