# https://github.com/mikedh/trimesh
v 0.18255433 -0.01488144 0.60252163
v 0.18255433 -0.01319659 0.60252163
v 0.18256127 -0.01482371 0.60254069
v 0.18256127 -0.01473961 0.60254069
v 0.18256767 -0.01323864 0.60255829
v 0.18257350 -0.01340002 0.60257430
v 0.18257873 -0.01462428 0.60258864
v 0.18259631 -0.01405736 0.60263698
v 0.18405073 -0.01318644 0.60663297
v 0.18405526 -0.01353991 0.60664539
v 0.18406114 -0.01490016 0.60666156
v 0.18406114 -0.01408604 0.60666159
v 0.18406114 -0.01321688 0.60666156
v 0.18407156 -0.01481356 0.60669016
v 0.18407230 -0.01487208 0.60669223
v 0.18845674 -0.01408604 0.61873840
v 0.18848286 -0.01357936 0.61881012
v 0.18850839 -0.01457568 0.61888031
v 0.18850839 -0.01342432 0.61888031
v 0.18856076 -0.01321688 0.61902417
v 0.18858159 -0.01484400 0.61908136
v 0.18860390 -0.01490016 0.61914270
f 22 21 20
f 20 21 17
f 11 21 22
f 1 11 15
f 15 11 22
f 1 15 8
f 8 15 12
f 17 21 14
f 21 11 14
f 9 12 19
f 19 20 9
f 22 20 19
f 13 20 17
f 17 14 10
f 6 10 7
f 7 10 14
f 16 19 12
f 2 12 9
f 2 8 12
f 1 8 2
f 5 10 6
f 5 2 13
f 5 13 17
f 17 10 5
f 6 7 5
f 3 7 14
f 12 15 18
f 18 16 12
f 18 15 22
f 22 19 18
f 19 16 18
f 4 5 7
f 7 3 4
f 2 5 4
f 20 13 2
f 9 20 2
f 3 14 11
f 3 11 1
f 4 3 1
f 1 2 4

