# https://github.com/mikedh/trimesh
v 0.18405073 -0.01318644 0.60663297
v 0.18405154 -0.01475049 0.60663516
v 0.18405240 -0.01468322 0.60663754
v 0.18405240 -0.01331678 0.60663754
v 0.18405526 -0.01446009 0.60664539
v 0.18405526 -0.01353991 0.60664539
v 0.18406114 -0.01490016 0.60666156
v 0.18406114 -0.01408604 0.60666159
v 0.18406114 -0.01391396 0.60666159
v 0.18406114 -0.01328214 0.60666156
v 0.18406115 -0.01449955 0.60666156
v 0.18406115 -0.01350045 0.60666156
v 0.18407156 -0.01481356 0.60669016
v 0.18407230 -0.01487208 0.60669223
v 0.18407299 -0.01492573 0.60669412
v 0.18408546 -0.01494863 0.60672836
v 0.18409848 -0.01496875 0.60676413
v 0.18556101 -0.00440563 0.61078243
v 0.18849464 -0.01449955 0.61884247
v 0.18849464 -0.01350045 0.61884247
v 0.18850839 -0.01342432 0.61888031
v 0.18854155 -0.01328214 0.61897137
v 0.18856076 -0.01321688 0.61902417
v 0.18858159 -0.01484400 0.61908136
v 0.18862759 -0.01495129 0.61920782
v 0.18865253 -0.01499710 0.61927631
v 0.18867857 -0.01503733 0.61934784
f 9 18 1
f 9 25 18
f 18 25 21
f 21 23 18
f 25 23 21
f 27 23 26
f 26 23 25
f 8 9 1
f 8 14 25
f 25 9 8
f 1 18 10
f 18 20 12
f 12 10 18
f 1 10 12
f 18 23 22
f 22 20 18
f 22 23 27
f 27 20 22
f 11 17 13
f 25 14 15
f 24 20 27
f 27 17 24
f 19 17 11
f 20 24 19
f 19 24 17
f 11 13 2
f 1 12 4
f 4 12 6
f 4 2 1
f 6 2 4
f 14 8 3
f 3 8 1
f 1 2 3
f 7 15 14
f 14 3 7
f 7 3 2
f 7 16 15
f 17 16 7
f 7 13 17
f 7 2 13
f 11 2 5
f 5 2 6
f 19 12 20
f 11 12 19
f 16 26 25
f 25 15 16
f 16 17 27
f 27 26 16
f 5 12 11
f 6 12 5

