# https://github.com/mikedh/trimesh
v -0.09547076 0.03125000 0.31899999
v -0.09538125 0.03228892 0.31739999
v -0.09538125 0.03228892 0.31979999
v -0.09516130 0.03202668 0.31739999
v -0.09516130 0.03202668 0.31979999
v -0.09506181 0.03474819 0.31739999
v -0.09506181 0.03474819 0.31979999
v -0.09482753 0.03539139 0.31739999
v -0.09482753 0.03539139 0.31979999
v -0.09441228 0.03125000 0.31739999
v -0.09441228 0.03125000 0.31979999
v -0.09361843 0.03537500 0.31739999
v -0.09361843 0.03537500 0.31979999
v -0.09335381 0.03308333 0.31899999
v -0.09282458 0.03400000 0.31739999
v -0.09282458 0.03400000 0.31979999
f 1 2 4
f 4 10 1
f 3 2 1
f 16 14 15
f 5 3 1
f 14 16 11
f 11 5 1
f 15 10 4
f 4 6 8
f 4 12 15
f 2 6 4
f 8 12 4
f 9 12 8
f 13 12 9
f 8 6 9
f 6 7 9
f 3 6 2
f 3 7 6
f 15 12 16
f 16 12 13
f 11 9 7
f 7 3 11
f 13 9 11
f 11 16 13
f 3 5 11
f 1 10 11
f 11 10 15
f 15 14 11

