# https://github.com/mikedh/trimesh
v -0.12529776 -0.03605978 0.31192499
v -0.12529107 -0.03611923 0.31192499
v -0.12527994 -0.03617802 0.31192499
v -0.12526446 -0.03623580 0.31192499
v -0.12524470 -0.03629227 0.31192499
v -0.12522078 -0.03634711 0.31192499
v -0.12519282 -0.03640000 0.31192499
v -0.12516099 -0.03645066 0.31192499
v -0.12512547 -0.03649879 0.31192499
v -0.12508644 -0.03654414 0.31192499
v -0.12504414 -0.03658644 0.31192499
v -0.12499879 -0.03662547 0.31192499
v -0.12495066 -0.03666099 0.31192499
v -0.12490000 -0.03669282 0.31192499
v -0.12484711 -0.03672078 0.31192499
v -0.12479227 -0.03674470 0.31192499
v -0.12473581 -0.03676446 0.31192499
v -0.12467802 -0.03677994 0.31192499
v -0.12461923 -0.03679107 0.31192499
v -0.12455978 -0.03679776 0.31192499
v -0.11606518 -0.03537319 0.31192499
v -0.09759553 -0.03411957 0.31192499
v -0.09611957 -0.03559553 0.31192499
v -0.12529776 -0.03605978 0.31187499
v -0.12529107 -0.03611923 0.31187499
v -0.12527994 -0.03617802 0.31187499
v -0.12526446 -0.03623580 0.31187499
v -0.12524470 -0.03629227 0.31187499
v -0.12522078 -0.03634711 0.31187499
v -0.12519282 -0.03640000 0.31187499
v -0.12516099 -0.03645066 0.31187499
v -0.12512547 -0.03649879 0.31187499
v -0.12508644 -0.03654414 0.31187499
v -0.12504414 -0.03658644 0.31187499
v -0.12499879 -0.03662547 0.31187499
v -0.12495066 -0.03666099 0.31187499
v -0.12490000 -0.03669282 0.31187499
v -0.12484711 -0.03672078 0.31187499
v -0.12479227 -0.03674470 0.31187499
v -0.12473581 -0.03676446 0.31187499
v -0.12467802 -0.03677994 0.31187499
v -0.12461923 -0.03679107 0.31187499
v -0.12455978 -0.03679776 0.31187499
v -0.11606518 -0.03537319 0.31187499
v -0.09759553 -0.03411957 0.31187499
v -0.09611957 -0.03559553 0.31187499
f 46 45 22
f 46 22 23
f 23 20 43
f 43 46 23
f 1 21 44
f 44 24 1
f 22 45 44
f 44 21 22
f 1 24 25
f 25 2 1
f 6 5 28
f 28 29 6
f 28 5 4
f 4 27 28
f 32 9 8
f 8 31 32
f 30 7 6
f 6 29 30
f 8 7 30
f 30 31 8
f 42 43 20
f 20 19 42
f 42 19 18
f 18 41 42
f 40 17 16
f 16 39 40
f 18 17 40
f 40 41 18
f 35 12 11
f 11 34 35
f 13 12 35
f 35 36 13
f 14 21 1
f 23 22 14
f 14 20 23
f 22 21 14
f 6 7 14
f 1 2 14
f 14 19 20
f 14 15 16
f 11 12 14
f 14 5 6
f 16 17 14
f 14 10 11
f 18 19 14
f 8 9 14
f 4 5 14
f 14 7 8
f 14 12 13
f 14 17 18
f 14 3 4
f 9 10 14
f 2 3 14
f 16 15 38
f 38 39 16
f 4 3 26
f 26 27 4
f 26 3 2
f 2 25 26
f 11 10 33
f 33 34 11
f 33 10 9
f 9 32 33
f 45 46 37
f 24 44 37
f 46 43 37
f 37 44 45
f 29 28 37
f 37 40 39
f 37 30 29
f 37 25 24
f 27 26 37
f 43 42 37
f 37 35 34
f 39 38 37
f 37 28 27
f 37 32 31
f 31 30 37
f 37 42 41
f 41 40 37
f 36 35 37
f 34 33 37
f 37 26 25
f 37 33 32
f 13 36 37
f 37 14 13
f 15 14 37
f 37 38 15

