# https://github.com/mikedh/trimesh
v -0.07950000 0.03400000 0.31539999
v -0.07950000 0.03400000 0.32139999
v -0.07949860 0.03403736 0.31339999
v -0.07949720 0.03392527 0.31339999
v -0.07949580 0.03388791 0.31539999
v -0.07949580 0.03388791 0.32139999
v -0.07949580 0.03411209 0.31539999
v -0.07949580 0.03411209 0.32139999
v -0.07949162 0.03414925 0.31339999
v -0.07948743 0.03381359 0.31339999
v -0.07948325 0.03377644 0.31539999
v -0.07948325 0.03377644 0.32139999
v -0.07948325 0.03422356 0.31539999
v -0.07948325 0.03422356 0.32139999
v -0.07947630 0.03373970 0.31339999
v -0.07947630 0.03426030 0.31339999
v -0.07946239 0.03366622 0.31539999
v -0.07946239 0.03366622 0.32139999
v -0.07946239 0.03433378 0.31539999
v -0.07946239 0.03433378 0.32139999
v -0.07944304 0.03359399 0.31339999
v -0.07944304 0.03440601 0.31339999
v -0.07943336 0.03355787 0.31539999
v -0.07943336 0.03355787 0.32139999
v -0.07943336 0.03444213 0.31539999
v -0.07943336 0.03444213 0.32139999
v -0.07942101 0.03447742 0.31339999
v -0.07940866 0.03348728 0.31339999
v -0.07939631 0.03345199 0.31539999
v -0.07939631 0.03345199 0.32139999
v -0.07939631 0.03454801 0.31539999
v -0.07939631 0.03454801 0.32139999
v -0.07938136 0.03458228 0.31339999
v -0.07936641 0.03338345 0.31339999
v -0.07935146 0.03334917 0.31539999
v -0.07935146 0.03334917 0.32139999
v -0.07935146 0.03465083 0.31539999
v -0.07935146 0.03465083 0.32139999
v -0.07931651 0.03328306 0.31339999
v -0.07931651 0.03471694 0.31339999
v -0.07929904 0.03325000 0.31539999
v -0.07929904 0.03325000 0.32139999
v -0.07929904 0.03475000 0.31539999
v -0.07929904 0.03475000 0.32139999
v -0.07927915 0.03321834 0.31339999
v -0.07925925 0.03481332 0.31339999
v -0.07923936 0.03315502 0.31539999
v -0.07923936 0.03315502 0.32139999
v -0.07923936 0.03484498 0.31539999
v -0.07923936 0.03484498 0.32139999
v -0.07921715 0.03312494 0.31339999
v -0.07919495 0.03490515 0.31339999
v -0.07917274 0.03306477 0.31539999
v -0.07917274 0.03306477 0.32139999
v -0.07917274 0.03493523 0.31539999
v -0.07917274 0.03493523 0.32139999
v -0.07912397 0.03300808 0.31339999
v -0.07912397 0.03499192 0.31339999
v -0.07909958 0.03297974 0.31539999
v -0.07909958 0.03297974 0.32139999
v -0.07909958 0.03502026 0.32139999
v -0.07904670 0.03292686 0.31339999
v -0.07902026 0.03290042 0.31539999
v -0.07902026 0.03290042 0.32139999
v -0.07896357 0.03285164 0.31339999
v -0.07893523 0.03282725 0.31539999
v -0.07893523 0.03282725 0.32139999
v -0.07887506 0.03278285 0.31339999
v -0.07884498 0.03276064 0.31539999
v -0.07884498 0.03276064 0.32139999
v -0.07878166 0.03272086 0.31339999
v -0.07875000 0.03270096 0.31539999
v -0.07875000 0.03270096 0.32139999
v -0.07868388 0.03266602 0.31339999
v -0.07865083 0.03264855 0.31539999
v -0.07865083 0.03264855 0.32139999
v -0.07858228 0.03261864 0.31339999
v -0.07854801 0.03260369 0.31539999
v -0.07854801 0.03260369 0.32139999
v -0.07851272 0.03259134 0.31339999
v -0.07844213 0.03256664 0.31539999
v -0.07844213 0.03256664 0.32139999
v -0.07836990 0.03254729 0.31339999
v -0.07833378 0.03253761 0.31539999
v -0.07833378 0.03253761 0.32139999
v -0.07826030 0.03252371 0.31339999
v -0.07822356 0.03251675 0.31539999
v -0.07822356 0.03251675 0.32139999
v -0.07818641 0.03251257 0.31739999
v -0.07814925 0.03250838 0.31339999
v -0.07811210 0.03250420 0.31539999
v -0.07811210 0.03250420 0.32139999
v -0.07803737 0.03250140 0.31339999
v -0.07800000 0.03250000 0.31539999
v -0.07800000 0.03250000 0.32139999
v -0.07796263 0.03250140 0.31739999
v -0.07792527 0.03250280 0.31339999
v -0.07788790 0.03250420 0.31539999
v -0.07788790 0.03250420 0.32139999
v -0.07785075 0.03250838 0.31339999
v -0.07777644 0.03251675 0.31539999
v -0.07777644 0.03251675 0.32139999
v -0.07773970 0.03252371 0.31339999
v -0.07770296 0.03253066 0.31739999
v -0.07766622 0.03253761 0.31539999
v -0.07766622 0.03253761 0.32139999
v -0.07759399 0.03255696 0.31339999
v -0.07755787 0.03256664 0.31539999
v -0.07755787 0.03256664 0.32139999
v -0.07748728 0.03259134 0.31339999
v -0.07745199 0.03260369 0.31539999
v -0.07745199 0.03260369 0.32139999
v -0.07738345 0.03263360 0.31339999
v -0.07734917 0.03264855 0.31539999
v -0.07734917 0.03264855 0.32139999
v -0.07731612 0.03266602 0.31339999
v -0.07725000 0.03270096 0.31539999
v -0.07725000 0.03270096 0.32139999
v -0.07718668 0.03274075 0.31339999
v -0.07715502 0.03276064 0.31539999
v -0.07715502 0.03276064 0.32139999
v -0.07709485 0.03280505 0.31339999
v -0.07706477 0.03282725 0.31539999
v -0.07706477 0.03282725 0.32139999
v -0.07700808 0.03287603 0.31339999
v -0.07697974 0.03290042 0.31539999
v -0.07697974 0.03290042 0.32139999
v -0.07692686 0.03295330 0.31339999
v -0.07690042 0.03297974 0.31539999
v -0.07690042 0.03297974 0.32139999
v -0.07690042 0.03502026 0.32139999
v -0.07687603 0.03499192 0.31339999
v -0.07685164 0.03303642 0.31339999
v -0.07682726 0.03306477 0.31539999
v -0.07682726 0.03306477 0.32139999
v -0.07682726 0.03493523 0.31539999
v -0.07682726 0.03493523 0.32139999
v -0.07678285 0.03312494 0.31339999
v -0.07678285 0.03487506 0.31339999
v -0.07676064 0.03315502 0.31539999
v -0.07676064 0.03315502 0.32139999
v -0.07676064 0.03484498 0.31539999
v -0.07676064 0.03484498 0.32139999
v -0.07674075 0.03481332 0.31339999
v -0.07672085 0.03321834 0.31339999
v -0.07670096 0.03325000 0.31539999
v -0.07670096 0.03325000 0.32139999
v -0.07670096 0.03475000 0.31539999
v -0.07670096 0.03475000 0.32139999
v -0.07668349 0.03471694 0.31339999
v -0.07666602 0.03331612 0.31339999
v -0.07664854 0.03334917 0.31539999
v -0.07664854 0.03334917 0.32139999
v -0.07664854 0.03465083 0.31539999
v -0.07664854 0.03465083 0.32139999
v -0.07663359 0.03461655 0.31339999
v -0.07661864 0.03341772 0.31339999
v -0.07660369 0.03345199 0.31539999
v -0.07660369 0.03345199 0.32139999
v -0.07660369 0.03454801 0.31539999
v -0.07660369 0.03454801 0.32139999
v -0.07657899 0.03352258 0.31339999
v -0.07657899 0.03447742 0.31339999
v -0.07656664 0.03355787 0.31539999
v -0.07656664 0.03355787 0.32139999
v -0.07656664 0.03444213 0.31539999
v -0.07656664 0.03444213 0.32139999
v -0.07654728 0.03363010 0.31339999
v -0.07654728 0.03436990 0.31339999
v -0.07653761 0.03366622 0.31539999
v -0.07653761 0.03366622 0.32139999
v -0.07653761 0.03433378 0.31539999
v -0.07653761 0.03433378 0.32139999
v -0.07652370 0.03373970 0.31339999
v -0.07652370 0.03426030 0.31339999
v -0.07651675 0.03377644 0.31539999
v -0.07651675 0.03377644 0.32139999
v -0.07651675 0.03422356 0.31539999
v -0.07651675 0.03422356 0.32139999
v -0.07651257 0.03418641 0.31339999
v -0.07651048 0.03416783 0.31539999
v -0.07650838 0.03385075 0.31339999
v -0.07650420 0.03388791 0.31539999
v -0.07650420 0.03388791 0.32139999
v -0.07650420 0.03411209 0.31539999
v -0.07650420 0.03411209 0.32139999
v -0.07650280 0.03407473 0.31339999
v -0.07650210 0.03394395 0.31539999
v -0.07650210 0.03405605 0.31539999
v -0.07650140 0.03396264 0.31339999
v -0.07650000 0.03400000 0.31539999
v -0.07650000 0.03400000 0.32139999
f 3 7 9
f 145 140 138
f 96 99 95
f 96 95 94
f 102 104 106
f 106 104 105
f 40 43 46
f 31 33 27
f 16 9 13
f 57 62 59
f 157 162 158
f 133 138 134
f 122 125 123
f 170 168 174
f 162 168 164
f 182 190 183
f 183 190 188
f 174 182 176
f 180 185 187
f 185 189 187
f 191 190 187
f 187 189 191
f 180 178 181
f 181 185 180
f 52 55 58
f 132 136 139
f 40 33 37
f 22 25 27
f 22 16 19
f 10 15 11
f 29 28 34
f 63 62 65
f 71 74 72
f 151 146 145
f 151 157 152
f 128 126 125
f 128 133 129
f 117 116 119
f 175 178 180
f 49 52 46
f 150 154 156
f 4 10 5
f 1 3 4
f 15 21 17
f 23 21 28
f 53 51 57
f 35 34 39
f 39 45 41
f 68 66 65
f 68 71 69
f 83 86 84
f 113 116 114
f 120 119 122
f 172 175 169
f 144 139 142
f 160 163 156
f 169 163 166
f 45 51 47
f 86 90 87
f 97 96 94
f 74 77 75
f 150 144 148
f 93 91 90
f 93 97 94
f 89 92 88
f 88 87 89
f 89 87 90
f 98 97 100
f 101 100 103
f 105 104 103
f 80 78 77
f 83 81 80
f 105 103 107
f 108 107 110
f 113 111 110
f 61 131 132
f 132 58 61
f 61 58 56
f 58 55 56
f 8 9 7
f 13 9 8
f 8 14 13
f 1 2 8
f 8 7 3
f 8 3 1
f 16 14 20
f 13 14 16
f 20 19 16
f 25 26 32
f 25 31 27
f 32 31 25
f 146 140 145
f 147 141 146
f 146 141 140
f 158 159 153
f 153 157 158
f 152 157 153
f 134 141 135
f 134 138 140
f 140 141 134
f 134 135 130
f 130 129 134
f 129 133 134
f 126 127 124
f 124 123 126
f 126 123 125
f 171 165 164
f 164 170 171
f 168 170 164
f 164 165 159
f 158 162 164
f 164 159 158
f 191 192 188
f 188 190 191
f 184 188 192
f 183 188 184
f 189 186 192
f 189 185 186
f 189 192 191
f 142 139 137
f 137 143 142
f 137 139 136
f 137 132 131
f 137 136 132
f 179 181 178
f 186 185 179
f 185 181 179
f 37 38 44
f 44 43 37
f 37 43 40
f 32 38 37
f 37 31 32
f 33 31 37
f 22 19 20
f 20 26 22
f 26 25 22
f 12 6 10
f 6 5 10
f 10 11 12
f 35 36 34
f 34 36 30
f 34 30 29
f 60 59 63
f 63 64 60
f 63 59 62
f 64 63 66
f 67 64 66
f 66 63 65
f 147 146 151
f 152 153 151
f 151 153 147
f 130 127 128
f 127 126 128
f 128 129 130
f 171 170 177
f 174 176 177
f 177 170 174
f 49 56 55
f 49 50 56
f 55 52 49
f 44 50 49
f 49 43 44
f 49 46 43
f 4 6 2
f 4 2 1
f 4 5 6
f 18 12 17
f 12 11 17
f 11 15 17
f 29 30 23
f 30 24 23
f 23 28 29
f 23 24 18
f 18 17 23
f 23 17 21
f 60 54 53
f 53 59 60
f 57 59 53
f 42 36 39
f 39 41 42
f 39 36 35
f 67 66 68
f 69 70 68
f 68 70 67
f 72 73 70
f 70 71 72
f 69 71 70
f 114 118 115
f 114 117 118
f 114 116 117
f 114 112 111
f 115 112 114
f 114 111 113
f 120 123 124
f 124 121 120
f 122 123 120
f 120 121 118
f 118 117 120
f 117 119 120
f 184 182 183
f 182 184 177
f 177 176 182
f 173 179 172
f 172 179 178
f 178 175 172
f 160 154 155
f 155 161 160
f 156 154 160
f 47 53 54
f 54 48 47
f 51 53 47
f 47 48 42
f 42 41 47
f 41 45 47
f 87 88 85
f 85 84 87
f 87 84 86
f 97 98 99
f 99 96 97
f 85 82 81
f 81 84 85
f 83 84 81
f 76 73 75
f 75 73 72
f 72 74 75
f 155 154 148
f 148 149 155
f 154 150 148
f 142 143 148
f 143 149 148
f 148 144 142
f 167 131 61
f 167 36 42
f 115 118 167
f 32 26 167
f 167 127 130
f 18 24 167
f 167 121 124
f 159 165 167
f 61 56 167
f 2 6 167
f 167 73 76
f 192 186 167
f 130 135 167
f 95 99 167
f 155 149 167
f 167 50 44
f 167 12 18
f 167 54 60
f 42 48 167
f 167 141 147
f 102 106 167
f 124 127 167
f 167 99 102
f 167 112 115
f 167 184 192
f 167 38 32
f 20 14 167
f 167 26 20
f 167 6 12
f 171 177 167
f 167 8 2
f 60 64 167
f 85 88 167
f 167 92 95
f 167 153 159
f 109 112 167
f 167 106 109
f 167 165 171
f 167 137 131
f 186 179 167
f 44 38 167
f 56 50 167
f 14 8 167
f 30 36 167
f 167 24 30
f 167 64 67
f 167 161 155
f 88 92 167
f 135 141 167
f 147 153 167
f 118 121 167
f 67 70 167
f 143 137 167
f 167 149 143
f 167 179 173
f 76 79 167
f 167 70 73
f 167 177 184
f 167 48 54
f 167 82 85
f 167 79 82
f 173 172 167
f 169 166 167
f 167 172 169
f 167 166 163
f 167 160 161
f 163 160 167
f 95 92 93
f 92 91 93
f 94 95 93
f 89 91 92
f 90 91 89
f 99 98 100
f 102 99 100
f 100 101 102
f 76 75 78
f 78 79 76
f 78 75 77
f 102 101 103
f 103 104 102
f 80 81 82
f 79 78 80
f 82 79 80
f 108 109 107
f 109 106 107
f 107 106 105
f 110 112 109
f 111 112 110
f 110 109 108
f 58 132 110
f 110 52 58
f 27 33 110
f 110 62 57
f 133 128 110
f 3 9 110
f 28 21 110
f 45 39 110
f 110 68 65
f 180 187 110
f 132 139 110
f 145 138 110
f 110 151 145
f 174 168 110
f 110 33 40
f 110 22 27
f 65 62 110
f 110 34 28
f 110 138 133
f 110 125 122
f 110 168 162
f 122 119 110
f 110 182 174
f 40 46 110
f 9 16 110
f 156 163 110
f 57 51 110
f 139 144 110
f 162 157 110
f 190 182 110
f 110 150 156
f 110 187 190
f 46 52 110
f 110 175 180
f 16 22 110
f 15 10 110
f 110 21 15
f 110 51 45
f 110 4 3
f 74 71 110
f 110 86 83
f 157 151 110
f 110 128 125
f 110 116 113
f 110 119 116
f 169 175 110
f 110 77 74
f 110 163 169
f 10 4 110
f 110 39 34
f 71 68 110
f 110 90 86
f 83 80 110
f 110 144 150
f 110 93 90
f 97 93 110
f 110 100 97
f 110 103 100
f 110 80 77
f 110 107 103

