# https://github.com/mikedh/trimesh
v 0.17001860 0.01950000 0.55812421
v 0.17001860 0.02650000 0.55812421
v 0.17009573 0.02416667 0.55816496
v 0.17013430 0.01950000 0.55818533
v 0.17025000 0.01950000 0.55824646
v 0.17025000 0.02650000 0.55824646
v 0.17036081 0.01950000 0.55831610
v 0.17047162 0.02378716 0.55838574
v 0.17047162 0.01950000 0.55838574
v 0.17057692 0.01950000 0.55846344
v 0.17068222 0.01950000 0.55854114
v 0.17068222 0.02650000 0.55854114
v 0.17078141 0.01950000 0.55862653
v 0.17078141 0.02300000 0.55862653
v 0.17088060 0.01950000 0.55871191
v 0.17088060 0.02650000 0.55871191
v 0.17106569 0.01950000 0.55889697
v 0.17106569 0.02650000 0.55889697
v 0.17115105 0.01950000 0.55899615
v 0.17115105 0.02300000 0.55899615
v 0.17123640 0.02438200 0.55909534
v 0.17123640 0.01950000 0.55909534
v 0.17128821 0.02416667 0.55916555
v 0.17131412 0.01950000 0.55920065
v 0.17131412 0.02300000 0.55920065
v 0.17139183 0.01950000 0.55930597
v 0.17139183 0.02650000 0.55930597
v 0.17148466 0.02416667 0.55945372
v 0.17153108 0.01950000 0.55952759
v 0.17153108 0.02650000 0.55952759
v 0.17159224 0.01950000 0.55964328
v 0.17159224 0.02300000 0.55964328
v 0.17165340 0.01950000 0.55975897
v 0.17165340 0.02650000 0.55975897
v 0.17168828 0.02183333 0.55983895
v 0.17170573 0.01950000 0.55987894
v 0.17172317 0.02416667 0.55991892
v 0.17175806 0.01950000 0.55999890
v 0.17175806 0.02650000 0.55999890
f 1 2 3
f 1 3 4
f 3 5 4
f 8 12 11
f 6 5 3
f 6 8 5
f 6 3 2
f 12 8 6
f 10 8 11
f 10 9 8
f 5 8 7
f 8 9 7
f 16 14 12
f 30 34 32
f 35 36 33
f 33 34 35
f 18 27 21
f 29 26 28
f 30 29 28
f 26 27 28
f 28 27 30
f 37 34 39
f 37 35 34
f 37 39 38
f 22 21 23
f 23 21 27
f 20 21 22
f 18 21 20
f 22 19 20
f 25 24 22
f 22 23 25
f 25 23 27
f 1 38 39
f 39 2 1
f 17 15 16
f 16 18 17
f 18 16 27
f 2 39 27
f 27 6 2
f 12 6 27
f 27 34 30
f 39 34 27
f 27 16 12
f 32 31 29
f 32 29 30
f 33 31 32
f 32 34 33
f 13 16 15
f 14 16 13
f 11 12 13
f 12 14 13
f 5 7 24
f 24 38 1
f 29 31 24
f 24 15 17
f 1 4 24
f 24 4 5
f 17 19 24
f 24 36 38
f 24 10 11
f 24 26 29
f 33 36 24
f 24 31 33
f 9 10 24
f 24 7 9
f 24 19 22
f 11 13 24
f 24 13 15
f 38 36 37
f 36 35 37
f 17 18 20
f 20 19 17
f 26 24 25
f 25 27 26

