# https://github.com/mikedh/trimesh
v 0.19463726 0.01188433 0.61811792
v 0.19516337 0.01647846 0.62375218
v 0.19518434 0.01483263 0.61962099
v 0.19564593 0.01532052 0.62088921
v 0.19566809 0.01169644 0.62531525
v 0.19601136 0.00894716 0.62189323
v 0.19614878 0.01246468 0.61876220
v 0.19616925 0.01252573 0.61881844
v 0.19620762 0.01265473 0.61892386
v 0.19633675 0.01463165 0.61927864
v 0.19634104 0.01459079 0.61929044
v 0.19636935 0.01400000 0.61936822
v 0.19704842 0.01412573 0.62123395
v 0.19713391 0.01536631 0.62146885
v 0.19727112 0.00917898 0.62535437
v 0.19745990 0.01482736 0.62236449
v 0.19785772 0.00415489 0.62345748
v 0.19871219 0.01700000 0.62580511
f 7 17 1
f 5 2 1
f 18 2 5
f 1 17 6
f 6 5 1
f 17 5 6
f 15 17 18
f 18 5 15
f 15 5 17
f 18 17 16
f 17 13 16
f 18 16 14
f 17 7 8
f 8 9 17
f 10 7 1
f 11 8 7
f 7 10 11
f 1 2 3
f 3 10 1
f 4 3 2
f 10 3 4
f 18 10 4
f 4 2 18
f 18 14 11
f 11 10 18
f 12 14 16
f 12 16 13
f 12 11 14
f 12 13 17
f 17 9 12
f 9 8 12
f 8 11 12

