# https://github.com/mikedh/trimesh
v 0.13775876 -0.03175000 0.58561417
v 0.13967417 -0.02986538 0.58175020
v 0.14203072 -0.02825000 0.58251388
v 0.14414356 -0.02941667 0.58500409
v 0.14426320 -0.03175000 0.58523364
v 0.14437040 -0.03175000 0.58057322
v 0.14467920 -0.02825000 0.58046355
v 0.14488753 -0.02941667 0.58296010
v 0.14493443 -0.03175000 0.58044165
v 0.14497763 -0.03000000 0.58291754
v 0.14508894 -0.03175000 0.58287384
v 0.14514824 -0.03175000 0.58172772
f 9 7 12
f 5 4 1
f 7 4 8
f 7 9 6
f 6 2 7
f 6 9 1
f 1 2 6
f 3 4 7
f 7 2 3
f 1 4 3
f 3 2 1
f 10 11 12
f 12 7 10
f 7 8 10
f 5 11 10
f 4 5 10
f 10 8 4
f 11 9 12
f 1 9 11
f 11 5 1

