# https://github.com/mikedh/trimesh
v 0.17884028 0.02839568 0.59210782
v 0.18332843 0.02499358 0.58797959
v 0.18334417 0.02285773 0.58800495
v 0.18434756 0.02589174 0.58984720
v 0.18465998 0.02501906 0.58719698
v 0.18476873 0.02517329 0.58749578
v 0.18482410 0.02524410 0.58764791
v 0.18487947 0.02531492 0.58780004
v 0.18493575 0.02537932 0.58795467
v 0.18499203 0.02544372 0.58810929
v 0.18510623 0.02555951 0.58842306
v 0.18522190 0.02566210 0.58874085
v 0.18528038 0.02570671 0.58890152
v 0.18533885 0.02575133 0.58906218
f 14 3 5
f 4 14 1
f 1 3 4
f 4 3 14
f 2 3 1
f 1 5 2
f 2 5 3
f 11 10 1
f 6 7 5
f 6 5 1
f 1 7 6
f 8 7 1
f 12 11 1
f 14 5 13
f 1 14 13
f 13 12 1
f 1 10 9
f 9 8 1
f 11 12 9
f 10 11 9
f 12 13 9
f 9 13 5
f 7 8 9
f 5 7 9

