# https://github.com/mikedh/trimesh
v 0.18993875 -0.00646790 0.60520885
v 0.19003580 -0.01611621 0.60547549
v 0.19011380 -0.00639620 0.60568982
v 0.19020046 -0.00634515 0.60592791
v 0.19086046 -0.01473769 0.60423266
v 0.19088992 -0.00649872 0.60431362
v 0.19116643 -0.01696756 0.60858189
v 0.19132810 -0.00634515 0.60551749
v 0.19177887 -0.01246574 0.61026455
v 0.19236959 -0.01442855 0.61188755
v 0.19247661 -0.01295982 0.61218158
v 0.19332570 -0.01472194 0.61100587
v 0.19339096 -0.01461818 0.61118517
v 0.19342661 -0.01454714 0.61128311
v 0.19345952 -0.01450370 0.61137352
v 0.19349722 -0.01442855 0.61147712
v 0.19360424 -0.01295982 0.61177115
f 1 5 2
f 2 5 7
f 6 5 1
f 7 5 12
f 4 11 17
f 4 6 1
f 8 4 17
f 6 4 8
f 1 2 3
f 3 4 1
f 16 10 7
f 11 10 16
f 17 11 16
f 9 3 2
f 9 10 11
f 15 16 7
f 7 12 13
f 13 15 7
f 14 12 5
f 4 3 9
f 11 4 9
f 7 10 9
f 9 2 7
f 14 8 17
f 6 8 14
f 5 6 14
f 15 13 14
f 14 13 12
f 16 15 14
f 17 16 14

