# https://github.com/mikedh/trimesh
v 0.18708513 0.01975085 0.59378694
v 0.18714337 0.01946473 0.59394696
v 0.18717410 0.01890466 0.59403139
v 0.18717507 0.01895229 0.59403406
v 0.19086561 0.01952975 0.60417373
v 0.19086922 0.01975085 0.60418363
v 0.19087003 0.01888092 0.60418586
v 0.19210146 0.01888883 0.60756920
v 0.19210735 0.01934495 0.60758539
v 0.19212726 0.01968708 0.60764008
v 0.19212726 0.01973825 0.60764008
v 0.18703814 0.01975085 0.59380404
v 0.18705753 0.01967411 0.59385731
v 0.18712712 0.01890466 0.59404849
v 0.19082223 0.01923703 0.60420073
v 0.19082223 0.01967411 0.60420073
v 0.19082223 0.01975085 0.60420073
v 0.19082304 0.01888092 0.60420296
v 0.19205448 0.01888883 0.60758630
v 0.19206217 0.01944994 0.60760744
v 0.19208027 0.01968708 0.60765718
v 0.19208027 0.01973825 0.60765718
f 12 1 3
f 12 3 14
f 12 14 13
f 15 14 18
f 16 15 20
f 19 21 20
f 11 9 5
f 5 2 1
f 7 14 3
f 18 14 7
f 18 7 19
f 19 7 8
f 16 17 13
f 13 17 12
f 12 17 6
f 6 1 12
f 6 17 22
f 22 11 6
f 15 13 14
f 16 13 15
f 21 11 22
f 10 11 21
f 21 19 8
f 21 8 10
f 4 7 3
f 8 7 4
f 1 2 4
f 4 3 1
f 10 8 9
f 9 11 10
f 20 15 18
f 18 19 20
f 20 21 22
f 22 17 20
f 20 17 16
f 5 4 2
f 8 4 5
f 5 9 8
f 1 6 5
f 5 6 11

