# https://github.com/mikedh/trimesh
v 0.18761228 0.02366025 0.61657645
v 0.19305750 0.02474921 0.61377754
v 0.19308478 0.02244414 0.61898775
v 0.19326185 0.02370528 0.61662475
v 0.19329941 0.02432213 0.61525129
v 0.19347951 0.02435818 0.61493702
v 0.19354690 0.01988964 0.61512217
v 0.19361959 0.02420817 0.61532189
v 0.19375710 0.02405043 0.61569970
v 0.19392241 0.02384606 0.61615388
v 0.19398820 0.02375853 0.61633463
v 0.19405398 0.02367100 0.61651537
v 0.19418325 0.02348746 0.61687051
v 0.19421216 0.01937536 0.61694996
v 0.19430639 0.02330120 0.61720885
v 0.19436713 0.02320354 0.61737574
v 0.19442788 0.02310588 0.61754264
v 0.19454748 0.02290171 0.61787124
v 0.19462706 0.01973704 0.61808990
v 0.19462981 0.01975085 0.61458888
v 0.19466460 0.02268966 0.61819301
v 0.19477922 0.02246982 0.61850795
v 0.19482568 0.02003415 0.61863558
v 0.19483542 0.02235575 0.61866236
v 0.19489162 0.02224168 0.61881676
v 0.19494676 0.02212328 0.61896826
v 0.19500190 0.02200487 0.61911976
v 0.19505593 0.02188216 0.61926820
v 0.19510996 0.02175946 0.61941665
v 0.19513191 0.02287542 0.61596838
v 0.19513714 0.02289374 0.61598275
v 0.19514262 0.02291142 0.61599780
v 0.19514568 0.02005477 0.61600622
v 0.19514833 0.02292846 0.61601349
v 0.19515427 0.02294482 0.61602981
v 0.19516043 0.02296048 0.61604673
v 0.19516283 0.02163251 0.61956191
v 0.19516679 0.02297541 0.61606422
v 0.19517335 0.02298958 0.61608225
v 0.19517373 0.02000597 0.61608327
v 0.19518010 0.02300299 0.61610080
v 0.19518703 0.02301559 0.61611983
v 0.19519413 0.02302739 0.61613932
v 0.19521571 0.02150556 0.61970717
v 0.19526737 0.02137445 0.61984913
v 0.19531904 0.02124334 0.61999109
v 0.19541989 0.02097296 0.62026817
f 1 2 20
f 1 47 3
f 1 14 19
f 7 14 1
f 1 20 7
f 7 20 14
f 40 43 47
f 14 20 40
f 40 19 14
f 30 20 2
f 46 3 47
f 47 43 46
f 23 40 47
f 19 40 23
f 23 47 1
f 1 19 23
f 6 43 2
f 41 39 2
f 38 36 2
f 2 39 38
f 39 41 38
f 33 40 20
f 31 34 30
f 31 30 2
f 2 36 35
f 35 34 2
f 8 9 43
f 43 6 8
f 13 15 43
f 43 12 13
f 43 9 10
f 17 18 43
f 3 18 17
f 2 43 42
f 42 41 2
f 2 34 32
f 32 31 2
f 34 31 32
f 5 8 6
f 5 2 1
f 5 6 2
f 9 8 5
f 5 10 9
f 43 29 37
f 37 44 43
f 37 29 3
f 3 44 37
f 3 46 45
f 45 44 3
f 28 29 43
f 43 27 28
f 3 29 28
f 28 27 3
f 26 25 3
f 3 27 26
f 43 15 16
f 16 17 43
f 43 18 21
f 21 22 43
f 21 18 3
f 3 22 21
f 3 25 24
f 24 22 3
f 24 25 43
f 43 22 24
f 11 5 12
f 10 5 11
f 11 12 43
f 43 10 11
f 12 5 4
f 4 13 12
f 1 3 4
f 4 5 1
f 3 15 4
f 15 13 4
f 30 34 33
f 20 30 33
f 33 38 41
f 34 38 33
f 35 38 34
f 36 38 35
f 42 33 41
f 43 40 42
f 40 33 42
f 43 44 45
f 45 46 43
f 26 27 43
f 43 25 26
f 3 17 16
f 16 15 3

