# https://github.com/mikedh/trimesh
v 0.16000000 0.01950000 0.59175000
v 0.16000000 0.01950000 0.59400000
v 0.16000000 0.02650000 0.59175000
v 0.16000000 0.02650000 0.59400000
v 0.16008671 0.02416667 0.59399677
v 0.16026013 0.01950000 0.59399030
v 0.16026013 0.02650000 0.59399030
v 0.16043260 0.02183333 0.59397097
v 0.16051883 0.01950000 0.59396130
v 0.16051883 0.02650000 0.59396130
v 0.16060411 0.02416667 0.59394527
v 0.16077466 0.01950000 0.59391321
v 0.16077466 0.02650000 0.59391321
v 0.16102620 0.01950000 0.59384619
v 0.16102620 0.02650000 0.59384619
v 0.16113867 0.02183333 0.58998621
v 0.16114490 0.01950000 0.59000049
v 0.16114490 0.02300000 0.59000049
v 0.16114913 0.01950000 0.59380341
v 0.16116359 0.02650000 0.59004333
v 0.16119011 0.02183333 0.59378914
v 0.16127206 0.01950000 0.59376062
v 0.16127206 0.02650000 0.59376062
v 0.16143128 0.02183333 0.59369161
v 0.16151089 0.01950000 0.59365710
v 0.16151089 0.02650000 0.59365710
v 0.16162613 0.01950000 0.59359659
v 0.16162613 0.02300000 0.59359659
v 0.16174136 0.01950000 0.59353607
v 0.16174136 0.02650000 0.59353607
v 0.16196220 0.01950000 0.59339825
v 0.16196220 0.02650000 0.59339825
v 0.16217220 0.01950000 0.59324438
v 0.16217220 0.02650000 0.59324438
v 0.16230417 0.02183333 0.59313167
v 0.16237016 0.01950000 0.59307532
v 0.16237016 0.02650000 0.59307532
v 0.16249339 0.02183333 0.59295312
v 0.16255501 0.01950000 0.59289203
v 0.16255501 0.02650000 0.59289203
v 0.16266883 0.02183333 0.59276105
v 0.16272574 0.01950000 0.59269556
v 0.16272574 0.02650000 0.59269556
v 0.16277762 0.02416667 0.59262600
v 0.16288138 0.01950000 0.59248688
v 0.16288138 0.02650000 0.59248688
v 0.16292795 0.02416667 0.59241366
v 0.16302109 0.01950000 0.59226721
v 0.16302109 0.02650000 0.59226721
v 0.16310308 0.02183333 0.59211426
v 0.16314407 0.01950000 0.59203778
v 0.16314407 0.02650000 0.59203778
v 0.16324968 0.01950000 0.59179987
v 0.16324968 0.02650000 0.59179987
v 0.16327888 0.02416667 0.59171816
v 0.16333730 0.01950000 0.59155475
v 0.16333730 0.02650000 0.59155475
v 0.16340646 0.01950000 0.59130377
v 0.16340646 0.02650000 0.59130377
v 0.16343162 0.01950000 0.59117606
v 0.16343162 0.02300000 0.59117606
v 0.16345677 0.01950000 0.59104834
v 0.16345677 0.02650000 0.59104834
v 0.16346564 0.01950000 0.59001074
v 0.16346564 0.02650000 0.59001074
v 0.16347237 0.01950000 0.59091913
v 0.16347237 0.02300000 0.59091913
v 0.16348798 0.01950000 0.59078992
v 0.16348798 0.02650000 0.59078992
v 0.16349242 0.01950000 0.59026965
v 0.16349242 0.02650000 0.59026965
v 0.16349591 0.02183333 0.59061654
v 0.16349988 0.01950000 0.59052985
v 0.16349988 0.02650000 0.59052985
f 1 3 16
f 1 16 17
f 64 17 16
f 16 65 64
f 3 20 18
f 18 16 3
f 18 20 65
f 18 65 16
f 5 4 2
f 2 6 5
f 35 33 36
f 35 36 37
f 22 25 24
f 24 23 22
f 23 24 26
f 22 23 21
f 15 21 23
f 4 5 7
f 7 5 6
f 45 46 44
f 44 42 45
f 44 43 42
f 46 43 44
f 34 35 37
f 19 21 14
f 22 21 19
f 37 36 38
f 42 43 41
f 37 38 40
f 40 41 43
f 48 51 50
f 50 49 48
f 45 48 47
f 47 49 46
f 47 46 45
f 48 49 47
f 72 68 73
f 72 69 68
f 73 74 72
f 72 74 69
f 30 26 28
f 12 13 11
f 11 9 12
f 6 9 8
f 8 7 6
f 39 38 36
f 42 41 39
f 49 50 52
f 52 50 51
f 53 56 55
f 55 57 54
f 55 54 53
f 56 57 55
f 10 11 13
f 7 8 10
f 9 11 10
f 10 8 9
f 69 63 67
f 61 63 59
f 1 2 4
f 4 3 1
f 31 32 29
f 29 32 30
f 26 24 25
f 12 14 15
f 15 13 12
f 14 21 15
f 31 33 34
f 34 32 31
f 33 35 34
f 71 70 64
f 71 64 65
f 73 70 71
f 71 74 73
f 58 59 57
f 57 56 58
f 28 29 30
f 28 27 29
f 28 26 25
f 25 27 28
f 39 40 38
f 41 40 39
f 52 51 53
f 53 54 52
f 60 2 1
f 1 17 60
f 73 68 60
f 60 56 53
f 60 70 73
f 60 27 25
f 17 64 60
f 60 6 2
f 60 25 22
f 36 33 60
f 64 70 60
f 68 66 60
f 22 19 60
f 53 51 60
f 60 9 6
f 60 33 31
f 31 29 60
f 60 14 12
f 45 42 60
f 60 48 45
f 12 9 60
f 60 51 48
f 58 56 60
f 29 27 60
f 60 19 14
f 60 39 36
f 42 39 60
f 60 66 62
f 3 4 10
f 10 20 3
f 4 7 10
f 65 20 10
f 54 57 10
f 32 34 10
f 13 15 10
f 10 71 65
f 23 26 10
f 10 43 46
f 37 40 10
f 30 32 10
f 10 26 30
f 10 15 23
f 10 63 69
f 46 49 10
f 69 74 10
f 10 52 54
f 10 34 37
f 10 40 43
f 74 71 10
f 10 57 59
f 49 52 10
f 59 63 10
f 67 66 68
f 68 69 67
f 62 66 67
f 67 63 62
f 61 59 58
f 58 60 61
f 61 60 62
f 62 63 61

