# https://github.com/mikedh/trimesh
v 0.10075000 -0.03373658 0.57979296
v 0.10075000 -0.03513326 0.57795624
v 0.10113525 -0.03682172 0.58016890
v 0.10157378 -0.03468140 0.57723448
v 0.10202679 -0.03447943 0.57689097
v 0.10233929 -0.03594488 0.57857035
v 0.10235589 -0.03464649 0.57700383
v 0.10243821 -0.03468250 0.57702590
v 0.10252121 -0.03471661 0.57704577
v 0.10260579 -0.03474916 0.57706364
v 0.10269182 -0.03478004 0.57707939
v 0.10277918 -0.03480915 0.57709295
v 0.10286771 -0.03483640 0.57710424
v 0.10295729 -0.03486171 0.57711321
v 0.10304777 -0.03488501 0.57711980
v 0.10312383 -0.03509524 0.58100638
v 0.10313901 -0.03490624 0.57712399
v 0.10323085 -0.03492535 0.57712576
v 0.10332314 -0.03494232 0.57712511
v 0.10333986 -0.03574681 0.57809189
v 0.10336026 -0.03494851 0.58070432
v 0.10609545 -0.03578709 0.57813178
f 1 22 5
f 1 3 16
f 16 3 22
f 2 3 1
f 22 3 20
f 21 22 1
f 1 16 21
f 21 16 22
f 1 5 4
f 4 2 1
f 5 2 4
f 19 5 22
f 22 20 19
f 3 2 6
f 6 20 3
f 2 20 6
f 7 2 5
f 5 19 7
f 2 7 8
f 8 7 19
f 18 8 19
f 18 19 20
f 9 10 2
f 2 8 9
f 8 18 9
f 13 14 2
f 2 12 13
f 13 12 14
f 14 12 11
f 2 10 11
f 11 12 2
f 10 9 17
f 17 9 18
f 17 20 2
f 17 18 20
f 15 11 10
f 10 17 15
f 14 11 15
f 2 14 15
f 15 17 2

