# https://github.com/mikedh/trimesh
v 0.10528661 0.02925000 0.58443575
v 0.10719456 0.02525000 0.58578988
v 0.10976837 0.02525000 0.58938501
v 0.11005038 0.02925000 0.59022329
v 0.11021053 0.02525000 0.59000231
v 0.11146786 0.02795272 0.58937365
v 0.11238773 0.02925000 0.58815350
v 0.11250947 0.02525000 0.58799762
v 0.11352724 0.02525000 0.58680164
v 0.11448160 0.02925000 0.58582715
v 0.11698019 0.02746178 0.58355396
f 1 11 2
f 10 11 1
f 5 4 1
f 9 2 11
f 11 8 9
f 6 8 11
f 6 5 8
f 4 5 6
f 1 2 3
f 3 5 1
f 4 6 7
f 11 10 7
f 7 6 11
f 8 5 3
f 2 9 3
f 3 9 8
f 7 10 1
f 1 4 7

