# https://github.com/mikedh/trimesh
v 0.18522801 -0.01203472 0.59226621
v 0.18525450 -0.01207094 0.59233898
v 0.18555410 -0.01286390 0.59316214
v 0.18569331 -0.00818639 0.59354462
v 0.18583287 -0.00849679 0.59392805
v 0.18614051 -0.00633742 0.59477328
v 0.18650606 -0.01229646 0.59226904
v 0.18666579 -0.01279223 0.59270792
v 0.18668174 -0.01286390 0.59275172
v 0.18679741 -0.01131891 0.59657809
v 0.18682094 -0.00818639 0.59313419
v 0.18695957 -0.01295982 0.59702363
v 0.18726814 -0.00633742 0.59436285
v 0.18751076 -0.00077362 0.59853802
v 0.18786558 -0.01114840 0.59600431
v 0.18808720 -0.01295982 0.59661321
v 0.18811566 -0.00638569 0.59669138
v 0.18822615 -0.00481889 0.60050354
v 0.18863839 -0.00077362 0.59812760
v 0.18876346 -0.00227702 0.59847122
v 0.18923572 -0.00634515 0.60327730
v 0.18986411 -0.00583205 0.60149522
v 0.19036335 -0.00634515 0.60286687
f 18 21 14
f 4 11 1
f 19 21 23
f 14 21 19
f 23 21 16
f 21 12 16
f 11 4 13
f 14 19 13
f 1 11 7
f 5 18 14
f 14 13 6
f 6 13 4
f 6 5 14
f 4 5 6
f 10 3 12
f 9 3 1
f 1 7 9
f 1 3 2
f 2 4 1
f 2 5 4
f 23 16 22
f 16 9 8
f 8 9 7
f 15 22 16
f 16 8 15
f 17 20 22
f 17 15 8
f 22 15 17
f 10 12 21
f 21 18 10
f 9 16 12
f 12 3 9
f 2 10 18
f 3 10 2
f 18 5 2
f 20 19 23
f 23 22 20
f 11 13 7
f 17 13 19
f 19 20 17
f 17 8 7
f 17 7 13

