# https://github.com/mikedh/trimesh
v 0.18465857 0.01200161 0.59070168
v 0.18491519 0.01185042 0.59140674
v 0.18535491 0.01224566 0.59261485
v 0.18560403 0.00000000 0.59329932
v 0.18568136 0.01215246 0.59000321
v 0.18569407 0.00002113 0.59003813
v 0.18569407 0.01213133 0.59003813
v 0.18570678 0.00000000 0.59007305
v 0.18610786 0.00623067 0.59468357
v 0.18623908 0.00953641 0.59504411
v 0.18643352 0.01215246 0.59206976
v 0.18648254 0.01224566 0.59220443
v 0.18655921 0.00407669 0.59592365
v 0.18656669 0.00786117 0.59594421
v 0.18662986 0.00472810 0.59611776
v 0.18666941 0.00815638 0.59622643
v 0.18673166 0.00000000 0.59288890
v 0.18690082 0.00605657 0.59686222
v 0.18726558 0.00927751 0.59435583
v 0.18736672 0.00953641 0.59463369
v 0.18768684 0.00407669 0.59551323
v 0.18769844 0.00423992 0.59554510
v 0.18779705 0.00815638 0.59581601
v 0.18811566 0.00638569 0.59669138
v 0.18820917 0.00670901 0.59694832
f 6 4 1
f 1 5 6
f 25 18 13
f 4 17 13
f 4 6 8
f 8 17 4
f 4 13 15
f 15 13 18
f 25 13 21
f 21 13 17
f 1 4 2
f 16 18 25
f 10 16 20
f 23 16 25
f 23 20 16
f 12 20 23
f 25 24 23
f 23 24 19
f 3 16 10
f 1 2 3
f 3 5 1
f 3 20 12
f 10 20 3
f 3 12 5
f 22 21 17
f 12 23 11
f 11 23 19
f 18 16 14
f 16 3 14
f 5 12 7
f 12 11 7
f 7 6 5
f 15 9 4
f 18 9 15
f 4 9 3
f 3 2 4
f 22 24 25
f 25 21 22
f 17 8 22
f 22 8 6
f 6 24 22
f 14 9 18
f 14 3 9
f 7 24 6
f 7 11 19
f 19 24 7

