# https://github.com/mikedh/trimesh
v -0.06812762 0.07986566 0.01200000
v -0.06800770 0.08381338 0.01200000
v -0.06698497 0.07981496 0.01400000
v -0.06686663 0.08371091 0.01400000
v -0.06650475 0.08775651 0.01400000
v -0.06619217 0.07969758 0.01200000
v -0.06571643 0.08739480 0.01200000
v -0.06507519 0.07964909 0.01400000
v -0.06498532 0.07963752 0.01650000
v -0.06486977 0.08335226 0.01650000
v -0.06460576 0.08724536 0.01400000
f 6 9 1
f 1 9 3
f 10 9 11
f 11 5 10
f 11 9 8
f 9 6 8
f 7 5 11
f 11 8 7
f 7 8 6
f 4 10 5
f 1 3 4
f 4 3 9
f 9 10 4
f 5 7 2
f 1 4 2
f 2 4 5
f 2 7 6
f 2 6 1

