# https://github.com/mikedh/trimesh
v 0.08645442 0.02884000 0.32189999
v 0.08645442 0.02884000 0.32389999
v 0.09000000 0.02784000 0.32189999
v 0.09000000 0.02784000 0.32389999
v 0.09000000 0.02984000 0.32289999
v 0.09000000 0.02984000 0.32389999
v 0.10522884 0.02984000 0.32189999
v 0.10522884 0.02984000 0.32389999
v 0.11232000 0.02784000 0.32189999
v 0.11232000 0.02784000 0.32389999
f 1 5 7
f 3 7 9
f 1 7 3
f 9 7 10
f 10 7 8
f 1 2 6
f 6 5 1
f 8 7 6
f 6 7 5
f 4 10 8
f 8 6 4
f 4 6 2
f 1 3 4
f 4 2 1
f 4 3 9
f 9 10 4

