# https://github.com/mikedh/trimesh
v 0.22292197 -0.00390000 0.55170001
v 0.22680000 -0.00500000 0.54970001
v 0.22680000 -0.00500000 0.55170001
v 0.22680336 -0.00491032 0.54970001
v 0.22681340 -0.00482115 0.54970001
v 0.22683009 -0.00473298 0.54970001
v 0.22685332 -0.00464629 0.54970001
v 0.22688295 -0.00456159 0.54970001
v 0.22689491 0.00149311 0.55170001
v 0.22691884 -0.00447934 0.54970001
v 0.22696077 -0.00440000 0.54970001
v 0.22700851 -0.00432402 0.54970001
v 0.22706180 -0.00425181 0.54970001
v 0.22712033 -0.00418379 0.54970001
v 0.22718379 -0.00412034 0.54970001
v 0.22725182 -0.00406180 0.54970001
v 0.22732402 -0.00400851 0.54970001
v 0.22739999 -0.00396077 0.54970001
v 0.22747934 -0.00391884 0.54970001
v 0.22756158 -0.00388295 0.54970001
v 0.22764630 -0.00385331 0.54970001
v 0.22773297 -0.00383009 0.54970001
v 0.22782115 -0.00381340 0.54970001
v 0.22791032 -0.00380336 0.54970001
v 0.22800000 -0.00380000 0.54970001
v 0.22808968 -0.00380336 0.54970001
v 0.22817885 -0.00381340 0.54970001
v 0.22826703 -0.00383009 0.54970001
v 0.22835370 -0.00385331 0.54970001
v 0.22843842 -0.00388295 0.54970001
v 0.22852066 -0.00391884 0.54970001
v 0.22860001 -0.00396077 0.54970001
v 0.22867598 -0.00400851 0.54970001
v 0.22874818 -0.00406180 0.54970001
v 0.22881621 -0.00412034 0.54970001
v 0.22887967 -0.00418379 0.54970001
v 0.22893820 -0.00425181 0.54970001
v 0.22897372 0.00141727 0.55170001
v 0.22899149 -0.00432402 0.54970001
v 0.22903923 -0.00440000 0.54970001
v 0.22908116 -0.00447934 0.54970001
v 0.22911705 -0.00456159 0.54970001
v 0.22914668 -0.00464629 0.54970001
v 0.22916991 -0.00473298 0.54970001
v 0.22918660 -0.00482115 0.54970001
v 0.22919664 -0.00491032 0.54970001
v 0.22920000 -0.00500000 0.54970001
v 0.22920000 -0.00500000 0.55170001
f 1 9 12
f 38 48 47
f 1 2 3
f 9 38 25
f 4 2 1
f 1 5 4
f 1 7 6
f 6 5 1
f 1 12 11
f 11 10 1
f 8 7 1
f 1 10 8
f 38 43 42
f 46 38 47
f 46 45 38
f 44 43 38
f 38 45 44
f 41 40 38
f 38 42 41
f 9 15 14
f 16 15 9
f 9 25 24
f 37 36 38
f 26 25 38
f 13 12 9
f 9 14 13
f 9 18 17
f 17 16 9
f 23 22 9
f 9 24 23
f 19 18 9
f 9 20 19
f 9 22 21
f 21 20 9
f 38 40 39
f 39 37 38
f 33 32 38
f 38 34 33
f 38 36 35
f 35 34 38
f 38 28 27
f 27 26 38
f 38 32 31
f 31 30 38
f 29 28 38
f 38 30 29
f 3 38 9
f 3 9 1
f 48 38 3
f 3 2 47
f 47 48 3
f 47 2 29
f 7 8 29
f 12 13 29
f 29 6 7
f 43 44 29
f 2 4 29
f 29 11 12
f 29 39 40
f 40 41 29
f 22 23 29
f 29 4 5
f 5 6 29
f 10 11 29
f 29 8 10
f 29 46 47
f 29 42 43
f 29 27 28
f 29 24 25
f 29 21 22
f 25 26 29
f 45 46 29
f 29 44 45
f 29 41 42
f 29 14 15
f 15 16 29
f 29 17 18
f 18 19 29
f 36 37 29
f 32 33 29
f 29 35 36
f 29 31 32
f 29 13 14
f 16 17 29
f 29 23 24
f 29 19 20
f 20 21 29
f 37 39 29
f 29 33 34
f 34 35 29
f 26 27 29
f 30 31 29

