# https://github.com/mikedh/trimesh
v 0.18207512 0.02210429 0.54517809
v 0.18646687 0.02321354 0.54839860
v 0.19020301 0.02322141 0.54828591
v 0.19032738 0.02338231 0.54630501
v 0.19052862 0.02332490 0.54802937
v 0.19091440 0.02336915 0.54784726
v 0.19109220 0.01863515 0.54498427
v 0.19120147 0.02331250 0.54800189
v 0.19252908 0.02267625 0.54588302
v 0.19301738 0.02293290 0.54612615
v 0.19307202 0.02313718 0.54815157
v 0.19541891 0.02304339 0.54789294
v 0.19568404 0.02247021 0.54858809
v 0.19571050 0.02302869 0.54648789
v 0.19858157 0.02256669 0.54624715
v 0.20610037 0.01973106 0.55000075
f 1 7 2
f 2 7 16
f 16 3 2
f 2 4 1
f 16 7 15
f 1 4 9
f 9 7 1
f 9 15 7
f 13 3 16
f 16 15 12
f 12 13 16
f 4 15 10
f 10 9 4
f 15 9 10
f 4 2 6
f 14 15 4
f 14 12 15
f 4 6 14
f 14 6 12
f 3 13 11
f 13 12 11
f 5 2 3
f 5 6 2
f 12 6 8
f 8 11 12
f 6 5 8
f 3 11 8
f 8 5 3

