# https://github.com/mikedh/trimesh
v 0.21863803 0.00499330 0.54505011
v 0.21864275 0.00499749 0.54578333
v 0.21864592 0.00500024 0.54468417
v 0.21946115 0.01000494 0.54516246
v 0.21947026 0.00998930 0.54480005
v 0.21947049 0.00998890 0.54588812
v 0.21947916 0.00997352 0.54443750
v 0.21950586 0.00992567 0.54443803
v 0.21953192 0.00987747 0.54443850
v 0.21955731 0.00982891 0.54443892
v 0.21958203 0.00978001 0.54443933
v 0.21960607 0.00973077 0.54443972
v 0.21962945 0.00968121 0.54444006
v 0.21965000 0.00636388 0.54439001
v 0.21965214 0.00963133 0.54444035
v 0.21967205 0.00641398 0.54439189
v 0.21967414 0.00958115 0.54444059
v 0.21969342 0.00646438 0.54439370
v 0.21969545 0.00953067 0.54444082
v 0.21971409 0.00651507 0.54439547
v 0.21971607 0.00947991 0.54444098
v 0.21973405 0.00656604 0.54439722
v 0.21973600 0.00942886 0.54444112
v 0.21975333 0.00661728 0.54439893
v 0.21975522 0.00937755 0.54444124
v 0.21977191 0.00666878 0.54440063
v 0.21977374 0.00932598 0.54444132
v 0.21978977 0.00672053 0.54440230
v 0.21979155 0.00927416 0.54444137
v 0.21980693 0.00677252 0.54440391
v 0.21980865 0.00922210 0.54444135
v 0.21982337 0.00682474 0.54440550
v 0.21982504 0.00916981 0.54444130
v 0.21983910 0.00687719 0.54440706
v 0.21984070 0.00911730 0.54444122
v 0.21985411 0.00692985 0.54440857
v 0.21985564 0.00906458 0.54444114
v 0.21986840 0.00698270 0.54441007
v 0.21986987 0.00901166 0.54444098
v 0.21988196 0.00703576 0.54441152
v 0.21988337 0.00895856 0.54444080
v 0.21989481 0.00708899 0.54441294
v 0.21989613 0.00890527 0.54444059
v 0.21990691 0.00714240 0.54441433
v 0.21990817 0.00885181 0.54444033
v 0.21991828 0.00719597 0.54441569
v 0.21991947 0.00879820 0.54444004
v 0.21992892 0.00724969 0.54441701
v 0.21993003 0.00874443 0.54443972
v 0.21993883 0.00730355 0.54441831
v 0.21993987 0.00869053 0.54443935
v 0.21994799 0.00735754 0.54441956
v 0.21994895 0.00863649 0.54443894
v 0.21995642 0.00741166 0.54442076
v 0.21995730 0.00858234 0.54443852
v 0.21996411 0.00746589 0.54442194
v 0.21996490 0.00852807 0.54443805
v 0.21997104 0.00752022 0.54442312
v 0.21997177 0.00847371 0.54443754
v 0.21997725 0.00757464 0.54442421
v 0.21997788 0.00841926 0.54443701
v 0.21998270 0.00762915 0.54442529
v 0.21998326 0.00836474 0.54443642
v 0.21998741 0.00768372 0.54442635
v 0.21998787 0.00831014 0.54443581
v 0.21999136 0.00773835 0.54442737
v 0.21999175 0.00825549 0.54443518
v 0.21999457 0.00779304 0.54442834
v 0.21999488 0.00820079 0.54443451
v 0.21999703 0.00784776 0.54442928
v 0.21999788 0.00812781 0.54443361
v 0.21999874 0.00790252 0.54443018
v 0.21999925 0.00807304 0.54443284
v 0.21999962 0.00794770 0.54443089
v 0.21999987 0.00801826 0.54443205
v 0.21999994 0.00798731 0.54443152
v 0.22035582 0.00439900 0.54589565
v 0.22037984 0.00442642 0.54589728
v 0.22040347 0.00445417 0.54589891
v 0.22040681 0.01052092 0.54597083
v 0.22042231 0.01048785 0.54597121
v 0.22042673 0.00448224 0.54590051
v 0.22043735 0.01045458 0.54597156
v 0.22044960 0.00451063 0.54590208
v 0.22045193 0.01042110 0.54597188
v 0.22046605 0.01038742 0.54597219
v 0.22047209 0.00453933 0.54590363
v 0.22047972 0.01035356 0.54597247
v 0.22049291 0.01031951 0.54597274
v 0.22049418 0.00456834 0.54590515
v 0.22084123 0.00502669 0.54593011
v 0.22091986 0.00516622 0.54593595
v 0.22093736 0.00519823 0.54593726
f 3 7 14
f 80 2 77
f 77 2 1
f 1 3 77
f 77 3 14
f 6 2 80
f 80 77 91
f 4 3 1
f 7 3 4
f 1 2 4
f 2 6 4
f 4 6 80
f 93 63 89
f 14 7 10
f 93 80 92
f 80 91 92
f 92 14 93
f 92 91 14
f 80 7 5
f 5 4 80
f 7 4 5
f 80 10 9
f 9 10 7
f 14 63 65
f 65 74 14
f 65 63 93
f 14 74 56
f 14 91 90
f 90 87 14
f 91 87 90
f 61 89 63
f 83 85 17
f 89 85 83
f 29 27 89
f 21 23 10
f 27 29 31
f 31 89 33
f 31 29 89
f 8 7 80
f 80 9 8
f 8 9 7
f 93 32 34
f 14 44 24
f 93 22 24
f 24 26 93
f 42 44 93
f 93 75 73
f 73 71 93
f 54 44 14
f 14 56 54
f 54 48 44
f 52 48 54
f 93 52 54
f 54 56 93
f 79 91 77
f 79 82 91
f 14 82 79
f 84 87 91
f 91 82 84
f 14 87 84
f 84 82 14
f 89 47 45
f 59 63 14
f 59 61 63
f 89 61 59
f 49 47 89
f 15 83 17
f 17 21 11
f 11 21 10
f 11 15 17
f 12 15 11
f 11 10 80
f 80 12 11
f 17 85 19
f 19 21 17
f 86 19 85
f 21 19 86
f 89 23 88
f 23 21 88
f 21 86 88
f 88 85 89
f 88 86 85
f 27 31 25
f 25 31 23
f 89 27 25
f 25 23 89
f 93 14 16
f 16 18 93
f 14 18 16
f 20 18 14
f 14 24 20
f 20 24 22
f 20 22 93
f 93 18 20
f 93 26 28
f 32 24 36
f 36 24 44
f 36 34 32
f 36 38 93
f 93 34 36
f 30 24 32
f 26 24 30
f 30 28 26
f 30 32 93
f 93 28 30
f 50 52 93
f 93 48 50
f 50 48 52
f 93 44 46
f 46 48 93
f 44 48 46
f 76 73 75
f 76 75 93
f 93 74 76
f 93 56 58
f 62 56 74
f 62 68 64
f 62 64 93
f 78 77 14
f 14 79 78
f 78 79 77
f 33 89 35
f 89 37 35
f 35 41 14
f 14 10 35
f 10 23 35
f 35 31 33
f 23 31 35
f 89 41 39
f 39 37 89
f 41 35 39
f 39 35 37
f 43 41 89
f 89 45 43
f 43 45 41
f 51 49 89
f 51 45 47
f 47 49 51
f 57 55 89
f 89 59 57
f 13 12 80
f 13 15 12
f 44 42 40
f 40 36 44
f 38 36 40
f 93 38 40
f 40 42 93
f 71 73 69
f 73 76 69
f 93 71 69
f 74 65 69
f 69 76 74
f 93 64 66
f 66 68 93
f 64 68 66
f 72 62 74
f 72 74 93
f 60 58 56
f 56 62 60
f 93 58 60
f 60 62 93
f 53 59 14
f 45 51 53
f 89 55 53
f 53 51 89
f 55 57 53
f 53 57 59
f 14 41 53
f 41 45 53
f 83 15 81
f 15 13 81
f 81 13 80
f 89 83 81
f 81 80 93
f 93 89 81
f 67 65 93
f 93 69 67
f 67 69 65
f 68 62 70
f 62 72 70
f 93 68 70
f 70 72 93

