# https://github.com/mikedh/trimesh
v 0.24450000 -0.00285791 0.54623749
v 0.24450000 -0.00234076 0.54623511
v 0.24450000 -0.00158299 0.54623334
v 0.24450000 -0.00127698 0.54623303
v 0.24450000 -0.00101107 0.54623285
v 0.24450000 -0.00084849 0.54623279
v 0.24450000 -0.00041848 0.54623273
v 0.24450000 -0.00017727 0.54623273
v 0.24450010 -0.00256383 0.54623598
v 0.24450018 -0.00187393 0.54623386
v 0.24450215 -0.00333347 0.54624106
v 0.24591667 -0.00001043 0.54650942
v 0.24688938 -0.00451067 0.54670465
v 0.24875000 -0.00238893 0.54706680
v 0.24875000 -0.00235380 0.54706659
v 0.24875000 -0.00211000 0.54706537
v 0.24875000 -0.00201611 0.54706500
v 0.24875000 -0.00192222 0.54706464
v 0.24875000 -0.00103447 0.54706293
v 0.24875000 -0.00081255 0.54706281
v 0.24875000 -0.00067688 0.54706274
v 0.24875000 0.00008341 0.54706274
v 0.24875000 -0.00021787 0.54706274
v 0.24875225 -0.00145341 0.54706386
v 0.24946279 -0.00228450 0.54721849
v 0.24981918 -0.00198419 0.54729306
v 0.24981918 -0.00190051 0.54729272
v 0.24981918 -0.00062901 0.54729059
v 0.25017558 -0.00188646 0.54736873
v 0.25017558 -0.00056034 0.54736654
v 0.25088837 -0.00008192 0.54751843
v 0.25088934 -0.00191364 0.54752122
v 0.25089131 -0.00124025 0.54751944
v 0.25346397 -0.00334650 0.54811633
f 1 13 11
f 11 13 34
f 11 8 1
f 34 8 11
f 34 13 32
f 31 8 34
f 22 8 12
f 12 31 22
f 8 31 12
f 34 32 33
f 33 31 34
f 9 13 1
f 13 10 3
f 25 32 13
f 13 14 25
f 2 9 1
f 2 3 10
f 2 10 13
f 13 9 2
f 13 17 16
f 29 33 32
f 31 33 30
f 33 28 30
f 23 8 22
f 22 31 23
f 28 21 23
f 31 30 23
f 23 30 28
f 13 3 24
f 15 14 13
f 13 16 15
f 15 16 32
f 32 25 15
f 15 25 14
f 32 16 26
f 26 29 32
f 21 5 6
f 18 17 13
f 13 24 18
f 18 24 33
f 33 29 27
f 27 18 33
f 17 18 27
f 27 26 16
f 29 26 27
f 27 16 17
f 21 6 7
f 8 23 7
f 7 23 21
f 19 24 3
f 3 4 19
f 19 4 5
f 33 24 19
f 19 28 33
f 20 19 5
f 20 5 21
f 20 21 28
f 28 19 20
f 4 2 1
f 1 8 4
f 3 2 4
f 8 7 4
f 4 6 5
f 4 7 6

