# https://github.com/mikedh/trimesh
v 0.18500000 -0.00935000 0.54970001
v 0.18500000 -0.00935000 0.55006363
v 0.18500000 -0.00665000 0.54970001
v 0.18500000 -0.00665000 0.55006363
v 0.18503363 -0.00934874 0.55018483
v 0.18506726 -0.00665252 0.55018483
v 0.18506726 -0.00221667 0.54970001
v 0.18513433 -0.00934246 0.55018483
v 0.18516777 -0.00666131 0.55018483
v 0.18523427 -0.00932867 0.55018483
v 0.18526733 -0.00667759 0.55018483
v 0.18526733 -0.00222169 0.54970001
v 0.18533291 -0.00930744 0.55018483
v 0.18536541 -0.00670127 0.55018483
v 0.18536541 -0.00222795 0.54970001
v 0.18542968 -0.00927891 0.55018483
v 0.18546145 -0.00673221 0.55018483
v 0.18546145 -0.00223666 0.54970001
v 0.18552405 -0.00924322 0.55018483
v 0.18555490 -0.00677023 0.55018483
v 0.18555490 -0.00224777 0.54970001
v 0.18561549 -0.00920058 0.55018483
v 0.18561549 -0.00227696 0.54970001
v 0.18564525 -0.00681514 0.55018483
v 0.18570350 -0.00915123 0.55018483
v 0.18573199 -0.00686667 0.55018483
v 0.18581463 -0.00907546 0.55018483
v 0.18581463 -0.00692454 0.55018483
v 0.18589272 -0.00901157 0.55018483
v 0.18589272 -0.00698843 0.55018483
v 0.18596583 -0.00894203 0.55018483
v 0.18596583 -0.00705797 0.55018483
v 0.18601157 -0.00889273 0.55018483
v 0.18603352 -0.00713278 0.55018483
v 0.18607545 -0.00881463 0.55018483
v 0.18609543 -0.00721244 0.55018483
v 0.18613332 -0.00873199 0.55018483
v 0.18615122 -0.00729651 0.55018483
v 0.18618486 -0.00864525 0.55018483
v 0.18618486 -0.00735475 0.55018483
v 0.18622977 -0.00855490 0.55018483
v 0.18622977 -0.00744510 0.55018483
v 0.18626780 -0.00846145 0.55018483
v 0.18626780 -0.00753855 0.55018483
v 0.18629873 -0.00763459 0.55018483
v 0.18630744 -0.00833291 0.55018483
v 0.18632240 -0.00773266 0.55018483
v 0.18632866 -0.00823427 0.55018483
v 0.18633868 -0.00783223 0.55018483
v 0.18634245 -0.00813433 0.55018483
v 0.18634748 -0.00806726 0.55018483
v 0.18634874 -0.00796637 0.55018483
v 0.19125294 -0.00557793 0.54970001
v 0.19129568 -0.00560479 0.54970001
v 0.19529704 -0.01018223 0.54970001
v 0.19535965 -0.01015766 0.54970001
f 1 55 2
f 2 55 5
f 5 4 2
f 3 4 7
f 7 4 6
f 6 4 5
f 19 55 56
f 24 53 23
f 7 6 12
f 56 27 25
f 56 54 34
f 34 36 56
f 20 24 23
f 54 53 26
f 53 24 26
f 28 54 26
f 15 12 6
f 18 15 9
f 9 15 6
f 56 43 41
f 41 39 56
f 37 35 56
f 56 39 37
f 29 27 56
f 56 31 29
f 56 35 33
f 33 31 56
f 22 19 56
f 56 25 22
f 5 55 8
f 55 19 16
f 16 13 55
f 44 45 56
f 56 42 44
f 56 36 38
f 32 34 54
f 46 43 56
f 56 48 46
f 56 51 50
f 50 48 56
f 56 45 47
f 47 49 56
f 52 51 56
f 56 49 52
f 21 9 11
f 18 9 21
f 11 14 21
f 21 14 17
f 17 20 21
f 21 20 23
f 55 13 10
f 10 8 55
f 40 42 56
f 56 38 40
f 30 54 28
f 30 32 54
f 1 2 3
f 3 2 4
f 21 55 1
f 21 54 56
f 56 55 21
f 1 3 21
f 21 3 7
f 21 53 54
f 23 53 21
f 21 15 18
f 7 12 21
f 12 15 21
f 28 26 30
f 30 6 5
f 30 25 27
f 30 38 36
f 30 16 19
f 30 20 17
f 17 14 30
f 35 37 30
f 19 22 30
f 42 40 30
f 30 50 51
f 30 9 6
f 30 41 43
f 27 29 30
f 30 33 35
f 5 8 30
f 45 44 30
f 36 34 30
f 43 46 30
f 30 47 45
f 24 20 30
f 30 26 24
f 11 9 30
f 30 14 11
f 39 41 30
f 30 37 39
f 30 29 31
f 31 33 30
f 30 22 25
f 51 52 30
f 13 16 30
f 30 44 42
f 30 10 13
f 34 32 30
f 30 46 48
f 48 50 30
f 49 47 30
f 30 52 49
f 8 10 30
f 30 40 38

