# https://github.com/mikedh/trimesh
v 0.17249734 -0.01217720 0.54394843
v 0.17669631 -0.01249181 0.54197422
v 0.17687734 -0.00938283 0.54410403
v 0.17749036 -0.01016824 0.54194722
v 0.17916523 -0.00852305 0.54419554
v 0.17916628 -0.01347742 0.54211385
v 0.18000000 -0.01350843 0.54214990
v 0.18000000 -0.01348600 0.54214905
v 0.18000000 -0.01346357 0.54214819
v 0.18000000 -0.01131150 0.54207953
v 0.18000000 -0.01086433 0.54206879
v 0.18000000 -0.01041125 0.54205908
v 0.18000000 -0.00989918 0.54204932
v 0.18004829 -0.01381935 0.54216437
v 0.18045602 -0.01956801 0.54467470
v 0.18065492 -0.01179344 0.54212301
v 0.18110422 -0.00890713 0.54427045
f 17 15 16
f 5 15 17
f 2 15 1
f 1 4 2
f 17 16 13
f 13 5 17
f 4 5 13
f 3 4 1
f 3 5 4
f 1 15 3
f 15 5 3
f 14 16 15
f 9 2 16
f 16 14 9
f 12 13 16
f 16 11 12
f 4 13 12
f 12 11 4
f 16 2 10
f 10 11 16
f 10 2 4
f 4 11 10
f 2 9 6
f 15 2 6
f 6 14 15
f 14 6 7
f 8 6 9
f 8 7 6
f 8 9 14
f 14 7 8

