# https://github.com/mikedh/trimesh
v 0.20780143 -0.01301582 0.54314721
v 0.20809976 -0.01076888 0.54308205
v 0.20858435 -0.01440156 0.54325675
v 0.21033837 -0.01228751 0.54324825
v 0.21150755 -0.01443747 0.54341766
v 0.21150755 -0.01310247 0.54334363
v 0.21150755 -0.01271615 0.54332617
v 0.21150755 -0.01220783 0.54330536
v 0.21150755 -0.01216744 0.54330377
v 0.21150755 -0.01022965 0.54324310
v 0.21150755 -0.01002833 0.54323837
v 0.21150755 -0.00982700 0.54323364
v 0.21174575 -0.00952018 0.54323989
v 0.21196776 -0.01001491 0.54326279
v 0.21199841 -0.01007330 0.54326581
v 0.21201989 -0.01011164 0.54326788
v 0.21204221 -0.01014949 0.54327002
v 0.21207721 -0.01020530 0.54327332
v 0.21208929 -0.01022364 0.54327444
v 0.21226383 -0.01141791 0.54332053
v 0.21232378 -0.01148198 0.54332574
v 0.21248926 -0.00991694 0.54328851
v 0.21253223 -0.00999362 0.54329266
v 0.21253624 -0.01000060 0.54547363
v 0.21256392 -0.01004778 0.54547589
v 0.21257686 -0.01006932 0.54329694
v 0.21259224 -0.01009456 0.54547827
v 0.21262120 -0.01014096 0.54548065
v 0.21264687 -0.01018095 0.54330353
v 0.21265079 -0.01018695 0.54548303
v 0.21267102 -0.01021762 0.54330579
v 0.21268098 -0.01023253 0.54548553
v 0.21271182 -0.01027769 0.54548804
v 0.21272049 -0.01029016 0.54331036
v 0.21274326 -0.01032242 0.54549054
v 0.21277155 -0.01036159 0.54331506
v 0.21277530 -0.01036672 0.54549310
v 0.21280795 -0.01041057 0.54549573
v 0.21282416 -0.01043188 0.54331982
v 0.21284119 -0.01045396 0.54549835
v 0.21287502 -0.01049690 0.54550104
v 0.21287830 -0.01050099 0.54332471
v 0.21290944 -0.01053937 0.54550378
v 0.21294441 -0.01058136 0.54550653
v 0.21297997 -0.01062287 0.54550928
v 0.21299103 -0.01063554 0.54333472
v 0.21300557 -0.01065196 0.54333600
v 0.21301608 -0.01066388 0.54551208
v 0.21302011 -0.01066839 0.54333728
v 0.21305276 -0.01070440 0.54551495
v 0.21307936 -0.01073311 0.54334247
v 0.21308998 -0.01074441 0.54551782
v 0.21312773 -0.01078390 0.54552075
v 0.21314001 -0.01079652 0.54334772
v 0.21316603 -0.01082287 0.54552368
v 0.21320485 -0.01086132 0.54552661
v 0.21324419 -0.01089923 0.54552960
v 0.21326540 -0.01091924 0.54335846
v 0.21328404 -0.01093659 0.54553265
v 0.21332440 -0.01097341 0.54553571
v 0.21336288 -0.01100760 0.54336670
v 0.21336525 -0.01100967 0.54553876
v 0.21340659 -0.01104536 0.54554187
v 0.21344841 -0.01108049 0.54554498
v 0.21349071 -0.01111504 0.54554810
v 0.21353162 -0.01114756 0.54338074
v 0.21353348 -0.01114901 0.54555127
v 0.21357669 -0.01118239 0.54555450
v 0.21362036 -0.01121517 0.54555768
v 0.21366447 -0.01124736 0.54556097
v 0.21367195 -0.01125272 0.54339221
v 0.21367899 -0.01793860 0.54386985
v 0.21370901 -0.01127894 0.54556421
v 0.21375400 -0.01130990 0.54556750
v 0.21378014 -0.01132749 0.54340094
v 0.21379938 -0.01134025 0.54557080
v 0.21381673 -0.01135162 0.54340387
v 0.21384517 -0.01136997 0.54557410
v 0.21389137 -0.01139907 0.54557745
v 0.21392807 -0.01142157 0.54341272
v 0.21393796 -0.01142753 0.54558081
v 0.21398492 -0.01145535 0.54558417
v 0.21403226 -0.01148253 0.54558759
v 0.21407997 -0.01150906 0.54559094
v 0.21407999 -0.01150907 0.54342462
v 0.21411856 -0.01152990 0.54342761
v 0.21412804 -0.01153493 0.54559436
v 0.21417644 -0.01156014 0.54559778
v 0.21422519 -0.01158470 0.54560126
v 0.21427426 -0.01160858 0.54560468
v 0.21427502 -0.01160894 0.54343964
v 0.21432367 -0.01163179 0.54560815
v 0.21435451 -0.01164587 0.54344568
v 0.21437337 -0.01165432 0.54561163
v 0.21442339 -0.01167618 0.54561511
v 0.21443478 -0.01168104 0.54345172
v 0.21447368 -0.01169734 0.54561859
v 0.21451581 -0.01171445 0.54345776
v 0.21452426 -0.01171782 0.54562213
v 0.21457513 -0.01173761 0.54562561
v 0.21459753 -0.01174608 0.54346381
v 0.21462625 -0.01175670 0.54562915
v 0.21467763 -0.01177510 0.54563263
v 0.21467995 -0.01177591 0.54346985
v 0.21472926 -0.01179278 0.54563617
v 0.21478113 -0.01180977 0.54563965
v 0.21479877 -0.01204140 0.54348788
v 0.21480475 -0.01181725 0.54347888
v 0.21483321 -0.01182604 0.54564319
v 0.21488551 -0.01184160 0.54564673
v 0.21493085 -0.01185447 0.54348792
v 0.21493802 -0.01185645 0.54565027
v 0.21496542 -0.01209560 0.54349994
v 0.21496800 -0.01201905 0.54349693
v 0.21497314 -0.01186595 0.54349091
v 0.21499074 -0.01187058 0.54565375
v 0.21499435 -0.01187146 0.54349240
v 0.21500000 -0.01400881 0.54360150
v 0.21500000 -0.01336041 0.54356528
v 0.21500000 -0.01271200 0.54352905
v 0.21500000 -0.01233673 0.54351196
v 0.21500315 -0.01187377 0.54457382
f 122 116 118
f 118 116 72
f 121 117 122
f 122 117 22
f 22 116 122
f 72 3 5
f 5 118 72
f 120 121 122
f 2 13 12
f 13 22 12
f 24 22 13
f 24 13 2
f 116 22 24
f 24 2 1
f 1 3 24
f 4 7 1
f 1 2 4
f 2 9 4
f 6 5 3
f 6 3 1
f 1 7 6
f 6 120 5
f 7 121 6
f 121 120 6
f 118 5 119
f 5 120 119
f 107 121 7
f 25 24 3
f 62 3 72
f 7 4 8
f 8 4 9
f 23 22 117
f 10 9 2
f 113 114 121
f 67 65 72
f 63 62 72
f 26 23 117
f 2 12 11
f 11 10 2
f 91 86 117
f 91 8 9
f 9 86 91
f 117 71 66
f 66 71 9
f 72 116 112
f 116 24 112
f 24 102 105
f 105 112 24
f 72 102 100
f 99 102 24
f 99 100 102
f 99 97 72
f 72 100 99
f 72 76 74
f 89 99 24
f 83 82 72
f 87 89 83
f 83 89 24
f 24 70 83
f 70 74 83
f 83 74 76
f 76 79 83
f 72 70 69
f 70 63 68
f 68 69 70
f 65 67 68
f 68 67 72
f 72 69 68
f 43 33 38
f 24 33 43
f 23 26 17
f 9 10 20
f 10 11 14
f 14 12 22
f 14 11 12
f 108 91 117
f 98 91 108
f 108 113 121
f 96 91 98
f 7 8 96
f 96 98 7
f 80 77 117
f 9 77 80
f 75 71 117
f 117 77 75
f 9 71 75
f 75 77 9
f 110 109 72
f 72 112 110
f 110 105 109
f 112 105 110
f 103 102 72
f 72 105 103
f 103 105 102
f 72 109 106
f 106 105 72
f 109 105 106
f 94 92 72
f 94 89 92
f 99 89 94
f 73 70 72
f 72 74 73
f 73 74 70
f 72 82 81
f 81 79 72
f 82 83 81
f 81 83 79
f 78 76 72
f 72 79 78
f 78 79 76
f 72 92 90
f 90 89 72
f 92 89 90
f 88 87 72
f 72 89 88
f 88 89 87
f 72 87 84
f 84 83 72
f 87 83 84
f 65 68 64
f 64 68 63
f 72 65 64
f 64 63 72
f 32 30 3
f 3 33 32
f 3 38 37
f 38 33 37
f 3 45 44
f 44 43 3
f 24 43 44
f 3 43 41
f 41 43 38
f 3 62 60
f 60 59 3
f 62 63 60
f 60 70 24
f 60 63 70
f 55 59 60
f 3 59 57
f 57 59 55
f 48 45 3
f 3 50 48
f 48 44 45
f 50 44 48
f 3 55 53
f 53 44 50
f 24 44 53
f 53 60 24
f 55 60 53
f 23 17 16
f 16 17 10
f 21 58 9
f 117 39 34
f 42 46 10
f 10 39 42
f 117 46 42
f 42 39 117
f 15 14 22
f 10 14 15
f 15 16 10
f 114 113 111
f 113 108 111
f 8 91 93
f 93 96 8
f 91 96 93
f 108 104 101
f 98 108 101
f 101 104 107
f 101 107 7
f 7 98 101
f 61 66 9
f 9 58 61
f 117 66 61
f 61 58 117
f 117 58 54
f 58 21 54
f 117 86 85
f 85 80 117
f 85 86 9
f 9 80 85
f 97 99 95
f 99 94 95
f 72 97 95
f 95 94 72
f 27 33 24
f 27 32 33
f 24 25 27
f 27 25 3
f 35 33 3
f 3 37 35
f 35 37 33
f 40 38 3
f 3 41 40
f 40 41 38
f 56 55 3
f 3 57 56
f 56 57 55
f 52 50 3
f 3 53 52
f 52 53 50
f 117 34 29
f 29 26 117
f 36 39 10
f 10 34 36
f 36 34 39
f 115 108 117
f 115 111 108
f 114 111 115
f 117 121 115
f 121 114 115
f 117 54 49
f 49 20 10
f 30 32 28
f 32 27 28
f 3 30 28
f 28 27 3
f 31 29 34
f 47 46 117
f 117 49 47
f 10 46 47
f 47 49 10
f 51 49 54
f 51 54 21
f 20 49 51
f 51 21 9
f 9 20 51
f 19 34 10
f 19 31 34
f 29 31 18
f 31 19 18
f 18 19 10
f 10 17 18
f 18 17 26
f 26 29 18
f 119 120 122
f 122 118 119
f 104 108 121
f 121 107 104
f 23 16 15
f 22 23 15

