# https://github.com/mikedh/trimesh
v 0.18558574 -0.00921631 0.54970001
v 0.19313480 -0.00555223 0.54970001
v 0.19665126 -0.00503363 0.55036668
v 0.19666132 -0.00516777 0.55036668
v 0.19667134 -0.00523427 0.55036668
v 0.19668385 -0.00469960 0.54970001
v 0.19670127 -0.00536541 0.55036668
v 0.19673220 -0.00546145 0.55036668
v 0.19677023 -0.00555490 0.55036668
v 0.19679942 -0.00561550 0.55036668
v 0.19686668 -0.00573199 0.55036668
v 0.19692455 -0.00581463 0.55036668
v 0.19698843 -0.00589273 0.55036668
v 0.19703417 -0.00594203 0.55036668
v 0.19710728 -0.00601157 0.55036668
v 0.19721244 -0.00609544 0.55036668
v 0.19729650 -0.00615123 0.55036668
v 0.19738451 -0.00620058 0.55036668
v 0.19747595 -0.00624322 0.55036668
v 0.19753855 -0.00626779 0.55036668
v 0.19766709 -0.00630744 0.55036668
v 0.19776573 -0.00632867 0.55036668
v 0.19783223 -0.00633869 0.55036668
v 0.19796637 -0.00634874 0.55036668
v 0.19803363 -0.00634874 0.55036668
v 0.19816777 -0.00633869 0.55036668
v 0.19826733 -0.00632241 0.55036668
v 0.19833291 -0.00630744 0.55036668
v 0.19846145 -0.00626779 0.55036668
v 0.19855490 -0.00622977 0.55036668
v 0.19864525 -0.00618486 0.55036668
v 0.19873199 -0.00613333 0.55036668
v 0.19878756 -0.00609544 0.55036668
v 0.19886721 -0.00603352 0.55036668
v 0.19894203 -0.00596582 0.55036668
v 0.19903352 -0.00586722 0.55036668
v 0.19909543 -0.00578756 0.55036668
v 0.19915122 -0.00570349 0.55036668
v 0.19920058 -0.00561550 0.55036668
v 0.19922977 -0.00555490 0.55036668
v 0.19927891 -0.00542968 0.55036668
v 0.19929873 -0.00536541 0.55036668
v 0.19932866 -0.00523427 0.55036668
v 0.19934245 -0.00513433 0.55036668
v 0.19934874 -0.00503363 0.55036668
v 0.19935001 -0.00500000 0.54970001
v 0.20029287 -0.01060815 0.54970001
v 0.20370030 -0.00823208 0.54970001
f 1 3 2
f 2 3 6
f 33 47 48
f 48 46 45
f 45 46 6
f 6 3 45
f 1 47 23
f 48 36 35
f 37 36 48
f 43 42 48
f 48 42 41
f 31 30 47
f 29 28 47
f 47 30 29
f 24 23 47
f 47 25 24
f 26 25 47
f 34 33 48
f 48 35 34
f 48 39 38
f 38 37 48
f 48 45 44
f 44 43 48
f 40 39 48
f 48 41 40
f 47 33 32
f 32 31 47
f 47 28 27
f 27 26 47
f 4 3 1
f 1 5 4
f 1 8 7
f 7 5 1
f 1 13 12
f 12 11 1
f 1 11 10
f 21 20 1
f 19 18 1
f 1 20 19
f 1 16 15
f 1 18 17
f 17 16 1
f 9 8 1
f 1 10 9
f 1 23 22
f 22 21 1
f 14 13 1
f 1 15 14
f 1 2 46
f 46 47 1
f 48 47 46
f 46 2 6
f 33 34 14
f 14 45 3
f 28 29 14
f 14 7 8
f 14 44 45
f 14 32 33
f 18 19 14
f 14 38 39
f 39 40 14
f 23 24 14
f 14 27 28
f 14 17 18
f 14 35 36
f 36 37 14
f 42 43 14
f 14 41 42
f 30 31 14
f 14 29 30
f 14 24 25
f 25 26 14
f 3 4 14
f 14 12 13
f 8 9 14
f 14 22 23
f 14 34 35
f 37 38 14
f 43 44 14
f 14 40 41
f 31 32 14
f 26 27 14
f 14 4 5
f 5 7 14
f 11 12 14
f 14 10 11
f 20 21 14
f 14 19 20
f 14 15 16
f 16 17 14
f 14 9 10
f 21 22 14

