# https://github.com/mikedh/trimesh
v 0.19260744 -0.00764930 0.54466919
v 0.19400000 -0.01219698 0.54476056
v 0.19400000 -0.01019879 0.54253729
v 0.19480237 -0.01243329 0.54264242
v 0.19482832 -0.00297013 0.54470685
v 0.19633333 -0.00978476 0.54260765
v 0.19640710 -0.01558386 0.54282379
v 0.19879235 -0.01946245 0.54532101
v 0.20100000 -0.00945555 0.54275769
v 0.20134236 -0.01104988 0.54281201
f 1 8 5
f 5 3 1
f 2 8 1
f 1 3 2
f 9 8 10
f 9 5 8
f 10 3 9
f 8 2 7
f 10 8 7
f 3 5 6
f 6 9 3
f 5 9 6
f 4 2 3
f 4 7 2
f 4 3 10
f 10 7 4

