# https://github.com/mikedh/trimesh
v 0.21850968 -0.00070887 0.54356941
v 0.21851031 -0.00182074 0.54356964
v 0.21909789 -0.00546957 0.54361584
v 0.21923170 -0.00564287 0.54362549
v 0.21967354 -0.00316745 0.54364714
v 0.21967354 -0.00287190 0.54364671
v 0.21967354 -0.00253005 0.54364630
v 0.21967354 -0.00235261 0.54364618
v 0.21985776 -0.00408973 0.54366160
v 0.22025516 -0.00342089 0.54368570
v 0.22025516 -0.00321134 0.54368533
v 0.22025516 -0.00299199 0.54368497
v 0.22025516 -0.00276801 0.54368469
v 0.22025516 -0.00251748 0.54368439
v 0.22025516 -0.00247921 0.54368436
v 0.22025516 -0.00203363 0.54368405
v 0.22083677 0.00030186 0.54372182
v 0.22200000 -0.00512965 0.54380664
v 0.22200000 -0.00499180 0.54380585
v 0.22200000 -0.00451348 0.54380353
v 0.22200000 -0.00432926 0.54380283
v 0.22200000 -0.00414504 0.54380212
v 0.22200000 -0.00375856 0.54380090
v 0.22200000 -0.00332340 0.54379993
v 0.22200000 -0.00311385 0.54379956
v 0.22200000 -0.00290430 0.54379919
v 0.22200000 -0.00240325 0.54379858
v 0.22200000 -0.00196786 0.54379828
v 0.22200000 -0.00170166 0.54379816
v 0.22200000 -0.00152759 0.54379810
v 0.22200000 -0.00135352 0.54379803
v 0.22200000 -0.00060264 0.54379797
v 0.22200000 -0.00020995 0.54379797
v 0.22200000 -0.00000031 0.54379800
v 0.22200000 0.00020934 0.54379803
v 0.22433333 0.00009116 0.54397709
v 0.22550000 -0.00481188 0.54407480
v 0.22550000 -0.00468140 0.54407407
v 0.22550000 -0.00446781 0.54407300
v 0.22550000 -0.00422865 0.54407184
v 0.22550000 -0.00406412 0.54407120
v 0.22550000 -0.00387991 0.54407050
v 0.22550000 -0.00351408 0.54406934
v 0.22550000 -0.00310218 0.54406842
v 0.22550000 -0.00291504 0.54406808
v 0.22550000 -0.00270549 0.54406772
v 0.22550000 -0.00223123 0.54406717
v 0.22550000 -0.00201353 0.54406702
v 0.22550000 -0.00181910 0.54406689
v 0.22550000 -0.00170024 0.54406683
v 0.22550000 -0.00156714 0.54406677
v 0.22550000 -0.00123760 0.54406665
v 0.22550000 0.00003206 0.54406662
v 0.22666667 -0.00466492 0.54416396
v 0.22666667 -0.00443554 0.54416276
v 0.22666667 -0.00402402 0.54416085
v 0.22666667 -0.00354765 0.54415918
v 0.22666667 -0.00330305 0.54415853
v 0.22666667 -0.00290368 0.54415769
v 0.22666667 -0.00251183 0.54415708
v 0.22666667 -0.00222003 0.54415676
v 0.22666667 -0.00189914 0.54415651
v 0.22666667 -0.00169027 0.54415639
v 0.22666667 -0.00130261 0.54415623
v 0.22666667 -0.00001209 0.54415617
v 0.22900000 -0.00080381 0.54433527
f 3 66 1
f 3 4 66
f 1 66 65
f 65 17 1
f 66 4 54
f 2 3 1
f 4 3 20
f 3 2 5
f 56 57 66
f 57 56 42
f 3 23 22
f 31 2 1
f 66 54 55
f 55 56 66
f 41 56 20
f 41 42 56
f 21 20 3
f 3 22 21
f 21 22 42
f 57 42 43
f 42 22 43
f 43 22 23
f 37 54 4
f 4 18 37
f 32 31 1
f 29 28 2
f 3 5 9
f 5 10 9
f 9 23 3
f 9 10 23
f 2 28 16
f 20 56 40
f 56 55 40
f 4 20 19
f 19 18 4
f 19 37 18
f 17 65 35
f 2 31 30
f 30 29 2
f 46 60 59
f 59 60 66
f 11 10 5
f 5 26 11
f 27 60 46
f 46 26 27
f 6 5 2
f 2 7 6
f 23 10 24
f 24 43 23
f 8 7 2
f 2 16 8
f 39 40 55
f 55 19 39
f 54 37 38
f 37 19 38
f 38 55 54
f 38 19 55
f 66 32 33
f 1 17 33
f 33 32 1
f 28 27 15
f 15 27 7
f 7 8 15
f 15 16 28
f 15 8 16
f 12 26 5
f 5 6 12
f 12 6 26
f 13 27 26
f 26 6 13
f 25 24 10
f 25 26 46
f 44 24 59
f 43 24 44
f 59 24 45
f 46 59 45
f 53 65 66
f 66 33 53
f 29 30 52
f 52 30 31
f 66 64 52
f 52 32 66
f 31 32 52
f 28 29 51
f 29 52 51
f 51 52 64
f 60 27 47
f 47 27 28
f 7 27 14
f 27 13 14
f 14 6 7
f 14 13 6
f 43 44 58
f 58 44 59
f 57 43 58
f 66 57 58
f 58 59 66
f 36 53 33
f 36 35 65
f 65 53 36
f 63 51 64
f 66 62 63
f 63 64 66
f 62 49 63
f 60 47 61
f 61 47 62
f 66 60 61
f 61 62 66
f 48 47 28
f 62 47 48
f 28 49 48
f 48 49 62
f 35 36 34
f 34 36 33
f 17 35 34
f 34 33 17
f 28 51 50
f 51 63 50
f 50 49 28
f 50 63 49
f 42 41 21
f 21 41 20
f 39 19 20
f 20 40 39
f 25 11 26
f 10 11 25
f 24 25 45
f 45 25 46

