# https://github.com/mikedh/trimesh
v 0.16249186 0.01797953 0.55118641
v 0.18207512 0.02210429 0.54517809
v 0.18453108 0.02368823 0.54639719
v 0.18467825 0.02311164 0.54566560
v 0.18473727 0.02363640 0.54629137
v 0.18496215 0.02353492 0.54612590
v 0.18496230 0.02337774 0.54593394
v 0.18497704 0.02354082 0.54613586
v 0.18498314 0.02361698 0.54627002
v 0.18499526 0.02352290 0.54611084
v 0.18499526 0.02352324 0.54611133
v 0.18499526 0.02352394 0.54611230
v 0.18499526 0.02352429 0.54611279
v 0.18499526 0.02352640 0.54611584
v 0.18499526 0.02352729 0.54611715
v 0.18499526 0.02352908 0.54611975
v 0.18502528 0.02356725 0.54618145
v 0.18513264 0.02349897 0.54608818
v 0.18516841 0.02350421 0.54609784
v 0.18543218 0.02352748 0.54614894
v 0.18586132 0.02360436 0.54796856
v 0.18605754 0.02362824 0.54639208
v 0.18646687 0.02321354 0.54839860
v 0.19020301 0.02322141 0.54828591
v 0.19032738 0.02338231 0.54630501
v 0.19252908 0.02267625 0.54588302
v 0.20610037 0.01973106 0.55000075
f 2 27 1
f 1 3 2
f 1 27 23
f 27 2 26
f 4 2 3
f 4 26 2
f 24 23 27
f 26 4 25
f 27 26 25
f 25 24 27
f 23 24 21
f 21 3 1
f 1 23 21
f 24 25 21
f 7 25 4
f 7 6 10
f 25 10 20
f 25 7 18
f 18 7 10
f 6 7 5
f 5 4 3
f 5 7 4
f 25 9 22
f 3 21 22
f 22 21 25
f 22 5 3
f 9 5 22
f 17 5 9
f 17 9 25
f 25 20 17
f 19 10 25
f 25 18 19
f 19 18 10
f 6 14 13
f 13 14 20
f 6 20 16
f 8 20 6
f 8 17 20
f 6 5 8
f 5 17 8
f 6 13 12
f 12 13 20
f 20 14 15
f 15 16 20
f 15 14 6
f 6 16 15
f 10 6 11
f 6 12 11
f 11 20 10
f 11 12 20

