# https://github.com/mikedh/trimesh
v 0.19400000 -0.00512286 0.54248560
v 0.19400000 -0.00465491 0.54248413
v 0.19400000 -0.00412802 0.54248291
v 0.19400000 -0.00362059 0.54248206
v 0.19400000 -0.00310247 0.54248138
v 0.19400000 -0.00248676 0.54248090
v 0.19400000 -0.00174293 0.54248059
v 0.19400000 -0.00131198 0.54248053
v 0.19400000 -0.00035833 0.54248053
v 0.19482832 -0.00297013 0.54470685
v 0.19494529 0.00197524 0.54471844
v 0.19633333 -0.00144409 0.54255754
v 0.19633333 -0.00002053 0.54255750
v 0.19688922 -0.00592784 0.54480068
v 0.19750000 -0.00459580 0.54259955
v 0.19750000 -0.00382813 0.54259790
v 0.19750000 -0.00357441 0.54259747
v 0.19750000 -0.00306277 0.54259683
v 0.19750000 -0.00229764 0.54259628
v 0.19750000 -0.00129467 0.54259601
v 0.19750000 -0.00106156 0.54259598
v 0.19795340 -0.00731770 0.54484860
v 0.19866667 -0.00440486 0.54263761
v 0.19866667 -0.00389308 0.54263652
v 0.19866667 -0.00233935 0.54263481
v 0.19866667 -0.00050568 0.54263446
v 0.19866667 -0.00018617 0.54263446
v 0.19896893 -0.00439749 0.54486957
v 0.20100000 -0.00499294 0.54271637
v 0.20100000 -0.00453669 0.54271497
v 0.20100000 -0.00402298 0.54271375
v 0.20100000 -0.00352824 0.54271289
v 0.20100000 -0.00302308 0.54271228
v 0.20100000 -0.00242277 0.54271185
v 0.20100000 -0.00210853 0.54271167
v 0.20100000 -0.00081114 0.54271143
v 0.20100000 0.00014741 0.54271143
v 0.20100000 0.00144293 0.54491150
v 0.20100008 -0.00181081 0.54271157
f 29 22 1
f 39 38 29
f 10 9 1
f 11 9 10
f 11 22 28
f 28 38 11
f 22 29 28
f 28 29 38
f 37 38 39
f 11 38 37
f 14 22 11
f 11 10 14
f 1 22 14
f 14 10 1
f 2 29 1
f 13 9 11
f 11 37 13
f 31 32 39
f 35 7 39
f 36 37 39
f 27 13 37
f 9 13 27
f 39 29 30
f 30 31 39
f 3 31 2
f 19 6 7
f 7 35 19
f 21 36 20
f 20 8 21
f 20 36 39
f 26 36 21
f 21 8 26
f 2 31 23
f 31 30 23
f 32 31 24
f 31 3 24
f 39 32 33
f 7 8 12
f 8 20 12
f 39 7 12
f 12 20 39
f 2 23 15
f 15 23 30
f 29 2 15
f 15 30 29
f 17 4 5
f 5 32 17
f 3 4 17
f 5 6 18
f 6 33 18
f 18 32 5
f 18 33 32
f 34 33 6
f 34 35 39
f 39 33 34
f 16 17 32
f 3 17 16
f 32 24 16
f 16 24 3
f 6 19 25
f 25 34 6
f 25 19 35
f 35 34 25
f 26 27 37
f 37 36 26
f 26 8 9
f 9 27 26
f 4 6 5
f 1 9 4
f 4 2 1
f 9 8 4
f 7 6 4
f 4 8 7
f 4 3 2

