# https://github.com/mikedh/trimesh
v 0.05094008 0.03505992 0.31639999
v 0.05095330 0.03507314 0.31306666
v 0.05097974 0.03509958 0.31639999
v 0.05097974 0.03509958 0.32639999
v 0.05100808 0.03512397 0.31306666
v 0.05102225 0.03513616 0.31639999
v 0.05110989 0.03520605 0.31639999
v 0.05112494 0.03521715 0.31306666
v 0.05115502 0.03523936 0.31639999
v 0.05115502 0.03523936 0.32639999
v 0.05118668 0.03525925 0.31306666
v 0.05125000 0.03529904 0.31639999
v 0.05125000 0.03529904 0.32639999
v 0.05128306 0.03531651 0.31306666
v 0.05129959 0.03532524 0.31639999
v 0.05140058 0.03537388 0.31639999
v 0.05141772 0.03538136 0.31306666
v 0.05145199 0.03539631 0.31639999
v 0.05145199 0.03539631 0.32639999
v 0.05148728 0.03540866 0.31306666
v 0.05155787 0.03543336 0.31639999
v 0.05155787 0.03543336 0.32639999
v 0.05159399 0.03544304 0.31306666
v 0.05161204 0.03544788 0.31639999
v 0.05172133 0.03547282 0.31639999
v 0.05173970 0.03547629 0.31306666
v 0.05177644 0.03548325 0.31639999
v 0.05177644 0.03548325 0.32639999
v 0.05181359 0.03548743 0.31306666
v 0.05188791 0.03549580 0.31639999
v 0.05188791 0.03549580 0.32639999
v 0.05192527 0.03549720 0.31306666
v 0.05200000 0.03550000 0.31639999
v 0.05200000 0.03550000 0.32639999
v 0.05203736 0.03549860 0.31306666
v 0.05205605 0.03549790 0.31639999
v 0.05216783 0.03548952 0.31639999
v 0.05218641 0.03548743 0.31306666
v 0.05222356 0.03548325 0.31639999
v 0.05222356 0.03548325 0.32639999
v 0.05226030 0.03547629 0.31306666
v 0.05227867 0.03547282 0.31639999
v 0.05233378 0.03546239 0.31639999
v 0.05233378 0.03546239 0.32639999
v 0.05236990 0.03545271 0.31306666
v 0.05238796 0.03544788 0.31639999
v 0.05249507 0.03541483 0.31639999
v 0.05251272 0.03540866 0.31306666
v 0.05254801 0.03539631 0.31639999
v 0.05254801 0.03539631 0.32639999
v 0.05258228 0.03538136 0.31306666
v 0.05265083 0.03535145 0.31639999
v 0.05265083 0.03535145 0.32639999
v 0.05268388 0.03533398 0.31306666
v 0.05275000 0.03529904 0.31639999
v 0.05275000 0.03529904 0.32639999
v 0.05278166 0.03527914 0.31306666
v 0.05284498 0.03523936 0.31639999
v 0.05284498 0.03523936 0.32639999
v 0.05287506 0.03521715 0.31306666
v 0.05289011 0.03520605 0.31639999
v 0.05297775 0.03513616 0.31639999
v 0.05299192 0.03512397 0.31306666
v 0.05302026 0.03509958 0.31639999
v 0.05302026 0.03509958 0.32639999
v 0.05304670 0.03507314 0.31306666
v 0.05305992 0.03505992 0.31639999
f 43 45 41
f 2 3 5
f 29 26 27
f 29 31 30
f 27 28 29
f 28 31 29
f 25 28 27
f 27 26 25
f 9 11 8
f 32 30 33
f 32 29 30
f 18 20 17
f 28 25 22
f 54 55 57
f 62 59 65
f 51 48 49
f 51 52 54
f 42 43 41
f 41 39 42
f 42 40 44
f 44 43 42
f 42 39 40
f 35 32 33
f 34 36 35
f 33 34 35
f 11 12 14
f 23 25 26
f 60 57 58
f 60 62 63
f 58 59 60
f 63 64 66
f 38 39 41
f 37 40 38
f 40 39 38
f 21 23 20
f 24 22 25
f 25 23 24
f 59 62 61
f 61 60 59
f 62 60 61
f 65 4 1
f 1 67 65
f 40 36 34
f 37 36 40
f 1 4 3
f 3 2 1
f 5 3 4
f 4 6 5
f 31 34 33
f 33 30 31
f 46 44 50
f 50 47 46
f 45 43 46
f 46 43 44
f 48 46 47
f 45 46 48
f 48 47 50
f 50 49 48
f 56 55 52
f 52 53 56
f 52 55 54
f 10 6 4
f 10 7 6
f 8 5 6
f 6 7 8
f 8 10 9
f 7 10 8
f 12 10 13
f 12 11 9
f 9 10 12
f 17 16 19
f 17 19 18
f 4 65 22
f 65 59 22
f 50 44 22
f 34 31 22
f 22 40 34
f 22 53 50
f 19 13 22
f 22 10 4
f 22 59 56
f 56 53 22
f 44 40 22
f 22 31 28
f 13 10 22
f 56 59 57
f 57 59 58
f 57 55 56
f 65 64 62
f 62 64 63
f 50 53 51
f 51 49 50
f 53 52 51
f 15 13 19
f 19 16 15
f 16 17 14
f 14 15 16
f 13 15 14
f 14 12 13
f 66 67 1
f 1 2 66
f 66 65 67
f 66 64 65
f 2 5 38
f 45 48 38
f 41 45 38
f 38 8 11
f 38 51 54
f 38 60 63
f 26 29 38
f 11 14 38
f 54 57 38
f 38 66 2
f 5 8 38
f 29 32 38
f 38 17 20
f 38 23 26
f 48 51 38
f 32 35 38
f 38 14 17
f 20 23 38
f 57 60 38
f 63 66 38
f 38 36 37
f 38 35 36
f 18 19 21
f 19 22 21
f 21 20 18
f 24 21 22
f 23 21 24

