# https://github.com/mikedh/trimesh
v 0.04915798 -0.03495485 0.31173333
v 0.04917033 -0.03499014 0.31139999
v 0.04917033 -0.03499014 0.31189999
v 0.04920738 -0.03509602 0.31139999
v 0.04920738 -0.03509602 0.31189999
v 0.04926719 -0.03523311 0.31156666
v 0.04929709 -0.03530165 0.31139999
v 0.04929709 -0.03530165 0.31189999
v 0.04934951 -0.03540083 0.31164999
v 0.04934951 -0.03540083 0.31189999
v 0.04940192 -0.03550000 0.31139999
v 0.04940192 -0.03550000 0.31189999
v 0.04952128 -0.03568996 0.31139999
v 0.04952128 -0.03568996 0.31164999
v 0.04952128 -0.03568996 0.31189999
v 0.04956569 -0.03575013 0.31173333
v 0.04965451 -0.03587047 0.31139999
v 0.04965451 -0.03587047 0.31189999
v 0.04980085 -0.03604052 0.31139999
v 0.04980085 -0.03604052 0.31189999
v 0.04995948 -0.03619915 0.31139999
v 0.04995948 -0.03619915 0.31189999
v 0.05001616 -0.03624793 0.31156666
v 0.05012205 -0.03486014 0.31139999
v 0.05012205 -0.03486014 0.31189999
v 0.05019581 -0.03577598 0.31139999
v 0.05019581 -0.03577598 0.31189999
v 0.05027122 -0.03513042 0.31139999
v 0.05027122 -0.03513042 0.31189999
f 24 2 1
f 25 24 1
f 21 26 23
f 23 22 21
f 23 26 27
f 27 22 23
f 17 18 16
f 6 4 7
f 14 16 15
f 15 16 18
f 9 7 11
f 3 25 1
f 28 24 25
f 25 29 28
f 27 26 28
f 28 29 27
f 16 13 17
f 14 13 16
f 2 24 19
f 19 24 28
f 28 26 19
f 26 21 19
f 11 7 19
f 17 13 19
f 19 4 2
f 19 13 11
f 7 4 19
f 19 20 18
f 19 18 17
f 22 20 19
f 19 21 22
f 8 6 7
f 11 13 12
f 12 13 14
f 14 15 12
f 4 6 5
f 6 8 5
f 2 4 3
f 1 2 3
f 4 5 3
f 29 25 10
f 22 27 10
f 10 5 8
f 10 27 29
f 10 20 22
f 18 20 10
f 25 3 10
f 10 15 18
f 10 12 15
f 10 3 5
f 10 8 7
f 7 9 10
f 11 12 10
f 10 9 11

