# https://github.com/mikedh/trimesh
v -0.03214037 0.03026624 0.53606007
v -0.03213807 0.03062529 0.53606639
v -0.03213686 0.02987337 0.53604648
v -0.03210013 0.02941869 0.53599444
v -0.03193755 0.02894611 0.53580212
v 0.02556676 0.02900177 0.58778143
v 0.02556897 0.02934647 0.58778747
v 0.02556986 0.02862462 0.58776866
v 0.02560352 0.02818811 0.58772048
v 0.02575296 0.02773436 0.58754324
v 0.02604326 0.02749932 0.58721488
f 2 7 11
f 11 5 2
f 10 5 11
f 10 4 5
f 9 4 10
f 1 8 6
f 6 2 1
f 7 2 6
f 9 8 3
f 3 4 9
f 3 8 1
f 6 10 11
f 11 7 6
f 6 8 9
f 9 10 6
f 1 2 3
f 3 2 5
f 5 4 3

