# https://github.com/mikedh/trimesh
v 0.04814794 0.02634335 0.59804876
v 0.04816120 0.02554841 0.59956453
v 0.04818453 0.02544137 0.59990653
v 0.04821275 0.02533245 0.60028321
v 0.04826007 0.02525103 0.60073256
v 0.04827398 0.02685220 0.59793950
v 0.04836500 0.02533630 0.60125070
v 0.06866515 0.01986168 0.59638595
v 0.06868662 0.01976322 0.59670059
v 0.06871270 0.01966336 0.59704724
v 0.06875695 0.01959065 0.59746128
v 0.06877840 0.02109020 0.59489941
f 7 11 12
f 6 12 1
f 6 7 12
f 1 12 8
f 11 7 5
f 10 5 4
f 11 5 10
f 1 8 2
f 9 10 4
f 3 9 4
f 8 9 3
f 3 2 8
f 9 8 12
f 12 11 9
f 11 10 9
f 7 6 3
f 3 6 1
f 3 5 7
f 4 5 3
f 1 2 3

