# https://github.com/mikedh/trimesh
v -0.04827381 0.03015488 0.48897500
v -0.04810998 0.02982275 0.48897500
v -0.04779682 0.02964899 0.48897500
v -0.04749640 0.02960705 0.48897500
v -0.04723702 0.02960036 0.48897500
v -0.04700000 0.02960000 0.48897500
v -0.04676298 0.02960036 0.48897500
v -0.04650360 0.02960705 0.48897500
v -0.04620318 0.02964899 0.48897500
v -0.04589002 0.02982275 0.48897500
v -0.04572619 0.03015488 0.48897500
v -0.04827381 0.03015488 0.48902500
v -0.04810998 0.02982275 0.48902500
v -0.04779682 0.02964899 0.48902500
v -0.04749640 0.02960705 0.48902500
v -0.04723702 0.02960036 0.48902500
v -0.04700000 0.02960000 0.48902500
v -0.04676298 0.02960036 0.48902500
v -0.04650360 0.02960705 0.48902500
v -0.04620318 0.02964899 0.48902500
v -0.04589002 0.02982275 0.48902500
v -0.04572619 0.03015488 0.48902500
f 22 11 1
f 1 12 22
f 13 12 1
f 1 2 13
f 19 8 9
f 19 9 20
f 9 10 21
f 20 9 21
f 11 22 21
f 21 10 11
f 3 4 14
f 14 4 15
f 14 2 3
f 14 13 2
f 6 5 7
f 1 11 7
f 11 10 7
f 7 2 1
f 3 2 7
f 9 8 7
f 7 10 9
f 7 4 3
f 7 5 4
f 8 19 7
f 19 18 7
f 4 5 16
f 15 4 16
f 17 22 12
f 17 19 20
f 12 13 17
f 20 21 17
f 17 14 15
f 17 21 22
f 13 14 17
f 17 18 19
f 15 16 17
f 6 7 17
f 17 7 18
f 17 5 6
f 17 16 5

