# https://github.com/mikedh/trimesh
v 0.02522069 0.02908050 0.41629176
v 0.02546447 0.02908000 0.41653553
v 0.02570824 0.02908050 0.41677931
v 0.02597502 0.02908967 0.41704609
v 0.02628402 0.02914718 0.41735508
v 0.02660610 0.02938548 0.41767717
v 0.02677461 0.02984098 0.41784567
v 0.02883240 0.02960036 0.41283240
v 0.02900000 0.02960000 0.41300000
v 0.02916760 0.02960036 0.41316760
v 0.02935101 0.02960705 0.41335101
v 0.02956344 0.02964899 0.41356344
v 0.02978488 0.02982275 0.41378488
v 0.02990072 0.03015488 0.41390072
f 7 14 1
f 9 2 1
f 1 14 8
f 8 9 1
f 1 2 4
f 4 5 1
f 12 6 5
f 2 9 3
f 3 4 2
f 6 12 13
f 7 6 13
f 14 7 13
f 10 3 9
f 4 3 10
f 9 8 10
f 5 4 11
f 11 12 5
f 4 10 11
f 1 5 6
f 6 7 1
f 11 10 8
f 11 8 14
f 14 13 11
f 11 13 12

