# https://github.com/mikedh/trimesh
v 0.01557393 0.02900052 0.42693393
v 0.01585183 0.02901008 0.42721183
v 0.01617370 0.02906998 0.42753370
v 0.01650921 0.02931821 0.42786921
v 0.01668473 0.02979269 0.42804473
v 0.01672709 0.03024788 0.42808709
v 0.02546447 0.02908000 0.41653553
v 0.02570824 0.02908050 0.41677931
v 0.02597502 0.02908967 0.41704609
v 0.02628402 0.02914718 0.41735508
v 0.02660610 0.02938548 0.41767717
v 0.02677461 0.02984098 0.41784567
f 1 6 7
f 7 6 12
f 12 6 5
f 5 6 1
f 4 2 3
f 1 7 8
f 4 5 2
f 2 5 1
f 11 5 4
f 12 5 11
f 3 11 4
f 10 11 3
f 10 3 9
f 9 3 2
f 8 11 10
f 8 7 12
f 12 11 8
f 10 9 8
f 8 2 1
f 8 9 2

