# https://github.com/mikedh/trimesh
v 0.04915798 -0.03495485 0.32623333
v 0.04917033 -0.03499014 0.32589999
v 0.04917033 -0.03499014 0.32639999
v 0.04920738 -0.03509602 0.32589999
v 0.04920738 -0.03509602 0.32639999
v 0.04926719 -0.03523311 0.32606666
v 0.04929709 -0.03530165 0.32589999
v 0.04929709 -0.03530165 0.32639999
v 0.04934951 -0.03540083 0.32614999
v 0.04934951 -0.03540083 0.32639999
v 0.04940192 -0.03550000 0.32589999
v 0.04940192 -0.03550000 0.32639999
v 0.04952128 -0.03568996 0.32589999
v 0.04952128 -0.03568996 0.32639999
v 0.04956569 -0.03575013 0.32623333
v 0.04965451 -0.03587047 0.32589999
v 0.04965451 -0.03587047 0.32639999
v 0.04980085 -0.03604052 0.32589999
v 0.04980085 -0.03604052 0.32639999
v 0.04995948 -0.03619915 0.32589999
v 0.04995948 -0.03619915 0.32639999
v 0.05001616 -0.03624793 0.32606666
v 0.05012205 -0.03486014 0.32589999
v 0.05012205 -0.03486014 0.32639999
v 0.05019581 -0.03577598 0.32589999
v 0.05019581 -0.03577598 0.32639999
v 0.05027122 -0.03513042 0.32589999
v 0.05027122 -0.03513042 0.32639999
f 23 2 1
f 24 23 1
f 20 25 22
f 22 21 20
f 22 25 26
f 26 21 22
f 6 4 7
f 16 17 15
f 15 13 16
f 15 14 13
f 17 14 15
f 3 24 1
f 9 7 11
f 27 23 24
f 24 28 27
f 26 25 27
f 27 28 26
f 2 23 18
f 18 23 27
f 27 25 18
f 25 20 18
f 11 7 18
f 16 13 18
f 18 4 2
f 18 13 11
f 7 4 18
f 18 17 16
f 18 19 17
f 21 19 18
f 18 20 21
f 8 6 7
f 6 8 5
f 4 6 5
f 11 13 12
f 13 14 12
f 2 4 3
f 1 2 3
f 4 5 3
f 28 24 10
f 21 26 10
f 10 5 8
f 10 26 28
f 10 19 21
f 17 19 10
f 10 14 17
f 10 12 14
f 24 3 10
f 10 3 5
f 10 8 7
f 7 9 10
f 11 12 10
f 10 9 11

