# https://github.com/mikedh/trimesh
v -0.08524006 -0.01208590 0.29950000
v -0.08519121 -0.01078041 0.29950000
v -0.08516861 -0.01244422 0.29950000
v -0.08516861 -0.01035590 0.29950000
v -0.08513366 -0.01261190 0.29950000
v -0.08513366 -0.01018822 0.29950000
v -0.08501565 -0.01307906 0.29966667
v -0.08497343 -0.01305254 0.29950000
v -0.08497343 -0.01305254 0.30000000
v -0.08485310 -0.01296372 0.29950000
v -0.08485310 -0.01296372 0.30000000
v -0.08485310 -0.00983640 0.29950000
v -0.08473972 -0.01286616 0.29950000
v -0.08473972 -0.01286616 0.30000000
v -0.08473972 -0.00993395 0.29950000
v -0.08468684 -0.00998683 0.30000000
v -0.08463396 -0.01276040 0.29950000
v -0.08463396 -0.01276040 0.30000000
v -0.08463396 -0.01003971 0.29950000
v -0.08463396 -0.01003971 0.30000000
v -0.08453641 -0.01264704 0.29950000
v -0.08453641 -0.01264704 0.30000000
v -0.08453641 -0.01015308 0.29950000
v -0.08453641 -0.01015308 0.30000000
v -0.08444759 -0.01252670 0.29950000
v -0.08444759 -0.01252670 0.30000000
v -0.08444759 -0.01027342 0.29950000
v -0.08444759 -0.01027342 0.30000000
v -0.08436802 -0.01240006 0.29950000
v -0.08436802 -0.01240006 0.30000000
v -0.08436802 -0.01040006 0.29950000
v -0.08436802 -0.01040006 0.30000000
v -0.08429813 -0.01226783 0.29950000
v -0.08429813 -0.01226783 0.30000000
v -0.08429813 -0.01053229 0.29950000
v -0.08429813 -0.01053229 0.30000000
v -0.08423833 -0.01213074 0.29950000
v -0.08423833 -0.01213074 0.30000000
v -0.08423833 -0.01066938 0.29950000
v -0.08423833 -0.01066938 0.30000000
v -0.08422186 -0.01208368 0.29983333
v -0.08422186 -0.01071643 0.29966667
v -0.08418893 -0.01198957 0.29950000
v -0.08418893 -0.01198957 0.30000000
v -0.08418893 -0.01081055 0.29950000
v -0.08418893 -0.01081055 0.30000000
v -0.08416957 -0.01191733 0.29950000
v -0.08416957 -0.01191733 0.30000000
v -0.08416957 -0.01088278 0.29950000
v -0.08416957 -0.01088278 0.30000000
v -0.08415022 -0.01184510 0.29950000
v -0.08415022 -0.01184510 0.30000000
v -0.08415022 -0.01095502 0.29950000
v -0.08415022 -0.01095502 0.30000000
v -0.08413168 -0.01174713 0.29966667
v -0.08413168 -0.01105299 0.29983333
v -0.08412241 -0.01169814 0.29950000
v -0.08412241 -0.01169814 0.30000000
v -0.08412241 -0.01110197 0.29950000
v -0.08412241 -0.01110197 0.30000000
v -0.08411125 -0.01159906 0.29966667
v -0.08411125 -0.01120106 0.29983333
v -0.08410567 -0.01154952 0.29950000
v -0.08410567 -0.01154952 0.30000000
v -0.08410567 -0.01125060 0.29950000
v -0.08410567 -0.01125060 0.30000000
v -0.08410380 -0.01149970 0.29983333
v -0.08410380 -0.01130042 0.29966667
v -0.08410287 -0.01147479 0.29950000
v -0.08410287 -0.01147479 0.30000000
v -0.08410287 -0.01132533 0.29950000
v -0.08410287 -0.01132533 0.30000000
v -0.08410007 -0.01140006 0.29950000
v -0.08410007 -0.01140006 0.30000000
f 7 8 9
f 9 16 4
f 8 7 5
f 6 16 12
f 6 4 16
f 1 9 2
f 9 4 2
f 12 16 15
f 3 5 7
f 3 9 1
f 3 7 9
f 68 65 66
f 45 39 42
f 65 68 71
f 52 51 55
f 51 57 55
f 52 55 58
f 40 46 42
f 53 54 56
f 54 60 56
f 56 59 53
f 60 59 56
f 62 60 66
f 62 59 60
f 66 65 62
f 65 59 62
f 61 57 63
f 61 58 57
f 63 64 61
f 64 58 61
f 72 68 66
f 63 69 67
f 67 70 64
f 67 64 63
f 41 38 37
f 43 44 41
f 37 43 41
f 44 38 41
f 23 19 20
f 20 24 23
f 20 19 15
f 20 15 16
f 27 24 28
f 23 24 27
f 35 31 32
f 36 35 32
f 31 27 32
f 32 27 28
f 53 49 50
f 50 54 53
f 34 30 33
f 33 30 29
f 25 30 26
f 29 30 25
f 21 25 22
f 22 25 26
f 17 21 22
f 22 18 17
f 46 50 49
f 46 49 45
f 45 42 46
f 58 55 57
f 17 18 14
f 14 13 17
f 40 35 36
f 40 39 35
f 40 42 39
f 73 71 72
f 72 71 68
f 72 74 73
f 34 33 38
f 38 33 37
f 67 69 73
f 73 74 67
f 74 70 67
f 12 15 47
f 47 6 12
f 1 2 47
f 47 49 53
f 47 31 35
f 47 3 1
f 47 19 23
f 23 27 47
f 8 5 47
f 4 6 47
f 47 2 4
f 47 33 29
f 73 69 47
f 5 3 47
f 29 25 47
f 15 19 47
f 47 10 8
f 35 39 47
f 47 57 51
f 45 49 47
f 47 71 73
f 47 27 31
f 47 69 63
f 53 59 47
f 47 21 17
f 47 39 45
f 63 57 47
f 37 33 47
f 47 25 21
f 17 13 47
f 65 71 47
f 47 59 65
f 47 43 37
f 13 10 47
f 48 47 51
f 48 51 52
f 48 44 43
f 43 47 48
f 11 20 16
f 11 16 9
f 64 70 11
f 34 38 11
f 36 32 11
f 66 60 11
f 28 24 11
f 54 50 11
f 24 20 11
f 11 32 28
f 50 46 11
f 26 30 11
f 11 22 26
f 11 60 54
f 11 58 64
f 11 30 34
f 18 22 11
f 11 40 36
f 11 48 52
f 52 58 11
f 46 40 11
f 11 72 66
f 11 14 18
f 11 70 74
f 74 72 11
f 11 38 44
f 44 48 11
f 8 10 11
f 9 8 11
f 13 14 11
f 11 10 13

