# https://github.com/mikedh/trimesh
v 0.09470400 -0.04660400 0.32951599
v 0.09470577 -0.04665133 0.33018266
v 0.09470754 -0.04650934 0.33018266
v 0.09470931 -0.04674599 0.32951599
v 0.09470931 -0.04646201 0.32951599
v 0.09471461 -0.04641495 0.33018266
v 0.09471727 -0.04681658 0.32951599
v 0.09471727 -0.04639142 0.32951599
v 0.09471992 -0.04684012 0.33018266
v 0.09472522 -0.04688718 0.32951599
v 0.09472522 -0.04632082 0.32951599
v 0.09473403 -0.04693372 0.33018266
v 0.09473403 -0.04627428 0.33018266
v 0.09475164 -0.04702679 0.32951599
v 0.09475164 -0.04618121 0.32951599
v 0.09476390 -0.04613546 0.33018266
v 0.09477616 -0.04711829 0.33018266
v 0.09478841 -0.04716404 0.32951599
v 0.09478841 -0.04604396 0.32951599
v 0.09481970 -0.04725344 0.33018266
v 0.09481970 -0.04595456 0.33018266
v 0.09483534 -0.04729815 0.32951599
v 0.09483534 -0.04590985 0.32951599
v 0.09487322 -0.04738497 0.33018266
v 0.09487322 -0.04582303 0.33018266
v 0.09489216 -0.04742838 0.32951599
v 0.09489216 -0.04577962 0.32951599
v 0.09491429 -0.04747025 0.33018266
v 0.09493642 -0.04569587 0.33018266
v 0.09495855 -0.04755400 0.32951599
v 0.09495855 -0.04565400 0.32951599
v 0.09498375 -0.04561390 0.33018266
v 0.09499635 -0.04761415 0.32951599
v 0.09499635 -0.04559385 0.32951599
v 0.09500895 -0.04763421 0.33018266
v 0.09513354 -0.04723196 0.32951599
v 0.09514351 -0.04595320 0.32951599
v 0.09519036 -0.04692666 0.32951599
v 0.09519036 -0.04628134 0.32951599
f 38 35 36
f 35 33 36
f 32 37 34
f 37 32 39
f 39 32 35
f 39 35 38
f 16 19 15
f 2 3 1
f 1 3 5
f 13 15 11
f 16 15 13
f 31 32 34
f 6 5 3
f 6 13 11
f 12 10 14
f 9 10 12
f 18 20 17
f 17 14 18
f 12 14 17
f 23 25 27
f 29 31 27
f 27 25 29
f 32 31 29
f 8 6 11
f 5 6 8
f 4 9 2
f 22 20 18
f 21 23 19
f 25 23 21
f 21 19 16
f 10 9 7
f 9 4 7
f 26 28 24
f 24 22 26
f 20 22 24
f 30 28 26
f 35 28 30
f 30 33 35
f 4 2 1
f 35 32 24
f 16 13 24
f 32 29 24
f 24 6 3
f 3 2 24
f 24 28 35
f 24 9 12
f 12 17 24
f 13 6 24
f 2 9 24
f 24 17 20
f 24 29 25
f 24 21 16
f 25 21 24
f 30 15 19
f 1 5 30
f 38 36 30
f 34 37 30
f 30 39 38
f 30 36 33
f 18 14 30
f 30 4 1
f 37 39 30
f 10 7 30
f 11 15 30
f 19 23 30
f 30 31 34
f 27 31 30
f 30 14 10
f 30 8 11
f 30 22 18
f 30 23 27
f 5 8 30
f 26 22 30
f 30 7 4

