# https://github.com/mikedh/trimesh
v 0.08532420 -0.09029565 0.26136624
v 0.08610997 -0.08379719 0.25389061
v 0.08622173 -0.08951805 0.26156842
v 0.08637193 -0.08128068 0.25103409
v 0.08666999 -0.08171629 0.25183536
v 0.08678865 -0.08713787 0.25869603
v 0.08680631 -0.08672096 0.25808929
v 0.08689250 -0.08581516 0.25689203
v 0.08691734 -0.08315123 0.25328766
v 0.08693907 -0.08403676 0.25448676
v 0.08695527 -0.08832720 0.26082586
v 0.08840231 -0.08823769 0.26307366
f 1 12 4
f 1 6 11
f 11 6 12
f 7 8 12
f 12 6 7
f 1 8 7
f 7 6 1
f 1 4 2
f 2 9 1
f 4 9 2
f 10 8 1
f 1 9 10
f 12 8 10
f 10 9 12
f 5 4 12
f 12 9 5
f 5 9 4
f 3 12 1
f 1 11 3
f 3 11 12

