# https://github.com/mikedh/trimesh
v -0.10655653 0.11218507 0.28941751
v -0.10618997 0.11245141 0.29053062
v -0.10581225 0.10995018 0.29099296
v -0.10537093 0.10974600 0.28653921
v -0.10536935 0.11283471 0.29019736
v -0.10510474 0.11295704 0.28994468
v -0.10498513 0.11301092 0.28986575
v -0.10474960 0.11311535 0.28970603
v -0.10451531 0.11056454 0.29025666
v -0.10416562 0.11334076 0.28902852
v -0.10344535 0.11343484 0.28653922
f 1 11 4
f 1 4 3
f 1 3 2
f 9 4 11
f 9 3 4
f 10 9 11
f 8 9 10
f 10 11 1
f 1 8 10
f 5 9 8
f 5 2 3
f 3 9 5
f 2 5 6
f 1 2 6
f 7 8 1
f 1 6 7
f 7 5 8
f 7 6 5

