# https://github.com/mikedh/trimesh
v -0.17008000 -0.00082603 0.31694075
v -0.17008000 -0.00077591 0.31694860
v -0.17008000 -0.00072580 0.31695645
v -0.17008000 -0.00092591 0.31692266
v -0.17008000 -0.00102540 0.31690219
v -0.17008000 -0.00107493 0.31689077
v -0.17008000 -0.00180154 0.31665395
v -0.17008000 -0.00184846 0.31663327
v -0.17008000 -0.00170689 0.31669306
v -0.17008000 -0.00189538 0.31661259
v -0.17008000 -0.00198835 0.31656900
v -0.17008000 -0.00269590 0.31614253
v -0.17008000 -0.00273753 0.31611121
v -0.17008000 -0.00261138 0.31620316
v -0.17008000 -0.00277916 0.31607989
v -0.17008000 -0.00282015 0.31604759
v -0.17008000 -0.00286114 0.31601528
v -0.17008000 -0.00346596 0.31543102
v -0.17008000 -0.00356815 0.31530886
v -0.17008000 -0.00353465 0.31535009
v -0.17008000 -0.00366695 0.31518371
v -0.17008000 -0.00360166 0.31526763
v -0.17008000 -0.00339565 0.31551033
v -0.17008000 -0.00252566 0.31626176
v -0.17008000 -0.00376140 0.31505498
v -0.17008000 -0.00373050 0.31509839
v -0.17008000 -0.00335970 0.31554913
v -0.17008000 -0.00385235 0.31492314
v -0.17008000 -0.00379230 0.31501157
v -0.17008000 -0.00208043 0.31652319
v -0.17008000 -0.00112445 0.31687934
v -0.17008000 -0.00012000 0.31700000
v -0.17008000 -0.00391066 0.31483298
v -0.17008000 -0.00332376 0.31558794
v -0.17008000 -0.00294178 0.31594874
v -0.17008000 -0.00161146 0.31672989
v -0.17008000 -0.00062528 0.31696974
v -0.17008000 -0.00325031 0.31566376
v -0.17008000 -0.00298142 0.31591452
v -0.17008000 -0.00317536 0.31573778
v -0.17008000 -0.00302106 0.31588029
v -0.17008000 -0.00309893 0.31580997
v -0.17008000 -0.00248222 0.31629002
v -0.17008000 -0.00243878 0.31631828
v -0.17008000 -0.00212599 0.31649919
v -0.17008000 -0.00235077 0.31637271
v -0.17008000 -0.00217155 0.31647519
v -0.17008000 -0.00226168 0.31642503
v -0.17008000 -0.00156339 0.31674716
v -0.17008000 -0.00151532 0.31676443
v -0.17008000 -0.00146691 0.31678054
v -0.17008000 -0.00141850 0.31679666
v -0.17008000 -0.00122302 0.31685413
v -0.17008000 -0.00127203 0.31684034
v -0.17008000 -0.00132105 0.31682656
v -0.17008000 -0.00057490 0.31697519
v -0.17008000 -0.00052452 0.31698063
v -0.17008000 -0.00042356 0.31698910
v -0.17008000 -0.00022125 0.31699879
v -0.17008000 -0.00032246 0.31699515
v -0.16958009 -0.00586437 0.31547484
v -0.16958009 -0.00583521 0.31551993
v -0.16958007 -0.00574340 0.31563640
v -0.16958004 -0.00564904 0.31575075
v -0.16958000 -0.00073950 0.31823013
v -0.16958000 -0.00555199 0.31586313
v -0.16957998 -0.00545214 0.31597367
v -0.16957998 -0.00534955 0.31608230
v -0.16941334 -0.00541685 0.31681306
v -0.16941334 -0.00528777 0.31691738
v -0.16941334 -0.00554341 0.31670614
v -0.16941333 -0.00566739 0.31659667
v -0.16941331 -0.00578872 0.31648474
v -0.16941330 -0.00590726 0.31637046
v -0.16908001 -0.00610456 0.31768113
v -0.16908000 -0.00472184 0.31848599
v -0.16908000 -0.00481262 0.31844150
v -0.16908000 -0.00490340 0.31839702
v -0.16908000 -0.00453806 0.31857149
v -0.16908000 -0.00435214 0.31865349
v -0.16908000 -0.00279867 0.31917892
v -0.16908000 -0.00289854 0.31915258
v -0.16908000 -0.00299841 0.31912624
v -0.16908000 -0.00259765 0.31922780
v -0.16908000 -0.00239542 0.31927286
v -0.16908000 -0.00053765 0.31950337
v -0.16908000 -0.00074622 0.31949347
v -0.16908000 -0.00032887 0.31950931
v -0.16908000 -0.00085035 0.31948655
v -0.16908000 -0.00095449 0.31947962
v -0.16908000 -0.00319674 0.31906979
v -0.16908000 -0.00416417 0.31873195
v -0.16908000 -0.00508264 0.31830463
v -0.16908000 -0.00219209 0.31931407
v -0.16908000 -0.00012000 0.31951129
v -0.16908000 -0.00116235 0.31946183
v -0.16908000 -0.00594106 0.31779300
v -0.16908000 -0.00136971 0.31944011
v -0.16908000 -0.00147308 0.31942728
v -0.16908000 -0.00198775 0.31935142
v -0.16908000 -0.00157646 0.31941445
v -0.16908000 -0.00188513 0.31936815
v -0.16908000 -0.00167948 0.31939967
v -0.16908000 -0.00178251 0.31938488
v -0.16908000 -0.00339359 0.31900959
v -0.16908000 -0.00358885 0.31894567
v -0.16908000 -0.00397423 0.31880682
v -0.16908000 -0.00387833 0.31884244
v -0.16908000 -0.00378243 0.31887807
v -0.16908000 -0.00525949 0.31820885
v -0.16908000 -0.00543384 0.31810975
v -0.16908000 -0.00577472 0.31790177
v -0.16908000 -0.00560562 0.31800737
v -0.16874667 -0.00531408 0.31923309
v -0.16874667 -0.00067474 0.32030581
v -0.16874667 -0.00043226 0.32031381
v -0.16874667 -0.00091695 0.32029337
v -0.16874667 -0.00115878 0.32027649
v -0.16874667 -0.00018962 0.32031736
v -0.16874667 -0.00140010 0.32025518
v -0.16874667 -0.00164081 0.32022945
v -0.16874667 -0.00188077 0.32019931
v -0.16874667 -0.00211988 0.32016477
v -0.16858000 -0.00537916 0.31970390
v -0.16858000 -0.00344872 0.32032714
v -0.16858000 -0.00369692 0.32026466
v -0.16858000 -0.00319890 0.32038512
v -0.16858000 -0.00294760 0.32043857
v -0.16858000 -0.00394339 0.32019770
v -0.16858000 -0.00514557 0.31979696
v -0.16858000 -0.00269492 0.32048745
v -0.16858000 -0.00254317 0.32051308
v -0.16858000 -0.00418800 0.32012629
v -0.16858000 -0.00443064 0.32005048
v -0.16858000 -0.00490955 0.31988577
v -0.16858000 -0.00467120 0.31997029
v -0.16841333 -0.00409407 0.32059949
v -0.16841333 -0.00435534 0.32052606
v -0.16841333 -0.00537867 0.32018622
v -0.16841333 -0.00461457 0.32044798
v -0.16841333 -0.00512636 0.32027802
v -0.16841333 -0.00487161 0.32036528
v -0.16785983 -0.00012000 0.31608849
v -0.16776201 -0.00333386 0.31457947
v -0.16725502 -0.00540076 0.31510223
v -0.16708671 -0.00605013 0.31532055
v -0.16684414 -0.00012000 0.31863892
v -0.16676921 -0.00628502 0.31671680
v -0.16585136 -0.00216659 0.32091477
v -0.16585011 -0.00083951 0.32102773
v -0.16584981 -0.00245659 0.32088031
v -0.16584808 -0.00274563 0.32084126
v -0.16584618 -0.00303359 0.32079760
v -0.16584411 -0.00332036 0.32074935
v -0.16584189 -0.00360580 0.32069650
v -0.16583952 -0.00388980 0.32063906
v -0.16583702 -0.00417222 0.32057703
v -0.16583440 -0.00445294 0.32051041
v -0.16583167 -0.00473183 0.32043922
v -0.16582884 -0.00500876 0.32036346
v -0.16582592 -0.00528360 0.32028315
v -0.16582293 -0.00555623 0.32019829
f 33 143 144
f 146 150 162
f 150 144 147
f 144 143 147
f 147 119 150
f 148 146 162
f 61 146 148
f 145 144 150
f 150 146 145
f 145 33 144
f 61 33 145
f 145 146 61
f 132 137 150
f 150 119 132
f 32 33 1
f 143 33 32
f 150 137 149
f 61 148 75
f 162 139 75
f 75 148 162
f 141 139 162
f 132 118 120
f 123 132 122
f 123 100 132
f 162 150 161
f 150 160 161
f 161 140 162
f 150 158 159
f 159 160 150
f 159 158 137
f 137 160 159
f 138 160 137
f 140 161 138
f 138 161 160
f 150 154 155
f 155 156 150
f 155 154 137
f 137 156 155
f 157 158 150
f 150 156 157
f 137 158 157
f 157 156 137
f 137 154 153
f 153 152 137
f 153 154 150
f 150 152 153
f 151 149 137
f 137 152 151
f 150 149 151
f 151 152 150
f 162 140 142
f 142 141 162
f 139 141 135
f 135 141 109
f 114 112 97
f 122 132 121
f 132 120 121
f 119 147 95
f 95 147 143
f 143 32 95
f 96 120 118
f 104 123 122
f 132 100 131
f 137 132 131
f 131 128 137
f 61 75 74
f 75 73 74
f 46 11 1
f 134 142 140
f 109 141 136
f 141 142 136
f 142 134 136
f 111 114 110
f 114 93 110
f 110 93 47
f 30 93 78
f 78 11 30
f 78 93 114
f 45 93 30
f 47 93 45
f 30 11 45
f 124 75 139
f 124 97 75
f 114 97 124
f 88 95 32
f 119 95 88
f 117 118 132
f 132 115 117
f 98 121 120
f 120 96 98
f 98 96 57
f 100 123 102
f 123 104 102
f 1 100 102
f 102 104 1
f 94 131 100
f 128 131 94
f 28 33 61
f 1 33 28
f 28 29 1
f 26 21 1
f 18 23 1
f 1 20 18
f 1 21 22
f 70 69 75
f 75 69 71
f 35 71 69
f 73 42 40
f 40 74 73
f 40 38 74
f 40 42 1
f 1 38 40
f 80 92 7
f 114 124 80
f 80 124 92
f 10 11 76
f 1 11 10
f 4 50 5
f 4 100 1
f 4 94 100
f 111 46 113
f 113 114 111
f 113 112 114
f 48 46 111
f 111 110 48
f 48 110 47
f 11 46 48
f 24 97 112
f 105 134 140
f 76 11 77
f 11 78 77
f 77 114 76
f 77 78 114
f 86 115 116
f 116 88 86
f 119 88 116
f 116 132 119
f 116 115 132
f 90 96 118
f 118 117 90
f 3 37 32
f 32 57 58
f 58 60 32
f 59 88 32
f 32 60 59
f 86 88 59
f 59 60 86
f 122 121 101
f 37 3 101
f 56 98 57
f 37 98 56
f 126 81 82
f 137 128 127
f 82 81 53
f 53 5 54
f 6 5 53
f 1 29 25
f 25 26 1
f 19 20 1
f 1 22 19
f 19 63 20
f 22 63 19
f 72 73 75
f 75 71 72
f 72 42 73
f 1 35 17
f 17 70 75
f 69 70 17
f 17 35 69
f 1 42 41
f 42 72 41
f 41 72 71
f 34 38 1
f 74 38 34
f 61 74 62
f 74 63 62
f 21 26 62
f 62 22 21
f 62 63 22
f 26 25 62
f 62 25 29
f 62 28 61
f 29 28 62
f 74 67 66
f 23 18 66
f 66 67 23
f 79 10 76
f 80 10 79
f 76 114 79
f 114 80 79
f 8 80 7
f 8 10 80
f 8 7 1
f 1 10 8
f 92 124 130
f 130 107 92
f 130 124 139
f 139 135 130
f 135 107 130
f 108 135 109
f 108 107 135
f 36 108 109
f 107 108 36
f 7 92 9
f 1 7 9
f 9 4 1
f 92 107 9
f 107 36 9
f 112 113 44
f 44 113 46
f 44 46 1
f 75 97 14
f 97 24 14
f 14 24 1
f 109 136 106
f 106 50 109
f 106 136 134
f 134 105 106
f 129 138 137
f 138 129 91
f 52 106 105
f 87 115 86
f 87 117 115
f 86 60 87
f 60 58 87
f 2 32 1
f 2 3 32
f 1 104 2
f 104 3 2
f 65 58 57
f 90 58 65
f 57 96 65
f 96 90 65
f 121 98 99
f 99 101 121
f 99 98 37
f 37 101 99
f 103 3 104
f 103 101 3
f 103 104 122
f 122 101 103
f 81 126 125
f 125 126 137
f 137 127 125
f 128 94 85
f 85 127 128
f 85 4 5
f 94 4 85
f 6 53 31
f 31 53 81
f 16 15 1
f 1 17 16
f 16 75 15
f 16 17 75
f 39 35 1
f 1 41 39
f 71 35 39
f 39 41 71
f 1 23 27
f 27 34 1
f 23 67 27
f 67 34 27
f 68 67 74
f 74 34 68
f 68 34 67
f 20 63 64
f 64 18 20
f 64 66 18
f 64 63 74
f 74 66 64
f 4 36 49
f 50 4 49
f 109 50 49
f 49 36 109
f 75 12 13
f 15 75 13
f 13 12 1
f 1 15 13
f 43 24 112
f 112 44 43
f 1 24 43
f 43 44 1
f 83 53 54
f 82 53 83
f 83 91 129
f 83 126 82
f 137 126 83
f 83 129 137
f 140 138 133
f 138 91 133
f 133 105 140
f 133 91 105
f 54 5 55
f 5 52 55
f 55 83 54
f 91 83 55
f 105 91 55
f 55 52 105
f 5 50 51
f 51 52 5
f 50 106 51
f 106 52 51
f 89 90 117
f 117 87 89
f 89 58 90
f 89 87 58
f 84 125 127
f 127 85 84
f 81 125 84
f 84 31 81
f 6 31 84
f 84 5 6
f 84 85 5
f 48 45 11
f 47 45 48
f 32 37 56
f 56 57 32
f 9 36 4
f 1 12 14
f 14 12 75

