# https://github.com/mikedh/trimesh
v 0.04986313 0.06672915 0.36913619
v 0.04990592 0.06698783 0.36956331
v 0.04998063 0.06618883 0.36825906
v 0.05000746 0.06698292 0.36954785
v 0.05018182 0.06614860 0.36824703
v 0.05018258 0.06615287 0.36824429
v 0.05023737 0.06775405 0.37081375
v 0.05038225 0.06610410 0.36823773
v 0.05044045 0.06773110 0.37079086
v 0.05056516 0.06451023 0.36917544
v 0.05057855 0.06604281 0.36823941
v 0.05062224 0.06714854 0.36992779
v 0.05064239 0.06769514 0.37077609
v 0.05076852 0.06596540 0.36825208
v 0.05077037 0.06596932 0.36824936
v 0.05084207 0.06764638 0.37076953
v 0.05095663 0.06588406 0.36826746
v 0.05098573 0.06645499 0.36909931
v 0.05103837 0.06758508 0.37077121
v 0.05104647 0.06583577 0.36828055
v 0.05109341 0.06669783 0.36952429
v 0.05113630 0.06578749 0.36829364
v 0.05118654 0.06665519 0.36953336
v 0.05120109 0.06694066 0.36994928
v 0.05122234 0.06573383 0.36831071
v 0.05122543 0.06422810 0.36922739
v 0.05123018 0.06751160 0.37078113
v 0.05130838 0.06568017 0.36832779
v 0.05138296 0.06684786 0.36997278
v 0.05141645 0.06742633 0.37079926
v 0.05147189 0.06556268 0.36836966
v 0.05153828 0.06645131 0.36959367
v 0.05159612 0.06732977 0.37082544
v 0.05162592 0.06543569 0.36841904
v 0.05169777 0.06536780 0.36844734
v 0.05170180 0.06633382 0.36963554
v 0.05176819 0.06722244 0.37085956
v 0.05176962 0.06529990 0.36847565
v 0.05190218 0.06515608 0.36853918
v 0.05192768 0.06613894 0.36971324
v 0.05199953 0.06607104 0.36974155
v 0.05202286 0.06500504 0.36860928
v 0.05207692 0.06492632 0.36864742
v 0.05208574 0.06697797 0.37095084
v 0.05212035 0.06628015 0.37018469
v 0.05213098 0.06484760 0.36868555
v 0.05213209 0.06592722 0.36980508
v 0.05222594 0.06468466 0.36876755
v 0.05225277 0.06577617 0.36987518
v 0.05228918 0.06608357 0.37027378
v 0.05230721 0.06451713 0.36885486
v 0.05231590 0.06530738 0.36955681
v 0.05236089 0.06561874 0.36995145
v 0.05236544 0.06598074 0.37032257
v 0.05245585 0.06545580 0.37003345
v 0.05249648 0.06537203 0.37007710
v 0.05250083 0.06576716 0.37042808
v 0.05253711 0.06528827 0.37012076
v 0.05258666 0.06560116 0.37051362
f 10 26 59
f 59 7 10
f 2 7 1
f 1 10 2
f 2 10 7
f 59 26 58
f 26 51 58
f 48 51 26
f 26 10 48
f 10 22 48
f 59 57 44
f 44 7 59
f 3 10 1
f 11 22 10
f 10 3 11
f 34 22 31
f 55 57 59
f 54 44 57
f 1 7 4
f 4 3 1
f 37 44 36
f 31 28 36
f 36 44 34
f 34 31 36
f 19 16 30
f 30 29 22
f 30 13 44
f 30 16 13
f 37 22 33
f 22 29 33
f 29 30 33
f 33 44 37
f 33 30 44
f 56 55 59
f 59 58 56
f 56 58 51
f 35 38 22
f 35 22 34
f 43 48 42
f 43 46 48
f 53 54 57
f 57 55 53
f 46 43 53
f 6 13 12
f 13 16 12
f 19 11 8
f 8 16 19
f 8 12 16
f 6 12 8
f 8 11 3
f 9 13 6
f 6 3 9
f 3 4 9
f 7 44 9
f 44 13 9
f 9 4 7
f 14 11 15
f 15 17 14
f 14 17 11
f 22 11 20
f 11 17 20
f 20 30 22
f 32 22 37
f 37 36 32
f 32 36 28
f 25 31 22
f 25 28 31
f 22 32 25
f 25 32 28
f 52 55 48
f 48 46 52
f 52 53 55
f 46 53 52
f 44 54 50
f 48 38 39
f 42 48 39
f 5 3 6
f 6 8 5
f 5 8 3
f 23 20 17
f 30 20 23
f 18 17 15
f 18 21 17
f 40 41 38
f 44 41 40
f 38 35 40
f 44 50 45
f 45 50 47
f 45 41 44
f 45 39 38
f 47 39 45
f 38 41 45
f 49 50 54
f 42 39 49
f 47 50 49
f 49 39 47
f 30 23 24
f 17 21 24
f 24 23 17
f 21 18 27
f 27 24 21
f 27 18 15
f 27 11 19
f 19 30 27
f 30 24 27
f 15 11 27
f 38 48 22
f 48 55 56
f 51 48 56
f 40 35 34
f 34 44 40
f 49 43 42
f 54 53 49
f 49 53 43

