# https://github.com/mikedh/trimesh
v -0.10479464 0.11320628 0.29105051
v -0.10344535 0.11343484 0.28653922
v -0.10320531 0.11385269 0.28927493
v -0.10252385 0.11411071 0.28844097
v -0.10052515 0.11500541 0.28744320
v -0.09985636 0.11537529 0.28774853
v -0.09953549 0.11542701 0.28688221
v -0.09882522 0.11573075 0.28652495
v -0.09814995 0.11602818 0.28625749
v -0.09612070 0.11706440 0.28645679
v -0.09574564 0.11702799 0.28488838
v -0.09531373 0.11724714 0.28496220
v -0.09485004 0.11746798 0.28505080
v -0.08719936 0.12129943 0.28859231
f 2 14 1
f 2 11 14
f 1 14 10
f 14 11 13
f 13 10 14
f 1 10 6
f 9 10 11
f 11 10 12
f 12 13 11
f 10 13 12
f 3 2 1
f 1 6 3
f 7 6 10
f 2 3 4
f 4 3 6
f 5 7 2
f 6 7 5
f 2 4 5
f 5 4 6
f 10 9 8
f 8 7 10
f 2 7 8
f 11 2 8
f 8 9 11

