# https://github.com/mikedh/trimesh
v -0.01494240 0.03083526 0.31189999
v -0.01494240 0.03083526 0.31489999
v -0.01490254 0.03076623 0.31189999
v -0.01490254 0.03076623 0.31489999
v -0.01485764 0.03070037 0.31189999
v -0.01485764 0.03070037 0.31489999
v -0.01480794 0.03063805 0.31189999
v -0.01480794 0.03063805 0.31489999
v -0.01475372 0.03057961 0.31189999
v -0.01475372 0.03057961 0.31489999
v -0.01079384 0.03632636 0.31189999
v -0.01079384 0.03632636 0.31489999
v -0.00725093 0.03499759 0.31189999
v -0.00725093 0.03499759 0.31489999
v -0.00649807 0.02639094 0.31189999
v -0.00649807 0.02639094 0.31489999
v -0.00500242 0.03274907 0.31189999
v -0.00500242 0.03274907 0.31489999
v -0.00405745 0.03030373 0.31189999
v -0.00405745 0.03030373 0.31489999
v -0.00379227 0.02925530 0.31189999
v -0.00379227 0.02925530 0.31489999
f 12 11 1
f 1 2 12
f 9 16 10
f 15 16 9
f 22 15 21
f 22 16 15
f 17 13 14
f 18 17 14
f 11 12 14
f 14 13 11
f 20 19 17
f 20 17 18
f 21 19 20
f 20 22 21
f 11 13 3
f 1 11 3
f 21 15 3
f 3 19 21
f 17 19 3
f 3 13 17
f 15 9 3
f 9 7 3
f 3 7 5
f 3 2 1
f 3 4 2
f 6 3 5
f 4 3 6
f 8 12 2
f 18 14 8
f 8 20 18
f 10 16 8
f 16 22 8
f 8 14 12
f 22 20 8
f 2 4 8
f 4 6 8
f 8 9 10
f 8 7 9
f 5 7 8
f 8 6 5

