# https://github.com/mikedh/trimesh
v -0.11500000 0.04000000 0.31189999
v -0.11500000 0.04000000 0.31489999
v -0.10105763 0.03502782 0.31189999
v -0.10105763 0.03502782 0.31489999
v -0.09725093 0.03499759 0.31189999
v -0.09725093 0.03499759 0.31489999
v -0.09500242 0.03525093 0.31189999
v -0.09500242 0.03525093 0.31489999
v -0.07650000 0.04000000 0.31189999
v -0.07650000 0.04000000 0.31489999
f 7 3 1
f 1 9 7
f 5 3 7
f 10 9 1
f 1 2 10
f 10 7 9
f 8 7 10
f 1 3 4
f 4 2 1
f 6 10 2
f 8 10 6
f 2 4 6
f 5 7 6
f 6 7 8
f 6 3 5
f 6 4 3

