# https://github.com/mikedh/trimesh
v 0.05258455 -0.03251060 0.32592499
v 0.05551872 -0.03099390 0.32592499
v 0.05600000 -0.03750000 0.32592499
v 0.05966667 -0.03650000 0.32592499
v 0.06150000 -0.02800000 0.32592499
v 0.05258455 -0.03251060 0.32587499
v 0.05551872 -0.03099390 0.32587499
v 0.05600000 -0.03750000 0.32587499
v 0.05966667 -0.03650000 0.32587499
v 0.06150000 -0.02800000 0.32587499
f 4 2 1
f 1 3 4
f 5 2 4
f 5 4 10
f 10 4 9
f 8 3 1
f 1 6 8
f 8 4 3
f 9 4 8
f 7 10 9
f 9 8 7
f 7 8 6
f 1 2 7
f 7 6 1
f 7 2 5
f 5 10 7

