# https://github.com/mikedh/trimesh
v 0.03499759 -0.03274907 0.31189999
v 0.03499759 -0.03274907 0.31489999
v 0.03525093 -0.03499759 0.31189999
v 0.03525093 -0.03499759 0.31489999
v 0.04296447 -0.03494945 0.31189999
v 0.04296447 -0.03494945 0.31489999
v 0.04300000 -0.03490131 0.31189999
v 0.04300000 -0.03490131 0.31489999
v 0.04302392 -0.03463938 0.31189999
v 0.04302392 -0.03463938 0.31489999
v 0.04304535 -0.03278809 0.31189999
v 0.04304535 -0.03278809 0.31489999
f 12 11 1
f 1 2 12
f 1 3 4
f 4 2 1
f 3 5 4
f 4 5 6
f 7 3 1
f 1 11 7
f 7 5 3
f 11 9 7
f 11 12 10
f 10 9 11
f 8 12 2
f 2 4 8
f 8 4 6
f 8 10 12
f 6 5 8
f 5 7 8
f 8 7 9
f 9 10 8

