# https://github.com/mikedh/trimesh
v -0.11828018 0.05948464 0.22803117
v -0.11827633 0.05796900 0.22710539
v -0.11784530 0.06353565 0.22992842
v -0.11736072 0.06464533 0.22996158
v -0.11735675 0.06326476 0.22900243
v -0.11735288 0.06186512 0.22806383
v -0.11734913 0.06044681 0.22714608
v -0.11734547 0.05901023 0.22624944
v -0.11705890 0.06569811 0.23033163
v -0.11645140 0.06665287 0.23009823
v -0.11644763 0.06535999 0.22915863
v -0.11644579 0.06470471 0.22869791
v -0.11644395 0.06404942 0.22823719
v -0.11644036 0.06272149 0.22733418
v -0.11643862 0.06204901 0.22689201
v -0.11643687 0.06137653 0.22644985
v -0.11643347 0.06001489 0.22558447
v -0.11643181 0.05932591 0.22516138
v -0.11643015 0.05863693 0.22473829
v -0.11612967 0.05847545 0.22434192
v -0.11554830 0.06612342 0.22860944
v -0.11554495 0.06488115 0.22772617
v -0.11554330 0.06425217 0.22729283
v -0.11554166 0.06362318 0.22685949
v -0.11553842 0.06234983 0.22600963
v -0.11553522 0.06106138 0.22517685
v -0.11553206 0.05975813 0.22436134
v -0.11509180 0.06221030 0.22551854
v -0.11495228 0.06585313 0.22785886
v -0.11494915 0.06464566 0.22701227
v -0.11494606 0.06342377 0.22618133
f 31 29 2
f 2 20 31
f 1 8 2
f 9 29 10
f 9 3 1
f 1 2 9
f 9 2 29
f 19 27 20
f 20 2 19
f 19 2 8
f 31 20 28
f 20 27 28
f 30 29 31
f 10 29 21
f 10 21 11
f 22 21 29
f 29 30 22
f 22 11 21
f 18 19 8
f 8 17 18
f 27 19 18
f 18 17 27
f 7 17 8
f 7 8 1
f 16 17 7
f 1 3 7
f 3 5 6
f 6 7 3
f 16 7 6
f 6 15 16
f 12 22 13
f 11 22 12
f 14 5 13
f 15 6 14
f 14 6 5
f 4 5 3
f 4 9 10
f 3 9 4
f 10 11 4
f 11 12 4
f 13 5 4
f 4 12 13
f 23 22 30
f 13 22 23
f 16 15 25
f 31 28 25
f 15 14 25
f 26 28 27
f 26 25 28
f 16 25 26
f 26 17 16
f 27 17 26
f 24 25 14
f 24 14 13
f 13 23 24
f 31 25 24
f 24 30 31
f 24 23 30

