# https://github.com/mikedh/trimesh
v -0.09958022 -0.08144414 0.36620819
v -0.09949708 -0.08296289 0.36487297
v -0.09904450 -0.08454292 0.36360981
v -0.09894921 -0.08016225 0.36477068
v -0.09862824 -0.07956132 0.36401865
v -0.09835758 -0.08533377 0.36319364
v -0.09829890 -0.07900455 0.36323172
v -0.09742894 -0.07854076 0.36119516
v -0.09738119 -0.07864816 0.36112357
v -0.09732981 -0.07875515 0.36105389
v -0.09727487 -0.07886165 0.36098621
v -0.09721640 -0.07896754 0.36092056
v -0.09715446 -0.07907275 0.36085703
v -0.09708911 -0.07917716 0.36079565
v -0.09702040 -0.07928070 0.36073648
v -0.09694839 -0.07938327 0.36067960
v -0.09687316 -0.07948477 0.36062503
v -0.09686687 -0.08303342 0.36688052
v -0.09682884 -0.08307531 0.36686102
v -0.09679475 -0.07958511 0.36057281
v -0.09678957 -0.08311655 0.36684265
v -0.09675401 -0.07963466 0.36054793
v -0.09674908 -0.08315709 0.36682538
v -0.09671326 -0.07968421 0.36052304
v -0.09670743 -0.08319690 0.36680927
v -0.09666463 -0.08323595 0.36679428
v -0.09662875 -0.07978198 0.36047571
v -0.09662074 -0.08327420 0.36678049
v -0.09657578 -0.08331161 0.36676785
v -0.09654128 -0.07987833 0.36043088
v -0.09652980 -0.08334817 0.36675641
v -0.09648733 -0.08117308 0.36554383
v -0.09648285 -0.08338382 0.36674615
v -0.09645096 -0.07997317 0.36038861
v -0.09643496 -0.08341853 0.36673712
v -0.09638617 -0.08345229 0.36672931
v -0.09635785 -0.08006641 0.36034891
v -0.09633654 -0.08348505 0.36672272
v -0.09628609 -0.08351679 0.36671735
v -0.09626203 -0.08015799 0.36031183
v -0.09626116 -0.08015740 0.36031270
v -0.09623489 -0.08354749 0.36671323
v -0.09618298 -0.08357710 0.36671033
v -0.09616360 -0.08024780 0.36027737
v -0.09614515 -0.08046613 0.36474980
v -0.09613039 -0.08360561 0.36670868
v -0.09607719 -0.08363298 0.36670828
v -0.09606264 -0.08033578 0.36024564
v -0.09602341 -0.08365921 0.36670911
v -0.09601094 -0.08037880 0.36023111
v -0.09596910 -0.08368425 0.36671118
v -0.09595924 -0.08042183 0.36021658
v -0.09591432 -0.08370810 0.36671451
v -0.09585912 -0.08373072 0.36671906
v -0.09585349 -0.08050590 0.36019028
v -0.09580353 -0.08375210 0.36672482
v -0.09574550 -0.08058789 0.36016672
v -0.09563535 -0.08066775 0.36014594
v -0.09552315 -0.08074538 0.36012796
v -0.09546606 -0.08078306 0.36012038
v -0.09540898 -0.08082074 0.36011279
v -0.09529297 -0.08089375 0.36010046
v -0.09524391 -0.08541455 0.36461335
v -0.09517521 -0.08096433 0.36009097
v -0.09509628 -0.07839181 0.36233744
v -0.09505580 -0.08103244 0.36008432
v -0.09493485 -0.08109801 0.36008051
v -0.09481248 -0.08116097 0.36007956
v -0.09468879 -0.08122129 0.36008148
v -0.09463065 -0.08416561 0.36316094
v -0.09456389 -0.08127889 0.36008627
v -0.09447852 -0.08279251 0.36161250
v -0.09443789 -0.08133373 0.36009387
v -0.09442355 -0.08097914 0.36350647
v -0.09431091 -0.08138577 0.36010434
v -0.09423872 -0.07933636 0.36189805
f 56 6 63
f 74 56 63
f 73 68 76
f 76 75 73
f 73 75 6
f 63 6 70
f 70 74 63
f 70 75 76
f 76 74 70
f 1 2 18
f 4 2 1
f 2 4 5
f 65 45 56
f 56 74 65
f 65 4 45
f 65 74 76
f 65 5 4
f 76 68 65
f 68 30 65
f 69 6 68
f 68 73 69
f 6 75 72
f 72 70 6
f 75 70 72
f 56 45 32
f 32 18 56
f 1 18 32
f 32 4 1
f 45 4 32
f 3 18 2
f 3 2 8
f 15 65 30
f 15 3 14
f 44 30 68
f 71 73 6
f 6 69 71
f 71 69 73
f 5 65 7
f 2 5 7
f 7 65 8
f 8 2 7
f 8 65 10
f 65 15 10
f 20 15 30
f 30 44 37
f 6 36 35
f 33 35 36
f 6 35 33
f 18 3 19
f 56 18 54
f 18 53 54
f 6 56 54
f 54 53 6
f 28 53 18
f 28 26 6
f 6 43 42
f 42 39 6
f 6 53 51
f 12 10 15
f 9 3 8
f 8 10 9
f 9 10 3
f 3 15 16
f 15 20 16
f 27 30 6
f 27 20 30
f 6 3 24
f 24 27 6
f 68 6 67
f 6 66 67
f 6 62 64
f 64 66 6
f 62 67 64
f 64 67 66
f 61 62 6
f 61 67 62
f 68 67 61
f 61 44 68
f 61 52 44
f 6 30 34
f 34 37 6
f 30 37 34
f 40 44 6
f 6 37 40
f 55 57 6
f 6 52 55
f 55 52 57
f 6 44 48
f 31 33 36
f 6 33 31
f 18 19 21
f 21 28 18
f 21 19 3
f 53 28 47
f 28 42 47
f 13 15 14
f 13 12 15
f 14 3 13
f 3 12 13
f 3 10 11
f 11 12 3
f 10 12 11
f 17 20 3
f 3 16 17
f 17 16 20
f 3 20 22
f 22 24 3
f 20 27 22
f 27 24 22
f 52 61 58
f 57 52 58
f 6 57 58
f 41 37 44
f 44 40 41
f 41 40 37
f 50 52 6
f 6 48 50
f 44 52 50
f 50 48 44
f 38 42 28
f 28 31 38
f 38 31 36
f 39 42 38
f 38 36 6
f 6 39 38
f 29 28 6
f 6 31 29
f 29 31 28
f 26 28 25
f 28 21 25
f 6 26 25
f 46 42 43
f 46 47 42
f 46 43 6
f 6 47 46
f 49 51 53
f 53 47 49
f 6 51 49
f 49 47 6
f 59 58 60
f 60 58 61
f 6 59 60
f 60 61 6
f 23 21 3
f 23 25 21
f 23 3 6
f 6 25 23
f 58 59 6

