# https://github.com/mikedh/trimesh
v 0.11809689 0.00692543 0.24450177
v 0.11809689 0.00722993 0.24456731
v 0.11809689 0.00753377 0.24463570
v 0.11809689 0.00813935 0.24478107
v 0.11882043 0.00756262 0.24528554
v 0.11882043 0.01201324 0.24629747
v 0.12026750 0.01128719 0.24730828
v 0.12026750 0.01251564 0.24751859
v 0.12026750 0.01312651 0.24764104
v 0.12026750 0.01373739 0.24776349
v 0.12026750 0.01434639 0.24789456
v 0.12026750 0.01495407 0.24803136
v 0.12026750 0.01616522 0.24832208
f 7 13 6
f 7 6 5
f 4 6 13
f 1 5 4
f 4 5 6
f 7 5 8
f 8 5 1
f 11 10 1
f 12 11 3
f 1 10 9
f 9 8 1
f 2 11 1
f 2 3 11
f 13 12 3
f 3 4 13
f 9 12 13
f 9 13 7
f 7 8 9
f 10 11 9
f 9 11 12
f 4 3 2
f 1 4 2

