# https://github.com/mikedh/trimesh
v -0.15536937 -0.04856793 0.30847620
v -0.15535263 -0.04857935 0.30861729
v -0.15530140 -0.04876553 0.30857481
v -0.15526336 -0.04876968 0.30892311
v -0.15521566 -0.04887609 0.30912245
v -0.15521159 -0.04884015 0.30988665
v -0.15520765 -0.04892676 0.30878971
v -0.15518491 -0.04889523 0.30998070
v -0.15514812 -0.04905268 0.30903706
v -0.15510291 -0.04910673 0.30999196
v -0.15506465 -0.04923162 0.30981443
v -0.15505879 -0.04932731 0.30864996
v -0.15502302 -0.04931448 0.31000381
v -0.15499172 -0.04946536 0.30894495
v -0.15480243 -0.05000128 0.30852911
v -0.15479606 -0.04990811 0.30999116
v -0.15474627 -0.05011014 0.30884356
v -0.15472889 -0.05008624 0.30995479
v -0.15461718 -0.05048988 0.30843237
v -0.15459178 -0.05052354 0.30871119
v -0.15458480 -0.05046605 0.30988145
v -0.15456158 -0.05057669 0.30898185
v -0.15452668 -0.05071301 0.30855558
v -0.15448381 -0.05078998 0.30887566
v -0.15447915 -0.05079264 0.30908408
v -0.15427091 -0.05171682 0.30588502
f 2 26 1
f 1 26 3
f 21 3 26
f 1 3 6
f 6 2 1
f 26 24 25
f 25 21 26
f 24 21 25
f 23 24 26
f 26 19 23
f 16 21 13
f 13 6 16
f 26 2 7
f 24 23 20
f 20 23 19
f 8 6 13
f 9 5 8
f 2 6 8
f 3 21 18
f 18 16 3
f 21 16 18
f 11 6 3
f 3 16 11
f 11 16 6
f 4 7 2
f 9 7 4
f 4 5 9
f 2 8 4
f 4 8 5
f 15 19 26
f 15 7 19
f 24 20 22
f 13 21 22
f 22 21 24
f 14 7 9
f 9 22 14
f 19 7 14
f 14 20 19
f 26 7 12
f 12 15 26
f 7 15 12
f 10 8 13
f 13 22 10
f 9 8 10
f 10 22 9
f 17 22 20
f 20 14 17
f 17 14 22

