# https://github.com/mikedh/trimesh
v 0.04300000 0.03499759 0.31189999
v 0.04300000 0.03499759 0.31489999
v 0.04300000 0.04000000 0.31189999
v 0.04300000 0.04000000 0.31489999
v 0.05074907 0.03499759 0.31189999
v 0.05074907 0.03499759 0.31489999
v 0.05100241 0.03525093 0.31189999
v 0.05100241 0.03525093 0.31489999
v 0.05236703 0.03685764 0.31189999
v 0.05236703 0.03685764 0.31489999
f 1 2 4
f 4 3 1
f 3 4 10
f 9 3 10
f 1 3 7
f 7 3 9
f 7 5 1
f 6 2 1
f 1 5 6
f 8 4 2
f 8 10 4
f 2 6 8
f 9 10 8
f 8 7 9
f 5 7 8
f 8 6 5

