# https://github.com/mikedh/trimesh
v -0.16707988 -0.01352663 0.31983421
v -0.16707988 -0.01407031 0.31937246
v -0.16625568 -0.01391663 0.32243211
v -0.16621330 -0.01685918 0.32040652
v -0.16621185 -0.01440548 0.32226705
v -0.16620750 -0.01629409 0.32090958
v -0.16619931 -0.01522403 0.32175616
v -0.16619776 -0.01253618 0.32338721
v -0.16619440 -0.01340409 0.32292719
v -0.16608074 -0.01838041 0.31950114
v -0.16608067 -0.01852339 0.31934859
v -0.16608059 -0.01808725 0.31980038
v -0.16608029 -0.01778618 0.32009418
v -0.16607992 -0.01614928 0.32148818
v -0.16484520 -0.02171036 0.32135434
v -0.16383549 -0.02351695 0.32355090
v -0.16374784 -0.02016675 0.32624052
f 17 16 11
f 17 11 8
f 1 8 2
f 2 8 11
f 14 16 17
f 17 7 14
f 14 7 1
f 15 11 16
f 17 8 9
f 9 3 17
f 9 8 1
f 1 3 9
f 5 7 17
f 17 3 5
f 1 7 5
f 5 3 1
f 15 4 13
f 13 4 2
f 6 15 16
f 6 4 15
f 16 14 6
f 6 14 1
f 1 2 6
f 2 4 6
f 15 13 12
f 12 13 2
f 11 15 10
f 15 12 10
f 10 2 11
f 10 12 2

