# https://github.com/mikedh/trimesh
v 0.06925972 -0.08185449 0.23238891
v 0.07020500 -0.07963554 0.23121010
v 0.07020500 -0.07825985 0.23003310
v 0.07030289 -0.08800144 0.24284677
v 0.07088424 -0.07705476 0.22963847
v 0.07110671 -0.07669745 0.22951250
v 0.07161198 -0.07372695 0.23116869
v 0.07249291 -0.07466635 0.22896330
v 0.07327015 -0.07541400 0.23019870
v 0.07741486 -0.06329330 0.22853807
f 1 4 7
f 7 4 10
f 9 4 1
f 1 2 9
f 10 4 9
f 5 7 10
f 10 6 5
f 10 9 8
f 8 6 10
f 1 7 3
f 7 5 3
f 3 2 1
f 3 5 6
f 3 9 2
f 3 8 9
f 6 8 3

