# https://github.com/mikedh/trimesh
v 0.07529619 -0.06174657 0.22588332
v 0.07575340 -0.06012179 0.22526802
v 0.07712154 -0.05868399 0.22553815
v 0.07712241 -0.05815728 0.22523148
v 0.07712287 -0.05762765 0.22492906
v 0.07712334 -0.05709802 0.22462665
v 0.07741486 -0.06329330 0.22853807
v 0.07984180 -0.05628536 0.22655090
v 0.07984394 -0.05278025 0.22464114
v 0.08048235 -0.04645290 0.22286669
f 7 10 1
f 1 10 2
f 10 6 2
f 2 7 1
f 10 7 8
f 7 2 3
f 3 8 7
f 9 6 10
f 10 8 9
f 9 8 6
f 4 3 2
f 8 3 4
f 5 2 6
f 5 4 2
f 6 8 5
f 8 4 5

