# https://github.com/mikedh/trimesh
v 0.03508828 0.03282712 0.31189999
v 0.03508828 0.03282712 0.31489999
v 0.03532198 0.03490131 0.31189999
v 0.03532198 0.03490131 0.31489999
v 0.04036276 0.03277509 0.31189999
v 0.04036276 0.03277509 0.31489999
v 0.04300000 0.03499759 0.31189999
v 0.04300000 0.03499759 0.31489999
v 0.05074907 0.03499759 0.31189999
v 0.05074907 0.03499759 0.31489999
v 0.05100241 0.03274907 0.31189999
v 0.05100241 0.03274907 0.31489999
f 1 3 9
f 9 5 1
f 11 5 9
f 9 3 7
f 11 9 12
f 12 9 10
f 4 3 1
f 1 2 4
f 1 5 6
f 6 2 1
f 6 5 11
f 11 12 6
f 8 12 10
f 8 4 2
f 2 6 8
f 8 6 12
f 8 9 7
f 10 9 8
f 7 3 8
f 3 4 8

