# https://github.com/mikedh/trimesh
v 0.08006046 -0.03598101 0.21777002
v 0.08080537 -0.03666306 0.21878609
v 0.08152858 -0.03475932 0.21646756
v 0.08176132 -0.03029310 0.21740802
v 0.08195176 -0.03691909 0.21651343
v 0.08226265 -0.03414847 0.21581633
v 0.08305801 -0.03964635 0.21963022
v 0.08309174 -0.03136705 0.21562378
v 0.08346770 -0.02451498 0.21739748
v 0.08352190 -0.03420463 0.22066588
v 0.08440502 -0.03111251 0.22016667
v 0.08471668 -0.03477644 0.22165666
v 0.08475228 -0.02574240 0.21556621
f 12 7 13
f 5 7 1
f 1 7 2
f 7 12 2
f 2 9 1
f 1 9 4
f 4 9 13
f 11 12 13
f 13 9 11
f 11 9 12
f 13 7 8
f 7 5 8
f 5 6 8
f 8 4 13
f 1 4 8
f 12 9 10
f 10 2 12
f 9 2 10
f 3 5 1
f 3 6 5
f 1 8 3
f 3 8 6

