# https://github.com/mikedh/trimesh
v -0.14293141 -0.07935215 0.30905503
v -0.14024600 -0.07879962 0.30986564
v -0.14019424 -0.08274740 0.31051526
v -0.14018091 -0.08304220 0.30742238
v -0.13998576 -0.08329361 0.30740818
v -0.13994365 -0.07939982 0.30756672
v -0.13988394 -0.07947441 0.30752514
v -0.13985162 -0.07960354 0.30687565
v -0.13965243 -0.07959494 0.30995193
v -0.13923446 -0.08432395 0.30608509
v -0.13921505 -0.08425927 0.30728567
v -0.13824987 -0.08544301 0.30714021
v -0.13822964 -0.08140042 0.31008813
v -0.13793009 -0.08176061 0.31007263
v -0.13792335 -0.08567405 0.30937699
v -0.13763956 -0.08212566 0.30999410
v -0.13603744 -0.08436609 0.30668061
v -0.13534399 -0.08501398 0.30891508
v -0.13529874 -0.08520359 0.30675666
v -0.13526961 -0.08525008 0.30670607
v -0.13526321 -0.08526247 0.30670660
v -0.13525853 -0.08512605 0.30883951
v -0.13525043 -0.08528726 0.30670766
v -0.13520441 -0.08533890 0.30672828
v -0.13516412 -0.08538798 0.30675238
v -0.13514534 -0.08527408 0.30876385
v -0.13512955 -0.08543449 0.30677995
v -0.13508638 -0.08540709 0.30751516
v -0.13503912 -0.08546419 0.30755337
f 3 2 1
f 29 2 18
f 2 16 18
f 18 16 3
f 3 15 18
f 28 2 29
f 29 19 28
f 28 19 2
f 2 19 7
f 7 19 8
f 29 15 27
f 27 15 12
f 10 27 12
f 1 8 10
f 4 3 1
f 1 10 4
f 26 15 29
f 26 18 15
f 2 3 9
f 9 13 2
f 3 13 9
f 3 16 14
f 14 13 3
f 14 16 2
f 2 13 14
f 2 7 6
f 6 7 8
f 1 2 6
f 6 8 1
f 17 10 8
f 12 15 11
f 11 10 12
f 29 18 22
f 22 26 29
f 18 26 22
f 8 19 20
f 20 17 8
f 10 17 20
f 27 10 25
f 25 20 19
f 25 19 29
f 29 27 25
f 5 4 10
f 10 11 5
f 3 4 5
f 5 15 3
f 5 11 15
f 21 23 10
f 10 20 21
f 10 23 24
f 24 25 10
f 20 25 24
f 23 21 24
f 24 21 20

