# https://github.com/mikedh/trimesh
v -0.11034414 -0.09066265 0.24252661
v -0.11018700 -0.09199391 0.24407362
v -0.11002979 -0.09265018 0.24478328
v -0.10971504 -0.09336413 0.24536785
v -0.10971452 -0.09275614 0.24453882
v -0.10932274 -0.09154478 0.24241656
v -0.10911940 -0.08931241 0.24409458
v -0.10879562 -0.08871981 0.24303862
v -0.10877011 -0.09459714 0.24614713
v -0.10850859 -0.08861625 0.24257781
v -0.10784261 -0.09199922 0.24634306
v -0.10764306 -0.09115449 0.24500942
f 12 9 6
f 10 6 1
f 12 6 10
f 11 9 12
f 1 6 2
f 2 7 1
f 2 3 7
f 7 11 8
f 8 10 1
f 1 7 8
f 12 10 8
f 8 11 12
f 7 3 4
f 4 11 7
f 9 11 4
f 4 6 9
f 3 2 4
f 5 2 6
f 6 4 5
f 5 4 2

