# https://github.com/mikedh/trimesh
v -0.11953583 0.04878500 0.22435741
v -0.11921789 0.05201775 0.22538258
v -0.11921440 0.05033777 0.22453741
v -0.11921104 0.04863919 0.22372050
v -0.11874349 0.05338586 0.22537050
v -0.11826897 0.05488001 0.22532610
v -0.11826546 0.05330770 0.22447320
v -0.11826208 0.05171754 0.22364520
v -0.11825881 0.05011004 0.22284240
v -0.11825567 0.04848575 0.22206506
v -0.11763091 0.04678041 0.22037737
v -0.11734193 0.05755581 0.22537423
v -0.11733849 0.05608395 0.22452070
v -0.11733682 0.05533953 0.22410492
v -0.11733515 0.05459510 0.22368913
v -0.11733191 0.05308969 0.22287979
v -0.11732877 0.05156817 0.22209293
v -0.11732724 0.05079957 0.22171088
v -0.11732572 0.05003098 0.22132883
v -0.11732424 0.04925477 0.22095827
v -0.11642690 0.05724302 0.22391157
v -0.11612340 0.05571201 0.22274313
v -0.11556906 0.05460197 0.22121258
f 1 12 5
f 5 2 1
f 12 2 5
f 11 20 23
f 11 22 1
f 23 22 11
f 21 22 23
f 21 12 1
f 1 22 21
f 1 2 3
f 20 11 10
f 23 16 15
f 17 16 23
f 8 3 2
f 9 3 8
f 8 17 9
f 16 17 8
f 4 3 9
f 9 10 4
f 1 3 4
f 4 11 1
f 4 10 11
f 23 15 14
f 18 17 23
f 9 17 18
f 12 21 13
f 13 21 23
f 23 14 13
f 9 18 19
f 20 10 19
f 19 10 9
f 23 20 19
f 19 18 23
f 7 15 16
f 16 8 7
f 7 8 2
f 6 14 15
f 15 7 6
f 6 13 14
f 12 13 6
f 6 2 12
f 6 7 2

