# https://github.com/mikedh/trimesh
v 0.05392446 0.11770361 0.27582776
v 0.05393922 0.11770907 0.27586524
v 0.05396691 0.11772065 0.27595173
v 0.05400388 0.11773690 0.27607691
v 0.05427030 0.11765219 0.27622536
v 0.05470063 0.11577794 0.27675217
v 0.05603160 0.11432400 0.27702792
v 0.05696178 0.11646227 0.27645737
v 0.05726932 0.11545826 0.27663190
v 0.05756975 0.11445731 0.27680594
v 0.05840240 0.11543108 0.27512890
v 0.05881458 0.11558851 0.27641040
v 0.05883903 0.11557748 0.27640856
v 0.05887770 0.11538630 0.27575632
v 0.05888279 0.11539061 0.27577926
v 0.06061944 0.11468019 0.27624384
f 11 7 1
f 16 7 11
f 1 7 6
f 7 8 6
f 10 7 16
f 10 12 7
f 9 8 7
f 7 12 9
f 9 12 8
f 13 10 16
f 12 10 13
f 16 15 13
f 8 12 13
f 16 11 14
f 14 15 16
f 11 15 14
f 1 6 4
f 4 13 15
f 5 6 8
f 5 4 6
f 8 13 5
f 13 4 5
f 1 4 3
f 3 15 11
f 3 4 15
f 2 11 1
f 1 3 2
f 2 3 11

