# https://github.com/mikedh/trimesh
v -0.01341142 0.12893314 0.27057510
v -0.01325433 0.12934137 0.27162570
v -0.01123902 0.12673372 0.27119857
v -0.01114382 0.12695246 0.27188205
v -0.01023323 0.12665017 0.27086029
v -0.01015633 0.12682684 0.27141234
v -0.00785947 0.12897837 0.27010664
v -0.00785500 0.12898573 0.27012743
v -0.00781964 0.12904427 0.27029376
v -0.00781089 0.12905878 0.27033537
v -0.00720454 0.12642527 0.26992422
v -0.00605820 0.12886228 0.26961415
v -0.00603165 0.12890621 0.26973889
v -0.00600224 0.12895491 0.26987752
v -0.00599061 0.12897424 0.26993301
v -0.00391704 0.13014720 0.27331350
v -0.00247356 0.12860062 0.26854602
f 1 17 11
f 16 11 17
f 2 17 1
f 1 4 2
f 2 4 16
f 3 4 1
f 11 16 6
f 16 4 6
f 4 3 6
f 15 16 17
f 15 2 16
f 11 6 5
f 5 6 3
f 1 11 5
f 5 3 1
f 12 13 17
f 9 13 2
f 17 2 7
f 7 12 17
f 2 13 8
f 13 12 8
f 8 7 2
f 12 7 8
f 2 15 10
f 13 9 14
f 14 15 17
f 17 13 14
f 14 10 15
f 14 9 2
f 2 10 14

