# https://github.com/mikedh/trimesh
v 0.07157343 -0.06463183 0.22459425
v 0.07161280 -0.06610115 0.22560316
v 0.07217647 -0.06650145 0.22650287
v 0.07244752 -0.06506733 0.22582038
v 0.07308908 -0.06557100 0.22665290
v 0.07310632 -0.06501577 0.22262669
v 0.07327449 -0.05915377 0.22259456
v 0.07355237 -0.06853352 0.22560571
v 0.07355904 -0.06744948 0.22479590
v 0.07356360 -0.06676479 0.22429681
v 0.07438347 -0.06314555 0.22590939
v 0.07449461 -0.06650066 0.22495285
v 0.07468094 -0.05830833 0.22340275
v 0.07478336 -0.05962632 0.22070540
v 0.07527543 -0.06285459 0.22309438
f 8 5 3
f 5 13 3
f 12 6 15
f 2 3 1
f 8 3 2
f 1 6 2
f 2 6 8
f 1 3 4
f 4 3 13
f 6 12 10
f 11 13 5
f 11 5 8
f 8 12 11
f 15 13 11
f 11 12 15
f 1 4 7
f 7 4 13
f 7 6 1
f 15 6 14
f 14 13 15
f 6 7 14
f 14 7 13
f 8 6 9
f 6 10 9
f 9 12 8
f 9 10 12

