# https://github.com/mikedh/trimesh
v -0.02385768 -0.13152399 0.28147372
v -0.01658694 -0.13036802 0.27554000
v -0.01656895 -0.13041274 0.27570366
v -0.01655714 -0.13044223 0.27581288
v -0.01644042 -0.13082974 0.27734681
v -0.01640776 -0.13091313 0.27767686
v -0.01639181 -0.13095413 0.27784273
v -0.01638154 -0.13098063 0.27795094
v -0.01636673 -0.13101893 0.27810857
v -0.01634664 -0.13107119 0.27832817
v -0.01285040 -0.13031259 0.27488364
v -0.01281425 -0.13040236 0.27521088
v -0.01279644 -0.13044675 0.27537463
v -0.01277881 -0.13049083 0.27553851
v -0.01274447 -0.13057727 0.27586647
v -0.01271014 -0.13066371 0.27619443
v -0.01264433 -0.13083124 0.27685132
v -0.01261215 -0.13091388 0.27718457
v -0.01259649 -0.13095422 0.27734894
v -0.01258890 -0.13097381 0.27742906
v -0.01258132 -0.13099339 0.27750919
v -0.01255207 -0.13106911 0.27782184
v -0.01245274 -0.13132869 0.27892636
v -0.01244563 -0.13134764 0.27901282
v -0.01243851 -0.13136659 0.27909927
v -0.01243222 -0.13138352 0.27917989
v -0.01242593 -0.13140045 0.27926050
v -0.00905357 -0.13034605 0.27469043
v -0.00904176 -0.13037554 0.27479964
v -0.00900405 -0.13046401 0.27512915
v -0.00892436 -0.13064088 0.27579187
v -0.00884196 -0.13081615 0.27646183
v -0.00881807 -0.13087197 0.27668413
v -0.00880009 -0.13091288 0.27684735
v -0.00877044 -0.13097902 0.27711235
v -0.00873460 -0.13106113 0.27745081
v -0.00864897 -0.13126241 0.27829355
v -0.00863209 -0.13129949 0.27844924
v -0.00861676 -0.13133594 0.27861600
v -0.00840125 -0.13133595 0.27908992
f 1 40 2
f 40 28 2
f 2 28 11
f 27 40 1
f 32 28 40
f 40 27 39
f 39 38 40
f 35 32 40
f 26 39 27
f 26 27 1
f 38 39 25
f 39 26 25
f 25 26 1
f 12 2 11
f 11 28 12
f 28 32 31
f 10 23 1
f 23 10 22
f 22 38 23
f 40 38 36
f 36 35 40
f 34 35 17
f 32 35 34
f 23 38 24
f 38 25 24
f 17 4 16
f 16 32 17
f 16 31 32
f 14 4 13
f 13 12 28
f 28 31 30
f 30 31 14
f 1 8 9
f 9 10 1
f 9 22 10
f 38 22 37
f 37 36 38
f 22 36 37
f 17 32 33
f 33 34 17
f 32 34 33
f 15 4 14
f 15 16 4
f 14 31 15
f 31 16 15
f 5 4 17
f 17 6 5
f 1 4 5
f 5 6 1
f 12 13 3
f 3 13 4
f 2 12 3
f 1 2 3
f 3 4 1
f 28 30 29
f 29 30 14
f 29 13 28
f 14 13 29
f 21 9 8
f 22 9 21
f 35 36 21
f 21 36 22
f 7 19 8
f 7 8 1
f 1 6 7
f 8 19 20
f 20 21 8
f 20 19 35
f 35 21 20
f 19 7 18
f 35 19 18
f 18 7 6
f 17 35 18
f 18 6 17
f 1 23 24
f 24 25 1

