# https://github.com/mikedh/trimesh
v 0.00500679 0.06625668 0.31189999
v 0.00500679 0.06625668 0.31489999
v 0.00684623 0.06489912 0.31189999
v 0.00684623 0.06489912 0.31489999
v 0.00896817 0.07076624 0.31189999
v 0.00896817 0.07076624 0.31489999
v 0.01041901 0.06543774 0.31489999
v 0.01070990 0.06493379 0.31189999
v 0.01267109 0.07404862 0.31189999
v 0.01325714 0.07175162 0.31189999
v 0.01325714 0.07175162 0.31489999
v 0.01367142 0.06941751 0.31189999
v 0.01391165 0.06705913 0.31489999
f 13 8 12
f 12 11 13
f 4 3 8
f 9 5 6
f 6 11 9
f 9 11 10
f 11 12 10
f 7 8 13
f 7 4 8
f 1 3 4
f 4 2 1
f 6 5 1
f 1 2 6
f 1 5 10
f 10 3 1
f 10 5 9
f 10 12 8
f 8 3 10
f 7 6 2
f 13 11 7
f 2 4 7
f 11 6 7

