# https://github.com/mikedh/trimesh
v -0.00100000 -0.02602500 0.31339999
v -0.00100000 -0.02602500 0.31489999
v 0.01500000 -0.02602500 0.31189999
v 0.01500000 -0.02602500 0.31489999
v 0.03100000 -0.02602500 0.31189999
v 0.03100000 -0.02602500 0.31339999
v -0.00100000 -0.02597500 0.31339999
v -0.00100000 -0.02597500 0.31489999
v 0.01500000 -0.02597500 0.31189999
v 0.01500000 -0.02597500 0.31489999
v 0.03100000 -0.02597500 0.31189999
v 0.03100000 -0.02597500 0.31339999
f 1 2 8
f 8 7 1
f 9 3 1
f 1 7 9
f 5 3 9
f 9 11 5
f 1 3 4
f 4 2 1
f 4 3 5
f 5 6 4
f 4 8 2
f 10 8 4
f 7 8 12
f 12 8 10
f 12 9 7
f 11 9 12
f 12 4 6
f 10 4 12
f 12 6 5
f 5 11 12

