# https://github.com/mikedh/trimesh
v 0.20951505 -0.02346939 0.56568083
v 0.21389683 -0.02273168 0.56071452
v 0.21477157 -0.02252050 0.56196991
v 0.21477157 -0.02252049 0.56194403
v 0.21477157 -0.02252047 0.56188658
v 0.21483144 -0.02249932 0.56108807
v 0.21521843 -0.02237184 0.56313866
v 0.21525000 -0.02239231 0.56190332
v 0.21525000 -0.02239230 0.56168646
v 0.21578972 -0.02224222 0.56240289
v 0.21596960 -0.02213765 0.56314099
v 0.21637365 -0.02200363 0.55988322
v 0.21668489 -0.02199507 0.56244157
v 0.21668906 -0.02200095 0.56106604
v 0.21739492 -0.02178453 0.56262568
v 0.21740833 -0.02179498 0.56236450
v 0.21740833 -0.02179546 0.56235370
v 0.21740833 -0.02179449 0.56237524
v 0.21756858 -0.01982663 0.56522967
v 0.21771743 -0.02172250 0.56078478
v 0.21778517 -0.02147477 0.56355139
v 0.21879705 -0.02138434 0.56256522
v 0.21889101 -0.02135911 0.56005393
v 0.21902573 -0.02134099 0.56030701
v 0.21920532 -0.02129980 0.56045819
v 0.21920532 -0.02129937 0.56044769
v 0.21920532 -0.02129893 0.56043719
v 0.21920532 -0.02129847 0.56042670
v 0.21920532 -0.02129823 0.56042145
v 0.21920532 -0.02130021 0.56046869
v 0.21932504 -0.02126315 0.56037868
v 0.21938490 -0.02124573 0.56035992
v 0.21951763 -0.02123065 0.56128760
v 0.21956447 -0.02120207 0.56050195
v 0.21974838 -0.02114231 0.56029138
v 0.22311173 -0.02014375 0.56195212
v 0.22381015 -0.01944148 0.56289130
f 1 37 19
f 19 2 1
f 12 2 19
f 1 7 21
f 21 37 1
f 21 36 37
f 23 2 12
f 23 19 37
f 12 19 23
f 2 23 20
f 34 33 20
f 20 33 8
f 1 2 3
f 3 7 1
f 22 33 36
f 36 21 22
f 24 20 23
f 2 20 6
f 11 21 7
f 7 22 11
f 11 22 21
f 8 33 10
f 33 13 10
f 10 3 8
f 7 3 10
f 10 13 7
f 33 22 17
f 17 13 33
f 35 24 23
f 36 33 35
f 35 33 34
f 37 36 35
f 35 23 37
f 14 6 20
f 8 3 9
f 6 14 9
f 9 20 8
f 9 14 20
f 15 22 7
f 20 24 29
f 6 9 5
f 2 6 5
f 22 15 18
f 18 15 7
f 7 13 18
f 24 35 32
f 4 9 3
f 4 5 9
f 4 3 2
f 2 5 4
f 16 17 22
f 22 18 16
f 13 17 16
f 16 18 13
f 35 29 31
f 31 32 35
f 31 29 24
f 24 32 31
f 26 35 34
f 35 26 27
f 27 26 20
f 34 20 30
f 28 29 35
f 35 27 28
f 20 29 28
f 28 27 20
f 20 26 25
f 25 30 20
f 25 26 34
f 34 30 25

