# https://github.com/mikedh/trimesh
v 0.18800074 -0.02643596 0.56274903
v 0.18800267 -0.02848056 0.56963513
v 0.18833468 -0.02588595 0.56094088
v 0.18857687 -0.02535527 0.56006889
v 0.18926596 -0.02492684 0.55959146
v 0.18950000 -0.02847199 0.56193726
v 0.18950000 -0.02846363 0.56186257
v 0.18950000 -0.02845451 0.56178796
v 0.18950000 -0.02843068 0.56160075
v 0.18950000 -0.02841992 0.56152637
v 0.18950000 -0.02840899 0.56145622
v 0.18950000 -0.02838137 0.56128640
v 0.18950000 -0.02837266 0.56123704
v 0.18950000 -0.02836352 0.56118774
v 0.18950000 -0.02835394 0.56113851
v 0.18950000 -0.02832153 0.56097970
v 0.18950000 -0.02831103 0.56093062
v 0.18950000 -0.02830005 0.56088165
v 0.18950000 -0.02828859 0.56083278
v 0.18950000 -0.02826356 0.56072955
v 0.18950000 -0.02825112 0.56068093
v 0.18950000 -0.02822374 0.56057823
v 0.18950000 -0.02821029 0.56052987
v 0.18950000 -0.02818433 0.56044037
v 0.18950000 -0.02816984 0.56039231
v 0.18950000 -0.02814201 0.56030339
v 0.18950000 -0.02811179 0.56021204
v 0.18950000 -0.02809568 0.56016451
v 0.19025000 -0.02842559 0.56185254
v 0.19025000 -0.02833986 0.56124234
v 0.19025000 -0.02833348 0.56120529
v 0.19100000 -0.02799543 0.56002869
v 0.19137543 -0.02625106 0.56589246
v 0.19250000 -0.02829837 0.56171051
v 0.19250000 -0.02820256 0.56103607
v 0.19276372 -0.02824383 0.56134859
v 0.19308055 -0.02788667 0.55992034
v 0.19491162 -0.02512328 0.55993492
v 0.19518986 -0.02600973 0.56544682
v 0.19534925 -0.02527730 0.56014631
v 0.19658452 -0.02784528 0.56005881
f 39 2 41
f 24 2 1
f 41 5 38
f 5 39 38
f 33 5 2
f 2 39 33
f 33 39 5
f 1 2 4
f 2 5 4
f 40 39 41
f 41 38 40
f 40 38 39
f 41 2 34
f 2 6 34
f 1 4 3
f 37 5 41
f 41 32 37
f 37 32 5
f 5 32 28
f 28 4 5
f 28 3 4
f 28 32 41
f 1 3 28
f 27 28 41
f 1 28 27
f 41 34 36
f 36 35 41
f 41 35 31
f 1 27 26
f 26 27 41
f 29 34 6
f 29 36 34
f 22 21 2
f 41 21 22
f 20 19 2
f 2 21 20
f 41 19 20
f 20 21 41
f 15 14 2
f 2 16 15
f 41 14 15
f 15 16 41
f 2 19 18
f 18 19 41
f 7 6 2
f 2 8 7
f 7 29 6
f 7 8 36
f 36 29 7
f 2 10 9
f 9 8 2
f 10 36 9
f 36 8 9
f 2 14 13
f 13 12 2
f 13 14 41
f 31 12 13
f 41 31 13
f 11 10 2
f 2 12 11
f 11 36 10
f 11 12 36
f 35 36 30
f 36 12 30
f 25 24 1
f 1 26 25
f 41 24 25
f 25 26 41
f 2 24 23
f 23 22 2
f 23 24 41
f 41 22 23
f 17 16 2
f 2 18 17
f 41 16 17
f 17 18 41
f 30 12 31
f 30 31 35

