# https://github.com/mikedh/trimesh
v 0.20950001 0.02387750 0.56255947
v 0.20966415 0.02357014 0.56520452
v 0.20987624 0.02376184 0.56381352
v 0.20998013 0.02375834 0.56297679
v 0.20998013 0.02375842 0.56294482
v 0.20998013 0.02375847 0.56291286
v 0.20998013 0.02375850 0.56288088
v 0.20998013 0.02375850 0.56281691
v 0.20998013 0.02375850 0.56284890
v 0.21004047 0.02372514 0.56371857
v 0.21016115 0.02363001 0.56430837
v 0.21022020 0.02369883 0.56300214
v 0.21022020 0.02369890 0.56297815
v 0.21022020 0.02369895 0.56295419
v 0.21022020 0.02369898 0.56293021
v 0.21022020 0.02369899 0.56290622
v 0.21022020 0.02369899 0.56288223
v 0.21022054 0.02365382 0.56401013
v 0.21058055 0.02356025 0.56398914
v 0.21076048 0.02353826 0.56372583
v 0.21076048 0.02354003 0.56370294
v 0.21076048 0.02354089 0.56369153
v 0.21076048 0.02354173 0.56368011
v 0.21076048 0.02354255 0.56366870
v 0.21076048 0.02354335 0.56365729
v 0.21076048 0.02354413 0.56364581
v 0.21076048 0.02354490 0.56363440
v 0.21076048 0.02354567 0.56362262
v 0.21076048 0.02354642 0.56361084
v 0.21076048 0.02354715 0.56359906
v 0.21076048 0.02354787 0.56358722
v 0.21082045 0.02352377 0.56370898
v 0.21085044 0.02351737 0.56368915
v 0.21093896 0.02350988 0.56343138
v 0.21094040 0.02349301 0.56369818
v 0.21094040 0.02350792 0.56346307
v 0.21094040 0.02351277 0.56334888
v 0.21094040 0.02351358 0.56332605
v 0.21094040 0.02351435 0.56330316
v 0.21094040 0.02351506 0.56328033
v 0.21094040 0.02351576 0.56325677
v 0.21094040 0.02351641 0.56323322
v 0.21094040 0.02351702 0.56320966
v 0.21094040 0.02351758 0.56318610
v 0.21094040 0.02351811 0.56316254
v 0.21094040 0.02351860 0.56313898
v 0.21094040 0.02351906 0.56311542
v 0.21094040 0.02351949 0.56309180
v 0.21094040 0.02351983 0.56307129
v 0.21094040 0.02352015 0.56305072
v 0.21094040 0.02352045 0.56303021
v 0.21094998 0.02351242 0.56144996
v 0.21116522 0.02343725 0.56364966
v 0.21127930 0.02339586 0.56377660
v 0.21160168 0.02332312 0.56094177
v 0.21165965 0.02332153 0.56114020
v 0.21165965 0.02332951 0.56325525
v 0.21165965 0.02332211 0.56115039
v 0.21206401 0.02320229 0.56088568
v 0.21237935 0.02295151 0.55984341
v 0.21346334 0.02266281 0.56446235
v 0.21388147 0.02276759 0.56125401
v 0.21526275 0.02238827 0.56225381
v 0.21543023 0.02233989 0.56089401
v 0.21568032 0.02209665 0.55963576
f 1 2 3
f 61 2 65
f 60 2 1
f 65 2 60
f 63 61 65
f 11 3 2
f 2 61 11
f 3 11 18
f 64 63 65
f 1 3 4
f 54 11 61
f 61 63 54
f 63 57 54
f 59 64 65
f 65 60 59
f 60 55 59
f 62 59 55
f 64 59 62
f 63 64 62
f 62 57 63
f 51 57 62
f 19 18 11
f 11 54 19
f 19 54 18
f 3 18 20
f 18 54 20
f 52 60 1
f 52 55 60
f 1 51 52
f 51 62 52
f 1 7 9
f 1 4 5
f 58 52 62
f 17 51 1
f 16 9 7
f 13 5 4
f 13 12 51
f 4 12 13
f 6 7 1
f 1 5 6
f 53 54 57
f 56 62 55
f 56 58 62
f 55 52 56
f 52 58 56
f 9 17 8
f 1 9 8
f 8 17 1
f 7 6 15
f 14 6 5
f 38 37 57
f 41 40 57
f 36 53 57
f 3 20 21
f 50 57 51
f 50 49 57
f 51 12 50
f 12 49 50
f 48 47 57
f 57 49 48
f 12 47 48
f 48 49 12
f 44 43 57
f 57 45 44
f 12 43 44
f 44 45 12
f 57 47 46
f 46 45 57
f 46 47 12
f 12 45 46
f 57 40 39
f 39 38 57
f 57 43 42
f 42 41 57
f 53 36 30
f 57 37 34
f 34 36 57
f 22 23 3
f 3 21 22
f 3 25 26
f 26 25 53
f 3 23 24
f 24 25 3
f 23 53 24
f 53 25 24
f 41 42 10
f 40 41 10
f 10 39 40
f 38 39 10
f 10 4 3
f 10 42 43
f 37 38 10
f 10 12 4
f 10 43 12
f 10 34 37
f 31 30 36
f 36 34 31
f 34 10 31
f 3 30 31
f 31 10 3
f 35 22 21
f 35 20 54
f 54 53 35
f 53 28 27
f 27 28 3
f 53 30 29
f 29 28 53
f 29 30 3
f 3 28 29
f 32 21 20
f 20 35 32
f 32 35 21
f 23 22 33
f 22 35 33
f 33 53 23
f 33 35 53
f 16 17 9
f 51 17 16
f 51 16 15
f 15 16 7
f 14 13 51
f 5 13 14
f 51 15 14
f 14 15 6
f 27 26 53
f 3 26 27

