# https://github.com/mikedh/trimesh
v 0.20689964 -0.00703044 0.55720001
v 0.20705771 -0.00888024 0.55720001
v 0.20711334 -0.00574801 0.55720001
v 0.20714904 -0.00571232 0.55720001
v 0.21424022 -0.00809191 0.55494242
v 0.21424022 -0.00790809 0.55494242
v 0.21427358 -0.00764684 0.55494242
v 0.21429132 -0.00843088 0.55494242
v 0.21434549 -0.00739347 0.55494242
v 0.21437462 -0.00868073 0.55494242
v 0.21445437 -0.00715365 0.55494242
v 0.21449423 -0.00891538 0.55494242
v 0.21459778 -0.00693274 0.55494242
v 0.21464748 -0.00912958 0.55494242
v 0.21477251 -0.00926433 0.55494242
v 0.21483094 -0.00668145 0.55494242
v 0.21492448 -0.00934866 0.55499545
v 0.21497465 -0.00656684 0.55494242
v 0.21500000 -0.01200000 0.55720001
v 0.21500241 -0.00674907 0.55515454
v 0.21501632 -0.00936099 0.55504848
v 0.21508177 -0.00701038 0.55720001
f 1 5 2
f 20 18 22
f 22 18 4
f 19 2 15
f 13 11 3
f 1 3 7
f 22 19 21
f 21 20 22
f 18 20 21
f 3 4 16
f 16 13 3
f 16 4 18
f 3 11 9
f 9 7 3
f 6 5 1
f 1 7 6
f 19 15 17
f 17 21 19
f 17 15 18
f 18 21 17
f 8 2 5
f 8 10 2
f 2 10 12
f 14 15 2
f 2 12 14
f 4 19 22
f 1 2 4
f 4 2 19
f 4 3 1
f 14 9 11
f 5 6 14
f 18 15 14
f 11 13 14
f 14 16 18
f 14 8 5
f 13 16 14
f 7 9 14
f 14 6 7
f 10 8 14
f 14 12 10

