# https://github.com/mikedh/trimesh
v -0.14506332 -0.00980773 0.32170001
v -0.14506332 -0.00980773 0.32220001
v -0.14500000 -0.00976795 0.32170001
v -0.14500000 -0.00976795 0.32220001
v -0.14493388 -0.00973301 0.32170001
v -0.14493388 -0.00973301 0.32220001
v -0.14491543 -0.01006887 0.32170001
v -0.14491543 -0.01006887 0.32220001
v -0.14486777 -0.00969806 0.32170001
v -0.14486777 -0.00969806 0.32220001
v -0.14482207 -0.00967813 0.32186668
v -0.14477500 -0.01015766 0.32170001
v -0.14477500 -0.01015766 0.32220001
v -0.14473068 -0.00963825 0.32170001
v -0.14473068 -0.00963825 0.32220001
v -0.14466010 -0.00961355 0.32170001
v -0.14466010 -0.00961355 0.32220001
v -0.14463657 -0.00960532 0.32203335
v -0.14458951 -0.00958885 0.32170001
v -0.14458951 -0.00958885 0.32220001
v -0.14453661 -0.01020774 0.32170001
v -0.14453661 -0.01020774 0.32220001
v -0.14451727 -0.00956950 0.32170001
v -0.14451727 -0.00956950 0.32220001
v -0.14444504 -0.00955014 0.32170001
v -0.14444504 -0.00955014 0.32220001
v -0.14434707 -0.00953161 0.32203335
v -0.14429808 -0.00952234 0.32170001
v -0.14429808 -0.00952234 0.32220001
v -0.14414946 -0.00950559 0.32170001
v -0.14414946 -0.00950559 0.32220001
v -0.14400000 -0.00950000 0.32170001
v -0.14400000 -0.00950000 0.32220001
v -0.14385054 -0.00950559 0.32170001
v -0.14385054 -0.00950559 0.32220001
v -0.14375146 -0.00951676 0.32203335
v -0.14370192 -0.00952234 0.32170001
v -0.14370192 -0.00952234 0.32220001
v -0.14356146 -0.01017125 0.32170001
v -0.14356146 -0.01017125 0.32220001
v -0.14355496 -0.00955014 0.32170001
v -0.14355496 -0.00955014 0.32220001
v -0.14350681 -0.00956305 0.32186668
v -0.14341049 -0.00958885 0.32170001
v -0.14341049 -0.00958885 0.32220001
v -0.14326932 -0.00963825 0.32170001
v -0.14326932 -0.00963825 0.32220001
v -0.14322500 -0.01015766 0.32170001
v -0.14322500 -0.01015766 0.32220001
v -0.14317793 -0.00967813 0.32203335
v -0.14313223 -0.00969806 0.32170001
v -0.14313223 -0.00969806 0.32220001
v -0.14300224 -0.01012500 0.32170001
v -0.14300224 -0.01012500 0.32220001
v -0.14300000 -0.00976795 0.32170001
v -0.14300000 -0.00976795 0.32220001
v -0.14287335 -0.00984752 0.32170001
v -0.14287335 -0.00984752 0.32220001
v -0.14275302 -0.00993634 0.32170001
v -0.14275302 -0.00993634 0.32220001
v -0.14269633 -0.00998512 0.32220001
v -0.14263965 -0.01003390 0.32170001
f 62 61 54
f 62 54 53
f 50 51 46
f 50 46 47
f 11 14 9
f 11 15 14
f 18 20 19
f 52 50 47
f 43 44 41
f 43 45 44
f 41 42 43
f 42 45 43
f 15 11 10
f 16 18 19
f 20 18 17
f 28 25 27
f 25 26 27
f 27 29 28
f 27 26 29
f 36 37 34
f 34 35 36
f 36 38 37
f 35 38 36
f 53 54 49
f 49 48 53
f 13 12 21
f 21 22 13
f 2 4 3
f 1 2 3
f 1 7 8
f 8 2 1
f 7 12 8
f 12 13 8
f 40 48 49
f 40 39 48
f 40 22 21
f 21 39 40
f 56 58 55
f 55 58 57
f 32 30 31
f 31 33 32
f 29 30 28
f 29 31 30
f 47 46 45
f 46 44 45
f 35 34 32
f 32 33 35
f 56 55 52
f 52 55 51
f 51 50 52
f 62 59 60
f 60 61 62
f 60 59 57
f 57 58 60
f 41 37 38
f 38 42 41
f 10 11 9
f 5 3 4
f 4 6 5
f 5 10 9
f 6 10 5
f 17 16 14
f 14 15 17
f 18 16 17
f 21 12 23
f 23 7 1
f 23 44 46
f 23 5 9
f 23 59 62
f 23 30 32
f 23 39 21
f 1 3 23
f 46 51 23
f 23 12 7
f 32 34 23
f 62 53 23
f 57 59 23
f 28 30 23
f 23 55 57
f 9 14 23
f 23 53 48
f 48 39 23
f 23 16 19
f 41 44 23
f 23 37 41
f 23 25 28
f 51 55 23
f 34 37 23
f 3 5 23
f 14 16 23
f 24 52 47
f 24 54 61
f 24 13 22
f 24 4 2
f 24 6 4
f 49 54 24
f 2 8 24
f 61 60 24
f 15 10 24
f 24 40 49
f 33 31 24
f 47 45 24
f 24 35 33
f 24 8 13
f 22 40 24
f 24 58 56
f 31 29 24
f 24 45 42
f 20 17 24
f 42 38 24
f 56 52 24
f 24 60 58
f 29 26 24
f 24 38 35
f 24 10 6
f 24 17 15
f 24 26 25
f 25 23 24
f 19 20 24
f 24 23 19

