# https://github.com/mikedh/trimesh
v -0.08508457 0.01006887 0.32010001
v -0.08500000 0.00976795 0.32010001
v -0.08498018 0.01014128 0.32010001
v -0.08495779 0.00979447 0.31993334
v -0.08493668 0.00980774 0.32010001
v -0.08487336 0.00984752 0.32010001
v -0.08479313 0.00990673 0.31993334
v -0.08475302 0.00993634 0.32010001
v -0.08469634 0.00998512 0.32010001
v -0.08467744 0.01000138 0.31993334
f 1 10 4
f 4 2 1
f 3 10 1
f 3 9 10
f 2 4 5
f 4 6 5
f 7 4 10
f 7 6 4
f 6 7 8
f 10 9 8
f 8 7 10
f 8 3 1
f 1 2 8
f 9 3 8
f 2 5 8
f 8 5 6

