# https://github.com/mikedh/trimesh
v -0.08790000 0.01150000 0.31760001
v -0.08790000 0.01150000 0.31960001
v -0.08789646 0.01140534 0.31893334
v -0.08789646 0.01159466 0.31826667
v -0.08789468 0.01135801 0.31760001
v -0.08789468 0.01135801 0.31960001
v -0.08789468 0.01164199 0.31760001
v -0.08789468 0.01164199 0.31960001
v -0.08787878 0.01121682 0.31760001
v -0.08787878 0.01121682 0.31960001
v -0.08787878 0.01178318 0.31760001
v -0.08787878 0.01178318 0.31960001
v -0.08785236 0.01107721 0.31760001
v -0.08785236 0.01107721 0.31960001
v -0.08785236 0.01192279 0.31760001
v -0.08785236 0.01192279 0.31960001
v -0.08781559 0.01093997 0.31760001
v -0.08781559 0.01093997 0.31960001
v -0.08781559 0.01206003 0.31760001
v -0.08781559 0.01206003 0.31960001
v -0.08776866 0.01080585 0.31760001
v -0.08776866 0.01080585 0.31960001
v -0.08776866 0.01219415 0.31760001
v -0.08776866 0.01219415 0.31960001
v -0.08771184 0.01067562 0.31760001
v -0.08771184 0.01067562 0.31960001
v -0.08771184 0.01232438 0.31760001
v -0.08771184 0.01232438 0.31960001
v -0.08764545 0.01055000 0.31760001
v -0.08764545 0.01055000 0.31960001
v -0.08764545 0.01245000 0.31760001
v -0.08764545 0.01245000 0.31960001
v -0.08756985 0.01042969 0.31760001
v -0.08756985 0.01042969 0.31960001
v -0.08756985 0.01257031 0.31760001
v -0.08756985 0.01257031 0.31960001
v -0.08748548 0.01031537 0.31760001
v -0.08748548 0.01031537 0.31960001
v -0.08748548 0.01268463 0.31760001
v -0.08748548 0.01268463 0.31960001
v -0.08739280 0.01020767 0.31760001
v -0.08739280 0.01020767 0.31960001
v -0.08739280 0.01279233 0.31760001
v -0.08739280 0.01279233 0.31960001
v -0.08729233 0.01010720 0.31760001
v -0.08729233 0.01010720 0.31960001
v -0.08729233 0.01289280 0.31760001
v -0.08729233 0.01289280 0.31960001
v -0.08723848 0.01293914 0.31760001
v -0.08723848 0.01293914 0.31960001
v -0.08718463 0.01001452 0.31760001
v -0.08718463 0.01001452 0.31960001
v -0.08718463 0.01298548 0.31760001
v -0.08718463 0.01298548 0.31960001
v -0.08707030 0.00993015 0.31760001
v -0.08707030 0.00993015 0.31960001
v -0.08707030 0.01306985 0.31760001
v -0.08707030 0.01306985 0.31960001
v -0.08695000 0.00985455 0.31760001
v -0.08695000 0.00985455 0.31960001
v -0.08695000 0.01314545 0.31760001
v -0.08695000 0.01314545 0.31960001
v -0.08682438 0.00978816 0.31760001
v -0.08682438 0.00978816 0.31960001
v -0.08682438 0.01321184 0.31760001
v -0.08682438 0.01321184 0.31960001
v -0.08669415 0.00973134 0.31960001
v -0.08669415 0.01326866 0.31760001
v -0.08669415 0.01326866 0.31960001
v -0.08656004 0.00968441 0.31960001
v -0.08656004 0.01331559 0.31760001
v -0.08656004 0.01331559 0.31960001
v -0.08642279 0.00964764 0.31760001
v -0.08642279 0.01335236 0.31760001
v -0.08642279 0.01335236 0.31960001
v -0.08628318 0.00962122 0.31760001
v -0.08628318 0.01337878 0.31760001
v -0.08628318 0.01337878 0.31960001
v -0.08614198 0.00960531 0.31760001
v -0.08614198 0.01339469 0.31760001
v -0.08614198 0.01339469 0.31960001
v -0.08600000 0.00960000 0.31760001
v -0.08600000 0.01340000 0.31760001
v -0.08600000 0.01340000 0.31960001
v -0.08585801 0.00960531 0.31760001
v -0.08585801 0.01339469 0.31760001
v -0.08585801 0.01339469 0.31960001
v -0.08571682 0.00962122 0.31760001
v -0.08571682 0.01337878 0.31760001
v -0.08571682 0.01337878 0.31960001
v -0.08557721 0.00964764 0.31760001
v -0.08557721 0.01335236 0.31760001
v -0.08557721 0.01335236 0.31960001
v -0.08543996 0.00968441 0.31960001
v -0.08543996 0.01331559 0.31760001
v -0.08543996 0.01331559 0.31960001
v -0.08530585 0.00973134 0.31760001
v -0.08530585 0.00973134 0.31960001
v -0.08530585 0.01326866 0.31760001
v -0.08530585 0.01326866 0.31960001
v -0.08517562 0.00978816 0.31960001
v -0.08517562 0.01321184 0.31760001
v -0.08517562 0.01321184 0.31960001
v -0.08505000 0.00985455 0.31960001
v -0.08505000 0.01314545 0.31760001
v -0.08505000 0.01314545 0.31960001
v -0.08495652 0.00996951 0.31760001
v -0.08492969 0.00993015 0.31960001
v -0.08492969 0.01306985 0.31760001
v -0.08492969 0.01306985 0.31960001
v -0.08481537 0.01001452 0.31960001
v -0.08481537 0.01298548 0.31960001
v -0.08479622 0.01044762 0.31960001
v -0.08470767 0.01289280 0.31760001
f 114 111 107
f 113 111 114
f 112 113 114
f 85 94 82
f 88 94 85
f 97 94 91
f 91 94 88
f 82 94 70
f 109 112 114
f 98 94 97
f 108 97 107
f 108 104 97
f 108 107 111
f 73 70 63
f 64 63 67
f 63 70 67
f 4 7 1
f 1 2 4
f 97 104 101
f 101 98 97
f 70 73 76
f 112 109 110
f 8 4 2
f 7 4 8
f 3 6 2
f 3 2 1
f 82 70 79
f 70 76 79
f 5 3 1
f 6 3 5
f 12 15 11
f 12 16 15
f 27 23 24
f 24 28 27
f 14 10 9
f 9 13 14
f 17 18 14
f 14 13 17
f 22 17 21
f 18 17 22
f 46 42 45
f 45 42 41
f 38 37 41
f 41 42 38
f 33 37 38
f 38 34 33
f 25 22 21
f 26 22 25
f 30 25 29
f 26 25 30
f 30 29 33
f 33 34 30
f 65 61 62
f 62 66 65
f 102 99 103
f 103 99 100
f 103 105 102
f 106 105 103
f 109 105 110
f 110 105 106
f 40 44 39
f 39 44 43
f 39 36 40
f 35 36 39
f 11 7 8
f 8 12 11
f 20 23 19
f 20 24 23
f 19 15 20
f 15 16 20
f 52 46 45
f 45 51 52
f 55 56 52
f 52 51 55
f 75 74 71
f 75 71 72
f 58 57 53
f 58 53 54
f 61 57 58
f 58 62 61
f 65 66 68
f 66 69 68
f 68 69 72
f 72 71 68
f 90 93 92
f 92 89 90
f 43 44 48
f 48 47 43
f 32 31 27
f 27 28 32
f 35 31 32
f 32 36 35
f 10 6 5
f 5 9 10
f 90 89 87
f 89 86 87
f 77 74 78
f 74 75 78
f 78 80 77
f 81 80 78
f 64 60 59
f 59 63 64
f 56 55 59
f 59 60 56
f 84 80 81
f 83 80 84
f 84 87 86
f 84 86 83
f 100 99 96
f 99 95 96
f 96 92 93
f 96 95 92
f 49 109 114
f 114 107 49
f 49 31 35
f 97 91 49
f 49 15 19
f 49 95 99
f 107 97 49
f 1 7 49
f 21 17 49
f 49 85 82
f 49 45 41
f 77 80 49
f 53 57 49
f 49 61 65
f 63 59 49
f 88 85 49
f 49 91 88
f 19 23 49
f 41 37 49
f 49 25 21
f 49 74 77
f 65 68 49
f 11 15 49
f 49 7 11
f 102 105 49
f 51 45 49
f 49 73 63
f 49 37 33
f 33 29 49
f 49 5 1
f 49 99 102
f 49 57 61
f 89 92 49
f 49 23 27
f 27 31 49
f 13 9 49
f 49 17 13
f 35 39 49
f 49 76 73
f 29 25 49
f 82 79 49
f 71 74 49
f 49 105 109
f 49 39 43
f 49 55 51
f 49 79 76
f 49 80 83
f 49 68 71
f 49 86 89
f 43 47 49
f 9 5 49
f 83 86 49
f 92 95 49
f 49 59 55
f 72 69 50
f 26 30 50
f 111 113 50
f 113 112 50
f 112 110 50
f 50 70 94
f 94 98 50
f 14 18 50
f 50 108 111
f 28 24 50
f 50 32 28
f 50 46 52
f 50 101 104
f 64 67 50
f 50 60 64
f 50 103 100
f 100 96 50
f 50 10 14
f 2 6 50
f 34 38 50
f 50 22 26
f 104 108 50
f 50 38 42
f 50 67 70
f 50 75 72
f 50 93 90
f 50 58 54
f 16 12 50
f 50 8 2
f 50 6 10
f 18 22 50
f 98 101 50
f 50 42 46
f 52 56 50
f 50 30 34
f 50 20 16
f 66 62 50
f 50 69 66
f 50 84 81
f 106 103 50
f 50 110 106
f 50 44 40
f 40 36 50
f 12 8 50
f 24 20 50
f 90 87 50
f 62 58 50
f 50 48 44
f 36 32 50
f 56 60 50
f 81 78 50
f 50 78 75
f 87 84 50
f 50 96 93
f 54 53 50
f 53 49 50
f 47 48 50
f 50 49 47

